<?xml version="1.0" encoding="UTF-8" standalone="no"?><svg xmlns="http://www.w3.org/2000/svg" xmlns:xlink="http://www.w3.org/1999/xlink" contentScriptType="application/ecmascript" contentStyleType="text/css" height="360px" preserveAspectRatio="none" style="width:987px;height:360px;" version="1.1" viewBox="0 0 987 360" width="987px" zoomAndPan="magnify"><defs><filter height="300%" id="f1pniy5kfsr608" width="300%" x="-1" y="-1"><feGaussianBlur result="blurOut" stdDeviation="2.0"/><feColorMatrix in="blurOut" result="blurOut2" type="matrix" values="0 0 0 0 0 0 0 0 0 0 0 0 0 0 0 0 0 0 .4 0"/><feOffset dx="4.0" dy="4.0" in="blurOut2" result="blurOut3"/><feBlend in="SourceGraphic" in2="blurOut3" mode="normal"/></filter></defs><g><!--MD5=[ed6624c6556d5e7b1bd23032162d20b7]
class Client--><rect codeLine="26" fill="#FEFECE" filter="url(#f1pniy5kfsr608)" height="150.6875" id="Client" style="stroke:#A80036;stroke-width:1.5;" width="83" x="551.5" y="195.5"/><ellipse cx="575.05" cy="211.5" fill="#ADD1B2" rx="11" ry="11" style="stroke:#A80036;stroke-width:1.0;"/><path d="M577.05,208 Q577.2531,207.5 577.4875,207.25 Q577.7219,207 577.9875,207 Q578.4563,207 578.7531,207.2813 Q579.05,207.5625 579.05,208.2188 L579.05,209.7813 Q579.05,210.4375 578.7688,210.7188 Q578.4875,211 578.05,211 Q577.6594,211 577.4094,210.8281 Q577.1594,210.6563 577.05,210.2031 Q577.0031,209.8906 576.8313,209.7188 Q576.5188,209.3906 575.9563,209.2031 Q575.3938,209 574.8313,209 Q574.1281,209 573.5344,209.2813 Q572.9563,209.5625 572.5031,210.1875 Q572.05,210.8125 572.05,211.6719 L572.05,212.5938 Q572.05,213.625 572.8938,214.3125 Q573.7375,215 575.2375,215 Q576.1281,215 576.7531,214.7969 Q577.1125,214.6875 577.5188,214.3281 Q577.7844,214.125 577.925,214.0625 Q578.0656,214 578.2375,214 Q578.5656,214 578.8,214.2656 Q579.05,214.5156 579.05,214.875 Q579.05,215.2188 578.7063,215.625 Q578.2063,216.2188 577.4094,216.5469 Q576.3625,217 575.0813,217 Q573.5813,217 572.3781,216.4063 Q571.4094,215.9375 570.7219,214.9219 Q570.05,213.9063 570.05,212.7031 L570.05,211.6094 Q570.05,210.3594 570.6438,209.2656 Q571.2531,208.1719 572.3,207.5938 Q573.3625,207 574.55,207 Q575.2688,207 575.8938,207.25 Q576.5188,207.5 577.05,208 Z " fill="#000000"/><text fill="#000000" font-family="sans-serif" font-size="12" lengthAdjust="spacing" textLength="32" x="590.95" y="216.4102">Client</text><line style="stroke:#A80036;stroke-width:1.5;" x1="552.5" x2="633.5" y1="227.5" y2="227.5"/><text fill="#000000" font-family="sans-serif" font-size="11" lengthAdjust="spacing" textLength="44" x="557.5" y="242.9189">-citizenID</text><text fill="#000000" font-family="sans-serif" font-size="11" lengthAdjust="spacing" textLength="31" x="557.5" y="256.7549">-nhsID</text><text fill="#000000" font-family="sans-serif" font-size="11" lengthAdjust="spacing" textLength="47" x="557.5" y="270.5908">-birthDate</text><text fill="#000000" font-family="sans-serif" font-size="11" lengthAdjust="spacing" textLength="22" x="557.5" y="284.4268">-sex</text><text fill="#000000" font-family="sans-serif" font-size="11" lengthAdjust="spacing" textLength="19" x="557.5" y="298.2627">-TIN</text><text fill="#000000" font-family="sans-serif" font-size="11" lengthAdjust="spacing" textLength="71" x="557.5" y="312.0986">-phoneNumber</text><text fill="#000000" font-family="sans-serif" font-size="11" lengthAdjust="spacing" textLength="28" x="557.5" y="325.9346">-email</text><text fill="#000000" font-family="sans-serif" font-size="11" lengthAdjust="spacing" textLength="30" x="557.5" y="339.7705">-name</text><!--MD5=[02e4b9b7573f1156f41e60aa5b4e25a4]
class Company--><rect codeLine="22" fill="#FEFECE" filter="url(#f1pniy5kfsr608)" height="53.8359" id="Company" style="stroke:#A80036;stroke-width:1.5;" width="85" x="268" y="244"/><ellipse cx="283" cy="260" fill="#ADD1B2" rx="11" ry="11" style="stroke:#A80036;stroke-width:1.0;"/><path d="M285,256.5 Q285.2031,256 285.4375,255.75 Q285.6719,255.5 285.9375,255.5 Q286.4063,255.5 286.7031,255.7813 Q287,256.0625 287,256.7188 L287,258.2813 Q287,258.9375 286.7188,259.2188 Q286.4375,259.5 286,259.5 Q285.6094,259.5 285.3594,259.3281 Q285.1094,259.1563 285,258.7031 Q284.9531,258.3906 284.7813,258.2188 Q284.4688,257.8906 283.9063,257.7031 Q283.3438,257.5 282.7813,257.5 Q282.0781,257.5 281.4844,257.7813 Q280.9063,258.0625 280.4531,258.6875 Q280,259.3125 280,260.1719 L280,261.0938 Q280,262.125 280.8438,262.8125 Q281.6875,263.5 283.1875,263.5 Q284.0781,263.5 284.7031,263.2969 Q285.0625,263.1875 285.4688,262.8281 Q285.7344,262.625 285.875,262.5625 Q286.0156,262.5 286.1875,262.5 Q286.5156,262.5 286.75,262.7656 Q287,263.0156 287,263.375 Q287,263.7188 286.6563,264.125 Q286.1563,264.7188 285.3594,265.0469 Q284.3125,265.5 283.0313,265.5 Q281.5313,265.5 280.3281,264.9063 Q279.3594,264.4375 278.6719,263.4219 Q278,262.4063 278,261.2031 L278,260.1094 Q278,258.8594 278.5938,257.7656 Q279.2031,256.6719 280.25,256.0938 Q281.3125,255.5 282.5,255.5 Q283.2188,255.5 283.8438,255.75 Q284.4688,256 285,256.5 Z " fill="#000000"/><text fill="#000000" font-family="sans-serif" font-size="12" lengthAdjust="spacing" textLength="53" x="297" y="264.9102">Company</text><line style="stroke:#A80036;stroke-width:1.5;" x1="269" x2="352" y1="276" y2="276"/><text fill="#000000" font-family="sans-serif" font-size="11" lengthAdjust="spacing" textLength="59" x="274" y="291.4189">-designation</text><!--MD5=[36afb6bbd95a8ac778c4537c55a683d5]
class ParameterCategory--><rect codeLine="37" fill="#FEFECE" filter="url(#f1pniy5kfsr608)" height="81.5078" id="ParameterCategory" style="stroke:#A80036;stroke-width:1.5;" width="139" x="241" y="7"/><ellipse cx="256" cy="23" fill="#ADD1B2" rx="11" ry="11" style="stroke:#A80036;stroke-width:1.0;"/><path d="M258,19.5 Q258.2031,19 258.4375,18.75 Q258.6719,18.5 258.9375,18.5 Q259.4063,18.5 259.7031,18.7813 Q260,19.0625 260,19.7188 L260,21.2813 Q260,21.9375 259.7188,22.2188 Q259.4375,22.5 259,22.5 Q258.6094,22.5 258.3594,22.3281 Q258.1094,22.1563 258,21.7031 Q257.9531,21.3906 257.7813,21.2188 Q257.4688,20.8906 256.9063,20.7031 Q256.3438,20.5 255.7813,20.5 Q255.0781,20.5 254.4844,20.7813 Q253.9063,21.0625 253.4531,21.6875 Q253,22.3125 253,23.1719 L253,24.0938 Q253,25.125 253.8438,25.8125 Q254.6875,26.5 256.1875,26.5 Q257.0781,26.5 257.7031,26.2969 Q258.0625,26.1875 258.4688,25.8281 Q258.7344,25.625 258.875,25.5625 Q259.0156,25.5 259.1875,25.5 Q259.5156,25.5 259.75,25.7656 Q260,26.0156 260,26.375 Q260,26.7188 259.6563,27.125 Q259.1563,27.7188 258.3594,28.0469 Q257.3125,28.5 256.0313,28.5 Q254.5313,28.5 253.3281,27.9063 Q252.3594,27.4375 251.6719,26.4219 Q251,25.4063 251,24.2031 L251,23.1094 Q251,21.8594 251.5938,20.7656 Q252.2031,19.6719 253.25,19.0938 Q254.3125,18.5 255.5,18.5 Q256.2188,18.5 256.8438,18.75 Q257.4688,19 258,19.5 Z " fill="#000000"/><text fill="#000000" font-family="sans-serif" font-size="12" lengthAdjust="spacing" textLength="107" x="270" y="27.9102">ParameterCategory</text><line style="stroke:#A80036;stroke-width:1.5;" x1="242" x2="379" y1="39" y2="39"/><text fill="#000000" font-family="sans-serif" font-size="11" lengthAdjust="spacing" textLength="28" x="247" y="54.4189">-code</text><text fill="#000000" font-family="sans-serif" font-size="11" lengthAdjust="spacing" textLength="57" x="247" y="68.2549">-description</text><text fill="#000000" font-family="sans-serif" font-size="11" lengthAdjust="spacing" textLength="31" x="247" y="82.0908">-nhsID</text><!--MD5=[1f6362a5c8f21d8d6a0fce68f3a92a4e]
class Parameter--><rect codeLine="43" fill="#FEFECE" filter="url(#f1pniy5kfsr608)" height="81.5078" id="Parameter" style="stroke:#A80036;stroke-width:1.5;" width="90" x="548" y="7"/><ellipse cx="563" cy="23" fill="#ADD1B2" rx="11" ry="11" style="stroke:#A80036;stroke-width:1.0;"/><path d="M565,19.5 Q565.2031,19 565.4375,18.75 Q565.6719,18.5 565.9375,18.5 Q566.4063,18.5 566.7031,18.7813 Q567,19.0625 567,19.7188 L567,21.2813 Q567,21.9375 566.7188,22.2188 Q566.4375,22.5 566,22.5 Q565.6094,22.5 565.3594,22.3281 Q565.1094,22.1563 565,21.7031 Q564.9531,21.3906 564.7813,21.2188 Q564.4688,20.8906 563.9063,20.7031 Q563.3438,20.5 562.7813,20.5 Q562.0781,20.5 561.4844,20.7813 Q560.9063,21.0625 560.4531,21.6875 Q560,22.3125 560,23.1719 L560,24.0938 Q560,25.125 560.8438,25.8125 Q561.6875,26.5 563.1875,26.5 Q564.0781,26.5 564.7031,26.2969 Q565.0625,26.1875 565.4688,25.8281 Q565.7344,25.625 565.875,25.5625 Q566.0156,25.5 566.1875,25.5 Q566.5156,25.5 566.75,25.7656 Q567,26.0156 567,26.375 Q567,26.7188 566.6563,27.125 Q566.1563,27.7188 565.3594,28.0469 Q564.3125,28.5 563.0313,28.5 Q561.5313,28.5 560.3281,27.9063 Q559.3594,27.4375 558.6719,26.4219 Q558,25.4063 558,24.2031 L558,23.1094 Q558,21.8594 558.5938,20.7656 Q559.2031,19.6719 560.25,19.0938 Q561.3125,18.5 562.5,18.5 Q563.2188,18.5 563.8438,18.75 Q564.4688,19 565,19.5 Z " fill="#000000"/><text fill="#000000" font-family="sans-serif" font-size="12" lengthAdjust="spacing" textLength="58" x="577" y="27.9102">Parameter</text><line style="stroke:#A80036;stroke-width:1.5;" x1="549" x2="637" y1="39" y2="39"/><text fill="#000000" font-family="sans-serif" font-size="11" lengthAdjust="spacing" textLength="59" x="554" y="54.4189">-designation</text><text fill="#000000" font-family="sans-serif" font-size="11" lengthAdjust="spacing" textLength="57" x="554" y="68.2549">-description</text><text fill="#000000" font-family="sans-serif" font-size="11" lengthAdjust="spacing" textLength="28" x="554" y="82.0908">-code</text><!--MD5=[aeb3272166074d8737a70b61b1e71682]
class TestType--><rect codeLine="49" fill="#FEFECE" filter="url(#f1pniy5kfsr608)" height="81.5078" id="TestType" style="stroke:#A80036;stroke-width:1.5;" width="96" x="7" y="72"/><ellipse cx="28.3" cy="88" fill="#ADD1B2" rx="11" ry="11" style="stroke:#A80036;stroke-width:1.0;"/><path d="M30.3,84.5 Q30.5031,84 30.7375,83.75 Q30.9719,83.5 31.2375,83.5 Q31.7063,83.5 32.0031,83.7813 Q32.3,84.0625 32.3,84.7188 L32.3,86.2813 Q32.3,86.9375 32.0188,87.2188 Q31.7375,87.5 31.3,87.5 Q30.9094,87.5 30.6594,87.3281 Q30.4094,87.1563 30.3,86.7031 Q30.2531,86.3906 30.0813,86.2188 Q29.7688,85.8906 29.2063,85.7031 Q28.6438,85.5 28.0813,85.5 Q27.3781,85.5 26.7844,85.7813 Q26.2063,86.0625 25.7531,86.6875 Q25.3,87.3125 25.3,88.1719 L25.3,89.0938 Q25.3,90.125 26.1438,90.8125 Q26.9875,91.5 28.4875,91.5 Q29.3781,91.5 30.0031,91.2969 Q30.3625,91.1875 30.7688,90.8281 Q31.0344,90.625 31.175,90.5625 Q31.3156,90.5 31.4875,90.5 Q31.8156,90.5 32.05,90.7656 Q32.3,91.0156 32.3,91.375 Q32.3,91.7188 31.9563,92.125 Q31.4563,92.7188 30.6594,93.0469 Q29.6125,93.5 28.3313,93.5 Q26.8313,93.5 25.6281,92.9063 Q24.6594,92.4375 23.9719,91.4219 Q23.3,90.4063 23.3,89.2031 L23.3,88.1094 Q23.3,86.8594 23.8938,85.7656 Q24.5031,84.6719 25.55,84.0938 Q26.6125,83.5 27.8,83.5 Q28.5188,83.5 29.1438,83.75 Q29.7688,84 30.3,84.5 Z " fill="#000000"/><text fill="#000000" font-family="sans-serif" font-size="12" lengthAdjust="spacing" textLength="50" x="43.7" y="92.9102">TestType</text><line style="stroke:#A80036;stroke-width:1.5;" x1="8" x2="102" y1="104" y2="104"/><text fill="#000000" font-family="sans-serif" font-size="11" lengthAdjust="spacing" textLength="28" x="13" y="119.4189">-code</text><text fill="#000000" font-family="sans-serif" font-size="11" lengthAdjust="spacing" textLength="57" x="13" y="133.2549">-description</text><text fill="#000000" font-family="sans-serif" font-size="11" lengthAdjust="spacing" textLength="84" x="13" y="147.0908">-collectingMethod</text><!--MD5=[df38be88ccee13e832d6fafd6288a4ca]
class Test--><rect codeLine="55" fill="#FEFECE" filter="url(#f1pniy5kfsr608)" height="136.8516" id="Test" style="stroke:#A80036;stroke-width:1.5;" width="144" x="829" y="73.5"/><ellipse cx="884.75" cy="89.5" fill="#ADD1B2" rx="11" ry="11" style="stroke:#A80036;stroke-width:1.0;"/><path d="M886.75,86 Q886.9531,85.5 887.1875,85.25 Q887.4219,85 887.6875,85 Q888.1563,85 888.4531,85.2813 Q888.75,85.5625 888.75,86.2188 L888.75,87.7813 Q888.75,88.4375 888.4688,88.7188 Q888.1875,89 887.75,89 Q887.3594,89 887.1094,88.8281 Q886.8594,88.6563 886.75,88.2031 Q886.7031,87.8906 886.5313,87.7188 Q886.2188,87.3906 885.6563,87.2031 Q885.0938,87 884.5313,87 Q883.8281,87 883.2344,87.2813 Q882.6563,87.5625 882.2031,88.1875 Q881.75,88.8125 881.75,89.6719 L881.75,90.5938 Q881.75,91.625 882.5938,92.3125 Q883.4375,93 884.9375,93 Q885.8281,93 886.4531,92.7969 Q886.8125,92.6875 887.2188,92.3281 Q887.4844,92.125 887.625,92.0625 Q887.7656,92 887.9375,92 Q888.2656,92 888.5,92.2656 Q888.75,92.5156 888.75,92.875 Q888.75,93.2188 888.4063,93.625 Q887.9063,94.2188 887.1094,94.5469 Q886.0625,95 884.7813,95 Q883.2813,95 882.0781,94.4063 Q881.1094,93.9375 880.4219,92.9219 Q879.75,91.9063 879.75,90.7031 L879.75,89.6094 Q879.75,88.3594 880.3438,87.2656 Q880.9531,86.1719 882,85.5938 Q883.0625,85 884.25,85 Q884.9688,85 885.5938,85.25 Q886.2188,85.5 886.75,86 Z " fill="#000000"/><text fill="#000000" font-family="sans-serif" font-size="12" lengthAdjust="spacing" textLength="24" x="905.25" y="94.4102">Test</text><line style="stroke:#A80036;stroke-width:1.5;" x1="830" x2="972" y1="105.5" y2="105.5"/><text fill="#000000" font-family="sans-serif" font-size="11" lengthAdjust="spacing" textLength="57" x="835" y="120.9189">-description</text><text fill="#000000" font-family="sans-serif" font-size="11" lengthAdjust="spacing" textLength="28" x="835" y="134.7549">-code</text><text fill="#000000" font-family="sans-serif" font-size="11" lengthAdjust="spacing" textLength="47" x="835" y="148.5908">-nhsCode</text><text fill="#000000" font-family="sans-serif" font-size="11" lengthAdjust="spacing" textLength="79" x="835" y="162.4268">-collectDateTime</text><text fill="#000000" font-family="sans-serif" font-size="11" lengthAdjust="spacing" textLength="132" x="835" y="176.2627">-chemicalAnalysisDateTime</text><text fill="#000000" font-family="sans-serif" font-size="11" lengthAdjust="spacing" textLength="94" x="835" y="190.0986">-diagnosisDateTime</text><text fill="#000000" font-family="sans-serif" font-size="11" lengthAdjust="spacing" textLength="93" x="835" y="203.9346">-validationDateTime</text><!--MD5=[8aaf0efd5e2f3824be7ea3e488dcc283]
link TestType to ParameterCategory--><path codeLine="15" d="M103.09,100.93 C141.75,91.01 197.03,76.84 240.66,65.65 " fill="none" id="TestType-ParameterCategory" style="stroke:#A80036;stroke-width:1.0;"/><polygon fill="#000000" points="142.8433,64.9337,133.3516,64.3338,134.8118,70.0274,142.8433,64.9337" style="stroke:#000000;stroke-width:1.0;"/><text fill="#000000" font-family="sans-serif" font-size="13" lengthAdjust="spacing" textLength="63" x="147" y="71.4951">analyzes a</text><text fill="#000000" font-family="sans-serif" font-size="13" lengthAdjust="spacing" textLength="5" x="111.1528" y="95.2937">*</text><text fill="#000000" font-family="sans-serif" font-size="13" lengthAdjust="spacing" textLength="7" x="226.0968" y="81.8338">1</text><!--MD5=[c2c6b28b052a3fe86d789b83a09b2815]
link TestType to Test--><path codeLine="16" d="M103.19,114.62 C243.87,119.46 661.04,133.79 828.88,139.56 " fill="none" id="TestType-Test" style="stroke:#A80036;stroke-width:1.0;"/><polygon fill="#000000" points="444.503,117.004,453.4418,120.2519,453.6436,114.3775,444.503,117.004" style="stroke:#000000;stroke-width:1.0;"/><text fill="#000000" font-family="sans-serif" font-size="13" lengthAdjust="spacing" textLength="24" x="458.5" y="122.4951">is of</text><text fill="#000000" font-family="sans-serif" font-size="13" lengthAdjust="spacing" textLength="7" x="111.105" y="129.6528">1</text><text fill="#000000" font-family="sans-serif" font-size="13" lengthAdjust="spacing" textLength="5" x="816.1848" y="153.6543">*</text><!--MD5=[7a9e3e328fb1db48284e23a673c1e60d]
link ParameterCategory to Parameter--><path codeLine="17" d="M380.12,48 C432.34,48 502.68,48 547.7,48 " fill="none" id="ParameterCategory-Parameter" style="stroke:#A80036;stroke-width:1.0;"/><polygon fill="#000000" points="410,39.1758,419.0451,42.1147,419.0451,36.2369,410,39.1758" style="stroke:#000000;stroke-width:1.0;"/><text fill="#000000" font-family="sans-serif" font-size="13" lengthAdjust="spacing" textLength="93" x="424" y="44.4951">presented under</text><text fill="#000000" font-family="sans-serif" font-size="13" lengthAdjust="spacing" textLength="7" x="388.1175" y="62.4163">1</text><text fill="#000000" font-family="sans-serif" font-size="13" lengthAdjust="spacing" textLength="5" x="535.0819" y="62.8374">*</text><!--MD5=[4265453a012991a726928e22789b8a83]
link Parameter to Test--><path codeLine="18" d="M638.17,61.57 C688.07,76.9 769.99,102.06 828.92,120.17 " fill="none" id="Parameter-Test" style="stroke:#A80036;stroke-width:1.0;"/><polygon fill="#000000" points="668.2205,63.7075,676.0037,69.173,677.7298,63.5543,668.2205,63.7075" style="stroke:#000000;stroke-width:1.0;"/><text fill="#000000" font-family="sans-serif" font-size="13" lengthAdjust="spacing" textLength="116" x="682" y="70.4951">requests analysis of</text><text fill="#000000" font-family="sans-serif" font-size="13" lengthAdjust="spacing" textLength="20" x="645.9283" y="78.1577">1..*</text><text fill="#000000" font-family="sans-serif" font-size="13" lengthAdjust="spacing" textLength="5" x="816.2289" y="132.2647">*</text><!--MD5=[502b51bc079239060389dab43b7d3470]
link Client to Test--><path codeLine="19" d="M634.54,254.44 C675.96,237.46 742.09,210.19 799,186 C808.68,181.88 818.86,177.51 828.89,173.17 " fill="none" id="Client-Test" style="stroke:#A80036;stroke-width:1.0;"/><polygon fill="#000000" points="688.8871,179.1047,698.3658,178.3266,696.0981,172.9038,688.8871,179.1047" style="stroke:#000000;stroke-width:1.0;"/><text fill="#000000" font-family="sans-serif" font-size="13" lengthAdjust="spacing" textLength="75" x="702.5" y="182.4951">requested by</text><text fill="#000000" font-family="sans-serif" font-size="13" lengthAdjust="spacing" textLength="7" x="642.5627" y="266.4695">1</text><text fill="#000000" font-family="sans-serif" font-size="13" lengthAdjust="spacing" textLength="5" x="816.1958" y="190.7303">*</text><!--MD5=[6eee883fdf517d3604e8bd0f2058e9aa]
link Company to Client--><path codeLine="20" d="M353.19,271 C406.61,271 498.59,271 551.45,271 " fill="none" id="Company-Client" style="stroke:#A80036;stroke-width:1.0;"/><polygon fill="#000000" points="448,262.1758,438.9549,259.2369,438.9549,265.1147,448,262.1758" style="stroke:#000000;stroke-width:1.0;"/><text fill="#000000" font-family="sans-serif" font-size="13" lengthAdjust="spacing" textLength="37" x="452" y="267.4951">knows</text><text fill="#000000" font-family="sans-serif" font-size="13" lengthAdjust="spacing" textLength="7" x="361.1289" y="285.9144">1</text><text fill="#000000" font-family="sans-serif" font-size="13" lengthAdjust="spacing" textLength="5" x="538.6036" y="285.9793">*</text><!--MD5=[aba1f26e5ba8da3549480c4b364b77b8]
@startuml
'https://plantuml.com/class-diagram

hide methods
skinparam classAttributeIconSize 0
left to right direction


class Client
class Company
class ParameterCategory
class Parameter
class TestType
class Test

TestType "*" - - "1" ParameterCategory : > analyzes a
TestType "1" - - "*" Test: < is of
ParameterCategory "1" - - "*" Parameter : < presented under
Parameter "1..*" - - "*" Test : < requests analysis of
Client "1" - - "*" Test : < requested by
Company "1" - - "*" Client : > knows

class Company{
-designation
}

class Client{
-citizenID
-nhsID
-birthDate
-sex
-TIN
-phoneNumber
-email
-name
}

class ParameterCategory{
-code
-description
-nhsID
}

class Parameter{
-designation
-description
-code
}

class TestType{
-code
-description
-collectingMethod
}

class Test{
-description
-code
-nhsCode
-collectDateTime
-chemicalAnalysisDateTime
-diagnosisDateTime
-validationDateTime
}


@enduml

@startuml

hide methods
skinparam classAttributeIconSize 0
left to right direction


class Client
class Company
class ParameterCategory
class Parameter
class TestType
class Test

TestType "*" - - "1" ParameterCategory : > analyzes a
TestType "1" - - "*" Test: < is of
ParameterCategory "1" - - "*" Parameter : < presented under
Parameter "1..*" - - "*" Test : < requests analysis of
Client "1" - - "*" Test : < requested by
Company "1" - - "*" Client : > knows

class Company{
-designation
}

class Client{
-citizenID
-nhsID
-birthDate
-sex
-TIN
-phoneNumber
-email
-name
}

class ParameterCategory{
-code
-description
-nhsID
}

class Parameter{
-designation
-description
-code
}

class TestType{
-code
-description
-collectingMethod
}

class Test{
-description
-code
-nhsCode
-collectDateTime
-chemicalAnalysisDateTime
-diagnosisDateTime
-validationDateTime
}


@enduml

PlantUML version 1.2021.4(Sun Apr 04 09:49:39 BST 2021)
(GPL source distribution)
Java Runtime: OpenJDK Runtime Environment
JVM: OpenJDK 64-Bit Server VM
Default Encoding: Cp1252
Language: pt
Country: PT
--></g></svg>