<?xml version="1.0" encoding="UTF-8" standalone="no"?><svg xmlns="http://www.w3.org/2000/svg" xmlns:xlink="http://www.w3.org/1999/xlink" contentScriptType="application/ecmascript" contentStyleType="text/css" height="191px" preserveAspectRatio="none" style="width:401px;height:191px;" version="1.1" viewBox="0 0 401 191" width="401px" zoomAndPan="magnify"><defs><filter height="300%" id="f1x9mqbijrpstf" width="300%" x="-1" y="-1"><feGaussianBlur result="blurOut" stdDeviation="2.0"/><feColorMatrix in="blurOut" result="blurOut2" type="matrix" values="0 0 0 0 0 0 0 0 0 0 0 0 0 0 0 0 0 0 .4 0"/><feOffset dx="4.0" dy="4.0" in="blurOut2" result="blurOut3"/><feBlend in="SourceGraphic" in2="blurOut3" mode="normal"/></filter></defs><g><!--MD5=[02e4b9b7573f1156f41e60aa5b4e25a4]
class Company--><rect codeLine="5" fill="#FEFECE" filter="url(#f1x9mqbijrpstf)" height="53.8359" id="Company" style="stroke:#A80036;stroke-width:1.5;" width="85" x="34" y="7"/><ellipse cx="49" cy="23" fill="#ADD1B2" rx="11" ry="11" style="stroke:#A80036;stroke-width:1.0;"/><path d="M51,19.5 Q51.2031,19 51.4375,18.75 Q51.6719,18.5 51.9375,18.5 Q52.4063,18.5 52.7031,18.7813 Q53,19.0625 53,19.7188 L53,21.2813 Q53,21.9375 52.7188,22.2188 Q52.4375,22.5 52,22.5 Q51.6094,22.5 51.3594,22.3281 Q51.1094,22.1563 51,21.7031 Q50.9531,21.3906 50.7813,21.2188 Q50.4688,20.8906 49.9063,20.7031 Q49.3438,20.5 48.7813,20.5 Q48.0781,20.5 47.4844,20.7813 Q46.9063,21.0625 46.4531,21.6875 Q46,22.3125 46,23.1719 L46,24.0938 Q46,25.125 46.8438,25.8125 Q47.6875,26.5 49.1875,26.5 Q50.0781,26.5 50.7031,26.2969 Q51.0625,26.1875 51.4688,25.8281 Q51.7344,25.625 51.875,25.5625 Q52.0156,25.5 52.1875,25.5 Q52.5156,25.5 52.75,25.7656 Q53,26.0156 53,26.375 Q53,26.7188 52.6563,27.125 Q52.1563,27.7188 51.3594,28.0469 Q50.3125,28.5 49.0313,28.5 Q47.5313,28.5 46.3281,27.9063 Q45.3594,27.4375 44.6719,26.4219 Q44,25.4063 44,24.2031 L44,23.1094 Q44,21.8594 44.5938,20.7656 Q45.2031,19.6719 46.25,19.0938 Q47.3125,18.5 48.5,18.5 Q49.2188,18.5 49.8438,18.75 Q50.4688,19 51,19.5 Z " fill="#000000"/><text fill="#000000" font-family="sans-serif" font-size="12" lengthAdjust="spacing" textLength="53" x="63" y="27.9102">Company</text><line style="stroke:#A80036;stroke-width:1.5;" x1="35" x2="118" y1="39" y2="39"/><text fill="#000000" font-family="sans-serif" font-size="11" lengthAdjust="spacing" textLength="59" x="40" y="54.4189">-designation</text><!--MD5=[36afb6bbd95a8ac778c4537c55a683d5]
class ParameterCategory--><rect codeLine="9" fill="#FEFECE" filter="url(#f1x9mqbijrpstf)" height="81.5078" id="ParameterCategory" style="stroke:#A80036;stroke-width:1.5;" width="139" x="7" y="96"/><ellipse cx="22" cy="112" fill="#ADD1B2" rx="11" ry="11" style="stroke:#A80036;stroke-width:1.0;"/><path d="M24,108.5 Q24.2031,108 24.4375,107.75 Q24.6719,107.5 24.9375,107.5 Q25.4063,107.5 25.7031,107.7813 Q26,108.0625 26,108.7188 L26,110.2813 Q26,110.9375 25.7188,111.2188 Q25.4375,111.5 25,111.5 Q24.6094,111.5 24.3594,111.3281 Q24.1094,111.1563 24,110.7031 Q23.9531,110.3906 23.7813,110.2188 Q23.4688,109.8906 22.9063,109.7031 Q22.3438,109.5 21.7813,109.5 Q21.0781,109.5 20.4844,109.7813 Q19.9063,110.0625 19.4531,110.6875 Q19,111.3125 19,112.1719 L19,113.0938 Q19,114.125 19.8438,114.8125 Q20.6875,115.5 22.1875,115.5 Q23.0781,115.5 23.7031,115.2969 Q24.0625,115.1875 24.4688,114.8281 Q24.7344,114.625 24.875,114.5625 Q25.0156,114.5 25.1875,114.5 Q25.5156,114.5 25.75,114.7656 Q26,115.0156 26,115.375 Q26,115.7188 25.6563,116.125 Q25.1563,116.7188 24.3594,117.0469 Q23.3125,117.5 22.0313,117.5 Q20.5313,117.5 19.3281,116.9063 Q18.3594,116.4375 17.6719,115.4219 Q17,114.4063 17,113.2031 L17,112.1094 Q17,110.8594 17.5938,109.7656 Q18.2031,108.6719 19.25,108.0938 Q20.3125,107.5 21.5,107.5 Q22.2188,107.5 22.8438,107.75 Q23.4688,108 24,108.5 Z " fill="#000000"/><text fill="#000000" font-family="sans-serif" font-size="12" lengthAdjust="spacing" textLength="107" x="36" y="116.9102">ParameterCategory</text><line style="stroke:#A80036;stroke-width:1.5;" x1="8" x2="145" y1="128" y2="128"/><text fill="#000000" font-family="sans-serif" font-size="11" lengthAdjust="spacing" textLength="28" x="13" y="143.4189">-code</text><text fill="#000000" font-family="sans-serif" font-size="11" lengthAdjust="spacing" textLength="57" x="13" y="157.2549">-description</text><text fill="#000000" font-family="sans-serif" font-size="11" lengthAdjust="spacing" textLength="31" x="13" y="171.0908">-nhsID</text><!--MD5=[da547346deef918ea16944ba046651ef]
class Administrator--><rect codeLine="15" fill="#FEFECE" filter="url(#f1x9mqbijrpstf)" height="40" id="Administrator" style="stroke:#A80036;stroke-width:1.5;" width="105" x="282" y="66"/><ellipse cx="297" cy="82" fill="#ADD1B2" rx="11" ry="11" style="stroke:#A80036;stroke-width:1.0;"/><path d="M299,78.5 Q299.2031,78 299.4375,77.75 Q299.6719,77.5 299.9375,77.5 Q300.4063,77.5 300.7031,77.7813 Q301,78.0625 301,78.7188 L301,80.2813 Q301,80.9375 300.7188,81.2188 Q300.4375,81.5 300,81.5 Q299.6094,81.5 299.3594,81.3281 Q299.1094,81.1563 299,80.7031 Q298.9531,80.3906 298.7813,80.2188 Q298.4688,79.8906 297.9063,79.7031 Q297.3438,79.5 296.7813,79.5 Q296.0781,79.5 295.4844,79.7813 Q294.9063,80.0625 294.4531,80.6875 Q294,81.3125 294,82.1719 L294,83.0938 Q294,84.125 294.8438,84.8125 Q295.6875,85.5 297.1875,85.5 Q298.0781,85.5 298.7031,85.2969 Q299.0625,85.1875 299.4688,84.8281 Q299.7344,84.625 299.875,84.5625 Q300.0156,84.5 300.1875,84.5 Q300.5156,84.5 300.75,84.7656 Q301,85.0156 301,85.375 Q301,85.7188 300.6563,86.125 Q300.1563,86.7188 299.3594,87.0469 Q298.3125,87.5 297.0313,87.5 Q295.5313,87.5 294.3281,86.9063 Q293.3594,86.4375 292.6719,85.4219 Q292,84.4063 292,83.2031 L292,82.1094 Q292,80.8594 292.5938,79.7656 Q293.2031,78.6719 294.25,78.0938 Q295.3125,77.5 296.5,77.5 Q297.2188,77.5 297.8438,77.75 Q298.4688,78 299,78.5 Z " fill="#000000"/><text fill="#000000" font-family="sans-serif" font-size="12" lengthAdjust="spacing" textLength="73" x="311" y="86.9102">Administrator</text><line style="stroke:#A80036;stroke-width:1.5;" x1="283" x2="386" y1="98" y2="98"/><!--MD5=[8fed49cf12a674e36a1de475622ee091]
link ParameterCategory to Administrator--><path codeLine="17" d="M146.1,123.33 C188.76,114.84 242.72,104.09 281.77,96.31 " fill="none" id="ParameterCategory-Administrator" style="stroke:#A80036;stroke-width:1.0;"/><polygon fill="#000000" points="185.9037,93.1992,176.4588,92.0836,177.6069,97.8482,185.9037,93.1992" style="stroke:#000000;stroke-width:1.0;"/><text fill="#000000" font-family="sans-serif" font-size="13" lengthAdjust="spacing" textLength="61" x="190" y="99.4951">created by</text><text fill="#000000" font-family="sans-serif" font-size="13" lengthAdjust="spacing" textLength="5" x="153.9859" y="136.2511">*</text><text fill="#000000" font-family="sans-serif" font-size="13" lengthAdjust="spacing" textLength="7" x="266.8627" y="112.4047">1</text><!--MD5=[eaea43e34e45c5b9d20b595fc78f1f20]
link Company to Administrator--><path codeLine="18" d="M119.2,42.47 C163.55,51.48 233.76,65.74 281.64,75.47 " fill="none" id="Company-Administrator" style="stroke:#A80036;stroke-width:1.0;"/><polygon fill="#000000" points="197.8999,48.1712,189.621,43.4904,188.4508,49.2506,197.8999,48.1712" style="stroke:#000000;stroke-width:1.0;"/><text fill="#000000" font-family="sans-serif" font-size="13" lengthAdjust="spacing" textLength="37" x="202" y="52.4951">knows</text><text fill="#000000" font-family="sans-serif" font-size="13" lengthAdjust="spacing" textLength="7" x="127.1406" y="58.8402">1</text><text fill="#000000" font-family="sans-serif" font-size="13" lengthAdjust="spacing" textLength="5" x="268.855" y="88.6341">*</text><!--MD5=[7f23b4583016122ed0cf20532fc835dc]
@startuml
skinparam classAttributeIconSize 0
left to right direction
hide methods

class Company {
-designation
}

class ParameterCategory {
-code
-description
-nhsID
}

class Administrator

ParameterCategory "*" - - "1" Administrator : > created by
Company "1" - - "*" Administrator : > knows
@enduml

PlantUML version 1.2021.5(Sun Apr 25 12:20:28 BST 2021)
(GPL source distribution)
Java Runtime: OpenJDK Runtime Environment
JVM: OpenJDK 64-Bit Server VM
Default Encoding: Cp1252
Language: pt
Country: PT
--></g></svg>