<?xml version="1.0" encoding="UTF-8" standalone="no"?><svg xmlns="http://www.w3.org/2000/svg" xmlns:xlink="http://www.w3.org/1999/xlink" contentScriptType="application/ecmascript" contentStyleType="text/css" height="445px" preserveAspectRatio="none" style="width:1241px;height:445px;" version="1.1" viewBox="0 0 1241 445" width="1241px" zoomAndPan="magnify"><defs><filter height="300%" id="fvqvpwkjr3260" width="300%" x="-1" y="-1"><feGaussianBlur result="blurOut" stdDeviation="2.0"/><feColorMatrix in="blurOut" result="blurOut2" type="matrix" values="0 0 0 0 0 0 0 0 0 0 0 0 0 0 0 0 0 0 .4 0"/><feOffset dx="4.0" dy="4.0" in="blurOut2" result="blurOut3"/><feBlend in="SourceGraphic" in2="blurOut3" mode="normal"/></filter></defs><g><!--MD5=[2c2e2644034c00788261e03c85b06837]
cluster Core--><polygon fill="#FFFFFF" filter="url(#fvqvpwkjr3260)" points="269,6,309,6,316,29.6094,1224,29.6094,1224,438,269,438,269,6" style="stroke:#000000;stroke-width:1.5;"/><line style="stroke:#000000;stroke-width:1.5;" x1="269" x2="316" y1="29.6094" y2="29.6094"/><text fill="#000000" font-family="sans-serif" font-size="14" font-weight="bold" lengthAdjust="spacing" textLength="34" x="273" y="22.5332">Core</text><!--MD5=[7b8bc9ee8bb84b99fb3a3f9477c19238]
cluster DTO--><polygon fill="#FFFFFF" filter="url(#fvqvpwkjr3260)" points="588,216,623,216,630,239.6094,889,239.6094,889,330,588,330,588,216" style="stroke:#000000;stroke-width:1.5;"/><line style="stroke:#000000;stroke-width:1.5;" x1="588" x2="630" y1="239.6094" y2="239.6094"/><text fill="#000000" font-family="sans-serif" font-size="14" font-weight="bold" lengthAdjust="spacing" textLength="29" x="592" y="232.5332">DTO</text><!--MD5=[ed1d20ea533a2a0e7df5ba3c35e56ced]
cluster Controllers--><polygon fill="#FFFFFF" filter="url(#fvqvpwkjr3260)" points="293,50,378,50,385,73.6094,555,73.6094,555,234,293,234,293,50" style="stroke:#000000;stroke-width:1.5;"/><line style="stroke:#000000;stroke-width:1.5;" x1="293" x2="385" y1="73.6094" y2="73.6094"/><text fill="#000000" font-family="sans-serif" font-size="14" font-weight="bold" lengthAdjust="spacing" textLength="79" x="297" y="66.5332">Controllers</text><!--MD5=[8dd535d56cd4cf7faf64fdd082ba836e]
cluster Stores--><polygon fill="#FFFFFF" filter="url(#fvqvpwkjr3260)" points="962,216,1014,216,1021,239.6094,1200,239.6094,1200,414,962,414,962,216" style="stroke:#000000;stroke-width:1.5;"/><line style="stroke:#000000;stroke-width:1.5;" x1="962" x2="1021" y1="239.6094" y2="239.6094"/><text fill="#000000" font-family="sans-serif" font-size="14" font-weight="bold" lengthAdjust="spacing" textLength="46" x="966" y="232.5332">Stores</text><!--MD5=[121a8bf1197281ab89ed693fab589f94]
cluster Domain--><polygon fill="#FFFFFF" filter="url(#fvqvpwkjr3260)" points="642.5,50,700.5,50,707.5,73.6094,1184.5,73.6094,1184.5,192,642.5,192,642.5,50" style="stroke:#000000;stroke-width:1.5;"/><line style="stroke:#000000;stroke-width:1.5;" x1="642.5" x2="707.5" y1="73.6094" y2="73.6094"/><text fill="#000000" font-family="sans-serif" font-size="14" font-weight="bold" lengthAdjust="spacing" textLength="52" x="646.5" y="66.5332">Domain</text><!--MD5=[9681dc6e01e10c6b4fe06895ae94f592]
cluster UI--><polygon fill="#FFFFFF" filter="url(#fvqvpwkjr3260)" points="16,92,36,92,43,115.6094,236,115.6094,236,192,16,192,16,92" style="stroke:#000000;stroke-width:1.5;"/><line style="stroke:#000000;stroke-width:1.5;" x1="16" x2="43" y1="115.6094" y2="115.6094"/><text fill="#000000" font-family="sans-serif" font-size="14" font-weight="bold" lengthAdjust="spacing" textLength="14" x="20" y="108.5332">UI</text><!--MD5=[808bc6f30abcce3f75fbe2ba7c53e00a]
class pcDto--><rect codeLine="8" fill="#FEFECE" filter="url(#fvqvpwkjr3260)" height="61.8359" id="pcDto" style="stroke:#A80036;stroke-width:1.5;" width="269" x="604" y="252"/><ellipse cx="671.25" cy="268" fill="#ADD1B2" rx="11" ry="11" style="stroke:#A80036;stroke-width:1.0;"/><path d="M673.25,264.5 Q673.4531,264 673.6875,263.75 Q673.9219,263.5 674.1875,263.5 Q674.6563,263.5 674.9531,263.7813 Q675.25,264.0625 675.25,264.7188 L675.25,266.2813 Q675.25,266.9375 674.9688,267.2188 Q674.6875,267.5 674.25,267.5 Q673.8594,267.5 673.6094,267.3281 Q673.3594,267.1563 673.25,266.7031 Q673.2031,266.3906 673.0313,266.2188 Q672.7188,265.8906 672.1563,265.7031 Q671.5938,265.5 671.0313,265.5 Q670.3281,265.5 669.7344,265.7813 Q669.1563,266.0625 668.7031,266.6875 Q668.25,267.3125 668.25,268.1719 L668.25,269.0938 Q668.25,270.125 669.0938,270.8125 Q669.9375,271.5 671.4375,271.5 Q672.3281,271.5 672.9531,271.2969 Q673.3125,271.1875 673.7188,270.8281 Q673.9844,270.625 674.125,270.5625 Q674.2656,270.5 674.4375,270.5 Q674.7656,270.5 675,270.7656 Q675.25,271.0156 675.25,271.375 Q675.25,271.7188 674.9063,272.125 Q674.4063,272.7188 673.6094,273.0469 Q672.5625,273.5 671.2813,273.5 Q669.7813,273.5 668.5781,272.9063 Q667.6094,272.4375 666.9219,271.4219 Q666.25,270.4063 666.25,269.2031 L666.25,268.1094 Q666.25,266.8594 666.8438,265.7656 Q667.4531,264.6719 668.5,264.0938 Q669.5625,263.5 670.75,263.5 Q671.4688,263.5 672.0938,263.75 Q672.7188,264 673.25,264.5 Z " fill="#000000"/><text fill="#000000" font-family="sans-serif" font-size="12" lengthAdjust="spacing" textLength="126" x="691.75" y="272.9102">ParameterCategoryDto</text><line style="stroke:#A80036;stroke-width:1.5;" x1="605" x2="872" y1="284" y2="284"/><line style="stroke:#A80036;stroke-width:1.5;" x1="605" x2="872" y1="292" y2="292"/><text fill="#000000" font-family="sans-serif" font-size="11" lengthAdjust="spacing" textLength="257" x="610" y="307.4189">+toDto(List&lt;ParameterCategory&gt; parameterCategory)</text><!--MD5=[e30ab5e057b1e0e1f2481ca2819f4841]
class CPCC--><rect codeLine="16" fill="#FEFECE" filter="url(#fvqvpwkjr3260)" height="131.0156" id="CPCC" style="stroke:#A80036;stroke-width:1.5;" width="230" x="309" y="86.5"/><ellipse cx="324" cy="102.5" fill="#ADD1B2" rx="11" ry="11" style="stroke:#A80036;stroke-width:1.0;"/><path d="M326,99 Q326.2031,98.5 326.4375,98.25 Q326.6719,98 326.9375,98 Q327.4063,98 327.7031,98.2813 Q328,98.5625 328,99.2188 L328,100.7813 Q328,101.4375 327.7188,101.7188 Q327.4375,102 327,102 Q326.6094,102 326.3594,101.8281 Q326.1094,101.6563 326,101.2031 Q325.9531,100.8906 325.7813,100.7188 Q325.4688,100.3906 324.9063,100.2031 Q324.3438,100 323.7813,100 Q323.0781,100 322.4844,100.2813 Q321.9063,100.5625 321.4531,101.1875 Q321,101.8125 321,102.6719 L321,103.5938 Q321,104.625 321.8438,105.3125 Q322.6875,106 324.1875,106 Q325.0781,106 325.7031,105.7969 Q326.0625,105.6875 326.4688,105.3281 Q326.7344,105.125 326.875,105.0625 Q327.0156,105 327.1875,105 Q327.5156,105 327.75,105.2656 Q328,105.5156 328,105.875 Q328,106.2188 327.6563,106.625 Q327.1563,107.2188 326.3594,107.5469 Q325.3125,108 324.0313,108 Q322.5313,108 321.3281,107.4063 Q320.3594,106.9375 319.6719,105.9219 Q319,104.9063 319,103.7031 L319,102.6094 Q319,101.3594 319.5938,100.2656 Q320.2031,99.1719 321.25,98.5938 Q322.3125,98 323.5,98 Q324.2188,98 324.8438,98.25 Q325.4688,98.5 326,99 Z " fill="#000000"/><text fill="#000000" font-family="sans-serif" font-size="12" lengthAdjust="spacing" textLength="198" x="338" y="107.4102">CreateParameterCategoryController</text><line style="stroke:#A80036;stroke-width:1.5;" x1="310" x2="538" y1="118.5" y2="118.5"/><line style="stroke:#A80036;stroke-width:1.5;" x1="310" x2="538" y1="126.5" y2="126.5"/><text fill="#000000" font-family="sans-serif" font-size="11" lengthAdjust="spacing" textLength="185" x="315" y="141.9189">+CreateParameterCategoryController()</text><text fill="#000000" font-family="sans-serif" font-size="11" lengthAdjust="spacing" textLength="158" x="315" y="155.7549">+getAllParameterCategoriesDto()</text><text fill="#000000" font-family="sans-serif" font-size="11" lengthAdjust="spacing" textLength="194" x="315" y="169.5908">+createParameterCategory(name, code)</text><text fill="#000000" font-family="sans-serif" font-size="11" lengthAdjust="spacing" textLength="131" x="315" y="183.4268">+saveParameterCategory()</text><text fill="#000000" font-family="sans-serif" font-size="11" lengthAdjust="spacing" textLength="184" x="315" y="197.2627">+getParameterCategoryByCode(code)</text><text fill="#000000" font-family="sans-serif" font-size="11" lengthAdjust="spacing" textLength="142" x="315" y="211.0986">+getAllParameterCategories()</text><!--MD5=[2628f93c2b91159b8b11117185f029f9]
class PCS--><rect codeLine="29" fill="#FEFECE" filter="url(#fvqvpwkjr3260)" height="144.8516" id="PCS" style="stroke:#A80036;stroke-width:1.5;" width="206" x="978" y="252.5"/><ellipse cx="1010.1" cy="268.5" fill="#ADD1B2" rx="11" ry="11" style="stroke:#A80036;stroke-width:1.0;"/><path d="M1012.1,265 Q1012.3031,264.5 1012.5375,264.25 Q1012.7719,264 1013.0375,264 Q1013.5063,264 1013.8031,264.2813 Q1014.1,264.5625 1014.1,265.2188 L1014.1,266.7813 Q1014.1,267.4375 1013.8188,267.7188 Q1013.5375,268 1013.1,268 Q1012.7094,268 1012.4594,267.8281 Q1012.2094,267.6563 1012.1,267.2031 Q1012.0531,266.8906 1011.8813,266.7188 Q1011.5688,266.3906 1011.0063,266.2031 Q1010.4438,266 1009.8813,266 Q1009.1781,266 1008.5844,266.2813 Q1008.0063,266.5625 1007.5531,267.1875 Q1007.1,267.8125 1007.1,268.6719 L1007.1,269.5938 Q1007.1,270.625 1007.9438,271.3125 Q1008.7875,272 1010.2875,272 Q1011.1781,272 1011.8031,271.7969 Q1012.1625,271.6875 1012.5688,271.3281 Q1012.8344,271.125 1012.975,271.0625 Q1013.1156,271 1013.2875,271 Q1013.6156,271 1013.85,271.2656 Q1014.1,271.5156 1014.1,271.875 Q1014.1,272.2188 1013.7563,272.625 Q1013.2563,273.2188 1012.4594,273.5469 Q1011.4125,274 1010.1313,274 Q1008.6313,274 1007.4281,273.4063 Q1006.4594,272.9375 1005.7719,271.9219 Q1005.1,270.9063 1005.1,269.7031 L1005.1,268.6094 Q1005.1,267.3594 1005.6938,266.2656 Q1006.3031,265.1719 1007.35,264.5938 Q1008.4125,264 1009.6,264 Q1010.3188,264 1010.9438,264.25 Q1011.5688,264.5 1012.1,265 Z " fill="#000000"/><text fill="#000000" font-family="sans-serif" font-size="12" lengthAdjust="spacing" textLength="136" x="1027.9" y="273.4102">ParameterCategoryStore</text><line style="stroke:#A80036;stroke-width:1.5;" x1="979" x2="1183" y1="284.5" y2="284.5"/><line style="stroke:#A80036;stroke-width:1.5;" x1="979" x2="1183" y1="292.5" y2="292.5"/><text fill="#000000" font-family="sans-serif" font-size="11" lengthAdjust="spacing" textLength="133" x="984" y="307.9189">+ParameterCategoryStore()</text><text fill="#000000" font-family="sans-serif" font-size="11" lengthAdjust="spacing" textLength="194" x="984" y="321.7549">+createParameterCategory(name, code)</text><text fill="#000000" font-family="sans-serif" font-size="11" lengthAdjust="spacing" textLength="143" x="984" y="335.5908">+saveParameterCategory(pc)</text><text fill="#000000" font-family="sans-serif" font-size="11" lengthAdjust="spacing" textLength="156" x="984" y="349.4268">+validateParameterCategory(pc)</text><text fill="#000000" font-family="sans-serif" font-size="11" lengthAdjust="spacing" textLength="137" x="984" y="363.2627">+addParameterCategory(pc)</text><text fill="#000000" font-family="sans-serif" font-size="11" lengthAdjust="spacing" textLength="184" x="984" y="377.0986">+getParameterCategoryByCode(code)</text><text fill="#000000" font-family="sans-serif" font-size="11" lengthAdjust="spacing" textLength="142" x="984" y="390.9346">+getAllParameterCategories()</text><!--MD5=[6b185e8064f1903ce7064332957eac06]
class COMP--><rect codeLine="42" fill="#FEFECE" filter="url(#fvqvpwkjr3260)" height="75.6719" id="COMP" style="stroke:#A80036;stroke-width:1.5;" width="160" x="658.5" y="100"/><ellipse cx="707.75" cy="116" fill="#ADD1B2" rx="11" ry="11" style="stroke:#A80036;stroke-width:1.0;"/><path d="M709.75,112.5 Q709.9531,112 710.1875,111.75 Q710.4219,111.5 710.6875,111.5 Q711.1563,111.5 711.4531,111.7813 Q711.75,112.0625 711.75,112.7188 L711.75,114.2813 Q711.75,114.9375 711.4688,115.2188 Q711.1875,115.5 710.75,115.5 Q710.3594,115.5 710.1094,115.3281 Q709.8594,115.1563 709.75,114.7031 Q709.7031,114.3906 709.5313,114.2188 Q709.2188,113.8906 708.6563,113.7031 Q708.0938,113.5 707.5313,113.5 Q706.8281,113.5 706.2344,113.7813 Q705.6563,114.0625 705.2031,114.6875 Q704.75,115.3125 704.75,116.1719 L704.75,117.0938 Q704.75,118.125 705.5938,118.8125 Q706.4375,119.5 707.9375,119.5 Q708.8281,119.5 709.4531,119.2969 Q709.8125,119.1875 710.2188,118.8281 Q710.4844,118.625 710.625,118.5625 Q710.7656,118.5 710.9375,118.5 Q711.2656,118.5 711.5,118.7656 Q711.75,119.0156 711.75,119.375 Q711.75,119.7188 711.4063,120.125 Q710.9063,120.7188 710.1094,121.0469 Q709.0625,121.5 707.7813,121.5 Q706.2813,121.5 705.0781,120.9063 Q704.1094,120.4375 703.4219,119.4219 Q702.75,118.4063 702.75,117.2031 L702.75,116.1094 Q702.75,114.8594 703.3438,113.7656 Q703.9531,112.6719 705,112.0938 Q706.0625,111.5 707.25,111.5 Q707.9688,111.5 708.5938,111.75 Q709.2188,112 709.75,112.5 Z " fill="#000000"/><text fill="#000000" font-family="sans-serif" font-size="12" lengthAdjust="spacing" textLength="53" x="728.25" y="120.9102">Company</text><line style="stroke:#A80036;stroke-width:1.5;" x1="659.5" x2="817.5" y1="132" y2="132"/><text fill="#000000" font-family="sans-serif" font-size="11" lengthAdjust="spacing" textLength="59" x="664.5" y="147.4189">-designation</text><line style="stroke:#A80036;stroke-width:1.5;" x1="659.5" x2="817.5" y1="153.8359" y2="153.8359"/><text fill="#000000" font-family="sans-serif" font-size="11" lengthAdjust="spacing" textLength="148" x="664.5" y="169.2549">+getParameterCategoryStore()</text><!--MD5=[218f71f443b9e0720bb96dd9df1d4749]
class PC--><rect codeLine="47" fill="#FEFECE" filter="url(#fvqvpwkjr3260)" height="89.5078" id="PC" style="stroke:#A80036;stroke-width:1.5;" width="175" x="993.5" y="86"/><ellipse cx="1024.7" cy="102" fill="#ADD1B2" rx="11" ry="11" style="stroke:#A80036;stroke-width:1.0;"/><path d="M1026.7,98.5 Q1026.9031,98 1027.1375,97.75 Q1027.3719,97.5 1027.6375,97.5 Q1028.1063,97.5 1028.4031,97.7813 Q1028.7,98.0625 1028.7,98.7188 L1028.7,100.2813 Q1028.7,100.9375 1028.4188,101.2188 Q1028.1375,101.5 1027.7,101.5 Q1027.3094,101.5 1027.0594,101.3281 Q1026.8094,101.1563 1026.7,100.7031 Q1026.6531,100.3906 1026.4813,100.2188 Q1026.1688,99.8906 1025.6063,99.7031 Q1025.0438,99.5 1024.4813,99.5 Q1023.7781,99.5 1023.1844,99.7813 Q1022.6063,100.0625 1022.1531,100.6875 Q1021.7,101.3125 1021.7,102.1719 L1021.7,103.0938 Q1021.7,104.125 1022.5438,104.8125 Q1023.3875,105.5 1024.8875,105.5 Q1025.7781,105.5 1026.4031,105.2969 Q1026.7625,105.1875 1027.1688,104.8281 Q1027.4344,104.625 1027.575,104.5625 Q1027.7156,104.5 1027.8875,104.5 Q1028.2156,104.5 1028.45,104.7656 Q1028.7,105.0156 1028.7,105.375 Q1028.7,105.7188 1028.3563,106.125 Q1027.8563,106.7188 1027.0594,107.0469 Q1026.0125,107.5 1024.7313,107.5 Q1023.2313,107.5 1022.0281,106.9063 Q1021.0594,106.4375 1020.3719,105.4219 Q1019.7,104.4063 1019.7,103.2031 L1019.7,102.1094 Q1019.7,100.8594 1020.2938,99.7656 Q1020.9031,98.6719 1021.95,98.0938 Q1023.0125,97.5 1024.2,97.5 Q1024.9188,97.5 1025.5438,97.75 Q1026.1688,98 1026.7,98.5 Z " fill="#000000"/><text fill="#000000" font-family="sans-serif" font-size="12" lengthAdjust="spacing" textLength="107" x="1042.3" y="106.9102">ParameterCategory</text><line style="stroke:#A80036;stroke-width:1.5;" x1="994.5" x2="1167.5" y1="118" y2="118"/><text fill="#000000" font-family="sans-serif" font-size="11" lengthAdjust="spacing" textLength="30" x="999.5" y="133.4189">-name</text><text fill="#000000" font-family="sans-serif" font-size="11" lengthAdjust="spacing" textLength="28" x="999.5" y="147.2549">-code</text><line style="stroke:#A80036;stroke-width:1.5;" x1="994.5" x2="1167.5" y1="153.6719" y2="153.6719"/><text fill="#000000" font-family="sans-serif" font-size="11" lengthAdjust="spacing" textLength="163" x="999.5" y="169.0908">+ParameterCategory(name, code)</text><!--MD5=[00403e4dca353628649419b307de1c9e]
class CPCUI--><rect codeLine="58" fill="#FEFECE" filter="url(#fvqvpwkjr3260)" height="48" id="CPCUI" style="stroke:#A80036;stroke-width:1.5;" width="188" x="32" y="128"/><ellipse cx="47" cy="144" fill="#ADD1B2" rx="11" ry="11" style="stroke:#A80036;stroke-width:1.0;"/><path d="M49,140.5 Q49.2031,140 49.4375,139.75 Q49.6719,139.5 49.9375,139.5 Q50.4063,139.5 50.7031,139.7813 Q51,140.0625 51,140.7188 L51,142.2813 Q51,142.9375 50.7188,143.2188 Q50.4375,143.5 50,143.5 Q49.6094,143.5 49.3594,143.3281 Q49.1094,143.1563 49,142.7031 Q48.9531,142.3906 48.7813,142.2188 Q48.4688,141.8906 47.9063,141.7031 Q47.3438,141.5 46.7813,141.5 Q46.0781,141.5 45.4844,141.7813 Q44.9063,142.0625 44.4531,142.6875 Q44,143.3125 44,144.1719 L44,145.0938 Q44,146.125 44.8438,146.8125 Q45.6875,147.5 47.1875,147.5 Q48.0781,147.5 48.7031,147.2969 Q49.0625,147.1875 49.4688,146.8281 Q49.7344,146.625 49.875,146.5625 Q50.0156,146.5 50.1875,146.5 Q50.5156,146.5 50.75,146.7656 Q51,147.0156 51,147.375 Q51,147.7188 50.6563,148.125 Q50.1563,148.7188 49.3594,149.0469 Q48.3125,149.5 47.0313,149.5 Q45.5313,149.5 44.3281,148.9063 Q43.3594,148.4375 42.6719,147.4219 Q42,146.4063 42,145.2031 L42,144.1094 Q42,142.8594 42.5938,141.7656 Q43.2031,140.6719 44.25,140.0938 Q45.3125,139.5 46.5,139.5 Q47.2188,139.5 47.8438,139.75 Q48.4688,140 49,140.5 Z " fill="#000000"/><text fill="#000000" font-family="sans-serif" font-size="12" lengthAdjust="spacing" textLength="156" x="61" y="148.9102">CreateParameterCategoryUI</text><line style="stroke:#A80036;stroke-width:1.5;" x1="33" x2="219" y1="160" y2="160"/><line style="stroke:#A80036;stroke-width:1.5;" x1="33" x2="219" y1="168" y2="168"/><!--MD5=[c834942a222c3abe9095cbfe59e8b6fc]
link CPCUI to CPCC--><path codeLine="62" d="M220.25,152 C246.73,152 275.94,152 303.73,152 " fill="none" id="CPCUI-to-CPCC" style="stroke:#A80036;stroke-width:1.0;stroke-dasharray:7.0,7.0;"/><polygon fill="#A80036" points="308.91,152,299.91,148,303.91,152,299.91,156,308.91,152" style="stroke:#A80036;stroke-width:1.0;"/><!--MD5=[f07a181a9e107ce120212b5ecc2c2e73]
link COMP to PCS--><path codeLine="63" d="M808.82,176.07 C856.1,202.03 919.64,236.93 973.33,266.42 " fill="none" id="COMP-to-PCS" style="stroke:#A80036;stroke-width:1.0;stroke-dasharray:7.0,7.0;"/><polygon fill="#A80036" points="977.83,268.89,971.8747,261.0456,973.4498,266.4788,968.0167,268.0539,977.83,268.89" style="stroke:#A80036;stroke-width:1.0;"/><!--MD5=[ec3379c74b50ba666e85a4d345362971]
link PCS to PC--><path codeLine="64" d="M1081,252.49 C1081,228.77 1081,202.97 1081,181.27 " fill="none" id="PCS-to-PC" style="stroke:#A80036;stroke-width:1.0;stroke-dasharray:7.0,7.0;"/><polygon fill="#A80036" points="1081,176.13,1077,185.13,1081,181.13,1085,185.13,1081,176.13" style="stroke:#A80036;stroke-width:1.0;"/><text fill="#000000" font-family="sans-serif" font-size="13" lengthAdjust="spacing" textLength="43" x="1047.5" y="219.7451">creates</text><!--MD5=[7fa99a5de225a656314fa2378570f25b]
link CPCC to PC--><path codeLine="65" d="M539.12,94.05 C552.62,89.13 566.43,84.92 580,82 C717.73,52.34 757.31,63.62 897,82 C927.21,85.97 959.52,93.49 988.45,101.46 " fill="none" id="CPCC-to-PC" style="stroke:#A80036;stroke-width:1.0;stroke-dasharray:7.0,7.0;"/><polygon fill="#A80036" points="993.44,102.85,985.8456,96.579,988.6238,101.5066,983.6962,104.2848,993.44,102.85" style="stroke:#A80036;stroke-width:1.0;"/><!--MD5=[54ecc25e00ead64bc78268798abcba79]
link CPCC to COMP--><path codeLine="66" d="M539.15,146.89 C576.87,145.2 618.13,143.35 653.2,141.78 " fill="none" id="CPCC-to-COMP" style="stroke:#A80036;stroke-width:1.0;stroke-dasharray:7.0,7.0;"/><polygon fill="#A80036" points="658.33,141.55,649.1567,137.9652,653.3352,141.7783,649.5221,145.9568,658.33,141.55" style="stroke:#A80036;stroke-width:1.0;"/><!--MD5=[6fc88f7d8a265b363b6a202d927abbe3]
link CPCC to pcDto--><path codeLine="67" d="M539.15,199.85 C578.86,216.5 622.49,234.79 658.7,249.97 " fill="none" id="CPCC-to-pcDto" style="stroke:#A80036;stroke-width:1.0;stroke-dasharray:7.0,7.0;"/><polygon fill="#A80036" points="663.53,251.99,656.7765,244.8213,658.9189,250.0568,653.6834,252.1991,663.53,251.99" style="stroke:#A80036;stroke-width:1.0;"/><!--MD5=[c28b9b78ed0bf11d189faa2cf73d5ea8]
link COMP to PC--><path codeLine="68" d="M818.9,136.37 C869.54,135.33 935.35,133.97 988.22,132.89 " fill="none" id="COMP-to-PC" style="stroke:#A80036;stroke-width:1.0;"/><polygon fill="#A80036" points="993.3,132.78,984.2107,128.9873,988.3013,132.8946,984.394,136.9852,993.3,132.78" style="stroke:#A80036;stroke-width:1.0;"/><text fill="#000000" font-family="sans-serif" font-size="13" lengthAdjust="spacing" textLength="39" x="906" y="130.4951">adopts</text><text fill="#000000" font-family="sans-serif" font-size="13" lengthAdjust="spacing" textLength="7" x="826.3723" y="150.4627">1</text><text fill="#000000" font-family="sans-serif" font-size="13" lengthAdjust="spacing" textLength="5" x="980.5484" y="147.1518">*</text><!--MD5=[868d325fa20c49c721f44949aedff831]
@startuml
skinparam classAttributeIconSize 0
left to right direction

package "Core"{

package "DTO"{

class "ParameterCategoryDto" as pcDto{
+toDto(List<ParameterCategory> parameterCategory)
}

}

package "Controllers"{

class "CreateParameterCategoryController" as CPCC {
+CreateParameterCategoryController()
+getAllParameterCategoriesDto()
+createParameterCategory(name, code)
+saveParameterCategory()
+getParameterCategoryByCode(code)
+getAllParameterCategories()
}

}

package "Stores"{

class "ParameterCategoryStore" as PCS {
+ParameterCategoryStore()
+createParameterCategory(name, code)
+saveParameterCategory(pc)
+validateParameterCategory(pc)
+addParameterCategory(pc)
+getParameterCategoryByCode(code)
+getAllParameterCategories()
}

}

package "Domain"{
class "Company" as COMP {
-designation
+getParameterCategoryStore()
}

class "ParameterCategory" as PC {
-name
-code
+ParameterCategory(name, code)
}

}

}

package "UI"{
class "CreateParameterCategoryUI" as CPCUI
}


CPCUI ..> CPCC
COMP ..> PCS
PCS ..> PC  :creates
CPCC ..> PC
CPCC ..> COMP
CPCC ..> pcDto
COMP "1" - -> "*" PC : adopts

@enduml

PlantUML version 1.2021.5(Sun Apr 25 12:20:28 BST 2021)
(GPL source distribution)
Java Runtime: OpenJDK Runtime Environment
JVM: OpenJDK 64-Bit Server VM
Default Encoding: Cp1252
Language: pt
Country: PT
--></g></svg>