<?xml version="1.0" encoding="UTF-8" standalone="no"?><svg xmlns="http://www.w3.org/2000/svg" xmlns:xlink="http://www.w3.org/1999/xlink" contentScriptType="application/ecmascript" contentStyleType="text/css" height="379px" preserveAspectRatio="none" style="width:405px;height:379px;background:#FFFFFF;" version="1.1" viewBox="0 0 405 379" width="405px" zoomAndPan="magnify"><defs><filter height="300%" id="f1e7rpk7zofrya" width="300%" x="-1" y="-1"><feGaussianBlur result="blurOut" stdDeviation="2.0"/><feColorMatrix in="blurOut" result="blurOut2" type="matrix" values="0 0 0 0 0 0 0 0 0 0 0 0 0 0 0 0 0 0 .4 0"/><feOffset dx="4.0" dy="4.0" in="blurOut2" result="blurOut3"/><feBlend in="SourceGraphic" in2="blurOut3" mode="normal"/></filter></defs><g><rect fill="#FFFFFF" filter="url(#f1e7rpk7zofrya)" height="185.1094" style="stroke:#A80036;stroke-width:1.0;" width="10" x="92" y="99.6094"/><rect fill="#FFFFFF" filter="url(#f1e7rpk7zofrya)" height="30.3516" style="stroke:#A80036;stroke-width:1.0;" width="10" x="344" y="121.9609"/><rect fill="#FFFFFF" filter="url(#f1e7rpk7zofrya)" height="102.0547" style="stroke:#A80036;stroke-width:1.0;" width="10" x="349" y="182.6641"/><rect fill="#FFFFFF" filter="url(#f1e7rpk7zofrya)" height="102.0547" style="stroke:#A80036;stroke-width:1.0;" width="10" x="349" y="182.6641"/><rect fill="#FFFFFF" filter="url(#f1e7rpk7zofrya)" height="48.7031" style="stroke:#000000;stroke-width:2.0;" width="381" x="10" y="197.6641"/><line style="stroke:#A80036;stroke-width:1.0;stroke-dasharray:5.0,5.0;" x1="97" x2="97" y1="89.6094" y2="293.7188"/><line style="stroke:#A80036;stroke-width:1.0;stroke-dasharray:5.0,5.0;" x1="349" x2="349" y1="89.6094" y2="293.7188"/><text fill="#000000" font-family="sans-serif" font-size="14" lengthAdjust="spacing" textLength="148" x="20" y="86.5332">Laboratory Coordinator</text><ellipse cx="97" cy="15" fill="#FEFECE" filter="url(#f1e7rpk7zofrya)" rx="8" ry="8" style="stroke:#A80036;stroke-width:2.0;"/><path d="M97,23 L97,50 M84,31 L110,31 M97,50 L84,65 M97,50 L110,65 " fill="none" filter="url(#f1e7rpk7zofrya)" style="stroke:#A80036;stroke-width:2.0;"/><text fill="#000000" font-family="sans-serif" font-size="14" lengthAdjust="spacing" textLength="148" x="20" y="307.252">Laboratory Coordinator</text><ellipse cx="97" cy="320.3281" fill="#FEFECE" filter="url(#f1e7rpk7zofrya)" rx="8" ry="8" style="stroke:#A80036;stroke-width:2.0;"/><path d="M97,328.3281 L97,355.3281 M84,336.3281 L110,336.3281 M97,355.3281 L84,370.3281 M97,355.3281 L110,370.3281 " fill="none" filter="url(#f1e7rpk7zofrya)" style="stroke:#A80036;stroke-width:2.0;"/><rect fill="#FEFECE" filter="url(#f1e7rpk7zofrya)" height="31.6094" style="stroke:#A80036;stroke-width:1.5;" width="60" x="317" y="53"/><text fill="#000000" font-family="sans-serif" font-size="14" lengthAdjust="spacing" textLength="46" x="324" y="74.5332">System</text><rect fill="#FEFECE" filter="url(#f1e7rpk7zofrya)" height="31.6094" style="stroke:#A80036;stroke-width:1.5;" width="60" x="317" y="292.7188"/><text fill="#000000" font-family="sans-serif" font-size="14" lengthAdjust="spacing" textLength="46" x="324" y="314.252">System</text><rect fill="#FFFFFF" filter="url(#f1e7rpk7zofrya)" height="185.1094" style="stroke:#A80036;stroke-width:1.0;" width="10" x="92" y="99.6094"/><rect fill="#FFFFFF" filter="url(#f1e7rpk7zofrya)" height="30.3516" style="stroke:#A80036;stroke-width:1.0;" width="10" x="344" y="121.9609"/><rect fill="#FFFFFF" filter="url(#f1e7rpk7zofrya)" height="102.0547" style="stroke:#A80036;stroke-width:1.0;" width="10" x="349" y="182.6641"/><rect fill="#FFFFFF" filter="url(#f1e7rpk7zofrya)" height="102.0547" style="stroke:#A80036;stroke-width:1.0;" width="10" x="349" y="182.6641"/><polygon fill="#A80036" points="332,117.9609,342,121.9609,332,125.9609,336,121.9609" style="stroke:#A80036;stroke-width:1.0;"/><line style="stroke:#A80036;stroke-width:1.0;" x1="102" x2="338" y1="121.9609" y2="121.9609"/><text fill="#000000" font-family="sans-serif" font-size="13" font-weight="bold" lengthAdjust="spacing" textLength="7" x="109" y="117.1045">1</text><text fill="#000000" font-family="sans-serif" font-size="13" lengthAdjust="spacing" textLength="156" x="120" y="117.1045">import tests from a .csv file</text><polygon fill="#A80036" points="113,148.3125,103,152.3125,113,156.3125,109,152.3125" style="stroke:#A80036;stroke-width:1.0;"/><line style="stroke:#A80036;stroke-width:1.0;stroke-dasharray:2.0,2.0;" x1="107" x2="348" y1="152.3125" y2="152.3125"/><text fill="#000000" font-family="sans-serif" font-size="13" font-weight="bold" lengthAdjust="spacing" textLength="7" x="119" y="147.4561">2</text><text fill="#000000" font-family="sans-serif" font-size="13" lengthAdjust="spacing" textLength="99" x="130" y="147.4561">requests file path</text><polygon fill="#A80036" points="337,178.6641,347,182.6641,337,186.6641,341,182.6641" style="stroke:#A80036;stroke-width:1.0;"/><line style="stroke:#A80036;stroke-width:1.0;" x1="102" x2="343" y1="182.6641" y2="182.6641"/><text fill="#000000" font-family="sans-serif" font-size="13" font-weight="bold" lengthAdjust="spacing" textLength="7" x="109" y="177.8076">3</text><text fill="#000000" font-family="sans-serif" font-size="13" lengthAdjust="spacing" textLength="88" x="120" y="177.8076">inserts file path</text><path d="M10,197.6641 L83,197.6641 L83,205.6641 L73,215.6641 L10,215.6641 L10,197.6641 " fill="#EEEEEE" style="stroke:#000000;stroke-width:1.0;"/><rect fill="none" height="48.7031" style="stroke:#000000;stroke-width:2.0;" width="381" x="10" y="197.6641"/><text fill="#000000" font-family="sans-serif" font-size="13" font-weight="bold" lengthAdjust="spacing" textLength="28" x="25" y="212.1592">loop</text><text fill="#000000" font-family="sans-serif" font-size="11" font-weight="bold" lengthAdjust="spacing" textLength="183" x="98" y="211.083">[for each test present on the file]</text><polygon fill="#A80036" points="113,234.3672,103,238.3672,113,242.3672,109,238.3672" style="stroke:#A80036;stroke-width:1.0;"/><line style="stroke:#A80036;stroke-width:1.0;stroke-dasharray:2.0,2.0;" x1="107" x2="348" y1="238.3672" y2="238.3672"/><text fill="#000000" font-family="sans-serif" font-size="13" font-weight="bold" lengthAdjust="spacing" textLength="7" x="119" y="233.5107">4</text><text fill="#000000" font-family="sans-serif" font-size="13" lengthAdjust="spacing" textLength="207" x="130" y="233.5107">display which test is being imported</text><polygon fill="#A80036" points="113,271.7188,103,275.7188,113,279.7188,109,275.7188" style="stroke:#A80036;stroke-width:1.0;"/><line style="stroke:#A80036;stroke-width:1.0;stroke-dasharray:2.0,2.0;" x1="107" x2="348" y1="275.7188" y2="275.7188"/><text fill="#000000" font-family="sans-serif" font-size="13" font-weight="bold" lengthAdjust="spacing" textLength="7" x="119" y="270.8623">5</text><text fill="#000000" font-family="sans-serif" font-size="13" lengthAdjust="spacing" textLength="193" x="130" y="270.8623">informs about the import success</text><!--MD5=[82c420f8e4d5701353c812a03e073e5c]
@startuml
autonumber

actor "Laboratory Coordinator" as labC
activate labC

labC -> System ++: import tests from a .csv file
System - -> labC - -: requests file path
labC -> System ++: inserts file path
activate System
loop for each test present on the file
System - ->  labC : display which test is being imported
end
System - -> labC : informs about the import success


@enduml

PlantUML version 1.2021.7(Sun May 23 13:40:07 BST 2021)
(GPL source distribution)
Java Runtime: OpenJDK Runtime Environment
JVM: Dynamic Code Evolution 64-Bit Server VM
Default Encoding: Cp1252
Language: pt
Country: PT
--></g></svg>