<?xml version="1.0" encoding="UTF-8" standalone="no"?><svg xmlns="http://www.w3.org/2000/svg" xmlns:xlink="http://www.w3.org/1999/xlink" contentScriptType="application/ecmascript" contentStyleType="text/css" height="1921px" preserveAspectRatio="none" style="width:3312px;height:1921px;background:#FFFFFF;" version="1.1" viewBox="0 0 3312 1921" width="3312px" zoomAndPan="magnify"><defs><filter height="300%" id="f1mt908gxspbs3" width="300%" x="-1" y="-1"><feGaussianBlur result="blurOut" stdDeviation="2.0"/><feColorMatrix in="blurOut" result="blurOut2" type="matrix" values="0 0 0 0 0 0 0 0 0 0 0 0 0 0 0 0 0 0 .4 0"/><feOffset dx="4.0" dy="4.0" in="blurOut2" result="blurOut3"/><feBlend in="SourceGraphic" in2="blurOut3" mode="normal"/></filter></defs><g><rect fill="#FFFFFF" filter="url(#f1mt908gxspbs3)" height="1727.6563" style="stroke:#A80036;stroke-width:1.0;" width="10" x="90" y="99.6094"/><rect fill="#FFFFFF" filter="url(#f1mt908gxspbs3)" height="30.3516" style="stroke:#A80036;stroke-width:1.0;" width="10" x="330" y="121.9609"/><rect fill="#FFFFFF" filter="url(#f1mt908gxspbs3)" height="1644.6016" style="stroke:#A80036;stroke-width:1.0;" width="10" x="330" y="182.6641"/><rect fill="#FFFFFF" filter="url(#f1mt908gxspbs3)" height="1567.8984" style="stroke:#A80036;stroke-width:1.0;" width="10" x="524" y="213.0156"/><rect fill="#FFFFFF" filter="url(#f1mt908gxspbs3)" height="30" style="stroke:#A80036;stroke-width:1.0;" width="10" x="686" y="243.3672"/><rect fill="#FFFFFF" filter="url(#f1mt908gxspbs3)" height="30" style="stroke:#A80036;stroke-width:1.0;" width="10" x="686" y="303.7188"/><rect fill="#FFFFFF" filter="url(#f1mt908gxspbs3)" height="1049.0313" style="stroke:#A80036;stroke-width:1.0;" width="10" x="686" y="389.4219"/><rect fill="#FFFFFF" filter="url(#f1mt908gxspbs3)" height="125.7031" style="stroke:#A80036;stroke-width:1.0;" width="10" x="691" y="427.7734"/><rect fill="#FFFFFF" filter="url(#f1mt908gxspbs3)" height="125.7031" style="stroke:#A80036;stroke-width:1.0;" width="10" x="691" y="591.8281"/><rect fill="#FFFFFF" filter="url(#f1mt908gxspbs3)" height="125.7031" style="stroke:#A80036;stroke-width:1.0;" width="10" x="691" y="781.2344"/><rect fill="#FFFFFF" filter="url(#f1mt908gxspbs3)" height="125.7031" style="stroke:#A80036;stroke-width:1.0;" width="10" x="691" y="977.6406"/><rect fill="#FFFFFF" filter="url(#f1mt908gxspbs3)" height="125.7031" style="stroke:#A80036;stroke-width:1.0;" width="10" x="691" y="1148.6953"/><rect fill="#FFFFFF" filter="url(#f1mt908gxspbs3)" height="125.7031" style="stroke:#A80036;stroke-width:1.0;" width="10" x="691" y="1312.75"/><rect fill="#FFFFFF" filter="url(#f1mt908gxspbs3)" height="241.4063" style="stroke:#A80036;stroke-width:1.0;" width="10" x="686" y="1468.8047"/><rect fill="#FFFFFF" filter="url(#f1mt908gxspbs3)" height="30" style="stroke:#A80036;stroke-width:1.0;" width="10" x="1210" y="463.125"/><rect fill="#FFFFFF" filter="url(#f1mt908gxspbs3)" height="30" style="stroke:#A80036;stroke-width:1.0;" width="10" x="1210" y="627.1797"/><rect fill="#FFFFFF" filter="url(#f1mt908gxspbs3)" height="30" style="stroke:#A80036;stroke-width:1.0;" width="10" x="1210" y="816.5859"/><rect fill="#FFFFFF" filter="url(#f1mt908gxspbs3)" height="30" style="stroke:#A80036;stroke-width:1.0;" width="10" x="1210" y="1012.9922"/><rect fill="#FFFFFF" filter="url(#f1mt908gxspbs3)" height="30" style="stroke:#A80036;stroke-width:1.0;" width="10" x="1210" y="1184.0469"/><rect fill="#FFFFFF" filter="url(#f1mt908gxspbs3)" height="30" style="stroke:#A80036;stroke-width:1.0;" width="10" x="1210" y="1348.1016"/><rect fill="#FFFFFF" filter="url(#f1mt908gxspbs3)" height="30" style="stroke:#A80036;stroke-width:1.0;" width="10" x="1493" y="523.4766"/><rect fill="#FFFFFF" filter="url(#f1mt908gxspbs3)" height="30" style="stroke:#A80036;stroke-width:1.0;" width="10" x="1696" y="687.5313"/><rect fill="#FFFFFF" filter="url(#f1mt908gxspbs3)" height="30" style="stroke:#A80036;stroke-width:1.0;" width="10" x="1943" y="876.9375"/><rect fill="#FFFFFF" filter="url(#f1mt908gxspbs3)" height="30" style="stroke:#A80036;stroke-width:1.0;" width="10" x="2140" y="1073.3438"/><rect fill="#FFFFFF" filter="url(#f1mt908gxspbs3)" height="30" style="stroke:#A80036;stroke-width:1.0;" width="10" x="2140" y="1619.8594"/><rect fill="#FFFFFF" filter="url(#f1mt908gxspbs3)" height="30" style="stroke:#A80036;stroke-width:1.0;" width="10" x="2305" y="1244.3984"/><rect fill="#FFFFFF" filter="url(#f1mt908gxspbs3)" height="30" style="stroke:#A80036;stroke-width:1.0;" width="10" x="2305" y="1499.1563"/><rect fill="#FFFFFF" filter="url(#f1mt908gxspbs3)" height="30" style="stroke:#A80036;stroke-width:1.0;" width="10" x="2451" y="1408.4531"/><rect fill="#FFFFFF" filter="url(#f1mt908gxspbs3)" height="30" style="stroke:#A80036;stroke-width:1.0;" width="10" x="2559.5" y="1680.2109"/><rect fill="#FFFFFF" filter="url(#f1mt908gxspbs3)" height="30" style="stroke:#A80036;stroke-width:1.0;" width="10" x="2680.5" y="1559.5078"/><rect fill="#FFFFFF" filter="url(#f1mt908gxspbs3)" height="1440.1953" style="stroke:#000000;stroke-width:2.0;" width="2790" x="10" y="348.7188"/><rect fill="#FFFFFF" filter="url(#f1mt908gxspbs3)" height="182.4063" style="stroke:#000000;stroke-width:2.0;" width="1429.5" x="636.5" y="732.5313"/><rect fill="#FFFFFF" filter="url(#f1mt908gxspbs3)" height="182.4063" style="stroke:#000000;stroke-width:2.0;" width="1597.5" x="636.5" y="928.9375"/><line style="stroke:#A80036;stroke-width:1.0;stroke-dasharray:5.0,5.0;" x1="95" x2="95" y1="89.6094" y2="1836.2656"/><line style="stroke:#A80036;stroke-width:1.0;stroke-dasharray:5.0,5.0;" x1="334.5" x2="334.5" y1="89.6094" y2="1836.2656"/><line style="stroke:#A80036;stroke-width:1.0;stroke-dasharray:5.0,5.0;" x1="528.5" x2="528.5" y1="89.6094" y2="1836.2656"/><line style="stroke:#A80036;stroke-width:1.0;stroke-dasharray:5.0,5.0;" x1="690.5" x2="690.5" y1="89.6094" y2="1836.2656"/><line style="stroke:#A80036;stroke-width:1.0;stroke-dasharray:5.0,5.0;" x1="1215" x2="1215" y1="89.6094" y2="1836.2656"/><line style="stroke:#A80036;stroke-width:1.0;stroke-dasharray:5.0,5.0;" x1="1345" x2="1345" y1="89.6094" y2="1836.2656"/><line style="stroke:#A80036;stroke-width:1.0;stroke-dasharray:5.0,5.0;" x1="1498" x2="1498" y1="89.6094" y2="1836.2656"/><line style="stroke:#A80036;stroke-width:1.0;stroke-dasharray:5.0,5.0;" x1="1701" x2="1701" y1="89.6094" y2="1836.2656"/><line style="stroke:#A80036;stroke-width:1.0;stroke-dasharray:5.0,5.0;" x1="1948" x2="1948" y1="89.6094" y2="1836.2656"/><line style="stroke:#A80036;stroke-width:1.0;stroke-dasharray:5.0,5.0;" x1="2145" x2="2145" y1="89.6094" y2="1836.2656"/><line style="stroke:#A80036;stroke-width:1.0;stroke-dasharray:5.0,5.0;" x1="2310" x2="2310" y1="89.6094" y2="1836.2656"/><line style="stroke:#A80036;stroke-width:1.0;stroke-dasharray:5.0,5.0;" x1="2456" x2="2456" y1="89.6094" y2="1836.2656"/><line style="stroke:#A80036;stroke-width:1.0;stroke-dasharray:5.0,5.0;" x1="2564" x2="2564" y1="89.6094" y2="1836.2656"/><line style="stroke:#A80036;stroke-width:1.0;stroke-dasharray:5.0,5.0;" x1="2685" x2="2685" y1="89.6094" y2="1836.2656"/><line style="stroke:#A80036;stroke-width:1.0;stroke-dasharray:5.0,5.0;" x1="2869" x2="2869" y1="89.6094" y2="1836.2656"/><line style="stroke:#A80036;stroke-width:1.0;stroke-dasharray:5.0,5.0;" x1="3141" x2="3141" y1="89.6094" y2="1836.2656"/><text fill="#000000" font-family="sans-serif" font-size="14" lengthAdjust="spacing" textLength="144" x="20" y="86.5332">LaboratoryCoordinator</text><ellipse cx="95" cy="15" fill="#FEFECE" filter="url(#f1mt908gxspbs3)" rx="8" ry="8" style="stroke:#A80036;stroke-width:2.0;"/><path d="M95,23 L95,50 M82,31 L108,31 M95,50 L82,65 M95,50 L108,65 " fill="none" filter="url(#f1mt908gxspbs3)" style="stroke:#A80036;stroke-width:2.0;"/><text fill="#000000" font-family="sans-serif" font-size="14" lengthAdjust="spacing" textLength="144" x="20" y="1849.7988">LaboratoryCoordinator</text><ellipse cx="95" cy="1862.875" fill="#FEFECE" filter="url(#f1mt908gxspbs3)" rx="8" ry="8" style="stroke:#A80036;stroke-width:2.0;"/><path d="M95,1870.875 L95,1897.875 M82,1878.875 L108,1878.875 M95,1897.875 L82,1912.875 M95,1897.875 L108,1912.875 " fill="none" filter="url(#f1mt908gxspbs3)" style="stroke:#A80036;stroke-width:2.0;"/><rect fill="#FEFECE" filter="url(#f1mt908gxspbs3)" height="31.6094" style="stroke:#A80036;stroke-width:1.5;" width="97" x="284.5" y="53"/><text fill="#000000" font-family="sans-serif" font-size="14" lengthAdjust="spacing" textLength="83" x="291.5" y="74.5332">:ImportTestUI</text><rect fill="#FEFECE" filter="url(#f1mt908gxspbs3)" height="31.6094" style="stroke:#A80036;stroke-width:1.5;" width="97" x="284.5" y="1835.2656"/><text fill="#000000" font-family="sans-serif" font-size="14" lengthAdjust="spacing" textLength="83" x="291.5" y="1856.7988">:ImportTestUI</text><rect fill="#FEFECE" filter="url(#f1mt908gxspbs3)" height="31.6094" style="stroke:#A80036;stroke-width:1.5;" width="147" x="453.5" y="53"/><text fill="#000000" font-family="sans-serif" font-size="14" lengthAdjust="spacing" textLength="133" x="460.5" y="74.5332">:ImportTestController</text><rect fill="#FEFECE" filter="url(#f1mt908gxspbs3)" height="31.6094" style="stroke:#A80036;stroke-width:1.5;" width="147" x="453.5" y="1835.2656"/><text fill="#000000" font-family="sans-serif" font-size="14" lengthAdjust="spacing" textLength="133" x="460.5" y="1856.7988">:ImportTestController</text><rect fill="#FEFECE" filter="url(#f1mt908gxspbs3)" height="31.6094" style="stroke:#A80036;stroke-width:1.5;" width="85" x="646.5" y="53"/><text fill="#000000" font-family="sans-serif" font-size="14" lengthAdjust="spacing" textLength="71" x="653.5" y="74.5332">:ImportTest</text><rect fill="#FEFECE" filter="url(#f1mt908gxspbs3)" height="31.6094" style="stroke:#A80036;stroke-width:1.5;" width="85" x="646.5" y="1835.2656"/><text fill="#000000" font-family="sans-serif" font-size="14" lengthAdjust="spacing" textLength="71" x="653.5" y="1856.7988">:ImportTest</text><rect fill="#FEFECE" filter="url(#f1mt908gxspbs3)" height="31.6094" style="stroke:#A80036;stroke-width:1.5;" width="78" x="1174" y="53"/><text fill="#000000" font-family="sans-serif" font-size="14" lengthAdjust="spacing" textLength="64" x="1181" y="74.5332">:Company</text><rect fill="#FEFECE" filter="url(#f1mt908gxspbs3)" height="31.6094" style="stroke:#A80036;stroke-width:1.5;" width="78" x="1174" y="1835.2656"/><text fill="#000000" font-family="sans-serif" font-size="14" lengthAdjust="spacing" textLength="64" x="1181" y="1856.7988">:Company</text><rect fill="#FEFECE" filter="url(#f1mt908gxspbs3)" height="31.6094" style="stroke:#A80036;stroke-width:1.5;" width="154" x="1266" y="53"/><text fill="#000000" font-family="sans-serif" font-size="14" lengthAdjust="spacing" textLength="140" x="1273" y="74.5332">stringList: List&lt;String&gt;</text><rect fill="#FEFECE" filter="url(#f1mt908gxspbs3)" height="31.6094" style="stroke:#A80036;stroke-width:1.5;" width="154" x="1266" y="1835.2656"/><text fill="#000000" font-family="sans-serif" font-size="14" lengthAdjust="spacing" textLength="140" x="1273" y="1856.7988">stringList: List&lt;String&gt;</text><rect fill="#FEFECE" filter="url(#f1mt908gxspbs3)" height="31.6094" style="stroke:#A80036;stroke-width:1.5;" width="124" x="1434" y="53"/><text fill="#000000" font-family="sans-serif" font-size="14" lengthAdjust="spacing" textLength="110" x="1441" y="74.5332">store: ClientStore</text><rect fill="#FEFECE" filter="url(#f1mt908gxspbs3)" height="31.6094" style="stroke:#A80036;stroke-width:1.5;" width="124" x="1434" y="1835.2656"/><text fill="#000000" font-family="sans-serif" font-size="14" lengthAdjust="spacing" textLength="110" x="1441" y="1856.7988">store: ClientStore</text><rect fill="#FEFECE" filter="url(#f1mt908gxspbs3)" height="31.6094" style="stroke:#A80036;stroke-width:1.5;" width="254" x="1572" y="53"/><text fill="#000000" font-family="sans-serif" font-size="14" lengthAdjust="spacing" textLength="240" x="1579" y="74.5332">store: ClinicalAnalysisLaboratoryStore</text><rect fill="#FEFECE" filter="url(#f1mt908gxspbs3)" height="31.6094" style="stroke:#A80036;stroke-width:1.5;" width="254" x="1572" y="1835.2656"/><text fill="#000000" font-family="sans-serif" font-size="14" lengthAdjust="spacing" textLength="240" x="1579" y="1856.7988">store: ClinicalAnalysisLaboratoryStore</text><rect fill="#FEFECE" filter="url(#f1mt908gxspbs3)" height="31.6094" style="stroke:#A80036;stroke-width:1.5;" width="212" x="1840" y="53"/><text fill="#000000" font-family="sans-serif" font-size="14" lengthAdjust="spacing" textLength="198" x="1847" y="74.5332">store: ParameterCategoryStore</text><rect fill="#FEFECE" filter="url(#f1mt908gxspbs3)" height="31.6094" style="stroke:#A80036;stroke-width:1.5;" width="212" x="1840" y="1835.2656"/><text fill="#000000" font-family="sans-serif" font-size="14" lengthAdjust="spacing" textLength="198" x="1847" y="1856.7988">store: ParameterCategoryStore</text><rect fill="#FEFECE" filter="url(#f1mt908gxspbs3)" height="31.6094" style="stroke:#A80036;stroke-width:1.5;" width="154" x="2066" y="53"/><text fill="#000000" font-family="sans-serif" font-size="14" lengthAdjust="spacing" textLength="140" x="2073" y="74.5332">store: ParameterStore</text><rect fill="#FEFECE" filter="url(#f1mt908gxspbs3)" height="31.6094" style="stroke:#A80036;stroke-width:1.5;" width="154" x="2066" y="1835.2656"/><text fill="#000000" font-family="sans-serif" font-size="14" lengthAdjust="spacing" textLength="140" x="2073" y="1856.7988">store: ParameterStore</text><rect fill="#FEFECE" filter="url(#f1mt908gxspbs3)" height="31.6094" style="stroke:#A80036;stroke-width:1.5;" width="148" x="2234" y="53"/><text fill="#000000" font-family="sans-serif" font-size="14" lengthAdjust="spacing" textLength="134" x="2241" y="74.5332">store: TestTypeStore</text><rect fill="#FEFECE" filter="url(#f1mt908gxspbs3)" height="31.6094" style="stroke:#A80036;stroke-width:1.5;" width="148" x="2234" y="1835.2656"/><text fill="#000000" font-family="sans-serif" font-size="14" lengthAdjust="spacing" textLength="134" x="2241" y="1856.7988">store: TestTypeStore</text><rect fill="#FEFECE" filter="url(#f1mt908gxspbs3)" height="31.6094" style="stroke:#A80036;stroke-width:1.5;" width="116" x="2396" y="53"/><text fill="#000000" font-family="sans-serif" font-size="14" lengthAdjust="spacing" textLength="102" x="2403" y="74.5332">store: TestStore</text><rect fill="#FEFECE" filter="url(#f1mt908gxspbs3)" height="31.6094" style="stroke:#A80036;stroke-width:1.5;" width="116" x="2396" y="1835.2656"/><text fill="#000000" font-family="sans-serif" font-size="14" lengthAdjust="spacing" textLength="102" x="2403" y="1856.7988">store: TestStore</text><rect fill="#FEFECE" filter="url(#f1mt908gxspbs3)" height="31.6094" style="stroke:#A80036;stroke-width:1.5;" width="73" x="2526" y="53"/><text fill="#000000" font-family="sans-serif" font-size="14" lengthAdjust="spacing" textLength="59" x="2533" y="74.5332">test: Test</text><rect fill="#FEFECE" filter="url(#f1mt908gxspbs3)" height="31.6094" style="stroke:#A80036;stroke-width:1.5;" width="73" x="2526" y="1835.2656"/><text fill="#000000" font-family="sans-serif" font-size="14" lengthAdjust="spacing" textLength="59" x="2533" y="1856.7988">test: Test</text><rect fill="#FEFECE" filter="url(#f1mt908gxspbs3)" height="31.6094" style="stroke:#A80036;stroke-width:1.5;" width="141" x="2613" y="53"/><text fill="#000000" font-family="sans-serif" font-size="14" lengthAdjust="spacing" textLength="123" x="2620" y="74.5332">testType: TestType</text><rect fill="#FEFECE" filter="url(#f1mt908gxspbs3)" height="31.6094" style="stroke:#A80036;stroke-width:1.5;" width="141" x="2613" y="1835.2656"/><text fill="#000000" font-family="sans-serif" font-size="14" lengthAdjust="spacing" textLength="123" x="2620" y="1856.7988">testType: TestType</text><rect fill="#FEFECE" filter="url(#f1mt908gxspbs3)" height="31.6094" style="stroke:#A80036;stroke-width:1.5;" width="198" x="2768" y="53"/><text fill="#000000" font-family="sans-serif" font-size="14" lengthAdjust="spacing" textLength="184" x="2775" y="74.5332">parameters: List&lt;Parameter&gt;</text><rect fill="#FEFECE" filter="url(#f1mt908gxspbs3)" height="31.6094" style="stroke:#A80036;stroke-width:1.5;" width="198" x="2768" y="1835.2656"/><text fill="#000000" font-family="sans-serif" font-size="14" lengthAdjust="spacing" textLength="184" x="2775" y="1856.7988">parameters: List&lt;Parameter&gt;</text><rect fill="#FEFECE" filter="url(#f1mt908gxspbs3)" height="31.6094" style="stroke:#A80036;stroke-width:1.5;" width="318" x="2980" y="53"/><text fill="#000000" font-family="sans-serif" font-size="14" lengthAdjust="spacing" textLength="304" x="2987" y="74.5332">parameterCategories: List&lt;ParameterCategory&gt;</text><rect fill="#FEFECE" filter="url(#f1mt908gxspbs3)" height="31.6094" style="stroke:#A80036;stroke-width:1.5;" width="318" x="2980" y="1835.2656"/><text fill="#000000" font-family="sans-serif" font-size="14" lengthAdjust="spacing" textLength="304" x="2987" y="1856.7988">parameterCategories: List&lt;ParameterCategory&gt;</text><rect fill="#FFFFFF" filter="url(#f1mt908gxspbs3)" height="1727.6563" style="stroke:#A80036;stroke-width:1.0;" width="10" x="90" y="99.6094"/><rect fill="#FFFFFF" filter="url(#f1mt908gxspbs3)" height="30.3516" style="stroke:#A80036;stroke-width:1.0;" width="10" x="330" y="121.9609"/><rect fill="#FFFFFF" filter="url(#f1mt908gxspbs3)" height="1644.6016" style="stroke:#A80036;stroke-width:1.0;" width="10" x="330" y="182.6641"/><rect fill="#FFFFFF" filter="url(#f1mt908gxspbs3)" height="1567.8984" style="stroke:#A80036;stroke-width:1.0;" width="10" x="524" y="213.0156"/><rect fill="#FFFFFF" filter="url(#f1mt908gxspbs3)" height="30" style="stroke:#A80036;stroke-width:1.0;" width="10" x="686" y="243.3672"/><rect fill="#FFFFFF" filter="url(#f1mt908gxspbs3)" height="30" style="stroke:#A80036;stroke-width:1.0;" width="10" x="686" y="303.7188"/><rect fill="#FFFFFF" filter="url(#f1mt908gxspbs3)" height="1049.0313" style="stroke:#A80036;stroke-width:1.0;" width="10" x="686" y="389.4219"/><rect fill="#FFFFFF" filter="url(#f1mt908gxspbs3)" height="125.7031" style="stroke:#A80036;stroke-width:1.0;" width="10" x="691" y="427.7734"/><rect fill="#FFFFFF" filter="url(#f1mt908gxspbs3)" height="125.7031" style="stroke:#A80036;stroke-width:1.0;" width="10" x="691" y="591.8281"/><rect fill="#FFFFFF" filter="url(#f1mt908gxspbs3)" height="125.7031" style="stroke:#A80036;stroke-width:1.0;" width="10" x="691" y="781.2344"/><rect fill="#FFFFFF" filter="url(#f1mt908gxspbs3)" height="125.7031" style="stroke:#A80036;stroke-width:1.0;" width="10" x="691" y="977.6406"/><rect fill="#FFFFFF" filter="url(#f1mt908gxspbs3)" height="125.7031" style="stroke:#A80036;stroke-width:1.0;" width="10" x="691" y="1148.6953"/><rect fill="#FFFFFF" filter="url(#f1mt908gxspbs3)" height="125.7031" style="stroke:#A80036;stroke-width:1.0;" width="10" x="691" y="1312.75"/><rect fill="#FFFFFF" filter="url(#f1mt908gxspbs3)" height="241.4063" style="stroke:#A80036;stroke-width:1.0;" width="10" x="686" y="1468.8047"/><rect fill="#FFFFFF" filter="url(#f1mt908gxspbs3)" height="30" style="stroke:#A80036;stroke-width:1.0;" width="10" x="1210" y="463.125"/><rect fill="#FFFFFF" filter="url(#f1mt908gxspbs3)" height="30" style="stroke:#A80036;stroke-width:1.0;" width="10" x="1210" y="627.1797"/><rect fill="#FFFFFF" filter="url(#f1mt908gxspbs3)" height="30" style="stroke:#A80036;stroke-width:1.0;" width="10" x="1210" y="816.5859"/><rect fill="#FFFFFF" filter="url(#f1mt908gxspbs3)" height="30" style="stroke:#A80036;stroke-width:1.0;" width="10" x="1210" y="1012.9922"/><rect fill="#FFFFFF" filter="url(#f1mt908gxspbs3)" height="30" style="stroke:#A80036;stroke-width:1.0;" width="10" x="1210" y="1184.0469"/><rect fill="#FFFFFF" filter="url(#f1mt908gxspbs3)" height="30" style="stroke:#A80036;stroke-width:1.0;" width="10" x="1210" y="1348.1016"/><rect fill="#FFFFFF" filter="url(#f1mt908gxspbs3)" height="30" style="stroke:#A80036;stroke-width:1.0;" width="10" x="1493" y="523.4766"/><rect fill="#FFFFFF" filter="url(#f1mt908gxspbs3)" height="30" style="stroke:#A80036;stroke-width:1.0;" width="10" x="1696" y="687.5313"/><rect fill="#FFFFFF" filter="url(#f1mt908gxspbs3)" height="30" style="stroke:#A80036;stroke-width:1.0;" width="10" x="1943" y="876.9375"/><rect fill="#FFFFFF" filter="url(#f1mt908gxspbs3)" height="30" style="stroke:#A80036;stroke-width:1.0;" width="10" x="2140" y="1073.3438"/><rect fill="#FFFFFF" filter="url(#f1mt908gxspbs3)" height="30" style="stroke:#A80036;stroke-width:1.0;" width="10" x="2140" y="1619.8594"/><rect fill="#FFFFFF" filter="url(#f1mt908gxspbs3)" height="30" style="stroke:#A80036;stroke-width:1.0;" width="10" x="2305" y="1244.3984"/><rect fill="#FFFFFF" filter="url(#f1mt908gxspbs3)" height="30" style="stroke:#A80036;stroke-width:1.0;" width="10" x="2305" y="1499.1563"/><rect fill="#FFFFFF" filter="url(#f1mt908gxspbs3)" height="30" style="stroke:#A80036;stroke-width:1.0;" width="10" x="2451" y="1408.4531"/><rect fill="#FFFFFF" filter="url(#f1mt908gxspbs3)" height="30" style="stroke:#A80036;stroke-width:1.0;" width="10" x="2559.5" y="1680.2109"/><rect fill="#FFFFFF" filter="url(#f1mt908gxspbs3)" height="30" style="stroke:#A80036;stroke-width:1.0;" width="10" x="2680.5" y="1559.5078"/><polygon fill="#A80036" points="318,117.9609,328,121.9609,318,125.9609,322,121.9609" style="stroke:#A80036;stroke-width:1.0;"/><line style="stroke:#A80036;stroke-width:1.0;" x1="100" x2="324" y1="121.9609" y2="121.9609"/><text fill="#000000" font-family="sans-serif" font-size="13" font-weight="bold" lengthAdjust="spacing" textLength="7" x="107" y="117.1045">1</text><text fill="#000000" font-family="sans-serif" font-size="13" lengthAdjust="spacing" textLength="160" x="118" y="117.1045">import a test from a .csv file</text><polygon fill="#A80036" points="111,148.3125,101,152.3125,111,156.3125,107,152.3125" style="stroke:#A80036;stroke-width:1.0;"/><line style="stroke:#A80036;stroke-width:1.0;stroke-dasharray:2.0,2.0;" x1="105" x2="334" y1="152.3125" y2="152.3125"/><text fill="#000000" font-family="sans-serif" font-size="13" font-weight="bold" lengthAdjust="spacing" textLength="7" x="117" y="147.4561">2</text><text fill="#000000" font-family="sans-serif" font-size="13" lengthAdjust="spacing" textLength="99" x="128" y="147.4561">requests file path</text><polygon fill="#A80036" points="318,178.6641,328,182.6641,318,186.6641,322,182.6641" style="stroke:#A80036;stroke-width:1.0;"/><line style="stroke:#A80036;stroke-width:1.0;" x1="100" x2="324" y1="182.6641" y2="182.6641"/><text fill="#000000" font-family="sans-serif" font-size="13" font-weight="bold" lengthAdjust="spacing" textLength="7" x="107" y="177.8076">3</text><text fill="#000000" font-family="sans-serif" font-size="13" lengthAdjust="spacing" textLength="88" x="118" y="177.8076">inserts file path</text><polygon fill="#A80036" points="512,209.0156,522,213.0156,512,217.0156,516,213.0156" style="stroke:#A80036;stroke-width:1.0;"/><line style="stroke:#A80036;stroke-width:1.0;" x1="340" x2="518" y1="213.0156" y2="213.0156"/><text fill="#000000" font-family="sans-serif" font-size="13" font-weight="bold" lengthAdjust="spacing" textLength="7" x="347" y="208.1592">4</text><text fill="#000000" font-family="sans-serif" font-size="13" lengthAdjust="spacing" textLength="154" x="358" y="208.1592">importFromFile(pathName)</text><polygon fill="#A80036" points="674,239.3672,684,243.3672,674,247.3672,678,243.3672" style="stroke:#A80036;stroke-width:1.0;"/><line style="stroke:#A80036;stroke-width:1.0;" x1="534" x2="680" y1="243.3672" y2="243.3672"/><text fill="#000000" font-family="sans-serif" font-size="13" font-weight="bold" lengthAdjust="spacing" textLength="7" x="541" y="238.5107">5</text><text fill="#000000" font-family="sans-serif" font-size="13" lengthAdjust="spacing" textLength="106" x="552" y="238.5107">getFile(pathName)</text><polygon fill="#A80036" points="674,299.7188,684,303.7188,674,307.7188,678,303.7188" style="stroke:#A80036;stroke-width:1.0;"/><line style="stroke:#A80036;stroke-width:1.0;" x1="534" x2="680" y1="303.7188" y2="303.7188"/><text fill="#000000" font-family="sans-serif" font-size="13" font-weight="bold" lengthAdjust="spacing" textLength="7" x="541" y="298.8623">6</text><text fill="#000000" font-family="sans-serif" font-size="13" lengthAdjust="spacing" textLength="122" x="552" y="298.8623">importListFromCSV()</text><path d="M10,348.7188 L83,348.7188 L83,356.7188 L73,366.7188 L10,366.7188 L10,348.7188 " fill="#EEEEEE" style="stroke:#000000;stroke-width:1.0;"/><rect fill="none" height="1440.1953" style="stroke:#000000;stroke-width:2.0;" width="2790" x="10" y="348.7188"/><text fill="#000000" font-family="sans-serif" font-size="13" font-weight="bold" lengthAdjust="spacing" textLength="28" x="25" y="363.2139">loop</text><polygon fill="#A80036" points="674,385.4219,684,389.4219,674,393.4219,678,389.4219" style="stroke:#A80036;stroke-width:1.0;"/><line style="stroke:#A80036;stroke-width:1.0;" x1="534" x2="680" y1="389.4219" y2="389.4219"/><text fill="#000000" font-family="sans-serif" font-size="13" font-weight="bold" lengthAdjust="spacing" textLength="7" x="541" y="384.5654">7</text><text fill="#000000" font-family="sans-serif" font-size="13" lengthAdjust="spacing" textLength="86" x="552" y="384.5654">checkIfExists()</text><line style="stroke:#A80036;stroke-width:1.0;" x1="696" x2="743" y1="414.7734" y2="414.7734"/><line style="stroke:#A80036;stroke-width:1.0;" x1="743" x2="743" y1="414.7734" y2="427.7734"/><line style="stroke:#A80036;stroke-width:1.0;" x1="702" x2="743" y1="427.7734" y2="427.7734"/><polygon fill="#A80036" points="712,423.7734,702,427.7734,712,431.7734,708,427.7734" style="stroke:#A80036;stroke-width:1.0;"/><text fill="#000000" font-family="sans-serif" font-size="13" font-weight="bold" lengthAdjust="spacing" textLength="7" x="708" y="409.917">8</text><text fill="#000000" font-family="sans-serif" font-size="13" lengthAdjust="spacing" textLength="489" x="719" y="409.917">checkIfClientExists(nhsNumber, TIN, birthDay, phoneNumber, name, email, address)</text><polygon fill="#A80036" points="1198,459.125,1208,463.125,1198,467.125,1202,463.125" style="stroke:#A80036;stroke-width:1.0;"/><line style="stroke:#A80036;stroke-width:1.0;" x1="701" x2="1204" y1="463.125" y2="463.125"/><text fill="#000000" font-family="sans-serif" font-size="13" font-weight="bold" lengthAdjust="spacing" textLength="7" x="708" y="458.2686">9</text><text fill="#000000" font-family="sans-serif" font-size="13" lengthAdjust="spacing" textLength="127" x="719" y="458.2686">store=getClientStore()</text><polygon fill="#A80036" points="1481,519.4766,1491,523.4766,1481,527.4766,1485,523.4766" style="stroke:#A80036;stroke-width:1.0;"/><line style="stroke:#A80036;stroke-width:1.0;" x1="701" x2="1487" y1="523.4766" y2="523.4766"/><text fill="#000000" font-family="sans-serif" font-size="13" font-weight="bold" lengthAdjust="spacing" textLength="14" x="708" y="518.6201">10</text><text fill="#000000" font-family="sans-serif" font-size="13" lengthAdjust="spacing" textLength="148" x="726" y="518.6201">clientList = getClientList()</text><line style="stroke:#A80036;stroke-width:1.0;" x1="696" x2="743" y1="578.8281" y2="578.8281"/><line style="stroke:#A80036;stroke-width:1.0;" x1="743" x2="743" y1="578.8281" y2="591.8281"/><line style="stroke:#A80036;stroke-width:1.0;" x1="702" x2="743" y1="591.8281" y2="591.8281"/><polygon fill="#A80036" points="712,587.8281,702,591.8281,712,595.8281,708,591.8281" style="stroke:#A80036;stroke-width:1.0;"/><text fill="#000000" font-family="sans-serif" font-size="13" font-weight="bold" lengthAdjust="spacing" textLength="14" x="708" y="573.9717">11</text><text fill="#000000" font-family="sans-serif" font-size="13" lengthAdjust="spacing" textLength="119" x="726" y="573.9717">checkIfLabExists(ID)</text><polygon fill="#A80036" points="1198,623.1797,1208,627.1797,1198,631.1797,1202,627.1797" style="stroke:#A80036;stroke-width:1.0;"/><line style="stroke:#A80036;stroke-width:1.0;" x1="701" x2="1204" y1="627.1797" y2="627.1797"/><text fill="#000000" font-family="sans-serif" font-size="13" font-weight="bold" lengthAdjust="spacing" textLength="14" x="708" y="622.3232">12</text><text fill="#000000" font-family="sans-serif" font-size="13" lengthAdjust="spacing" textLength="247" x="726" y="622.3232">store=getClinicalAnalysisLaboratoryStore()</text><polygon fill="#A80036" points="1684,683.5313,1694,687.5313,1684,691.5313,1688,687.5313" style="stroke:#A80036;stroke-width:1.0;"/><line style="stroke:#A80036;stroke-width:1.0;" x1="701" x2="1690" y1="687.5313" y2="687.5313"/><text fill="#000000" font-family="sans-serif" font-size="13" font-weight="bold" lengthAdjust="spacing" textLength="14" x="708" y="682.6748">13</text><text fill="#000000" font-family="sans-serif" font-size="13" lengthAdjust="spacing" textLength="219" x="726" y="682.6748">getClinicalAnalysisLaboratoryByID(ID)</text><path d="M636.5,732.5313 L709.5,732.5313 L709.5,740.5313 L699.5,750.5313 L636.5,750.5313 L636.5,732.5313 " fill="#EEEEEE" style="stroke:#000000;stroke-width:1.0;"/><rect fill="none" height="182.4063" style="stroke:#000000;stroke-width:2.0;" width="1429.5" x="636.5" y="732.5313"/><text fill="#000000" font-family="sans-serif" font-size="13" font-weight="bold" lengthAdjust="spacing" textLength="28" x="651.5" y="747.0264">loop</text><text fill="#000000" font-family="sans-serif" font-size="11" font-weight="bold" lengthAdjust="spacing" textLength="231" x="724.5" y="745.9502">[for each category present on the csv file]</text><line style="stroke:#A80036;stroke-width:1.0;" x1="696" x2="743" y1="768.2344" y2="768.2344"/><line style="stroke:#A80036;stroke-width:1.0;" x1="743" x2="743" y1="768.2344" y2="781.2344"/><line style="stroke:#A80036;stroke-width:1.0;" x1="702" x2="743" y1="781.2344" y2="781.2344"/><polygon fill="#A80036" points="712,777.2344,702,781.2344,712,785.2344,708,781.2344" style="stroke:#A80036;stroke-width:1.0;"/><text fill="#000000" font-family="sans-serif" font-size="13" font-weight="bold" lengthAdjust="spacing" textLength="14" x="708" y="763.3779">14</text><text fill="#000000" font-family="sans-serif" font-size="13" lengthAdjust="spacing" textLength="170" x="726" y="763.3779">checkIfCategoryExists(name)</text><polygon fill="#A80036" points="1198,812.5859,1208,816.5859,1198,820.5859,1202,816.5859" style="stroke:#A80036;stroke-width:1.0;"/><line style="stroke:#A80036;stroke-width:1.0;" x1="701" x2="1204" y1="816.5859" y2="816.5859"/><text fill="#000000" font-family="sans-serif" font-size="13" font-weight="bold" lengthAdjust="spacing" textLength="14" x="708" y="811.7295">15</text><text fill="#000000" font-family="sans-serif" font-size="13" lengthAdjust="spacing" textLength="206" x="726" y="811.7295">store=getParameterCategoryStore()</text><polygon fill="#A80036" points="1931,872.9375,1941,876.9375,1931,880.9375,1935,876.9375" style="stroke:#A80036;stroke-width:1.0;"/><line style="stroke:#A80036;stroke-width:1.0;" x1="701" x2="1937" y1="876.9375" y2="876.9375"/><text fill="#000000" font-family="sans-serif" font-size="13" font-weight="bold" lengthAdjust="spacing" textLength="14" x="708" y="872.0811">16</text><text fill="#000000" font-family="sans-serif" font-size="13" lengthAdjust="spacing" textLength="220" x="726" y="872.0811">getParameterCategoryByName(name)</text><path d="M636.5,928.9375 L709.5,928.9375 L709.5,936.9375 L699.5,946.9375 L636.5,946.9375 L636.5,928.9375 " fill="#EEEEEE" style="stroke:#000000;stroke-width:1.0;"/><rect fill="none" height="182.4063" style="stroke:#000000;stroke-width:2.0;" width="1597.5" x="636.5" y="928.9375"/><text fill="#000000" font-family="sans-serif" font-size="13" font-weight="bold" lengthAdjust="spacing" textLength="28" x="651.5" y="943.4326">loop</text><text fill="#000000" font-family="sans-serif" font-size="11" font-weight="bold" lengthAdjust="spacing" textLength="241" x="724.5" y="942.3564">[for each parameter present on the csv file]</text><line style="stroke:#A80036;stroke-width:1.0;" x1="696" x2="743" y1="964.6406" y2="964.6406"/><line style="stroke:#A80036;stroke-width:1.0;" x1="743" x2="743" y1="964.6406" y2="977.6406"/><line style="stroke:#A80036;stroke-width:1.0;" x1="702" x2="743" y1="977.6406" y2="977.6406"/><polygon fill="#A80036" points="712,973.6406,702,977.6406,712,981.6406,708,977.6406" style="stroke:#A80036;stroke-width:1.0;"/><text fill="#000000" font-family="sans-serif" font-size="13" font-weight="bold" lengthAdjust="spacing" textLength="14" x="708" y="959.7842">17</text><text fill="#000000" font-family="sans-serif" font-size="13" lengthAdjust="spacing" textLength="178" x="726" y="959.7842">checkIfParameterExists(name)</text><polygon fill="#A80036" points="1198,1008.9922,1208,1012.9922,1198,1016.9922,1202,1012.9922" style="stroke:#A80036;stroke-width:1.0;"/><line style="stroke:#A80036;stroke-width:1.0;" x1="701" x2="1204" y1="1012.9922" y2="1012.9922"/><text fill="#000000" font-family="sans-serif" font-size="13" font-weight="bold" lengthAdjust="spacing" textLength="14" x="708" y="1008.1357">18</text><text fill="#000000" font-family="sans-serif" font-size="13" lengthAdjust="spacing" textLength="154" x="726" y="1008.1357">store=getParameterStore()</text><polygon fill="#A80036" points="2128,1069.3438,2138,1073.3438,2128,1077.3438,2132,1073.3438" style="stroke:#A80036;stroke-width:1.0;"/><line style="stroke:#A80036;stroke-width:1.0;" x1="701" x2="2134" y1="1073.3438" y2="1073.3438"/><text fill="#000000" font-family="sans-serif" font-size="13" font-weight="bold" lengthAdjust="spacing" textLength="14" x="708" y="1068.4873">19</text><text fill="#000000" font-family="sans-serif" font-size="13" lengthAdjust="spacing" textLength="160" x="726" y="1068.4873">getParameterByCode(code)</text><line style="stroke:#A80036;stroke-width:1.0;" x1="696" x2="743" y1="1135.6953" y2="1135.6953"/><line style="stroke:#A80036;stroke-width:1.0;" x1="743" x2="743" y1="1135.6953" y2="1148.6953"/><line style="stroke:#A80036;stroke-width:1.0;" x1="702" x2="743" y1="1148.6953" y2="1148.6953"/><polygon fill="#A80036" points="712,1144.6953,702,1148.6953,712,1152.6953,708,1148.6953" style="stroke:#A80036;stroke-width:1.0;"/><text fill="#000000" font-family="sans-serif" font-size="13" font-weight="bold" lengthAdjust="spacing" textLength="14" x="708" y="1130.8389">20</text><text fill="#000000" font-family="sans-serif" font-size="13" lengthAdjust="spacing" textLength="167" x="726" y="1130.8389">checkIfTestTypeExists(code)</text><polygon fill="#A80036" points="1198,1180.0469,1208,1184.0469,1198,1188.0469,1202,1184.0469" style="stroke:#A80036;stroke-width:1.0;"/><line style="stroke:#A80036;stroke-width:1.0;" x1="701" x2="1204" y1="1184.0469" y2="1184.0469"/><text fill="#000000" font-family="sans-serif" font-size="13" font-weight="bold" lengthAdjust="spacing" textLength="14" x="708" y="1179.1904">21</text><text fill="#000000" font-family="sans-serif" font-size="13" lengthAdjust="spacing" textLength="147" x="726" y="1179.1904">store=getTestTypeStore()</text><polygon fill="#A80036" points="2293,1240.3984,2303,1244.3984,2293,1248.3984,2297,1244.3984" style="stroke:#A80036;stroke-width:1.0;"/><line style="stroke:#A80036;stroke-width:1.0;" x1="701" x2="2299" y1="1244.3984" y2="1244.3984"/><text fill="#000000" font-family="sans-serif" font-size="13" font-weight="bold" lengthAdjust="spacing" textLength="14" x="708" y="1239.542">22</text><text fill="#000000" font-family="sans-serif" font-size="13" lengthAdjust="spacing" textLength="153" x="726" y="1239.542">getTestTypeByCode(code)</text><line style="stroke:#A80036;stroke-width:1.0;" x1="696" x2="743" y1="1299.75" y2="1299.75"/><line style="stroke:#A80036;stroke-width:1.0;" x1="743" x2="743" y1="1299.75" y2="1312.75"/><line style="stroke:#A80036;stroke-width:1.0;" x1="702" x2="743" y1="1312.75" y2="1312.75"/><polygon fill="#A80036" points="712,1308.75,702,1312.75,712,1316.75,708,1312.75" style="stroke:#A80036;stroke-width:1.0;"/><text fill="#000000" font-family="sans-serif" font-size="13" font-weight="bold" lengthAdjust="spacing" textLength="14" x="708" y="1294.8936">23</text><text fill="#000000" font-family="sans-serif" font-size="13" lengthAdjust="spacing" textLength="222" x="726" y="1294.8936">checkIfTestExists(testCode, nhsCode)</text><polygon fill="#A80036" points="1198,1344.1016,1208,1348.1016,1198,1352.1016,1202,1348.1016" style="stroke:#A80036;stroke-width:1.0;"/><line style="stroke:#A80036;stroke-width:1.0;" x1="701" x2="1204" y1="1348.1016" y2="1348.1016"/><text fill="#000000" font-family="sans-serif" font-size="13" font-weight="bold" lengthAdjust="spacing" textLength="14" x="708" y="1343.2451">24</text><text fill="#000000" font-family="sans-serif" font-size="13" lengthAdjust="spacing" textLength="119" x="726" y="1343.2451">store=getTestStore()</text><polygon fill="#A80036" points="2439,1404.4531,2449,1408.4531,2439,1412.4531,2443,1408.4531" style="stroke:#A80036;stroke-width:1.0;"/><line style="stroke:#A80036;stroke-width:1.0;" x1="701" x2="2445" y1="1408.4531" y2="1408.4531"/><text fill="#000000" font-family="sans-serif" font-size="13" font-weight="bold" lengthAdjust="spacing" textLength="14" x="708" y="1403.5967">25</text><text fill="#000000" font-family="sans-serif" font-size="13" lengthAdjust="spacing" textLength="149" x="726" y="1403.5967">getTestByCode(testCode)</text><polygon fill="#A80036" points="674,1464.8047,684,1468.8047,674,1472.8047,678,1468.8047" style="stroke:#A80036;stroke-width:1.0;"/><line style="stroke:#A80036;stroke-width:1.0;" x1="534" x2="680" y1="1468.8047" y2="1468.8047"/><text fill="#000000" font-family="sans-serif" font-size="13" font-weight="bold" lengthAdjust="spacing" textLength="14" x="541" y="1463.9482">26</text><text fill="#000000" font-family="sans-serif" font-size="13" lengthAdjust="spacing" textLength="54" x="559" y="1463.9482">addTest()</text><polygon fill="#A80036" points="2293,1495.1563,2303,1499.1563,2293,1503.1563,2297,1499.1563" style="stroke:#A80036;stroke-width:1.0;"/><line style="stroke:#A80036;stroke-width:1.0;" x1="696" x2="2299" y1="1499.1563" y2="1499.1563"/><text fill="#000000" font-family="sans-serif" font-size="13" font-weight="bold" lengthAdjust="spacing" textLength="14" x="703" y="1494.2998">27</text><text fill="#000000" font-family="sans-serif" font-size="13" lengthAdjust="spacing" textLength="219" x="721" y="1494.2998">testType = getTestTypeByCode(code)</text><polygon fill="#A80036" points="2668.5,1555.5078,2678.5,1559.5078,2668.5,1563.5078,2672.5,1559.5078" style="stroke:#A80036;stroke-width:1.0;"/><line style="stroke:#A80036;stroke-width:1.0;" x1="696" x2="2674.5" y1="1559.5078" y2="1559.5078"/><text fill="#000000" font-family="sans-serif" font-size="13" font-weight="bold" lengthAdjust="spacing" textLength="14" x="703" y="1554.6514">28</text><text fill="#000000" font-family="sans-serif" font-size="13" lengthAdjust="spacing" textLength="285" x="721" y="1554.6514">parameterCategoryList = getParameterCategory()</text><polygon fill="#A80036" points="2128,1615.8594,2138,1619.8594,2128,1623.8594,2132,1619.8594" style="stroke:#A80036;stroke-width:1.0;"/><line style="stroke:#A80036;stroke-width:1.0;" x1="696" x2="2134" y1="1619.8594" y2="1619.8594"/><text fill="#000000" font-family="sans-serif" font-size="13" font-weight="bold" lengthAdjust="spacing" textLength="14" x="703" y="1615.0029">29</text><text fill="#000000" font-family="sans-serif" font-size="13" lengthAdjust="spacing" textLength="433" x="721" y="1615.0029">parameters = getParametersByParameterCategory(parameterCategoryList)</text><polygon fill="#A80036" points="2547.5,1676.2109,2557.5,1680.2109,2547.5,1684.2109,2551.5,1680.2109" style="stroke:#A80036;stroke-width:1.0;"/><line style="stroke:#A80036;stroke-width:1.0;stroke-dasharray:2.0,2.0;" x1="696" x2="2553.5" y1="1680.2109" y2="1680.2109"/><text fill="#000000" font-family="sans-serif" font-size="13" font-weight="bold" lengthAdjust="spacing" textLength="14" x="703" y="1675.3545">30</text><text fill="#000000" font-family="sans-serif" font-size="13" lengthAdjust="spacing" textLength="983" x="721" y="1675.3545">create(TestType, parameters, parameterCategories, TIN, nhsCode, registrationDateTime, collectDateTime, chemicalAnalysisDate, diagnosisDateTime, validationDateTime)</text><path d="M2339,1723.2109 L2339,1749.2109 L2786,1749.2109 L2786,1733.2109 L2776,1723.2109 L2339,1723.2109 " fill="#FBFB77" filter="url(#f1mt908gxspbs3)" style="stroke:#A80036;stroke-width:1.0;"/><path d="M2776,1723.2109 L2776,1733.2109 L2786,1733.2109 L2776,1723.2109 " fill="#FBFB77" style="stroke:#A80036;stroke-width:1.0;"/><text fill="#000000" font-family="sans-serif" font-size="13" lengthAdjust="spacing" textLength="426" x="2345" y="1741.7061">The test's code and Barcodes are generated inside the Test's constructor.</text><polygon fill="#A80036" points="111,1776.9141,101,1780.9141,111,1784.9141,107,1780.9141" style="stroke:#A80036;stroke-width:1.0;"/><line style="stroke:#A80036;stroke-width:1.0;stroke-dasharray:2.0,2.0;" x1="105" x2="329" y1="1780.9141" y2="1780.9141"/><text fill="#000000" font-family="sans-serif" font-size="13" font-weight="bold" lengthAdjust="spacing" textLength="14" x="117" y="1776.0576">31</text><text fill="#000000" font-family="sans-serif" font-size="13" lengthAdjust="spacing" textLength="178" x="135" y="1776.0576">display the test being imported</text><polygon fill="#A80036" points="111,1814.2656,101,1818.2656,111,1822.2656,107,1818.2656" style="stroke:#A80036;stroke-width:1.0;"/><line style="stroke:#A80036;stroke-width:1.0;stroke-dasharray:2.0,2.0;" x1="105" x2="329" y1="1818.2656" y2="1818.2656"/><text fill="#000000" font-family="sans-serif" font-size="13" font-weight="bold" lengthAdjust="spacing" textLength="14" x="117" y="1813.4092">32</text><text fill="#000000" font-family="sans-serif" font-size="13" lengthAdjust="spacing" textLength="188" x="135" y="1813.4092">informs about operation success</text><!--MD5=[08e5285cf5267d1045d1ad8a3aac26b7]
@startuml
autonumber

actor "LaboratoryCoordinator" as labC
activate labC

participant ":ImportTestUI" as ImportTestUI
participant ":ImportTestController" as ImportTestController
participant ":ImportTest" as ImportTest
participant ":Company" as Company
participant "stringList: List<String>" as stringList
participant "store: ClientStore" as ClientStore
participant "store: ClinicalAnalysisLaboratoryStore" as CALStore
participant "store: ParameterCategoryStore" as ParameterCategoryStore
participant "store: ParameterStore" as ParameterStore
participant "store: TestTypeStore" as TestTypeStore
participant "store: TestStore" as TestStore
participant "test: Test" as Test
participant "testType: TestType " as TestType
participant "parameters: List<Parameter>" as parameterList
participant "parameterCategories: List<ParameterCategory>" as parameterCategoryList


labC -> ImportTestUI : import a test from a .csv file
activate ImportTestUI

ImportTestUI - -> labC : requests file path
deactivate ImportTestUI

labC -> ImportTestUI : inserts file path
activate ImportTestUI


ImportTestUI -> ImportTestController : importFromFile(pathName)
activate ImportTestController


ImportTestController -> ImportTest  : getFile(pathName)
activate ImportTest
deactivate ImportTest


ImportTestController -> ImportTest   : importListFromCSV()
activate ImportTest
deactivate ImportTest

loop
ImportTestController -> ImportTest : checkIfExists()
activate ImportTest


ImportTest -> ImportTest ++: checkIfClientExists(nhsNumber, TIN, birthDay, phoneNumber, name, email, address)
ImportTest -> Company : store=getClientStore()
activate Company
deactivate Company
ImportTest -> ClientStore : clientList = getClientList()
activate ClientStore
deactivate ClientStore
deactivate ImportTest


ImportTest -> ImportTest ++: checkIfLabExists(ID)
ImportTest -> Company : store=getClinicalAnalysisLaboratoryStore()
activate Company
deactivate Company
ImportTest -> CALStore : getClinicalAnalysisLaboratoryByID(ID)
activate CALStore
deactivate CALStore
deactivate ImportTest


loop for each category present on the csv file
ImportTest -> ImportTest ++: checkIfCategoryExists(name)
ImportTest -> Company : store=getParameterCategoryStore()
activate Company
deactivate Company
ImportTest -> ParameterCategoryStore : getParameterCategoryByName(name)
activate ParameterCategoryStore
deactivate ParameterCategoryStore
deactivate ImportTest
end


loop for each parameter present on the csv file
ImportTest -> ImportTest ++: checkIfParameterExists(name)
ImportTest -> Company : store=getParameterStore()
activate Company
deactivate Company
ImportTest -> ParameterStore : getParameterByCode(code)
activate ParameterStore
deactivate ParameterStore
deactivate ImportTest
end


ImportTest -> ImportTest ++: checkIfTestTypeExists(code)
ImportTest -> Company : store=getTestTypeStore()
activate Company
deactivate Company
ImportTest -> TestTypeStore : getTestTypeByCode(code)
activate TestTypeStore
deactivate TestTypeStore
deactivate ImportTest


ImportTest -> ImportTest ++: checkIfTestExists(testCode, nhsCode)
ImportTest -> Company : store=getTestStore()
activate Company
deactivate Company
ImportTest -> TestStore : getTestByCode(testCode)
activate TestStore
deactivate TestStore
deactivate ImportTest


deactivate ImportTest

ImportTestController -> ImportTest : addTest()
activate ImportTest


ImportTest -> TestTypeStore : testType = getTestTypeByCode(code)
activate TestTypeStore
deactivate TestTypeStore

ImportTest -> TestType : parameterCategoryList = getParameterCategory()
activate TestType
deactivate TestType

ImportTest -> ParameterStore : parameters = getParametersByParameterCategory(parameterCategoryList)
activate ParameterStore
deactivate ParameterStore

ImportTest - -> Test : create(TestType, parameters, parameterCategories, TIN, nhsCode, registrationDateTime, collectDateTime, chemicalAnalysisDate, diagnosisDateTime, validationDateTime)
activate Test
deactivate Test


note over Test : The test's code and Barcodes are generated inside the Test's constructor.

deactivate ImportTest


ImportTestUI - -> labC : display the test being imported
deactivate ImportTestController
end


ImportTestUI - -> labC : informs about operation success
@enduml

PlantUML version 1.2021.7(Sun May 23 13:40:07 BST 2021)
(GPL source distribution)
Java Runtime: OpenJDK Runtime Environment
JVM: Dynamic Code Evolution 64-Bit Server VM
Default Encoding: Cp1252
Language: pt
Country: PT
--></g></svg>