<?xml version="1.0" encoding="UTF-8" standalone="no"?><svg xmlns="http://www.w3.org/2000/svg" xmlns:xlink="http://www.w3.org/1999/xlink" contentScriptType="application/ecmascript" contentStyleType="text/css" height="316px" preserveAspectRatio="none" style="width:343px;height:316px;background:#FFFFFF;" version="1.1" viewBox="0 0 343 316" width="343px" zoomAndPan="magnify"><defs><filter height="300%" id="f1w3ld7430w388" width="300%" x="-1" y="-1"><feGaussianBlur result="blurOut" stdDeviation="2.0"/><feColorMatrix in="blurOut" result="blurOut2" type="matrix" values="0 0 0 0 0 0 0 0 0 0 0 0 0 0 0 0 0 0 .4 0"/><feOffset dx="4.0" dy="4.0" in="blurOut2" result="blurOut3"/><feBlend in="SourceGraphic" in2="blurOut3" mode="normal"/></filter></defs><g><rect fill="#FFFFFF" filter="url(#f1w3ld7430w388)" height="122.4063" style="stroke:#A80036;stroke-width:1.0;" width="10" x="77" y="99.6094"/><rect fill="#FFFFFF" filter="url(#f1w3ld7430w388)" height="30.3516" style="stroke:#A80036;stroke-width:1.0;" width="10" x="296" y="121.9609"/><rect fill="#FFFFFF" filter="url(#f1w3ld7430w388)" height="39.3516" style="stroke:#A80036;stroke-width:1.0;" width="10" x="301" y="182.6641"/><rect fill="#FFFFFF" filter="url(#f1w3ld7430w388)" height="39.3516" style="stroke:#A80036;stroke-width:1.0;" width="10" x="301" y="182.6641"/><line style="stroke:#A80036;stroke-width:1.0;stroke-dasharray:5.0,5.0;" x1="82" x2="82" y1="89.6094" y2="231.0156"/><line style="stroke:#A80036;stroke-width:1.0;stroke-dasharray:5.0,5.0;" x1="301" x2="301" y1="89.6094" y2="231.0156"/><text fill="#000000" font-family="sans-serif" font-size="14" lengthAdjust="spacing" textLength="148" x="5" y="86.5332">Laboratory Coordinator</text><ellipse cx="82" cy="15" fill="#FEFECE" filter="url(#f1w3ld7430w388)" rx="8" ry="8" style="stroke:#A80036;stroke-width:2.0;"/><path d="M82,23 L82,50 M69,31 L95,31 M82,50 L69,65 M82,50 L95,65 " fill="none" filter="url(#f1w3ld7430w388)" style="stroke:#A80036;stroke-width:2.0;"/><text fill="#000000" font-family="sans-serif" font-size="14" lengthAdjust="spacing" textLength="148" x="5" y="244.5488">Laboratory Coordinator</text><ellipse cx="82" cy="257.625" fill="#FEFECE" filter="url(#f1w3ld7430w388)" rx="8" ry="8" style="stroke:#A80036;stroke-width:2.0;"/><path d="M82,265.625 L82,292.625 M69,273.625 L95,273.625 M82,292.625 L69,307.625 M82,292.625 L95,307.625 " fill="none" filter="url(#f1w3ld7430w388)" style="stroke:#A80036;stroke-width:2.0;"/><rect fill="#FEFECE" filter="url(#f1w3ld7430w388)" height="31.6094" style="stroke:#A80036;stroke-width:1.5;" width="60" x="269" y="53"/><text fill="#000000" font-family="sans-serif" font-size="14" lengthAdjust="spacing" textLength="46" x="276" y="74.5332">System</text><rect fill="#FEFECE" filter="url(#f1w3ld7430w388)" height="31.6094" style="stroke:#A80036;stroke-width:1.5;" width="60" x="269" y="230.0156"/><text fill="#000000" font-family="sans-serif" font-size="14" lengthAdjust="spacing" textLength="46" x="276" y="251.5488">System</text><rect fill="#FFFFFF" filter="url(#f1w3ld7430w388)" height="122.4063" style="stroke:#A80036;stroke-width:1.0;" width="10" x="77" y="99.6094"/><rect fill="#FFFFFF" filter="url(#f1w3ld7430w388)" height="30.3516" style="stroke:#A80036;stroke-width:1.0;" width="10" x="296" y="121.9609"/><rect fill="#FFFFFF" filter="url(#f1w3ld7430w388)" height="39.3516" style="stroke:#A80036;stroke-width:1.0;" width="10" x="301" y="182.6641"/><rect fill="#FFFFFF" filter="url(#f1w3ld7430w388)" height="39.3516" style="stroke:#A80036;stroke-width:1.0;" width="10" x="301" y="182.6641"/><polygon fill="#A80036" points="284,117.9609,294,121.9609,284,125.9609,288,121.9609" style="stroke:#A80036;stroke-width:1.0;"/><line style="stroke:#A80036;stroke-width:1.0;" x1="87" x2="290" y1="121.9609" y2="121.9609"/><text fill="#000000" font-family="sans-serif" font-size="13" font-weight="bold" lengthAdjust="spacing" textLength="7" x="94" y="117.1045">1</text><text fill="#000000" font-family="sans-serif" font-size="13" lengthAdjust="spacing" textLength="156" x="105" y="117.1045">import tests from a .csv file</text><polygon fill="#A80036" points="98,148.3125,88,152.3125,98,156.3125,94,152.3125" style="stroke:#A80036;stroke-width:1.0;"/><line style="stroke:#A80036;stroke-width:1.0;stroke-dasharray:2.0,2.0;" x1="92" x2="300" y1="152.3125" y2="152.3125"/><text fill="#000000" font-family="sans-serif" font-size="13" font-weight="bold" lengthAdjust="spacing" textLength="7" x="104" y="147.4561">2</text><text fill="#000000" font-family="sans-serif" font-size="13" lengthAdjust="spacing" textLength="99" x="115" y="147.4561">requests file path</text><polygon fill="#A80036" points="289,178.6641,299,182.6641,289,186.6641,293,182.6641" style="stroke:#A80036;stroke-width:1.0;"/><line style="stroke:#A80036;stroke-width:1.0;" x1="87" x2="295" y1="182.6641" y2="182.6641"/><text fill="#000000" font-family="sans-serif" font-size="13" font-weight="bold" lengthAdjust="spacing" textLength="7" x="94" y="177.8076">3</text><text fill="#000000" font-family="sans-serif" font-size="13" lengthAdjust="spacing" textLength="88" x="105" y="177.8076">inserts file path</text><polygon fill="#A80036" points="98,209.0156,88,213.0156,98,217.0156,94,213.0156" style="stroke:#A80036;stroke-width:1.0;"/><line style="stroke:#A80036;stroke-width:1.0;stroke-dasharray:2.0,2.0;" x1="92" x2="300" y1="213.0156" y2="213.0156"/><text fill="#000000" font-family="sans-serif" font-size="13" font-weight="bold" lengthAdjust="spacing" textLength="7" x="104" y="208.1592">4</text><text fill="#000000" font-family="sans-serif" font-size="13" lengthAdjust="spacing" textLength="174" x="115" y="208.1592">display a list of imported tests</text><!--MD5=[a4e1f4eca68400960b7d376f9012daae]
@startuml
autonumber

actor "Laboratory Coordinator" as labC
activate labC

labC -> System ++: import tests from a .csv file
System - -> labC - -: requests file path
labC -> System ++: inserts file path
activate System
System - ->  labC : display a list of imported tests

@enduml

PlantUML version 1.2021.7(Sun May 23 13:40:07 BST 2021)
(GPL source distribution)
Java Runtime: OpenJDK Runtime Environment
JVM: Dynamic Code Evolution 64-Bit Server VM
Default Encoding: Cp1252
Language: pt
Country: PT
--></g></svg>