<?xml version="1.0" encoding="UTF-8" standalone="no"?><svg xmlns="http://www.w3.org/2000/svg" xmlns:xlink="http://www.w3.org/1999/xlink" contentScriptType="application/ecmascript" contentStyleType="text/css" height="528px" preserveAspectRatio="none" style="width:903px;height:528px;background:#FFFFFF;" version="1.1" viewBox="0 0 903 528" width="903px" zoomAndPan="magnify"><defs><filter height="300%" id="f1k5tfgug0j8vl" width="300%" x="-1" y="-1"><feGaussianBlur result="blurOut" stdDeviation="2.0"/><feColorMatrix in="blurOut" result="blurOut2" type="matrix" values="0 0 0 0 0 0 0 0 0 0 0 0 0 0 0 0 0 0 .4 0"/><feOffset dx="4.0" dy="4.0" in="blurOut2" result="blurOut3"/><feBlend in="SourceGraphic" in2="blurOut3" mode="normal"/></filter></defs><g><rect fill="#FFFFFF" filter="url(#f1k5tfgug0j8vl)" height="334.5156" style="stroke:#A80036;stroke-width:1.0;" width="10" x="75" y="99.6094"/><rect fill="#FFFFFF" filter="url(#f1k5tfgug0j8vl)" height="30.3516" style="stroke:#A80036;stroke-width:1.0;" width="10" x="294" y="121.9609"/><rect fill="#FFFFFF" filter="url(#f1k5tfgug0j8vl)" height="242.4609" style="stroke:#A80036;stroke-width:1.0;" width="10" x="294" y="182.6641"/><rect fill="#FFFFFF" filter="url(#f1k5tfgug0j8vl)" height="212.1094" style="stroke:#A80036;stroke-width:1.0;" width="10" x="528" y="213.0156"/><rect fill="#FFFFFF" filter="url(#f1k5tfgug0j8vl)" height="66.3516" style="stroke:#A80036;stroke-width:1.0;" width="10" x="719" y="243.3672"/><rect fill="#FFFFFF" filter="url(#f1k5tfgug0j8vl)" height="28" style="stroke:#A80036;stroke-width:1.0;" width="10" x="724" y="281.7188"/><rect fill="#FFFFFF" filter="url(#f1k5tfgug0j8vl)" height="87.0547" style="stroke:#A80036;stroke-width:1.0;" width="10" x="719" y="347.0703"/><line style="stroke:#A80036;stroke-width:1.0;stroke-dasharray:5.0,5.0;" x1="80" x2="80" y1="89.6094" y2="443.125"/><line style="stroke:#A80036;stroke-width:1.0;stroke-dasharray:5.0,5.0;" x1="298.5" x2="298.5" y1="89.6094" y2="443.125"/><line style="stroke:#A80036;stroke-width:1.0;stroke-dasharray:5.0,5.0;" x1="532.5" x2="532.5" y1="89.6094" y2="443.125"/><line style="stroke:#A80036;stroke-width:1.0;stroke-dasharray:5.0,5.0;" x1="723.5" x2="723.5" y1="89.6094" y2="443.125"/><text fill="#000000" font-family="sans-serif" font-size="14" lengthAdjust="spacing" textLength="144" x="5" y="86.5332">LaboratoryCoordinator</text><ellipse cx="80" cy="15" fill="#FEFECE" filter="url(#f1k5tfgug0j8vl)" rx="8" ry="8" style="stroke:#A80036;stroke-width:2.0;"/><path d="M80,23 L80,50 M67,31 L93,31 M80,50 L67,65 M80,50 L93,65 " fill="none" filter="url(#f1k5tfgug0j8vl)" style="stroke:#A80036;stroke-width:2.0;"/><text fill="#000000" font-family="sans-serif" font-size="14" lengthAdjust="spacing" textLength="144" x="5" y="456.6582">LaboratoryCoordinator</text><ellipse cx="80" cy="469.7344" fill="#FEFECE" filter="url(#f1k5tfgug0j8vl)" rx="8" ry="8" style="stroke:#A80036;stroke-width:2.0;"/><path d="M80,477.7344 L80,504.7344 M67,485.7344 L93,485.7344 M80,504.7344 L67,519.7344 M80,504.7344 L93,519.7344 " fill="none" filter="url(#f1k5tfgug0j8vl)" style="stroke:#A80036;stroke-width:2.0;"/><rect fill="#FEFECE" filter="url(#f1k5tfgug0j8vl)" height="31.6094" style="stroke:#A80036;stroke-width:1.5;" width="97" x="248.5" y="53"/><text fill="#000000" font-family="sans-serif" font-size="14" lengthAdjust="spacing" textLength="83" x="255.5" y="74.5332">:ImportTestUI</text><rect fill="#FEFECE" filter="url(#f1k5tfgug0j8vl)" height="31.6094" style="stroke:#A80036;stroke-width:1.5;" width="97" x="248.5" y="442.125"/><text fill="#000000" font-family="sans-serif" font-size="14" lengthAdjust="spacing" textLength="83" x="255.5" y="463.6582">:ImportTestUI</text><rect fill="#FEFECE" filter="url(#f1k5tfgug0j8vl)" height="31.6094" style="stroke:#A80036;stroke-width:1.5;" width="147" x="457.5" y="53"/><text fill="#000000" font-family="sans-serif" font-size="14" lengthAdjust="spacing" textLength="133" x="464.5" y="74.5332">:ImportTestController</text><rect fill="#FEFECE" filter="url(#f1k5tfgug0j8vl)" height="31.6094" style="stroke:#A80036;stroke-width:1.5;" width="147" x="457.5" y="442.125"/><text fill="#000000" font-family="sans-serif" font-size="14" lengthAdjust="spacing" textLength="133" x="464.5" y="463.6582">:ImportTestController</text><rect fill="#FEFECE" filter="url(#f1k5tfgug0j8vl)" height="31.6094" style="stroke:#A80036;stroke-width:1.5;" width="85" x="679.5" y="53"/><text fill="#000000" font-family="sans-serif" font-size="14" lengthAdjust="spacing" textLength="71" x="686.5" y="74.5332">:ImportTest</text><rect fill="#FEFECE" filter="url(#f1k5tfgug0j8vl)" height="31.6094" style="stroke:#A80036;stroke-width:1.5;" width="85" x="679.5" y="442.125"/><text fill="#000000" font-family="sans-serif" font-size="14" lengthAdjust="spacing" textLength="71" x="686.5" y="463.6582">:ImportTest</text><rect fill="#FFFFFF" filter="url(#f1k5tfgug0j8vl)" height="334.5156" style="stroke:#A80036;stroke-width:1.0;" width="10" x="75" y="99.6094"/><rect fill="#FFFFFF" filter="url(#f1k5tfgug0j8vl)" height="30.3516" style="stroke:#A80036;stroke-width:1.0;" width="10" x="294" y="121.9609"/><rect fill="#FFFFFF" filter="url(#f1k5tfgug0j8vl)" height="242.4609" style="stroke:#A80036;stroke-width:1.0;" width="10" x="294" y="182.6641"/><rect fill="#FFFFFF" filter="url(#f1k5tfgug0j8vl)" height="212.1094" style="stroke:#A80036;stroke-width:1.0;" width="10" x="528" y="213.0156"/><rect fill="#FFFFFF" filter="url(#f1k5tfgug0j8vl)" height="66.3516" style="stroke:#A80036;stroke-width:1.0;" width="10" x="719" y="243.3672"/><rect fill="#FFFFFF" filter="url(#f1k5tfgug0j8vl)" height="28" style="stroke:#A80036;stroke-width:1.0;" width="10" x="724" y="281.7188"/><rect fill="#FFFFFF" filter="url(#f1k5tfgug0j8vl)" height="87.0547" style="stroke:#A80036;stroke-width:1.0;" width="10" x="719" y="347.0703"/><polygon fill="#A80036" points="282,117.9609,292,121.9609,282,125.9609,286,121.9609" style="stroke:#A80036;stroke-width:1.0;"/><line style="stroke:#A80036;stroke-width:1.0;" x1="85" x2="288" y1="121.9609" y2="121.9609"/><text fill="#000000" font-family="sans-serif" font-size="13" font-weight="bold" lengthAdjust="spacing" textLength="7" x="92" y="117.1045">1</text><text fill="#000000" font-family="sans-serif" font-size="13" lengthAdjust="spacing" textLength="160" x="103" y="117.1045">import a test from a .csv file</text><polygon fill="#A80036" points="96,148.3125,86,152.3125,96,156.3125,92,152.3125" style="stroke:#A80036;stroke-width:1.0;"/><line style="stroke:#A80036;stroke-width:1.0;stroke-dasharray:2.0,2.0;" x1="90" x2="298" y1="152.3125" y2="152.3125"/><text fill="#000000" font-family="sans-serif" font-size="13" font-weight="bold" lengthAdjust="spacing" textLength="7" x="102" y="147.4561">2</text><text fill="#000000" font-family="sans-serif" font-size="13" lengthAdjust="spacing" textLength="99" x="113" y="147.4561">requests file path</text><polygon fill="#A80036" points="282,178.6641,292,182.6641,282,186.6641,286,182.6641" style="stroke:#A80036;stroke-width:1.0;"/><line style="stroke:#A80036;stroke-width:1.0;" x1="85" x2="288" y1="182.6641" y2="182.6641"/><text fill="#000000" font-family="sans-serif" font-size="13" font-weight="bold" lengthAdjust="spacing" textLength="7" x="92" y="177.8076">3</text><text fill="#000000" font-family="sans-serif" font-size="13" lengthAdjust="spacing" textLength="88" x="103" y="177.8076">inserts file path</text><polygon fill="#A80036" points="516,209.0156,526,213.0156,516,217.0156,520,213.0156" style="stroke:#A80036;stroke-width:1.0;"/><line style="stroke:#A80036;stroke-width:1.0;" x1="304" x2="522" y1="213.0156" y2="213.0156"/><text fill="#000000" font-family="sans-serif" font-size="13" font-weight="bold" lengthAdjust="spacing" textLength="7" x="311" y="208.1592">4</text><text fill="#000000" font-family="sans-serif" font-size="13" lengthAdjust="spacing" textLength="194" x="322" y="208.1592">lists = importFromFile(pathName)</text><polygon fill="#A80036" points="707,239.3672,717,243.3672,707,247.3672,711,243.3672" style="stroke:#A80036;stroke-width:1.0;"/><line style="stroke:#A80036;stroke-width:1.0;" x1="538" x2="713" y1="243.3672" y2="243.3672"/><text fill="#000000" font-family="sans-serif" font-size="13" font-weight="bold" lengthAdjust="spacing" textLength="7" x="545" y="238.5107">5</text><text fill="#000000" font-family="sans-serif" font-size="13" lengthAdjust="spacing" textLength="106" x="556" y="238.5107">getFile(pathName)</text><line style="stroke:#A80036;stroke-width:1.0;" x1="734" x2="776" y1="273.7188" y2="273.7188"/><line style="stroke:#A80036;stroke-width:1.0;" x1="776" x2="776" y1="273.7188" y2="286.7188"/><line style="stroke:#A80036;stroke-width:1.0;" x1="735" x2="776" y1="286.7188" y2="286.7188"/><polygon fill="#A80036" points="745,282.7188,735,286.7188,745,290.7188,741,286.7188" style="stroke:#A80036;stroke-width:1.0;"/><text fill="#000000" font-family="sans-serif" font-size="13" font-weight="bold" lengthAdjust="spacing" textLength="7" x="741" y="268.8623">6</text><text fill="#000000" font-family="sans-serif" font-size="13" lengthAdjust="spacing" textLength="144" x="752" y="268.8623">importRules = getRules()</text><polygon fill="#A80036" points="707,343.0703,717,347.0703,707,351.0703,711,347.0703" style="stroke:#A80036;stroke-width:1.0;"/><line style="stroke:#A80036;stroke-width:1.0;" x1="538" x2="713" y1="347.0703" y2="347.0703"/><text fill="#000000" font-family="sans-serif" font-size="13" font-weight="bold" lengthAdjust="spacing" textLength="7" x="545" y="342.2139">7</text><text fill="#000000" font-family="sans-serif" font-size="13" lengthAdjust="spacing" textLength="151" x="556" y="342.2139">lists = readListFromCSV()</text><rect fill="#FFFFFF" filter="url(#f1k5tfgug0j8vl)" height="42.7031" style="stroke:#000000;stroke-width:2.0;" width="119" x="676.5" y="355.0703"/><polygon fill="#EEEEEE" points="676.5,355.0703,738.5,355.0703,738.5,363.0703,728.5,373.0703,676.5,373.0703,676.5,355.0703" style="stroke:#000000;stroke-width:2.0;"/><text fill="#000000" font-family="sans-serif" font-size="13" font-weight="bold" lengthAdjust="spacing" textLength="17" x="689.5" y="370.5654">ref</text><text fill="#000000" font-family="sans-serif" font-size="13" lengthAdjust="spacing" textLength="111" x="682.5" y="390.5654">SD_checkIfExists()</text><polygon fill="#A80036" points="96,421.125,86,425.125,96,429.125,92,425.125" style="stroke:#A80036;stroke-width:1.0;"/><line style="stroke:#A80036;stroke-width:1.0;stroke-dasharray:2.0,2.0;" x1="90" x2="298" y1="425.125" y2="425.125"/><text fill="#000000" font-family="sans-serif" font-size="13" font-weight="bold" lengthAdjust="spacing" textLength="7" x="102" y="420.2686">8</text><text fill="#000000" font-family="sans-serif" font-size="13" lengthAdjust="spacing" textLength="174" x="113" y="420.2686">display a list of imported tests</text><!--MD5=[e4c9dff425c092bbdff8e3c7c8106cc6]
@startuml
autonumber

actor "LaboratoryCoordinator" as labC
activate labC

participant ":ImportTestUI" as ImportTestUI
participant ":ImportTestController" as ImportTestController
participant ":ImportTest" as ImportTest



labC -> ImportTestUI : import a test from a .csv file
activate ImportTestUI

ImportTestUI - -> labC : requests file path
deactivate ImportTestUI

labC -> ImportTestUI : inserts file path
activate ImportTestUI


ImportTestUI -> ImportTestController : lists = importFromFile(pathName)
activate ImportTestController


ImportTestController -> ImportTest  : getFile(pathName)
activate ImportTest

ImportTest -> ImportTest ++ : importRules = getRules()
deactivate ImportTest
deactivate ImportTest

ImportTestController -> ImportTest : lists = readListFromCSV()
activate ImportTest


ref over ImportTest : SD_checkIfExists()


ImportTestUI - -> labC : display a list of imported tests
deactivate ImportTestController
deactivate ImportTestUI

@enduml

PlantUML version 1.2021.7(Sun May 23 13:40:07 BST 2021)
(GPL source distribution)
Java Runtime: OpenJDK Runtime Environment
JVM: Dynamic Code Evolution 64-Bit Server VM
Default Encoding: Cp1252
Language: pt
Country: PT
--></g></svg>