<?xml version="1.0" encoding="UTF-8" standalone="no"?><svg xmlns="http://www.w3.org/2000/svg" xmlns:xlink="http://www.w3.org/1999/xlink" contentScriptType="application/ecmascript" contentStyleType="text/css" height="1581.3px" preserveAspectRatio="none" style="width:1593px;height:1581px;background:#FFFFFF;" version="1.1" viewBox="0 0 1593 1581" width="1593.9px" zoomAndPan="magnify"><defs><filter height="300%" id="f1n6atopk2hyvi" width="300%" x="-1" y="-1"><feGaussianBlur result="blurOut" stdDeviation="1.8"/><feColorMatrix in="blurOut" result="blurOut2" type="matrix" values="0 0 0 0 0 0 0 0 0 0 0 0 0 0 0 0 0 0 .4 0"/><feOffset dx="3.6" dy="3.6" in="blurOut2" result="blurOut3"/><feBlend in="SourceGraphic" in2="blurOut3" mode="normal"/></filter></defs><g><!--MD5=[2c2e2644034c00788261e03c85b06837]
cluster Core--><polygon fill="#FFFFFF" filter="url(#f1n6atopk2hyvi)" points="14.4,5.4,50.4,5.4,56.7,26.6484,1578.6,26.6484,1578.6,1463.4,14.4,1463.4,14.4,5.4" style="stroke:#000000;stroke-width:1.35;"/><line style="stroke:#000000;stroke-width:1.35;" x1="14.4" x2="56.7" y1="26.6484" y2="26.6484"/><text fill="#000000" font-family="sans-serif" font-size="12.6" font-weight="bold" lengthAdjust="spacing" textLength="30.6" x="18" y="20.2799">Core</text><!--MD5=[121a8bf1197281ab89ed693fab589f94]
cluster Domain--><polygon fill="#FFFFFF" filter="url(#f1n6atopk2hyvi)" points="36,781.2,88.2,781.2,94.5,802.4484,1275.75,802.4484,1275.75,1441.8,36,1441.8,36,781.2" style="stroke:#000000;stroke-width:1.35;"/><line style="stroke:#000000;stroke-width:1.35;" x1="36" x2="94.5" y1="802.4484" y2="802.4484"/><text fill="#000000" font-family="sans-serif" font-size="12.6" font-weight="bold" lengthAdjust="spacing" textLength="46.8" x="39.6" y="796.0799">Domain</text><!--MD5=[8dd535d56cd4cf7faf64fdd082ba836e]
cluster Stores--><polygon fill="#FFFFFF" filter="url(#f1n6atopk2hyvi)" points="793.8,45,840.6,45,846.9,66.2484,1557,66.2484,1557,759.6,793.8,759.6,793.8,45" style="stroke:#000000;stroke-width:1.35;"/><line style="stroke:#000000;stroke-width:1.35;" x1="793.8" x2="846.9" y1="66.2484" y2="66.2484"/><text fill="#000000" font-family="sans-serif" font-size="12.6" font-weight="bold" lengthAdjust="spacing" textLength="41.4" x="797.4" y="59.8799">Stores</text><!--MD5=[ed1d20ea533a2a0e7df5ba3c35e56ced]
cluster Controllers--><polygon fill="#FFFFFF" filter="url(#f1n6atopk2hyvi)" points="419.85,614.7,496.35,614.7,502.65,635.9484,579.15,635.9484,579.15,729.9,419.85,729.9,419.85,614.7" style="stroke:#000000;stroke-width:1.35;"/><line style="stroke:#000000;stroke-width:1.35;" x1="419.85" x2="502.65" y1="635.9484" y2="635.9484"/><text fill="#000000" font-family="sans-serif" font-size="12.6" font-weight="bold" lengthAdjust="spacing" textLength="71.1" x="423.45" y="629.5799">Controllers</text><!--MD5=[9681dc6e01e10c6b4fe06895ae94f592]
cluster UI--><polygon fill="#FFFFFF" filter="url(#f1n6atopk2hyvi)" points="107.55,1485,125.55,1485,131.85,1506.2484,229.05,1506.2484,229.05,1575,107.55,1575,107.55,1485" style="stroke:#000000;stroke-width:1.35;"/><line style="stroke:#000000;stroke-width:1.35;" x1="107.55" x2="131.85" y1="1506.2484" y2="1506.2484"/><text fill="#000000" font-family="sans-serif" font-size="12.6" font-weight="bold" lengthAdjust="spacing" textLength="12.6" x="111.15" y="1499.8799">UI</text><!--MD5=[378b18254a1b2429f435e93f5e5cc50c]
class C--><rect codeLine="7" fill="#FEFECE" filter="url(#f1n6atopk2hyvi)" height="167.7234" id="C" style="stroke:#A80036;stroke-width:1.35;" width="316.8" x="341.1" y="1101.6"/><ellipse cx="471.825" cy="1116" fill="#ADD1B2" rx="9.9" ry="9.9" style="stroke:#A80036;stroke-width:0.9;"/><path d="M473.625,1112.85 Q473.8078,1112.4 474.0188,1112.175 Q474.2297,1111.95 474.4688,1111.95 Q474.8906,1111.95 475.1578,1112.2031 Q475.425,1112.4563 475.425,1113.0469 L475.425,1114.4531 Q475.425,1115.0438 475.1719,1115.2969 Q474.9188,1115.55 474.525,1115.55 Q474.1734,1115.55 473.9484,1115.3953 Q473.7234,1115.2406 473.625,1114.8328 Q473.5828,1114.5516 473.4281,1114.3969 Q473.1469,1114.1016 472.6406,1113.9328 Q472.1344,1113.75 471.6281,1113.75 Q470.9953,1113.75 470.4609,1114.0031 Q469.9406,1114.2563 469.5328,1114.8188 Q469.125,1115.3813 469.125,1116.1547 L469.125,1116.9844 Q469.125,1117.9125 469.8844,1118.5313 Q470.6438,1119.15 471.9938,1119.15 Q472.7953,1119.15 473.3578,1118.9672 Q473.6813,1118.8688 474.0469,1118.5453 Q474.2859,1118.3625 474.4125,1118.3063 Q474.5391,1118.25 474.6938,1118.25 Q474.9891,1118.25 475.2,1118.4891 Q475.425,1118.7141 475.425,1119.0375 Q475.425,1119.3469 475.1156,1119.7125 Q474.6656,1120.2469 473.9484,1120.5422 Q473.0063,1120.95 471.8531,1120.95 Q470.5031,1120.95 469.4203,1120.4156 Q468.5484,1119.9938 467.9297,1119.0797 Q467.325,1118.1656 467.325,1117.0828 L467.325,1116.0984 Q467.325,1114.9734 467.8594,1113.9891 Q468.4078,1113.0047 469.35,1112.4844 Q470.3063,1111.95 471.375,1111.95 Q472.0219,1111.95 472.5844,1112.175 Q473.1469,1112.4 473.625,1112.85 Z " fill="#000000"/><text fill="#000000" font-family="sans-serif" font-size="10.8" lengthAdjust="spacing" textLength="47.7" x="490.275" y="1120.4191">Company</text><line style="stroke:#A80036;stroke-width:1.35;" x1="342" x2="657" y1="1130.4" y2="1130.4"/><text fill="#000000" font-family="sans-serif" font-size="9.9" lengthAdjust="spacing" textLength="282.6" x="346.5" y="1144.2771">-ClinicalAnalysisLaboratoryStore clinicalAnalysisLaboratoryStore</text><text fill="#000000" font-family="sans-serif" font-size="9.9" lengthAdjust="spacing" textLength="99" x="346.5" y="1156.7294">-ClientStore clientStore</text><text fill="#000000" font-family="sans-serif" font-size="9.9" lengthAdjust="spacing" textLength="108" x="346.5" y="1169.1817">-ReportStore reportStore</text><text fill="#000000" font-family="sans-serif" font-size="9.9" lengthAdjust="spacing" textLength="88.2" x="346.5" y="1181.6341">-TestStore testStore</text><text fill="#000000" font-family="sans-serif" font-size="9.9" lengthAdjust="spacing" textLength="131.4" x="346.5" y="1194.0864">-TestTypeStore testTypeStore</text><text fill="#000000" font-family="sans-serif" font-size="9.9" lengthAdjust="spacing" textLength="220.5" x="346.5" y="1206.5388">-ParameterCategoryStore parameterCategoryStore</text><line style="stroke:#A80036;stroke-width:1.35;" x1="342" x2="657" y1="1212.3141" y2="1212.3141"/><text fill="#000000" font-family="sans-serif" font-size="9.9" lengthAdjust="spacing" textLength="122.4" x="346.5" y="1226.1911">+ClientStore getClientStore()</text><text fill="#000000" font-family="sans-serif" font-size="9.9" lengthAdjust="spacing" textLength="133.2" x="346.5" y="1238.6435">+ReportStore getReportStore()</text><text fill="#000000" font-family="sans-serif" font-size="9.9" lengthAdjust="spacing" textLength="113.4" x="346.5" y="1251.0958">+TestStore getTestStore()</text><text fill="#000000" font-family="sans-serif" font-size="9.9" lengthAdjust="spacing" textLength="306" x="346.5" y="1263.5481">+ClinicalAnalysisLaboratoryStore getClinicalAnalysisLaboratoryStore()</text><!--MD5=[e9fe109f5782f173a88450fbf765a01c]
class pc--><rect codeLine="20" fill="#FEFECE" filter="url(#f1n6atopk2hyvi)" height="68.1047" id="pc" style="stroke:#A80036;stroke-width:1.35;" width="125.1" x="436.95" y="1001.7"/><ellipse cx="450.45" cy="1016.1" fill="#ADD1B2" rx="9.9" ry="9.9" style="stroke:#A80036;stroke-width:0.9;"/><path d="M452.25,1012.95 Q452.4328,1012.5 452.6438,1012.275 Q452.8547,1012.05 453.0938,1012.05 Q453.5156,1012.05 453.7828,1012.3031 Q454.05,1012.5563 454.05,1013.1469 L454.05,1014.5531 Q454.05,1015.1438 453.7969,1015.3969 Q453.5438,1015.65 453.15,1015.65 Q452.7984,1015.65 452.5734,1015.4953 Q452.3484,1015.3406 452.25,1014.9328 Q452.2078,1014.6516 452.0531,1014.4969 Q451.7719,1014.2016 451.2656,1014.0328 Q450.7594,1013.85 450.2531,1013.85 Q449.6203,1013.85 449.0859,1014.1031 Q448.5656,1014.3563 448.1578,1014.9188 Q447.75,1015.4813 447.75,1016.2547 L447.75,1017.0844 Q447.75,1018.0125 448.5094,1018.6313 Q449.2688,1019.25 450.6188,1019.25 Q451.4203,1019.25 451.9828,1019.0672 Q452.3063,1018.9688 452.6719,1018.6453 Q452.9109,1018.4625 453.0375,1018.4063 Q453.1641,1018.35 453.3188,1018.35 Q453.6141,1018.35 453.825,1018.5891 Q454.05,1018.8141 454.05,1019.1375 Q454.05,1019.4469 453.7406,1019.8125 Q453.2906,1020.3469 452.5734,1020.6422 Q451.6313,1021.05 450.4781,1021.05 Q449.1281,1021.05 448.0453,1020.5156 Q447.1734,1020.0938 446.5547,1019.1797 Q445.95,1018.2656 445.95,1017.1828 L445.95,1016.1984 Q445.95,1015.0734 446.4844,1014.0891 Q447.0328,1013.1047 447.975,1012.5844 Q448.9313,1012.05 450,1012.05 Q450.6469,1012.05 451.2094,1012.275 Q451.7719,1012.5 452.25,1012.95 Z " fill="#000000"/><text fill="#000000" font-family="sans-serif" font-size="10.8" lengthAdjust="spacing" textLength="96.3" x="463.05" y="1020.5191">ParameterCategory</text><line style="stroke:#A80036;stroke-width:1.35;" x1="437.85" x2="561.15" y1="1030.5" y2="1030.5"/><text fill="#000000" font-family="sans-serif" font-size="9.9" lengthAdjust="spacing" textLength="54.9" x="442.35" y="1044.3771">-String name</text><text fill="#000000" font-family="sans-serif" font-size="9.9" lengthAdjust="spacing" textLength="53.1" x="442.35" y="1056.8294">-String code</text><line style="stroke:#A80036;stroke-width:1.35;" x1="437.85" x2="561.15" y1="1062.6047" y2="1062.6047"/><!--MD5=[dc31cccc5d8154f89619fe7815ad4ced]
class testType--><rect codeLine="25" fill="#FEFECE" filter="url(#f1n6atopk2hyvi)" height="105.4617" id="testType" style="stroke:#A80036;stroke-width:1.35;" width="235.8" x="50.4" y="814.05"/><ellipse cx="141.975" cy="828.45" fill="#ADD1B2" rx="9.9" ry="9.9" style="stroke:#A80036;stroke-width:0.9;"/><path d="M143.775,825.3 Q143.9578,824.85 144.1688,824.625 Q144.3797,824.4 144.6188,824.4 Q145.0406,824.4 145.3078,824.6531 Q145.575,824.9063 145.575,825.4969 L145.575,826.9031 Q145.575,827.4938 145.3219,827.7469 Q145.0688,828 144.675,828 Q144.3234,828 144.0984,827.8453 Q143.8734,827.6906 143.775,827.2828 Q143.7328,827.0016 143.5781,826.8469 Q143.2969,826.5516 142.7906,826.3828 Q142.2844,826.2 141.7781,826.2 Q141.1453,826.2 140.6109,826.4531 Q140.0906,826.7063 139.6828,827.2688 Q139.275,827.8313 139.275,828.6047 L139.275,829.4344 Q139.275,830.3625 140.0344,830.9813 Q140.7938,831.6 142.1438,831.6 Q142.9453,831.6 143.5078,831.4172 Q143.8313,831.3188 144.1969,830.9953 Q144.4359,830.8125 144.5625,830.7563 Q144.6891,830.7 144.8438,830.7 Q145.1391,830.7 145.35,830.9391 Q145.575,831.1641 145.575,831.4875 Q145.575,831.7969 145.2656,832.1625 Q144.8156,832.6969 144.0984,832.9922 Q143.1563,833.4 142.0031,833.4 Q140.6531,833.4 139.5703,832.8656 Q138.6984,832.4438 138.0797,831.5297 Q137.475,830.6156 137.475,829.5328 L137.475,828.5484 Q137.475,827.4234 138.0094,826.4391 Q138.5578,825.4547 139.5,824.9344 Q140.4563,824.4 141.525,824.4 Q142.1719,824.4 142.7344,824.625 Q143.2969,824.85 143.775,825.3 Z " fill="#000000"/><text fill="#000000" font-family="sans-serif" font-size="10.8" lengthAdjust="spacing" textLength="45" x="160.425" y="832.8691">TestType</text><line style="stroke:#A80036;stroke-width:1.35;" x1="51.3" x2="285.3" y1="842.85" y2="842.85"/><text fill="#000000" font-family="sans-serif" font-size="9.9" lengthAdjust="spacing" textLength="55.8" x="55.8" y="856.7271">-String code;</text><text fill="#000000" font-family="sans-serif" font-size="9.9" lengthAdjust="spacing" textLength="81.9" x="55.8" y="869.1794">-String description;</text><text fill="#000000" font-family="sans-serif" font-size="9.9" lengthAdjust="spacing" textLength="106.2" x="55.8" y="881.6317">-String collectingMethod;</text><text fill="#000000" font-family="sans-serif" font-size="9.9" lengthAdjust="spacing" textLength="225" x="55.8" y="894.0841">-List&lt;ParameterCategory&gt; parameterCategoriesList;</text><text fill="#000000" font-family="sans-serif" font-size="9.9" lengthAdjust="spacing" textLength="140.4" x="55.8" y="906.5364">-ExternalModule externalModule;</text><line style="stroke:#A80036;stroke-width:1.35;" x1="51.3" x2="285.3" y1="912.3117" y2="912.3117"/><!--MD5=[e8076d07cd86036263790c426d6a1b04]
class parameter--><rect codeLine="33" fill="#FEFECE" filter="url(#f1n6atopk2hyvi)" height="93.0094" id="parameter" style="stroke:#A80036;stroke-width:1.35;" width="119.7" x="108.45" y="950.85"/><ellipse cx="139.365" cy="965.25" fill="#ADD1B2" rx="9.9" ry="9.9" style="stroke:#A80036;stroke-width:0.9;"/><path d="M141.165,962.1 Q141.3478,961.65 141.5588,961.425 Q141.7697,961.2 142.0088,961.2 Q142.4306,961.2 142.6978,961.4531 Q142.965,961.7063 142.965,962.2969 L142.965,963.7031 Q142.965,964.2938 142.7119,964.5469 Q142.4588,964.8 142.065,964.8 Q141.7134,964.8 141.4884,964.6453 Q141.2634,964.4906 141.165,964.0828 Q141.1228,963.8016 140.9681,963.6469 Q140.6869,963.3516 140.1806,963.1828 Q139.6744,963 139.1681,963 Q138.5353,963 138.0009,963.2531 Q137.4806,963.5063 137.0728,964.0688 Q136.665,964.6313 136.665,965.4047 L136.665,966.2344 Q136.665,967.1625 137.4244,967.7813 Q138.1838,968.4 139.5338,968.4 Q140.3353,968.4 140.8978,968.2172 Q141.2213,968.1188 141.5869,967.7953 Q141.8259,967.6125 141.9525,967.5563 Q142.0791,967.5 142.2338,967.5 Q142.5291,967.5 142.74,967.7391 Q142.965,967.9641 142.965,968.2875 Q142.965,968.5969 142.6556,968.9625 Q142.2056,969.4969 141.4884,969.7922 Q140.5463,970.2 139.3931,970.2 Q138.0431,970.2 136.9603,969.6656 Q136.0884,969.2438 135.4697,968.3297 Q134.865,967.4156 134.865,966.3328 L134.865,965.3484 Q134.865,964.2234 135.3994,963.2391 Q135.9478,962.2547 136.89,961.7344 Q137.8463,961.2 138.915,961.2 Q139.5619,961.2 140.1244,961.425 Q140.6869,961.65 141.165,962.1 Z " fill="#000000"/><text fill="#000000" font-family="sans-serif" font-size="10.8" lengthAdjust="spacing" textLength="52.2" x="155.835" y="969.6691">Parameter</text><line style="stroke:#A80036;stroke-width:1.35;" x1="109.35" x2="227.25" y1="979.65" y2="979.65"/><text fill="#000000" font-family="sans-serif" font-size="9.9" lengthAdjust="spacing" textLength="55.8" x="113.85" y="993.5271">-String code;</text><text fill="#000000" font-family="sans-serif" font-size="9.9" lengthAdjust="spacing" textLength="79.2" x="113.85" y="1005.9794">-String description</text><text fill="#000000" font-family="sans-serif" font-size="9.9" lengthAdjust="spacing" textLength="81" x="113.85" y="1018.4317">-String designation</text><text fill="#000000" font-family="sans-serif" font-size="9.9" lengthAdjust="spacing" textLength="108.9" x="113.85" y="1030.8841">-ParameterCategory pcat</text><line style="stroke:#A80036;stroke-width:1.35;" x1="109.35" x2="227.25" y1="1036.6594" y2="1036.6594"/><!--MD5=[ed6624c6556d5e7b1bd23032162d20b7]
class Client--><rect codeLine="40" fill="#FEFECE" filter="url(#f1n6atopk2hyvi)" height="155.2711" id="Client" style="stroke:#A80036;stroke-width:1.35;" width="74.7" x="462.15" y="814.05"/><ellipse cx="483.345" cy="828.45" fill="#ADD1B2" rx="9.9" ry="9.9" style="stroke:#A80036;stroke-width:0.9;"/><path d="M485.145,825.3 Q485.3278,824.85 485.5388,824.625 Q485.7497,824.4 485.9888,824.4 Q486.4106,824.4 486.6778,824.6531 Q486.945,824.9063 486.945,825.4969 L486.945,826.9031 Q486.945,827.4938 486.6919,827.7469 Q486.4387,828 486.045,828 Q485.6934,828 485.4684,827.8453 Q485.2434,827.6906 485.145,827.2828 Q485.1028,827.0016 484.9481,826.8469 Q484.6669,826.5516 484.1606,826.3828 Q483.6544,826.2 483.1481,826.2 Q482.5153,826.2 481.9809,826.4531 Q481.4606,826.7063 481.0528,827.2688 Q480.645,827.8313 480.645,828.6047 L480.645,829.4344 Q480.645,830.3625 481.4044,830.9813 Q482.1638,831.6 483.5137,831.6 Q484.3153,831.6 484.8778,831.4172 Q485.2012,831.3188 485.5669,830.9953 Q485.8059,830.8125 485.9325,830.7563 Q486.0591,830.7 486.2137,830.7 Q486.5091,830.7 486.72,830.9391 Q486.945,831.1641 486.945,831.4875 Q486.945,831.7969 486.6356,832.1625 Q486.1856,832.6969 485.4684,832.9922 Q484.5262,833.4 483.3731,833.4 Q482.0231,833.4 480.9403,832.8656 Q480.0684,832.4438 479.4497,831.5297 Q478.845,830.6156 478.845,829.5328 L478.845,828.5484 Q478.845,827.4234 479.3794,826.4391 Q479.9278,825.4547 480.87,824.9344 Q481.8262,824.4 482.895,824.4 Q483.5419,824.4 484.1044,824.625 Q484.6669,824.85 485.145,825.3 Z " fill="#000000"/><text fill="#000000" font-family="sans-serif" font-size="10.8" lengthAdjust="spacing" textLength="28.8" x="497.655" y="832.8691">Client</text><line style="stroke:#A80036;stroke-width:1.35;" x1="463.05" x2="535.95" y1="842.85" y2="842.85"/><text fill="#000000" font-family="sans-serif" font-size="9.9" lengthAdjust="spacing" textLength="39.6" x="467.55" y="856.7271">-citizenID</text><text fill="#000000" font-family="sans-serif" font-size="9.9" lengthAdjust="spacing" textLength="27.9" x="467.55" y="869.1794">-nhsID</text><text fill="#000000" font-family="sans-serif" font-size="9.9" lengthAdjust="spacing" textLength="42.3" x="467.55" y="881.6317">-birthDate</text><text fill="#000000" font-family="sans-serif" font-size="9.9" lengthAdjust="spacing" textLength="19.8" x="467.55" y="894.0841">-sex</text><text fill="#000000" font-family="sans-serif" font-size="9.9" lengthAdjust="spacing" textLength="17.1" x="467.55" y="906.5364">-TIN</text><text fill="#000000" font-family="sans-serif" font-size="9.9" lengthAdjust="spacing" textLength="63.9" x="467.55" y="918.9888">-phoneNumber</text><text fill="#000000" font-family="sans-serif" font-size="9.9" lengthAdjust="spacing" textLength="25.2" x="467.55" y="931.4411">-email</text><text fill="#000000" font-family="sans-serif" font-size="9.9" lengthAdjust="spacing" textLength="27" x="467.55" y="943.8935">-name</text><text fill="#000000" font-family="sans-serif" font-size="9.9" lengthAdjust="spacing" textLength="39.6" x="467.55" y="956.3458">-address</text><line style="stroke:#A80036;stroke-width:1.35;" x1="463.05" x2="535.95" y1="962.1211" y2="962.1211"/><!--MD5=[56e4c9075fa7c9f4c09ef0a20c49f72c]
class T--><rect codeLine="52" fill="#FEFECE" filter="url(#f1n6atopk2hyvi)" height="142.8188" id="T" style="stroke:#A80036;stroke-width:1.35;" width="171.9" x="1089.45" y="1200.15"/><ellipse cx="1160.775" cy="1214.55" fill="#ADD1B2" rx="9.9" ry="9.9" style="stroke:#A80036;stroke-width:0.9;"/><path d="M1162.575,1211.4 Q1162.7578,1210.95 1162.9688,1210.725 Q1163.1797,1210.5 1163.4188,1210.5 Q1163.8406,1210.5 1164.1078,1210.7531 Q1164.375,1211.0063 1164.375,1211.5969 L1164.375,1213.0031 Q1164.375,1213.5938 1164.1219,1213.8469 Q1163.8688,1214.1 1163.475,1214.1 Q1163.1234,1214.1 1162.8984,1213.9453 Q1162.6734,1213.7906 1162.575,1213.3828 Q1162.5328,1213.1016 1162.3781,1212.9469 Q1162.0969,1212.6516 1161.5906,1212.4828 Q1161.0844,1212.3 1160.5781,1212.3 Q1159.9453,1212.3 1159.4109,1212.5531 Q1158.8906,1212.8063 1158.4828,1213.3688 Q1158.075,1213.9313 1158.075,1214.7047 L1158.075,1215.5344 Q1158.075,1216.4625 1158.8344,1217.0813 Q1159.5938,1217.7 1160.9438,1217.7 Q1161.7453,1217.7 1162.3078,1217.5172 Q1162.6313,1217.4188 1162.9969,1217.0953 Q1163.2359,1216.9125 1163.3625,1216.8563 Q1163.4891,1216.8 1163.6438,1216.8 Q1163.9391,1216.8 1164.15,1217.0391 Q1164.375,1217.2641 1164.375,1217.5875 Q1164.375,1217.8969 1164.0656,1218.2625 Q1163.6156,1218.7969 1162.8984,1219.0922 Q1161.9563,1219.5 1160.8031,1219.5 Q1159.4531,1219.5 1158.3703,1218.9656 Q1157.4984,1218.5438 1156.8797,1217.6297 Q1156.275,1216.7156 1156.275,1215.6328 L1156.275,1214.6484 Q1156.275,1213.5234 1156.8094,1212.5391 Q1157.3578,1211.5547 1158.3,1211.0344 Q1159.2563,1210.5 1160.325,1210.5 Q1160.9719,1210.5 1161.5344,1210.725 Q1162.0969,1210.95 1162.575,1211.4 Z " fill="#000000"/><text fill="#000000" font-family="sans-serif" font-size="10.8" lengthAdjust="spacing" textLength="21.6" x="1179.225" y="1218.9691">Test</text><line style="stroke:#A80036;stroke-width:1.35;" x1="1090.35" x2="1260.45" y1="1228.95" y2="1228.95"/><text fill="#000000" font-family="sans-serif" font-size="9.9" lengthAdjust="spacing" textLength="114.3" x="1094.85" y="1242.8271">-Date registrationDateTime</text><text fill="#000000" font-family="sans-serif" font-size="9.9" lengthAdjust="spacing" textLength="93.6" x="1094.85" y="1255.2794">-Date collectDateTime</text><text fill="#000000" font-family="sans-serif" font-size="9.9" lengthAdjust="spacing" textLength="141.3" x="1094.85" y="1267.7317">-Date chemicalAnalysisDateTime</text><text fill="#000000" font-family="sans-serif" font-size="9.9" lengthAdjust="spacing" textLength="107.1" x="1094.85" y="1280.1841">-Date diagnosisDateTime</text><text fill="#000000" font-family="sans-serif" font-size="9.9" lengthAdjust="spacing" textLength="106.2" x="1094.85" y="1292.6364">-Date validationDateTime</text><line style="stroke:#A80036;stroke-width:1.35;" x1="1090.35" x2="1260.45" y1="1298.4117" y2="1298.4117"/><text fill="#000000" font-family="sans-serif" font-size="9.9" lengthAdjust="spacing" textLength="81.9" x="1094.85" y="1312.2888">+String getStatus()</text><text fill="#000000" font-family="sans-serif" font-size="9.9" lengthAdjust="spacing" textLength="161.1" x="1094.85" y="1324.7411">+boolean updateValidationDateTime()</text><text fill="#000000" font-family="sans-serif" font-size="9.9" lengthAdjust="spacing" textLength="89.1" x="1094.85" y="1337.1935">+updateTestStatus()</text><!--MD5=[c75e629d71444dd998043aef5ce1a035]
class R--><rect codeLine="63" fill="#FEFECE" filter="url(#f1n6atopk2hyvi)" height="93.0094" id="R" style="stroke:#A80036;stroke-width:1.35;" width="116.1" x="441.45" y="1300.95"/><ellipse cx="479.25" cy="1315.35" fill="#ADD1B2" rx="9.9" ry="9.9" style="stroke:#A80036;stroke-width:0.9;"/><path d="M481.05,1312.2 Q481.2328,1311.75 481.4438,1311.525 Q481.6547,1311.3 481.8938,1311.3 Q482.3156,1311.3 482.5828,1311.5531 Q482.85,1311.8063 482.85,1312.3969 L482.85,1313.8031 Q482.85,1314.3938 482.5969,1314.6469 Q482.3438,1314.9 481.95,1314.9 Q481.5984,1314.9 481.3734,1314.7453 Q481.1484,1314.5906 481.05,1314.1828 Q481.0078,1313.9016 480.8531,1313.7469 Q480.5719,1313.4516 480.0656,1313.2828 Q479.5594,1313.1 479.0531,1313.1 Q478.4203,1313.1 477.8859,1313.3531 Q477.3656,1313.6063 476.9578,1314.1688 Q476.55,1314.7313 476.55,1315.5047 L476.55,1316.3344 Q476.55,1317.2625 477.3094,1317.8813 Q478.0688,1318.5 479.4188,1318.5 Q480.2203,1318.5 480.7828,1318.3172 Q481.1063,1318.2188 481.4719,1317.8953 Q481.7109,1317.7125 481.8375,1317.6563 Q481.9641,1317.6 482.1188,1317.6 Q482.4141,1317.6 482.625,1317.8391 Q482.85,1318.0641 482.85,1318.3875 Q482.85,1318.6969 482.5406,1319.0625 Q482.0906,1319.5969 481.3734,1319.8922 Q480.4313,1320.3 479.2781,1320.3 Q477.9281,1320.3 476.8453,1319.7656 Q475.9734,1319.3438 475.3547,1318.4297 Q474.75,1317.5156 474.75,1316.4328 L474.75,1315.4484 Q474.75,1314.3234 475.2844,1313.3391 Q475.8328,1312.3547 476.775,1311.8344 Q477.7313,1311.3 478.8,1311.3 Q479.4469,1311.3 480.0094,1311.525 Q480.5719,1311.75 481.05,1312.2 Z " fill="#000000"/><text fill="#000000" font-family="sans-serif" font-size="10.8" lengthAdjust="spacing" textLength="33.3" x="497.25" y="1319.7691">Report</text><line style="stroke:#A80036;stroke-width:1.35;" x1="442.35" x2="556.65" y1="1329.75" y2="1329.75"/><text fill="#000000" font-family="sans-serif" font-size="9.9" lengthAdjust="spacing" textLength="81" x="446.85" y="1343.6271">-boolean validation</text><text fill="#000000" font-family="sans-serif" font-size="9.9" lengthAdjust="spacing" textLength="70.2" x="446.85" y="1356.0794">-String testCode</text><line style="stroke:#A80036;stroke-width:1.35;" x1="442.35" x2="556.65" y1="1361.8547" y2="1361.8547"/><text fill="#000000" font-family="sans-serif" font-size="9.9" lengthAdjust="spacing" textLength="105.3" x="446.85" y="1375.7317">+boolean getValidation()</text><text fill="#000000" font-family="sans-serif" font-size="9.9" lengthAdjust="spacing" textLength="68.4" x="446.85" y="1388.1841">+setValidation()</text><!--MD5=[aef7e48b428428a76737e665f763bca7]
class importTest--><rect codeLine="70" fill="#FEFECE" filter="url(#f1n6atopk2hyvi)" height="105.4617" id="importTest" style="stroke:#A80036;stroke-width:1.35;" width="159.3" x="88.65" y="1075.05"/><ellipse cx="137.925" cy="1089.45" fill="#ADD1B2" rx="9.9" ry="9.9" style="stroke:#A80036;stroke-width:0.9;"/><path d="M139.725,1086.3 Q139.9078,1085.85 140.1188,1085.625 Q140.3297,1085.4 140.5688,1085.4 Q140.9906,1085.4 141.2578,1085.6531 Q141.525,1085.9063 141.525,1086.4969 L141.525,1087.9031 Q141.525,1088.4938 141.2719,1088.7469 Q141.0188,1089 140.625,1089 Q140.2734,1089 140.0484,1088.8453 Q139.8234,1088.6906 139.725,1088.2828 Q139.6828,1088.0016 139.5281,1087.8469 Q139.2469,1087.5516 138.7406,1087.3828 Q138.2344,1087.2 137.7281,1087.2 Q137.0953,1087.2 136.5609,1087.4531 Q136.0406,1087.7063 135.6328,1088.2688 Q135.225,1088.8313 135.225,1089.6047 L135.225,1090.4344 Q135.225,1091.3625 135.9844,1091.9813 Q136.7438,1092.6 138.0938,1092.6 Q138.8953,1092.6 139.4578,1092.4172 Q139.7813,1092.3188 140.1469,1091.9953 Q140.3859,1091.8125 140.5125,1091.7563 Q140.6391,1091.7 140.7938,1091.7 Q141.0891,1091.7 141.3,1091.9391 Q141.525,1092.1641 141.525,1092.4875 Q141.525,1092.7969 141.2156,1093.1625 Q140.7656,1093.6969 140.0484,1093.9922 Q139.1063,1094.4 137.9531,1094.4 Q136.6031,1094.4 135.5203,1093.8656 Q134.6484,1093.4438 134.0297,1092.5297 Q133.425,1091.6156 133.425,1090.5328 L133.425,1089.5484 Q133.425,1088.4234 133.9594,1087.4391 Q134.5078,1086.4547 135.45,1085.9344 Q136.4063,1085.4 137.475,1085.4 Q138.1219,1085.4 138.6844,1085.625 Q139.2469,1085.85 139.725,1086.3 Z " fill="#000000"/><text fill="#000000" font-family="sans-serif" font-size="10.8" lengthAdjust="spacing" textLength="53.1" x="156.375" y="1093.8691">ImportTest</text><line style="stroke:#A80036;stroke-width:1.35;" x1="89.55" x2="247.05" y1="1103.85" y2="1103.85"/><text fill="#000000" font-family="sans-serif" font-size="9.9" lengthAdjust="spacing" textLength="86.4" x="94.05" y="1117.7271">-Company company</text><text fill="#000000" font-family="sans-serif" font-size="9.9" lengthAdjust="spacing" textLength="73.8" x="94.05" y="1130.1794">-File ficheiroInput</text><text fill="#000000" font-family="sans-serif" font-size="9.9" lengthAdjust="spacing" textLength="148.5" x="94.05" y="1142.6317">-BufferedReader bufferedReader;</text><text fill="#000000" font-family="sans-serif" font-size="9.9" lengthAdjust="spacing" textLength="74.7" x="94.05" y="1155.0841">-String[] firstLine;</text><text fill="#000000" font-family="sans-serif" font-size="9.9" lengthAdjust="spacing" textLength="74.7" x="94.05" y="1167.5364">-int[] importRules;</text><line style="stroke:#A80036;stroke-width:1.35;" x1="89.55" x2="247.05" y1="1173.3117" y2="1173.3117"/><!--MD5=[55cb992be19579b505cea3c5691093cb]
class ClientStore--><rect codeLine="82" fill="#FEFECE" filter="url(#f1n6atopk2hyvi)" height="68.1047" id="ClientStore" style="stroke:#A80036;stroke-width:1.35;" width="141.3" x="1104.75" y="177.3"/><ellipse cx="1144.17" cy="191.7" fill="#ADD1B2" rx="9.9" ry="9.9" style="stroke:#A80036;stroke-width:0.9;"/><path d="M1145.97,188.55 Q1146.1528,188.1 1146.3638,187.875 Q1146.5747,187.65 1146.8138,187.65 Q1147.2356,187.65 1147.5028,187.9031 Q1147.77,188.1563 1147.77,188.7469 L1147.77,190.1531 Q1147.77,190.7438 1147.5169,190.9969 Q1147.2638,191.25 1146.87,191.25 Q1146.5184,191.25 1146.2934,191.0953 Q1146.0684,190.9406 1145.97,190.5328 Q1145.9278,190.2516 1145.7731,190.0969 Q1145.4919,189.8016 1144.9856,189.6328 Q1144.4794,189.45 1143.9731,189.45 Q1143.3403,189.45 1142.8059,189.7031 Q1142.2856,189.9563 1141.8778,190.5188 Q1141.47,191.0813 1141.47,191.8547 L1141.47,192.6844 Q1141.47,193.6125 1142.2294,194.2313 Q1142.9888,194.85 1144.3388,194.85 Q1145.1403,194.85 1145.7028,194.6672 Q1146.0263,194.5688 1146.3919,194.2453 Q1146.6309,194.0625 1146.7575,194.0063 Q1146.8841,193.95 1147.0388,193.95 Q1147.3341,193.95 1147.545,194.1891 Q1147.77,194.4141 1147.77,194.7375 Q1147.77,195.0469 1147.4606,195.4125 Q1147.0106,195.9469 1146.2934,196.2422 Q1145.3513,196.65 1144.1981,196.65 Q1142.8481,196.65 1141.7653,196.1156 Q1140.8934,195.6938 1140.2747,194.7797 Q1139.67,193.8656 1139.67,192.7828 L1139.67,191.7984 Q1139.67,190.6734 1140.2044,189.6891 Q1140.7528,188.7047 1141.695,188.1844 Q1142.6513,187.65 1143.72,187.65 Q1144.3669,187.65 1144.9294,187.875 Q1145.4919,188.1 1145.97,188.55 Z " fill="#000000"/><text fill="#000000" font-family="sans-serif" font-size="10.8" lengthAdjust="spacing" textLength="54.9" x="1162.53" y="196.1191">ClientStore</text><line style="stroke:#A80036;stroke-width:1.35;" x1="1105.65" x2="1245.15" y1="206.1" y2="206.1"/><text fill="#000000" font-family="sans-serif" font-size="9.9" lengthAdjust="spacing" textLength="90.9" x="1110.15" y="219.9771">List&lt;Client&gt; ClientList</text><line style="stroke:#A80036;stroke-width:1.35;" x1="1105.65" x2="1245.15" y1="225.7523" y2="225.7523"/><text fill="#000000" font-family="sans-serif" font-size="9.9" lengthAdjust="spacing" textLength="130.5" x="1110.15" y="239.6294">+boolean saveClient (Client cl)</text><!--MD5=[d622d4883bb558318e0c237439b7549e]
class CALStore--><rect codeLine="87" fill="#FEFECE" filter="url(#f1n6atopk2hyvi)" height="68.1047" id="CALStore" style="stroke:#A80036;stroke-width:1.35;" width="310.5" x="1020.15" y="377.1"/><ellipse cx="1093.275" cy="391.5" fill="#ADD1B2" rx="9.9" ry="9.9" style="stroke:#A80036;stroke-width:0.9;"/><path d="M1095.075,388.35 Q1095.2578,387.9 1095.4688,387.675 Q1095.6797,387.45 1095.9188,387.45 Q1096.3406,387.45 1096.6078,387.7031 Q1096.875,387.9563 1096.875,388.5469 L1096.875,389.9531 Q1096.875,390.5438 1096.6219,390.7969 Q1096.3688,391.05 1095.975,391.05 Q1095.6234,391.05 1095.3984,390.8953 Q1095.1734,390.7406 1095.075,390.3328 Q1095.0328,390.0516 1094.8781,389.8969 Q1094.5969,389.6016 1094.0906,389.4328 Q1093.5844,389.25 1093.0781,389.25 Q1092.4453,389.25 1091.9109,389.5031 Q1091.3906,389.7563 1090.9828,390.3188 Q1090.575,390.8813 1090.575,391.6547 L1090.575,392.4844 Q1090.575,393.4125 1091.3344,394.0313 Q1092.0938,394.65 1093.4438,394.65 Q1094.2453,394.65 1094.8078,394.4672 Q1095.1313,394.3688 1095.4969,394.0453 Q1095.7359,393.8625 1095.8625,393.8063 Q1095.9891,393.75 1096.1438,393.75 Q1096.4391,393.75 1096.65,393.9891 Q1096.875,394.2141 1096.875,394.5375 Q1096.875,394.8469 1096.5656,395.2125 Q1096.1156,395.7469 1095.3984,396.0422 Q1094.4563,396.45 1093.3031,396.45 Q1091.9531,396.45 1090.8703,395.9156 Q1089.9984,395.4938 1089.3797,394.5797 Q1088.775,393.6656 1088.775,392.5828 L1088.775,391.5984 Q1088.775,390.4734 1089.3094,389.4891 Q1089.8578,388.5047 1090.8,387.9844 Q1091.7563,387.45 1092.825,387.45 Q1093.4719,387.45 1094.0344,387.675 Q1094.5969,387.9 1095.075,388.35 Z " fill="#000000"/><text fill="#000000" font-family="sans-serif" font-size="10.8" lengthAdjust="spacing" textLength="156.6" x="1111.725" y="395.9191">ClinicalAnalysisLaboratoryStore</text><line style="stroke:#A80036;stroke-width:1.35;" x1="1021.05" x2="1329.75" y1="405.9" y2="405.9"/><text fill="#000000" font-family="sans-serif" font-size="9.9" lengthAdjust="spacing" textLength="278.1" x="1025.55" y="419.7771">-List&lt;ClinicalAnalysisLaboratory&gt; ClinicalAnalysisLaboratoryList</text><line style="stroke:#A80036;stroke-width:1.35;" x1="1021.05" x2="1329.75" y1="425.5523" y2="425.5523"/><text fill="#000000" font-family="sans-serif" font-size="9.9" lengthAdjust="spacing" textLength="299.7" x="1025.55" y="439.4294">+ClinicalAnalysisLaboratory getClinicalAnalysisLaboratoryByID(labID)</text><!--MD5=[18d141b40fbf16fadb6b70354c3b0c8e]
class pcStore--><rect codeLine="92" fill="#FEFECE" filter="url(#f1n6atopk2hyvi)" height="68.1047" id="pcStore" style="stroke:#A80036;stroke-width:1.35;" width="225.9" x="1062.45" y="277.2"/><ellipse cx="1110.375" cy="291.6" fill="#ADD1B2" rx="9.9" ry="9.9" style="stroke:#A80036;stroke-width:0.9;"/><path d="M1112.175,288.45 Q1112.3578,288 1112.5688,287.775 Q1112.7797,287.55 1113.0188,287.55 Q1113.4406,287.55 1113.7078,287.8031 Q1113.975,288.0563 1113.975,288.6469 L1113.975,290.0531 Q1113.975,290.6438 1113.7219,290.8969 Q1113.4688,291.15 1113.075,291.15 Q1112.7234,291.15 1112.4984,290.9953 Q1112.2734,290.8406 1112.175,290.4328 Q1112.1328,290.1516 1111.9781,289.9969 Q1111.6969,289.7016 1111.1906,289.5328 Q1110.6844,289.35 1110.1781,289.35 Q1109.5453,289.35 1109.0109,289.6031 Q1108.4906,289.8563 1108.0828,290.4188 Q1107.675,290.9813 1107.675,291.7547 L1107.675,292.5844 Q1107.675,293.5125 1108.4344,294.1313 Q1109.1938,294.75 1110.5438,294.75 Q1111.3453,294.75 1111.9078,294.5672 Q1112.2313,294.4688 1112.5969,294.1453 Q1112.8359,293.9625 1112.9625,293.9063 Q1113.0891,293.85 1113.2438,293.85 Q1113.5391,293.85 1113.75,294.0891 Q1113.975,294.3141 1113.975,294.6375 Q1113.975,294.9469 1113.6656,295.3125 Q1113.2156,295.8469 1112.4984,296.1422 Q1111.5563,296.55 1110.4031,296.55 Q1109.0531,296.55 1107.9703,296.0156 Q1107.0984,295.5938 1106.4797,294.6797 Q1105.875,293.7656 1105.875,292.6828 L1105.875,291.6984 Q1105.875,290.5734 1106.4094,289.5891 Q1106.9578,288.6047 1107.9,288.0844 Q1108.8563,287.55 1109.925,287.55 Q1110.5719,287.55 1111.1344,287.775 Q1111.6969,288 1112.175,288.45 Z " fill="#000000"/><text fill="#000000" font-family="sans-serif" font-size="10.8" lengthAdjust="spacing" textLength="122.4" x="1128.825" y="296.0191">ParameterCategoryStore</text><line style="stroke:#A80036;stroke-width:1.35;" x1="1063.35" x2="1287.45" y1="306" y2="306"/><text fill="#000000" font-family="sans-serif" font-size="9.9" lengthAdjust="spacing" textLength="215.1" x="1067.85" y="319.8771">-List&lt;ParameterCategory&gt; parameterCategoryList</text><line style="stroke:#A80036;stroke-width:1.35;" x1="1063.35" x2="1287.45" y1="325.6523" y2="325.6523"/><text fill="#000000" font-family="sans-serif" font-size="9.9" lengthAdjust="spacing" textLength="197.1" x="1067.85" y="339.5294">+getParameterCategoryByName(String name)</text><!--MD5=[dc15d8d3bfec8191897841f3fd828210]
class parameterStore--><rect codeLine="97" fill="#FEFECE" filter="url(#f1n6atopk2hyvi)" height="68.1047" id="parameterStore" style="stroke:#A80036;stroke-width:1.35;" width="211.5" x="1069.65" y="77.4"/><ellipse cx="1132.425" cy="91.8" fill="#ADD1B2" rx="9.9" ry="9.9" style="stroke:#A80036;stroke-width:0.9;"/><path d="M1134.225,88.65 Q1134.4078,88.2 1134.6188,87.975 Q1134.8297,87.75 1135.0688,87.75 Q1135.4906,87.75 1135.7578,88.0031 Q1136.025,88.2563 1136.025,88.8469 L1136.025,90.2531 Q1136.025,90.8438 1135.7719,91.0969 Q1135.5188,91.35 1135.125,91.35 Q1134.7734,91.35 1134.5484,91.1953 Q1134.3234,91.0406 1134.225,90.6328 Q1134.1828,90.3516 1134.0281,90.1969 Q1133.7469,89.9016 1133.2406,89.7328 Q1132.7344,89.55 1132.2281,89.55 Q1131.5953,89.55 1131.0609,89.8031 Q1130.5406,90.0563 1130.1328,90.6188 Q1129.725,91.1813 1129.725,91.9547 L1129.725,92.7844 Q1129.725,93.7125 1130.4844,94.3313 Q1131.2438,94.95 1132.5938,94.95 Q1133.3953,94.95 1133.9578,94.7672 Q1134.2813,94.6688 1134.6469,94.3453 Q1134.8859,94.1625 1135.0125,94.1063 Q1135.1391,94.05 1135.2938,94.05 Q1135.5891,94.05 1135.8,94.2891 Q1136.025,94.5141 1136.025,94.8375 Q1136.025,95.1469 1135.7156,95.5125 Q1135.2656,96.0469 1134.5484,96.3422 Q1133.6063,96.75 1132.4531,96.75 Q1131.1031,96.75 1130.0203,96.2156 Q1129.1484,95.7938 1128.5297,94.8797 Q1127.925,93.9656 1127.925,92.8828 L1127.925,91.8984 Q1127.925,90.7734 1128.4594,89.7891 Q1129.0078,88.8047 1129.95,88.2844 Q1130.9063,87.75 1131.975,87.75 Q1132.6219,87.75 1133.1844,87.975 Q1133.7469,88.2 1134.225,88.65 Z " fill="#000000"/><text fill="#000000" font-family="sans-serif" font-size="10.8" lengthAdjust="spacing" textLength="78.3" x="1150.875" y="96.2191">ParameterStore</text><line style="stroke:#A80036;stroke-width:1.35;" x1="1070.55" x2="1280.25" y1="106.2" y2="106.2"/><text fill="#000000" font-family="sans-serif" font-size="9.9" lengthAdjust="spacing" textLength="159.3" x="1075.05" y="120.0771">-List&lt;Parameter&gt; parameterStoreList</text><line style="stroke:#A80036;stroke-width:1.35;" x1="1070.55" x2="1280.25" y1="125.8523" y2="125.8523"/><text fill="#000000" font-family="sans-serif" font-size="9.9" lengthAdjust="spacing" textLength="200.7" x="1075.05" y="139.7294">+Parameter getParameterByCode(String code)</text><!--MD5=[5d34c01a8296ea2c0dac42f422676877]
class RS--><rect codeLine="102" fill="#FEFECE" filter="url(#f1n6atopk2hyvi)" height="68.1047" id="RS" style="stroke:#A80036;stroke-width:1.35;" width="189" x="1080.9" y="676.8"/><ellipse cx="1141.875" cy="691.2" fill="#ADD1B2" rx="9.9" ry="9.9" style="stroke:#A80036;stroke-width:0.9;"/><path d="M1143.675,688.05 Q1143.8578,687.6 1144.0688,687.375 Q1144.2797,687.15 1144.5188,687.15 Q1144.9406,687.15 1145.2078,687.4031 Q1145.475,687.6563 1145.475,688.2469 L1145.475,689.6531 Q1145.475,690.2438 1145.2219,690.4969 Q1144.9688,690.75 1144.575,690.75 Q1144.2234,690.75 1143.9984,690.5953 Q1143.7734,690.4406 1143.675,690.0328 Q1143.6328,689.7516 1143.4781,689.5969 Q1143.1969,689.3016 1142.6906,689.1328 Q1142.1844,688.95 1141.6781,688.95 Q1141.0453,688.95 1140.5109,689.2031 Q1139.9906,689.4563 1139.5828,690.0188 Q1139.175,690.5813 1139.175,691.3547 L1139.175,692.1844 Q1139.175,693.1125 1139.9344,693.7313 Q1140.6938,694.35 1142.0438,694.35 Q1142.8453,694.35 1143.4078,694.1672 Q1143.7313,694.0688 1144.0969,693.7453 Q1144.3359,693.5625 1144.4625,693.5063 Q1144.5891,693.45 1144.7438,693.45 Q1145.0391,693.45 1145.25,693.6891 Q1145.475,693.9141 1145.475,694.2375 Q1145.475,694.5469 1145.1656,694.9125 Q1144.7156,695.4469 1143.9984,695.7422 Q1143.0563,696.15 1141.9031,696.15 Q1140.5531,696.15 1139.4703,695.6156 Q1138.5984,695.1938 1137.9797,694.2797 Q1137.375,693.3656 1137.375,692.2828 L1137.375,691.2984 Q1137.375,690.1734 1137.9094,689.1891 Q1138.4578,688.2047 1139.4,687.6844 Q1140.3563,687.15 1141.425,687.15 Q1142.0719,687.15 1142.6344,687.375 Q1143.1969,687.6 1143.675,688.05 Z " fill="#000000"/><text fill="#000000" font-family="sans-serif" font-size="10.8" lengthAdjust="spacing" textLength="59.4" x="1160.325" y="695.6191">ReportStore</text><line style="stroke:#A80036;stroke-width:1.35;" x1="1081.8" x2="1269" y1="705.6" y2="705.6"/><text fill="#000000" font-family="sans-serif" font-size="9.9" lengthAdjust="spacing" textLength="105.3" x="1086.3" y="719.4771">-List&lt;Report&gt; ReportList</text><line style="stroke:#A80036;stroke-width:1.35;" x1="1081.8" x2="1269" y1="725.2523" y2="725.2523"/><text fill="#000000" font-family="sans-serif" font-size="9.9" lengthAdjust="spacing" textLength="178.2" x="1086.3" y="739.1294">boolean saveReport(reportTxt, testCode)</text><!--MD5=[b0a1b9137b50b50b320b426f68562434]
class TS--><rect codeLine="107" fill="#FEFECE" filter="url(#f1n6atopk2hyvi)" height="68.1047" id="TS" style="stroke:#A80036;stroke-width:1.35;" width="133.2" x="1108.8" y="576.9"/><ellipse cx="1147.815" cy="591.3" fill="#ADD1B2" rx="9.9" ry="9.9" style="stroke:#A80036;stroke-width:0.9;"/><path d="M1149.615,588.15 Q1149.7978,587.7 1150.0088,587.475 Q1150.2197,587.25 1150.4588,587.25 Q1150.8806,587.25 1151.1478,587.5031 Q1151.415,587.7563 1151.415,588.3469 L1151.415,589.7531 Q1151.415,590.3438 1151.1619,590.5969 Q1150.9088,590.85 1150.515,590.85 Q1150.1634,590.85 1149.9384,590.6953 Q1149.7134,590.5406 1149.615,590.1328 Q1149.5728,589.8516 1149.4181,589.6969 Q1149.1369,589.4016 1148.6306,589.2328 Q1148.1244,589.05 1147.6181,589.05 Q1146.9853,589.05 1146.4509,589.3031 Q1145.9306,589.5563 1145.5228,590.1188 Q1145.115,590.6813 1145.115,591.4547 L1145.115,592.2844 Q1145.115,593.2125 1145.8744,593.8313 Q1146.6338,594.45 1147.9837,594.45 Q1148.7853,594.45 1149.3478,594.2672 Q1149.6712,594.1688 1150.0369,593.8453 Q1150.2759,593.6625 1150.4025,593.6063 Q1150.5291,593.55 1150.6838,593.55 Q1150.9791,593.55 1151.19,593.7891 Q1151.415,594.0141 1151.415,594.3375 Q1151.415,594.6469 1151.1056,595.0125 Q1150.6556,595.5469 1149.9384,595.8422 Q1148.9963,596.25 1147.8431,596.25 Q1146.4931,596.25 1145.4103,595.7156 Q1144.5384,595.2938 1143.9197,594.3797 Q1143.315,593.4656 1143.315,592.3828 L1143.315,591.3984 Q1143.315,590.2734 1143.8494,589.2891 Q1144.3978,588.3047 1145.34,587.7844 Q1146.2962,587.25 1147.365,587.25 Q1148.0119,587.25 1148.5744,587.475 Q1149.1369,587.7 1149.615,588.15 Z " fill="#000000"/><text fill="#000000" font-family="sans-serif" font-size="10.8" lengthAdjust="spacing" textLength="47.7" x="1166.085" y="595.7191">TestStore</text><line style="stroke:#A80036;stroke-width:1.35;" x1="1109.7" x2="1241.1" y1="605.7" y2="605.7"/><text fill="#000000" font-family="sans-serif" font-size="9.9" lengthAdjust="spacing" textLength="85.5" x="1114.2" y="619.5771">-List&lt;Test&gt; TestList</text><line style="stroke:#A80036;stroke-width:1.35;" x1="1109.7" x2="1241.1" y1="625.3523" y2="625.3523"/><text fill="#000000" font-family="sans-serif" font-size="9.9" lengthAdjust="spacing" textLength="122.4" x="1114.2" y="639.2294">+Test getTestByCode(code)</text><!--MD5=[855bff576399508b91aabc265b07bf87]
class ttStore--><rect codeLine="112" fill="#FEFECE" filter="url(#f1n6atopk2hyvi)" height="68.1047" id="ttStore" style="stroke:#A80036;stroke-width:1.35;" width="734.4" x="808.2" y="477"/><ellipse cx="1136.025" cy="491.4" fill="#ADD1B2" rx="9.9" ry="9.9" style="stroke:#A80036;stroke-width:0.9;"/><path d="M1137.825,488.25 Q1138.0078,487.8 1138.2188,487.575 Q1138.4297,487.35 1138.6688,487.35 Q1139.0906,487.35 1139.3578,487.6031 Q1139.625,487.8563 1139.625,488.4469 L1139.625,489.8531 Q1139.625,490.4438 1139.3719,490.6969 Q1139.1188,490.95 1138.725,490.95 Q1138.3734,490.95 1138.1484,490.7953 Q1137.9234,490.6406 1137.825,490.2328 Q1137.7828,489.9516 1137.6281,489.7969 Q1137.3469,489.5016 1136.8406,489.3328 Q1136.3344,489.15 1135.8281,489.15 Q1135.1953,489.15 1134.6609,489.4031 Q1134.1406,489.6563 1133.7328,490.2188 Q1133.325,490.7813 1133.325,491.5547 L1133.325,492.3844 Q1133.325,493.3125 1134.0844,493.9313 Q1134.8438,494.55 1136.1938,494.55 Q1136.9953,494.55 1137.5578,494.3672 Q1137.8813,494.2688 1138.2469,493.9453 Q1138.4859,493.7625 1138.6125,493.7063 Q1138.7391,493.65 1138.8938,493.65 Q1139.1891,493.65 1139.4,493.8891 Q1139.625,494.1141 1139.625,494.4375 Q1139.625,494.7469 1139.3156,495.1125 Q1138.8656,495.6469 1138.1484,495.9422 Q1137.2063,496.35 1136.0531,496.35 Q1134.7031,496.35 1133.6203,495.8156 Q1132.7484,495.3938 1132.1297,494.4797 Q1131.525,493.5656 1131.525,492.4828 L1131.525,491.4984 Q1131.525,490.3734 1132.0594,489.3891 Q1132.6078,488.4047 1133.55,487.8844 Q1134.5063,487.35 1135.575,487.35 Q1136.2219,487.35 1136.7844,487.575 Q1137.3469,487.8 1137.825,488.25 Z " fill="#000000"/><text fill="#000000" font-family="sans-serif" font-size="10.8" lengthAdjust="spacing" textLength="71.1" x="1154.475" y="495.8191">TestTypeStore</text><line style="stroke:#A80036;stroke-width:1.35;" x1="809.1" x2="1541.7" y1="505.8" y2="505.8"/><text fill="#000000" font-family="sans-serif" font-size="9.9" lengthAdjust="spacing" textLength="126" x="813.6" y="519.6771">-List&lt;TestType&gt; testTypeList</text><line style="stroke:#A80036;stroke-width:1.35;" x1="809.1" x2="1541.7" y1="525.4523" y2="525.4523"/><text fill="#000000" font-family="sans-serif" font-size="9.9" lengthAdjust="spacing" textLength="723.6" x="813.6" y="539.3294">+createTest(client, parameterCategoryList, testParameterList, testType, code, nhsCode, existsTest, registerDate, chemicalAnalysisDate, diagnosisDate, validationDate)</text><!--MD5=[51912c652aa2a3a1d0b745172ce59331]
class ImportTestController--><rect codeLine="121" fill="#FEFECE" filter="url(#f1n6atopk2hyvi)" height="68.1047" id="ImportTestController" style="stroke:#A80036;stroke-width:1.35;" width="130.5" x="434.25" y="647.1"/><ellipse cx="447.75" cy="661.5" fill="#ADD1B2" rx="9.9" ry="9.9" style="stroke:#A80036;stroke-width:0.9;"/><path d="M449.55,658.35 Q449.7328,657.9 449.9438,657.675 Q450.1547,657.45 450.3938,657.45 Q450.8156,657.45 451.0828,657.7031 Q451.35,657.9563 451.35,658.5469 L451.35,659.9531 Q451.35,660.5438 451.0969,660.7969 Q450.8438,661.05 450.45,661.05 Q450.0984,661.05 449.8734,660.8953 Q449.6484,660.7406 449.55,660.3328 Q449.5078,660.0516 449.3531,659.8969 Q449.0719,659.6016 448.5656,659.4328 Q448.0594,659.25 447.5531,659.25 Q446.9203,659.25 446.3859,659.5031 Q445.8656,659.7563 445.4578,660.3188 Q445.05,660.8813 445.05,661.6547 L445.05,662.4844 Q445.05,663.4125 445.8094,664.0313 Q446.5688,664.65 447.9188,664.65 Q448.7203,664.65 449.2828,664.4672 Q449.6063,664.3688 449.9719,664.0453 Q450.2109,663.8625 450.3375,663.8063 Q450.4641,663.75 450.6188,663.75 Q450.9141,663.75 451.125,663.9891 Q451.35,664.2141 451.35,664.5375 Q451.35,664.8469 451.0406,665.2125 Q450.5906,665.7469 449.8734,666.0422 Q448.9313,666.45 447.7781,666.45 Q446.4281,666.45 445.3453,665.9156 Q444.4734,665.4938 443.8547,664.5797 Q443.25,663.6656 443.25,662.5828 L443.25,661.5984 Q443.25,660.4734 443.7844,659.4891 Q444.3328,658.5047 445.275,657.9844 Q446.2313,657.45 447.3,657.45 Q447.9469,657.45 448.5094,657.675 Q449.0719,657.9 449.55,658.35 Z " fill="#000000"/><text fill="#000000" font-family="sans-serif" font-size="10.8" lengthAdjust="spacing" textLength="101.7" x="460.35" y="665.9191">ImportTestController</text><line style="stroke:#A80036;stroke-width:1.35;" x1="435.15" x2="563.85" y1="675.9" y2="675.9"/><text fill="#000000" font-family="sans-serif" font-size="9.9" lengthAdjust="spacing" textLength="96.3" x="439.65" y="689.7771">-ImportTest importTest</text><text fill="#000000" font-family="sans-serif" font-size="9.9" lengthAdjust="spacing" textLength="67.5" x="439.65" y="702.2294">+importFromFile</text><line style="stroke:#A80036;stroke-width:1.35;" x1="435.15" x2="563.85" y1="708.0047" y2="708.0047"/><!--MD5=[bcff1293548765b9bca2a02c7e5ada38]
class ImportTestUI--><rect codeLine="131" fill="#FEFECE" filter="url(#f1n6atopk2hyvi)" height="43.2" id="ImportTestUI" style="stroke:#A80036;stroke-width:1.35;" width="92.7" x="121.95" y="1517.4"/><ellipse cx="135.45" cy="1531.8" fill="#ADD1B2" rx="9.9" ry="9.9" style="stroke:#A80036;stroke-width:0.9;"/><path d="M137.25,1528.65 Q137.4328,1528.2 137.6438,1527.975 Q137.8547,1527.75 138.0938,1527.75 Q138.5156,1527.75 138.7828,1528.0031 Q139.05,1528.2563 139.05,1528.8469 L139.05,1530.2531 Q139.05,1530.8438 138.7969,1531.0969 Q138.5438,1531.35 138.15,1531.35 Q137.7984,1531.35 137.5734,1531.1953 Q137.3484,1531.0406 137.25,1530.6328 Q137.2078,1530.3516 137.0531,1530.1969 Q136.7719,1529.9016 136.2656,1529.7328 Q135.7594,1529.55 135.2531,1529.55 Q134.6203,1529.55 134.0859,1529.8031 Q133.5656,1530.0563 133.1578,1530.6188 Q132.75,1531.1813 132.75,1531.9547 L132.75,1532.7844 Q132.75,1533.7125 133.5094,1534.3313 Q134.2688,1534.95 135.6188,1534.95 Q136.4203,1534.95 136.9828,1534.7672 Q137.3063,1534.6688 137.6719,1534.3453 Q137.9109,1534.1625 138.0375,1534.1063 Q138.1641,1534.05 138.3188,1534.05 Q138.6141,1534.05 138.825,1534.2891 Q139.05,1534.5141 139.05,1534.8375 Q139.05,1535.1469 138.7406,1535.5125 Q138.2906,1536.0469 137.5734,1536.3422 Q136.6313,1536.75 135.4781,1536.75 Q134.1281,1536.75 133.0453,1536.2156 Q132.1734,1535.7938 131.5547,1534.8797 Q130.95,1533.9656 130.95,1532.8828 L130.95,1531.8984 Q130.95,1530.7734 131.4844,1529.7891 Q132.0328,1528.8047 132.975,1528.2844 Q133.9313,1527.75 135,1527.75 Q135.6469,1527.75 136.2094,1527.975 Q136.7719,1528.2 137.25,1528.65 Z " fill="#000000"/><text fill="#000000" font-family="sans-serif" font-size="10.8" lengthAdjust="spacing" textLength="63.9" x="148.05" y="1536.2191">ImportTestUI</text><line style="stroke:#A80036;stroke-width:1.35;" x1="122.85" x2="213.75" y1="1546.2" y2="1546.2"/><line style="stroke:#A80036;stroke-width:1.35;" x1="122.85" x2="213.75" y1="1553.4" y2="1553.4"/><!--MD5=[57290b2a5c651bbad46b720eb74ca40f]
link ImportTestUI to ImportTestController--><path codeLine="134" d="M208.953,1517.4 C235.692,1500.57 269.082,1474.569 286.2,1441.8 C418.923,1187.739 201.987,1049.823 341.1,799.2 C361.17,763.038 397.485,734.715 430.191,714.897 " fill="none" id="ImportTestUI-to-ImportTestController" style="stroke:#A80036;stroke-width:0.9;stroke-dasharray:7.0,7.0;"/><polygon fill="#A80036" points="434.16,712.521,425.3621,713.6014,430.3013,714.8362,429.0665,719.7754,434.16,712.521" style="stroke:#A80036;stroke-width:0.9;"/><!--MD5=[0c0a439b81f4bcf7f230eacd809d2d9f]
link C to ClientStore--><path codeLine="136" d="M644.049,1101.267 C648.999,1096.2 653.643,1090.908 657.9,1085.4 C682.011,1054.152 663.084,1033.695 684.9,1000.8 C715.473,954.702 756.009,969.93 779.4,919.8 C787.14,903.213 774.432,274.671 786.6,261 C863.73,174.357 1010.7,181.323 1099.926,195.534 " fill="none" id="C-to-ClientStore" style="stroke:#A80036;stroke-width:0.9;stroke-dasharray:7.0,7.0;"/><polygon fill="#A80036" points="1104.399,196.263,1096.9804,191.4117,1099.9571,195.542,1095.8268,198.5187,1104.399,196.263" style="stroke:#A80036;stroke-width:0.9;"/><!--MD5=[e2dd4a5d6db9c8e8e73332946a6ec5b1]
link C to CALStore--><path codeLine="137" d="M639,1101.312 C645.552,1096.137 651.888,1090.818 657.9,1085.4 C672.282,1072.431 669.618,1063.098 684.9,1051.2 C721.206,1022.922 754.119,1047.348 779.4,1008.9 C787.761,996.174 776.466,472.158 786.6,460.8 C842.49,398.16 934.902,384.48 1015.506,387.09 " fill="none" id="C-to-CALStore" style="stroke:#A80036;stroke-width:0.9;stroke-dasharray:7.0,7.0;"/><polygon fill="#A80036" points="1020.06,387.252,1012.0992,383.3538,1015.5631,387.085,1011.832,390.5489,1020.06,387.252" style="stroke:#A80036;stroke-width:0.9;"/><!--MD5=[74b06c6766d4ada8d6206c78be9ef4d6]
link C to pcStore--><path codeLine="138" d="M642.681,1101.429 C648.072,1096.29 653.175,1090.944 657.9,1085.4 C677.646,1062.207 662.04,1042.533 684.9,1022.4 C717.678,993.528 752.895,1030.122 779.4,995.4 C790.092,981.387 774.873,374.067 786.6,360.9 C852.471,286.938 969.246,281.196 1057.509,289.944 " fill="none" id="C-to-pcStore" style="stroke:#A80036;stroke-width:0.9;stroke-dasharray:7.0,7.0;"/><polygon fill="#A80036" points="1062.216,290.43,1054.5169,286.0375,1057.7386,289.9797,1053.7964,293.2014,1062.216,290.43" style="stroke:#A80036;stroke-width:0.9;"/><!--MD5=[26ea521259c3bffe60caf1bd175e375c]
link C to parameterStore--><path codeLine="139" d="M645.147,1101.465 C649.764,1096.353 654.048,1090.998 657.9,1085.4 C692.145,1035.639 663.462,1008.675 684.9,952.2 C714.609,873.945 757.188,870.003 779.4,789.3 C784.035,772.47 774.99,174.132 786.6,161.1 C854.316,85.077 975.816,81.135 1064.844,90.918 " fill="none" id="C-to-parameterStore" style="stroke:#A80036;stroke-width:0.9;stroke-dasharray:7.0,7.0;"/><polygon fill="#A80036" points="1069.326,91.422,1061.6773,86.9423,1064.854,90.9208,1060.8755,94.0975,1069.326,91.422" style="stroke:#A80036;stroke-width:0.9;"/><!--MD5=[3ca4f9a315dc56bb1139649740c27af1]
link C to RS--><path codeLine="140" d="M658.188,1186.641 C704.016,1178.694 749.673,1161.018 779.4,1125 C790.92,1111.041 775.152,813.222 786.6,799.2 C855.216,715.158 985.689,701.046 1076.265,702.693 " fill="none" id="C-to-RS" style="stroke:#A80036;stroke-width:0.9;stroke-dasharray:7.0,7.0;"/><polygon fill="#A80036" points="1080.819,702.783,1072.7926,699.0218,1076.3199,702.693,1072.6486,706.2203,1080.819,702.783" style="stroke:#A80036;stroke-width:0.9;"/><!--MD5=[d5fc24fc5738d367467ea53b7c5dadfc]
link C to TS--><path codeLine="141" d="M658.134,1151.154 C704.979,1132.938 751.248,1105.164 779.4,1062.9 C791.793,1044.297 771.678,677.241 786.6,660.6 C865.179,572.949 1015.272,581.328 1103.949,595.854 " fill="none" id="C-to-TS" style="stroke:#A80036;stroke-width:0.9;stroke-dasharray:7.0,7.0;"/><polygon fill="#A80036" points="1108.647,596.646,1101.2559,591.7529,1104.2093,595.8999,1100.0623,598.8533,1108.647,596.646" style="stroke:#A80036;stroke-width:0.9;"/><!--MD5=[a01b65b9e1649035f2f91ee2227b08c6]
link C to ttStore--><path codeLine="142" d="M657.972,1105.29 C716.796,1073.844 771.417,1042.092 779.4,1028.7 C792.711,1006.362 769.266,580.086 786.6,560.7 C792.234,554.4 798.237,548.595 804.555,543.258 " fill="none" id="C-to-ttStore" style="stroke:#A80036;stroke-width:0.9;stroke-dasharray:7.0,7.0;"/><polygon fill="#A80036" points="808.101,540.342,799.5537,542.6901,804.6199,543.1937,804.1164,548.2599,808.101,540.342" style="stroke:#A80036;stroke-width:0.9;"/><!--MD5=[9419836bdd9c70fb47033214424a5e94]
link ImportTestController to C--><path codeLine="143" d="M434.079,708.849 C391.284,730.737 338.805,765.882 313.65,814.95 C287.829,865.314 286.164,1020.168 313.65,1069.65 C320.112,1081.287 328.293,1091.907 337.59,1101.573 " fill="none" id="ImportTestController-to-C" style="stroke:#A80036;stroke-width:0.9;stroke-dasharray:7.0,7.0;"/><polygon fill="#A80036" points="340.794,1104.813,337.6622,1096.5207,337.6314,1101.6118,332.5403,1101.5809,340.794,1104.813" style="stroke:#A80036;stroke-width:0.9;"/><!--MD5=[dd5a0a5bb1f1353bc7c2bed3530f8a87]
reverse link importTest to ImportTestController--><path codeLine="145" d="M251.838,1093.077 C265.266,1083.969 277.578,1072.809 286.2,1059.3 C354.924,951.588 240.786,878.364 313.2,773.1 C341.19,732.411 392.598,708.948 434.196,695.943 " fill="none" id="importTest-backto-ImportTestController" style="stroke:#A80036;stroke-width:0.9;stroke-dasharray:7.0,7.0;"/><polygon fill="#A80036" points="248.022,1095.588,256.7644,1094.1249,251.7761,1093.1067,252.7943,1088.1184,248.022,1095.588" style="stroke:#A80036;stroke-width:0.9;"/><!--MD5=[004d75fe0049bb0d1d13fb6b0f906669]
link importTest to pc--><path codeLine="146" d="M248.103,1115.676 C304.38,1102.176 379.197,1081.143 432.378,1063.764 " fill="none" id="importTest-to-pc" style="stroke:#A80036;stroke-width:0.9;stroke-dasharray:7.0,7.0;"/><polygon fill="#A80036" points="436.815,1062.306,427.997,1061.4044,432.5383,1063.7059,430.2368,1068.2472,436.815,1062.306" style="stroke:#A80036;stroke-width:0.9;"/><!--MD5=[004d75fe0049bb0d1d13fb6b0f906669]
link importTest to pc--><path codeLine="150" d="M248.103,1095.165 C304.38,1077.165 379.197,1056.51 432.378,1044.387 " fill="none" id="importTest-to-pc-1" style="stroke:#A80036;stroke-width:0.9;stroke-dasharray:7.0,7.0;"/><polygon fill="#A80036" points="436.815,1043.388,428.121,1041.6605,432.4255,1044.3792,429.7069,1048.6837,436.815,1043.388" style="stroke:#A80036;stroke-width:0.9;"/><!--MD5=[ae32347b5cfec58ef71bf814a63fad87]
link importTest to parameterStore--><path codeLine="147" d="M247.986,1093.977 C262.521,1084.626 276.228,1073.142 286.2,1059.3 C355.509,963.135 252.09,876.591 341.1,798.3 C394.128,751.653 590.121,792.936 657.9,773.1 C716.634,755.91 747.567,760.572 779.4,708.3 C787.311,695.313 776.484,172.44 786.6,161.1 C854.379,85.131 975.87,81.18 1064.871,90.945 " fill="none" id="importTest-to-parameterStore" style="stroke:#A80036;stroke-width:0.9;stroke-dasharray:7.0,7.0;"/><polygon fill="#A80036" points="1069.353,91.449,1061.7043,86.9693,1064.881,90.9478,1060.9025,94.1245,1069.353,91.449" style="stroke:#A80036;stroke-width:0.9;"/><!--MD5=[9b9ae804df386fa8e8bb241b71bd5002]
link importTest to R--><path codeLine="148" d="M217.512,1180.557 C249.975,1213.713 295.083,1255.473 341.1,1284.3 C370.719,1302.858 406.719,1317.744 436.815,1328.382 " fill="none" id="importTest-to-R" style="stroke:#A80036;stroke-width:0.9;stroke-dasharray:7.0,7.0;"/><polygon fill="#A80036" points="441.216,1329.921,434.7625,1323.8447,436.9692,1328.4327,432.3812,1330.6395,441.216,1329.921" style="stroke:#A80036;stroke-width:0.9;"/><!--MD5=[09b7783938036164c68b837044e958a6]
link importTest to T--><path codeLine="149" d="M183.96,1180.584 C205.857,1247.679 254.043,1360.539 341.1,1409.4 C584.001,1545.732 925.245,1403.955 1085.184,1321.713 " fill="none" id="importTest-to-T" style="stroke:#A80036;stroke-width:0.9;stroke-dasharray:7.0,7.0;"/><polygon fill="#A80036" points="1089.396,1319.535,1080.5477,1320.0618,1085.3997,1321.6038,1083.8578,1326.4558,1089.396,1319.535" style="stroke:#A80036;stroke-width:0.9;"/><!--MD5=[09387842b713cb7823e425168381e52b]
link importTest to Client--><path codeLine="151" d="M248.067,1087.515 C261.45,1079.073 274.716,1069.578 286.2,1059.3 C316.656,1032.039 310.734,1012.878 341.1,985.5 C376.371,953.703 424.071,927.153 457.704,910.557 " fill="none" id="importTest-to-Client" style="stroke:#A80036;stroke-width:0.9;stroke-dasharray:7.0,7.0;"/><polygon fill="#A80036" points="462.15,908.379,453.2923,908.7135,458.1098,910.3605,456.4628,915.1779,462.15,908.379" style="stroke:#A80036;stroke-width:0.9;"/><!--MD5=[1d934105a045dbf126514c6917bd5072]
link ClientStore to Client--><path codeLine="154" d="M1104.435,196.299 C1015.758,181.656 865.152,172.998 786.6,261 C767.052,282.897 796.356,765.342 779.4,789.3 C724.689,866.583 605.097,885.789 541.719,890.469 " fill="none" id="ClientStore-to-Client" style="stroke:#A80036;stroke-width:0.9;stroke-dasharray:7.0,7.0;"/><polygon fill="#A80036" points="536.886,890.811,545.2225,893.8231,541.3745,890.4895,544.7081,886.6415,536.886,890.811" style="stroke:#A80036;stroke-width:0.9;"/><!--MD5=[87c2acc0369d1c554e86a3424e2d4892]
link pcStore to pc--><path codeLine="155" d="M1062.27,290.484 C973.53,281.097 853.758,285.714 786.6,360.9 C777.24,371.376 784.944,853.785 779.4,866.7 C749.61,936.099 722.601,946.548 657.9,985.5 C630.117,1002.231 596.187,1014.003 566.946,1021.941 " fill="none" id="pcStore-to-pc" style="stroke:#A80036;stroke-width:0.9;stroke-dasharray:7.0,7.0;"/><polygon fill="#A80036" points="562.293,1023.183,571.0456,1024.584,566.6423,1022.0283,569.198,1017.6251,562.293,1023.183" style="stroke:#A80036;stroke-width:0.9;"/><!--MD5=[0b037e5f89e300193b3080f69ffc7684]
link TS to T--><path codeLine="157" d="M1108.62,596.232 C1006.074,577.836 812.295,561.609 722.25,676.35 C565.407,876.213 912.726,1118.187 1085.391,1221.273 " fill="none" id="TS-to-T" style="stroke:#A80036;stroke-width:0.9;stroke-dasharray:7.0,7.0;"/><polygon fill="#A80036" points="1089.441,1223.676,1084.3191,1216.4416,1085.5732,1221.3759,1080.639,1222.63,1089.441,1223.676" style="stroke:#A80036;stroke-width:0.9;"/><!--MD5=[8a43ee585f65e657860660c045a873fb]
link parameter to parameterStore--><path codeLine="159" d="M228.267,978.462 C249.66,968.796 272.025,954.792 286.2,935.1 C328.851,875.862 260.55,823.662 313.2,773.1 C424.566,666.153 543.519,833.607 657.9,729.9 C849.915,555.804 594.774,335.412 786.6,161.1 C860.769,93.708 978.363,87.57 1064.655,94.464 " fill="none" id="parameter-to-parameterStore" style="stroke:#A80036;stroke-width:0.9;stroke-dasharray:7.0,7.0;"/><polygon fill="#A80036" points="1069.254,94.842,1061.4799,90.5836,1064.7695,94.4694,1060.8837,97.7589,1069.254,94.842" style="stroke:#A80036;stroke-width:0.9;"/><!--MD5=[281a59200fe523f79922830c877c9cf1]
link C to T--><path codeLine="161" d="M658.017,1205.505 C792.648,1222.758 981.18,1246.923 1089.288,1260.774 " fill="none" id="C-T" style="stroke:#A80036;stroke-width:0.9;"/><polygon fill="#000000" points="711.8635,1202.2302,704.1252,1198.5719,703.4527,1203.819,711.8635,1202.2302" style="stroke:#000000;stroke-width:0.9;"/><text fill="#000000" font-family="sans-serif" font-size="11.7" lengthAdjust="spacing" textLength="45" x="715.5" y="1206.4456">performs</text><text fill="#000000" font-family="sans-serif" font-size="11.7" lengthAdjust="spacing" textLength="6.3" x="665.3425" y="1218.8922">1</text><text fill="#000000" font-family="sans-serif" font-size="11.7" lengthAdjust="spacing" textLength="4.5" x="1077.7467" y="1272.6465">*</text><!--MD5=[d79f796b7193e7ca26e46655b3a51e19]
link RS to R--><path codeLine="163" d="M1080.756,702.729 C990,700.497 856.224,713.61 786.6,799.2 C773.001,815.922 792.765,1170.189 779.4,1187.1 C752.508,1221.12 717.102,1182.357 684.9,1211.4 C659.241,1234.539 682.011,1259.559 657.9,1284.3 C632.43,1310.436 594.72,1326.024 562.581,1335.159 " fill="none" id="RS-to-R" style="stroke:#A80036;stroke-width:0.9;stroke-dasharray:7.0,7.0;"/><polygon fill="#A80036" points="557.883,1336.464,566.6524,1337.7554,562.2175,1335.255,564.7179,1330.8201,557.883,1336.464" style="stroke:#A80036;stroke-width:0.9;"/><!--MD5=[b6d05c8ba1925f463401f0316ca5edcc]
link R to T--><path codeLine="164" d="M557.586,1341.099 C613.98,1334.97 702.648,1325.277 779.4,1316.7 C886.257,1304.757 1009.341,1290.69 1089.351,1281.501 " fill="none" id="R-T" style="stroke:#A80036;stroke-width:0.9;"/><polygon fill="#000000" points="693.872,1308.257,685.4875,1306.5351,686.0767,1311.7923,693.872,1308.257" style="stroke:#000000;stroke-width:0.9;"/><text fill="#000000" font-family="sans-serif" font-size="11.7" lengthAdjust="spacing" textLength="81" x="697.5" y="1313.5456">associated with</text><text fill="#000000" font-family="sans-serif" font-size="11.7" lengthAdjust="spacing" textLength="6.3" x="564.6664" y="1353.3605">1</text><text fill="#000000" font-family="sans-serif" font-size="11.7" lengthAdjust="spacing" textLength="6.3" x="1075.943" y="1295.0252">1</text><!--MD5=[cd8ba54a95a1e7fdad060b65b2077e11]
@startuml
skinparam classAttributeIconSize 0
left to right direction

package Core{

package Domain{
class "Company" as C {
-ClinicalAnalysisLaboratoryStore clinicalAnalysisLaboratoryStore
-ClientStore clientStore
-ReportStore reportStore
-TestStore testStore
-TestTypeStore testTypeStore
-ParameterCategoryStore parameterCategoryStore
+ClientStore getClientStore()
+ReportStore getReportStore()
+TestStore getTestStore()
+ClinicalAnalysisLaboratoryStore getClinicalAnalysisLaboratoryStore()
}

class "ParameterCategory" as pc{
-String name
-String code
}

class "TestType" as testType{
-String code;
-String description;
-String collectingMethod;
-List<ParameterCategory> parameterCategoriesList;
-ExternalModule externalModule;
}

class "Parameter" as parameter{
-String code;
-String description
-String designation
-ParameterCategory pcat
}

class "Client" as Client{
-citizenID
-nhsID
-birthDate
-sex
-TIN
-phoneNumber
-email
-name
-address
}

class "Test" as T {
-Date registrationDateTime
-Date collectDateTime
-Date chemicalAnalysisDateTime
-Date diagnosisDateTime
-Date validationDateTime
+String getStatus()
+boolean updateValidationDateTime()
+updateTestStatus()
}

class "Report" as R{
-boolean validation
-String testCode
+boolean getValidation()
+setValidation()
}

class "ImportTest" as importTest{
-Company company
-File ficheiroInput
-BufferedReader bufferedReader;
-String[] firstLine;
-int[] importRules;
}

}

package Stores{

class "ClientStore" as ClientStore{
List<Client> ClientList
+boolean saveClient (Client cl)
}

class "ClinicalAnalysisLaboratoryStore" as CALStore{
-List<ClinicalAnalysisLaboratory> ClinicalAnalysisLaboratoryList
+ClinicalAnalysisLaboratory getClinicalAnalysisLaboratoryByID(labID)
}

class "ParameterCategoryStore" as pcStore{
-List<ParameterCategory> parameterCategoryList
+getParameterCategoryByName(String name)
}

class "ParameterStore" as parameterStore{
-List<Parameter> parameterStoreList
+Parameter getParameterByCode(String code)
}

class "ReportStore" as RS{
-List<Report> ReportList
boolean saveReport(reportTxt, testCode)
}

class "TestStore" as TS{
-List<Test> TestList
+Test getTestByCode(code)
}

class "TestTypeStore" as ttStore{
-List<TestType> testTypeList
+createTest(client, parameterCategoryList, testParameterList, testType, code, nhsCode, existsTest, registerDate, chemicalAnalysisDate, diagnosisDate, validationDate)
}

}


package Controllers{
class "ImportTestController" as ImportTestController {
-ImportTest importTest
+importFromFile
}

}

}

package UI{
class "ImportTestUI" as ImportTestUI
}

ImportTestUI ..> ImportTestController

C ..> ClientStore
C ..> CALStore
C ..> pcStore
C ..> parameterStore
C ..> RS
C ..> TS
C ..> ttStore
ImportTestController ..> C

importTest <.. ImportTestController
importTest ..> pc
importTest ..> parameterStore
importTest ..> R
importTest ..> T
importTest ..> pc
importTest ..> Client


ClientStore ..> Client
pcStore ..> pc

TS ..> T

parameter ..> parameterStore

C "1" - - "*" T : > performs

RS ..> R
R "1" - - "1" T : > associated with


@enduml

PlantUML version 1.2021.7(Sun May 23 13:40:07 BST 2021)
(GPL source distribution)
Java Runtime: OpenJDK Runtime Environment
JVM: Dynamic Code Evolution 64-Bit Server VM
Default Encoding: Cp1252
Language: pt
Country: PT
--></g></svg>