<?xml version="1.0" encoding="UTF-8" standalone="no"?><svg xmlns="http://www.w3.org/2000/svg" xmlns:xlink="http://www.w3.org/1999/xlink" contentScriptType="application/ecmascript" contentStyleType="text/css" height="443px" preserveAspectRatio="none" style="width:1221px;height:443px;background:#FFFFFF;" version="1.1" viewBox="0 0 1221 443" width="1221px" zoomAndPan="magnify"><defs><filter height="300%" id="f1ebca0a02j49y" width="300%" x="-1" y="-1"><feGaussianBlur result="blurOut" stdDeviation="2.0"/><feColorMatrix in="blurOut" result="blurOut2" type="matrix" values="0 0 0 0 0 0 0 0 0 0 0 0 0 0 0 0 0 0 .4 0"/><feOffset dx="4.0" dy="4.0" in="blurOut2" result="blurOut3"/><feBlend in="SourceGraphic" in2="blurOut3" mode="normal"/></filter></defs><g><!--MD5=[ed6624c6556d5e7b1bd23032162d20b7]
class Client--><rect codeLine="34" fill="#FEFECE" filter="url(#f1ebca0a02j49y)" height="150.6875" id="Client" style="stroke:#A80036;stroke-width:1.5;" width="83" x="551.5" y="7"/><ellipse cx="575.05" cy="23" fill="#ADD1B2" rx="11" ry="11" style="stroke:#A80036;stroke-width:1.0;"/><path d="M577.05,19.5 Q577.2531,19 577.4875,18.75 Q577.7219,18.5 577.9875,18.5 Q578.4563,18.5 578.7531,18.7813 Q579.05,19.0625 579.05,19.7188 L579.05,21.2813 Q579.05,21.9375 578.7688,22.2188 Q578.4875,22.5 578.05,22.5 Q577.6594,22.5 577.4094,22.3281 Q577.1594,22.1563 577.05,21.7031 Q577.0031,21.3906 576.8313,21.2188 Q576.5188,20.8906 575.9563,20.7031 Q575.3938,20.5 574.8313,20.5 Q574.1281,20.5 573.5344,20.7813 Q572.9563,21.0625 572.5031,21.6875 Q572.05,22.3125 572.05,23.1719 L572.05,24.0938 Q572.05,25.125 572.8938,25.8125 Q573.7375,26.5 575.2375,26.5 Q576.1281,26.5 576.7531,26.2969 Q577.1125,26.1875 577.5188,25.8281 Q577.7844,25.625 577.925,25.5625 Q578.0656,25.5 578.2375,25.5 Q578.5656,25.5 578.8,25.7656 Q579.05,26.0156 579.05,26.375 Q579.05,26.7188 578.7063,27.125 Q578.2063,27.7188 577.4094,28.0469 Q576.3625,28.5 575.0813,28.5 Q573.5813,28.5 572.3781,27.9063 Q571.4094,27.4375 570.7219,26.4219 Q570.05,25.4063 570.05,24.2031 L570.05,23.1094 Q570.05,21.8594 570.6438,20.7656 Q571.2531,19.6719 572.3,19.0938 Q573.3625,18.5 574.55,18.5 Q575.2688,18.5 575.8938,18.75 Q576.5188,19 577.05,19.5 Z " fill="#000000"/><text fill="#000000" font-family="sans-serif" font-size="12" lengthAdjust="spacing" textLength="32" x="590.95" y="27.9102">Client</text><line style="stroke:#A80036;stroke-width:1.5;" x1="552.5" x2="633.5" y1="39" y2="39"/><text fill="#000000" font-family="sans-serif" font-size="11" lengthAdjust="spacing" textLength="44" x="557.5" y="54.4189">-citizenID</text><text fill="#000000" font-family="sans-serif" font-size="11" lengthAdjust="spacing" textLength="31" x="557.5" y="68.2549">-nhsID</text><text fill="#000000" font-family="sans-serif" font-size="11" lengthAdjust="spacing" textLength="47" x="557.5" y="82.0908">-birthDate</text><text fill="#000000" font-family="sans-serif" font-size="11" lengthAdjust="spacing" textLength="22" x="557.5" y="95.9268">-sex</text><text fill="#000000" font-family="sans-serif" font-size="11" lengthAdjust="spacing" textLength="19" x="557.5" y="109.7627">-TIN</text><text fill="#000000" font-family="sans-serif" font-size="11" lengthAdjust="spacing" textLength="71" x="557.5" y="123.5986">-phoneNumber</text><text fill="#000000" font-family="sans-serif" font-size="11" lengthAdjust="spacing" textLength="28" x="557.5" y="137.4346">-email</text><text fill="#000000" font-family="sans-serif" font-size="11" lengthAdjust="spacing" textLength="30" x="557.5" y="151.2705">-name</text><!--MD5=[2741598bdf59a7d7e0d5c97658fd3022]
class Result--><rect codeLine="45" fill="#FEFECE" filter="url(#f1ebca0a02j49y)" height="40" id="Result" style="stroke:#A80036;stroke-width:1.5;" width="68" x="1138.5" y="201.5"/><ellipse cx="1153.5" cy="217.5" fill="#ADD1B2" rx="11" ry="11" style="stroke:#A80036;stroke-width:1.0;"/><path d="M1155.5,214 Q1155.7031,213.5 1155.9375,213.25 Q1156.1719,213 1156.4375,213 Q1156.9063,213 1157.2031,213.2813 Q1157.5,213.5625 1157.5,214.2188 L1157.5,215.7813 Q1157.5,216.4375 1157.2188,216.7188 Q1156.9375,217 1156.5,217 Q1156.1094,217 1155.8594,216.8281 Q1155.6094,216.6563 1155.5,216.2031 Q1155.4531,215.8906 1155.2813,215.7188 Q1154.9688,215.3906 1154.4063,215.2031 Q1153.8438,215 1153.2813,215 Q1152.5781,215 1151.9844,215.2813 Q1151.4063,215.5625 1150.9531,216.1875 Q1150.5,216.8125 1150.5,217.6719 L1150.5,218.5938 Q1150.5,219.625 1151.3438,220.3125 Q1152.1875,221 1153.6875,221 Q1154.5781,221 1155.2031,220.7969 Q1155.5625,220.6875 1155.9688,220.3281 Q1156.2344,220.125 1156.375,220.0625 Q1156.5156,220 1156.6875,220 Q1157.0156,220 1157.25,220.2656 Q1157.5,220.5156 1157.5,220.875 Q1157.5,221.2188 1157.1563,221.625 Q1156.6563,222.2188 1155.8594,222.5469 Q1154.8125,223 1153.5313,223 Q1152.0313,223 1150.8281,222.4063 Q1149.8594,221.9375 1149.1719,220.9219 Q1148.5,219.9063 1148.5,218.7031 L1148.5,217.6094 Q1148.5,216.3594 1149.0938,215.2656 Q1149.7031,214.1719 1150.75,213.5938 Q1151.8125,213 1153,213 Q1153.7188,213 1154.3438,213.25 Q1154.9688,213.5 1155.5,214 Z " fill="#000000"/><text fill="#000000" font-family="sans-serif" font-size="12" lengthAdjust="spacing" textLength="36" x="1167.5" y="222.4102">Result</text><line style="stroke:#A80036;stroke-width:1.5;" x1="1139.5" x2="1205.5" y1="233.5" y2="233.5"/><!--MD5=[f00dbe8c0302c6aec2cb26b3c659c8fc]
class Report--><rect codeLine="48" fill="#FEFECE" filter="url(#f1ebca0a02j49y)" height="40" id="Report" style="stroke:#A80036;stroke-width:1.5;" width="69" x="1138" y="103.5"/><ellipse cx="1153" cy="119.5" fill="#ADD1B2" rx="11" ry="11" style="stroke:#A80036;stroke-width:1.0;"/><path d="M1155,116 Q1155.2031,115.5 1155.4375,115.25 Q1155.6719,115 1155.9375,115 Q1156.4063,115 1156.7031,115.2813 Q1157,115.5625 1157,116.2188 L1157,117.7813 Q1157,118.4375 1156.7188,118.7188 Q1156.4375,119 1156,119 Q1155.6094,119 1155.3594,118.8281 Q1155.1094,118.6563 1155,118.2031 Q1154.9531,117.8906 1154.7813,117.7188 Q1154.4688,117.3906 1153.9063,117.2031 Q1153.3438,117 1152.7813,117 Q1152.0781,117 1151.4844,117.2813 Q1150.9063,117.5625 1150.4531,118.1875 Q1150,118.8125 1150,119.6719 L1150,120.5938 Q1150,121.625 1150.8438,122.3125 Q1151.6875,123 1153.1875,123 Q1154.0781,123 1154.7031,122.7969 Q1155.0625,122.6875 1155.4688,122.3281 Q1155.7344,122.125 1155.875,122.0625 Q1156.0156,122 1156.1875,122 Q1156.5156,122 1156.75,122.2656 Q1157,122.5156 1157,122.875 Q1157,123.2188 1156.6563,123.625 Q1156.1563,124.2188 1155.3594,124.5469 Q1154.3125,125 1153.0313,125 Q1151.5313,125 1150.3281,124.4063 Q1149.3594,123.9375 1148.6719,122.9219 Q1148,121.9063 1148,120.7031 L1148,119.6094 Q1148,118.3594 1148.5938,117.2656 Q1149.2031,116.1719 1150.25,115.5938 Q1151.3125,115 1152.5,115 Q1153.2188,115 1153.8438,115.25 Q1154.4688,115.5 1155,116 Z " fill="#000000"/><text fill="#000000" font-family="sans-serif" font-size="12" lengthAdjust="spacing" textLength="37" x="1167" y="124.4102">Report</text><line style="stroke:#A80036;stroke-width:1.5;" x1="1139" x2="1206" y1="135.5" y2="135.5"/><!--MD5=[36afb6bbd95a8ac778c4537c55a683d5]
class ParameterCategory--><rect codeLine="51" fill="#FEFECE" filter="url(#f1ebca0a02j49y)" height="81.5078" id="ParameterCategory" style="stroke:#A80036;stroke-width:1.5;" width="139" x="241" y="282.5"/><ellipse cx="256" cy="298.5" fill="#ADD1B2" rx="11" ry="11" style="stroke:#A80036;stroke-width:1.0;"/><path d="M258,295 Q258.2031,294.5 258.4375,294.25 Q258.6719,294 258.9375,294 Q259.4063,294 259.7031,294.2813 Q260,294.5625 260,295.2188 L260,296.7813 Q260,297.4375 259.7188,297.7188 Q259.4375,298 259,298 Q258.6094,298 258.3594,297.8281 Q258.1094,297.6563 258,297.2031 Q257.9531,296.8906 257.7813,296.7188 Q257.4688,296.3906 256.9063,296.2031 Q256.3438,296 255.7813,296 Q255.0781,296 254.4844,296.2813 Q253.9063,296.5625 253.4531,297.1875 Q253,297.8125 253,298.6719 L253,299.5938 Q253,300.625 253.8438,301.3125 Q254.6875,302 256.1875,302 Q257.0781,302 257.7031,301.7969 Q258.0625,301.6875 258.4688,301.3281 Q258.7344,301.125 258.875,301.0625 Q259.0156,301 259.1875,301 Q259.5156,301 259.75,301.2656 Q260,301.5156 260,301.875 Q260,302.2188 259.6563,302.625 Q259.1563,303.2188 258.3594,303.5469 Q257.3125,304 256.0313,304 Q254.5313,304 253.3281,303.4063 Q252.3594,302.9375 251.6719,301.9219 Q251,300.9063 251,299.7031 L251,298.6094 Q251,297.3594 251.5938,296.2656 Q252.2031,295.1719 253.25,294.5938 Q254.3125,294 255.5,294 Q256.2188,294 256.8438,294.25 Q257.4688,294.5 258,295 Z " fill="#000000"/><text fill="#000000" font-family="sans-serif" font-size="12" lengthAdjust="spacing" textLength="107" x="270" y="303.4102">ParameterCategory</text><line style="stroke:#A80036;stroke-width:1.5;" x1="242" x2="379" y1="314.5" y2="314.5"/><text fill="#000000" font-family="sans-serif" font-size="11" lengthAdjust="spacing" textLength="28" x="247" y="329.9189">-code</text><text fill="#000000" font-family="sans-serif" font-size="11" lengthAdjust="spacing" textLength="57" x="247" y="343.7549">-description</text><text fill="#000000" font-family="sans-serif" font-size="11" lengthAdjust="spacing" textLength="31" x="247" y="357.5908">-nhsID</text><!--MD5=[1f6362a5c8f21d8d6a0fce68f3a92a4e]
class Parameter--><rect codeLine="57" fill="#FEFECE" filter="url(#f1ebca0a02j49y)" height="81.5078" id="Parameter" style="stroke:#A80036;stroke-width:1.5;" width="90" x="548" y="282.5"/><ellipse cx="563" cy="298.5" fill="#ADD1B2" rx="11" ry="11" style="stroke:#A80036;stroke-width:1.0;"/><path d="M565,295 Q565.2031,294.5 565.4375,294.25 Q565.6719,294 565.9375,294 Q566.4063,294 566.7031,294.2813 Q567,294.5625 567,295.2188 L567,296.7813 Q567,297.4375 566.7188,297.7188 Q566.4375,298 566,298 Q565.6094,298 565.3594,297.8281 Q565.1094,297.6563 565,297.2031 Q564.9531,296.8906 564.7813,296.7188 Q564.4688,296.3906 563.9063,296.2031 Q563.3438,296 562.7813,296 Q562.0781,296 561.4844,296.2813 Q560.9063,296.5625 560.4531,297.1875 Q560,297.8125 560,298.6719 L560,299.5938 Q560,300.625 560.8438,301.3125 Q561.6875,302 563.1875,302 Q564.0781,302 564.7031,301.7969 Q565.0625,301.6875 565.4688,301.3281 Q565.7344,301.125 565.875,301.0625 Q566.0156,301 566.1875,301 Q566.5156,301 566.75,301.2656 Q567,301.5156 567,301.875 Q567,302.2188 566.6563,302.625 Q566.1563,303.2188 565.3594,303.5469 Q564.3125,304 563.0313,304 Q561.5313,304 560.3281,303.4063 Q559.3594,302.9375 558.6719,301.9219 Q558,300.9063 558,299.7031 L558,298.6094 Q558,297.3594 558.5938,296.2656 Q559.2031,295.1719 560.25,294.5938 Q561.3125,294 562.5,294 Q563.2188,294 563.8438,294.25 Q564.4688,294.5 565,295 Z " fill="#000000"/><text fill="#000000" font-family="sans-serif" font-size="12" lengthAdjust="spacing" textLength="58" x="577" y="303.4102">Parameter</text><line style="stroke:#A80036;stroke-width:1.5;" x1="549" x2="637" y1="314.5" y2="314.5"/><text fill="#000000" font-family="sans-serif" font-size="11" lengthAdjust="spacing" textLength="59" x="554" y="329.9189">-designation</text><text fill="#000000" font-family="sans-serif" font-size="11" lengthAdjust="spacing" textLength="57" x="554" y="343.7549">-description</text><text fill="#000000" font-family="sans-serif" font-size="11" lengthAdjust="spacing" textLength="28" x="554" y="357.5908">-code</text><!--MD5=[aeb3272166074d8737a70b61b1e71682]
class TestType--><rect codeLine="63" fill="#FEFECE" filter="url(#f1ebca0a02j49y)" height="81.5078" id="TestType" style="stroke:#A80036;stroke-width:1.5;" width="96" x="7" y="347.5"/><ellipse cx="28.3" cy="363.5" fill="#ADD1B2" rx="11" ry="11" style="stroke:#A80036;stroke-width:1.0;"/><path d="M30.3,360 Q30.5031,359.5 30.7375,359.25 Q30.9719,359 31.2375,359 Q31.7063,359 32.0031,359.2813 Q32.3,359.5625 32.3,360.2188 L32.3,361.7813 Q32.3,362.4375 32.0188,362.7188 Q31.7375,363 31.3,363 Q30.9094,363 30.6594,362.8281 Q30.4094,362.6563 30.3,362.2031 Q30.2531,361.8906 30.0813,361.7188 Q29.7688,361.3906 29.2063,361.2031 Q28.6438,361 28.0813,361 Q27.3781,361 26.7844,361.2813 Q26.2063,361.5625 25.7531,362.1875 Q25.3,362.8125 25.3,363.6719 L25.3,364.5938 Q25.3,365.625 26.1438,366.3125 Q26.9875,367 28.4875,367 Q29.3781,367 30.0031,366.7969 Q30.3625,366.6875 30.7688,366.3281 Q31.0344,366.125 31.175,366.0625 Q31.3156,366 31.4875,366 Q31.8156,366 32.05,366.2656 Q32.3,366.5156 32.3,366.875 Q32.3,367.2188 31.9563,367.625 Q31.4563,368.2188 30.6594,368.5469 Q29.6125,369 28.3313,369 Q26.8313,369 25.6281,368.4063 Q24.6594,367.9375 23.9719,366.9219 Q23.3,365.9063 23.3,364.7031 L23.3,363.6094 Q23.3,362.3594 23.8938,361.2656 Q24.5031,360.1719 25.55,359.5938 Q26.6125,359 27.8,359 Q28.5188,359 29.1438,359.25 Q29.7688,359.5 30.3,360 Z " fill="#000000"/><text fill="#000000" font-family="sans-serif" font-size="12" lengthAdjust="spacing" textLength="50" x="43.7" y="368.4102">TestType</text><line style="stroke:#A80036;stroke-width:1.5;" x1="8" x2="102" y1="379.5" y2="379.5"/><text fill="#000000" font-family="sans-serif" font-size="11" lengthAdjust="spacing" textLength="28" x="13" y="394.9189">-code</text><text fill="#000000" font-family="sans-serif" font-size="11" lengthAdjust="spacing" textLength="57" x="13" y="408.7549">-description</text><text fill="#000000" font-family="sans-serif" font-size="11" lengthAdjust="spacing" textLength="84" x="13" y="422.5908">-collectingMethod</text><!--MD5=[df38be88ccee13e832d6fafd6288a4ca]
class Test--><rect codeLine="69" fill="#FEFECE" filter="url(#f1ebca0a02j49y)" height="136.8516" id="Test" style="stroke:#A80036;stroke-width:1.5;" width="144" x="829" y="153"/><ellipse cx="884.75" cy="169" fill="#ADD1B2" rx="11" ry="11" style="stroke:#A80036;stroke-width:1.0;"/><path d="M886.75,165.5 Q886.9531,165 887.1875,164.75 Q887.4219,164.5 887.6875,164.5 Q888.1563,164.5 888.4531,164.7813 Q888.75,165.0625 888.75,165.7188 L888.75,167.2813 Q888.75,167.9375 888.4688,168.2188 Q888.1875,168.5 887.75,168.5 Q887.3594,168.5 887.1094,168.3281 Q886.8594,168.1563 886.75,167.7031 Q886.7031,167.3906 886.5313,167.2188 Q886.2188,166.8906 885.6563,166.7031 Q885.0938,166.5 884.5313,166.5 Q883.8281,166.5 883.2344,166.7813 Q882.6563,167.0625 882.2031,167.6875 Q881.75,168.3125 881.75,169.1719 L881.75,170.0938 Q881.75,171.125 882.5938,171.8125 Q883.4375,172.5 884.9375,172.5 Q885.8281,172.5 886.4531,172.2969 Q886.8125,172.1875 887.2188,171.8281 Q887.4844,171.625 887.625,171.5625 Q887.7656,171.5 887.9375,171.5 Q888.2656,171.5 888.5,171.7656 Q888.75,172.0156 888.75,172.375 Q888.75,172.7188 888.4063,173.125 Q887.9063,173.7188 887.1094,174.0469 Q886.0625,174.5 884.7813,174.5 Q883.2813,174.5 882.0781,173.9063 Q881.1094,173.4375 880.4219,172.4219 Q879.75,171.4063 879.75,170.2031 L879.75,169.1094 Q879.75,167.8594 880.3438,166.7656 Q880.9531,165.6719 882,165.0938 Q883.0625,164.5 884.25,164.5 Q884.9688,164.5 885.5938,164.75 Q886.2188,165 886.75,165.5 Z " fill="#000000"/><text fill="#000000" font-family="sans-serif" font-size="12" lengthAdjust="spacing" textLength="24" x="905.25" y="173.9102">Test</text><line style="stroke:#A80036;stroke-width:1.5;" x1="830" x2="972" y1="185" y2="185"/><text fill="#000000" font-family="sans-serif" font-size="11" lengthAdjust="spacing" textLength="57" x="835" y="200.4189">-description</text><text fill="#000000" font-family="sans-serif" font-size="11" lengthAdjust="spacing" textLength="28" x="835" y="214.2549">-code</text><text fill="#000000" font-family="sans-serif" font-size="11" lengthAdjust="spacing" textLength="47" x="835" y="228.0908">-nhsCode</text><text fill="#000000" font-family="sans-serif" font-size="11" lengthAdjust="spacing" textLength="79" x="835" y="241.9268">-collectDateTime</text><text fill="#000000" font-family="sans-serif" font-size="11" lengthAdjust="spacing" textLength="132" x="835" y="255.7627">-chemicalAnalysisDateTime</text><text fill="#000000" font-family="sans-serif" font-size="11" lengthAdjust="spacing" textLength="94" x="835" y="269.5986">-diagnosisDateTime</text><text fill="#000000" font-family="sans-serif" font-size="11" lengthAdjust="spacing" textLength="93" x="835" y="283.4346">-validationDateTime</text><!--MD5=[9681492165142af2a4a3a169d90ee8d4]
class Sample--><rect codeLine="79" fill="#FEFECE" filter="url(#f1ebca0a02j49y)" height="53.8359" id="Sample" style="stroke:#A80036;stroke-width:1.5;" width="75" x="555.5" y="193.5"/><ellipse cx="570.5" cy="209.5" fill="#ADD1B2" rx="11" ry="11" style="stroke:#A80036;stroke-width:1.0;"/><path d="M572.5,206 Q572.7031,205.5 572.9375,205.25 Q573.1719,205 573.4375,205 Q573.9063,205 574.2031,205.2813 Q574.5,205.5625 574.5,206.2188 L574.5,207.7813 Q574.5,208.4375 574.2188,208.7188 Q573.9375,209 573.5,209 Q573.1094,209 572.8594,208.8281 Q572.6094,208.6563 572.5,208.2031 Q572.4531,207.8906 572.2813,207.7188 Q571.9688,207.3906 571.4063,207.2031 Q570.8438,207 570.2813,207 Q569.5781,207 568.9844,207.2813 Q568.4063,207.5625 567.9531,208.1875 Q567.5,208.8125 567.5,209.6719 L567.5,210.5938 Q567.5,211.625 568.3438,212.3125 Q569.1875,213 570.6875,213 Q571.5781,213 572.2031,212.7969 Q572.5625,212.6875 572.9688,212.3281 Q573.2344,212.125 573.375,212.0625 Q573.5156,212 573.6875,212 Q574.0156,212 574.25,212.2656 Q574.5,212.5156 574.5,212.875 Q574.5,213.2188 574.1563,213.625 Q573.6563,214.2188 572.8594,214.5469 Q571.8125,215 570.5313,215 Q569.0313,215 567.8281,214.4063 Q566.8594,213.9375 566.1719,212.9219 Q565.5,211.9063 565.5,210.7031 L565.5,209.6094 Q565.5,208.3594 566.0938,207.2656 Q566.7031,206.1719 567.75,205.5938 Q568.8125,205 570,205 Q570.7188,205 571.3438,205.25 Q571.9688,205.5 572.5,206 Z " fill="#000000"/><text fill="#000000" font-family="sans-serif" font-size="12" lengthAdjust="spacing" textLength="43" x="584.5" y="214.4102">Sample</text><line style="stroke:#A80036;stroke-width:1.5;" x1="556.5" x2="629.5" y1="225.5" y2="225.5"/><text fill="#000000" font-family="sans-serif" font-size="11" lengthAdjust="spacing" textLength="44" x="561.5" y="240.9189">-barcode</text><!--MD5=[502b51bc079239060389dab43b7d3470]
link Client to Test--><path codeLine="16" d="M634.89,108.27 C645.5,114.55 657.03,121.03 668,126.5 C720.58,152.72 782.22,177.7 828.75,195.46 " fill="none" id="Client-Test" style="stroke:#A80036;stroke-width:1.0;"/><polygon fill="#000000" points="688.94,115.6249,695.9836,122.0153,698.3946,116.6547,688.94,115.6249" style="stroke:#000000;stroke-width:1.0;"/><text fill="#000000" font-family="sans-serif" font-size="13" lengthAdjust="spacing" textLength="75" x="702.5" y="122.9951">requested by</text><text fill="#000000" font-family="sans-serif" font-size="13" lengthAdjust="spacing" textLength="7" x="642.4077" y="127.4133">1</text><text fill="#000000" font-family="sans-serif" font-size="13" lengthAdjust="spacing" textLength="5" x="816.0414" y="207.1205">*</text><!--MD5=[1dbb730aa792675a530b390feeeb5270]
link Report to Client--><path codeLine="18" d="M1137.96,121.12 C1038.13,114.03 743.08,93.08 634.61,85.38 " fill="none" id="Report-Client" style="stroke:#A80036;stroke-width:1.0;"/><polygon fill="#000000" points="866.5126,91.3217,875.3268,94.8938,875.7431,89.0307,866.5126,91.3217" style="stroke:#000000;stroke-width:1.0;"/><text fill="#000000" font-family="sans-serif" font-size="13" lengthAdjust="spacing" textLength="54" x="880.5" y="96.9951">is sent to</text><text fill="#000000" font-family="sans-serif" font-size="13" lengthAdjust="spacing" textLength="7" x="1123.1143" y="116.5105">1</text><text fill="#000000" font-family="sans-serif" font-size="13" lengthAdjust="spacing" textLength="7" x="642.3633" y="100.8022">1</text><!--MD5=[7a9e3e328fb1db48284e23a673c1e60d]
link ParameterCategory to Parameter--><path codeLine="20" d="M380.12,323.5 C432.34,323.5 502.68,323.5 547.7,323.5 " fill="none" id="ParameterCategory-Parameter" style="stroke:#A80036;stroke-width:1.0;"/><polygon fill="#000000" points="410,314.6758,419.0451,317.6147,419.0451,311.7369,410,314.6758" style="stroke:#000000;stroke-width:1.0;"/><text fill="#000000" font-family="sans-serif" font-size="13" lengthAdjust="spacing" textLength="93" x="424" y="319.9951">presented under</text><text fill="#000000" font-family="sans-serif" font-size="13" lengthAdjust="spacing" textLength="7" x="388.1175" y="337.9163">1</text><text fill="#000000" font-family="sans-serif" font-size="13" lengthAdjust="spacing" textLength="5" x="535.0819" y="338.3374">*</text><!--MD5=[4265453a012991a726928e22789b8a83]
link Parameter to Test--><path codeLine="22" d="M638.17,308.78 C688.07,292.14 769.99,264.84 828.92,245.19 " fill="none" id="Parameter-Test" style="stroke:#A80036;stroke-width:1.0;"/><polygon fill="#000000" points="668.2566,250.2571,677.7669,250.1846,675.908,244.6084,668.2566,250.2571" style="stroke:#000000;stroke-width:1.0;"/><text fill="#000000" font-family="sans-serif" font-size="13" lengthAdjust="spacing" textLength="116" x="682" y="253.9951">requests analysis of</text><text fill="#000000" font-family="sans-serif" font-size="13" lengthAdjust="spacing" textLength="20" x="645.9283" y="321.3894">1..*</text><text fill="#000000" font-family="sans-serif" font-size="13" lengthAdjust="spacing" textLength="5" x="816.2289" y="261.9789">*</text><!--MD5=[8aaf0efd5e2f3824be7ea3e488dcc283]
link TestType to ParameterCategory--><path codeLine="24" d="M103.09,376.43 C141.75,366.51 197.03,352.34 240.66,341.15 " fill="none" id="TestType-ParameterCategory" style="stroke:#A80036;stroke-width:1.0;"/><polygon fill="#000000" points="142.8433,339.4337,133.3516,338.8338,134.8118,344.5274,142.8433,339.4337" style="stroke:#000000;stroke-width:1.0;"/><text fill="#000000" font-family="sans-serif" font-size="13" lengthAdjust="spacing" textLength="63" x="147" y="345.9951">analyzes a</text><text fill="#000000" font-family="sans-serif" font-size="13" lengthAdjust="spacing" textLength="5" x="111.1528" y="389.3437">*</text><text fill="#000000" font-family="sans-serif" font-size="13" lengthAdjust="spacing" textLength="7" x="226.0968" y="357.3338">1</text><!--MD5=[c2c6b28b052a3fe86d789b83a09b2815]
link TestType to Test--><path codeLine="26" d="M103.23,394.9 C203.42,406.98 443.97,428.08 638,382.5 C709.2,365.77 779.23,320.84 828.95,282.68 " fill="none" id="TestType-Test" style="stroke:#A80036;stroke-width:1.0;"/><polygon fill="#000000" points="444.5587,393.4399,453.9467,394.962,453.0485,389.1532,444.5587,393.4399" style="stroke:#000000;stroke-width:1.0;"/><text fill="#000000" font-family="sans-serif" font-size="13" lengthAdjust="spacing" textLength="24" x="458.5" y="397.9951">is of</text><text fill="#000000" font-family="sans-serif" font-size="13" lengthAdjust="spacing" textLength="7" x="111.1512" y="410.6647">1</text><text fill="#000000" font-family="sans-serif" font-size="13" lengthAdjust="spacing" textLength="5" x="815.7961" y="303.769">*</text><!--MD5=[9163865a413f55935f47e026f9eaa033]
link Test to Result--><path codeLine="28" d="M973.16,221.5 C1026.65,221.5 1097.49,221.5 1138.42,221.5 " fill="none" id="Test-Result" style="stroke:#A80036;stroke-width:1.0;"/><polygon fill="#000000" points="1042,212.6758,1032.9549,209.7369,1032.9549,215.6147,1042,212.6758" style="stroke:#000000;stroke-width:1.0;"/><text fill="#000000" font-family="sans-serif" font-size="13" lengthAdjust="spacing" textLength="32" x="1046" y="217.9951">has a</text><text fill="#000000" font-family="sans-serif" font-size="13" lengthAdjust="spacing" textLength="7" x="980.9624" y="235.8459">1</text><text fill="#000000" font-family="sans-serif" font-size="13" lengthAdjust="spacing" textLength="7" x="1123.6691" y="236.6814">1</text><!--MD5=[72163acd41df4db10e2bb78c0e4b52d4]
link Test to Report--><path codeLine="30" d="M973.16,195.62 C1026.34,176.29 1096.66,150.71 1137.7,135.79 " fill="none" id="Test-Report" style="stroke:#A80036;stroke-width:1.0;"/><polygon fill="#000000" points="1003.301,140.3844,1012.8059,140.0555,1010.7972,134.5315,1003.301,140.3844" style="stroke:#000000;stroke-width:1.0;"/><text fill="#000000" font-family="sans-serif" font-size="13" lengthAdjust="spacing" textLength="90" x="1017" y="143.9951">associated with</text><text fill="#000000" font-family="sans-serif" font-size="13" lengthAdjust="spacing" textLength="7" x="980.9624" y="207.297">1</text><text fill="#000000" font-family="sans-serif" font-size="13" lengthAdjust="spacing" textLength="7" x="1122.8006" y="153.5062">1</text><!--MD5=[1ae83efc6d1967ce5bc17dfe294d00c2]
link Sample to Test--><path codeLine="32" d="M630.61,220.62 C679.39,220.78 766.75,221.06 828.75,221.27 " fill="none" id="Sample-Test" style="stroke:#A80036;stroke-width:1.0;"/><polygon fill="#000000" points="703.5,212.6594,712.5354,215.628,712.5547,209.7501,703.5,212.6594" style="stroke:#000000;stroke-width:1.0;"/><text fill="#000000" font-family="sans-serif" font-size="13" lengthAdjust="spacing" textLength="45" x="717.5" y="217.9951">collects</text><text fill="#000000" font-family="sans-serif" font-size="13" lengthAdjust="spacing" textLength="5" x="638.5067" y="235.7645">*</text><text fill="#000000" font-family="sans-serif" font-size="13" lengthAdjust="spacing" textLength="7" x="813.9383" y="235.5922">1</text><!--MD5=[4ac1c927e5e12721d2c08d589dd3dca4]
@startuml

hide methods
skinparam classAttributeIconSize 0
left to right direction

class Client
class Result
class Report
class ParameterCategory
class Parameter
class TestType
class Test
class Sample


Client "1" - - "*" Test : < requested by

Report "1" - - "1" Client : > is sent to

ParameterCategory "1" - - "*" Parameter : < presented under

Parameter "1..*" - - "*" Test : < requests analysis of

TestType "*" - - "1" ParameterCategory : > analyzes a

TestType "1" - - "*" Test: < is of

Test "1" - - "1" Result : > has a

Test "1" - - "1" Report : < associated with

Sample "*" - - "1" Test : < collects

class Client{
-citizenID
-nhsID
-birthDate
-sex
-TIN
-phoneNumber
-email
-name
}

class Result{
}

class Report{
}

class ParameterCategory{
-code
-description
-nhsID
}

class Parameter{
-designation
-description
-code
}

class TestType{
-code
-description
-collectingMethod
}

class Test{
-description
-code
-nhsCode
-collectDateTime
-chemicalAnalysisDateTime
-diagnosisDateTime
-validationDateTime
}

class Sample{
-barcode
}

@enduml

PlantUML version 1.2021.7(Sun May 23 13:40:07 BST 2021)
(GPL source distribution)
Java Runtime: OpenJDK Runtime Environment
JVM: Dynamic Code Evolution 64-Bit Server VM
Default Encoding: Cp1252
Language: pt
Country: PT
--></g></svg>