<?xml version="1.0" encoding="UTF-8" standalone="no"?><svg xmlns="http://www.w3.org/2000/svg" xmlns:xlink="http://www.w3.org/1999/xlink" contentScriptType="application/ecmascript" contentStyleType="text/css" height="531px" preserveAspectRatio="none" style="width:552px;height:531px;" version="1.1" viewBox="0 0 552 531" width="552px" zoomAndPan="magnify"><defs><filter height="300%" id="f1xhefhb1muzdp" width="300%" x="-1" y="-1"><feGaussianBlur result="blurOut" stdDeviation="2.0"/><feColorMatrix in="blurOut" result="blurOut2" type="matrix" values="0 0 0 0 0 0 0 0 0 0 0 0 0 0 0 0 0 0 .4 0"/><feOffset dx="4.0" dy="4.0" in="blurOut2" result="blurOut3"/><feBlend in="SourceGraphic" in2="blurOut3" mode="normal"/></filter></defs><g><rect fill="#FFFFFF" filter="url(#f1xhefhb1muzdp)" height="336.8672" style="stroke:#A80036;stroke-width:1.0;" width="10" x="59.5" y="99.6094"/><rect fill="#FFFFFF" filter="url(#f1xhefhb1muzdp)" height="55.7031" style="stroke:#A80036;stroke-width:1.0;" width="10" x="393.5" y="121.9609"/><rect fill="#FFFFFF" filter="url(#f1xhefhb1muzdp)" height="37.3516" style="stroke:#A80036;stroke-width:1.0;" width="10" x="393.5" y="208.0156"/><rect fill="#FFFFFF" filter="url(#f1xhefhb1muzdp)" height="30.3516" style="stroke:#A80036;stroke-width:1.0;" width="10" x="393.5" y="275.7188"/><rect fill="#FFFFFF" filter="url(#f1xhefhb1muzdp)" height="30.3516" style="stroke:#A80036;stroke-width:1.0;" width="10" x="393.5" y="336.4219"/><rect fill="#FFFFFF" filter="url(#f1xhefhb1muzdp)" height="30.3516" style="stroke:#A80036;stroke-width:1.0;" width="10" x="393.5" y="397.125"/><rect fill="#FFFFFF" filter="url(#f1xhefhb1muzdp)" height="79.0547" style="stroke:#000000;stroke-width:2.0;" width="528" x="10" y="136.9609"/><line style="stroke:#A80036;stroke-width:1.0;stroke-dasharray:5.0,5.0;" x1="64" x2="64" y1="89.6094" y2="445.4766"/><line style="stroke:#A80036;stroke-width:1.0;stroke-dasharray:5.0,5.0;" x1="398.5" x2="398.5" y1="89.6094" y2="445.4766"/><text fill="#000000" font-family="sans-serif" font-size="14" lengthAdjust="spacing" textLength="83" x="20" y="86.5332">Administrator</text><ellipse cx="64.5" cy="15" fill="#FEFECE" filter="url(#f1xhefhb1muzdp)" rx="8" ry="8" style="stroke:#A80036;stroke-width:2.0;"/><path d="M64.5,23 L64.5,50 M51.5,31 L77.5,31 M64.5,50 L51.5,65 M64.5,50 L77.5,65 " fill="none" filter="url(#f1xhefhb1muzdp)" style="stroke:#A80036;stroke-width:2.0;"/><text fill="#000000" font-family="sans-serif" font-size="14" lengthAdjust="spacing" textLength="83" x="20" y="459.0098">Administrator</text><ellipse cx="64.5" cy="472.0859" fill="#FEFECE" filter="url(#f1xhefhb1muzdp)" rx="8" ry="8" style="stroke:#A80036;stroke-width:2.0;"/><path d="M64.5,480.0859 L64.5,507.0859 M51.5,488.0859 L77.5,488.0859 M64.5,507.0859 L51.5,522.0859 M64.5,507.0859 L77.5,522.0859 " fill="none" filter="url(#f1xhefhb1muzdp)" style="stroke:#A80036;stroke-width:2.0;"/><rect fill="#FEFECE" filter="url(#f1xhefhb1muzdp)" height="31.6094" style="stroke:#A80036;stroke-width:1.5;" width="60" x="366.5" y="53"/><text fill="#000000" font-family="sans-serif" font-size="14" lengthAdjust="spacing" textLength="46" x="373.5" y="74.5332">System</text><rect fill="#FEFECE" filter="url(#f1xhefhb1muzdp)" height="31.6094" style="stroke:#A80036;stroke-width:1.5;" width="60" x="366.5" y="444.4766"/><text fill="#000000" font-family="sans-serif" font-size="14" lengthAdjust="spacing" textLength="46" x="373.5" y="466.0098">System</text><rect fill="#FFFFFF" filter="url(#f1xhefhb1muzdp)" height="336.8672" style="stroke:#A80036;stroke-width:1.0;" width="10" x="59.5" y="99.6094"/><rect fill="#FFFFFF" filter="url(#f1xhefhb1muzdp)" height="55.7031" style="stroke:#A80036;stroke-width:1.0;" width="10" x="393.5" y="121.9609"/><rect fill="#FFFFFF" filter="url(#f1xhefhb1muzdp)" height="37.3516" style="stroke:#A80036;stroke-width:1.0;" width="10" x="393.5" y="208.0156"/><rect fill="#FFFFFF" filter="url(#f1xhefhb1muzdp)" height="30.3516" style="stroke:#A80036;stroke-width:1.0;" width="10" x="393.5" y="275.7188"/><rect fill="#FFFFFF" filter="url(#f1xhefhb1muzdp)" height="30.3516" style="stroke:#A80036;stroke-width:1.0;" width="10" x="393.5" y="336.4219"/><rect fill="#FFFFFF" filter="url(#f1xhefhb1muzdp)" height="30.3516" style="stroke:#A80036;stroke-width:1.0;" width="10" x="393.5" y="397.125"/><polygon fill="#A80036" points="381.5,117.9609,391.5,121.9609,381.5,125.9609,385.5,121.9609" style="stroke:#A80036;stroke-width:1.0;"/><line style="stroke:#A80036;stroke-width:1.0;" x1="69.5" x2="387.5" y1="121.9609" y2="121.9609"/><text fill="#000000" font-family="sans-serif" font-size="13" font-weight="bold" lengthAdjust="spacing" textLength="7" x="76.5" y="117.1045">1</text><text fill="#000000" font-family="sans-serif" font-size="13" lengthAdjust="spacing" textLength="123" x="87.5" y="117.1045">register a type of test</text><path d="M10,136.9609 L83,136.9609 L83,144.9609 L73,154.9609 L10,154.9609 L10,136.9609 " fill="#EEEEEE" style="stroke:#000000;stroke-width:1.0;"/><rect fill="none" height="79.0547" style="stroke:#000000;stroke-width:2.0;" width="528" x="10" y="136.9609"/><text fill="#000000" font-family="sans-serif" font-size="13" font-weight="bold" lengthAdjust="spacing" textLength="28" x="25" y="151.4561">loop</text><text fill="#000000" font-family="sans-serif" font-size="11" font-weight="bold" lengthAdjust="spacing" textLength="435" x="98" y="150.3799">[for how many Categories the Administrator wants the new Test Type to have]</text><polygon fill="#A80036" points="80.5,173.6641,70.5,177.6641,80.5,181.6641,76.5,177.6641" style="stroke:#A80036;stroke-width:1.0;"/><line style="stroke:#A80036;stroke-width:1.0;stroke-dasharray:2.0,2.0;" x1="74.5" x2="397.5" y1="177.6641" y2="177.6641"/><text fill="#000000" font-family="sans-serif" font-size="13" font-weight="bold" lengthAdjust="spacing" textLength="7" x="86.5" y="172.8076">2</text><text fill="#000000" font-family="sans-serif" font-size="13" lengthAdjust="spacing" textLength="213" x="97.5" y="172.8076">shows a list of Parameter Categories</text><polygon fill="#A80036" points="381.5,204.0156,391.5,208.0156,381.5,212.0156,385.5,208.0156" style="stroke:#A80036;stroke-width:1.0;"/><line style="stroke:#A80036;stroke-width:1.0;" x1="69.5" x2="387.5" y1="208.0156" y2="208.0156"/><text fill="#000000" font-family="sans-serif" font-size="13" font-weight="bold" lengthAdjust="spacing" textLength="7" x="76.5" y="203.1592">3</text><text fill="#000000" font-family="sans-serif" font-size="13" lengthAdjust="spacing" textLength="245" x="87.5" y="203.1592">selects a Parameter Category from the list</text><polygon fill="#A80036" points="80.5,241.3672,70.5,245.3672,80.5,249.3672,76.5,245.3672" style="stroke:#A80036;stroke-width:1.0;"/><line style="stroke:#A80036;stroke-width:1.0;stroke-dasharray:2.0,2.0;" x1="74.5" x2="397.5" y1="245.3672" y2="245.3672"/><text fill="#000000" font-family="sans-serif" font-size="13" font-weight="bold" lengthAdjust="spacing" textLength="7" x="86.5" y="240.5107">4</text><text fill="#000000" font-family="sans-serif" font-size="13" lengthAdjust="spacing" textLength="188" x="97.5" y="240.5107">shows a list of External Modules</text><polygon fill="#A80036" points="381.5,271.7188,391.5,275.7188,381.5,279.7188,385.5,275.7188" style="stroke:#A80036;stroke-width:1.0;"/><line style="stroke:#A80036;stroke-width:1.0;" x1="69.5" x2="387.5" y1="275.7188" y2="275.7188"/><text fill="#000000" font-family="sans-serif" font-size="13" font-weight="bold" lengthAdjust="spacing" textLength="7" x="76.5" y="270.8623">5</text><text fill="#000000" font-family="sans-serif" font-size="13" lengthAdjust="spacing" textLength="230" x="87.5" y="270.8623">selects an External Module from the list</text><polygon fill="#A80036" points="80.5,302.0703,70.5,306.0703,80.5,310.0703,76.5,306.0703" style="stroke:#A80036;stroke-width:1.0;"/><line style="stroke:#A80036;stroke-width:1.0;stroke-dasharray:2.0,2.0;" x1="74.5" x2="397.5" y1="306.0703" y2="306.0703"/><text fill="#000000" font-family="sans-serif" font-size="13" font-weight="bold" lengthAdjust="spacing" textLength="7" x="86.5" y="301.2139">6</text><text fill="#000000" font-family="sans-serif" font-size="13" lengthAdjust="spacing" textLength="289" x="97.5" y="301.2139">request data (code, description, collectingMethod)</text><polygon fill="#A80036" points="381.5,332.4219,391.5,336.4219,381.5,340.4219,385.5,336.4219" style="stroke:#A80036;stroke-width:1.0;"/><line style="stroke:#A80036;stroke-width:1.0;stroke-dasharray:2.0,2.0;" x1="69.5" x2="387.5" y1="336.4219" y2="336.4219"/><text fill="#000000" font-family="sans-serif" font-size="13" font-weight="bold" lengthAdjust="spacing" textLength="7" x="76.5" y="331.5654">7</text><text fill="#000000" font-family="sans-serif" font-size="13" lengthAdjust="spacing" textLength="122" x="87.5" y="331.5654">types requested data</text><polygon fill="#A80036" points="80.5,362.7734,70.5,366.7734,80.5,370.7734,76.5,366.7734" style="stroke:#A80036;stroke-width:1.0;"/><line style="stroke:#A80036;stroke-width:1.0;" x1="74.5" x2="397.5" y1="366.7734" y2="366.7734"/><text fill="#000000" font-family="sans-serif" font-size="13" font-weight="bold" lengthAdjust="spacing" textLength="7" x="86.5" y="361.917">8</text><text fill="#000000" font-family="sans-serif" font-size="13" lengthAdjust="spacing" textLength="212" x="97.5" y="361.917">shows it and requests a confirmation</text><polygon fill="#A80036" points="381.5,393.125,391.5,397.125,381.5,401.125,385.5,397.125" style="stroke:#A80036;stroke-width:1.0;"/><line style="stroke:#A80036;stroke-width:1.0;" x1="69.5" x2="387.5" y1="397.125" y2="397.125"/><text fill="#000000" font-family="sans-serif" font-size="13" font-weight="bold" lengthAdjust="spacing" textLength="7" x="76.5" y="392.2686">9</text><text fill="#000000" font-family="sans-serif" font-size="13" lengthAdjust="spacing" textLength="100" x="87.5" y="392.2686">confirms the data</text><polygon fill="#A80036" points="80.5,423.4766,70.5,427.4766,80.5,431.4766,76.5,427.4766" style="stroke:#A80036;stroke-width:1.0;"/><line style="stroke:#A80036;stroke-width:1.0;stroke-dasharray:2.0,2.0;" x1="74.5" x2="397.5" y1="427.4766" y2="427.4766"/><text fill="#000000" font-family="sans-serif" font-size="13" font-weight="bold" lengthAdjust="spacing" textLength="14" x="86.5" y="422.6201">10</text><text fill="#000000" font-family="sans-serif" font-size="13" lengthAdjust="spacing" textLength="152" x="104.5" y="422.6201">informs operation success</text><!--MD5=[22ab2b12165c256aec0b8b93a58d0470]
@startuml
autonumber

actor "Administrator" as admin
activate admin

admin -> System ++: register a type of test
loop for how many Categories the Administrator wants the new Test Type to have
System - -> admin - -: shows a list of Parameter Categories
admin -> System ++: selects a Parameter Category from the list
end
System - -> admin - -: shows a list of External Modules
admin -> System ++: selects an External Module from the list
System - ->  admin - -: request data (code, description, collectingMethod)
admin - ->  System ++: types requested data
System -> admin - -: shows it and requests a confirmation
admin -> System ++: confirms the data
System - -> admin - -: informs operation success

@enduml

PlantUML version 1.2021.5(Sun Apr 25 12:20:28 BST 2021)
(GPL source distribution)
Java Runtime: OpenJDK Runtime Environment
JVM: Dynamic Code Evolution 64-Bit Server VM
Default Encoding: Cp1252
Language: pt
Country: PT
--></g></svg>