<?xml version="1.0" encoding="UTF-8" standalone="no"?><svg xmlns="http://www.w3.org/2000/svg" xmlns:xlink="http://www.w3.org/1999/xlink" contentScriptType="application/ecmascript" contentStyleType="text/css" height="150px" preserveAspectRatio="none" style="width:625px;height:150px;" version="1.1" viewBox="0 0 625 150" width="625px" zoomAndPan="magnify"><defs><filter height="300%" id="f1byc533o38s2r" width="300%" x="-1" y="-1"><feGaussianBlur result="blurOut" stdDeviation="2.0"/><feColorMatrix in="blurOut" result="blurOut2" type="matrix" values="0 0 0 0 0 0 0 0 0 0 0 0 0 0 0 0 0 0 .4 0"/><feOffset dx="4.0" dy="4.0" in="blurOut2" result="blurOut3"/><feBlend in="SourceGraphic" in2="blurOut3" mode="normal"/></filter></defs><g><!--MD5=[02e4b9b7573f1156f41e60aa5b4e25a4]
class Company--><rect codeLine="19" fill="#FEFECE" filter="url(#f1byc533o38s2r)" height="53.8359" id="Company" style="stroke:#A80036;stroke-width:1.5;" width="85" x="241" y="7"/><ellipse cx="256" cy="23" fill="#ADD1B2" rx="11" ry="11" style="stroke:#A80036;stroke-width:1.0;"/><path d="M258,19.5 Q258.2031,19 258.4375,18.75 Q258.6719,18.5 258.9375,18.5 Q259.4063,18.5 259.7031,18.7813 Q260,19.0625 260,19.7188 L260,21.2813 Q260,21.9375 259.7188,22.2188 Q259.4375,22.5 259,22.5 Q258.6094,22.5 258.3594,22.3281 Q258.1094,22.1563 258,21.7031 Q257.9531,21.3906 257.7813,21.2188 Q257.4688,20.8906 256.9063,20.7031 Q256.3438,20.5 255.7813,20.5 Q255.0781,20.5 254.4844,20.7813 Q253.9063,21.0625 253.4531,21.6875 Q253,22.3125 253,23.1719 L253,24.0938 Q253,25.125 253.8438,25.8125 Q254.6875,26.5 256.1875,26.5 Q257.0781,26.5 257.7031,26.2969 Q258.0625,26.1875 258.4688,25.8281 Q258.7344,25.625 258.875,25.5625 Q259.0156,25.5 259.1875,25.5 Q259.5156,25.5 259.75,25.7656 Q260,26.0156 260,26.375 Q260,26.7188 259.6563,27.125 Q259.1563,27.7188 258.3594,28.0469 Q257.3125,28.5 256.0313,28.5 Q254.5313,28.5 253.3281,27.9063 Q252.3594,27.4375 251.6719,26.4219 Q251,25.4063 251,24.2031 L251,23.1094 Q251,21.8594 251.5938,20.7656 Q252.2031,19.6719 253.25,19.0938 Q254.3125,18.5 255.5,18.5 Q256.2188,18.5 256.8438,18.75 Q257.4688,19 258,19.5 Z " fill="#000000"/><text fill="#000000" font-family="sans-serif" font-size="12" lengthAdjust="spacing" textLength="53" x="270" y="27.9102">Company</text><line style="stroke:#A80036;stroke-width:1.5;" x1="242" x2="325" y1="39" y2="39"/><text fill="#000000" font-family="sans-serif" font-size="11" lengthAdjust="spacing" textLength="59" x="247" y="54.4189">-designation</text><!--MD5=[da547346deef918ea16944ba046651ef]
class Administrator--><rect codeLine="23" fill="#FEFECE" filter="url(#f1byc533o38s2r)" height="40" id="Administrator" style="stroke:#A80036;stroke-width:1.5;" width="105" x="231" y="96"/><ellipse cx="246" cy="112" fill="#ADD1B2" rx="11" ry="11" style="stroke:#A80036;stroke-width:1.0;"/><path d="M248,108.5 Q248.2031,108 248.4375,107.75 Q248.6719,107.5 248.9375,107.5 Q249.4063,107.5 249.7031,107.7813 Q250,108.0625 250,108.7188 L250,110.2813 Q250,110.9375 249.7188,111.2188 Q249.4375,111.5 249,111.5 Q248.6094,111.5 248.3594,111.3281 Q248.1094,111.1563 248,110.7031 Q247.9531,110.3906 247.7813,110.2188 Q247.4688,109.8906 246.9063,109.7031 Q246.3438,109.5 245.7813,109.5 Q245.0781,109.5 244.4844,109.7813 Q243.9063,110.0625 243.4531,110.6875 Q243,111.3125 243,112.1719 L243,113.0938 Q243,114.125 243.8438,114.8125 Q244.6875,115.5 246.1875,115.5 Q247.0781,115.5 247.7031,115.2969 Q248.0625,115.1875 248.4688,114.8281 Q248.7344,114.625 248.875,114.5625 Q249.0156,114.5 249.1875,114.5 Q249.5156,114.5 249.75,114.7656 Q250,115.0156 250,115.375 Q250,115.7188 249.6563,116.125 Q249.1563,116.7188 248.3594,117.0469 Q247.3125,117.5 246.0313,117.5 Q244.5313,117.5 243.3281,116.9063 Q242.3594,116.4375 241.6719,115.4219 Q241,114.4063 241,113.2031 L241,112.1094 Q241,110.8594 241.5938,109.7656 Q242.2031,108.6719 243.25,108.0938 Q244.3125,107.5 245.5,107.5 Q246.2188,107.5 246.8438,107.75 Q247.4688,108 248,108.5 Z " fill="#000000"/><text fill="#000000" font-family="sans-serif" font-size="12" lengthAdjust="spacing" textLength="73" x="260" y="116.9102">Administrator</text><line style="stroke:#A80036;stroke-width:1.5;" x1="232" x2="335" y1="128" y2="128"/><!--MD5=[36afb6bbd95a8ac778c4537c55a683d5]
class ParameterCategory--><rect codeLine="26" fill="#FEFECE" filter="url(#f1byc533o38s2r)" height="81.5078" id="ParameterCategory" style="stroke:#A80036;stroke-width:1.5;" width="139" x="472" y="34"/><ellipse cx="487" cy="50" fill="#ADD1B2" rx="11" ry="11" style="stroke:#A80036;stroke-width:1.0;"/><path d="M489,46.5 Q489.2031,46 489.4375,45.75 Q489.6719,45.5 489.9375,45.5 Q490.4063,45.5 490.7031,45.7813 Q491,46.0625 491,46.7188 L491,48.2813 Q491,48.9375 490.7188,49.2188 Q490.4375,49.5 490,49.5 Q489.6094,49.5 489.3594,49.3281 Q489.1094,49.1563 489,48.7031 Q488.9531,48.3906 488.7813,48.2188 Q488.4688,47.8906 487.9063,47.7031 Q487.3438,47.5 486.7813,47.5 Q486.0781,47.5 485.4844,47.7813 Q484.9063,48.0625 484.4531,48.6875 Q484,49.3125 484,50.1719 L484,51.0938 Q484,52.125 484.8438,52.8125 Q485.6875,53.5 487.1875,53.5 Q488.0781,53.5 488.7031,53.2969 Q489.0625,53.1875 489.4688,52.8281 Q489.7344,52.625 489.875,52.5625 Q490.0156,52.5 490.1875,52.5 Q490.5156,52.5 490.75,52.7656 Q491,53.0156 491,53.375 Q491,53.7188 490.6563,54.125 Q490.1563,54.7188 489.3594,55.0469 Q488.3125,55.5 487.0313,55.5 Q485.5313,55.5 484.3281,54.9063 Q483.3594,54.4375 482.6719,53.4219 Q482,52.4063 482,51.2031 L482,50.1094 Q482,48.8594 482.5938,47.7656 Q483.2031,46.6719 484.25,46.0938 Q485.3125,45.5 486.5,45.5 Q487.2188,45.5 487.8438,45.75 Q488.4688,46 489,46.5 Z " fill="#000000"/><text fill="#000000" font-family="sans-serif" font-size="12" lengthAdjust="spacing" textLength="107" x="501" y="54.9102">ParameterCategory</text><line style="stroke:#A80036;stroke-width:1.5;" x1="473" x2="610" y1="66" y2="66"/><text fill="#000000" font-family="sans-serif" font-size="11" lengthAdjust="spacing" textLength="28" x="478" y="81.4189">-code</text><text fill="#000000" font-family="sans-serif" font-size="11" lengthAdjust="spacing" textLength="57" x="478" y="95.2549">-description</text><text fill="#000000" font-family="sans-serif" font-size="11" lengthAdjust="spacing" textLength="31" x="478" y="109.0908">-nhsID</text><!--MD5=[aeb3272166074d8737a70b61b1e71682]
class TestType--><rect codeLine="32" fill="#FEFECE" filter="url(#f1byc533o38s2r)" height="81.5078" id="TestType" style="stroke:#A80036;stroke-width:1.5;" width="96" x="7" y="34"/><ellipse cx="28.3" cy="50" fill="#ADD1B2" rx="11" ry="11" style="stroke:#A80036;stroke-width:1.0;"/><path d="M30.3,46.5 Q30.5031,46 30.7375,45.75 Q30.9719,45.5 31.2375,45.5 Q31.7063,45.5 32.0031,45.7813 Q32.3,46.0625 32.3,46.7188 L32.3,48.2813 Q32.3,48.9375 32.0188,49.2188 Q31.7375,49.5 31.3,49.5 Q30.9094,49.5 30.6594,49.3281 Q30.4094,49.1563 30.3,48.7031 Q30.2531,48.3906 30.0813,48.2188 Q29.7688,47.8906 29.2063,47.7031 Q28.6438,47.5 28.0813,47.5 Q27.3781,47.5 26.7844,47.7813 Q26.2063,48.0625 25.7531,48.6875 Q25.3,49.3125 25.3,50.1719 L25.3,51.0938 Q25.3,52.125 26.1438,52.8125 Q26.9875,53.5 28.4875,53.5 Q29.3781,53.5 30.0031,53.2969 Q30.3625,53.1875 30.7688,52.8281 Q31.0344,52.625 31.175,52.5625 Q31.3156,52.5 31.4875,52.5 Q31.8156,52.5 32.05,52.7656 Q32.3,53.0156 32.3,53.375 Q32.3,53.7188 31.9563,54.125 Q31.4563,54.7188 30.6594,55.0469 Q29.6125,55.5 28.3313,55.5 Q26.8313,55.5 25.6281,54.9063 Q24.6594,54.4375 23.9719,53.4219 Q23.3,52.4063 23.3,51.2031 L23.3,50.1094 Q23.3,48.8594 23.8938,47.7656 Q24.5031,46.6719 25.55,46.0938 Q26.6125,45.5 27.8,45.5 Q28.5188,45.5 29.1438,45.75 Q29.7688,46 30.3,46.5 Z " fill="#000000"/><text fill="#000000" font-family="sans-serif" font-size="12" lengthAdjust="spacing" textLength="50" x="43.7" y="54.9102">TestType</text><line style="stroke:#A80036;stroke-width:1.5;" x1="8" x2="102" y1="66" y2="66"/><text fill="#000000" font-family="sans-serif" font-size="11" lengthAdjust="spacing" textLength="28" x="13" y="81.4189">-code</text><text fill="#000000" font-family="sans-serif" font-size="11" lengthAdjust="spacing" textLength="57" x="13" y="95.2549">-description</text><text fill="#000000" font-family="sans-serif" font-size="11" lengthAdjust="spacing" textLength="84" x="13" y="109.0908">-collectingMethod</text><!--MD5=[6d9eb9a083ac0654c8b63743033752d3]
link TestType to Company--><path codeLine="9" d="M103.21,66.45 C143.79,59.11 201.76,48.62 240.69,41.57 " fill="none" id="TestType-Company" style="stroke:#A80036;stroke-width:1.0;"/><polygon fill="#000000" points="133.0799,42.0662,142.5038,43.3474,141.4571,37.5635,133.0799,42.0662" style="stroke:#000000;stroke-width:1.0;"/><text fill="#000000" font-family="sans-serif" font-size="13" lengthAdjust="spacing" textLength="53" x="147" y="46.4951">conducts</text><text fill="#000000" font-family="sans-serif" font-size="13" lengthAdjust="spacing" textLength="5" x="110.975" y="79.9255">*</text><text fill="#000000" font-family="sans-serif" font-size="13" lengthAdjust="spacing" textLength="7" x="226.0199" y="57.6866">1</text><!--MD5=[0985ee834cc881275852ed47ce1e01f6]
link TestType to Administrator--><path codeLine="11" d="M103.21,83.55 C140.42,90.28 192.25,99.66 230.61,106.61 " fill="none" id="TestType-Administrator" style="stroke:#A80036;stroke-width:1.0;"/><polygon fill="#000000" points="138.0799,80.2852,146.457,84.7882,147.5039,79.0043,138.0799,80.2852" style="stroke:#000000;stroke-width:1.0;"/><text fill="#000000" font-family="sans-serif" font-size="13" lengthAdjust="spacing" textLength="43" x="152" y="86.4951">creates</text><text fill="#000000" font-family="sans-serif" font-size="13" lengthAdjust="spacing" textLength="5" x="110.975" y="99.6439">*</text><text fill="#000000" font-family="sans-serif" font-size="13" lengthAdjust="spacing" textLength="7" x="216.0326" y="119.942">1</text><!--MD5=[7144ffdeebbe38808f7fb2ce8ac24f7d]
link Administrator to ParameterCategory--><path codeLine="13" d="M336.21,113.21 C367.09,111.01 406.98,107.25 442,101 C451.75,99.26 461.95,97.04 471.93,94.63 " fill="none" id="Administrator-ParameterCategory" style="stroke:#A80036;stroke-width:1.0;"/><polygon fill="#000000" points="366.0462,92.854,375.4063,94.5389,374.6091,88.7154,366.0462,92.854" style="stroke:#000000;stroke-width:1.0;"/><text fill="#000000" font-family="sans-serif" font-size="13" lengthAdjust="spacing" textLength="61" x="380" y="97.4951">created by</text><text fill="#000000" font-family="sans-serif" font-size="13" lengthAdjust="spacing" textLength="7" x="344.1145" y="127.4625">1</text><text fill="#000000" font-family="sans-serif" font-size="13" lengthAdjust="spacing" textLength="5" x="459.0473" y="111.1933">*</text><!--MD5=[93b4f25fb503a8e0e9a46b1d30ff3f44]
link Company to ParameterCategory--><path codeLine="15" d="M326.2,40.68 C365.59,46.99 425.38,56.56 471.81,64 " fill="none" id="Company-ParameterCategory" style="stroke:#A80036;stroke-width:1.0;"/><polygon fill="#000000" points="386.9371,39.9665,378.4706,35.6342,377.5411,41.438,386.9371,39.9665" style="stroke:#000000;stroke-width:1.0;"/><text fill="#000000" font-family="sans-serif" font-size="13" lengthAdjust="spacing" textLength="39" x="391" y="44.4951">adopts</text><text fill="#000000" font-family="sans-serif" font-size="13" lengthAdjust="spacing" textLength="7" x="334.1406" y="56.7426">1</text><text fill="#000000" font-family="sans-serif" font-size="13" lengthAdjust="spacing" textLength="5" x="458.9142" y="77.2131">*</text><!--MD5=[0f06c50815b270c4fdac40b5c444f5b8]
@startuml
hide methods
left to right direction

class Company
class Administrator
class ParameterCategory
class TestType

TestType "*" - - "1" Company : < conducts

TestType "*" - - "1" Administrator : < creates

Administrator "1" - - "*" ParameterCategory : < created by

Company "1" - - "*" ParameterCategory : > adopts

skinparam classAttributeIconSize 0

class Company{
-designation
}

class Administrator{
}

class ParameterCategory{
-code
-description
-nhsID
}

class TestType{
-code
-description
-collectingMethod
}

@enduml

PlantUML version 1.2021.5(Sun Apr 25 12:20:28 BST 2021)
(GPL source distribution)
Java Runtime: OpenJDK Runtime Environment
JVM: OpenJDK 64-Bit Server VM
Default Encoding: Cp1252
Language: pt
Country: PT
--></g></svg>