<?xml version="1.0" encoding="UTF-8" standalone="no"?><svg xmlns="http://www.w3.org/2000/svg" xmlns:xlink="http://www.w3.org/1999/xlink" contentScriptType="application/ecmascript" contentStyleType="text/css" height="456px" preserveAspectRatio="none" style="width:692px;height:456px;" version="1.1" viewBox="0 0 692 456" width="692px" zoomAndPan="magnify"><defs><filter height="300%" id="f17av08t4xaop5" width="300%" x="-1" y="-1"><feGaussianBlur result="blurOut" stdDeviation="2.0"/><feColorMatrix in="blurOut" result="blurOut2" type="matrix" values="0 0 0 0 0 0 0 0 0 0 0 0 0 0 0 0 0 0 .4 0"/><feOffset dx="4.0" dy="4.0" in="blurOut2" result="blurOut3"/><feBlend in="SourceGraphic" in2="blurOut3" mode="normal"/></filter></defs><g><rect fill="#FFFFFF" filter="url(#f17av08t4xaop5)" height="249.1953" style="stroke:#A80036;stroke-width:1.0;" width="10" x="125" y="98.2969"/><rect fill="#FFFFFF" filter="url(#f17av08t4xaop5)" height="29.1328" style="stroke:#A80036;stroke-width:1.0;" width="10" x="626" y="119.4297"/><rect fill="#FFFFFF" filter="url(#f17av08t4xaop5)" height="53.2656" style="stroke:#A80036;stroke-width:1.0;" width="10" x="626" y="177.6953"/><rect fill="#FFFFFF" filter="url(#f17av08t4xaop5)" height="29.1328" style="stroke:#A80036;stroke-width:1.0;" width="10" x="626" y="260.0938"/><rect fill="#FFFFFF" filter="url(#f17av08t4xaop5)" height="29.1328" style="stroke:#A80036;stroke-width:1.0;" width="10" x="626" y="318.3594"/><rect fill="#FFFFFF" filter="url(#f17av08t4xaop5)" height="162.7969" style="stroke:#000000;stroke-width:2.0;" width="668" x="10" y="192.6953"/><line style="stroke:#A80036;stroke-width:1.0;stroke-dasharray:5.0,5.0;" x1="130" x2="130" y1="88.2969" y2="372.4922"/><line style="stroke:#A80036;stroke-width:1.0;stroke-dasharray:5.0,5.0;" x1="631" x2="631" y1="88.2969" y2="372.4922"/><text fill="#000000" font-family="sans-serif" font-size="14" lengthAdjust="spacingAndGlyphs" textLength="214" x="20" y="84.9951">Clinical Chemistry Technologist</text><ellipse cx="130" cy="15" fill="#FEFECE" filter="url(#f17av08t4xaop5)" rx="8" ry="8" style="stroke:#A80036;stroke-width:2.0;"/><path d="M130,23 L130,50 M117,31 L143,31 M130,50 L117,65 M130,50 L143,65 " fill="none" filter="url(#f17av08t4xaop5)" style="stroke:#A80036;stroke-width:2.0;"/><text fill="#000000" font-family="sans-serif" font-size="14" lengthAdjust="spacingAndGlyphs" textLength="214" x="20" y="384.4873">Clinical Chemistry Technologist</text><ellipse cx="130" cy="397.7891" fill="#FEFECE" filter="url(#f17av08t4xaop5)" rx="8" ry="8" style="stroke:#A80036;stroke-width:2.0;"/><path d="M130,405.7891 L130,432.7891 M117,413.7891 L143,413.7891 M130,432.7891 L117,447.7891 M130,432.7891 L143,447.7891 " fill="none" filter="url(#f17av08t4xaop5)" style="stroke:#A80036;stroke-width:2.0;"/><rect fill="#FEFECE" filter="url(#f17av08t4xaop5)" height="30.2969" style="stroke:#A80036;stroke-width:1.5;" width="70" x="594" y="53"/><text fill="#000000" font-family="sans-serif" font-size="14" lengthAdjust="spacingAndGlyphs" textLength="56" x="601" y="72.9951">:System</text><rect fill="#FEFECE" filter="url(#f17av08t4xaop5)" height="30.2969" style="stroke:#A80036;stroke-width:1.5;" width="70" x="594" y="371.4922"/><text fill="#000000" font-family="sans-serif" font-size="14" lengthAdjust="spacingAndGlyphs" textLength="56" x="601" y="391.4873">:System</text><rect fill="#FFFFFF" filter="url(#f17av08t4xaop5)" height="249.1953" style="stroke:#A80036;stroke-width:1.0;" width="10" x="125" y="98.2969"/><rect fill="#FFFFFF" filter="url(#f17av08t4xaop5)" height="29.1328" style="stroke:#A80036;stroke-width:1.0;" width="10" x="626" y="119.4297"/><rect fill="#FFFFFF" filter="url(#f17av08t4xaop5)" height="53.2656" style="stroke:#A80036;stroke-width:1.0;" width="10" x="626" y="177.6953"/><rect fill="#FFFFFF" filter="url(#f17av08t4xaop5)" height="29.1328" style="stroke:#A80036;stroke-width:1.0;" width="10" x="626" y="260.0938"/><rect fill="#FFFFFF" filter="url(#f17av08t4xaop5)" height="29.1328" style="stroke:#A80036;stroke-width:1.0;" width="10" x="626" y="318.3594"/><polygon fill="#A80036" points="614,115.4297,624,119.4297,614,123.4297,618,119.4297" style="stroke:#A80036;stroke-width:1.0;"/><line style="stroke:#A80036;stroke-width:1.0;" x1="135" x2="620" y1="119.4297" y2="119.4297"/><text fill="#000000" font-family="sans-serif" font-size="13" font-weight="bold" lengthAdjust="spacingAndGlyphs" textLength="9" x="142" y="114.3638">1</text><text fill="#000000" font-family="sans-serif" font-size="13" lengthAdjust="spacingAndGlyphs" textLength="372" x="155" y="114.3638">Starts the proccess of recording the results of a given test</text><polygon fill="#A80036" points="146,144.5625,136,148.5625,146,152.5625,142,148.5625" style="stroke:#A80036;stroke-width:1.0;"/><line style="stroke:#A80036;stroke-width:1.0;stroke-dasharray:2.0,2.0;" x1="140" x2="630" y1="148.5625" y2="148.5625"/><text fill="#000000" font-family="sans-serif" font-size="13" font-weight="bold" lengthAdjust="spacingAndGlyphs" textLength="9" x="152" y="143.4966">2</text><text fill="#000000" font-family="sans-serif" font-size="13" lengthAdjust="spacingAndGlyphs" textLength="362" x="165" y="143.4966">Shows list with test types and asks to select one of them</text><polygon fill="#A80036" points="614,173.6953,624,177.6953,614,181.6953,618,177.6953" style="stroke:#A80036;stroke-width:1.0;"/><line style="stroke:#A80036;stroke-width:1.0;" x1="135" x2="620" y1="177.6953" y2="177.6953"/><text fill="#000000" font-family="sans-serif" font-size="13" font-weight="bold" lengthAdjust="spacingAndGlyphs" textLength="9" x="142" y="172.6294">3</text><text fill="#000000" font-family="sans-serif" font-size="13" lengthAdjust="spacingAndGlyphs" textLength="203" x="155" y="172.6294">Selects corresponding test type</text><path d="M10,192.6953 L87,192.6953 L87,199.6953 L77,209.6953 L10,209.6953 L10,192.6953 " fill="#EEEEEE" style="stroke:#000000;stroke-width:1.0;"/><rect fill="none" height="162.7969" style="stroke:#000000;stroke-width:2.0;" width="668" x="10" y="192.6953"/><text fill="#000000" font-family="sans-serif" font-size="13" font-weight="bold" lengthAdjust="spacingAndGlyphs" textLength="32" x="25" y="205.7622">loop</text><text fill="#000000" font-family="sans-serif" font-size="11" font-weight="bold" lengthAdjust="spacingAndGlyphs" textLength="264" x="102" y="204.9058">[for each test parameter being analysed]</text><polygon fill="#A80036" points="146,226.9609,136,230.9609,146,234.9609,142,230.9609" style="stroke:#A80036;stroke-width:1.0;"/><line style="stroke:#A80036;stroke-width:1.0;stroke-dasharray:2.0,2.0;" x1="140" x2="630" y1="230.9609" y2="230.9609"/><text fill="#000000" font-family="sans-serif" font-size="13" font-weight="bold" lengthAdjust="spacingAndGlyphs" textLength="9" x="152" y="225.895">4</text><text fill="#000000" font-family="sans-serif" font-size="13" lengthAdjust="spacingAndGlyphs" textLength="454" x="165" y="225.895">Shows list with test parameters and asks to choose one to be analysed</text><polygon fill="#A80036" points="614,256.0938,624,260.0938,614,264.0938,618,260.0938" style="stroke:#A80036;stroke-width:1.0;"/><line style="stroke:#A80036;stroke-width:1.0;" x1="135" x2="620" y1="260.0938" y2="260.0938"/><text fill="#000000" font-family="sans-serif" font-size="13" font-weight="bold" lengthAdjust="spacingAndGlyphs" textLength="9" x="142" y="255.0278">5</text><text fill="#000000" font-family="sans-serif" font-size="13" lengthAdjust="spacingAndGlyphs" textLength="148" x="155" y="255.0278">Selects test parameter</text><polygon fill="#A80036" points="146,285.2266,136,289.2266,146,293.2266,142,289.2266" style="stroke:#A80036;stroke-width:1.0;"/><line style="stroke:#A80036;stroke-width:1.0;stroke-dasharray:2.0,2.0;" x1="140" x2="630" y1="289.2266" y2="289.2266"/><text fill="#000000" font-family="sans-serif" font-size="13" font-weight="bold" lengthAdjust="spacingAndGlyphs" textLength="9" x="152" y="284.1606">6</text><text fill="#000000" font-family="sans-serif" font-size="13" lengthAdjust="spacingAndGlyphs" textLength="284" x="165" y="284.1606">Requests data (i.e., result, value and metric)</text><polygon fill="#A80036" points="614,314.3594,624,318.3594,614,322.3594,618,318.3594" style="stroke:#A80036;stroke-width:1.0;"/><line style="stroke:#A80036;stroke-width:1.0;" x1="135" x2="620" y1="318.3594" y2="318.3594"/><text fill="#000000" font-family="sans-serif" font-size="13" font-weight="bold" lengthAdjust="spacingAndGlyphs" textLength="9" x="142" y="313.2935">7</text><text fill="#000000" font-family="sans-serif" font-size="13" lengthAdjust="spacingAndGlyphs" textLength="139" x="155" y="313.2935">Types requested data</text><polygon fill="#A80036" points="141,343.4922,131,347.4922,141,351.4922,137,347.4922" style="stroke:#A80036;stroke-width:1.0;"/><line style="stroke:#A80036;stroke-width:1.0;stroke-dasharray:2.0,2.0;" x1="135" x2="630" y1="347.4922" y2="347.4922"/><text fill="#000000" font-family="sans-serif" font-size="13" font-weight="bold" lengthAdjust="spacingAndGlyphs" textLength="9" x="147" y="342.4263">8</text><text fill="#000000" font-family="sans-serif" font-size="13" lengthAdjust="spacingAndGlyphs" textLength="234" x="160" y="342.4263">Informs the success of the operation</text><!--MD5=[410159fbcbbc276ca8c78d9fed4ef30d]
@startuml
autonumber


actor "Clinical Chemistry Technologist" as CCT

participant ":System" as SYST

activate CCT
CCT -> SYST : Starts the proccess of recording the results of a given test
activate SYST
SYST - -> CCT : Shows list with test types and asks to select one of them
deactivate SYST


CCT -> SYST : Selects corresponding test type
activate SYST

loop for each test parameter being analysed

SYST - -> CCT : Shows list with test parameters and asks to choose one to be analysed 
deactivate SYST

CCT -> SYST : Selects test parameter
activate SYST
SYST - -> CCT : Requests data (i.e., result, value and metric)
deactivate SYST

CCT -> SYST : Types requested data
activate SYST
SYST - -> CCT : Informs the success of the operation
deactivate SYST
deactivate CCT

end
@enduml

PlantUML version 1.2020.22(Sun Dec 06 09:36:27 UTC 2020)
(GPL source distribution)
Java Runtime: OpenJDK Runtime Environment
JVM: OpenJDK 64-Bit Server VM
Default Encoding: UTF-8
Language: en
Country: US
--></g></svg>