<?xml version="1.0" encoding="UTF-8" standalone="no"?><svg xmlns="http://www.w3.org/2000/svg" xmlns:xlink="http://www.w3.org/1999/xlink" contentScriptType="application/ecmascript" contentStyleType="text/css" height="485px" preserveAspectRatio="none" style="width:1996px;height:485px;" version="1.1" viewBox="0 0 1996 485" width="1996px" zoomAndPan="magnify"><defs><filter height="300%" id="f17a6vfsaqffqk" width="300%" x="-1" y="-1"><feGaussianBlur result="blurOut" stdDeviation="2.0"/><feColorMatrix in="blurOut" result="blurOut2" type="matrix" values="0 0 0 0 0 0 0 0 0 0 0 0 0 0 0 0 0 0 .4 0"/><feOffset dx="4.0" dy="4.0" in="blurOut2" result="blurOut3"/><feBlend in="SourceGraphic" in2="blurOut3" mode="normal"/></filter></defs><g><!--MD5=[012ee2a8bf3ae2b319009b06f951c2e5]
class ClinicalChemistryTechnologist--><rect codeLine="33" fill="#FEFECE" filter="url(#f17a6vfsaqffqk)" height="137.6328" id="ClinicalChemistryTechnologist" style="stroke:#A80036;stroke-width:1.5;" width="216" x="7" y="101.5"/><ellipse cx="22" cy="117.5" fill="#ADD1B2" rx="11" ry="11" style="stroke:#A80036;stroke-width:1.0;"/><path d="M24.9688,123.1406 Q24.3906,123.4375 23.75,123.5781 Q23.1094,123.7344 22.4063,123.7344 Q19.9063,123.7344 18.5781,122.0938 Q17.2656,120.4375 17.2656,117.3125 Q17.2656,114.1875 18.5781,112.5313 Q19.9063,110.875 22.4063,110.875 Q23.1094,110.875 23.75,111.0313 Q24.4063,111.1875 24.9688,111.4844 L24.9688,114.2031 Q24.3438,113.625 23.75,113.3594 Q23.1563,113.0781 22.5313,113.0781 Q21.1875,113.0781 20.5,114.1563 Q19.8125,115.2188 19.8125,117.3125 Q19.8125,119.4063 20.5,120.4844 Q21.1875,121.5469 22.5313,121.5469 Q23.1563,121.5469 23.75,121.2813 Q24.3438,121 24.9688,120.4219 L24.9688,123.1406 Z " fill="#000000"/><text fill="#000000" font-family="sans-serif" font-size="12" lengthAdjust="spacingAndGlyphs" textLength="184" x="36" y="121.6543">ClinicalChemistryTechnologist</text><line style="stroke:#A80036;stroke-width:1.5;" x1="8" x2="222" y1="133.5" y2="133.5"/><text fill="#000000" font-family="sans-serif" font-size="11" lengthAdjust="spacingAndGlyphs" textLength="36" x="13" y="147.7104">-name</text><text fill="#000000" font-family="sans-serif" font-size="11" lengthAdjust="spacingAndGlyphs" textLength="51" x="13" y="160.5151">-address</text><text fill="#000000" font-family="sans-serif" font-size="11" lengthAdjust="spacingAndGlyphs" textLength="84" x="13" y="173.3198">-phoneNumber</text><text fill="#000000" font-family="sans-serif" font-size="11" lengthAdjust="spacingAndGlyphs" textLength="70" x="13" y="186.1245">-employeeID</text><text fill="#000000" font-family="sans-serif" font-size="11" lengthAdjust="spacingAndGlyphs" textLength="47" x="13" y="198.9292">-orgRole</text><text fill="#000000" font-family="sans-serif" font-size="11" lengthAdjust="spacingAndGlyphs" textLength="35" x="13" y="211.7339">-email</text><text fill="#000000" font-family="sans-serif" font-size="11" lengthAdjust="spacingAndGlyphs" textLength="56" x="13" y="224.5386">-SOCcode</text><line style="stroke:#A80036;stroke-width:1.5;" x1="8" x2="222" y1="231.1328" y2="231.1328"/><!--MD5=[df38be88ccee13e832d6fafd6288a4ca]
class Test--><rect codeLine="44" fill="#FEFECE" filter="url(#f17a6vfsaqffqk)" height="112.0234" id="Test" style="stroke:#A80036;stroke-width:1.5;" width="284" x="409" y="114.5"/><ellipse cx="533.25" cy="130.5" fill="#ADD1B2" rx="11" ry="11" style="stroke:#A80036;stroke-width:1.0;"/><path d="M536.2188,136.1406 Q535.6406,136.4375 535,136.5781 Q534.3594,136.7344 533.6563,136.7344 Q531.1563,136.7344 529.8281,135.0938 Q528.5156,133.4375 528.5156,130.3125 Q528.5156,127.1875 529.8281,125.5313 Q531.1563,123.875 533.6563,123.875 Q534.3594,123.875 535,124.0313 Q535.6563,124.1875 536.2188,124.4844 L536.2188,127.2031 Q535.5938,126.625 535,126.3594 Q534.4063,126.0781 533.7813,126.0781 Q532.4375,126.0781 531.75,127.1563 Q531.0625,128.2188 531.0625,130.3125 Q531.0625,132.4063 531.75,133.4844 Q532.4375,134.5469 533.7813,134.5469 Q534.4063,134.5469 535,134.2813 Q535.5938,134 536.2188,133.4219 L536.2188,136.1406 Z " fill="#000000"/><text fill="#000000" font-family="sans-serif" font-size="12" lengthAdjust="spacingAndGlyphs" textLength="27" x="553.75" y="134.6543">Test</text><line style="stroke:#A80036;stroke-width:1.5;" x1="410" x2="692" y1="146.5" y2="146.5"/><text fill="#000000" font-family="sans-serif" font-size="11" lengthAdjust="spacingAndGlyphs" textLength="31" x="415" y="160.7104">-code</text><text fill="#000000" font-family="sans-serif" font-size="11" lengthAdjust="spacingAndGlyphs" textLength="55" x="415" y="173.5151">-NhsCode</text><text fill="#000000" font-family="sans-serif" font-size="11" lengthAdjust="spacingAndGlyphs" textLength="58" x="415" y="186.3198">-createdAt</text><line style="stroke:#A80036;stroke-width:1.5;" x1="410" x2="692" y1="192.9141" y2="192.9141"/><text fill="#000000" font-family="sans-serif" font-size="11" lengthAdjust="spacingAndGlyphs" textLength="272" x="415" y="207.1245">+addTestResult(parameterCode, result, metric)</text><text fill="#000000" font-family="sans-serif" font-size="11" lengthAdjust="spacingAndGlyphs" textLength="222" x="415" y="219.9292">-getTestParameterFor(parameterCode)</text><!--MD5=[aeb3272166074d8737a70b61b1e71682]
class TestType--><rect codeLine="53" fill="#FEFECE" filter="url(#f17a6vfsaqffqk)" height="99.2188" id="TestType" style="stroke:#A80036;stroke-width:1.5;" width="133" x="1003" y="181"/><ellipse cx="1038.25" cy="197" fill="#ADD1B2" rx="11" ry="11" style="stroke:#A80036;stroke-width:1.0;"/><path d="M1041.2188,202.6406 Q1040.6406,202.9375 1040,203.0781 Q1039.3594,203.2344 1038.6563,203.2344 Q1036.1563,203.2344 1034.8281,201.5938 Q1033.5156,199.9375 1033.5156,196.8125 Q1033.5156,193.6875 1034.8281,192.0313 Q1036.1563,190.375 1038.6563,190.375 Q1039.3594,190.375 1040,190.5313 Q1040.6563,190.6875 1041.2188,190.9844 L1041.2188,193.7031 Q1040.5938,193.125 1040,192.8594 Q1039.4063,192.5781 1038.7813,192.5781 Q1037.4375,192.5781 1036.75,193.6563 Q1036.0625,194.7188 1036.0625,196.8125 Q1036.0625,198.9063 1036.75,199.9844 Q1037.4375,201.0469 1038.7813,201.0469 Q1039.4063,201.0469 1040,200.7813 Q1040.5938,200.5 1041.2188,199.9219 L1041.2188,202.6406 Z " fill="#000000"/><text fill="#000000" font-family="sans-serif" font-size="12" lengthAdjust="spacingAndGlyphs" textLength="56" x="1056.75" y="201.1543">TestType</text><line style="stroke:#A80036;stroke-width:1.5;" x1="1004" x2="1135" y1="213" y2="213"/><text fill="#000000" font-family="sans-serif" font-size="11" lengthAdjust="spacingAndGlyphs" textLength="31" x="1009" y="227.2104">-code</text><text fill="#000000" font-family="sans-serif" font-size="11" lengthAdjust="spacingAndGlyphs" textLength="67" x="1009" y="240.0151">-description</text><text fill="#000000" font-family="sans-serif" font-size="11" lengthAdjust="spacingAndGlyphs" textLength="98" x="1009" y="252.8198">-collectionMethod</text><line style="stroke:#A80036;stroke-width:1.5;" x1="1004" x2="1135" y1="259.4141" y2="259.4141"/><text fill="#000000" font-family="sans-serif" font-size="11" lengthAdjust="spacingAndGlyphs" textLength="121" x="1009" y="273.6245">+getExternalModule()</text><!--MD5=[0f07739f46effee96e095e9c408da841]
class TestParameter--><rect codeLine="60" fill="#FEFECE" filter="url(#f17a6vfsaqffqk)" height="73.6094" id="TestParameter" style="stroke:#A80036;stroke-width:1.5;" width="217" x="961" y="71.5"/><ellipse cx="1018.75" cy="87.5" fill="#ADD1B2" rx="11" ry="11" style="stroke:#A80036;stroke-width:1.0;"/><path d="M1021.7188,93.1406 Q1021.1406,93.4375 1020.5,93.5781 Q1019.8594,93.7344 1019.1563,93.7344 Q1016.6563,93.7344 1015.3281,92.0938 Q1014.0156,90.4375 1014.0156,87.3125 Q1014.0156,84.1875 1015.3281,82.5313 Q1016.6563,80.875 1019.1563,80.875 Q1019.8594,80.875 1020.5,81.0313 Q1021.1563,81.1875 1021.7188,81.4844 L1021.7188,84.2031 Q1021.0938,83.625 1020.5,83.3594 Q1019.9063,83.0781 1019.2813,83.0781 Q1017.9375,83.0781 1017.25,84.1563 Q1016.5625,85.2188 1016.5625,87.3125 Q1016.5625,89.4063 1017.25,90.4844 Q1017.9375,91.5469 1019.2813,91.5469 Q1019.9063,91.5469 1020.5,91.2813 Q1021.0938,91 1021.7188,90.4219 L1021.7188,93.1406 Z " fill="#000000"/><text fill="#000000" font-family="sans-serif" font-size="12" lengthAdjust="spacingAndGlyphs" textLength="93" x="1039.25" y="91.6543">TestParameter</text><line style="stroke:#A80036;stroke-width:1.5;" x1="962" x2="1177" y1="103.5" y2="103.5"/><line style="stroke:#A80036;stroke-width:1.5;" x1="962" x2="1177" y1="111.5" y2="111.5"/><text fill="#000000" font-family="sans-serif" font-size="11" lengthAdjust="spacingAndGlyphs" textLength="95" x="967" y="125.7104">+getParameter()</text><text fill="#000000" font-family="sans-serif" font-size="11" lengthAdjust="spacingAndGlyphs" textLength="205" x="967" y="138.5151">+addResult(result, metric, refValue)</text><!--MD5=[8f188b89eff49accb0f38c057b38a9f2]
class ExternalModule--><rect codeLine="21" fill="#FEFECE" filter="url(#f17a6vfsaqffqk)" height="60.8047" id="ExternalModule" style="stroke:#A80036;stroke-width:1.5;" width="349" x="1392" y="315"/><ellipse cx="1514.25" cy="331" fill="#B4A7E5" rx="11" ry="11" style="stroke:#A80036;stroke-width:1.0;"/><path d="M1510.1719,326.7656 L1510.1719,324.6094 L1517.5625,324.6094 L1517.5625,326.7656 L1515.0938,326.7656 L1515.0938,334.8438 L1517.5625,334.8438 L1517.5625,337 L1510.1719,337 L1510.1719,334.8438 L1512.6406,334.8438 L1512.6406,326.7656 L1510.1719,326.7656 Z " fill="#000000"/><text fill="#000000" font-family="sans-serif" font-size="12" font-style="italic" lengthAdjust="spacingAndGlyphs" textLength="96" x="1534.75" y="335.1543">ExternalModule</text><line style="stroke:#A80036;stroke-width:1.5;" x1="1393" x2="1740" y1="347" y2="347"/><line style="stroke:#A80036;stroke-width:1.5;" x1="1393" x2="1740" y1="355" y2="355"/><text fill="#000000" font-family="sans-serif" font-size="11" lengthAdjust="spacingAndGlyphs" textLength="337" x="1398" y="369.2104">+referenceValue getReferenceValue(Parameter parameter)</text><!--MD5=[1f6362a5c8f21d8d6a0fce68f3a92a4e]
class Parameter--><rect codeLine="65" fill="#FEFECE" filter="url(#f17a6vfsaqffqk)" height="86.4141" id="Parameter" style="stroke:#A80036;stroke-width:1.5;" width="98" x="1517.5" y="141.5"/><ellipse cx="1532.5" cy="157.5" fill="#ADD1B2" rx="11" ry="11" style="stroke:#A80036;stroke-width:1.0;"/><path d="M1535.4688,163.1406 Q1534.8906,163.4375 1534.25,163.5781 Q1533.6094,163.7344 1532.9063,163.7344 Q1530.4063,163.7344 1529.0781,162.0938 Q1527.7656,160.4375 1527.7656,157.3125 Q1527.7656,154.1875 1529.0781,152.5313 Q1530.4063,150.875 1532.9063,150.875 Q1533.6094,150.875 1534.25,151.0313 Q1534.9063,151.1875 1535.4688,151.4844 L1535.4688,154.2031 Q1534.8438,153.625 1534.25,153.3594 Q1533.6563,153.0781 1533.0313,153.0781 Q1531.6875,153.0781 1531,154.1563 Q1530.3125,155.2188 1530.3125,157.3125 Q1530.3125,159.4063 1531,160.4844 Q1531.6875,161.5469 1533.0313,161.5469 Q1533.6563,161.5469 1534.25,161.2813 Q1534.8438,161 1535.4688,160.4219 L1535.4688,163.1406 Z " fill="#000000"/><text fill="#000000" font-family="sans-serif" font-size="12" lengthAdjust="spacingAndGlyphs" textLength="66" x="1546.5" y="161.6543">Parameter</text><line style="stroke:#A80036;stroke-width:1.5;" x1="1518.5" x2="1614.5" y1="173.5" y2="173.5"/><text fill="#000000" font-family="sans-serif" font-size="11" lengthAdjust="spacingAndGlyphs" textLength="31" x="1523.5" y="187.7104">-code</text><text fill="#000000" font-family="sans-serif" font-size="11" lengthAdjust="spacingAndGlyphs" textLength="67" x="1523.5" y="200.5151">-shortName</text><text fill="#000000" font-family="sans-serif" font-size="11" lengthAdjust="spacingAndGlyphs" textLength="67" x="1523.5" y="213.3198">-description</text><line style="stroke:#A80036;stroke-width:1.5;" x1="1518.5" x2="1614.5" y1="219.9141" y2="219.9141"/><!--MD5=[4e608140b854dae633589343bce77383]
class TestParameterResult--><rect codeLine="71" fill="#FEFECE" filter="url(#f17a6vfsaqffqk)" height="99.2188" id="TestParameterResult" style="stroke:#A80036;stroke-width:1.5;" width="278" x="1427.5" y="7"/><ellipse cx="1496.25" cy="23" fill="#ADD1B2" rx="11" ry="11" style="stroke:#A80036;stroke-width:1.0;"/><path d="M1499.2188,28.6406 Q1498.6406,28.9375 1498,29.0781 Q1497.3594,29.2344 1496.6563,29.2344 Q1494.1563,29.2344 1492.8281,27.5938 Q1491.5156,25.9375 1491.5156,22.8125 Q1491.5156,19.6875 1492.8281,18.0313 Q1494.1563,16.375 1496.6563,16.375 Q1497.3594,16.375 1498,16.5313 Q1498.6563,16.6875 1499.2188,16.9844 L1499.2188,19.7031 Q1498.5938,19.125 1498,18.8594 Q1497.4063,18.5781 1496.7813,18.5781 Q1495.4375,18.5781 1494.75,19.6563 Q1494.0625,20.7188 1494.0625,22.8125 Q1494.0625,24.9063 1494.75,25.9844 Q1495.4375,27.0469 1496.7813,27.0469 Q1497.4063,27.0469 1498,26.7813 Q1498.5938,26.5 1499.2188,25.9219 L1499.2188,28.6406 Z " fill="#000000"/><text fill="#000000" font-family="sans-serif" font-size="12" lengthAdjust="spacingAndGlyphs" textLength="132" x="1516.75" y="27.1543">TestParameterResult</text><line style="stroke:#A80036;stroke-width:1.5;" x1="1428.5" x2="1704.5" y1="39" y2="39"/><text fill="#000000" font-family="sans-serif" font-size="11" lengthAdjust="spacingAndGlyphs" textLength="58" x="1433.5" y="53.2104">-createdAt</text><text fill="#000000" font-family="sans-serif" font-size="11" lengthAdjust="spacingAndGlyphs" textLength="34" x="1433.5" y="66.0151">-value</text><text fill="#000000" font-family="sans-serif" font-size="11" lengthAdjust="spacingAndGlyphs" textLength="40" x="1433.5" y="78.8198">-metric</text><line style="stroke:#A80036;stroke-width:1.5;" x1="1428.5" x2="1704.5" y1="85.4141" y2="85.4141"/><text fill="#000000" font-family="sans-serif" font-size="11" lengthAdjust="spacingAndGlyphs" textLength="266" x="1433.5" y="99.6245">+TestParameterResult(value, metric, refValue)</text><!--MD5=[1c357e7e7fdba398bcadd6e61afe49f5]
class ReferenceValue--><rect codeLine="78" fill="#FEFECE" filter="url(#f17a6vfsaqffqk)" height="48" id="ReferenceValue" style="stroke:#A80036;stroke-width:1.5;" width="131" x="1851" y="32.5"/><ellipse cx="1866" cy="48.5" fill="#ADD1B2" rx="11" ry="11" style="stroke:#A80036;stroke-width:1.0;"/><path d="M1868.9688,54.1406 Q1868.3906,54.4375 1867.75,54.5781 Q1867.1094,54.7344 1866.4063,54.7344 Q1863.9063,54.7344 1862.5781,53.0938 Q1861.2656,51.4375 1861.2656,48.3125 Q1861.2656,45.1875 1862.5781,43.5313 Q1863.9063,41.875 1866.4063,41.875 Q1867.1094,41.875 1867.75,42.0313 Q1868.4063,42.1875 1868.9688,42.4844 L1868.9688,45.2031 Q1868.3438,44.625 1867.75,44.3594 Q1867.1563,44.0781 1866.5313,44.0781 Q1865.1875,44.0781 1864.5,45.1563 Q1863.8125,46.2188 1863.8125,48.3125 Q1863.8125,50.4063 1864.5,51.4844 Q1865.1875,52.5469 1866.5313,52.5469 Q1867.1563,52.5469 1867.75,52.2813 Q1868.3438,52 1868.9688,51.4219 L1868.9688,54.1406 Z " fill="#000000"/><text fill="#000000" font-family="sans-serif" font-size="12" lengthAdjust="spacingAndGlyphs" textLength="99" x="1880" y="52.6543">ReferenceValue</text><line style="stroke:#A80036;stroke-width:1.5;" x1="1852" x2="1981" y1="64.5" y2="64.5"/><line style="stroke:#A80036;stroke-width:1.5;" x1="1852" x2="1981" y1="72.5" y2="72.5"/><!--MD5=[0f11f0f60ee567100a99d4d7b98e8e2f]
class ExternalModuleAdapter1--><rect codeLine="25" fill="#FEFECE" filter="url(#f17a6vfsaqffqk)" height="60.8047" id="ExternalModuleAdapter1" style="stroke:#A80036;stroke-width:1.5;" width="349" x="895" y="315"/><ellipse cx="988.25" cy="331" fill="#ADD1B2" rx="11" ry="11" style="stroke:#A80036;stroke-width:1.0;"/><path d="M991.2188,336.6406 Q990.6406,336.9375 990,337.0781 Q989.3594,337.2344 988.6563,337.2344 Q986.1563,337.2344 984.8281,335.5938 Q983.5156,333.9375 983.5156,330.8125 Q983.5156,327.6875 984.8281,326.0313 Q986.1563,324.375 988.6563,324.375 Q989.3594,324.375 990,324.5313 Q990.6563,324.6875 991.2188,324.9844 L991.2188,327.7031 Q990.5938,327.125 990,326.8594 Q989.4063,326.5781 988.7813,326.5781 Q987.4375,326.5781 986.75,327.6563 Q986.0625,328.7188 986.0625,330.8125 Q986.0625,332.9063 986.75,333.9844 Q987.4375,335.0469 988.7813,335.0469 Q989.4063,335.0469 990,334.7813 Q990.5938,334.5 991.2188,333.9219 L991.2188,336.6406 Z " fill="#000000"/><text fill="#000000" font-family="sans-serif" font-size="12" lengthAdjust="spacingAndGlyphs" textLength="154" x="1008.75" y="335.1543">ExternalModuleAdapter1</text><line style="stroke:#A80036;stroke-width:1.5;" x1="896" x2="1243" y1="347" y2="347"/><line style="stroke:#A80036;stroke-width:1.5;" x1="896" x2="1243" y1="355" y2="355"/><text fill="#000000" font-family="sans-serif" font-size="11" lengthAdjust="spacingAndGlyphs" textLength="337" x="901" y="369.2104">+referenceValue getReferenceValue(Parameter parameter)</text><!--MD5=[2191233c03d1d98f88ead7aa4dd76da0]
class ExternalModuleAdapter2--><rect codeLine="29" fill="#FEFECE" filter="url(#f17a6vfsaqffqk)" height="60.8047" id="ExternalModuleAdapter2" style="stroke:#A80036;stroke-width:1.5;" width="349" x="895" y="411"/><ellipse cx="988.25" cy="427" fill="#ADD1B2" rx="11" ry="11" style="stroke:#A80036;stroke-width:1.0;"/><path d="M991.2188,432.6406 Q990.6406,432.9375 990,433.0781 Q989.3594,433.2344 988.6563,433.2344 Q986.1563,433.2344 984.8281,431.5938 Q983.5156,429.9375 983.5156,426.8125 Q983.5156,423.6875 984.8281,422.0313 Q986.1563,420.375 988.6563,420.375 Q989.3594,420.375 990,420.5313 Q990.6563,420.6875 991.2188,420.9844 L991.2188,423.7031 Q990.5938,423.125 990,422.8594 Q989.4063,422.5781 988.7813,422.5781 Q987.4375,422.5781 986.75,423.6563 Q986.0625,424.7188 986.0625,426.8125 Q986.0625,428.9063 986.75,429.9844 Q987.4375,431.0469 988.7813,431.0469 Q989.4063,431.0469 990,430.7813 Q990.5938,430.5 991.2188,429.9219 L991.2188,432.6406 Z " fill="#000000"/><text fill="#000000" font-family="sans-serif" font-size="12" lengthAdjust="spacingAndGlyphs" textLength="154" x="1008.75" y="431.1543">ExternalModuleAdapter2</text><line style="stroke:#A80036;stroke-width:1.5;" x1="896" x2="1243" y1="443" y2="443"/><line style="stroke:#A80036;stroke-width:1.5;" x1="896" x2="1243" y1="451" y2="451"/><text fill="#000000" font-family="sans-serif" font-size="11" lengthAdjust="spacingAndGlyphs" textLength="337" x="901" y="465.2104">+referenceValue getReferenceValue(Parameter parameter)</text><!--MD5=[c2cdc35a6c3e9c49df1db829c2169a58]
link ClinicalChemistryTechnologist to Test--><path codeLine="3" d="M223.0553,170.5 C277.523,170.5 344.3946,170.5 403.5128,170.5 " fill="none" id="ClinicalChemistryTechnologist-to-Test" style="stroke:#A80036;stroke-width:1.0;"/><polygon fill="#A80036" points="408.8438,170.5,399.8438,166.5,403.8438,170.5,399.8438,174.5,408.8438,170.5" style="stroke:#A80036;stroke-width:1.0;"/><polygon fill="#000000" points="263,162.0664,253.9549,159.1275,253.9549,165.0053,263,162.0664" style="stroke:#000000;stroke-width:1.0;"/><text fill="#000000" font-family="sans-serif" font-size="13" lengthAdjust="spacingAndGlyphs" textLength="111" x="267" y="166.5669">records results of</text><text fill="#000000" font-family="sans-serif" font-size="13" lengthAdjust="spacingAndGlyphs" textLength="8" x="230.9342" y="183.1118">1</text><text fill="#000000" font-family="sans-serif" font-size="13" lengthAdjust="spacingAndGlyphs" textLength="7" x="393.8782" y="182.98">*</text><!--MD5=[e981d4f96c4342412d1e68160b30cf70]
link Test to TestType--><path codeLine="5" d="M693.0252,186.9349 C791.747,198.3589 919.1962,213.1071 997.5933,222.1791 " fill="none" id="Test-to-TestType" style="stroke:#A80036;stroke-width:1.0;"/><polygon fill="#A80036" points="1002.6854,222.7683,994.205,217.7601,997.7186,222.1934,993.2852,225.707,1002.6854,222.7683" style="stroke:#A80036;stroke-width:1.0;"/><polygon fill="#000000" points="783.4669,183.6412,774.8196,179.682,774.1439,185.5209,783.4669,183.6412" style="stroke:#000000;stroke-width:1.0;"/><text fill="#000000" font-family="sans-serif" font-size="13" lengthAdjust="spacingAndGlyphs" textLength="26" x="787.5" y="187.5669">is of</text><text fill="#000000" font-family="sans-serif" font-size="13" lengthAdjust="spacingAndGlyphs" textLength="7" x="700.9836" y="200.3137">*</text><text fill="#000000" font-family="sans-serif" font-size="13" lengthAdjust="spacingAndGlyphs" textLength="8" x="986.9401" y="234.8052">1</text><!--MD5=[f24c888dadeb846430474fe80a58922b]
link Test to TestParameter--><path codeLine="6" d="M693.0252,153.5172 C775.6112,143.642 878.3012,131.3627 955.5603,122.1244 " fill="none" id="Test-to-TestParameter" style="stroke:#A80036;stroke-width:1.0;"/><polygon fill="#A80036" points="960.6119,121.5204,951.2006,118.6174,955.6473,122.1141,952.1506,126.5608,960.6119,121.5204" style="stroke:#A80036;stroke-width:1.0;"/><polygon fill="#000000" points="732.9646,124.4728,723.6346,122.6285,724.3325,128.4648,732.9646,124.4728" style="stroke:#000000;stroke-width:1.0;"/><text fill="#000000" font-family="sans-serif" font-size="13" lengthAdjust="spacingAndGlyphs" textLength="127" x="737" y="129.5669">requests analysis of</text><text fill="#000000" font-family="sans-serif" font-size="13" lengthAdjust="spacingAndGlyphs" textLength="8" x="701.011" y="165.0685">1</text><text fill="#000000" font-family="sans-serif" font-size="13" lengthAdjust="spacingAndGlyphs" textLength="23" x="929.8995" y="134.9186">1..*</text><!--MD5=[71e6920dcc27afae8f25537cd5357b5f]
link TestType to ExternalModule--><path codeLine="8" d="M1136.0119,245.8901 C1210.7212,263.1769 1334.0098,291.7045 1429.5443,313.8101 " fill="none" id="TestType-to-ExternalModule" style="stroke:#A80036;stroke-width:1.0;"/><polygon fill="#A80036" points="1434.6453,314.9904,1426.7787,309.0645,1429.774,313.8633,1424.9752,316.8586,1434.6453,314.9904" style="stroke:#A80036;stroke-width:1.0;"/><text fill="#000000" font-family="sans-serif" font-size="13" lengthAdjust="spacingAndGlyphs" textLength="86" x="1275" y="276.5669">makes use of</text><text fill="#000000" font-family="sans-serif" font-size="13" lengthAdjust="spacingAndGlyphs" textLength="7" x="1144.107" y="260.5987">*</text><text fill="#000000" font-family="sans-serif" font-size="13" lengthAdjust="spacingAndGlyphs" textLength="8" x="1396.9271" y="303.7786">1</text><!--MD5=[92e8e476cc9e9004a7125f53a120ec97]
link TestParameter to Parameter--><path codeLine="10" d="M1178.2615,125.1315 C1281.4131,140.9052 1432.16,163.9571 1512.0711,176.1769 " fill="none" id="TestParameter-to-Parameter" style="stroke:#A80036;stroke-width:1.0;"/><polygon fill="#A80036" points="1517.231,176.9659,1508.9393,171.6511,1512.2885,176.2099,1507.7297,179.5591,1517.231,176.9659" style="stroke:#A80036;stroke-width:1.0;"/><text fill="#000000" font-family="sans-serif" font-size="13" lengthAdjust="spacingAndGlyphs" textLength="54" x="1291" y="137.5669">refers to</text><text fill="#000000" font-family="sans-serif" font-size="13" lengthAdjust="spacingAndGlyphs" textLength="7" x="1186.1549" y="138.9135">*</text><text fill="#000000" font-family="sans-serif" font-size="13" lengthAdjust="spacingAndGlyphs" textLength="8" x="1501.4071" y="189.0071">1</text><!--MD5=[0e00e25ac6b8c14659aaff2cf7e5df08]
link TestParameter to TestParameterResult--><path codeLine="11" d="M1178.2615,97.1205 C1249.8247,89.633 1344.2961,79.7487 1422.1293,71.6052 " fill="none" id="TestParameter-to-TestParameterResult" style="stroke:#A80036;stroke-width:1.0;"/><polygon fill="#A80036" points="1427.2316,71.0713,1417.8642,68.0295,1422.2587,71.5916,1418.6967,75.9861,1427.2316,71.0713" style="stroke:#A80036;stroke-width:1.0;"/><text fill="#000000" font-family="sans-serif" font-size="13" lengthAdjust="spacingAndGlyphs" textLength="54" x="1291" y="75.5669">contains</text><text fill="#000000" font-family="sans-serif" font-size="13" lengthAdjust="spacingAndGlyphs" textLength="8" x="1185.8377" y="108.9443">1</text><text fill="#000000" font-family="sans-serif" font-size="13" lengthAdjust="spacingAndGlyphs" textLength="24" x="1395.4318" y="84.274">0..1</text><!--MD5=[52200cc2361fa0ac0481dd6ffcdb824b]
link TestParameterResult to ReferenceValue--><path codeLine="13" d="M1705.5834,56.5 C1753.5935,56.5 1805.3724,56.5 1845.612,56.5 " fill="none" id="TestParameterResult-to-ReferenceValue" style="stroke:#A80036;stroke-width:1.0;"/><polygon fill="#A80036" points="1850.9609,56.5,1841.9609,52.5,1845.9609,56.5,1841.9609,60.5,1850.9609,56.5" style="stroke:#A80036;stroke-width:1.0;"/><text fill="#000000" font-family="sans-serif" font-size="13" lengthAdjust="spacingAndGlyphs" textLength="48" x="1772" y="52.5669">records</text><text fill="#000000" font-family="sans-serif" font-size="13" lengthAdjust="spacingAndGlyphs" textLength="8" x="1713.4083" y="68.9747">1</text><text fill="#000000" font-family="sans-serif" font-size="13" lengthAdjust="spacingAndGlyphs" textLength="8" x="1834.9204" y="69.4418">1</text><!--MD5=[4583d935403064ae9badefc9a5fb28e7]
link ExternalModuleAdapter1 to ExternalModule--><path codeLine="15" d="M1244.0248,345.5 C1290.3067,345.5 1340.3554,345.5 1386.9021,345.5 " fill="none" id="ExternalModuleAdapter1-to-ExternalModule" style="stroke:#A80036;stroke-width:1.0;stroke-dasharray:7.0,7.0;"/><polygon fill="#A80036" points="1391.9759,345.5,1382.9759,341.5,1386.9759,345.5,1382.9759,349.5,1391.9759,345.5" style="stroke:#A80036;stroke-width:1.0;"/><!--MD5=[96b97b575a021f78c1d69f4902851f2b]
link ExternalModuleAdapter2 to ExternalModule--><path codeLine="16" d="M1227.4368,410.9931 C1283.5842,400.1477 1346.8775,387.9221 1403.4448,376.9956 " fill="none" id="ExternalModuleAdapter2-to-ExternalModule" style="stroke:#A80036;stroke-width:1.0;stroke-dasharray:7.0,7.0;"/><polygon fill="#A80036" points="1408.5479,376.0099,1398.9526,373.7894,1403.6386,376.9582,1400.4699,381.6442,1408.5479,376.0099" style="stroke:#A80036;stroke-width:1.0;"/><!--MD5=[eb0bda3843d709360499daf374422e2d]
@startuml
left to right direction

ClinicalChemistryTechnologist "1" - -> "*" Test : > records results of

Test "*" - -> "1" TestType : > is of
Test "1" - -> "1..*" TestParameter : > requests analysis of

TestType "*" - -> "1" ExternalModule : makes use of

TestParameter "*" - -> "1" Parameter : refers to
TestParameter "1" - -> "0..1" TestParameterResult : contains

TestParameterResult "1" - -> "1" ReferenceValue : records

ExternalModuleAdapter1 ..> ExternalModule
ExternalModuleAdapter2 ..> ExternalModule 


skinparam classAttributeIconSize 0

interface ExternalModule{
+referenceValue getReferenceValue(Parameter parameter)
}

class ExternalModuleAdapter1{
+referenceValue getReferenceValue(Parameter parameter)  
}

class ExternalModuleAdapter2{
+referenceValue getReferenceValue(Parameter parameter)  
}

class ClinicalChemistryTechnologist{
-name
-address
-phoneNumber
-employeeID
-orgRole
-email
-SOCcode
}


class Test{
-code
-NhsCode
-createdAt
+addTestResult(parameterCode, result, metric)
-getTestParameterFor(parameterCode)
}


class TestType{
-code
-description
-collectionMethod
+getExternalModule()
}

class TestParameter{
+getParameter()
+addResult(result, metric, refValue)
}

class Parameter{
-code
-shortName
-description
}

class TestParameterResult{
-createdAt
-value
-metric
+TestParameterResult(value, metric, refValue)
}

class ReferenceValue{
  
}
@enduml

PlantUML version 1.2020.22(Sun Dec 06 09:36:27 UTC 2020)
(GPL source distribution)
Java Runtime: OpenJDK Runtime Environment
JVM: OpenJDK 64-Bit Server VM
Default Encoding: UTF-8
Language: en
Country: US
--></g></svg>