<?xml version="1.0" encoding="UTF-8" standalone="no"?><svg xmlns="http://www.w3.org/2000/svg" xmlns:xlink="http://www.w3.org/1999/xlink" contentScriptType="application/ecmascript" contentStyleType="text/css" height="249px" preserveAspectRatio="none" style="width:1341px;height:249px;" version="1.1" viewBox="0 0 1341 249" width="1341px" zoomAndPan="magnify"><defs><filter height="300%" id="f1tltpn9t1sj5h" width="300%" x="-1" y="-1"><feGaussianBlur result="blurOut" stdDeviation="2.0"/><feColorMatrix in="blurOut" result="blurOut2" type="matrix" values="0 0 0 0 0 0 0 0 0 0 0 0 0 0 0 0 0 0 .4 0"/><feOffset dx="4.0" dy="4.0" in="blurOut2" result="blurOut3"/><feBlend in="SourceGraphic" in2="blurOut3" mode="normal"/></filter></defs><g><!--MD5=[012ee2a8bf3ae2b319009b06f951c2e5]
class ClinicalChemistryTechnologist--><rect codeLine="17" fill="#FEFECE" filter="url(#f1tltpn9t1sj5h)" height="129.6328" id="ClinicalChemistryTechnologist" style="stroke:#A80036;stroke-width:1.5;" width="216" x="7" y="28"/><ellipse cx="22" cy="44" fill="#ADD1B2" rx="11" ry="11" style="stroke:#A80036;stroke-width:1.0;"/><path d="M24.9688,49.6406 Q24.3906,49.9375 23.75,50.0781 Q23.1094,50.2344 22.4063,50.2344 Q19.9063,50.2344 18.5781,48.5938 Q17.2656,46.9375 17.2656,43.8125 Q17.2656,40.6875 18.5781,39.0313 Q19.9063,37.375 22.4063,37.375 Q23.1094,37.375 23.75,37.5313 Q24.4063,37.6875 24.9688,37.9844 L24.9688,40.7031 Q24.3438,40.125 23.75,39.8594 Q23.1563,39.5781 22.5313,39.5781 Q21.1875,39.5781 20.5,40.6563 Q19.8125,41.7188 19.8125,43.8125 Q19.8125,45.9063 20.5,46.9844 Q21.1875,48.0469 22.5313,48.0469 Q23.1563,48.0469 23.75,47.7813 Q24.3438,47.5 24.9688,46.9219 L24.9688,49.6406 Z " fill="#000000"/><text fill="#000000" font-family="sans-serif" font-size="12" lengthAdjust="spacingAndGlyphs" textLength="184" x="36" y="48.1543">ClinicalChemistryTechnologist</text><line style="stroke:#A80036;stroke-width:1.5;" x1="8" x2="222" y1="60" y2="60"/><text fill="#000000" font-family="sans-serif" font-size="11" lengthAdjust="spacingAndGlyphs" textLength="36" x="13" y="74.2104">-name</text><text fill="#000000" font-family="sans-serif" font-size="11" lengthAdjust="spacingAndGlyphs" textLength="51" x="13" y="87.0151">-address</text><text fill="#000000" font-family="sans-serif" font-size="11" lengthAdjust="spacingAndGlyphs" textLength="84" x="13" y="99.8198">-phoneNumber</text><text fill="#000000" font-family="sans-serif" font-size="11" lengthAdjust="spacingAndGlyphs" textLength="70" x="13" y="112.6245">-employeeID</text><text fill="#000000" font-family="sans-serif" font-size="11" lengthAdjust="spacingAndGlyphs" textLength="47" x="13" y="125.4292">-orgRole</text><text fill="#000000" font-family="sans-serif" font-size="11" lengthAdjust="spacingAndGlyphs" textLength="35" x="13" y="138.2339">-email</text><text fill="#000000" font-family="sans-serif" font-size="11" lengthAdjust="spacingAndGlyphs" textLength="56" x="13" y="151.0386">-SOCcode</text><!--MD5=[df38be88ccee13e832d6fafd6288a4ca]
class Test--><rect codeLine="28" fill="#FEFECE" filter="url(#f1tltpn9t1sj5h)" height="78.4141" id="Test" style="stroke:#A80036;stroke-width:1.5;" width="70" x="409" y="54"/><ellipse cx="428.95" cy="70" fill="#ADD1B2" rx="11" ry="11" style="stroke:#A80036;stroke-width:1.0;"/><path d="M431.9188,75.6406 Q431.3406,75.9375 430.7,76.0781 Q430.0594,76.2344 429.3563,76.2344 Q426.8563,76.2344 425.5281,74.5938 Q424.2156,72.9375 424.2156,69.8125 Q424.2156,66.6875 425.5281,65.0313 Q426.8563,63.375 429.3563,63.375 Q430.0594,63.375 430.7,63.5313 Q431.3563,63.6875 431.9188,63.9844 L431.9188,66.7031 Q431.2938,66.125 430.7,65.8594 Q430.1063,65.5781 429.4813,65.5781 Q428.1375,65.5781 427.45,66.6563 Q426.7625,67.7188 426.7625,69.8125 Q426.7625,71.9063 427.45,72.9844 Q428.1375,74.0469 429.4813,74.0469 Q430.1063,74.0469 430.7,73.7813 Q431.2938,73.5 431.9188,72.9219 L431.9188,75.6406 Z " fill="#000000"/><text fill="#000000" font-family="sans-serif" font-size="12" lengthAdjust="spacingAndGlyphs" textLength="27" x="444.05" y="74.1543">Test</text><line style="stroke:#A80036;stroke-width:1.5;" x1="410" x2="478" y1="86" y2="86"/><text fill="#000000" font-family="sans-serif" font-size="11" lengthAdjust="spacingAndGlyphs" textLength="31" x="415" y="100.2104">-code</text><text fill="#000000" font-family="sans-serif" font-size="11" lengthAdjust="spacingAndGlyphs" textLength="55" x="415" y="113.0151">-NhsCode</text><text fill="#000000" font-family="sans-serif" font-size="11" lengthAdjust="spacingAndGlyphs" textLength="58" x="415" y="125.8198">-createdAt</text><!--MD5=[aeb3272166074d8737a70b61b1e71682]
class TestType--><rect codeLine="37" fill="#FEFECE" filter="url(#f1tltpn9t1sj5h)" height="78.4141" id="TestType" style="stroke:#A80036;stroke-width:1.5;" width="110" x="688.5" y="7"/><ellipse cx="713.4" cy="23" fill="#ADD1B2" rx="11" ry="11" style="stroke:#A80036;stroke-width:1.0;"/><path d="M716.3688,28.6406 Q715.7906,28.9375 715.15,29.0781 Q714.5094,29.2344 713.8063,29.2344 Q711.3063,29.2344 709.9781,27.5938 Q708.6656,25.9375 708.6656,22.8125 Q708.6656,19.6875 709.9781,18.0313 Q711.3063,16.375 713.8063,16.375 Q714.5094,16.375 715.15,16.5313 Q715.8063,16.6875 716.3688,16.9844 L716.3688,19.7031 Q715.7438,19.125 715.15,18.8594 Q714.5563,18.5781 713.9313,18.5781 Q712.5875,18.5781 711.9,19.6563 Q711.2125,20.7188 711.2125,22.8125 Q711.2125,24.9063 711.9,25.9844 Q712.5875,27.0469 713.9313,27.0469 Q714.5563,27.0469 715.15,26.7813 Q715.7438,26.5 716.3688,25.9219 L716.3688,28.6406 Z " fill="#000000"/><text fill="#000000" font-family="sans-serif" font-size="12" lengthAdjust="spacingAndGlyphs" textLength="56" x="729.6" y="27.1543">TestType</text><line style="stroke:#A80036;stroke-width:1.5;" x1="689.5" x2="797.5" y1="39" y2="39"/><text fill="#000000" font-family="sans-serif" font-size="11" lengthAdjust="spacingAndGlyphs" textLength="31" x="694.5" y="53.2104">-code</text><text fill="#000000" font-family="sans-serif" font-size="11" lengthAdjust="spacingAndGlyphs" textLength="67" x="694.5" y="66.0151">-description</text><text fill="#000000" font-family="sans-serif" font-size="11" lengthAdjust="spacingAndGlyphs" textLength="98" x="694.5" y="78.8198">-collectionMethod</text><!--MD5=[0f07739f46effee96e095e9c408da841]
class TestParameter--><rect codeLine="44" fill="#FEFECE" filter="url(#f1tltpn9t1sj5h)" height="40" id="TestParameter" style="stroke:#A80036;stroke-width:1.5;" width="125" x="681" y="120"/><ellipse cx="696" cy="136" fill="#ADD1B2" rx="11" ry="11" style="stroke:#A80036;stroke-width:1.0;"/><path d="M698.9688,141.6406 Q698.3906,141.9375 697.75,142.0781 Q697.1094,142.2344 696.4063,142.2344 Q693.9063,142.2344 692.5781,140.5938 Q691.2656,138.9375 691.2656,135.8125 Q691.2656,132.6875 692.5781,131.0313 Q693.9063,129.375 696.4063,129.375 Q697.1094,129.375 697.75,129.5313 Q698.4063,129.6875 698.9688,129.9844 L698.9688,132.7031 Q698.3438,132.125 697.75,131.8594 Q697.1563,131.5781 696.5313,131.5781 Q695.1875,131.5781 694.5,132.6563 Q693.8125,133.7188 693.8125,135.8125 Q693.8125,137.9063 694.5,138.9844 Q695.1875,140.0469 696.5313,140.0469 Q697.1563,140.0469 697.75,139.7813 Q698.3438,139.5 698.9688,138.9219 L698.9688,141.6406 Z " fill="#000000"/><text fill="#000000" font-family="sans-serif" font-size="12" lengthAdjust="spacingAndGlyphs" textLength="93" x="710" y="140.1543">TestParameter</text><line style="stroke:#A80036;stroke-width:1.5;" x1="682" x2="805" y1="152" y2="152"/><!--MD5=[1f6362a5c8f21d8d6a0fce68f3a92a4e]
class Parameter--><rect codeLine="49" fill="#FEFECE" filter="url(#f1tltpn9t1sj5h)" height="78.4141" id="Parameter" style="stroke:#A80036;stroke-width:1.5;" width="98" x="955" y="44"/><ellipse cx="970" cy="60" fill="#ADD1B2" rx="11" ry="11" style="stroke:#A80036;stroke-width:1.0;"/><path d="M972.9688,65.6406 Q972.3906,65.9375 971.75,66.0781 Q971.1094,66.2344 970.4063,66.2344 Q967.9063,66.2344 966.5781,64.5938 Q965.2656,62.9375 965.2656,59.8125 Q965.2656,56.6875 966.5781,55.0313 Q967.9063,53.375 970.4063,53.375 Q971.1094,53.375 971.75,53.5313 Q972.4063,53.6875 972.9688,53.9844 L972.9688,56.7031 Q972.3438,56.125 971.75,55.8594 Q971.1563,55.5781 970.5313,55.5781 Q969.1875,55.5781 968.5,56.6563 Q967.8125,57.7188 967.8125,59.8125 Q967.8125,61.9063 968.5,62.9844 Q969.1875,64.0469 970.5313,64.0469 Q971.1563,64.0469 971.75,63.7813 Q972.3438,63.5 972.9688,62.9219 L972.9688,65.6406 Z " fill="#000000"/><text fill="#000000" font-family="sans-serif" font-size="12" lengthAdjust="spacingAndGlyphs" textLength="66" x="984" y="64.1543">Parameter</text><line style="stroke:#A80036;stroke-width:1.5;" x1="956" x2="1052" y1="76" y2="76"/><text fill="#000000" font-family="sans-serif" font-size="11" lengthAdjust="spacingAndGlyphs" textLength="31" x="961" y="90.2104">-code</text><text fill="#000000" font-family="sans-serif" font-size="11" lengthAdjust="spacingAndGlyphs" textLength="67" x="961" y="103.0151">-shortName</text><text fill="#000000" font-family="sans-serif" font-size="11" lengthAdjust="spacingAndGlyphs" textLength="67" x="961" y="115.8198">-description</text><!--MD5=[4e608140b854dae633589343bce77383]
class TestParameterResult--><rect codeLine="55" fill="#FEFECE" filter="url(#f1tltpn9t1sj5h)" height="78.4141" id="TestParameterResult" style="stroke:#A80036;stroke-width:1.5;" width="164" x="922" y="157"/><ellipse cx="937" cy="173" fill="#ADD1B2" rx="11" ry="11" style="stroke:#A80036;stroke-width:1.0;"/><path d="M939.9688,178.6406 Q939.3906,178.9375 938.75,179.0781 Q938.1094,179.2344 937.4063,179.2344 Q934.9063,179.2344 933.5781,177.5938 Q932.2656,175.9375 932.2656,172.8125 Q932.2656,169.6875 933.5781,168.0313 Q934.9063,166.375 937.4063,166.375 Q938.1094,166.375 938.75,166.5313 Q939.4063,166.6875 939.9688,166.9844 L939.9688,169.7031 Q939.3438,169.125 938.75,168.8594 Q938.1563,168.5781 937.5313,168.5781 Q936.1875,168.5781 935.5,169.6563 Q934.8125,170.7188 934.8125,172.8125 Q934.8125,174.9063 935.5,175.9844 Q936.1875,177.0469 937.5313,177.0469 Q938.1563,177.0469 938.75,176.7813 Q939.3438,176.5 939.9688,175.9219 L939.9688,178.6406 Z " fill="#000000"/><text fill="#000000" font-family="sans-serif" font-size="12" lengthAdjust="spacingAndGlyphs" textLength="132" x="951" y="177.1543">TestParameterResult</text><line style="stroke:#A80036;stroke-width:1.5;" x1="923" x2="1085" y1="189" y2="189"/><text fill="#000000" font-family="sans-serif" font-size="11" lengthAdjust="spacingAndGlyphs" textLength="58" x="928" y="203.2104">-createdAt</text><text fill="#000000" font-family="sans-serif" font-size="11" lengthAdjust="spacingAndGlyphs" textLength="34" x="928" y="216.0151">-value</text><text fill="#000000" font-family="sans-serif" font-size="11" lengthAdjust="spacingAndGlyphs" textLength="40" x="928" y="228.8198">-metric</text><!--MD5=[1c357e7e7fdba398bcadd6e61afe49f5]
class ReferenceValue--><rect codeLine="62" fill="#FEFECE" filter="url(#f1tltpn9t1sj5h)" height="40" id="ReferenceValue" style="stroke:#A80036;stroke-width:1.5;" width="131" x="1196" y="176"/><ellipse cx="1211" cy="192" fill="#ADD1B2" rx="11" ry="11" style="stroke:#A80036;stroke-width:1.0;"/><path d="M1213.9688,197.6406 Q1213.3906,197.9375 1212.75,198.0781 Q1212.1094,198.2344 1211.4063,198.2344 Q1208.9063,198.2344 1207.5781,196.5938 Q1206.2656,194.9375 1206.2656,191.8125 Q1206.2656,188.6875 1207.5781,187.0313 Q1208.9063,185.375 1211.4063,185.375 Q1212.1094,185.375 1212.75,185.5313 Q1213.4063,185.6875 1213.9688,185.9844 L1213.9688,188.7031 Q1213.3438,188.125 1212.75,187.8594 Q1212.1563,187.5781 1211.5313,187.5781 Q1210.1875,187.5781 1209.5,188.6563 Q1208.8125,189.7188 1208.8125,191.8125 Q1208.8125,193.9063 1209.5,194.9844 Q1210.1875,196.0469 1211.5313,196.0469 Q1212.1563,196.0469 1212.75,195.7813 Q1213.3438,195.5 1213.9688,194.9219 L1213.9688,197.6406 Z " fill="#000000"/><text fill="#000000" font-family="sans-serif" font-size="12" lengthAdjust="spacingAndGlyphs" textLength="99" x="1225" y="196.1543">ReferenceValue</text><line style="stroke:#A80036;stroke-width:1.5;" x1="1197" x2="1326" y1="208" y2="208"/><!--MD5=[c2cdc35a6c3e9c49df1db829c2169a58]
link ClinicalChemistryTechnologist to Test--><path codeLine="5" d="M223.1826,93 C285.0381,93 358.9755,93 403.6693,93 " fill="none" id="ClinicalChemistryTechnologist-to-Test" style="stroke:#A80036;stroke-width:1.0;"/><polygon fill="#A80036" points="408.704,93,399.704,89,403.704,93,399.704,97,408.704,93" style="stroke:#A80036;stroke-width:1.0;"/><polygon fill="#000000" points="263,84.5664,253.9549,81.6275,253.9549,87.5053,263,84.5664" style="stroke:#000000;stroke-width:1.0;"/><text fill="#000000" font-family="sans-serif" font-size="13" lengthAdjust="spacingAndGlyphs" textLength="111" x="267" y="89.0669">records results of</text><text fill="#000000" font-family="sans-serif" font-size="13" lengthAdjust="spacingAndGlyphs" textLength="8" x="231.0704" y="105.6118">1</text><text fill="#000000" font-family="sans-serif" font-size="13" lengthAdjust="spacingAndGlyphs" textLength="7" x="394.066" y="106.5158">*</text><!--MD5=[e981d4f96c4342412d1e68160b30cf70]
link Test to TestType--><path codeLine="7" d="M479.2372,87.4703 C529.3961,79.5989 622.0714,65.0556 683.2566,55.4539 " fill="none" id="Test-to-TestType" style="stroke:#A80036;stroke-width:1.0;"/><polygon fill="#A80036" points="688.3405,54.6561,678.8291,52.1,683.401,55.4314,680.0696,60.0032,688.3405,54.6561" style="stroke:#A80036;stroke-width:1.0;"/><polygon fill="#000000" points="569.4395,52.7913,560.0482,51.2901,560.9594,57.0969,569.4395,52.7913" style="stroke:#000000;stroke-width:1.0;"/><text fill="#000000" font-family="sans-serif" font-size="13" lengthAdjust="spacingAndGlyphs" textLength="26" x="573.5" y="58.0669">is of</text><text fill="#000000" font-family="sans-serif" font-size="13" lengthAdjust="spacingAndGlyphs" textLength="7" x="487.2267" y="81.8208">*</text><text fill="#000000" font-family="sans-serif" font-size="13" lengthAdjust="spacingAndGlyphs" textLength="8" x="672.3909" y="68.8751">1</text><!--MD5=[f24c888dadeb846430474fe80a58922b]
link Test to TestParameter--><path codeLine="8" d="M479.3299,101.0953 C488.9283,103.1617 499.3396,105.2822 509,107 C564.8486,116.9307 628.6133,125.7426 675.5388,131.7571 " fill="none" id="Test-to-TestParameter" style="stroke:#A80036;stroke-width:1.0;"/><polygon fill="#A80036" points="680.6,132.4033,672.1791,127.2956,675.6403,131.77,671.1659,135.2312,680.6,132.4033" style="stroke:#A80036;stroke-width:1.0;"/><polygon fill="#000000" points="518.94,99.3384,510.4572,95.0382,509.5497,100.8455,518.94,99.3384" style="stroke:#000000;stroke-width:1.0;"/><text fill="#000000" font-family="sans-serif" font-size="13" lengthAdjust="spacingAndGlyphs" textLength="127" x="523" y="103.0669">requests analysis of</text><text fill="#000000" font-family="sans-serif" font-size="13" lengthAdjust="spacingAndGlyphs" textLength="8" x="487.073" y="116.2048">1</text><text fill="#000000" font-family="sans-serif" font-size="13" lengthAdjust="spacingAndGlyphs" textLength="23" x="649.9275" y="144.4671">1..*</text><!--MD5=[92e8e476cc9e9004a7125f53a120ec97]
link TestParameter to Parameter--><path codeLine="10" d="M806.2277,126.2745 C850.0625,116.6831 908.0003,104.0057 949.8249,94.8541 " fill="none" id="TestParameter-to-Parameter" style="stroke:#A80036;stroke-width:1.0;"/><polygon fill="#A80036" points="954.8435,93.7559,945.1965,91.7723,949.9591,94.8248,946.9066,99.5874,954.8435,93.7559" style="stroke:#A80036;stroke-width:1.0;"/><text fill="#000000" font-family="sans-serif" font-size="13" lengthAdjust="spacingAndGlyphs" textLength="54" x="837" y="105.0669">refers to</text><text fill="#000000" font-family="sans-serif" font-size="13" lengthAdjust="spacingAndGlyphs" textLength="7" x="813.8853" y="137.6292">*</text><text fill="#000000" font-family="sans-serif" font-size="13" lengthAdjust="spacingAndGlyphs" textLength="8" x="939.0361" y="108.4835">1</text><!--MD5=[0e00e25ac6b8c14659aaff2cf7e5df08]
link TestParameter to TestParameterResult--><path codeLine="11" d="M806.2277,153.4847 C839.2312,160.5794 880.2291,169.3928 916.3253,177.1525 " fill="none" id="TestParameter-to-TestParameterResult" style="stroke:#A80036;stroke-width:1.0;"/><polygon fill="#A80036" points="921.6139,178.2894,913.6556,172.4872,916.7256,177.2386,911.9742,180.3086,921.6139,178.2894" style="stroke:#A80036;stroke-width:1.0;"/><text fill="#000000" font-family="sans-serif" font-size="13" lengthAdjust="spacingAndGlyphs" textLength="54" x="837" y="158.0669">contains</text><text fill="#000000" font-family="sans-serif" font-size="13" lengthAdjust="spacingAndGlyphs" textLength="8" x="813.9431" y="167.9856">1</text><text fill="#000000" font-family="sans-serif" font-size="13" lengthAdjust="spacingAndGlyphs" textLength="24" x="890.0925" y="189.5314">0..1</text><!--MD5=[52200cc2361fa0ac0481dd6ffcdb824b]
link TestParameterResult to ReferenceValue--><path codeLine="13" d="M1086.1826,196 C1119.8531,196 1158.4343,196 1190.8164,196 " fill="none" id="TestParameterResult-to-ReferenceValue" style="stroke:#A80036;stroke-width:1.0;"/><polygon fill="#A80036" points="1195.9585,196,1186.9585,192,1190.9585,196,1186.9585,200,1195.9585,196" style="stroke:#A80036;stroke-width:1.0;"/><text fill="#000000" font-family="sans-serif" font-size="13" lengthAdjust="spacingAndGlyphs" textLength="48" x="1117" y="192.0669">records</text><text fill="#000000" font-family="sans-serif" font-size="13" lengthAdjust="spacingAndGlyphs" textLength="8" x="1094.1276" y="208.7453">1</text><text fill="#000000" font-family="sans-serif" font-size="13" lengthAdjust="spacingAndGlyphs" textLength="8" x="1179.9178" y="208.9418">1</text><!--MD5=[58a20d47a3de5b6a280abf081bafcdba]
@startuml
hide methods
left to right direction


ClinicalChemistryTechnologist "1" - -> "*" Test : > records results of

Test "*" - -> "1" TestType : > is of
Test "1" - -> "1..*" TestParameter : > requests analysis of

TestParameter "*" - -> "1" Parameter : refers to
TestParameter "1" - -> "0..1" TestParameterResult : contains

TestParameterResult "1" - -> "1" ReferenceValue : records

skinparam classAttributeIconSize 0

class ClinicalChemistryTechnologist{
-name
-address
-phoneNumber
-employeeID
-orgRole
-email
-SOCcode
}


class Test{
-code
-NhsCode
-createdAt
+addTestResult(parameterCode, result, metric)
-getTestParameterFor(parameterCode)
}


class TestType{
-code
-description
-collectionMethod
+getExternalModule()
}

class TestParameter{
+getParameter()
+addResult(result, metric, refValue)
}

class Parameter{
-code
-shortName
-description
}

class TestParameterResult{
-createdAt
-value
-metric
+TestParameterResult(value, metric, refValue)
}

class ReferenceValue{
  
}
@enduml

PlantUML version 1.2020.22(Sun Dec 06 09:36:27 UTC 2020)
(GPL source distribution)
Java Runtime: OpenJDK Runtime Environment
JVM: OpenJDK 64-Bit Server VM
Default Encoding: UTF-8
Language: en
Country: US
--></g></svg>