<?xml version="1.0" encoding="UTF-8" standalone="no"?><svg xmlns="http://www.w3.org/2000/svg" xmlns:xlink="http://www.w3.org/1999/xlink" contentScriptType="application/ecmascript" contentStyleType="text/css" height="657.5px" preserveAspectRatio="none" style="width:1213px;height:657px;background:#FFFFFF;" version="1.1" viewBox="0 0 1213 657" width="1213.75px" zoomAndPan="magnify"><defs><filter height="300%" id="fbsqehyg5inu3" width="300%" x="-1" y="-1"><feGaussianBlur result="blurOut" stdDeviation="2.5"/><feColorMatrix in="blurOut" result="blurOut2" type="matrix" values="0 0 0 0 0 0 0 0 0 0 0 0 0 0 0 0 0 0 .4 0"/><feOffset dx="5.0" dy="5.0" in="blurOut2" result="blurOut3"/><feBlend in="SourceGraphic" in2="blurOut3" mode="normal"/></filter></defs><g><!--MD5=[9681dc6e01e10c6b4fe06895ae94f592]
cluster UI--><polygon fill="#FFFFFF" filter="url(#fbsqehyg5inu3)" points="615,7.5,640,7.5,648.75,37.0117,800,37.0117,800,132.5,615,132.5,615,7.5" style="stroke:#000000;stroke-width:1.875;"/><line style="stroke:#000000;stroke-width:1.875;" x1="615" x2="648.75" y1="37.0117" y2="37.0117"/><text fill="#000000" font-family="sans-serif" font-size="17.5" font-weight="bold" lengthAdjust="spacing" textLength="17.5" x="620" y="28.1665">UI</text><!--MD5=[2c2e2644034c00788261e03c85b06837]
cluster Core--><polygon fill="#FFFFFF" filter="url(#fbsqehyg5inu3)" points="20,162.5,70,162.5,78.75,192.0117,1192.5,192.0117,1192.5,648.75,20,648.75,20,162.5" style="stroke:#000000;stroke-width:1.875;"/><line style="stroke:#000000;stroke-width:1.875;" x1="20" x2="78.75" y1="192.0117" y2="192.0117"/><text fill="#000000" font-family="sans-serif" font-size="17.5" font-weight="bold" lengthAdjust="spacing" textLength="42.5" x="25" y="183.1665">Core</text><!--MD5=[ed1d20ea533a2a0e7df5ba3c35e56ced]
cluster Controllers--><polygon fill="#FFFFFF" filter="url(#fbsqehyg5inu3)" points="523.75,217.5,630,217.5,638.75,247.0117,891.25,247.0117,891.25,411.25,523.75,411.25,523.75,217.5" style="stroke:#000000;stroke-width:1.875;"/><line style="stroke:#000000;stroke-width:1.875;" x1="523.75" x2="638.75" y1="247.0117" y2="247.0117"/><text fill="#000000" font-family="sans-serif" font-size="17.5" font-weight="bold" lengthAdjust="spacing" textLength="98.75" x="528.75" y="238.1665">Controllers</text><!--MD5=[8dd535d56cd4cf7faf64fdd082ba836e]
cluster Stores--><polygon fill="#FFFFFF" filter="url(#fbsqehyg5inu3)" points="50,441.25,115,441.25,123.75,470.7617,617.5,470.7617,617.5,618.75,50,618.75,50,441.25" style="stroke:#000000;stroke-width:1.875;"/><line style="stroke:#000000;stroke-width:1.875;" x1="50" x2="123.75" y1="470.7617" y2="470.7617"/><text fill="#000000" font-family="sans-serif" font-size="17.5" font-weight="bold" lengthAdjust="spacing" textLength="57.5" x="55" y="461.9165">Stores</text><!--MD5=[15636c1ca4a123c16a2a1a8e90aca7a9]
cluster Model--><polygon fill="#FFFFFF" filter="url(#fbsqehyg5inu3)" points="647.5,441.25,710,441.25,718.75,470.7617,1162.5,470.7617,1162.5,618.75,647.5,618.75,647.5,441.25" style="stroke:#000000;stroke-width:1.875;"/><line style="stroke:#000000;stroke-width:1.875;" x1="647.5" x2="718.75" y1="470.7617" y2="470.7617"/><text fill="#000000" font-family="sans-serif" font-size="17.5" font-weight="bold" lengthAdjust="spacing" textLength="55" x="652.5" y="461.9165">Model</text><!--MD5=[9fb6dac11bbde13a6b7e8c4e5ea77cec]
class PerformanceUI--><rect codeLine="6" fill="#FEFECE" filter="url(#fbsqehyg5inu3)" height="60" id="PerformanceUI" style="stroke:#A80036;stroke-width:1.875;" width="143.75" x="635.625" y="52.5"/><ellipse cx="654.375" cy="72.5" fill="#ADD1B2" rx="13.75" ry="13.75" style="stroke:#A80036;stroke-width:1.25;"/><path d="M656.875,68.125 Q657.1289,67.5 657.4219,67.1875 Q657.7148,66.875 658.0469,66.875 Q658.6328,66.875 659.0039,67.2266 Q659.375,67.5781 659.375,68.3984 L659.375,70.3516 Q659.375,71.1719 659.0234,71.5234 Q658.6719,71.875 658.125,71.875 Q657.6367,71.875 657.3242,71.6602 Q657.0117,71.4453 656.875,70.8789 Q656.8164,70.4883 656.6016,70.2734 Q656.2109,69.8633 655.5078,69.6289 Q654.8047,69.375 654.1016,69.375 Q653.2227,69.375 652.4805,69.7266 Q651.7578,70.0781 651.1914,70.8594 Q650.625,71.6406 650.625,72.7148 L650.625,73.8672 Q650.625,75.1563 651.6797,76.0156 Q652.7344,76.875 654.6094,76.875 Q655.7227,76.875 656.5039,76.6211 Q656.9531,76.4844 657.4609,76.0352 Q657.793,75.7813 657.9688,75.7031 Q658.1445,75.625 658.3594,75.625 Q658.7695,75.625 659.0625,75.957 Q659.375,76.2695 659.375,76.7188 Q659.375,77.1484 658.9453,77.6563 Q658.3203,78.3984 657.3242,78.8086 Q656.0156,79.375 654.4141,79.375 Q652.5391,79.375 651.0352,78.6328 Q649.8242,78.0469 648.9648,76.7773 Q648.125,75.5078 648.125,74.0039 L648.125,72.6367 Q648.125,71.0742 648.8672,69.707 Q649.6289,68.3398 650.9375,67.6172 Q652.2656,66.875 653.75,66.875 Q654.6484,66.875 655.4297,67.1875 Q656.2109,67.5 656.875,68.125 Z " fill="#000000"/><text fill="#000000" font-family="sans-serif" font-size="15" lengthAdjust="spacing" textLength="103.75" x="671.875" y="78.6377">PerformanceUI</text><line style="stroke:#A80036;stroke-width:1.875;" x1="636.875" x2="778.125" y1="92.5" y2="92.5"/><line style="stroke:#A80036;stroke-width:1.875;" x1="636.875" x2="778.125" y1="102.5" y2="102.5"/><!--MD5=[61635451a40aa5589ddd4cd28847754f]
class PerformanceController--><rect codeLine="12" fill="#FEFECE" filter="url(#fbsqehyg5inu3)" height="129.1797" id="PerformanceController" style="stroke:#A80036;stroke-width:1.875;" width="327.5" x="543.75" y="262.5"/><ellipse cx="624.0625" cy="282.5" fill="#ADD1B2" rx="13.75" ry="13.75" style="stroke:#A80036;stroke-width:1.25;"/><path d="M626.5625,278.125 Q626.8164,277.5 627.1094,277.1875 Q627.4023,276.875 627.7344,276.875 Q628.3203,276.875 628.6914,277.2266 Q629.0625,277.5781 629.0625,278.3984 L629.0625,280.3516 Q629.0625,281.1719 628.7109,281.5234 Q628.3594,281.875 627.8125,281.875 Q627.3242,281.875 627.0117,281.6602 Q626.6992,281.4453 626.5625,280.8789 Q626.5039,280.4883 626.2891,280.2734 Q625.8984,279.8633 625.1953,279.6289 Q624.4922,279.375 623.7891,279.375 Q622.9102,279.375 622.168,279.7266 Q621.4453,280.0781 620.8789,280.8594 Q620.3125,281.6406 620.3125,282.7148 L620.3125,283.8672 Q620.3125,285.1563 621.3672,286.0156 Q622.4219,286.875 624.2969,286.875 Q625.4102,286.875 626.1914,286.6211 Q626.6406,286.4844 627.1484,286.0352 Q627.4805,285.7813 627.6563,285.7031 Q627.832,285.625 628.0469,285.625 Q628.457,285.625 628.75,285.957 Q629.0625,286.2695 629.0625,286.7188 Q629.0625,287.1484 628.6328,287.6563 Q628.0078,288.3984 627.0117,288.8086 Q625.7031,289.375 624.1016,289.375 Q622.2266,289.375 620.7227,288.6328 Q619.5117,288.0469 618.6523,286.7773 Q617.8125,285.5078 617.8125,284.0039 L617.8125,282.6367 Q617.8125,281.0742 618.5547,279.707 Q619.3164,278.3398 620.625,277.6172 Q621.9531,276.875 623.4375,276.875 Q624.3359,276.875 625.1172,277.1875 Q625.8984,277.5 626.5625,278.125 Z " fill="#000000"/><text fill="#000000" font-family="sans-serif" font-size="15" lengthAdjust="spacing" textLength="156.25" x="649.6875" y="288.6377">PerformanceController</text><line style="stroke:#A80036;stroke-width:1.875;" x1="545" x2="870" y1="302.5" y2="302.5"/><line style="stroke:#A80036;stroke-width:1.875;" x1="545" x2="870" y1="312.5" y2="312.5"/><text fill="#000000" font-family="sans-serif" font-size="13.75" lengthAdjust="spacing" textLength="91.25" x="551.25" y="331.7737">+getAllClients()</text><text fill="#000000" font-family="sans-serif" font-size="13.75" lengthAdjust="spacing" textLength="291.25" x="551.25" y="349.0686">+getAllTestsWaitResult(beginningDate, endDate)</text><text fill="#000000" font-family="sans-serif" font-size="13.75" lengthAdjust="spacing" textLength="312.5" x="551.25" y="366.3635">+getAllTestsWaitDiagnosis(beginningDate, endDate)</text><text fill="#000000" font-family="sans-serif" font-size="13.75" lengthAdjust="spacing" textLength="283.75" x="551.25" y="383.6584">+getAllTestsValidated(beginningDate, endDate)</text><!--MD5=[55cb992be19579b505cea3c5691093cb]
class ClientStore--><rect codeLine="21" fill="#FEFECE" filter="url(#fbsqehyg5inu3)" height="77.2949" id="ClientStore" style="stroke:#A80036;stroke-width:1.875;" width="151.25" x="445.625" y="503.75"/><ellipse cx="480.125" cy="523.75" fill="#ADD1B2" rx="13.75" ry="13.75" style="stroke:#A80036;stroke-width:1.25;"/><path d="M482.625,519.375 Q482.8789,518.75 483.1719,518.4375 Q483.4648,518.125 483.7969,518.125 Q484.3828,518.125 484.7539,518.4766 Q485.125,518.8281 485.125,519.6484 L485.125,521.6016 Q485.125,522.4219 484.7734,522.7734 Q484.4219,523.125 483.875,523.125 Q483.3867,523.125 483.0742,522.9102 Q482.7617,522.6953 482.625,522.1289 Q482.5664,521.7383 482.3516,521.5234 Q481.9609,521.1133 481.2578,520.8789 Q480.5547,520.625 479.8516,520.625 Q478.9727,520.625 478.2305,520.9766 Q477.5078,521.3281 476.9414,522.1094 Q476.375,522.8906 476.375,523.9648 L476.375,525.1172 Q476.375,526.4063 477.4297,527.2656 Q478.4844,528.125 480.3594,528.125 Q481.4727,528.125 482.2539,527.8711 Q482.7031,527.7344 483.2109,527.2852 Q483.543,527.0313 483.7188,526.9531 Q483.8945,526.875 484.1094,526.875 Q484.5195,526.875 484.8125,527.207 Q485.125,527.5195 485.125,527.9688 Q485.125,528.3984 484.6953,528.9063 Q484.0703,529.6484 483.0742,530.0586 Q481.7656,530.625 480.1641,530.625 Q478.2891,530.625 476.7852,529.8828 Q475.5742,529.2969 474.7148,528.0273 Q473.875,526.7578 473.875,525.2539 L473.875,523.8867 Q473.875,522.3242 474.6172,520.957 Q475.3789,519.5898 476.6875,518.8672 Q478.0156,518.125 479.5,518.125 Q480.3984,518.125 481.1797,518.4375 Q481.9609,518.75 482.625,519.375 Z " fill="#000000"/><text fill="#000000" font-family="sans-serif" font-size="15" lengthAdjust="spacing" textLength="76.25" x="501.125" y="529.8877">ClientStore</text><line style="stroke:#A80036;stroke-width:1.875;" x1="446.875" x2="595.625" y1="543.75" y2="543.75"/><line style="stroke:#A80036;stroke-width:1.875;" x1="446.875" x2="595.625" y1="553.75" y2="553.75"/><text fill="#000000" font-family="sans-serif" font-size="13.75" lengthAdjust="spacing" textLength="136.25" x="453.125" y="573.0237">+getClientListNumber()</text><!--MD5=[0f6f7964b844a64b0496af0dda7914bd]
class TestStore--><rect codeLine="25" fill="#FEFECE" filter="url(#fbsqehyg5inu3)" height="111.8848" id="TestStore" style="stroke:#A80036;stroke-width:1.875;" width="331.25" x="70.625" y="486.25"/><ellipse cx="197.8125" cy="506.25" fill="#ADD1B2" rx="13.75" ry="13.75" style="stroke:#A80036;stroke-width:1.25;"/><path d="M200.3125,501.875 Q200.5664,501.25 200.8594,500.9375 Q201.1523,500.625 201.4844,500.625 Q202.0703,500.625 202.4414,500.9766 Q202.8125,501.3281 202.8125,502.1484 L202.8125,504.1016 Q202.8125,504.9219 202.4609,505.2734 Q202.1094,505.625 201.5625,505.625 Q201.0742,505.625 200.7617,505.4102 Q200.4492,505.1953 200.3125,504.6289 Q200.2539,504.2383 200.0391,504.0234 Q199.6484,503.6133 198.9453,503.3789 Q198.2422,503.125 197.5391,503.125 Q196.6602,503.125 195.918,503.4766 Q195.1953,503.8281 194.6289,504.6094 Q194.0625,505.3906 194.0625,506.4648 L194.0625,507.6172 Q194.0625,508.9063 195.1172,509.7656 Q196.1719,510.625 198.0469,510.625 Q199.1602,510.625 199.9414,510.3711 Q200.3906,510.2344 200.8984,509.7852 Q201.2305,509.5313 201.4063,509.4531 Q201.582,509.375 201.7969,509.375 Q202.207,509.375 202.5,509.707 Q202.8125,510.0195 202.8125,510.4688 Q202.8125,510.8984 202.3828,511.4063 Q201.7578,512.1484 200.7617,512.5586 Q199.4531,513.125 197.8516,513.125 Q195.9766,513.125 194.4727,512.3828 Q193.2617,511.7969 192.4023,510.5273 Q191.5625,509.2578 191.5625,507.7539 L191.5625,506.3867 Q191.5625,504.8242 192.3047,503.457 Q193.0664,502.0898 194.375,501.3672 Q195.7031,500.625 197.1875,500.625 Q198.0859,500.625 198.8672,500.9375 Q199.6484,501.25 200.3125,501.875 Z " fill="#000000"/><text fill="#000000" font-family="sans-serif" font-size="15" lengthAdjust="spacing" textLength="66.25" x="223.4375" y="512.3877">TestStore</text><line style="stroke:#A80036;stroke-width:1.875;" x1="71.875" x2="400.625" y1="526.25" y2="526.25"/><line style="stroke:#A80036;stroke-width:1.875;" x1="71.875" x2="400.625" y1="536.25" y2="536.25"/><text fill="#000000" font-family="sans-serif" font-size="13.75" lengthAdjust="spacing" textLength="313.75" x="78.125" y="555.5237">+getCollectedTestsNumber(beginningDate, endDate)</text><text fill="#000000" font-family="sans-serif" font-size="13.75" lengthAdjust="spacing" textLength="316.25" x="78.125" y="572.8186">+getAnalysedTestsNumber(beginningDate, endDate)</text><text fill="#000000" font-family="sans-serif" font-size="13.75" lengthAdjust="spacing" textLength="315" x="78.125" y="590.1135">+getValidatedTestsNumber(beginningDate, endDate)</text><!--MD5=[02e4b9b7573f1156f41e60aa5b4e25a4]
class Company--><rect codeLine="33" fill="#FEFECE" filter="url(#fbsqehyg5inu3)" height="111.8848" id="Company" style="stroke:#A80036;stroke-width:1.875;" width="127.5" x="1015" y="486.25"/><ellipse cx="1043.3125" cy="506.25" fill="#ADD1B2" rx="13.75" ry="13.75" style="stroke:#A80036;stroke-width:1.25;"/><path d="M1045.8125,501.875 Q1046.0664,501.25 1046.3594,500.9375 Q1046.6523,500.625 1046.9844,500.625 Q1047.5703,500.625 1047.9414,500.9766 Q1048.3125,501.3281 1048.3125,502.1484 L1048.3125,504.1016 Q1048.3125,504.9219 1047.9609,505.2734 Q1047.6094,505.625 1047.0625,505.625 Q1046.5742,505.625 1046.2617,505.4102 Q1045.9492,505.1953 1045.8125,504.6289 Q1045.7539,504.2383 1045.5391,504.0234 Q1045.1484,503.6133 1044.4453,503.3789 Q1043.7422,503.125 1043.0391,503.125 Q1042.1602,503.125 1041.418,503.4766 Q1040.6953,503.8281 1040.1289,504.6094 Q1039.5625,505.3906 1039.5625,506.4648 L1039.5625,507.6172 Q1039.5625,508.9063 1040.6172,509.7656 Q1041.6719,510.625 1043.5469,510.625 Q1044.6602,510.625 1045.4414,510.3711 Q1045.8906,510.2344 1046.3984,509.7852 Q1046.7305,509.5313 1046.9063,509.4531 Q1047.082,509.375 1047.2969,509.375 Q1047.707,509.375 1048,509.707 Q1048.3125,510.0195 1048.3125,510.4688 Q1048.3125,510.8984 1047.8828,511.4063 Q1047.2578,512.1484 1046.2617,512.5586 Q1044.9531,513.125 1043.3516,513.125 Q1041.4766,513.125 1039.9727,512.3828 Q1038.7617,511.7969 1037.9023,510.5273 Q1037.0625,509.2578 1037.0625,507.7539 L1037.0625,506.3867 Q1037.0625,504.8242 1037.8047,503.457 Q1038.5664,502.0898 1039.875,501.3672 Q1041.2031,500.625 1042.6875,500.625 Q1043.5859,500.625 1044.3672,500.9375 Q1045.1484,501.25 1045.8125,501.875 Z " fill="#000000"/><text fill="#000000" font-family="sans-serif" font-size="15" lengthAdjust="spacing" textLength="66.25" x="1062.9375" y="512.3877">Company</text><line style="stroke:#A80036;stroke-width:1.875;" x1="1016.25" x2="1141.25" y1="526.25" y2="526.25"/><text fill="#000000" font-family="sans-serif" font-size="13.75" lengthAdjust="spacing" textLength="112.5" x="1022.5" y="545.5237">-String designation</text><line style="stroke:#A80036;stroke-width:1.875;" x1="1016.25" x2="1141.25" y1="553.5449" y2="553.5449"/><text fill="#000000" font-family="sans-serif" font-size="13.75" lengthAdjust="spacing" textLength="101.25" x="1022.5" y="572.8186">+getClientStore()</text><text fill="#000000" font-family="sans-serif" font-size="13.75" lengthAdjust="spacing" textLength="95" x="1022.5" y="590.1135">+getTestStore()</text><!--MD5=[1dec90c14ec2ba3af2708f621be65d00]
class BruteForceAlgorithm--><rect codeLine="39" fill="#FEFECE" filter="url(#fbsqehyg5inu3)" height="77.2949" id="BruteForceAlgorithm" style="stroke:#A80036;stroke-width:1.875;" width="180" x="791.25" y="503.75"/><ellipse cx="810" cy="523.75" fill="#ADD1B2" rx="13.75" ry="13.75" style="stroke:#A80036;stroke-width:1.25;"/><path d="M812.5,519.375 Q812.7539,518.75 813.0469,518.4375 Q813.3398,518.125 813.6719,518.125 Q814.2578,518.125 814.6289,518.4766 Q815,518.8281 815,519.6484 L815,521.6016 Q815,522.4219 814.6484,522.7734 Q814.2969,523.125 813.75,523.125 Q813.2617,523.125 812.9492,522.9102 Q812.6367,522.6953 812.5,522.1289 Q812.4414,521.7383 812.2266,521.5234 Q811.8359,521.1133 811.1328,520.8789 Q810.4297,520.625 809.7266,520.625 Q808.8477,520.625 808.1055,520.9766 Q807.3828,521.3281 806.8164,522.1094 Q806.25,522.8906 806.25,523.9648 L806.25,525.1172 Q806.25,526.4063 807.3047,527.2656 Q808.3594,528.125 810.2344,528.125 Q811.3477,528.125 812.1289,527.8711 Q812.5781,527.7344 813.0859,527.2852 Q813.418,527.0313 813.5938,526.9531 Q813.7695,526.875 813.9844,526.875 Q814.3945,526.875 814.6875,527.207 Q815,527.5195 815,527.9688 Q815,528.3984 814.5703,528.9063 Q813.9453,529.6484 812.9492,530.0586 Q811.6406,530.625 810.0391,530.625 Q808.1641,530.625 806.6602,529.8828 Q805.4492,529.2969 804.5898,528.0273 Q803.75,526.7578 803.75,525.2539 L803.75,523.8867 Q803.75,522.3242 804.4922,520.957 Q805.2539,519.5898 806.5625,518.8672 Q807.8906,518.125 809.375,518.125 Q810.2734,518.125 811.0547,518.4375 Q811.8359,518.75 812.5,519.375 Z " fill="#000000"/><text fill="#000000" font-family="sans-serif" font-size="15" lengthAdjust="spacing" textLength="140" x="827.5" y="529.8877">BruteForceAlgorithm</text><line style="stroke:#A80036;stroke-width:1.875;" x1="792.5" x2="970" y1="543.75" y2="543.75"/><line style="stroke:#A80036;stroke-width:1.875;" x1="792.5" x2="970" y1="553.75" y2="553.75"/><text fill="#000000" font-family="sans-serif" font-size="13.75" lengthAdjust="spacing" textLength="65" x="798.75" y="573.0237">+Max(seq)</text><!--MD5=[bbc84d1aa0e7f30bd67b3f6e81f0f299]
class Sum--><rect codeLine="43" fill="#FEFECE" filter="url(#fbsqehyg5inu3)" height="77.2949" id="Sum" style="stroke:#A80036;stroke-width:1.875;" width="80" x="667.5" y="503.75"/><ellipse cx="689.625" cy="523.75" fill="#ADD1B2" rx="13.75" ry="13.75" style="stroke:#A80036;stroke-width:1.25;"/><path d="M692.125,519.375 Q692.3789,518.75 692.6719,518.4375 Q692.9648,518.125 693.2969,518.125 Q693.8828,518.125 694.2539,518.4766 Q694.625,518.8281 694.625,519.6484 L694.625,521.6016 Q694.625,522.4219 694.2734,522.7734 Q693.9219,523.125 693.375,523.125 Q692.8867,523.125 692.5742,522.9102 Q692.2617,522.6953 692.125,522.1289 Q692.0664,521.7383 691.8516,521.5234 Q691.4609,521.1133 690.7578,520.8789 Q690.0547,520.625 689.3516,520.625 Q688.4727,520.625 687.7305,520.9766 Q687.0078,521.3281 686.4414,522.1094 Q685.875,522.8906 685.875,523.9648 L685.875,525.1172 Q685.875,526.4063 686.9297,527.2656 Q687.9844,528.125 689.8594,528.125 Q690.9727,528.125 691.7539,527.8711 Q692.2031,527.7344 692.7109,527.2852 Q693.043,527.0313 693.2188,526.9531 Q693.3945,526.875 693.6094,526.875 Q694.0195,526.875 694.3125,527.207 Q694.625,527.5195 694.625,527.9688 Q694.625,528.3984 694.1953,528.9063 Q693.5703,529.6484 692.5742,530.0586 Q691.2656,530.625 689.6641,530.625 Q687.7891,530.625 686.2852,529.8828 Q685.0742,529.2969 684.2148,528.0273 Q683.375,526.7578 683.375,525.2539 L683.375,523.8867 Q683.375,522.3242 684.1172,520.957 Q684.8789,519.5898 686.1875,518.8672 Q687.5156,518.125 689,518.125 Q689.8984,518.125 690.6797,518.4375 Q691.4609,518.75 692.125,519.375 Z " fill="#000000"/><text fill="#000000" font-family="sans-serif" font-size="15" lengthAdjust="spacing" textLength="32.5" x="707.875" y="529.8877">Sum</text><line style="stroke:#A80036;stroke-width:1.875;" x1="668.75" x2="746.25" y1="543.75" y2="543.75"/><line style="stroke:#A80036;stroke-width:1.875;" x1="668.75" x2="746.25" y1="553.75" y2="553.75"/><text fill="#000000" font-family="sans-serif" font-size="13.75" lengthAdjust="spacing" textLength="65" x="675" y="573.0237">+Max(seq)</text><!--MD5=[02655fe311d5bf0e31cca58a2df6e816]
link PerformanceUI to PerformanceController--><path codeLine="50" d="M707.5,112.925 C707.5,148.1625 707.5,208.6 707.5,256.0625 " fill="none" id="PerformanceUI-to-PerformanceController" style="stroke:#A80036;stroke-width:1.25;stroke-dasharray:7.0,7.0;"/><polygon fill="#A80036" points="707.5,262.375,712.5,251.125,707.5,256.125,702.5,251.125,707.5,262.375" style="stroke:#A80036;stroke-width:1.25;"/><!--MD5=[eb86c3a0a127319432e0b44b63285686]
link PerformanceController to Company--><path codeLine="51" d="M871.45,369.3125 C913.7,384.575 957.45,404.825 993.75,431.25 C1011.9625,444.5125 1028.1875,462.725 1041.4625,480.5125 " fill="none" id="PerformanceController-to-Company" style="stroke:#A80036;stroke-width:1.25;stroke-dasharray:7.0,7.0;"/><polygon fill="#A80036" points="1045.4875,486.025,1042.8889,473.9913,1041.8008,480.9781,1034.8139,479.89,1045.4875,486.025" style="stroke:#A80036;stroke-width:1.25;"/><!--MD5=[f007d9c6bd789e513d2d526668e6c3d5]
link PerformanceController to ClientStore--><path codeLine="52" d="M652.125,391.4875 C622,425.9625 585.525,467.7 558.7375,498.35 " fill="none" id="PerformanceController-to-ClientStore" style="stroke:#A80036;stroke-width:1.25;stroke-dasharray:7.0,7.0;"/><polygon fill="#A80036" points="554.525,503.175,565.6849,497.977,558.6305,498.4626,558.145,491.4082,554.525,503.175" style="stroke:#A80036;stroke-width:1.25;"/><!--MD5=[bbd1e29a3ab8f784ac5b7071a8824d9f]
link PerformanceController to TestStore--><path codeLine="53" d="M543.7375,381.8875 C503.9,396.5375 461.8125,413.35 423.75,431.25 C391.7625,446.3 358.075,465.05 328.225,482.8 " fill="none" id="PerformanceController-to-TestStore" style="stroke:#A80036;stroke-width:1.25;stroke-dasharray:7.0,7.0;"/><polygon fill="#A80036" points="322.7,486.1,334.9193,484.5994,328.0593,482.8844,329.7743,476.0245,322.7,486.1" style="stroke:#A80036;stroke-width:1.25;"/><!--MD5=[bcc3a24206a1d4dbc830913fe35e3c79]
link PerformanceController to BruteForceAlgorithm--><path codeLine="54" d="M759.1625,391.4875 C787.15,425.825 821.0125,467.3625 845.9625,497.975 " fill="none" id="PerformanceController-to-BruteForceAlgorithm" style="stroke:#A80036;stroke-width:1.25;stroke-dasharray:7.0,7.0;"/><polygon fill="#A80036" points="850.2,503.175,846.965,491.2966,846.2501,498.3314,839.2152,497.6165,850.2,503.175" style="stroke:#A80036;stroke-width:1.25;"/><!--MD5=[738cf8cc561242a95d52c0aeffda2cec]
link PerformanceController to Sum--><path codeLine="55" d="M707.5,391.4875 C707.5,425.4 707.5,466.3375 707.5,496.825 " fill="none" id="PerformanceController-to-Sum" style="stroke:#A80036;stroke-width:1.25;stroke-dasharray:7.0,7.0;"/><polygon fill="#A80036" points="707.5,503.175,712.5,491.925,707.5,496.925,702.5,491.925,707.5,503.175" style="stroke:#A80036;stroke-width:1.25;"/><!--MD5=[ecf5918e5845bdb24cbf3a0301886d1a]
@startuml
'https://plantuml.com/class-diagram

skinparam classAttributeIconSize 0

package "UI" {
class PerformanceUI{
}
}

package "Core" {
package "Controllers"{
class PerformanceController{
  +getAllClients()
  +getAllTestsWaitResult(beginningDate, endDate)
  +getAllTestsWaitDiagnosis(beginningDate, endDate)
  +getAllTestsValidated(beginningDate, endDate)
}
}

package "Stores"{
class ClientStore{
  +getClientListNumber()
}

class TestStore{
  +getCollectedTestsNumber(beginningDate, endDate)
  +getAnalysedTestsNumber(beginningDate, endDate)
  +getValidatedTestsNumber(beginningDate, endDate)
}
}

package "Model"{
class Company{
  -String designation
  +getClientStore()
  +getTestStore()
}

class BruteForceAlgorithm{
  +Max(seq)
}

class Sum{
  +Max(seq)
}
}


}
PerformanceUI ..> PerformanceController
PerformanceController ..> Company
PerformanceController ..> ClientStore
PerformanceController ..> TestStore
PerformanceController ..> BruteForceAlgorithm
PerformanceController ..> Sum

@enduml

@startuml

skinparam classAttributeIconSize 0

package "UI" {
class PerformanceUI{
}
}

package "Core" {
package "Controllers"{
class PerformanceController{
  +getAllClients()
  +getAllTestsWaitResult(beginningDate, endDate)
  +getAllTestsWaitDiagnosis(beginningDate, endDate)
  +getAllTestsValidated(beginningDate, endDate)
}
}

package "Stores"{
class ClientStore{
  +getClientListNumber()
}

class TestStore{
  +getCollectedTestsNumber(beginningDate, endDate)
  +getAnalysedTestsNumber(beginningDate, endDate)
  +getValidatedTestsNumber(beginningDate, endDate)
}
}

package "Model"{
class Company{
  -String designation
  +getClientStore()
  +getTestStore()
}

class BruteForceAlgorithm{
  +Max(seq)
}

class Sum{
  +Max(seq)
}
}


}
PerformanceUI ..> PerformanceController
PerformanceController ..> Company
PerformanceController ..> ClientStore
PerformanceController ..> TestStore
PerformanceController ..> BruteForceAlgorithm
PerformanceController ..> Sum

@enduml

PlantUML version 1.2021.7(Sun May 23 13:40:07 BST 2021)
(GPL source distribution)
Java Runtime: OpenJDK Runtime Environment
JVM: Dynamic Code Evolution 64-Bit Server VM
Default Encoding: Cp1252
Language: pt
Country: PT
--></g></svg>