<?xml version="1.0" encoding="UTF-8" standalone="no"?><svg xmlns="http://www.w3.org/2000/svg" xmlns:xlink="http://www.w3.org/1999/xlink" contentScriptType="application/ecmascript" contentStyleType="text/css" height="471.25px" preserveAspectRatio="none" style="width:541px;height:471px;" version="1.1" viewBox="0 0 541 471" width="541.25px" zoomAndPan="magnify"><defs><filter height="300%" id="f3g3r2jabuijv" width="300%" x="-1" y="-1"><feGaussianBlur result="blurOut" stdDeviation="2.5"/><feColorMatrix in="blurOut" result="blurOut2" type="matrix" values="0 0 0 0 0 0 0 0 0 0 0 0 0 0 0 0 0 0 .4 0"/><feOffset dx="5.0" dy="5.0" in="blurOut2" result="blurOut3"/><feBlend in="SourceGraphic" in2="blurOut3" mode="normal"/></filter></defs><g><!--MD5=[02e4b9b7573f1156f41e60aa5b4e25a4]
class Company--><rect codeLine="5" fill="#FEFECE" filter="url(#f3g3r2jabuijv)" height="67.2949" id="Company" style="stroke:#A80036;stroke-width:1.875;" width="106.25" x="42.5" y="224.375"/><ellipse cx="61.25" cy="244.375" fill="#ADD1B2" rx="13.75" ry="13.75" style="stroke:#A80036;stroke-width:1.25;"/><path d="M63.75,240 Q64.0039,239.375 64.2969,239.0625 Q64.5898,238.75 64.9219,238.75 Q65.5078,238.75 65.8789,239.1016 Q66.25,239.4531 66.25,240.2734 L66.25,242.2266 Q66.25,243.0469 65.8984,243.3984 Q65.5469,243.75 65,243.75 Q64.5117,243.75 64.1992,243.5352 Q63.8867,243.3203 63.75,242.7539 Q63.6914,242.3633 63.4766,242.1484 Q63.0859,241.7383 62.3828,241.5039 Q61.6797,241.25 60.9766,241.25 Q60.0977,241.25 59.3555,241.6016 Q58.6328,241.9531 58.0664,242.7344 Q57.5,243.5156 57.5,244.5898 L57.5,245.7422 Q57.5,247.0313 58.5547,247.8906 Q59.6094,248.75 61.4844,248.75 Q62.5977,248.75 63.3789,248.4961 Q63.8281,248.3594 64.3359,247.9102 Q64.668,247.6563 64.8438,247.5781 Q65.0195,247.5 65.2344,247.5 Q65.6445,247.5 65.9375,247.832 Q66.25,248.1445 66.25,248.5938 Q66.25,249.0234 65.8203,249.5313 Q65.1953,250.2734 64.1992,250.6836 Q62.8906,251.25 61.2891,251.25 Q59.4141,251.25 57.9102,250.5078 Q56.6992,249.9219 55.8398,248.6523 Q55,247.3828 55,245.8789 L55,244.5117 Q55,242.9492 55.7422,241.582 Q56.5039,240.2148 57.8125,239.4922 Q59.1406,238.75 60.625,238.75 Q61.5234,238.75 62.3047,239.0625 Q63.0859,239.375 63.75,240 Z " fill="#000000"/><text fill="#000000" font-family="sans-serif" font-size="15" lengthAdjust="spacing" textLength="66.25" x="78.75" y="250.5127">Company</text><line style="stroke:#A80036;stroke-width:1.875;" x1="43.75" x2="147.5" y1="264.375" y2="264.375"/><text fill="#000000" font-family="sans-serif" font-size="13.75" lengthAdjust="spacing" textLength="73.75" x="50" y="283.6487">-designation</text><!--MD5=[1f6362a5c8f21d8d6a0fce68f3a92a4e]
class Parameter--><rect codeLine="8" fill="#FEFECE" filter="url(#f3g3r2jabuijv)" height="101.8848" id="Parameter" style="stroke:#A80036;stroke-width:1.875;" width="112.5" x="401.875" y="351.875"/><ellipse cx="420.625" cy="371.875" fill="#ADD1B2" rx="13.75" ry="13.75" style="stroke:#A80036;stroke-width:1.25;"/><path d="M423.125,367.5 Q423.3789,366.875 423.6719,366.5625 Q423.9648,366.25 424.2969,366.25 Q424.8828,366.25 425.2539,366.6016 Q425.625,366.9531 425.625,367.7734 L425.625,369.7266 Q425.625,370.5469 425.2734,370.8984 Q424.9219,371.25 424.375,371.25 Q423.8867,371.25 423.5742,371.0352 Q423.2617,370.8203 423.125,370.2539 Q423.0664,369.8633 422.8516,369.6484 Q422.4609,369.2383 421.7578,369.0039 Q421.0547,368.75 420.3516,368.75 Q419.4727,368.75 418.7305,369.1016 Q418.0078,369.4531 417.4414,370.2344 Q416.875,371.0156 416.875,372.0898 L416.875,373.2422 Q416.875,374.5313 417.9297,375.3906 Q418.9844,376.25 420.8594,376.25 Q421.9727,376.25 422.7539,375.9961 Q423.2031,375.8594 423.7109,375.4102 Q424.043,375.1563 424.2188,375.0781 Q424.3945,375 424.6094,375 Q425.0195,375 425.3125,375.332 Q425.625,375.6445 425.625,376.0938 Q425.625,376.5234 425.1953,377.0313 Q424.5703,377.7734 423.5742,378.1836 Q422.2656,378.75 420.6641,378.75 Q418.7891,378.75 417.2852,378.0078 Q416.0742,377.4219 415.2148,376.1523 Q414.375,374.8828 414.375,373.3789 L414.375,372.0117 Q414.375,370.4492 415.1172,369.082 Q415.8789,367.7148 417.1875,366.9922 Q418.5156,366.25 420,366.25 Q420.8984,366.25 421.6797,366.5625 Q422.4609,366.875 423.125,367.5 Z " fill="#000000"/><text fill="#000000" font-family="sans-serif" font-size="15" lengthAdjust="spacing" textLength="72.5" x="438.125" y="378.0127">Parameter</text><line style="stroke:#A80036;stroke-width:1.875;" x1="403.125" x2="513.125" y1="391.875" y2="391.875"/><text fill="#000000" font-family="sans-serif" font-size="13.75" lengthAdjust="spacing" textLength="73.75" x="409.375" y="411.1487">-designation</text><text fill="#000000" font-family="sans-serif" font-size="13.75" lengthAdjust="spacing" textLength="71.25" x="409.375" y="428.4436">-description</text><text fill="#000000" font-family="sans-serif" font-size="13.75" lengthAdjust="spacing" textLength="35" x="409.375" y="445.7385">-code</text><!--MD5=[36afb6bbd95a8ac778c4537c55a683d5]
class ParameterCategory--><rect codeLine="13" fill="#FEFECE" filter="url(#f3g3r2jabuijv)" height="101.8848" id="ParameterCategory" style="stroke:#A80036;stroke-width:1.875;" width="173.75" x="8.75" y="343.125"/><ellipse cx="27.5" cy="363.125" fill="#ADD1B2" rx="13.75" ry="13.75" style="stroke:#A80036;stroke-width:1.25;"/><path d="M30,358.75 Q30.2539,358.125 30.5469,357.8125 Q30.8398,357.5 31.1719,357.5 Q31.7578,357.5 32.1289,357.8516 Q32.5,358.2031 32.5,359.0234 L32.5,360.9766 Q32.5,361.7969 32.1484,362.1484 Q31.7969,362.5 31.25,362.5 Q30.7617,362.5 30.4492,362.2852 Q30.1367,362.0703 30,361.5039 Q29.9414,361.1133 29.7266,360.8984 Q29.3359,360.4883 28.6328,360.2539 Q27.9297,360 27.2266,360 Q26.3477,360 25.6055,360.3516 Q24.8828,360.7031 24.3164,361.4844 Q23.75,362.2656 23.75,363.3398 L23.75,364.4922 Q23.75,365.7813 24.8047,366.6406 Q25.8594,367.5 27.7344,367.5 Q28.8477,367.5 29.6289,367.2461 Q30.0781,367.1094 30.5859,366.6602 Q30.918,366.4063 31.0938,366.3281 Q31.2695,366.25 31.4844,366.25 Q31.8945,366.25 32.1875,366.582 Q32.5,366.8945 32.5,367.3438 Q32.5,367.7734 32.0703,368.2813 Q31.4453,369.0234 30.4492,369.4336 Q29.1406,370 27.5391,370 Q25.6641,370 24.1602,369.2578 Q22.9492,368.6719 22.0898,367.4023 Q21.25,366.1328 21.25,364.6289 L21.25,363.2617 Q21.25,361.6992 21.9922,360.332 Q22.7539,358.9648 24.0625,358.2422 Q25.3906,357.5 26.875,357.5 Q27.7734,357.5 28.5547,357.8125 Q29.3359,358.125 30,358.75 Z " fill="#000000"/><text fill="#000000" font-family="sans-serif" font-size="15" lengthAdjust="spacing" textLength="133.75" x="45" y="369.2627">ParameterCategory</text><line style="stroke:#A80036;stroke-width:1.875;" x1="10" x2="181.25" y1="383.125" y2="383.125"/><text fill="#000000" font-family="sans-serif" font-size="13.75" lengthAdjust="spacing" textLength="35" x="16.25" y="402.3987">-code</text><text fill="#000000" font-family="sans-serif" font-size="13.75" lengthAdjust="spacing" textLength="71.25" x="16.25" y="419.6936">-description</text><text fill="#000000" font-family="sans-serif" font-size="13.75" lengthAdjust="spacing" textLength="38.75" x="16.25" y="436.9885">-nhsID</text><!--MD5=[da547346deef918ea16944ba046651ef]
class Administrator--><rect codeLine="19" fill="#FEFECE" filter="url(#f3g3r2jabuijv)" height="50" id="Administrator" style="stroke:#A80036;stroke-width:1.875;" width="131.25" x="392.5" y="233.125"/><ellipse cx="411.25" cy="253.125" fill="#ADD1B2" rx="13.75" ry="13.75" style="stroke:#A80036;stroke-width:1.25;"/><path d="M413.75,248.75 Q414.0039,248.125 414.2969,247.8125 Q414.5898,247.5 414.9219,247.5 Q415.5078,247.5 415.8789,247.8516 Q416.25,248.2031 416.25,249.0234 L416.25,250.9766 Q416.25,251.7969 415.8984,252.1484 Q415.5469,252.5 415,252.5 Q414.5117,252.5 414.1992,252.2852 Q413.8867,252.0703 413.75,251.5039 Q413.6914,251.1133 413.4766,250.8984 Q413.0859,250.4883 412.3828,250.2539 Q411.6797,250 410.9766,250 Q410.0977,250 409.3555,250.3516 Q408.6328,250.7031 408.0664,251.4844 Q407.5,252.2656 407.5,253.3398 L407.5,254.4922 Q407.5,255.7813 408.5547,256.6406 Q409.6094,257.5 411.4844,257.5 Q412.5977,257.5 413.3789,257.2461 Q413.8281,257.1094 414.3359,256.6602 Q414.668,256.4063 414.8438,256.3281 Q415.0195,256.25 415.2344,256.25 Q415.6445,256.25 415.9375,256.582 Q416.25,256.8945 416.25,257.3438 Q416.25,257.7734 415.8203,258.2813 Q415.1953,259.0234 414.1992,259.4336 Q412.8906,260 411.2891,260 Q409.4141,260 407.9102,259.2578 Q406.6992,258.6719 405.8398,257.4023 Q405,256.1328 405,254.6289 L405,253.2617 Q405,251.6992 405.7422,250.332 Q406.5039,248.9648 407.8125,248.2422 Q409.1406,247.5 410.625,247.5 Q411.5234,247.5 412.3047,247.8125 Q413.0859,248.125 413.75,248.75 Z " fill="#000000"/><text fill="#000000" font-family="sans-serif" font-size="15" lengthAdjust="spacing" textLength="91.25" x="428.75" y="259.2627">Administrator</text><line style="stroke:#A80036;stroke-width:1.875;" x1="393.75" x2="522.5" y1="273.125" y2="273.125"/><!--MD5=[7421f545a0d8420c5bec41e74b387d9c]
class Employee--><rect codeLine="21" fill="#FEFECE" filter="url(#f3g3r2jabuijv)" height="171.0645" id="Employee" style="stroke:#A80036;stroke-width:1.875;" width="108.75" x="41.25" y="8.75"/><ellipse cx="60" cy="28.75" fill="#ADD1B2" rx="13.75" ry="13.75" style="stroke:#A80036;stroke-width:1.25;"/><path d="M62.5,24.375 Q62.7539,23.75 63.0469,23.4375 Q63.3398,23.125 63.6719,23.125 Q64.2578,23.125 64.6289,23.4766 Q65,23.8281 65,24.6484 L65,26.6016 Q65,27.4219 64.6484,27.7734 Q64.2969,28.125 63.75,28.125 Q63.2617,28.125 62.9492,27.9102 Q62.6367,27.6953 62.5,27.1289 Q62.4414,26.7383 62.2266,26.5234 Q61.8359,26.1133 61.1328,25.8789 Q60.4297,25.625 59.7266,25.625 Q58.8477,25.625 58.1055,25.9766 Q57.3828,26.3281 56.8164,27.1094 Q56.25,27.8906 56.25,28.9648 L56.25,30.1172 Q56.25,31.4063 57.3047,32.2656 Q58.3594,33.125 60.2344,33.125 Q61.3477,33.125 62.1289,32.8711 Q62.5781,32.7344 63.0859,32.2852 Q63.418,32.0313 63.5938,31.9531 Q63.7695,31.875 63.9844,31.875 Q64.3945,31.875 64.6875,32.207 Q65,32.5195 65,32.9688 Q65,33.3984 64.5703,33.9063 Q63.9453,34.6484 62.9492,35.0586 Q61.6406,35.625 60.0391,35.625 Q58.1641,35.625 56.6602,34.8828 Q55.4492,34.2969 54.5898,33.0273 Q53.75,31.7578 53.75,30.2539 L53.75,28.8867 Q53.75,27.3242 54.4922,25.957 Q55.2539,24.5898 56.5625,23.8672 Q57.8906,23.125 59.375,23.125 Q60.2734,23.125 61.0547,23.4375 Q61.8359,23.75 62.5,24.375 Z " fill="#000000"/><text fill="#000000" font-family="sans-serif" font-size="15" lengthAdjust="spacing" textLength="68.75" x="77.5" y="34.8877">Employee</text><line style="stroke:#A80036;stroke-width:1.875;" x1="42.5" x2="148.75" y1="48.75" y2="48.75"/><text fill="#000000" font-family="sans-serif" font-size="13.75" lengthAdjust="spacing" textLength="37.5" x="48.75" y="68.0237">-name</text><text fill="#000000" font-family="sans-serif" font-size="13.75" lengthAdjust="spacing" textLength="55" x="48.75" y="85.3186">-address</text><text fill="#000000" font-family="sans-serif" font-size="13.75" lengthAdjust="spacing" textLength="88.75" x="48.75" y="102.6135">-phoneNumber</text><text fill="#000000" font-family="sans-serif" font-size="13.75" lengthAdjust="spacing" textLength="73.75" x="48.75" y="119.9084">-employeeID</text><text fill="#000000" font-family="sans-serif" font-size="13.75" lengthAdjust="spacing" textLength="51.25" x="48.75" y="137.2034">-orgRole</text><text fill="#000000" font-family="sans-serif" font-size="13.75" lengthAdjust="spacing" textLength="35" x="48.75" y="154.4983">-email</text><text fill="#000000" font-family="sans-serif" font-size="13.75" lengthAdjust="spacing" textLength="62.5" x="48.75" y="171.7932">-SOCcode</text><!--MD5=[f7fb1bbd8b4f4021e9754ae6fe2871a0]
reverse link Employee to Administrator--><path codeLine="31" d="M173.25,129.1125 C241.825,160.3125 340.825,205.3375 401.8875,233.1125 " fill="none" id="Employee-backto-Administrator" style="stroke:#A80036;stroke-width:1.25;"/><polygon fill="none" points="169.5125,137.025,150.3875,118.7125,176.7625,121.1,169.5125,137.025" style="stroke:#A80036;stroke-width:1.25;"/><text fill="#000000" font-family="sans-serif" font-size="16.25" lengthAdjust="spacing" textLength="8.75" x="160.1821" y="141.3203">1</text><text fill="#000000" font-family="sans-serif" font-size="16.25" lengthAdjust="spacing" textLength="25" x="357.5551" y="220.1959">1..*</text><!--MD5=[7a9e3e328fb1db48284e23a673c1e60d]
link ParameterCategory to Parameter--><path codeLine="32" d="M182.5625,404.2 C195.1125,405.3125 207.875,406.2625 220,406.875 C279.925,409.9125 295.0125,407.975 355,406.875 C370.0375,406.6 386.325,406.0875 401.375,405.5375 " fill="none" id="ParameterCategory-Parameter" style="stroke:#A80036;stroke-width:1.25;"/><polygon fill="#000000" points="220.0001,395.8065,231.2838,399.5492,231.3287,392.202,220.0001,395.8065" style="stroke:#000000;stroke-width:1.25;"/><text fill="#000000" font-family="sans-serif" font-size="16.25" lengthAdjust="spacing" textLength="116.25" x="237.5" y="402.4939">presented under</text><text fill="#000000" font-family="sans-serif" font-size="16.25" lengthAdjust="spacing" textLength="8.75" x="192.5498" y="423.2949">1</text><text fill="#000000" font-family="sans-serif" font-size="16.25" lengthAdjust="spacing" textLength="6.25" x="385.5824" y="424.4687">*</text><!--MD5=[8fed49cf12a674e36a1de475622ee091]
link ParameterCategory to Administrator--><path codeLine="33" d="M182.65,361.9125 C246.9125,337.5875 333.4875,304.825 392.0375,282.6625 " fill="none" id="ParameterCategory-Administrator" style="stroke:#A80036;stroke-width:1.25;"/><polygon fill="#000000" points="252.0953,284.8824,240.2206,285.4488,242.8214,292.3204,252.0953,284.8824" style="stroke:#000000;stroke-width:1.25;"/><text fill="#000000" font-family="sans-serif" font-size="16.25" lengthAdjust="spacing" textLength="76.25" x="257.5" y="293.7439">created by</text><text fill="#000000" font-family="sans-serif" font-size="16.25" lengthAdjust="spacing" textLength="6.25" x="192.5102" y="376.3822">*</text><text fill="#000000" font-family="sans-serif" font-size="16.25" lengthAdjust="spacing" textLength="8.75" x="373.8191" y="304.2019">1</text><!--MD5=[eaea43e34e45c5b9d20b595fc78f1f20]
link Company to Administrator--><path codeLine="34" d="M148.8375,258.125 C213.1875,258.125 322.8125,258.125 392.45,258.125 " fill="none" id="Company-Administrator" style="stroke:#A80036;stroke-width:1.25;"/><polygon fill="#000000" points="267.5,247.0947,256.1936,243.4211,256.1936,250.7684,267.5,247.0947" style="stroke:#000000;stroke-width:1.25;"/><text fill="#000000" font-family="sans-serif" font-size="16.25" lengthAdjust="spacing" textLength="46.25" x="272.5" y="253.7439">knows</text><text fill="#000000" font-family="sans-serif" font-size="16.25" lengthAdjust="spacing" textLength="8.75" x="158.7354" y="276.768">1</text><text fill="#000000" font-family="sans-serif" font-size="16.25" lengthAdjust="spacing" textLength="6.25" x="376.095" y="276.4949">*</text><!--MD5=[8272833470a1a77c1100259e8485010c]
@startuml
skinparam classAttributeIconSize 0
left to right direction
hide methods

class Company {
-designation
}
class Parameter{
-designation
-description
-code
}
class ParameterCategory {
-code
-description
-nhsID
}

class Administrator

class Employee{
-name
-address
-phoneNumber
-employeeID
-orgRole
-email
-SOCcode
}

Employee "1" <|- - "1..*" Administrator
ParameterCategory "1" - - "*" Parameter : < presented under
ParameterCategory "*" - - "1" Administrator : > created by
Company "1" - - "*" Administrator : > knows
@enduml

PlantUML version 1.2021.4(Sun Apr 04 09:49:39 BST 2021)
(GPL source distribution)
Java Runtime: OpenJDK Runtime Environment
JVM: OpenJDK 64-Bit Server VM
Default Encoding: Cp1252
Language: pt
Country: PT
--></g></svg>