<?xml version="1.0" encoding="UTF-8" standalone="no"?><svg xmlns="http://www.w3.org/2000/svg" xmlns:xlink="http://www.w3.org/1999/xlink" contentScriptType="application/ecmascript" contentStyleType="text/css" height="377px" preserveAspectRatio="none" style="width:388px;height:377px;" version="1.1" viewBox="0 0 388 377" width="388px" zoomAndPan="magnify"><defs><filter height="300%" id="f1dkzoeyx3k6lk" width="300%" x="-1" y="-1"><feGaussianBlur result="blurOut" stdDeviation="2.0"/><feColorMatrix in="blurOut" result="blurOut2" type="matrix" values="0 0 0 0 0 0 0 0 0 0 0 0 0 0 0 0 0 0 .4 0"/><feOffset dx="4.0" dy="4.0" in="blurOut2" result="blurOut3"/><feBlend in="SourceGraphic" in2="blurOut3" mode="normal"/></filter></defs><g><rect fill="#FFFFFF" filter="url(#f1dkzoeyx3k6lk)" height="183.1094" style="stroke:#A80036;stroke-width:1.0;" width="10" x="44.5" y="99.6094"/><rect fill="#FFFFFF" filter="url(#f1dkzoeyx3k6lk)" height="30.3516" style="stroke:#A80036;stroke-width:1.0;" width="10" x="341.5" y="121.9609"/><rect fill="#FFFFFF" filter="url(#f1dkzoeyx3k6lk)" height="30.3516" style="stroke:#A80036;stroke-width:1.0;" width="10" x="341.5" y="182.6641"/><rect fill="#FFFFFF" filter="url(#f1dkzoeyx3k6lk)" height="30.3516" style="stroke:#A80036;stroke-width:1.0;" width="10" x="341.5" y="243.3672"/><line style="stroke:#A80036;stroke-width:1.0;stroke-dasharray:5.0,5.0;" x1="49" x2="49" y1="89.6094" y2="291.7188"/><line style="stroke:#A80036;stroke-width:1.0;stroke-dasharray:5.0,5.0;" x1="346.5" x2="346.5" y1="89.6094" y2="291.7188"/><text fill="#000000" font-family="sans-serif" font-size="14" lengthAdjust="spacing" textLength="83" x="5" y="86.5332">Administrator</text><ellipse cx="49.5" cy="15" fill="#FEFECE" filter="url(#f1dkzoeyx3k6lk)" rx="8" ry="8" style="stroke:#A80036;stroke-width:2.0;"/><path d="M49.5,23 L49.5,50 M36.5,31 L62.5,31 M49.5,50 L36.5,65 M49.5,50 L62.5,65 " fill="none" filter="url(#f1dkzoeyx3k6lk)" style="stroke:#A80036;stroke-width:2.0;"/><text fill="#000000" font-family="sans-serif" font-size="14" lengthAdjust="spacing" textLength="83" x="5" y="305.252">Administrator</text><ellipse cx="49.5" cy="318.3281" fill="#FEFECE" filter="url(#f1dkzoeyx3k6lk)" rx="8" ry="8" style="stroke:#A80036;stroke-width:2.0;"/><path d="M49.5,326.3281 L49.5,353.3281 M36.5,334.3281 L62.5,334.3281 M49.5,353.3281 L36.5,368.3281 M49.5,353.3281 L62.5,368.3281 " fill="none" filter="url(#f1dkzoeyx3k6lk)" style="stroke:#A80036;stroke-width:2.0;"/><rect fill="#FEFECE" filter="url(#f1dkzoeyx3k6lk)" height="31.6094" style="stroke:#A80036;stroke-width:1.5;" width="60" x="314.5" y="53"/><text fill="#000000" font-family="sans-serif" font-size="14" lengthAdjust="spacing" textLength="46" x="321.5" y="74.5332">System</text><rect fill="#FEFECE" filter="url(#f1dkzoeyx3k6lk)" height="31.6094" style="stroke:#A80036;stroke-width:1.5;" width="60" x="314.5" y="290.7188"/><text fill="#000000" font-family="sans-serif" font-size="14" lengthAdjust="spacing" textLength="46" x="321.5" y="312.252">System</text><rect fill="#FFFFFF" filter="url(#f1dkzoeyx3k6lk)" height="183.1094" style="stroke:#A80036;stroke-width:1.0;" width="10" x="44.5" y="99.6094"/><rect fill="#FFFFFF" filter="url(#f1dkzoeyx3k6lk)" height="30.3516" style="stroke:#A80036;stroke-width:1.0;" width="10" x="341.5" y="121.9609"/><rect fill="#FFFFFF" filter="url(#f1dkzoeyx3k6lk)" height="30.3516" style="stroke:#A80036;stroke-width:1.0;" width="10" x="341.5" y="182.6641"/><rect fill="#FFFFFF" filter="url(#f1dkzoeyx3k6lk)" height="30.3516" style="stroke:#A80036;stroke-width:1.0;" width="10" x="341.5" y="243.3672"/><polygon fill="#A80036" points="329.5,117.9609,339.5,121.9609,329.5,125.9609,333.5,121.9609" style="stroke:#A80036;stroke-width:1.0;"/><line style="stroke:#A80036;stroke-width:1.0;" x1="54.5" x2="335.5" y1="121.9609" y2="121.9609"/><text fill="#000000" font-family="sans-serif" font-size="13" font-weight="bold" lengthAdjust="spacing" textLength="7" x="61.5" y="117.1045">1</text><text fill="#000000" font-family="sans-serif" font-size="13" lengthAdjust="spacing" textLength="176" x="72.5" y="117.1045">starts new parameter category</text><polygon fill="#A80036" points="65.5,148.3125,55.5,152.3125,65.5,156.3125,61.5,152.3125" style="stroke:#A80036;stroke-width:1.0;"/><line style="stroke:#A80036;stroke-width:1.0;stroke-dasharray:2.0,2.0;" x1="59.5" x2="345.5" y1="152.3125" y2="152.3125"/><text fill="#000000" font-family="sans-serif" font-size="13" font-weight="bold" lengthAdjust="spacing" textLength="7" x="71.5" y="147.4561">2</text><text fill="#000000" font-family="sans-serif" font-size="13" lengthAdjust="spacing" textLength="152" x="82.5" y="147.4561">request data (name, code)</text><polygon fill="#A80036" points="329.5,178.6641,339.5,182.6641,329.5,186.6641,333.5,182.6641" style="stroke:#A80036;stroke-width:1.0;"/><line style="stroke:#A80036;stroke-width:1.0;" x1="54.5" x2="335.5" y1="182.6641" y2="182.6641"/><text fill="#000000" font-family="sans-serif" font-size="13" font-weight="bold" lengthAdjust="spacing" textLength="7" x="61.5" y="177.8076">3</text><text fill="#000000" font-family="sans-serif" font-size="13" lengthAdjust="spacing" textLength="122" x="72.5" y="177.8076">types requested data</text><polygon fill="#A80036" points="65.5,209.0156,55.5,213.0156,65.5,217.0156,61.5,213.0156" style="stroke:#A80036;stroke-width:1.0;"/><line style="stroke:#A80036;stroke-width:1.0;stroke-dasharray:2.0,2.0;" x1="59.5" x2="345.5" y1="213.0156" y2="213.0156"/><text fill="#000000" font-family="sans-serif" font-size="13" font-weight="bold" lengthAdjust="spacing" textLength="7" x="71.5" y="208.1592">4</text><text fill="#000000" font-family="sans-serif" font-size="13" lengthAdjust="spacing" textLength="252" x="82.5" y="208.1592">shows the data and requests a confirmation</text><polygon fill="#A80036" points="329.5,239.3672,339.5,243.3672,329.5,247.3672,333.5,243.3672" style="stroke:#A80036;stroke-width:1.0;"/><line style="stroke:#A80036;stroke-width:1.0;" x1="54.5" x2="335.5" y1="243.3672" y2="243.3672"/><text fill="#000000" font-family="sans-serif" font-size="13" font-weight="bold" lengthAdjust="spacing" textLength="7" x="61.5" y="238.5107">5</text><text fill="#000000" font-family="sans-serif" font-size="13" lengthAdjust="spacing" textLength="100" x="72.5" y="238.5107">confirms the data</text><polygon fill="#A80036" points="65.5,269.7188,55.5,273.7188,65.5,277.7188,61.5,273.7188" style="stroke:#A80036;stroke-width:1.0;"/><line style="stroke:#A80036;stroke-width:1.0;stroke-dasharray:2.0,2.0;" x1="59.5" x2="345.5" y1="273.7188" y2="273.7188"/><text fill="#000000" font-family="sans-serif" font-size="13" font-weight="bold" lengthAdjust="spacing" textLength="7" x="71.5" y="268.8623">6</text><text fill="#000000" font-family="sans-serif" font-size="13" lengthAdjust="spacing" textLength="152" x="82.5" y="268.8623">informs operation success</text><!--MD5=[be2cd4056ee4adaf87bb7c8f3a0e9e9b]
@startuml

autonumber
actor "Administrator" as C
activate C
C -> System ++: starts new parameter category
System - ->  C - -: request data (name, code)
C -> System ++: types requested data
System - -> C - -: shows the data and requests a confirmation
C -> System ++: confirms the data
System - -> C - -: informs operation success

@enduml

PlantUML version 1.2021.5(Sun Apr 25 12:20:28 BST 2021)
(GPL source distribution)
Java Runtime: OpenJDK Runtime Environment
JVM: OpenJDK 64-Bit Server VM
Default Encoding: Cp1252
Language: pt
Country: PT
--></g></svg>