<?xml version="1.0" encoding="UTF-8" standalone="no"?><svg xmlns="http://www.w3.org/2000/svg" xmlns:xlink="http://www.w3.org/1999/xlink" contentScriptType="application/ecmascript" contentStyleType="text/css" height="553px" preserveAspectRatio="none" style="width:440px;height:553px;" version="1.1" viewBox="0 0 440 553" width="440px" zoomAndPan="magnify"><defs><filter height="300%" id="f1bj65hocax0h3" width="300%" x="-1" y="-1"><feGaussianBlur result="blurOut" stdDeviation="2.0"/><feColorMatrix in="blurOut" result="blurOut2" type="matrix" values="0 0 0 0 0 0 0 0 0 0 0 0 0 0 0 0 0 0 .4 0"/><feOffset dx="4.0" dy="4.0" in="blurOut2" result="blurOut3"/><feBlend in="SourceGraphic" in2="blurOut3" mode="normal"/></filter></defs><g><!--MD5=[6b185e8064f1903ce7064332957eac06]
class COMP--><rect codeLine="2" fill="#FEFECE" filter="url(#f1bj65hocax0h3)" height="112.0234" id="COMP" style="stroke:#A80036;stroke-width:1.5;" width="314" x="7" y="251"/><ellipse cx="131.25" cy="267" fill="#ADD1B2" rx="11" ry="11" style="stroke:#A80036;stroke-width:1.0;"/><path d="M134.2188,272.6406 Q133.6406,272.9375 133,273.0781 Q132.3594,273.2344 131.6563,273.2344 Q129.1563,273.2344 127.8281,271.5938 Q126.5156,269.9375 126.5156,266.8125 Q126.5156,263.6875 127.8281,262.0313 Q129.1563,260.375 131.6563,260.375 Q132.3594,260.375 133,260.5313 Q133.6563,260.6875 134.2188,260.9844 L134.2188,263.7031 Q133.5938,263.125 133,262.8594 Q132.4063,262.5781 131.7813,262.5781 Q130.4375,262.5781 129.75,263.6563 Q129.0625,264.7188 129.0625,266.8125 Q129.0625,268.9063 129.75,269.9844 Q130.4375,271.0469 131.7813,271.0469 Q132.4063,271.0469 133,270.7813 Q133.5938,270.5 134.2188,269.9219 L134.2188,272.6406 Z " fill="#000000"/><text fill="#000000" font-family="sans-serif" font-size="12" lengthAdjust="spacingAndGlyphs" textLength="57" x="151.75" y="271.1543">Company</text><line style="stroke:#A80036;stroke-width:1.5;" x1="8" x2="320" y1="283" y2="283"/><text fill="#000000" font-family="sans-serif" font-size="11" lengthAdjust="spacingAndGlyphs" textLength="70" x="13" y="297.2104">-designation</text><line style="stroke:#A80036;stroke-width:1.5;" x1="8" x2="320" y1="303.8047" y2="303.8047"/><text fill="#000000" font-family="sans-serif" font-size="11" lengthAdjust="spacingAndGlyphs" textLength="302" x="13" y="318.0151">+createParameterCategory(code, description, nhsID)</text><text fill="#000000" font-family="sans-serif" font-size="11" lengthAdjust="spacingAndGlyphs" textLength="185" x="13" y="330.8198">+validateParameterCategory(pc)</text><text fill="#000000" font-family="sans-serif" font-size="11" lengthAdjust="spacingAndGlyphs" textLength="168" x="13" y="343.6245">+saveParameterCategory(pc)</text><text fill="#000000" font-family="sans-serif" font-size="11" lengthAdjust="spacingAndGlyphs" textLength="157" x="13" y="356.4292">-addParameterCategory(pc)</text><!--MD5=[218f71f443b9e0720bb96dd9df1d4749]
class PC--><rect codeLine="22" fill="#FEFECE" filter="url(#f1bj65hocax0h3)" height="99.2188" id="PC" style="stroke:#A80036;stroke-width:1.5;" width="278" x="130" y="440"/><ellipse cx="203.75" cy="456" fill="#ADD1B2" rx="11" ry="11" style="stroke:#A80036;stroke-width:1.0;"/><path d="M206.7188,461.6406 Q206.1406,461.9375 205.5,462.0781 Q204.8594,462.2344 204.1563,462.2344 Q201.6563,462.2344 200.3281,460.5938 Q199.0156,458.9375 199.0156,455.8125 Q199.0156,452.6875 200.3281,451.0313 Q201.6563,449.375 204.1563,449.375 Q204.8594,449.375 205.5,449.5313 Q206.1563,449.6875 206.7188,449.9844 L206.7188,452.7031 Q206.0938,452.125 205.5,451.8594 Q204.9063,451.5781 204.2813,451.5781 Q202.9375,451.5781 202.25,452.6563 Q201.5625,453.7188 201.5625,455.8125 Q201.5625,457.9063 202.25,458.9844 Q202.9375,460.0469 204.2813,460.0469 Q204.9063,460.0469 205.5,459.7813 Q206.0938,459.5 206.7188,458.9219 L206.7188,461.6406 Z " fill="#000000"/><text fill="#000000" font-family="sans-serif" font-size="12" lengthAdjust="spacingAndGlyphs" textLength="122" x="224.25" y="460.1543">ParameterCategory</text><line style="stroke:#A80036;stroke-width:1.5;" x1="131" x2="407" y1="472" y2="472"/><text fill="#000000" font-family="sans-serif" font-size="11" lengthAdjust="spacingAndGlyphs" textLength="31" x="136" y="486.2104">-code</text><text fill="#000000" font-family="sans-serif" font-size="11" lengthAdjust="spacingAndGlyphs" textLength="67" x="136" y="499.0151">-description</text><text fill="#000000" font-family="sans-serif" font-size="11" lengthAdjust="spacingAndGlyphs" textLength="35" x="136" y="511.8198">-nhsId</text><line style="stroke:#A80036;stroke-width:1.5;" x1="131" x2="407" y1="518.4141" y2="518.4141"/><text fill="#000000" font-family="sans-serif" font-size="11" lengthAdjust="spacingAndGlyphs" textLength="266" x="136" y="532.6245">+ParameterCategory(code, description, nhsID)</text><!--MD5=[e30ab5e057b1e0e1f2481ca2819f4841]
class CPCC--><rect codeLine="23" fill="#FEFECE" filter="url(#f1bj65hocax0h3)" height="73.6094" id="CPCC" style="stroke:#A80036;stroke-width:1.5;" width="314" x="112" y="116"/><ellipse cx="152.65" cy="132" fill="#ADD1B2" rx="11" ry="11" style="stroke:#A80036;stroke-width:1.0;"/><path d="M155.6188,137.6406 Q155.0406,137.9375 154.4,138.0781 Q153.7594,138.2344 153.0563,138.2344 Q150.5563,138.2344 149.2281,136.5938 Q147.9156,134.9375 147.9156,131.8125 Q147.9156,128.6875 149.2281,127.0313 Q150.5563,125.375 153.0563,125.375 Q153.7594,125.375 154.4,125.5313 Q155.0563,125.6875 155.6188,125.9844 L155.6188,128.7031 Q154.9938,128.125 154.4,127.8594 Q153.8063,127.5781 153.1813,127.5781 Q151.8375,127.5781 151.15,128.6563 Q150.4625,129.7188 150.4625,131.8125 Q150.4625,133.9063 151.15,134.9844 Q151.8375,136.0469 153.1813,136.0469 Q153.8063,136.0469 154.4,135.7813 Q154.9938,135.5 155.6188,134.9219 L155.6188,137.6406 Z " fill="#000000"/><text fill="#000000" font-family="sans-serif" font-size="12" lengthAdjust="spacingAndGlyphs" textLength="225" x="172.35" y="136.1543">CreateParameterCategoryController</text><line style="stroke:#A80036;stroke-width:1.5;" x1="113" x2="425" y1="148" y2="148"/><line style="stroke:#A80036;stroke-width:1.5;" x1="113" x2="425" y1="156" y2="156"/><text fill="#000000" font-family="sans-serif" font-size="11" lengthAdjust="spacingAndGlyphs" textLength="302" x="118" y="170.2104">+createParameterCategory(code, description, nhsID)</text><text fill="#000000" font-family="sans-serif" font-size="11" lengthAdjust="spacingAndGlyphs" textLength="155" x="118" y="183.0151">+saveParameterCategory()</text><!--MD5=[00403e4dca353628649419b307de1c9e]
class CPCUI--><rect codeLine="21" fill="#FEFECE" filter="url(#f1bj65hocax0h3)" height="48" id="CPCUI" style="stroke:#A80036;stroke-width:1.5;" width="208" x="165" y="7"/><ellipse cx="180" cy="23" fill="#ADD1B2" rx="11" ry="11" style="stroke:#A80036;stroke-width:1.0;"/><path d="M182.9688,28.6406 Q182.3906,28.9375 181.75,29.0781 Q181.1094,29.2344 180.4063,29.2344 Q177.9063,29.2344 176.5781,27.5938 Q175.2656,25.9375 175.2656,22.8125 Q175.2656,19.6875 176.5781,18.0313 Q177.9063,16.375 180.4063,16.375 Q181.1094,16.375 181.75,16.5313 Q182.4063,16.6875 182.9688,16.9844 L182.9688,19.7031 Q182.3438,19.125 181.75,18.8594 Q181.1563,18.5781 180.5313,18.5781 Q179.1875,18.5781 178.5,19.6563 Q177.8125,20.7188 177.8125,22.8125 Q177.8125,24.9063 178.5,25.9844 Q179.1875,27.0469 180.5313,27.0469 Q181.1563,27.0469 181.75,26.7813 Q182.3438,26.5 182.9688,25.9219 L182.9688,28.6406 Z " fill="#000000"/><text fill="#000000" font-family="sans-serif" font-size="12" lengthAdjust="spacingAndGlyphs" textLength="176" x="194" y="27.1543">CreateParameterCategoryUI</text><line style="stroke:#A80036;stroke-width:1.5;" x1="166" x2="372" y1="39" y2="39"/><line style="stroke:#A80036;stroke-width:1.5;" x1="166" x2="372" y1="47" y2="47"/><!--MD5=[c834942a222c3abe9095cbfe59e8b6fc]
link CPCUI to CPCC--><path codeLine="24" d="M269,55.1033 C269,70.972 269,92.1768 269,110.7934 " fill="none" id="CPCUI-to-CPCC" style="stroke:#A80036;stroke-width:1.0;stroke-dasharray:7.0,7.0;"/><polygon fill="#A80036" points="269,115.9691,273,106.9691,269,110.9691,265,106.9691,269,115.9691" style="stroke:#A80036;stroke-width:1.0;"/><!--MD5=[7fa99a5de225a656314fa2378570f25b]
link CPCC to PC--><path codeLine="25" d="M304.115,190.4331 C317.8164,207.5391 331.9173,228.8988 339,251 C354.1911,298.4032 351.4459,314.8032 339,363 C332.4673,388.2982 319.6732,413.9386 306.7901,435.46 " fill="none" id="CPCC-to-PC" style="stroke:#A80036;stroke-width:1.0;stroke-dasharray:7.0,7.0;"/><polygon fill="#A80036" points="304.0418,439.9883,312.1308,434.3698,306.636,435.7139,305.2919,430.2191,304.0418,439.9883" style="stroke:#A80036;stroke-width:1.0;"/><!--MD5=[54ecc25e00ead64bc78268798abcba79]
link CPCC to COMP--><path codeLine="26" d="M243.5824,190.2791 C232.0715,207.1617 218.1687,227.5526 205.2254,246.536 " fill="none" id="CPCC-to-COMP" style="stroke:#A80036;stroke-width:1.0;stroke-dasharray:7.0,7.0;"/><polygon fill="#A80036" points="202.3066,250.8169,210.6816,245.6342,205.1233,246.6858,204.0718,241.1275,202.3066,250.8169" style="stroke:#A80036;stroke-width:1.0;"/><!--MD5=[c28b9b78ed0bf11d189faa2cf73d5ea8]
link COMP to PC--><path codeLine="27" d="M196.3602,363.2452 C209.5791,386.2208 224.8057,412.6861 237.8929,435.4328 " fill="none" id="COMP-to-PC" style="stroke:#A80036;stroke-width:1.0;"/><polygon fill="#A80036" points="240.4805,439.9305,239.4592,430.1347,237.9869,435.5967,232.525,434.1244,240.4805,439.9305" style="stroke:#A80036;stroke-width:1.0;"/><text fill="#000000" font-family="sans-serif" font-size="13" lengthAdjust="spacingAndGlyphs" textLength="44" x="224" y="406.0669">adopts</text><text fill="#000000" font-family="sans-serif" font-size="13" lengthAdjust="spacingAndGlyphs" textLength="8" x="191.8166" y="383.0877">1</text><text fill="#000000" font-family="sans-serif" font-size="13" lengthAdjust="spacingAndGlyphs" textLength="7" x="228.9778" y="428.966">*</text><!--MD5=[f017665881d5eec4820ce21b1908111d]
@startuml
skinparam classAttributeIconSize 0
class "Company" as COMP {
-designation
+createParameterCategory(code, description, nhsID)
+validateParameterCategory(pc)
+saveParameterCategory(pc)
-addParameterCategory(pc) 
}
class "ParameterCategory" as PC {
-code
-description
-nhsId
+ParameterCategory(code, description, nhsID)  
}
class "CreateParameterCategoryController" as CPCC {
+createParameterCategory(code, description, nhsID)
+saveParameterCategory()
}


class "CreateParameterCategoryUI" as CPCUI
class "ParameterCategory" as PC
class "CreateParameterCategoryController" as CPCC
CPCUI ..> CPCC
CPCC ..> PC
CPCC ..> COMP
COMP "1" - -> "*" PC : adopts
@enduml

PlantUML version 1.2020.22(Sun Dec 06 09:36:27 UTC 2020)
(GPL source distribution)
Java Runtime: OpenJDK Runtime Environment
JVM: OpenJDK 64-Bit Server VM
Default Encoding: UTF-8
Language: en
Country: US
--></g></svg>