<?xml version="1.0" encoding="UTF-8" standalone="no"?><svg xmlns="http://www.w3.org/2000/svg" xmlns:xlink="http://www.w3.org/1999/xlink" contentScriptType="application/ecmascript" contentStyleType="text/css" height="508px" preserveAspectRatio="none" style="width:375px;height:508px;" version="1.1" viewBox="0 0 375 508" width="375px" zoomAndPan="magnify"><defs><filter height="300%" id="f1r81tz6vga5jv" width="300%" x="-1" y="-1"><feGaussianBlur result="blurOut" stdDeviation="2.0"/><feColorMatrix in="blurOut" result="blurOut2" type="matrix" values="0 0 0 0 0 0 0 0 0 0 0 0 0 0 0 0 0 0 .4 0"/><feOffset dx="4.0" dy="4.0" in="blurOut2" result="blurOut3"/><feBlend in="SourceGraphic" in2="blurOut3" mode="normal"/></filter></defs><g><!--MD5=[02e4b9b7573f1156f41e60aa5b4e25a4]
class Company--><rect codeLine="2" fill="#FEFECE" filter="url(#f1r81tz6vga5jv)" height="60.8047" id="Company" style="stroke:#A80036;stroke-width:1.5;" width="89" x="173.5" y="7"/><ellipse cx="188.5" cy="23" fill="#ADD1B2" rx="11" ry="11" style="stroke:#A80036;stroke-width:1.0;"/><path d="M191.4688,28.6406 Q190.8906,28.9375 190.25,29.0781 Q189.6094,29.2344 188.9063,29.2344 Q186.4063,29.2344 185.0781,27.5938 Q183.7656,25.9375 183.7656,22.8125 Q183.7656,19.6875 185.0781,18.0313 Q186.4063,16.375 188.9063,16.375 Q189.6094,16.375 190.25,16.5313 Q190.9063,16.6875 191.4688,16.9844 L191.4688,19.7031 Q190.8438,19.125 190.25,18.8594 Q189.6563,18.5781 189.0313,18.5781 Q187.6875,18.5781 187,19.6563 Q186.3125,20.7188 186.3125,22.8125 Q186.3125,24.9063 187,25.9844 Q187.6875,27.0469 189.0313,27.0469 Q189.6563,27.0469 190.25,26.7813 Q190.8438,26.5 191.4688,25.9219 L191.4688,28.6406 Z " fill="#000000"/><text fill="#000000" font-family="sans-serif" font-size="12" lengthAdjust="spacingAndGlyphs" textLength="57" x="202.5" y="27.1543">Company</text><line style="stroke:#A80036;stroke-width:1.5;" x1="174.5" x2="261.5" y1="39" y2="39"/><text fill="#000000" font-family="sans-serif" font-size="11" lengthAdjust="spacingAndGlyphs" textLength="70" x="179.5" y="53.2104">-designation</text><line style="stroke:#A80036;stroke-width:1.5;" x1="174.5" x2="261.5" y1="59.8047" y2="59.8047"/><!--MD5=[1f6362a5c8f21d8d6a0fce68f3a92a4e]
class Parameter--><rect codeLine="5" fill="#FEFECE" filter="url(#f1r81tz6vga5jv)" height="60.8047" id="Parameter" style="stroke:#A80036;stroke-width:1.5;" width="98" x="7" y="145"/><ellipse cx="22" cy="161" fill="#ADD1B2" rx="11" ry="11" style="stroke:#A80036;stroke-width:1.0;"/><path d="M24.9688,166.6406 Q24.3906,166.9375 23.75,167.0781 Q23.1094,167.2344 22.4063,167.2344 Q19.9063,167.2344 18.5781,165.5938 Q17.2656,163.9375 17.2656,160.8125 Q17.2656,157.6875 18.5781,156.0313 Q19.9063,154.375 22.4063,154.375 Q23.1094,154.375 23.75,154.5313 Q24.4063,154.6875 24.9688,154.9844 L24.9688,157.7031 Q24.3438,157.125 23.75,156.8594 Q23.1563,156.5781 22.5313,156.5781 Q21.1875,156.5781 20.5,157.6563 Q19.8125,158.7188 19.8125,160.8125 Q19.8125,162.9063 20.5,163.9844 Q21.1875,165.0469 22.5313,165.0469 Q23.1563,165.0469 23.75,164.7813 Q24.3438,164.5 24.9688,163.9219 L24.9688,166.6406 Z " fill="#000000"/><text fill="#000000" font-family="sans-serif" font-size="12" lengthAdjust="spacingAndGlyphs" textLength="66" x="36" y="165.1543">Parameter</text><line style="stroke:#A80036;stroke-width:1.5;" x1="8" x2="104" y1="177" y2="177"/><text fill="#000000" font-family="sans-serif" font-size="11" lengthAdjust="spacingAndGlyphs" textLength="70" x="13" y="191.2104">-designation</text><line style="stroke:#A80036;stroke-width:1.5;" x1="8" x2="104" y1="197.8047" y2="197.8047"/><!--MD5=[36afb6bbd95a8ac778c4537c55a683d5]
class ParameterCategory--><rect codeLine="8" fill="#FEFECE" filter="url(#f1r81tz6vga5jv)" height="86.4141" id="ParameterCategory" style="stroke:#A80036;stroke-width:1.5;" width="154" x="123" y="283"/><ellipse cx="138" cy="299" fill="#ADD1B2" rx="11" ry="11" style="stroke:#A80036;stroke-width:1.0;"/><path d="M140.9688,304.6406 Q140.3906,304.9375 139.75,305.0781 Q139.1094,305.2344 138.4063,305.2344 Q135.9063,305.2344 134.5781,303.5938 Q133.2656,301.9375 133.2656,298.8125 Q133.2656,295.6875 134.5781,294.0313 Q135.9063,292.375 138.4063,292.375 Q139.1094,292.375 139.75,292.5313 Q140.4063,292.6875 140.9688,292.9844 L140.9688,295.7031 Q140.3438,295.125 139.75,294.8594 Q139.1563,294.5781 138.5313,294.5781 Q137.1875,294.5781 136.5,295.6563 Q135.8125,296.7188 135.8125,298.8125 Q135.8125,300.9063 136.5,301.9844 Q137.1875,303.0469 138.5313,303.0469 Q139.1563,303.0469 139.75,302.7813 Q140.3438,302.5 140.9688,301.9219 L140.9688,304.6406 Z " fill="#000000"/><text fill="#000000" font-family="sans-serif" font-size="12" lengthAdjust="spacingAndGlyphs" textLength="122" x="152" y="303.1543">ParameterCategory</text><line style="stroke:#A80036;stroke-width:1.5;" x1="124" x2="276" y1="315" y2="315"/><text fill="#000000" font-family="sans-serif" font-size="11" lengthAdjust="spacingAndGlyphs" textLength="31" x="129" y="329.2104">-code</text><text fill="#000000" font-family="sans-serif" font-size="11" lengthAdjust="spacingAndGlyphs" textLength="67" x="129" y="342.0151">-description</text><text fill="#000000" font-family="sans-serif" font-size="11" lengthAdjust="spacingAndGlyphs" textLength="35" x="129" y="354.8198">-nhsId</text><line style="stroke:#A80036;stroke-width:1.5;" x1="124" x2="276" y1="361.4141" y2="361.4141"/><!--MD5=[da547346deef918ea16944ba046651ef]
class Administrator--><rect codeLine="13" fill="#FEFECE" filter="url(#f1r81tz6vga5jv)" height="48" id="Administrator" style="stroke:#A80036;stroke-width:1.5;" width="116" x="207" y="446"/><ellipse cx="222" cy="462" fill="#ADD1B2" rx="11" ry="11" style="stroke:#A80036;stroke-width:1.0;"/><path d="M224.9688,467.6406 Q224.3906,467.9375 223.75,468.0781 Q223.1094,468.2344 222.4063,468.2344 Q219.9063,468.2344 218.5781,466.5938 Q217.2656,464.9375 217.2656,461.8125 Q217.2656,458.6875 218.5781,457.0313 Q219.9063,455.375 222.4063,455.375 Q223.1094,455.375 223.75,455.5313 Q224.4063,455.6875 224.9688,455.9844 L224.9688,458.7031 Q224.3438,458.125 223.75,457.8594 Q223.1563,457.5781 222.5313,457.5781 Q221.1875,457.5781 220.5,458.6563 Q219.8125,459.7188 219.8125,461.8125 Q219.8125,463.9063 220.5,464.9844 Q221.1875,466.0469 222.5313,466.0469 Q223.1563,466.0469 223.75,465.7813 Q224.3438,465.5 224.9688,464.9219 L224.9688,467.6406 Z " fill="#000000"/><text fill="#000000" font-family="sans-serif" font-size="12" lengthAdjust="spacingAndGlyphs" textLength="84" x="236" y="466.1543">Administrator</text><line style="stroke:#A80036;stroke-width:1.5;" x1="208" x2="322" y1="478" y2="478"/><line style="stroke:#A80036;stroke-width:1.5;" x1="208" x2="322" y1="486" y2="486"/><!--MD5=[12d76240d3c3c66074d4ec2ea8bf469c]
link Company to Parameter--><path codeLine="15" d="M173.3947,47.1551 C127.8924,58.0155 61.9063,76.9144 47,98 C37.5388,111.3833 39.032,129.429 43.238,144.7398 " fill="none" id="Company-Parameter" style="stroke:#A80036;stroke-width:1.0;"/><polygon fill="#000000" points="47.9995,109.5658,56.9994,106.4913,53.4735,101.7885,47.9995,109.5658" style="stroke:#000000;stroke-width:1.0;"/><text fill="#000000" font-family="sans-serif" font-size="13" lengthAdjust="spacingAndGlyphs" textLength="130" x="61" y="111.0669">capable of analysing</text><text fill="#000000" font-family="sans-serif" font-size="13" lengthAdjust="spacingAndGlyphs" textLength="8" x="157.6482" y="44.5916">1</text><text fill="#000000" font-family="sans-serif" font-size="13" lengthAdjust="spacingAndGlyphs" textLength="7" x="32.884" y="133.9494">*</text><!--MD5=[6df8849671cb880f6936e94aa30db6f9]
link Parameter to ParameterCategory--><path codeLine="16" d="M56.0369,206.1943 C57.4371,221.4877 61.3177,239.5377 71,253 C84.1471,271.2797 103.3774,285.5917 122.9965,296.5128 " fill="none" id="Parameter-ParameterCategory" style="stroke:#A80036;stroke-width:1.0;"/><polygon fill="#000000" points="78.9778,248.583,75.9518,239.5666,71.23,243.0672,78.9778,248.583" style="stroke:#000000;stroke-width:1.0;"/><text fill="#000000" font-family="sans-serif" font-size="13" lengthAdjust="spacingAndGlyphs" textLength="106" x="85" y="249.0669">presented under</text><text fill="#000000" font-family="sans-serif" font-size="13" lengthAdjust="spacingAndGlyphs" textLength="7" x="48.3551" y="225.813">*</text><text fill="#000000" font-family="sans-serif" font-size="13" lengthAdjust="spacingAndGlyphs" textLength="8" x="107.0227" y="289.9249">1</text><!--MD5=[486c72040073adb81f337087109fae3b]
link ParameterCategory to Company--><path codeLine="17" d="M202.705,282.6446 C206.3853,223.6579 212.8787,119.5826 216.0907,68.1014 " fill="none" id="ParameterCategory-Company" style="stroke:#A80036;stroke-width:1.0;"/><polygon fill="#000000" points="215.6886,180.5567,219.1851,171.7122,213.3187,171.3462,215.6886,180.5567" style="stroke:#000000;stroke-width:1.0;"/><text fill="#000000" font-family="sans-serif" font-size="13" lengthAdjust="spacingAndGlyphs" textLength="44" x="225" y="180.0669">adopts</text><text fill="#000000" font-family="sans-serif" font-size="13" lengthAdjust="spacingAndGlyphs" textLength="7" x="195.5833" y="271.9027">*</text><text fill="#000000" font-family="sans-serif" font-size="13" lengthAdjust="spacingAndGlyphs" textLength="8" x="206.8719" y="88.0605">1</text><!--MD5=[8fed49cf12a674e36a1de475622ee091]
link ParameterCategory to Administrator--><path codeLine="18" d="M205.9173,369.0298 C209.0816,384.3768 213.857,401.454 221,416 C226.2238,426.6378 233.8962,437.0445 241.3768,445.8381 " fill="none" id="ParameterCategory-Administrator" style="stroke:#A80036;stroke-width:1.0;"/><polygon fill="#000000" points="228.0958,412.106,226.9728,402.662,221.6362,405.1257,228.0958,412.106" style="stroke:#000000;stroke-width:1.0;"/><text fill="#000000" font-family="sans-serif" font-size="13" lengthAdjust="spacingAndGlyphs" textLength="68" x="235" y="412.0669">created by</text><text fill="#000000" font-family="sans-serif" font-size="13" lengthAdjust="spacingAndGlyphs" textLength="7" x="199.3177" y="389.4424">*</text><text fill="#000000" font-family="sans-serif" font-size="13" lengthAdjust="spacingAndGlyphs" textLength="8" x="226.2984" y="434.8086">1</text><!--MD5=[eaea43e34e45c5b9d20b595fc78f1f20]
link Company to Administrator--><path codeLine="19" d="M239.2398,68.0043 C252.6023,88.7574 268.9716,117.3698 278,145 C315.6382,260.1868 347.9821,301.6056 308,416 C304.2041,426.8606 297.2083,437.1695 289.9462,445.8132 " fill="none" id="Company-Administrator" style="stroke:#A80036;stroke-width:1.0;"/><polygon fill="#000000" points="319.6651,249.522,321.3747,240.1663,315.5491,240.9482,319.6651,249.522" style="stroke:#000000;stroke-width:1.0;"/><text fill="#000000" font-family="sans-serif" font-size="13" lengthAdjust="spacingAndGlyphs" textLength="39" x="328" y="249.0669">knows</text><text fill="#000000" font-family="sans-serif" font-size="13" lengthAdjust="spacingAndGlyphs" textLength="8" x="234.7955" y="87.9434">1</text><!--MD5=[57ff381ca9666b97766e91140bac4a84]
@startuml
skinparam classAttributeIconSize 0
class Company {
-designation
}
class Parameter  {
-designation
}
class ParameterCategory {
-code
-description
-nhsId
}
class Administrator

Company "1" - - "*" Parameter : > capable of analysing
Parameter "*" - -"1" ParameterCategory : > presented under
ParameterCategory "*" - - "1" Company : < adopts
ParameterCategory "*" - - "1" Administrator : > created by
Company "1" - - Administrator : > knows
@enduml

PlantUML version 1.2020.22(Sun Dec 06 09:36:27 UTC 2020)
(GPL source distribution)
Java Runtime: OpenJDK Runtime Environment
JVM: OpenJDK 64-Bit Server VM
Default Encoding: UTF-8
Language: en
Country: US
--></g></svg>