<?xml version="1.0" encoding="UTF-8" standalone="no"?><svg xmlns="http://www.w3.org/2000/svg" xmlns:xlink="http://www.w3.org/1999/xlink" contentScriptType="application/ecmascript" contentStyleType="text/css" height="383px" preserveAspectRatio="none" style="width:1622px;height:383px;" version="1.1" viewBox="0 0 1622 383" width="1622px" zoomAndPan="magnify"><defs><filter height="300%" id="f99kcutdnsacb" width="300%" x="-1" y="-1"><feGaussianBlur result="blurOut" stdDeviation="2.0"/><feColorMatrix in="blurOut" result="blurOut2" type="matrix" values="0 0 0 0 0 0 0 0 0 0 0 0 0 0 0 0 0 0 .4 0"/><feOffset dx="4.0" dy="4.0" in="blurOut2" result="blurOut3"/><feBlend in="SourceGraphic" in2="blurOut3" mode="normal"/></filter></defs><g><!--MD5=[6b185e8064f1903ce7064332957eac06]
class COMP--><rect codeLine="4" fill="#FEFECE" filter="url(#f99kcutdnsacb)" height="75.6719" id="COMP" style="stroke:#A80036;stroke-width:1.5;" width="160" x="601.5" y="90.3564"/><ellipse cx="650.75" cy="106.3564" fill="#ADD1B2" rx="11" ry="11" style="stroke:#A80036;stroke-width:1.0;"/><path d="M652.75,102.8564 Q652.9531,102.3564 653.1875,102.1064 Q653.4219,101.8564 653.6875,101.8564 Q654.1563,101.8564 654.4531,102.1377 Q654.75,102.4189 654.75,103.0752 L654.75,104.6377 Q654.75,105.2939 654.4688,105.5752 Q654.1875,105.8564 653.75,105.8564 Q653.3594,105.8564 653.1094,105.6846 Q652.8594,105.5127 652.75,105.0596 Q652.7031,104.7471 652.5313,104.5752 Q652.2188,104.2471 651.6563,104.0596 Q651.0938,103.8564 650.5313,103.8564 Q649.8281,103.8564 649.2344,104.1377 Q648.6563,104.4189 648.2031,105.0439 Q647.75,105.6689 647.75,106.5283 L647.75,107.4502 Q647.75,108.4814 648.5938,109.1689 Q649.4375,109.8564 650.9375,109.8564 Q651.8281,109.8564 652.4531,109.6533 Q652.8125,109.5439 653.2188,109.1846 Q653.4844,108.9814 653.625,108.9189 Q653.7656,108.8564 653.9375,108.8564 Q654.2656,108.8564 654.5,109.1221 Q654.75,109.3721 654.75,109.7314 Q654.75,110.0752 654.4063,110.4814 Q653.9063,111.0752 653.1094,111.4033 Q652.0625,111.8564 650.7813,111.8564 Q649.2813,111.8564 648.0781,111.2627 Q647.1094,110.7939 646.4219,109.7783 Q645.75,108.7627 645.75,107.5596 L645.75,106.4658 Q645.75,105.2158 646.3438,104.1221 Q646.9531,103.0283 648,102.4502 Q649.0625,101.8564 650.25,101.8564 Q650.9688,101.8564 651.5938,102.1064 Q652.2188,102.3564 652.75,102.8564 Z " fill="#000000"/><text fill="#000000" font-family="sans-serif" font-size="12" lengthAdjust="spacing" textLength="53" x="671.25" y="111.2666">Company</text><line style="stroke:#A80036;stroke-width:1.5;" x1="602.5" x2="760.5" y1="122.3564" y2="122.3564"/><text fill="#000000" font-family="sans-serif" font-size="11" lengthAdjust="spacing" textLength="59" x="607.5" y="137.7754">-designation</text><line style="stroke:#A80036;stroke-width:1.5;" x1="602.5" x2="760.5" y1="144.1924" y2="144.1924"/><text fill="#000000" font-family="sans-serif" font-size="11" lengthAdjust="spacing" textLength="148" x="607.5" y="159.6113">+getParameterCategoryStore()</text><!--MD5=[218f71f443b9e0720bb96dd9df1d4749]
class PC--><rect codeLine="45" fill="#FEFECE" filter="url(#f99kcutdnsacb)" height="89.5078" id="PC" style="stroke:#A80036;stroke-width:1.5;" width="175" x="1188" y="83.3564"/><ellipse cx="1219.2" cy="99.3564" fill="#ADD1B2" rx="11" ry="11" style="stroke:#A80036;stroke-width:1.0;"/><path d="M1221.2,95.8564 Q1221.4031,95.3564 1221.6375,95.1064 Q1221.8719,94.8564 1222.1375,94.8564 Q1222.6063,94.8564 1222.9031,95.1377 Q1223.2,95.4189 1223.2,96.0752 L1223.2,97.6377 Q1223.2,98.2939 1222.9188,98.5752 Q1222.6375,98.8564 1222.2,98.8564 Q1221.8094,98.8564 1221.5594,98.6846 Q1221.3094,98.5127 1221.2,98.0596 Q1221.1531,97.7471 1220.9813,97.5752 Q1220.6688,97.2471 1220.1063,97.0596 Q1219.5438,96.8564 1218.9813,96.8564 Q1218.2781,96.8564 1217.6844,97.1377 Q1217.1063,97.4189 1216.6531,98.0439 Q1216.2,98.6689 1216.2,99.5283 L1216.2,100.4502 Q1216.2,101.4814 1217.0438,102.1689 Q1217.8875,102.8564 1219.3875,102.8564 Q1220.2781,102.8564 1220.9031,102.6533 Q1221.2625,102.5439 1221.6688,102.1846 Q1221.9344,101.9814 1222.075,101.9189 Q1222.2156,101.8564 1222.3875,101.8564 Q1222.7156,101.8564 1222.95,102.1221 Q1223.2,102.3721 1223.2,102.7314 Q1223.2,103.0752 1222.8563,103.4814 Q1222.3563,104.0752 1221.5594,104.4033 Q1220.5125,104.8564 1219.2313,104.8564 Q1217.7313,104.8564 1216.5281,104.2627 Q1215.5594,103.7939 1214.8719,102.7783 Q1214.2,101.7627 1214.2,100.5596 L1214.2,99.4658 Q1214.2,98.2158 1214.7938,97.1221 Q1215.4031,96.0283 1216.45,95.4502 Q1217.5125,94.8564 1218.7,94.8564 Q1219.4188,94.8564 1220.0438,95.1064 Q1220.6688,95.3564 1221.2,95.8564 Z " fill="#000000"/><text fill="#000000" font-family="sans-serif" font-size="12" lengthAdjust="spacing" textLength="107" x="1236.8" y="104.2666">ParameterCategory</text><line style="stroke:#A80036;stroke-width:1.5;" x1="1189" x2="1362" y1="115.3564" y2="115.3564"/><text fill="#000000" font-family="sans-serif" font-size="11" lengthAdjust="spacing" textLength="30" x="1194" y="130.7754">-name</text><text fill="#000000" font-family="sans-serif" font-size="11" lengthAdjust="spacing" textLength="28" x="1194" y="144.6113">-code</text><line style="stroke:#A80036;stroke-width:1.5;" x1="1189" x2="1362" y1="151.0283" y2="151.0283"/><text fill="#000000" font-family="sans-serif" font-size="11" lengthAdjust="spacing" textLength="163" x="1194" y="166.4473">+ParameterCategory(name, code)</text><!--MD5=[3b33aac52bf85bcbfceea1b1d7f3c296]
class P--><rect codeLine="15" fill="#FEFECE" filter="url(#f99kcutdnsacb)" height="89.5078" id="P" style="stroke:#A80036;stroke-width:1.5;" width="90" x="1518" y="83.3564"/><ellipse cx="1533" cy="99.3564" fill="#ADD1B2" rx="11" ry="11" style="stroke:#A80036;stroke-width:1.0;"/><path d="M1535,95.8564 Q1535.2031,95.3564 1535.4375,95.1064 Q1535.6719,94.8564 1535.9375,94.8564 Q1536.4063,94.8564 1536.7031,95.1377 Q1537,95.4189 1537,96.0752 L1537,97.6377 Q1537,98.2939 1536.7188,98.5752 Q1536.4375,98.8564 1536,98.8564 Q1535.6094,98.8564 1535.3594,98.6846 Q1535.1094,98.5127 1535,98.0596 Q1534.9531,97.7471 1534.7813,97.5752 Q1534.4688,97.2471 1533.9063,97.0596 Q1533.3438,96.8564 1532.7813,96.8564 Q1532.0781,96.8564 1531.4844,97.1377 Q1530.9063,97.4189 1530.4531,98.0439 Q1530,98.6689 1530,99.5283 L1530,100.4502 Q1530,101.4814 1530.8438,102.1689 Q1531.6875,102.8564 1533.1875,102.8564 Q1534.0781,102.8564 1534.7031,102.6533 Q1535.0625,102.5439 1535.4688,102.1846 Q1535.7344,101.9814 1535.875,101.9189 Q1536.0156,101.8564 1536.1875,101.8564 Q1536.5156,101.8564 1536.75,102.1221 Q1537,102.3721 1537,102.7314 Q1537,103.0752 1536.6563,103.4814 Q1536.1563,104.0752 1535.3594,104.4033 Q1534.3125,104.8564 1533.0313,104.8564 Q1531.5313,104.8564 1530.3281,104.2627 Q1529.3594,103.7939 1528.6719,102.7783 Q1528,101.7627 1528,100.5596 L1528,99.4658 Q1528,98.2158 1528.5938,97.1221 Q1529.2031,96.0283 1530.25,95.4502 Q1531.3125,94.8564 1532.5,94.8564 Q1533.2188,94.8564 1533.8438,95.1064 Q1534.4688,95.3564 1535,95.8564 Z " fill="#000000"/><text fill="#000000" font-family="sans-serif" font-size="12" lengthAdjust="spacing" textLength="58" x="1547" y="104.2666">Parameter</text><line style="stroke:#A80036;stroke-width:1.5;" x1="1519" x2="1607" y1="115.3564" y2="115.3564"/><text fill="#000000" font-family="sans-serif" font-size="11" lengthAdjust="spacing" textLength="28" x="1524" y="130.7754">-code</text><text fill="#000000" font-family="sans-serif" font-size="11" lengthAdjust="spacing" textLength="57" x="1524" y="144.6113">-description</text><text fill="#000000" font-family="sans-serif" font-size="11" lengthAdjust="spacing" textLength="59" x="1524" y="158.4473">-designation</text><line style="stroke:#A80036;stroke-width:1.5;" x1="1519" x2="1607" y1="164.8643" y2="164.8643"/><!--MD5=[808bc6f30abcce3f75fbe2ba7c53e00a]
class pcDto--><rect codeLine="21" fill="#FEFECE" filter="url(#f99kcutdnsacb)" height="61.8359" id="pcDto" style="stroke:#A80036;stroke-width:1.5;" width="269" x="547" y="307.3564"/><ellipse cx="614.25" cy="323.3564" fill="#ADD1B2" rx="11" ry="11" style="stroke:#A80036;stroke-width:1.0;"/><path d="M616.25,319.8564 Q616.4531,319.3564 616.6875,319.1064 Q616.9219,318.8564 617.1875,318.8564 Q617.6563,318.8564 617.9531,319.1377 Q618.25,319.4189 618.25,320.0752 L618.25,321.6377 Q618.25,322.2939 617.9688,322.5752 Q617.6875,322.8564 617.25,322.8564 Q616.8594,322.8564 616.6094,322.6846 Q616.3594,322.5127 616.25,322.0596 Q616.2031,321.7471 616.0313,321.5752 Q615.7188,321.2471 615.1563,321.0596 Q614.5938,320.8564 614.0313,320.8564 Q613.3281,320.8564 612.7344,321.1377 Q612.1563,321.4189 611.7031,322.0439 Q611.25,322.6689 611.25,323.5283 L611.25,324.4502 Q611.25,325.4814 612.0938,326.1689 Q612.9375,326.8564 614.4375,326.8564 Q615.3281,326.8564 615.9531,326.6533 Q616.3125,326.5439 616.7188,326.1846 Q616.9844,325.9814 617.125,325.9189 Q617.2656,325.8564 617.4375,325.8564 Q617.7656,325.8564 618,326.1221 Q618.25,326.3721 618.25,326.7314 Q618.25,327.0752 617.9063,327.4814 Q617.4063,328.0752 616.6094,328.4033 Q615.5625,328.8564 614.2813,328.8564 Q612.7813,328.8564 611.5781,328.2627 Q610.6094,327.7939 609.9219,326.7783 Q609.25,325.7627 609.25,324.5596 L609.25,323.4658 Q609.25,322.2158 609.8438,321.1221 Q610.4531,320.0283 611.5,319.4502 Q612.5625,318.8564 613.75,318.8564 Q614.4688,318.8564 615.0938,319.1064 Q615.7188,319.3564 616.25,319.8564 Z " fill="#000000"/><text fill="#000000" font-family="sans-serif" font-size="12" lengthAdjust="spacing" textLength="126" x="634.75" y="328.2666">ParameterCategoryDto</text><line style="stroke:#A80036;stroke-width:1.5;" x1="548" x2="815" y1="339.3564" y2="339.3564"/><line style="stroke:#A80036;stroke-width:1.5;" x1="548" x2="815" y1="347.3564" y2="347.3564"/><text fill="#000000" font-family="sans-serif" font-size="11" lengthAdjust="spacing" textLength="257" x="553" y="362.7754">+toDto(List&lt;ParameterCategory&gt; parameterCategory)</text><!--MD5=[e30ab5e057b1e0e1f2481ca2819f4841]
class CPCC--><rect codeLine="46" fill="#FEFECE" filter="url(#f99kcutdnsacb)" height="131.0156" id="CPCC" style="stroke:#A80036;stroke-width:1.5;" width="230" x="256" y="188.8564"/><ellipse cx="271" cy="204.8564" fill="#ADD1B2" rx="11" ry="11" style="stroke:#A80036;stroke-width:1.0;"/><path d="M273,201.3564 Q273.2031,200.8564 273.4375,200.6064 Q273.6719,200.3564 273.9375,200.3564 Q274.4063,200.3564 274.7031,200.6377 Q275,200.9189 275,201.5752 L275,203.1377 Q275,203.7939 274.7188,204.0752 Q274.4375,204.3564 274,204.3564 Q273.6094,204.3564 273.3594,204.1846 Q273.1094,204.0127 273,203.5596 Q272.9531,203.2471 272.7813,203.0752 Q272.4688,202.7471 271.9063,202.5596 Q271.3438,202.3564 270.7813,202.3564 Q270.0781,202.3564 269.4844,202.6377 Q268.9063,202.9189 268.4531,203.5439 Q268,204.1689 268,205.0283 L268,205.9502 Q268,206.9814 268.8438,207.6689 Q269.6875,208.3564 271.1875,208.3564 Q272.0781,208.3564 272.7031,208.1533 Q273.0625,208.0439 273.4688,207.6846 Q273.7344,207.4814 273.875,207.4189 Q274.0156,207.3564 274.1875,207.3564 Q274.5156,207.3564 274.75,207.6221 Q275,207.8721 275,208.2314 Q275,208.5752 274.6563,208.9814 Q274.1563,209.5752 273.3594,209.9033 Q272.3125,210.3564 271.0313,210.3564 Q269.5313,210.3564 268.3281,209.7627 Q267.3594,209.2939 266.6719,208.2783 Q266,207.2627 266,206.0596 L266,204.9658 Q266,203.7158 266.5938,202.6221 Q267.2031,201.5283 268.25,200.9502 Q269.3125,200.3564 270.5,200.3564 Q271.2188,200.3564 271.8438,200.6064 Q272.4688,200.8564 273,201.3564 Z " fill="#000000"/><text fill="#000000" font-family="sans-serif" font-size="12" lengthAdjust="spacing" textLength="198" x="285" y="209.7666">CreateParameterCategoryController</text><line style="stroke:#A80036;stroke-width:1.5;" x1="257" x2="485" y1="220.8564" y2="220.8564"/><line style="stroke:#A80036;stroke-width:1.5;" x1="257" x2="485" y1="228.8564" y2="228.8564"/><text fill="#000000" font-family="sans-serif" font-size="11" lengthAdjust="spacing" textLength="185" x="262" y="244.2754">+CreateParameterCategoryController()</text><text fill="#000000" font-family="sans-serif" font-size="11" lengthAdjust="spacing" textLength="158" x="262" y="258.1113">+getAllParameterCategoriesDto()</text><text fill="#000000" font-family="sans-serif" font-size="11" lengthAdjust="spacing" textLength="194" x="262" y="271.9473">+createParameterCategory(name, code)</text><text fill="#000000" font-family="sans-serif" font-size="11" lengthAdjust="spacing" textLength="131" x="262" y="285.7832">+saveParameterCategory()</text><text fill="#000000" font-family="sans-serif" font-size="11" lengthAdjust="spacing" textLength="184" x="262" y="299.6191">+getParameterCategoryByCode(code)</text><text fill="#000000" font-family="sans-serif" font-size="11" lengthAdjust="spacing" textLength="142" x="262" y="313.4551">+getAllParameterCategories()</text><!--MD5=[2628f93c2b91159b8b11117185f029f9]
class PCS--><rect codeLine="34" fill="#FEFECE" filter="url(#f99kcutdnsacb)" height="144.8516" id="PCS" style="stroke:#A80036;stroke-width:1.5;" width="206" x="877" y="55.8564"/><ellipse cx="909.1" cy="71.8564" fill="#ADD1B2" rx="11" ry="11" style="stroke:#A80036;stroke-width:1.0;"/><path d="M911.1,68.3564 Q911.3031,67.8564 911.5375,67.6064 Q911.7719,67.3564 912.0375,67.3564 Q912.5063,67.3564 912.8031,67.6377 Q913.1,67.9189 913.1,68.5752 L913.1,70.1377 Q913.1,70.7939 912.8188,71.0752 Q912.5375,71.3564 912.1,71.3564 Q911.7094,71.3564 911.4594,71.1846 Q911.2094,71.0127 911.1,70.5596 Q911.0531,70.2471 910.8813,70.0752 Q910.5688,69.7471 910.0063,69.5596 Q909.4438,69.3564 908.8813,69.3564 Q908.1781,69.3564 907.5844,69.6377 Q907.0063,69.9189 906.5531,70.5439 Q906.1,71.1689 906.1,72.0283 L906.1,72.9502 Q906.1,73.9814 906.9438,74.6689 Q907.7875,75.3564 909.2875,75.3564 Q910.1781,75.3564 910.8031,75.1533 Q911.1625,75.0439 911.5688,74.6846 Q911.8344,74.4814 911.975,74.4189 Q912.1156,74.3564 912.2875,74.3564 Q912.6156,74.3564 912.85,74.6221 Q913.1,74.8721 913.1,75.2314 Q913.1,75.5752 912.7563,75.9814 Q912.2563,76.5752 911.4594,76.9033 Q910.4125,77.3564 909.1313,77.3564 Q907.6313,77.3564 906.4281,76.7627 Q905.4594,76.2939 904.7719,75.2783 Q904.1,74.2627 904.1,73.0596 L904.1,71.9658 Q904.1,70.7158 904.6938,69.6221 Q905.3031,68.5283 906.35,67.9502 Q907.4125,67.3564 908.6,67.3564 Q909.3188,67.3564 909.9438,67.6064 Q910.5688,67.8564 911.1,68.3564 Z " fill="#000000"/><text fill="#000000" font-family="sans-serif" font-size="12" lengthAdjust="spacing" textLength="136" x="926.9" y="76.7666">ParameterCategoryStore</text><line style="stroke:#A80036;stroke-width:1.5;" x1="878" x2="1082" y1="87.8564" y2="87.8564"/><line style="stroke:#A80036;stroke-width:1.5;" x1="878" x2="1082" y1="95.8564" y2="95.8564"/><text fill="#000000" font-family="sans-serif" font-size="11" lengthAdjust="spacing" textLength="133" x="883" y="111.2754">+ParameterCategoryStore()</text><text fill="#000000" font-family="sans-serif" font-size="11" lengthAdjust="spacing" textLength="194" x="883" y="125.1113">+createParameterCategory(name, code)</text><text fill="#000000" font-family="sans-serif" font-size="11" lengthAdjust="spacing" textLength="143" x="883" y="138.9473">+saveParameterCategory(pc)</text><text fill="#000000" font-family="sans-serif" font-size="11" lengthAdjust="spacing" textLength="156" x="883" y="152.7832">+validateParameterCategory(pc)</text><text fill="#000000" font-family="sans-serif" font-size="11" lengthAdjust="spacing" textLength="137" x="883" y="166.6191">+addParameterCategory(pc)</text><text fill="#000000" font-family="sans-serif" font-size="11" lengthAdjust="spacing" textLength="184" x="883" y="180.4551">+getParameterCategoryByCode(code)</text><text fill="#000000" font-family="sans-serif" font-size="11" lengthAdjust="spacing" textLength="142" x="883" y="194.291">+getAllParameterCategories()</text><!--MD5=[00403e4dca353628649419b307de1c9e]
class CPCUI--><rect codeLine="44" fill="#FEFECE" filter="url(#f99kcutdnsacb)" height="48" id="CPCUI" style="stroke:#A80036;stroke-width:1.5;" width="188" x="7" y="230.3564"/><ellipse cx="22" cy="246.3564" fill="#ADD1B2" rx="11" ry="11" style="stroke:#A80036;stroke-width:1.0;"/><path d="M24,242.8564 Q24.2031,242.3564 24.4375,242.1064 Q24.6719,241.8564 24.9375,241.8564 Q25.4063,241.8564 25.7031,242.1377 Q26,242.4189 26,243.0752 L26,244.6377 Q26,245.2939 25.7188,245.5752 Q25.4375,245.8564 25,245.8564 Q24.6094,245.8564 24.3594,245.6846 Q24.1094,245.5127 24,245.0596 Q23.9531,244.7471 23.7813,244.5752 Q23.4688,244.2471 22.9063,244.0596 Q22.3438,243.8564 21.7813,243.8564 Q21.0781,243.8564 20.4844,244.1377 Q19.9063,244.4189 19.4531,245.0439 Q19,245.6689 19,246.5283 L19,247.4502 Q19,248.4814 19.8438,249.1689 Q20.6875,249.8564 22.1875,249.8564 Q23.0781,249.8564 23.7031,249.6533 Q24.0625,249.5439 24.4688,249.1846 Q24.7344,248.9814 24.875,248.9189 Q25.0156,248.8564 25.1875,248.8564 Q25.5156,248.8564 25.75,249.1221 Q26,249.3721 26,249.7314 Q26,250.0752 25.6563,250.4814 Q25.1563,251.0752 24.3594,251.4033 Q23.3125,251.8564 22.0313,251.8564 Q20.5313,251.8564 19.3281,251.2627 Q18.3594,250.7939 17.6719,249.7783 Q17,248.7627 17,247.5596 L17,246.4658 Q17,245.2158 17.5938,244.1221 Q18.2031,243.0283 19.25,242.4502 Q20.3125,241.8564 21.5,241.8564 Q22.2188,241.8564 22.8438,242.1064 Q23.4688,242.3564 24,242.8564 Z " fill="#000000"/><text fill="#000000" font-family="sans-serif" font-size="12" lengthAdjust="spacing" textLength="156" x="36" y="251.2666">CreateParameterCategoryUI</text><line style="stroke:#A80036;stroke-width:1.5;" x1="8" x2="194" y1="262.3564" y2="262.3564"/><line style="stroke:#A80036;stroke-width:1.5;" x1="8" x2="194" y1="270.3564" y2="270.3564"/><!--MD5=[c834942a222c3abe9095cbfe59e8b6fc]
link CPCUI to CPCC--><path codeLine="48" d="M195.36,254.3564 C213.17,254.3564 232.04,254.3564 250.54,254.3564 " fill="none" id="CPCUI-to-CPCC" style="stroke:#A80036;stroke-width:1.0;stroke-dasharray:7.0,7.0;"/><polygon fill="#A80036" points="255.74,254.3564,246.74,250.3564,250.74,254.3564,246.74,258.3564,255.74,254.3564" style="stroke:#A80036;stroke-width:1.0;"/><!--MD5=[f07a181a9e107ce120212b5ecc2c2e73]
link COMP to PCS--><path codeLine="49" d="M761.57,128.3564 C795.33,128.3564 835.27,128.3564 871.64,128.3564 " fill="none" id="COMP-to-PCS" style="stroke:#A80036;stroke-width:1.0;stroke-dasharray:7.0,7.0;"/><polygon fill="#A80036" points="876.98,128.3564,867.98,124.3564,871.98,128.3564,867.98,132.3564,876.98,128.3564" style="stroke:#A80036;stroke-width:1.0;"/><!--MD5=[ec3379c74b50ba666e85a4d345362971]
link PCS to PC--><path codeLine="50" d="M1083.24,128.3564 C1115.59,128.3564 1151.13,128.3564 1182.7,128.3564 " fill="none" id="PCS-to-PC" style="stroke:#A80036;stroke-width:1.0;stroke-dasharray:7.0,7.0;"/><polygon fill="#A80036" points="1187.73,128.3564,1178.73,124.3564,1182.73,128.3564,1178.73,132.3564,1187.73,128.3564" style="stroke:#A80036;stroke-width:1.0;"/><text fill="#000000" font-family="sans-serif" font-size="13" lengthAdjust="spacing" textLength="43" x="1114" y="124.8516">creates</text><!--MD5=[7fa99a5de225a656314fa2378570f25b]
link CPCC to PC--><path codeLine="51" d="M486.04,261.9864 C628.15,268.4464 877.36,269.7664 1083,218.3564 C1120.19,209.0564 1158.89,192.3864 1191.68,175.8864 " fill="none" id="CPCC-to-PC" style="stroke:#A80036;stroke-width:1.0;stroke-dasharray:7.0,7.0;"/><polygon fill="#A80036" points="1196.48,173.4564,1186.6431,173.9413,1192.0165,175.7096,1190.2481,181.083,1196.48,173.4564" style="stroke:#A80036;stroke-width:1.0;"/><!--MD5=[54ecc25e00ead64bc78268798abcba79]
link CPCC to COMP--><path codeLine="52" d="M486.44,207.6164 C522.88,192.7364 562.51,176.5464 596.4,162.7064 " fill="none" id="CPCC-to-COMP" style="stroke:#A80036;stroke-width:1.0;stroke-dasharray:7.0,7.0;"/><polygon fill="#A80036" points="601.36,160.6764,591.516,160.3677,596.7295,162.5629,594.5344,167.7765,601.36,160.6764" style="stroke:#A80036;stroke-width:1.0;"/><!--MD5=[6fc88f7d8a265b363b6a202d927abbe3]
link CPCC to pcDto--><path codeLine="53" d="M486.44,285.5164 C510.95,292.1864 536.91,299.2564 561.59,305.9764 " fill="none" id="CPCC-to-pcDto" style="stroke:#A80036;stroke-width:1.0;stroke-dasharray:7.0,7.0;"/><polygon fill="#A80036" points="566.51,307.3164,558.8765,301.0932,561.6855,306.0033,556.7754,308.8123,566.51,307.3164" style="stroke:#A80036;stroke-width:1.0;"/><!--MD5=[3914f7713a857e78f946d77485cd6b08]
reverse link PC to P--><path codeLine="54" d="M1368.44,128.3564 C1418.46,128.3564 1478.05,128.3564 1517.77,128.3564 " fill="none" id="PC-backto-P" style="stroke:#A80036;stroke-width:1.0;"/><polygon fill="#A80036" points="1363.32,128.3564,1372.32,132.3564,1368.32,128.3564,1372.32,124.3564,1363.32,128.3564" style="stroke:#A80036;stroke-width:1.0;"/><text fill="#000000" font-family="sans-serif" font-size="13" lengthAdjust="spacing" textLength="93" x="1394" y="124.8516">presented under</text><text fill="#000000" font-family="sans-serif" font-size="13" lengthAdjust="spacing" textLength="7" x="1370.8824" y="142.549">1</text><text fill="#000000" font-family="sans-serif" font-size="13" lengthAdjust="spacing" textLength="7" x="1503.0037" y="143.1938">1</text><!--MD5=[c28b9b78ed0bf11d189faa2cf73d5ea8]
link COMP to PC--><path codeLine="55" d="M746.17,90.3364 C783,70.5664 831.03,48.4764 877,38.3564 C966.41,18.6764 993.64,18.4064 1083,38.3564 C1121.1,46.8664 1160.57,63.8164 1193.71,80.7364 " fill="none" id="COMP-to-PC" style="stroke:#A80036;stroke-width:1.0;"/><polygon fill="#A80036" points="1198.55,83.2364,1192.3964,75.5466,1194.1097,80.9378,1188.7186,82.6511,1198.55,83.2364" style="stroke:#A80036;stroke-width:1.0;"/><text fill="#000000" font-family="sans-serif" font-size="13" lengthAdjust="spacing" textLength="39" x="960.5" y="20.8516">adopts</text><text fill="#000000" font-family="sans-serif" font-size="13" lengthAdjust="spacing" textLength="7" x="750.4482" y="79.4093">1</text><text fill="#000000" font-family="sans-serif" font-size="13" lengthAdjust="spacing" textLength="5" x="1181.3842" y="72.6622">*</text><!--MD5=[81623f79a7254c51de0eb23f8538ae72]
@startuml
skinparam classAttributeIconSize 0
left to right direction

class "Company" as COMP {
-designation
+getParameterCategoryStore()
}

class "ParameterCategory" as PC {
-name
-code
+ParameterCategory(name, code)
}

class "Parameter" as P{
-code
-description
-designation
}

class "ParameterCategoryDto" as pcDto{
+toDto(List<ParameterCategory> parameterCategory)
}

class "CreateParameterCategoryController" as CPCC {
+CreateParameterCategoryController()
+getAllParameterCategoriesDto()
+createParameterCategory(name, code)
+saveParameterCategory()
+getParameterCategoryByCode(code)
+getAllParameterCategories()
}

class "ParameterCategoryStore" as PCS {
+ParameterCategoryStore()
+createParameterCategory(name, code)
+saveParameterCategory(pc)
+validateParameterCategory(pc)
+addParameterCategory(pc)
+getParameterCategoryByCode(code)
+getAllParameterCategories()
}

class "CreateParameterCategoryUI" as CPCUI
class "ParameterCategory" as PC
class "CreateParameterCategoryController" as CPCC

CPCUI ..> CPCC
COMP ..> PCS
PCS ..> PC  :creates
CPCC ..> PC
CPCC ..> COMP
CPCC ..> pcDto
PC "1" <- - "1" P : presented under
COMP "1" - -> "*" PC : adopts

@enduml

PlantUML version 1.2021.5(Sun Apr 25 12:20:28 BST 2021)
(GPL source distribution)
Java Runtime: OpenJDK Runtime Environment
JVM: OpenJDK 64-Bit Server VM
Default Encoding: Cp1252
Language: pt
Country: PT
--></g></svg>