<?xml version="1.0" encoding="UTF-8" standalone="no"?><svg xmlns="http://www.w3.org/2000/svg" xmlns:xlink="http://www.w3.org/1999/xlink" contentScriptType="application/ecmascript" contentStyleType="text/css" height="311px" preserveAspectRatio="none" style="width:913px;height:311px;" version="1.1" viewBox="0 0 913 311" width="913px" zoomAndPan="magnify"><defs><filter height="300%" id="f4mzi2phwwskx" width="300%" x="-1" y="-1"><feGaussianBlur result="blurOut" stdDeviation="2.0"/><feColorMatrix in="blurOut" result="blurOut2" type="matrix" values="0 0 0 0 0 0 0 0 0 0 0 0 0 0 0 0 0 0 .4 0"/><feOffset dx="4.0" dy="4.0" in="blurOut2" result="blurOut3"/><feBlend in="SourceGraphic" in2="blurOut3" mode="normal"/></filter></defs><g><!--MD5=[02e4b9b7573f1156f41e60aa5b4e25a4]
class Company--><rect codeLine="17" fill="#FEFECE" filter="url(#f4mzi2phwwskx)" height="53.8359" id="Company" style="stroke:#A80036;stroke-width:1.5;" width="85" x="7" y="170.5"/><ellipse cx="22" cy="186.5" fill="#ADD1B2" rx="11" ry="11" style="stroke:#A80036;stroke-width:1.0;"/><path d="M24,183 Q24.2031,182.5 24.4375,182.25 Q24.6719,182 24.9375,182 Q25.4063,182 25.7031,182.2813 Q26,182.5625 26,183.2188 L26,184.7813 Q26,185.4375 25.7188,185.7188 Q25.4375,186 25,186 Q24.6094,186 24.3594,185.8281 Q24.1094,185.6563 24,185.2031 Q23.9531,184.8906 23.7813,184.7188 Q23.4688,184.3906 22.9063,184.2031 Q22.3438,184 21.7813,184 Q21.0781,184 20.4844,184.2813 Q19.9063,184.5625 19.4531,185.1875 Q19,185.8125 19,186.6719 L19,187.5938 Q19,188.625 19.8438,189.3125 Q20.6875,190 22.1875,190 Q23.0781,190 23.7031,189.7969 Q24.0625,189.6875 24.4688,189.3281 Q24.7344,189.125 24.875,189.0625 Q25.0156,189 25.1875,189 Q25.5156,189 25.75,189.2656 Q26,189.5156 26,189.875 Q26,190.2188 25.6563,190.625 Q25.1563,191.2188 24.3594,191.5469 Q23.3125,192 22.0313,192 Q20.5313,192 19.3281,191.4063 Q18.3594,190.9375 17.6719,189.9219 Q17,188.9063 17,187.7031 L17,186.6094 Q17,185.3594 17.5938,184.2656 Q18.2031,183.1719 19.25,182.5938 Q20.3125,182 21.5,182 Q22.2188,182 22.8438,182.25 Q23.4688,182.5 24,183 Z " fill="#000000"/><text fill="#000000" font-family="sans-serif" font-size="12" lengthAdjust="spacing" textLength="53" x="36" y="191.4102">Company</text><line style="stroke:#A80036;stroke-width:1.5;" x1="8" x2="91" y1="202.5" y2="202.5"/><text fill="#000000" font-family="sans-serif" font-size="11" lengthAdjust="spacing" textLength="59" x="13" y="217.9189">-designation</text><!--MD5=[da547346deef918ea16944ba046651ef]
class Administrator--><rect codeLine="35" fill="#FEFECE" filter="url(#f4mzi2phwwskx)" height="136.8516" id="Administrator" style="stroke:#A80036;stroke-width:1.5;" width="105" x="204" y="7"/><ellipse cx="219" cy="23" fill="#ADD1B2" rx="11" ry="11" style="stroke:#A80036;stroke-width:1.0;"/><path d="M221,19.5 Q221.2031,19 221.4375,18.75 Q221.6719,18.5 221.9375,18.5 Q222.4063,18.5 222.7031,18.7813 Q223,19.0625 223,19.7188 L223,21.2813 Q223,21.9375 222.7188,22.2188 Q222.4375,22.5 222,22.5 Q221.6094,22.5 221.3594,22.3281 Q221.1094,22.1563 221,21.7031 Q220.9531,21.3906 220.7813,21.2188 Q220.4688,20.8906 219.9063,20.7031 Q219.3438,20.5 218.7813,20.5 Q218.0781,20.5 217.4844,20.7813 Q216.9063,21.0625 216.4531,21.6875 Q216,22.3125 216,23.1719 L216,24.0938 Q216,25.125 216.8438,25.8125 Q217.6875,26.5 219.1875,26.5 Q220.0781,26.5 220.7031,26.2969 Q221.0625,26.1875 221.4688,25.8281 Q221.7344,25.625 221.875,25.5625 Q222.0156,25.5 222.1875,25.5 Q222.5156,25.5 222.75,25.7656 Q223,26.0156 223,26.375 Q223,26.7188 222.6563,27.125 Q222.1563,27.7188 221.3594,28.0469 Q220.3125,28.5 219.0313,28.5 Q217.5313,28.5 216.3281,27.9063 Q215.3594,27.4375 214.6719,26.4219 Q214,25.4063 214,24.2031 L214,23.1094 Q214,21.8594 214.5938,20.7656 Q215.2031,19.6719 216.25,19.0938 Q217.3125,18.5 218.5,18.5 Q219.2188,18.5 219.8438,18.75 Q220.4688,19 221,19.5 Z " fill="#000000"/><text fill="#000000" font-family="sans-serif" font-size="12" lengthAdjust="spacing" textLength="73" x="233" y="27.9102">Administrator</text><line style="stroke:#A80036;stroke-width:1.5;" x1="205" x2="308" y1="39" y2="39"/><text fill="#000000" font-family="sans-serif" font-size="11" lengthAdjust="spacing" textLength="30" x="210" y="54.4189">-name</text><text fill="#000000" font-family="sans-serif" font-size="11" lengthAdjust="spacing" textLength="44" x="210" y="68.2549">-address</text><text fill="#000000" font-family="sans-serif" font-size="11" lengthAdjust="spacing" textLength="71" x="210" y="82.0908">-phoneNumber</text><text fill="#000000" font-family="sans-serif" font-size="11" lengthAdjust="spacing" textLength="59" x="210" y="95.9268">-employeeID</text><text fill="#000000" font-family="sans-serif" font-size="11" lengthAdjust="spacing" textLength="41" x="210" y="109.7627">-orgRole</text><text fill="#000000" font-family="sans-serif" font-size="11" lengthAdjust="spacing" textLength="28" x="210" y="123.5986">-email</text><text fill="#000000" font-family="sans-serif" font-size="11" lengthAdjust="spacing" textLength="50" x="210" y="137.4346">-SOCcode</text><!--MD5=[36afb6bbd95a8ac778c4537c55a683d5]
class ParameterCategory--><rect codeLine="23" fill="#FEFECE" filter="url(#f4mzi2phwwskx)" height="81.5078" id="ParameterCategory" style="stroke:#A80036;stroke-width:1.5;" width="139" x="502" y="150.5"/><ellipse cx="517" cy="166.5" fill="#ADD1B2" rx="11" ry="11" style="stroke:#A80036;stroke-width:1.0;"/><path d="M519,163 Q519.2031,162.5 519.4375,162.25 Q519.6719,162 519.9375,162 Q520.4063,162 520.7031,162.2813 Q521,162.5625 521,163.2188 L521,164.7813 Q521,165.4375 520.7188,165.7188 Q520.4375,166 520,166 Q519.6094,166 519.3594,165.8281 Q519.1094,165.6563 519,165.2031 Q518.9531,164.8906 518.7813,164.7188 Q518.4688,164.3906 517.9063,164.2031 Q517.3438,164 516.7813,164 Q516.0781,164 515.4844,164.2813 Q514.9063,164.5625 514.4531,165.1875 Q514,165.8125 514,166.6719 L514,167.5938 Q514,168.625 514.8438,169.3125 Q515.6875,170 517.1875,170 Q518.0781,170 518.7031,169.7969 Q519.0625,169.6875 519.4688,169.3281 Q519.7344,169.125 519.875,169.0625 Q520.0156,169 520.1875,169 Q520.5156,169 520.75,169.2656 Q521,169.5156 521,169.875 Q521,170.2188 520.6563,170.625 Q520.1563,171.2188 519.3594,171.5469 Q518.3125,172 517.0313,172 Q515.5313,172 514.3281,171.4063 Q513.3594,170.9375 512.6719,169.9219 Q512,168.9063 512,167.7031 L512,166.6094 Q512,165.3594 512.5938,164.2656 Q513.2031,163.1719 514.25,162.5938 Q515.3125,162 516.5,162 Q517.2188,162 517.8438,162.25 Q518.4688,162.5 519,163 Z " fill="#000000"/><text fill="#000000" font-family="sans-serif" font-size="12" lengthAdjust="spacing" textLength="107" x="531" y="171.4102">ParameterCategory</text><line style="stroke:#A80036;stroke-width:1.5;" x1="503" x2="640" y1="182.5" y2="182.5"/><text fill="#000000" font-family="sans-serif" font-size="11" lengthAdjust="spacing" textLength="28" x="508" y="197.9189">-code</text><text fill="#000000" font-family="sans-serif" font-size="11" lengthAdjust="spacing" textLength="57" x="508" y="211.7549">-description</text><text fill="#000000" font-family="sans-serif" font-size="11" lengthAdjust="spacing" textLength="31" x="508" y="225.5908">-nhsID</text><!--MD5=[1f6362a5c8f21d8d6a0fce68f3a92a4e]
class Parameter--><rect codeLine="29" fill="#FEFECE" filter="url(#f4mzi2phwwskx)" height="81.5078" id="Parameter" style="stroke:#A80036;stroke-width:1.5;" width="90" x="809" y="215.5"/><ellipse cx="824" cy="231.5" fill="#ADD1B2" rx="11" ry="11" style="stroke:#A80036;stroke-width:1.0;"/><path d="M826,228 Q826.2031,227.5 826.4375,227.25 Q826.6719,227 826.9375,227 Q827.4063,227 827.7031,227.2813 Q828,227.5625 828,228.2188 L828,229.7813 Q828,230.4375 827.7188,230.7188 Q827.4375,231 827,231 Q826.6094,231 826.3594,230.8281 Q826.1094,230.6563 826,230.2031 Q825.9531,229.8906 825.7813,229.7188 Q825.4688,229.3906 824.9063,229.2031 Q824.3438,229 823.7813,229 Q823.0781,229 822.4844,229.2813 Q821.9063,229.5625 821.4531,230.1875 Q821,230.8125 821,231.6719 L821,232.5938 Q821,233.625 821.8438,234.3125 Q822.6875,235 824.1875,235 Q825.0781,235 825.7031,234.7969 Q826.0625,234.6875 826.4688,234.3281 Q826.7344,234.125 826.875,234.0625 Q827.0156,234 827.1875,234 Q827.5156,234 827.75,234.2656 Q828,234.5156 828,234.875 Q828,235.2188 827.6563,235.625 Q827.1563,236.2188 826.3594,236.5469 Q825.3125,237 824.0313,237 Q822.5313,237 821.3281,236.4063 Q820.3594,235.9375 819.6719,234.9219 Q819,233.9063 819,232.7031 L819,231.6094 Q819,230.3594 819.5938,229.2656 Q820.2031,228.1719 821.25,227.5938 Q822.3125,227 823.5,227 Q824.2188,227 824.8438,227.25 Q825.4688,227.5 826,228 Z " fill="#000000"/><text fill="#000000" font-family="sans-serif" font-size="12" lengthAdjust="spacing" textLength="58" x="838" y="236.4102">Parameter</text><line style="stroke:#A80036;stroke-width:1.5;" x1="810" x2="898" y1="247.5" y2="247.5"/><text fill="#000000" font-family="sans-serif" font-size="11" lengthAdjust="spacing" textLength="59" x="815" y="262.9189">-designation</text><text fill="#000000" font-family="sans-serif" font-size="11" lengthAdjust="spacing" textLength="57" x="815" y="276.7549">-description</text><text fill="#000000" font-family="sans-serif" font-size="11" lengthAdjust="spacing" textLength="28" x="815" y="290.5908">-code</text><!--MD5=[12d76240d3c3c66074d4ec2ea8bf469c]
link Company to Parameter--><path codeLine="10" d="M92.08,203.79 C171.51,215.49 350.41,240.33 502,250.5 C612.22,257.89 742.31,257.82 808.89,257.15 " fill="none" id="Company-Parameter" style="stroke:#A80036;stroke-width:1.0;"/><polygon fill="#000000" points="348.9862,227.047,340.1842,223.4447,339.7479,229.3063,348.9862,227.047" style="stroke:#000000;stroke-width:1.0;"/><text fill="#000000" font-family="sans-serif" font-size="13" lengthAdjust="spacing" textLength="118" x="353" y="231.9951">capable of analysing</text><text fill="#000000" font-family="sans-serif" font-size="13" lengthAdjust="spacing" textLength="7" x="100" y="201.0355">1</text><text fill="#000000" font-family="sans-serif" font-size="13" lengthAdjust="spacing" textLength="5" x="796.0046" y="272.1476">*</text><!--MD5=[93b4f25fb503a8e0e9a46b1d30ff3f44]
link Company to ParameterCategory--><path codeLine="11" d="M92.17,197.02 C181.59,195.99 392.57,193.55 501.99,192.29 " fill="none" id="Company-ParameterCategory" style="stroke:#A80036;stroke-width:1.0;"/><polygon fill="#000000" points="239.4997,186.6181,230.4213,183.7837,230.4891,189.6612,239.4997,186.6181" style="stroke:#000000;stroke-width:1.0;"/><text fill="#000000" font-family="sans-serif" font-size="13" lengthAdjust="spacing" textLength="39" x="243.5" y="191.9951">adopts</text><text fill="#000000" font-family="sans-serif" font-size="13" lengthAdjust="spacing" textLength="7" x="100.1055" y="211.8519">1</text><text fill="#000000" font-family="sans-serif" font-size="13" lengthAdjust="spacing" textLength="5" x="489.1139" y="206.7927">*</text><!--MD5=[eaea43e34e45c5b9d20b595fc78f1f20]
link Company to Administrator--><path codeLine="12" d="M92.48,172.52 C124.69,153.35 169.33,126.78 203.75,106.29 " fill="none" id="Company-Administrator" style="stroke:#A80036;stroke-width:1.0;"/><polygon fill="#000000" points="131.2965,115.1184,122.0209,117.2193,125.0272,122.2701,131.2965,115.1184" style="stroke:#000000;stroke-width:1.0;"/><text fill="#000000" font-family="sans-serif" font-size="13" lengthAdjust="spacing" textLength="37" x="136" y="122.9951">knows</text><text fill="#000000" font-family="sans-serif" font-size="13" lengthAdjust="spacing" textLength="7" x="99.8878" y="183.35">1</text><text fill="#000000" font-family="sans-serif" font-size="13" lengthAdjust="spacing" textLength="5" x="190.9805" y="125.2751">*</text><!--MD5=[7a9e3e328fb1db48284e23a673c1e60d]
link ParameterCategory to Parameter--><path codeLine="13" d="M641.12,207.4 C693.34,219.5 763.68,235.8 808.7,246.23 " fill="none" id="ParameterCategory-Parameter" style="stroke:#A80036;stroke-width:1.0;"/><polygon fill="#000000" points="671.1291,203.5471,679.2773,208.4519,680.6041,202.7258,671.1291,203.5471" style="stroke:#000000;stroke-width:1.0;"/><text fill="#000000" font-family="sans-serif" font-size="13" lengthAdjust="spacing" textLength="93" x="685" y="209.9951">presented under</text><text fill="#000000" font-family="sans-serif" font-size="13" lengthAdjust="spacing" textLength="7" x="649.1175" y="223.5553">1</text><text fill="#000000" font-family="sans-serif" font-size="13" lengthAdjust="spacing" textLength="5" x="796.0819" y="240.8806">*</text><!--MD5=[7144ffdeebbe38808f7fb2ce8ac24f7d]
link Administrator to ParameterCategory--><path codeLine="14" d="M309.19,94.66 C361.8,114.15 443.66,144.49 501.72,166.01 " fill="none" id="Administrator-ParameterCategory" style="stroke:#A80036;stroke-width:1.0;"/><polygon fill="#000000" points="367.8116,96.9383,375.2717,102.8372,377.3143,97.3257,367.8116,96.9383" style="stroke:#000000;stroke-width:1.0;"/><text fill="#000000" font-family="sans-serif" font-size="13" lengthAdjust="spacing" textLength="61" x="381.5" y="103.9951">created by</text><text fill="#000000" font-family="sans-serif" font-size="13" lengthAdjust="spacing" textLength="5" x="316.9511" y="112.0096">*</text><text fill="#000000" font-family="sans-serif" font-size="13" lengthAdjust="spacing" textLength="5" x="488.8144" y="177.6383">*</text><!--MD5=[166897f74079fc96120c399519b02f02]
@startuml
'https://plantuml.com/class-diagram
hide methods
left to right direction
class Company
class Administrator
class ParameterCategory
class Parameter


Company "1" - - "*" Parameter : > capable of analysing
Company "1" - - "*" ParameterCategory : > adopts
Company "1" - - "*" Administrator : > knows
ParameterCategory "1" - - "*" Parameter : < presented under
Administrator "*" - - "*" ParameterCategory : < created by

skinparam classAttributeIconSize 0
class Company{
-designation
}



class ParameterCategory{
-code
-description
-nhsID
}

class Parameter{
-designation
-description
-code
}

class Administrator{
-name
-address
-phoneNumber
-employeeID
-orgRole
-email
-SOCcode
}


@enduml

@startuml
hide methods
left to right direction
class Company
class Administrator
class ParameterCategory
class Parameter


Company "1" - - "*" Parameter : > capable of analysing
Company "1" - - "*" ParameterCategory : > adopts
Company "1" - - "*" Administrator : > knows
ParameterCategory "1" - - "*" Parameter : < presented under
Administrator "*" - - "*" ParameterCategory : < created by

skinparam classAttributeIconSize 0
class Company{
-designation
}



class ParameterCategory{
-code
-description
-nhsID
}

class Parameter{
-designation
-description
-code
}

class Administrator{
-name
-address
-phoneNumber
-employeeID
-orgRole
-email
-SOCcode
}


@enduml

PlantUML version 1.2021.2(Sun Mar 07 11:10:27 GMT 2021)
(GPL source distribution)
Java Runtime: OpenJDK Runtime Environment
JVM: OpenJDK 64-Bit Server VM
Default Encoding: Cp1252
Language: pt
Country: PT
--></g></svg>