<?xml version="1.0" encoding="UTF-8" standalone="no"?><svg xmlns="http://www.w3.org/2000/svg" xmlns:xlink="http://www.w3.org/1999/xlink" contentScriptType="application/ecmascript" contentStyleType="text/css" height="747px" preserveAspectRatio="none" style="width:846px;height:747px;" version="1.1" viewBox="0 0 846 747" width="846px" zoomAndPan="magnify"><defs><filter height="300%" id="f1tzbgn1un567f" width="300%" x="-1" y="-1"><feGaussianBlur result="blurOut" stdDeviation="2.0"/><feColorMatrix in="blurOut" result="blurOut2" type="matrix" values="0 0 0 0 0 0 0 0 0 0 0 0 0 0 0 0 0 0 .4 0"/><feOffset dx="4.0" dy="4.0" in="blurOut2" result="blurOut3"/><feBlend in="SourceGraphic" in2="blurOut3" mode="normal"/></filter></defs><g><!--MD5=[be7802b157a16874d39c59ca0e2b25be]
class ParameterStore--><rect codeLine="4" fill="#FEFECE" filter="url(#f1tzbgn1un567f)" height="103.3438" id="ParameterStore" style="stroke:#A80036;stroke-width:1.5;" width="277" x="7" y="281"/><ellipse cx="97.75" cy="297" fill="#ADD1B2" rx="11" ry="11" style="stroke:#A80036;stroke-width:1.0;"/><path d="M99.75,293.5 Q99.9531,293 100.1875,292.75 Q100.4219,292.5 100.6875,292.5 Q101.1563,292.5 101.4531,292.7813 Q101.75,293.0625 101.75,293.7188 L101.75,295.2813 Q101.75,295.9375 101.4688,296.2188 Q101.1875,296.5 100.75,296.5 Q100.3594,296.5 100.1094,296.3281 Q99.8594,296.1563 99.75,295.7031 Q99.7031,295.3906 99.5313,295.2188 Q99.2188,294.8906 98.6563,294.7031 Q98.0938,294.5 97.5313,294.5 Q96.8281,294.5 96.2344,294.7813 Q95.6563,295.0625 95.2031,295.6875 Q94.75,296.3125 94.75,297.1719 L94.75,298.0938 Q94.75,299.125 95.5938,299.8125 Q96.4375,300.5 97.9375,300.5 Q98.8281,300.5 99.4531,300.2969 Q99.8125,300.1875 100.2188,299.8281 Q100.4844,299.625 100.625,299.5625 Q100.7656,299.5 100.9375,299.5 Q101.2656,299.5 101.5,299.7656 Q101.75,300.0156 101.75,300.375 Q101.75,300.7188 101.4063,301.125 Q100.9063,301.7188 100.1094,302.0469 Q99.0625,302.5 97.7813,302.5 Q96.2813,302.5 95.0781,301.9063 Q94.1094,301.4375 93.4219,300.4219 Q92.75,299.4063 92.75,298.2031 L92.75,297.1094 Q92.75,295.8594 93.3438,294.7656 Q93.9531,293.6719 95,293.0938 Q96.0625,292.5 97.25,292.5 Q97.9688,292.5 98.5938,292.75 Q99.2188,293 99.75,293.5 Z " fill="#000000"/><text fill="#000000" font-family="sans-serif" font-size="12" lengthAdjust="spacing" textLength="87" x="118.25" y="301.9102">ParameterStore</text><line style="stroke:#A80036;stroke-width:1.5;" x1="8" x2="283" y1="313" y2="313"/><line style="stroke:#A80036;stroke-width:1.5;" x1="8" x2="283" y1="321" y2="321"/><text fill="#000000" font-family="sans-serif" font-size="11" lengthAdjust="spacing" textLength="265" x="13" y="336.4189">+createParameter(code, designation, description, pcat)</text><text fill="#000000" font-family="sans-serif" font-size="11" lengthAdjust="spacing" textLength="136" x="13" y="350.2549">+saveParameter(parameter)</text><text fill="#000000" font-family="sans-serif" font-size="11" lengthAdjust="spacing" textLength="98" x="13" y="364.0908">-validate(parameter)</text><text fill="#000000" font-family="sans-serif" font-size="11" lengthAdjust="spacing" textLength="79" x="13" y="377.9268">-add(parameter)</text><!--MD5=[d802db621b5b215a6f0466f93cefcb42]
class ParameterCategoryStore--><rect codeLine="11" fill="#FEFECE" filter="url(#f1tzbgn1un567f)" height="61.8359" id="ParameterCategoryStore" style="stroke:#A80036;stroke-width:1.5;" width="168" x="598.5" y="7"/><ellipse cx="613.5" cy="23" fill="#ADD1B2" rx="11" ry="11" style="stroke:#A80036;stroke-width:1.0;"/><path d="M615.5,19.5 Q615.7031,19 615.9375,18.75 Q616.1719,18.5 616.4375,18.5 Q616.9063,18.5 617.2031,18.7813 Q617.5,19.0625 617.5,19.7188 L617.5,21.2813 Q617.5,21.9375 617.2188,22.2188 Q616.9375,22.5 616.5,22.5 Q616.1094,22.5 615.8594,22.3281 Q615.6094,22.1563 615.5,21.7031 Q615.4531,21.3906 615.2813,21.2188 Q614.9688,20.8906 614.4063,20.7031 Q613.8438,20.5 613.2813,20.5 Q612.5781,20.5 611.9844,20.7813 Q611.4063,21.0625 610.9531,21.6875 Q610.5,22.3125 610.5,23.1719 L610.5,24.0938 Q610.5,25.125 611.3438,25.8125 Q612.1875,26.5 613.6875,26.5 Q614.5781,26.5 615.2031,26.2969 Q615.5625,26.1875 615.9688,25.8281 Q616.2344,25.625 616.375,25.5625 Q616.5156,25.5 616.6875,25.5 Q617.0156,25.5 617.25,25.7656 Q617.5,26.0156 617.5,26.375 Q617.5,26.7188 617.1563,27.125 Q616.6563,27.7188 615.8594,28.0469 Q614.8125,28.5 613.5313,28.5 Q612.0313,28.5 610.8281,27.9063 Q609.8594,27.4375 609.1719,26.4219 Q608.5,25.4063 608.5,24.2031 L608.5,23.1094 Q608.5,21.8594 609.0938,20.7656 Q609.7031,19.6719 610.75,19.0938 Q611.8125,18.5 613,18.5 Q613.7188,18.5 614.3438,18.75 Q614.9688,19 615.5,19.5 Z " fill="#000000"/><text fill="#000000" font-family="sans-serif" font-size="12" lengthAdjust="spacing" textLength="136" x="627.5" y="27.9102">ParameterCategoryStore</text><line style="stroke:#A80036;stroke-width:1.5;" x1="599.5" x2="765.5" y1="39" y2="39"/><line style="stroke:#A80036;stroke-width:1.5;" x1="599.5" x2="765.5" y1="47" y2="47"/><text fill="#000000" font-family="sans-serif" font-size="11" lengthAdjust="spacing" textLength="142" x="604.5" y="62.4189">+getAllParameterCategories()</text><!--MD5=[1f6362a5c8f21d8d6a0fce68f3a92a4e]
class Parameter--><rect codeLine="16" fill="#FEFECE" filter="url(#f1tzbgn1un567f)" height="103.3438" id="Parameter" style="stroke:#A80036;stroke-width:1.5;" width="368" x="241.5" y="630"/><ellipse cx="392.25" cy="646" fill="#ADD1B2" rx="11" ry="11" style="stroke:#A80036;stroke-width:1.0;"/><path d="M394.25,642.5 Q394.4531,642 394.6875,641.75 Q394.9219,641.5 395.1875,641.5 Q395.6563,641.5 395.9531,641.7813 Q396.25,642.0625 396.25,642.7188 L396.25,644.2813 Q396.25,644.9375 395.9688,645.2188 Q395.6875,645.5 395.25,645.5 Q394.8594,645.5 394.6094,645.3281 Q394.3594,645.1563 394.25,644.7031 Q394.2031,644.3906 394.0313,644.2188 Q393.7188,643.8906 393.1563,643.7031 Q392.5938,643.5 392.0313,643.5 Q391.3281,643.5 390.7344,643.7813 Q390.1563,644.0625 389.7031,644.6875 Q389.25,645.3125 389.25,646.1719 L389.25,647.0938 Q389.25,648.125 390.0938,648.8125 Q390.9375,649.5 392.4375,649.5 Q393.3281,649.5 393.9531,649.2969 Q394.3125,649.1875 394.7188,648.8281 Q394.9844,648.625 395.125,648.5625 Q395.2656,648.5 395.4375,648.5 Q395.7656,648.5 396,648.7656 Q396.25,649.0156 396.25,649.375 Q396.25,649.7188 395.9063,650.125 Q395.4063,650.7188 394.6094,651.0469 Q393.5625,651.5 392.2813,651.5 Q390.7813,651.5 389.5781,650.9063 Q388.6094,650.4375 387.9219,649.4219 Q387.25,648.4063 387.25,647.2031 L387.25,646.1094 Q387.25,644.8594 387.8438,643.7656 Q388.4531,642.6719 389.5,642.0938 Q390.5625,641.5 391.75,641.5 Q392.4688,641.5 393.0938,641.75 Q393.7188,642 394.25,642.5 Z " fill="#000000"/><text fill="#000000" font-family="sans-serif" font-size="12" lengthAdjust="spacing" textLength="58" x="412.75" y="650.9102">Parameter</text><line style="stroke:#A80036;stroke-width:1.5;" x1="242.5" x2="608.5" y1="662" y2="662"/><text fill="#000000" font-family="sans-serif" font-size="11" lengthAdjust="spacing" textLength="90" x="247.5" y="677.4189">-String designation</text><text fill="#000000" font-family="sans-serif" font-size="11" lengthAdjust="spacing" textLength="88" x="247.5" y="691.2549">-String description</text><text fill="#000000" font-family="sans-serif" font-size="11" lengthAdjust="spacing" textLength="59" x="247.5" y="705.0908">-String code</text><line style="stroke:#A80036;stroke-width:1.5;" x1="242.5" x2="608.5" y1="711.5078" y2="711.5078"/><text fill="#000000" font-family="sans-serif" font-size="11" lengthAdjust="spacing" textLength="356" x="247.5" y="726.9268">+Parameter(ref,designation,informalDesc,technicalDesc,duration,cost,cat)</text><!--MD5=[02e4b9b7573f1156f41e60aa5b4e25a4]
class Company--><rect codeLine="23" fill="#FEFECE" filter="url(#f1tzbgn1un567f)" height="103.3438" id="Company" style="stroke:#A80036;stroke-width:1.5;" width="206" x="390.5" y="281"/><ellipse cx="462.75" cy="297" fill="#ADD1B2" rx="11" ry="11" style="stroke:#A80036;stroke-width:1.0;"/><path d="M464.75,293.5 Q464.9531,293 465.1875,292.75 Q465.4219,292.5 465.6875,292.5 Q466.1563,292.5 466.4531,292.7813 Q466.75,293.0625 466.75,293.7188 L466.75,295.2813 Q466.75,295.9375 466.4688,296.2188 Q466.1875,296.5 465.75,296.5 Q465.3594,296.5 465.1094,296.3281 Q464.8594,296.1563 464.75,295.7031 Q464.7031,295.3906 464.5313,295.2188 Q464.2188,294.8906 463.6563,294.7031 Q463.0938,294.5 462.5313,294.5 Q461.8281,294.5 461.2344,294.7813 Q460.6563,295.0625 460.2031,295.6875 Q459.75,296.3125 459.75,297.1719 L459.75,298.0938 Q459.75,299.125 460.5938,299.8125 Q461.4375,300.5 462.9375,300.5 Q463.8281,300.5 464.4531,300.2969 Q464.8125,300.1875 465.2188,299.8281 Q465.4844,299.625 465.625,299.5625 Q465.7656,299.5 465.9375,299.5 Q466.2656,299.5 466.5,299.7656 Q466.75,300.0156 466.75,300.375 Q466.75,300.7188 466.4063,301.125 Q465.9063,301.7188 465.1094,302.0469 Q464.0625,302.5 462.7813,302.5 Q461.2813,302.5 460.0781,301.9063 Q459.1094,301.4375 458.4219,300.4219 Q457.75,299.4063 457.75,298.2031 L457.75,297.1094 Q457.75,295.8594 458.3438,294.7656 Q458.9531,293.6719 460,293.0938 Q461.0625,292.5 462.25,292.5 Q462.9688,292.5 463.5938,292.75 Q464.2188,293 464.75,293.5 Z " fill="#000000"/><text fill="#000000" font-family="sans-serif" font-size="12" lengthAdjust="spacing" textLength="53" x="483.25" y="301.9102">Company</text><line style="stroke:#A80036;stroke-width:1.5;" x1="391.5" x2="595.5" y1="313" y2="313"/><text fill="#000000" font-family="sans-serif" font-size="11" lengthAdjust="spacing" textLength="59" x="396.5" y="328.4189">-designation</text><line style="stroke:#A80036;stroke-width:1.5;" x1="391.5" x2="595.5" y1="334.8359" y2="334.8359"/><text fill="#000000" font-family="sans-serif" font-size="11" lengthAdjust="spacing" textLength="148" x="396.5" y="350.2549">+getParameterCategoryStore()</text><text fill="#000000" font-family="sans-serif" font-size="11" lengthAdjust="spacing" textLength="194" x="396.5" y="364.0908">+getParameterCategoryById(categoryId)</text><text fill="#000000" font-family="sans-serif" font-size="11" lengthAdjust="spacing" textLength="104" x="396.5" y="377.9268">+getParameterStore()</text><!--MD5=[36afb6bbd95a8ac778c4537c55a683d5]
class ParameterCategory--><rect codeLine="30" fill="#FEFECE" filter="url(#f1tzbgn1un567f)" height="89.5078" id="ParameterCategory" style="stroke:#A80036;stroke-width:1.5;" width="139" x="594" y="462"/><ellipse cx="609" cy="478" fill="#ADD1B2" rx="11" ry="11" style="stroke:#A80036;stroke-width:1.0;"/><path d="M611,474.5 Q611.2031,474 611.4375,473.75 Q611.6719,473.5 611.9375,473.5 Q612.4063,473.5 612.7031,473.7813 Q613,474.0625 613,474.7188 L613,476.2813 Q613,476.9375 612.7188,477.2188 Q612.4375,477.5 612,477.5 Q611.6094,477.5 611.3594,477.3281 Q611.1094,477.1563 611,476.7031 Q610.9531,476.3906 610.7813,476.2188 Q610.4688,475.8906 609.9063,475.7031 Q609.3438,475.5 608.7813,475.5 Q608.0781,475.5 607.4844,475.7813 Q606.9063,476.0625 606.4531,476.6875 Q606,477.3125 606,478.1719 L606,479.0938 Q606,480.125 606.8438,480.8125 Q607.6875,481.5 609.1875,481.5 Q610.0781,481.5 610.7031,481.2969 Q611.0625,481.1875 611.4688,480.8281 Q611.7344,480.625 611.875,480.5625 Q612.0156,480.5 612.1875,480.5 Q612.5156,480.5 612.75,480.7656 Q613,481.0156 613,481.375 Q613,481.7188 612.6563,482.125 Q612.1563,482.7188 611.3594,483.0469 Q610.3125,483.5 609.0313,483.5 Q607.5313,483.5 606.3281,482.9063 Q605.3594,482.4375 604.6719,481.4219 Q604,480.4063 604,479.2031 L604,478.1094 Q604,476.8594 604.5938,475.7656 Q605.2031,474.6719 606.25,474.0938 Q607.3125,473.5 608.5,473.5 Q609.2188,473.5 609.8438,473.75 Q610.4688,474 611,474.5 Z " fill="#000000"/><text fill="#000000" font-family="sans-serif" font-size="12" lengthAdjust="spacing" textLength="107" x="623" y="482.9102">ParameterCategory</text><line style="stroke:#A80036;stroke-width:1.5;" x1="595" x2="732" y1="494" y2="494"/><text fill="#000000" font-family="sans-serif" font-size="11" lengthAdjust="spacing" textLength="59" x="600" y="509.4189">-String code</text><text fill="#000000" font-family="sans-serif" font-size="11" lengthAdjust="spacing" textLength="88" x="600" y="523.2549">-String description</text><text fill="#000000" font-family="sans-serif" font-size="11" lengthAdjust="spacing" textLength="62" x="600" y="537.0908">-String nhsID</text><line style="stroke:#A80036;stroke-width:1.5;" x1="595" x2="732" y1="543.5078" y2="543.5078"/><!--MD5=[cd10c2711fd317744b70308b24796eef]
class ParamCatMapper--><rect codeLine="38" fill="#FEFECE" filter="url(#f1tzbgn1un567f)" height="61.8359" id="ParamCatMapper" style="stroke:#A80036;stroke-width:1.5;" width="129" x="703" y="301.5"/><ellipse cx="718" cy="317.5" fill="#ADD1B2" rx="11" ry="11" style="stroke:#A80036;stroke-width:1.0;"/><path d="M720,314 Q720.2031,313.5 720.4375,313.25 Q720.6719,313 720.9375,313 Q721.4063,313 721.7031,313.2813 Q722,313.5625 722,314.2188 L722,315.7813 Q722,316.4375 721.7188,316.7188 Q721.4375,317 721,317 Q720.6094,317 720.3594,316.8281 Q720.1094,316.6563 720,316.2031 Q719.9531,315.8906 719.7813,315.7188 Q719.4688,315.3906 718.9063,315.2031 Q718.3438,315 717.7813,315 Q717.0781,315 716.4844,315.2813 Q715.9063,315.5625 715.4531,316.1875 Q715,316.8125 715,317.6719 L715,318.5938 Q715,319.625 715.8438,320.3125 Q716.6875,321 718.1875,321 Q719.0781,321 719.7031,320.7969 Q720.0625,320.6875 720.4688,320.3281 Q720.7344,320.125 720.875,320.0625 Q721.0156,320 721.1875,320 Q721.5156,320 721.75,320.2656 Q722,320.5156 722,320.875 Q722,321.2188 721.6563,321.625 Q721.1563,322.2188 720.3594,322.5469 Q719.3125,323 718.0313,323 Q716.5313,323 715.3281,322.4063 Q714.3594,321.9375 713.6719,320.9219 Q713,319.9063 713,318.7031 L713,317.6094 Q713,316.3594 713.5938,315.2656 Q714.2031,314.1719 715.25,313.5938 Q716.3125,313 717.5,313 Q718.2188,313 718.8438,313.25 Q719.4688,313.5 720,314 Z " fill="#000000"/><text fill="#000000" font-family="sans-serif" font-size="12" lengthAdjust="spacing" textLength="97" x="732" y="322.4102">ParamCatMapper</text><line style="stroke:#A80036;stroke-width:1.5;" x1="704" x2="831" y1="333.5" y2="333.5"/><line style="stroke:#A80036;stroke-width:1.5;" x1="704" x2="831" y1="341.5" y2="341.5"/><text fill="#000000" font-family="sans-serif" font-size="11" lengthAdjust="spacing" textLength="58" x="709" y="356.9189">+toDTO(lpc)</text><!--MD5=[b9009a04d919d78a73c2eeec1e385786]
class CreateParameterController--><rect codeLine="43" fill="#FEFECE" filter="url(#f1tzbgn1un567f)" height="89.5078" id="CreateParameterController" style="stroke:#A80036;stroke-width:1.5;" width="298" x="344.5" y="130"/><ellipse cx="414.75" cy="146" fill="#ADD1B2" rx="11" ry="11" style="stroke:#A80036;stroke-width:1.0;"/><path d="M416.75,142.5 Q416.9531,142 417.1875,141.75 Q417.4219,141.5 417.6875,141.5 Q418.1563,141.5 418.4531,141.7813 Q418.75,142.0625 418.75,142.7188 L418.75,144.2813 Q418.75,144.9375 418.4688,145.2188 Q418.1875,145.5 417.75,145.5 Q417.3594,145.5 417.1094,145.3281 Q416.8594,145.1563 416.75,144.7031 Q416.7031,144.3906 416.5313,144.2188 Q416.2188,143.8906 415.6563,143.7031 Q415.0938,143.5 414.5313,143.5 Q413.8281,143.5 413.2344,143.7813 Q412.6563,144.0625 412.2031,144.6875 Q411.75,145.3125 411.75,146.1719 L411.75,147.0938 Q411.75,148.125 412.5938,148.8125 Q413.4375,149.5 414.9375,149.5 Q415.8281,149.5 416.4531,149.2969 Q416.8125,149.1875 417.2188,148.8281 Q417.4844,148.625 417.625,148.5625 Q417.7656,148.5 417.9375,148.5 Q418.2656,148.5 418.5,148.7656 Q418.75,149.0156 418.75,149.375 Q418.75,149.7188 418.4063,150.125 Q417.9063,150.7188 417.1094,151.0469 Q416.0625,151.5 414.7813,151.5 Q413.2813,151.5 412.0781,150.9063 Q411.1094,150.4375 410.4219,149.4219 Q409.75,148.4063 409.75,147.2031 L409.75,146.1094 Q409.75,144.8594 410.3438,143.7656 Q410.9531,142.6719 412,142.0938 Q413.0625,141.5 414.25,141.5 Q414.9688,141.5 415.5938,141.75 Q416.2188,142 416.75,142.5 Z " fill="#000000"/><text fill="#000000" font-family="sans-serif" font-size="12" lengthAdjust="spacing" textLength="149" x="435.25" y="150.9102">CreateParameterController</text><line style="stroke:#A80036;stroke-width:1.5;" x1="345.5" x2="641.5" y1="162" y2="162"/><line style="stroke:#A80036;stroke-width:1.5;" x1="345.5" x2="641.5" y1="170" y2="170"/><text fill="#000000" font-family="sans-serif" font-size="11" lengthAdjust="spacing" textLength="130" x="350.5" y="185.4189">+getParameterCategories()</text><text fill="#000000" font-family="sans-serif" font-size="11" lengthAdjust="spacing" textLength="286" x="350.5" y="199.2549">+createParameter(code,designation,description,categoryId)</text><text fill="#000000" font-family="sans-serif" font-size="11" lengthAdjust="spacing" textLength="87" x="350.5" y="213.0908">+saveParameter()</text><!--MD5=[5518e6815e09c51d4db6e17774f331d2]
class CreateParameterUI--><rect codeLine="49" fill="#FEFECE" filter="url(#f1tzbgn1un567f)" height="48" id="CreateParameterUI" style="stroke:#A80036;stroke-width:1.5;" width="139" x="424" y="14"/><ellipse cx="439" cy="30" fill="#ADD1B2" rx="11" ry="11" style="stroke:#A80036;stroke-width:1.0;"/><path d="M441,26.5 Q441.2031,26 441.4375,25.75 Q441.6719,25.5 441.9375,25.5 Q442.4063,25.5 442.7031,25.7813 Q443,26.0625 443,26.7188 L443,28.2813 Q443,28.9375 442.7188,29.2188 Q442.4375,29.5 442,29.5 Q441.6094,29.5 441.3594,29.3281 Q441.1094,29.1563 441,28.7031 Q440.9531,28.3906 440.7813,28.2188 Q440.4688,27.8906 439.9063,27.7031 Q439.3438,27.5 438.7813,27.5 Q438.0781,27.5 437.4844,27.7813 Q436.9063,28.0625 436.4531,28.6875 Q436,29.3125 436,30.1719 L436,31.0938 Q436,32.125 436.8438,32.8125 Q437.6875,33.5 439.1875,33.5 Q440.0781,33.5 440.7031,33.2969 Q441.0625,33.1875 441.4688,32.8281 Q441.7344,32.625 441.875,32.5625 Q442.0156,32.5 442.1875,32.5 Q442.5156,32.5 442.75,32.7656 Q443,33.0156 443,33.375 Q443,33.7188 442.6563,34.125 Q442.1563,34.7188 441.3594,35.0469 Q440.3125,35.5 439.0313,35.5 Q437.5313,35.5 436.3281,34.9063 Q435.3594,34.4375 434.6719,33.4219 Q434,32.4063 434,31.2031 L434,30.1094 Q434,28.8594 434.5938,27.7656 Q435.2031,26.6719 436.25,26.0938 Q437.3125,25.5 438.5,25.5 Q439.2188,25.5 439.8438,25.75 Q440.4688,26 441,26.5 Z " fill="#000000"/><text fill="#000000" font-family="sans-serif" font-size="12" lengthAdjust="spacing" textLength="107" x="453" y="34.9102">CreateParameterUI</text><line style="stroke:#A80036;stroke-width:1.5;" x1="425" x2="562" y1="46" y2="46"/><line style="stroke:#A80036;stroke-width:1.5;" x1="425" x2="562" y1="54" y2="54"/><!--MD5=[9d3dd688f78c4545f26622cd23f9dd25]
link CreateParameterUI to CreateParameterController--><path codeLine="52" d="M493.5,62.21 C493.5,79.38 493.5,103.39 493.5,124.76 " fill="none" id="CreateParameterUI-to-CreateParameterController" style="stroke:#A80036;stroke-width:1.0;stroke-dasharray:7.0,7.0;"/><polygon fill="#A80036" points="493.5,129.85,497.5,120.85,493.5,124.85,489.5,120.85,493.5,129.85" style="stroke:#A80036;stroke-width:1.0;"/><!--MD5=[094e4a14e6ba8aeac9d4213c7f104300]
link CreateParameterController to ParameterCategory--><path codeLine="53" d="M558.71,220.21 C579.04,237.02 599.73,257.79 613.5,281 C645.8,335.46 657.27,408.56 661.33,456.45 " fill="none" id="CreateParameterController-to-ParameterCategory" style="stroke:#A80036;stroke-width:1.0;stroke-dasharray:7.0,7.0;"/><polygon fill="#A80036" points="661.74,461.58,664.981,452.2797,661.326,456.5972,657.0085,452.9421,661.74,461.58" style="stroke:#A80036;stroke-width:1.0;"/><!--MD5=[e9255c887ec25c48e1146f7528d7037a]
link CreateParameterController to ParamCatMapper--><path codeLine="54" d="M618.17,220.08 C637.91,228.92 657.68,238.94 675.5,250 C696.9,263.29 718.14,281.66 734.8,297.59 " fill="none" id="CreateParameterController-to-ParamCatMapper" style="stroke:#A80036;stroke-width:1.0;stroke-dasharray:7.0,7.0;"/><polygon fill="#A80036" points="738.5,301.16,734.7979,292.0334,734.9008,297.6893,729.2449,297.7922,738.5,301.16" style="stroke:#A80036;stroke-width:1.0;"/><!--MD5=[c56d23af98be554523068ac4fbdb568e]
link CreateParameterController to Parameter--><path codeLine="55" d="M422.82,220.09 C402.75,236.52 383.41,257.09 372.5,281 C320.39,395.21 367.36,545.57 400.12,625.31 " fill="none" id="CreateParameterController-to-Parameter" style="stroke:#A80036;stroke-width:1.0;stroke-dasharray:7.0,7.0;"/><polygon fill="#A80036" points="402.06,629.99,402.3167,620.1445,400.1491,625.3696,394.924,623.202,402.06,629.99" style="stroke:#A80036;stroke-width:1.0;"/><!--MD5=[6d585fb02c26694275539b4f1508918e]
link CreateParameterController to Company--><path codeLine="56" d="M493.5,220.14 C493.5,237.46 493.5,257.53 493.5,275.83 " fill="none" id="CreateParameterController-to-Company" style="stroke:#A80036;stroke-width:1.0;stroke-dasharray:7.0,7.0;"/><polygon fill="#A80036" points="493.5,280.94,497.5,271.94,493.5,275.94,489.5,271.94,493.5,280.94" style="stroke:#A80036;stroke-width:1.0;"/><!--MD5=[46706d5726812879537e05899d80bc9e]
link CreateParameterController to ParameterStore--><path codeLine="57" d="M381.32,220.17 C358.11,229.71 333.91,239.96 311.5,250 C291.62,258.91 270.61,268.82 250.47,278.58 " fill="none" id="CreateParameterController-to-ParameterStore" style="stroke:#A80036;stroke-width:1.0;stroke-dasharray:7.0,7.0;"/><polygon fill="#A80036" points="245.92,280.79,255.7628,280.4436,250.4148,278.5999,252.2585,273.2519,245.92,280.79" style="stroke:#A80036;stroke-width:1.0;"/><!--MD5=[12d76240d3c3c66074d4ec2ea8bf469c]
link Company to Parameter--><path codeLine="59" d="M469.95,384.01 C460.13,407.27 449.61,435.52 443.5,462 C430.46,518.56 426.57,585.27 425.55,629.97 " fill="none" id="Company-Parameter" style="stroke:#A80036;stroke-width:1.0;"/><polygon fill="#000000" points="447.6118,512.0963,452.1108,503.7171,446.3264,502.6729,447.6118,512.0963" style="stroke:#000000;stroke-width:1.0;"/><text fill="#000000" font-family="sans-serif" font-size="13" lengthAdjust="spacing" textLength="118" x="457.5" y="512.4951">capable of analysing</text><text fill="#000000" font-family="sans-serif" font-size="13" lengthAdjust="spacing" textLength="7" x="459.1461" y="405.8743">1</text><text fill="#000000" font-family="sans-serif" font-size="13" lengthAdjust="spacing" textLength="5" x="420.2055" y="619.0943">*</text><!--MD5=[93b4f25fb503a8e0e9a46b1d30ff3f44]
link Company to ParameterCategory--><path codeLine="60" d="M528.74,384.07 C540.87,400.1 555.06,417.42 569.5,432 C579.73,442.33 591.39,452.54 602.94,461.93 " fill="none" id="Company-ParameterCategory" style="stroke:#A80036;stroke-width:1.0;"/><polygon fill="#000000" points="577.9494,426.7954,573.8369,418.2199,569.5818,422.275,577.9494,426.7954" style="stroke:#000000;stroke-width:1.0;"/><text fill="#000000" font-family="sans-serif" font-size="13" lengthAdjust="spacing" textLength="39" x="583.5" y="428.4951">adopts</text><text fill="#000000" font-family="sans-serif" font-size="13" lengthAdjust="spacing" textLength="7" x="526.2034" y="405.9427">1</text><text fill="#000000" font-family="sans-serif" font-size="13" lengthAdjust="spacing" textLength="5" x="587.8898" y="451.0343">*</text><!--MD5=[7a9e3e328fb1db48284e23a673c1e60d]
link ParameterCategory to Parameter--><path codeLine="61" d="M602.52,552.2 C569.88,575.86 529.53,605.1 495.59,629.7 " fill="none" id="ParameterCategory-Parameter" style="stroke:#A80036;stroke-width:1.0;"/><polygon fill="#000000" points="568.5485,588.2415,559.5,591.17,562.9494,595.9293,568.5485,588.2415" style="stroke:#000000;stroke-width:1.0;"/><text fill="#000000" font-family="sans-serif" font-size="13" lengthAdjust="spacing" textLength="93" x="573.5" y="596.4951">presented under</text><text fill="#000000" font-family="sans-serif" font-size="13" lengthAdjust="spacing" textLength="7" x="586.8555" y="572.9006">1</text><text fill="#000000" font-family="sans-serif" font-size="13" lengthAdjust="spacing" textLength="5" x="499.6724" y="619.16">*</text><!--MD5=[ff3317ff2fb8918cf34fed753751dc53]
@startuml
skinparam classAttributeIconSize 0


class ParameterStore{
  +createParameter(code, designation, description, pcat)
  +saveParameter(parameter)
  -validate(parameter)
  -add(parameter)
}

class ParameterCategoryStore{
  +getAllParameterCategories()
}


class Parameter {
  - String designation
  - String description
  - String code
  +Parameter(ref,designation,informalDesc,technicalDesc,duration,cost,cat)
}

class Company {
  -designation
  +getParameterCategoryStore()
  +getParameterCategoryById(categoryId)
  +getParameterStore()
}

class ParameterCategory {
  -String code
  -String description
  -String nhsID
}



class ParamCatMapper{
  +toDTO(lpc)
}


class CreateParameterController {
  +getParameterCategories()
  +createParameter(code,designation,description,categoryId)
  +saveParameter()
}

class CreateParameterUI {
}

CreateParameterUI ..> CreateParameterController
CreateParameterController ..> ParameterCategory
CreateParameterController ..> ParamCatMapper
CreateParameterController ..> Parameter
CreateParameterController ..> Company
CreateParameterController ..> ParameterStore

Company "1" - - "*" Parameter : > capable of analysing
Company "1" - - "*" ParameterCategory : > adopts
ParameterCategory "1" - - "*" Parameter : < presented under



@enduml

PlantUML version 1.2021.2(Sun Mar 07 11:10:27 GMT 2021)
(GPL source distribution)
Java Runtime: OpenJDK Runtime Environment
JVM: OpenJDK 64-Bit Server VM
Default Encoding: Cp1252
Language: pt
Country: PT
--></g></svg>