<?xml version="1.0" encoding="UTF-8" standalone="no"?><svg xmlns="http://www.w3.org/2000/svg" xmlns:xlink="http://www.w3.org/1999/xlink" contentScriptType="application/ecmascript" contentStyleType="text/css" height="477.5px" preserveAspectRatio="none" style="width:1601px;height:477px;" version="1.1" viewBox="0 0 1601 477" width="1601.25px" zoomAndPan="magnify"><defs><filter height="300%" id="fh08tq8mfpzyo" width="300%" x="-1" y="-1"><feGaussianBlur result="blurOut" stdDeviation="2.5"/><feColorMatrix in="blurOut" result="blurOut2" type="matrix" values="0 0 0 0 0 0 0 0 0 0 0 0 0 0 0 0 0 0 .4 0"/><feOffset dx="5.0" dy="5.0" in="blurOut2" result="blurOut3"/><feBlend in="SourceGraphic" in2="blurOut3" mode="normal"/></filter></defs><g><!--MD5=[1f6362a5c8f21d8d6a0fce68f3a92a4e]
class Parameter--><rect codeLine="3" fill="#FEFECE" filter="url(#fh08tq8mfpzyo)" height="129.1797" id="Parameter" style="stroke:#A80036;stroke-width:1.875;" width="460" x="8.75" y="331.25"/><ellipse cx="197.1875" cy="351.25" fill="#ADD1B2" rx="13.75" ry="13.75" style="stroke:#A80036;stroke-width:1.25;"/><path d="M199.6875,346.875 Q199.9414,346.25 200.2344,345.9375 Q200.5273,345.625 200.8594,345.625 Q201.4453,345.625 201.8164,345.9766 Q202.1875,346.3281 202.1875,347.1484 L202.1875,349.1016 Q202.1875,349.9219 201.8359,350.2734 Q201.4844,350.625 200.9375,350.625 Q200.4492,350.625 200.1367,350.4102 Q199.8242,350.1953 199.6875,349.6289 Q199.6289,349.2383 199.4141,349.0234 Q199.0234,348.6133 198.3203,348.3789 Q197.6172,348.125 196.9141,348.125 Q196.0352,348.125 195.293,348.4766 Q194.5703,348.8281 194.0039,349.6094 Q193.4375,350.3906 193.4375,351.4648 L193.4375,352.6172 Q193.4375,353.9063 194.4922,354.7656 Q195.5469,355.625 197.4219,355.625 Q198.5352,355.625 199.3164,355.3711 Q199.7656,355.2344 200.2734,354.7852 Q200.6055,354.5313 200.7813,354.4531 Q200.957,354.375 201.1719,354.375 Q201.582,354.375 201.875,354.707 Q202.1875,355.0195 202.1875,355.4688 Q202.1875,355.8984 201.7578,356.4063 Q201.1328,357.1484 200.1367,357.5586 Q198.8281,358.125 197.2266,358.125 Q195.3516,358.125 193.8477,357.3828 Q192.6367,356.7969 191.7773,355.5273 Q190.9375,354.2578 190.9375,352.7539 L190.9375,351.3867 Q190.9375,349.8242 191.6797,348.457 Q192.4414,347.0898 193.75,346.3672 Q195.0781,345.625 196.5625,345.625 Q197.4609,345.625 198.2422,345.9375 Q199.0234,346.25 199.6875,346.875 Z " fill="#000000"/><text fill="#000000" font-family="sans-serif" font-size="15" lengthAdjust="spacing" textLength="72.5" x="222.8125" y="357.3877">Parameter</text><line style="stroke:#A80036;stroke-width:1.875;" x1="10" x2="467.5" y1="371.25" y2="371.25"/><text fill="#000000" font-family="sans-serif" font-size="13.75" lengthAdjust="spacing" textLength="112.5" x="16.25" y="390.5237">-String designation</text><text fill="#000000" font-family="sans-serif" font-size="13.75" lengthAdjust="spacing" textLength="110" x="16.25" y="407.8186">-String description</text><text fill="#000000" font-family="sans-serif" font-size="13.75" lengthAdjust="spacing" textLength="73.75" x="16.25" y="425.1135">-String code</text><line style="stroke:#A80036;stroke-width:1.875;" x1="10" x2="467.5" y1="433.1348" y2="433.1348"/><text fill="#000000" font-family="sans-serif" font-size="13.75" lengthAdjust="spacing" textLength="445" x="16.25" y="452.4084">+Parameter(ref,designation,informalDesc,technicalDesc,duration,cost,cat)</text><!--MD5=[be7802b157a16874d39c59ca0e2b25be]
class ParameterStore--><rect codeLine="10" fill="#FEFECE" filter="url(#fh08tq8mfpzyo)" height="129.1797" id="ParameterStore" style="stroke:#A80036;stroke-width:1.875;" width="346.25" x="513.125" y="331.25"/><ellipse cx="626.5625" cy="351.25" fill="#ADD1B2" rx="13.75" ry="13.75" style="stroke:#A80036;stroke-width:1.25;"/><path d="M629.0625,346.875 Q629.3164,346.25 629.6094,345.9375 Q629.9023,345.625 630.2344,345.625 Q630.8203,345.625 631.1914,345.9766 Q631.5625,346.3281 631.5625,347.1484 L631.5625,349.1016 Q631.5625,349.9219 631.2109,350.2734 Q630.8594,350.625 630.3125,350.625 Q629.8242,350.625 629.5117,350.4102 Q629.1992,350.1953 629.0625,349.6289 Q629.0039,349.2383 628.7891,349.0234 Q628.3984,348.6133 627.6953,348.3789 Q626.9922,348.125 626.2891,348.125 Q625.4102,348.125 624.668,348.4766 Q623.9453,348.8281 623.3789,349.6094 Q622.8125,350.3906 622.8125,351.4648 L622.8125,352.6172 Q622.8125,353.9063 623.8672,354.7656 Q624.9219,355.625 626.7969,355.625 Q627.9102,355.625 628.6914,355.3711 Q629.1406,355.2344 629.6484,354.7852 Q629.9805,354.5313 630.1563,354.4531 Q630.332,354.375 630.5469,354.375 Q630.957,354.375 631.25,354.707 Q631.5625,355.0195 631.5625,355.4688 Q631.5625,355.8984 631.1328,356.4063 Q630.5078,357.1484 629.5117,357.5586 Q628.2031,358.125 626.6016,358.125 Q624.7266,358.125 623.2227,357.3828 Q622.0117,356.7969 621.1523,355.5273 Q620.3125,354.2578 620.3125,352.7539 L620.3125,351.3867 Q620.3125,349.8242 621.0547,348.457 Q621.8164,347.0898 623.125,346.3672 Q624.4531,345.625 625.9375,345.625 Q626.8359,345.625 627.6172,345.9375 Q628.3984,346.25 629.0625,346.875 Z " fill="#000000"/><text fill="#000000" font-family="sans-serif" font-size="15" lengthAdjust="spacing" textLength="108.75" x="652.1875" y="357.3877">ParameterStore</text><line style="stroke:#A80036;stroke-width:1.875;" x1="514.375" x2="858.125" y1="371.25" y2="371.25"/><line style="stroke:#A80036;stroke-width:1.875;" x1="514.375" x2="858.125" y1="381.25" y2="381.25"/><text fill="#000000" font-family="sans-serif" font-size="13.75" lengthAdjust="spacing" textLength="331.25" x="520.625" y="400.5237">+createParameter(code, designation, description, pcat)</text><text fill="#000000" font-family="sans-serif" font-size="13.75" lengthAdjust="spacing" textLength="170" x="520.625" y="417.8186">+saveParameter(parameter)</text><text fill="#000000" font-family="sans-serif" font-size="13.75" lengthAdjust="spacing" textLength="122.5" x="520.625" y="435.1135">-validate(parameter)</text><text fill="#000000" font-family="sans-serif" font-size="13.75" lengthAdjust="spacing" textLength="98.75" x="520.625" y="452.4084">-add(parameter)</text><!--MD5=[36afb6bbd95a8ac778c4537c55a683d5]
class ParameterCategory--><rect codeLine="17" fill="#FEFECE" filter="url(#fh08tq8mfpzyo)" height="111.8848" id="ParameterCategory" style="stroke:#A80036;stroke-width:1.875;" width="173.75" x="903.125" y="339.375"/><ellipse cx="921.875" cy="359.375" fill="#ADD1B2" rx="13.75" ry="13.75" style="stroke:#A80036;stroke-width:1.25;"/><path d="M924.375,355 Q924.6289,354.375 924.9219,354.0625 Q925.2148,353.75 925.5469,353.75 Q926.1328,353.75 926.5039,354.1016 Q926.875,354.4531 926.875,355.2734 L926.875,357.2266 Q926.875,358.0469 926.5234,358.3984 Q926.1719,358.75 925.625,358.75 Q925.1367,358.75 924.8242,358.5352 Q924.5117,358.3203 924.375,357.7539 Q924.3164,357.3633 924.1016,357.1484 Q923.7109,356.7383 923.0078,356.5039 Q922.3047,356.25 921.6016,356.25 Q920.7227,356.25 919.9805,356.6016 Q919.2578,356.9531 918.6914,357.7344 Q918.125,358.5156 918.125,359.5898 L918.125,360.7422 Q918.125,362.0313 919.1797,362.8906 Q920.2344,363.75 922.1094,363.75 Q923.2227,363.75 924.0039,363.4961 Q924.4531,363.3594 924.9609,362.9102 Q925.293,362.6563 925.4688,362.5781 Q925.6445,362.5 925.8594,362.5 Q926.2695,362.5 926.5625,362.832 Q926.875,363.1445 926.875,363.5938 Q926.875,364.0234 926.4453,364.5313 Q925.8203,365.2734 924.8242,365.6836 Q923.5156,366.25 921.9141,366.25 Q920.0391,366.25 918.5352,365.5078 Q917.3242,364.9219 916.4648,363.6523 Q915.625,362.3828 915.625,360.8789 L915.625,359.5117 Q915.625,357.9492 916.3672,356.582 Q917.1289,355.2148 918.4375,354.4922 Q919.7656,353.75 921.25,353.75 Q922.1484,353.75 922.9297,354.0625 Q923.7109,354.375 924.375,355 Z " fill="#000000"/><text fill="#000000" font-family="sans-serif" font-size="15" lengthAdjust="spacing" textLength="133.75" x="939.375" y="365.5127">ParameterCategory</text><line style="stroke:#A80036;stroke-width:1.875;" x1="904.375" x2="1075.625" y1="379.375" y2="379.375"/><text fill="#000000" font-family="sans-serif" font-size="13.75" lengthAdjust="spacing" textLength="73.75" x="910.625" y="398.6487">-String code</text><text fill="#000000" font-family="sans-serif" font-size="13.75" lengthAdjust="spacing" textLength="110" x="910.625" y="415.9436">-String description</text><text fill="#000000" font-family="sans-serif" font-size="13.75" lengthAdjust="spacing" textLength="77.5" x="910.625" y="433.2385">-String nhsID</text><line style="stroke:#A80036;stroke-width:1.875;" x1="904.375" x2="1075.625" y1="441.2598" y2="441.2598"/><!--MD5=[cd10c2711fd317744b70308b24796eef]
class ParamCatMapper--><rect codeLine="23" fill="#FEFECE" filter="url(#fh08tq8mfpzyo)" height="77.2949" id="ParamCatMapper" style="stroke:#A80036;stroke-width:1.875;" width="161.25" x="1120.625" y="356.875"/><ellipse cx="1139.375" cy="376.875" fill="#ADD1B2" rx="13.75" ry="13.75" style="stroke:#A80036;stroke-width:1.25;"/><path d="M1141.875,372.5 Q1142.1289,371.875 1142.4219,371.5625 Q1142.7148,371.25 1143.0469,371.25 Q1143.6328,371.25 1144.0039,371.6016 Q1144.375,371.9531 1144.375,372.7734 L1144.375,374.7266 Q1144.375,375.5469 1144.0234,375.8984 Q1143.6719,376.25 1143.125,376.25 Q1142.6367,376.25 1142.3242,376.0352 Q1142.0117,375.8203 1141.875,375.2539 Q1141.8164,374.8633 1141.6016,374.6484 Q1141.2109,374.2383 1140.5078,374.0039 Q1139.8047,373.75 1139.1016,373.75 Q1138.2227,373.75 1137.4805,374.1016 Q1136.7578,374.4531 1136.1914,375.2344 Q1135.625,376.0156 1135.625,377.0898 L1135.625,378.2422 Q1135.625,379.5313 1136.6797,380.3906 Q1137.7344,381.25 1139.6094,381.25 Q1140.7227,381.25 1141.5039,380.9961 Q1141.9531,380.8594 1142.4609,380.4102 Q1142.793,380.1563 1142.9688,380.0781 Q1143.1445,380 1143.3594,380 Q1143.7695,380 1144.0625,380.332 Q1144.375,380.6445 1144.375,381.0938 Q1144.375,381.5234 1143.9453,382.0313 Q1143.3203,382.7734 1142.3242,383.1836 Q1141.0156,383.75 1139.4141,383.75 Q1137.5391,383.75 1136.0352,383.0078 Q1134.8242,382.4219 1133.9648,381.1523 Q1133.125,379.8828 1133.125,378.3789 L1133.125,377.0117 Q1133.125,375.4492 1133.8672,374.082 Q1134.6289,372.7148 1135.9375,371.9922 Q1137.2656,371.25 1138.75,371.25 Q1139.6484,371.25 1140.4297,371.5625 Q1141.2109,371.875 1141.875,372.5 Z " fill="#000000"/><text fill="#000000" font-family="sans-serif" font-size="15" lengthAdjust="spacing" textLength="121.25" x="1156.875" y="383.0127">ParamCatMapper</text><line style="stroke:#A80036;stroke-width:1.875;" x1="1121.875" x2="1280.625" y1="396.875" y2="396.875"/><line style="stroke:#A80036;stroke-width:1.875;" x1="1121.875" x2="1280.625" y1="406.875" y2="406.875"/><text fill="#000000" font-family="sans-serif" font-size="13.75" lengthAdjust="spacing" textLength="72.5" x="1128.125" y="426.1487">+toDTO(lpc)</text><!--MD5=[02e4b9b7573f1156f41e60aa5b4e25a4]
class Company--><rect codeLine="27" fill="#FEFECE" filter="url(#fh08tq8mfpzyo)" height="129.1797" id="Company" style="stroke:#A80036;stroke-width:1.875;" width="257.5" x="1326.25" y="331.25"/><ellipse cx="1416.5625" cy="351.25" fill="#ADD1B2" rx="13.75" ry="13.75" style="stroke:#A80036;stroke-width:1.25;"/><path d="M1419.0625,346.875 Q1419.3164,346.25 1419.6094,345.9375 Q1419.9023,345.625 1420.2344,345.625 Q1420.8203,345.625 1421.1914,345.9766 Q1421.5625,346.3281 1421.5625,347.1484 L1421.5625,349.1016 Q1421.5625,349.9219 1421.2109,350.2734 Q1420.8594,350.625 1420.3125,350.625 Q1419.8242,350.625 1419.5117,350.4102 Q1419.1992,350.1953 1419.0625,349.6289 Q1419.0039,349.2383 1418.7891,349.0234 Q1418.3984,348.6133 1417.6953,348.3789 Q1416.9922,348.125 1416.2891,348.125 Q1415.4102,348.125 1414.668,348.4766 Q1413.9453,348.8281 1413.3789,349.6094 Q1412.8125,350.3906 1412.8125,351.4648 L1412.8125,352.6172 Q1412.8125,353.9063 1413.8672,354.7656 Q1414.9219,355.625 1416.7969,355.625 Q1417.9102,355.625 1418.6914,355.3711 Q1419.1406,355.2344 1419.6484,354.7852 Q1419.9805,354.5313 1420.1563,354.4531 Q1420.332,354.375 1420.5469,354.375 Q1420.957,354.375 1421.25,354.707 Q1421.5625,355.0195 1421.5625,355.4688 Q1421.5625,355.8984 1421.1328,356.4063 Q1420.5078,357.1484 1419.5117,357.5586 Q1418.2031,358.125 1416.6016,358.125 Q1414.7266,358.125 1413.2227,357.3828 Q1412.0117,356.7969 1411.1523,355.5273 Q1410.3125,354.2578 1410.3125,352.7539 L1410.3125,351.3867 Q1410.3125,349.8242 1411.0547,348.457 Q1411.8164,347.0898 1413.125,346.3672 Q1414.4531,345.625 1415.9375,345.625 Q1416.8359,345.625 1417.6172,345.9375 Q1418.3984,346.25 1419.0625,346.875 Z " fill="#000000"/><text fill="#000000" font-family="sans-serif" font-size="15" lengthAdjust="spacing" textLength="66.25" x="1442.1875" y="357.3877">Company</text><line style="stroke:#A80036;stroke-width:1.875;" x1="1327.5" x2="1582.5" y1="371.25" y2="371.25"/><text fill="#000000" font-family="sans-serif" font-size="13.75" lengthAdjust="spacing" textLength="73.75" x="1333.75" y="390.5237">-designation</text><line style="stroke:#A80036;stroke-width:1.875;" x1="1327.5" x2="1582.5" y1="398.5449" y2="398.5449"/><text fill="#000000" font-family="sans-serif" font-size="13.75" lengthAdjust="spacing" textLength="162.5" x="1333.75" y="417.8186">+getParameterCategories()</text><text fill="#000000" font-family="sans-serif" font-size="13.75" lengthAdjust="spacing" textLength="242.5" x="1333.75" y="435.1135">+getParameterCategoryById(categoryId)</text><text fill="#000000" font-family="sans-serif" font-size="13.75" lengthAdjust="spacing" textLength="130" x="1333.75" y="452.4084">+getParameterStore()</text><!--MD5=[b9009a04d919d78a73c2eeec1e385786]
class CreateParameterController--><rect codeLine="34" fill="#FEFECE" filter="url(#fh08tq8mfpzyo)" height="111.8848" id="CreateParameterController" style="stroke:#A80036;stroke-width:1.875;" width="372.5" x="803.75" y="143.75"/><ellipse cx="891.5625" cy="163.75" fill="#ADD1B2" rx="13.75" ry="13.75" style="stroke:#A80036;stroke-width:1.25;"/><path d="M894.0625,159.375 Q894.3164,158.75 894.6094,158.4375 Q894.9023,158.125 895.2344,158.125 Q895.8203,158.125 896.1914,158.4766 Q896.5625,158.8281 896.5625,159.6484 L896.5625,161.6016 Q896.5625,162.4219 896.2109,162.7734 Q895.8594,163.125 895.3125,163.125 Q894.8242,163.125 894.5117,162.9102 Q894.1992,162.6953 894.0625,162.1289 Q894.0039,161.7383 893.7891,161.5234 Q893.3984,161.1133 892.6953,160.8789 Q891.9922,160.625 891.2891,160.625 Q890.4102,160.625 889.668,160.9766 Q888.9453,161.3281 888.3789,162.1094 Q887.8125,162.8906 887.8125,163.9648 L887.8125,165.1172 Q887.8125,166.4063 888.8672,167.2656 Q889.9219,168.125 891.7969,168.125 Q892.9102,168.125 893.6914,167.8711 Q894.1406,167.7344 894.6484,167.2852 Q894.9805,167.0313 895.1563,166.9531 Q895.332,166.875 895.5469,166.875 Q895.957,166.875 896.25,167.207 Q896.5625,167.5195 896.5625,167.9688 Q896.5625,168.3984 896.1328,168.9063 Q895.5078,169.6484 894.5117,170.0586 Q893.2031,170.625 891.6016,170.625 Q889.7266,170.625 888.2227,169.8828 Q887.0117,169.2969 886.1523,168.0273 Q885.3125,166.7578 885.3125,165.2539 L885.3125,163.8867 Q885.3125,162.3242 886.0547,160.957 Q886.8164,159.5898 888.125,158.8672 Q889.4531,158.125 890.9375,158.125 Q891.8359,158.125 892.6172,158.4375 Q893.3984,158.75 894.0625,159.375 Z " fill="#000000"/><text fill="#000000" font-family="sans-serif" font-size="15" lengthAdjust="spacing" textLength="186.25" x="917.1875" y="169.8877">CreateParameterController</text><line style="stroke:#A80036;stroke-width:1.875;" x1="805" x2="1175" y1="183.75" y2="183.75"/><line style="stroke:#A80036;stroke-width:1.875;" x1="805" x2="1175" y1="193.75" y2="193.75"/><text fill="#000000" font-family="sans-serif" font-size="13.75" lengthAdjust="spacing" textLength="162.5" x="811.25" y="213.0237">+getParameterCategories()</text><text fill="#000000" font-family="sans-serif" font-size="13.75" lengthAdjust="spacing" textLength="357.5" x="811.25" y="230.3186">+createParameter(code,designation,description,categoryId)</text><text fill="#000000" font-family="sans-serif" font-size="13.75" lengthAdjust="spacing" textLength="108.75" x="811.25" y="247.6135">+saveParameter()</text><!--MD5=[5518e6815e09c51d4db6e17774f331d2]
class CreateParameterUI--><rect codeLine="40" fill="#FEFECE" filter="url(#fh08tq8mfpzyo)" height="60" id="CreateParameterUI" style="stroke:#A80036;stroke-width:1.875;" width="173.75" x="903.125" y="8.75"/><ellipse cx="921.875" cy="28.75" fill="#ADD1B2" rx="13.75" ry="13.75" style="stroke:#A80036;stroke-width:1.25;"/><path d="M924.375,24.375 Q924.6289,23.75 924.9219,23.4375 Q925.2148,23.125 925.5469,23.125 Q926.1328,23.125 926.5039,23.4766 Q926.875,23.8281 926.875,24.6484 L926.875,26.6016 Q926.875,27.4219 926.5234,27.7734 Q926.1719,28.125 925.625,28.125 Q925.1367,28.125 924.8242,27.9102 Q924.5117,27.6953 924.375,27.1289 Q924.3164,26.7383 924.1016,26.5234 Q923.7109,26.1133 923.0078,25.8789 Q922.3047,25.625 921.6016,25.625 Q920.7227,25.625 919.9805,25.9766 Q919.2578,26.3281 918.6914,27.1094 Q918.125,27.8906 918.125,28.9648 L918.125,30.1172 Q918.125,31.4063 919.1797,32.2656 Q920.2344,33.125 922.1094,33.125 Q923.2227,33.125 924.0039,32.8711 Q924.4531,32.7344 924.9609,32.2852 Q925.293,32.0313 925.4688,31.9531 Q925.6445,31.875 925.8594,31.875 Q926.2695,31.875 926.5625,32.207 Q926.875,32.5195 926.875,32.9688 Q926.875,33.3984 926.4453,33.9063 Q925.8203,34.6484 924.8242,35.0586 Q923.5156,35.625 921.9141,35.625 Q920.0391,35.625 918.5352,34.8828 Q917.3242,34.2969 916.4648,33.0273 Q915.625,31.7578 915.625,30.2539 L915.625,28.8867 Q915.625,27.3242 916.3672,25.957 Q917.1289,24.5898 918.4375,23.8672 Q919.7656,23.125 921.25,23.125 Q922.1484,23.125 922.9297,23.4375 Q923.7109,23.75 924.375,24.375 Z " fill="#000000"/><text fill="#000000" font-family="sans-serif" font-size="15" lengthAdjust="spacing" textLength="133.75" x="939.375" y="34.8877">CreateParameterUI</text><line style="stroke:#A80036;stroke-width:1.875;" x1="904.375" x2="1075.625" y1="48.75" y2="48.75"/><line style="stroke:#A80036;stroke-width:1.875;" x1="904.375" x2="1075.625" y1="58.75" y2="58.75"/><!--MD5=[9d3dd688f78c4545f26622cd23f9dd25]
link CreateParameterUI to CreateParameterController--><path codeLine="43" d="M990,69.1125 C990,88.1 990,113.6 990,136.95 " fill="none" id="CreateParameterUI-to-CreateParameterController" style="stroke:#A80036;stroke-width:1.25;stroke-dasharray:7.0,7.0;"/><polygon fill="#A80036" points="990,143.475,995,132.225,990,137.225,985,132.225,990,143.475" style="stroke:#A80036;stroke-width:1.25;"/><!--MD5=[094e4a14e6ba8aeac9d4213c7f104300]
link CreateParameterController to ParameterCategory--><path codeLine="44" d="M990,256.5875 C990,280.4375 990,308.4 990,332.8875 " fill="none" id="CreateParameterController-to-ParameterCategory" style="stroke:#A80036;stroke-width:1.25;stroke-dasharray:7.0,7.0;"/><polygon fill="#A80036" points="990,339.3625,995,328.1125,990,333.1125,985,328.1125,990,339.3625" style="stroke:#A80036;stroke-width:1.25;"/><!--MD5=[e9255c887ec25c48e1146f7528d7037a]
link CreateParameterController to ParamCatMapper--><path codeLine="45" d="M1050.5375,256.5875 C1083.8625,287.0625 1124.575,324.275 1155.275,352.3375 " fill="none" id="CreateParameterController-to-ParamCatMapper" style="stroke:#A80036;stroke-width:1.25;stroke-dasharray:7.0,7.0;"/><polygon fill="#A80036" points="1160.1125,356.7625,1155.1862,345.48,1155.5008,352.5441,1148.4368,352.8587,1160.1125,356.7625" style="stroke:#A80036;stroke-width:1.25;"/><!--MD5=[c56d23af98be554523068ac4fbdb568e]
link CreateParameterController to Parameter--><path codeLine="46" d="M803.3375,249.2375 C704.0625,274.7625 580.975,306.4 475.0875,333.6125 " fill="none" id="CreateParameterController-to-Parameter" style="stroke:#A80036;stroke-width:1.25;stroke-dasharray:7.0,7.0;"/><polygon fill="#A80036" points="468.7875,335.2375,480.9273,337.284,474.8413,333.6839,478.4415,327.5979,468.7875,335.2375" style="stroke:#A80036;stroke-width:1.25;"/><!--MD5=[6d585fb02c26694275539b4f1508918e]
link CreateParameterController to Company--><path codeLine="47" d="M1123.2375,256.3625 C1179.025,279.4625 1244.55,306.625 1303.75,331.25 C1309.05,333.4625 1314.4625,335.7125 1319.925,337.9875 " fill="none" id="CreateParameterController-to-Company" style="stroke:#A80036;stroke-width:1.25;stroke-dasharray:7.0,7.0;"/><polygon fill="#A80036" points="1325.875,340.4625,1317.4233,331.5109,1320.1084,338.0523,1313.567,340.7374,1325.875,340.4625" style="stroke:#A80036;stroke-width:1.25;"/><!--MD5=[46706d5726812879537e05899d80bc9e]
link CreateParameterController to ParameterStore--><path codeLine="48" d="M903.3625,256.3375 C868.4375,278.5375 827.8125,304.3625 791.225,327.625 " fill="none" id="CreateParameterController-to-ParameterStore" style="stroke:#A80036;stroke-width:1.25;stroke-dasharray:7.0,7.0;"/><polygon fill="#A80036" points="785.8625,331.0375,798.0397,329.2266,791.1383,327.6866,792.6783,320.7853,785.8625,331.0375" style="stroke:#A80036;stroke-width:1.25;"/><!--MD5=[00cbb48bc8b072aa93e5a776b1f351f6]
@startuml
skinparam classAttributeIconSize 0

class Parameter {
  - String designation
  - String description
  - String code
  +Parameter(ref,designation,informalDesc,technicalDesc,duration,cost,cat)
}

class ParameterStore{
  +createParameter(code, designation, description, pcat)
  +saveParameter(parameter)
  -validate(parameter)
  -add(parameter)
}

class ParameterCategory {
  -String code
  -String description
  -String nhsID
}

class ParamCatMapper{
  +toDTO(lpc)
}

class Company {
  -designation
  +getParameterCategories()
  +getParameterCategoryById(categoryId)
  +getParameterStore()
}

class CreateParameterController {
  +getParameterCategories()
  +createParameter(code,designation,description,categoryId)
  +saveParameter()
}

class CreateParameterUI {
}

CreateParameterUI ..> CreateParameterController
CreateParameterController ..> ParameterCategory
CreateParameterController ..> ParamCatMapper
CreateParameterController ..> Parameter
CreateParameterController ..> Company
CreateParameterController ..> ParameterStore



@enduml

PlantUML version 1.2021.2(Sun Mar 07 11:10:27 GMT 2021)
(GPL source distribution)
Java Runtime: OpenJDK Runtime Environment
JVM: OpenJDK 64-Bit Server VM
Default Encoding: Cp1252
Language: pt
Country: PT
--></g></svg>