<?xml version="1.0" encoding="UTF-8" standalone="no"?><svg xmlns="http://www.w3.org/2000/svg" xmlns:xlink="http://www.w3.org/1999/xlink" contentScriptType="application/ecmascript" contentStyleType="text/css" height="773px" preserveAspectRatio="none" style="width:1120px;height:773px;" version="1.1" viewBox="0 0 1120 773" width="1120px" zoomAndPan="magnify"><defs><filter height="300%" id="f7445hqbe3beh" width="300%" x="-1" y="-1"><feGaussianBlur result="blurOut" stdDeviation="2.0"/><feColorMatrix in="blurOut" result="blurOut2" type="matrix" values="0 0 0 0 0 0 0 0 0 0 0 0 0 0 0 0 0 0 .4 0"/><feOffset dx="4.0" dy="4.0" in="blurOut2" result="blurOut3"/><feBlend in="SourceGraphic" in2="blurOut3" mode="normal"/></filter></defs><g><!--MD5=[be7802b157a16874d39c59ca0e2b25be]
class ParameterStore--><rect codeLine="4" fill="#FEFECE" filter="url(#f7445hqbe3beh)" height="117.1797" id="ParameterStore" style="stroke:#A80036;stroke-width:1.5;" width="318" x="57.4" y="461"/><ellipse cx="168.65" cy="477" fill="#ADD1B2" rx="11" ry="11" style="stroke:#A80036;stroke-width:1.0;"/><path d="M170.65,473.5 Q170.8531,473 171.0875,472.75 Q171.3219,472.5 171.5875,472.5 Q172.0563,472.5 172.3531,472.7813 Q172.65,473.0625 172.65,473.7188 L172.65,475.2813 Q172.65,475.9375 172.3688,476.2188 Q172.0875,476.5 171.65,476.5 Q171.2594,476.5 171.0094,476.3281 Q170.7594,476.1563 170.65,475.7031 Q170.6031,475.3906 170.4313,475.2188 Q170.1188,474.8906 169.5563,474.7031 Q168.9938,474.5 168.4313,474.5 Q167.7281,474.5 167.1344,474.7813 Q166.5563,475.0625 166.1031,475.6875 Q165.65,476.3125 165.65,477.1719 L165.65,478.0938 Q165.65,479.125 166.4938,479.8125 Q167.3375,480.5 168.8375,480.5 Q169.7281,480.5 170.3531,480.2969 Q170.7125,480.1875 171.1188,479.8281 Q171.3844,479.625 171.525,479.5625 Q171.6656,479.5 171.8375,479.5 Q172.1656,479.5 172.4,479.7656 Q172.65,480.0156 172.65,480.375 Q172.65,480.7188 172.3063,481.125 Q171.8063,481.7188 171.0094,482.0469 Q169.9625,482.5 168.6813,482.5 Q167.1813,482.5 165.9781,481.9063 Q165.0094,481.4375 164.3219,480.4219 Q163.65,479.4063 163.65,478.2031 L163.65,477.1094 Q163.65,475.8594 164.2438,474.7656 Q164.8531,473.6719 165.9,473.0938 Q166.9625,472.5 168.15,472.5 Q168.8688,472.5 169.4938,472.75 Q170.1188,473 170.65,473.5 Z " fill="#000000"/><text fill="#000000" font-family="sans-serif" font-size="12" lengthAdjust="spacing" textLength="87" x="189.15" y="481.9102">ParameterStore</text><line style="stroke:#A80036;stroke-width:1.5;" x1="58.4" x2="374.4" y1="493" y2="493"/><line style="stroke:#A80036;stroke-width:1.5;" x1="58.4" x2="374.4" y1="501" y2="501"/><text fill="#000000" font-family="sans-serif" font-size="11" lengthAdjust="spacing" textLength="306" x="63.4" y="516.4189">+boolean createParameter(code, designation, description, pcat)</text><text fill="#000000" font-family="sans-serif" font-size="11" lengthAdjust="spacing" textLength="177" x="63.4" y="530.2549">+boolean saveParameter(parameter)</text><text fill="#000000" font-family="sans-serif" font-size="11" lengthAdjust="spacing" textLength="139" x="63.4" y="544.0908">-boolean validate(parameter)</text><text fill="#000000" font-family="sans-serif" font-size="11" lengthAdjust="spacing" textLength="120" x="63.4" y="557.9268">-boolean add(parameter)</text><text fill="#000000" font-family="sans-serif" font-size="11" lengthAdjust="spacing" textLength="180" x="63.4" y="571.7627">+List &lt;Parameter&gt; getAllParameters()</text><!--MD5=[d802db621b5b215a6f0466f93cefcb42]
class ParameterCategoryStore--><rect codeLine="12" fill="#FEFECE" filter="url(#f7445hqbe3beh)" height="61.8359" id="ParameterCategoryStore" style="stroke:#A80036;stroke-width:1.5;" width="282" x="410.4" y="488.5"/><ellipse cx="479.15" cy="504.5" fill="#ADD1B2" rx="11" ry="11" style="stroke:#A80036;stroke-width:1.0;"/><path d="M481.15,501 Q481.3531,500.5 481.5875,500.25 Q481.8219,500 482.0875,500 Q482.5563,500 482.8531,500.2813 Q483.15,500.5625 483.15,501.2188 L483.15,502.7813 Q483.15,503.4375 482.8688,503.7188 Q482.5875,504 482.15,504 Q481.7594,504 481.5094,503.8281 Q481.2594,503.6563 481.15,503.2031 Q481.1031,502.8906 480.9313,502.7188 Q480.6188,502.3906 480.0563,502.2031 Q479.4938,502 478.9313,502 Q478.2281,502 477.6344,502.2813 Q477.0563,502.5625 476.6031,503.1875 Q476.15,503.8125 476.15,504.6719 L476.15,505.5938 Q476.15,506.625 476.9938,507.3125 Q477.8375,508 479.3375,508 Q480.2281,508 480.8531,507.7969 Q481.2125,507.6875 481.6188,507.3281 Q481.8844,507.125 482.025,507.0625 Q482.1656,507 482.3375,507 Q482.6656,507 482.9,507.2656 Q483.15,507.5156 483.15,507.875 Q483.15,508.2188 482.8063,508.625 Q482.3063,509.2188 481.5094,509.5469 Q480.4625,510 479.1813,510 Q477.6813,510 476.4781,509.4063 Q475.5094,508.9375 474.8219,507.9219 Q474.15,506.9063 474.15,505.7031 L474.15,504.6094 Q474.15,503.3594 474.7438,502.2656 Q475.3531,501.1719 476.4,500.5938 Q477.4625,500 478.65,500 Q479.3688,500 479.9938,500.25 Q480.6188,500.5 481.15,501 Z " fill="#000000"/><text fill="#000000" font-family="sans-serif" font-size="12" lengthAdjust="spacing" textLength="136" x="499.65" y="509.4102">ParameterCategoryStore</text><line style="stroke:#A80036;stroke-width:1.5;" x1="411.4" x2="691.4" y1="520.5" y2="520.5"/><line style="stroke:#A80036;stroke-width:1.5;" x1="411.4" x2="691.4" y1="528.5" y2="528.5"/><text fill="#000000" font-family="sans-serif" font-size="11" lengthAdjust="spacing" textLength="270" x="416.4" y="543.9189">+List &lt;ParameterCategory&gt; getAllParameterCategories()</text><!--MD5=[1f6362a5c8f21d8d6a0fce68f3a92a4e]
class Parameter--><rect codeLine="17" fill="#FEFECE" filter="url(#f7445hqbe3beh)" height="103.3438" id="Parameter" style="stroke:#A80036;stroke-width:1.5;" width="237" x="643.9" y="656"/><ellipse cx="729.15" cy="672" fill="#ADD1B2" rx="11" ry="11" style="stroke:#A80036;stroke-width:1.0;"/><path d="M731.15,668.5 Q731.3531,668 731.5875,667.75 Q731.8219,667.5 732.0875,667.5 Q732.5563,667.5 732.8531,667.7813 Q733.15,668.0625 733.15,668.7188 L733.15,670.2813 Q733.15,670.9375 732.8688,671.2188 Q732.5875,671.5 732.15,671.5 Q731.7594,671.5 731.5094,671.3281 Q731.2594,671.1563 731.15,670.7031 Q731.1031,670.3906 730.9313,670.2188 Q730.6188,669.8906 730.0563,669.7031 Q729.4938,669.5 728.9313,669.5 Q728.2281,669.5 727.6344,669.7813 Q727.0563,670.0625 726.6031,670.6875 Q726.15,671.3125 726.15,672.1719 L726.15,673.0938 Q726.15,674.125 726.9938,674.8125 Q727.8375,675.5 729.3375,675.5 Q730.2281,675.5 730.8531,675.2969 Q731.2125,675.1875 731.6188,674.8281 Q731.8844,674.625 732.025,674.5625 Q732.1656,674.5 732.3375,674.5 Q732.6656,674.5 732.9,674.7656 Q733.15,675.0156 733.15,675.375 Q733.15,675.7188 732.8063,676.125 Q732.3063,676.7188 731.5094,677.0469 Q730.4625,677.5 729.1813,677.5 Q727.6813,677.5 726.4781,676.9063 Q725.5094,676.4375 724.8219,675.4219 Q724.15,674.4063 724.15,673.2031 L724.15,672.1094 Q724.15,670.8594 724.7438,669.7656 Q725.3531,668.6719 726.4,668.0938 Q727.4625,667.5 728.65,667.5 Q729.3688,667.5 729.9938,667.75 Q730.6188,668 731.15,668.5 Z " fill="#000000"/><text fill="#000000" font-family="sans-serif" font-size="12" lengthAdjust="spacing" textLength="58" x="749.65" y="676.9102">Parameter</text><line style="stroke:#A80036;stroke-width:1.5;" x1="644.9" x2="879.9" y1="688" y2="688"/><text fill="#000000" font-family="sans-serif" font-size="11" lengthAdjust="spacing" textLength="90" x="649.9" y="703.4189">-String designation</text><text fill="#000000" font-family="sans-serif" font-size="11" lengthAdjust="spacing" textLength="88" x="649.9" y="717.2549">-String description</text><text fill="#000000" font-family="sans-serif" font-size="11" lengthAdjust="spacing" textLength="59" x="649.9" y="731.0908">-String code</text><line style="stroke:#A80036;stroke-width:1.5;" x1="644.9" x2="879.9" y1="737.5078" y2="737.5078"/><text fill="#000000" font-family="sans-serif" font-size="11" lengthAdjust="spacing" textLength="225" x="649.9" y="752.9268">+Parameter(code,description,designation,pcat)</text><!--MD5=[02e4b9b7573f1156f41e60aa5b4e25a4]
class Company--><rect codeLine="24" fill="#FEFECE" filter="url(#f7445hqbe3beh)" height="103.3438" id="Company" style="stroke:#A80036;stroke-width:1.5;" width="237" x="633.9" y="280"/><ellipse cx="721.65" cy="296" fill="#ADD1B2" rx="11" ry="11" style="stroke:#A80036;stroke-width:1.0;"/><path d="M723.65,292.5 Q723.8531,292 724.0875,291.75 Q724.3219,291.5 724.5875,291.5 Q725.0563,291.5 725.3531,291.7813 Q725.65,292.0625 725.65,292.7188 L725.65,294.2813 Q725.65,294.9375 725.3688,295.2188 Q725.0875,295.5 724.65,295.5 Q724.2594,295.5 724.0094,295.3281 Q723.7594,295.1563 723.65,294.7031 Q723.6031,294.3906 723.4313,294.2188 Q723.1188,293.8906 722.5563,293.7031 Q721.9938,293.5 721.4313,293.5 Q720.7281,293.5 720.1344,293.7813 Q719.5563,294.0625 719.1031,294.6875 Q718.65,295.3125 718.65,296.1719 L718.65,297.0938 Q718.65,298.125 719.4938,298.8125 Q720.3375,299.5 721.8375,299.5 Q722.7281,299.5 723.3531,299.2969 Q723.7125,299.1875 724.1188,298.8281 Q724.3844,298.625 724.525,298.5625 Q724.6656,298.5 724.8375,298.5 Q725.1656,298.5 725.4,298.7656 Q725.65,299.0156 725.65,299.375 Q725.65,299.7188 725.3063,300.125 Q724.8063,300.7188 724.0094,301.0469 Q722.9625,301.5 721.6813,301.5 Q720.1813,301.5 718.9781,300.9063 Q718.0094,300.4375 717.3219,299.4219 Q716.65,298.4063 716.65,297.2031 L716.65,296.1094 Q716.65,294.8594 717.2438,293.7656 Q717.8531,292.6719 718.9,292.0938 Q719.9625,291.5 721.15,291.5 Q721.8688,291.5 722.4938,291.75 Q723.1188,292 723.65,292.5 Z " fill="#000000"/><text fill="#000000" font-family="sans-serif" font-size="12" lengthAdjust="spacing" textLength="53" x="742.15" y="300.9102">Company</text><line style="stroke:#A80036;stroke-width:1.5;" x1="634.9" x2="869.9" y1="312" y2="312"/><text fill="#000000" font-family="sans-serif" font-size="11" lengthAdjust="spacing" textLength="59" x="639.9" y="327.4189">-designation</text><line style="stroke:#A80036;stroke-width:1.5;" x1="634.9" x2="869.9" y1="333.8359" y2="333.8359"/><text fill="#000000" font-family="sans-serif" font-size="11" lengthAdjust="spacing" textLength="148" x="639.9" y="349.2549">+getParameterCategoryStore()</text><text fill="#000000" font-family="sans-serif" font-size="11" lengthAdjust="spacing" textLength="225" x="639.9" y="363.0908">+String getParameterCategoryById(categoryId)</text><text fill="#000000" font-family="sans-serif" font-size="11" lengthAdjust="spacing" textLength="104" x="639.9" y="376.9268">+getParameterStore()</text><!--MD5=[36afb6bbd95a8ac778c4537c55a683d5]
class ParameterCategory--><rect codeLine="31" fill="#FEFECE" filter="url(#f7445hqbe3beh)" height="89.5078" id="ParameterCategory" style="stroke:#A80036;stroke-width:1.5;" width="139" x="930.9" y="474.5"/><ellipse cx="945.9" cy="490.5" fill="#ADD1B2" rx="11" ry="11" style="stroke:#A80036;stroke-width:1.0;"/><path d="M947.9,487 Q948.1031,486.5 948.3375,486.25 Q948.5719,486 948.8375,486 Q949.3063,486 949.6031,486.2813 Q949.9,486.5625 949.9,487.2188 L949.9,488.7813 Q949.9,489.4375 949.6188,489.7188 Q949.3375,490 948.9,490 Q948.5094,490 948.2594,489.8281 Q948.0094,489.6563 947.9,489.2031 Q947.8531,488.8906 947.6813,488.7188 Q947.3688,488.3906 946.8063,488.2031 Q946.2438,488 945.6813,488 Q944.9781,488 944.3844,488.2813 Q943.8063,488.5625 943.3531,489.1875 Q942.9,489.8125 942.9,490.6719 L942.9,491.5938 Q942.9,492.625 943.7438,493.3125 Q944.5875,494 946.0875,494 Q946.9781,494 947.6031,493.7969 Q947.9625,493.6875 948.3688,493.3281 Q948.6344,493.125 948.775,493.0625 Q948.9156,493 949.0875,493 Q949.4156,493 949.65,493.2656 Q949.9,493.5156 949.9,493.875 Q949.9,494.2188 949.5563,494.625 Q949.0563,495.2188 948.2594,495.5469 Q947.2125,496 945.9313,496 Q944.4313,496 943.2281,495.4063 Q942.2594,494.9375 941.5719,493.9219 Q940.9,492.9063 940.9,491.7031 L940.9,490.6094 Q940.9,489.3594 941.4938,488.2656 Q942.1031,487.1719 943.15,486.5938 Q944.2125,486 945.4,486 Q946.1188,486 946.7438,486.25 Q947.3688,486.5 947.9,487 Z " fill="#000000"/><text fill="#000000" font-family="sans-serif" font-size="12" lengthAdjust="spacing" textLength="107" x="959.9" y="495.4102">ParameterCategory</text><line style="stroke:#A80036;stroke-width:1.5;" x1="931.9" x2="1068.9" y1="506.5" y2="506.5"/><text fill="#000000" font-family="sans-serif" font-size="11" lengthAdjust="spacing" textLength="59" x="936.9" y="521.9189">-String code</text><text fill="#000000" font-family="sans-serif" font-size="11" lengthAdjust="spacing" textLength="88" x="936.9" y="535.7549">-String description</text><text fill="#000000" font-family="sans-serif" font-size="11" lengthAdjust="spacing" textLength="62" x="936.9" y="549.5908">-String nhsID</text><line style="stroke:#A80036;stroke-width:1.5;" x1="931.9" x2="1068.9" y1="556.0078" y2="556.0078"/><!--MD5=[cd10c2711fd317744b70308b24796eef]
class ParamCatMapper--><rect codeLine="39" fill="#FEFECE" filter="url(#f7445hqbe3beh)" height="61.8359" id="ParamCatMapper" style="stroke:#A80036;stroke-width:1.5;" width="129" x="977.9" y="300.5"/><ellipse cx="992.9" cy="316.5" fill="#ADD1B2" rx="11" ry="11" style="stroke:#A80036;stroke-width:1.0;"/><path d="M994.9,313 Q995.1031,312.5 995.3375,312.25 Q995.5719,312 995.8375,312 Q996.3063,312 996.6031,312.2813 Q996.9,312.5625 996.9,313.2188 L996.9,314.7813 Q996.9,315.4375 996.6188,315.7188 Q996.3375,316 995.9,316 Q995.5094,316 995.2594,315.8281 Q995.0094,315.6563 994.9,315.2031 Q994.8531,314.8906 994.6813,314.7188 Q994.3688,314.3906 993.8063,314.2031 Q993.2438,314 992.6813,314 Q991.9781,314 991.3844,314.2813 Q990.8063,314.5625 990.3531,315.1875 Q989.9,315.8125 989.9,316.6719 L989.9,317.5938 Q989.9,318.625 990.7438,319.3125 Q991.5875,320 993.0875,320 Q993.9781,320 994.6031,319.7969 Q994.9625,319.6875 995.3688,319.3281 Q995.6344,319.125 995.775,319.0625 Q995.9156,319 996.0875,319 Q996.4156,319 996.65,319.2656 Q996.9,319.5156 996.9,319.875 Q996.9,320.2188 996.5563,320.625 Q996.0563,321.2188 995.2594,321.5469 Q994.2125,322 992.9313,322 Q991.4313,322 990.2281,321.4063 Q989.2594,320.9375 988.5719,319.9219 Q987.9,318.9063 987.9,317.7031 L987.9,316.6094 Q987.9,315.3594 988.4938,314.2656 Q989.1031,313.1719 990.15,312.5938 Q991.2125,312 992.4,312 Q993.1188,312 993.7438,312.25 Q994.3688,312.5 994.9,313 Z " fill="#000000"/><text fill="#000000" font-family="sans-serif" font-size="12" lengthAdjust="spacing" textLength="97" x="1006.9" y="321.4102">ParamCatMapper</text><line style="stroke:#A80036;stroke-width:1.5;" x1="978.9" x2="1105.9" y1="332.5" y2="332.5"/><line style="stroke:#A80036;stroke-width:1.5;" x1="978.9" x2="1105.9" y1="340.5" y2="340.5"/><text fill="#000000" font-family="sans-serif" font-size="11" lengthAdjust="spacing" textLength="53" x="983.9" y="355.9189">+toDto(lpc)</text><!--MD5=[b9009a04d919d78a73c2eeec1e385786]
class CreateParameterController--><rect codeLine="44" fill="#FEFECE" filter="url(#f7445hqbe3beh)" height="103.3438" id="CreateParameterController" style="stroke:#A80036;stroke-width:1.5;" width="339" x="711.9" y="116"/><ellipse cx="802.65" cy="132" fill="#ADD1B2" rx="11" ry="11" style="stroke:#A80036;stroke-width:1.0;"/><path d="M804.65,128.5 Q804.8531,128 805.0875,127.75 Q805.3219,127.5 805.5875,127.5 Q806.0563,127.5 806.3531,127.7813 Q806.65,128.0625 806.65,128.7188 L806.65,130.2813 Q806.65,130.9375 806.3688,131.2188 Q806.0875,131.5 805.65,131.5 Q805.2594,131.5 805.0094,131.3281 Q804.7594,131.1563 804.65,130.7031 Q804.6031,130.3906 804.4313,130.2188 Q804.1188,129.8906 803.5563,129.7031 Q802.9938,129.5 802.4313,129.5 Q801.7281,129.5 801.1344,129.7813 Q800.5563,130.0625 800.1031,130.6875 Q799.65,131.3125 799.65,132.1719 L799.65,133.0938 Q799.65,134.125 800.4938,134.8125 Q801.3375,135.5 802.8375,135.5 Q803.7281,135.5 804.3531,135.2969 Q804.7125,135.1875 805.1188,134.8281 Q805.3844,134.625 805.525,134.5625 Q805.6656,134.5 805.8375,134.5 Q806.1656,134.5 806.4,134.7656 Q806.65,135.0156 806.65,135.375 Q806.65,135.7188 806.3063,136.125 Q805.8063,136.7188 805.0094,137.0469 Q803.9625,137.5 802.6813,137.5 Q801.1813,137.5 799.9781,136.9063 Q799.0094,136.4375 798.3219,135.4219 Q797.65,134.4063 797.65,133.2031 L797.65,132.1094 Q797.65,130.8594 798.2438,129.7656 Q798.8531,128.6719 799.9,128.0938 Q800.9625,127.5 802.15,127.5 Q802.8688,127.5 803.4938,127.75 Q804.1188,128 804.65,128.5 Z " fill="#000000"/><text fill="#000000" font-family="sans-serif" font-size="12" lengthAdjust="spacing" textLength="149" x="823.15" y="136.9102">CreateParameterController</text><line style="stroke:#A80036;stroke-width:1.5;" x1="712.9" x2="1049.9" y1="148" y2="148"/><line style="stroke:#A80036;stroke-width:1.5;" x1="712.9" x2="1049.9" y1="156" y2="156"/><text fill="#000000" font-family="sans-serif" font-size="11" lengthAdjust="spacing" textLength="142" x="717.9" y="171.4189">+getAllParameterCategories()</text><text fill="#000000" font-family="sans-serif" font-size="11" lengthAdjust="spacing" textLength="53" x="717.9" y="185.2549">+toDto(lpc)</text><text fill="#000000" font-family="sans-serif" font-size="11" lengthAdjust="spacing" textLength="327" x="717.9" y="199.0908">+boolean createParameter(code,designation,description,categoryId)</text><text fill="#000000" font-family="sans-serif" font-size="11" lengthAdjust="spacing" textLength="128" x="717.9" y="212.9268">+boolean saveParameter()</text><!--MD5=[5518e6815e09c51d4db6e17774f331d2]
class CreateParameterUI--><rect codeLine="51" fill="#FEFECE" filter="url(#f7445hqbe3beh)" height="48" id="CreateParameterUI" style="stroke:#A80036;stroke-width:1.5;" width="139" x="811.9" y="7"/><ellipse cx="826.9" cy="23" fill="#ADD1B2" rx="11" ry="11" style="stroke:#A80036;stroke-width:1.0;"/><path d="M828.9,19.5 Q829.1031,19 829.3375,18.75 Q829.5719,18.5 829.8375,18.5 Q830.3063,18.5 830.6031,18.7813 Q830.9,19.0625 830.9,19.7188 L830.9,21.2813 Q830.9,21.9375 830.6188,22.2188 Q830.3375,22.5 829.9,22.5 Q829.5094,22.5 829.2594,22.3281 Q829.0094,22.1563 828.9,21.7031 Q828.8531,21.3906 828.6813,21.2188 Q828.3688,20.8906 827.8063,20.7031 Q827.2438,20.5 826.6813,20.5 Q825.9781,20.5 825.3844,20.7813 Q824.8063,21.0625 824.3531,21.6875 Q823.9,22.3125 823.9,23.1719 L823.9,24.0938 Q823.9,25.125 824.7438,25.8125 Q825.5875,26.5 827.0875,26.5 Q827.9781,26.5 828.6031,26.2969 Q828.9625,26.1875 829.3688,25.8281 Q829.6344,25.625 829.775,25.5625 Q829.9156,25.5 830.0875,25.5 Q830.4156,25.5 830.65,25.7656 Q830.9,26.0156 830.9,26.375 Q830.9,26.7188 830.5563,27.125 Q830.0563,27.7188 829.2594,28.0469 Q828.2125,28.5 826.9313,28.5 Q825.4313,28.5 824.2281,27.9063 Q823.2594,27.4375 822.5719,26.4219 Q821.9,25.4063 821.9,24.2031 L821.9,23.1094 Q821.9,21.8594 822.4938,20.7656 Q823.1031,19.6719 824.15,19.0938 Q825.2125,18.5 826.4,18.5 Q827.1188,18.5 827.7438,18.75 Q828.3688,19 828.9,19.5 Z " fill="#000000"/><text fill="#000000" font-family="sans-serif" font-size="12" lengthAdjust="spacing" textLength="107" x="840.9" y="27.9102">CreateParameterUI</text><line style="stroke:#A80036;stroke-width:1.5;" x1="812.9" x2="949.9" y1="39" y2="39"/><line style="stroke:#A80036;stroke-width:1.5;" x1="812.9" x2="949.9" y1="47" y2="47"/><!--MD5=[9d3dd688f78c4545f26622cd23f9dd25]
link CreateParameterUI to CreateParameterController--><path codeLine="54" d="M881.4,55.12 C881.4,70.36 881.4,91.02 881.4,110.4 " fill="none" id="CreateParameterUI-to-CreateParameterController" style="stroke:#A80036;stroke-width:1.0;stroke-dasharray:7.0,7.0;"/><polygon fill="#A80036" points="881.4,115.83,885.4,106.83,881.4,110.83,877.4,106.83,881.4,115.83" style="stroke:#A80036;stroke-width:1.0;"/><!--MD5=[094e4a14e6ba8aeac9d4213c7f104300]
link CreateParameterController to ParameterCategory--><path codeLine="55" d="M898.57,219.02 C921.31,285.9 961.15,403.08 983.67,469.29 " fill="none" id="CreateParameterController-to-ParameterCategory" style="stroke:#A80036;stroke-width:1.0;stroke-dasharray:7.0,7.0;"/><polygon fill="#A80036" points="985.39,474.36,986.2943,464.5527,983.7874,469.6238,978.7164,467.1169,985.39,474.36" style="stroke:#A80036;stroke-width:1.0;"/><!--MD5=[e9255c887ec25c48e1146f7528d7037a]
link CreateParameterController to ParamCatMapper--><path codeLine="56" d="M931.9,219.31 C956.83,244.4 986.24,274 1008.45,296.34 " fill="none" id="CreateParameterController-to-ParamCatMapper" style="stroke:#A80036;stroke-width:1.0;stroke-dasharray:7.0,7.0;"/><polygon fill="#A80036" points="1012.23,300.15,1008.7317,290.9434,1008.7088,296.6002,1003.052,296.5773,1012.23,300.15" style="stroke:#A80036;stroke-width:1.0;"/><!--MD5=[c56d23af98be554523068ac4fbdb568e]
link CreateParameterController to Parameter--><path codeLine="57" d="M711.79,172.77 C513.15,187.98 191.87,246.62 39.4,461 C9.26,503.38 6,538.14 39.4,578 C114.44,667.55 452.63,694.74 638.7,702.96 " fill="none" id="CreateParameterController-to-Parameter" style="stroke:#A80036;stroke-width:1.0;stroke-dasharray:7.0,7.0;"/><polygon fill="#A80036" points="643.88,703.19,635.0721,698.7832,638.8852,702.9617,634.7067,706.7748,643.88,703.19" style="stroke:#A80036;stroke-width:1.0;"/><!--MD5=[6d585fb02c26694275539b4f1508918e]
link CreateParameterController to Company--><path codeLine="58" d="M840.94,219.31 C826.65,237.26 810.52,257.51 795.99,275.76 " fill="none" id="CreateParameterController-to-Company" style="stroke:#A80036;stroke-width:1.0;stroke-dasharray:7.0,7.0;"/><polygon fill="#A80036" points="792.72,279.87,801.4536,275.3176,795.833,275.9573,795.1933,270.3367,792.72,279.87" style="stroke:#A80036;stroke-width:1.0;"/><!--MD5=[daf3d7412afa2c7651483be0b6e971d1]
link Company to ParameterStore--><path codeLine="59" d="M633.77,373.66 C559.33,399.5 462.28,433.18 380.5,461.55 " fill="none" id="Company-to-ParameterStore" style="stroke:#A80036;stroke-width:1.0;stroke-dasharray:7.0,7.0;"/><polygon fill="#A80036" points="375.63,463.24,385.4443,464.0648,380.3531,461.5991,382.8188,456.5079,375.63,463.24" style="stroke:#A80036;stroke-width:1.0;"/><!--MD5=[d53d7490e5836ca5709858d7326f212b]
link Company to ParameterCategoryStore--><path codeLine="60" d="M697.74,383.08 C662.77,415.44 618.39,456.51 587.72,484.89 " fill="none" id="Company-to-ParameterCategoryStore" style="stroke:#A80036;stroke-width:1.0;stroke-dasharray:7.0,7.0;"/><polygon fill="#A80036" points="584.04,488.29,593.3679,485.1292,587.7157,484.9004,587.9445,479.2482,584.04,488.29" style="stroke:#A80036;stroke-width:1.0;"/><!--MD5=[12d76240d3c3c66074d4ec2ea8bf469c]
link Company to Parameter--><path codeLine="62" d="M753.76,383.33 C755.67,454.83 759.13,584.34 761.04,655.78 " fill="none" id="Company-Parameter" style="stroke:#A80036;stroke-width:1.0;"/><polygon fill="#000000" points="764.5336,524.674,767.2298,515.5536,761.3541,515.7106,764.5336,524.674" style="stroke:#000000;stroke-width:1.0;"/><text fill="#000000" font-family="sans-serif" font-size="13" lengthAdjust="spacing" textLength="118" x="773.4" y="524.9951">capable of analysing</text><text fill="#000000" font-family="sans-serif" font-size="13" lengthAdjust="spacing" textLength="7" x="746.4724" y="404.8653">1</text><text fill="#000000" font-family="sans-serif" font-size="13" lengthAdjust="spacing" textLength="5" x="755.5213" y="645.2508">*</text><!--MD5=[93b4f25fb503a8e0e9a46b1d30ff3f44]
link Company to ParameterCategory--><path codeLine="63" d="M793.56,383.25 C808.48,399.73 826.17,417.28 844.4,431 C867.91,448.68 877.62,446.83 903.4,461 C912.32,465.91 921.62,471.19 930.77,476.5 " fill="none" id="Company-ParameterCategory" style="stroke:#A80036;stroke-width:1.0;"/><polygon fill="#000000" points="853.5354,424.9862,847.7064,417.4714,844.4025,422.3328,853.5354,424.9862" style="stroke:#000000;stroke-width:1.0;"/><text fill="#000000" font-family="sans-serif" font-size="13" lengthAdjust="spacing" textLength="39" x="858.4" y="427.4951">adopts</text><text fill="#000000" font-family="sans-serif" font-size="13" lengthAdjust="spacing" textLength="7" x="791.6206" y="404.7745">1</text><text fill="#000000" font-family="sans-serif" font-size="13" lengthAdjust="spacing" textLength="5" x="917.8808" y="468.4631">*</text><!--MD5=[7a9e3e328fb1db48284e23a673c1e60d]
link ParameterCategory to Parameter--><path codeLine="64" d="M944,564.58 C908.94,591.97 863.76,627.28 827.23,655.83 " fill="none" id="ParameterCategory-Parameter" style="stroke:#A80036;stroke-width:1.0;"/><polygon fill="#000000" points="890.3397,614.0971,881.4031,617.3508,885.0223,621.9822,890.3397,614.0971" style="stroke:#000000;stroke-width:1.0;"/><text fill="#000000" font-family="sans-serif" font-size="13" lengthAdjust="spacing" textLength="93" x="895.4" y="622.4951">presented under</text><text fill="#000000" font-family="sans-serif" font-size="13" lengthAdjust="spacing" textLength="7" x="928.5766" y="585.5988">1</text><text fill="#000000" font-family="sans-serif" font-size="13" lengthAdjust="spacing" textLength="5" x="830.6056" y="645.3075">*</text><!--MD5=[13a4d21748ea7f031c24182df5c0bf04]
@startuml
skinparam classAttributeIconSize 0


class ParameterStore{
  +boolean createParameter(code, designation, description, pcat)
  +boolean saveParameter(parameter)
  -boolean validate(parameter)
  -boolean add(parameter)
  +List <Parameter> getAllParameters()
}

class ParameterCategoryStore{
  +List <ParameterCategory> getAllParameterCategories()
}


class Parameter {
  - String designation
  - String description
  - String code
  +Parameter(code,description,designation,pcat)
}

class Company {
  -designation
  +getParameterCategoryStore()
  +String getParameterCategoryById(categoryId)
  +getParameterStore()
}

class ParameterCategory {
  -String code
  -String description
  -String nhsID
}



class ParamCatMapper{
  +toDto(lpc)
}


class CreateParameterController {
  +getAllParameterCategories()
  +toDto(lpc)
  +boolean createParameter(code,designation,description,categoryId)
  +boolean saveParameter()
}

class CreateParameterUI {
}

CreateParameterUI ..> CreateParameterController
CreateParameterController ..> ParameterCategory
CreateParameterController ..> ParamCatMapper
CreateParameterController ..> Parameter
CreateParameterController ..> Company
Company ..> ParameterStore
Company ..> ParameterCategoryStore

Company "1" - - "*" Parameter : > capable of analysing
Company "1" - - "*" ParameterCategory : > adopts
ParameterCategory "1" - - "*" Parameter : < presented under



@enduml

PlantUML version 1.2021.2(Sun Mar 07 11:10:27 GMT 2021)
(GPL source distribution)
Java Runtime: OpenJDK Runtime Environment
JVM: OpenJDK 64-Bit Server VM
Default Encoding: Cp1252
Language: pt
Country: PT
--></g></svg>