<?xml version="1.0" encoding="UTF-8" standalone="no"?><svg xmlns="http://www.w3.org/2000/svg" xmlns:xlink="http://www.w3.org/1999/xlink" contentScriptType="application/ecmascript" contentStyleType="text/css" height="916.25px" preserveAspectRatio="none" style="width:1057px;height:916px;" version="1.1" viewBox="0 0 1057 916" width="1057.5px" zoomAndPan="magnify"><defs><filter height="300%" id="f1ad2ldu4767w4" width="300%" x="-1" y="-1"><feGaussianBlur result="blurOut" stdDeviation="2.5"/><feColorMatrix in="blurOut" result="blurOut2" type="matrix" values="0 0 0 0 0 0 0 0 0 0 0 0 0 0 0 0 0 0 .4 0"/><feOffset dx="5.0" dy="5.0" in="blurOut2" result="blurOut3"/><feBlend in="SourceGraphic" in2="blurOut3" mode="normal"/></filter></defs><g><!--MD5=[be7802b157a16874d39c59ca0e2b25be]
class ParameterStore--><rect codeLine="4" fill="#FEFECE" filter="url(#f1ad2ldu4767w4)" height="129.1797" id="ParameterStore" style="stroke:#A80036;stroke-width:1.875;" width="346.25" x="8.75" y="333.75"/><ellipse cx="122.1875" cy="353.75" fill="#ADD1B2" rx="13.75" ry="13.75" style="stroke:#A80036;stroke-width:1.25;"/><path d="M124.6875,349.375 Q124.9414,348.75 125.2344,348.4375 Q125.5273,348.125 125.8594,348.125 Q126.4453,348.125 126.8164,348.4766 Q127.1875,348.8281 127.1875,349.6484 L127.1875,351.6016 Q127.1875,352.4219 126.8359,352.7734 Q126.4844,353.125 125.9375,353.125 Q125.4492,353.125 125.1367,352.9102 Q124.8242,352.6953 124.6875,352.1289 Q124.6289,351.7383 124.4141,351.5234 Q124.0234,351.1133 123.3203,350.8789 Q122.6172,350.625 121.9141,350.625 Q121.0352,350.625 120.293,350.9766 Q119.5703,351.3281 119.0039,352.1094 Q118.4375,352.8906 118.4375,353.9648 L118.4375,355.1172 Q118.4375,356.4063 119.4922,357.2656 Q120.5469,358.125 122.4219,358.125 Q123.5352,358.125 124.3164,357.8711 Q124.7656,357.7344 125.2734,357.2852 Q125.6055,357.0313 125.7813,356.9531 Q125.957,356.875 126.1719,356.875 Q126.582,356.875 126.875,357.207 Q127.1875,357.5195 127.1875,357.9688 Q127.1875,358.3984 126.7578,358.9063 Q126.1328,359.6484 125.1367,360.0586 Q123.8281,360.625 122.2266,360.625 Q120.3516,360.625 118.8477,359.8828 Q117.6367,359.2969 116.7773,358.0273 Q115.9375,356.7578 115.9375,355.2539 L115.9375,353.8867 Q115.9375,352.3242 116.6797,350.957 Q117.4414,349.5898 118.75,348.8672 Q120.0781,348.125 121.5625,348.125 Q122.4609,348.125 123.2422,348.4375 Q124.0234,348.75 124.6875,349.375 Z " fill="#000000"/><text fill="#000000" font-family="sans-serif" font-size="15" lengthAdjust="spacing" textLength="108.75" x="147.8125" y="359.8877">ParameterStore</text><line style="stroke:#A80036;stroke-width:1.875;" x1="10" x2="353.75" y1="373.75" y2="373.75"/><line style="stroke:#A80036;stroke-width:1.875;" x1="10" x2="353.75" y1="383.75" y2="383.75"/><text fill="#000000" font-family="sans-serif" font-size="13.75" lengthAdjust="spacing" textLength="331.25" x="16.25" y="403.0237">+createParameter(code, designation, description, pcat)</text><text fill="#000000" font-family="sans-serif" font-size="13.75" lengthAdjust="spacing" textLength="170" x="16.25" y="420.3186">+saveParameter(parameter)</text><text fill="#000000" font-family="sans-serif" font-size="13.75" lengthAdjust="spacing" textLength="122.5" x="16.25" y="437.6135">-validate(parameter)</text><text fill="#000000" font-family="sans-serif" font-size="13.75" lengthAdjust="spacing" textLength="98.75" x="16.25" y="454.9084">-add(parameter)</text><!--MD5=[1f6362a5c8f21d8d6a0fce68f3a92a4e]
class Parameter--><rect codeLine="12" fill="#FEFECE" filter="url(#f1ad2ldu4767w4)" height="129.1797" id="Parameter" style="stroke:#A80036;stroke-width:1.875;" width="460" x="301.875" y="770"/><ellipse cx="490.3125" cy="790" fill="#ADD1B2" rx="13.75" ry="13.75" style="stroke:#A80036;stroke-width:1.25;"/><path d="M492.8125,785.625 Q493.0664,785 493.3594,784.6875 Q493.6523,784.375 493.9844,784.375 Q494.5703,784.375 494.9414,784.7266 Q495.3125,785.0781 495.3125,785.8984 L495.3125,787.8516 Q495.3125,788.6719 494.9609,789.0234 Q494.6094,789.375 494.0625,789.375 Q493.5742,789.375 493.2617,789.1602 Q492.9492,788.9453 492.8125,788.3789 Q492.7539,787.9883 492.5391,787.7734 Q492.1484,787.3633 491.4453,787.1289 Q490.7422,786.875 490.0391,786.875 Q489.1602,786.875 488.418,787.2266 Q487.6953,787.5781 487.1289,788.3594 Q486.5625,789.1406 486.5625,790.2148 L486.5625,791.3672 Q486.5625,792.6563 487.6172,793.5156 Q488.6719,794.375 490.5469,794.375 Q491.6602,794.375 492.4414,794.1211 Q492.8906,793.9844 493.3984,793.5352 Q493.7305,793.2813 493.9063,793.2031 Q494.082,793.125 494.2969,793.125 Q494.707,793.125 495,793.457 Q495.3125,793.7695 495.3125,794.2188 Q495.3125,794.6484 494.8828,795.1563 Q494.2578,795.8984 493.2617,796.3086 Q491.9531,796.875 490.3516,796.875 Q488.4766,796.875 486.9727,796.1328 Q485.7617,795.5469 484.9023,794.2773 Q484.0625,793.0078 484.0625,791.5039 L484.0625,790.1367 Q484.0625,788.5742 484.8047,787.207 Q485.5664,785.8398 486.875,785.1172 Q488.2031,784.375 489.6875,784.375 Q490.5859,784.375 491.3672,784.6875 Q492.1484,785 492.8125,785.625 Z " fill="#000000"/><text fill="#000000" font-family="sans-serif" font-size="15" lengthAdjust="spacing" textLength="72.5" x="515.9375" y="796.1377">Parameter</text><line style="stroke:#A80036;stroke-width:1.875;" x1="303.125" x2="760.625" y1="810" y2="810"/><text fill="#000000" font-family="sans-serif" font-size="13.75" lengthAdjust="spacing" textLength="112.5" x="309.375" y="829.2737">-String designation</text><text fill="#000000" font-family="sans-serif" font-size="13.75" lengthAdjust="spacing" textLength="110" x="309.375" y="846.5686">-String description</text><text fill="#000000" font-family="sans-serif" font-size="13.75" lengthAdjust="spacing" textLength="73.75" x="309.375" y="863.8635">-String code</text><line style="stroke:#A80036;stroke-width:1.875;" x1="303.125" x2="760.625" y1="871.8848" y2="871.8848"/><text fill="#000000" font-family="sans-serif" font-size="13.75" lengthAdjust="spacing" textLength="445" x="309.375" y="891.1584">+Parameter(ref,designation,informalDesc,technicalDesc,duration,cost,cat)</text><!--MD5=[02e4b9b7573f1156f41e60aa5b4e25a4]
class Company--><rect codeLine="19" fill="#FEFECE" filter="url(#f1ad2ldu4767w4)" height="129.1797" id="Company" style="stroke:#A80036;stroke-width:1.875;" width="257.5" x="488.125" y="333.75"/><ellipse cx="578.4375" cy="353.75" fill="#ADD1B2" rx="13.75" ry="13.75" style="stroke:#A80036;stroke-width:1.25;"/><path d="M580.9375,349.375 Q581.1914,348.75 581.4844,348.4375 Q581.7773,348.125 582.1094,348.125 Q582.6953,348.125 583.0664,348.4766 Q583.4375,348.8281 583.4375,349.6484 L583.4375,351.6016 Q583.4375,352.4219 583.0859,352.7734 Q582.7344,353.125 582.1875,353.125 Q581.6992,353.125 581.3867,352.9102 Q581.0742,352.6953 580.9375,352.1289 Q580.8789,351.7383 580.6641,351.5234 Q580.2734,351.1133 579.5703,350.8789 Q578.8672,350.625 578.1641,350.625 Q577.2852,350.625 576.543,350.9766 Q575.8203,351.3281 575.2539,352.1094 Q574.6875,352.8906 574.6875,353.9648 L574.6875,355.1172 Q574.6875,356.4063 575.7422,357.2656 Q576.7969,358.125 578.6719,358.125 Q579.7852,358.125 580.5664,357.8711 Q581.0156,357.7344 581.5234,357.2852 Q581.8555,357.0313 582.0313,356.9531 Q582.207,356.875 582.4219,356.875 Q582.832,356.875 583.125,357.207 Q583.4375,357.5195 583.4375,357.9688 Q583.4375,358.3984 583.0078,358.9063 Q582.3828,359.6484 581.3867,360.0586 Q580.0781,360.625 578.4766,360.625 Q576.6016,360.625 575.0977,359.8828 Q573.8867,359.2969 573.0273,358.0273 Q572.1875,356.7578 572.1875,355.2539 L572.1875,353.8867 Q572.1875,352.3242 572.9297,350.957 Q573.6914,349.5898 575,348.8672 Q576.3281,348.125 577.8125,348.125 Q578.7109,348.125 579.4922,348.4375 Q580.2734,348.75 580.9375,349.375 Z " fill="#000000"/><text fill="#000000" font-family="sans-serif" font-size="15" lengthAdjust="spacing" textLength="66.25" x="604.0625" y="359.8877">Company</text><line style="stroke:#A80036;stroke-width:1.875;" x1="489.375" x2="744.375" y1="373.75" y2="373.75"/><text fill="#000000" font-family="sans-serif" font-size="13.75" lengthAdjust="spacing" textLength="73.75" x="495.625" y="393.0237">-designation</text><line style="stroke:#A80036;stroke-width:1.875;" x1="489.375" x2="744.375" y1="401.0449" y2="401.0449"/><text fill="#000000" font-family="sans-serif" font-size="13.75" lengthAdjust="spacing" textLength="162.5" x="495.625" y="420.3186">+getParameterCategories()</text><text fill="#000000" font-family="sans-serif" font-size="13.75" lengthAdjust="spacing" textLength="242.5" x="495.625" y="437.6135">+getParameterCategoryById(categoryId)</text><text fill="#000000" font-family="sans-serif" font-size="13.75" lengthAdjust="spacing" textLength="130" x="495.625" y="454.9084">+getParameterStore()</text><!--MD5=[36afb6bbd95a8ac778c4537c55a683d5]
class ParameterCategory--><rect codeLine="26" fill="#FEFECE" filter="url(#f1ad2ldu4767w4)" height="111.8848" id="ParameterCategory" style="stroke:#A80036;stroke-width:1.875;" width="173.75" x="742.5" y="560"/><ellipse cx="761.25" cy="580" fill="#ADD1B2" rx="13.75" ry="13.75" style="stroke:#A80036;stroke-width:1.25;"/><path d="M763.75,575.625 Q764.0039,575 764.2969,574.6875 Q764.5898,574.375 764.9219,574.375 Q765.5078,574.375 765.8789,574.7266 Q766.25,575.0781 766.25,575.8984 L766.25,577.8516 Q766.25,578.6719 765.8984,579.0234 Q765.5469,579.375 765,579.375 Q764.5117,579.375 764.1992,579.1602 Q763.8867,578.9453 763.75,578.3789 Q763.6914,577.9883 763.4766,577.7734 Q763.0859,577.3633 762.3828,577.1289 Q761.6797,576.875 760.9766,576.875 Q760.0977,576.875 759.3555,577.2266 Q758.6328,577.5781 758.0664,578.3594 Q757.5,579.1406 757.5,580.2148 L757.5,581.3672 Q757.5,582.6563 758.5547,583.5156 Q759.6094,584.375 761.4844,584.375 Q762.5977,584.375 763.3789,584.1211 Q763.8281,583.9844 764.3359,583.5352 Q764.668,583.2813 764.8438,583.2031 Q765.0195,583.125 765.2344,583.125 Q765.6445,583.125 765.9375,583.457 Q766.25,583.7695 766.25,584.2188 Q766.25,584.6484 765.8203,585.1563 Q765.1953,585.8984 764.1992,586.3086 Q762.8906,586.875 761.2891,586.875 Q759.4141,586.875 757.9102,586.1328 Q756.6992,585.5469 755.8398,584.2773 Q755,583.0078 755,581.5039 L755,580.1367 Q755,578.5742 755.7422,577.207 Q756.5039,575.8398 757.8125,575.1172 Q759.1406,574.375 760.625,574.375 Q761.5234,574.375 762.3047,574.6875 Q763.0859,575 763.75,575.625 Z " fill="#000000"/><text fill="#000000" font-family="sans-serif" font-size="15" lengthAdjust="spacing" textLength="133.75" x="778.75" y="586.1377">ParameterCategory</text><line style="stroke:#A80036;stroke-width:1.875;" x1="743.75" x2="915" y1="600" y2="600"/><text fill="#000000" font-family="sans-serif" font-size="13.75" lengthAdjust="spacing" textLength="73.75" x="750" y="619.2737">-String code</text><text fill="#000000" font-family="sans-serif" font-size="13.75" lengthAdjust="spacing" textLength="110" x="750" y="636.5686">-String description</text><text fill="#000000" font-family="sans-serif" font-size="13.75" lengthAdjust="spacing" textLength="77.5" x="750" y="653.8635">-String nhsID</text><line style="stroke:#A80036;stroke-width:1.875;" x1="743.75" x2="915" y1="661.8848" y2="661.8848"/><!--MD5=[cd10c2711fd317744b70308b24796eef]
class ParamCatMapper--><rect codeLine="34" fill="#FEFECE" filter="url(#f1ad2ldu4767w4)" height="77.2949" id="ParamCatMapper" style="stroke:#A80036;stroke-width:1.875;" width="161.25" x="878.75" y="359.375"/><ellipse cx="897.5" cy="379.375" fill="#ADD1B2" rx="13.75" ry="13.75" style="stroke:#A80036;stroke-width:1.25;"/><path d="M900,375 Q900.2539,374.375 900.5469,374.0625 Q900.8398,373.75 901.1719,373.75 Q901.7578,373.75 902.1289,374.1016 Q902.5,374.4531 902.5,375.2734 L902.5,377.2266 Q902.5,378.0469 902.1484,378.3984 Q901.7969,378.75 901.25,378.75 Q900.7617,378.75 900.4492,378.5352 Q900.1367,378.3203 900,377.7539 Q899.9414,377.3633 899.7266,377.1484 Q899.3359,376.7383 898.6328,376.5039 Q897.9297,376.25 897.2266,376.25 Q896.3477,376.25 895.6055,376.6016 Q894.8828,376.9531 894.3164,377.7344 Q893.75,378.5156 893.75,379.5898 L893.75,380.7422 Q893.75,382.0313 894.8047,382.8906 Q895.8594,383.75 897.7344,383.75 Q898.8477,383.75 899.6289,383.4961 Q900.0781,383.3594 900.5859,382.9102 Q900.918,382.6563 901.0938,382.5781 Q901.2695,382.5 901.4844,382.5 Q901.8945,382.5 902.1875,382.832 Q902.5,383.1445 902.5,383.5938 Q902.5,384.0234 902.0703,384.5313 Q901.4453,385.2734 900.4492,385.6836 Q899.1406,386.25 897.5391,386.25 Q895.6641,386.25 894.1602,385.5078 Q892.9492,384.9219 892.0898,383.6523 Q891.25,382.3828 891.25,380.8789 L891.25,379.5117 Q891.25,377.9492 891.9922,376.582 Q892.7539,375.2148 894.0625,374.4922 Q895.3906,373.75 896.875,373.75 Q897.7734,373.75 898.5547,374.0625 Q899.3359,374.375 900,375 Z " fill="#000000"/><text fill="#000000" font-family="sans-serif" font-size="15" lengthAdjust="spacing" textLength="121.25" x="915" y="385.5127">ParamCatMapper</text><line style="stroke:#A80036;stroke-width:1.875;" x1="880" x2="1038.75" y1="399.375" y2="399.375"/><line style="stroke:#A80036;stroke-width:1.875;" x1="880" x2="1038.75" y1="409.375" y2="409.375"/><text fill="#000000" font-family="sans-serif" font-size="13.75" lengthAdjust="spacing" textLength="72.5" x="886.25" y="428.6487">+toDTO(lpc)</text><!--MD5=[b9009a04d919d78a73c2eeec1e385786]
class CreateParameterController--><rect codeLine="39" fill="#FEFECE" filter="url(#f1ad2ldu4767w4)" height="111.8848" id="CreateParameterController" style="stroke:#A80036;stroke-width:1.875;" width="372.5" x="430.625" y="145"/><ellipse cx="518.4375" cy="165" fill="#ADD1B2" rx="13.75" ry="13.75" style="stroke:#A80036;stroke-width:1.25;"/><path d="M520.9375,160.625 Q521.1914,160 521.4844,159.6875 Q521.7773,159.375 522.1094,159.375 Q522.6953,159.375 523.0664,159.7266 Q523.4375,160.0781 523.4375,160.8984 L523.4375,162.8516 Q523.4375,163.6719 523.0859,164.0234 Q522.7344,164.375 522.1875,164.375 Q521.6992,164.375 521.3867,164.1602 Q521.0742,163.9453 520.9375,163.3789 Q520.8789,162.9883 520.6641,162.7734 Q520.2734,162.3633 519.5703,162.1289 Q518.8672,161.875 518.1641,161.875 Q517.2852,161.875 516.543,162.2266 Q515.8203,162.5781 515.2539,163.3594 Q514.6875,164.1406 514.6875,165.2148 L514.6875,166.3672 Q514.6875,167.6563 515.7422,168.5156 Q516.7969,169.375 518.6719,169.375 Q519.7852,169.375 520.5664,169.1211 Q521.0156,168.9844 521.5234,168.5352 Q521.8555,168.2813 522.0313,168.2031 Q522.207,168.125 522.4219,168.125 Q522.832,168.125 523.125,168.457 Q523.4375,168.7695 523.4375,169.2188 Q523.4375,169.6484 523.0078,170.1563 Q522.3828,170.8984 521.3867,171.3086 Q520.0781,171.875 518.4766,171.875 Q516.6016,171.875 515.0977,171.1328 Q513.8867,170.5469 513.0273,169.2773 Q512.1875,168.0078 512.1875,166.5039 L512.1875,165.1367 Q512.1875,163.5742 512.9297,162.207 Q513.6914,160.8398 515,160.1172 Q516.3281,159.375 517.8125,159.375 Q518.7109,159.375 519.4922,159.6875 Q520.2734,160 520.9375,160.625 Z " fill="#000000"/><text fill="#000000" font-family="sans-serif" font-size="15" lengthAdjust="spacing" textLength="186.25" x="544.0625" y="171.1377">CreateParameterController</text><line style="stroke:#A80036;stroke-width:1.875;" x1="431.875" x2="801.875" y1="185" y2="185"/><line style="stroke:#A80036;stroke-width:1.875;" x1="431.875" x2="801.875" y1="195" y2="195"/><text fill="#000000" font-family="sans-serif" font-size="13.75" lengthAdjust="spacing" textLength="162.5" x="438.125" y="214.2737">+getParameterCategories()</text><text fill="#000000" font-family="sans-serif" font-size="13.75" lengthAdjust="spacing" textLength="357.5" x="438.125" y="231.5686">+createParameter(code,designation,description,categoryId)</text><text fill="#000000" font-family="sans-serif" font-size="13.75" lengthAdjust="spacing" textLength="108.75" x="438.125" y="248.8635">+saveParameter()</text><!--MD5=[5518e6815e09c51d4db6e17774f331d2]
class CreateParameterUI--><rect codeLine="45" fill="#FEFECE" filter="url(#f1ad2ldu4767w4)" height="60" id="CreateParameterUI" style="stroke:#A80036;stroke-width:1.875;" width="173.75" x="530" y="8.75"/><ellipse cx="548.75" cy="28.75" fill="#ADD1B2" rx="13.75" ry="13.75" style="stroke:#A80036;stroke-width:1.25;"/><path d="M551.25,24.375 Q551.5039,23.75 551.7969,23.4375 Q552.0898,23.125 552.4219,23.125 Q553.0078,23.125 553.3789,23.4766 Q553.75,23.8281 553.75,24.6484 L553.75,26.6016 Q553.75,27.4219 553.3984,27.7734 Q553.0469,28.125 552.5,28.125 Q552.0117,28.125 551.6992,27.9102 Q551.3867,27.6953 551.25,27.1289 Q551.1914,26.7383 550.9766,26.5234 Q550.5859,26.1133 549.8828,25.8789 Q549.1797,25.625 548.4766,25.625 Q547.5977,25.625 546.8555,25.9766 Q546.1328,26.3281 545.5664,27.1094 Q545,27.8906 545,28.9648 L545,30.1172 Q545,31.4063 546.0547,32.2656 Q547.1094,33.125 548.9844,33.125 Q550.0977,33.125 550.8789,32.8711 Q551.3281,32.7344 551.8359,32.2852 Q552.168,32.0313 552.3438,31.9531 Q552.5195,31.875 552.7344,31.875 Q553.1445,31.875 553.4375,32.207 Q553.75,32.5195 553.75,32.9688 Q553.75,33.3984 553.3203,33.9063 Q552.6953,34.6484 551.6992,35.0586 Q550.3906,35.625 548.7891,35.625 Q546.9141,35.625 545.4102,34.8828 Q544.1992,34.2969 543.3398,33.0273 Q542.5,31.7578 542.5,30.2539 L542.5,28.8867 Q542.5,27.3242 543.2422,25.957 Q544.0039,24.5898 545.3125,23.8672 Q546.6406,23.125 548.125,23.125 Q549.0234,23.125 549.8047,23.4375 Q550.5859,23.75 551.25,24.375 Z " fill="#000000"/><text fill="#000000" font-family="sans-serif" font-size="15" lengthAdjust="spacing" textLength="133.75" x="566.25" y="34.8877">CreateParameterUI</text><line style="stroke:#A80036;stroke-width:1.875;" x1="531.25" x2="702.5" y1="48.75" y2="48.75"/><line style="stroke:#A80036;stroke-width:1.875;" x1="531.25" x2="702.5" y1="58.75" y2="58.75"/><!--MD5=[9d3dd688f78c4545f26622cd23f9dd25]
link CreateParameterUI to CreateParameterController--><path codeLine="48" d="M616.875,68.975 C616.875,88.2375 616.875,114.275 616.875,138.0625 " fill="none" id="CreateParameterUI-to-CreateParameterController" style="stroke:#A80036;stroke-width:1.25;stroke-dasharray:7.0,7.0;"/><polygon fill="#A80036" points="616.875,144.7,621.875,133.45,616.875,138.45,611.875,133.45,616.875,144.7" style="stroke:#A80036;stroke-width:1.25;"/><!--MD5=[094e4a14e6ba8aeac9d4213c7f104300]
link CreateParameterController to ParameterCategory--><path codeLine="49" d="M698.3875,257.7625 C723.8,278.775 749.6625,304.7375 766.875,333.75 C807.25,401.825 821.5875,493.2 826.6625,553.0625 " fill="none" id="CreateParameterController-to-ParameterCategory" style="stroke:#A80036;stroke-width:1.25;stroke-dasharray:7.0,7.0;"/><polygon fill="#A80036" points="827.175,559.475,831.2262,547.8496,826.6574,553.2465,821.2606,548.6777,827.175,559.475" style="stroke:#A80036;stroke-width:1.25;"/><!--MD5=[e9255c887ec25c48e1146f7528d7037a]
link CreateParameterController to ParamCatMapper--><path codeLine="50" d="M772.7125,257.6 C797.3875,268.65 822.1,281.175 844.375,295 C871.125,311.6125 897.675,334.575 918.5,354.4875 " fill="none" id="CreateParameterController-to-ParamCatMapper" style="stroke:#A80036;stroke-width:1.25;stroke-dasharray:7.0,7.0;"/><polygon fill="#A80036" points="923.125,358.95,918.4974,347.5418,918.626,354.6117,911.5561,354.7402,923.125,358.95" style="stroke:#A80036;stroke-width:1.25;"/><!--MD5=[c56d23af98be554523068ac4fbdb568e]
link CreateParameterController to Parameter--><path codeLine="51" d="M528.525,257.6125 C503.4375,278.15 479.2625,303.8625 465.625,333.75 C400.4875,476.5125 459.2,664.4625 500.15,764.1375 " fill="none" id="CreateParameterController-to-Parameter" style="stroke:#A80036;stroke-width:1.25;stroke-dasharray:7.0,7.0;"/><polygon fill="#A80036" points="502.575,769.9875,502.8959,757.6806,500.1864,764.212,493.655,761.5024,502.575,769.9875" style="stroke:#A80036;stroke-width:1.25;"/><!--MD5=[6d585fb02c26694275539b4f1508918e]
link CreateParameterController to Company--><path codeLine="52" d="M616.875,257.675 C616.875,279.325 616.875,304.4125 616.875,327.2875 " fill="none" id="CreateParameterController-to-Company" style="stroke:#A80036;stroke-width:1.25;stroke-dasharray:7.0,7.0;"/><polygon fill="#A80036" points="616.875,333.675,621.875,322.425,616.875,327.425,611.875,322.425,616.875,333.675" style="stroke:#A80036;stroke-width:1.25;"/><!--MD5=[46706d5726812879537e05899d80bc9e]
link CreateParameterController to ParameterStore--><path codeLine="53" d="M476.65,257.7125 C447.6375,269.6375 417.3875,282.45 389.375,295 C364.525,306.1375 338.2625,318.525 313.0875,330.725 " fill="none" id="CreateParameterController-to-ParameterStore" style="stroke:#A80036;stroke-width:1.25;stroke-dasharray:7.0,7.0;"/><polygon fill="#A80036" points="307.4,333.4875,319.7035,333.0545,313.0185,330.7498,315.3232,324.0649,307.4,333.4875" style="stroke:#A80036;stroke-width:1.25;"/><!--MD5=[12d76240d3c3c66074d4ec2ea8bf469c]
link Company to Parameter--><path codeLine="55" d="M587.4375,462.5125 C575.1625,491.5875 562.0125,526.9 554.375,560 C538.075,630.7 533.2125,714.0875 531.9375,769.9625 " fill="none" id="Company-Parameter" style="stroke:#A80036;stroke-width:1.25;"/><polygon fill="#000000" points="559.5147,622.6203,565.1385,612.1464,557.908,610.8412,559.5147,622.6203" style="stroke:#000000;stroke-width:1.25;"/><text fill="#000000" font-family="sans-serif" font-size="16.25" lengthAdjust="spacing" textLength="147.5" x="571.875" y="623.1189">capable of analysing</text><text fill="#000000" font-family="sans-serif" font-size="16.25" lengthAdjust="spacing" textLength="8.75" x="573.9326" y="489.8428">1</text><text fill="#000000" font-family="sans-serif" font-size="16.25" lengthAdjust="spacing" textLength="6.25" x="525.2568" y="756.3678">*</text><!--MD5=[93b4f25fb503a8e0e9a46b1d30ff3f44]
link Company to ParameterCategory--><path codeLine="56" d="M660.925,462.5875 C676.0875,482.625 693.825,504.275 711.875,522.5 C724.6625,535.4125 739.2375,548.175 753.675,559.9125 " fill="none" id="Company-ParameterCategory" style="stroke:#A80036;stroke-width:1.25;"/><polygon fill="#000000" points="722.4368,515.9942,717.2961,505.2749,711.9773,510.3438,722.4368,515.9942" style="stroke:#000000;stroke-width:1.25;"/><text fill="#000000" font-family="sans-serif" font-size="16.25" lengthAdjust="spacing" textLength="48.75" x="729.375" y="518.1189">adopts</text><text fill="#000000" font-family="sans-serif" font-size="16.25" lengthAdjust="spacing" textLength="8.75" x="657.7543" y="489.9284">1</text><text fill="#000000" font-family="sans-serif" font-size="16.25" lengthAdjust="spacing" textLength="6.25" x="734.8623" y="546.2929">*</text><!--MD5=[7a9e3e328fb1db48284e23a673c1e60d]
link ParameterCategory to Parameter--><path codeLine="57" d="M753.15,672.75 C712.35,702.325 661.9125,738.875 619.4875,769.625 " fill="none" id="ParameterCategory-Parameter" style="stroke:#A80036;stroke-width:1.25;"/><polygon fill="#000000" points="710.6856,717.8019,699.375,721.4625,703.6868,727.4116,710.6856,717.8019" style="stroke:#000000;stroke-width:1.25;"/><text fill="#000000" font-family="sans-serif" font-size="16.25" lengthAdjust="spacing" textLength="116.25" x="716.875" y="728.1189">presented under</text><text fill="#000000" font-family="sans-serif" font-size="16.25" lengthAdjust="spacing" textLength="8.75" x="733.5694" y="698.6257">1</text><text fill="#000000" font-family="sans-serif" font-size="16.25" lengthAdjust="spacing" textLength="6.25" x="624.5905" y="756.45">*</text><!--MD5=[b3031f16b8fc3276ff25c79946d42c42]
@startuml
skinparam classAttributeIconSize 0


class ParameterStore{
  +createParameter(code, designation, description, pcat)
  +saveParameter(parameter)
  -validate(parameter)
  -add(parameter)
}


class Parameter {
  - String designation
  - String description
  - String code
  +Parameter(ref,designation,informalDesc,technicalDesc,duration,cost,cat)
}

class Company {
  -designation
  +getParameterCategories()
  +getParameterCategoryById(categoryId)
  +getParameterStore()
}

class ParameterCategory {
  -String code
  -String description
  -String nhsID
}



class ParamCatMapper{
  +toDTO(lpc)
}


class CreateParameterController {
  +getParameterCategories()
  +createParameter(code,designation,description,categoryId)
  +saveParameter()
}

class CreateParameterUI {
}

CreateParameterUI ..> CreateParameterController
CreateParameterController ..> ParameterCategory
CreateParameterController ..> ParamCatMapper
CreateParameterController ..> Parameter
CreateParameterController ..> Company
CreateParameterController ..> ParameterStore

Company "1" - - "*" Parameter : > capable of analysing
Company "1" - - "*" ParameterCategory : > adopts
ParameterCategory "1" - - "*" Parameter : < presented under



@enduml

PlantUML version 1.2021.2(Sun Mar 07 11:10:27 GMT 2021)
(GPL source distribution)
Java Runtime: OpenJDK Runtime Environment
JVM: OpenJDK 64-Bit Server VM
Default Encoding: Cp1252
Language: pt
Country: PT
--></g></svg>