<?xml version="1.0" encoding="UTF-8" standalone="no"?><svg xmlns="http://www.w3.org/2000/svg" xmlns:xlink="http://www.w3.org/1999/xlink" contentScriptType="application/ecmascript" contentStyleType="text/css" height="127.5px" preserveAspectRatio="none" style="width:823px;height:127px;" version="1.1" viewBox="0 0 823 127" width="823.75px" zoomAndPan="magnify"><defs><filter height="300%" id="fzbqlghpsbpdl" width="300%" x="-1" y="-1"><feGaussianBlur result="blurOut" stdDeviation="2.5"/><feColorMatrix in="blurOut" result="blurOut2" type="matrix" values="0 0 0 0 0 0 0 0 0 0 0 0 0 0 0 0 0 0 .4 0"/><feOffset dx="5.0" dy="5.0" in="blurOut2" result="blurOut3"/><feBlend in="SourceGraphic" in2="blurOut3" mode="normal"/></filter></defs><g><!--MD5=[da547346deef918ea16944ba046651ef]
class Administrator--><rect codeLine="13" fill="#FEFECE" filter="url(#fzbqlghpsbpdl)" height="50" id="Administrator" style="stroke:#A80036;stroke-width:1.875;" width="131.25" x="8.75" y="35"/><ellipse cx="27.5" cy="55" fill="#ADD1B2" rx="13.75" ry="13.75" style="stroke:#A80036;stroke-width:1.25;"/><path d="M30,50.625 Q30.2539,50 30.5469,49.6875 Q30.8398,49.375 31.1719,49.375 Q31.7578,49.375 32.1289,49.7266 Q32.5,50.0781 32.5,50.8984 L32.5,52.8516 Q32.5,53.6719 32.1484,54.0234 Q31.7969,54.375 31.25,54.375 Q30.7617,54.375 30.4492,54.1602 Q30.1367,53.9453 30,53.3789 Q29.9414,52.9883 29.7266,52.7734 Q29.3359,52.3633 28.6328,52.1289 Q27.9297,51.875 27.2266,51.875 Q26.3477,51.875 25.6055,52.2266 Q24.8828,52.5781 24.3164,53.3594 Q23.75,54.1406 23.75,55.2148 L23.75,56.3672 Q23.75,57.6563 24.8047,58.5156 Q25.8594,59.375 27.7344,59.375 Q28.8477,59.375 29.6289,59.1211 Q30.0781,58.9844 30.5859,58.5352 Q30.918,58.2813 31.0938,58.2031 Q31.2695,58.125 31.4844,58.125 Q31.8945,58.125 32.1875,58.457 Q32.5,58.7695 32.5,59.2188 Q32.5,59.6484 32.0703,60.1563 Q31.4453,60.8984 30.4492,61.3086 Q29.1406,61.875 27.5391,61.875 Q25.6641,61.875 24.1602,61.1328 Q22.9492,60.5469 22.0898,59.2773 Q21.25,58.0078 21.25,56.5039 L21.25,55.1367 Q21.25,53.5742 21.9922,52.207 Q22.7539,50.8398 24.0625,50.1172 Q25.3906,49.375 26.875,49.375 Q27.7734,49.375 28.5547,49.6875 Q29.3359,50 30,50.625 Z " fill="#000000"/><text fill="#000000" font-family="sans-serif" font-size="15" lengthAdjust="spacing" textLength="91.25" x="45" y="61.1377">Administrator</text><line style="stroke:#A80036;stroke-width:1.875;" x1="10" x2="138.75" y1="75" y2="75"/><!--MD5=[36afb6bbd95a8ac778c4537c55a683d5]
class ParameterCategory--><rect codeLine="16" fill="#FEFECE" filter="url(#fzbqlghpsbpdl)" height="101.8848" id="ParameterCategory" style="stroke:#A80036;stroke-width:1.875;" width="173.75" x="310" y="8.75"/><ellipse cx="328.75" cy="28.75" fill="#ADD1B2" rx="13.75" ry="13.75" style="stroke:#A80036;stroke-width:1.25;"/><path d="M331.25,24.375 Q331.5039,23.75 331.7969,23.4375 Q332.0898,23.125 332.4219,23.125 Q333.0078,23.125 333.3789,23.4766 Q333.75,23.8281 333.75,24.6484 L333.75,26.6016 Q333.75,27.4219 333.3984,27.7734 Q333.0469,28.125 332.5,28.125 Q332.0117,28.125 331.6992,27.9102 Q331.3867,27.6953 331.25,27.1289 Q331.1914,26.7383 330.9766,26.5234 Q330.5859,26.1133 329.8828,25.8789 Q329.1797,25.625 328.4766,25.625 Q327.5977,25.625 326.8555,25.9766 Q326.1328,26.3281 325.5664,27.1094 Q325,27.8906 325,28.9648 L325,30.1172 Q325,31.4063 326.0547,32.2656 Q327.1094,33.125 328.9844,33.125 Q330.0977,33.125 330.8789,32.8711 Q331.3281,32.7344 331.8359,32.2852 Q332.168,32.0313 332.3438,31.9531 Q332.5195,31.875 332.7344,31.875 Q333.1445,31.875 333.4375,32.207 Q333.75,32.5195 333.75,32.9688 Q333.75,33.3984 333.3203,33.9063 Q332.6953,34.6484 331.6992,35.0586 Q330.3906,35.625 328.7891,35.625 Q326.9141,35.625 325.4102,34.8828 Q324.1992,34.2969 323.3398,33.0273 Q322.5,31.7578 322.5,30.2539 L322.5,28.8867 Q322.5,27.3242 323.2422,25.957 Q324.0039,24.5898 325.3125,23.8672 Q326.6406,23.125 328.125,23.125 Q329.0234,23.125 329.8047,23.4375 Q330.5859,23.75 331.25,24.375 Z " fill="#000000"/><text fill="#000000" font-family="sans-serif" font-size="15" lengthAdjust="spacing" textLength="133.75" x="346.25" y="34.8877">ParameterCategory</text><line style="stroke:#A80036;stroke-width:1.875;" x1="311.25" x2="482.5" y1="48.75" y2="48.75"/><text fill="#000000" font-family="sans-serif" font-size="13.75" lengthAdjust="spacing" textLength="35" x="317.5" y="68.0237">-code</text><text fill="#000000" font-family="sans-serif" font-size="13.75" lengthAdjust="spacing" textLength="71.25" x="317.5" y="85.3186">-description</text><text fill="#000000" font-family="sans-serif" font-size="13.75" lengthAdjust="spacing" textLength="38.75" x="317.5" y="102.6135">-nhsID</text><!--MD5=[1f6362a5c8f21d8d6a0fce68f3a92a4e]
class Parameter--><rect codeLine="22" fill="#FEFECE" filter="url(#fzbqlghpsbpdl)" height="101.8848" id="Parameter" style="stroke:#A80036;stroke-width:1.875;" width="112.5" x="693.75" y="8.75"/><ellipse cx="712.5" cy="28.75" fill="#ADD1B2" rx="13.75" ry="13.75" style="stroke:#A80036;stroke-width:1.25;"/><path d="M715,24.375 Q715.2539,23.75 715.5469,23.4375 Q715.8398,23.125 716.1719,23.125 Q716.7578,23.125 717.1289,23.4766 Q717.5,23.8281 717.5,24.6484 L717.5,26.6016 Q717.5,27.4219 717.1484,27.7734 Q716.7969,28.125 716.25,28.125 Q715.7617,28.125 715.4492,27.9102 Q715.1367,27.6953 715,27.1289 Q714.9414,26.7383 714.7266,26.5234 Q714.3359,26.1133 713.6328,25.8789 Q712.9297,25.625 712.2266,25.625 Q711.3477,25.625 710.6055,25.9766 Q709.8828,26.3281 709.3164,27.1094 Q708.75,27.8906 708.75,28.9648 L708.75,30.1172 Q708.75,31.4063 709.8047,32.2656 Q710.8594,33.125 712.7344,33.125 Q713.8477,33.125 714.6289,32.8711 Q715.0781,32.7344 715.5859,32.2852 Q715.918,32.0313 716.0938,31.9531 Q716.2695,31.875 716.4844,31.875 Q716.8945,31.875 717.1875,32.207 Q717.5,32.5195 717.5,32.9688 Q717.5,33.3984 717.0703,33.9063 Q716.4453,34.6484 715.4492,35.0586 Q714.1406,35.625 712.5391,35.625 Q710.6641,35.625 709.1602,34.8828 Q707.9492,34.2969 707.0898,33.0273 Q706.25,31.7578 706.25,30.2539 L706.25,28.8867 Q706.25,27.3242 706.9922,25.957 Q707.7539,24.5898 709.0625,23.8672 Q710.3906,23.125 711.875,23.125 Q712.7734,23.125 713.5547,23.4375 Q714.3359,23.75 715,24.375 Z " fill="#000000"/><text fill="#000000" font-family="sans-serif" font-size="15" lengthAdjust="spacing" textLength="72.5" x="730" y="34.8877">Parameter</text><line style="stroke:#A80036;stroke-width:1.875;" x1="695" x2="805" y1="48.75" y2="48.75"/><text fill="#000000" font-family="sans-serif" font-size="13.75" lengthAdjust="spacing" textLength="73.75" x="701.25" y="68.0237">-designation</text><text fill="#000000" font-family="sans-serif" font-size="13.75" lengthAdjust="spacing" textLength="71.25" x="701.25" y="85.3186">-description</text><text fill="#000000" font-family="sans-serif" font-size="13.75" lengthAdjust="spacing" textLength="35" x="701.25" y="102.6135">-code</text><!--MD5=[7144ffdeebbe38808f7fb2ce8ac24f7d]
link Administrator to ParameterCategory--><path codeLine="8" d="M140.3875,60 C189.1375,60 256.4625,60 309.725,60 " fill="none" id="Administrator-ParameterCategory" style="stroke:#A80036;stroke-width:1.25;"/><polygon fill="#000000" points="177.5,48.9697,188.8064,52.6434,188.8064,45.2961,177.5,48.9697" style="stroke:#000000;stroke-width:1.25;"/><text fill="#000000" font-family="sans-serif" font-size="16.25" lengthAdjust="spacing" textLength="76.25" x="195" y="55.6189">created by</text><text fill="#000000" font-family="sans-serif" font-size="16.25" lengthAdjust="spacing" textLength="8.75" x="149.8458" y="78.2422">1</text><text fill="#000000" font-family="sans-serif" font-size="16.25" lengthAdjust="spacing" textLength="6.25" x="293.6012" y="78.0203">*</text><!--MD5=[7a9e3e328fb1db48284e23a673c1e60d]
link ParameterCategory to Parameter--><path codeLine="9" d="M483.9,60 C549.175,60 637.1,60 693.375,60 " fill="none" id="ParameterCategory-Parameter" style="stroke:#A80036;stroke-width:1.25;"/><polygon fill="#000000" points="521.25,48.9697,532.5564,52.6434,532.5564,45.2961,521.25,48.9697" style="stroke:#000000;stroke-width:1.25;"/><text fill="#000000" font-family="sans-serif" font-size="16.25" lengthAdjust="spacing" textLength="116.25" x="538.75" y="55.6189">presented under</text><text fill="#000000" font-family="sans-serif" font-size="16.25" lengthAdjust="spacing" textLength="8.75" x="493.8969" y="78.0203">1</text><text fill="#000000" font-family="sans-serif" font-size="16.25" lengthAdjust="spacing" textLength="6.25" x="677.6023" y="78.5467">*</text><!--MD5=[3ab8ca81293a1e00262c51fd60b646ae]
@startuml
'https://plantuml.com/class-diagram
hide methods
left to right direction
class Administrator
class ParameterCategory
class Parameter

Administrator "1" - - "*" ParameterCategory : < created by
ParameterCategory "1" - - "*" Parameter : < presented under

skinparam classAttributeIconSize 0

class Administrator{
}

class ParameterCategory{
-code
-description
-nhsID
}

class Parameter{
-designation
-description
-code
}

@enduml

@startuml
hide methods
left to right direction
class Administrator
class ParameterCategory
class Parameter

Administrator "1" - - "*" ParameterCategory : < created by
ParameterCategory "1" - - "*" Parameter : < presented under

skinparam classAttributeIconSize 0

class Administrator{
}

class ParameterCategory{
-code
-description
-nhsID
}

class Parameter{
-designation
-description
-code
}

@enduml

PlantUML version 1.2021.2(Sun Mar 07 11:10:27 GMT 2021)
(GPL source distribution)
Java Runtime: OpenJDK Runtime Environment
JVM: OpenJDK 64-Bit Server VM
Default Encoding: Cp1252
Language: pt
Country: PT
--></g></svg>