<?xml version="1.0" encoding="UTF-8" standalone="no"?><svg xmlns="http://www.w3.org/2000/svg" xmlns:xlink="http://www.w3.org/1999/xlink" contentScriptType="application/ecmascript" contentStyleType="text/css" height="719px" preserveAspectRatio="none" style="width:1151px;height:719px;" version="1.1" viewBox="0 0 1151 719" width="1151px" zoomAndPan="magnify"><defs><filter height="300%" id="f12x00i4vagblj" width="300%" x="-1" y="-1"><feGaussianBlur result="blurOut" stdDeviation="2.0"/><feColorMatrix in="blurOut" result="blurOut2" type="matrix" values="0 0 0 0 0 0 0 0 0 0 0 0 0 0 0 0 0 0 .4 0"/><feOffset dx="4.0" dy="4.0" in="blurOut2" result="blurOut3"/><feBlend in="SourceGraphic" in2="blurOut3" mode="normal"/></filter></defs><g><!--MD5=[be7802b157a16874d39c59ca0e2b25be]
class ParameterStore--><rect codeLine="4" fill="#FEFECE" filter="url(#f12x00i4vagblj)" height="103.3438" id="ParameterStore" style="stroke:#A80036;stroke-width:1.5;" width="269" x="163.03" y="421"/><ellipse cx="249.78" cy="437" fill="#ADD1B2" rx="11" ry="11" style="stroke:#A80036;stroke-width:1.0;"/><path d="M251.78,433.5 Q251.9831,433 252.2175,432.75 Q252.4519,432.5 252.7175,432.5 Q253.1863,432.5 253.4831,432.7813 Q253.78,433.0625 253.78,433.7188 L253.78,435.2813 Q253.78,435.9375 253.4988,436.2188 Q253.2175,436.5 252.78,436.5 Q252.3894,436.5 252.1394,436.3281 Q251.8894,436.1563 251.78,435.7031 Q251.7331,435.3906 251.5613,435.2188 Q251.2488,434.8906 250.6863,434.7031 Q250.1238,434.5 249.5613,434.5 Q248.8581,434.5 248.2644,434.7813 Q247.6863,435.0625 247.2331,435.6875 Q246.78,436.3125 246.78,437.1719 L246.78,438.0938 Q246.78,439.125 247.6238,439.8125 Q248.4675,440.5 249.9675,440.5 Q250.8581,440.5 251.4831,440.2969 Q251.8425,440.1875 252.2488,439.8281 Q252.5144,439.625 252.655,439.5625 Q252.7956,439.5 252.9675,439.5 Q253.2956,439.5 253.53,439.7656 Q253.78,440.0156 253.78,440.375 Q253.78,440.7188 253.4363,441.125 Q252.9363,441.7188 252.1394,442.0469 Q251.0925,442.5 249.8113,442.5 Q248.3113,442.5 247.1081,441.9063 Q246.1394,441.4375 245.4519,440.4219 Q244.78,439.4063 244.78,438.2031 L244.78,437.1094 Q244.78,435.8594 245.3738,434.7656 Q245.9831,433.6719 247.03,433.0938 Q248.0925,432.5 249.28,432.5 Q249.9988,432.5 250.6238,432.75 Q251.2488,433 251.78,433.5 Z " fill="#000000"/><text fill="#000000" font-family="sans-serif" font-size="12" lengthAdjust="spacing" textLength="87" x="270.28" y="441.9102">ParameterStore</text><line style="stroke:#A80036;stroke-width:1.5;" x1="164.03" x2="431.03" y1="453" y2="453"/><line style="stroke:#A80036;stroke-width:1.5;" x1="164.03" x2="431.03" y1="461" y2="461"/><text fill="#000000" font-family="sans-serif" font-size="11" lengthAdjust="spacing" textLength="257" x="169.03" y="476.4189">+boolean create(code, designation, description, pcat)</text><text fill="#000000" font-family="sans-serif" font-size="11" lengthAdjust="spacing" textLength="141" x="169.03" y="490.2549">+boolean validate(parameter)</text><text fill="#000000" font-family="sans-serif" font-size="11" lengthAdjust="spacing" textLength="122" x="169.03" y="504.0908">+boolean add(parameter)</text><text fill="#000000" font-family="sans-serif" font-size="11" lengthAdjust="spacing" textLength="180" x="169.03" y="517.9268">+List &lt;Parameter&gt; getAllParameters()</text><!--MD5=[d802db621b5b215a6f0466f93cefcb42]
class ParameterCategoryStore--><rect codeLine="11" fill="#FEFECE" filter="url(#f12x00i4vagblj)" height="75.6719" id="ParameterCategoryStore" style="stroke:#A80036;stroke-width:1.5;" width="282" x="467.53" y="434.5"/><ellipse cx="536.28" cy="450.5" fill="#ADD1B2" rx="11" ry="11" style="stroke:#A80036;stroke-width:1.0;"/><path d="M538.28,447 Q538.4831,446.5 538.7175,446.25 Q538.9519,446 539.2175,446 Q539.6863,446 539.9831,446.2813 Q540.28,446.5625 540.28,447.2188 L540.28,448.7813 Q540.28,449.4375 539.9988,449.7188 Q539.7175,450 539.28,450 Q538.8894,450 538.6394,449.8281 Q538.3894,449.6563 538.28,449.2031 Q538.2331,448.8906 538.0613,448.7188 Q537.7488,448.3906 537.1863,448.2031 Q536.6238,448 536.0613,448 Q535.3581,448 534.7644,448.2813 Q534.1863,448.5625 533.7331,449.1875 Q533.28,449.8125 533.28,450.6719 L533.28,451.5938 Q533.28,452.625 534.1238,453.3125 Q534.9675,454 536.4675,454 Q537.3581,454 537.9831,453.7969 Q538.3425,453.6875 538.7488,453.3281 Q539.0144,453.125 539.155,453.0625 Q539.2956,453 539.4675,453 Q539.7956,453 540.03,453.2656 Q540.28,453.5156 540.28,453.875 Q540.28,454.2188 539.9363,454.625 Q539.4363,455.2188 538.6394,455.5469 Q537.5925,456 536.3113,456 Q534.8113,456 533.6081,455.4063 Q532.6394,454.9375 531.9519,453.9219 Q531.28,452.9063 531.28,451.7031 L531.28,450.6094 Q531.28,449.3594 531.8738,448.2656 Q532.4831,447.1719 533.53,446.5938 Q534.5925,446 535.78,446 Q536.4988,446 537.1238,446.25 Q537.7488,446.5 538.28,447 Z " fill="#000000"/><text fill="#000000" font-family="sans-serif" font-size="12" lengthAdjust="spacing" textLength="136" x="556.78" y="455.4102">ParameterCategoryStore</text><line style="stroke:#A80036;stroke-width:1.5;" x1="468.53" x2="748.53" y1="466.5" y2="466.5"/><line style="stroke:#A80036;stroke-width:1.5;" x1="468.53" x2="748.53" y1="474.5" y2="474.5"/><text fill="#000000" font-family="sans-serif" font-size="11" lengthAdjust="spacing" textLength="270" x="473.53" y="489.9189">+List &lt;ParameterCategory&gt; getAllParameterCategories()</text><text fill="#000000" font-family="sans-serif" font-size="11" lengthAdjust="spacing" textLength="225" x="473.53" y="503.7549">+String getParameterCategoryById(categoryId)</text><!--MD5=[1f6362a5c8f21d8d6a0fce68f3a92a4e]
class Parameter--><rect codeLine="17" fill="#FEFECE" filter="url(#f12x00i4vagblj)" height="103.3438" id="Parameter" style="stroke:#A80036;stroke-width:1.5;" width="237" x="701.03" y="602"/><ellipse cx="786.28" cy="618" fill="#ADD1B2" rx="11" ry="11" style="stroke:#A80036;stroke-width:1.0;"/><path d="M788.28,614.5 Q788.4831,614 788.7175,613.75 Q788.9519,613.5 789.2175,613.5 Q789.6863,613.5 789.9831,613.7813 Q790.28,614.0625 790.28,614.7188 L790.28,616.2813 Q790.28,616.9375 789.9988,617.2188 Q789.7175,617.5 789.28,617.5 Q788.8894,617.5 788.6394,617.3281 Q788.3894,617.1563 788.28,616.7031 Q788.2331,616.3906 788.0613,616.2188 Q787.7488,615.8906 787.1863,615.7031 Q786.6238,615.5 786.0613,615.5 Q785.3581,615.5 784.7644,615.7813 Q784.1863,616.0625 783.7331,616.6875 Q783.28,617.3125 783.28,618.1719 L783.28,619.0938 Q783.28,620.125 784.1238,620.8125 Q784.9675,621.5 786.4675,621.5 Q787.3581,621.5 787.9831,621.2969 Q788.3425,621.1875 788.7488,620.8281 Q789.0144,620.625 789.155,620.5625 Q789.2956,620.5 789.4675,620.5 Q789.7956,620.5 790.03,620.7656 Q790.28,621.0156 790.28,621.375 Q790.28,621.7188 789.9363,622.125 Q789.4363,622.7188 788.6394,623.0469 Q787.5925,623.5 786.3113,623.5 Q784.8113,623.5 783.6081,622.9063 Q782.6394,622.4375 781.9519,621.4219 Q781.28,620.4063 781.28,619.2031 L781.28,618.1094 Q781.28,616.8594 781.8738,615.7656 Q782.4831,614.6719 783.53,614.0938 Q784.5925,613.5 785.78,613.5 Q786.4988,613.5 787.1238,613.75 Q787.7488,614 788.28,614.5 Z " fill="#000000"/><text fill="#000000" font-family="sans-serif" font-size="12" lengthAdjust="spacing" textLength="58" x="806.78" y="622.9102">Parameter</text><line style="stroke:#A80036;stroke-width:1.5;" x1="702.03" x2="937.03" y1="634" y2="634"/><text fill="#000000" font-family="sans-serif" font-size="11" lengthAdjust="spacing" textLength="90" x="707.03" y="649.4189">-String designation</text><text fill="#000000" font-family="sans-serif" font-size="11" lengthAdjust="spacing" textLength="88" x="707.03" y="663.2549">-String description</text><text fill="#000000" font-family="sans-serif" font-size="11" lengthAdjust="spacing" textLength="59" x="707.03" y="677.0908">-String code</text><line style="stroke:#A80036;stroke-width:1.5;" x1="702.03" x2="937.03" y1="683.5078" y2="683.5078"/><text fill="#000000" font-family="sans-serif" font-size="11" lengthAdjust="spacing" textLength="225" x="707.03" y="698.9268">+Parameter(code,description,designation,pcat)</text><!--MD5=[02e4b9b7573f1156f41e60aa5b4e25a4]
class Company--><rect codeLine="24" fill="#FEFECE" filter="url(#f12x00i4vagblj)" height="89.5078" id="Company" style="stroke:#A80036;stroke-width:1.5;" width="160" x="739.53" y="253"/><ellipse cx="788.78" cy="269" fill="#ADD1B2" rx="11" ry="11" style="stroke:#A80036;stroke-width:1.0;"/><path d="M790.78,265.5 Q790.9831,265 791.2175,264.75 Q791.4519,264.5 791.7175,264.5 Q792.1863,264.5 792.4831,264.7813 Q792.78,265.0625 792.78,265.7188 L792.78,267.2813 Q792.78,267.9375 792.4988,268.2188 Q792.2175,268.5 791.78,268.5 Q791.3894,268.5 791.1394,268.3281 Q790.8894,268.1563 790.78,267.7031 Q790.7331,267.3906 790.5613,267.2188 Q790.2488,266.8906 789.6863,266.7031 Q789.1238,266.5 788.5613,266.5 Q787.8581,266.5 787.2644,266.7813 Q786.6863,267.0625 786.2331,267.6875 Q785.78,268.3125 785.78,269.1719 L785.78,270.0938 Q785.78,271.125 786.6238,271.8125 Q787.4675,272.5 788.9675,272.5 Q789.8581,272.5 790.4831,272.2969 Q790.8425,272.1875 791.2488,271.8281 Q791.5144,271.625 791.655,271.5625 Q791.7956,271.5 791.9675,271.5 Q792.2956,271.5 792.53,271.7656 Q792.78,272.0156 792.78,272.375 Q792.78,272.7188 792.4363,273.125 Q791.9363,273.7188 791.1394,274.0469 Q790.0925,274.5 788.8113,274.5 Q787.3113,274.5 786.1081,273.9063 Q785.1394,273.4375 784.4519,272.4219 Q783.78,271.4063 783.78,270.2031 L783.78,269.1094 Q783.78,267.8594 784.3738,266.7656 Q784.9831,265.6719 786.03,265.0938 Q787.0925,264.5 788.28,264.5 Q788.9988,264.5 789.6238,264.75 Q790.2488,265 790.78,265.5 Z " fill="#000000"/><text fill="#000000" font-family="sans-serif" font-size="12" lengthAdjust="spacing" textLength="53" x="809.28" y="273.9102">Company</text><line style="stroke:#A80036;stroke-width:1.5;" x1="740.53" x2="898.53" y1="285" y2="285"/><text fill="#000000" font-family="sans-serif" font-size="11" lengthAdjust="spacing" textLength="59" x="745.53" y="300.4189">-designation</text><line style="stroke:#A80036;stroke-width:1.5;" x1="740.53" x2="898.53" y1="306.8359" y2="306.8359"/><text fill="#000000" font-family="sans-serif" font-size="11" lengthAdjust="spacing" textLength="148" x="745.53" y="322.2549">+getParameterCategoryStore()</text><text fill="#000000" font-family="sans-serif" font-size="11" lengthAdjust="spacing" textLength="104" x="745.53" y="336.0908">+getParameterStore()</text><!--MD5=[36afb6bbd95a8ac778c4537c55a683d5]
class ParameterCategory--><rect codeLine="30" fill="#FEFECE" filter="url(#f12x00i4vagblj)" height="89.5078" id="ParameterCategory" style="stroke:#A80036;stroke-width:1.5;" width="139" x="988.03" y="427.5"/><ellipse cx="1003.03" cy="443.5" fill="#ADD1B2" rx="11" ry="11" style="stroke:#A80036;stroke-width:1.0;"/><path d="M1005.03,440 Q1005.2331,439.5 1005.4675,439.25 Q1005.7019,439 1005.9675,439 Q1006.4363,439 1006.7331,439.2813 Q1007.03,439.5625 1007.03,440.2188 L1007.03,441.7813 Q1007.03,442.4375 1006.7488,442.7188 Q1006.4675,443 1006.03,443 Q1005.6394,443 1005.3894,442.8281 Q1005.1394,442.6563 1005.03,442.2031 Q1004.9831,441.8906 1004.8113,441.7188 Q1004.4988,441.3906 1003.9363,441.2031 Q1003.3738,441 1002.8113,441 Q1002.1081,441 1001.5144,441.2813 Q1000.9363,441.5625 1000.4831,442.1875 Q1000.03,442.8125 1000.03,443.6719 L1000.03,444.5938 Q1000.03,445.625 1000.8738,446.3125 Q1001.7175,447 1003.2175,447 Q1004.1081,447 1004.7331,446.7969 Q1005.0925,446.6875 1005.4988,446.3281 Q1005.7644,446.125 1005.905,446.0625 Q1006.0456,446 1006.2175,446 Q1006.5456,446 1006.78,446.2656 Q1007.03,446.5156 1007.03,446.875 Q1007.03,447.2188 1006.6863,447.625 Q1006.1863,448.2188 1005.3894,448.5469 Q1004.3425,449 1003.0613,449 Q1001.5613,449 1000.3581,448.4063 Q999.3894,447.9375 998.7019,446.9219 Q998.03,445.9063 998.03,444.7031 L998.03,443.6094 Q998.03,442.3594 998.6238,441.2656 Q999.2331,440.1719 1000.28,439.5938 Q1001.3425,439 1002.53,439 Q1003.2488,439 1003.8738,439.25 Q1004.4988,439.5 1005.03,440 Z " fill="#000000"/><text fill="#000000" font-family="sans-serif" font-size="12" lengthAdjust="spacing" textLength="107" x="1017.03" y="448.4102">ParameterCategory</text><line style="stroke:#A80036;stroke-width:1.5;" x1="989.03" x2="1126.03" y1="459.5" y2="459.5"/><text fill="#000000" font-family="sans-serif" font-size="11" lengthAdjust="spacing" textLength="59" x="994.03" y="474.9189">-String code</text><text fill="#000000" font-family="sans-serif" font-size="11" lengthAdjust="spacing" textLength="88" x="994.03" y="488.7549">-String description</text><text fill="#000000" font-family="sans-serif" font-size="11" lengthAdjust="spacing" textLength="62" x="994.03" y="502.5908">-String nhsID</text><line style="stroke:#A80036;stroke-width:1.5;" x1="989.03" x2="1126.03" y1="509.0078" y2="509.0078"/><!--MD5=[cd10c2711fd317744b70308b24796eef]
class ParamCatMapper--><rect codeLine="38" fill="#FEFECE" filter="url(#f12x00i4vagblj)" height="61.8359" id="ParamCatMapper" style="stroke:#A80036;stroke-width:1.5;" width="129" x="1008.03" y="267"/><ellipse cx="1023.03" cy="283" fill="#ADD1B2" rx="11" ry="11" style="stroke:#A80036;stroke-width:1.0;"/><path d="M1025.03,279.5 Q1025.2331,279 1025.4675,278.75 Q1025.7019,278.5 1025.9675,278.5 Q1026.4363,278.5 1026.7331,278.7813 Q1027.03,279.0625 1027.03,279.7188 L1027.03,281.2813 Q1027.03,281.9375 1026.7488,282.2188 Q1026.4675,282.5 1026.03,282.5 Q1025.6394,282.5 1025.3894,282.3281 Q1025.1394,282.1563 1025.03,281.7031 Q1024.9831,281.3906 1024.8113,281.2188 Q1024.4988,280.8906 1023.9363,280.7031 Q1023.3738,280.5 1022.8113,280.5 Q1022.1081,280.5 1021.5144,280.7813 Q1020.9363,281.0625 1020.4831,281.6875 Q1020.03,282.3125 1020.03,283.1719 L1020.03,284.0938 Q1020.03,285.125 1020.8738,285.8125 Q1021.7175,286.5 1023.2175,286.5 Q1024.1081,286.5 1024.7331,286.2969 Q1025.0925,286.1875 1025.4988,285.8281 Q1025.7644,285.625 1025.905,285.5625 Q1026.0456,285.5 1026.2175,285.5 Q1026.5456,285.5 1026.78,285.7656 Q1027.03,286.0156 1027.03,286.375 Q1027.03,286.7188 1026.6863,287.125 Q1026.1863,287.7188 1025.3894,288.0469 Q1024.3425,288.5 1023.0613,288.5 Q1021.5613,288.5 1020.3581,287.9063 Q1019.3894,287.4375 1018.7019,286.4219 Q1018.03,285.4063 1018.03,284.2031 L1018.03,283.1094 Q1018.03,281.8594 1018.6238,280.7656 Q1019.2331,279.6719 1020.28,279.0938 Q1021.3425,278.5 1022.53,278.5 Q1023.2488,278.5 1023.8738,278.75 Q1024.4988,279 1025.03,279.5 Z " fill="#000000"/><text fill="#000000" font-family="sans-serif" font-size="12" lengthAdjust="spacing" textLength="97" x="1037.03" y="287.9102">ParamCatMapper</text><line style="stroke:#A80036;stroke-width:1.5;" x1="1009.03" x2="1136.03" y1="299" y2="299"/><line style="stroke:#A80036;stroke-width:1.5;" x1="1009.03" x2="1136.03" y1="307" y2="307"/><text fill="#000000" font-family="sans-serif" font-size="11" lengthAdjust="spacing" textLength="53" x="1014.03" y="322.4189">+toDto(lpc)</text><!--MD5=[b9009a04d919d78a73c2eeec1e385786]
class CreateParameterController--><rect codeLine="43" fill="#FEFECE" filter="url(#f12x00i4vagblj)" height="75.6719" id="CreateParameterController" style="stroke:#A80036;stroke-width:1.5;" width="339" x="751.03" y="116"/><ellipse cx="841.78" cy="132" fill="#ADD1B2" rx="11" ry="11" style="stroke:#A80036;stroke-width:1.0;"/><path d="M843.78,128.5 Q843.9831,128 844.2175,127.75 Q844.4519,127.5 844.7175,127.5 Q845.1863,127.5 845.4831,127.7813 Q845.78,128.0625 845.78,128.7188 L845.78,130.2813 Q845.78,130.9375 845.4988,131.2188 Q845.2175,131.5 844.78,131.5 Q844.3894,131.5 844.1394,131.3281 Q843.8894,131.1563 843.78,130.7031 Q843.7331,130.3906 843.5613,130.2188 Q843.2488,129.8906 842.6863,129.7031 Q842.1238,129.5 841.5613,129.5 Q840.8581,129.5 840.2644,129.7813 Q839.6863,130.0625 839.2331,130.6875 Q838.78,131.3125 838.78,132.1719 L838.78,133.0938 Q838.78,134.125 839.6238,134.8125 Q840.4675,135.5 841.9675,135.5 Q842.8581,135.5 843.4831,135.2969 Q843.8425,135.1875 844.2488,134.8281 Q844.5144,134.625 844.655,134.5625 Q844.7956,134.5 844.9675,134.5 Q845.2956,134.5 845.53,134.7656 Q845.78,135.0156 845.78,135.375 Q845.78,135.7188 845.4363,136.125 Q844.9363,136.7188 844.1394,137.0469 Q843.0925,137.5 841.8113,137.5 Q840.3113,137.5 839.1081,136.9063 Q838.1394,136.4375 837.4519,135.4219 Q836.78,134.4063 836.78,133.2031 L836.78,132.1094 Q836.78,130.8594 837.3738,129.7656 Q837.9831,128.6719 839.03,128.0938 Q840.0925,127.5 841.28,127.5 Q841.9988,127.5 842.6238,127.75 Q843.2488,128 843.78,128.5 Z " fill="#000000"/><text fill="#000000" font-family="sans-serif" font-size="12" lengthAdjust="spacing" textLength="149" x="862.28" y="136.9102">CreateParameterController</text><line style="stroke:#A80036;stroke-width:1.5;" x1="752.03" x2="1089.03" y1="148" y2="148"/><line style="stroke:#A80036;stroke-width:1.5;" x1="752.03" x2="1089.03" y1="156" y2="156"/><text fill="#000000" font-family="sans-serif" font-size="11" lengthAdjust="spacing" textLength="327" x="757.03" y="171.4189">+boolean createParameter(code,designation,description,categoryId)</text><text fill="#000000" font-family="sans-serif" font-size="11" lengthAdjust="spacing" textLength="128" x="757.03" y="185.2549">+boolean saveParameter()</text><!--MD5=[5518e6815e09c51d4db6e17774f331d2]
class CreateParameterUI--><rect codeLine="48" fill="#FEFECE" filter="url(#f12x00i4vagblj)" height="48" id="CreateParameterUI" style="stroke:#A80036;stroke-width:1.5;" width="139" x="851.03" y="7"/><ellipse cx="866.03" cy="23" fill="#ADD1B2" rx="11" ry="11" style="stroke:#A80036;stroke-width:1.0;"/><path d="M868.03,19.5 Q868.2331,19 868.4675,18.75 Q868.7019,18.5 868.9675,18.5 Q869.4363,18.5 869.7331,18.7813 Q870.03,19.0625 870.03,19.7188 L870.03,21.2813 Q870.03,21.9375 869.7488,22.2188 Q869.4675,22.5 869.03,22.5 Q868.6394,22.5 868.3894,22.3281 Q868.1394,22.1563 868.03,21.7031 Q867.9831,21.3906 867.8113,21.2188 Q867.4988,20.8906 866.9363,20.7031 Q866.3738,20.5 865.8113,20.5 Q865.1081,20.5 864.5144,20.7813 Q863.9363,21.0625 863.4831,21.6875 Q863.03,22.3125 863.03,23.1719 L863.03,24.0938 Q863.03,25.125 863.8738,25.8125 Q864.7175,26.5 866.2175,26.5 Q867.1081,26.5 867.7331,26.2969 Q868.0925,26.1875 868.4988,25.8281 Q868.7644,25.625 868.905,25.5625 Q869.0456,25.5 869.2175,25.5 Q869.5456,25.5 869.78,25.7656 Q870.03,26.0156 870.03,26.375 Q870.03,26.7188 869.6863,27.125 Q869.1863,27.7188 868.3894,28.0469 Q867.3425,28.5 866.0613,28.5 Q864.5613,28.5 863.3581,27.9063 Q862.3894,27.4375 861.7019,26.4219 Q861.03,25.4063 861.03,24.2031 L861.03,23.1094 Q861.03,21.8594 861.6238,20.7656 Q862.2331,19.6719 863.28,19.0938 Q864.3425,18.5 865.53,18.5 Q866.2488,18.5 866.8738,18.75 Q867.4988,19 868.03,19.5 Z " fill="#000000"/><text fill="#000000" font-family="sans-serif" font-size="12" lengthAdjust="spacing" textLength="107" x="880.03" y="27.9102">CreateParameterUI</text><line style="stroke:#A80036;stroke-width:1.5;" x1="852.03" x2="989.03" y1="39" y2="39"/><line style="stroke:#A80036;stroke-width:1.5;" x1="852.03" x2="989.03" y1="47" y2="47"/><!--MD5=[9d3dd688f78c4545f26622cd23f9dd25]
link CreateParameterUI to CreateParameterController--><path codeLine="51" d="M920.53,55.04 C920.53,70.71 920.53,91.91 920.53,110.58 " fill="none" id="CreateParameterUI-to-CreateParameterController" style="stroke:#A80036;stroke-width:1.0;stroke-dasharray:7.0,7.0;"/><polygon fill="#A80036" points="920.53,115.77,924.53,106.77,920.53,110.77,916.53,106.77,920.53,115.77" style="stroke:#A80036;stroke-width:1.0;"/><!--MD5=[094e4a14e6ba8aeac9d4213c7f104300]
link CreateParameterController to ParameterCategory--><path codeLine="52" d="M932.88,192.29 C945.93,230.62 967.74,291.77 990.53,343 C1002.46,369.83 1017.44,398.91 1030.21,422.6 " fill="none" id="CreateParameterController-to-ParameterCategory" style="stroke:#A80036;stroke-width:1.0;stroke-dasharray:7.0,7.0;"/><polygon fill="#A80036" points="1032.73,427.27,1031.9812,417.4496,1030.3578,422.8686,1024.9389,421.2452,1032.73,427.27" style="stroke:#A80036;stroke-width:1.0;"/><!--MD5=[e9255c887ec25c48e1146f7528d7037a]
link CreateParameterController to ParamCatMapper--><path codeLine="53" d="M960.46,192.31 C983.91,214.21 1013.32,241.69 1036.13,263 " fill="none" id="CreateParameterController-to-ParamCatMapper" style="stroke:#A80036;stroke-width:1.0;stroke-dasharray:7.0,7.0;"/><polygon fill="#A80036" points="1040.02,266.63,1036.171,257.5644,1036.3652,263.2179,1030.7117,263.4121,1040.02,266.63" style="stroke:#A80036;stroke-width:1.0;"/><!--MD5=[c56d23af98be554523068ac4fbdb568e]
link CreateParameterController to Parameter--><path codeLine="54" d="M750.98,159.29 C567.45,174.11 282.65,228.97 145.53,421 C6,616.41 465.36,648.59 695.78,652.72 " fill="none" id="CreateParameterController-to-Parameter" style="stroke:#A80036;stroke-width:1.0;stroke-dasharray:7.0,7.0;"/><polygon fill="#A80036" points="700.84,652.81,691.9099,648.6563,695.8407,652.7243,691.7728,656.6551,700.84,652.81" style="stroke:#A80036;stroke-width:1.0;"/><!--MD5=[6d585fb02c26694275539b4f1508918e]
link CreateParameterController to Company--><path codeLine="55" d="M893.99,192.31 C881.71,209.57 866.97,230.3 853.86,248.74 " fill="none" id="CreateParameterController-to-Company" style="stroke:#A80036;stroke-width:1.0;stroke-dasharray:7.0,7.0;"/><polygon fill="#A80036" points="850.91,252.88,859.3894,247.8701,853.8108,248.8075,852.8734,243.2288,850.91,252.88" style="stroke:#A80036;stroke-width:1.0;"/><!--MD5=[daf3d7412afa2c7651483be0b6e971d1]
link Company to ParameterStore--><path codeLine="56" d="M739.4,325.36 C664.44,350.04 549.38,387.95 449.53,421 C445.45,422.35 441.31,423.72 437.13,425.11 " fill="none" id="Company-to-ParameterStore" style="stroke:#A80036;stroke-width:1.0;stroke-dasharray:7.0,7.0;"/><polygon fill="#A80036" points="432.21,426.74,442.0105,427.7152,436.9577,425.1717,439.5012,420.1189,432.21,426.74" style="stroke:#A80036;stroke-width:1.0;"/><!--MD5=[d53d7490e5836ca5709858d7326f212b]
link Company to ParameterCategoryStore--><path codeLine="57" d="M765.46,343.2 C732.26,370.35 690.05,404.85 657.78,431.24 " fill="none" id="Company-to-ParameterCategoryStore" style="stroke:#A80036;stroke-width:1.0;stroke-dasharray:7.0,7.0;"/><polygon fill="#A80036" points="653.89,434.41,663.387,431.801,657.7579,431.2415,658.3174,425.6124,653.89,434.41" style="stroke:#A80036;stroke-width:1.0;"/><!--MD5=[12d76240d3c3c66074d4ec2ea8bf469c]
link Company to Parameter--><path codeLine="59" d="M819.53,343.06 C819.53,408.85 819.53,532.46 819.53,601.88 " fill="none" id="Company-Parameter" style="stroke:#A80036;stroke-width:1.0;"/><polygon fill="#000000" points="824.53,477.6758,827.4689,468.6307,821.5911,468.6307,824.53,477.6758" style="stroke:#000000;stroke-width:1.0;"/><text fill="#000000" font-family="sans-serif" font-size="13" lengthAdjust="spacing" textLength="118" x="833.53" y="477.9951">capable of analysing</text><text fill="#000000" font-family="sans-serif" font-size="13" lengthAdjust="spacing" textLength="7" x="812.0378" y="364.076">1</text><text fill="#000000" font-family="sans-serif" font-size="13" lengthAdjust="spacing" textLength="5" x="814.1784" y="590.9916">*</text><!--MD5=[93b4f25fb503a8e0e9a46b1d30ff3f44]
link Company to ParameterCategory--><path codeLine="60" d="M838.05,343.43 C846.95,360.29 859.09,378.42 874.53,391 C905.91,416.57 923.37,404.94 960.53,421 C969.5,424.88 978.79,429.24 987.91,433.73 " fill="none" id="Company-ParameterCategory" style="stroke:#A80036;stroke-width:1.0;"/><polygon fill="#000000" points="883.8126,384.7563,877.5821,377.5708,874.5485,382.6053,883.8126,384.7563" style="stroke:#000000;stroke-width:1.0;"/><text fill="#000000" font-family="sans-serif" font-size="13" lengthAdjust="spacing" textLength="39" x="888.53" y="387.4951">adopts</text><text fill="#000000" font-family="sans-serif" font-size="13" lengthAdjust="spacing" textLength="7" x="833.0683" y="364.1615">1</text><text fill="#000000" font-family="sans-serif" font-size="13" lengthAdjust="spacing" textLength="5" x="975.0219" y="426.1558">*</text><!--MD5=[7a9e3e328fb1db48284e23a673c1e60d]
link ParameterCategory to Parameter--><path codeLine="61" d="M999,517.52 C965.01,543.09 922.04,575.4 886.67,602 " fill="none" id="ParameterCategory-Parameter" style="stroke:#A80036;stroke-width:1.0;"/><polygon fill="#000000" points="955.526,560.1705,946.5307,563.2583,950.0636,567.9559,955.526,560.1705" style="stroke:#000000;stroke-width:1.0;"/><text fill="#000000" font-family="sans-serif" font-size="13" lengthAdjust="spacing" textLength="93" x="960.53" y="568.4951">presented under</text><text fill="#000000" font-family="sans-serif" font-size="13" lengthAdjust="spacing" textLength="7" x="983.277" y="538.5304">1</text><text fill="#000000" font-family="sans-serif" font-size="13" lengthAdjust="spacing" textLength="5" x="890.76" y="591.1285">*</text><!--MD5=[0c84f6184be439831d45f975a9042f00]
@startuml
skinparam classAttributeIconSize 0


class ParameterStore{
  +boolean create(code, designation, description, pcat)
  +boolean validate(parameter)
  +boolean add(parameter)
  +List <Parameter> getAllParameters()
}

class ParameterCategoryStore{
  +List <ParameterCategory> getAllParameterCategories()
  +String getParameterCategoryById(categoryId)
}


class Parameter {
  - String designation
  - String description
  - String code
  +Parameter(code,description,designation,pcat)
}

class Company {
  -designation
  +getParameterCategoryStore()
  +getParameterStore()
}

class ParameterCategory {
  -String code
  -String description
  -String nhsID
}



class ParamCatMapper{
  +toDto(lpc)
}


class CreateParameterController {
  +boolean createParameter(code,designation,description,categoryId)
  +boolean saveParameter()
}

class CreateParameterUI {
}

CreateParameterUI ..> CreateParameterController
CreateParameterController ..> ParameterCategory
CreateParameterController ..> ParamCatMapper
CreateParameterController ..> Parameter
CreateParameterController ..> Company
Company ..> ParameterStore
Company ..> ParameterCategoryStore

Company "1" - - "*" Parameter : > capable of analysing
Company "1" - - "*" ParameterCategory : > adopts
ParameterCategory "1" - - "*" Parameter : < presented under



@enduml

PlantUML version 1.2021.2(Sun Mar 07 11:10:27 GMT 2021)
(GPL source distribution)
Java Runtime: OpenJDK Runtime Environment
JVM: OpenJDK 64-Bit Server VM
Default Encoding: Cp1252
Language: pt
Country: PT
--></g></svg>