<?xml version="1.0" encoding="UTF-8" standalone="no"?><svg xmlns="http://www.w3.org/2000/svg" xmlns:xlink="http://www.w3.org/1999/xlink" contentScriptType="application/ecmascript" contentStyleType="text/css" height="916.25px" preserveAspectRatio="none" style="width:1311px;height:916px;" version="1.1" viewBox="0 0 1311 916" width="1311.25px" zoomAndPan="magnify"><defs><filter height="300%" id="fso1zvqilfu11" width="300%" x="-1" y="-1"><feGaussianBlur result="blurOut" stdDeviation="2.5"/><feColorMatrix in="blurOut" result="blurOut2" type="matrix" values="0 0 0 0 0 0 0 0 0 0 0 0 0 0 0 0 0 0 .4 0"/><feOffset dx="5.0" dy="5.0" in="blurOut2" result="blurOut3"/><feBlend in="SourceGraphic" in2="blurOut3" mode="normal"/></filter></defs><g><!--MD5=[be7802b157a16874d39c59ca0e2b25be]
class ParameterStore--><rect codeLine="4" fill="#FEFECE" filter="url(#fso1zvqilfu11)" height="129.1797" id="ParameterStore" style="stroke:#A80036;stroke-width:1.875;" width="346.25" x="8.75" y="333.75"/><ellipse cx="122.1875" cy="353.75" fill="#ADD1B2" rx="13.75" ry="13.75" style="stroke:#A80036;stroke-width:1.25;"/><path d="M124.6875,349.375 Q124.9414,348.75 125.2344,348.4375 Q125.5273,348.125 125.8594,348.125 Q126.4453,348.125 126.8164,348.4766 Q127.1875,348.8281 127.1875,349.6484 L127.1875,351.6016 Q127.1875,352.4219 126.8359,352.7734 Q126.4844,353.125 125.9375,353.125 Q125.4492,353.125 125.1367,352.9102 Q124.8242,352.6953 124.6875,352.1289 Q124.6289,351.7383 124.4141,351.5234 Q124.0234,351.1133 123.3203,350.8789 Q122.6172,350.625 121.9141,350.625 Q121.0352,350.625 120.293,350.9766 Q119.5703,351.3281 119.0039,352.1094 Q118.4375,352.8906 118.4375,353.9648 L118.4375,355.1172 Q118.4375,356.4063 119.4922,357.2656 Q120.5469,358.125 122.4219,358.125 Q123.5352,358.125 124.3164,357.8711 Q124.7656,357.7344 125.2734,357.2852 Q125.6055,357.0313 125.7813,356.9531 Q125.957,356.875 126.1719,356.875 Q126.582,356.875 126.875,357.207 Q127.1875,357.5195 127.1875,357.9688 Q127.1875,358.3984 126.7578,358.9063 Q126.1328,359.6484 125.1367,360.0586 Q123.8281,360.625 122.2266,360.625 Q120.3516,360.625 118.8477,359.8828 Q117.6367,359.2969 116.7773,358.0273 Q115.9375,356.7578 115.9375,355.2539 L115.9375,353.8867 Q115.9375,352.3242 116.6797,350.957 Q117.4414,349.5898 118.75,348.8672 Q120.0781,348.125 121.5625,348.125 Q122.4609,348.125 123.2422,348.4375 Q124.0234,348.75 124.6875,349.375 Z " fill="#000000"/><text fill="#000000" font-family="sans-serif" font-size="15" lengthAdjust="spacing" textLength="108.75" x="147.8125" y="359.8877">ParameterStore</text><line style="stroke:#A80036;stroke-width:1.875;" x1="10" x2="353.75" y1="373.75" y2="373.75"/><line style="stroke:#A80036;stroke-width:1.875;" x1="10" x2="353.75" y1="383.75" y2="383.75"/><text fill="#000000" font-family="sans-serif" font-size="13.75" lengthAdjust="spacing" textLength="331.25" x="16.25" y="403.0237">+createParameter(code, designation, description, pcat)</text><text fill="#000000" font-family="sans-serif" font-size="13.75" lengthAdjust="spacing" textLength="170" x="16.25" y="420.3186">+saveParameter(parameter)</text><text fill="#000000" font-family="sans-serif" font-size="13.75" lengthAdjust="spacing" textLength="122.5" x="16.25" y="437.6135">-validate(parameter)</text><text fill="#000000" font-family="sans-serif" font-size="13.75" lengthAdjust="spacing" textLength="98.75" x="16.25" y="454.9084">-add(parameter)</text><!--MD5=[d802db621b5b215a6f0466f93cefcb42]
class ParameterCategoryStore--><rect codeLine="11" fill="#FEFECE" filter="url(#fso1zvqilfu11)" height="77.2949" id="ParameterCategoryStore" style="stroke:#A80036;stroke-width:1.875;" width="210" x="399.375" y="359.375"/><ellipse cx="418.125" cy="379.375" fill="#ADD1B2" rx="13.75" ry="13.75" style="stroke:#A80036;stroke-width:1.25;"/><path d="M420.625,375 Q420.8789,374.375 421.1719,374.0625 Q421.4648,373.75 421.7969,373.75 Q422.3828,373.75 422.7539,374.1016 Q423.125,374.4531 423.125,375.2734 L423.125,377.2266 Q423.125,378.0469 422.7734,378.3984 Q422.4219,378.75 421.875,378.75 Q421.3867,378.75 421.0742,378.5352 Q420.7617,378.3203 420.625,377.7539 Q420.5664,377.3633 420.3516,377.1484 Q419.9609,376.7383 419.2578,376.5039 Q418.5547,376.25 417.8516,376.25 Q416.9727,376.25 416.2305,376.6016 Q415.5078,376.9531 414.9414,377.7344 Q414.375,378.5156 414.375,379.5898 L414.375,380.7422 Q414.375,382.0313 415.4297,382.8906 Q416.4844,383.75 418.3594,383.75 Q419.4727,383.75 420.2539,383.4961 Q420.7031,383.3594 421.2109,382.9102 Q421.543,382.6563 421.7188,382.5781 Q421.8945,382.5 422.1094,382.5 Q422.5195,382.5 422.8125,382.832 Q423.125,383.1445 423.125,383.5938 Q423.125,384.0234 422.6953,384.5313 Q422.0703,385.2734 421.0742,385.6836 Q419.7656,386.25 418.1641,386.25 Q416.2891,386.25 414.7852,385.5078 Q413.5742,384.9219 412.7148,383.6523 Q411.875,382.3828 411.875,380.8789 L411.875,379.5117 Q411.875,377.9492 412.6172,376.582 Q413.3789,375.2148 414.6875,374.4922 Q416.0156,373.75 417.5,373.75 Q418.3984,373.75 419.1797,374.0625 Q419.9609,374.375 420.625,375 Z " fill="#000000"/><text fill="#000000" font-family="sans-serif" font-size="15" lengthAdjust="spacing" textLength="170" x="435.625" y="385.5127">ParameterCategoryStore</text><line style="stroke:#A80036;stroke-width:1.875;" x1="400.625" x2="608.125" y1="399.375" y2="399.375"/><line style="stroke:#A80036;stroke-width:1.875;" x1="400.625" x2="608.125" y1="409.375" y2="409.375"/><text fill="#000000" font-family="sans-serif" font-size="13.75" lengthAdjust="spacing" textLength="177.5" x="406.875" y="428.6487">+getAllParameterCategories()</text><!--MD5=[1f6362a5c8f21d8d6a0fce68f3a92a4e]
class Parameter--><rect codeLine="16" fill="#FEFECE" filter="url(#fso1zvqilfu11)" height="129.1797" id="Parameter" style="stroke:#A80036;stroke-width:1.875;" width="460" x="555.625" y="770"/><ellipse cx="744.0625" cy="790" fill="#ADD1B2" rx="13.75" ry="13.75" style="stroke:#A80036;stroke-width:1.25;"/><path d="M746.5625,785.625 Q746.8164,785 747.1094,784.6875 Q747.4023,784.375 747.7344,784.375 Q748.3203,784.375 748.6914,784.7266 Q749.0625,785.0781 749.0625,785.8984 L749.0625,787.8516 Q749.0625,788.6719 748.7109,789.0234 Q748.3594,789.375 747.8125,789.375 Q747.3242,789.375 747.0117,789.1602 Q746.6992,788.9453 746.5625,788.3789 Q746.5039,787.9883 746.2891,787.7734 Q745.8984,787.3633 745.1953,787.1289 Q744.4922,786.875 743.7891,786.875 Q742.9102,786.875 742.168,787.2266 Q741.4453,787.5781 740.8789,788.3594 Q740.3125,789.1406 740.3125,790.2148 L740.3125,791.3672 Q740.3125,792.6563 741.3672,793.5156 Q742.4219,794.375 744.2969,794.375 Q745.4102,794.375 746.1914,794.1211 Q746.6406,793.9844 747.1484,793.5352 Q747.4805,793.2813 747.6563,793.2031 Q747.832,793.125 748.0469,793.125 Q748.457,793.125 748.75,793.457 Q749.0625,793.7695 749.0625,794.2188 Q749.0625,794.6484 748.6328,795.1563 Q748.0078,795.8984 747.0117,796.3086 Q745.7031,796.875 744.1016,796.875 Q742.2266,796.875 740.7227,796.1328 Q739.5117,795.5469 738.6523,794.2773 Q737.8125,793.0078 737.8125,791.5039 L737.8125,790.1367 Q737.8125,788.5742 738.5547,787.207 Q739.3164,785.8398 740.625,785.1172 Q741.9531,784.375 743.4375,784.375 Q744.3359,784.375 745.1172,784.6875 Q745.8984,785 746.5625,785.625 Z " fill="#000000"/><text fill="#000000" font-family="sans-serif" font-size="15" lengthAdjust="spacing" textLength="72.5" x="769.6875" y="796.1377">Parameter</text><line style="stroke:#A80036;stroke-width:1.875;" x1="556.875" x2="1014.375" y1="810" y2="810"/><text fill="#000000" font-family="sans-serif" font-size="13.75" lengthAdjust="spacing" textLength="112.5" x="563.125" y="829.2737">-String designation</text><text fill="#000000" font-family="sans-serif" font-size="13.75" lengthAdjust="spacing" textLength="110" x="563.125" y="846.5686">-String description</text><text fill="#000000" font-family="sans-serif" font-size="13.75" lengthAdjust="spacing" textLength="73.75" x="563.125" y="863.8635">-String code</text><line style="stroke:#A80036;stroke-width:1.875;" x1="556.875" x2="1014.375" y1="871.8848" y2="871.8848"/><text fill="#000000" font-family="sans-serif" font-size="13.75" lengthAdjust="spacing" textLength="445" x="563.125" y="891.1584">+Parameter(ref,designation,informalDesc,technicalDesc,duration,cost,cat)</text><!--MD5=[02e4b9b7573f1156f41e60aa5b4e25a4]
class Company--><rect codeLine="23" fill="#FEFECE" filter="url(#fso1zvqilfu11)" height="129.1797" id="Company" style="stroke:#A80036;stroke-width:1.875;" width="257.5" x="741.875" y="333.75"/><ellipse cx="832.1875" cy="353.75" fill="#ADD1B2" rx="13.75" ry="13.75" style="stroke:#A80036;stroke-width:1.25;"/><path d="M834.6875,349.375 Q834.9414,348.75 835.2344,348.4375 Q835.5273,348.125 835.8594,348.125 Q836.4453,348.125 836.8164,348.4766 Q837.1875,348.8281 837.1875,349.6484 L837.1875,351.6016 Q837.1875,352.4219 836.8359,352.7734 Q836.4844,353.125 835.9375,353.125 Q835.4492,353.125 835.1367,352.9102 Q834.8242,352.6953 834.6875,352.1289 Q834.6289,351.7383 834.4141,351.5234 Q834.0234,351.1133 833.3203,350.8789 Q832.6172,350.625 831.9141,350.625 Q831.0352,350.625 830.293,350.9766 Q829.5703,351.3281 829.0039,352.1094 Q828.4375,352.8906 828.4375,353.9648 L828.4375,355.1172 Q828.4375,356.4063 829.4922,357.2656 Q830.5469,358.125 832.4219,358.125 Q833.5352,358.125 834.3164,357.8711 Q834.7656,357.7344 835.2734,357.2852 Q835.6055,357.0313 835.7813,356.9531 Q835.957,356.875 836.1719,356.875 Q836.582,356.875 836.875,357.207 Q837.1875,357.5195 837.1875,357.9688 Q837.1875,358.3984 836.7578,358.9063 Q836.1328,359.6484 835.1367,360.0586 Q833.8281,360.625 832.2266,360.625 Q830.3516,360.625 828.8477,359.8828 Q827.6367,359.2969 826.7773,358.0273 Q825.9375,356.7578 825.9375,355.2539 L825.9375,353.8867 Q825.9375,352.3242 826.6797,350.957 Q827.4414,349.5898 828.75,348.8672 Q830.0781,348.125 831.5625,348.125 Q832.4609,348.125 833.2422,348.4375 Q834.0234,348.75 834.6875,349.375 Z " fill="#000000"/><text fill="#000000" font-family="sans-serif" font-size="15" lengthAdjust="spacing" textLength="66.25" x="857.8125" y="359.8877">Company</text><line style="stroke:#A80036;stroke-width:1.875;" x1="743.125" x2="998.125" y1="373.75" y2="373.75"/><text fill="#000000" font-family="sans-serif" font-size="13.75" lengthAdjust="spacing" textLength="73.75" x="749.375" y="393.0237">-designation</text><line style="stroke:#A80036;stroke-width:1.875;" x1="743.125" x2="998.125" y1="401.0449" y2="401.0449"/><text fill="#000000" font-family="sans-serif" font-size="13.75" lengthAdjust="spacing" textLength="185" x="749.375" y="420.3186">+getParameterCategoryStore()</text><text fill="#000000" font-family="sans-serif" font-size="13.75" lengthAdjust="spacing" textLength="242.5" x="749.375" y="437.6135">+getParameterCategoryById(categoryId)</text><text fill="#000000" font-family="sans-serif" font-size="13.75" lengthAdjust="spacing" textLength="130" x="749.375" y="454.9084">+getParameterStore()</text><!--MD5=[36afb6bbd95a8ac778c4537c55a683d5]
class ParameterCategory--><rect codeLine="30" fill="#FEFECE" filter="url(#fso1zvqilfu11)" height="111.8848" id="ParameterCategory" style="stroke:#A80036;stroke-width:1.875;" width="173.75" x="996.25" y="560"/><ellipse cx="1015" cy="580" fill="#ADD1B2" rx="13.75" ry="13.75" style="stroke:#A80036;stroke-width:1.25;"/><path d="M1017.5,575.625 Q1017.7539,575 1018.0469,574.6875 Q1018.3398,574.375 1018.6719,574.375 Q1019.2578,574.375 1019.6289,574.7266 Q1020,575.0781 1020,575.8984 L1020,577.8516 Q1020,578.6719 1019.6484,579.0234 Q1019.2969,579.375 1018.75,579.375 Q1018.2617,579.375 1017.9492,579.1602 Q1017.6367,578.9453 1017.5,578.3789 Q1017.4414,577.9883 1017.2266,577.7734 Q1016.8359,577.3633 1016.1328,577.1289 Q1015.4297,576.875 1014.7266,576.875 Q1013.8477,576.875 1013.1055,577.2266 Q1012.3828,577.5781 1011.8164,578.3594 Q1011.25,579.1406 1011.25,580.2148 L1011.25,581.3672 Q1011.25,582.6563 1012.3047,583.5156 Q1013.3594,584.375 1015.2344,584.375 Q1016.3477,584.375 1017.1289,584.1211 Q1017.5781,583.9844 1018.0859,583.5352 Q1018.418,583.2813 1018.5938,583.2031 Q1018.7695,583.125 1018.9844,583.125 Q1019.3945,583.125 1019.6875,583.457 Q1020,583.7695 1020,584.2188 Q1020,584.6484 1019.5703,585.1563 Q1018.9453,585.8984 1017.9492,586.3086 Q1016.6406,586.875 1015.0391,586.875 Q1013.1641,586.875 1011.6602,586.1328 Q1010.4492,585.5469 1009.5898,584.2773 Q1008.75,583.0078 1008.75,581.5039 L1008.75,580.1367 Q1008.75,578.5742 1009.4922,577.207 Q1010.2539,575.8398 1011.5625,575.1172 Q1012.8906,574.375 1014.375,574.375 Q1015.2734,574.375 1016.0547,574.6875 Q1016.8359,575 1017.5,575.625 Z " fill="#000000"/><text fill="#000000" font-family="sans-serif" font-size="15" lengthAdjust="spacing" textLength="133.75" x="1032.5" y="586.1377">ParameterCategory</text><line style="stroke:#A80036;stroke-width:1.875;" x1="997.5" x2="1168.75" y1="600" y2="600"/><text fill="#000000" font-family="sans-serif" font-size="13.75" lengthAdjust="spacing" textLength="73.75" x="1003.75" y="619.2737">-String code</text><text fill="#000000" font-family="sans-serif" font-size="13.75" lengthAdjust="spacing" textLength="110" x="1003.75" y="636.5686">-String description</text><text fill="#000000" font-family="sans-serif" font-size="13.75" lengthAdjust="spacing" textLength="77.5" x="1003.75" y="653.8635">-String nhsID</text><line style="stroke:#A80036;stroke-width:1.875;" x1="997.5" x2="1168.75" y1="661.8848" y2="661.8848"/><!--MD5=[cd10c2711fd317744b70308b24796eef]
class ParamCatMapper--><rect codeLine="38" fill="#FEFECE" filter="url(#fso1zvqilfu11)" height="77.2949" id="ParamCatMapper" style="stroke:#A80036;stroke-width:1.875;" width="161.25" x="1132.5" y="359.375"/><ellipse cx="1151.25" cy="379.375" fill="#ADD1B2" rx="13.75" ry="13.75" style="stroke:#A80036;stroke-width:1.25;"/><path d="M1153.75,375 Q1154.0039,374.375 1154.2969,374.0625 Q1154.5898,373.75 1154.9219,373.75 Q1155.5078,373.75 1155.8789,374.1016 Q1156.25,374.4531 1156.25,375.2734 L1156.25,377.2266 Q1156.25,378.0469 1155.8984,378.3984 Q1155.5469,378.75 1155,378.75 Q1154.5117,378.75 1154.1992,378.5352 Q1153.8867,378.3203 1153.75,377.7539 Q1153.6914,377.3633 1153.4766,377.1484 Q1153.0859,376.7383 1152.3828,376.5039 Q1151.6797,376.25 1150.9766,376.25 Q1150.0977,376.25 1149.3555,376.6016 Q1148.6328,376.9531 1148.0664,377.7344 Q1147.5,378.5156 1147.5,379.5898 L1147.5,380.7422 Q1147.5,382.0313 1148.5547,382.8906 Q1149.6094,383.75 1151.4844,383.75 Q1152.5977,383.75 1153.3789,383.4961 Q1153.8281,383.3594 1154.3359,382.9102 Q1154.668,382.6563 1154.8438,382.5781 Q1155.0195,382.5 1155.2344,382.5 Q1155.6445,382.5 1155.9375,382.832 Q1156.25,383.1445 1156.25,383.5938 Q1156.25,384.0234 1155.8203,384.5313 Q1155.1953,385.2734 1154.1992,385.6836 Q1152.8906,386.25 1151.2891,386.25 Q1149.4141,386.25 1147.9102,385.5078 Q1146.6992,384.9219 1145.8398,383.6523 Q1145,382.3828 1145,380.8789 L1145,379.5117 Q1145,377.9492 1145.7422,376.582 Q1146.5039,375.2148 1147.8125,374.4922 Q1149.1406,373.75 1150.625,373.75 Q1151.5234,373.75 1152.3047,374.0625 Q1153.0859,374.375 1153.75,375 Z " fill="#000000"/><text fill="#000000" font-family="sans-serif" font-size="15" lengthAdjust="spacing" textLength="121.25" x="1168.75" y="385.5127">ParamCatMapper</text><line style="stroke:#A80036;stroke-width:1.875;" x1="1133.75" x2="1292.5" y1="399.375" y2="399.375"/><line style="stroke:#A80036;stroke-width:1.875;" x1="1133.75" x2="1292.5" y1="409.375" y2="409.375"/><text fill="#000000" font-family="sans-serif" font-size="13.75" lengthAdjust="spacing" textLength="72.5" x="1140" y="428.6487">+toDTO(lpc)</text><!--MD5=[b9009a04d919d78a73c2eeec1e385786]
class CreateParameterController--><rect codeLine="43" fill="#FEFECE" filter="url(#fso1zvqilfu11)" height="111.8848" id="CreateParameterController" style="stroke:#A80036;stroke-width:1.875;" width="372.5" x="550.625" y="145"/><ellipse cx="638.4375" cy="165" fill="#ADD1B2" rx="13.75" ry="13.75" style="stroke:#A80036;stroke-width:1.25;"/><path d="M640.9375,160.625 Q641.1914,160 641.4844,159.6875 Q641.7773,159.375 642.1094,159.375 Q642.6953,159.375 643.0664,159.7266 Q643.4375,160.0781 643.4375,160.8984 L643.4375,162.8516 Q643.4375,163.6719 643.0859,164.0234 Q642.7344,164.375 642.1875,164.375 Q641.6992,164.375 641.3867,164.1602 Q641.0742,163.9453 640.9375,163.3789 Q640.8789,162.9883 640.6641,162.7734 Q640.2734,162.3633 639.5703,162.1289 Q638.8672,161.875 638.1641,161.875 Q637.2852,161.875 636.543,162.2266 Q635.8203,162.5781 635.2539,163.3594 Q634.6875,164.1406 634.6875,165.2148 L634.6875,166.3672 Q634.6875,167.6563 635.7422,168.5156 Q636.7969,169.375 638.6719,169.375 Q639.7852,169.375 640.5664,169.1211 Q641.0156,168.9844 641.5234,168.5352 Q641.8555,168.2813 642.0313,168.2031 Q642.207,168.125 642.4219,168.125 Q642.832,168.125 643.125,168.457 Q643.4375,168.7695 643.4375,169.2188 Q643.4375,169.6484 643.0078,170.1563 Q642.3828,170.8984 641.3867,171.3086 Q640.0781,171.875 638.4766,171.875 Q636.6016,171.875 635.0977,171.1328 Q633.8867,170.5469 633.0273,169.2773 Q632.1875,168.0078 632.1875,166.5039 L632.1875,165.1367 Q632.1875,163.5742 632.9297,162.207 Q633.6914,160.8398 635,160.1172 Q636.3281,159.375 637.8125,159.375 Q638.7109,159.375 639.4922,159.6875 Q640.2734,160 640.9375,160.625 Z " fill="#000000"/><text fill="#000000" font-family="sans-serif" font-size="15" lengthAdjust="spacing" textLength="186.25" x="664.0625" y="171.1377">CreateParameterController</text><line style="stroke:#A80036;stroke-width:1.875;" x1="551.875" x2="921.875" y1="185" y2="185"/><line style="stroke:#A80036;stroke-width:1.875;" x1="551.875" x2="921.875" y1="195" y2="195"/><text fill="#000000" font-family="sans-serif" font-size="13.75" lengthAdjust="spacing" textLength="162.5" x="558.125" y="214.2737">+getParameterCategories()</text><text fill="#000000" font-family="sans-serif" font-size="13.75" lengthAdjust="spacing" textLength="357.5" x="558.125" y="231.5686">+createParameter(code,designation,description,categoryId)</text><text fill="#000000" font-family="sans-serif" font-size="13.75" lengthAdjust="spacing" textLength="108.75" x="558.125" y="248.8635">+saveParameter()</text><!--MD5=[5518e6815e09c51d4db6e17774f331d2]
class CreateParameterUI--><rect codeLine="49" fill="#FEFECE" filter="url(#fso1zvqilfu11)" height="60" id="CreateParameterUI" style="stroke:#A80036;stroke-width:1.875;" width="173.75" x="650" y="8.75"/><ellipse cx="668.75" cy="28.75" fill="#ADD1B2" rx="13.75" ry="13.75" style="stroke:#A80036;stroke-width:1.25;"/><path d="M671.25,24.375 Q671.5039,23.75 671.7969,23.4375 Q672.0898,23.125 672.4219,23.125 Q673.0078,23.125 673.3789,23.4766 Q673.75,23.8281 673.75,24.6484 L673.75,26.6016 Q673.75,27.4219 673.3984,27.7734 Q673.0469,28.125 672.5,28.125 Q672.0117,28.125 671.6992,27.9102 Q671.3867,27.6953 671.25,27.1289 Q671.1914,26.7383 670.9766,26.5234 Q670.5859,26.1133 669.8828,25.8789 Q669.1797,25.625 668.4766,25.625 Q667.5977,25.625 666.8555,25.9766 Q666.1328,26.3281 665.5664,27.1094 Q665,27.8906 665,28.9648 L665,30.1172 Q665,31.4063 666.0547,32.2656 Q667.1094,33.125 668.9844,33.125 Q670.0977,33.125 670.8789,32.8711 Q671.3281,32.7344 671.8359,32.2852 Q672.168,32.0313 672.3438,31.9531 Q672.5195,31.875 672.7344,31.875 Q673.1445,31.875 673.4375,32.207 Q673.75,32.5195 673.75,32.9688 Q673.75,33.3984 673.3203,33.9063 Q672.6953,34.6484 671.6992,35.0586 Q670.3906,35.625 668.7891,35.625 Q666.9141,35.625 665.4102,34.8828 Q664.1992,34.2969 663.3398,33.0273 Q662.5,31.7578 662.5,30.2539 L662.5,28.8867 Q662.5,27.3242 663.2422,25.957 Q664.0039,24.5898 665.3125,23.8672 Q666.6406,23.125 668.125,23.125 Q669.0234,23.125 669.8047,23.4375 Q670.5859,23.75 671.25,24.375 Z " fill="#000000"/><text fill="#000000" font-family="sans-serif" font-size="15" lengthAdjust="spacing" textLength="133.75" x="686.25" y="34.8877">CreateParameterUI</text><line style="stroke:#A80036;stroke-width:1.875;" x1="651.25" x2="822.5" y1="48.75" y2="48.75"/><line style="stroke:#A80036;stroke-width:1.875;" x1="651.25" x2="822.5" y1="58.75" y2="58.75"/><!--MD5=[9d3dd688f78c4545f26622cd23f9dd25]
link CreateParameterUI to CreateParameterController--><path codeLine="52" d="M736.875,68.975 C736.875,88.2375 736.875,114.275 736.875,138.0625 " fill="none" id="CreateParameterUI-to-CreateParameterController" style="stroke:#A80036;stroke-width:1.25;stroke-dasharray:7.0,7.0;"/><polygon fill="#A80036" points="736.875,144.7,741.875,133.45,736.875,138.45,731.875,133.45,736.875,144.7" style="stroke:#A80036;stroke-width:1.25;"/><!--MD5=[094e4a14e6ba8aeac9d4213c7f104300]
link CreateParameterController to ParameterCategory--><path codeLine="53" d="M922.2375,257.675 C959.825,276.475 995.775,301.2625 1021.875,333.75 C1072.2625,396.4625 1083.5,491.5125 1084.9,553.4375 " fill="none" id="CreateParameterController-to-ParameterCategory" style="stroke:#A80036;stroke-width:1.25;stroke-dasharray:7.0,7.0;"/><polygon fill="#A80036" points="1085.0125,559.6875,1089.7865,548.3398,1084.8875,553.4387,1079.7885,548.5397,1085.0125,559.6875" style="stroke:#A80036;stroke-width:1.25;"/><!--MD5=[e9255c887ec25c48e1146f7528d7037a]
link CreateParameterController to ParamCatMapper--><path codeLine="54" d="M923.1875,232.475 C981.3875,246.425 1044.3625,266.475 1098.125,295 C1126.6,310.1125 1153.825,333.6625 1174.625,354.3125 " fill="none" id="CreateParameterController-to-ParamCatMapper" style="stroke:#A80036;stroke-width:1.25;stroke-dasharray:7.0,7.0;"/><polygon fill="#A80036" points="1179.2375,358.9375,1174.8413,347.4381,1174.827,354.5092,1167.756,354.4949,1179.2375,358.9375" style="stroke:#A80036;stroke-width:1.25;"/><!--MD5=[c56d23af98be554523068ac4fbdb568e]
link CreateParameterController to Parameter--><path codeLine="55" d="M727.875,257.575 C724.4875,280.9875 721.0375,308.6375 719.375,333.75 C715.5875,390.85 714.325,405.5 719.375,462.5 C728.775,568.575 753.05,689.75 769.45,763.8375 " fill="none" id="CreateParameterController-to-Parameter" style="stroke:#A80036;stroke-width:1.25;stroke-dasharray:7.0,7.0;"/><polygon fill="#A80036" points="770.8125,769.975,773.2792,757.9136,769.47,763.8709,763.5126,760.0617,770.8125,769.975" style="stroke:#A80036;stroke-width:1.25;"/><!--MD5=[6d585fb02c26694275539b4f1508918e]
link CreateParameterController to Company--><path codeLine="56" d="M774.85,257.675 C790,279.7 807.6,305.275 823.55,328.45 " fill="none" id="CreateParameterController-to-Company" style="stroke:#A80036;stroke-width:1.25;stroke-dasharray:7.0,7.0;"/><polygon fill="#A80036" points="827.1375,333.675,824.8843,321.5719,823.5967,328.5247,816.6438,327.2372,827.1375,333.675" style="stroke:#A80036;stroke-width:1.25;"/><!--MD5=[46706d5726812879537e05899d80bc9e]
link CreateParameterController to ParameterStore--><path codeLine="57" d="M579.6875,257.55 C511.575,281.4125 431.4625,309.4625 361.05,334.125 " fill="none" id="CreateParameterController-to-ParameterStore" style="stroke:#A80036;stroke-width:1.25;stroke-dasharray:7.0,7.0;"/><polygon fill="#A80036" points="355.1375,336.2,367.409,337.1863,361.0338,334.1274,364.0928,327.7522,355.1375,336.2" style="stroke:#A80036;stroke-width:1.25;"/><!--MD5=[d4acd0f9b6f472dc8c1d58fc6da00ca5]
link CreateParameterController to ParameterCategoryStore--><path codeLine="58" d="M670.875,257.675 C633.8875,288.6 588.5125,326.5375 554.475,354.9875 " fill="none" id="CreateParameterController-to-ParameterCategoryStore" style="stroke:#A80036;stroke-width:1.25;stroke-dasharray:7.0,7.0;"/><polygon fill="#A80036" points="549.5375,359.125,561.3685,355.7207,554.3242,355.1063,554.9386,348.062,549.5375,359.125" style="stroke:#A80036;stroke-width:1.25;"/><!--MD5=[12d76240d3c3c66074d4ec2ea8bf469c]
link Company to Parameter--><path codeLine="60" d="M841.1875,462.5125 C828.9125,491.5875 815.7625,526.9 808.125,560 C791.825,630.7 786.9625,714.0875 785.6875,769.9625 " fill="none" id="Company-Parameter" style="stroke:#A80036;stroke-width:1.25;"/><polygon fill="#000000" points="813.2647,622.6203,818.8885,612.1464,811.658,610.8412,813.2647,622.6203" style="stroke:#000000;stroke-width:1.25;"/><text fill="#000000" font-family="sans-serif" font-size="16.25" lengthAdjust="spacing" textLength="147.5" x="825.625" y="623.1189">capable of analysing</text><text fill="#000000" font-family="sans-serif" font-size="16.25" lengthAdjust="spacing" textLength="8.75" x="827.6826" y="489.8428">1</text><text fill="#000000" font-family="sans-serif" font-size="16.25" lengthAdjust="spacing" textLength="6.25" x="779.0068" y="756.3678">*</text><!--MD5=[93b4f25fb503a8e0e9a46b1d30ff3f44]
link Company to ParameterCategory--><path codeLine="61" d="M914.675,462.5875 C929.8375,482.625 947.575,504.275 965.625,522.5 C978.4125,535.4125 992.9875,548.175 1007.425,559.9125 " fill="none" id="Company-ParameterCategory" style="stroke:#A80036;stroke-width:1.25;"/><polygon fill="#000000" points="976.1868,515.9942,971.0461,505.2749,965.7273,510.3438,976.1868,515.9942" style="stroke:#000000;stroke-width:1.25;"/><text fill="#000000" font-family="sans-serif" font-size="16.25" lengthAdjust="spacing" textLength="48.75" x="983.125" y="518.1189">adopts</text><text fill="#000000" font-family="sans-serif" font-size="16.25" lengthAdjust="spacing" textLength="8.75" x="911.5043" y="489.9284">1</text><text fill="#000000" font-family="sans-serif" font-size="16.25" lengthAdjust="spacing" textLength="6.25" x="988.6123" y="546.2929">*</text><!--MD5=[7a9e3e328fb1db48284e23a673c1e60d]
link ParameterCategory to Parameter--><path codeLine="62" d="M1006.9,672.75 C966.1,702.325 915.6625,738.875 873.2375,769.625 " fill="none" id="ParameterCategory-Parameter" style="stroke:#A80036;stroke-width:1.25;"/><polygon fill="#000000" points="964.4356,717.8019,953.125,721.4625,957.4368,727.4116,964.4356,717.8019" style="stroke:#000000;stroke-width:1.25;"/><text fill="#000000" font-family="sans-serif" font-size="16.25" lengthAdjust="spacing" textLength="116.25" x="970.625" y="728.1189">presented under</text><text fill="#000000" font-family="sans-serif" font-size="16.25" lengthAdjust="spacing" textLength="8.75" x="987.3194" y="698.6257">1</text><text fill="#000000" font-family="sans-serif" font-size="16.25" lengthAdjust="spacing" textLength="6.25" x="878.3405" y="756.45">*</text><!--MD5=[1c8d80d1bea22cb4d2449e81a9d3642c]
@startuml
skinparam classAttributeIconSize 0


class ParameterStore{
  +createParameter(code, designation, description, pcat)
  +saveParameter(parameter)
  -validate(parameter)
  -add(parameter)
}

class ParameterCategoryStore{
  +getAllParameterCategories()
}


class Parameter {
  - String designation
  - String description
  - String code
  +Parameter(ref,designation,informalDesc,technicalDesc,duration,cost,cat)
}

class Company {
  -designation
  +getParameterCategoryStore()
  +getParameterCategoryById(categoryId)
  +getParameterStore()
}

class ParameterCategory {
  -String code
  -String description
  -String nhsID
}



class ParamCatMapper{
  +toDTO(lpc)
}


class CreateParameterController {
  +getParameterCategories()
  +createParameter(code,designation,description,categoryId)
  +saveParameter()
}

class CreateParameterUI {
}

CreateParameterUI ..> CreateParameterController
CreateParameterController ..> ParameterCategory
CreateParameterController ..> ParamCatMapper
CreateParameterController ..> Parameter
CreateParameterController ..> Company
CreateParameterController ..> ParameterStore
CreateParameterController ..> ParameterCategoryStore

Company "1" - - "*" Parameter : > capable of analysing
Company "1" - - "*" ParameterCategory : > adopts
ParameterCategory "1" - - "*" Parameter : < presented under



@enduml

PlantUML version 1.2021.2(Sun Mar 07 11:10:27 GMT 2021)
(GPL source distribution)
Java Runtime: OpenJDK Runtime Environment
JVM: OpenJDK 64-Bit Server VM
Default Encoding: Cp1252
Language: pt
Country: PT
--></g></svg>