<?xml version="1.0" encoding="UTF-8" standalone="no"?><svg xmlns="http://www.w3.org/2000/svg" xmlns:xlink="http://www.w3.org/1999/xlink" contentScriptType="application/ecmascript" contentStyleType="text/css" height="788px" preserveAspectRatio="none" style="width:1191px;height:788px;" version="1.1" viewBox="0 0 1191 788" width="1191px" zoomAndPan="magnify"><defs><filter height="300%" id="f1q2qbfl6h1b8y" width="300%" x="-1" y="-1"><feGaussianBlur result="blurOut" stdDeviation="2.0"/><feColorMatrix in="blurOut" result="blurOut2" type="matrix" values="0 0 0 0 0 0 0 0 0 0 0 0 0 0 0 0 0 0 .4 0"/><feOffset dx="4.0" dy="4.0" in="blurOut2" result="blurOut3"/><feBlend in="SourceGraphic" in2="blurOut3" mode="normal"/></filter></defs><g><!--MD5=[be7802b157a16874d39c59ca0e2b25be]
class ParameterStore--><rect codeLine="4" fill="#FEFECE" filter="url(#f1q2qbfl6h1b8y)" height="117.1797" id="ParameterStore" style="stroke:#A80036;stroke-width:1.5;" width="329" x="57" y="476"/><ellipse cx="173.75" cy="492" fill="#ADD1B2" rx="11" ry="11" style="stroke:#A80036;stroke-width:1.0;"/><path d="M175.75,488.5 Q175.9531,488 176.1875,487.75 Q176.4219,487.5 176.6875,487.5 Q177.1563,487.5 177.4531,487.7813 Q177.75,488.0625 177.75,488.7188 L177.75,490.2813 Q177.75,490.9375 177.4688,491.2188 Q177.1875,491.5 176.75,491.5 Q176.3594,491.5 176.1094,491.3281 Q175.8594,491.1563 175.75,490.7031 Q175.7031,490.3906 175.5313,490.2188 Q175.2188,489.8906 174.6563,489.7031 Q174.0938,489.5 173.5313,489.5 Q172.8281,489.5 172.2344,489.7813 Q171.6563,490.0625 171.2031,490.6875 Q170.75,491.3125 170.75,492.1719 L170.75,493.0938 Q170.75,494.125 171.5938,494.8125 Q172.4375,495.5 173.9375,495.5 Q174.8281,495.5 175.4531,495.2969 Q175.8125,495.1875 176.2188,494.8281 Q176.4844,494.625 176.625,494.5625 Q176.7656,494.5 176.9375,494.5 Q177.2656,494.5 177.5,494.7656 Q177.75,495.0156 177.75,495.375 Q177.75,495.7188 177.4063,496.125 Q176.9063,496.7188 176.1094,497.0469 Q175.0625,497.5 173.7813,497.5 Q172.2813,497.5 171.0781,496.9063 Q170.1094,496.4375 169.4219,495.4219 Q168.75,494.4063 168.75,493.2031 L168.75,492.1094 Q168.75,490.8594 169.3438,489.7656 Q169.9531,488.6719 171,488.0938 Q172.0625,487.5 173.25,487.5 Q173.9688,487.5 174.5938,487.75 Q175.2188,488 175.75,488.5 Z " fill="#000000"/><text fill="#000000" font-family="sans-serif" font-size="12" lengthAdjust="spacing" textLength="87" x="194.25" y="496.9102">ParameterStore</text><line style="stroke:#A80036;stroke-width:1.5;" x1="58" x2="385" y1="508" y2="508"/><line style="stroke:#A80036;stroke-width:1.5;" x1="58" x2="385" y1="516" y2="516"/><text fill="#000000" font-family="sans-serif" font-size="11" lengthAdjust="spacing" textLength="317" x="63" y="531.4189">+Parameter createParameter(code, designation, description, pcat)</text><text fill="#000000" font-family="sans-serif" font-size="11" lengthAdjust="spacing" textLength="177" x="63" y="545.2549">+boolean saveParameter(parameter)</text><text fill="#000000" font-family="sans-serif" font-size="11" lengthAdjust="spacing" textLength="139" x="63" y="559.0908">-boolean validate(parameter)</text><text fill="#000000" font-family="sans-serif" font-size="11" lengthAdjust="spacing" textLength="120" x="63" y="572.9268">-boolean add(parameter)</text><text fill="#000000" font-family="sans-serif" font-size="11" lengthAdjust="spacing" textLength="180" x="63" y="586.7627">+List &lt;Parameter&gt; getAllParameters()</text><!--MD5=[d802db621b5b215a6f0466f93cefcb42]
class ParameterCategoryStore--><rect codeLine="12" fill="#FEFECE" filter="url(#f1q2qbfl6h1b8y)" height="75.6719" id="ParameterCategoryStore" style="stroke:#A80036;stroke-width:1.5;" width="292" x="421.5" y="496.5"/><ellipse cx="495.25" cy="512.5" fill="#ADD1B2" rx="11" ry="11" style="stroke:#A80036;stroke-width:1.0;"/><path d="M497.25,509 Q497.4531,508.5 497.6875,508.25 Q497.9219,508 498.1875,508 Q498.6563,508 498.9531,508.2813 Q499.25,508.5625 499.25,509.2188 L499.25,510.7813 Q499.25,511.4375 498.9688,511.7188 Q498.6875,512 498.25,512 Q497.8594,512 497.6094,511.8281 Q497.3594,511.6563 497.25,511.2031 Q497.2031,510.8906 497.0313,510.7188 Q496.7188,510.3906 496.1563,510.2031 Q495.5938,510 495.0313,510 Q494.3281,510 493.7344,510.2813 Q493.1563,510.5625 492.7031,511.1875 Q492.25,511.8125 492.25,512.6719 L492.25,513.5938 Q492.25,514.625 493.0938,515.3125 Q493.9375,516 495.4375,516 Q496.3281,516 496.9531,515.7969 Q497.3125,515.6875 497.7188,515.3281 Q497.9844,515.125 498.125,515.0625 Q498.2656,515 498.4375,515 Q498.7656,515 499,515.2656 Q499.25,515.5156 499.25,515.875 Q499.25,516.2188 498.9063,516.625 Q498.4063,517.2188 497.6094,517.5469 Q496.5625,518 495.2813,518 Q493.7813,518 492.5781,517.4063 Q491.6094,516.9375 490.9219,515.9219 Q490.25,514.9063 490.25,513.7031 L490.25,512.6094 Q490.25,511.3594 490.8438,510.2656 Q491.4531,509.1719 492.5,508.5938 Q493.5625,508 494.75,508 Q495.4688,508 496.0938,508.25 Q496.7188,508.5 497.25,509 Z " fill="#000000"/><text fill="#000000" font-family="sans-serif" font-size="12" lengthAdjust="spacing" textLength="136" x="515.75" y="517.4102">ParameterCategoryStore</text><line style="stroke:#A80036;stroke-width:1.5;" x1="422.5" x2="712.5" y1="528.5" y2="528.5"/><line style="stroke:#A80036;stroke-width:1.5;" x1="422.5" x2="712.5" y1="536.5" y2="536.5"/><text fill="#000000" font-family="sans-serif" font-size="11" lengthAdjust="spacing" textLength="270" x="427.5" y="551.9189">+List &lt;ParameterCategory&gt; getAllParameterCategories()</text><text fill="#000000" font-family="sans-serif" font-size="11" lengthAdjust="spacing" textLength="280" x="427.5" y="565.7549">+ParameterCategory getParameterCategoryByCode(code)</text><!--MD5=[1f6362a5c8f21d8d6a0fce68f3a92a4e]
class Parameter--><rect codeLine="18" fill="#FEFECE" filter="url(#f1q2qbfl6h1b8y)" height="103.3438" id="Parameter" style="stroke:#A80036;stroke-width:1.5;" width="237" x="665" y="671"/><ellipse cx="750.25" cy="687" fill="#ADD1B2" rx="11" ry="11" style="stroke:#A80036;stroke-width:1.0;"/><path d="M752.25,683.5 Q752.4531,683 752.6875,682.75 Q752.9219,682.5 753.1875,682.5 Q753.6563,682.5 753.9531,682.7813 Q754.25,683.0625 754.25,683.7188 L754.25,685.2813 Q754.25,685.9375 753.9688,686.2188 Q753.6875,686.5 753.25,686.5 Q752.8594,686.5 752.6094,686.3281 Q752.3594,686.1563 752.25,685.7031 Q752.2031,685.3906 752.0313,685.2188 Q751.7188,684.8906 751.1563,684.7031 Q750.5938,684.5 750.0313,684.5 Q749.3281,684.5 748.7344,684.7813 Q748.1563,685.0625 747.7031,685.6875 Q747.25,686.3125 747.25,687.1719 L747.25,688.0938 Q747.25,689.125 748.0938,689.8125 Q748.9375,690.5 750.4375,690.5 Q751.3281,690.5 751.9531,690.2969 Q752.3125,690.1875 752.7188,689.8281 Q752.9844,689.625 753.125,689.5625 Q753.2656,689.5 753.4375,689.5 Q753.7656,689.5 754,689.7656 Q754.25,690.0156 754.25,690.375 Q754.25,690.7188 753.9063,691.125 Q753.4063,691.7188 752.6094,692.0469 Q751.5625,692.5 750.2813,692.5 Q748.7813,692.5 747.5781,691.9063 Q746.6094,691.4375 745.9219,690.4219 Q745.25,689.4063 745.25,688.2031 L745.25,687.1094 Q745.25,685.8594 745.8438,684.7656 Q746.4531,683.6719 747.5,683.0938 Q748.5625,682.5 749.75,682.5 Q750.4688,682.5 751.0938,682.75 Q751.7188,683 752.25,683.5 Z " fill="#000000"/><text fill="#000000" font-family="sans-serif" font-size="12" lengthAdjust="spacing" textLength="58" x="770.75" y="691.9102">Parameter</text><line style="stroke:#A80036;stroke-width:1.5;" x1="666" x2="901" y1="703" y2="703"/><text fill="#000000" font-family="sans-serif" font-size="11" lengthAdjust="spacing" textLength="90" x="671" y="718.4189">-String designation</text><text fill="#000000" font-family="sans-serif" font-size="11" lengthAdjust="spacing" textLength="88" x="671" y="732.2549">-String description</text><text fill="#000000" font-family="sans-serif" font-size="11" lengthAdjust="spacing" textLength="59" x="671" y="746.0908">-String code</text><line style="stroke:#A80036;stroke-width:1.5;" x1="666" x2="901" y1="752.5078" y2="752.5078"/><text fill="#000000" font-family="sans-serif" font-size="11" lengthAdjust="spacing" textLength="225" x="671" y="767.9268">+Parameter(code,description,designation,pcat)</text><!--MD5=[02e4b9b7573f1156f41e60aa5b4e25a4]
class Company--><rect codeLine="25" fill="#FEFECE" filter="url(#f1q2qbfl6h1b8y)" height="89.5078" id="Company" style="stroke:#A80036;stroke-width:1.5;" width="160" x="703.5" y="308"/><ellipse cx="752.75" cy="324" fill="#ADD1B2" rx="11" ry="11" style="stroke:#A80036;stroke-width:1.0;"/><path d="M754.75,320.5 Q754.9531,320 755.1875,319.75 Q755.4219,319.5 755.6875,319.5 Q756.1563,319.5 756.4531,319.7813 Q756.75,320.0625 756.75,320.7188 L756.75,322.2813 Q756.75,322.9375 756.4688,323.2188 Q756.1875,323.5 755.75,323.5 Q755.3594,323.5 755.1094,323.3281 Q754.8594,323.1563 754.75,322.7031 Q754.7031,322.3906 754.5313,322.2188 Q754.2188,321.8906 753.6563,321.7031 Q753.0938,321.5 752.5313,321.5 Q751.8281,321.5 751.2344,321.7813 Q750.6563,322.0625 750.2031,322.6875 Q749.75,323.3125 749.75,324.1719 L749.75,325.0938 Q749.75,326.125 750.5938,326.8125 Q751.4375,327.5 752.9375,327.5 Q753.8281,327.5 754.4531,327.2969 Q754.8125,327.1875 755.2188,326.8281 Q755.4844,326.625 755.625,326.5625 Q755.7656,326.5 755.9375,326.5 Q756.2656,326.5 756.5,326.7656 Q756.75,327.0156 756.75,327.375 Q756.75,327.7188 756.4063,328.125 Q755.9063,328.7188 755.1094,329.0469 Q754.0625,329.5 752.7813,329.5 Q751.2813,329.5 750.0781,328.9063 Q749.1094,328.4375 748.4219,327.4219 Q747.75,326.4063 747.75,325.2031 L747.75,324.1094 Q747.75,322.8594 748.3438,321.7656 Q748.9531,320.6719 750,320.0938 Q751.0625,319.5 752.25,319.5 Q752.9688,319.5 753.5938,319.75 Q754.2188,320 754.75,320.5 Z " fill="#000000"/><text fill="#000000" font-family="sans-serif" font-size="12" lengthAdjust="spacing" textLength="53" x="773.25" y="328.9102">Company</text><line style="stroke:#A80036;stroke-width:1.5;" x1="704.5" x2="862.5" y1="340" y2="340"/><text fill="#000000" font-family="sans-serif" font-size="11" lengthAdjust="spacing" textLength="90" x="709.5" y="355.4189">-String designation</text><line style="stroke:#A80036;stroke-width:1.5;" x1="704.5" x2="862.5" y1="361.8359" y2="361.8359"/><text fill="#000000" font-family="sans-serif" font-size="11" lengthAdjust="spacing" textLength="148" x="709.5" y="377.2549">+getParameterCategoryStore()</text><text fill="#000000" font-family="sans-serif" font-size="11" lengthAdjust="spacing" textLength="104" x="709.5" y="391.0908">+getParameterStore()</text><!--MD5=[36afb6bbd95a8ac778c4537c55a683d5]
class ParameterCategory--><rect codeLine="31" fill="#FEFECE" filter="url(#f1q2qbfl6h1b8y)" height="89.5078" id="ParameterCategory" style="stroke:#A80036;stroke-width:1.5;" width="175" x="952" y="489.5"/><ellipse cx="983.2" cy="505.5" fill="#ADD1B2" rx="11" ry="11" style="stroke:#A80036;stroke-width:1.0;"/><path d="M985.2,502 Q985.4031,501.5 985.6375,501.25 Q985.8719,501 986.1375,501 Q986.6063,501 986.9031,501.2813 Q987.2,501.5625 987.2,502.2188 L987.2,503.7813 Q987.2,504.4375 986.9188,504.7188 Q986.6375,505 986.2,505 Q985.8094,505 985.5594,504.8281 Q985.3094,504.6563 985.2,504.2031 Q985.1531,503.8906 984.9813,503.7188 Q984.6688,503.3906 984.1063,503.2031 Q983.5438,503 982.9813,503 Q982.2781,503 981.6844,503.2813 Q981.1063,503.5625 980.6531,504.1875 Q980.2,504.8125 980.2,505.6719 L980.2,506.5938 Q980.2,507.625 981.0438,508.3125 Q981.8875,509 983.3875,509 Q984.2781,509 984.9031,508.7969 Q985.2625,508.6875 985.6688,508.3281 Q985.9344,508.125 986.075,508.0625 Q986.2156,508 986.3875,508 Q986.7156,508 986.95,508.2656 Q987.2,508.5156 987.2,508.875 Q987.2,509.2188 986.8563,509.625 Q986.3563,510.2188 985.5594,510.5469 Q984.5125,511 983.2313,511 Q981.7313,511 980.5281,510.4063 Q979.5594,509.9375 978.8719,508.9219 Q978.2,507.9063 978.2,506.7031 L978.2,505.6094 Q978.2,504.3594 978.7938,503.2656 Q979.4031,502.1719 980.45,501.5938 Q981.5125,501 982.7,501 Q983.4188,501 984.0438,501.25 Q984.6688,501.5 985.2,502 Z " fill="#000000"/><text fill="#000000" font-family="sans-serif" font-size="12" lengthAdjust="spacing" textLength="107" x="1000.8" y="510.4102">ParameterCategory</text><line style="stroke:#A80036;stroke-width:1.5;" x1="953" x2="1126" y1="521.5" y2="521.5"/><text fill="#000000" font-family="sans-serif" font-size="11" lengthAdjust="spacing" textLength="61" x="958" y="536.9189">-String name</text><text fill="#000000" font-family="sans-serif" font-size="11" lengthAdjust="spacing" textLength="59" x="958" y="550.7549">-String code</text><line style="stroke:#A80036;stroke-width:1.5;" x1="953" x2="1126" y1="557.1719" y2="557.1719"/><text fill="#000000" font-family="sans-serif" font-size="11" lengthAdjust="spacing" textLength="163" x="958" y="572.5908">+ParameterCategory(name, code)</text><!--MD5=[fab6cba0d8a30102bb3e071a5ce00b91]
class ParameterCategoryMapper--><rect codeLine="39" fill="#FEFECE" filter="url(#f1q2qbfl6h1b8y)" height="61.8359" id="ParameterCategoryMapper" style="stroke:#A80036;stroke-width:1.5;" width="206" x="971.5" y="322"/><ellipse cx="998.2" cy="338" fill="#ADD1B2" rx="11" ry="11" style="stroke:#A80036;stroke-width:1.0;"/><path d="M1000.2,334.5 Q1000.4031,334 1000.6375,333.75 Q1000.8719,333.5 1001.1375,333.5 Q1001.6063,333.5 1001.9031,333.7813 Q1002.2,334.0625 1002.2,334.7188 L1002.2,336.2813 Q1002.2,336.9375 1001.9188,337.2188 Q1001.6375,337.5 1001.2,337.5 Q1000.8094,337.5 1000.5594,337.3281 Q1000.3094,337.1563 1000.2,336.7031 Q1000.1531,336.3906 999.9813,336.2188 Q999.6688,335.8906 999.1063,335.7031 Q998.5438,335.5 997.9813,335.5 Q997.2781,335.5 996.6844,335.7813 Q996.1063,336.0625 995.6531,336.6875 Q995.2,337.3125 995.2,338.1719 L995.2,339.0938 Q995.2,340.125 996.0438,340.8125 Q996.8875,341.5 998.3875,341.5 Q999.2781,341.5 999.9031,341.2969 Q1000.2625,341.1875 1000.6688,340.8281 Q1000.9344,340.625 1001.075,340.5625 Q1001.2156,340.5 1001.3875,340.5 Q1001.7156,340.5 1001.95,340.7656 Q1002.2,341.0156 1002.2,341.375 Q1002.2,341.7188 1001.8563,342.125 Q1001.3563,342.7188 1000.5594,343.0469 Q999.5125,343.5 998.2313,343.5 Q996.7313,343.5 995.5281,342.9063 Q994.5594,342.4375 993.8719,341.4219 Q993.2,340.4063 993.2,339.2031 L993.2,338.1094 Q993.2,336.8594 993.7938,335.7656 Q994.4031,334.6719 995.45,334.0938 Q996.5125,333.5 997.7,333.5 Q998.4188,333.5 999.0438,333.75 Q999.6688,334 1000.2,334.5 Z " fill="#000000"/><text fill="#000000" font-family="sans-serif" font-size="12" lengthAdjust="spacing" textLength="148" x="1014.8" y="342.9102">ParameterCategoryMapper</text><line style="stroke:#A80036;stroke-width:1.5;" x1="972.5" x2="1176.5" y1="354" y2="354"/><line style="stroke:#A80036;stroke-width:1.5;" x1="972.5" x2="1176.5" y1="362" y2="362"/><text fill="#000000" font-family="sans-serif" font-size="11" lengthAdjust="spacing" textLength="194" x="977.5" y="377.4189">+List&lt;ParameterCategoryDto&gt; toDto(lpc)</text><!--MD5=[b9009a04d919d78a73c2eeec1e385786]
class CreateParameterController--><rect codeLine="44" fill="#FEFECE" filter="url(#f1q2qbfl6h1b8y)" height="131.0156" id="CreateParameterController" style="stroke:#A80036;stroke-width:1.5;" width="312" x="728.5" y="116"/><ellipse cx="805.75" cy="132" fill="#ADD1B2" rx="11" ry="11" style="stroke:#A80036;stroke-width:1.0;"/><path d="M807.75,128.5 Q807.9531,128 808.1875,127.75 Q808.4219,127.5 808.6875,127.5 Q809.1563,127.5 809.4531,127.7813 Q809.75,128.0625 809.75,128.7188 L809.75,130.2813 Q809.75,130.9375 809.4688,131.2188 Q809.1875,131.5 808.75,131.5 Q808.3594,131.5 808.1094,131.3281 Q807.8594,131.1563 807.75,130.7031 Q807.7031,130.3906 807.5313,130.2188 Q807.2188,129.8906 806.6563,129.7031 Q806.0938,129.5 805.5313,129.5 Q804.8281,129.5 804.2344,129.7813 Q803.6563,130.0625 803.2031,130.6875 Q802.75,131.3125 802.75,132.1719 L802.75,133.0938 Q802.75,134.125 803.5938,134.8125 Q804.4375,135.5 805.9375,135.5 Q806.8281,135.5 807.4531,135.2969 Q807.8125,135.1875 808.2188,134.8281 Q808.4844,134.625 808.625,134.5625 Q808.7656,134.5 808.9375,134.5 Q809.2656,134.5 809.5,134.7656 Q809.75,135.0156 809.75,135.375 Q809.75,135.7188 809.4063,136.125 Q808.9063,136.7188 808.1094,137.0469 Q807.0625,137.5 805.7813,137.5 Q804.2813,137.5 803.0781,136.9063 Q802.1094,136.4375 801.4219,135.4219 Q800.75,134.4063 800.75,133.2031 L800.75,132.1094 Q800.75,130.8594 801.3438,129.7656 Q801.9531,128.6719 803,128.0938 Q804.0625,127.5 805.25,127.5 Q805.9688,127.5 806.5938,127.75 Q807.2188,128 807.75,128.5 Z " fill="#000000"/><text fill="#000000" font-family="sans-serif" font-size="12" lengthAdjust="spacing" textLength="149" x="826.25" y="136.9102">CreateParameterController</text><line style="stroke:#A80036;stroke-width:1.5;" x1="729.5" x2="1039.5" y1="148" y2="148"/><line style="stroke:#A80036;stroke-width:1.5;" x1="729.5" x2="1039.5" y1="156" y2="156"/><text fill="#000000" font-family="sans-serif" font-size="11" lengthAdjust="spacing" textLength="141" x="734.5" y="171.4189">+CreateParameterController()</text><text fill="#000000" font-family="sans-serif" font-size="11" lengthAdjust="spacing" textLength="180" x="734.5" y="185.2549">+List&lt;ParameterCategoryDto&gt; toDto()</text><text fill="#000000" font-family="sans-serif" font-size="11" lengthAdjust="spacing" textLength="280" x="734.5" y="199.0908">+ParameterCategory getParameterCategoryByCode(code)</text><text fill="#000000" font-family="sans-serif" font-size="11" lengthAdjust="spacing" textLength="300" x="734.5" y="212.9268">+boolean createParameter(code,designation,description,code)</text><text fill="#000000" font-family="sans-serif" font-size="11" lengthAdjust="spacing" textLength="128" x="734.5" y="226.7627">+boolean saveParameter()</text><text fill="#000000" font-family="sans-serif" font-size="11" lengthAdjust="spacing" textLength="177" x="734.5" y="240.5986">+List&lt;Parameter&gt; getAllParameters()</text><!--MD5=[5518e6815e09c51d4db6e17774f331d2]
class CreateParameterUI--><rect codeLine="53" fill="#FEFECE" filter="url(#f1q2qbfl6h1b8y)" height="48" id="CreateParameterUI" style="stroke:#A80036;stroke-width:1.5;" width="139" x="815" y="7"/><ellipse cx="830" cy="23" fill="#ADD1B2" rx="11" ry="11" style="stroke:#A80036;stroke-width:1.0;"/><path d="M832,19.5 Q832.2031,19 832.4375,18.75 Q832.6719,18.5 832.9375,18.5 Q833.4063,18.5 833.7031,18.7813 Q834,19.0625 834,19.7188 L834,21.2813 Q834,21.9375 833.7188,22.2188 Q833.4375,22.5 833,22.5 Q832.6094,22.5 832.3594,22.3281 Q832.1094,22.1563 832,21.7031 Q831.9531,21.3906 831.7813,21.2188 Q831.4688,20.8906 830.9063,20.7031 Q830.3438,20.5 829.7813,20.5 Q829.0781,20.5 828.4844,20.7813 Q827.9063,21.0625 827.4531,21.6875 Q827,22.3125 827,23.1719 L827,24.0938 Q827,25.125 827.8438,25.8125 Q828.6875,26.5 830.1875,26.5 Q831.0781,26.5 831.7031,26.2969 Q832.0625,26.1875 832.4688,25.8281 Q832.7344,25.625 832.875,25.5625 Q833.0156,25.5 833.1875,25.5 Q833.5156,25.5 833.75,25.7656 Q834,26.0156 834,26.375 Q834,26.7188 833.6563,27.125 Q833.1563,27.7188 832.3594,28.0469 Q831.3125,28.5 830.0313,28.5 Q828.5313,28.5 827.3281,27.9063 Q826.3594,27.4375 825.6719,26.4219 Q825,25.4063 825,24.2031 L825,23.1094 Q825,21.8594 825.5938,20.7656 Q826.2031,19.6719 827.25,19.0938 Q828.3125,18.5 829.5,18.5 Q830.2188,18.5 830.8438,18.75 Q831.4688,19 832,19.5 Z " fill="#000000"/><text fill="#000000" font-family="sans-serif" font-size="12" lengthAdjust="spacing" textLength="107" x="844" y="27.9102">CreateParameterUI</text><line style="stroke:#A80036;stroke-width:1.5;" x1="816" x2="953" y1="39" y2="39"/><line style="stroke:#A80036;stroke-width:1.5;" x1="816" x2="953" y1="47" y2="47"/><!--MD5=[9d3dd688f78c4545f26622cd23f9dd25]
link CreateParameterUI to CreateParameterController--><path codeLine="56" d="M884.5,55.2 C884.5,70.24 884.5,90.7 884.5,110.72 " fill="none" id="CreateParameterUI-to-CreateParameterController" style="stroke:#A80036;stroke-width:1.0;stroke-dasharray:7.0,7.0;"/><polygon fill="#A80036" points="884.5,115.8,888.5,106.8,884.5,110.8,880.5,106.8,884.5,115.8" style="stroke:#A80036;stroke-width:1.0;"/><!--MD5=[094e4a14e6ba8aeac9d4213c7f104300]
link CreateParameterController to ParameterCategory--><path codeLine="57" d="M900.58,247.31 C912.53,290.96 930.69,349.25 953.5,398 C967.68,428.3 987.47,459.98 1004.49,485.08 " fill="none" id="CreateParameterController-to-ParameterCategory" style="stroke:#A80036;stroke-width:1.0;stroke-dasharray:7.0,7.0;"/><polygon fill="#A80036" points="1007.42,489.37,1005.6331,479.6846,1004.594,485.2452,999.0334,484.2062,1007.42,489.37" style="stroke:#A80036;stroke-width:1.0;"/><!--MD5=[28500599d7d52b0914bd4c3c68a17d33]
link CreateParameterController to ParameterCategoryMapper--><path codeLine="58" d="M956.87,247.06 C984.13,271.39 1014.03,298.06 1036.87,318.43 " fill="none" id="CreateParameterController-to-ParameterCategoryMapper" style="stroke:#A80036;stroke-width:1.0;stroke-dasharray:7.0,7.0;"/><polygon fill="#A80036" points="1040.76,321.9,1036.7099,312.9224,1037.0301,318.5702,1031.3823,318.8903,1040.76,321.9" style="stroke:#A80036;stroke-width:1.0;"/><!--MD5=[c56d23af98be554523068ac4fbdb568e]
link CreateParameterController to Parameter--><path codeLine="59" d="M728.15,185.77 C530.2,199.34 196.12,255.8 39.5,476 C9.36,518.37 6,553.22 39.5,593 C117.33,685.43 468.93,711.37 659.62,718.66 " fill="none" id="CreateParameterController-to-Parameter" style="stroke:#A80036;stroke-width:1.0;stroke-dasharray:7.0,7.0;"/><polygon fill="#A80036" points="664.65,718.85,655.8047,714.5187,659.6534,718.6644,655.5077,722.5132,664.65,718.85" style="stroke:#A80036;stroke-width:1.0;"/><!--MD5=[6d585fb02c26694275539b4f1508918e]
link CreateParameterController to Company--><path codeLine="60" d="M846.03,247.06 C834.87,265.78 822.89,285.89 812.43,303.45 " fill="none" id="CreateParameterController-to-Company" style="stroke:#A80036;stroke-width:1.0;stroke-dasharray:7.0,7.0;"/><polygon fill="#A80036" points="809.8,307.85,817.8382,302.159,812.3557,303.5525,810.9622,298.07,809.8,307.85" style="stroke:#A80036;stroke-width:1.0;"/><!--MD5=[daf3d7412afa2c7651483be0b6e971d1]
link Company to ParameterStore--><path codeLine="61" d="M703.28,379.62 C622.22,405.51 494.52,446.3 390.95,479.38 " fill="none" id="Company-to-ParameterStore" style="stroke:#A80036;stroke-width:1.0;stroke-dasharray:7.0,7.0;"/><polygon fill="#A80036" points="386.03,480.95,395.8222,482.005,390.7903,479.4204,393.3749,474.3885,386.03,480.95" style="stroke:#A80036;stroke-width:1.0;"/><!--MD5=[d53d7490e5836ca5709858d7326f212b]
link Company to ParameterCategoryStore--><path codeLine="62" d="M730.38,398.14 C695.45,427.17 650.09,464.86 616.11,493.1 " fill="none" id="Company-to-ParameterCategoryStore" style="stroke:#A80036;stroke-width:1.0;stroke-dasharray:7.0,7.0;"/><polygon fill="#A80036" points="612.02,496.5,621.4957,493.8147,615.8623,493.3005,616.3765,487.667,612.02,496.5" style="stroke:#A80036;stroke-width:1.0;"/><!--MD5=[12d76240d3c3c66074d4ec2ea8bf469c]
link Company to Parameter--><path codeLine="64" d="M783.5,398.33 C783.5,466.96 783.5,598.54 783.5,670.83 " fill="none" id="Company-Parameter" style="stroke:#A80036;stroke-width:1.0;"/><polygon fill="#000000" points="788.5,539.6758,791.4389,530.6307,785.5611,530.6307,788.5,539.6758" style="stroke:#000000;stroke-width:1.0;"/><text fill="#000000" font-family="sans-serif" font-size="13" lengthAdjust="spacing" textLength="118" x="797.5" y="539.9951">capable of analysing</text><text fill="#000000" font-family="sans-serif" font-size="13" lengthAdjust="spacing" textLength="7" x="776.0297" y="419.048">1</text><text fill="#000000" font-family="sans-serif" font-size="13" lengthAdjust="spacing" textLength="5" x="778.1641" y="660.3075">*</text><!--MD5=[93b4f25fb503a8e0e9a46b1d30ff3f44]
link Company to ParameterCategory--><path codeLine="65" d="M802.02,398.43 C810.92,415.29 823.06,433.42 838.5,446 C869.88,471.57 887.21,460.25 924.5,476 C934.27,480.13 944.37,484.7 954.34,489.41 " fill="none" id="Company-ParameterCategory" style="stroke:#A80036;stroke-width:1.0;"/><polygon fill="#000000" points="847.7926,439.7397,841.5343,432.5784,838.5202,437.6246,847.7926,439.7397" style="stroke:#000000;stroke-width:1.0;"/><text fill="#000000" font-family="sans-serif" font-size="13" lengthAdjust="spacing" textLength="39" x="852.5" y="442.4951">adopts</text><text fill="#000000" font-family="sans-serif" font-size="13" lengthAdjust="spacing" textLength="7" x="797.0383" y="419.1615">1</text><text fill="#000000" font-family="sans-serif" font-size="13" lengthAdjust="spacing" textLength="5" x="939.2043" y="480.8154">*</text><!--MD5=[7a9e3e328fb1db48284e23a673c1e60d]
link ParameterCategory to Parameter--><path codeLine="66" d="M978.83,579.58 C941.13,606.97 892.53,642.28 853.24,670.83 " fill="none" id="ParameterCategory-Parameter" style="stroke:#A80036;stroke-width:1.0;"/><polygon fill="#000000" points="920.545,629.2368,911.5,632.1759,914.955,636.9311,920.545,629.2368" style="stroke:#000000;stroke-width:1.0;"/><text fill="#000000" font-family="sans-serif" font-size="13" lengthAdjust="spacing" textLength="93" x="925.5" y="637.4951">presented under</text><text fill="#000000" font-family="sans-serif" font-size="13" lengthAdjust="spacing" textLength="7" x="962.8061" y="600.5988">1</text><text fill="#000000" font-family="sans-serif" font-size="13" lengthAdjust="spacing" textLength="5" x="857.2754" y="660.3075">*</text><!--MD5=[a5946c9baa8e4c4225510045f986aea2]
@startuml
skinparam classAttributeIconSize 0


class ParameterStore{
  +Parameter createParameter(code, designation, description, pcat)
  +boolean saveParameter(parameter)
  -boolean validate(parameter)
  -boolean add(parameter)
  +List <Parameter> getAllParameters()
}

class ParameterCategoryStore{
  +List <ParameterCategory> getAllParameterCategories()
  +ParameterCategory getParameterCategoryByCode(code)
}


class Parameter {
  - String designation
  - String description
  - String code
  +Parameter(code,description,designation,pcat)
}

class Company {
  -String designation
  +getParameterCategoryStore()
  +getParameterStore()
}

class ParameterCategory {
  -String name
  -String code
  +ParameterCategory(name, code)
}



class ParameterCategoryMapper{
  +List<ParameterCategoryDto> toDto(lpc)
}


class CreateParameterController {
  +CreateParameterController()
  +List<ParameterCategoryDto> toDto()
  +ParameterCategory getParameterCategoryByCode(code)
  +boolean createParameter(code,designation,description,code)
  +boolean saveParameter()
  +List<Parameter> getAllParameters()
}

class CreateParameterUI {
}

CreateParameterUI ..> CreateParameterController
CreateParameterController ..> ParameterCategory
CreateParameterController ..> ParameterCategoryMapper
CreateParameterController ..> Parameter
CreateParameterController ..> Company
Company ..> ParameterStore
Company ..> ParameterCategoryStore

Company "1" - - "*" Parameter : > capable of analysing
Company "1" - - "*" ParameterCategory : > adopts
ParameterCategory "1" - - "*" Parameter : < presented under



@enduml

PlantUML version 1.2021.2(Sun Mar 07 11:10:27 GMT 2021)
(GPL source distribution)
Java Runtime: OpenJDK Runtime Environment
JVM: OpenJDK 64-Bit Server VM
Default Encoding: Cp1252
Language: pt
Country: PT
--></g></svg>