<?xml version="1.0" encoding="UTF-8" standalone="no"?><svg xmlns="http://www.w3.org/2000/svg" xmlns:xlink="http://www.w3.org/1999/xlink" contentScriptType="application/ecmascript" contentStyleType="text/css" height="238.75px" preserveAspectRatio="none" style="width:855px;height:238px;" version="1.1" viewBox="0 0 855 238" width="855px" zoomAndPan="magnify"><defs><filter height="300%" id="f1drzk2xiyojaz" width="300%" x="-1" y="-1"><feGaussianBlur result="blurOut" stdDeviation="2.5"/><feColorMatrix in="blurOut" result="blurOut2" type="matrix" values="0 0 0 0 0 0 0 0 0 0 0 0 0 0 0 0 0 0 .4 0"/><feOffset dx="5.0" dy="5.0" in="blurOut2" result="blurOut3"/><feBlend in="SourceGraphic" in2="blurOut3" mode="normal"/></filter></defs><g><!--MD5=[da547346deef918ea16944ba046651ef]
class Administrator--><rect codeLine="15" fill="#FEFECE" filter="url(#f1drzk2xiyojaz)" height="50" id="Administrator" style="stroke:#A80036;stroke-width:1.875;" width="131.25" x="8.75" y="35"/><ellipse cx="27.5" cy="55" fill="#ADD1B2" rx="13.75" ry="13.75" style="stroke:#A80036;stroke-width:1.25;"/><path d="M30,50.625 Q30.2539,50 30.5469,49.6875 Q30.8398,49.375 31.1719,49.375 Q31.7578,49.375 32.1289,49.7266 Q32.5,50.0781 32.5,50.8984 L32.5,52.8516 Q32.5,53.6719 32.1484,54.0234 Q31.7969,54.375 31.25,54.375 Q30.7617,54.375 30.4492,54.1602 Q30.1367,53.9453 30,53.3789 Q29.9414,52.9883 29.7266,52.7734 Q29.3359,52.3633 28.6328,52.1289 Q27.9297,51.875 27.2266,51.875 Q26.3477,51.875 25.6055,52.2266 Q24.8828,52.5781 24.3164,53.3594 Q23.75,54.1406 23.75,55.2148 L23.75,56.3672 Q23.75,57.6563 24.8047,58.5156 Q25.8594,59.375 27.7344,59.375 Q28.8477,59.375 29.6289,59.1211 Q30.0781,58.9844 30.5859,58.5352 Q30.918,58.2813 31.0938,58.2031 Q31.2695,58.125 31.4844,58.125 Q31.8945,58.125 32.1875,58.457 Q32.5,58.7695 32.5,59.2188 Q32.5,59.6484 32.0703,60.1563 Q31.4453,60.8984 30.4492,61.3086 Q29.1406,61.875 27.5391,61.875 Q25.6641,61.875 24.1602,61.1328 Q22.9492,60.5469 22.0898,59.2773 Q21.25,58.0078 21.25,56.5039 L21.25,55.1367 Q21.25,53.5742 21.9922,52.207 Q22.7539,50.8398 24.0625,50.1172 Q25.3906,49.375 26.875,49.375 Q27.7734,49.375 28.5547,49.6875 Q29.3359,50 30,50.625 Z " fill="#000000"/><text fill="#000000" font-family="sans-serif" font-size="15" lengthAdjust="spacing" textLength="91.25" x="45" y="61.1377">Administrator</text><line style="stroke:#A80036;stroke-width:1.875;" x1="10" x2="138.75" y1="75" y2="75"/><!--MD5=[36afb6bbd95a8ac778c4537c55a683d5]
class ParameterCategory--><rect codeLine="18" fill="#FEFECE" filter="url(#f1drzk2xiyojaz)" height="101.8848" id="ParameterCategory" style="stroke:#A80036;stroke-width:1.875;" width="173.75" x="310" y="8.75"/><ellipse cx="328.75" cy="28.75" fill="#ADD1B2" rx="13.75" ry="13.75" style="stroke:#A80036;stroke-width:1.25;"/><path d="M331.25,24.375 Q331.5039,23.75 331.7969,23.4375 Q332.0898,23.125 332.4219,23.125 Q333.0078,23.125 333.3789,23.4766 Q333.75,23.8281 333.75,24.6484 L333.75,26.6016 Q333.75,27.4219 333.3984,27.7734 Q333.0469,28.125 332.5,28.125 Q332.0117,28.125 331.6992,27.9102 Q331.3867,27.6953 331.25,27.1289 Q331.1914,26.7383 330.9766,26.5234 Q330.5859,26.1133 329.8828,25.8789 Q329.1797,25.625 328.4766,25.625 Q327.5977,25.625 326.8555,25.9766 Q326.1328,26.3281 325.5664,27.1094 Q325,27.8906 325,28.9648 L325,30.1172 Q325,31.4063 326.0547,32.2656 Q327.1094,33.125 328.9844,33.125 Q330.0977,33.125 330.8789,32.8711 Q331.3281,32.7344 331.8359,32.2852 Q332.168,32.0313 332.3438,31.9531 Q332.5195,31.875 332.7344,31.875 Q333.1445,31.875 333.4375,32.207 Q333.75,32.5195 333.75,32.9688 Q333.75,33.3984 333.3203,33.9063 Q332.6953,34.6484 331.6992,35.0586 Q330.3906,35.625 328.7891,35.625 Q326.9141,35.625 325.4102,34.8828 Q324.1992,34.2969 323.3398,33.0273 Q322.5,31.7578 322.5,30.2539 L322.5,28.8867 Q322.5,27.3242 323.2422,25.957 Q324.0039,24.5898 325.3125,23.8672 Q326.6406,23.125 328.125,23.125 Q329.0234,23.125 329.8047,23.4375 Q330.5859,23.75 331.25,24.375 Z " fill="#000000"/><text fill="#000000" font-family="sans-serif" font-size="15" lengthAdjust="spacing" textLength="133.75" x="346.25" y="34.8877">ParameterCategory</text><line style="stroke:#A80036;stroke-width:1.875;" x1="311.25" x2="482.5" y1="48.75" y2="48.75"/><text fill="#000000" font-family="sans-serif" font-size="13.75" lengthAdjust="spacing" textLength="35" x="317.5" y="68.0237">-code</text><text fill="#000000" font-family="sans-serif" font-size="13.75" lengthAdjust="spacing" textLength="71.25" x="317.5" y="85.3186">-description</text><text fill="#000000" font-family="sans-serif" font-size="13.75" lengthAdjust="spacing" textLength="38.75" x="317.5" y="102.6135">-nhsID</text><!--MD5=[1f6362a5c8f21d8d6a0fce68f3a92a4e]
class Parameter--><rect codeLine="24" fill="#FEFECE" filter="url(#f1drzk2xiyojaz)" height="101.8848" id="Parameter" style="stroke:#A80036;stroke-width:1.875;" width="112.5" x="725" y="101.25"/><ellipse cx="743.75" cy="121.25" fill="#ADD1B2" rx="13.75" ry="13.75" style="stroke:#A80036;stroke-width:1.25;"/><path d="M746.25,116.875 Q746.5039,116.25 746.7969,115.9375 Q747.0898,115.625 747.4219,115.625 Q748.0078,115.625 748.3789,115.9766 Q748.75,116.3281 748.75,117.1484 L748.75,119.1016 Q748.75,119.9219 748.3984,120.2734 Q748.0469,120.625 747.5,120.625 Q747.0117,120.625 746.6992,120.4102 Q746.3867,120.1953 746.25,119.6289 Q746.1914,119.2383 745.9766,119.0234 Q745.5859,118.6133 744.8828,118.3789 Q744.1797,118.125 743.4766,118.125 Q742.5977,118.125 741.8555,118.4766 Q741.1328,118.8281 740.5664,119.6094 Q740,120.3906 740,121.4648 L740,122.6172 Q740,123.9063 741.0547,124.7656 Q742.1094,125.625 743.9844,125.625 Q745.0977,125.625 745.8789,125.3711 Q746.3281,125.2344 746.8359,124.7852 Q747.168,124.5313 747.3438,124.4531 Q747.5195,124.375 747.7344,124.375 Q748.1445,124.375 748.4375,124.707 Q748.75,125.0195 748.75,125.4688 Q748.75,125.8984 748.3203,126.4063 Q747.6953,127.1484 746.6992,127.5586 Q745.3906,128.125 743.7891,128.125 Q741.9141,128.125 740.4102,127.3828 Q739.1992,126.7969 738.3398,125.5273 Q737.5,124.2578 737.5,122.7539 L737.5,121.3867 Q737.5,119.8242 738.2422,118.457 Q739.0039,117.0898 740.3125,116.3672 Q741.6406,115.625 743.125,115.625 Q744.0234,115.625 744.8047,115.9375 Q745.5859,116.25 746.25,116.875 Z " fill="#000000"/><text fill="#000000" font-family="sans-serif" font-size="15" lengthAdjust="spacing" textLength="72.5" x="761.25" y="127.3877">Parameter</text><line style="stroke:#A80036;stroke-width:1.875;" x1="726.25" x2="836.25" y1="141.25" y2="141.25"/><text fill="#000000" font-family="sans-serif" font-size="13.75" lengthAdjust="spacing" textLength="73.75" x="732.5" y="160.5237">-designation</text><text fill="#000000" font-family="sans-serif" font-size="13.75" lengthAdjust="spacing" textLength="71.25" x="732.5" y="177.8186">-description</text><text fill="#000000" font-family="sans-serif" font-size="13.75" lengthAdjust="spacing" textLength="35" x="732.5" y="195.1135">-code</text><!--MD5=[02e4b9b7573f1156f41e60aa5b4e25a4]
class Company--><rect codeLine="30" fill="#FEFECE" filter="url(#f1drzk2xiyojaz)" height="67.2949" id="Company" style="stroke:#A80036;stroke-width:1.875;" width="106.25" x="343.75" y="155"/><ellipse cx="362.5" cy="175" fill="#ADD1B2" rx="13.75" ry="13.75" style="stroke:#A80036;stroke-width:1.25;"/><path d="M365,170.625 Q365.2539,170 365.5469,169.6875 Q365.8398,169.375 366.1719,169.375 Q366.7578,169.375 367.1289,169.7266 Q367.5,170.0781 367.5,170.8984 L367.5,172.8516 Q367.5,173.6719 367.1484,174.0234 Q366.7969,174.375 366.25,174.375 Q365.7617,174.375 365.4492,174.1602 Q365.1367,173.9453 365,173.3789 Q364.9414,172.9883 364.7266,172.7734 Q364.3359,172.3633 363.6328,172.1289 Q362.9297,171.875 362.2266,171.875 Q361.3477,171.875 360.6055,172.2266 Q359.8828,172.5781 359.3164,173.3594 Q358.75,174.1406 358.75,175.2148 L358.75,176.3672 Q358.75,177.6563 359.8047,178.5156 Q360.8594,179.375 362.7344,179.375 Q363.8477,179.375 364.6289,179.1211 Q365.0781,178.9844 365.5859,178.5352 Q365.918,178.2813 366.0938,178.2031 Q366.2695,178.125 366.4844,178.125 Q366.8945,178.125 367.1875,178.457 Q367.5,178.7695 367.5,179.2188 Q367.5,179.6484 367.0703,180.1563 Q366.4453,180.8984 365.4492,181.3086 Q364.1406,181.875 362.5391,181.875 Q360.6641,181.875 359.1602,181.1328 Q357.9492,180.5469 357.0898,179.2773 Q356.25,178.0078 356.25,176.5039 L356.25,175.1367 Q356.25,173.5742 356.9922,172.207 Q357.7539,170.8398 359.0625,170.1172 Q360.3906,169.375 361.875,169.375 Q362.7734,169.375 363.5547,169.6875 Q364.3359,170 365,170.625 Z " fill="#000000"/><text fill="#000000" font-family="sans-serif" font-size="15" lengthAdjust="spacing" textLength="66.25" x="380" y="181.1377">Company</text><line style="stroke:#A80036;stroke-width:1.875;" x1="345" x2="448.75" y1="195" y2="195"/><text fill="#000000" font-family="sans-serif" font-size="13.75" lengthAdjust="spacing" textLength="73.75" x="351.25" y="214.2737">-designation</text><!--MD5=[7144ffdeebbe38808f7fb2ce8ac24f7d]
link Administrator to ParameterCategory--><path codeLine="9" d="M140.3875,60 C189.1375,60 256.4625,60 309.725,60 " fill="none" id="Administrator-ParameterCategory" style="stroke:#A80036;stroke-width:1.25;"/><polygon fill="#000000" points="177.5,48.9697,188.8064,52.6434,188.8064,45.2961,177.5,48.9697" style="stroke:#000000;stroke-width:1.25;"/><text fill="#000000" font-family="sans-serif" font-size="16.25" lengthAdjust="spacing" textLength="76.25" x="195" y="55.6189">created by</text><text fill="#000000" font-family="sans-serif" font-size="16.25" lengthAdjust="spacing" textLength="8.75" x="149.8458" y="78.2422">1</text><text fill="#000000" font-family="sans-serif" font-size="16.25" lengthAdjust="spacing" textLength="6.25" x="293.6012" y="78.0203">*</text><!--MD5=[7a9e3e328fb1db48284e23a673c1e60d]
link ParameterCategory to Parameter--><path codeLine="10" d="M483.825,80.7625 C557.4875,98.6 661.55,123.8125 724.7,139.1 " fill="none" id="ParameterCategory-Parameter" style="stroke:#A80036;stroke-width:1.25;"/><polygon fill="#000000" points="537.0506,76.2486,547.1746,82.4804,548.904,75.3395,537.0506,76.2486" style="stroke:#000000;stroke-width:1.25;"/><text fill="#000000" font-family="sans-serif" font-size="16.25" lengthAdjust="spacing" textLength="116.25" x="554.375" y="84.3689">presented under</text><text fill="#000000" font-family="sans-serif" font-size="16.25" lengthAdjust="spacing" textLength="8.75" x="493.8137" y="101.0537">1</text><text fill="#000000" font-family="sans-serif" font-size="16.25" lengthAdjust="spacing" textLength="6.25" x="708.5663" y="155.4931">*</text><!--MD5=[12d76240d3c3c66074d4ec2ea8bf469c]
link Company to Parameter--><path codeLine="11" d="M450.475,185.2875 C508.5,181.25 604.8125,173.975 687.5,165 C699.5875,163.6875 712.525,162.075 724.7875,160.4375 " fill="none" id="Company-Parameter" style="stroke:#A80036;stroke-width:1.25;"/><polygon fill="#000000" points="533.7245,153.4058,522.1328,150.7672,522.7957,158.0846,533.7245,153.4058" style="stroke:#000000;stroke-width:1.25;"/><text fill="#000000" font-family="sans-serif" font-size="16.25" lengthAdjust="spacing" textLength="147.5" x="538.75" y="160.6189">capable of analysing</text><text fill="#000000" font-family="sans-serif" font-size="16.25" lengthAdjust="spacing" textLength="8.75" x="460.0771" y="203.2925">1</text><text fill="#000000" font-family="sans-serif" font-size="16.25" lengthAdjust="spacing" textLength="6.25" x="708.6683" y="180.3646">*</text><!--MD5=[bf2728e62c03a1e3c2b0393c2bb9579c]
@startuml
'https://plantuml.com/class-diagram
hide methods
left to right direction
class Administrator
class ParameterCategory
class Parameter
class Company

Administrator "1" - - "*" ParameterCategory : < created by
ParameterCategory "1" - - "*" Parameter : < presented under
Company "1" - - "*" Parameter : > capable of analysing

skinparam classAttributeIconSize 0

class Administrator{
}

class ParameterCategory{
-code
-description
-nhsID
}

class Parameter{
-designation
-description
-code
}

class Company{
-designation
}

@enduml

@startuml
hide methods
left to right direction
class Administrator
class ParameterCategory
class Parameter
class Company

Administrator "1" - - "*" ParameterCategory : < created by
ParameterCategory "1" - - "*" Parameter : < presented under
Company "1" - - "*" Parameter : > capable of analysing

skinparam classAttributeIconSize 0

class Administrator{
}

class ParameterCategory{
-code
-description
-nhsID
}

class Parameter{
-designation
-description
-code
}

class Company{
-designation
}

@enduml

PlantUML version 1.2021.2(Sun Mar 07 11:10:27 GMT 2021)
(GPL source distribution)
Java Runtime: OpenJDK Runtime Environment
JVM: OpenJDK 64-Bit Server VM
Default Encoding: Cp1252
Language: pt
Country: PT
--></g></svg>