<?xml version="1.0" encoding="UTF-8" standalone="no"?><svg xmlns="http://www.w3.org/2000/svg" xmlns:xlink="http://www.w3.org/1999/xlink" contentScriptType="application/ecmascript" contentStyleType="text/css" height="575px" preserveAspectRatio="none" style="width:217px;height:575px;" version="1.1" viewBox="0 0 217 575" width="217.5px" zoomAndPan="magnify"><defs><filter height="300%" id="fjmh14xvrbk0y" width="300%" x="-1" y="-1"><feGaussianBlur result="blurOut" stdDeviation="2.5"/><feColorMatrix in="blurOut" result="blurOut2" type="matrix" values="0 0 0 0 0 0 0 0 0 0 0 0 0 0 0 0 0 0 .4 0"/><feOffset dx="5.0" dy="5.0" in="blurOut2" result="blurOut3"/><feBlend in="SourceGraphic" in2="blurOut3" mode="normal"/></filter></defs><g><!--MD5=[da547346deef918ea16944ba046651ef]
class Administrator--><rect codeLine="12" fill="#FEFECE" filter="url(#fjmh14xvrbk0y)" height="181.0645" id="Administrator" style="stroke:#A80036;stroke-width:1.875;" width="131.25" x="8.75" y="8.75"/><ellipse cx="27.5" cy="28.75" fill="#ADD1B2" rx="13.75" ry="13.75" style="stroke:#A80036;stroke-width:1.25;"/><path d="M30,24.375 Q30.2539,23.75 30.5469,23.4375 Q30.8398,23.125 31.1719,23.125 Q31.7578,23.125 32.1289,23.4766 Q32.5,23.8281 32.5,24.6484 L32.5,26.6016 Q32.5,27.4219 32.1484,27.7734 Q31.7969,28.125 31.25,28.125 Q30.7617,28.125 30.4492,27.9102 Q30.1367,27.6953 30,27.1289 Q29.9414,26.7383 29.7266,26.5234 Q29.3359,26.1133 28.6328,25.8789 Q27.9297,25.625 27.2266,25.625 Q26.3477,25.625 25.6055,25.9766 Q24.8828,26.3281 24.3164,27.1094 Q23.75,27.8906 23.75,28.9648 L23.75,30.1172 Q23.75,31.4063 24.8047,32.2656 Q25.8594,33.125 27.7344,33.125 Q28.8477,33.125 29.6289,32.8711 Q30.0781,32.7344 30.5859,32.2852 Q30.918,32.0313 31.0938,31.9531 Q31.2695,31.875 31.4844,31.875 Q31.8945,31.875 32.1875,32.207 Q32.5,32.5195 32.5,32.9688 Q32.5,33.3984 32.0703,33.9063 Q31.4453,34.6484 30.4492,35.0586 Q29.1406,35.625 27.5391,35.625 Q25.6641,35.625 24.1602,34.8828 Q22.9492,34.2969 22.0898,33.0273 Q21.25,31.7578 21.25,30.2539 L21.25,28.8867 Q21.25,27.3242 21.9922,25.957 Q22.7539,24.5898 24.0625,23.8672 Q25.3906,23.125 26.875,23.125 Q27.7734,23.125 28.5547,23.4375 Q29.3359,23.75 30,24.375 Z " fill="#000000"/><text fill="#000000" font-family="sans-serif" font-size="15" lengthAdjust="spacing" textLength="91.25" x="45" y="34.8877">Administrator</text><line style="stroke:#A80036;stroke-width:1.875;" x1="10" x2="138.75" y1="48.75" y2="48.75"/><text fill="#000000" font-family="sans-serif" font-size="13.75" lengthAdjust="spacing" textLength="37.5" x="16.25" y="68.0237">-name</text><text fill="#000000" font-family="sans-serif" font-size="13.75" lengthAdjust="spacing" textLength="55" x="16.25" y="85.3186">-address</text><text fill="#000000" font-family="sans-serif" font-size="13.75" lengthAdjust="spacing" textLength="88.75" x="16.25" y="102.6135">-phoneNumber</text><text fill="#000000" font-family="sans-serif" font-size="13.75" lengthAdjust="spacing" textLength="73.75" x="16.25" y="119.9084">-employeeID</text><text fill="#000000" font-family="sans-serif" font-size="13.75" lengthAdjust="spacing" textLength="51.25" x="16.25" y="137.2034">-orgRole</text><text fill="#000000" font-family="sans-serif" font-size="13.75" lengthAdjust="spacing" textLength="35" x="16.25" y="154.4983">-email</text><text fill="#000000" font-family="sans-serif" font-size="13.75" lengthAdjust="spacing" textLength="62.5" x="16.25" y="171.7932">-SOCcode</text><line style="stroke:#A80036;stroke-width:1.875;" x1="10" x2="138.75" y1="179.8145" y2="179.8145"/><!--MD5=[a96594a83e2ecdc78cbf17c2ddf01934]
class Category--><rect codeLine="22" fill="#FEFECE" filter="url(#fjmh14xvrbk0y)" height="111.8848" id="Category" style="stroke:#A80036;stroke-width:1.875;" width="101.25" x="23.75" y="287.5"/><ellipse cx="42.5" cy="307.5" fill="#ADD1B2" rx="13.75" ry="13.75" style="stroke:#A80036;stroke-width:1.25;"/><path d="M45,303.125 Q45.2539,302.5 45.5469,302.1875 Q45.8398,301.875 46.1719,301.875 Q46.7578,301.875 47.1289,302.2266 Q47.5,302.5781 47.5,303.3984 L47.5,305.3516 Q47.5,306.1719 47.1484,306.5234 Q46.7969,306.875 46.25,306.875 Q45.7617,306.875 45.4492,306.6602 Q45.1367,306.4453 45,305.8789 Q44.9414,305.4883 44.7266,305.2734 Q44.3359,304.8633 43.6328,304.6289 Q42.9297,304.375 42.2266,304.375 Q41.3477,304.375 40.6055,304.7266 Q39.8828,305.0781 39.3164,305.8594 Q38.75,306.6406 38.75,307.7148 L38.75,308.8672 Q38.75,310.1563 39.8047,311.0156 Q40.8594,311.875 42.7344,311.875 Q43.8477,311.875 44.6289,311.6211 Q45.0781,311.4844 45.5859,311.0352 Q45.918,310.7813 46.0938,310.7031 Q46.2695,310.625 46.4844,310.625 Q46.8945,310.625 47.1875,310.957 Q47.5,311.2695 47.5,311.7188 Q47.5,312.1484 47.0703,312.6563 Q46.4453,313.3984 45.4492,313.8086 Q44.1406,314.375 42.5391,314.375 Q40.6641,314.375 39.1602,313.6328 Q37.9492,313.0469 37.0898,311.7773 Q36.25,310.5078 36.25,309.0039 L36.25,307.6367 Q36.25,306.0742 36.9922,304.707 Q37.7539,303.3398 39.0625,302.6172 Q40.3906,301.875 41.875,301.875 Q42.7734,301.875 43.5547,302.1875 Q44.3359,302.5 45,303.125 Z " fill="#000000"/><text fill="#000000" font-family="sans-serif" font-size="15" lengthAdjust="spacing" textLength="61.25" x="60" y="313.6377">Category</text><line style="stroke:#A80036;stroke-width:1.875;" x1="25" x2="123.75" y1="327.5" y2="327.5"/><text fill="#000000" font-family="sans-serif" font-size="13.75" lengthAdjust="spacing" textLength="35" x="31.25" y="346.7737">-code</text><text fill="#000000" font-family="sans-serif" font-size="13.75" lengthAdjust="spacing" textLength="71.25" x="31.25" y="364.0686">-description</text><text fill="#000000" font-family="sans-serif" font-size="13.75" lengthAdjust="spacing" textLength="38.75" x="31.25" y="381.3635">-nhsID</text><line style="stroke:#A80036;stroke-width:1.875;" x1="25" x2="123.75" y1="389.3848" y2="389.3848"/><!--MD5=[1f6362a5c8f21d8d6a0fce68f3a92a4e]
class Parameter--><rect codeLine="28" fill="#FEFECE" filter="url(#fjmh14xvrbk0y)" height="60" id="Parameter" style="stroke:#A80036;stroke-width:1.875;" width="112.5" x="18.125" y="497.5"/><ellipse cx="36.875" cy="517.5" fill="#ADD1B2" rx="13.75" ry="13.75" style="stroke:#A80036;stroke-width:1.25;"/><path d="M39.375,513.125 Q39.6289,512.5 39.9219,512.1875 Q40.2148,511.875 40.5469,511.875 Q41.1328,511.875 41.5039,512.2266 Q41.875,512.5781 41.875,513.3984 L41.875,515.3516 Q41.875,516.1719 41.5234,516.5234 Q41.1719,516.875 40.625,516.875 Q40.1367,516.875 39.8242,516.6602 Q39.5117,516.4453 39.375,515.8789 Q39.3164,515.4883 39.1016,515.2734 Q38.7109,514.8633 38.0078,514.6289 Q37.3047,514.375 36.6016,514.375 Q35.7227,514.375 34.9805,514.7266 Q34.2578,515.0781 33.6914,515.8594 Q33.125,516.6406 33.125,517.7148 L33.125,518.8672 Q33.125,520.1563 34.1797,521.0156 Q35.2344,521.875 37.1094,521.875 Q38.2227,521.875 39.0039,521.6211 Q39.4531,521.4844 39.9609,521.0352 Q40.293,520.7813 40.4688,520.7031 Q40.6445,520.625 40.8594,520.625 Q41.2695,520.625 41.5625,520.957 Q41.875,521.2695 41.875,521.7188 Q41.875,522.1484 41.4453,522.6563 Q40.8203,523.3984 39.8242,523.8086 Q38.5156,524.375 36.9141,524.375 Q35.0391,524.375 33.5352,523.6328 Q32.3242,523.0469 31.4648,521.7773 Q30.625,520.5078 30.625,519.0039 L30.625,517.6367 Q30.625,516.0742 31.3672,514.707 Q32.1289,513.3398 33.4375,512.6172 Q34.7656,511.875 36.25,511.875 Q37.1484,511.875 37.9297,512.1875 Q38.7109,512.5 39.375,513.125 Z " fill="#000000"/><text fill="#000000" font-family="sans-serif" font-size="15" lengthAdjust="spacing" textLength="72.5" x="54.375" y="523.6377">Parameter</text><line style="stroke:#A80036;stroke-width:1.875;" x1="19.375" x2="129.375" y1="537.5" y2="537.5"/><line style="stroke:#A80036;stroke-width:1.875;" x1="19.375" x2="129.375" y1="547.5" y2="547.5"/><!--MD5=[7d17329589c8a1a28e6f8826215bde21]
link Administrator to Category--><path codeLine="7" d="M74.375,190 C74.375,222.575 74.375,258.425 74.375,287.175 " fill="none" id="Administrator-Category" style="stroke:#A80036;stroke-width:1.25;"/><polygon fill="#000000" points="80.625,232.7197,76.9513,244.0261,84.2987,244.0261,80.625,232.7197" style="stroke:#000000;stroke-width:1.25;"/><text fill="#000000" font-family="sans-serif" font-size="16.25" lengthAdjust="spacing" textLength="76.25" x="91.875" y="245.6189">created by</text><text fill="#000000" font-family="sans-serif" font-size="16.25" lengthAdjust="spacing" textLength="8.75" x="65.1943" y="216.8049">1</text><text fill="#000000" font-family="sans-serif" font-size="16.25" lengthAdjust="spacing" textLength="6.25" x="67.6465" y="273.9303">*</text><!--MD5=[9e2b536d5f14dafa66c4d5113ebdcad2]
link Category to Parameter--><path codeLine="8" d="M74.375,400.3625 C74.375,432.425 74.375,471.475 74.375,497.4875 " fill="none" id="Category-Parameter" style="stroke:#A80036;stroke-width:1.25;"/><polygon fill="#000000" points="80.625,442.7197,76.9513,454.0261,84.2987,454.0261,80.625,442.7197" style="stroke:#000000;stroke-width:1.25;"/><text fill="#000000" font-family="sans-serif" font-size="16.25" lengthAdjust="spacing" textLength="116.25" x="91.875" y="455.6189">presented under</text><text fill="#000000" font-family="sans-serif" font-size="16.25" lengthAdjust="spacing" textLength="8.75" x="65.0371" y="426.2533">1</text><text fill="#000000" font-family="sans-serif" font-size="16.25" lengthAdjust="spacing" textLength="6.25" x="67.3242" y="484.1595">*</text><!--MD5=[a19bb7192dbd5287bce029eaf2f4cccf]
@startuml
'https://plantuml.com/class-diagram

class Administrator
class Category
class Parameter

Administrator "1" - - "*" Category : < created by
Category "1" - - "*" Parameter : < presented under

skinparam classAttributeIconSize 0

class Administrator{
-name
-address
-phoneNumber
-employeeID
-orgRole
-email
-SOCcode
}

class Category{
-code
-description
-nhsID
}

class Parameter{
}

@enduml

@startuml

class Administrator
class Category
class Parameter

Administrator "1" - - "*" Category : < created by
Category "1" - - "*" Parameter : < presented under

skinparam classAttributeIconSize 0

class Administrator{
-name
-address
-phoneNumber
-employeeID
-orgRole
-email
-SOCcode
}

class Category{
-code
-description
-nhsID
}

class Parameter{
}

@enduml

PlantUML version 1.2021.2(Sun Mar 07 11:10:27 GMT 2021)
(GPL source distribution)
Java Runtime: OpenJDK Runtime Environment
JVM: OpenJDK 64-Bit Server VM
Default Encoding: Cp1252
Language: pt
Country: PT
--></g></svg>