<?xml version="1.0" encoding="UTF-8" standalone="no"?><svg xmlns="http://www.w3.org/2000/svg" xmlns:xlink="http://www.w3.org/1999/xlink" contentScriptType="application/ecmascript" contentStyleType="text/css" height="985px" preserveAspectRatio="none" style="width:1270px;height:985px;" version="1.1" viewBox="0 0 1270 985" width="1270px" zoomAndPan="magnify"><defs><filter height="300%" id="f6g1llzfs881e" width="300%" x="-1" y="-1"><feGaussianBlur result="blurOut" stdDeviation="2.5"/><feColorMatrix in="blurOut" result="blurOut2" type="matrix" values="0 0 0 0 0 0 0 0 0 0 0 0 0 0 0 0 0 0 .4 0"/><feOffset dx="5.0" dy="5.0" in="blurOut2" result="blurOut3"/><feBlend in="SourceGraphic" in2="blurOut3" mode="normal"/></filter></defs><g><!--MD5=[be7802b157a16874d39c59ca0e2b25be]
class ParameterStore--><rect codeLine="4" fill="#FEFECE" filter="url(#f6g1llzfs881e)" height="146.4746" id="ParameterStore" style="stroke:#A80036;stroke-width:1.875;" width="346.25" x="70.2125" y="595"/><ellipse cx="183.65" cy="615" fill="#ADD1B2" rx="13.75" ry="13.75" style="stroke:#A80036;stroke-width:1.25;"/><path d="M186.15,610.625 Q186.4039,610 186.6969,609.6875 Q186.9898,609.375 187.3219,609.375 Q187.9078,609.375 188.2789,609.7266 Q188.65,610.0781 188.65,610.8984 L188.65,612.8516 Q188.65,613.6719 188.2984,614.0234 Q187.9469,614.375 187.4,614.375 Q186.9117,614.375 186.5992,614.1602 Q186.2867,613.9453 186.15,613.3789 Q186.0914,612.9883 185.8766,612.7734 Q185.4859,612.3633 184.7828,612.1289 Q184.0797,611.875 183.3766,611.875 Q182.4977,611.875 181.7555,612.2266 Q181.0328,612.5781 180.4664,613.3594 Q179.9,614.1406 179.9,615.2148 L179.9,616.3672 Q179.9,617.6563 180.9547,618.5156 Q182.0094,619.375 183.8844,619.375 Q184.9977,619.375 185.7789,619.1211 Q186.2281,618.9844 186.7359,618.5352 Q187.068,618.2813 187.2438,618.2031 Q187.4195,618.125 187.6344,618.125 Q188.0445,618.125 188.3375,618.457 Q188.65,618.7695 188.65,619.2188 Q188.65,619.6484 188.2203,620.1563 Q187.5953,620.8984 186.5992,621.3086 Q185.2906,621.875 183.6891,621.875 Q181.8141,621.875 180.3102,621.1328 Q179.0992,620.5469 178.2398,619.2773 Q177.4,618.0078 177.4,616.5039 L177.4,615.1367 Q177.4,613.5742 178.1422,612.207 Q178.9039,610.8398 180.2125,610.1172 Q181.5406,609.375 183.025,609.375 Q183.9234,609.375 184.7047,609.6875 Q185.4859,610 186.15,610.625 Z " fill="#000000"/><text fill="#000000" font-family="sans-serif" font-size="15" lengthAdjust="spacing" textLength="108.75" x="209.275" y="621.1377">ParameterStore</text><line style="stroke:#A80036;stroke-width:1.875;" x1="71.4625" x2="415.2125" y1="635" y2="635"/><line style="stroke:#A80036;stroke-width:1.875;" x1="71.4625" x2="415.2125" y1="645" y2="645"/><text fill="#000000" font-family="sans-serif" font-size="13.75" lengthAdjust="spacing" textLength="331.25" x="77.7125" y="664.2737">+createParameter(code, designation, description, pcat)</text><text fill="#000000" font-family="sans-serif" font-size="13.75" lengthAdjust="spacing" textLength="170" x="77.7125" y="681.5686">+saveParameter(parameter)</text><text fill="#000000" font-family="sans-serif" font-size="13.75" lengthAdjust="spacing" textLength="122.5" x="77.7125" y="698.8635">-validate(parameter)</text><text fill="#000000" font-family="sans-serif" font-size="13.75" lengthAdjust="spacing" textLength="98.75" x="77.7125" y="716.1584">-add(parameter)</text><text fill="#000000" font-family="sans-serif" font-size="13.75" lengthAdjust="spacing" textLength="120" x="77.7125" y="733.4534">+getAllParameters()</text><!--MD5=[d802db621b5b215a6f0466f93cefcb42]
class ParameterCategoryStore--><rect codeLine="12" fill="#FEFECE" filter="url(#f6g1llzfs881e)" height="94.5898" id="ParameterCategoryStore" style="stroke:#A80036;stroke-width:1.875;" width="245" x="460.8375" y="620.625"/><ellipse cx="495.3375" cy="640.625" fill="#ADD1B2" rx="13.75" ry="13.75" style="stroke:#A80036;stroke-width:1.25;"/><path d="M497.8375,636.25 Q498.0914,635.625 498.3844,635.3125 Q498.6773,635 499.0094,635 Q499.5953,635 499.9664,635.3516 Q500.3375,635.7031 500.3375,636.5234 L500.3375,638.4766 Q500.3375,639.2969 499.9859,639.6484 Q499.6344,640 499.0875,640 Q498.5992,640 498.2867,639.7852 Q497.9742,639.5703 497.8375,639.0039 Q497.7789,638.6133 497.5641,638.3984 Q497.1734,637.9883 496.4703,637.7539 Q495.7672,637.5 495.0641,637.5 Q494.1852,637.5 493.443,637.8516 Q492.7203,638.2031 492.1539,638.9844 Q491.5875,639.7656 491.5875,640.8398 L491.5875,641.9922 Q491.5875,643.2813 492.6422,644.1406 Q493.6969,645 495.5719,645 Q496.6852,645 497.4664,644.7461 Q497.9156,644.6094 498.4234,644.1602 Q498.7555,643.9063 498.9313,643.8281 Q499.107,643.75 499.3219,643.75 Q499.732,643.75 500.025,644.082 Q500.3375,644.3945 500.3375,644.8438 Q500.3375,645.2734 499.9078,645.7813 Q499.2828,646.5234 498.2867,646.9336 Q496.9781,647.5 495.3766,647.5 Q493.5016,647.5 491.9977,646.7578 Q490.7867,646.1719 489.9273,644.9023 Q489.0875,643.6328 489.0875,642.1289 L489.0875,640.7617 Q489.0875,639.1992 489.8297,637.832 Q490.5914,636.4648 491.9,635.7422 Q493.2281,635 494.7125,635 Q495.6109,635 496.3922,635.3125 Q497.1734,635.625 497.8375,636.25 Z " fill="#000000"/><text fill="#000000" font-family="sans-serif" font-size="15" lengthAdjust="spacing" textLength="170" x="516.3375" y="646.7627">ParameterCategoryStore</text><line style="stroke:#A80036;stroke-width:1.875;" x1="462.0875" x2="704.5875" y1="660.625" y2="660.625"/><line style="stroke:#A80036;stroke-width:1.875;" x1="462.0875" x2="704.5875" y1="670.625" y2="670.625"/><text fill="#000000" font-family="sans-serif" font-size="13.75" lengthAdjust="spacing" textLength="177.5" x="468.3375" y="689.8987">+getAllParameterCategories()</text><text fill="#000000" font-family="sans-serif" font-size="13.75" lengthAdjust="spacing" textLength="230" x="468.3375" y="707.1936">+getParameterCategoryByCode(code)</text><!--MD5=[1f6362a5c8f21d8d6a0fce68f3a92a4e]
class Parameter--><rect codeLine="18" fill="#FEFECE" filter="url(#f6g1llzfs881e)" height="129.1797" id="Parameter" style="stroke:#A80036;stroke-width:1.875;" width="296.25" x="645.2125" y="838.75"/><ellipse cx="751.775" cy="858.75" fill="#ADD1B2" rx="13.75" ry="13.75" style="stroke:#A80036;stroke-width:1.25;"/><path d="M754.275,854.375 Q754.5289,853.75 754.8219,853.4375 Q755.1148,853.125 755.4469,853.125 Q756.0328,853.125 756.4039,853.4766 Q756.775,853.8281 756.775,854.6484 L756.775,856.6016 Q756.775,857.4219 756.4234,857.7734 Q756.0719,858.125 755.525,858.125 Q755.0367,858.125 754.7242,857.9102 Q754.4117,857.6953 754.275,857.1289 Q754.2164,856.7383 754.0016,856.5234 Q753.6109,856.1133 752.9078,855.8789 Q752.2047,855.625 751.5016,855.625 Q750.6227,855.625 749.8805,855.9766 Q749.1578,856.3281 748.5914,857.1094 Q748.025,857.8906 748.025,858.9648 L748.025,860.1172 Q748.025,861.4063 749.0797,862.2656 Q750.1344,863.125 752.0094,863.125 Q753.1227,863.125 753.9039,862.8711 Q754.3531,862.7344 754.8609,862.2852 Q755.193,862.0313 755.3688,861.9531 Q755.5445,861.875 755.7594,861.875 Q756.1695,861.875 756.4625,862.207 Q756.775,862.5195 756.775,862.9688 Q756.775,863.3984 756.3453,863.9063 Q755.7203,864.6484 754.7242,865.0586 Q753.4156,865.625 751.8141,865.625 Q749.9391,865.625 748.4352,864.8828 Q747.2242,864.2969 746.3648,863.0273 Q745.525,861.7578 745.525,860.2539 L745.525,858.8867 Q745.525,857.3242 746.2672,855.957 Q747.0289,854.5898 748.3375,853.8672 Q749.6656,853.125 751.15,853.125 Q752.0484,853.125 752.8297,853.4375 Q753.6109,853.75 754.275,854.375 Z " fill="#000000"/><text fill="#000000" font-family="sans-serif" font-size="15" lengthAdjust="spacing" textLength="72.5" x="777.4" y="864.8877">Parameter</text><line style="stroke:#A80036;stroke-width:1.875;" x1="646.4625" x2="940.2125" y1="878.75" y2="878.75"/><text fill="#000000" font-family="sans-serif" font-size="13.75" lengthAdjust="spacing" textLength="112.5" x="652.7125" y="898.0237">-String designation</text><text fill="#000000" font-family="sans-serif" font-size="13.75" lengthAdjust="spacing" textLength="110" x="652.7125" y="915.3186">-String description</text><text fill="#000000" font-family="sans-serif" font-size="13.75" lengthAdjust="spacing" textLength="73.75" x="652.7125" y="932.6135">-String code</text><line style="stroke:#A80036;stroke-width:1.875;" x1="646.4625" x2="940.2125" y1="940.6348" y2="940.6348"/><text fill="#000000" font-family="sans-serif" font-size="13.75" lengthAdjust="spacing" textLength="281.25" x="652.7125" y="959.9084">+Parameter(code,description,designation,pcat)</text><!--MD5=[02e4b9b7573f1156f41e60aa5b4e25a4]
class Company--><rect codeLine="25" fill="#FEFECE" filter="url(#f6g1llzfs881e)" height="111.8848" id="Company" style="stroke:#A80036;stroke-width:1.875;" width="200" x="693.3375" y="385"/><ellipse cx="754.9" cy="405" fill="#ADD1B2" rx="13.75" ry="13.75" style="stroke:#A80036;stroke-width:1.25;"/><path d="M757.4,400.625 Q757.6539,400 757.9469,399.6875 Q758.2398,399.375 758.5719,399.375 Q759.1578,399.375 759.5289,399.7266 Q759.9,400.0781 759.9,400.8984 L759.9,402.8516 Q759.9,403.6719 759.5484,404.0234 Q759.1969,404.375 758.65,404.375 Q758.1617,404.375 757.8492,404.1602 Q757.5367,403.9453 757.4,403.3789 Q757.3414,402.9883 757.1266,402.7734 Q756.7359,402.3633 756.0328,402.1289 Q755.3297,401.875 754.6266,401.875 Q753.7477,401.875 753.0055,402.2266 Q752.2828,402.5781 751.7164,403.3594 Q751.15,404.1406 751.15,405.2148 L751.15,406.3672 Q751.15,407.6563 752.2047,408.5156 Q753.2594,409.375 755.1344,409.375 Q756.2477,409.375 757.0289,409.1211 Q757.4781,408.9844 757.9859,408.5352 Q758.318,408.2813 758.4938,408.2031 Q758.6695,408.125 758.8844,408.125 Q759.2945,408.125 759.5875,408.457 Q759.9,408.7695 759.9,409.2188 Q759.9,409.6484 759.4703,410.1563 Q758.8453,410.8984 757.8492,411.3086 Q756.5406,411.875 754.9391,411.875 Q753.0641,411.875 751.5602,411.1328 Q750.3492,410.5469 749.4898,409.2773 Q748.65,408.0078 748.65,406.5039 L748.65,405.1367 Q748.65,403.5742 749.3922,402.207 Q750.1539,400.8398 751.4625,400.1172 Q752.7906,399.375 754.275,399.375 Q755.1734,399.375 755.9547,399.6875 Q756.7359,400 757.4,400.625 Z " fill="#000000"/><text fill="#000000" font-family="sans-serif" font-size="15" lengthAdjust="spacing" textLength="66.25" x="780.525" y="411.1377">Company</text><line style="stroke:#A80036;stroke-width:1.875;" x1="694.5875" x2="892.0875" y1="425" y2="425"/><text fill="#000000" font-family="sans-serif" font-size="13.75" lengthAdjust="spacing" textLength="112.5" x="700.8375" y="444.2737">-String designation</text><line style="stroke:#A80036;stroke-width:1.875;" x1="694.5875" x2="892.0875" y1="452.2949" y2="452.2949"/><text fill="#000000" font-family="sans-serif" font-size="13.75" lengthAdjust="spacing" textLength="185" x="700.8375" y="471.5686">+getParameterCategoryStore()</text><text fill="#000000" font-family="sans-serif" font-size="13.75" lengthAdjust="spacing" textLength="130" x="700.8375" y="488.8635">+getParameterStore()</text><!--MD5=[36afb6bbd95a8ac778c4537c55a683d5]
class ParameterCategory--><rect codeLine="31" fill="#FEFECE" filter="url(#f6g1llzfs881e)" height="111.8848" id="ParameterCategory" style="stroke:#A80036;stroke-width:1.875;" width="218.75" x="1003.9625" y="611.875"/><ellipse cx="1042.9625" cy="631.875" fill="#ADD1B2" rx="13.75" ry="13.75" style="stroke:#A80036;stroke-width:1.25;"/><path d="M1045.4625,627.5 Q1045.7164,626.875 1046.0094,626.5625 Q1046.3023,626.25 1046.6344,626.25 Q1047.2203,626.25 1047.5914,626.6016 Q1047.9625,626.9531 1047.9625,627.7734 L1047.9625,629.7266 Q1047.9625,630.5469 1047.6109,630.8984 Q1047.2594,631.25 1046.7125,631.25 Q1046.2242,631.25 1045.9117,631.0352 Q1045.5992,630.8203 1045.4625,630.2539 Q1045.4039,629.8633 1045.1891,629.6484 Q1044.7984,629.2383 1044.0953,629.0039 Q1043.3922,628.75 1042.6891,628.75 Q1041.8102,628.75 1041.068,629.1016 Q1040.3453,629.4531 1039.7789,630.2344 Q1039.2125,631.0156 1039.2125,632.0898 L1039.2125,633.2422 Q1039.2125,634.5313 1040.2672,635.3906 Q1041.3219,636.25 1043.1969,636.25 Q1044.3102,636.25 1045.0914,635.9961 Q1045.5406,635.8594 1046.0484,635.4102 Q1046.3805,635.1563 1046.5563,635.0781 Q1046.732,635 1046.9469,635 Q1047.357,635 1047.65,635.332 Q1047.9625,635.6445 1047.9625,636.0938 Q1047.9625,636.5234 1047.5328,637.0313 Q1046.9078,637.7734 1045.9117,638.1836 Q1044.6031,638.75 1043.0016,638.75 Q1041.1266,638.75 1039.6227,638.0078 Q1038.4117,637.4219 1037.5523,636.1523 Q1036.7125,634.8828 1036.7125,633.3789 L1036.7125,632.0117 Q1036.7125,630.4492 1037.4547,629.082 Q1038.2164,627.7148 1039.525,626.9922 Q1040.8531,626.25 1042.3375,626.25 Q1043.2359,626.25 1044.0172,626.5625 Q1044.7984,626.875 1045.4625,627.5 Z " fill="#000000"/><text fill="#000000" font-family="sans-serif" font-size="15" lengthAdjust="spacing" textLength="133.75" x="1064.9625" y="638.0127">ParameterCategory</text><line style="stroke:#A80036;stroke-width:1.875;" x1="1005.2125" x2="1221.4625" y1="651.875" y2="651.875"/><text fill="#000000" font-family="sans-serif" font-size="13.75" lengthAdjust="spacing" textLength="76.25" x="1011.4625" y="671.1487">-String name</text><text fill="#000000" font-family="sans-serif" font-size="13.75" lengthAdjust="spacing" textLength="73.75" x="1011.4625" y="688.4436">-String code</text><line style="stroke:#A80036;stroke-width:1.875;" x1="1005.2125" x2="1221.4625" y1="696.4648" y2="696.4648"/><text fill="#000000" font-family="sans-serif" font-size="13.75" lengthAdjust="spacing" textLength="203.75" x="1011.4625" y="715.7385">+ParameterCategory(name, code)</text><!--MD5=[fab6cba0d8a30102bb3e071a5ce00b91]
class ParameterCategoryMapper--><rect codeLine="39" fill="#FEFECE" filter="url(#f6g1llzfs881e)" height="77.2949" id="ParameterCategoryMapper" style="stroke:#A80036;stroke-width:1.875;" width="225" x="1028.3375" y="402.5"/><ellipse cx="1047.0875" cy="422.5" fill="#ADD1B2" rx="13.75" ry="13.75" style="stroke:#A80036;stroke-width:1.25;"/><path d="M1049.5875,418.125 Q1049.8414,417.5 1050.1344,417.1875 Q1050.4273,416.875 1050.7594,416.875 Q1051.3453,416.875 1051.7164,417.2266 Q1052.0875,417.5781 1052.0875,418.3984 L1052.0875,420.3516 Q1052.0875,421.1719 1051.7359,421.5234 Q1051.3844,421.875 1050.8375,421.875 Q1050.3492,421.875 1050.0367,421.6602 Q1049.7242,421.4453 1049.5875,420.8789 Q1049.5289,420.4883 1049.3141,420.2734 Q1048.9234,419.8633 1048.2203,419.6289 Q1047.5172,419.375 1046.8141,419.375 Q1045.9352,419.375 1045.193,419.7266 Q1044.4703,420.0781 1043.9039,420.8594 Q1043.3375,421.6406 1043.3375,422.7148 L1043.3375,423.8672 Q1043.3375,425.1563 1044.3922,426.0156 Q1045.4469,426.875 1047.3219,426.875 Q1048.4352,426.875 1049.2164,426.6211 Q1049.6656,426.4844 1050.1734,426.0352 Q1050.5055,425.7813 1050.6812,425.7031 Q1050.857,425.625 1051.0719,425.625 Q1051.482,425.625 1051.775,425.957 Q1052.0875,426.2695 1052.0875,426.7188 Q1052.0875,427.1484 1051.6578,427.6563 Q1051.0328,428.3984 1050.0367,428.8086 Q1048.7281,429.375 1047.1266,429.375 Q1045.2516,429.375 1043.7477,428.6328 Q1042.5367,428.0469 1041.6773,426.7773 Q1040.8375,425.5078 1040.8375,424.0039 L1040.8375,422.6367 Q1040.8375,421.0742 1041.5797,419.707 Q1042.3414,418.3398 1043.65,417.6172 Q1044.9781,416.875 1046.4625,416.875 Q1047.3609,416.875 1048.1422,417.1875 Q1048.9234,417.5 1049.5875,418.125 Z " fill="#000000"/><text fill="#000000" font-family="sans-serif" font-size="15" lengthAdjust="spacing" textLength="185" x="1064.5875" y="428.6377">ParameterCategoryMapper</text><line style="stroke:#A80036;stroke-width:1.875;" x1="1029.5875" x2="1252.0875" y1="442.5" y2="442.5"/><line style="stroke:#A80036;stroke-width:1.875;" x1="1029.5875" x2="1252.0875" y1="452.5" y2="452.5"/><text fill="#000000" font-family="sans-serif" font-size="13.75" lengthAdjust="spacing" textLength="66.25" x="1035.8375" y="471.7737">+toDto(lpc)</text><!--MD5=[b9009a04d919d78a73c2eeec1e385786]
class CreateParameterController--><rect codeLine="44" fill="#FEFECE" filter="url(#f6g1llzfs881e)" height="163.7695" id="CreateParameterController" style="stroke:#A80036;stroke-width:1.875;" width="338.75" x="750.2125" y="145"/><ellipse cx="821.15" cy="165" fill="#ADD1B2" rx="13.75" ry="13.75" style="stroke:#A80036;stroke-width:1.25;"/><path d="M823.65,160.625 Q823.9039,160 824.1969,159.6875 Q824.4898,159.375 824.8219,159.375 Q825.4078,159.375 825.7789,159.7266 Q826.15,160.0781 826.15,160.8984 L826.15,162.8516 Q826.15,163.6719 825.7984,164.0234 Q825.4469,164.375 824.9,164.375 Q824.4117,164.375 824.0992,164.1602 Q823.7867,163.9453 823.65,163.3789 Q823.5914,162.9883 823.3766,162.7734 Q822.9859,162.3633 822.2828,162.1289 Q821.5797,161.875 820.8766,161.875 Q819.9977,161.875 819.2555,162.2266 Q818.5328,162.5781 817.9664,163.3594 Q817.4,164.1406 817.4,165.2148 L817.4,166.3672 Q817.4,167.6563 818.4547,168.5156 Q819.5094,169.375 821.3844,169.375 Q822.4977,169.375 823.2789,169.1211 Q823.7281,168.9844 824.2359,168.5352 Q824.568,168.2813 824.7438,168.2031 Q824.9195,168.125 825.1344,168.125 Q825.5445,168.125 825.8375,168.457 Q826.15,168.7695 826.15,169.2188 Q826.15,169.6484 825.7203,170.1563 Q825.0953,170.8984 824.0992,171.3086 Q822.7906,171.875 821.1891,171.875 Q819.3141,171.875 817.8102,171.1328 Q816.5992,170.5469 815.7398,169.2773 Q814.9,168.0078 814.9,166.5039 L814.9,165.1367 Q814.9,163.5742 815.6422,162.207 Q816.4039,160.8398 817.7125,160.1172 Q819.0406,159.375 820.525,159.375 Q821.4234,159.375 822.2047,159.6875 Q822.9859,160 823.65,160.625 Z " fill="#000000"/><text fill="#000000" font-family="sans-serif" font-size="15" lengthAdjust="spacing" textLength="186.25" x="846.775" y="171.1377">CreateParameterController</text><line style="stroke:#A80036;stroke-width:1.875;" x1="751.4625" x2="1087.7125" y1="185" y2="185"/><line style="stroke:#A80036;stroke-width:1.875;" x1="751.4625" x2="1087.7125" y1="195" y2="195"/><text fill="#000000" font-family="sans-serif" font-size="13.75" lengthAdjust="spacing" textLength="176.25" x="757.7125" y="214.2737">+CreateParameterController()</text><text fill="#000000" font-family="sans-serif" font-size="13.75" lengthAdjust="spacing" textLength="48.75" x="757.7125" y="231.5686">+toDto()</text><text fill="#000000" font-family="sans-serif" font-size="13.75" lengthAdjust="spacing" textLength="230" x="757.7125" y="248.8635">+getParameterCategoryByCode(code)</text><text fill="#000000" font-family="sans-serif" font-size="13.75" lengthAdjust="spacing" textLength="323.75" x="757.7125" y="266.1584">+createParameter(code,designation,description,code)</text><text fill="#000000" font-family="sans-serif" font-size="13.75" lengthAdjust="spacing" textLength="108.75" x="757.7125" y="283.4534">+saveParameter()</text><text fill="#000000" font-family="sans-serif" font-size="13.75" lengthAdjust="spacing" textLength="120" x="757.7125" y="300.7483">+getAllParameters()</text><!--MD5=[5518e6815e09c51d4db6e17774f331d2]
class CreateParameterUI--><rect codeLine="53" fill="#FEFECE" filter="url(#f6g1llzfs881e)" height="60" id="CreateParameterUI" style="stroke:#A80036;stroke-width:1.875;" width="173.75" x="832.7125" y="8.75"/><ellipse cx="851.4625" cy="28.75" fill="#ADD1B2" rx="13.75" ry="13.75" style="stroke:#A80036;stroke-width:1.25;"/><path d="M853.9625,24.375 Q854.2164,23.75 854.5094,23.4375 Q854.8023,23.125 855.1344,23.125 Q855.7203,23.125 856.0914,23.4766 Q856.4625,23.8281 856.4625,24.6484 L856.4625,26.6016 Q856.4625,27.4219 856.1109,27.7734 Q855.7594,28.125 855.2125,28.125 Q854.7242,28.125 854.4117,27.9102 Q854.0992,27.6953 853.9625,27.1289 Q853.9039,26.7383 853.6891,26.5234 Q853.2984,26.1133 852.5953,25.8789 Q851.8922,25.625 851.1891,25.625 Q850.3102,25.625 849.568,25.9766 Q848.8453,26.3281 848.2789,27.1094 Q847.7125,27.8906 847.7125,28.9648 L847.7125,30.1172 Q847.7125,31.4063 848.7672,32.2656 Q849.8219,33.125 851.6969,33.125 Q852.8102,33.125 853.5914,32.8711 Q854.0406,32.7344 854.5484,32.2852 Q854.8805,32.0313 855.0563,31.9531 Q855.232,31.875 855.4469,31.875 Q855.857,31.875 856.15,32.207 Q856.4625,32.5195 856.4625,32.9688 Q856.4625,33.3984 856.0328,33.9063 Q855.4078,34.6484 854.4117,35.0586 Q853.1031,35.625 851.5016,35.625 Q849.6266,35.625 848.1227,34.8828 Q846.9117,34.2969 846.0523,33.0273 Q845.2125,31.7578 845.2125,30.2539 L845.2125,28.8867 Q845.2125,27.3242 845.9547,25.957 Q846.7164,24.5898 848.025,23.8672 Q849.3531,23.125 850.8375,23.125 Q851.7359,23.125 852.5172,23.4375 Q853.2984,23.75 853.9625,24.375 Z " fill="#000000"/><text fill="#000000" font-family="sans-serif" font-size="15" lengthAdjust="spacing" textLength="133.75" x="868.9625" y="34.8877">CreateParameterUI</text><line style="stroke:#A80036;stroke-width:1.875;" x1="833.9625" x2="1005.2125" y1="48.75" y2="48.75"/><line style="stroke:#A80036;stroke-width:1.875;" x1="833.9625" x2="1005.2125" y1="58.75" y2="58.75"/><!--MD5=[9d3dd688f78c4545f26622cd23f9dd25]
link CreateParameterUI to CreateParameterController--><path codeLine="56" d="M919.5875,69 C919.5875,87.8 919.5875,113.375 919.5875,138.4 " fill="none" id="CreateParameterUI-to-CreateParameterController" style="stroke:#A80036;stroke-width:1.25;stroke-dasharray:7.0,7.0;"/><polygon fill="#A80036" points="919.5875,144.75,924.5875,133.5,919.5875,138.5,914.5875,133.5,919.5875,144.75" style="stroke:#A80036;stroke-width:1.25;"/><!--MD5=[094e4a14e6ba8aeac9d4213c7f104300]
link CreateParameterController to ParameterCategory--><path codeLine="57" d="M939.6875,309.1375 C954.625,363.7 977.325,436.5625 1005.8375,497.5 C1023.5625,535.375 1048.3,574.975 1069.5875,606.35 " fill="none" id="CreateParameterController-to-ParameterCategory" style="stroke:#A80036;stroke-width:1.25;stroke-dasharray:7.0,7.0;"/><polygon fill="#A80036" points="1073.2375,611.7125,1071.0038,599.6058,1069.705,606.5565,1062.7543,605.2577,1073.2375,611.7125" style="stroke:#A80036;stroke-width:1.25;"/><!--MD5=[28500599d7d52b0914bd4c3c68a17d33]
link CreateParameterController to ParameterCategoryMapper--><path codeLine="58" d="M1003.8625,308.825 C1035.5,339.125 1070.175,372.3375 1096.725,397.7625 " fill="none" id="CreateParameterController-to-ParameterCategoryMapper" style="stroke:#A80036;stroke-width:1.25;stroke-dasharray:7.0,7.0;"/><polygon fill="#A80036" points="1101.25,402.0875,1096.5764,390.698,1096.7335,397.7674,1089.6642,397.9245,1101.25,402.0875" style="stroke:#A80036;stroke-width:1.25;"/><!--MD5=[c56d23af98be554523068ac4fbdb568e]
link CreateParameterController to Parameter--><path codeLine="59" d="M750.1625,244.7375 C544.1,275.05 204.475,359.825 48.3375,595 C12.3875,649.15 7.5,690.675 48.3375,741.25 C121.05,831.3125 442.4125,873.3 638.5375,890.85 " fill="none" id="CreateParameterController-to-Parameter" style="stroke:#A80036;stroke-width:1.25;stroke-dasharray:7.0,7.0;"/><polygon fill="#A80036" points="644.8875,891.425,634.124,885.4492,638.662,890.872,633.2392,895.41,644.8875,891.425" style="stroke:#A80036;stroke-width:1.25;"/><!--MD5=[6d585fb02c26694275539b4f1508918e]
link CreateParameterController to Company--><path codeLine="60" d="M871.5,308.825 C857.5625,332.225 842.575,357.3625 829.5,379.3125 " fill="none" id="CreateParameterController-to-Company" style="stroke:#A80036;stroke-width:1.25;stroke-dasharray:7.0,7.0;"/><polygon fill="#A80036" points="826.2125,384.8125,836.2602,377.6988,829.4071,379.4406,827.6652,372.5874,826.2125,384.8125" style="stroke:#A80036;stroke-width:1.25;"/><!--MD5=[daf3d7412afa2c7651483be0b6e971d1]
link Company to ParameterStore--><path codeLine="61" d="M693.1,483.3875 C617.7625,514.125 512.5375,557.05 422.8,593.6625 " fill="none" id="Company-to-ParameterStore" style="stroke:#A80036;stroke-width:1.25;stroke-dasharray:7.0,7.0;"/><polygon fill="#A80036" points="416.9125,596.0625,429.2175,596.4484,422.7006,593.7044,425.4446,587.1874,416.9125,596.0625" style="stroke:#A80036;stroke-width:1.25;"/><!--MD5=[d53d7490e5836ca5709858d7326f212b]
link Company to ParameterCategoryStore--><path codeLine="62" d="M741.425,497.9625 C707.7125,533.975 664.1,580.5875 631.225,615.7125 " fill="none" id="Company-to-ParameterCategoryStore" style="stroke:#A80036;stroke-width:1.25;stroke-dasharray:7.0,7.0;"/><polygon fill="#A80036" points="626.8625,620.375,638.2039,615.5859,631.1365,615.8148,630.9076,608.7475,626.8625,620.375" style="stroke:#A80036;stroke-width:1.25;"/><!--MD5=[12d76240d3c3c66074d4ec2ea8bf469c]
link Company to Parameter--><path codeLine="64" d="M793.3375,497.9125 C793.3375,583.7 793.3375,748.175 793.3375,838.5375 " fill="none" id="Company-Parameter" style="stroke:#A80036;stroke-width:1.25;"/><polygon fill="#000000" points="799.5875,674.5947,803.2612,663.2884,795.9138,663.2884,799.5875,674.5947" style="stroke:#000000;stroke-width:1.25;"/><text fill="#000000" font-family="sans-serif" font-size="16.25" lengthAdjust="spacing" textLength="147.5" x="810.8375" y="674.9939">capable of analysing</text><text fill="#000000" font-family="sans-serif" font-size="16.25" lengthAdjust="spacing" textLength="8.75" x="783.9996" y="523.81">1</text><text fill="#000000" font-family="sans-serif" font-size="16.25" lengthAdjust="spacing" textLength="6.25" x="786.6676" y="825.3844">*</text><!--MD5=[93b4f25fb503a8e0e9a46b1d30ff3f44]
link Company to ParameterCategory--><path codeLine="65" d="M816.4875,498.0375 C827.6125,519.1125 842.7875,541.775 862.0875,557.5 C901.3125,589.4625 922.975,575.3125 969.5875,595 C981.8,600.1625 994.425,605.875 1006.9,611.7625 " fill="none" id="Company-ParameterCategory" style="stroke:#A80036;stroke-width:1.25;"/><polygon fill="#000000" points="873.7033,549.6745,865.8802,540.7231,862.1128,547.031,873.7033,549.6745" style="stroke:#000000;stroke-width:1.25;"/><text fill="#000000" font-family="sans-serif" font-size="16.25" lengthAdjust="spacing" textLength="48.75" x="879.5875" y="553.1189">adopts</text><text fill="#000000" font-family="sans-serif" font-size="16.25" lengthAdjust="spacing" textLength="8.75" x="810.2604" y="523.9518">1</text><text fill="#000000" font-family="sans-serif" font-size="16.25" lengthAdjust="spacing" textLength="6.25" x="987.9818" y="601.0192">*</text><!--MD5=[7a9e3e328fb1db48284e23a673c1e60d]
link ParameterCategory to Parameter--><path codeLine="66" d="M1037.5,724.475 C990.375,758.7125 929.625,802.85 880.5125,838.5375 " fill="none" id="ParameterCategory-Parameter" style="stroke:#A80036;stroke-width:1.25;"/><polygon fill="#000000" points="964.6438,786.546,953.3375,790.2198,957.6563,796.1639,964.6438,786.546" style="stroke:#000000;stroke-width:1.25;"/><text fill="#000000" font-family="sans-serif" font-size="16.25" lengthAdjust="spacing" textLength="116.25" x="970.8375" y="796.8689">presented under</text><text fill="#000000" font-family="sans-serif" font-size="16.25" lengthAdjust="spacing" textLength="8.75" x="1017.4701" y="750.7485">1</text><text fill="#000000" font-family="sans-serif" font-size="16.25" lengthAdjust="spacing" textLength="6.25" x="885.5567" y="825.3844">*</text><!--MD5=[df23eff66d0875313ce60a693b0a05eb]
@startuml
skinparam classAttributeIconSize 0


class ParameterStore{
  +createParameter(code, designation, description, pcat)
  +saveParameter(parameter)
  -validate(parameter)
  -add(parameter)
  +getAllParameters()
}

class ParameterCategoryStore{
  +getAllParameterCategories()
  +getParameterCategoryByCode(code)
}


class Parameter {
  - String designation
  - String description
  - String code
  +Parameter(code,description,designation,pcat)
}

class Company {
  -String designation
  +getParameterCategoryStore()
  +getParameterStore()
}

class ParameterCategory {
  -String name
  -String code
  +ParameterCategory(name, code)
}



class ParameterCategoryMapper{
  +toDto(lpc)
}


class CreateParameterController {
  +CreateParameterController()
  +toDto()
  +getParameterCategoryByCode(code)
  +createParameter(code,designation,description,code)
  +saveParameter()
  +getAllParameters()
}

class CreateParameterUI {
}

CreateParameterUI ..> CreateParameterController
CreateParameterController ..> ParameterCategory
CreateParameterController ..> ParameterCategoryMapper
CreateParameterController ..> Parameter
CreateParameterController ..> Company
Company ..> ParameterStore
Company ..> ParameterCategoryStore

Company "1" - - "*" Parameter : > capable of analysing
Company "1" - - "*" ParameterCategory : > adopts
ParameterCategory "1" - - "*" Parameter : < presented under



@enduml

PlantUML version 1.2021.2(Sun Mar 07 11:10:27 GMT 2021)
(GPL source distribution)
Java Runtime: OpenJDK Runtime Environment
JVM: OpenJDK 64-Bit Server VM
Default Encoding: Cp1252
Language: pt
Country: PT
--></g></svg>