<?xml version="1.0" encoding="UTF-8" standalone="no"?><svg xmlns="http://www.w3.org/2000/svg" xmlns:xlink="http://www.w3.org/1999/xlink" contentScriptType="application/ecmascript" contentStyleType="text/css" height="867.39px" preserveAspectRatio="none" style="width:592px;height:867px;" version="1.1" viewBox="0 0 592 867" width="592.47px" zoomAndPan="magnify"><defs><filter height="300%" id="fb9ndtwg9ti06" width="300%" x="-1" y="-1"><feGaussianBlur result="blurOut" stdDeviation="1.74"/><feColorMatrix in="blurOut" result="blurOut2" type="matrix" values="0 0 0 0 0 0 0 0 0 0 0 0 0 0 0 0 0 0 .4 0"/><feOffset dx="3.48" dy="3.48" in="blurOut2" result="blurOut3"/><feBlend in="SourceGraphic" in2="blurOut3" mode="normal"/></filter></defs><g><!--MD5=[be7802b157a16874d39c59ca0e2b25be]
class ParameterStore--><rect codeLine="4" fill="#FEFECE" filter="url(#fb9ndtwg9ti06)" height="101.9463" id="ParameterStore" style="stroke:#A80036;stroke-width:1.305;" width="240.99" x="6.09" y="491.55"/><ellipse cx="85.0425" cy="505.47" fill="#ADD1B2" rx="9.57" ry="9.57" style="stroke:#A80036;stroke-width:0.87;"/><path d="M86.7825,502.425 Q86.9592,501.99 87.1631,501.7725 Q87.367,501.555 87.5981,501.555 Q88.0059,501.555 88.2642,501.7997 Q88.5225,502.0444 88.5225,502.6153 L88.5225,503.9747 Q88.5225,504.5456 88.2778,504.7903 Q88.0331,505.035 87.6525,505.035 Q87.3127,505.035 87.0952,504.8855 Q86.8777,504.7359 86.7825,504.3417 Q86.7417,504.0698 86.5922,503.9203 Q86.3203,503.6348 85.8309,503.4717 Q85.3416,503.295 84.8522,503.295 Q84.2405,503.295 83.7239,503.5397 Q83.2209,503.7844 82.8267,504.3281 Q82.4325,504.8719 82.4325,505.6195 L82.4325,506.4216 Q82.4325,507.3188 83.1666,507.9169 Q83.9006,508.515 85.2056,508.515 Q85.9805,508.515 86.5242,508.3383 Q86.8369,508.2431 87.1903,507.9305 Q87.4214,507.7538 87.5438,507.6994 Q87.6661,507.645 87.8156,507.645 Q88.1011,507.645 88.305,507.8761 Q88.5225,508.0936 88.5225,508.4063 Q88.5225,508.7053 88.2234,509.0588 Q87.7884,509.5753 87.0952,509.8608 Q86.1844,510.255 85.0697,510.255 Q83.7647,510.255 82.718,509.7384 Q81.8752,509.3306 81.277,508.447 Q80.6925,507.5634 80.6925,506.5167 L80.6925,505.5652 Q80.6925,504.4777 81.2091,503.5261 Q81.7392,502.5745 82.65,502.0716 Q83.5744,501.555 84.6075,501.555 Q85.2328,501.555 85.7766,501.7725 Q86.3203,501.99 86.7825,502.425 Z " fill="#000000"/><text fill="#000000" font-family="sans-serif" font-size="10.44" lengthAdjust="spacing" textLength="75.69" x="102.8775" y="509.7418">ParameterStore</text><line style="stroke:#A80036;stroke-width:1.305;" x1="6.96" x2="246.21" y1="519.39" y2="519.39"/><line style="stroke:#A80036;stroke-width:1.305;" x1="6.96" x2="246.21" y1="526.35" y2="526.35"/><text fill="#000000" font-family="sans-serif" font-size="9.57" lengthAdjust="spacing" textLength="230.55" x="11.31" y="539.7645">+createParameter(code, designation, description, pcat)</text><text fill="#000000" font-family="sans-serif" font-size="9.57" lengthAdjust="spacing" textLength="118.32" x="11.31" y="551.8017">+saveParameter(parameter)</text><text fill="#000000" font-family="sans-serif" font-size="9.57" lengthAdjust="spacing" textLength="85.26" x="11.31" y="563.839">-validate(parameter)</text><text fill="#000000" font-family="sans-serif" font-size="9.57" lengthAdjust="spacing" textLength="68.73" x="11.31" y="575.8763">-add(parameter)</text><text fill="#000000" font-family="sans-serif" font-size="9.57" lengthAdjust="spacing" textLength="83.52" x="11.31" y="587.9135">+getAllParameters()</text><!--MD5=[d802db621b5b215a6f0466f93cefcb42]
class ParameterCategoryStore--><rect codeLine="12" fill="#FEFECE" filter="url(#fb9ndtwg9ti06)" height="65.8345" id="ParameterCategoryStore" style="stroke:#A80036;stroke-width:1.305;" width="170.52" x="328.425" y="399.33"/><ellipse cx="352.437" cy="413.25" fill="#ADD1B2" rx="9.57" ry="9.57" style="stroke:#A80036;stroke-width:0.87;"/><path d="M354.177,410.205 Q354.3537,409.77 354.5576,409.5525 Q354.7615,409.335 354.9926,409.335 Q355.4004,409.335 355.6587,409.5797 Q355.917,409.8244 355.917,410.3953 L355.917,411.7547 Q355.917,412.3256 355.6723,412.5703 Q355.4276,412.815 355.047,412.815 Q354.7072,412.815 354.4897,412.6655 Q354.2722,412.5159 354.177,412.1217 Q354.1362,411.8498 353.9867,411.7003 Q353.7148,411.4148 353.2254,411.2517 Q352.7361,411.075 352.2467,411.075 Q351.635,411.075 351.1184,411.3197 Q350.6154,411.5644 350.2212,412.1081 Q349.827,412.6519 349.827,413.3995 L349.827,414.2016 Q349.827,415.0988 350.5611,415.6969 Q351.2951,416.295 352.6001,416.295 Q353.375,416.295 353.9187,416.1183 Q354.2314,416.0231 354.5848,415.7105 Q354.8159,415.5338 354.9383,415.4794 Q355.0606,415.425 355.2101,415.425 Q355.4956,415.425 355.6995,415.6561 Q355.917,415.8736 355.917,416.1863 Q355.917,416.4853 355.6179,416.8388 Q355.1829,417.3553 354.4897,417.6408 Q353.5789,418.035 352.4642,418.035 Q351.1592,418.035 350.1125,417.5184 Q349.2697,417.1106 348.6715,416.227 Q348.087,415.3434 348.087,414.2967 L348.087,413.3452 Q348.087,412.2577 348.6036,411.3061 Q349.1337,410.3545 350.0445,409.8516 Q350.9689,409.335 352.002,409.335 Q352.6273,409.335 353.1711,409.5525 Q353.7148,409.77 354.177,410.205 Z " fill="#000000"/><text fill="#000000" font-family="sans-serif" font-size="10.44" lengthAdjust="spacing" textLength="118.32" x="367.053" y="417.5218">ParameterCategoryStore</text><line style="stroke:#A80036;stroke-width:1.305;" x1="329.295" x2="498.075" y1="427.17" y2="427.17"/><line style="stroke:#A80036;stroke-width:1.305;" x1="329.295" x2="498.075" y1="434.13" y2="434.13"/><text fill="#000000" font-family="sans-serif" font-size="9.57" lengthAdjust="spacing" textLength="123.54" x="333.645" y="447.5445">+getAllParameterCategories()</text><text fill="#000000" font-family="sans-serif" font-size="9.57" lengthAdjust="spacing" textLength="160.08" x="333.645" y="459.5817">+getParameterCategoryByCode(code)</text><!--MD5=[1f6362a5c8f21d8d6a0fce68f3a92a4e]
class Parameter--><rect codeLine="18" fill="#FEFECE" filter="url(#fb9ndtwg9ti06)" height="89.9091" id="Parameter" style="stroke:#A80036;stroke-width:1.305;" width="206.19" x="179.22" y="765.6"/><ellipse cx="253.3875" cy="779.52" fill="#ADD1B2" rx="9.57" ry="9.57" style="stroke:#A80036;stroke-width:0.87;"/><path d="M255.1275,776.475 Q255.3042,776.04 255.5081,775.8225 Q255.712,775.605 255.9431,775.605 Q256.3509,775.605 256.6092,775.8497 Q256.8675,776.0944 256.8675,776.6653 L256.8675,778.0247 Q256.8675,778.5956 256.6228,778.8403 Q256.3781,779.085 255.9975,779.085 Q255.6577,779.085 255.4402,778.9355 Q255.2227,778.7859 255.1275,778.3917 Q255.0867,778.1198 254.9372,777.9703 Q254.6653,777.6848 254.1759,777.5217 Q253.6866,777.345 253.1972,777.345 Q252.5855,777.345 252.0689,777.5897 Q251.5659,777.8344 251.1717,778.3781 Q250.7775,778.9219 250.7775,779.6695 L250.7775,780.4716 Q250.7775,781.3688 251.5116,781.9669 Q252.2456,782.565 253.5506,782.565 Q254.3255,782.565 254.8692,782.3883 Q255.1819,782.2931 255.5353,781.9805 Q255.7664,781.8038 255.8888,781.7494 Q256.0111,781.695 256.1606,781.695 Q256.4461,781.695 256.65,781.9261 Q256.8675,782.1436 256.8675,782.4563 Q256.8675,782.7553 256.5684,783.1088 Q256.1334,783.6253 255.4402,783.9108 Q254.5294,784.305 253.4147,784.305 Q252.1097,784.305 251.063,783.7884 Q250.2202,783.3806 249.622,782.497 Q249.0375,781.6134 249.0375,780.5667 L249.0375,779.6152 Q249.0375,778.5277 249.5541,777.5761 Q250.0842,776.6245 250.995,776.1216 Q251.9194,775.605 252.9525,775.605 Q253.5778,775.605 254.1216,775.8225 Q254.6653,776.04 255.1275,776.475 Z " fill="#000000"/><text fill="#000000" font-family="sans-serif" font-size="10.44" lengthAdjust="spacing" textLength="50.46" x="271.2225" y="783.7918">Parameter</text><line style="stroke:#A80036;stroke-width:1.305;" x1="180.09" x2="384.54" y1="793.44" y2="793.44"/><text fill="#000000" font-family="sans-serif" font-size="9.57" lengthAdjust="spacing" textLength="78.3" x="184.44" y="806.8545">-String designation</text><text fill="#000000" font-family="sans-serif" font-size="9.57" lengthAdjust="spacing" textLength="76.56" x="184.44" y="818.8917">-String description</text><text fill="#000000" font-family="sans-serif" font-size="9.57" lengthAdjust="spacing" textLength="51.33" x="184.44" y="830.929">-String code</text><line style="stroke:#A80036;stroke-width:1.305;" x1="180.09" x2="384.54" y1="836.5118" y2="836.5118"/><text fill="#000000" font-family="sans-serif" font-size="9.57" lengthAdjust="spacing" textLength="195.75" x="184.44" y="849.9263">+Parameter(code,description,designation,pcat)</text><!--MD5=[02e4b9b7573f1156f41e60aa5b4e25a4]
class Company--><rect codeLine="25" fill="#FEFECE" filter="url(#fb9ndtwg9ti06)" height="77.8718" id="Company" style="stroke:#A80036;stroke-width:1.305;" width="139.2" x="254.475" y="267.96"/><ellipse cx="297.3225" cy="281.88" fill="#ADD1B2" rx="9.57" ry="9.57" style="stroke:#A80036;stroke-width:0.87;"/><path d="M299.0625,278.835 Q299.2392,278.4 299.4431,278.1825 Q299.647,277.965 299.8781,277.965 Q300.2859,277.965 300.5442,278.2097 Q300.8025,278.4544 300.8025,279.0253 L300.8025,280.3847 Q300.8025,280.9556 300.5578,281.2003 Q300.3131,281.445 299.9325,281.445 Q299.5927,281.445 299.3752,281.2955 Q299.1577,281.1459 299.0625,280.7517 Q299.0217,280.4798 298.8722,280.3303 Q298.6003,280.0448 298.1109,279.8817 Q297.6216,279.705 297.1322,279.705 Q296.5205,279.705 296.0039,279.9497 Q295.5009,280.1944 295.1067,280.7381 Q294.7125,281.2819 294.7125,282.0295 L294.7125,282.8316 Q294.7125,283.7288 295.4466,284.3269 Q296.1806,284.925 297.4856,284.925 Q298.2605,284.925 298.8042,284.7483 Q299.1169,284.6531 299.4703,284.3405 Q299.7014,284.1638 299.8238,284.1094 Q299.9461,284.055 300.0956,284.055 Q300.3811,284.055 300.585,284.2861 Q300.8025,284.5036 300.8025,284.8163 Q300.8025,285.1153 300.5034,285.4688 Q300.0684,285.9853 299.3752,286.2708 Q298.4644,286.665 297.3497,286.665 Q296.0447,286.665 294.998,286.1484 Q294.1552,285.7406 293.557,284.857 Q292.9725,283.9734 292.9725,282.9267 L292.9725,281.9752 Q292.9725,280.8877 293.4891,279.9361 Q294.0192,278.9845 294.93,278.4816 Q295.8544,277.965 296.8875,277.965 Q297.5128,277.965 298.0566,278.1825 Q298.6003,278.4 299.0625,278.835 Z " fill="#000000"/><text fill="#000000" font-family="sans-serif" font-size="10.44" lengthAdjust="spacing" textLength="46.11" x="315.1575" y="286.1518">Company</text><line style="stroke:#A80036;stroke-width:1.305;" x1="255.345" x2="392.805" y1="295.8" y2="295.8"/><text fill="#000000" font-family="sans-serif" font-size="9.57" lengthAdjust="spacing" textLength="78.3" x="259.695" y="309.2145">-String designation</text><line style="stroke:#A80036;stroke-width:1.305;" x1="255.345" x2="392.805" y1="314.7973" y2="314.7973"/><text fill="#000000" font-family="sans-serif" font-size="9.57" lengthAdjust="spacing" textLength="128.76" x="259.695" y="328.2117">+getParameterCategoryStore()</text><text fill="#000000" font-family="sans-serif" font-size="9.57" lengthAdjust="spacing" textLength="90.48" x="259.695" y="340.249">+getParameterStore()</text><!--MD5=[36afb6bbd95a8ac778c4537c55a683d5]
class ParameterCategory--><rect codeLine="31" fill="#FEFECE" filter="url(#fb9ndtwg9ti06)" height="77.8718" id="ParameterCategory" style="stroke:#A80036;stroke-width:1.305;" width="152.25" x="341.91" y="619.44"/><ellipse cx="369.054" cy="633.36" fill="#ADD1B2" rx="9.57" ry="9.57" style="stroke:#A80036;stroke-width:0.87;"/><path d="M370.794,630.315 Q370.9707,629.88 371.1746,629.6625 Q371.3785,629.445 371.6096,629.445 Q372.0174,629.445 372.2757,629.6897 Q372.534,629.9344 372.534,630.5053 L372.534,631.8647 Q372.534,632.4356 372.2893,632.6803 Q372.0446,632.925 371.664,632.925 Q371.3242,632.925 371.1067,632.7755 Q370.8892,632.6259 370.794,632.2317 Q370.7532,631.9598 370.6037,631.8103 Q370.3318,631.5248 369.8424,631.3617 Q369.3531,631.185 368.8637,631.185 Q368.252,631.185 367.7354,631.4297 Q367.2324,631.6744 366.8382,632.2181 Q366.444,632.7619 366.444,633.5095 L366.444,634.3116 Q366.444,635.2088 367.1781,635.8069 Q367.9121,636.405 369.2171,636.405 Q369.992,636.405 370.5357,636.2283 Q370.8484,636.1331 371.2018,635.8205 Q371.4329,635.6438 371.5553,635.5894 Q371.6776,635.535 371.8271,635.535 Q372.1126,635.535 372.3165,635.7661 Q372.534,635.9836 372.534,636.2963 Q372.534,636.5953 372.2349,636.9488 Q371.7999,637.4653 371.1067,637.7508 Q370.1959,638.145 369.0812,638.145 Q367.7762,638.145 366.7295,637.6284 Q365.8867,637.2206 365.2885,636.337 Q364.704,635.4534 364.704,634.4067 L364.704,633.4552 Q364.704,632.3677 365.2206,631.4161 Q365.7507,630.4645 366.6615,629.9616 Q367.5859,629.445 368.619,629.445 Q369.2443,629.445 369.7881,629.6625 Q370.3318,629.88 370.794,630.315 Z " fill="#000000"/><text fill="#000000" font-family="sans-serif" font-size="10.44" lengthAdjust="spacing" textLength="93.09" x="384.366" y="637.6318">ParameterCategory</text><line style="stroke:#A80036;stroke-width:1.305;" x1="342.78" x2="493.29" y1="647.28" y2="647.28"/><text fill="#000000" font-family="sans-serif" font-size="9.57" lengthAdjust="spacing" textLength="53.07" x="347.13" y="660.6945">-String name</text><text fill="#000000" font-family="sans-serif" font-size="9.57" lengthAdjust="spacing" textLength="51.33" x="347.13" y="672.7317">-String code</text><line style="stroke:#A80036;stroke-width:1.305;" x1="342.78" x2="493.29" y1="678.3145" y2="678.3145"/><text fill="#000000" font-family="sans-serif" font-size="9.57" lengthAdjust="spacing" textLength="141.81" x="347.13" y="691.729">+ParameterCategory(name, code)</text><!--MD5=[fab6cba0d8a30102bb3e071a5ce00b91]
class ParameterCategoryMapper--><rect codeLine="39" fill="#FEFECE" filter="url(#fb9ndtwg9ti06)" height="53.7973" id="ParameterCategoryMapper" style="stroke:#A80036;stroke-width:1.305;" width="156.6" x="424.125" y="280.14"/><ellipse cx="437.175" cy="294.06" fill="#ADD1B2" rx="9.57" ry="9.57" style="stroke:#A80036;stroke-width:0.87;"/><path d="M438.915,291.015 Q439.0917,290.58 439.2956,290.3625 Q439.4995,290.145 439.7306,290.145 Q440.1384,290.145 440.3967,290.3897 Q440.655,290.6344 440.655,291.2053 L440.655,292.5647 Q440.655,293.1356 440.4103,293.3803 Q440.1656,293.625 439.785,293.625 Q439.4452,293.625 439.2277,293.4755 Q439.0102,293.3259 438.915,292.9317 Q438.8742,292.6598 438.7247,292.5103 Q438.4528,292.2248 437.9634,292.0617 Q437.4741,291.885 436.9847,291.885 Q436.373,291.885 435.8564,292.1297 Q435.3534,292.3744 434.9592,292.9181 Q434.565,293.4619 434.565,294.2095 L434.565,295.0116 Q434.565,295.9088 435.2991,296.5069 Q436.0331,297.105 437.3381,297.105 Q438.113,297.105 438.6567,296.9283 Q438.9694,296.8331 439.3228,296.5205 Q439.5539,296.3438 439.6763,296.2894 Q439.7986,296.235 439.9481,296.235 Q440.2336,296.235 440.4375,296.4661 Q440.655,296.6836 440.655,296.9963 Q440.655,297.2953 440.3559,297.6488 Q439.9209,298.1653 439.2277,298.4508 Q438.3169,298.845 437.2022,298.845 Q435.8972,298.845 434.8505,298.3284 Q434.0077,297.9206 433.4095,297.037 Q432.825,296.1534 432.825,295.1067 L432.825,294.1552 Q432.825,293.0677 433.3416,292.1161 Q433.8717,291.1645 434.7825,290.6616 Q435.7069,290.145 436.74,290.145 Q437.3653,290.145 437.9091,290.3625 Q438.4528,290.58 438.915,291.015 Z " fill="#000000"/><text fill="#000000" font-family="sans-serif" font-size="10.44" lengthAdjust="spacing" textLength="128.76" x="449.355" y="298.3318">ParameterCategoryMapper</text><line style="stroke:#A80036;stroke-width:1.305;" x1="424.995" x2="579.855" y1="307.98" y2="307.98"/><line style="stroke:#A80036;stroke-width:1.305;" x1="424.995" x2="579.855" y1="314.94" y2="314.94"/><text fill="#000000" font-family="sans-serif" font-size="9.57" lengthAdjust="spacing" textLength="46.11" x="429.345" y="328.3545">+toDto(lpc)</text><!--MD5=[b9009a04d919d78a73c2eeec1e385786]
class CreateParameterController--><rect codeLine="44" fill="#FEFECE" filter="url(#fb9ndtwg9ti06)" height="113.9836" id="CreateParameterController" style="stroke:#A80036;stroke-width:1.305;" width="235.77" x="294.93" y="100.92"/><ellipse cx="344.3025" cy="114.84" fill="#ADD1B2" rx="9.57" ry="9.57" style="stroke:#A80036;stroke-width:0.87;"/><path d="M346.0425,111.795 Q346.2192,111.36 346.4231,111.1425 Q346.627,110.925 346.8581,110.925 Q347.2659,110.925 347.5242,111.1697 Q347.7825,111.4144 347.7825,111.9853 L347.7825,113.3447 Q347.7825,113.9156 347.5378,114.1603 Q347.2931,114.405 346.9125,114.405 Q346.5727,114.405 346.3552,114.2555 Q346.1377,114.1059 346.0425,113.7117 Q346.0017,113.4398 345.8522,113.2903 Q345.5803,113.0048 345.0909,112.8417 Q344.6016,112.665 344.1122,112.665 Q343.5005,112.665 342.9839,112.9097 Q342.4809,113.1544 342.0867,113.6981 Q341.6925,114.2419 341.6925,114.9895 L341.6925,115.7916 Q341.6925,116.6888 342.4266,117.2869 Q343.1606,117.885 344.4656,117.885 Q345.2405,117.885 345.7842,117.7083 Q346.0969,117.6131 346.4503,117.3005 Q346.6814,117.1238 346.8038,117.0694 Q346.9261,117.015 347.0756,117.015 Q347.3611,117.015 347.565,117.2461 Q347.7825,117.4636 347.7825,117.7763 Q347.7825,118.0753 347.4834,118.4288 Q347.0484,118.9453 346.3552,119.2308 Q345.4444,119.625 344.3297,119.625 Q343.0247,119.625 341.978,119.1084 Q341.1352,118.7006 340.537,117.817 Q339.9525,116.9334 339.9525,115.8867 L339.9525,114.9352 Q339.9525,113.8477 340.4691,112.8961 Q340.9992,111.9445 341.91,111.4416 Q342.8344,110.925 343.8675,110.925 Q344.4928,110.925 345.0366,111.1425 Q345.5803,111.36 346.0425,111.795 Z " fill="#000000"/><text fill="#000000" font-family="sans-serif" font-size="10.44" lengthAdjust="spacing" textLength="129.63" x="362.1375" y="119.1118">CreateParameterController</text><line style="stroke:#A80036;stroke-width:1.305;" x1="295.8" x2="529.83" y1="128.76" y2="128.76"/><line style="stroke:#A80036;stroke-width:1.305;" x1="295.8" x2="529.83" y1="135.72" y2="135.72"/><text fill="#000000" font-family="sans-serif" font-size="9.57" lengthAdjust="spacing" textLength="122.67" x="300.15" y="149.1345">+CreateParameterController()</text><text fill="#000000" font-family="sans-serif" font-size="9.57" lengthAdjust="spacing" textLength="33.93" x="300.15" y="161.1717">+toDto()</text><text fill="#000000" font-family="sans-serif" font-size="9.57" lengthAdjust="spacing" textLength="160.08" x="300.15" y="173.209">+getParameterCategoryByCode(code)</text><text fill="#000000" font-family="sans-serif" font-size="9.57" lengthAdjust="spacing" textLength="225.33" x="300.15" y="185.2463">+createParameter(code,designation,description,code)</text><text fill="#000000" font-family="sans-serif" font-size="9.57" lengthAdjust="spacing" textLength="75.69" x="300.15" y="197.2835">+saveParameter()</text><text fill="#000000" font-family="sans-serif" font-size="9.57" lengthAdjust="spacing" textLength="83.52" x="300.15" y="209.3208">+getAllParameters()</text><!--MD5=[5518e6815e09c51d4db6e17774f331d2]
class CreateParameterUI--><rect codeLine="53" fill="#FEFECE" filter="url(#fb9ndtwg9ti06)" height="41.76" id="CreateParameterUI" style="stroke:#A80036;stroke-width:1.305;" width="120.93" x="352.35" y="6.09"/><ellipse cx="365.4" cy="20.01" fill="#ADD1B2" rx="9.57" ry="9.57" style="stroke:#A80036;stroke-width:0.87;"/><path d="M367.14,16.965 Q367.3167,16.53 367.5206,16.3125 Q367.7245,16.095 367.9556,16.095 Q368.3634,16.095 368.6217,16.3397 Q368.88,16.5844 368.88,17.1553 L368.88,18.5147 Q368.88,19.0856 368.6353,19.3303 Q368.3906,19.575 368.01,19.575 Q367.6702,19.575 367.4527,19.4255 Q367.2352,19.2759 367.14,18.8817 Q367.0992,18.6098 366.9497,18.4603 Q366.6778,18.1748 366.1884,18.0117 Q365.6991,17.835 365.2097,17.835 Q364.598,17.835 364.0814,18.0797 Q363.5784,18.3244 363.1842,18.8681 Q362.79,19.4119 362.79,20.1595 L362.79,20.9616 Q362.79,21.8588 363.5241,22.4569 Q364.2581,23.055 365.5631,23.055 Q366.338,23.055 366.8817,22.8783 Q367.1944,22.7831 367.5478,22.4705 Q367.7789,22.2938 367.9013,22.2394 Q368.0236,22.185 368.1731,22.185 Q368.4586,22.185 368.6625,22.4161 Q368.88,22.6336 368.88,22.9463 Q368.88,23.2453 368.5809,23.5988 Q368.1459,24.1153 367.4527,24.4008 Q366.5419,24.795 365.4272,24.795 Q364.1222,24.795 363.0755,24.2784 Q362.2327,23.8706 361.6345,22.987 Q361.05,22.1034 361.05,21.0567 L361.05,20.1052 Q361.05,19.0177 361.5666,18.0661 Q362.0967,17.1145 363.0075,16.6116 Q363.9319,16.095 364.965,16.095 Q365.5903,16.095 366.1341,16.3125 Q366.6778,16.53 367.14,16.965 Z " fill="#000000"/><text fill="#000000" font-family="sans-serif" font-size="10.44" lengthAdjust="spacing" textLength="93.09" x="377.58" y="24.2818">CreateParameterUI</text><line style="stroke:#A80036;stroke-width:1.305;" x1="353.22" x2="472.41" y1="33.93" y2="33.93"/><line style="stroke:#A80036;stroke-width:1.305;" x1="353.22" x2="472.41" y1="40.89" y2="40.89"/><!--MD5=[9d3dd688f78c4545f26622cd23f9dd25]
link CreateParameterUI to CreateParameterController--><path codeLine="56" d="M412.815,48.024 C412.815,61.1088 412.815,78.909 412.815,96.3264 " fill="none" id="CreateParameterUI-to-CreateParameterController" style="stroke:#A80036;stroke-width:0.87;stroke-dasharray:7.0,7.0;"/><polygon fill="#A80036" points="412.815,100.746,416.295,92.916,412.815,96.396,409.335,92.916,412.815,100.746" style="stroke:#A80036;stroke-width:0.87;"/><!--MD5=[28500599d7d52b0914bd4c3c68a17d33]
link CreateParameterController to ParameterCategoryMapper--><path codeLine="57" d="M446.9451,214.9422 C459.5514,235.683 473.3409,258.3813 484.0245,275.9553 " fill="none" id="CreateParameterController-to-ParameterCategoryMapper" style="stroke:#A80036;stroke-width:0.87;stroke-dasharray:7.0,7.0;"/><polygon fill="#A80036" points="486.3909,279.8529,485.2923,271.3551,484.1291,276.1371,479.3471,274.9739,486.3909,279.8529" style="stroke:#A80036;stroke-width:0.87;"/><!--MD5=[6d585fb02c26694275539b4f1508918e]
link CreateParameterController to Company--><path codeLine="58" d="M379.0155,214.9422 C369.2106,231.2286 358.6836,248.7243 349.4964,264.0015 " fill="none" id="CreateParameterController-to-Company" style="stroke:#A80036;stroke-width:0.87;stroke-dasharray:7.0,7.0;"/><polygon fill="#A80036" points="347.1909,267.8295,354.2035,262.9058,349.429,264.0994,348.2353,259.3249,347.1909,267.8295" style="stroke:#A80036;stroke-width:0.87;"/><!--MD5=[daf3d7412afa2c7651483be0b6e971d1]
link Company to ParameterStore--><path codeLine="59" d="M284.1594,346.4079 C275.8857,354.786 267.351,363.7296 259.695,372.36 C226.6524,409.5786 191.9742,453.8616 166.3005,487.7829 " fill="none" id="Company-to-ParameterStore" style="stroke:#A80036;stroke-width:0.87;stroke-dasharray:7.0,7.0;"/><polygon fill="#A80036" points="163.5339,491.4456,171.0254,487.2867,166.1518,487.9716,165.467,483.098,163.5339,491.4456" style="stroke:#A80036;stroke-width:0.87;"/><!--MD5=[d53d7490e5836ca5709858d7326f212b]
link Company to ParameterCategoryStore--><path codeLine="60" d="M351.9411,346.3905 C363.2076,361.9287 376.1619,379.7898 387.2805,395.1192 " fill="none" id="Company-to-ParameterCategoryStore" style="stroke:#A80036;stroke-width:0.87;stroke-dasharray:7.0,7.0;"/><polygon fill="#A80036" points="390.0645,398.9559,388.2894,390.5733,387.5126,395.4331,382.6528,394.6563,390.0645,398.9559" style="stroke:#A80036;stroke-width:0.87;"/><!--MD5=[a0992dda039fed1bb57aff5aacace800]
link ParameterStore to Parameter--><path codeLine="61" d="M155.8779,593.3922 C184.0746,641.5902 226.4175,713.9742 254.2053,761.4762 " fill="none" id="ParameterStore-to-Parameter" style="stroke:#A80036;stroke-width:0.87;stroke-dasharray:7.0,7.0;"/><polygon fill="#A80036" points="256.5108,765.426,255.5539,756.9111,254.3112,761.6731,249.5493,760.4304,256.5108,765.426" style="stroke:#A80036;stroke-width:0.87;"/><!--MD5=[d6274e3b73b5bc8f467c6cfbf5bf003e]
link ParameterCategoryStore to ParameterCategory--><path codeLine="62" d="M414.3114,465.6588 C415.077,504.9828 416.3646,571.4073 417.2085,614.916 " fill="none" id="ParameterCategoryStore-to-ParameterCategory" style="stroke:#A80036;stroke-width:0.87;stroke-dasharray:7.0,7.0;"/><polygon fill="#A80036" points="417.2868,619.3095,420.6095,611.4115,417.1998,614.9604,413.6509,611.5507,417.2868,619.3095" style="stroke:#A80036;stroke-width:0.87;"/><!--MD5=[12d76240d3c3c66074d4ec2ea8bf469c]
link Company to Parameter--><path codeLine="64" d="M315.9405,346.4514 C308.4933,383.4438 297.8706,441.0465 292.755,491.55 C282.8892,588.9552 281.6799,703.917 281.8713,765.426 " fill="none" id="Company-Parameter" style="stroke:#A80036;stroke-width:0.87;"/><polygon fill="#000000" points="296.7524,546.9336,299.9387,539.2975,294.8418,538.8831,296.7524,546.9336" style="stroke:#000000;stroke-width:0.87;"/><text fill="#000000" font-family="sans-serif" font-size="11.31" lengthAdjust="spacing" textLength="102.66" x="304.935" y="547.2258">capable of analysing</text><text fill="#000000" font-family="sans-serif" font-size="11.31" lengthAdjust="spacing" textLength="6.09" x="308.3483" y="364.4632">1</text><text fill="#000000" font-family="sans-serif" font-size="11.31" lengthAdjust="spacing" textLength="4.35" x="277.1694" y="756.2679">*</text><!--MD5=[93b4f25fb503a8e0e9a46b1d30ff3f44]
link Company to ParameterCategory--><path codeLine="65" d="M393.8142,340.3701 C447.4584,365.4522 512.7693,396.4155 514.605,399.33 C559.6971,470.9658 496.4916,566.8572 453.0351,619.3617 " fill="none" id="Company-ParameterCategory" style="stroke:#A80036;stroke-width:0.87;"/><polygon fill="#000000" points="534.6482,436.7981,535.5154,428.5695,530.5131,429.6313,534.6482,436.7981" style="stroke:#000000;stroke-width:0.87;"/><text fill="#000000" font-family="sans-serif" font-size="11.31" lengthAdjust="spacing" textLength="33.93" x="541.575" y="437.1708">adopts</text><text fill="#000000" font-family="sans-serif" font-size="11.31" lengthAdjust="spacing" textLength="6.09" x="400.524" y="340.6492">1</text><text fill="#000000" font-family="sans-serif" font-size="11.31" lengthAdjust="spacing" textLength="4.35" x="453.9166" y="609.8797">*</text><!--MD5=[7a9e3e328fb1db48284e23a673c1e60d]
link ParameterCategory to Parameter--><path codeLine="66" d="M383.0871,698.1054 C364.4691,718.6896 341.4924,744.0936 322.1871,765.4434 " fill="none" id="ParameterCategory-Parameter" style="stroke:#A80036;stroke-width:0.87;"/><polygon fill="#000000" points="366.1428,728.5967,358.9681,732.718,362.7608,736.1481,366.1428,728.5967" style="stroke:#000000;stroke-width:0.87;"/><text fill="#000000" font-family="sans-serif" font-size="11.31" lengthAdjust="spacing" textLength="80.91" x="371.055" y="736.4508">presented under</text><text fill="#000000" font-family="sans-serif" font-size="11.31" lengthAdjust="spacing" textLength="6.09" x="371.8918" y="716.1406">1</text><text fill="#000000" font-family="sans-serif" font-size="11.31" lengthAdjust="spacing" textLength="4.35" x="322.9026" y="756.2876">*</text><!--MD5=[99c1de3e00e8e7fd87661248a855f48f]
@startuml
skinparam classAttributeIconSize 0


class ParameterStore{
  +createParameter(code, designation, description, pcat)
  +saveParameter(parameter)
  -validate(parameter)
  -add(parameter)
  +getAllParameters()
}

class ParameterCategoryStore{
  +getAllParameterCategories()
  +getParameterCategoryByCode(code)
}


class Parameter {
  - String designation
  - String description
  - String code
  +Parameter(code,description,designation,pcat)
}

class Company {
  -String designation
  +getParameterCategoryStore()
  +getParameterStore()
}

class ParameterCategory {
  -String name
  -String code
  +ParameterCategory(name, code)
}



class ParameterCategoryMapper{
  +toDto(lpc)
}


class CreateParameterController {
  +CreateParameterController()
  +toDto()
  +getParameterCategoryByCode(code)
  +createParameter(code,designation,description,code)
  +saveParameter()
  +getAllParameters()
}

class CreateParameterUI {
}

CreateParameterUI ..> CreateParameterController
CreateParameterController ..> ParameterCategoryMapper
CreateParameterController ..> Company
Company ..> ParameterStore
Company ..> ParameterCategoryStore
ParameterStore ..> Parameter
ParameterCategoryStore ..> ParameterCategory

Company "1" - - "*" Parameter : > capable of analysing
Company "1" - - "*" ParameterCategory : > adopts
ParameterCategory "1" - - "*" Parameter : < presented under



@enduml

PlantUML version 1.2021.2(Sun Mar 07 11:10:27 GMT 2021)
(GPL source distribution)
Java Runtime: OpenJDK Runtime Environment
JVM: OpenJDK 64-Bit Server VM
Default Encoding: Cp1252
Language: pt
Country: PT
--></g></svg>