<?xml version="1.0" encoding="UTF-8" standalone="no"?><svg xmlns="http://www.w3.org/2000/svg" xmlns:xlink="http://www.w3.org/1999/xlink" contentScriptType="application/ecmascript" contentStyleType="text/css" height="1389px" preserveAspectRatio="none" style="width:2581px;height:1389px;background:#FFFFFF;" version="1.1" viewBox="0 0 2581 1389" width="2581px" zoomAndPan="magnify"><defs><filter height="300%" id="fzvsjgixck0oy" width="300%" x="-1" y="-1"><feGaussianBlur result="blurOut" stdDeviation="2.0"/><feColorMatrix in="blurOut" result="blurOut2" type="matrix" values="0 0 0 0 0 0 0 0 0 0 0 0 0 0 0 0 0 0 .4 0"/><feOffset dx="4.0" dy="4.0" in="blurOut2" result="blurOut3"/><feBlend in="SourceGraphic" in2="blurOut3" mode="normal"/></filter></defs><g><rect fill="#FFFFFF" filter="url(#fzvsjgixck0oy)" height="1195.1406" style="stroke:#A80036;stroke-width:1.0;" width="10" x="90" y="99.6094"/><rect fill="#FFFFFF" filter="url(#fzvsjgixck0oy)" height="241.7578" style="stroke:#A80036;stroke-width:1.0;" width="10" x="757" y="121.9609"/><rect fill="#FFFFFF" filter="url(#fzvsjgixck0oy)" height="211.4063" style="stroke:#A80036;stroke-width:1.0;" width="10" x="757" y="419.4219"/><rect fill="#FFFFFF" filter="url(#fzvsjgixck0oy)" height="617.5703" style="stroke:#A80036;stroke-width:1.0;" width="10" x="757" y="661.1797"/><rect fill="#FFFFFF" filter="url(#fzvsjgixck0oy)" height="181.0547" style="stroke:#A80036;stroke-width:1.0;" width="10" x="976" y="152.3125"/><rect fill="#FFFFFF" filter="url(#fzvsjgixck0oy)" height="120.7031" style="stroke:#A80036;stroke-width:1.0;" width="10" x="976" y="751.8828"/><rect fill="#FFFFFF" filter="url(#fzvsjgixck0oy)" height="187.4063" style="stroke:#A80036;stroke-width:1.0;" width="10" x="976" y="902.9375"/><rect fill="#FFFFFF" filter="url(#fzvsjgixck0oy)" height="120.7031" style="stroke:#A80036;stroke-width:1.0;" width="10" x="976" y="1127.6953"/><rect fill="#FFFFFF" filter="url(#fzvsjgixck0oy)" height="30" style="stroke:#A80036;stroke-width:1.0;" width="10" x="1263" y="182.6641"/><rect fill="#FFFFFF" filter="url(#fzvsjgixck0oy)" height="30" style="stroke:#A80036;stroke-width:1.0;" width="10" x="1263" y="782.2344"/><rect fill="#FFFFFF" filter="url(#fzvsjgixck0oy)" height="30" style="stroke:#A80036;stroke-width:1.0;" width="10" x="1263" y="1158.0469"/><rect fill="#FFFFFF" filter="url(#fzvsjgixck0oy)" height="30" style="stroke:#A80036;stroke-width:1.0;" width="10" x="1374" y="243.0156"/><rect fill="#FFFFFF" filter="url(#fzvsjgixck0oy)" height="30" style="stroke:#A80036;stroke-width:1.0;" width="10" x="1374" y="933.2891"/><rect fill="#FFFFFF" filter="url(#fzvsjgixck0oy)" height="96.7031" style="stroke:#A80036;stroke-width:1.0;" width="10" x="1374" y="993.6406"/><rect fill="#FFFFFF" filter="url(#fzvsjgixck0oy)" height="30" style="stroke:#A80036;stroke-width:1.0;" width="10" x="1491" y="303.3672"/><rect fill="#FFFFFF" filter="url(#fzvsjgixck0oy)" height="30" style="stroke:#A80036;stroke-width:1.0;" width="10" x="1608.5" y="449.7734"/><rect fill="#FFFFFF" filter="url(#fzvsjgixck0oy)" height="30" style="stroke:#A80036;stroke-width:1.0;" width="10" x="1608.5" y="510.125"/><rect fill="#FFFFFF" filter="url(#fzvsjgixck0oy)" height="30" style="stroke:#A80036;stroke-width:1.0;" width="10" x="1608.5" y="570.4766"/><rect fill="#FFFFFF" filter="url(#fzvsjgixck0oy)" height="30" style="stroke:#A80036;stroke-width:1.0;" width="10" x="1608.5" y="691.5313"/><rect fill="#FFFFFF" filter="url(#fzvsjgixck0oy)" height="30" style="stroke:#A80036;stroke-width:1.0;" width="10" x="1744.5" y="842.5859"/><rect fill="#FFFFFF" filter="url(#fzvsjgixck0oy)" height="30" style="stroke:#A80036;stroke-width:1.0;" width="10" x="2259.5" y="1218.3984"/><rect fill="#FFFFFF" filter="url(#fzvsjgixck0oy)" height="66.3516" style="stroke:#A80036;stroke-width:1.0;" width="10" x="2405.5" y="1023.9922"/><rect fill="#FFFFFF" filter="url(#fzvsjgixck0oy)" height="28" style="stroke:#A80036;stroke-width:1.0;" width="10" x="2410.5" y="1062.3438"/><rect fill="#FFFFFF" filter="url(#fzvsjgixck0oy)" height="908.0313" style="stroke:#000000;stroke-width:2.0;" width="2557.5" x="10" y="378.7188"/><line style="stroke:#A80036;stroke-width:1.0;stroke-dasharray:5.0,5.0;" x1="95" x2="95" y1="89.6094" y2="1303.75"/><line style="stroke:#A80036;stroke-width:1.0;stroke-dasharray:5.0,5.0;" x1="761.5" x2="761.5" y1="89.6094" y2="1303.75"/><line style="stroke:#A80036;stroke-width:1.0;stroke-dasharray:5.0,5.0;" x1="980.5" x2="980.5" y1="89.6094" y2="1303.75"/><line style="stroke:#A80036;stroke-width:1.0;stroke-dasharray:5.0,5.0;" x1="1268" x2="1268" y1="89.6094" y2="1303.75"/><line style="stroke:#A80036;stroke-width:1.0;stroke-dasharray:5.0,5.0;" x1="1379" x2="1379" y1="89.6094" y2="1303.75"/><line style="stroke:#A80036;stroke-width:1.0;stroke-dasharray:5.0,5.0;" x1="1496" x2="1496" y1="89.6094" y2="1303.75"/><line style="stroke:#A80036;stroke-width:1.0;stroke-dasharray:5.0,5.0;" x1="1613" x2="1613" y1="89.6094" y2="1303.75"/><line style="stroke:#A80036;stroke-width:1.0;stroke-dasharray:5.0,5.0;" x1="1749" x2="1749" y1="89.6094" y2="1303.75"/><line style="stroke:#A80036;stroke-width:1.0;stroke-dasharray:5.0,5.0;" x1="1894" x2="1894" y1="89.6094" y2="1303.75"/><line style="stroke:#A80036;stroke-width:1.0;stroke-dasharray:5.0,5.0;" x1="2065" x2="2065" y1="89.6094" y2="1303.75"/><line style="stroke:#A80036;stroke-width:1.0;stroke-dasharray:5.0,5.0;" x1="2264" x2="2264" y1="89.6094" y2="1303.75"/><line style="stroke:#A80036;stroke-width:1.0;stroke-dasharray:5.0,5.0;" x1="2410" x2="2410" y1="89.6094" y2="1303.75"/><text fill="#000000" font-family="sans-serif" font-size="14" lengthAdjust="spacing" textLength="144" x="20" y="86.5332">LaboratoryCoordinator</text><ellipse cx="95" cy="15" fill="#FEFECE" filter="url(#fzvsjgixck0oy)" rx="8" ry="8" style="stroke:#A80036;stroke-width:2.0;"/><path d="M95,23 L95,50 M82,31 L108,31 M95,50 L82,65 M95,50 L108,65 " fill="none" filter="url(#fzvsjgixck0oy)" style="stroke:#A80036;stroke-width:2.0;"/><text fill="#000000" font-family="sans-serif" font-size="14" lengthAdjust="spacing" textLength="144" x="20" y="1317.2832">LaboratoryCoordinator</text><ellipse cx="95" cy="1330.3594" fill="#FEFECE" filter="url(#fzvsjgixck0oy)" rx="8" ry="8" style="stroke:#A80036;stroke-width:2.0;"/><path d="M95,1338.3594 L95,1365.3594 M82,1346.3594 L108,1346.3594 M95,1365.3594 L82,1380.3594 M95,1365.3594 L108,1380.3594 " fill="none" filter="url(#fzvsjgixck0oy)" style="stroke:#A80036;stroke-width:2.0;"/><rect fill="#FEFECE" filter="url(#fzvsjgixck0oy)" height="31.6094" style="stroke:#A80036;stroke-width:1.5;" width="109" x="705.5" y="53"/><text fill="#000000" font-family="sans-serif" font-size="14" lengthAdjust="spacing" textLength="95" x="712.5" y="74.5332">:ValidateTestUI</text><rect fill="#FEFECE" filter="url(#fzvsjgixck0oy)" height="31.6094" style="stroke:#A80036;stroke-width:1.5;" width="109" x="705.5" y="1302.75"/><text fill="#000000" font-family="sans-serif" font-size="14" lengthAdjust="spacing" textLength="95" x="712.5" y="1324.2832">:ValidateTestUI</text><rect fill="#FEFECE" filter="url(#fzvsjgixck0oy)" height="31.6094" style="stroke:#A80036;stroke-width:1.5;" width="159" x="899.5" y="53"/><text fill="#000000" font-family="sans-serif" font-size="14" lengthAdjust="spacing" textLength="145" x="906.5" y="74.5332">:ValidateTestController</text><rect fill="#FEFECE" filter="url(#fzvsjgixck0oy)" height="31.6094" style="stroke:#A80036;stroke-width:1.5;" width="159" x="899.5" y="1302.75"/><text fill="#000000" font-family="sans-serif" font-size="14" lengthAdjust="spacing" textLength="145" x="906.5" y="1324.2832">:ValidateTestController</text><rect fill="#FEFECE" filter="url(#fzvsjgixck0oy)" height="31.6094" style="stroke:#A80036;stroke-width:1.5;" width="78" x="1227" y="53"/><text fill="#000000" font-family="sans-serif" font-size="14" lengthAdjust="spacing" textLength="64" x="1234" y="74.5332">:Company</text><rect fill="#FEFECE" filter="url(#fzvsjgixck0oy)" height="31.6094" style="stroke:#A80036;stroke-width:1.5;" width="78" x="1227" y="1302.75"/><text fill="#000000" font-family="sans-serif" font-size="14" lengthAdjust="spacing" textLength="64" x="1234" y="1324.2832">:Company</text><rect fill="#FEFECE" filter="url(#fzvsjgixck0oy)" height="31.6094" style="stroke:#A80036;stroke-width:1.5;" width="116" x="1319" y="53"/><text fill="#000000" font-family="sans-serif" font-size="14" lengthAdjust="spacing" textLength="102" x="1326" y="74.5332">store: TestStore</text><rect fill="#FEFECE" filter="url(#fzvsjgixck0oy)" height="31.6094" style="stroke:#A80036;stroke-width:1.5;" width="116" x="1319" y="1302.75"/><text fill="#000000" font-family="sans-serif" font-size="14" lengthAdjust="spacing" textLength="102" x="1326" y="1324.2832">store: TestStore</text><rect fill="#FEFECE" filter="url(#fzvsjgixck0oy)" height="31.6094" style="stroke:#A80036;stroke-width:1.5;" width="90" x="1449" y="53"/><text fill="#000000" font-family="sans-serif" font-size="14" lengthAdjust="spacing" textLength="76" x="1456" y="74.5332">TestMapper</text><rect fill="#FEFECE" filter="url(#fzvsjgixck0oy)" height="31.6094" style="stroke:#A80036;stroke-width:1.5;" width="90" x="1449" y="1302.75"/><text fill="#000000" font-family="sans-serif" font-size="14" lengthAdjust="spacing" textLength="76" x="1456" y="1324.2832">TestMapper</text><rect fill="#FEFECE" filter="url(#fzvsjgixck0oy)" height="31.6094" style="stroke:#A80036;stroke-width:1.5;" width="117" x="1553" y="53"/><text fill="#000000" font-family="sans-serif" font-size="14" lengthAdjust="spacing" textLength="103" x="1560" y="74.5332">testDto: TestDto</text><rect fill="#FEFECE" filter="url(#fzvsjgixck0oy)" height="31.6094" style="stroke:#A80036;stroke-width:1.5;" width="117" x="1553" y="1302.75"/><text fill="#000000" font-family="sans-serif" font-size="14" lengthAdjust="spacing" textLength="103" x="1560" y="1324.2832">testDto: TestDto</text><rect fill="#FEFECE" filter="url(#fzvsjgixck0oy)" height="31.6094" style="stroke:#A80036;stroke-width:1.5;" width="127" x="1684" y="53"/><text fill="#000000" font-family="sans-serif" font-size="14" lengthAdjust="spacing" textLength="113" x="1691" y="74.5332">store:ReportStore</text><rect fill="#FEFECE" filter="url(#fzvsjgixck0oy)" height="31.6094" style="stroke:#A80036;stroke-width:1.5;" width="127" x="1684" y="1302.75"/><text fill="#000000" font-family="sans-serif" font-size="14" lengthAdjust="spacing" textLength="113" x="1691" y="1324.2832">store:ReportStore</text><rect fill="#FEFECE" filter="url(#fzvsjgixck0oy)" height="31.6094" style="stroke:#A80036;stroke-width:1.5;" width="135" x="1825" y="53"/><text fill="#000000" font-family="sans-serif" font-size="14" lengthAdjust="spacing" textLength="121" x="1832" y="74.5332">testsList: list&lt;Test&gt;</text><rect fill="#FEFECE" filter="url(#fzvsjgixck0oy)" height="31.6094" style="stroke:#A80036;stroke-width:1.5;" width="135" x="1825" y="1302.75"/><text fill="#000000" font-family="sans-serif" font-size="14" lengthAdjust="spacing" textLength="121" x="1832" y="1324.2832">testsList: list&lt;Test&gt;</text><rect fill="#FEFECE" filter="url(#fzvsjgixck0oy)" height="31.6094" style="stroke:#A80036;stroke-width:1.5;" width="179" x="1974" y="53"/><text fill="#000000" font-family="sans-serif" font-size="14" lengthAdjust="spacing" textLength="165" x="1981" y="74.5332">testsListDto: list&lt;TestDto&gt;</text><rect fill="#FEFECE" filter="url(#fzvsjgixck0oy)" height="31.6094" style="stroke:#A80036;stroke-width:1.5;" width="179" x="1974" y="1302.75"/><text fill="#000000" font-family="sans-serif" font-size="14" lengthAdjust="spacing" textLength="165" x="1981" y="1324.2832">testsListDto: list&lt;TestDto&gt;</text><rect fill="#FEFECE" filter="url(#fzvsjgixck0oy)" height="31.6094" style="stroke:#A80036;stroke-width:1.5;" width="191" x="2167" y="53"/><text fill="#000000" font-family="sans-serif" font-size="14" lengthAdjust="spacing" textLength="177" x="2174" y="74.5332">sendNotification: Notification</text><rect fill="#FEFECE" filter="url(#fzvsjgixck0oy)" height="31.6094" style="stroke:#A80036;stroke-width:1.5;" width="191" x="2167" y="1302.75"/><text fill="#000000" font-family="sans-serif" font-size="14" lengthAdjust="spacing" textLength="177" x="2174" y="1324.2832">sendNotification: Notification</text><rect fill="#FEFECE" filter="url(#fzvsjgixck0oy)" height="31.6094" style="stroke:#A80036;stroke-width:1.5;" width="73" x="2372" y="53"/><text fill="#000000" font-family="sans-serif" font-size="14" lengthAdjust="spacing" textLength="59" x="2379" y="74.5332">test: Test</text><rect fill="#FEFECE" filter="url(#fzvsjgixck0oy)" height="31.6094" style="stroke:#A80036;stroke-width:1.5;" width="73" x="2372" y="1302.75"/><text fill="#000000" font-family="sans-serif" font-size="14" lengthAdjust="spacing" textLength="59" x="2379" y="1324.2832">test: Test</text><rect fill="#FFFFFF" filter="url(#fzvsjgixck0oy)" height="1195.1406" style="stroke:#A80036;stroke-width:1.0;" width="10" x="90" y="99.6094"/><rect fill="#FFFFFF" filter="url(#fzvsjgixck0oy)" height="241.7578" style="stroke:#A80036;stroke-width:1.0;" width="10" x="757" y="121.9609"/><rect fill="#FFFFFF" filter="url(#fzvsjgixck0oy)" height="211.4063" style="stroke:#A80036;stroke-width:1.0;" width="10" x="757" y="419.4219"/><rect fill="#FFFFFF" filter="url(#fzvsjgixck0oy)" height="617.5703" style="stroke:#A80036;stroke-width:1.0;" width="10" x="757" y="661.1797"/><rect fill="#FFFFFF" filter="url(#fzvsjgixck0oy)" height="181.0547" style="stroke:#A80036;stroke-width:1.0;" width="10" x="976" y="152.3125"/><rect fill="#FFFFFF" filter="url(#fzvsjgixck0oy)" height="120.7031" style="stroke:#A80036;stroke-width:1.0;" width="10" x="976" y="751.8828"/><rect fill="#FFFFFF" filter="url(#fzvsjgixck0oy)" height="187.4063" style="stroke:#A80036;stroke-width:1.0;" width="10" x="976" y="902.9375"/><rect fill="#FFFFFF" filter="url(#fzvsjgixck0oy)" height="120.7031" style="stroke:#A80036;stroke-width:1.0;" width="10" x="976" y="1127.6953"/><rect fill="#FFFFFF" filter="url(#fzvsjgixck0oy)" height="30" style="stroke:#A80036;stroke-width:1.0;" width="10" x="1263" y="182.6641"/><rect fill="#FFFFFF" filter="url(#fzvsjgixck0oy)" height="30" style="stroke:#A80036;stroke-width:1.0;" width="10" x="1263" y="782.2344"/><rect fill="#FFFFFF" filter="url(#fzvsjgixck0oy)" height="30" style="stroke:#A80036;stroke-width:1.0;" width="10" x="1263" y="1158.0469"/><rect fill="#FFFFFF" filter="url(#fzvsjgixck0oy)" height="30" style="stroke:#A80036;stroke-width:1.0;" width="10" x="1374" y="243.0156"/><rect fill="#FFFFFF" filter="url(#fzvsjgixck0oy)" height="30" style="stroke:#A80036;stroke-width:1.0;" width="10" x="1374" y="933.2891"/><rect fill="#FFFFFF" filter="url(#fzvsjgixck0oy)" height="96.7031" style="stroke:#A80036;stroke-width:1.0;" width="10" x="1374" y="993.6406"/><rect fill="#FFFFFF" filter="url(#fzvsjgixck0oy)" height="30" style="stroke:#A80036;stroke-width:1.0;" width="10" x="1491" y="303.3672"/><rect fill="#FFFFFF" filter="url(#fzvsjgixck0oy)" height="30" style="stroke:#A80036;stroke-width:1.0;" width="10" x="1608.5" y="449.7734"/><rect fill="#FFFFFF" filter="url(#fzvsjgixck0oy)" height="30" style="stroke:#A80036;stroke-width:1.0;" width="10" x="1608.5" y="510.125"/><rect fill="#FFFFFF" filter="url(#fzvsjgixck0oy)" height="30" style="stroke:#A80036;stroke-width:1.0;" width="10" x="1608.5" y="570.4766"/><rect fill="#FFFFFF" filter="url(#fzvsjgixck0oy)" height="30" style="stroke:#A80036;stroke-width:1.0;" width="10" x="1608.5" y="691.5313"/><rect fill="#FFFFFF" filter="url(#fzvsjgixck0oy)" height="30" style="stroke:#A80036;stroke-width:1.0;" width="10" x="1744.5" y="842.5859"/><rect fill="#FFFFFF" filter="url(#fzvsjgixck0oy)" height="30" style="stroke:#A80036;stroke-width:1.0;" width="10" x="2259.5" y="1218.3984"/><rect fill="#FFFFFF" filter="url(#fzvsjgixck0oy)" height="66.3516" style="stroke:#A80036;stroke-width:1.0;" width="10" x="2405.5" y="1023.9922"/><rect fill="#FFFFFF" filter="url(#fzvsjgixck0oy)" height="28" style="stroke:#A80036;stroke-width:1.0;" width="10" x="2410.5" y="1062.3438"/><polygon fill="#A80036" points="745,117.9609,755,121.9609,745,125.9609,749,121.9609" style="stroke:#A80036;stroke-width:1.0;"/><line style="stroke:#A80036;stroke-width:1.0;" x1="100" x2="751" y1="121.9609" y2="121.9609"/><text fill="#000000" font-family="sans-serif" font-size="13" font-weight="bold" lengthAdjust="spacing" textLength="7" x="107" y="117.1045">1</text><text fill="#000000" font-family="sans-serif" font-size="13" lengthAdjust="spacing" textLength="185" x="118" y="117.1045">validate a Test Result/Diagnosis</text><polygon fill="#A80036" points="964,148.3125,974,152.3125,964,156.3125,968,152.3125" style="stroke:#A80036;stroke-width:1.0;"/><line style="stroke:#A80036;stroke-width:1.0;" x1="767" x2="970" y1="152.3125" y2="152.3125"/><text fill="#000000" font-family="sans-serif" font-size="13" font-weight="bold" lengthAdjust="spacing" textLength="7" x="774" y="147.4561">2</text><text fill="#000000" font-family="sans-serif" font-size="13" lengthAdjust="spacing" textLength="179" x="785" y="147.4561">testsListDto = getAllTestsDto()</text><polygon fill="#A80036" points="1251,178.6641,1261,182.6641,1251,186.6641,1255,182.6641" style="stroke:#A80036;stroke-width:1.0;"/><line style="stroke:#A80036;stroke-width:1.0;" x1="986" x2="1257" y1="182.6641" y2="182.6641"/><text fill="#000000" font-family="sans-serif" font-size="13" font-weight="bold" lengthAdjust="spacing" textLength="7" x="993" y="177.8076">3</text><text fill="#000000" font-family="sans-serif" font-size="13" lengthAdjust="spacing" textLength="127" x="1004" y="177.8076">store = getTestStore()</text><polygon fill="#A80036" points="1362,239.0156,1372,243.0156,1362,247.0156,1366,243.0156" style="stroke:#A80036;stroke-width:1.0;"/><line style="stroke:#A80036;stroke-width:1.0;" x1="986" x2="1368" y1="243.0156" y2="243.0156"/><text fill="#000000" font-family="sans-serif" font-size="13" font-weight="bold" lengthAdjust="spacing" textLength="7" x="993" y="238.1592">4</text><text fill="#000000" font-family="sans-serif" font-size="13" lengthAdjust="spacing" textLength="185" x="1004" y="238.1592">testsList = getDiagnosedTests()</text><polygon fill="#A80036" points="1479,299.3672,1489,303.3672,1479,307.3672,1483,303.3672" style="stroke:#A80036;stroke-width:1.0;"/><line style="stroke:#A80036;stroke-width:1.0;" x1="986" x2="1485" y1="303.3672" y2="303.3672"/><text fill="#000000" font-family="sans-serif" font-size="13" font-weight="bold" lengthAdjust="spacing" textLength="7" x="993" y="298.5107">5</text><text fill="#000000" font-family="sans-serif" font-size="13" lengthAdjust="spacing" textLength="205" x="1004" y="298.5107">testsListDto = toDtoLabC(testsList)</text><polygon fill="#A80036" points="111,359.7188,101,363.7188,111,367.7188,107,363.7188" style="stroke:#A80036;stroke-width:1.0;"/><line style="stroke:#A80036;stroke-width:1.0;stroke-dasharray:2.0,2.0;" x1="105" x2="761" y1="363.7188" y2="363.7188"/><text fill="#000000" font-family="sans-serif" font-size="13" font-weight="bold" lengthAdjust="spacing" textLength="7" x="117" y="358.8623">6</text><text fill="#000000" font-family="sans-serif" font-size="13" lengthAdjust="spacing" textLength="203" x="128" y="358.8623">shows a list of to-be validated tests</text><path d="M10,378.7188 L83,378.7188 L83,386.7188 L73,396.7188 L10,396.7188 L10,378.7188 " fill="#EEEEEE" style="stroke:#000000;stroke-width:1.0;"/><rect fill="none" height="908.0313" style="stroke:#000000;stroke-width:2.0;" width="2557.5" x="10" y="378.7188"/><text fill="#000000" font-family="sans-serif" font-size="13" font-weight="bold" lengthAdjust="spacing" textLength="28" x="25" y="393.2139">loop</text><text fill="#000000" font-family="sans-serif" font-size="11" font-weight="bold" lengthAdjust="spacing" textLength="121" x="98" y="392.1377">[for the chosen tests]</text><polygon fill="#A80036" points="745,415.4219,755,419.4219,745,423.4219,749,419.4219" style="stroke:#A80036;stroke-width:1.0;"/><line style="stroke:#A80036;stroke-width:1.0;" x1="100" x2="751" y1="419.4219" y2="419.4219"/><text fill="#000000" font-family="sans-serif" font-size="13" font-weight="bold" lengthAdjust="spacing" textLength="7" x="107" y="414.5654">7</text><text fill="#000000" font-family="sans-serif" font-size="13" lengthAdjust="spacing" textLength="151" x="118" y="414.5654">selects a test from the list</text><polygon fill="#A80036" points="1596.5,445.7734,1606.5,449.7734,1596.5,453.7734,1600.5,449.7734" style="stroke:#A80036;stroke-width:1.0;"/><line style="stroke:#A80036;stroke-width:1.0;" x1="767" x2="1602.5" y1="449.7734" y2="449.7734"/><text fill="#000000" font-family="sans-serif" font-size="13" font-weight="bold" lengthAdjust="spacing" textLength="7" x="774" y="444.917">8</text><text fill="#000000" font-family="sans-serif" font-size="13" lengthAdjust="spacing" textLength="285" x="785" y="444.917">registrationDateTime = getRegistrationDateTime()</text><polygon fill="#A80036" points="1596.5,506.125,1606.5,510.125,1596.5,514.125,1600.5,510.125" style="stroke:#A80036;stroke-width:1.0;"/><line style="stroke:#A80036;stroke-width:1.0;" x1="767" x2="1602.5" y1="510.125" y2="510.125"/><text fill="#000000" font-family="sans-serif" font-size="13" font-weight="bold" lengthAdjust="spacing" textLength="7" x="774" y="505.2686">9</text><text fill="#000000" font-family="sans-serif" font-size="13" lengthAdjust="spacing" textLength="358" x="785" y="505.2686">chemicalAnalysisDateTime = getChemicalAnalysisDateTime()</text><polygon fill="#A80036" points="1596.5,566.4766,1606.5,570.4766,1596.5,574.4766,1600.5,570.4766" style="stroke:#A80036;stroke-width:1.0;"/><line style="stroke:#A80036;stroke-width:1.0;" x1="767" x2="1602.5" y1="570.4766" y2="570.4766"/><text fill="#000000" font-family="sans-serif" font-size="13" font-weight="bold" lengthAdjust="spacing" textLength="14" x="774" y="565.6201">10</text><text fill="#000000" font-family="sans-serif" font-size="13" lengthAdjust="spacing" textLength="264" x="792" y="565.6201">diagnosisDateTime = getDiagnosisDateTime()</text><polygon fill="#A80036" points="111,626.8281,101,630.8281,111,634.8281,107,630.8281" style="stroke:#A80036;stroke-width:1.0;"/><line style="stroke:#A80036;stroke-width:1.0;stroke-dasharray:2.0,2.0;" x1="105" x2="761" y1="630.8281" y2="630.8281"/><text fill="#000000" font-family="sans-serif" font-size="13" font-weight="bold" lengthAdjust="spacing" textLength="14" x="117" y="625.9717">11</text><text fill="#000000" font-family="sans-serif" font-size="13" lengthAdjust="spacing" textLength="615" x="135" y="625.9717">displays its data (registration date, chemical analysis date, diagnosis date) and request to confirm it's valid</text><polygon fill="#A80036" points="745,657.1797,755,661.1797,745,665.1797,749,661.1797" style="stroke:#A80036;stroke-width:1.0;"/><line style="stroke:#A80036;stroke-width:1.0;" x1="100" x2="751" y1="661.1797" y2="661.1797"/><text fill="#000000" font-family="sans-serif" font-size="13" font-weight="bold" lengthAdjust="spacing" textLength="14" x="107" y="656.3232">12</text><text fill="#000000" font-family="sans-serif" font-size="13" lengthAdjust="spacing" textLength="133" x="125" y="656.3232">confirms the valid state</text><polygon fill="#A80036" points="1596.5,687.5313,1606.5,691.5313,1596.5,695.5313,1600.5,691.5313" style="stroke:#A80036;stroke-width:1.0;"/><line style="stroke:#A80036;stroke-width:1.0;" x1="767" x2="1602.5" y1="691.5313" y2="691.5313"/><text fill="#000000" font-family="sans-serif" font-size="13" font-weight="bold" lengthAdjust="spacing" textLength="14" x="774" y="686.6748">13</text><text fill="#000000" font-family="sans-serif" font-size="13" lengthAdjust="spacing" textLength="100" x="792" y="686.6748">code = getCode()</text><polygon fill="#A80036" points="964,747.8828,974,751.8828,964,755.8828,968,751.8828" style="stroke:#A80036;stroke-width:1.0;"/><line style="stroke:#A80036;stroke-width:1.0;" x1="767" x2="970" y1="751.8828" y2="751.8828"/><text fill="#000000" font-family="sans-serif" font-size="13" font-weight="bold" lengthAdjust="spacing" textLength="14" x="774" y="747.0264">14</text><text fill="#000000" font-family="sans-serif" font-size="13" lengthAdjust="spacing" textLength="117" x="792" y="747.0264">validateReport(code)</text><polygon fill="#A80036" points="1251,778.2344,1261,782.2344,1251,786.2344,1255,782.2344" style="stroke:#A80036;stroke-width:1.0;"/><line style="stroke:#A80036;stroke-width:1.0;" x1="986" x2="1257" y1="782.2344" y2="782.2344"/><text fill="#000000" font-family="sans-serif" font-size="13" font-weight="bold" lengthAdjust="spacing" textLength="14" x="993" y="777.3779">15</text><text fill="#000000" font-family="sans-serif" font-size="13" lengthAdjust="spacing" textLength="140" x="1011" y="777.3779">store = getReportStore()</text><polygon fill="#A80036" points="1732.5,838.5859,1742.5,842.5859,1732.5,846.5859,1736.5,842.5859" style="stroke:#A80036;stroke-width:1.0;"/><line style="stroke:#A80036;stroke-width:1.0;" x1="986" x2="1738.5" y1="842.5859" y2="842.5859"/><text fill="#000000" font-family="sans-serif" font-size="13" font-weight="bold" lengthAdjust="spacing" textLength="14" x="993" y="837.7295">16</text><text fill="#000000" font-family="sans-serif" font-size="13" lengthAdjust="spacing" textLength="117" x="1011" y="837.7295">validateReport(code)</text><polygon fill="#A80036" points="964,898.9375,974,902.9375,964,906.9375,968,902.9375" style="stroke:#A80036;stroke-width:1.0;"/><line style="stroke:#A80036;stroke-width:1.0;" x1="767" x2="970" y1="902.9375" y2="902.9375"/><text fill="#000000" font-family="sans-serif" font-size="13" font-weight="bold" lengthAdjust="spacing" textLength="14" x="774" y="898.0811">17</text><text fill="#000000" font-family="sans-serif" font-size="13" lengthAdjust="spacing" textLength="104" x="792" y="898.0811">validateTest(code)</text><polygon fill="#A80036" points="1362,929.2891,1372,933.2891,1362,937.2891,1366,933.2891" style="stroke:#A80036;stroke-width:1.0;"/><line style="stroke:#A80036;stroke-width:1.0;" x1="986" x2="1368" y1="933.2891" y2="933.2891"/><text fill="#000000" font-family="sans-serif" font-size="13" font-weight="bold" lengthAdjust="spacing" textLength="14" x="993" y="928.4326">18</text><text fill="#000000" font-family="sans-serif" font-size="13" lengthAdjust="spacing" textLength="163" x="1011" y="928.4326">test = getTestByCode(code)</text><polygon fill="#A80036" points="1362,989.6406,1372,993.6406,1362,997.6406,1366,993.6406" style="stroke:#A80036;stroke-width:1.0;"/><line style="stroke:#A80036;stroke-width:1.0;" x1="986" x2="1368" y1="993.6406" y2="993.6406"/><text fill="#000000" font-family="sans-serif" font-size="13" font-weight="bold" lengthAdjust="spacing" textLength="14" x="993" y="988.7842">19</text><text fill="#000000" font-family="sans-serif" font-size="13" lengthAdjust="spacing" textLength="98" x="1011" y="988.7842">validateTest(test)</text><polygon fill="#A80036" points="2393.5,1019.9922,2403.5,1023.9922,2393.5,1027.9922,2397.5,1023.9922" style="stroke:#A80036;stroke-width:1.0;"/><line style="stroke:#A80036;stroke-width:1.0;" x1="1384" x2="2399.5" y1="1023.9922" y2="1023.9922"/><text fill="#000000" font-family="sans-serif" font-size="13" font-weight="bold" lengthAdjust="spacing" textLength="14" x="1391" y="1019.1357">20</text><text fill="#000000" font-family="sans-serif" font-size="13" lengthAdjust="spacing" textLength="159" x="1409" y="1019.1357">updateValidationDateTime()</text><line style="stroke:#A80036;stroke-width:1.0;" x1="2420.5" x2="2462.5" y1="1054.3438" y2="1054.3438"/><line style="stroke:#A80036;stroke-width:1.0;" x1="2462.5" x2="2462.5" y1="1054.3438" y2="1067.3438"/><line style="stroke:#A80036;stroke-width:1.0;" x1="2421.5" x2="2462.5" y1="1067.3438" y2="1067.3438"/><polygon fill="#A80036" points="2431.5,1063.3438,2421.5,1067.3438,2431.5,1071.3438,2427.5,1067.3438" style="stroke:#A80036;stroke-width:1.0;"/><text fill="#000000" font-family="sans-serif" font-size="13" font-weight="bold" lengthAdjust="spacing" textLength="14" x="2427.5" y="1049.4873">21</text><text fill="#000000" font-family="sans-serif" font-size="13" lengthAdjust="spacing" textLength="110" x="2445.5" y="1049.4873">updateTestStatus()</text><polygon fill="#A80036" points="964,1123.6953,974,1127.6953,964,1131.6953,968,1127.6953" style="stroke:#A80036;stroke-width:1.0;"/><line style="stroke:#A80036;stroke-width:1.0;" x1="767" x2="970" y1="1127.6953" y2="1127.6953"/><text fill="#000000" font-family="sans-serif" font-size="13" font-weight="bold" lengthAdjust="spacing" textLength="14" x="774" y="1122.8389">22</text><text fill="#000000" font-family="sans-serif" font-size="13" lengthAdjust="spacing" textLength="100" x="792" y="1122.8389">sendNotification()</text><polygon fill="#A80036" points="1251,1154.0469,1261,1158.0469,1251,1162.0469,1255,1158.0469" style="stroke:#A80036;stroke-width:1.0;"/><line style="stroke:#A80036;stroke-width:1.0;" x1="986" x2="1257" y1="1158.0469" y2="1158.0469"/><text fill="#000000" font-family="sans-serif" font-size="13" font-weight="bold" lengthAdjust="spacing" textLength="14" x="993" y="1153.1904">23</text><text fill="#000000" font-family="sans-serif" font-size="13" lengthAdjust="spacing" textLength="240" x="1011" y="1153.1904">sendNotification = getNotificationService()</text><polygon fill="#A80036" points="2247.5,1214.3984,2257.5,1218.3984,2247.5,1222.3984,2251.5,1218.3984" style="stroke:#A80036;stroke-width:1.0;"/><line style="stroke:#A80036;stroke-width:1.0;" x1="986" x2="2253.5" y1="1218.3984" y2="1218.3984"/><text fill="#000000" font-family="sans-serif" font-size="13" font-weight="bold" lengthAdjust="spacing" textLength="14" x="993" y="1213.542">24</text><text fill="#000000" font-family="sans-serif" font-size="13" lengthAdjust="spacing" textLength="123" x="1011" y="1213.542">writeToFile(message)</text><polygon fill="#A80036" points="111,1274.75,101,1278.75,111,1282.75,107,1278.75" style="stroke:#A80036;stroke-width:1.0;"/><line style="stroke:#A80036;stroke-width:1.0;stroke-dasharray:2.0,2.0;" x1="105" x2="761" y1="1278.75" y2="1278.75"/><text fill="#000000" font-family="sans-serif" font-size="13" font-weight="bold" lengthAdjust="spacing" textLength="14" x="117" y="1273.8936">25</text><text fill="#000000" font-family="sans-serif" font-size="13" lengthAdjust="spacing" textLength="188" x="135" y="1273.8936">informs about operation success</text><!--MD5=[8b488931194b5453c26e056ce08a740b]
@startuml
autonumber

actor "LaboratoryCoordinator" as labC
activate labC

participant ":ValidateTestUI" as validateTestUI
participant ":ValidateTestController" as validateTestCont
participant ":Company" as comp
participant "store: TestStore" as TestStore
participant "TestMapper" as TestMapper
participant "testDto: TestDto" as TestDto
participant "store:ReportStore" as ReportStore
participant "testsList: list<Test>" as testsList
participant "testsListDto: list<TestDto>" as testsListDto
participant "sendNotification: Notification" as notification
participant "test: Test" as test


labC -> validateTestUI : validate a Test Result/Diagnosis


activate validateTestUI
validateTestUI -> validateTestCont: testsListDto = getAllTestsDto()


activate validateTestCont


validateTestCont -> comp : store = getTestStore()
activate comp
deactivate comp


validateTestCont -> TestStore : testsList = getDiagnosedTests()
activate TestStore
deactivate TestStore


validateTestCont -> TestMapper : testsListDto = toDtoLabC(testsList)
activate TestMapper
deactivate TestMapper


deactivate validateTestCont


validateTestUI - -> labC : shows a list of to-be validated tests
deactivate validateTestUI


loop for the chosen tests
labC -> validateTestUI : selects a test from the list
activate validateTestUI


validateTestUI -> TestDto : registrationDateTime = getRegistrationDateTime()
activate TestDto
deactivate TestDto


validateTestUI -> TestDto : chemicalAnalysisDateTime = getChemicalAnalysisDateTime()
activate TestDto
deactivate TestDto


validateTestUI -> TestDto : diagnosisDateTime = getDiagnosisDateTime()
activate TestDto
deactivate TestDto


validateTestUI - -> labC : displays its data (registration date, chemical analysis date, diagnosis date) and request to confirm it's valid
deactivate validateTestUI


deactivate validateTestUI


labC -> validateTestUI : confirms the valid state
activate validateTestUI


validateTestUI -> TestDto : code = getCode()
activate TestDto
deactivate TestDto


validateTestUI -> validateTestCont : validateReport(code)



activate validateTestCont
validateTestCont -> comp: store = getReportStore()
activate comp
deactivate comp


validateTestCont -> ReportStore : validateReport(code)
activate ReportStore
deactivate ReportStore
deactivate validateTestCont

validateTestUI -> validateTestCont : validateTest(code)
activate validateTestCont


validateTestCont -> TestStore : test = getTestByCode(code)

activate TestStore
deactivate TestStore

validateTestCont -> TestStore : validateTest(test)
activate TestStore


TestStore -> test ++: updateValidationDateTime()


test -> test ++: updateTestStatus()
deactivate test
deactivate test
deactivate TestStore
deactivate validateTestCont

validateTestUI -> validateTestCont : sendNotification()
activate validateTestCont


validateTestCont -> comp: sendNotification = getNotificationService()
activate comp
deactivate comp


validateTestCont -> notification: writeToFile(message)
activate notification
deactivate notification
deactivate validateTestCont


validateTestUI - -> labC : informs about operation success
deactivate validateTestCont
deactivate validateTestUI

end
@enduml

PlantUML version 1.2021.7(Sun May 23 13:40:07 BST 2021)
(GPL source distribution)
Java Runtime: OpenJDK Runtime Environment
JVM: Dynamic Code Evolution 64-Bit Server VM
Default Encoding: Cp1252
Language: pt
Country: PT
--></g></svg>