<?xml version="1.0" encoding="UTF-8" standalone="no"?><svg xmlns="http://www.w3.org/2000/svg" xmlns:xlink="http://www.w3.org/1999/xlink" contentScriptType="application/ecmascript" contentStyleType="text/css" height="115px" preserveAspectRatio="none" style="width:822px;height:115px;background:#FFFFFF;" version="1.1" viewBox="0 0 822 115" width="822px" zoomAndPan="magnify"><defs><filter height="300%" id="fqhmipgb5r7kl" width="300%" x="-1" y="-1"><feGaussianBlur result="blurOut" stdDeviation="2.0"/><feColorMatrix in="blurOut" result="blurOut2" type="matrix" values="0 0 0 0 0 0 0 0 0 0 0 0 0 0 0 0 0 0 .4 0"/><feOffset dx="4.0" dy="4.0" in="blurOut2" result="blurOut3"/><feBlend in="SourceGraphic" in2="blurOut3" mode="normal"/></filter></defs><g><!--MD5=[df38be88ccee13e832d6fafd6288a4ca]
class Test--><rect codeLine="3" fill="#FEFECE" filter="url(#fqhmipgb5r7kl)" height="48" id="Test" style="stroke:#A80036;stroke-width:1.5;" width="59" x="749" y="53.5659"/><ellipse cx="764" cy="69.5659" fill="#ADD1B2" rx="11" ry="11" style="stroke:#A80036;stroke-width:1.0;"/><path d="M766.9688,75.2065 Q766.3906,75.5034 765.75,75.644 Q765.1094,75.8003 764.4063,75.8003 Q761.9063,75.8003 760.5781,74.1597 Q759.2656,72.5034 759.2656,69.3784 Q759.2656,66.2534 760.5781,64.5972 Q761.9063,62.9409 764.4063,62.9409 Q765.1094,62.9409 765.75,63.0972 Q766.4063,63.2534 766.9688,63.5503 L766.9688,66.269 Q766.3438,65.6909 765.75,65.4253 Q765.1563,65.144 764.5313,65.144 Q763.1875,65.144 762.5,66.2222 Q761.8125,67.2847 761.8125,69.3784 Q761.8125,71.4722 762.5,72.5503 Q763.1875,73.6128 764.5313,73.6128 Q765.1563,73.6128 765.75,73.3472 Q766.3438,73.0659 766.9688,72.4878 L766.9688,75.2065 Z " fill="#000000"/><text fill="#000000" font-family="sans-serif" font-size="12" lengthAdjust="spacing" textLength="27" x="778" y="73.7202">Test</text><line style="stroke:#A80036;stroke-width:1.5;" x1="750" x2="807" y1="85.5659" y2="85.5659"/><line style="stroke:#A80036;stroke-width:1.5;" x1="750" x2="807" y1="93.5659" y2="93.5659"/><!--MD5=[ed6624c6556d5e7b1bd23032162d20b7]
class Client--><rect codeLine="4" fill="#FEFECE" filter="url(#fqhmipgb5r7kl)" height="48" id="Client" style="stroke:#A80036;stroke-width:1.5;" width="67" x="7" y="53.5659"/><ellipse cx="22" cy="69.5659" fill="#ADD1B2" rx="11" ry="11" style="stroke:#A80036;stroke-width:1.0;"/><path d="M24.9688,75.2065 Q24.3906,75.5034 23.75,75.644 Q23.1094,75.8003 22.4063,75.8003 Q19.9063,75.8003 18.5781,74.1597 Q17.2656,72.5034 17.2656,69.3784 Q17.2656,66.2534 18.5781,64.5972 Q19.9063,62.9409 22.4063,62.9409 Q23.1094,62.9409 23.75,63.0972 Q24.4063,63.2534 24.9688,63.5503 L24.9688,66.269 Q24.3438,65.6909 23.75,65.4253 Q23.1563,65.144 22.5313,65.144 Q21.1875,65.144 20.5,66.2222 Q19.8125,67.2847 19.8125,69.3784 Q19.8125,71.4722 20.5,72.5503 Q21.1875,73.6128 22.5313,73.6128 Q23.1563,73.6128 23.75,73.3472 Q24.3438,73.0659 24.9688,72.4878 L24.9688,75.2065 Z " fill="#000000"/><text fill="#000000" font-family="sans-serif" font-size="12" lengthAdjust="spacing" textLength="35" x="36" y="73.7202">Client</text><line style="stroke:#A80036;stroke-width:1.5;" x1="8" x2="73" y1="85.5659" y2="85.5659"/><line style="stroke:#A80036;stroke-width:1.5;" x1="8" x2="73" y1="93.5659" y2="93.5659"/><!--MD5=[02e4b9b7573f1156f41e60aa5b4e25a4]
class Company--><rect codeLine="5" fill="#FEFECE" filter="url(#fqhmipgb5r7kl)" height="48" id="Company" style="stroke:#A80036;stroke-width:1.5;" width="89" x="552" y="53.5659"/><ellipse cx="567" cy="69.5659" fill="#ADD1B2" rx="11" ry="11" style="stroke:#A80036;stroke-width:1.0;"/><path d="M569.9688,75.2065 Q569.3906,75.5034 568.75,75.644 Q568.1094,75.8003 567.4063,75.8003 Q564.9063,75.8003 563.5781,74.1597 Q562.2656,72.5034 562.2656,69.3784 Q562.2656,66.2534 563.5781,64.5972 Q564.9063,62.9409 567.4063,62.9409 Q568.1094,62.9409 568.75,63.0972 Q569.4063,63.2534 569.9688,63.5503 L569.9688,66.269 Q569.3438,65.6909 568.75,65.4253 Q568.1563,65.144 567.5313,65.144 Q566.1875,65.144 565.5,66.2222 Q564.8125,67.2847 564.8125,69.3784 Q564.8125,71.4722 565.5,72.5503 Q566.1875,73.6128 567.5313,73.6128 Q568.1563,73.6128 568.75,73.3472 Q569.3438,73.0659 569.9688,72.4878 L569.9688,75.2065 Z " fill="#000000"/><text fill="#000000" font-family="sans-serif" font-size="12" lengthAdjust="spacing" textLength="57" x="581" y="73.7202">Company</text><line style="stroke:#A80036;stroke-width:1.5;" x1="553" x2="640" y1="85.5659" y2="85.5659"/><line style="stroke:#A80036;stroke-width:1.5;" x1="553" x2="640" y1="93.5659" y2="93.5659"/><!--MD5=[052425de1c0eb6cc1c1b48342b0bb88f]
class LaboratoryCoordinator--><rect fill="#FEFECE" filter="url(#fqhmipgb5r7kl)" height="48" id="LaboratoryCoordinator" style="stroke:#A80036;stroke-width:1.5;" width="173" x="109" y="53.5659"/><ellipse cx="124" cy="69.5659" fill="#ADD1B2" rx="11" ry="11" style="stroke:#A80036;stroke-width:1.0;"/><path d="M126.9688,75.2065 Q126.3906,75.5034 125.75,75.644 Q125.1094,75.8003 124.4063,75.8003 Q121.9063,75.8003 120.5781,74.1597 Q119.2656,72.5034 119.2656,69.3784 Q119.2656,66.2534 120.5781,64.5972 Q121.9063,62.9409 124.4063,62.9409 Q125.1094,62.9409 125.75,63.0972 Q126.4063,63.2534 126.9688,63.5503 L126.9688,66.269 Q126.3438,65.6909 125.75,65.4253 Q125.1563,65.144 124.5313,65.144 Q123.1875,65.144 122.5,66.2222 Q121.8125,67.2847 121.8125,69.3784 Q121.8125,71.4722 122.5,72.5503 Q123.1875,73.6128 124.5313,73.6128 Q125.1563,73.6128 125.75,73.3472 Q126.3438,73.0659 126.9688,72.4878 L126.9688,75.2065 Z " fill="#000000"/><text fill="#000000" font-family="sans-serif" font-size="12" lengthAdjust="spacing" textLength="141" x="138" y="73.7202">LaboratoryCoordinator</text><line style="stroke:#A80036;stroke-width:1.5;" x1="110" x2="281" y1="85.5659" y2="85.5659"/><line style="stroke:#A80036;stroke-width:1.5;" x1="110" x2="281" y1="93.5659" y2="93.5659"/><!--MD5=[7421f545a0d8420c5bec41e74b387d9c]
class Employee--><rect fill="#FEFECE" filter="url(#fqhmipgb5r7kl)" height="48" id="Employee" style="stroke:#A80036;stroke-width:1.5;" width="92" x="353.5" y="53.5659"/><ellipse cx="368.5" cy="69.5659" fill="#ADD1B2" rx="11" ry="11" style="stroke:#A80036;stroke-width:1.0;"/><path d="M371.4688,75.2065 Q370.8906,75.5034 370.25,75.644 Q369.6094,75.8003 368.9063,75.8003 Q366.4063,75.8003 365.0781,74.1597 Q363.7656,72.5034 363.7656,69.3784 Q363.7656,66.2534 365.0781,64.5972 Q366.4063,62.9409 368.9063,62.9409 Q369.6094,62.9409 370.25,63.0972 Q370.9063,63.2534 371.4688,63.5503 L371.4688,66.269 Q370.8438,65.6909 370.25,65.4253 Q369.6563,65.144 369.0313,65.144 Q367.6875,65.144 367,66.2222 Q366.3125,67.2847 366.3125,69.3784 Q366.3125,71.4722 367,72.5503 Q367.6875,73.6128 369.0313,73.6128 Q369.6563,73.6128 370.25,73.3472 Q370.8438,73.0659 371.4688,72.4878 L371.4688,75.2065 Z " fill="#000000"/><text fill="#000000" font-family="sans-serif" font-size="12" lengthAdjust="spacing" textLength="60" x="382.5" y="73.7202">Employee</text><line style="stroke:#A80036;stroke-width:1.5;" x1="354.5" x2="444.5" y1="85.5659" y2="85.5659"/><line style="stroke:#A80036;stroke-width:1.5;" x1="354.5" x2="444.5" y1="93.5659" y2="93.5659"/><!--MD5=[7e4bc624457760b649895ff2ead938fa]
link Company to Test--><path codeLine="7" d="M641.0222,77.5659 C674.5925,77.5659 719.6982,77.5659 748.9336,77.5659 " fill="none" id="Company-Test" style="stroke:#A80036;stroke-width:1.0;"/><polygon fill="#000000" points="668.5,66.1323,659.4549,63.1934,659.4549,69.0713,668.5,66.1323" style="stroke:#000000;stroke-width:1.0;"/><text fill="#000000" font-family="sans-serif" font-size="13" lengthAdjust="spacing" textLength="58" x="672.5" y="70.6328">performs</text><text fill="#000000" font-family="sans-serif" font-size="13" lengthAdjust="spacing" textLength="8" x="649.0587" y="73.4016">1</text><text fill="#000000" font-family="sans-serif" font-size="13" lengthAdjust="spacing" textLength="7" x="733.8737" y="91.4771">*</text><!--MD5=[502b51bc079239060389dab43b7d3470]
link Client to Test--><path codeLine="8" d="M74.2303,59.9546 C79.8849,57.5106 85.7765,55.2607 91.5,53.5659 C207.8478,19.1132 240.9385,24.8072 362,16.5659 C494.4932,7.5464 528.1226,28.3166 658.5,53.5659 C689.3704,59.5444 724.6543,66.6317 748.9309,71.5476 " fill="none" id="Client-Test" style="stroke:#A80036;stroke-width:1.0;"/><polygon fill="#000000" points="362.0007,15.0464,370.994,18.1403,371.095,12.2633,362.0007,15.0464" style="stroke:#000000;stroke-width:1.0;"/><text fill="#000000" font-family="sans-serif" font-size="13" lengthAdjust="spacing" textLength="84" x="376" y="19.6328">requested by</text><text fill="#000000" font-family="sans-serif" font-size="13" lengthAdjust="spacing" textLength="8" x="82.0122" y="51.856">1</text><text fill="#000000" font-family="sans-serif" font-size="13" lengthAdjust="spacing" textLength="7" x="733.8703" y="65.3356">*</text><!--MD5=[bc1c1d8da623d615fbfb1cbca2838790]
link LaboratoryCoordinator to Employee--><path codeLine="9" d="M282.0144,77.5659 C306.5566,77.5659 332.3235,77.5659 353.4521,77.5659 " fill="none" id="LaboratoryCoordinator-Employee" style="stroke:#A80036;stroke-width:1.0;"/><polygon fill="#000000" points="299.25,66.1323,308.2951,69.0713,308.2951,63.1934,299.25,66.1323" style="stroke:#000000;stroke-width:1.0;"/><text fill="#000000" font-family="sans-serif" font-size="13" lengthAdjust="spacing" textLength="22" x="313.25" y="70.6328">is a</text><text fill="#000000" font-family="sans-serif" font-size="13" lengthAdjust="spacing" textLength="23" x="290.1312" y="90.2594">1..*</text><text fill="#000000" font-family="sans-serif" font-size="13" lengthAdjust="spacing" textLength="7" x="338.5554" y="73.4481">*</text><!--MD5=[d7ace9ce94145b54e26b24a174e1b7b9]
link Employee to Company--><path codeLine="10" d="M445.6877,77.5659 C477.7582,77.5659 520.2515,77.5659 551.9573,77.5659 " fill="none" id="Employee-Company" style="stroke:#A80036;stroke-width:1.0;"/><polygon fill="#000000" points="472.75,66.1323,463.7049,63.1934,463.7049,69.0713,472.75,66.1323" style="stroke:#000000;stroke-width:1.0;"/><text fill="#000000" font-family="sans-serif" font-size="13" lengthAdjust="spacing" textLength="57" x="476.75" y="70.6328">works for</text><text fill="#000000" font-family="sans-serif" font-size="13" lengthAdjust="spacing" textLength="7" x="453.6067" y="73.4481">*</text><text fill="#000000" font-family="sans-serif" font-size="13" lengthAdjust="spacing" textLength="8" x="535.9174" y="73.4016">1</text><!--MD5=[7da4c3a5572fea41bc8ed87e7f456c92]
@startuml
skinparam classAttributeIconSize 0

class "Test"
class "Client"
class "Company"

"Company" "1" - "*" "Test" : > performs
"Client" "1" - "*" "Test" : < requested by
"LaboratoryCoordinator" "1..*" - "*" "Employee" : < is a
"Employee" "*" - "1" "Company" : > works for
@enduml

PlantUML version 1.2021.7(Sun May 23 12:40:07 UTC 2021)
(GPL source distribution)
Java Runtime: OpenJDK Runtime Environment
JVM: OpenJDK 64-Bit Server VM
Default Encoding: UTF-8
Language: en
Country: US
--></g></svg>