<?xml version="1.0" encoding="UTF-8" standalone="no"?><svg xmlns="http://www.w3.org/2000/svg" xmlns:xlink="http://www.w3.org/1999/xlink" contentScriptType="application/ecmascript" contentStyleType="text/css" height="1245.33px" preserveAspectRatio="none" style="width:940px;height:1245px;" version="1.1" viewBox="0 0 940 1245" width="940.31px" zoomAndPan="magnify"><defs><filter height="300%" id="f1qstxf9zg0oof" width="300%" x="-1" y="-1"><feGaussianBlur result="blurOut" stdDeviation="2.02"/><feColorMatrix in="blurOut" result="blurOut2" type="matrix" values="0 0 0 0 0 0 0 0 0 0 0 0 0 0 0 0 0 0 .4 0"/><feOffset dx="4.04" dy="4.04" in="blurOut2" result="blurOut3"/><feBlend in="SourceGraphic" in2="blurOut3" mode="normal"/></filter></defs><g><!--MD5=[02e4b9b7573f1156f41e60aa5b4e25a4]
class Company--><rect codeLine="2" fill="#FEFECE" filter="url(#f1qstxf9zg0oof)" height="48.48" id="Company" style="stroke:#A80036;stroke-width:1.5150000000000001;" width="85.85" x="416.12" y="1182.71"/><ellipse cx="431.27" cy="1198.87" fill="#ADD1B2" rx="11.11" ry="11.11" style="stroke:#A80036;stroke-width:1.01;"/><path d="M433.29,1195.335 Q433.4952,1194.83 433.7319,1194.5775 Q433.9686,1194.325 434.2369,1194.325 Q434.7103,1194.325 435.0102,1194.6091 Q435.31,1194.8931 435.31,1195.5559 L435.31,1197.1341 Q435.31,1197.7969 435.0259,1198.0809 Q434.7419,1198.365 434.3,1198.365 Q433.9055,1198.365 433.653,1198.1914 Q433.4005,1198.0178 433.29,1197.5602 Q433.2427,1197.2445 433.0691,1197.0709 Q432.7534,1196.7395 432.1853,1196.5502 Q431.6172,1196.345 431.0491,1196.345 Q430.3389,1196.345 429.7392,1196.6291 Q429.1553,1196.9131 428.6977,1197.5444 Q428.24,1198.1756 428.24,1199.0436 L428.24,1199.9747 Q428.24,1201.0163 429.0922,1201.7106 Q429.9444,1202.405 431.4594,1202.405 Q432.3589,1202.405 432.9902,1202.1998 Q433.3531,1202.0894 433.7634,1201.7264 Q434.0317,1201.5213 434.1738,1201.4581 Q434.3158,1201.395 434.4894,1201.395 Q434.8208,1201.395 435.0575,1201.6633 Q435.31,1201.9158 435.31,1202.2788 Q435.31,1202.6259 434.9628,1203.0363 Q434.4578,1203.6359 433.653,1203.9673 Q432.5956,1204.425 431.3016,1204.425 Q429.7866,1204.425 428.5714,1203.8253 Q427.593,1203.3519 426.8986,1202.3261 Q426.22,1201.3003 426.22,1200.0852 L426.22,1198.9805 Q426.22,1197.718 426.8197,1196.6133 Q427.4352,1195.5086 428.4925,1194.9247 Q429.5656,1194.325 430.765,1194.325 Q431.4909,1194.325 432.1222,1194.5775 Q432.7534,1194.83 433.29,1195.335 Z " fill="#000000"/><text fill="#000000" font-family="sans-serif" font-size="12.12" lengthAdjust="spacing" textLength="53.53" x="445.41" y="1203.8293">Company</text><line style="stroke:#A80036;stroke-width:1.5150000000000001;" x1="417.13" x2="500.96" y1="1215.03" y2="1215.03"/><line style="stroke:#A80036;stroke-width:1.5150000000000001;" x1="417.13" x2="500.96" y1="1223.11" y2="1223.11"/><!--MD5=[a64badb107d3691f2dc6af242cdbeb21]
class ChemicalLaboratory--><rect codeLine="3" fill="#FEFECE" filter="url(#f1qstxf9zg0oof)" height="48.48" id="ChemicalLaboratory" style="stroke:#A80036;stroke-width:1.5150000000000001;" width="144.43" x="7.07" y="516.11"/><ellipse cx="22.22" cy="532.27" fill="#ADD1B2" rx="11.11" ry="11.11" style="stroke:#A80036;stroke-width:1.01;"/><path d="M24.24,528.735 Q24.4452,528.23 24.6819,527.9775 Q24.9186,527.725 25.1869,527.725 Q25.6603,527.725 25.9602,528.0091 Q26.26,528.2931 26.26,528.9559 L26.26,530.5341 Q26.26,531.1969 25.9759,531.4809 Q25.6919,531.765 25.25,531.765 Q24.8555,531.765 24.603,531.5914 Q24.3505,531.4178 24.24,530.9602 Q24.1927,530.6445 24.0191,530.4709 Q23.7034,530.1395 23.1353,529.9502 Q22.5672,529.745 21.9991,529.745 Q21.2889,529.745 20.6892,530.0291 Q20.1053,530.3131 19.6477,530.9444 Q19.19,531.5756 19.19,532.4436 L19.19,533.3747 Q19.19,534.4163 20.0422,535.1106 Q20.8944,535.805 22.4094,535.805 Q23.3089,535.805 23.9402,535.5998 Q24.3031,535.4894 24.7134,535.1264 Q24.9817,534.9213 25.1238,534.8581 Q25.2658,534.795 25.4394,534.795 Q25.7708,534.795 26.0075,535.0633 Q26.26,535.3158 26.26,535.6788 Q26.26,536.0259 25.9128,536.4363 Q25.4078,537.0359 24.603,537.3673 Q23.5456,537.825 22.2516,537.825 Q20.7366,537.825 19.5214,537.2253 Q18.543,536.7519 17.8486,535.7261 Q17.17,534.7003 17.17,533.4852 L17.17,532.3805 Q17.17,531.118 17.7697,530.0133 Q18.3852,528.9086 19.4425,528.3247 Q20.5156,527.725 21.715,527.725 Q22.4409,527.725 23.0722,527.9775 Q23.7034,528.23 24.24,528.735 Z " fill="#000000"/><text fill="#000000" font-family="sans-serif" font-size="12.12" lengthAdjust="spacing" textLength="112.11" x="36.36" y="537.2293">ChemicalLaboratory</text><line style="stroke:#A80036;stroke-width:1.5150000000000001;" x1="8.08" x2="150.49" y1="548.43" y2="548.43"/><line style="stroke:#A80036;stroke-width:1.5150000000000001;" x1="8.08" x2="150.49" y1="556.51" y2="556.51"/><!--MD5=[1934a092c0e7d4da7dc7075b6f4b6b03]
class ClinicalAnalysisLaboratory--><rect codeLine="4" fill="#FEFECE" filter="url(#f1qstxf9zg0oof)" height="48.48" id="ClinicalAnalysisLaboratory" style="stroke:#A80036;stroke-width:1.5150000000000001;" width="178.77" x="262.6" y="1055.45"/><ellipse cx="277.75" cy="1071.61" fill="#ADD1B2" rx="11.11" ry="11.11" style="stroke:#A80036;stroke-width:1.01;"/><path d="M279.77,1068.075 Q279.9752,1067.57 280.2119,1067.3175 Q280.4486,1067.065 280.7169,1067.065 Q281.1903,1067.065 281.4902,1067.3491 Q281.79,1067.6331 281.79,1068.2959 L281.79,1069.8741 Q281.79,1070.5369 281.5059,1070.8209 Q281.2219,1071.105 280.78,1071.105 Q280.3855,1071.105 280.133,1070.9314 Q279.8805,1070.7578 279.77,1070.3002 Q279.7227,1069.9845 279.5491,1069.8109 Q279.2334,1069.4795 278.6653,1069.2902 Q278.0972,1069.085 277.5291,1069.085 Q276.8189,1069.085 276.2192,1069.3691 Q275.6353,1069.6531 275.1777,1070.2844 Q274.72,1070.9156 274.72,1071.7836 L274.72,1072.7147 Q274.72,1073.7563 275.5722,1074.4506 Q276.4244,1075.145 277.9394,1075.145 Q278.8389,1075.145 279.4702,1074.9398 Q279.8331,1074.8294 280.2434,1074.4664 Q280.5117,1074.2613 280.6538,1074.1981 Q280.7958,1074.135 280.9694,1074.135 Q281.3008,1074.135 281.5375,1074.4033 Q281.79,1074.6558 281.79,1075.0188 Q281.79,1075.3659 281.4428,1075.7763 Q280.9378,1076.3759 280.133,1076.7073 Q279.0756,1077.165 277.7816,1077.165 Q276.2666,1077.165 275.0514,1076.5653 Q274.073,1076.0919 273.3786,1075.0661 Q272.7,1074.0403 272.7,1072.8252 L272.7,1071.7205 Q272.7,1070.458 273.2997,1069.3533 Q273.9152,1068.2486 274.9725,1067.6647 Q276.0456,1067.065 277.245,1067.065 Q277.9709,1067.065 278.6022,1067.3175 Q279.2334,1067.57 279.77,1068.075 Z " fill="#000000"/><text fill="#000000" font-family="sans-serif" font-size="12.12" lengthAdjust="spacing" textLength="146.45" x="291.89" y="1076.5693">ClinicalAnalysisLaboratory</text><line style="stroke:#A80036;stroke-width:1.5150000000000001;" x1="263.61" x2="440.36" y1="1087.77" y2="1087.77"/><line style="stroke:#A80036;stroke-width:1.5150000000000001;" x1="263.61" x2="440.36" y1="1095.85" y2="1095.85"/><!--MD5=[da547346deef918ea16944ba046651ef]
class Administrator--><rect codeLine="5" fill="#FEFECE" filter="url(#f1qstxf9zg0oof)" height="48.48" id="Administrator" style="stroke:#A80036;stroke-width:1.5150000000000001;" width="106.05" x="347.44" y="388.85"/><ellipse cx="362.59" cy="405.01" fill="#ADD1B2" rx="11.11" ry="11.11" style="stroke:#A80036;stroke-width:1.01;"/><path d="M364.61,401.475 Q364.8152,400.97 365.0519,400.7175 Q365.2886,400.465 365.5569,400.465 Q366.0303,400.465 366.3302,400.7491 Q366.63,401.0331 366.63,401.6959 L366.63,403.2741 Q366.63,403.9369 366.3459,404.2209 Q366.0619,404.505 365.62,404.505 Q365.2255,404.505 364.973,404.3314 Q364.7205,404.1578 364.61,403.7002 Q364.5627,403.3845 364.3891,403.2109 Q364.0734,402.8795 363.5053,402.6902 Q362.9372,402.485 362.3691,402.485 Q361.6589,402.485 361.0592,402.7691 Q360.4753,403.0531 360.0177,403.6844 Q359.56,404.3156 359.56,405.1836 L359.56,406.1147 Q359.56,407.1563 360.4122,407.8506 Q361.2644,408.545 362.7794,408.545 Q363.6789,408.545 364.3102,408.3398 Q364.6731,408.2294 365.0834,407.8664 Q365.3517,407.6613 365.4938,407.5981 Q365.6358,407.535 365.8094,407.535 Q366.1408,407.535 366.3775,407.8033 Q366.63,408.0558 366.63,408.4188 Q366.63,408.7659 366.2828,409.1763 Q365.7778,409.7759 364.973,410.1073 Q363.9156,410.565 362.6216,410.565 Q361.1066,410.565 359.8914,409.9653 Q358.913,409.4919 358.2186,408.4661 Q357.54,407.4403 357.54,406.2252 L357.54,405.1205 Q357.54,403.858 358.1397,402.7533 Q358.7552,401.6486 359.8125,401.0647 Q360.8856,400.465 362.085,400.465 Q362.8109,400.465 363.4422,400.7175 Q364.0734,400.97 364.61,401.475 Z " fill="#000000"/><text fill="#000000" font-family="sans-serif" font-size="12.12" lengthAdjust="spacing" textLength="73.73" x="376.73" y="409.9693">Administrator</text><line style="stroke:#A80036;stroke-width:1.5150000000000001;" x1="348.45" x2="452.48" y1="421.17" y2="421.17"/><line style="stroke:#A80036;stroke-width:1.5150000000000001;" x1="348.45" x2="452.48" y1="429.25" y2="429.25"/><!--MD5=[7d96fd15f3014691d2fcaf89c5791e2a]
class SpecialistDoctor--><rect codeLine="6" fill="#FEFECE" filter="url(#f1qstxf9zg0oof)" height="48.48" id="SpecialistDoctor" style="stroke:#A80036;stroke-width:1.5150000000000001;" width="123.22" x="93.425" y="134.33"/><ellipse cx="108.575" cy="150.49" fill="#ADD1B2" rx="11.11" ry="11.11" style="stroke:#A80036;stroke-width:1.01;"/><path d="M110.595,146.955 Q110.8002,146.45 111.0369,146.1975 Q111.2736,145.945 111.5419,145.945 Q112.0153,145.945 112.3152,146.2291 Q112.615,146.5131 112.615,147.1759 L112.615,148.7541 Q112.615,149.4169 112.3309,149.7009 Q112.0469,149.985 111.605,149.985 Q111.2105,149.985 110.958,149.8114 Q110.7055,149.6378 110.595,149.1802 Q110.5477,148.8645 110.3741,148.6909 Q110.0584,148.3595 109.4903,148.1702 Q108.9222,147.965 108.3541,147.965 Q107.6439,147.965 107.0442,148.2491 Q106.4603,148.5331 106.0027,149.1644 Q105.545,149.7956 105.545,150.6636 L105.545,151.5947 Q105.545,152.6363 106.3972,153.3306 Q107.2494,154.025 108.7644,154.025 Q109.6639,154.025 110.2952,153.8198 Q110.6581,153.7094 111.0684,153.3464 Q111.3367,153.1413 111.4788,153.0781 Q111.6208,153.015 111.7944,153.015 Q112.1258,153.015 112.3625,153.2833 Q112.615,153.5358 112.615,153.8988 Q112.615,154.2459 112.2678,154.6563 Q111.7628,155.2559 110.958,155.5873 Q109.9006,156.045 108.6066,156.045 Q107.0916,156.045 105.8764,155.4453 Q104.898,154.9719 104.2036,153.9461 Q103.525,152.9203 103.525,151.7052 L103.525,150.6005 Q103.525,149.338 104.1247,148.2333 Q104.7402,147.1286 105.7975,146.5447 Q106.8706,145.945 108.07,145.945 Q108.7959,145.945 109.4272,146.1975 Q110.0584,146.45 110.595,146.955 Z " fill="#000000"/><text fill="#000000" font-family="sans-serif" font-size="12.12" lengthAdjust="spacing" textLength="90.9" x="122.715" y="155.4493">SpecialistDoctor</text><line style="stroke:#A80036;stroke-width:1.5150000000000001;" x1="94.435" x2="215.635" y1="166.65" y2="166.65"/><line style="stroke:#A80036;stroke-width:1.5150000000000001;" x1="94.435" x2="215.635" y1="174.73" y2="174.73"/><!--MD5=[012ee2a8bf3ae2b319009b06f951c2e5]
class ClinicalChemistryTechnologist--><rect codeLine="7" fill="#FEFECE" filter="url(#f1qstxf9zg0oof)" height="48.48" id="ClinicalChemistryTechnologist" style="stroke:#A80036;stroke-width:1.5150000000000001;" width="202" x="54.035" y="388.85"/><ellipse cx="69.185" cy="405.01" fill="#ADD1B2" rx="11.11" ry="11.11" style="stroke:#A80036;stroke-width:1.01;"/><path d="M71.205,401.475 Q71.4102,400.97 71.6469,400.7175 Q71.8836,400.465 72.1519,400.465 Q72.6253,400.465 72.9252,400.7491 Q73.225,401.0331 73.225,401.6959 L73.225,403.2741 Q73.225,403.9369 72.9409,404.2209 Q72.6569,404.505 72.215,404.505 Q71.8205,404.505 71.568,404.3314 Q71.3155,404.1578 71.205,403.7002 Q71.1577,403.3845 70.9841,403.2109 Q70.6684,402.8795 70.1003,402.6902 Q69.5322,402.485 68.9641,402.485 Q68.2539,402.485 67.6542,402.7691 Q67.0703,403.0531 66.6127,403.6844 Q66.155,404.3156 66.155,405.1836 L66.155,406.1147 Q66.155,407.1563 67.0072,407.8506 Q67.8594,408.545 69.3744,408.545 Q70.2739,408.545 70.9052,408.3398 Q71.2681,408.2294 71.6784,407.8664 Q71.9467,407.6613 72.0888,407.5981 Q72.2308,407.535 72.4044,407.535 Q72.7358,407.535 72.9725,407.8033 Q73.225,408.0558 73.225,408.4188 Q73.225,408.7659 72.8778,409.1763 Q72.3728,409.7759 71.568,410.1073 Q70.5106,410.565 69.2166,410.565 Q67.7016,410.565 66.4864,409.9653 Q65.508,409.4919 64.8136,408.4661 Q64.135,407.4403 64.135,406.2252 L64.135,405.1205 Q64.135,403.858 64.7347,402.7533 Q65.3502,401.6486 66.4075,401.0647 Q67.4806,400.465 68.68,400.465 Q69.4059,400.465 70.0372,400.7175 Q70.6684,400.97 71.205,401.475 Z " fill="#000000"/><text fill="#000000" font-family="sans-serif" font-size="12.12" lengthAdjust="spacing" textLength="169.68" x="83.325" y="409.9693">ClinicalChemistryTechnologist</text><line style="stroke:#A80036;stroke-width:1.5150000000000001;" x1="55.045" x2="255.025" y1="421.17" y2="421.17"/><line style="stroke:#A80036;stroke-width:1.5150000000000001;" x1="55.045" x2="255.025" y1="429.25" y2="429.25"/><!--MD5=[01931d41e78f8996acd44f6f0fd8de28]
class MedicalLabTechnician--><rect codeLine="8" fill="#FEFECE" filter="url(#f1qstxf9zg0oof)" height="48.48" id="MedicalLabTechnician" style="stroke:#A80036;stroke-width:1.5150000000000001;" width="156.55" x="133.32" y="849.41"/><ellipse cx="148.47" cy="865.57" fill="#ADD1B2" rx="11.11" ry="11.11" style="stroke:#A80036;stroke-width:1.01;"/><path d="M150.49,862.035 Q150.6952,861.53 150.9319,861.2775 Q151.1686,861.025 151.4369,861.025 Q151.9103,861.025 152.2102,861.3091 Q152.51,861.5931 152.51,862.2559 L152.51,863.8341 Q152.51,864.4969 152.2259,864.7809 Q151.9419,865.065 151.5,865.065 Q151.1055,865.065 150.853,864.8914 Q150.6005,864.7178 150.49,864.2602 Q150.4427,863.9445 150.2691,863.7709 Q149.9534,863.4395 149.3853,863.2502 Q148.8172,863.045 148.2491,863.045 Q147.5389,863.045 146.9392,863.3291 Q146.3553,863.6131 145.8977,864.2444 Q145.44,864.8756 145.44,865.7436 L145.44,866.6747 Q145.44,867.7163 146.2922,868.4106 Q147.1444,869.105 148.6594,869.105 Q149.5589,869.105 150.1902,868.8998 Q150.5531,868.7894 150.9634,868.4264 Q151.2317,868.2213 151.3738,868.1581 Q151.5158,868.095 151.6894,868.095 Q152.0208,868.095 152.2575,868.3633 Q152.51,868.6158 152.51,868.9788 Q152.51,869.3259 152.1628,869.7363 Q151.6578,870.3359 150.853,870.6673 Q149.7956,871.125 148.5016,871.125 Q146.9866,871.125 145.7714,870.5253 Q144.793,870.0519 144.0986,869.0261 Q143.42,868.0003 143.42,866.7852 L143.42,865.6805 Q143.42,864.418 144.0197,863.3133 Q144.6352,862.2086 145.6925,861.6247 Q146.7656,861.025 147.965,861.025 Q148.6909,861.025 149.3222,861.2775 Q149.9534,861.53 150.49,862.035 Z " fill="#000000"/><text fill="#000000" font-family="sans-serif" font-size="12.12" lengthAdjust="spacing" textLength="124.23" x="162.61" y="870.5293">MedicalLabTechnician</text><line style="stroke:#A80036;stroke-width:1.5150000000000001;" x1="134.33" x2="288.86" y1="881.73" y2="881.73"/><line style="stroke:#A80036;stroke-width:1.5150000000000001;" x1="134.33" x2="288.86" y1="889.81" y2="889.81"/><!--MD5=[03960189e81aa2c066c762ffabbee709]
class Receptionist--><rect codeLine="9" fill="#FEFECE" filter="url(#f1qstxf9zg0oof)" height="48.48" id="Receptionist" style="stroke:#A80036;stroke-width:1.5150000000000001;" width="102.01" x="581.76" y="928.19"/><ellipse cx="596.91" cy="944.35" fill="#ADD1B2" rx="11.11" ry="11.11" style="stroke:#A80036;stroke-width:1.01;"/><path d="M598.93,940.815 Q599.1352,940.31 599.3719,940.0575 Q599.6086,939.805 599.8769,939.805 Q600.3503,939.805 600.6502,940.0891 Q600.95,940.3731 600.95,941.0359 L600.95,942.6141 Q600.95,943.2769 600.6659,943.5609 Q600.3819,943.845 599.94,943.845 Q599.5455,943.845 599.293,943.6714 Q599.0405,943.4978 598.93,943.0402 Q598.8827,942.7245 598.7091,942.5509 Q598.3934,942.2195 597.8253,942.0302 Q597.2572,941.825 596.6891,941.825 Q595.9789,941.825 595.3792,942.1091 Q594.7953,942.3931 594.3377,943.0244 Q593.88,943.6556 593.88,944.5236 L593.88,945.4547 Q593.88,946.4963 594.7322,947.1906 Q595.5844,947.885 597.0994,947.885 Q597.9989,947.885 598.6302,947.6798 Q598.9931,947.5694 599.4034,947.2064 Q599.6717,947.0013 599.8138,946.9381 Q599.9558,946.875 600.1294,946.875 Q600.4608,946.875 600.6975,947.1433 Q600.95,947.3958 600.95,947.7588 Q600.95,948.1059 600.6028,948.5163 Q600.0978,949.1159 599.293,949.4473 Q598.2356,949.905 596.9416,949.905 Q595.4266,949.905 594.2114,949.3053 Q593.233,948.8319 592.5386,947.8061 Q591.86,946.7803 591.86,945.5652 L591.86,944.4605 Q591.86,943.198 592.4597,942.0933 Q593.0752,940.9886 594.1325,940.4047 Q595.2056,939.805 596.405,939.805 Q597.1309,939.805 597.7622,940.0575 Q598.3934,940.31 598.93,940.815 Z " fill="#000000"/><text fill="#000000" font-family="sans-serif" font-size="12.12" lengthAdjust="spacing" textLength="69.69" x="611.05" y="949.3093">Receptionist</text><line style="stroke:#A80036;stroke-width:1.5150000000000001;" x1="582.77" x2="682.76" y1="960.51" y2="960.51"/><line style="stroke:#A80036;stroke-width:1.5150000000000001;" x1="582.77" x2="682.76" y1="968.59" y2="968.59"/><!--MD5=[ed6624c6556d5e7b1bd23032162d20b7]
class Client--><rect codeLine="10" fill="#FEFECE" filter="url(#f1qstxf9zg0oof)" height="48.48" id="Client" style="stroke:#A80036;stroke-width:1.5150000000000001;" width="64.64" x="614.585" y="643.37"/><ellipse cx="629.735" cy="659.53" fill="#ADD1B2" rx="11.11" ry="11.11" style="stroke:#A80036;stroke-width:1.01;"/><path d="M631.755,655.995 Q631.9602,655.49 632.1969,655.2375 Q632.4336,654.985 632.7019,654.985 Q633.1753,654.985 633.4752,655.2691 Q633.775,655.5531 633.775,656.2159 L633.775,657.7941 Q633.775,658.4569 633.4909,658.7409 Q633.2069,659.025 632.765,659.025 Q632.3705,659.025 632.118,658.8514 Q631.8655,658.6778 631.755,658.2202 Q631.7077,657.9045 631.5341,657.7309 Q631.2184,657.3995 630.6503,657.2102 Q630.0822,657.005 629.5141,657.005 Q628.8039,657.005 628.2042,657.2891 Q627.6203,657.5731 627.1627,658.2044 Q626.705,658.8356 626.705,659.7036 L626.705,660.6347 Q626.705,661.6763 627.5572,662.3706 Q628.4094,663.065 629.9244,663.065 Q630.8239,663.065 631.4552,662.8598 Q631.8181,662.7494 632.2284,662.3864 Q632.4967,662.1813 632.6388,662.1181 Q632.7808,662.055 632.9544,662.055 Q633.2858,662.055 633.5225,662.3233 Q633.775,662.5758 633.775,662.9388 Q633.775,663.2859 633.4278,663.6963 Q632.9228,664.2959 632.118,664.6273 Q631.0606,665.085 629.7666,665.085 Q628.2516,665.085 627.0364,664.4853 Q626.058,664.0119 625.3636,662.9861 Q624.685,661.9603 624.685,660.7452 L624.685,659.6405 Q624.685,658.378 625.2847,657.2733 Q625.9002,656.1686 626.9575,655.5847 Q628.0306,654.985 629.23,654.985 Q629.9559,654.985 630.5872,655.2375 Q631.2184,655.49 631.755,655.995 Z " fill="#000000"/><text fill="#000000" font-family="sans-serif" font-size="12.12" lengthAdjust="spacing" textLength="32.32" x="643.875" y="664.4893">Client</text><line style="stroke:#A80036;stroke-width:1.5150000000000001;" x1="615.595" x2="678.215" y1="675.69" y2="675.69"/><line style="stroke:#A80036;stroke-width:1.5150000000000001;" x1="615.595" x2="678.215" y1="683.77" y2="683.77"/><!--MD5=[a999c1570c205a2156b04a15307bc1ff]
class LabOrder--><rect codeLine="11" fill="#FEFECE" filter="url(#f1qstxf9zg0oof)" height="48.48" id="LabOrder" style="stroke:#A80036;stroke-width:1.5150000000000001;" width="84.84" x="604.485" y="516.11"/><ellipse cx="619.635" cy="532.27" fill="#ADD1B2" rx="11.11" ry="11.11" style="stroke:#A80036;stroke-width:1.01;"/><path d="M621.655,528.735 Q621.8602,528.23 622.0969,527.9775 Q622.3336,527.725 622.6019,527.725 Q623.0753,527.725 623.3752,528.0091 Q623.675,528.2931 623.675,528.9559 L623.675,530.5341 Q623.675,531.1969 623.3909,531.4809 Q623.1069,531.765 622.665,531.765 Q622.2705,531.765 622.018,531.5914 Q621.7655,531.4178 621.655,530.9602 Q621.6077,530.6445 621.4341,530.4709 Q621.1184,530.1395 620.5503,529.9502 Q619.9822,529.745 619.4141,529.745 Q618.7039,529.745 618.1042,530.0291 Q617.5203,530.3131 617.0627,530.9444 Q616.605,531.5756 616.605,532.4436 L616.605,533.3747 Q616.605,534.4163 617.4572,535.1106 Q618.3094,535.805 619.8244,535.805 Q620.7239,535.805 621.3552,535.5998 Q621.7181,535.4894 622.1284,535.1264 Q622.3967,534.9213 622.5388,534.8581 Q622.6808,534.795 622.8544,534.795 Q623.1858,534.795 623.4225,535.0633 Q623.675,535.3158 623.675,535.6788 Q623.675,536.0259 623.3278,536.4363 Q622.8228,537.0359 622.018,537.3673 Q620.9606,537.825 619.6666,537.825 Q618.1516,537.825 616.9364,537.2253 Q615.958,536.7519 615.2636,535.7261 Q614.585,534.7003 614.585,533.4852 L614.585,532.3805 Q614.585,531.118 615.1847,530.0133 Q615.8002,528.9086 616.8575,528.3247 Q617.9306,527.725 619.13,527.725 Q619.8559,527.725 620.4872,527.9775 Q621.1184,528.23 621.655,528.735 Z " fill="#000000"/><text fill="#000000" font-family="sans-serif" font-size="12.12" lengthAdjust="spacing" textLength="52.52" x="633.775" y="537.2293">LabOrder</text><line style="stroke:#A80036;stroke-width:1.5150000000000001;" x1="605.495" x2="688.315" y1="548.43" y2="548.43"/><line style="stroke:#A80036;stroke-width:1.5150000000000001;" x1="605.495" x2="688.315" y1="556.51" y2="556.51"/><!--MD5=[2741598bdf59a7d7e0d5c97658fd3022]
class Result--><rect codeLine="12" fill="#FEFECE" filter="url(#f1qstxf9zg0oof)" height="48.48" id="Result" style="stroke:#A80036;stroke-width:1.5150000000000001;" width="68.68" x="120.695" y="261.59"/><ellipse cx="135.845" cy="277.75" fill="#ADD1B2" rx="11.11" ry="11.11" style="stroke:#A80036;stroke-width:1.01;"/><path d="M137.865,274.215 Q138.0702,273.71 138.3069,273.4575 Q138.5436,273.205 138.8119,273.205 Q139.2853,273.205 139.5852,273.4891 Q139.885,273.7731 139.885,274.4359 L139.885,276.0141 Q139.885,276.6769 139.6009,276.9609 Q139.3169,277.245 138.875,277.245 Q138.4805,277.245 138.228,277.0714 Q137.9755,276.8978 137.865,276.4402 Q137.8177,276.1245 137.6441,275.9509 Q137.3284,275.6195 136.7603,275.4302 Q136.1922,275.225 135.6241,275.225 Q134.9139,275.225 134.3142,275.5091 Q133.7303,275.7931 133.2727,276.4244 Q132.815,277.0556 132.815,277.9236 L132.815,278.8547 Q132.815,279.8963 133.6672,280.5906 Q134.5194,281.285 136.0344,281.285 Q136.9339,281.285 137.5652,281.0798 Q137.9281,280.9694 138.3384,280.6064 Q138.6067,280.4013 138.7488,280.3381 Q138.8908,280.275 139.0644,280.275 Q139.3958,280.275 139.6325,280.5433 Q139.885,280.7958 139.885,281.1588 Q139.885,281.5059 139.5378,281.9163 Q139.0328,282.5159 138.228,282.8473 Q137.1706,283.305 135.8766,283.305 Q134.3616,283.305 133.1464,282.7053 Q132.168,282.2319 131.4736,281.2061 Q130.795,280.1803 130.795,278.9652 L130.795,277.8605 Q130.795,276.598 131.3947,275.4933 Q132.0102,274.3886 133.0675,273.8047 Q134.1406,273.205 135.34,273.205 Q136.0659,273.205 136.6972,273.4575 Q137.3284,273.71 137.865,274.215 Z " fill="#000000"/><text fill="#000000" font-family="sans-serif" font-size="12.12" lengthAdjust="spacing" textLength="36.36" x="149.985" y="282.7093">Result</text><line style="stroke:#A80036;stroke-width:1.5150000000000001;" x1="121.705" x2="188.365" y1="293.91" y2="293.91"/><line style="stroke:#A80036;stroke-width:1.5150000000000001;" x1="121.705" x2="188.365" y1="301.99" y2="301.99"/><!--MD5=[f00dbe8c0302c6aec2cb26b3c659c8fc]
class Report--><rect codeLine="13" fill="#FEFECE" filter="url(#f1qstxf9zg0oof)" height="48.48" id="Report" style="stroke:#A80036;stroke-width:1.5150000000000001;" width="69.69" x="120.19" y="7.07"/><ellipse cx="135.34" cy="23.23" fill="#ADD1B2" rx="11.11" ry="11.11" style="stroke:#A80036;stroke-width:1.01;"/><path d="M137.36,19.695 Q137.5652,19.19 137.8019,18.9375 Q138.0386,18.685 138.3069,18.685 Q138.7803,18.685 139.0802,18.9691 Q139.38,19.2531 139.38,19.9159 L139.38,21.4941 Q139.38,22.1569 139.0959,22.4409 Q138.8119,22.725 138.37,22.725 Q137.9755,22.725 137.723,22.5514 Q137.4705,22.3778 137.36,21.9202 Q137.3127,21.6045 137.1391,21.4309 Q136.8234,21.0995 136.2553,20.9102 Q135.6872,20.705 135.1191,20.705 Q134.4089,20.705 133.8092,20.9891 Q133.2253,21.2731 132.7677,21.9044 Q132.31,22.5356 132.31,23.4036 L132.31,24.3347 Q132.31,25.3763 133.1622,26.0706 Q134.0144,26.765 135.5294,26.765 Q136.4289,26.765 137.0602,26.5598 Q137.4231,26.4494 137.8334,26.0864 Q138.1017,25.8813 138.2438,25.8181 Q138.3858,25.755 138.5594,25.755 Q138.8908,25.755 139.1275,26.0233 Q139.38,26.2758 139.38,26.6388 Q139.38,26.9859 139.0328,27.3963 Q138.5278,27.9959 137.723,28.3273 Q136.6656,28.785 135.3716,28.785 Q133.8566,28.785 132.6414,28.1853 Q131.663,27.7119 130.9686,26.6861 Q130.29,25.6603 130.29,24.4452 L130.29,23.3405 Q130.29,22.078 130.8897,20.9733 Q131.5052,19.8686 132.5625,19.2847 Q133.6356,18.685 134.835,18.685 Q135.5609,18.685 136.1922,18.9375 Q136.8234,19.19 137.36,19.695 Z " fill="#000000"/><text fill="#000000" font-family="sans-serif" font-size="12.12" lengthAdjust="spacing" textLength="37.37" x="149.48" y="28.1893">Report</text><line style="stroke:#A80036;stroke-width:1.5150000000000001;" x1="121.2" x2="188.87" y1="39.39" y2="39.39"/><line style="stroke:#A80036;stroke-width:1.5150000000000001;" x1="121.2" x2="188.87" y1="47.47" y2="47.47"/><!--MD5=[a96594a83e2ecdc78cbf17c2ddf01934]
class Category--><rect codeLine="14" fill="#FEFECE" filter="url(#f1qstxf9zg0oof)" height="48.48" id="Category" style="stroke:#A80036;stroke-width:1.5150000000000001;" width="81.81" x="352.49" y="516.11"/><ellipse cx="367.64" cy="532.27" fill="#ADD1B2" rx="11.11" ry="11.11" style="stroke:#A80036;stroke-width:1.01;"/><path d="M369.66,528.735 Q369.8652,528.23 370.1019,527.9775 Q370.3386,527.725 370.6069,527.725 Q371.0803,527.725 371.3802,528.0091 Q371.68,528.2931 371.68,528.9559 L371.68,530.5341 Q371.68,531.1969 371.3959,531.4809 Q371.1119,531.765 370.67,531.765 Q370.2755,531.765 370.023,531.5914 Q369.7705,531.4178 369.66,530.9602 Q369.6127,530.6445 369.4391,530.4709 Q369.1234,530.1395 368.5553,529.9502 Q367.9872,529.745 367.4191,529.745 Q366.7089,529.745 366.1092,530.0291 Q365.5253,530.3131 365.0677,530.9444 Q364.61,531.5756 364.61,532.4436 L364.61,533.3747 Q364.61,534.4163 365.4622,535.1106 Q366.3144,535.805 367.8294,535.805 Q368.7289,535.805 369.3602,535.5998 Q369.7231,535.4894 370.1334,535.1264 Q370.4017,534.9213 370.5438,534.8581 Q370.6858,534.795 370.8594,534.795 Q371.1908,534.795 371.4275,535.0633 Q371.68,535.3158 371.68,535.6788 Q371.68,536.0259 371.3328,536.4363 Q370.8278,537.0359 370.023,537.3673 Q368.9656,537.825 367.6716,537.825 Q366.1566,537.825 364.9414,537.2253 Q363.963,536.7519 363.2686,535.7261 Q362.59,534.7003 362.59,533.4852 L362.59,532.3805 Q362.59,531.118 363.1897,530.0133 Q363.8052,528.9086 364.8625,528.3247 Q365.9356,527.725 367.135,527.725 Q367.8609,527.725 368.4922,527.9775 Q369.1234,528.23 369.66,528.735 Z " fill="#000000"/><text fill="#000000" font-family="sans-serif" font-size="12.12" lengthAdjust="spacing" textLength="49.49" x="381.78" y="537.2293">Category</text><line style="stroke:#A80036;stroke-width:1.5150000000000001;" x1="353.5" x2="433.29" y1="548.43" y2="548.43"/><line style="stroke:#A80036;stroke-width:1.5150000000000001;" x1="353.5" x2="433.29" y1="556.51" y2="556.51"/><!--MD5=[1f6362a5c8f21d8d6a0fce68f3a92a4e]
class Parameter--><rect codeLine="15" fill="#FEFECE" filter="url(#f1qstxf9zg0oof)" height="48.48" id="Parameter" style="stroke:#A80036;stroke-width:1.5150000000000001;" width="90.9" x="323.705" y="643.37"/><ellipse cx="338.855" cy="659.53" fill="#ADD1B2" rx="11.11" ry="11.11" style="stroke:#A80036;stroke-width:1.01;"/><path d="M340.875,655.995 Q341.0802,655.49 341.3169,655.2375 Q341.5536,654.985 341.8219,654.985 Q342.2953,654.985 342.5952,655.2691 Q342.895,655.5531 342.895,656.2159 L342.895,657.7941 Q342.895,658.4569 342.6109,658.7409 Q342.3269,659.025 341.885,659.025 Q341.4905,659.025 341.238,658.8514 Q340.9855,658.6778 340.875,658.2202 Q340.8277,657.9045 340.6541,657.7309 Q340.3384,657.3995 339.7703,657.2102 Q339.2022,657.005 338.6341,657.005 Q337.9239,657.005 337.3242,657.2891 Q336.7403,657.5731 336.2827,658.2044 Q335.825,658.8356 335.825,659.7036 L335.825,660.6347 Q335.825,661.6763 336.6772,662.3706 Q337.5294,663.065 339.0444,663.065 Q339.9439,663.065 340.5752,662.8598 Q340.9381,662.7494 341.3484,662.3864 Q341.6167,662.1813 341.7588,662.1181 Q341.9008,662.055 342.0744,662.055 Q342.4058,662.055 342.6425,662.3233 Q342.895,662.5758 342.895,662.9388 Q342.895,663.2859 342.5478,663.6963 Q342.0428,664.2959 341.238,664.6273 Q340.1806,665.085 338.8866,665.085 Q337.3716,665.085 336.1564,664.4853 Q335.178,664.0119 334.4836,662.9861 Q333.805,661.9603 333.805,660.7452 L333.805,659.6405 Q333.805,658.378 334.4047,657.2733 Q335.0202,656.1686 336.0775,655.5847 Q337.1506,654.985 338.35,654.985 Q339.0759,654.985 339.7072,655.2375 Q340.3384,655.49 340.875,655.995 Z " fill="#000000"/><text fill="#000000" font-family="sans-serif" font-size="12.12" lengthAdjust="spacing" textLength="58.58" x="352.995" y="664.4893">Parameter</text><line style="stroke:#A80036;stroke-width:1.5150000000000001;" x1="324.715" x2="413.595" y1="675.69" y2="675.69"/><line style="stroke:#A80036;stroke-width:1.5150000000000001;" x1="324.715" x2="413.595" y1="683.77" y2="683.77"/><!--MD5=[aeb3272166074d8737a70b61b1e71682]
class TestType--><rect codeLine="16" fill="#FEFECE" filter="url(#f1qstxf9zg0oof)" height="48.48" id="TestType" style="stroke:#A80036;stroke-width:1.5150000000000001;" width="82.82" x="527.725" y="261.59"/><ellipse cx="542.875" cy="277.75" fill="#ADD1B2" rx="11.11" ry="11.11" style="stroke:#A80036;stroke-width:1.01;"/><path d="M544.895,274.215 Q545.1002,273.71 545.3369,273.4575 Q545.5736,273.205 545.8419,273.205 Q546.3153,273.205 546.6152,273.4891 Q546.915,273.7731 546.915,274.4359 L546.915,276.0141 Q546.915,276.6769 546.6309,276.9609 Q546.3469,277.245 545.905,277.245 Q545.5105,277.245 545.258,277.0714 Q545.0055,276.8978 544.895,276.4402 Q544.8477,276.1245 544.6741,275.9509 Q544.3584,275.6195 543.7903,275.4302 Q543.2222,275.225 542.6541,275.225 Q541.9439,275.225 541.3442,275.5091 Q540.7603,275.7931 540.3027,276.4244 Q539.845,277.0556 539.845,277.9236 L539.845,278.8547 Q539.845,279.8963 540.6972,280.5906 Q541.5494,281.285 543.0644,281.285 Q543.9639,281.285 544.5952,281.0798 Q544.9581,280.9694 545.3684,280.6064 Q545.6367,280.4013 545.7788,280.3381 Q545.9208,280.275 546.0944,280.275 Q546.4258,280.275 546.6625,280.5433 Q546.915,280.7958 546.915,281.1588 Q546.915,281.5059 546.5678,281.9163 Q546.0628,282.5159 545.258,282.8473 Q544.2006,283.305 542.9066,283.305 Q541.3916,283.305 540.1764,282.7053 Q539.198,282.2319 538.5036,281.2061 Q537.825,280.1803 537.825,278.9652 L537.825,277.8605 Q537.825,276.598 538.4247,275.4933 Q539.0402,274.3886 540.0975,273.8047 Q541.1706,273.205 542.37,273.205 Q543.0959,273.205 543.7272,273.4575 Q544.3584,273.71 544.895,274.215 Z " fill="#000000"/><text fill="#000000" font-family="sans-serif" font-size="12.12" lengthAdjust="spacing" textLength="50.5" x="557.015" y="282.7093">TestType</text><line style="stroke:#A80036;stroke-width:1.5150000000000001;" x1="528.735" x2="609.535" y1="293.91" y2="293.91"/><line style="stroke:#A80036;stroke-width:1.5150000000000001;" x1="528.735" x2="609.535" y1="301.99" y2="301.99"/><!--MD5=[df38be88ccee13e832d6fafd6288a4ca]
class Test--><rect codeLine="17" fill="#FEFECE" filter="url(#f1qstxf9zg0oof)" height="48.48" id="Test" style="stroke:#A80036;stroke-width:1.5150000000000001;" width="56.56" x="467.125" y="770.63"/><ellipse cx="482.275" cy="786.79" fill="#ADD1B2" rx="11.11" ry="11.11" style="stroke:#A80036;stroke-width:1.01;"/><path d="M484.295,783.255 Q484.5002,782.75 484.7369,782.4975 Q484.9736,782.245 485.2419,782.245 Q485.7153,782.245 486.0152,782.5291 Q486.315,782.8131 486.315,783.4759 L486.315,785.0541 Q486.315,785.7169 486.0309,786.0009 Q485.7469,786.285 485.305,786.285 Q484.9105,786.285 484.658,786.1114 Q484.4055,785.9378 484.295,785.4802 Q484.2477,785.1645 484.0741,784.9909 Q483.7584,784.6595 483.1903,784.4702 Q482.6222,784.265 482.0541,784.265 Q481.3439,784.265 480.7442,784.5491 Q480.1603,784.8331 479.7027,785.4644 Q479.245,786.0956 479.245,786.9636 L479.245,787.8947 Q479.245,788.9363 480.0972,789.6306 Q480.9494,790.325 482.4644,790.325 Q483.3639,790.325 483.9952,790.1198 Q484.3581,790.0094 484.7684,789.6464 Q485.0367,789.4413 485.1788,789.3781 Q485.3208,789.315 485.4944,789.315 Q485.8258,789.315 486.0625,789.5833 Q486.315,789.8358 486.315,790.1988 Q486.315,790.5459 485.9678,790.9563 Q485.4628,791.5559 484.658,791.8873 Q483.6006,792.345 482.3066,792.345 Q480.7916,792.345 479.5764,791.7453 Q478.598,791.2719 477.9036,790.2461 Q477.225,789.2203 477.225,788.0052 L477.225,786.9005 Q477.225,785.638 477.8247,784.5333 Q478.4402,783.4286 479.4975,782.8447 Q480.5706,782.245 481.77,782.245 Q482.4959,782.245 483.1272,782.4975 Q483.7584,782.75 484.295,783.255 Z " fill="#000000"/><text fill="#000000" font-family="sans-serif" font-size="12.12" lengthAdjust="spacing" textLength="24.24" x="496.415" y="791.7493">Test</text><line style="stroke:#A80036;stroke-width:1.5150000000000001;" x1="468.135" x2="522.675" y1="802.95" y2="802.95"/><line style="stroke:#A80036;stroke-width:1.5150000000000001;" x1="468.135" x2="522.675" y1="811.03" y2="811.03"/><!--MD5=[9681492165142af2a4a3a169d90ee8d4]
class Sample--><rect codeLine="18" fill="#FEFECE" filter="url(#f1qstxf9zg0oof)" height="48.48" id="Sample" style="stroke:#A80036;stroke-width:1.5150000000000001;" width="75.75" x="159.58" y="643.37"/><ellipse cx="174.73" cy="659.53" fill="#ADD1B2" rx="11.11" ry="11.11" style="stroke:#A80036;stroke-width:1.01;"/><path d="M176.75,655.995 Q176.9552,655.49 177.1919,655.2375 Q177.4286,654.985 177.6969,654.985 Q178.1703,654.985 178.4702,655.2691 Q178.77,655.5531 178.77,656.2159 L178.77,657.7941 Q178.77,658.4569 178.4859,658.7409 Q178.2019,659.025 177.76,659.025 Q177.3655,659.025 177.113,658.8514 Q176.8605,658.6778 176.75,658.2202 Q176.7027,657.9045 176.5291,657.7309 Q176.2134,657.3995 175.6453,657.2102 Q175.0772,657.005 174.5091,657.005 Q173.7989,657.005 173.1992,657.2891 Q172.6153,657.5731 172.1577,658.2044 Q171.7,658.8356 171.7,659.7036 L171.7,660.6347 Q171.7,661.6763 172.5522,662.3706 Q173.4044,663.065 174.9194,663.065 Q175.8189,663.065 176.4502,662.8598 Q176.8131,662.7494 177.2234,662.3864 Q177.4917,662.1813 177.6338,662.1181 Q177.7758,662.055 177.9494,662.055 Q178.2808,662.055 178.5175,662.3233 Q178.77,662.5758 178.77,662.9388 Q178.77,663.2859 178.4228,663.6963 Q177.9178,664.2959 177.113,664.6273 Q176.0556,665.085 174.7616,665.085 Q173.2466,665.085 172.0314,664.4853 Q171.053,664.0119 170.3586,662.9861 Q169.68,661.9603 169.68,660.7452 L169.68,659.6405 Q169.68,658.378 170.2797,657.2733 Q170.8952,656.1686 171.9525,655.5847 Q173.0256,654.985 174.225,654.985 Q174.9509,654.985 175.5822,655.2375 Q176.2134,655.49 176.75,655.995 Z " fill="#000000"/><text fill="#000000" font-family="sans-serif" font-size="12.12" lengthAdjust="spacing" textLength="43.43" x="188.87" y="664.4893">Sample</text><line style="stroke:#A80036;stroke-width:1.5150000000000001;" x1="160.59" x2="234.32" y1="675.69" y2="675.69"/><line style="stroke:#A80036;stroke-width:1.5150000000000001;" x1="160.59" x2="234.32" y1="683.77" y2="683.77"/><!--MD5=[de3aa179ee7f21b344f648244b25a961]
link ChemicalLaboratory to Company--><path codeLine="21" d="M79.285,564.9031 C79.285,590.0723 79.285,631.1591 79.285,666.6 C79.285,666.6 79.285,666.6 79.285,1080.7 C79.285,1150.9051 316.3118,1188.3458 415.8473,1200.9809 " fill="none" id="ChemicalLaboratory-Company" style="stroke:#A80036;stroke-width:1.01;"/><polygon fill="#000000" points="81.9732,869.3639,83.6221,878.827,88.8694,876.0505,81.9732,869.3639" style="stroke:#000000;stroke-width:1.01;"/><text fill="#000000" font-family="sans-serif" font-size="13.13" lengthAdjust="spacing" textLength="30.3" x="93.425" y="879.2001">owns</text><text fill="#000000" font-family="sans-serif" font-size="13.13" lengthAdjust="spacing" textLength="7.07" x="71.3975" y="586.1206">1</text><text fill="#000000" font-family="sans-serif" font-size="13.13" lengthAdjust="spacing" textLength="7.07" x="401.0372" y="1196.1535">1</text><!--MD5=[47855ee4dabeea37c5949a17ed9e3a41]
link ChemicalLaboratory to Sample--><path codeLine="23" d="M98.8184,564.7415 C110.9283,578.9825 126.9772,597.3847 141.905,613.07 C151.601,623.2508 162.6908,634.0881 172.3969,643.3296 " fill="none" id="ChemicalLaboratory-Sample" style="stroke:#A80036;stroke-width:1.01;"/><polygon fill="#000000" points="143.5035,600.4711,147.5804,609.1687,151.9141,605.1112,143.5035,600.4711" style="stroke:#000000;stroke-width:1.01;"/><text fill="#000000" font-family="sans-serif" font-size="13.13" lengthAdjust="spacing" textLength="39.39" x="156.045" y="609.5301">is sent</text><text fill="#000000" font-family="sans-serif" font-size="13.13" lengthAdjust="spacing" textLength="7.07" x="95.648" y="586.3298">1</text><text fill="#000000" font-family="sans-serif" font-size="13.13" lengthAdjust="spacing" textLength="5.05" x="160.2787" y="632.5528">*</text><!--MD5=[fdfe1f7a1d4f9a6f0814f21c5f7b0d38]
link ClinicalAnalysisLaboratory to Company--><path codeLine="25" d="M371.8719,1103.9603 C390.9811,1126.3217 419.7055,1159.9244 438.9056,1182.3767 " fill="none" id="ClinicalAnalysisLaboratory-Company" style="stroke:#A80036;stroke-width:1.01;"/><polygon fill="#000000" points="413.3436,1139.6589,417.0234,1148.5318,421.536,1144.6743,413.3436,1139.6589" style="stroke:#000000;stroke-width:1.01;"/><text fill="#000000" font-family="sans-serif" font-size="13.13" lengthAdjust="spacing" textLength="30.3" x="425.715" y="1148.8701">owns</text><text fill="#000000" font-family="sans-serif" font-size="13.13" lengthAdjust="spacing" textLength="5.05" x="371.0539" y="1125.519">*</text><text fill="#000000" font-family="sans-serif" font-size="13.13" lengthAdjust="spacing" textLength="7.07" x="426.065" y="1171.9308">1</text><!--MD5=[7d17329589c8a1a28e6f8826215bde21]
link Administrator to Category--><path codeLine="27" d="M399.152,437.3603 C397.8895,459.7217 395.9907,493.3244 394.7282,515.7767 " fill="none" id="Administrator-Category" style="stroke:#A80036;stroke-width:1.01;"/><polygon fill="#000000" points="401.7594,471.8556,398.2813,480.8094,404.2085,481.1438,401.7594,471.8556" style="stroke:#000000;stroke-width:1.01;"/><text fill="#000000" font-family="sans-serif" font-size="13.13" lengthAdjust="spacing" textLength="61.61" x="410.565" y="482.2701">created by</text><text fill="#000000" font-family="sans-serif" font-size="13.13" lengthAdjust="spacing" textLength="7.07" x="390.9003" y="458.919">1</text><text fill="#000000" font-family="sans-serif" font-size="13.13" lengthAdjust="spacing" textLength="5.05" x="389.3877" y="505.3308">*</text><!--MD5=[49f9c994ab9013da19f25c37bbd596b3]
link SpecialistDoctor to Result--><path codeLine="29" d="M155.035,182.8403 C155.035,205.2017 155.035,238.8044 155.035,261.2567 " fill="none" id="SpecialistDoctor-Result" style="stroke:#A80036;stroke-width:1.01;"/><polygon fill="#000000" points="160.085,217.3275,157.1167,226.4631,163.0533,226.4631,160.085,217.3275" style="stroke:#000000;stroke-width:1.01;"/><text fill="#000000" font-family="sans-serif" font-size="13.13" lengthAdjust="spacing" textLength="70.7" x="169.175" y="227.7501">analyzed by</text><text fill="#000000" font-family="sans-serif" font-size="13.13" lengthAdjust="spacing" textLength="7.07" x="147.1033" y="204.399">1</text><text fill="#000000" font-family="sans-serif" font-size="13.13" lengthAdjust="spacing" textLength="7.07" x="147.1033" y="250.8108">1</text><!--MD5=[c3a86c626b5b742f72786125539e9227]
link ClinicalChemistryTechnologist to ChemicalLaboratory--><path codeLine="31" d="M140.9657,437.3603 C127.4418,459.7217 107.1206,493.3244 93.5361,515.7767 " fill="none" id="ClinicalChemistryTechnologist-ChemicalLaboratory" style="stroke:#A80036;stroke-width:1.01;"/><polygon fill="#000000" points="124.1414,481.2186,131.4093,474.9379,126.3296,471.8655,124.1414,481.2186" style="stroke:#000000;stroke-width:1.01;"/><text fill="#000000" font-family="sans-serif" font-size="13.13" lengthAdjust="spacing" textLength="52.52" x="135.845" y="482.2701">works for</text><text fill="#000000" font-family="sans-serif" font-size="13.13" lengthAdjust="spacing" textLength="5.05" x="131.8708" y="458.919">*</text><text fill="#000000" font-family="sans-serif" font-size="13.13" lengthAdjust="spacing" textLength="7.07" x="89.0781" y="505.3308">1</text><!--MD5=[98994e1502641fa381021dffe882d56a]
link ClinicalChemistryTechnologist to Sample--><path codeLine="33" d="M178.8306,437.3502 C186.2137,446.0867 193.4655,456.5907 197.455,467.63 C219.2407,527.8866 209.4538,605.293 202.4141,643.3498 " fill="none" id="ClinicalChemistryTechnologist-Sample" style="stroke:#A80036;stroke-width:1.01;"/><polygon fill="#000000" points="216.0706,535.5103,214.1606,544.9242,220.0587,544.2489,216.0706,535.5103" style="stroke:#000000;stroke-width:1.01;"/><text fill="#000000" font-family="sans-serif" font-size="13.13" lengthAdjust="spacing" textLength="70.7" x="225.735" y="545.9001">analyzed by</text><text fill="#000000" font-family="sans-serif" font-size="13.13" lengthAdjust="spacing" textLength="5.05" x="178.9653" y="458.9065">*</text><text fill="#000000" font-family="sans-serif" font-size="13.13" lengthAdjust="spacing" textLength="20.2" x="180.8967" y="632.5782">1..*</text><!--MD5=[738f0445d4a0804ca0738b44323ae22b]
link MedicalLabTechnician to ClinicalAnalysisLaboratory--><path codeLine="35" d="M220.0992,897.991 C228.4317,919.3828 242.2889,951.4604 259.065,976.67 C278.7095,1006.1822 306.6966,1035.6742 326.8158,1055.2884 " fill="none" id="MedicalLabTechnician-ClinicalAnalysisLaboratory" style="stroke:#A80036;stroke-width:1.01;"/><polygon fill="#000000" points="266.9502,956.7865,264.2776,947.5602,259.3649,950.8931,266.9502,956.7865" style="stroke:#000000;stroke-width:1.01;"/><text fill="#000000" font-family="sans-serif" font-size="13.13" lengthAdjust="spacing" textLength="52.52" x="273.205" y="957.9801">works for</text><text fill="#000000" font-family="sans-serif" font-size="13.13" lengthAdjust="spacing" textLength="20.2" x="199.5102" y="919.567">1..*</text><text fill="#000000" font-family="sans-serif" font-size="13.13" lengthAdjust="spacing" textLength="5.05" x="314.6692" y="1044.4806">*</text><!--MD5=[6cd0a3af2322bf46f6c633408da71c74]
link Receptionist to ClinicalAnalysisLaboratory--><path codeLine="37" d="M617.6958,976.8518 C606.2424,992.7896 589.0825,1013.1007 569.135,1025.15 C530.6641,1048.3901 482.5881,1061.5504 441.4609,1069.0042 " fill="none" id="Receptionist-ClinicalAnalysisLaboratory" style="stroke:#A80036;stroke-width:1.01;"/><polygon fill="#000000" points="591.9299,1018.5776,601.4009,1016.9748,598.65,1011.714,591.9299,1018.5776" style="stroke:#000000;stroke-width:1.01;"/><text fill="#000000" font-family="sans-serif" font-size="13.13" lengthAdjust="spacing" textLength="52.52" x="605.495" y="1021.6101">works for</text><text fill="#000000" font-family="sans-serif" font-size="13.13" lengthAdjust="spacing" textLength="20.2" x="591.3608" y="998.4475">1..*</text><text fill="#000000" font-family="sans-serif" font-size="13.13" lengthAdjust="spacing" textLength="5.05" x="449.3672" y="1064.8768">*</text><!--MD5=[502b51bc079239060389dab43b7d3470]
link Client to Test--><path codeLine="39" d="M614.2416,689.325 C599.9905,698.7988 583.3255,710.5047 569.135,722.15 C550.7732,737.2192 531.5933,755.985 517.3927,770.5391 " fill="none" id="Client-Test" style="stroke:#A80036;stroke-width:1.01;"/><polygon fill="#000000" points="578.0545,728.1727,569.1472,731.7682,572.9618,736.3171,578.0545,728.1727" style="stroke:#000000;stroke-width:1.01;"/><text fill="#000000" font-family="sans-serif" font-size="13.13" lengthAdjust="spacing" textLength="75.75" x="583.275" y="736.7901">requested by</text><text fill="#000000" font-family="sans-serif" font-size="13.13" lengthAdjust="spacing" textLength="7.07" x="599.2532" y="689.8166">1</text><text fill="#000000" font-family="sans-serif" font-size="13.13" lengthAdjust="spacing" textLength="5.05" x="517.33" y="759.7494">*</text><!--MD5=[7048eb257bae2750d747ca61a113ed73]
link Client to Receptionist--><path codeLine="41" d="M656.1263,691.951 C659.3179,701.2026 662.4893,712.0298 664.075,722.15 C665.3274,730.129 664.6709,732.2702 664.075,740.33 C659.0048,809.0504 644.7739,889.3454 637.3706,928.1193 " fill="none" id="Client-Receptionist" style="stroke:#A80036;stroke-width:1.01;"/><polygon fill="#000000" points="666.4948,790.0134,662.8126,798.8853,668.7306,799.3552,666.4948,790.0134" style="stroke:#000000;stroke-width:1.01;"/><text fill="#000000" font-family="sans-serif" font-size="13.13" lengthAdjust="spacing" textLength="50.5" x="675.185" y="800.4201">registers</text><text fill="#000000" font-family="sans-serif" font-size="13.13" lengthAdjust="spacing" textLength="5.05" x="652.7085" y="713.527">*</text><text fill="#000000" font-family="sans-serif" font-size="13.13" lengthAdjust="spacing" textLength="20.2" x="615.7627" y="917.3347">1..*</text><!--MD5=[b097d9d314264888b7dbeddc95343863]
link LabOrder to Client--><path codeLine="43" d="M646.905,564.6203 C646.905,586.9817 646.905,620.5844 646.905,643.0367 " fill="none" id="LabOrder-Client" style="stroke:#A80036;stroke-width:1.01;"/><polygon fill="#000000" points="651.955,609.2075,654.9233,600.072,648.9867,600.072,651.955,609.2075" style="stroke:#000000;stroke-width:1.01;"/><text fill="#000000" font-family="sans-serif" font-size="13.13" lengthAdjust="spacing" textLength="61.61" x="661.045" y="609.5301">brought by</text><text fill="#000000" font-family="sans-serif" font-size="13.13" lengthAdjust="spacing" textLength="7.07" x="638.9733" y="586.179">1</text><text fill="#000000" font-family="sans-serif" font-size="13.13" lengthAdjust="spacing" textLength="5.05" x="641.2395" y="632.5908">*</text><!--MD5=[727b58dfd932e2fbda2a273f174e2308]
link LabOrder to Receptionist--><path codeLine="45" d="M689.4866,557.6715 C705.6769,566.1858 722.4328,578.3462 731.745,594.89 C756.187,638.32 750.8441,771.943 734.775,819.11 C719.8068,863.0349 683.6993,903.7379 658.722,928.089 " fill="none" id="LabOrder-Receptionist" style="stroke:#A80036;stroke-width:1.01;"/><polygon fill="#000000" points="753.373,726.3849,749.6587,735.2434,755.575,735.7347,753.373,726.3849" style="stroke:#000000;stroke-width:1.01;"/><text fill="#000000" font-family="sans-serif" font-size="13.13" lengthAdjust="spacing" textLength="47.47" x="762.045" y="736.7901">receives</text><text fill="#000000" font-family="sans-serif" font-size="13.13" lengthAdjust="spacing" textLength="7.07" x="697.4129" y="556.7605">1</text><text fill="#000000" font-family="sans-serif" font-size="13.13" lengthAdjust="spacing" textLength="20.2" x="642.5854" y="917.2967">1..*</text><!--MD5=[8a0bab72ab0281f8a9e78a6f98e5652c]
link Result to ClinicalChemistryTechnologist--><path codeLine="47" d="M155.035,310.1003 C155.035,332.4617 155.035,366.0644 155.035,388.5167 " fill="none" id="Result-ClinicalChemistryTechnologist" style="stroke:#A80036;stroke-width:1.01;"/><polygon fill="#000000" points="160.085,344.5875,157.1167,353.7231,163.0533,353.7231,160.085,344.5875" style="stroke:#000000;stroke-width:1.01;"/><text fill="#000000" font-family="sans-serif" font-size="13.13" lengthAdjust="spacing" textLength="50.5" x="169.175" y="355.0101">registers</text><text fill="#000000" font-family="sans-serif" font-size="13.13" lengthAdjust="spacing" textLength="5.05" x="149.3695" y="331.659">*</text><text fill="#000000" font-family="sans-serif" font-size="13.13" lengthAdjust="spacing" textLength="20.2" x="132.3731" y="378.0708">1..*</text><!--MD5=[70bf8bae1709092519208a2a3511ecd8]
link Report to SpecialistDoctor--><path codeLine="49" d="M155.035,55.5803 C155.035,77.9417 155.035,111.5444 155.035,133.9967 " fill="none" id="Report-SpecialistDoctor" style="stroke:#A80036;stroke-width:1.01;"/><polygon fill="#000000" points="160.085,90.0675,157.1167,99.2031,163.0533,99.2031,160.085,90.0675" style="stroke:#000000;stroke-width:1.01;"/><text fill="#000000" font-family="sans-serif" font-size="13.13" lengthAdjust="spacing" textLength="50.5" x="169.175" y="100.4901">registers</text><text fill="#000000" font-family="sans-serif" font-size="13.13" lengthAdjust="spacing" textLength="7.07" x="147.1033" y="77.139">1</text><text fill="#000000" font-family="sans-serif" font-size="13.13" lengthAdjust="spacing" textLength="7.07" x="147.1033" y="123.5508">1</text><!--MD5=[9e2b536d5f14dafa66c4d5113ebdcad2]
link Category to Parameter--><path codeLine="51" d="M385.9917,564.6203 C383.2344,573.9527 380.2852,584.8607 378.245,594.89 C374.9928,610.8783 372.7001,629.1189 371.2255,643.1983 " fill="none" id="Category-Parameter" style="stroke:#A80036;stroke-width:1.01;"/><polygon fill="#000000" points="384.2277,599.1944,379.6232,607.6246,385.4577,608.721,384.2277,599.1944" style="stroke:#000000;stroke-width:1.01;"/><text fill="#000000" font-family="sans-serif" font-size="13.13" lengthAdjust="spacing" textLength="93.93" x="392.385" y="609.5301">presented under</text><text fill="#000000" font-family="sans-serif" font-size="13.13" lengthAdjust="spacing" textLength="7.07" x="376.2555" y="586.179">1</text><text fill="#000000" font-family="sans-serif" font-size="13.13" lengthAdjust="spacing" textLength="5.05" x="366.059" y="632.3879">*</text><!--MD5=[4265453a012991a726928e22789b8a83]
link Parameter to Test--><path codeLine="53" d="M356.1462,692.0823 C349.763,707.0505 345.2988,726.2203 355.015,740.33 C380.1741,776.8516 433.8253,788.4666 467.0341,792.1632 " fill="none" id="Parameter-Test" style="stroke:#A80036;stroke-width:1.01;"/><polygon fill="#000000" points="356.3161,728.034,361.1091,736.3584,365.0867,731.9513,356.3161,728.034" style="stroke:#000000;stroke-width:1.01;"/><text fill="#000000" font-family="sans-serif" font-size="13.13" lengthAdjust="spacing" textLength="117.16" x="369.155" y="736.7901">requests analysis of</text><text fill="#000000" font-family="sans-serif" font-size="13.13" lengthAdjust="spacing" textLength="20.2" x="330.3134" y="713.6903">1..*</text><text fill="#000000" font-family="sans-serif" font-size="13.13" lengthAdjust="spacing" textLength="5.05" x="454.067" y="786.9146">*</text><!--MD5=[6d9eb9a083ac0654c8b63743033752d3]
link TestType to Company--><path codeLine="55" d="M610.5955,286.2441 C692.0419,287.446 865.065,302.8788 865.065,412.08 C865.065,412.08 865.065,412.08 865.065,1080.7 C865.065,1156.0359 606.606,1190.8809 502.1114,1201.8899 " fill="none" id="TestType-Company" style="stroke:#A80036;stroke-width:1.01;"/><polygon fill="#000000" points="870.7092,726.4026,866.6866,735.1255,872.582,735.8239,870.7092,726.4026" style="stroke:#000000;stroke-width:1.01;"/><text fill="#000000" font-family="sans-serif" font-size="13.13" lengthAdjust="spacing" textLength="53.53" x="879.205" y="736.7901">conducts</text><text fill="#000000" font-family="sans-serif" font-size="13.13" lengthAdjust="spacing" textLength="5.05" x="618.7053" y="282.3335">*</text><text fill="#000000" font-family="sans-serif" font-size="13.13" lengthAdjust="spacing" textLength="7.07" x="510.121" y="1197.132">1</text><!--MD5=[c2c6b28b052a3fe86d789b83a09b2815]
link TestType to Test--><path codeLine="57" d="M551.561,310.4134 C535.2798,334.613 513.585,374.0232 513.585,412.08 C513.585,412.08 513.585,412.08 513.585,668.62 C513.585,704.4346 506.212,745.4103 500.859,770.4583 " fill="none" id="TestType-Test" style="stroke:#A80036;stroke-width:1.01;"/><polygon fill="#000000" points="519.1882,535.5079,515.237,544.2633,521.1379,544.9137,519.1882,535.5079" style="stroke:#000000;stroke-width:1.01;"/><text fill="#000000" font-family="sans-serif" font-size="13.13" lengthAdjust="spacing" textLength="24.24" x="527.725" y="545.9001">is of</text><text fill="#000000" font-family="sans-serif" font-size="13.13" lengthAdjust="spacing" textLength="7.07" x="539.6095" y="331.6379">1</text><text fill="#000000" font-family="sans-serif" font-size="13.13" lengthAdjust="spacing" textLength="5.05" x="496.5596" y="759.6479">*</text><!--MD5=[0985ee834cc881275852ed47ce1e01f6]
link TestType to Administrator--><path codeLine="59" d="M527.6947,293.3747 C496.819,300.2326 455.5504,313.8676 428.745,340.37 C415.615,353.3586 408.4238,373.1748 404.5757,388.6985 " fill="none" id="TestType-Administrator" style="stroke:#A80036;stroke-width:1.01;"/><polygon fill="#000000" points="437.7881,346.5459,428.7474,349.7916,432.3817,354.4858,437.7881,346.5459" style="stroke:#000000;stroke-width:1.01;"/><text fill="#000000" font-family="sans-serif" font-size="13.13" lengthAdjust="spacing" textLength="43.43" x="442.885" y="355.0101">creates</text><text fill="#000000" font-family="sans-serif" font-size="13.13" lengthAdjust="spacing" textLength="5.05" x="514.5386" y="290.7788">*</text><text fill="#000000" font-family="sans-serif" font-size="13.13" lengthAdjust="spacing" textLength="7.07" x="397.6532" y="377.8932">1</text><!--MD5=[df02e8987f6870a0052669ffdc0b53df]
link TestType to LabOrder--><path codeLine="61" d="M576.3161,310.1407 C591.1227,358.247 624.9476,468.0441 639.7441,516.0898 " fill="none" id="TestType-LabOrder" style="stroke:#A80036;stroke-width:1.01;"/><polygon fill="#000000" points="617.1386,408.4412,616.9907,418.0458,622.6643,416.2984,617.1386,408.4412" style="stroke:#000000;stroke-width:1.01;"/><text fill="#000000" font-family="sans-serif" font-size="13.13" lengthAdjust="spacing" textLength="49.49" x="627.715" y="418.6401">contains</text><text fill="#000000" font-family="sans-serif" font-size="13.13" lengthAdjust="spacing" textLength="7.07" x="570.1348" y="331.7093">1</text><text fill="#000000" font-family="sans-serif" font-size="13.13" lengthAdjust="spacing" textLength="7.07" x="629.9333" y="505.3182">1</text><!--MD5=[150ee6e4dbb30ab82336f9e174f6c4ed]
link Test to Company--><path codeLine="63" d="M493.6476,819.2615 C489.3046,876.2659 477.5381,1026.9175 465.105,1152.41 C464.1253,1162.2777 462.9234,1173.1453 461.8427,1182.508 " fill="none" id="Test-Company" style="stroke:#A80036;stroke-width:1.01;"/><polygon fill="#000000" points="483.7255,1011.2068,479.9716,1020.0486,485.8856,1020.5664,483.7255,1011.2068" style="stroke:#000000;stroke-width:1.01;"/><text fill="#000000" font-family="sans-serif" font-size="13.13" lengthAdjust="spacing" textLength="50.5" x="492.375" y="1021.6101">performs</text><text fill="#000000" font-family="sans-serif" font-size="13.13" lengthAdjust="spacing" textLength="5.05" x="487.5538" y="840.8498">*</text><text fill="#000000" font-family="sans-serif" font-size="13.13" lengthAdjust="spacing" textLength="7.07" x="454.5838" y="1171.6898">1</text><!--MD5=[ca29482912e344ebd5dc9db2d1c2ccab]
link Test to ClinicalAnalysisLaboratory--><path codeLine="65" d="M475.9827,819.4736 C455.712,844.9963 424.0788,887.5173 403.495,928.19 C381.8002,971.0645 365.8018,1025.1803 357.7723,1055.45 " fill="none" id="Test-ClinicalAnalysisLaboratory" style="stroke:#A80036;stroke-width:1.01;"/><polygon fill="#000000" points="410.8068,948.0924,404.0612,954.9309,409.3691,957.5898,410.8068,948.0924" style="stroke:#000000;stroke-width:1.01;"/><text fill="#000000" font-family="sans-serif" font-size="13.13" lengthAdjust="spacing" textLength="50.5" x="417.635" y="957.9801">performs</text><text fill="#000000" font-family="sans-serif" font-size="13.13" lengthAdjust="spacing" textLength="5.05" x="465.8574" y="840.7028">*</text><text fill="#000000" font-family="sans-serif" font-size="13.13" lengthAdjust="spacing" textLength="5.05" x="353.5583" y="1044.6836">*</text><!--MD5=[10af4306acabee641eea198ac06587b8]
link Test to Receptionist--><path codeLine="67" d="M504.2728,819.4029 C513.4638,841.5219 529.4925,874.6196 550.955,897.89 C561.661,909.4949 575.3768,919.7262 588.5169,928.0587 " fill="none" id="Test-Receptionist" style="stroke:#A80036;stroke-width:1.01;"/><polygon fill="#000000" points="552.9107,869.8366,556.1625,878.8751,560.8542,875.2375,552.9107,869.8366" style="stroke:#000000;stroke-width:1.01;"/><text fill="#000000" font-family="sans-serif" font-size="13.13" lengthAdjust="spacing" textLength="50.5" x="565.095" y="879.2001">registers</text><text fill="#000000" font-family="sans-serif" font-size="13.13" lengthAdjust="spacing" textLength="5.05" x="500.6896" y="840.6158">*</text><text fill="#000000" font-family="sans-serif" font-size="13.13" lengthAdjust="spacing" textLength="20.2" x="554.3902" y="917.2586">1..*</text><!--MD5=[1ae83efc6d1967ce5bc17dfe294d00c2]
link Sample to Test--><path codeLine="69" d="M218.5034,691.8904 C234.0877,707.7676 256.641,728.0686 280.275,740.33 C342.2789,772.5086 424.503,785.9719 467.1048,791.0724 " fill="none" id="Sample-Test" style="stroke:#A80036;stroke-width:1.01;"/><polygon fill="#000000" points="280.6345,729.5462,288.0198,735.6885,290.2196,730.1745,280.6345,729.5462" style="stroke:#000000;stroke-width:1.01;"/><text fill="#000000" font-family="sans-serif" font-size="13.13" lengthAdjust="spacing" textLength="45.45" x="294.415" y="736.7901">collects</text><text fill="#000000" font-family="sans-serif" font-size="13.13" lengthAdjust="spacing" textLength="5.05" x="217.9685" y="713.4516">*</text><text fill="#000000" font-family="sans-serif" font-size="13.13" lengthAdjust="spacing" textLength="7.07" x="451.877" y="805.8453">1</text><!--MD5=[cb5e86f6614a99551e1d9ce6f0ae5849]
link Sample to MedicalLabTechnician--><path codeLine="71" d="M187.153,691.8601 C183.5877,701.1016 180.0426,711.9389 178.265,722.15 C170.387,767.499 188.1327,819.8473 200.6365,849.309 " fill="none" id="Sample-MedicalLabTechnician" style="stroke:#A80036;stroke-width:1.01;"/><polygon fill="#000000" points="182.8841,726.386,180.7061,735.7414,186.6211,735.2349,182.8841,726.386" style="stroke:#000000;stroke-width:1.01;"/><text fill="#000000" font-family="sans-serif" font-size="13.13" lengthAdjust="spacing" textLength="50.5" x="192.405" y="736.7901">registers</text><text fill="#000000" font-family="sans-serif" font-size="13.13" lengthAdjust="spacing" textLength="20.2" x="161.98" y="713.4139">1..*</text><text fill="#000000" font-family="sans-serif" font-size="13.13" lengthAdjust="spacing" textLength="20.2" x="175.0403" y="838.5167">1..*</text><!--MD5=[a08de2df7c84cfe1577779da72a1c507]
@startuml

class Company
class ChemicalLaboratory
class ClinicalAnalysisLaboratory
class Administrator
class SpecialistDoctor
class ClinicalChemistryTechnologist
class MedicalLabTechnician
class Receptionist
class Client
class LabOrder
class Result
class Report
class Category
class Parameter
class TestType
class Test
class Sample


ChemicalLaboratory "1" - - "1" Company : < owns

ChemicalLaboratory "1" - - "*" Sample : < is sent

ClinicalAnalysisLaboratory "*" - - "1" Company : < owns

Administrator "1" - - "*" Category : < created by

SpecialistDoctor "1" - - "1" Result : < analyzed by

ClinicalChemistryTechnologist "*" - - "1" ChemicalLaboratory : > works for

ClinicalChemistryTechnologist "*" - - "1..*" Sample : < analyzed by

MedicalLabTechnician "1..*" - - "*" ClinicalAnalysisLaboratory : > works for

Receptionist "1..*" - - "*" ClinicalAnalysisLaboratory : > works for

Client "1" - - "*" Test : < requested by

Client "*" - - "1..*" Receptionist : < registers

LabOrder "1" - - "*" Client : > brought by

LabOrder "1" - - "1..*" Receptionist : < receives

Result "*" - - "1..*" ClinicalChemistryTechnologist : < registers

Report "1" - - "1" SpecialistDoctor : < registers

Category "1" - - "*" Parameter : < presented under

Parameter "1..*" - - "*" Test : < requests analysis of

TestType "*" - - "1" Company : < conducts

TestType "1" - - "*" Test: < is of

TestType "*" - - "1" Administrator : < creates

TestType "1" - - "1" LabOrder : < contains

Test "*" - - "1" Company : < performs

Test "*" - - "*" ClinicalAnalysisLaboratory : < performs

Test "*" - - "1..*" Receptionist : < registers

Sample "*" - - "1" Test : < collects

Sample "1..*" - - "1..*" MedicalLabTechnician : < registers

@enduml

PlantUML version 1.2021.4(Sun Apr 04 09:49:39 BST 2021)
(GPL source distribution)
Java Runtime: OpenJDK Runtime Environment
JVM: OpenJDK 64-Bit Server VM
Default Encoding: Cp1252
Language: pt
Country: PT
--></g></svg>