<?xml version="1.0" encoding="UTF-8" standalone="no"?><svg xmlns="http://www.w3.org/2000/svg" xmlns:xlink="http://www.w3.org/1999/xlink" contentScriptType="application/ecmascript" contentStyleType="text/css" height="2209.9px" preserveAspectRatio="none" style="width:1024px;height:2209px;" version="1.1" viewBox="0 0 1024 2209" width="1024.1px" zoomAndPan="magnify"><defs><filter height="300%" id="f1roop64mrjjqm" width="300%" x="-1" y="-1"><feGaussianBlur result="blurOut" stdDeviation="2.2"/><feColorMatrix in="blurOut" result="blurOut2" type="matrix" values="0 0 0 0 0 0 0 0 0 0 0 0 0 0 0 0 0 0 .4 0"/><feOffset dx="4.4" dy="4.4" in="blurOut2" result="blurOut3"/><feBlend in="SourceGraphic" in2="blurOut3" mode="normal"/></filter></defs><g><!--MD5=[02e4b9b7573f1156f41e60aa5b4e25a4]
class Company--><rect codeLine="75" fill="#FEFECE" filter="url(#f1roop64mrjjqm)" height="52.8" id="Company" style="stroke:#A80036;stroke-width:1.6500000000000001;" width="93.5" x="453.2" y="2141.7"/><ellipse cx="469.7" cy="2159.3" fill="#ADD1B2" rx="12.1" ry="12.1" style="stroke:#A80036;stroke-width:1.1;"/><path d="M471.9,2155.45 Q472.1234,2154.9 472.3813,2154.625 Q472.6391,2154.35 472.9313,2154.35 Q473.4469,2154.35 473.7734,2154.6594 Q474.1,2154.9688 474.1,2155.6906 L474.1,2157.4094 Q474.1,2158.1313 473.7906,2158.4406 Q473.4813,2158.75 473,2158.75 Q472.5703,2158.75 472.2953,2158.5609 Q472.0203,2158.3719 471.9,2157.8734 Q471.8484,2157.5297 471.6594,2157.3406 Q471.3156,2156.9797 470.6969,2156.7734 Q470.0781,2156.55 469.4594,2156.55 Q468.6859,2156.55 468.0328,2156.8594 Q467.3969,2157.1688 466.8984,2157.8563 Q466.4,2158.5438 466.4,2159.4891 L466.4,2160.5031 Q466.4,2161.6375 467.3281,2162.3938 Q468.2563,2163.15 469.9063,2163.15 Q470.8859,2163.15 471.5734,2162.9266 Q471.9688,2162.8063 472.4156,2162.4109 Q472.7078,2162.1875 472.8625,2162.1188 Q473.0172,2162.05 473.2063,2162.05 Q473.5672,2162.05 473.825,2162.3422 Q474.1,2162.6172 474.1,2163.0125 Q474.1,2163.3906 473.7219,2163.8375 Q473.1719,2164.4906 472.2953,2164.8516 Q471.1438,2165.35 469.7344,2165.35 Q468.0844,2165.35 466.7609,2164.6969 Q465.6953,2164.1813 464.9391,2163.0641 Q464.2,2161.9469 464.2,2160.6234 L464.2,2159.4203 Q464.2,2158.0453 464.8531,2156.8422 Q465.5234,2155.6391 466.675,2155.0031 Q467.8438,2154.35 469.15,2154.35 Q469.9406,2154.35 470.6281,2154.625 Q471.3156,2154.9 471.9,2155.45 Z " fill="#000000"/><text fill="#000000" font-family="sans-serif" font-size="13.2" lengthAdjust="spacing" textLength="58.3" x="485.1" y="2164.7012">Company</text><line style="stroke:#A80036;stroke-width:1.6500000000000001;" x1="454.3" x2="545.6" y1="2176.9" y2="2176.9"/><line style="stroke:#A80036;stroke-width:1.6500000000000001;" x1="454.3" x2="545.6" y1="2185.7" y2="2185.7"/><!--MD5=[a64badb107d3691f2dc6af242cdbeb21]
class ChemicalLaboratory--><rect codeLine="78" fill="#FEFECE" filter="url(#f1roop64mrjjqm)" height="113.6781" id="ChemicalLaboratory" style="stroke:#A80036;stroke-width:1.6500000000000001;" width="157.3" x="7.7" y="821.7"/><ellipse cx="24.2" cy="839.3" fill="#ADD1B2" rx="12.1" ry="12.1" style="stroke:#A80036;stroke-width:1.1;"/><path d="M26.4,835.45 Q26.6234,834.9 26.8813,834.625 Q27.1391,834.35 27.4313,834.35 Q27.9469,834.35 28.2734,834.6594 Q28.6,834.9688 28.6,835.6906 L28.6,837.4094 Q28.6,838.1313 28.2906,838.4406 Q27.9813,838.75 27.5,838.75 Q27.0703,838.75 26.7953,838.5609 Q26.5203,838.3719 26.4,837.8734 Q26.3484,837.5297 26.1594,837.3406 Q25.8156,836.9797 25.1969,836.7734 Q24.5781,836.55 23.9594,836.55 Q23.1859,836.55 22.5328,836.8594 Q21.8969,837.1688 21.3984,837.8563 Q20.9,838.5438 20.9,839.4891 L20.9,840.5031 Q20.9,841.6375 21.8281,842.3938 Q22.7563,843.15 24.4063,843.15 Q25.3859,843.15 26.0734,842.9266 Q26.4688,842.8063 26.9156,842.4109 Q27.2078,842.1875 27.3625,842.1188 Q27.5172,842.05 27.7063,842.05 Q28.0672,842.05 28.325,842.3422 Q28.6,842.6172 28.6,843.0125 Q28.6,843.3906 28.2219,843.8375 Q27.6719,844.4906 26.7953,844.8516 Q25.6438,845.35 24.2344,845.35 Q22.5844,845.35 21.2609,844.6969 Q20.1953,844.1813 19.4391,843.0641 Q18.7,841.9469 18.7,840.6234 L18.7,839.4203 Q18.7,838.0453 19.3531,836.8422 Q20.0234,835.6391 21.175,835.0031 Q22.3438,834.35 23.65,834.35 Q24.4406,834.35 25.1281,834.625 Q25.8156,834.9 26.4,835.45 Z " fill="#000000"/><text fill="#000000" font-family="sans-serif" font-size="13.2" lengthAdjust="spacing" textLength="122.1" x="39.6" y="844.7012">ChemicalLaboratory</text><line style="stroke:#A80036;stroke-width:1.6500000000000001;" x1="8.8" x2="163.9" y1="856.9" y2="856.9"/><text fill="#000000" font-family="sans-serif" font-size="12.1" lengthAdjust="spacing" textLength="33" x="14.3" y="873.8608">-name</text><text fill="#000000" font-family="sans-serif" font-size="12.1" lengthAdjust="spacing" textLength="48.4" x="14.3" y="889.0804">-address</text><text fill="#000000" font-family="sans-serif" font-size="12.1" lengthAdjust="spacing" textLength="78.1" x="14.3" y="904.2999">-phoneNumber</text><text fill="#000000" font-family="sans-serif" font-size="12.1" lengthAdjust="spacing" textLength="20.9" x="14.3" y="919.5194">-TIN</text><line style="stroke:#A80036;stroke-width:1.6500000000000001;" x1="8.8" x2="163.9" y1="926.5781" y2="926.5781"/><!--MD5=[1934a092c0e7d4da7dc7075b6f4b6b03]
class ClinicalAnalysisLaboratory--><rect codeLine="85" fill="#FEFECE" filter="url(#f1roop64mrjjqm)" height="128.8977" id="ClinicalAnalysisLaboratory" style="stroke:#A80036;stroke-width:1.6500000000000001;" width="194.7" x="286" y="1927.2"/><ellipse cx="302.5" cy="1944.8" fill="#ADD1B2" rx="12.1" ry="12.1" style="stroke:#A80036;stroke-width:1.1;"/><path d="M304.7,1940.95 Q304.9234,1940.4 305.1813,1940.125 Q305.4391,1939.85 305.7313,1939.85 Q306.2469,1939.85 306.5734,1940.1594 Q306.9,1940.4688 306.9,1941.1906 L306.9,1942.9094 Q306.9,1943.6313 306.5906,1943.9406 Q306.2813,1944.25 305.8,1944.25 Q305.3703,1944.25 305.0953,1944.0609 Q304.8203,1943.8719 304.7,1943.3734 Q304.6484,1943.0297 304.4594,1942.8406 Q304.1156,1942.4797 303.4969,1942.2734 Q302.8781,1942.05 302.2594,1942.05 Q301.4859,1942.05 300.8328,1942.3594 Q300.1969,1942.6688 299.6984,1943.3563 Q299.2,1944.0438 299.2,1944.9891 L299.2,1946.0031 Q299.2,1947.1375 300.1281,1947.8938 Q301.0563,1948.65 302.7063,1948.65 Q303.6859,1948.65 304.3734,1948.4266 Q304.7688,1948.3063 305.2156,1947.9109 Q305.5078,1947.6875 305.6625,1947.6188 Q305.8172,1947.55 306.0063,1947.55 Q306.3672,1947.55 306.625,1947.8422 Q306.9,1948.1172 306.9,1948.5125 Q306.9,1948.8906 306.5219,1949.3375 Q305.9719,1949.9906 305.0953,1950.3516 Q303.9438,1950.85 302.5344,1950.85 Q300.8844,1950.85 299.5609,1950.1969 Q298.4953,1949.6813 297.7391,1948.5641 Q297,1947.4469 297,1946.1234 L297,1944.9203 Q297,1943.5453 297.6531,1942.3422 Q298.3234,1941.1391 299.475,1940.5031 Q300.6438,1939.85 301.95,1939.85 Q302.7406,1939.85 303.4281,1940.125 Q304.1156,1940.4 304.7,1940.95 Z " fill="#000000"/><text fill="#000000" font-family="sans-serif" font-size="13.2" lengthAdjust="spacing" textLength="159.5" x="317.9" y="1950.2012">ClinicalAnalysisLaboratory</text><line style="stroke:#A80036;stroke-width:1.6500000000000001;" x1="287.1" x2="479.6" y1="1962.4" y2="1962.4"/><text fill="#000000" font-family="sans-serif" font-size="12.1" lengthAdjust="spacing" textLength="33" x="292.6" y="1979.3608">-name</text><text fill="#000000" font-family="sans-serif" font-size="12.1" lengthAdjust="spacing" textLength="48.4" x="292.6" y="1994.5804">-address</text><text fill="#000000" font-family="sans-serif" font-size="12.1" lengthAdjust="spacing" textLength="78.1" x="292.6" y="2009.7999">-phoneNumber</text><text fill="#000000" font-family="sans-serif" font-size="12.1" lengthAdjust="spacing" textLength="29.7" x="292.6" y="2025.0194">-labID</text><text fill="#000000" font-family="sans-serif" font-size="12.1" lengthAdjust="spacing" textLength="20.9" x="292.6" y="2040.239">-TIN</text><line style="stroke:#A80036;stroke-width:1.6500000000000001;" x1="287.1" x2="479.6" y1="2047.2977" y2="2047.2977"/><!--MD5=[da547346deef918ea16944ba046651ef]
class Administrator--><rect codeLine="93" fill="#FEFECE" filter="url(#f1roop64mrjjqm)" height="159.3367" id="Administrator" style="stroke:#A80036;stroke-width:1.6500000000000001;" width="115.5" x="378.4" y="576.4"/><ellipse cx="394.9" cy="594" fill="#ADD1B2" rx="12.1" ry="12.1" style="stroke:#A80036;stroke-width:1.1;"/><path d="M397.1,590.15 Q397.3234,589.6 397.5813,589.325 Q397.8391,589.05 398.1313,589.05 Q398.6469,589.05 398.9734,589.3594 Q399.3,589.6688 399.3,590.3906 L399.3,592.1094 Q399.3,592.8313 398.9906,593.1406 Q398.6813,593.45 398.2,593.45 Q397.7703,593.45 397.4953,593.2609 Q397.2203,593.0719 397.1,592.5734 Q397.0484,592.2297 396.8594,592.0406 Q396.5156,591.6797 395.8969,591.4734 Q395.2781,591.25 394.6594,591.25 Q393.8859,591.25 393.2328,591.5594 Q392.5969,591.8688 392.0984,592.5563 Q391.6,593.2438 391.6,594.1891 L391.6,595.2031 Q391.6,596.3375 392.5281,597.0938 Q393.4563,597.85 395.1063,597.85 Q396.0859,597.85 396.7734,597.6266 Q397.1688,597.5063 397.6156,597.1109 Q397.9078,596.8875 398.0625,596.8188 Q398.2172,596.75 398.4063,596.75 Q398.7672,596.75 399.025,597.0422 Q399.3,597.3172 399.3,597.7125 Q399.3,598.0906 398.9219,598.5375 Q398.3719,599.1906 397.4953,599.5516 Q396.3438,600.05 394.9344,600.05 Q393.2844,600.05 391.9609,599.3969 Q390.8953,598.8813 390.1391,597.7641 Q389.4,596.6469 389.4,595.3234 L389.4,594.1203 Q389.4,592.7453 390.0531,591.5422 Q390.7234,590.3391 391.875,589.7031 Q393.0438,589.05 394.35,589.05 Q395.1406,589.05 395.8281,589.325 Q396.5156,589.6 397.1,590.15 Z " fill="#000000"/><text fill="#000000" font-family="sans-serif" font-size="13.2" lengthAdjust="spacing" textLength="80.3" x="410.3" y="599.4012">Administrator</text><line style="stroke:#A80036;stroke-width:1.6500000000000001;" x1="379.5" x2="492.8" y1="611.6" y2="611.6"/><text fill="#000000" font-family="sans-serif" font-size="12.1" lengthAdjust="spacing" textLength="33" x="385" y="628.5608">-name</text><text fill="#000000" font-family="sans-serif" font-size="12.1" lengthAdjust="spacing" textLength="48.4" x="385" y="643.7804">-address</text><text fill="#000000" font-family="sans-serif" font-size="12.1" lengthAdjust="spacing" textLength="78.1" x="385" y="658.9999">-phoneNumber</text><text fill="#000000" font-family="sans-serif" font-size="12.1" lengthAdjust="spacing" textLength="64.9" x="385" y="674.2194">-employeeID</text><text fill="#000000" font-family="sans-serif" font-size="12.1" lengthAdjust="spacing" textLength="45.1" x="385" y="689.439">-orgRole</text><text fill="#000000" font-family="sans-serif" font-size="12.1" lengthAdjust="spacing" textLength="30.8" x="385" y="704.6585">-email</text><text fill="#000000" font-family="sans-serif" font-size="12.1" lengthAdjust="spacing" textLength="55" x="385" y="719.878">-SOCcode</text><line style="stroke:#A80036;stroke-width:1.6500000000000001;" x1="379.5" x2="492.8" y1="726.9367" y2="726.9367"/><!--MD5=[7d96fd15f3014691d2fcaf89c5791e2a]
class SpecialistDoctor--><rect codeLine="103" fill="#FEFECE" filter="url(#f1roop64mrjjqm)" height="174.5563" id="SpecialistDoctor" style="stroke:#A80036;stroke-width:1.6500000000000001;" width="134.2" x="101.75" y="146.3"/><ellipse cx="118.25" cy="163.9" fill="#ADD1B2" rx="12.1" ry="12.1" style="stroke:#A80036;stroke-width:1.1;"/><path d="M120.45,160.05 Q120.6734,159.5 120.9313,159.225 Q121.1891,158.95 121.4813,158.95 Q121.9969,158.95 122.3234,159.2594 Q122.65,159.5688 122.65,160.2906 L122.65,162.0094 Q122.65,162.7313 122.3406,163.0406 Q122.0313,163.35 121.55,163.35 Q121.1203,163.35 120.8453,163.1609 Q120.5703,162.9719 120.45,162.4734 Q120.3984,162.1297 120.2094,161.9406 Q119.8656,161.5797 119.2469,161.3734 Q118.6281,161.15 118.0094,161.15 Q117.2359,161.15 116.5828,161.4594 Q115.9469,161.7688 115.4484,162.4563 Q114.95,163.1438 114.95,164.0891 L114.95,165.1031 Q114.95,166.2375 115.8781,166.9938 Q116.8063,167.75 118.4563,167.75 Q119.4359,167.75 120.1234,167.5266 Q120.5188,167.4063 120.9656,167.0109 Q121.2578,166.7875 121.4125,166.7188 Q121.5672,166.65 121.7563,166.65 Q122.1172,166.65 122.375,166.9422 Q122.65,167.2172 122.65,167.6125 Q122.65,167.9906 122.2719,168.4375 Q121.7219,169.0906 120.8453,169.4516 Q119.6938,169.95 118.2844,169.95 Q116.6344,169.95 115.3109,169.2969 Q114.2453,168.7813 113.4891,167.6641 Q112.75,166.5469 112.75,165.2234 L112.75,164.0203 Q112.75,162.6453 113.4031,161.4422 Q114.0734,160.2391 115.225,159.6031 Q116.3938,158.95 117.7,158.95 Q118.4906,158.95 119.1781,159.225 Q119.8656,159.5 120.45,160.05 Z " fill="#000000"/><text fill="#000000" font-family="sans-serif" font-size="13.2" lengthAdjust="spacing" textLength="99" x="133.65" y="169.3012">SpecialistDoctor</text><line style="stroke:#A80036;stroke-width:1.6500000000000001;" x1="102.85" x2="234.85" y1="181.5" y2="181.5"/><text fill="#000000" font-family="sans-serif" font-size="12.1" lengthAdjust="spacing" textLength="33" x="108.35" y="198.4608">-name</text><text fill="#000000" font-family="sans-serif" font-size="12.1" lengthAdjust="spacing" textLength="48.4" x="108.35" y="213.6804">-address</text><text fill="#000000" font-family="sans-serif" font-size="12.1" lengthAdjust="spacing" textLength="78.1" x="108.35" y="228.8999">-phoneNumber</text><text fill="#000000" font-family="sans-serif" font-size="12.1" lengthAdjust="spacing" textLength="64.9" x="108.35" y="244.1194">-employeeID</text><text fill="#000000" font-family="sans-serif" font-size="12.1" lengthAdjust="spacing" textLength="45.1" x="108.35" y="259.339">-orgRole</text><text fill="#000000" font-family="sans-serif" font-size="12.1" lengthAdjust="spacing" textLength="30.8" x="108.35" y="274.5585">-email</text><text fill="#000000" font-family="sans-serif" font-size="12.1" lengthAdjust="spacing" textLength="55" x="108.35" y="289.778">-SOCcode</text><text fill="#000000" font-family="sans-serif" font-size="12.1" lengthAdjust="spacing" textLength="67.1" x="108.35" y="304.9976">-doctorIndex</text><line style="stroke:#A80036;stroke-width:1.6500000000000001;" x1="102.85" x2="234.85" y1="312.0563" y2="312.0563"/><!--MD5=[012ee2a8bf3ae2b319009b06f951c2e5]
class ClinicalChemistryTechnologist--><rect codeLine="114" fill="#FEFECE" filter="url(#f1roop64mrjjqm)" height="159.3367" id="ClinicalChemistryTechnologist" style="stroke:#A80036;stroke-width:1.6500000000000001;" width="220" x="58.85" y="576.4"/><ellipse cx="75.35" cy="594" fill="#ADD1B2" rx="12.1" ry="12.1" style="stroke:#A80036;stroke-width:1.1;"/><path d="M77.55,590.15 Q77.7734,589.6 78.0313,589.325 Q78.2891,589.05 78.5813,589.05 Q79.0969,589.05 79.4234,589.3594 Q79.75,589.6688 79.75,590.3906 L79.75,592.1094 Q79.75,592.8313 79.4406,593.1406 Q79.1313,593.45 78.65,593.45 Q78.2203,593.45 77.9453,593.2609 Q77.6703,593.0719 77.55,592.5734 Q77.4984,592.2297 77.3094,592.0406 Q76.9656,591.6797 76.3469,591.4734 Q75.7281,591.25 75.1094,591.25 Q74.3359,591.25 73.6828,591.5594 Q73.0469,591.8688 72.5484,592.5563 Q72.05,593.2438 72.05,594.1891 L72.05,595.2031 Q72.05,596.3375 72.9781,597.0938 Q73.9063,597.85 75.5563,597.85 Q76.5359,597.85 77.2234,597.6266 Q77.6188,597.5063 78.0656,597.1109 Q78.3578,596.8875 78.5125,596.8188 Q78.6672,596.75 78.8563,596.75 Q79.2172,596.75 79.475,597.0422 Q79.75,597.3172 79.75,597.7125 Q79.75,598.0906 79.3719,598.5375 Q78.8219,599.1906 77.9453,599.5516 Q76.7938,600.05 75.3844,600.05 Q73.7344,600.05 72.4109,599.3969 Q71.3453,598.8813 70.5891,597.7641 Q69.85,596.6469 69.85,595.3234 L69.85,594.1203 Q69.85,592.7453 70.5031,591.5422 Q71.1734,590.3391 72.325,589.7031 Q73.4938,589.05 74.8,589.05 Q75.5906,589.05 76.2781,589.325 Q76.9656,589.6 77.55,590.15 Z " fill="#000000"/><text fill="#000000" font-family="sans-serif" font-size="13.2" lengthAdjust="spacing" textLength="184.8" x="90.75" y="599.4012">ClinicalChemistryTechnologist</text><line style="stroke:#A80036;stroke-width:1.6500000000000001;" x1="59.95" x2="277.75" y1="611.6" y2="611.6"/><text fill="#000000" font-family="sans-serif" font-size="12.1" lengthAdjust="spacing" textLength="33" x="65.45" y="628.5608">-name</text><text fill="#000000" font-family="sans-serif" font-size="12.1" lengthAdjust="spacing" textLength="48.4" x="65.45" y="643.7804">-address</text><text fill="#000000" font-family="sans-serif" font-size="12.1" lengthAdjust="spacing" textLength="78.1" x="65.45" y="658.9999">-phoneNumber</text><text fill="#000000" font-family="sans-serif" font-size="12.1" lengthAdjust="spacing" textLength="64.9" x="65.45" y="674.2194">-employeeID</text><text fill="#000000" font-family="sans-serif" font-size="12.1" lengthAdjust="spacing" textLength="45.1" x="65.45" y="689.439">-orgRole</text><text fill="#000000" font-family="sans-serif" font-size="12.1" lengthAdjust="spacing" textLength="30.8" x="65.45" y="704.6585">-email</text><text fill="#000000" font-family="sans-serif" font-size="12.1" lengthAdjust="spacing" textLength="55" x="65.45" y="719.878">-SOCcode</text><line style="stroke:#A80036;stroke-width:1.6500000000000001;" x1="59.95" x2="277.75" y1="726.9367" y2="726.9367"/><!--MD5=[01931d41e78f8996acd44f6f0fd8de28]
class MedicalLabTechnician--><rect codeLine="124" fill="#FEFECE" filter="url(#f1roop64mrjjqm)" height="159.3367" id="MedicalLabTechnician" style="stroke:#A80036;stroke-width:1.6500000000000001;" width="170.5" x="145.2" y="1489.4"/><ellipse cx="161.7" cy="1507" fill="#ADD1B2" rx="12.1" ry="12.1" style="stroke:#A80036;stroke-width:1.1;"/><path d="M163.9,1503.15 Q164.1234,1502.6 164.3813,1502.325 Q164.6391,1502.05 164.9313,1502.05 Q165.4469,1502.05 165.7734,1502.3594 Q166.1,1502.6688 166.1,1503.3906 L166.1,1505.1094 Q166.1,1505.8313 165.7906,1506.1406 Q165.4813,1506.45 165,1506.45 Q164.5703,1506.45 164.2953,1506.2609 Q164.0203,1506.0719 163.9,1505.5734 Q163.8484,1505.2297 163.6594,1505.0406 Q163.3156,1504.6797 162.6969,1504.4734 Q162.0781,1504.25 161.4594,1504.25 Q160.6859,1504.25 160.0328,1504.5594 Q159.3969,1504.8688 158.8984,1505.5563 Q158.4,1506.2438 158.4,1507.1891 L158.4,1508.2031 Q158.4,1509.3375 159.3281,1510.0938 Q160.2563,1510.85 161.9063,1510.85 Q162.8859,1510.85 163.5734,1510.6266 Q163.9688,1510.5063 164.4156,1510.1109 Q164.7078,1509.8875 164.8625,1509.8188 Q165.0172,1509.75 165.2063,1509.75 Q165.5672,1509.75 165.825,1510.0422 Q166.1,1510.3172 166.1,1510.7125 Q166.1,1511.0906 165.7219,1511.5375 Q165.1719,1512.1906 164.2953,1512.5516 Q163.1438,1513.05 161.7344,1513.05 Q160.0844,1513.05 158.7609,1512.3969 Q157.6953,1511.8813 156.9391,1510.7641 Q156.2,1509.6469 156.2,1508.3234 L156.2,1507.1203 Q156.2,1505.7453 156.8531,1504.5422 Q157.5234,1503.3391 158.675,1502.7031 Q159.8438,1502.05 161.15,1502.05 Q161.9406,1502.05 162.6281,1502.325 Q163.3156,1502.6 163.9,1503.15 Z " fill="#000000"/><text fill="#000000" font-family="sans-serif" font-size="13.2" lengthAdjust="spacing" textLength="135.3" x="177.1" y="1512.4012">MedicalLabTechnician</text><line style="stroke:#A80036;stroke-width:1.6500000000000001;" x1="146.3" x2="314.6" y1="1524.6" y2="1524.6"/><text fill="#000000" font-family="sans-serif" font-size="12.1" lengthAdjust="spacing" textLength="33" x="151.8" y="1541.5608">-name</text><text fill="#000000" font-family="sans-serif" font-size="12.1" lengthAdjust="spacing" textLength="48.4" x="151.8" y="1556.7804">-address</text><text fill="#000000" font-family="sans-serif" font-size="12.1" lengthAdjust="spacing" textLength="78.1" x="151.8" y="1571.9999">-phoneNumber</text><text fill="#000000" font-family="sans-serif" font-size="12.1" lengthAdjust="spacing" textLength="64.9" x="151.8" y="1587.2194">-employeeID</text><text fill="#000000" font-family="sans-serif" font-size="12.1" lengthAdjust="spacing" textLength="45.1" x="151.8" y="1602.439">-orgRole</text><text fill="#000000" font-family="sans-serif" font-size="12.1" lengthAdjust="spacing" textLength="30.8" x="151.8" y="1617.6585">-email</text><text fill="#000000" font-family="sans-serif" font-size="12.1" lengthAdjust="spacing" textLength="55" x="151.8" y="1632.878">-SOCcode</text><line style="stroke:#A80036;stroke-width:1.6500000000000001;" x1="146.3" x2="314.6" y1="1639.9367" y2="1639.9367"/><!--MD5=[03960189e81aa2c066c762ffabbee709]
class Receptionist--><rect codeLine="134" fill="#FEFECE" filter="url(#f1roop64mrjjqm)" height="159.3367" id="Receptionist" style="stroke:#A80036;stroke-width:1.6500000000000001;" width="111.1" x="633.6" y="1681.9"/><ellipse cx="650.1" cy="1699.5" fill="#ADD1B2" rx="12.1" ry="12.1" style="stroke:#A80036;stroke-width:1.1;"/><path d="M652.3,1695.65 Q652.5234,1695.1 652.7813,1694.825 Q653.0391,1694.55 653.3313,1694.55 Q653.8469,1694.55 654.1734,1694.8594 Q654.5,1695.1688 654.5,1695.8906 L654.5,1697.6094 Q654.5,1698.3313 654.1906,1698.6406 Q653.8813,1698.95 653.4,1698.95 Q652.9703,1698.95 652.6953,1698.7609 Q652.4203,1698.5719 652.3,1698.0734 Q652.2484,1697.7297 652.0594,1697.5406 Q651.7156,1697.1797 651.0969,1696.9734 Q650.4781,1696.75 649.8594,1696.75 Q649.0859,1696.75 648.4328,1697.0594 Q647.7969,1697.3688 647.2984,1698.0563 Q646.8,1698.7438 646.8,1699.6891 L646.8,1700.7031 Q646.8,1701.8375 647.7281,1702.5938 Q648.6563,1703.35 650.3063,1703.35 Q651.2859,1703.35 651.9734,1703.1266 Q652.3688,1703.0063 652.8156,1702.6109 Q653.1078,1702.3875 653.2625,1702.3188 Q653.4172,1702.25 653.6063,1702.25 Q653.9672,1702.25 654.225,1702.5422 Q654.5,1702.8172 654.5,1703.2125 Q654.5,1703.5906 654.1219,1704.0375 Q653.5719,1704.6906 652.6953,1705.0516 Q651.5438,1705.55 650.1344,1705.55 Q648.4844,1705.55 647.1609,1704.8969 Q646.0953,1704.3813 645.3391,1703.2641 Q644.6,1702.1469 644.6,1700.8234 L644.6,1699.6203 Q644.6,1698.2453 645.2531,1697.0422 Q645.9234,1695.8391 647.075,1695.2031 Q648.2438,1694.55 649.55,1694.55 Q650.3406,1694.55 651.0281,1694.825 Q651.7156,1695.1 652.3,1695.65 Z " fill="#000000"/><text fill="#000000" font-family="sans-serif" font-size="13.2" lengthAdjust="spacing" textLength="75.9" x="665.5" y="1704.9012">Receptionist</text><line style="stroke:#A80036;stroke-width:1.6500000000000001;" x1="634.7" x2="743.6" y1="1717.1" y2="1717.1"/><text fill="#000000" font-family="sans-serif" font-size="12.1" lengthAdjust="spacing" textLength="33" x="640.2" y="1734.0608">-name</text><text fill="#000000" font-family="sans-serif" font-size="12.1" lengthAdjust="spacing" textLength="48.4" x="640.2" y="1749.2804">-address</text><text fill="#000000" font-family="sans-serif" font-size="12.1" lengthAdjust="spacing" textLength="78.1" x="640.2" y="1764.4999">-phoneNumber</text><text fill="#000000" font-family="sans-serif" font-size="12.1" lengthAdjust="spacing" textLength="64.9" x="640.2" y="1779.7194">-employeeID</text><text fill="#000000" font-family="sans-serif" font-size="12.1" lengthAdjust="spacing" textLength="45.1" x="640.2" y="1794.939">-orgRole</text><text fill="#000000" font-family="sans-serif" font-size="12.1" lengthAdjust="spacing" textLength="30.8" x="640.2" y="1810.1585">-email</text><text fill="#000000" font-family="sans-serif" font-size="12.1" lengthAdjust="spacing" textLength="55" x="640.2" y="1825.378">-SOCcode</text><line style="stroke:#A80036;stroke-width:1.6500000000000001;" x1="634.7" x2="743.6" y1="1832.4367" y2="1832.4367"/><!--MD5=[ed6624c6556d5e7b1bd23032162d20b7]
class Client--><rect codeLine="144" fill="#FEFECE" filter="url(#f1roop64mrjjqm)" height="174.5563" id="Client" style="stroke:#A80036;stroke-width:1.6500000000000001;" width="91.3" x="658.9" y="1020.8"/><ellipse cx="684.805" cy="1038.4" fill="#ADD1B2" rx="12.1" ry="12.1" style="stroke:#A80036;stroke-width:1.1;"/><path d="M687.005,1034.55 Q687.2284,1034 687.4863,1033.725 Q687.7441,1033.45 688.0363,1033.45 Q688.5519,1033.45 688.8784,1033.7594 Q689.205,1034.0688 689.205,1034.7906 L689.205,1036.5094 Q689.205,1037.2313 688.8956,1037.5406 Q688.5863,1037.85 688.105,1037.85 Q687.6753,1037.85 687.4003,1037.6609 Q687.1253,1037.4719 687.005,1036.9734 Q686.9534,1036.6297 686.7644,1036.4406 Q686.4206,1036.0797 685.8019,1035.8734 Q685.1831,1035.65 684.5644,1035.65 Q683.7909,1035.65 683.1378,1035.9594 Q682.5019,1036.2688 682.0034,1036.9563 Q681.505,1037.6438 681.505,1038.5891 L681.505,1039.6031 Q681.505,1040.7375 682.4331,1041.4938 Q683.3613,1042.25 685.0113,1042.25 Q685.9909,1042.25 686.6784,1042.0266 Q687.0738,1041.9063 687.5206,1041.5109 Q687.8128,1041.2875 687.9675,1041.2188 Q688.1222,1041.15 688.3113,1041.15 Q688.6722,1041.15 688.93,1041.4422 Q689.205,1041.7172 689.205,1042.1125 Q689.205,1042.4906 688.8269,1042.9375 Q688.2769,1043.5906 687.4003,1043.9516 Q686.2488,1044.45 684.8394,1044.45 Q683.1894,1044.45 681.8659,1043.7969 Q680.8003,1043.2813 680.0441,1042.1641 Q679.305,1041.0469 679.305,1039.7234 L679.305,1038.5203 Q679.305,1037.1453 679.9581,1035.9422 Q680.6284,1034.7391 681.78,1034.1031 Q682.9488,1033.45 684.255,1033.45 Q685.0456,1033.45 685.7331,1033.725 Q686.4206,1034 687.005,1034.55 Z " fill="#000000"/><text fill="#000000" font-family="sans-serif" font-size="13.2" lengthAdjust="spacing" textLength="35.2" x="702.295" y="1043.8012">Client</text><line style="stroke:#A80036;stroke-width:1.6500000000000001;" x1="660" x2="749.1" y1="1056" y2="1056"/><text fill="#000000" font-family="sans-serif" font-size="12.1" lengthAdjust="spacing" textLength="48.4" x="665.5" y="1072.9608">-citizenID</text><text fill="#000000" font-family="sans-serif" font-size="12.1" lengthAdjust="spacing" textLength="34.1" x="665.5" y="1088.1804">-nhsID</text><text fill="#000000" font-family="sans-serif" font-size="12.1" lengthAdjust="spacing" textLength="51.7" x="665.5" y="1103.3999">-birthDate</text><text fill="#000000" font-family="sans-serif" font-size="12.1" lengthAdjust="spacing" textLength="24.2" x="665.5" y="1118.6194">-sex</text><text fill="#000000" font-family="sans-serif" font-size="12.1" lengthAdjust="spacing" textLength="20.9" x="665.5" y="1133.839">-TIN</text><text fill="#000000" font-family="sans-serif" font-size="12.1" lengthAdjust="spacing" textLength="78.1" x="665.5" y="1149.0585">-phoneNumber</text><text fill="#000000" font-family="sans-serif" font-size="12.1" lengthAdjust="spacing" textLength="30.8" x="665.5" y="1164.278">-email</text><text fill="#000000" font-family="sans-serif" font-size="12.1" lengthAdjust="spacing" textLength="33" x="665.5" y="1179.4976">-name</text><line style="stroke:#A80036;stroke-width:1.6500000000000001;" x1="660" x2="749.1" y1="1186.5563" y2="1186.5563"/><!--MD5=[a999c1570c205a2156b04a15307bc1ff]
class LabOrder--><rect codeLine="155" fill="#FEFECE" filter="url(#f1roop64mrjjqm)" height="52.8" id="LabOrder" style="stroke:#A80036;stroke-width:1.6500000000000001;" width="92.4" x="658.35" y="851.95"/><ellipse cx="674.85" cy="869.55" fill="#ADD1B2" rx="12.1" ry="12.1" style="stroke:#A80036;stroke-width:1.1;"/><path d="M677.05,865.7 Q677.2734,865.15 677.5313,864.875 Q677.7891,864.6 678.0813,864.6 Q678.5969,864.6 678.9234,864.9094 Q679.25,865.2188 679.25,865.9406 L679.25,867.6594 Q679.25,868.3813 678.9406,868.6906 Q678.6313,869 678.15,869 Q677.7203,869 677.4453,868.8109 Q677.1703,868.6219 677.05,868.1234 Q676.9984,867.7797 676.8094,867.5906 Q676.4656,867.2297 675.8469,867.0234 Q675.2281,866.8 674.6094,866.8 Q673.8359,866.8 673.1828,867.1094 Q672.5469,867.4188 672.0484,868.1063 Q671.55,868.7938 671.55,869.7391 L671.55,870.7531 Q671.55,871.8875 672.4781,872.6438 Q673.4063,873.4 675.0563,873.4 Q676.0359,873.4 676.7234,873.1766 Q677.1188,873.0563 677.5656,872.6609 Q677.8578,872.4375 678.0125,872.3688 Q678.1672,872.3 678.3563,872.3 Q678.7172,872.3 678.975,872.5922 Q679.25,872.8672 679.25,873.2625 Q679.25,873.6406 678.8719,874.0875 Q678.3219,874.7406 677.4453,875.1016 Q676.2938,875.6 674.8844,875.6 Q673.2344,875.6 671.9109,874.9469 Q670.8453,874.4313 670.0891,873.3141 Q669.35,872.1969 669.35,870.8734 L669.35,869.6703 Q669.35,868.2953 670.0031,867.0922 Q670.6734,865.8891 671.825,865.2531 Q672.9938,864.6 674.3,864.6 Q675.0906,864.6 675.7781,864.875 Q676.4656,865.15 677.05,865.7 Z " fill="#000000"/><text fill="#000000" font-family="sans-serif" font-size="13.2" lengthAdjust="spacing" textLength="57.2" x="690.25" y="874.9512">LabOrder</text><line style="stroke:#A80036;stroke-width:1.6500000000000001;" x1="659.45" x2="749.65" y1="887.15" y2="887.15"/><line style="stroke:#A80036;stroke-width:1.6500000000000001;" x1="659.45" x2="749.65" y1="895.95" y2="895.95"/><!--MD5=[2741598bdf59a7d7e0d5c97658fd3022]
class Result--><rect codeLine="160" fill="#FEFECE" filter="url(#f1roop64mrjjqm)" height="52.8" id="Result" style="stroke:#A80036;stroke-width:1.6500000000000001;" width="74.8" x="131.45" y="422.4"/><ellipse cx="147.95" cy="440" fill="#ADD1B2" rx="12.1" ry="12.1" style="stroke:#A80036;stroke-width:1.1;"/><path d="M150.15,436.15 Q150.3734,435.6 150.6313,435.325 Q150.8891,435.05 151.1813,435.05 Q151.6969,435.05 152.0234,435.3594 Q152.35,435.6688 152.35,436.3906 L152.35,438.1094 Q152.35,438.8313 152.0406,439.1406 Q151.7313,439.45 151.25,439.45 Q150.8203,439.45 150.5453,439.2609 Q150.2703,439.0719 150.15,438.5734 Q150.0984,438.2297 149.9094,438.0406 Q149.5656,437.6797 148.9469,437.4734 Q148.3281,437.25 147.7094,437.25 Q146.9359,437.25 146.2828,437.5594 Q145.6469,437.8688 145.1484,438.5563 Q144.65,439.2438 144.65,440.1891 L144.65,441.2031 Q144.65,442.3375 145.5781,443.0938 Q146.5063,443.85 148.1563,443.85 Q149.1359,443.85 149.8234,443.6266 Q150.2188,443.5063 150.6656,443.1109 Q150.9578,442.8875 151.1125,442.8188 Q151.2672,442.75 151.4563,442.75 Q151.8172,442.75 152.075,443.0422 Q152.35,443.3172 152.35,443.7125 Q152.35,444.0906 151.9719,444.5375 Q151.4219,445.1906 150.5453,445.5516 Q149.3938,446.05 147.9844,446.05 Q146.3344,446.05 145.0109,445.3969 Q143.9453,444.8813 143.1891,443.7641 Q142.45,442.6469 142.45,441.3234 L142.45,440.1203 Q142.45,438.7453 143.1031,437.5422 Q143.7734,436.3391 144.925,435.7031 Q146.0938,435.05 147.4,435.05 Q148.1906,435.05 148.8781,435.325 Q149.5656,435.6 150.15,436.15 Z " fill="#000000"/><text fill="#000000" font-family="sans-serif" font-size="13.2" lengthAdjust="spacing" textLength="39.6" x="163.35" y="445.4012">Result</text><line style="stroke:#A80036;stroke-width:1.6500000000000001;" x1="132.55" x2="205.15" y1="457.6" y2="457.6"/><line style="stroke:#A80036;stroke-width:1.6500000000000001;" x1="132.55" x2="205.15" y1="466.4" y2="466.4"/><!--MD5=[f00dbe8c0302c6aec2cb26b3c659c8fc]
class Report--><rect codeLine="165" fill="#FEFECE" filter="url(#f1roop64mrjjqm)" height="52.8" id="Report" style="stroke:#A80036;stroke-width:1.6500000000000001;" width="75.9" x="130.9" y="7.7"/><ellipse cx="147.4" cy="25.3" fill="#ADD1B2" rx="12.1" ry="12.1" style="stroke:#A80036;stroke-width:1.1;"/><path d="M149.6,21.45 Q149.8234,20.9 150.0813,20.625 Q150.3391,20.35 150.6313,20.35 Q151.1469,20.35 151.4734,20.6594 Q151.8,20.9688 151.8,21.6906 L151.8,23.4094 Q151.8,24.1313 151.4906,24.4406 Q151.1813,24.75 150.7,24.75 Q150.2703,24.75 149.9953,24.5609 Q149.7203,24.3719 149.6,23.8734 Q149.5484,23.5297 149.3594,23.3406 Q149.0156,22.9797 148.3969,22.7734 Q147.7781,22.55 147.1594,22.55 Q146.3859,22.55 145.7328,22.8594 Q145.0969,23.1688 144.5984,23.8563 Q144.1,24.5438 144.1,25.4891 L144.1,26.5031 Q144.1,27.6375 145.0281,28.3938 Q145.9563,29.15 147.6063,29.15 Q148.5859,29.15 149.2734,28.9266 Q149.6688,28.8063 150.1156,28.4109 Q150.4078,28.1875 150.5625,28.1188 Q150.7172,28.05 150.9063,28.05 Q151.2672,28.05 151.525,28.3422 Q151.8,28.6172 151.8,29.0125 Q151.8,29.3906 151.4219,29.8375 Q150.8719,30.4906 149.9953,30.8516 Q148.8438,31.35 147.4344,31.35 Q145.7844,31.35 144.4609,30.6969 Q143.3953,30.1813 142.6391,29.0641 Q141.9,27.9469 141.9,26.6234 L141.9,25.4203 Q141.9,24.0453 142.5531,22.8422 Q143.2234,21.6391 144.375,21.0031 Q145.5438,20.35 146.85,20.35 Q147.6406,20.35 148.3281,20.625 Q149.0156,20.9 149.6,21.45 Z " fill="#000000"/><text fill="#000000" font-family="sans-serif" font-size="13.2" lengthAdjust="spacing" textLength="40.7" x="162.8" y="30.7012">Report</text><line style="stroke:#A80036;stroke-width:1.6500000000000001;" x1="132" x2="205.7" y1="42.9" y2="42.9"/><line style="stroke:#A80036;stroke-width:1.6500000000000001;" x1="132" x2="205.7" y1="51.7" y2="51.7"/><!--MD5=[a96594a83e2ecdc78cbf17c2ddf01934]
class Category--><rect codeLine="171" fill="#FEFECE" filter="url(#f1roop64mrjjqm)" height="98.4586" id="Category" style="stroke:#A80036;stroke-width:1.6500000000000001;" width="89.1" x="383.9" y="828.85"/><ellipse cx="400.4" cy="846.45" fill="#ADD1B2" rx="12.1" ry="12.1" style="stroke:#A80036;stroke-width:1.1;"/><path d="M402.6,842.6 Q402.8234,842.05 403.0813,841.775 Q403.3391,841.5 403.6313,841.5 Q404.1469,841.5 404.4734,841.8094 Q404.8,842.1188 404.8,842.8406 L404.8,844.5594 Q404.8,845.2813 404.4906,845.5906 Q404.1813,845.9 403.7,845.9 Q403.2703,845.9 402.9953,845.7109 Q402.7203,845.5219 402.6,845.0234 Q402.5484,844.6797 402.3594,844.4906 Q402.0156,844.1297 401.3969,843.9234 Q400.7781,843.7 400.1594,843.7 Q399.3859,843.7 398.7328,844.0094 Q398.0969,844.3188 397.5984,845.0063 Q397.1,845.6938 397.1,846.6391 L397.1,847.6531 Q397.1,848.7875 398.0281,849.5438 Q398.9563,850.3 400.6063,850.3 Q401.5859,850.3 402.2734,850.0766 Q402.6688,849.9563 403.1156,849.5609 Q403.4078,849.3375 403.5625,849.2688 Q403.7172,849.2 403.9063,849.2 Q404.2672,849.2 404.525,849.4922 Q404.8,849.7672 404.8,850.1625 Q404.8,850.5406 404.4219,850.9875 Q403.8719,851.6406 402.9953,852.0016 Q401.8438,852.5 400.4344,852.5 Q398.7844,852.5 397.4609,851.8469 Q396.3953,851.3313 395.6391,850.2141 Q394.9,849.0969 394.9,847.7734 L394.9,846.5703 Q394.9,845.1953 395.5531,843.9922 Q396.2234,842.7891 397.375,842.1531 Q398.5438,841.5 399.85,841.5 Q400.6406,841.5 401.3281,841.775 Q402.0156,842.05 402.6,842.6 Z " fill="#000000"/><text fill="#000000" font-family="sans-serif" font-size="13.2" lengthAdjust="spacing" textLength="53.9" x="415.8" y="851.8512">Category</text><line style="stroke:#A80036;stroke-width:1.6500000000000001;" x1="385" x2="471.9" y1="864.05" y2="864.05"/><text fill="#000000" font-family="sans-serif" font-size="12.1" lengthAdjust="spacing" textLength="30.8" x="390.5" y="881.0108">-code</text><text fill="#000000" font-family="sans-serif" font-size="12.1" lengthAdjust="spacing" textLength="62.7" x="390.5" y="896.2304">-description</text><text fill="#000000" font-family="sans-serif" font-size="12.1" lengthAdjust="spacing" textLength="34.1" x="390.5" y="911.4499">-nhsID</text><line style="stroke:#A80036;stroke-width:1.6500000000000001;" x1="385" x2="471.9" y1="918.5086" y2="918.5086"/><!--MD5=[1f6362a5c8f21d8d6a0fce68f3a92a4e]
class Parameter--><rect codeLine="177" fill="#FEFECE" filter="url(#f1roop64mrjjqm)" height="52.8" id="Parameter" style="stroke:#A80036;stroke-width:1.6500000000000001;" width="99" x="352.55" y="1081.85"/><ellipse cx="369.05" cy="1099.45" fill="#ADD1B2" rx="12.1" ry="12.1" style="stroke:#A80036;stroke-width:1.1;"/><path d="M371.25,1095.6 Q371.4734,1095.05 371.7313,1094.775 Q371.9891,1094.5 372.2813,1094.5 Q372.7969,1094.5 373.1234,1094.8094 Q373.45,1095.1188 373.45,1095.8406 L373.45,1097.5594 Q373.45,1098.2813 373.1406,1098.5906 Q372.8313,1098.9 372.35,1098.9 Q371.9203,1098.9 371.6453,1098.7109 Q371.3703,1098.5219 371.25,1098.0234 Q371.1984,1097.6797 371.0094,1097.4906 Q370.6656,1097.1297 370.0469,1096.9234 Q369.4281,1096.7 368.8094,1096.7 Q368.0359,1096.7 367.3828,1097.0094 Q366.7469,1097.3188 366.2484,1098.0063 Q365.75,1098.6938 365.75,1099.6391 L365.75,1100.6531 Q365.75,1101.7875 366.6781,1102.5438 Q367.6063,1103.3 369.2563,1103.3 Q370.2359,1103.3 370.9234,1103.0766 Q371.3188,1102.9563 371.7656,1102.5609 Q372.0578,1102.3375 372.2125,1102.2688 Q372.3672,1102.2 372.5563,1102.2 Q372.9172,1102.2 373.175,1102.4922 Q373.45,1102.7672 373.45,1103.1625 Q373.45,1103.5406 373.0719,1103.9875 Q372.5219,1104.6406 371.6453,1105.0016 Q370.4938,1105.5 369.0844,1105.5 Q367.4344,1105.5 366.1109,1104.8469 Q365.0453,1104.3313 364.2891,1103.2141 Q363.55,1102.0969 363.55,1100.7734 L363.55,1099.5703 Q363.55,1098.1953 364.2031,1096.9922 Q364.8734,1095.7891 366.025,1095.1531 Q367.1938,1094.5 368.5,1094.5 Q369.2906,1094.5 369.9781,1094.775 Q370.6656,1095.05 371.25,1095.6 Z " fill="#000000"/><text fill="#000000" font-family="sans-serif" font-size="13.2" lengthAdjust="spacing" textLength="63.8" x="384.45" y="1104.8512">Parameter</text><line style="stroke:#A80036;stroke-width:1.6500000000000001;" x1="353.65" x2="450.45" y1="1117.05" y2="1117.05"/><line style="stroke:#A80036;stroke-width:1.6500000000000001;" x1="353.65" x2="450.45" y1="1125.85" y2="1125.85"/><!--MD5=[aeb3272166074d8737a70b61b1e71682]
class TestType--><rect codeLine="182" fill="#FEFECE" filter="url(#f1roop64mrjjqm)" height="83.2391" id="TestType" style="stroke:#A80036;stroke-width:1.6500000000000001;" width="90.2" x="574.75" y="407"/><ellipse cx="591.25" cy="424.6" fill="#ADD1B2" rx="12.1" ry="12.1" style="stroke:#A80036;stroke-width:1.1;"/><path d="M593.45,420.75 Q593.6734,420.2 593.9313,419.925 Q594.1891,419.65 594.4813,419.65 Q594.9969,419.65 595.3234,419.9594 Q595.65,420.2688 595.65,420.9906 L595.65,422.7094 Q595.65,423.4313 595.3406,423.7406 Q595.0313,424.05 594.55,424.05 Q594.1203,424.05 593.8453,423.8609 Q593.5703,423.6719 593.45,423.1734 Q593.3984,422.8297 593.2094,422.6406 Q592.8656,422.2797 592.2469,422.0734 Q591.6281,421.85 591.0094,421.85 Q590.2359,421.85 589.5828,422.1594 Q588.9469,422.4688 588.4484,423.1563 Q587.95,423.8438 587.95,424.7891 L587.95,425.8031 Q587.95,426.9375 588.8781,427.6938 Q589.8063,428.45 591.4563,428.45 Q592.4359,428.45 593.1234,428.2266 Q593.5188,428.1063 593.9656,427.7109 Q594.2578,427.4875 594.4125,427.4188 Q594.5672,427.35 594.7563,427.35 Q595.1172,427.35 595.375,427.6422 Q595.65,427.9172 595.65,428.3125 Q595.65,428.6906 595.2719,429.1375 Q594.7219,429.7906 593.8453,430.1516 Q592.6938,430.65 591.2844,430.65 Q589.6344,430.65 588.3109,429.9969 Q587.2453,429.4813 586.4891,428.3641 Q585.75,427.2469 585.75,425.9234 L585.75,424.7203 Q585.75,423.3453 586.4031,422.1422 Q587.0734,420.9391 588.225,420.3031 Q589.3938,419.65 590.7,419.65 Q591.4906,419.65 592.1781,419.925 Q592.8656,420.2 593.45,420.75 Z " fill="#000000"/><text fill="#000000" font-family="sans-serif" font-size="13.2" lengthAdjust="spacing" textLength="55" x="606.65" y="430.0012">TestType</text><line style="stroke:#A80036;stroke-width:1.6500000000000001;" x1="575.85" x2="663.85" y1="442.2" y2="442.2"/><text fill="#000000" font-family="sans-serif" font-size="12.1" lengthAdjust="spacing" textLength="56.1" x="581.35" y="459.1608">-bloodTest</text><text fill="#000000" font-family="sans-serif" font-size="12.1" lengthAdjust="spacing" textLength="58.3" x="581.35" y="474.3804">-swabTest</text><line style="stroke:#A80036;stroke-width:1.6500000000000001;" x1="575.85" x2="663.85" y1="481.4391" y2="481.4391"/><!--MD5=[df38be88ccee13e832d6fafd6288a4ca]
class Test--><rect codeLine="188" fill="#FEFECE" filter="url(#f1roop64mrjjqm)" height="174.5563" id="Test" style="stroke:#A80036;stroke-width:1.6500000000000001;" width="158.4" x="460.35" y="1281.5"/><ellipse cx="521.675" cy="1299.1" fill="#ADD1B2" rx="12.1" ry="12.1" style="stroke:#A80036;stroke-width:1.1;"/><path d="M523.875,1295.25 Q524.0984,1294.7 524.3563,1294.425 Q524.6141,1294.15 524.9063,1294.15 Q525.4219,1294.15 525.7484,1294.4594 Q526.075,1294.7688 526.075,1295.4906 L526.075,1297.2094 Q526.075,1297.9313 525.7656,1298.2406 Q525.4563,1298.55 524.975,1298.55 Q524.5453,1298.55 524.2703,1298.3609 Q523.9953,1298.1719 523.875,1297.6734 Q523.8234,1297.3297 523.6344,1297.1406 Q523.2906,1296.7797 522.6719,1296.5734 Q522.0531,1296.35 521.4344,1296.35 Q520.6609,1296.35 520.0078,1296.6594 Q519.3719,1296.9688 518.8734,1297.6563 Q518.375,1298.3438 518.375,1299.2891 L518.375,1300.3031 Q518.375,1301.4375 519.3031,1302.1938 Q520.2313,1302.95 521.8813,1302.95 Q522.8609,1302.95 523.5484,1302.7266 Q523.9438,1302.6063 524.3906,1302.2109 Q524.6828,1301.9875 524.8375,1301.9188 Q524.9922,1301.85 525.1813,1301.85 Q525.5422,1301.85 525.8,1302.1422 Q526.075,1302.4172 526.075,1302.8125 Q526.075,1303.1906 525.6969,1303.6375 Q525.1469,1304.2906 524.2703,1304.6516 Q523.1188,1305.15 521.7094,1305.15 Q520.0594,1305.15 518.7359,1304.4969 Q517.6703,1303.9813 516.9141,1302.8641 Q516.175,1301.7469 516.175,1300.4234 L516.175,1299.2203 Q516.175,1297.8453 516.8281,1296.6422 Q517.4984,1295.4391 518.65,1294.8031 Q519.8188,1294.15 521.125,1294.15 Q521.9156,1294.15 522.6031,1294.425 Q523.2906,1294.7 523.875,1295.25 Z " fill="#000000"/><text fill="#000000" font-family="sans-serif" font-size="13.2" lengthAdjust="spacing" textLength="26.4" x="544.225" y="1304.5012">Test</text><line style="stroke:#A80036;stroke-width:1.6500000000000001;" x1="461.45" x2="617.65" y1="1316.7" y2="1316.7"/><text fill="#000000" font-family="sans-serif" font-size="12.1" lengthAdjust="spacing" textLength="70.4" x="466.95" y="1333.6608">-internalCode</text><text fill="#000000" font-family="sans-serif" font-size="12.1" lengthAdjust="spacing" textLength="51.7" x="466.95" y="1348.8804">-nhsCode</text><text fill="#000000" font-family="sans-serif" font-size="12.1" lengthAdjust="spacing" textLength="77" x="466.95" y="1364.0999">-collectMethod</text><text fill="#000000" font-family="sans-serif" font-size="12.1" lengthAdjust="spacing" textLength="86.9" x="466.95" y="1379.3194">-collectDateTime</text><text fill="#000000" font-family="sans-serif" font-size="12.1" lengthAdjust="spacing" textLength="145.2" x="466.95" y="1394.539">-chemicalAnalysisDateTime</text><text fill="#000000" font-family="sans-serif" font-size="12.1" lengthAdjust="spacing" textLength="103.4" x="466.95" y="1409.7585">-diagnosisDateTime</text><text fill="#000000" font-family="sans-serif" font-size="12.1" lengthAdjust="spacing" textLength="102.3" x="466.95" y="1424.978">-validationDateTime</text><text fill="#000000" font-family="sans-serif" font-size="12.1" lengthAdjust="spacing" textLength="50.6" x="466.95" y="1440.1976">-testType</text><line style="stroke:#A80036;stroke-width:1.6500000000000001;" x1="461.45" x2="617.65" y1="1447.2563" y2="1447.2563"/><!--MD5=[9681492165142af2a4a3a169d90ee8d4]
class Sample--><rect codeLine="199" fill="#FEFECE" filter="url(#f1roop64mrjjqm)" height="68.0195" id="Sample" style="stroke:#A80036;stroke-width:1.6500000000000001;" width="82.5" x="173.8" y="1074.15"/><ellipse cx="190.3" cy="1091.75" fill="#ADD1B2" rx="12.1" ry="12.1" style="stroke:#A80036;stroke-width:1.1;"/><path d="M192.5,1087.9 Q192.7234,1087.35 192.9813,1087.075 Q193.2391,1086.8 193.5313,1086.8 Q194.0469,1086.8 194.3734,1087.1094 Q194.7,1087.4188 194.7,1088.1406 L194.7,1089.8594 Q194.7,1090.5813 194.3906,1090.8906 Q194.0813,1091.2 193.6,1091.2 Q193.1703,1091.2 192.8953,1091.0109 Q192.6203,1090.8219 192.5,1090.3234 Q192.4484,1089.9797 192.2594,1089.7906 Q191.9156,1089.4297 191.2969,1089.2234 Q190.6781,1089 190.0594,1089 Q189.2859,1089 188.6328,1089.3094 Q187.9969,1089.6188 187.4984,1090.3063 Q187,1090.9938 187,1091.9391 L187,1092.9531 Q187,1094.0875 187.9281,1094.8438 Q188.8563,1095.6 190.5063,1095.6 Q191.4859,1095.6 192.1734,1095.3766 Q192.5688,1095.2563 193.0156,1094.8609 Q193.3078,1094.6375 193.4625,1094.5688 Q193.6172,1094.5 193.8063,1094.5 Q194.1672,1094.5 194.425,1094.7922 Q194.7,1095.0672 194.7,1095.4625 Q194.7,1095.8406 194.3219,1096.2875 Q193.7719,1096.9406 192.8953,1097.3016 Q191.7438,1097.8 190.3344,1097.8 Q188.6844,1097.8 187.3609,1097.1469 Q186.2953,1096.6313 185.5391,1095.5141 Q184.8,1094.3969 184.8,1093.0734 L184.8,1091.8703 Q184.8,1090.4953 185.4531,1089.2922 Q186.1234,1088.0891 187.275,1087.4531 Q188.4438,1086.8 189.75,1086.8 Q190.5406,1086.8 191.2281,1087.075 Q191.9156,1087.35 192.5,1087.9 Z " fill="#000000"/><text fill="#000000" font-family="sans-serif" font-size="13.2" lengthAdjust="spacing" textLength="47.3" x="205.7" y="1097.1512">Sample</text><line style="stroke:#A80036;stroke-width:1.6500000000000001;" x1="174.9" x2="255.2" y1="1109.35" y2="1109.35"/><text fill="#000000" font-family="sans-serif" font-size="12.1" lengthAdjust="spacing" textLength="48.4" x="180.4" y="1126.3108">-barcode</text><line style="stroke:#A80036;stroke-width:1.6500000000000001;" x1="174.9" x2="255.2" y1="1133.3695" y2="1133.3695"/><!--MD5=[de3aa179ee7f21b344f648244b25a961]
link ChemicalLaboratory to Company--><path codeLine="21" d="M86.35,935.132 C86.35,981.233 86.35,1048.443 86.35,1107.15 C86.35,1107.15 86.35,1107.15 86.35,1992.65 C86.35,2150.258 344.498,2167.649 452.903,2168.012 " fill="none" id="ChemicalLaboratory-Company" style="stroke:#A80036;stroke-width:1.1;"/><polygon fill="#000000" points="90.2826,1564.0714,90.0193,1574.5297,96.2168,1572.6871,90.2826,1564.0714" style="stroke:#000000;stroke-width:1.1;"/><text fill="#000000" font-family="sans-serif" font-size="14.3" lengthAdjust="spacing" textLength="33" x="101.75" y="1575.1946">owns</text><text fill="#000000" font-family="sans-serif" font-size="14.3" lengthAdjust="spacing" textLength="7.7" x="78.1086" y="959.1997">1</text><text fill="#000000" font-family="sans-serif" font-size="14.3" lengthAdjust="spacing" textLength="7.7" x="436.7732" y="2163.8166">1</text><!--MD5=[47855ee4dabeea37c5949a17ed9e3a41]
link ChemicalLaboratory to Sample--><path codeLine="23" d="M117.832,935.154 C142.395,978.604 175.681,1037.487 196.24,1073.875 " fill="none" id="ChemicalLaboratory-Sample" style="stroke:#A80036;stroke-width:1.1;"/><polygon fill="#000000" points="149.6437,973.3053,151.7251,983.5577,157.3538,980.3763,149.6437,973.3053" style="stroke:#000000;stroke-width:1.1;"/><text fill="#000000" font-family="sans-serif" font-size="14.3" lengthAdjust="spacing" textLength="42.9" x="162.25" y="983.9446">is sent</text><text fill="#000000" font-family="sans-serif" font-size="14.3" lengthAdjust="spacing" textLength="7.7" x="114.0178" y="959.2248">1</text><text fill="#000000" font-family="sans-serif" font-size="14.3" lengthAdjust="spacing" textLength="5.5" x="186.2933" y="1062.2733">*</text><!--MD5=[fdfe1f7a1d4f9a6f0814f21c5f7b0d38]
link ClinicalAnalysisLaboratory to Company--><path codeLine="25" d="M425.777,2056.087 C445.566,2085.688 468.006,2119.238 482.977,2141.612 " fill="none" id="ClinicalAnalysisLaboratory-Company" style="stroke:#A80036;stroke-width:1.1;"/><polygon fill="#000000" points="460.5924,2094.4216,463.4365,2104.4892,468.8109,2100.8948,460.5924,2094.4216" style="stroke:#000000;stroke-width:1.1;"/><text fill="#000000" font-family="sans-serif" font-size="14.3" lengthAdjust="spacing" textLength="33" x="473.55" y="2104.8446">owns</text><text fill="#000000" font-family="sans-serif" font-size="14.3" lengthAdjust="spacing" textLength="5.5" x="425.1126" y="2079.8811">*</text><text fill="#000000" font-family="sans-serif" font-size="14.3" lengthAdjust="spacing" textLength="7.7" x="469.9411" y="2129.8636">1</text><!--MD5=[7d17329589c8a1a28e6f8826215bde21]
link Administrator to Category--><path codeLine="27" d="M433.389,736.054 C432.311,766.997 431.101,801.537 430.144,828.707 " fill="none" id="Administrator-Category" style="stroke:#A80036;stroke-width:1.1;"/><polygon fill="#000000" points="437.4425,773.4967,433.8634,783.3271,440.3251,783.5534,437.4425,773.4967" style="stroke:#000000;stroke-width:1.1;"/><text fill="#000000" font-family="sans-serif" font-size="14.3" lengthAdjust="spacing" textLength="67.1" x="447.15" y="784.8446">created by</text><text fill="#000000" font-family="sans-serif" font-size="14.3" lengthAdjust="spacing" textLength="7.7" x="425.0589" y="759.3794">1</text><text fill="#000000" font-family="sans-serif" font-size="14.3" lengthAdjust="spacing" textLength="5.5" x="424.4823" y="817.0736">*</text><!--MD5=[49f9c994ab9013da19f25c37bbd596b3]
link SpecialistDoctor to Result--><path codeLine="29" d="M168.85,321.42 C168.85,357.797 168.85,397.375 168.85,422.345 " fill="none" id="SpecialistDoctor-Result" style="stroke:#A80036;stroke-width:1.1;"/><polygon fill="#000000" points="174.35,358.7934,171.1172,368.743,177.5828,368.743,174.35,358.7934" style="stroke:#000000;stroke-width:1.1;"/><text fill="#000000" font-family="sans-serif" font-size="14.3" lengthAdjust="spacing" textLength="77" x="184.25" y="370.1446">analyzed by</text><text fill="#000000" font-family="sans-serif" font-size="14.3" lengthAdjust="spacing" textLength="7.7" x="160.8191" y="344.5864">1</text><text fill="#000000" font-family="sans-serif" font-size="14.3" lengthAdjust="spacing" textLength="7.7" x="160.1634" y="410.6051">1</text><!--MD5=[c3a86c626b5b742f72786125539e9227]
link ClinicalChemistryTechnologist to ChemicalLaboratory--><path codeLine="31" d="M139.304,736.054 C128.711,764.291 117.007,795.509 107.294,821.403 " fill="none" id="ClinicalChemistryTechnologist-ChemicalLaboratory" style="stroke:#A80036;stroke-width:1.1;"/><polygon fill="#000000" points="129.5186,784.1431,136.0395,775.9624,129.9856,773.6919,129.5186,784.1431" style="stroke:#000000;stroke-width:1.1;"/><text fill="#000000" font-family="sans-serif" font-size="14.3" lengthAdjust="spacing" textLength="57.2" x="141.35" y="784.8446">works for</text><text fill="#000000" font-family="sans-serif" font-size="14.3" lengthAdjust="spacing" textLength="5.5" x="130.7258" y="759.3794">*</text><text fill="#000000" font-family="sans-serif" font-size="14.3" lengthAdjust="spacing" textLength="7.7" x="101.891" y="809.8135">1</text><!--MD5=[98994e1502641fa381021dffe882d56a]
link ClinicalChemistryTechnologist to Sample--><path codeLine="33" d="M200.145,736.01 C203.489,746.922 206.404,758.087 208.45,768.9 C229.306,879.131 222.717,1013.166 218.02,1074.128 " fill="none" id="ClinicalChemistryTechnologist-Sample" style="stroke:#A80036;stroke-width:1.1;"/><polygon fill="#000000" points="227.9596,873.051,225.2566,883.1574,231.7132,882.8161,227.9596,873.051" style="stroke:#000000;stroke-width:1.1;"/><text fill="#000000" font-family="sans-serif" font-size="14.3" lengthAdjust="spacing" textLength="77" x="238.15" y="884.3946">analyzed by</text><text fill="#000000" font-family="sans-serif" font-size="14.3" lengthAdjust="spacing" textLength="5.5" x="197.3657" y="759.3312">*</text><text fill="#000000" font-family="sans-serif" font-size="14.3" lengthAdjust="spacing" textLength="22" x="221.0759" y="1062.0455">1..*</text><!--MD5=[738f0445d4a0804ca0738b44323ae22b]
link MedicalLabTechnician to ClinicalAnalysisLaboratory--><path codeLine="35" d="M236.907,1648.933 C243.485,1704.395 256.542,1779.514 282.15,1841.4 C294.591,1871.452 313.621,1901.691 331.848,1927.002 " fill="none" id="MedicalLabTechnician-ClinicalAnalysisLaboratory" style="stroke:#A80036;stroke-width:1.1;"/><polygon fill="#000000" points="289.4271,1767.0483,289.2717,1756.5879,283.1529,1758.677,289.4271,1767.0483" style="stroke:#000000;stroke-width:1.1;"/><text fill="#000000" font-family="sans-serif" font-size="14.3" lengthAdjust="spacing" textLength="57.2" x="297.55" y="1767.6946">works for</text><text fill="#000000" font-family="sans-serif" font-size="14.3" lengthAdjust="spacing" textLength="22" x="214.474" y="1672.2469">1..*</text><text fill="#000000" font-family="sans-serif" font-size="14.3" lengthAdjust="spacing" textLength="5.5" x="319.736" y="1915.3189">*</text><!--MD5=[6cd0a3af2322bf46f6c633408da71c74]
link Receptionist to ClinicalAnalysisLaboratory--><path codeLine="37" d="M658.9,1841.664 C648.736,1860.727 635.811,1879.735 619.85,1894.2 C580.833,1929.543 527.131,1952.808 480.755,1967.592 " fill="none" id="Receptionist-ClinicalAnalysisLaboratory" style="stroke:#A80036;stroke-width:1.1;"/><polygon fill="#000000" points="636.2588,1887.6681,646.2495,1884.5648,642.5174,1879.2851,636.2588,1887.6681" style="stroke:#000000;stroke-width:1.1;"/><text fill="#000000" font-family="sans-serif" font-size="14.3" lengthAdjust="spacing" textLength="57.2" x="650.65" y="1890.3446">works for</text><text fill="#000000" font-family="sans-serif" font-size="14.3" lengthAdjust="spacing" textLength="22" x="632.9684" y="1864.9999">1..*</text><text fill="#000000" font-family="sans-serif" font-size="14.3" lengthAdjust="spacing" textLength="5.5" x="489.3621" y="1962.0296">*</text><!--MD5=[502b51bc079239060389dab43b7d3470]
link Client to Test--><path codeLine="39" d="M658.812,1171.467 C645.854,1189.672 631.994,1209.769 619.85,1228.7 C609.081,1245.486 598.07,1263.746 587.785,1281.357 " fill="none" id="Client-Test" style="stroke:#A80036;stroke-width:1.1;"/><polygon fill="#000000" points="628.3356,1234.1742,620.2196,1240.7754,625.6497,1244.2852,628.3356,1234.1742" style="stroke:#000000;stroke-width:1.1;"/><text fill="#000000" font-family="sans-serif" font-size="14.3" lengthAdjust="spacing" textLength="82.5" x="635.25" y="1244.6446">requested by</text><text fill="#000000" font-family="sans-serif" font-size="14.3" lengthAdjust="spacing" textLength="7.7" x="642.2791" y="1178.4697">1</text><text fill="#000000" font-family="sans-serif" font-size="14.3" lengthAdjust="spacing" textLength="5.5" x="586.6203" y="1269.449">*</text><!--MD5=[7048eb257bae2750d747ca61a113ed73]
link Client to Receptionist--><path codeLine="41" d="M719.719,1195.865 C721.182,1206.887 722.425,1218.041 723.25,1228.7 C723.932,1237.478 723.547,1239.7 723.25,1248.5 C718.146,1402.104 704.429,1581.195 696.036,1681.68 " fill="none" id="Client-Receptionist" style="stroke:#A80036;stroke-width:1.1;"/><polygon fill="#000000" points="726.8178,1363.6499,723.1044,1373.4303,729.5623,1373.7451,726.8178,1363.6499" style="stroke:#000000;stroke-width:1.1;"/><text fill="#000000" font-family="sans-serif" font-size="14.3" lengthAdjust="spacing" textLength="55" x="736.45" y="1374.9946">registers</text><text fill="#000000" font-family="sans-serif" font-size="14.3" lengthAdjust="spacing" textLength="5.5" x="715.2863" y="1219.0267">*</text><text fill="#000000" font-family="sans-serif" font-size="14.3" lengthAdjust="spacing" textLength="22" x="673.6117" y="1669.7986">1..*</text><!--MD5=[b097d9d314264888b7dbeddc95343863]
link LabOrder to Client--><path codeLine="43" d="M704.55,905.124 C704.55,933.042 704.55,979.176 704.55,1020.316 " fill="none" id="LabOrder-Client" style="stroke:#A80036;stroke-width:1.1;"/><polygon fill="#000000" points="710.05,983.5934,713.2828,973.6438,706.8172,973.6438,710.05,983.5934" style="stroke:#000000;stroke-width:1.1;"/><text fill="#000000" font-family="sans-serif" font-size="14.3" lengthAdjust="spacing" textLength="67.1" x="719.95" y="983.9446">brought by</text><text fill="#000000" font-family="sans-serif" font-size="14.3" lengthAdjust="spacing" textLength="7.7" x="695.9597" y="928.2398">1</text><text fill="#000000" font-family="sans-serif" font-size="14.3" lengthAdjust="spacing" textLength="5.5" x="698.8051" y="1008.9778">*</text><!--MD5=[727b58dfd932e2fbda2a273f174e2308]
link LabOrder to Receptionist--><path codeLine="45" d="M743.193,904.904 C763.224,920.48 785.785,942.326 796.95,968 C840.246,1067.528 819.742,1349.436 801.35,1456.4 C787.688,1535.864 754.182,1621.631 727.32,1681.768 " fill="none" id="LabOrder-Receptionist" style="stroke:#A80036;stroke-width:1.1;"/><polygon fill="#000000" points="826.7624,1233.2945,823.327,1243.176,829.7912,1243.3081,826.7624,1233.2945" style="stroke:#000000;stroke-width:1.1;"/><text fill="#000000" font-family="sans-serif" font-size="14.3" lengthAdjust="spacing" textLength="51.7" x="836.55" y="1244.6446">receives</text><text fill="#000000" font-family="sans-serif" font-size="14.3" lengthAdjust="spacing" textLength="7.7" x="743.9738" y="928.4133">1</text><text fill="#000000" font-family="sans-serif" font-size="14.3" lengthAdjust="spacing" textLength="22" x="708.1219" y="1669.8957">1..*</text><!--MD5=[8a0bab72ab0281f8a9e78a6f98e5652c]
link Result to ClinicalChemistryTechnologist--><path codeLine="47" d="M168.85,475.464 C168.85,500.709 168.85,540.617 168.85,576.4 " fill="none" id="Result-ClinicalChemistryTechnologist" style="stroke:#A80036;stroke-width:1.1;"/><polygon fill="#000000" points="174.35,528.1934,171.1172,538.143,177.5828,538.143,174.35,528.1934" style="stroke:#000000;stroke-width:1.1;"/><text fill="#000000" font-family="sans-serif" font-size="14.3" lengthAdjust="spacing" textLength="55" x="184.25" y="539.5446">registers</text><text fill="#000000" font-family="sans-serif" font-size="14.3" lengthAdjust="spacing" textLength="5.5" x="162.6797" y="499.0001">*</text><text fill="#000000" font-family="sans-serif" font-size="14.3" lengthAdjust="spacing" textLength="22" x="145.7156" y="564.5413">1..*</text><!--MD5=[70bf8bae1709092519208a2a3511ecd8]
link Report to SpecialistDoctor--><path codeLine="49" d="M168.85,60.61 C168.85,82.379 168.85,115.038 168.85,146.08 " fill="none" id="Report-SpecialistDoctor" style="stroke:#A80036;stroke-width:1.1;"/><polygon fill="#000000" points="174.35,98.0934,171.1172,108.043,177.5828,108.043,174.35,98.0934" style="stroke:#000000;stroke-width:1.1;"/><text fill="#000000" font-family="sans-serif" font-size="14.3" lengthAdjust="spacing" textLength="55" x="184.25" y="109.4446">registers</text><text fill="#000000" font-family="sans-serif" font-size="14.3" lengthAdjust="spacing" textLength="7.7" x="160.2116" y="84.1086">1</text><text fill="#000000" font-family="sans-serif" font-size="14.3" lengthAdjust="spacing" textLength="7.7" x="160.7951" y="134.465">1</text><!--MD5=[9e2b536d5f14dafa66c4d5113ebdcad2]
link Category to Parameter--><path codeLine="51" d="M418.374,928.015 C415.976,940.962 413.622,954.976 411.95,968 C406.89,1007.391 404.25,1053.426 403.007,1081.421 " fill="none" id="Category-Parameter" style="stroke:#A80036;stroke-width:1.1;"/><polygon fill="#000000" points="417.9982,972.6207,413.7898,982.1986,420.2232,982.843,417.9982,972.6207" style="stroke:#000000;stroke-width:1.1;"/><text fill="#000000" font-family="sans-serif" font-size="14.3" lengthAdjust="spacing" textLength="102.3" x="427.35" y="983.9446">presented under</text><text fill="#000000" font-family="sans-serif" font-size="14.3" lengthAdjust="spacing" textLength="7.7" x="408.8027" y="950.7782">1</text><text fill="#000000" font-family="sans-serif" font-size="14.3" lengthAdjust="spacing" textLength="5.5" x="397.07" y="1070.0282">*</text><!--MD5=[4265453a012991a726928e22789b8a83]
link Parameter to Test--><path codeLine="53" d="M391.303,1134.881 C380.831,1163.921 368.852,1212.024 386.65,1248.5 C402.38,1280.73 431.486,1306.8 460.108,1326.259 " fill="none" id="Parameter-Test" style="stroke:#A80036;stroke-width:1.1;"/><polygon fill="#000000" points="390.2892,1233.6177,390.6132,1244.0743,396.6976,1241.8868,390.2892,1233.6177" style="stroke:#000000;stroke-width:1.1;"/><text fill="#000000" font-family="sans-serif" font-size="14.3" lengthAdjust="spacing" textLength="127.6" x="402.05" y="1244.6446">requests analysis of</text><text fill="#000000" font-family="sans-serif" font-size="14.3" lengthAdjust="spacing" textLength="22" x="364.0022" y="1158.4091">1..*</text><text fill="#000000" font-family="sans-serif" font-size="14.3" lengthAdjust="spacing" textLength="5.5" x="446.1319" y="1318.2313">*</text><!--MD5=[6d9eb9a083ac0654c8b63743033752d3]
link TestType to Company--><path codeLine="55" d="M665.005,457.061 C753.709,473.99 942.15,525.217 942.15,655.05 C942.15,655.05 942.15,655.05 942.15,1992.65 C942.15,2076.921 660.66,2137.707 546.854,2158.838 " fill="none" id="TestType-Company" style="stroke:#A80036;stroke-width:1.1;"/><polygon fill="#000000" points="948.0309,1233.3066,944.1168,1243.0084,950.5669,1243.4562,948.0309,1233.3066" style="stroke:#000000;stroke-width:1.1;"/><text fill="#000000" font-family="sans-serif" font-size="14.3" lengthAdjust="spacing" textLength="58.3" x="957.55" y="1244.6446">conducts</text><text fill="#000000" font-family="sans-serif" font-size="14.3" lengthAdjust="spacing" textLength="5.5" x="673.8375" y="454.2752">*</text><text fill="#000000" font-family="sans-serif" font-size="14.3" lengthAdjust="spacing" textLength="7.7" x="555.5773" y="2153.0115">1</text><!--MD5=[c2c6b28b052a3fe86d789b83a09b2815]
link TestType to Test--><path codeLine="57" d="M600.204,490.897 C582.538,531.575 559.35,596.2 559.35,655.05 C559.35,655.05 559.35,655.05 559.35,1109.35 C559.35,1166.737 554.444,1231.087 549.505,1281.225 " fill="none" id="TestType-Test" style="stroke:#A80036;stroke-width:1.1;"/><polygon fill="#000000" points="565.2021,873.0546,561.339,882.7769,567.7913,883.1908,565.2021,873.0546" style="stroke:#000000;stroke-width:1.1;"/><text fill="#000000" font-family="sans-serif" font-size="14.3" lengthAdjust="spacing" textLength="26.4" x="574.75" y="884.3946">is of</text><text fill="#000000" font-family="sans-serif" font-size="14.3" lengthAdjust="spacing" textLength="7.7" x="588.7593" y="513.9129">1</text><text fill="#000000" font-family="sans-serif" font-size="14.3" lengthAdjust="spacing" textLength="5.5" x="544.6692" y="1269.6049">*</text><!--MD5=[0985ee834cc881275852ed47ce1e01f6]
link TestType to Administrator--><path codeLine="59" d="M574.684,460.328 C540.122,470.657 493.955,489.918 466.95,523.6 C454.927,538.593 447.447,557.469 442.827,576.202 " fill="none" id="TestType-Administrator" style="stroke:#A80036;stroke-width:1.1;"/><polygon fill="#000000" points="476.5814,530.0627,466.9736,534.2022,471.2416,539.059,476.5814,530.0627" style="stroke:#000000;stroke-width:1.1;"/><text fill="#000000" font-family="sans-serif" font-size="14.3" lengthAdjust="spacing" textLength="47.3" x="482.35" y="539.5446">creates</text><text fill="#000000" font-family="sans-serif" font-size="14.3" lengthAdjust="spacing" textLength="5.5" x="560.3495" y="458.1445">*</text><text fill="#000000" font-family="sans-serif" font-size="14.3" lengthAdjust="spacing" textLength="7.7" x="435.4185" y="564.3229">1</text><!--MD5=[df02e8987f6870a0052669ffdc0b53df]
link TestType to LabOrder--><path codeLine="61" d="M627.968,490.875 C645.282,578.204 685.366,780.461 699.501,851.796 " fill="none" id="TestType-LabOrder" style="stroke:#A80036;stroke-width:1.1;"/><polygon fill="#000000" points="680.3807,650.9483,679.1439,661.3366,685.4862,660.0795,680.3807,650.9483" style="stroke:#000000;stroke-width:1.1;"/><text fill="#000000" font-family="sans-serif" font-size="14.3" lengthAdjust="spacing" textLength="53.9" x="691.35" y="662.1946">contains</text><text fill="#000000" font-family="sans-serif" font-size="14.3" lengthAdjust="spacing" textLength="7.7" x="620.9482" y="513.8874">1</text><text fill="#000000" font-family="sans-serif" font-size="14.3" lengthAdjust="spacing" textLength="7.7" x="689.5206" y="840.0307">1</text><!--MD5=[150ee6e4dbb30ab82336f9e174f6c4ed]
link Test to Company--><path codeLine="63" d="M542.993,1456.477 C547.096,1594.956 549.626,1874.796 515.35,2108.7 C513.755,2119.579 510.884,2131.338 508.035,2141.425 " fill="none" id="Test-Company" style="stroke:#A80036;stroke-width:1.1;"/><polygon fill="#000000" points="543.1303,1879.0005,539.3946,1888.7724,545.8518,1889.1019,543.1303,1879.0005" style="stroke:#000000;stroke-width:1.1;"/><text fill="#000000" font-family="sans-serif" font-size="14.3" lengthAdjust="spacing" textLength="55" x="552.75" y="1890.3446">performs</text><text fill="#000000" font-family="sans-serif" font-size="14.3" lengthAdjust="spacing" textLength="5.5" x="537.5526" y="1479.6311">*</text><text fill="#000000" font-family="sans-serif" font-size="14.3" lengthAdjust="spacing" textLength="7.7" x="501.4202" y="2129.6287">1</text><!--MD5=[ca29482912e344ebd5dc9db2d1c2ccab]
link Test to ClinicalAnalysisLaboratory--><path codeLine="65" d="M508.42,1456.543 C486.904,1518.649 458.777,1604.68 439.45,1681.9 C418.462,1765.742 401.929,1864.258 392.403,1927.002 " fill="none" id="Test-ClinicalAnalysisLaboratory" style="stroke:#A80036;stroke-width:1.1;"/><polygon fill="#000000" points="446.2669,1756.5033,440.7458,1765.3895,447.0234,1766.9376,446.2669,1756.5033" style="stroke:#000000;stroke-width:1.1;"/><text fill="#000000" font-family="sans-serif" font-size="14.3" lengthAdjust="spacing" textLength="55" x="454.85" y="1767.6946">performs</text><text fill="#000000" font-family="sans-serif" font-size="14.3" lengthAdjust="spacing" textLength="5.5" x="500.0084" y="1479.7028">*</text><text fill="#000000" font-family="sans-serif" font-size="14.3" lengthAdjust="spacing" textLength="5.5" x="387.6712" y="1915.3189">*</text><!--MD5=[10af4306acabee641eea198ac06587b8]
link Test to Receptionist--><path codeLine="67" d="M556.237,1456.466 C571.109,1531.717 591.756,1631.454 600.05,1648.9 C608.729,1667.16 620.906,1685.101 633.479,1701.084 " fill="none" id="Test-Receptionist" style="stroke:#A80036;stroke-width:1.1;"/><polygon fill="#000000" points="603.8939,1564.0986,603.807,1574.5599,609.9726,1572.613,603.8939,1564.0986" style="stroke:#000000;stroke-width:1.1;"/><text fill="#000000" font-family="sans-serif" font-size="14.3" lengthAdjust="spacing" textLength="55" x="615.45" y="1575.1946">registers</text><text fill="#000000" font-family="sans-serif" font-size="14.3" lengthAdjust="spacing" textLength="5.5" x="551.9347" y="1479.6192">*</text><text fill="#000000" font-family="sans-serif" font-size="14.3" lengthAdjust="spacing" textLength="22" x="602.9368" y="1689.4763">1..*</text><!--MD5=[1ae83efc6d1967ce5bc17dfe294d00c2]
link Sample to Test--><path codeLine="69" d="M230.164,1142.405 C245.52,1173.051 271.777,1218.338 305.25,1248.5 C350.185,1288.991 411.367,1319.538 459.954,1339.591 " fill="none" id="Sample-Test" style="stroke:#A80036;stroke-width:1.1;"/><polygon fill="#000000" points="306.5761,1235.2117,312.0215,1244.1444,316.232,1239.2376,306.5761,1235.2117" style="stroke:#000000;stroke-width:1.1;"/><text fill="#000000" font-family="sans-serif" font-size="14.3" lengthAdjust="spacing" textLength="49.5" x="320.65" y="1244.6446">collects</text><text fill="#000000" font-family="sans-serif" font-size="14.3" lengthAdjust="spacing" textLength="5.5" x="227.0982" y="1165.7622">*</text><text fill="#000000" font-family="sans-serif" font-size="14.3" lengthAdjust="spacing" textLength="7.7" x="443.6486" y="1352.3531">1</text><!--MD5=[cb5e86f6614a99551e1d9ce6f0ae5849]
link Sample to MedicalLabTechnician--><path codeLine="71" d="M211.541,1142.746 C209.198,1166.649 206.349,1199.616 205.15,1228.7 C201.443,1318.13 210.991,1420.562 219.395,1489.279 " fill="none" id="Sample-MedicalLabTechnician" style="stroke:#A80036;stroke-width:1.1;"/><polygon fill="#000000" points="210.5254,1233.2948,207.5188,1243.3151,213.9828,1243.1686,210.5254,1233.2948" style="stroke:#000000;stroke-width:1.1;"/><text fill="#000000" font-family="sans-serif" font-size="14.3" lengthAdjust="spacing" textLength="55" x="220.55" y="1244.6446">registers</text><text fill="#000000" font-family="sans-serif" font-size="14.3" lengthAdjust="spacing" textLength="22" x="186.7752" y="1165.898">1..*</text><text fill="#000000" font-family="sans-serif" font-size="14.3" lengthAdjust="spacing" textLength="22" x="195.1206" y="1477.4078">1..*</text><!--MD5=[d438af0ec750a06aa5f69cbe72bd84ac]
@startuml

class Company
class ChemicalLaboratory
class ClinicalAnalysisLaboratory
class Administrator
class SpecialistDoctor
class ClinicalChemistryTechnologist
class MedicalLabTechnician
class Receptionist
class Client
class LabOrder
class Result
class Report
class Category
class Parameter
class TestType
class Test
class Sample


ChemicalLaboratory "1" - - "1" Company : < owns

ChemicalLaboratory "1" - - "*" Sample : < is sent

ClinicalAnalysisLaboratory "*" - - "1" Company : < owns

Administrator "1" - - "*" Category : < created by

SpecialistDoctor "1" - - "1" Result : < analyzed by

ClinicalChemistryTechnologist "*" - - "1" ChemicalLaboratory : > works for

ClinicalChemistryTechnologist "*" - - "1..*" Sample : < analyzed by

MedicalLabTechnician "1..*" - - "*" ClinicalAnalysisLaboratory : > works for

Receptionist "1..*" - - "*" ClinicalAnalysisLaboratory : > works for

Client "1" - - "*" Test : < requested by

Client "*" - - "1..*" Receptionist : < registers

LabOrder "1" - - "*" Client : > brought by

LabOrder "1" - - "1..*" Receptionist : < receives

Result "*" - - "1..*" ClinicalChemistryTechnologist : < registers

Report "1" - - "1" SpecialistDoctor : < registers

Category "1" - - "*" Parameter : < presented under

Parameter "1..*" - - "*" Test : < requests analysis of

TestType "*" - - "1" Company : < conducts

TestType "1" - - "*" Test: < is of

TestType "*" - - "1" Administrator : < creates

TestType "1" - - "1" LabOrder : < contains

Test "*" - - "1" Company : < performs

Test "*" - - "*" ClinicalAnalysisLaboratory : < performs

Test "*" - - "1..*" Receptionist : < registers

Sample "*" - - "1" Test : < collects

Sample "1..*" - - "1..*" MedicalLabTechnician : < registers

skinparam classAttributeIconSize 0

class Company{
}

class ChemicalLaboratory{
-name
-address
-phoneNumber
-TIN
}

class ClinicalAnalysisLaboratory{
-name
-address
-phoneNumber
-labID
-TIN
}

class Administrator{
-name
-address
-phoneNumber
-employeeID
-orgRole
-email
-SOCcode
}

class SpecialistDoctor{
-name
-address
-phoneNumber
-employeeID
-orgRole
-email
-SOCcode
-doctorIndex
}

class ClinicalChemistryTechnologist{
-name
-address
-phoneNumber
-employeeID
-orgRole
-email
-SOCcode
}

class MedicalLabTechnician{
-name
-address
-phoneNumber
-employeeID
-orgRole
-email
-SOCcode
}

class Receptionist{
-name
-address
-phoneNumber
-employeeID
-orgRole
-email
-SOCcode
}

class Client{
-citizenID
-nhsID
-birthDate
-sex
-TIN
-phoneNumber
-email
-name
}

class LabOrder{


}

class Result{


}

class Report{


}


class Category{
-code
-description
-nhsID
}

class Parameter{


}

class TestType{
-bloodTest
-swabTest

}

class Test{
-internalCode
-nhsCode
-collectMethod
-collectDateTime
-chemicalAnalysisDateTime
-diagnosisDateTime
-validationDateTime
-testType
}

class Sample{
-barcode
}

@enduml

PlantUML version 1.2021.4(Sun Apr 04 09:49:39 BST 2021)
(GPL source distribution)
Java Runtime: OpenJDK Runtime Environment
JVM: OpenJDK 64-Bit Server VM
Default Encoding: Cp1252
Language: pt
Country: PT
--></g></svg>