<?xml version="1.0" encoding="UTF-8" standalone="no"?><svg xmlns="http://www.w3.org/2000/svg" xmlns:xlink="http://www.w3.org/1999/xlink" contentScriptType="application/ecmascript" contentStyleType="text/css" height="3147.2px" preserveAspectRatio="none" style="width:1822px;height:3147px;" version="1.1" viewBox="0 0 1822 3147" width="1822.4px" zoomAndPan="magnify"><defs><filter height="300%" id="f1fshvedn6cyja" width="300%" x="-1" y="-1"><feGaussianBlur result="blurOut" stdDeviation="3.2000000000000006"/><feColorMatrix in="blurOut" result="blurOut2" type="matrix" values="0 0 0 0 0 0 0 0 0 0 0 0 0 0 0 0 0 0 .4 0"/><feOffset dx="6.400000000000001" dy="6.400000000000001" in="blurOut2" result="blurOut3"/><feBlend in="SourceGraphic" in2="blurOut3" mode="normal"/></filter></defs><g><!--MD5=[02e4b9b7573f1156f41e60aa5b4e25a4]
class Company--><rect codeLine="81" fill="#FEFECE" filter="url(#f1fshvedn6cyja)" height="76.8" id="Company" style="stroke:#A80036;stroke-width:2.4000000000000004;" width="136" x="908" y="3048"/><ellipse cx="932" cy="3073.6" fill="#ADD1B2" rx="17.6" ry="17.6" style="stroke:#A80036;stroke-width:1.6000000000000003;"/><path d="M935.2,3068 Q935.525,3067.2 935.9,3066.8 Q936.275,3066.4 936.7,3066.4 Q937.45,3066.4 937.925,3066.85 Q938.4,3067.3 938.4,3068.35 L938.4,3070.85 Q938.4,3071.9 937.95,3072.35 Q937.5,3072.8 936.8,3072.8 Q936.175,3072.8 935.775,3072.525 Q935.375,3072.25 935.2,3071.525 Q935.125,3071.025 934.85,3070.75 Q934.35,3070.225 933.45,3069.925 Q932.55,3069.6 931.65,3069.6 Q930.525,3069.6 929.575,3070.05 Q928.65,3070.5 927.925,3071.5 Q927.2,3072.5 927.2,3073.875 L927.2,3075.35 Q927.2,3077 928.55,3078.1 Q929.9,3079.2 932.3,3079.2 Q933.725,3079.2 934.725,3078.875 Q935.3,3078.7 935.95,3078.125 Q936.375,3077.8 936.6,3077.7 Q936.825,3077.6 937.1,3077.6 Q937.625,3077.6 938,3078.025 Q938.4,3078.425 938.4,3079 Q938.4,3079.55 937.85,3080.2 Q937.05,3081.15 935.775,3081.675 Q934.1,3082.4 932.05,3082.4 Q929.65,3082.4 927.725,3081.45 Q926.175,3080.7 925.075,3079.075 Q924,3077.45 924,3075.525 L924,3073.775 Q924,3071.775 924.95,3070.025 Q925.925,3068.275 927.6,3067.35 Q929.3,3066.4 931.2,3066.4 Q932.35,3066.4 933.35,3066.8 Q934.35,3067.2 935.2,3068 Z " fill="#000000"/><text fill="#000000" font-family="sans-serif" font-size="19.2" lengthAdjust="spacing" textLength="84.8" x="954.4" y="3081.4563">Company</text><line style="stroke:#A80036;stroke-width:2.4000000000000004;" x1="909.6" x2="1042.4" y1="3099.2" y2="3099.2"/><line style="stroke:#A80036;stroke-width:2.4000000000000004;" x1="909.6" x2="1042.4" y1="3112" y2="3112"/><!--MD5=[a64badb107d3691f2dc6af242cdbeb21]
class ChemicalLaboratory--><rect codeLine="84" fill="#FEFECE" filter="url(#f1fshvedn6cyja)" height="165.35" id="ChemicalLaboratory" style="stroke:#A80036;stroke-width:2.4000000000000004;" width="228.8" x="263.2" y="1150.4"/><ellipse cx="287.2" cy="1176" fill="#ADD1B2" rx="17.6" ry="17.6" style="stroke:#A80036;stroke-width:1.6000000000000003;"/><path d="M290.4,1170.4 Q290.725,1169.6 291.1,1169.2 Q291.475,1168.8 291.9,1168.8 Q292.65,1168.8 293.125,1169.25 Q293.6,1169.7 293.6,1170.75 L293.6,1173.25 Q293.6,1174.3 293.15,1174.75 Q292.7,1175.2 292,1175.2 Q291.375,1175.2 290.975,1174.925 Q290.575,1174.65 290.4,1173.925 Q290.325,1173.425 290.05,1173.15 Q289.55,1172.625 288.65,1172.325 Q287.75,1172 286.85,1172 Q285.725,1172 284.775,1172.45 Q283.85,1172.9 283.125,1173.9 Q282.4,1174.9 282.4,1176.275 L282.4,1177.75 Q282.4,1179.4 283.75,1180.5 Q285.1,1181.6 287.5,1181.6 Q288.925,1181.6 289.925,1181.275 Q290.5,1181.1 291.15,1180.525 Q291.575,1180.2 291.8,1180.1 Q292.025,1180 292.3,1180 Q292.825,1180 293.2,1180.425 Q293.6,1180.825 293.6,1181.4 Q293.6,1181.95 293.05,1182.6 Q292.25,1183.55 290.975,1184.075 Q289.3,1184.8 287.25,1184.8 Q284.85,1184.8 282.925,1183.85 Q281.375,1183.1 280.275,1181.475 Q279.2,1179.85 279.2,1177.925 L279.2,1176.175 Q279.2,1174.175 280.15,1172.425 Q281.125,1170.675 282.8,1169.75 Q284.5,1168.8 286.4,1168.8 Q287.55,1168.8 288.55,1169.2 Q289.55,1169.6 290.4,1170.4 Z " fill="#000000"/><text fill="#000000" font-family="sans-serif" font-size="19.2" lengthAdjust="spacing" textLength="177.6" x="309.6" y="1183.8563">ChemicalLaboratory</text><line style="stroke:#A80036;stroke-width:2.4000000000000004;" x1="264.8" x2="490.4" y1="1201.6" y2="1201.6"/><text fill="#000000" font-family="sans-serif" font-size="17.6" lengthAdjust="spacing" textLength="48" x="272.8" y="1226.2703">-name</text><text fill="#000000" font-family="sans-serif" font-size="17.6" lengthAdjust="spacing" textLength="70.4" x="272.8" y="1248.4078">-address</text><text fill="#000000" font-family="sans-serif" font-size="17.6" lengthAdjust="spacing" textLength="113.6" x="272.8" y="1270.5453">-phoneNumber</text><text fill="#000000" font-family="sans-serif" font-size="17.6" lengthAdjust="spacing" textLength="30.4" x="272.8" y="1292.6828">-TIN</text><line style="stroke:#A80036;stroke-width:2.4000000000000004;" x1="264.8" x2="490.4" y1="1302.95" y2="1302.95"/><!--MD5=[1934a092c0e7d4da7dc7075b6f4b6b03]
class ClinicalAnalysisLaboratory--><rect codeLine="91" fill="#FEFECE" filter="url(#f1fshvedn6cyja)" height="187.4875" id="ClinicalAnalysisLaboratory" style="stroke:#A80036;stroke-width:2.4000000000000004;" width="283.2" x="981.6" y="2736"/><ellipse cx="1005.6" cy="2761.6" fill="#ADD1B2" rx="17.6" ry="17.6" style="stroke:#A80036;stroke-width:1.6000000000000003;"/><path d="M1008.8,2756 Q1009.125,2755.2 1009.5,2754.8 Q1009.875,2754.4 1010.3,2754.4 Q1011.05,2754.4 1011.525,2754.85 Q1012,2755.3 1012,2756.35 L1012,2758.85 Q1012,2759.9 1011.55,2760.35 Q1011.1,2760.8 1010.4,2760.8 Q1009.775,2760.8 1009.375,2760.525 Q1008.975,2760.25 1008.8,2759.525 Q1008.725,2759.025 1008.45,2758.75 Q1007.95,2758.225 1007.05,2757.925 Q1006.15,2757.6 1005.25,2757.6 Q1004.125,2757.6 1003.175,2758.05 Q1002.25,2758.5 1001.525,2759.5 Q1000.8,2760.5 1000.8,2761.875 L1000.8,2763.35 Q1000.8,2765 1002.15,2766.1 Q1003.5,2767.2 1005.9,2767.2 Q1007.325,2767.2 1008.325,2766.875 Q1008.9,2766.7 1009.55,2766.125 Q1009.975,2765.8 1010.2,2765.7 Q1010.425,2765.6 1010.7,2765.6 Q1011.225,2765.6 1011.6,2766.025 Q1012,2766.425 1012,2767 Q1012,2767.55 1011.45,2768.2 Q1010.65,2769.15 1009.375,2769.675 Q1007.7,2770.4 1005.65,2770.4 Q1003.25,2770.4 1001.325,2769.45 Q999.775,2768.7 998.675,2767.075 Q997.6,2765.45 997.6,2763.525 L997.6,2761.775 Q997.6,2759.775 998.55,2758.025 Q999.525,2756.275 1001.2,2755.35 Q1002.9,2754.4 1004.8,2754.4 Q1005.95,2754.4 1006.95,2754.8 Q1007.95,2755.2 1008.8,2756 Z " fill="#000000"/><text fill="#000000" font-family="sans-serif" font-size="19.2" lengthAdjust="spacing" textLength="232" x="1028" y="2769.4563">ClinicalAnalysisLaboratory</text><line style="stroke:#A80036;stroke-width:2.4000000000000004;" x1="983.2" x2="1263.2" y1="2787.2" y2="2787.2"/><text fill="#000000" font-family="sans-serif" font-size="17.6" lengthAdjust="spacing" textLength="48" x="991.2" y="2811.8703">-name</text><text fill="#000000" font-family="sans-serif" font-size="17.6" lengthAdjust="spacing" textLength="70.4" x="991.2" y="2834.0078">-address</text><text fill="#000000" font-family="sans-serif" font-size="17.6" lengthAdjust="spacing" textLength="113.6" x="991.2" y="2856.1453">-phoneNumber</text><text fill="#000000" font-family="sans-serif" font-size="17.6" lengthAdjust="spacing" textLength="43.2" x="991.2" y="2878.2828">-labID</text><text fill="#000000" font-family="sans-serif" font-size="17.6" lengthAdjust="spacing" textLength="30.4" x="991.2" y="2900.4203">-TIN</text><line style="stroke:#A80036;stroke-width:2.4000000000000004;" x1="983.2" x2="1263.2" y1="2910.6875" y2="2910.6875"/><!--MD5=[da547346deef918ea16944ba046651ef]
class Administrator--><rect codeLine="99" fill="#FEFECE" filter="url(#f1fshvedn6cyja)" height="231.7625" id="Administrator" style="stroke:#A80036;stroke-width:2.4000000000000004;" width="168" x="909.6" y="793.6"/><ellipse cx="933.6" cy="819.2" fill="#ADD1B2" rx="17.6" ry="17.6" style="stroke:#A80036;stroke-width:1.6000000000000003;"/><path d="M936.8,813.6 Q937.125,812.8 937.5,812.4 Q937.875,812 938.3,812 Q939.05,812 939.525,812.45 Q940,812.9 940,813.95 L940,816.45 Q940,817.5 939.55,817.95 Q939.1,818.4 938.4,818.4 Q937.775,818.4 937.375,818.125 Q936.975,817.85 936.8,817.125 Q936.725,816.625 936.45,816.35 Q935.95,815.825 935.05,815.525 Q934.15,815.2 933.25,815.2 Q932.125,815.2 931.175,815.65 Q930.25,816.1 929.525,817.1 Q928.8,818.1 928.8,819.475 L928.8,820.95 Q928.8,822.6 930.15,823.7 Q931.5,824.8 933.9,824.8 Q935.325,824.8 936.325,824.475 Q936.9,824.3 937.55,823.725 Q937.975,823.4 938.2,823.3 Q938.425,823.2 938.7,823.2 Q939.225,823.2 939.6,823.625 Q940,824.025 940,824.6 Q940,825.15 939.45,825.8 Q938.65,826.75 937.375,827.275 Q935.7,828 933.65,828 Q931.25,828 929.325,827.05 Q927.775,826.3 926.675,824.675 Q925.6,823.05 925.6,821.125 L925.6,819.375 Q925.6,817.375 926.55,815.625 Q927.525,813.875 929.2,812.95 Q930.9,812 932.8,812 Q933.95,812 934.95,812.4 Q935.95,812.8 936.8,813.6 Z " fill="#000000"/><text fill="#000000" font-family="sans-serif" font-size="19.2" lengthAdjust="spacing" textLength="116.8" x="956" y="827.0563">Administrator</text><line style="stroke:#A80036;stroke-width:2.4000000000000004;" x1="911.2" x2="1076" y1="844.8" y2="844.8"/><text fill="#000000" font-family="sans-serif" font-size="17.6" lengthAdjust="spacing" textLength="48" x="919.2" y="869.4703">-name</text><text fill="#000000" font-family="sans-serif" font-size="17.6" lengthAdjust="spacing" textLength="70.4" x="919.2" y="891.6078">-address</text><text fill="#000000" font-family="sans-serif" font-size="17.6" lengthAdjust="spacing" textLength="113.6" x="919.2" y="913.7453">-phoneNumber</text><text fill="#000000" font-family="sans-serif" font-size="17.6" lengthAdjust="spacing" textLength="94.4" x="919.2" y="935.8828">-employeeID</text><text fill="#000000" font-family="sans-serif" font-size="17.6" lengthAdjust="spacing" textLength="65.6" x="919.2" y="958.0203">-orgRole</text><text fill="#000000" font-family="sans-serif" font-size="17.6" lengthAdjust="spacing" textLength="44.8" x="919.2" y="980.1578">-email</text><text fill="#000000" font-family="sans-serif" font-size="17.6" lengthAdjust="spacing" textLength="80" x="919.2" y="1002.2953">-SOCcode</text><line style="stroke:#A80036;stroke-width:2.4000000000000004;" x1="911.2" x2="1076" y1="1012.5625" y2="1012.5625"/><!--MD5=[7d96fd15f3014691d2fcaf89c5791e2a]
class SpecialistDoctor--><rect codeLine="109" fill="#FEFECE" filter="url(#f1fshvedn6cyja)" height="253.9" id="SpecialistDoctor" style="stroke:#A80036;stroke-width:2.4000000000000004;" width="195.2" x="73.6" y="212.8"/><ellipse cx="97.6" cy="238.4" fill="#ADD1B2" rx="17.6" ry="17.6" style="stroke:#A80036;stroke-width:1.6000000000000003;"/><path d="M100.8,232.8 Q101.125,232 101.5,231.6 Q101.875,231.2 102.3,231.2 Q103.05,231.2 103.525,231.65 Q104,232.1 104,233.15 L104,235.65 Q104,236.7 103.55,237.15 Q103.1,237.6 102.4,237.6 Q101.775,237.6 101.375,237.325 Q100.975,237.05 100.8,236.325 Q100.725,235.825 100.45,235.55 Q99.95,235.025 99.05,234.725 Q98.15,234.4 97.25,234.4 Q96.125,234.4 95.175,234.85 Q94.25,235.3 93.525,236.3 Q92.8,237.3 92.8,238.675 L92.8,240.15 Q92.8,241.8 94.15,242.9 Q95.5,244 97.9,244 Q99.325,244 100.325,243.675 Q100.9,243.5 101.55,242.925 Q101.975,242.6 102.2,242.5 Q102.425,242.4 102.7,242.4 Q103.225,242.4 103.6,242.825 Q104,243.225 104,243.8 Q104,244.35 103.45,245 Q102.65,245.95 101.375,246.475 Q99.7,247.2 97.65,247.2 Q95.25,247.2 93.325,246.25 Q91.775,245.5 90.675,243.875 Q89.6,242.25 89.6,240.325 L89.6,238.575 Q89.6,236.575 90.55,234.825 Q91.525,233.075 93.2,232.15 Q94.9,231.2 96.8,231.2 Q97.95,231.2 98.95,231.6 Q99.95,232 100.8,232.8 Z " fill="#000000"/><text fill="#000000" font-family="sans-serif" font-size="19.2" lengthAdjust="spacing" textLength="144" x="120" y="246.2563">SpecialistDoctor</text><line style="stroke:#A80036;stroke-width:2.4000000000000004;" x1="75.2" x2="267.2" y1="264" y2="264"/><text fill="#000000" font-family="sans-serif" font-size="17.6" lengthAdjust="spacing" textLength="48" x="83.2" y="288.6703">-name</text><text fill="#000000" font-family="sans-serif" font-size="17.6" lengthAdjust="spacing" textLength="70.4" x="83.2" y="310.8078">-address</text><text fill="#000000" font-family="sans-serif" font-size="17.6" lengthAdjust="spacing" textLength="113.6" x="83.2" y="332.9453">-phoneNumber</text><text fill="#000000" font-family="sans-serif" font-size="17.6" lengthAdjust="spacing" textLength="94.4" x="83.2" y="355.0828">-employeeID</text><text fill="#000000" font-family="sans-serif" font-size="17.6" lengthAdjust="spacing" textLength="65.6" x="83.2" y="377.2203">-orgRole</text><text fill="#000000" font-family="sans-serif" font-size="17.6" lengthAdjust="spacing" textLength="44.8" x="83.2" y="399.3578">-email</text><text fill="#000000" font-family="sans-serif" font-size="17.6" lengthAdjust="spacing" textLength="80" x="83.2" y="421.4953">-SOCcode</text><text fill="#000000" font-family="sans-serif" font-size="17.6" lengthAdjust="spacing" textLength="97.6" x="83.2" y="443.6328">-doctorIndex</text><line style="stroke:#A80036;stroke-width:2.4000000000000004;" x1="75.2" x2="267.2" y1="453.9" y2="453.9"/><!--MD5=[012ee2a8bf3ae2b319009b06f951c2e5]
class ClinicalChemistryTechnologist--><rect codeLine="120" fill="#FEFECE" filter="url(#f1fshvedn6cyja)" height="231.7625" id="ClinicalChemistryTechnologist" style="stroke:#A80036;stroke-width:2.4000000000000004;" width="320" x="11.2" y="793.6"/><ellipse cx="35.2" cy="819.2" fill="#ADD1B2" rx="17.6" ry="17.6" style="stroke:#A80036;stroke-width:1.6000000000000003;"/><path d="M38.4,813.6 Q38.725,812.8 39.1,812.4 Q39.475,812 39.9,812 Q40.65,812 41.125,812.45 Q41.6,812.9 41.6,813.95 L41.6,816.45 Q41.6,817.5 41.15,817.95 Q40.7,818.4 40,818.4 Q39.375,818.4 38.975,818.125 Q38.575,817.85 38.4,817.125 Q38.325,816.625 38.05,816.35 Q37.55,815.825 36.65,815.525 Q35.75,815.2 34.85,815.2 Q33.725,815.2 32.775,815.65 Q31.85,816.1 31.125,817.1 Q30.4,818.1 30.4,819.475 L30.4,820.95 Q30.4,822.6 31.75,823.7 Q33.1,824.8 35.5,824.8 Q36.925,824.8 37.925,824.475 Q38.5,824.3 39.15,823.725 Q39.575,823.4 39.8,823.3 Q40.025,823.2 40.3,823.2 Q40.825,823.2 41.2,823.625 Q41.6,824.025 41.6,824.6 Q41.6,825.15 41.05,825.8 Q40.25,826.75 38.975,827.275 Q37.3,828 35.25,828 Q32.85,828 30.925,827.05 Q29.375,826.3 28.275,824.675 Q27.2,823.05 27.2,821.125 L27.2,819.375 Q27.2,817.375 28.15,815.625 Q29.125,813.875 30.8,812.95 Q32.5,812 34.4,812 Q35.55,812 36.55,812.4 Q37.55,812.8 38.4,813.6 Z " fill="#000000"/><text fill="#000000" font-family="sans-serif" font-size="19.2" lengthAdjust="spacing" textLength="268.8" x="57.6" y="827.0563">ClinicalChemistryTechnologist</text><line style="stroke:#A80036;stroke-width:2.4000000000000004;" x1="12.8" x2="329.6" y1="844.8" y2="844.8"/><text fill="#000000" font-family="sans-serif" font-size="17.6" lengthAdjust="spacing" textLength="48" x="20.8" y="869.4703">-name</text><text fill="#000000" font-family="sans-serif" font-size="17.6" lengthAdjust="spacing" textLength="70.4" x="20.8" y="891.6078">-address</text><text fill="#000000" font-family="sans-serif" font-size="17.6" lengthAdjust="spacing" textLength="113.6" x="20.8" y="913.7453">-phoneNumber</text><text fill="#000000" font-family="sans-serif" font-size="17.6" lengthAdjust="spacing" textLength="94.4" x="20.8" y="935.8828">-employeeID</text><text fill="#000000" font-family="sans-serif" font-size="17.6" lengthAdjust="spacing" textLength="65.6" x="20.8" y="958.0203">-orgRole</text><text fill="#000000" font-family="sans-serif" font-size="17.6" lengthAdjust="spacing" textLength="44.8" x="20.8" y="980.1578">-email</text><text fill="#000000" font-family="sans-serif" font-size="17.6" lengthAdjust="spacing" textLength="80" x="20.8" y="1002.2953">-SOCcode</text><line style="stroke:#A80036;stroke-width:2.4000000000000004;" x1="12.8" x2="329.6" y1="1012.5625" y2="1012.5625"/><!--MD5=[01931d41e78f8996acd44f6f0fd8de28]
class MedicalLabTechnician--><rect codeLine="130" fill="#FEFECE" filter="url(#f1fshvedn6cyja)" height="231.7625" id="MedicalLabTechnician" style="stroke:#A80036;stroke-width:2.4000000000000004;" width="248" x="394.4" y="2099.2"/><ellipse cx="418.4" cy="2124.8" fill="#ADD1B2" rx="17.6" ry="17.6" style="stroke:#A80036;stroke-width:1.6000000000000003;"/><path d="M421.6,2119.2 Q421.925,2118.4 422.3,2118 Q422.675,2117.6 423.1,2117.6 Q423.85,2117.6 424.325,2118.05 Q424.8,2118.5 424.8,2119.55 L424.8,2122.05 Q424.8,2123.1 424.35,2123.55 Q423.9,2124 423.2,2124 Q422.575,2124 422.175,2123.725 Q421.775,2123.45 421.6,2122.725 Q421.525,2122.225 421.25,2121.95 Q420.75,2121.425 419.85,2121.125 Q418.95,2120.8 418.05,2120.8 Q416.925,2120.8 415.975,2121.25 Q415.05,2121.7 414.325,2122.7 Q413.6,2123.7 413.6,2125.075 L413.6,2126.55 Q413.6,2128.2 414.95,2129.3 Q416.3,2130.4 418.7,2130.4 Q420.125,2130.4 421.125,2130.075 Q421.7,2129.9 422.35,2129.325 Q422.775,2129 423,2128.9 Q423.225,2128.8 423.5,2128.8 Q424.025,2128.8 424.4,2129.225 Q424.8,2129.625 424.8,2130.2 Q424.8,2130.75 424.25,2131.4 Q423.45,2132.35 422.175,2132.875 Q420.5,2133.6 418.45,2133.6 Q416.05,2133.6 414.125,2132.65 Q412.575,2131.9 411.475,2130.275 Q410.4,2128.65 410.4,2126.725 L410.4,2124.975 Q410.4,2122.975 411.35,2121.225 Q412.325,2119.475 414,2118.55 Q415.7,2117.6 417.6,2117.6 Q418.75,2117.6 419.75,2118 Q420.75,2118.4 421.6,2119.2 Z " fill="#000000"/><text fill="#000000" font-family="sans-serif" font-size="19.2" lengthAdjust="spacing" textLength="196.8" x="440.8" y="2132.6563">MedicalLabTechnician</text><line style="stroke:#A80036;stroke-width:2.4000000000000004;" x1="396" x2="640.8" y1="2150.4" y2="2150.4"/><text fill="#000000" font-family="sans-serif" font-size="17.6" lengthAdjust="spacing" textLength="48" x="404" y="2175.0703">-name</text><text fill="#000000" font-family="sans-serif" font-size="17.6" lengthAdjust="spacing" textLength="70.4" x="404" y="2197.2078">-address</text><text fill="#000000" font-family="sans-serif" font-size="17.6" lengthAdjust="spacing" textLength="113.6" x="404" y="2219.3453">-phoneNumber</text><text fill="#000000" font-family="sans-serif" font-size="17.6" lengthAdjust="spacing" textLength="94.4" x="404" y="2241.4828">-employeeID</text><text fill="#000000" font-family="sans-serif" font-size="17.6" lengthAdjust="spacing" textLength="65.6" x="404" y="2263.6203">-orgRole</text><text fill="#000000" font-family="sans-serif" font-size="17.6" lengthAdjust="spacing" textLength="44.8" x="404" y="2285.7578">-email</text><text fill="#000000" font-family="sans-serif" font-size="17.6" lengthAdjust="spacing" textLength="80" x="404" y="2307.8953">-SOCcode</text><line style="stroke:#A80036;stroke-width:2.4000000000000004;" x1="396" x2="640.8" y1="2318.1625" y2="2318.1625"/><!--MD5=[03960189e81aa2c066c762ffabbee709]
class Receptionist--><rect codeLine="140" fill="#FEFECE" filter="url(#f1fshvedn6cyja)" height="231.7625" id="Receptionist" style="stroke:#A80036;stroke-width:2.4000000000000004;" width="161.6" x="1255.2" y="2379.2"/><ellipse cx="1279.2" cy="2404.8" fill="#ADD1B2" rx="17.6" ry="17.6" style="stroke:#A80036;stroke-width:1.6000000000000003;"/><path d="M1282.4,2399.2 Q1282.725,2398.4 1283.1,2398 Q1283.475,2397.6 1283.9,2397.6 Q1284.65,2397.6 1285.125,2398.05 Q1285.6,2398.5 1285.6,2399.55 L1285.6,2402.05 Q1285.6,2403.1 1285.15,2403.55 Q1284.7,2404 1284,2404 Q1283.375,2404 1282.975,2403.725 Q1282.575,2403.45 1282.4,2402.725 Q1282.325,2402.225 1282.05,2401.95 Q1281.55,2401.425 1280.65,2401.125 Q1279.75,2400.8 1278.85,2400.8 Q1277.725,2400.8 1276.775,2401.25 Q1275.85,2401.7 1275.125,2402.7 Q1274.4,2403.7 1274.4,2405.075 L1274.4,2406.55 Q1274.4,2408.2 1275.75,2409.3 Q1277.1,2410.4 1279.5,2410.4 Q1280.925,2410.4 1281.925,2410.075 Q1282.5,2409.9 1283.15,2409.325 Q1283.575,2409 1283.8,2408.9 Q1284.025,2408.8 1284.3,2408.8 Q1284.825,2408.8 1285.2,2409.225 Q1285.6,2409.625 1285.6,2410.2 Q1285.6,2410.75 1285.05,2411.4 Q1284.25,2412.35 1282.975,2412.875 Q1281.3,2413.6 1279.25,2413.6 Q1276.85,2413.6 1274.925,2412.65 Q1273.375,2411.9 1272.275,2410.275 Q1271.2,2408.65 1271.2,2406.725 L1271.2,2404.975 Q1271.2,2402.975 1272.15,2401.225 Q1273.125,2399.475 1274.8,2398.55 Q1276.5,2397.6 1278.4,2397.6 Q1279.55,2397.6 1280.55,2398 Q1281.55,2398.4 1282.4,2399.2 Z " fill="#000000"/><text fill="#000000" font-family="sans-serif" font-size="19.2" lengthAdjust="spacing" textLength="110.4" x="1301.6" y="2412.6563">Receptionist</text><line style="stroke:#A80036;stroke-width:2.4000000000000004;" x1="1256.8" x2="1415.2" y1="2430.4" y2="2430.4"/><text fill="#000000" font-family="sans-serif" font-size="17.6" lengthAdjust="spacing" textLength="48" x="1264.8" y="2455.0703">-name</text><text fill="#000000" font-family="sans-serif" font-size="17.6" lengthAdjust="spacing" textLength="70.4" x="1264.8" y="2477.2078">-address</text><text fill="#000000" font-family="sans-serif" font-size="17.6" lengthAdjust="spacing" textLength="113.6" x="1264.8" y="2499.3453">-phoneNumber</text><text fill="#000000" font-family="sans-serif" font-size="17.6" lengthAdjust="spacing" textLength="94.4" x="1264.8" y="2521.4828">-employeeID</text><text fill="#000000" font-family="sans-serif" font-size="17.6" lengthAdjust="spacing" textLength="65.6" x="1264.8" y="2543.6203">-orgRole</text><text fill="#000000" font-family="sans-serif" font-size="17.6" lengthAdjust="spacing" textLength="44.8" x="1264.8" y="2565.7578">-email</text><text fill="#000000" font-family="sans-serif" font-size="17.6" lengthAdjust="spacing" textLength="80" x="1264.8" y="2587.8953">-SOCcode</text><line style="stroke:#A80036;stroke-width:2.4000000000000004;" x1="1256.8" x2="1415.2" y1="2598.1625" y2="2598.1625"/><!--MD5=[ed6624c6556d5e7b1bd23032162d20b7]
class Client--><rect codeLine="150" fill="#FEFECE" filter="url(#f1fshvedn6cyja)" height="253.9" id="Client" style="stroke:#A80036;stroke-width:2.4000000000000004;" width="132.8" x="1314.4" y="1440"/><ellipse cx="1352.08" cy="1465.6" fill="#ADD1B2" rx="17.6" ry="17.6" style="stroke:#A80036;stroke-width:1.6000000000000003;"/><path d="M1355.28,1460 Q1355.605,1459.2 1355.98,1458.8 Q1356.355,1458.4 1356.78,1458.4 Q1357.53,1458.4 1358.005,1458.85 Q1358.48,1459.3 1358.48,1460.35 L1358.48,1462.85 Q1358.48,1463.9 1358.03,1464.35 Q1357.58,1464.8 1356.88,1464.8 Q1356.255,1464.8 1355.855,1464.525 Q1355.455,1464.25 1355.28,1463.525 Q1355.205,1463.025 1354.93,1462.75 Q1354.43,1462.225 1353.53,1461.925 Q1352.63,1461.6 1351.73,1461.6 Q1350.605,1461.6 1349.655,1462.05 Q1348.73,1462.5 1348.005,1463.5 Q1347.28,1464.5 1347.28,1465.875 L1347.28,1467.35 Q1347.28,1469 1348.63,1470.1 Q1349.98,1471.2 1352.38,1471.2 Q1353.805,1471.2 1354.805,1470.875 Q1355.38,1470.7 1356.03,1470.125 Q1356.455,1469.8 1356.68,1469.7 Q1356.905,1469.6 1357.18,1469.6 Q1357.705,1469.6 1358.08,1470.025 Q1358.48,1470.425 1358.48,1471 Q1358.48,1471.55 1357.93,1472.2 Q1357.13,1473.15 1355.855,1473.675 Q1354.18,1474.4 1352.13,1474.4 Q1349.73,1474.4 1347.805,1473.45 Q1346.255,1472.7 1345.155,1471.075 Q1344.08,1469.45 1344.08,1467.525 L1344.08,1465.775 Q1344.08,1463.775 1345.03,1462.025 Q1346.005,1460.275 1347.68,1459.35 Q1349.38,1458.4 1351.28,1458.4 Q1352.43,1458.4 1353.43,1458.8 Q1354.43,1459.2 1355.28,1460 Z " fill="#000000"/><text fill="#000000" font-family="sans-serif" font-size="19.2" lengthAdjust="spacing" textLength="51.2" x="1377.52" y="1473.4563">Client</text><line style="stroke:#A80036;stroke-width:2.4000000000000004;" x1="1316" x2="1445.6" y1="1491.2" y2="1491.2"/><text fill="#000000" font-family="sans-serif" font-size="17.6" lengthAdjust="spacing" textLength="70.4" x="1324" y="1515.8703">-citizenID</text><text fill="#000000" font-family="sans-serif" font-size="17.6" lengthAdjust="spacing" textLength="49.6" x="1324" y="1538.0078">-nhsID</text><text fill="#000000" font-family="sans-serif" font-size="17.6" lengthAdjust="spacing" textLength="75.2" x="1324" y="1560.1453">-birthDate</text><text fill="#000000" font-family="sans-serif" font-size="17.6" lengthAdjust="spacing" textLength="35.2" x="1324" y="1582.2828">-sex</text><text fill="#000000" font-family="sans-serif" font-size="17.6" lengthAdjust="spacing" textLength="30.4" x="1324" y="1604.4203">-TIN</text><text fill="#000000" font-family="sans-serif" font-size="17.6" lengthAdjust="spacing" textLength="113.6" x="1324" y="1626.5578">-phoneNumber</text><text fill="#000000" font-family="sans-serif" font-size="17.6" lengthAdjust="spacing" textLength="44.8" x="1324" y="1648.6953">-email</text><text fill="#000000" font-family="sans-serif" font-size="17.6" lengthAdjust="spacing" textLength="48" x="1324" y="1670.8328">-name</text><line style="stroke:#A80036;stroke-width:2.4000000000000004;" x1="1316" x2="1445.6" y1="1681.1" y2="1681.1"/><!--MD5=[a999c1570c205a2156b04a15307bc1ff]
class LabOrder--><rect codeLine="161" fill="#FEFECE" filter="url(#f1fshvedn6cyja)" height="76.8" id="LabOrder" style="stroke:#A80036;stroke-width:2.4000000000000004;" width="134.4" x="1329.6" y="1194.4"/><ellipse cx="1353.6" cy="1220" fill="#ADD1B2" rx="17.6" ry="17.6" style="stroke:#A80036;stroke-width:1.6000000000000003;"/><path d="M1356.8,1214.4 Q1357.125,1213.6 1357.5,1213.2 Q1357.875,1212.8 1358.3,1212.8 Q1359.05,1212.8 1359.525,1213.25 Q1360,1213.7 1360,1214.75 L1360,1217.25 Q1360,1218.3 1359.55,1218.75 Q1359.1,1219.2 1358.4,1219.2 Q1357.775,1219.2 1357.375,1218.925 Q1356.975,1218.65 1356.8,1217.925 Q1356.725,1217.425 1356.45,1217.15 Q1355.95,1216.625 1355.05,1216.325 Q1354.15,1216 1353.25,1216 Q1352.125,1216 1351.175,1216.45 Q1350.25,1216.9 1349.525,1217.9 Q1348.8,1218.9 1348.8,1220.275 L1348.8,1221.75 Q1348.8,1223.4 1350.15,1224.5 Q1351.5,1225.6 1353.9,1225.6 Q1355.325,1225.6 1356.325,1225.275 Q1356.9,1225.1 1357.55,1224.525 Q1357.975,1224.2 1358.2,1224.1 Q1358.425,1224 1358.7,1224 Q1359.225,1224 1359.6,1224.425 Q1360,1224.825 1360,1225.4 Q1360,1225.95 1359.45,1226.6 Q1358.65,1227.55 1357.375,1228.075 Q1355.7,1228.8 1353.65,1228.8 Q1351.25,1228.8 1349.325,1227.85 Q1347.775,1227.1 1346.675,1225.475 Q1345.6,1223.85 1345.6,1221.925 L1345.6,1220.175 Q1345.6,1218.175 1346.55,1216.425 Q1347.525,1214.675 1349.2,1213.75 Q1350.9,1212.8 1352.8,1212.8 Q1353.95,1212.8 1354.95,1213.2 Q1355.95,1213.6 1356.8,1214.4 Z " fill="#000000"/><text fill="#000000" font-family="sans-serif" font-size="19.2" lengthAdjust="spacing" textLength="83.2" x="1376" y="1227.8563">LabOrder</text><line style="stroke:#A80036;stroke-width:2.4000000000000004;" x1="1331.2" x2="1462.4" y1="1245.6" y2="1245.6"/><line style="stroke:#A80036;stroke-width:2.4000000000000004;" x1="1331.2" x2="1462.4" y1="1258.4" y2="1258.4"/><!--MD5=[2741598bdf59a7d7e0d5c97658fd3022]
class Result--><rect codeLine="164" fill="#FEFECE" filter="url(#f1fshvedn6cyja)" height="76.8" id="Result" style="stroke:#A80036;stroke-width:2.4000000000000004;" width="108.8" x="116.8" y="592"/><ellipse cx="140.8" cy="617.6" fill="#ADD1B2" rx="17.6" ry="17.6" style="stroke:#A80036;stroke-width:1.6000000000000003;"/><path d="M144,612 Q144.325,611.2 144.7,610.8 Q145.075,610.4 145.5,610.4 Q146.25,610.4 146.725,610.85 Q147.2,611.3 147.2,612.35 L147.2,614.85 Q147.2,615.9 146.75,616.35 Q146.3,616.8 145.6,616.8 Q144.975,616.8 144.575,616.525 Q144.175,616.25 144,615.525 Q143.925,615.025 143.65,614.75 Q143.15,614.225 142.25,613.925 Q141.35,613.6 140.45,613.6 Q139.325,613.6 138.375,614.05 Q137.45,614.5 136.725,615.5 Q136,616.5 136,617.875 L136,619.35 Q136,621 137.35,622.1 Q138.7,623.2 141.1,623.2 Q142.525,623.2 143.525,622.875 Q144.1,622.7 144.75,622.125 Q145.175,621.8 145.4,621.7 Q145.625,621.6 145.9,621.6 Q146.425,621.6 146.8,622.025 Q147.2,622.425 147.2,623 Q147.2,623.55 146.65,624.2 Q145.85,625.15 144.575,625.675 Q142.9,626.4 140.85,626.4 Q138.45,626.4 136.525,625.45 Q134.975,624.7 133.875,623.075 Q132.8,621.45 132.8,619.525 L132.8,617.775 Q132.8,615.775 133.75,614.025 Q134.725,612.275 136.4,611.35 Q138.1,610.4 140,610.4 Q141.15,610.4 142.15,610.8 Q143.15,611.2 144,612 Z " fill="#000000"/><text fill="#000000" font-family="sans-serif" font-size="19.2" lengthAdjust="spacing" textLength="57.6" x="163.2" y="625.4563">Result</text><line style="stroke:#A80036;stroke-width:2.4000000000000004;" x1="118.4" x2="224" y1="643.2" y2="643.2"/><line style="stroke:#A80036;stroke-width:2.4000000000000004;" x1="118.4" x2="224" y1="656" y2="656"/><!--MD5=[f00dbe8c0302c6aec2cb26b3c659c8fc]
class Report--><rect codeLine="167" fill="#FEFECE" filter="url(#f1fshvedn6cyja)" height="76.8" id="Report" style="stroke:#A80036;stroke-width:2.4000000000000004;" width="110.4" x="116" y="11.2"/><ellipse cx="140" cy="36.8" fill="#ADD1B2" rx="17.6" ry="17.6" style="stroke:#A80036;stroke-width:1.6000000000000003;"/><path d="M143.2,31.2 Q143.525,30.4 143.9,30 Q144.275,29.6 144.7,29.6 Q145.45,29.6 145.925,30.05 Q146.4,30.5 146.4,31.55 L146.4,34.05 Q146.4,35.1 145.95,35.55 Q145.5,36 144.8,36 Q144.175,36 143.775,35.725 Q143.375,35.45 143.2,34.725 Q143.125,34.225 142.85,33.95 Q142.35,33.425 141.45,33.125 Q140.55,32.8 139.65,32.8 Q138.525,32.8 137.575,33.25 Q136.65,33.7 135.925,34.7 Q135.2,35.7 135.2,37.075 L135.2,38.55 Q135.2,40.2 136.55,41.3 Q137.9,42.4 140.3,42.4 Q141.725,42.4 142.725,42.075 Q143.3,41.9 143.95,41.325 Q144.375,41 144.6,40.9 Q144.825,40.8 145.1,40.8 Q145.625,40.8 146,41.225 Q146.4,41.625 146.4,42.2 Q146.4,42.75 145.85,43.4 Q145.05,44.35 143.775,44.875 Q142.1,45.6 140.05,45.6 Q137.65,45.6 135.725,44.65 Q134.175,43.9 133.075,42.275 Q132,40.65 132,38.725 L132,36.975 Q132,34.975 132.95,33.225 Q133.925,31.475 135.6,30.55 Q137.3,29.6 139.2,29.6 Q140.35,29.6 141.35,30 Q142.35,30.4 143.2,31.2 Z " fill="#000000"/><text fill="#000000" font-family="sans-serif" font-size="19.2" lengthAdjust="spacing" textLength="59.2" x="162.4" y="44.6563">Report</text><line style="stroke:#A80036;stroke-width:2.4000000000000004;" x1="117.6" x2="224.8" y1="62.4" y2="62.4"/><line style="stroke:#A80036;stroke-width:2.4000000000000004;" x1="117.6" x2="224.8" y1="75.2" y2="75.2"/><!--MD5=[a96594a83e2ecdc78cbf17c2ddf01934]
class Category--><rect codeLine="170" fill="#FEFECE" filter="url(#f1fshvedn6cyja)" height="143.2125" id="Category" style="stroke:#A80036;stroke-width:2.4000000000000004;" width="129.6" x="880.8" y="1160.8"/><ellipse cx="904.8" cy="1186.4" fill="#ADD1B2" rx="17.6" ry="17.6" style="stroke:#A80036;stroke-width:1.6000000000000003;"/><path d="M908,1180.8 Q908.325,1180 908.7,1179.6 Q909.075,1179.2 909.5,1179.2 Q910.25,1179.2 910.725,1179.65 Q911.2,1180.1 911.2,1181.15 L911.2,1183.65 Q911.2,1184.7 910.75,1185.15 Q910.3,1185.6 909.6,1185.6 Q908.975,1185.6 908.575,1185.325 Q908.175,1185.05 908,1184.325 Q907.925,1183.825 907.65,1183.55 Q907.15,1183.025 906.25,1182.725 Q905.35,1182.4 904.45,1182.4 Q903.325,1182.4 902.375,1182.85 Q901.45,1183.3 900.725,1184.3 Q900,1185.3 900,1186.675 L900,1188.15 Q900,1189.8 901.35,1190.9 Q902.7,1192 905.1,1192 Q906.525,1192 907.525,1191.675 Q908.1,1191.5 908.75,1190.925 Q909.175,1190.6 909.4,1190.5 Q909.625,1190.4 909.9,1190.4 Q910.425,1190.4 910.8,1190.825 Q911.2,1191.225 911.2,1191.8 Q911.2,1192.35 910.65,1193 Q909.85,1193.95 908.575,1194.475 Q906.9,1195.2 904.85,1195.2 Q902.45,1195.2 900.525,1194.25 Q898.975,1193.5 897.875,1191.875 Q896.8,1190.25 896.8,1188.325 L896.8,1186.575 Q896.8,1184.575 897.75,1182.825 Q898.725,1181.075 900.4,1180.15 Q902.1,1179.2 904,1179.2 Q905.15,1179.2 906.15,1179.6 Q907.15,1180 908,1180.8 Z " fill="#000000"/><text fill="#000000" font-family="sans-serif" font-size="19.2" lengthAdjust="spacing" textLength="78.4" x="927.2" y="1194.2563">Category</text><line style="stroke:#A80036;stroke-width:2.4000000000000004;" x1="882.4" x2="1008.8" y1="1212" y2="1212"/><text fill="#000000" font-family="sans-serif" font-size="17.6" lengthAdjust="spacing" textLength="44.8" x="890.4" y="1236.6703">-code</text><text fill="#000000" font-family="sans-serif" font-size="17.6" lengthAdjust="spacing" textLength="91.2" x="890.4" y="1258.8078">-description</text><text fill="#000000" font-family="sans-serif" font-size="17.6" lengthAdjust="spacing" textLength="49.6" x="890.4" y="1280.9453">-nhsID</text><line style="stroke:#A80036;stroke-width:2.4000000000000004;" x1="882.4" x2="1008.8" y1="1291.2125" y2="1291.2125"/><!--MD5=[1f6362a5c8f21d8d6a0fce68f3a92a4e]
class Parameter--><rect codeLine="176" fill="#FEFECE" filter="url(#f1fshvedn6cyja)" height="76.8" id="Parameter" style="stroke:#A80036;stroke-width:2.4000000000000004;" width="144" x="785.6" y="1528.8"/><ellipse cx="809.6" cy="1554.4" fill="#ADD1B2" rx="17.6" ry="17.6" style="stroke:#A80036;stroke-width:1.6000000000000003;"/><path d="M812.8,1548.8 Q813.125,1548 813.5,1547.6 Q813.875,1547.2 814.3,1547.2 Q815.05,1547.2 815.525,1547.65 Q816,1548.1 816,1549.15 L816,1551.65 Q816,1552.7 815.55,1553.15 Q815.1,1553.6 814.4,1553.6 Q813.775,1553.6 813.375,1553.325 Q812.975,1553.05 812.8,1552.325 Q812.725,1551.825 812.45,1551.55 Q811.95,1551.025 811.05,1550.725 Q810.15,1550.4 809.25,1550.4 Q808.125,1550.4 807.175,1550.85 Q806.25,1551.3 805.525,1552.3 Q804.8,1553.3 804.8,1554.675 L804.8,1556.15 Q804.8,1557.8 806.15,1558.9 Q807.5,1560 809.9,1560 Q811.325,1560 812.325,1559.675 Q812.9,1559.5 813.55,1558.925 Q813.975,1558.6 814.2,1558.5 Q814.425,1558.4 814.7,1558.4 Q815.225,1558.4 815.6,1558.825 Q816,1559.225 816,1559.8 Q816,1560.35 815.45,1561 Q814.65,1561.95 813.375,1562.475 Q811.7,1563.2 809.65,1563.2 Q807.25,1563.2 805.325,1562.25 Q803.775,1561.5 802.675,1559.875 Q801.6,1558.25 801.6,1556.325 L801.6,1554.575 Q801.6,1552.575 802.55,1550.825 Q803.525,1549.075 805.2,1548.15 Q806.9,1547.2 808.8,1547.2 Q809.95,1547.2 810.95,1547.6 Q811.95,1548 812.8,1548.8 Z " fill="#000000"/><text fill="#000000" font-family="sans-serif" font-size="19.2" lengthAdjust="spacing" textLength="92.8" x="832" y="1562.2563">Parameter</text><line style="stroke:#A80036;stroke-width:2.4000000000000004;" x1="787.2" x2="928" y1="1580" y2="1580"/><line style="stroke:#A80036;stroke-width:2.4000000000000004;" x1="787.2" x2="928" y1="1592.8" y2="1592.8"/><!--MD5=[aeb3272166074d8737a70b61b1e71682]
class TestType--><rect codeLine="179" fill="#FEFECE" filter="url(#f1fshvedn6cyja)" height="76.8" id="TestType" style="stroke:#A80036;stroke-width:2.4000000000000004;" width="131.2" x="1227.2" y="592"/><ellipse cx="1251.2" cy="617.6" fill="#ADD1B2" rx="17.6" ry="17.6" style="stroke:#A80036;stroke-width:1.6000000000000003;"/><path d="M1254.4,612 Q1254.725,611.2 1255.1,610.8 Q1255.475,610.4 1255.9,610.4 Q1256.65,610.4 1257.125,610.85 Q1257.6,611.3 1257.6,612.35 L1257.6,614.85 Q1257.6,615.9 1257.15,616.35 Q1256.7,616.8 1256,616.8 Q1255.375,616.8 1254.975,616.525 Q1254.575,616.25 1254.4,615.525 Q1254.325,615.025 1254.05,614.75 Q1253.55,614.225 1252.65,613.925 Q1251.75,613.6 1250.85,613.6 Q1249.725,613.6 1248.775,614.05 Q1247.85,614.5 1247.125,615.5 Q1246.4,616.5 1246.4,617.875 L1246.4,619.35 Q1246.4,621 1247.75,622.1 Q1249.1,623.2 1251.5,623.2 Q1252.925,623.2 1253.925,622.875 Q1254.5,622.7 1255.15,622.125 Q1255.575,621.8 1255.8,621.7 Q1256.025,621.6 1256.3,621.6 Q1256.825,621.6 1257.2,622.025 Q1257.6,622.425 1257.6,623 Q1257.6,623.55 1257.05,624.2 Q1256.25,625.15 1254.975,625.675 Q1253.3,626.4 1251.25,626.4 Q1248.85,626.4 1246.925,625.45 Q1245.375,624.7 1244.275,623.075 Q1243.2,621.45 1243.2,619.525 L1243.2,617.775 Q1243.2,615.775 1244.15,614.025 Q1245.125,612.275 1246.8,611.35 Q1248.5,610.4 1250.4,610.4 Q1251.55,610.4 1252.55,610.8 Q1253.55,611.2 1254.4,612 Z " fill="#000000"/><text fill="#000000" font-family="sans-serif" font-size="19.2" lengthAdjust="spacing" textLength="80" x="1273.6" y="625.4563">TestType</text><line style="stroke:#A80036;stroke-width:2.4000000000000004;" x1="1228.8" x2="1356.8" y1="643.2" y2="643.2"/><line style="stroke:#A80036;stroke-width:2.4000000000000004;" x1="1228.8" x2="1356.8" y1="656" y2="656"/><!--MD5=[df38be88ccee13e832d6fafd6288a4ca]
class Test--><rect codeLine="182" fill="#FEFECE" filter="url(#f1fshvedn6cyja)" height="231.7625" id="Test" style="stroke:#A80036;stroke-width:2.4000000000000004;" width="230.4" x="953.6" y="1819.2"/><ellipse cx="1042.8" cy="1844.8" fill="#ADD1B2" rx="17.6" ry="17.6" style="stroke:#A80036;stroke-width:1.6000000000000003;"/><path d="M1046,1839.2 Q1046.325,1838.4 1046.7,1838 Q1047.075,1837.6 1047.5,1837.6 Q1048.25,1837.6 1048.725,1838.05 Q1049.2,1838.5 1049.2,1839.55 L1049.2,1842.05 Q1049.2,1843.1 1048.75,1843.55 Q1048.3,1844 1047.6,1844 Q1046.975,1844 1046.575,1843.725 Q1046.175,1843.45 1046,1842.725 Q1045.925,1842.225 1045.65,1841.95 Q1045.15,1841.425 1044.25,1841.125 Q1043.35,1840.8 1042.45,1840.8 Q1041.325,1840.8 1040.375,1841.25 Q1039.45,1841.7 1038.725,1842.7 Q1038,1843.7 1038,1845.075 L1038,1846.55 Q1038,1848.2 1039.35,1849.3 Q1040.7,1850.4 1043.1,1850.4 Q1044.525,1850.4 1045.525,1850.075 Q1046.1,1849.9 1046.75,1849.325 Q1047.175,1849 1047.4,1848.9 Q1047.625,1848.8 1047.9,1848.8 Q1048.425,1848.8 1048.8,1849.225 Q1049.2,1849.625 1049.2,1850.2 Q1049.2,1850.75 1048.65,1851.4 Q1047.85,1852.35 1046.575,1852.875 Q1044.9,1853.6 1042.85,1853.6 Q1040.45,1853.6 1038.525,1852.65 Q1036.975,1851.9 1035.875,1850.275 Q1034.8,1848.65 1034.8,1846.725 L1034.8,1844.975 Q1034.8,1842.975 1035.75,1841.225 Q1036.725,1839.475 1038.4,1838.55 Q1040.1,1837.6 1042,1837.6 Q1043.15,1837.6 1044.15,1838 Q1045.15,1838.4 1046,1839.2 Z " fill="#000000"/><text fill="#000000" font-family="sans-serif" font-size="19.2" lengthAdjust="spacing" textLength="38.4" x="1075.6" y="1852.6563">Test</text><line style="stroke:#A80036;stroke-width:2.4000000000000004;" x1="955.2" x2="1182.4" y1="1870.4" y2="1870.4"/><text fill="#000000" font-family="sans-serif" font-size="17.6" lengthAdjust="spacing" textLength="102.4" x="963.2" y="1895.0703">-internalCode</text><text fill="#000000" font-family="sans-serif" font-size="17.6" lengthAdjust="spacing" textLength="75.2" x="963.2" y="1917.2078">-nhsCode</text><text fill="#000000" font-family="sans-serif" font-size="17.6" lengthAdjust="spacing" textLength="112" x="963.2" y="1939.3453">-collectMethod</text><text fill="#000000" font-family="sans-serif" font-size="17.6" lengthAdjust="spacing" textLength="126.4" x="963.2" y="1961.4828">-collectDateTime</text><text fill="#000000" font-family="sans-serif" font-size="17.6" lengthAdjust="spacing" textLength="211.2" x="963.2" y="1983.6203">-chemicalAnalysisDateTime</text><text fill="#000000" font-family="sans-serif" font-size="17.6" lengthAdjust="spacing" textLength="150.4" x="963.2" y="2005.7578">-diagnosisDateTime</text><text fill="#000000" font-family="sans-serif" font-size="17.6" lengthAdjust="spacing" textLength="148.8" x="963.2" y="2027.8953">-validationDateTime</text><line style="stroke:#A80036;stroke-width:2.4000000000000004;" x1="955.2" x2="1182.4" y1="2038.1625" y2="2038.1625"/><!--MD5=[c6638eb777a57a5231a63766efe5f4db]
class bloodTest--><rect codeLine="192" fill="#FEFECE" filter="url(#f1fshvedn6cyja)" height="143.2125" id="bloodTest" style="stroke:#A80036;stroke-width:2.4000000000000004;" width="139.2" x="986.4" y="1495.2"/><ellipse cx="1010.4" cy="1520.8" fill="#ADD1B2" rx="17.6" ry="17.6" style="stroke:#A80036;stroke-width:1.6000000000000003;"/><path d="M1013.6,1515.2 Q1013.925,1514.4 1014.3,1514 Q1014.675,1513.6 1015.1,1513.6 Q1015.85,1513.6 1016.325,1514.05 Q1016.8,1514.5 1016.8,1515.55 L1016.8,1518.05 Q1016.8,1519.1 1016.35,1519.55 Q1015.9,1520 1015.2,1520 Q1014.575,1520 1014.175,1519.725 Q1013.775,1519.45 1013.6,1518.725 Q1013.525,1518.225 1013.25,1517.95 Q1012.75,1517.425 1011.85,1517.125 Q1010.95,1516.8 1010.05,1516.8 Q1008.925,1516.8 1007.975,1517.25 Q1007.05,1517.7 1006.325,1518.7 Q1005.6,1519.7 1005.6,1521.075 L1005.6,1522.55 Q1005.6,1524.2 1006.95,1525.3 Q1008.3,1526.4 1010.7,1526.4 Q1012.125,1526.4 1013.125,1526.075 Q1013.7,1525.9 1014.35,1525.325 Q1014.775,1525 1015,1524.9 Q1015.225,1524.8 1015.5,1524.8 Q1016.025,1524.8 1016.4,1525.225 Q1016.8,1525.625 1016.8,1526.2 Q1016.8,1526.75 1016.25,1527.4 Q1015.45,1528.35 1014.175,1528.875 Q1012.5,1529.6 1010.45,1529.6 Q1008.05,1529.6 1006.125,1528.65 Q1004.575,1527.9 1003.475,1526.275 Q1002.4,1524.65 1002.4,1522.725 L1002.4,1520.975 Q1002.4,1518.975 1003.35,1517.225 Q1004.325,1515.475 1006,1514.55 Q1007.7,1513.6 1009.6,1513.6 Q1010.75,1513.6 1011.75,1514 Q1012.75,1514.4 1013.6,1515.2 Z " fill="#000000"/><text fill="#000000" font-family="sans-serif" font-size="19.2" lengthAdjust="spacing" textLength="88" x="1032.8" y="1528.6563">bloodTest</text><line style="stroke:#A80036;stroke-width:2.4000000000000004;" x1="988" x2="1124" y1="1546.4" y2="1546.4"/><text fill="#000000" font-family="sans-serif" font-size="17.6" lengthAdjust="spacing" textLength="35.2" x="996" y="1571.0703">-PLT</text><text fill="#000000" font-family="sans-serif" font-size="17.6" lengthAdjust="spacing" textLength="40" x="996" y="1593.2078">-RBC</text><text fill="#000000" font-family="sans-serif" font-size="17.6" lengthAdjust="spacing" textLength="44.8" x="996" y="1615.3453">-WBC</text><line style="stroke:#A80036;stroke-width:2.4000000000000004;" x1="988" x2="1124" y1="1625.6125" y2="1625.6125"/><!--MD5=[5b221ea17cfe5f5afae475fb0acff2d8]
class covidTest--><rect codeLine="198" fill="#FEFECE" filter="url(#f1fshvedn6cyja)" height="98.9375" id="covidTest" style="stroke:#A80036;stroke-width:2.4000000000000004;" width="134.4" x="595.2" y="1517.6"/><ellipse cx="619.2" cy="1543.2" fill="#ADD1B2" rx="17.6" ry="17.6" style="stroke:#A80036;stroke-width:1.6000000000000003;"/><path d="M622.4,1537.6 Q622.725,1536.8 623.1,1536.4 Q623.475,1536 623.9,1536 Q624.65,1536 625.125,1536.45 Q625.6,1536.9 625.6,1537.95 L625.6,1540.45 Q625.6,1541.5 625.15,1541.95 Q624.7,1542.4 624,1542.4 Q623.375,1542.4 622.975,1542.125 Q622.575,1541.85 622.4,1541.125 Q622.325,1540.625 622.05,1540.35 Q621.55,1539.825 620.65,1539.525 Q619.75,1539.2 618.85,1539.2 Q617.725,1539.2 616.775,1539.65 Q615.85,1540.1 615.125,1541.1 Q614.4,1542.1 614.4,1543.475 L614.4,1544.95 Q614.4,1546.6 615.75,1547.7 Q617.1,1548.8 619.5,1548.8 Q620.925,1548.8 621.925,1548.475 Q622.5,1548.3 623.15,1547.725 Q623.575,1547.4 623.8,1547.3 Q624.025,1547.2 624.3,1547.2 Q624.825,1547.2 625.2,1547.625 Q625.6,1548.025 625.6,1548.6 Q625.6,1549.15 625.05,1549.8 Q624.25,1550.75 622.975,1551.275 Q621.3,1552 619.25,1552 Q616.85,1552 614.925,1551.05 Q613.375,1550.3 612.275,1548.675 Q611.2,1547.05 611.2,1545.125 L611.2,1543.375 Q611.2,1541.375 612.15,1539.625 Q613.125,1537.875 614.8,1536.95 Q616.5,1536 618.4,1536 Q619.55,1536 620.55,1536.4 Q621.55,1536.8 622.4,1537.6 Z " fill="#000000"/><text fill="#000000" font-family="sans-serif" font-size="19.2" lengthAdjust="spacing" textLength="83.2" x="641.6" y="1551.0563">covidTest</text><line style="stroke:#A80036;stroke-width:2.4000000000000004;" x1="596.8" x2="728" y1="1568.8" y2="1568.8"/><text fill="#000000" font-family="sans-serif" font-size="17.6" lengthAdjust="spacing" textLength="62.4" x="604.8" y="1593.4703">-isCovid</text><line style="stroke:#A80036;stroke-width:2.4000000000000004;" x1="596.8" x2="728" y1="1603.7375" y2="1603.7375"/><!--MD5=[9681492165142af2a4a3a169d90ee8d4]
class Sample--><rect codeLine="202" fill="#FEFECE" filter="url(#f1fshvedn6cyja)" height="98.9375" id="Sample" style="stroke:#A80036;stroke-width:2.4000000000000004;" width="120" x="317.6" y="1517.6"/><ellipse cx="341.6" cy="1543.2" fill="#ADD1B2" rx="17.6" ry="17.6" style="stroke:#A80036;stroke-width:1.6000000000000003;"/><path d="M344.8,1537.6 Q345.125,1536.8 345.5,1536.4 Q345.875,1536 346.3,1536 Q347.05,1536 347.525,1536.45 Q348,1536.9 348,1537.95 L348,1540.45 Q348,1541.5 347.55,1541.95 Q347.1,1542.4 346.4,1542.4 Q345.775,1542.4 345.375,1542.125 Q344.975,1541.85 344.8,1541.125 Q344.725,1540.625 344.45,1540.35 Q343.95,1539.825 343.05,1539.525 Q342.15,1539.2 341.25,1539.2 Q340.125,1539.2 339.175,1539.65 Q338.25,1540.1 337.525,1541.1 Q336.8,1542.1 336.8,1543.475 L336.8,1544.95 Q336.8,1546.6 338.15,1547.7 Q339.5,1548.8 341.9,1548.8 Q343.325,1548.8 344.325,1548.475 Q344.9,1548.3 345.55,1547.725 Q345.975,1547.4 346.2,1547.3 Q346.425,1547.2 346.7,1547.2 Q347.225,1547.2 347.6,1547.625 Q348,1548.025 348,1548.6 Q348,1549.15 347.45,1549.8 Q346.65,1550.75 345.375,1551.275 Q343.7,1552 341.65,1552 Q339.25,1552 337.325,1551.05 Q335.775,1550.3 334.675,1548.675 Q333.6,1547.05 333.6,1545.125 L333.6,1543.375 Q333.6,1541.375 334.55,1539.625 Q335.525,1537.875 337.2,1536.95 Q338.9,1536 340.8,1536 Q341.95,1536 342.95,1536.4 Q343.95,1536.8 344.8,1537.6 Z " fill="#000000"/><text fill="#000000" font-family="sans-serif" font-size="19.2" lengthAdjust="spacing" textLength="68.8" x="364" y="1551.0563">Sample</text><line style="stroke:#A80036;stroke-width:2.4000000000000004;" x1="319.2" x2="436" y1="1568.8" y2="1568.8"/><text fill="#000000" font-family="sans-serif" font-size="17.6" lengthAdjust="spacing" textLength="70.4" x="327.2" y="1593.4703">-barcode</text><line style="stroke:#A80036;stroke-width:2.4000000000000004;" x1="319.2" x2="436" y1="1603.7375" y2="1603.7375"/><!--MD5=[de3aa179ee7f21b344f648244b25a961]
link ChemicalLaboratory to Company--><path codeLine="23" d="M319.216,1315.84 C278.704,1380.368 232,1474.528 232,1565.6 C232,1565.6 232,1565.6 232,2831.2 C232,2973.12 723.152,3051.84 907.344,3076.368 " fill="none" id="ChemicalLaboratory-Company" style="stroke:#A80036;stroke-width:1.6000000000000003;"/><polygon fill="#000000" points="237.4652,2207.8934,237.5907,2223.1098,246.5107,2220.13,237.4652,2207.8934" style="stroke:#000000;stroke-width:1.6000000000000003;"/><text fill="#000000" font-family="sans-serif" font-size="20.8" lengthAdjust="spacing" textLength="48" x="254.4" y="2223.9922">owns</text><text fill="#000000" font-family="sans-serif" font-size="20.8" lengthAdjust="spacing" textLength="11.2" x="299.4182" y="1350.3115">1</text><text fill="#000000" font-family="sans-serif" font-size="20.8" lengthAdjust="spacing" textLength="11.2" x="883.8454" y="3068.6252">1</text><!--MD5=[47855ee4dabeea37c5949a17ed9e3a41]
link ChemicalLaboratory to Sample--><path codeLine="25" d="M377.6,1315.424 C377.6,1378.624 377.6,1464.272 377.6,1517.2 " fill="none" id="ChemicalLaboratory-Sample" style="stroke:#A80036;stroke-width:1.6000000000000003;"/><polygon fill="#000000" points="385.6,1369.8813,380.8977,1384.3534,390.3023,1384.3534,385.6,1369.8813" style="stroke:#000000;stroke-width:1.6000000000000003;"/><text fill="#000000" font-family="sans-serif" font-size="20.8" lengthAdjust="spacing" textLength="62.4" x="400" y="1386.3922">is sent</text><text fill="#000000" font-family="sans-serif" font-size="20.8" lengthAdjust="spacing" textLength="11.2" x="365.6125" y="1350.4361">1</text><text fill="#000000" font-family="sans-serif" font-size="20.8" lengthAdjust="spacing" textLength="8" x="368.775" y="1500.3248">*</text><!--MD5=[fdfe1f7a1d4f9a6f0814f21c5f7b0d38]
link ClinicalAnalysisLaboratory to Company--><path codeLine="27" d="M1069.648,2923.472 C1044.656,2966.528 1016.32,3015.328 997.44,3047.872 " fill="none" id="ClinicalAnalysisLaboratory-Company" style="stroke:#A80036;stroke-width:1.6000000000000003;"/><polygon fill="#000000" points="1052.0161,2978.9624,1040.6841,2989.1182,1048.8178,2993.8393,1052.0161,2978.9624" style="stroke:#000000;stroke-width:1.6000000000000003;"/><text fill="#000000" font-family="sans-serif" font-size="20.8" lengthAdjust="spacing" textLength="48" x="1062.4" y="2994.3922">owns</text><text fill="#000000" font-family="sans-serif" font-size="20.8" lengthAdjust="spacing" textLength="8" x="1054.6339" y="2958.0816">*</text><text fill="#000000" font-family="sans-serif" font-size="20.8" lengthAdjust="spacing" textLength="11.2" x="990.299" y="3030.7835">1</text><!--MD5=[7d17329589c8a1a28e6f8826215bde21]
link Administrator to Category--><path codeLine="29" d="M976.4,1025.824 C969.648,1070.832 962.112,1121.072 956.192,1160.592 " fill="none" id="Administrator-Category" style="stroke:#A80036;stroke-width:1.6000000000000003;"/><polygon fill="#000000" points="977.1863,1080.3697,970.39,1093.9845,979.6905,1095.3791,977.1863,1080.3697" style="stroke:#000000;stroke-width:1.6000000000000003;"/><text fill="#000000" font-family="sans-serif" font-size="20.8" lengthAdjust="spacing" textLength="97.6" x="990.4" y="1096.7922">created by</text><text fill="#000000" font-family="sans-serif" font-size="20.8" lengthAdjust="spacing" textLength="11.2" x="963.0269" y="1059.7519">1</text><text fill="#000000" font-family="sans-serif" font-size="20.8" lengthAdjust="spacing" textLength="8" x="949.2014" y="1143.6707">*</text><!--MD5=[49f9c994ab9013da19f25c37bbd596b3]
link SpecialistDoctor to Result--><path codeLine="31" d="M171.2,467.568 C171.2,512.48 171.2,559.728 171.2,591.392 " fill="none" id="SpecialistDoctor-Result" style="stroke:#A80036;stroke-width:1.6000000000000003;"/><polygon fill="#000000" points="179.2,521.8813,174.4977,536.3534,183.9023,536.3534,179.2,521.8813" style="stroke:#000000;stroke-width:1.6000000000000003;"/><text fill="#000000" font-family="sans-serif" font-size="20.8" lengthAdjust="spacing" textLength="112" x="193.6" y="538.3922">analyzed by</text><text fill="#000000" font-family="sans-serif" font-size="20.8" lengthAdjust="spacing" textLength="11.2" x="159.5188" y="501.2687">1</text><text fill="#000000" font-family="sans-serif" font-size="20.8" lengthAdjust="spacing" textLength="11.2" x="158.635" y="574.8245">1</text><!--MD5=[c3a86c626b5b742f72786125539e9227]
link ClinicalChemistryTechnologist to ChemicalLaboratory--><path codeLine="33" d="M245.136,1025.824 C271.616,1066.896 300.912,1112.304 325.2,1149.968 " fill="none" id="ClinicalChemistryTechnologist-ChemicalLaboratory" style="stroke:#A80036;stroke-width:1.6000000000000003;"/><polygon fill="#000000" points="305.1359,1095.0043,301.2439,1080.2936,293.3404,1085.3907,305.1359,1095.0043" style="stroke:#000000;stroke-width:1.6000000000000003;"/><text fill="#000000" font-family="sans-serif" font-size="20.8" lengthAdjust="spacing" textLength="83.2" x="315.2" y="1096.7922">works for</text><text fill="#000000" font-family="sans-serif" font-size="20.8" lengthAdjust="spacing" textLength="8" x="243.8018" y="1059.7519">*</text><text fill="#000000" font-family="sans-serif" font-size="20.8" lengthAdjust="spacing" textLength="11.2" x="306.2063" y="1133.1105">1</text><!--MD5=[98994e1502641fa381021dffe882d56a]
link ClinicalChemistryTechnologist to Sample--><path codeLine="35" d="M116.416,1025.664 C84.592,1108.992 58.096,1222.96 99.2,1315.2 C143.648,1414.96 249.648,1491.616 317.28,1532.544 " fill="none" id="ClinicalChemistryTechnologist-Sample" style="stroke:#A80036;stroke-width:1.6000000000000003;"/><polygon fill="#000000" points="104.2528,1225.6439,105.2128,1240.8305,113.9559,1237.3658,104.2528,1225.6439" style="stroke:#000000;stroke-width:1.6000000000000003;"/><text fill="#000000" font-family="sans-serif" font-size="20.8" lengthAdjust="spacing" textLength="112" x="121.6" y="1241.5922">analyzed by</text><text fill="#000000" font-family="sans-serif" font-size="20.8" lengthAdjust="spacing" textLength="8" x="102.8132" y="1059.5767">*</text><text fill="#000000" font-family="sans-serif" font-size="20.8" lengthAdjust="spacing" textLength="32" x="272.6395" y="1520.7446">1..*</text><!--MD5=[738f0445d4a0804ca0738b44323ae22b]
link MedicalLabTechnician to ClinicalAnalysisLaboratory--><path codeLine="37" d="M570.768,2331.472 C623.184,2435.744 712.48,2588.144 827.2,2688 C871.792,2726.816 929.008,2757.2 981.232,2779.6 " fill="none" id="MedicalLabTechnician-ClinicalAnalysisLaboratory" style="stroke:#A80036;stroke-width:1.6000000000000003;"/><polygon fill="#000000" points="763.8035,2501.3806,757.496,2487.5325,750.5609,2493.8847,763.8035,2501.3806" style="stroke:#000000;stroke-width:1.6000000000000003;"/><text fill="#000000" font-family="sans-serif" font-size="20.8" lengthAdjust="spacing" textLength="83.2" x="772.8" y="2503.9922">works for</text><text fill="#000000" font-family="sans-serif" font-size="20.8" lengthAdjust="spacing" textLength="32" x="542.2343" y="2365.4045">1..*</text><text fill="#000000" font-family="sans-serif" font-size="20.8" lengthAdjust="spacing" textLength="8" x="960.6879" y="2770.2071">*</text><!--MD5=[6cd0a3af2322bf46f6c633408da71c74]
link Receptionist to ClinicalAnalysisLaboratory--><path codeLine="39" d="M1262.464,2611.248 C1236.272,2652 1207.136,2697.344 1182.32,2735.984 " fill="none" id="Receptionist-ClinicalAnalysisLaboratory" style="stroke:#A80036;stroke-width:1.6000000000000003;"/><polygon fill="#000000" points="1232.4756,2680.6117,1244.2546,2670.978,1236.3424,2665.8943,1232.4756,2680.6117" style="stroke:#000000;stroke-width:1.6000000000000003;"/><text fill="#000000" font-family="sans-serif" font-size="20.8" lengthAdjust="spacing" textLength="83.2" x="1251.2" y="2682.3922">works for</text><text fill="#000000" font-family="sans-serif" font-size="20.8" lengthAdjust="spacing" textLength="32" x="1221.9301" y="2645.1591">1..*</text><text fill="#000000" font-family="sans-serif" font-size="20.8" lengthAdjust="spacing" textLength="8" x="1181.3823" y="2718.3593">*</text><!--MD5=[502b51bc079239060389dab43b7d3470]
link Client to Test--><path codeLine="41" d="M1314.256,1646.608 C1271.296,1696.832 1214.688,1763.024 1166.656,1819.184 " fill="none" id="Client-Test" style="stroke:#A80036;stroke-width:1.6000000000000003;"/><polygon fill="#000000" points="1237.1998,1751.0016,1224.2198,1758.9434,1231.3668,1765.0562,1237.1998,1751.0016" style="stroke:#000000;stroke-width:1.6000000000000003;"/><text fill="#000000" font-family="sans-serif" font-size="20.8" lengthAdjust="spacing" textLength="120" x="1246.4" y="1765.5922">requested by</text><text fill="#000000" font-family="sans-serif" font-size="20.8" lengthAdjust="spacing" textLength="11.2" x="1290.2054" y="1654.5594">1</text><text fill="#000000" font-family="sans-serif" font-size="20.8" lengthAdjust="spacing" textLength="8" x="1168.3349" y="1801.9333">*</text><!--MD5=[7048eb257bae2750d747ca61a113ed73]
link Client to Receptionist--><path codeLine="43" d="M1382.016,1694.608 C1381.904,1719.968 1381.568,1746.432 1380.8,1771.2 C1374.144,1985.968 1356.4,2236.144 1345.344,2378.592 " fill="none" id="Client-Receptionist" style="stroke:#A80036;stroke-width:1.6000000000000003;"/><polygon fill="#000000" points="1386.0283,1927.4927,1380.558,1941.6924,1389.949,1942.1959,1386.0283,1927.4927" style="stroke:#000000;stroke-width:1.6000000000000003;"/><text fill="#000000" font-family="sans-serif" font-size="20.8" lengthAdjust="spacing" textLength="80" x="1400" y="1943.9922">registers</text><text fill="#000000" font-family="sans-serif" font-size="20.8" lengthAdjust="spacing" textLength="8" x="1373.7768" y="1728.295">*</text><text fill="#000000" font-family="sans-serif" font-size="20.8" lengthAdjust="spacing" textLength="32" x="1312.6888" y="2361.885">1..*</text><!--MD5=[b097d9d314264888b7dbeddc95343863]
link LabOrder to Client--><path codeLine="45" d="M1389.216,1271.408 C1384.352,1297.056 1378.496,1332.048 1376,1363.2 C1374.016,1387.904 1373.488,1414.352 1373.776,1439.696 " fill="none" id="LabOrder-Client" style="stroke:#A80036;stroke-width:1.6000000000000003;"/><polygon fill="#000000" points="1383.2691,1385.8478,1389.2739,1371.8658,1379.9087,1371.0066,1383.2691,1385.8478" style="stroke:#000000;stroke-width:1.6000000000000003;"/><text fill="#000000" font-family="sans-serif" font-size="20.8" lengthAdjust="spacing" textLength="97.6" x="1398.4" y="1386.3922">brought by</text><text fill="#000000" font-family="sans-serif" font-size="20.8" lengthAdjust="spacing" textLength="11.2" x="1374.8024" y="1305.5994">1</text><text fill="#000000" font-family="sans-serif" font-size="20.8" lengthAdjust="spacing" textLength="8" x="1364.7597" y="1422.8029">*</text><!--MD5=[727b58dfd932e2fbda2a273f174e2308]
link LabOrder to Receptionist--><path codeLine="47" d="M1439.792,1271.44 C1463.696,1294.976 1491.136,1327.632 1504,1363.2 C1556.016,1506.992 1520.64,1900.56 1494.4,2051.2 C1474.352,2166.336 1427.136,2291.136 1389.44,2378.736 " fill="none" id="LabOrder-Receptionist" style="stroke:#A80036;stroke-width:1.6000000000000003;"/><polygon fill="#000000" points="1533.1634,1749.0895,1527.8086,1763.3331,1537.2034,1763.7603,1533.1634,1749.0895" style="stroke:#000000;stroke-width:1.6000000000000003;"/><text fill="#000000" font-family="sans-serif" font-size="20.8" lengthAdjust="spacing" textLength="75.2" x="1547.2" y="1765.5922">receives</text><text fill="#000000" font-family="sans-serif" font-size="20.8" lengthAdjust="spacing" textLength="11.2" x="1437.7063" y="1305.6392">1</text><text fill="#000000" font-family="sans-serif" font-size="20.8" lengthAdjust="spacing" textLength="32" x="1361.301" y="2361.4391">1..*</text><!--MD5=[8a0bab72ab0281f8a9e78a6f98e5652c]
link Result to ClinicalChemistryTechnologist--><path codeLine="49" d="M171.2,669.216 C171.2,701.152 171.2,748.912 171.2,793.344 " fill="none" id="Result-ClinicalChemistryTechnologist" style="stroke:#A80036;stroke-width:1.6000000000000003;"/><polygon fill="#000000" points="179.2,723.4813,174.4977,737.9534,183.9023,737.9534,179.2,723.4813" style="stroke:#000000;stroke-width:1.6000000000000003;"/><text fill="#000000" font-family="sans-serif" font-size="20.8" lengthAdjust="spacing" textLength="80" x="193.6" y="739.9922">registers</text><text fill="#000000" font-family="sans-serif" font-size="20.8" lengthAdjust="spacing" textLength="8" x="162.225" y="703.4581">*</text><text fill="#000000" font-family="sans-serif" font-size="20.8" lengthAdjust="spacing" textLength="32" x="137.55" y="776.0685">1..*</text><!--MD5=[70bf8bae1709092519208a2a3511ecd8]
link Report to SpecialistDoctor--><path codeLine="51" d="M171.2,88.16 C171.2,119.824 171.2,167.328 171.2,212.48 " fill="none" id="Report-SpecialistDoctor" style="stroke:#A80036;stroke-width:1.6000000000000003;"/><polygon fill="#000000" points="179.2,142.6813,174.4977,157.1534,183.9023,157.1534,179.2,142.6813" style="stroke:#000000;stroke-width:1.6000000000000003;"/><text fill="#000000" font-family="sans-serif" font-size="20.8" lengthAdjust="spacing" textLength="80" x="193.6" y="159.1922">registers</text><text fill="#000000" font-family="sans-serif" font-size="20.8" lengthAdjust="spacing" textLength="11.2" x="158.635" y="122.3397">1</text><text fill="#000000" font-family="sans-serif" font-size="20.8" lengthAdjust="spacing" textLength="11.2" x="159.4838" y="195.5854">1</text><!--MD5=[9e2b536d5f14dafa66c4d5113ebdcad2]
link Category to Parameter--><path codeLine="53" d="M926.832,1305.04 C908.656,1373.44 881.808,1474.464 867.472,1528.432 " fill="none" id="Category-Parameter" style="stroke:#A80036;stroke-width:1.6000000000000003;"/><polygon fill="#000000" points="918.8545,1370.1496,910.5933,1382.9287,919.6825,1385.3439,918.8545,1370.1496" style="stroke:#000000;stroke-width:1.6000000000000003;"/><text fill="#000000" font-family="sans-serif" font-size="20.8" lengthAdjust="spacing" textLength="148.8" x="931.2" y="1386.3922">presented under</text><text fill="#000000" font-family="sans-serif" font-size="20.8" lengthAdjust="spacing" textLength="11.2" x="912.3576" y="1338.1501">1</text><text fill="#000000" font-family="sans-serif" font-size="20.8" lengthAdjust="spacing" textLength="8" x="860.9767" y="1511.282">*</text><!--MD5=[4265453a012991a726928e22789b8a83]
link Parameter to Test--><path codeLine="55" d="M842.896,1606.208 C828.688,1648.672 812.976,1718.864 840,1771.2 C864.368,1818.368 909.456,1854.816 953.216,1881.12 " fill="none" id="Parameter-Test" style="stroke:#A80036;stroke-width:1.6000000000000003;"/><polygon fill="#000000" points="845.0206,1749.6567,846.0464,1764.839,854.7744,1761.3366,845.0206,1749.6567" style="stroke:#000000;stroke-width:1.6000000000000003;"/><text fill="#000000" font-family="sans-serif" font-size="20.8" lengthAdjust="spacing" textLength="185.6" x="862.4" y="1765.5922">requests analysis of</text><text fill="#000000" font-family="sans-serif" font-size="20.8" lengthAdjust="spacing" textLength="32" x="803.7957" y="1639.8458">1..*</text><text fill="#000000" font-family="sans-serif" font-size="20.8" lengthAdjust="spacing" textLength="8" x="932.8839" y="1870.2564">*</text><!--MD5=[6d9eb9a083ac0654c8b63743033752d3]
link TestType to Company--><path codeLine="57" d="M1358.608,644.672 C1474.4,671.2 1702.4,744.224 1702.4,908 C1702.4,908 1702.4,908 1702.4,2831.2 C1702.4,2969.792 1225.168,3050.32 1044.336,3075.872 " fill="none" id="TestType-Company" style="stroke:#A80036;stroke-width:1.6000000000000003;"/><polygon fill="#000000" points="1711.4256,1749.1473,1704.9068,1762.8971,1714.2338,1764.1028,1711.4256,1749.1473" style="stroke:#000000;stroke-width:1.6000000000000003;"/><text fill="#000000" font-family="sans-serif" font-size="20.8" lengthAdjust="spacing" textLength="84.8" x="1724.8" y="1765.5922">conducts</text><text fill="#000000" font-family="sans-serif" font-size="20.8" lengthAdjust="spacing" textLength="8" x="1371.0426" y="640.9765">*</text><text fill="#000000" font-family="sans-serif" font-size="20.8" lengthAdjust="spacing" textLength="11.2" x="1056.5817" y="3068.0471">1</text><!--MD5=[c2c6b28b052a3fe86d789b83a09b2815]
link TestType to Test--><path codeLine="59" d="M1274.48,668.928 C1250.432,720.928 1211.2,819.312 1211.2,908 C1211.2,908 1211.2,908 1211.2,1379.2 C1211.2,1535.216 1157.648,1708.384 1116.224,1818.992 " fill="none" id="TestType-Test" style="stroke:#A80036;stroke-width:1.6000000000000003;"/><polygon fill="#000000" points="1220.2906,1225.1559,1213.6593,1238.8519,1222.9761,1240.134,1220.2906,1225.1559" style="stroke:#000000;stroke-width:1.6000000000000003;"/><text fill="#000000" font-family="sans-serif" font-size="20.8" lengthAdjust="spacing" textLength="38.4" x="1233.6" y="1241.5922">is of</text><text fill="#000000" font-family="sans-serif" font-size="20.8" lengthAdjust="spacing" textLength="11.2" x="1257.4495" y="703.0999">1</text><text fill="#000000" font-family="sans-serif" font-size="20.8" lengthAdjust="spacing" textLength="8" x="1112.7021" y="1801.7215">*</text><!--MD5=[0985ee834cc881275852ed47ce1e01f6]
link TestType to Administrator--><path codeLine="61" d="M1226.944,643.84 C1179.936,655.344 1117.984,677.088 1076.8,716.8 C1055.04,737.776 1038.624,765.424 1026.384,793.136 " fill="none" id="TestType-Administrator" style="stroke:#A80036;stroke-width:1.6000000000000003;"/><polygon fill="#000000" points="1091.2172,726.7043,1076.8005,731.5739,1082.4162,739.1178,1091.2172,726.7043" style="stroke:#000000;stroke-width:1.6000000000000003;"/><text fill="#000000" font-family="sans-serif" font-size="20.8" lengthAdjust="spacing" textLength="68.8" x="1099.2" y="739.9922">creates</text><text fill="#000000" font-family="sans-serif" font-size="20.8" lengthAdjust="spacing" textLength="8" x="1206.5009" y="639.9963">*</text><text fill="#000000" font-family="sans-serif" font-size="20.8" lengthAdjust="spacing" textLength="11.2" x="1017.9874" y="775.8391">1</text><!--MD5=[df02e8987f6870a0052669ffdc0b53df]
link TestType to LabOrder--><path codeLine="63" d="M1299.232,669.024 C1317.824,776.192 1371.568,1085.84 1390.288,1193.648 " fill="none" id="TestType-LabOrder" style="stroke:#A80036;stroke-width:1.6000000000000003;"/><polygon fill="#000000" points="1366.6319,901.9991,1364.4738,917.0622,1373.7398,915.4539,1366.6319,901.9991" style="stroke:#000000;stroke-width:1.6000000000000003;"/><text fill="#000000" font-family="sans-serif" font-size="20.8" lengthAdjust="spacing" textLength="78.4" x="1382.4" y="918.3922">contains</text><text fill="#000000" font-family="sans-serif" font-size="20.8" lengthAdjust="spacing" textLength="11.2" x="1288.2348" y="703.2193">1</text><text fill="#000000" font-family="sans-serif" font-size="20.8" lengthAdjust="spacing" textLength="11.2" x="1376.1357" y="1177.0454">1</text><!--MD5=[150ee6e4dbb30ab82336f9e174f6c4ed]
link Test to Company--><path codeLine="65" d="M1047.008,2051.376 C1018.8,2206.064 971.2,2490.608 953.6,2736 C947.648,2818.992 947.872,2840.192 953.6,2923.2 C956.56,2966.144 963.904,3015.072 969.376,3047.728 " fill="none" id="Test-Company" style="stroke:#A80036;stroke-width:1.6000000000000003;"/><polygon fill="#000000" points="967.0214,2665.9054,961.2092,2679.9686,970.5853,2680.6991,967.0214,2665.9054" style="stroke:#000000;stroke-width:1.6000000000000003;"/><text fill="#000000" font-family="sans-serif" font-size="20.8" lengthAdjust="spacing" textLength="80" x="980.8" y="2682.3922">performs</text><text fill="#000000" font-family="sans-serif" font-size="20.8" lengthAdjust="spacing" textLength="8" x="1036.5497" y="2085.2993">*</text><text fill="#000000" font-family="sans-serif" font-size="20.8" lengthAdjust="spacing" textLength="11.2" x="955.0436" y="3030.6026">1</text><!--MD5=[ca29482912e344ebd5dc9db2d1c2ccab]
link Test to ClinicalAnalysisLaboratory--><path codeLine="67" d="M1075.808,2051.488 C1086.704,2230.128 1107.536,2571.328 1117.552,2735.392 " fill="none" id="Test-ClinicalAnalysisLaboratory" style="stroke:#A80036;stroke-width:1.6000000000000003;"/><polygon fill="#000000" points="1116.3126,2487.4961,1112.5008,2502.2278,1121.8879,2501.6549,1116.3126,2487.4961" style="stroke:#000000;stroke-width:1.6000000000000003;"/><text fill="#000000" font-family="sans-serif" font-size="20.8" lengthAdjust="spacing" textLength="80" x="1131.2" y="2503.9922">performs</text><text fill="#000000" font-family="sans-serif" font-size="20.8" lengthAdjust="spacing" textLength="8" x="1068.0947" y="2085.422">*</text><text fill="#000000" font-family="sans-serif" font-size="20.8" lengthAdjust="spacing" textLength="8" x="1108.3762" y="2718.3593">*</text><!--MD5=[10af4306acabee641eea198ac06587b8]
link Test to Receptionist--><path codeLine="69" d="M1106.08,2051.408 C1141.296,2158.592 1190.784,2305.888 1204.8,2331.2 C1218.848,2356.56 1236.928,2381.936 1255.152,2404.832 " fill="none" id="Test-Receptionist" style="stroke:#A80036;stroke-width:1.6000000000000003;"/><polygon fill="#000000" points="1209.6909,2208.1101,1210.9827,2223.2721,1219.648,2219.6171,1209.6909,2208.1101" style="stroke:#000000;stroke-width:1.6000000000000003;"/><text fill="#000000" font-family="sans-serif" font-size="20.8" lengthAdjust="spacing" textLength="80" x="1227.2" y="2223.9922">registers</text><text fill="#000000" font-family="sans-serif" font-size="20.8" lengthAdjust="spacing" textLength="8" x="1101.252" y="2085.3344">*</text><text fill="#000000" font-family="sans-serif" font-size="20.8" lengthAdjust="spacing" textLength="32" x="1210.1381" y="2387.0147">1..*</text><!--MD5=[6d06c14030af8aaf76c7be830a39406f]
link bloodTest to Test--><path codeLine="71" d="M1058.48,1639.568 C1060.272,1690.336 1062.704,1759.84 1064.768,1818.528 " fill="none" id="bloodTest-Test" style="stroke:#A80036;stroke-width:1.6000000000000003;"/><polygon fill="#000000" points="1070.6809,1765.0763,1074.8721,1750.448,1065.4734,1750.7782,1070.6809,1765.0763" style="stroke:#000000;stroke-width:1.6000000000000003;"/><text fill="#000000" font-family="sans-serif" font-size="20.8" lengthAdjust="spacing" textLength="33.6" x="1084.8" y="1765.5922">is a</text><text fill="#000000" font-family="sans-serif" font-size="20.8" lengthAdjust="spacing" textLength="11.2" x="1046.8608" y="1672.6953">1</text><text fill="#000000" font-family="sans-serif" font-size="20.8" lengthAdjust="spacing" textLength="11.2" x="1052.6199" y="1801.8147">1</text><!--MD5=[3710377b1638ea9f516c4603753e4969]
link covidTest to Test--><path codeLine="73" d="M675.952,1616.864 C690.56,1661.424 717.584,1727.28 760,1771.2 C813.44,1826.528 889.856,1866.928 953.296,1893.6 " fill="none" id="covidTest-Test" style="stroke:#A80036;stroke-width:1.6000000000000003;"/><polygon fill="#000000" points="773.6631,1762.7319,766.7399,1749.1811,760.0971,1755.8384,773.6631,1762.7319" style="stroke:#000000;stroke-width:1.6000000000000003;"/><text fill="#000000" font-family="sans-serif" font-size="20.8" lengthAdjust="spacing" textLength="33.6" x="782.4" y="1765.5922">is a</text><text fill="#000000" font-family="sans-serif" font-size="20.8" lengthAdjust="spacing" textLength="11.2" x="666.3176" y="1650.835">1</text><text fill="#000000" font-family="sans-serif" font-size="20.8" lengthAdjust="spacing" textLength="11.2" x="929.6072" y="1912.2634">1</text><!--MD5=[1ae83efc6d1967ce5bc17dfe294d00c2]
link Sample to Test--><path codeLine="75" d="M427.008,1617.2 C474.912,1662.016 551.296,1728.048 627.2,1771.2 C731.6,1830.544 861.712,1875.28 953.584,1902.624 " fill="none" id="Sample-Test" style="stroke:#A80036;stroke-width:1.6000000000000003;"/><polygon fill="#000000" points="628.1668,1753.269,638.6492,1764.2995,643.1308,1756.0314,628.1668,1753.269" style="stroke:#000000;stroke-width:1.6000000000000003;"/><text fill="#000000" font-family="sans-serif" font-size="20.8" lengthAdjust="spacing" textLength="72" x="649.6" y="1765.5922">collects</text><text fill="#000000" font-family="sans-serif" font-size="20.8" lengthAdjust="spacing" textLength="8" x="427.6639" y="1650.8421">*</text><text fill="#000000" font-family="sans-serif" font-size="20.8" lengthAdjust="spacing" textLength="11.2" x="929.3256" y="1921.6125">1</text><!--MD5=[cb5e86f6614a99551e1d9ce6f0ae5849]
link Sample to MedicalLabTechnician--><path codeLine="77" d="M388.176,1617.264 C410.336,1718.752 462.144,1956 493.328,2098.768 " fill="none" id="Sample-MedicalLabTechnician" style="stroke:#A80036;stroke-width:1.6000000000000003;"/><polygon fill="#000000" points="427.0932,1749.2655,425.5868,1764.4076,434.7749,1762.4011,427.0932,1749.2655" style="stroke:#000000;stroke-width:1.6000000000000003;"/><text fill="#000000" font-family="sans-serif" font-size="20.8" lengthAdjust="spacing" textLength="80" x="443.2" y="1765.5922">registers</text><text fill="#000000" font-family="sans-serif" font-size="20.8" lengthAdjust="spacing" textLength="32" x="355.1421" y="1650.9183">1..*</text><text fill="#000000" font-family="sans-serif" font-size="20.8" lengthAdjust="spacing" textLength="32" x="457.0925" y="2081.4744">1..*</text><!--MD5=[1b899e7a4d178b88f2703c6f729f50b9]
@startuml

class Company
class ChemicalLaboratory
class ClinicalAnalysisLaboratory
class Administrator
class SpecialistDoctor
class ClinicalChemistryTechnologist
class MedicalLabTechnician
class Receptionist
class Client
class LabOrder
class Result
class Report
class Category
class Parameter
class TestType
class Test
class bloodTest
class covidTest
class Sample


ChemicalLaboratory "1" - - "1" Company : < owns

ChemicalLaboratory "1" - - "*" Sample : < is sent

ClinicalAnalysisLaboratory "*" - - "1" Company : < owns

Administrator "1" - - "*" Category : < created by

SpecialistDoctor "1" - - "1" Result : < analyzed by

ClinicalChemistryTechnologist "*" - - "1" ChemicalLaboratory : > works for

ClinicalChemistryTechnologist "*" - - "1..*" Sample : < analyzed by

MedicalLabTechnician "1..*" - - "*" ClinicalAnalysisLaboratory : > works for

Receptionist "1..*" - - "*" ClinicalAnalysisLaboratory : > works for

Client "1" - - "*" Test : < requested by

Client "*" - - "1..*" Receptionist : < registers

LabOrder "1" - - "*" Client : > brought by

LabOrder "1" - - "1..*" Receptionist : < receives

Result "*" - - "1..*" ClinicalChemistryTechnologist : < registers

Report "1" - - "1" SpecialistDoctor : < registers

Category "1" - - "*" Parameter : < presented under

Parameter "1..*" - - "*" Test : < requests analysis of

TestType "*" - - "1" Company : < conducts

TestType "1" - - "*" Test: < is of

TestType "*" - - "1" Administrator : < creates

TestType "1" - - "1" LabOrder : < contains

Test "*" - - "1" Company : < performs

Test "*" - - "*" ClinicalAnalysisLaboratory : < performs

Test "*" - - "1..*" Receptionist : < registers

bloodTest "1" - - "1" Test : > is a

covidTest "1" - - "1" Test : > is a

Sample "*" - - "1" Test : < collects

Sample "1..*" - - "1..*" MedicalLabTechnician : < registers

skinparam classAttributeIconSize 0

class Company{
}

class ChemicalLaboratory{
-name
-address
-phoneNumber
-TIN
}

class ClinicalAnalysisLaboratory{
-name
-address
-phoneNumber
-labID
-TIN
}

class Administrator{
-name
-address
-phoneNumber
-employeeID
-orgRole
-email
-SOCcode
}

class SpecialistDoctor{
-name
-address
-phoneNumber
-employeeID
-orgRole
-email
-SOCcode
-doctorIndex
}

class ClinicalChemistryTechnologist{
-name
-address
-phoneNumber
-employeeID
-orgRole
-email
-SOCcode
}

class MedicalLabTechnician{
-name
-address
-phoneNumber
-employeeID
-orgRole
-email
-SOCcode
}

class Receptionist{
-name
-address
-phoneNumber
-employeeID
-orgRole
-email
-SOCcode
}

class Client{
-citizenID
-nhsID
-birthDate
-sex
-TIN
-phoneNumber
-email
-name
}

class LabOrder{
}

class Result{
}

class Report{
}

class Category{
-code
-description
-nhsID
}

class Parameter{
}

class TestType{
}

class Test{
-internalCode
-nhsCode
-collectMethod
-collectDateTime
-chemicalAnalysisDateTime
-diagnosisDateTime
-validationDateTime
}

class bloodTest{
-PLT
-RBC
-WBC
}

class covidTest{
-isCovid
}

class Sample{
-barcode
}

@enduml

PlantUML version 1.2021.4(Sun Apr 04 09:49:39 BST 2021)
(GPL source distribution)
Java Runtime: OpenJDK Runtime Environment
JVM: OpenJDK 64-Bit Server VM
Default Encoding: Cp1252
Language: pt
Country: PT
--></g></svg>