<?xml version="1.0" encoding="UTF-8" standalone="no"?><svg xmlns="http://www.w3.org/2000/svg" xmlns:xlink="http://www.w3.org/1999/xlink" contentScriptType="application/ecmascript" contentStyleType="text/css" height="907.5px" preserveAspectRatio="none" style="width:946px;height:907px;" version="1.1" viewBox="0 0 946 907" width="946px" zoomAndPan="magnify"><defs><filter height="300%" id="f1f4lul5fbwwkg" width="300%" x="-1" y="-1"><feGaussianBlur result="blurOut" stdDeviation="2.2"/><feColorMatrix in="blurOut" result="blurOut2" type="matrix" values="0 0 0 0 0 0 0 0 0 0 0 0 0 0 0 0 0 0 .4 0"/><feOffset dx="4.4" dy="4.4" in="blurOut2" result="blurOut3"/><feBlend in="SourceGraphic" in2="blurOut3" mode="normal"/></filter></defs><g><!--MD5=[02e4b9b7573f1156f41e60aa5b4e25a4]
class Company--><rect codeLine="2" fill="#FEFECE" filter="url(#f1f4lul5fbwwkg)" height="52.8" id="Company" style="stroke:#A80036;stroke-width:1.6500000000000001;" width="93.5" x="371.8" y="839.3"/><ellipse cx="388.3" cy="856.9" fill="#ADD1B2" rx="12.1" ry="12.1" style="stroke:#A80036;stroke-width:1.1;"/><path d="M390.5,853.05 Q390.7234,852.5 390.9813,852.225 Q391.2391,851.95 391.5313,851.95 Q392.0469,851.95 392.3734,852.2594 Q392.7,852.5688 392.7,853.2906 L392.7,855.0094 Q392.7,855.7313 392.3906,856.0406 Q392.0813,856.35 391.6,856.35 Q391.1703,856.35 390.8953,856.1609 Q390.6203,855.9719 390.5,855.4734 Q390.4484,855.1297 390.2594,854.9406 Q389.9156,854.5797 389.2969,854.3734 Q388.6781,854.15 388.0594,854.15 Q387.2859,854.15 386.6328,854.4594 Q385.9969,854.7688 385.4984,855.4563 Q385,856.1438 385,857.0891 L385,858.1031 Q385,859.2375 385.9281,859.9938 Q386.8563,860.75 388.5063,860.75 Q389.4859,860.75 390.1734,860.5266 Q390.5688,860.4063 391.0156,860.0109 Q391.3078,859.7875 391.4625,859.7188 Q391.6172,859.65 391.8063,859.65 Q392.1672,859.65 392.425,859.9422 Q392.7,860.2172 392.7,860.6125 Q392.7,860.9906 392.3219,861.4375 Q391.7719,862.0906 390.8953,862.4516 Q389.7438,862.95 388.3344,862.95 Q386.6844,862.95 385.3609,862.2969 Q384.2953,861.7813 383.5391,860.6641 Q382.8,859.5469 382.8,858.2234 L382.8,857.0203 Q382.8,855.6453 383.4531,854.4422 Q384.1234,853.2391 385.275,852.6031 Q386.4438,851.95 387.75,851.95 Q388.5406,851.95 389.2281,852.225 Q389.9156,852.5 390.5,853.05 Z " fill="#000000"/><text fill="#000000" font-family="sans-serif" font-size="13.2" lengthAdjust="spacing" textLength="58.3" x="403.7" y="862.3012">Company</text><line style="stroke:#A80036;stroke-width:1.6500000000000001;" x1="372.9" x2="464.2" y1="874.5" y2="874.5"/><line style="stroke:#A80036;stroke-width:1.6500000000000001;" x1="372.9" x2="464.2" y1="883.3" y2="883.3"/><!--MD5=[9681492165142af2a4a3a169d90ee8d4]
class Sample--><rect codeLine="3" fill="#FEFECE" filter="url(#f1f4lul5fbwwkg)" height="52.8" id="Sample" style="stroke:#A80036;stroke-width:1.6500000000000001;" width="82.5" x="429" y="423.5"/><ellipse cx="445.5" cy="441.1" fill="#ADD1B2" rx="12.1" ry="12.1" style="stroke:#A80036;stroke-width:1.1;"/><path d="M447.7,437.25 Q447.9234,436.7 448.1813,436.425 Q448.4391,436.15 448.7313,436.15 Q449.2469,436.15 449.5734,436.4594 Q449.9,436.7688 449.9,437.4906 L449.9,439.2094 Q449.9,439.9313 449.5906,440.2406 Q449.2813,440.55 448.8,440.55 Q448.3703,440.55 448.0953,440.3609 Q447.8203,440.1719 447.7,439.6734 Q447.6484,439.3297 447.4594,439.1406 Q447.1156,438.7797 446.4969,438.5734 Q445.8781,438.35 445.2594,438.35 Q444.4859,438.35 443.8328,438.6594 Q443.1969,438.9688 442.6984,439.6563 Q442.2,440.3438 442.2,441.2891 L442.2,442.3031 Q442.2,443.4375 443.1281,444.1938 Q444.0563,444.95 445.7063,444.95 Q446.6859,444.95 447.3734,444.7266 Q447.7688,444.6063 448.2156,444.2109 Q448.5078,443.9875 448.6625,443.9188 Q448.8172,443.85 449.0063,443.85 Q449.3672,443.85 449.625,444.1422 Q449.9,444.4172 449.9,444.8125 Q449.9,445.1906 449.5219,445.6375 Q448.9719,446.2906 448.0953,446.6516 Q446.9438,447.15 445.5344,447.15 Q443.8844,447.15 442.5609,446.4969 Q441.4953,445.9813 440.7391,444.8641 Q440,443.7469 440,442.4234 L440,441.2203 Q440,439.8453 440.6531,438.6422 Q441.3234,437.4391 442.475,436.8031 Q443.6438,436.15 444.95,436.15 Q445.7406,436.15 446.4281,436.425 Q447.1156,436.7 447.7,437.25 Z " fill="#000000"/><text fill="#000000" font-family="sans-serif" font-size="13.2" lengthAdjust="spacing" textLength="47.3" x="460.9" y="446.5012">Sample</text><line style="stroke:#A80036;stroke-width:1.6500000000000001;" x1="430.1" x2="510.4" y1="458.7" y2="458.7"/><line style="stroke:#A80036;stroke-width:1.6500000000000001;" x1="430.1" x2="510.4" y1="467.5" y2="467.5"/><!--MD5=[ed6624c6556d5e7b1bd23032162d20b7]
class Client--><rect codeLine="4" fill="#FEFECE" filter="url(#f1f4lul5fbwwkg)" height="52.8" id="Client" style="stroke:#A80036;stroke-width:1.6500000000000001;" width="70.4" x="803.55" y="423.5"/><ellipse cx="820.05" cy="441.1" fill="#ADD1B2" rx="12.1" ry="12.1" style="stroke:#A80036;stroke-width:1.1;"/><path d="M822.25,437.25 Q822.4734,436.7 822.7313,436.425 Q822.9891,436.15 823.2813,436.15 Q823.7969,436.15 824.1234,436.4594 Q824.45,436.7688 824.45,437.4906 L824.45,439.2094 Q824.45,439.9313 824.1406,440.2406 Q823.8313,440.55 823.35,440.55 Q822.9203,440.55 822.6453,440.3609 Q822.3703,440.1719 822.25,439.6734 Q822.1984,439.3297 822.0094,439.1406 Q821.6656,438.7797 821.0469,438.5734 Q820.4281,438.35 819.8094,438.35 Q819.0359,438.35 818.3828,438.6594 Q817.7469,438.9688 817.2484,439.6563 Q816.75,440.3438 816.75,441.2891 L816.75,442.3031 Q816.75,443.4375 817.6781,444.1938 Q818.6063,444.95 820.2563,444.95 Q821.2359,444.95 821.9234,444.7266 Q822.3188,444.6063 822.7656,444.2109 Q823.0578,443.9875 823.2125,443.9188 Q823.3672,443.85 823.5563,443.85 Q823.9172,443.85 824.175,444.1422 Q824.45,444.4172 824.45,444.8125 Q824.45,445.1906 824.0719,445.6375 Q823.5219,446.2906 822.6453,446.6516 Q821.4938,447.15 820.0844,447.15 Q818.4344,447.15 817.1109,446.4969 Q816.0453,445.9813 815.2891,444.8641 Q814.55,443.7469 814.55,442.4234 L814.55,441.2203 Q814.55,439.8453 815.2031,438.6422 Q815.8734,437.4391 817.025,436.8031 Q818.1938,436.15 819.5,436.15 Q820.2906,436.15 820.9781,436.425 Q821.6656,436.7 822.25,437.25 Z " fill="#000000"/><text fill="#000000" font-family="sans-serif" font-size="13.2" lengthAdjust="spacing" textLength="35.2" x="835.45" y="446.5012">Client</text><line style="stroke:#A80036;stroke-width:1.6500000000000001;" x1="804.65" x2="872.85" y1="458.7" y2="458.7"/><line style="stroke:#A80036;stroke-width:1.6500000000000001;" x1="804.65" x2="872.85" y1="467.5" y2="467.5"/><!--MD5=[df38be88ccee13e832d6fafd6288a4ca]
class Test--><rect codeLine="5" fill="#FEFECE" filter="url(#f1f4lul5fbwwkg)" height="52.8" id="Test" style="stroke:#A80036;stroke-width:1.6500000000000001;" width="61.6" x="571.45" y="562.1"/><ellipse cx="587.95" cy="579.7" fill="#ADD1B2" rx="12.1" ry="12.1" style="stroke:#A80036;stroke-width:1.1;"/><path d="M590.15,575.85 Q590.3734,575.3 590.6313,575.025 Q590.8891,574.75 591.1813,574.75 Q591.6969,574.75 592.0234,575.0594 Q592.35,575.3688 592.35,576.0906 L592.35,577.8094 Q592.35,578.5313 592.0406,578.8406 Q591.7313,579.15 591.25,579.15 Q590.8203,579.15 590.5453,578.9609 Q590.2703,578.7719 590.15,578.2734 Q590.0984,577.9297 589.9094,577.7406 Q589.5656,577.3797 588.9469,577.1734 Q588.3281,576.95 587.7094,576.95 Q586.9359,576.95 586.2828,577.2594 Q585.6469,577.5688 585.1484,578.2563 Q584.65,578.9438 584.65,579.8891 L584.65,580.9031 Q584.65,582.0375 585.5781,582.7938 Q586.5063,583.55 588.1563,583.55 Q589.1359,583.55 589.8234,583.3266 Q590.2188,583.2063 590.6656,582.8109 Q590.9578,582.5875 591.1125,582.5188 Q591.2672,582.45 591.4563,582.45 Q591.8172,582.45 592.075,582.7422 Q592.35,583.0172 592.35,583.4125 Q592.35,583.7906 591.9719,584.2375 Q591.4219,584.8906 590.5453,585.2516 Q589.3938,585.75 587.9844,585.75 Q586.3344,585.75 585.0109,585.0969 Q583.9453,584.5813 583.1891,583.4641 Q582.45,582.3469 582.45,581.0234 L582.45,579.8203 Q582.45,578.4453 583.1031,577.2422 Q583.7734,576.0391 584.925,575.4031 Q586.0938,574.75 587.4,574.75 Q588.1906,574.75 588.8781,575.025 Q589.5656,575.3 590.15,575.85 Z " fill="#000000"/><text fill="#000000" font-family="sans-serif" font-size="13.2" lengthAdjust="spacing" textLength="26.4" x="603.35" y="585.1012">Test</text><line style="stroke:#A80036;stroke-width:1.6500000000000001;" x1="572.55" x2="631.95" y1="597.3" y2="597.3"/><line style="stroke:#A80036;stroke-width:1.6500000000000001;" x1="572.55" x2="631.95" y1="606.1" y2="606.1"/><!--MD5=[a64badb107d3691f2dc6af242cdbeb21]
class ChemicalLaboratory--><rect codeLine="6" fill="#FEFECE" filter="url(#f1f4lul5fbwwkg)" height="52.8" id="ChemicalLaboratory" style="stroke:#A80036;stroke-width:1.6500000000000001;" width="157.3" x="315.7" y="284.9"/><ellipse cx="332.2" cy="302.5" fill="#ADD1B2" rx="12.1" ry="12.1" style="stroke:#A80036;stroke-width:1.1;"/><path d="M334.4,298.65 Q334.6234,298.1 334.8813,297.825 Q335.1391,297.55 335.4313,297.55 Q335.9469,297.55 336.2734,297.8594 Q336.6,298.1688 336.6,298.8906 L336.6,300.6094 Q336.6,301.3313 336.2906,301.6406 Q335.9813,301.95 335.5,301.95 Q335.0703,301.95 334.7953,301.7609 Q334.5203,301.5719 334.4,301.0734 Q334.3484,300.7297 334.1594,300.5406 Q333.8156,300.1797 333.1969,299.9734 Q332.5781,299.75 331.9594,299.75 Q331.1859,299.75 330.5328,300.0594 Q329.8969,300.3688 329.3984,301.0563 Q328.9,301.7438 328.9,302.6891 L328.9,303.7031 Q328.9,304.8375 329.8281,305.5938 Q330.7563,306.35 332.4063,306.35 Q333.3859,306.35 334.0734,306.1266 Q334.4688,306.0063 334.9156,305.6109 Q335.2078,305.3875 335.3625,305.3188 Q335.5172,305.25 335.7063,305.25 Q336.0672,305.25 336.325,305.5422 Q336.6,305.8172 336.6,306.2125 Q336.6,306.5906 336.2219,307.0375 Q335.6719,307.6906 334.7953,308.0516 Q333.6438,308.55 332.2344,308.55 Q330.5844,308.55 329.2609,307.8969 Q328.1953,307.3813 327.4391,306.2641 Q326.7,305.1469 326.7,303.8234 L326.7,302.6203 Q326.7,301.2453 327.3531,300.0422 Q328.0234,298.8391 329.175,298.2031 Q330.3438,297.55 331.65,297.55 Q332.4406,297.55 333.1281,297.825 Q333.8156,298.1 334.4,298.65 Z " fill="#000000"/><text fill="#000000" font-family="sans-serif" font-size="13.2" lengthAdjust="spacing" textLength="122.1" x="347.6" y="307.9012">ChemicalLaboratory</text><line style="stroke:#A80036;stroke-width:1.6500000000000001;" x1="316.8" x2="471.9" y1="320.1" y2="320.1"/><line style="stroke:#A80036;stroke-width:1.6500000000000001;" x1="316.8" x2="471.9" y1="328.9" y2="328.9"/><!--MD5=[aeb3272166074d8737a70b61b1e71682]
class TestType--><rect codeLine="7" fill="#FEFECE" filter="url(#f1f4lul5fbwwkg)" height="52.8" id="TestType" style="stroke:#A80036;stroke-width:1.6500000000000001;" width="90.2" x="525.25" y="7.7"/><ellipse cx="541.75" cy="25.3" fill="#ADD1B2" rx="12.1" ry="12.1" style="stroke:#A80036;stroke-width:1.1;"/><path d="M543.95,21.45 Q544.1734,20.9 544.4313,20.625 Q544.6891,20.35 544.9813,20.35 Q545.4969,20.35 545.8234,20.6594 Q546.15,20.9688 546.15,21.6906 L546.15,23.4094 Q546.15,24.1313 545.8406,24.4406 Q545.5313,24.75 545.05,24.75 Q544.6203,24.75 544.3453,24.5609 Q544.0703,24.3719 543.95,23.8734 Q543.8984,23.5297 543.7094,23.3406 Q543.3656,22.9797 542.7469,22.7734 Q542.1281,22.55 541.5094,22.55 Q540.7359,22.55 540.0828,22.8594 Q539.4469,23.1688 538.9484,23.8563 Q538.45,24.5438 538.45,25.4891 L538.45,26.5031 Q538.45,27.6375 539.3781,28.3938 Q540.3063,29.15 541.9563,29.15 Q542.9359,29.15 543.6234,28.9266 Q544.0188,28.8063 544.4656,28.4109 Q544.7578,28.1875 544.9125,28.1188 Q545.0672,28.05 545.2563,28.05 Q545.6172,28.05 545.875,28.3422 Q546.15,28.6172 546.15,29.0125 Q546.15,29.3906 545.7719,29.8375 Q545.2219,30.4906 544.3453,30.8516 Q543.1938,31.35 541.7844,31.35 Q540.1344,31.35 538.8109,30.6969 Q537.7453,30.1813 536.9891,29.0641 Q536.25,27.9469 536.25,26.6234 L536.25,25.4203 Q536.25,24.0453 536.9031,22.8422 Q537.5734,21.6391 538.725,21.0031 Q539.8938,20.35 541.2,20.35 Q541.9906,20.35 542.6781,20.625 Q543.3656,20.9 543.95,21.45 Z " fill="#000000"/><text fill="#000000" font-family="sans-serif" font-size="13.2" lengthAdjust="spacing" textLength="55" x="557.15" y="30.7012">TestType</text><line style="stroke:#A80036;stroke-width:1.6500000000000001;" x1="526.35" x2="614.35" y1="42.9" y2="42.9"/><line style="stroke:#A80036;stroke-width:1.6500000000000001;" x1="526.35" x2="614.35" y1="51.7" y2="51.7"/><!--MD5=[a96594a83e2ecdc78cbf17c2ddf01934]
class Category--><rect codeLine="8" fill="#FEFECE" filter="url(#f1f4lul5fbwwkg)" height="52.8" id="Category" style="stroke:#A80036;stroke-width:1.6500000000000001;" width="89.1" x="652.3" y="284.9"/><ellipse cx="668.8" cy="302.5" fill="#ADD1B2" rx="12.1" ry="12.1" style="stroke:#A80036;stroke-width:1.1;"/><path d="M671,298.65 Q671.2234,298.1 671.4813,297.825 Q671.7391,297.55 672.0313,297.55 Q672.5469,297.55 672.8734,297.8594 Q673.2,298.1688 673.2,298.8906 L673.2,300.6094 Q673.2,301.3313 672.8906,301.6406 Q672.5813,301.95 672.1,301.95 Q671.6703,301.95 671.3953,301.7609 Q671.1203,301.5719 671,301.0734 Q670.9484,300.7297 670.7594,300.5406 Q670.4156,300.1797 669.7969,299.9734 Q669.1781,299.75 668.5594,299.75 Q667.7859,299.75 667.1328,300.0594 Q666.4969,300.3688 665.9984,301.0563 Q665.5,301.7438 665.5,302.6891 L665.5,303.7031 Q665.5,304.8375 666.4281,305.5938 Q667.3563,306.35 669.0063,306.35 Q669.9859,306.35 670.6734,306.1266 Q671.0688,306.0063 671.5156,305.6109 Q671.8078,305.3875 671.9625,305.3188 Q672.1172,305.25 672.3063,305.25 Q672.6672,305.25 672.925,305.5422 Q673.2,305.8172 673.2,306.2125 Q673.2,306.5906 672.8219,307.0375 Q672.2719,307.6906 671.3953,308.0516 Q670.2438,308.55 668.8344,308.55 Q667.1844,308.55 665.8609,307.8969 Q664.7953,307.3813 664.0391,306.2641 Q663.3,305.1469 663.3,303.8234 L663.3,302.6203 Q663.3,301.2453 663.9531,300.0422 Q664.6234,298.8391 665.775,298.2031 Q666.9438,297.55 668.25,297.55 Q669.0406,297.55 669.7281,297.825 Q670.4156,298.1 671,298.65 Z " fill="#000000"/><text fill="#000000" font-family="sans-serif" font-size="13.2" lengthAdjust="spacing" textLength="53.9" x="684.2" y="307.9012">Category</text><line style="stroke:#A80036;stroke-width:1.6500000000000001;" x1="653.4" x2="740.3" y1="320.1" y2="320.1"/><line style="stroke:#A80036;stroke-width:1.6500000000000001;" x1="653.4" x2="740.3" y1="328.9" y2="328.9"/><!--MD5=[1f6362a5c8f21d8d6a0fce68f3a92a4e]
class Parameter--><rect codeLine="9" fill="#FEFECE" filter="url(#f1f4lul5fbwwkg)" height="52.8" id="Parameter" style="stroke:#A80036;stroke-width:1.6500000000000001;" width="99" x="628.65" y="423.5"/><ellipse cx="645.15" cy="441.1" fill="#ADD1B2" rx="12.1" ry="12.1" style="stroke:#A80036;stroke-width:1.1;"/><path d="M647.35,437.25 Q647.5734,436.7 647.8313,436.425 Q648.0891,436.15 648.3813,436.15 Q648.8969,436.15 649.2234,436.4594 Q649.55,436.7688 649.55,437.4906 L649.55,439.2094 Q649.55,439.9313 649.2406,440.2406 Q648.9313,440.55 648.45,440.55 Q648.0203,440.55 647.7453,440.3609 Q647.4703,440.1719 647.35,439.6734 Q647.2984,439.3297 647.1094,439.1406 Q646.7656,438.7797 646.1469,438.5734 Q645.5281,438.35 644.9094,438.35 Q644.1359,438.35 643.4828,438.6594 Q642.8469,438.9688 642.3484,439.6563 Q641.85,440.3438 641.85,441.2891 L641.85,442.3031 Q641.85,443.4375 642.7781,444.1938 Q643.7063,444.95 645.3563,444.95 Q646.3359,444.95 647.0234,444.7266 Q647.4188,444.6063 647.8656,444.2109 Q648.1578,443.9875 648.3125,443.9188 Q648.4672,443.85 648.6563,443.85 Q649.0172,443.85 649.275,444.1422 Q649.55,444.4172 649.55,444.8125 Q649.55,445.1906 649.1719,445.6375 Q648.6219,446.2906 647.7453,446.6516 Q646.5938,447.15 645.1844,447.15 Q643.5344,447.15 642.2109,446.4969 Q641.1453,445.9813 640.3891,444.8641 Q639.65,443.7469 639.65,442.4234 L639.65,441.2203 Q639.65,439.8453 640.3031,438.6422 Q640.9734,437.4391 642.125,436.8031 Q643.2938,436.15 644.6,436.15 Q645.3906,436.15 646.0781,436.425 Q646.7656,436.7 647.35,437.25 Z " fill="#000000"/><text fill="#000000" font-family="sans-serif" font-size="13.2" lengthAdjust="spacing" textLength="63.8" x="660.55" y="446.5012">Parameter</text><line style="stroke:#A80036;stroke-width:1.6500000000000001;" x1="629.75" x2="726.55" y1="458.7" y2="458.7"/><line style="stroke:#A80036;stroke-width:1.6500000000000001;" x1="629.75" x2="726.55" y1="467.5" y2="467.5"/><!--MD5=[da547346deef918ea16944ba046651ef]
class Administrator--><rect codeLine="10" fill="#FEFECE" filter="url(#f1f4lul5fbwwkg)" height="52.8" id="Administrator" style="stroke:#A80036;stroke-width:1.6500000000000001;" width="115.5" x="633.6" y="146.3"/><ellipse cx="650.1" cy="163.9" fill="#ADD1B2" rx="12.1" ry="12.1" style="stroke:#A80036;stroke-width:1.1;"/><path d="M652.3,160.05 Q652.5234,159.5 652.7813,159.225 Q653.0391,158.95 653.3313,158.95 Q653.8469,158.95 654.1734,159.2594 Q654.5,159.5688 654.5,160.2906 L654.5,162.0094 Q654.5,162.7313 654.1906,163.0406 Q653.8813,163.35 653.4,163.35 Q652.9703,163.35 652.6953,163.1609 Q652.4203,162.9719 652.3,162.4734 Q652.2484,162.1297 652.0594,161.9406 Q651.7156,161.5797 651.0969,161.3734 Q650.4781,161.15 649.8594,161.15 Q649.0859,161.15 648.4328,161.4594 Q647.7969,161.7688 647.2984,162.4563 Q646.8,163.1438 646.8,164.0891 L646.8,165.1031 Q646.8,166.2375 647.7281,166.9938 Q648.6563,167.75 650.3063,167.75 Q651.2859,167.75 651.9734,167.5266 Q652.3688,167.4063 652.8156,167.0109 Q653.1078,166.7875 653.2625,166.7188 Q653.4172,166.65 653.6063,166.65 Q653.9672,166.65 654.225,166.9422 Q654.5,167.2172 654.5,167.6125 Q654.5,167.9906 654.1219,168.4375 Q653.5719,169.0906 652.6953,169.4516 Q651.5438,169.95 650.1344,169.95 Q648.4844,169.95 647.1609,169.2969 Q646.0953,168.7813 645.3391,167.6641 Q644.6,166.5469 644.6,165.2234 L644.6,164.0203 Q644.6,162.6453 645.2531,161.4422 Q645.9234,160.2391 647.075,159.6031 Q648.2438,158.95 649.55,158.95 Q650.3406,158.95 651.0281,159.225 Q651.7156,159.5 652.3,160.05 Z " fill="#000000"/><text fill="#000000" font-family="sans-serif" font-size="13.2" lengthAdjust="spacing" textLength="80.3" x="665.5" y="169.3012">Administrator</text><line style="stroke:#A80036;stroke-width:1.6500000000000001;" x1="634.7" x2="748" y1="181.5" y2="181.5"/><line style="stroke:#A80036;stroke-width:1.6500000000000001;" x1="634.7" x2="748" y1="190.3" y2="190.3"/><!--MD5=[1934a092c0e7d4da7dc7075b6f4b6b03]
class ClinicalAnalysisLaboratory--><rect codeLine="11" fill="#FEFECE" filter="url(#f1f4lul5fbwwkg)" height="52.8" id="ClinicalAnalysisLaboratory" style="stroke:#A80036;stroke-width:1.6500000000000001;" width="194.7" x="577.5" y="700.7"/><ellipse cx="594" cy="718.3" fill="#ADD1B2" rx="12.1" ry="12.1" style="stroke:#A80036;stroke-width:1.1;"/><path d="M596.2,714.45 Q596.4234,713.9 596.6813,713.625 Q596.9391,713.35 597.2313,713.35 Q597.7469,713.35 598.0734,713.6594 Q598.4,713.9688 598.4,714.6906 L598.4,716.4094 Q598.4,717.1313 598.0906,717.4406 Q597.7813,717.75 597.3,717.75 Q596.8703,717.75 596.5953,717.5609 Q596.3203,717.3719 596.2,716.8734 Q596.1484,716.5297 595.9594,716.3406 Q595.6156,715.9797 594.9969,715.7734 Q594.3781,715.55 593.7594,715.55 Q592.9859,715.55 592.3328,715.8594 Q591.6969,716.1688 591.1984,716.8563 Q590.7,717.5438 590.7,718.4891 L590.7,719.5031 Q590.7,720.6375 591.6281,721.3938 Q592.5563,722.15 594.2063,722.15 Q595.1859,722.15 595.8734,721.9266 Q596.2688,721.8063 596.7156,721.4109 Q597.0078,721.1875 597.1625,721.1188 Q597.3172,721.05 597.5063,721.05 Q597.8672,721.05 598.125,721.3422 Q598.4,721.6172 598.4,722.0125 Q598.4,722.3906 598.0219,722.8375 Q597.4719,723.4906 596.5953,723.8516 Q595.4438,724.35 594.0344,724.35 Q592.3844,724.35 591.0609,723.6969 Q589.9953,723.1813 589.2391,722.0641 Q588.5,720.9469 588.5,719.6234 L588.5,718.4203 Q588.5,717.0453 589.1531,715.8422 Q589.8234,714.6391 590.975,714.0031 Q592.1438,713.35 593.45,713.35 Q594.2406,713.35 594.9281,713.625 Q595.6156,713.9 596.2,714.45 Z " fill="#000000"/><text fill="#000000" font-family="sans-serif" font-size="13.2" lengthAdjust="spacing" textLength="159.5" x="609.4" y="723.7012">ClinicalAnalysisLaboratory</text><line style="stroke:#A80036;stroke-width:1.6500000000000001;" x1="578.6" x2="771.1" y1="735.9" y2="735.9"/><line style="stroke:#A80036;stroke-width:1.6500000000000001;" x1="578.6" x2="771.1" y1="744.7" y2="744.7"/><!--MD5=[03960189e81aa2c066c762ffabbee709]
class Receptionist--><rect codeLine="12" fill="#FEFECE" filter="url(#f1f4lul5fbwwkg)" height="52.8" id="Receptionist" style="stroke:#A80036;stroke-width:1.6500000000000001;" width="111.1" x="37.4" y="7.7"/><ellipse cx="53.9" cy="25.3" fill="#ADD1B2" rx="12.1" ry="12.1" style="stroke:#A80036;stroke-width:1.1;"/><path d="M56.1,21.45 Q56.3234,20.9 56.5813,20.625 Q56.8391,20.35 57.1313,20.35 Q57.6469,20.35 57.9734,20.6594 Q58.3,20.9688 58.3,21.6906 L58.3,23.4094 Q58.3,24.1313 57.9906,24.4406 Q57.6813,24.75 57.2,24.75 Q56.7703,24.75 56.4953,24.5609 Q56.2203,24.3719 56.1,23.8734 Q56.0484,23.5297 55.8594,23.3406 Q55.5156,22.9797 54.8969,22.7734 Q54.2781,22.55 53.6594,22.55 Q52.8859,22.55 52.2328,22.8594 Q51.5969,23.1688 51.0984,23.8563 Q50.6,24.5438 50.6,25.4891 L50.6,26.5031 Q50.6,27.6375 51.5281,28.3938 Q52.4563,29.15 54.1063,29.15 Q55.0859,29.15 55.7734,28.9266 Q56.1688,28.8063 56.6156,28.4109 Q56.9078,28.1875 57.0625,28.1188 Q57.2172,28.05 57.4063,28.05 Q57.7672,28.05 58.025,28.3422 Q58.3,28.6172 58.3,29.0125 Q58.3,29.3906 57.9219,29.8375 Q57.3719,30.4906 56.4953,30.8516 Q55.3438,31.35 53.9344,31.35 Q52.2844,31.35 50.9609,30.6969 Q49.8953,30.1813 49.1391,29.0641 Q48.4,27.9469 48.4,26.6234 L48.4,25.4203 Q48.4,24.0453 49.0531,22.8422 Q49.7234,21.6391 50.875,21.0031 Q52.0438,20.35 53.35,20.35 Q54.1406,20.35 54.8281,20.625 Q55.5156,20.9 56.1,21.45 Z " fill="#000000"/><text fill="#000000" font-family="sans-serif" font-size="13.2" lengthAdjust="spacing" textLength="75.9" x="69.3" y="30.7012">Receptionist</text><line style="stroke:#A80036;stroke-width:1.6500000000000001;" x1="38.5" x2="147.4" y1="42.9" y2="42.9"/><line style="stroke:#A80036;stroke-width:1.6500000000000001;" x1="38.5" x2="147.4" y1="51.7" y2="51.7"/><!--MD5=[7d96fd15f3014691d2fcaf89c5791e2a]
class SpecialistDoctor--><rect codeLine="13" fill="#FEFECE" filter="url(#f1f4lul5fbwwkg)" height="52.8" id="SpecialistDoctor" style="stroke:#A80036;stroke-width:1.6500000000000001;" width="134.2" x="187.55" y="7.7"/><ellipse cx="204.05" cy="25.3" fill="#ADD1B2" rx="12.1" ry="12.1" style="stroke:#A80036;stroke-width:1.1;"/><path d="M206.25,21.45 Q206.4734,20.9 206.7313,20.625 Q206.9891,20.35 207.2813,20.35 Q207.7969,20.35 208.1234,20.6594 Q208.45,20.9688 208.45,21.6906 L208.45,23.4094 Q208.45,24.1313 208.1406,24.4406 Q207.8313,24.75 207.35,24.75 Q206.9203,24.75 206.6453,24.5609 Q206.3703,24.3719 206.25,23.8734 Q206.1984,23.5297 206.0094,23.3406 Q205.6656,22.9797 205.0469,22.7734 Q204.4281,22.55 203.8094,22.55 Q203.0359,22.55 202.3828,22.8594 Q201.7469,23.1688 201.2484,23.8563 Q200.75,24.5438 200.75,25.4891 L200.75,26.5031 Q200.75,27.6375 201.6781,28.3938 Q202.6063,29.15 204.2563,29.15 Q205.2359,29.15 205.9234,28.9266 Q206.3188,28.8063 206.7656,28.4109 Q207.0578,28.1875 207.2125,28.1188 Q207.3672,28.05 207.5563,28.05 Q207.9172,28.05 208.175,28.3422 Q208.45,28.6172 208.45,29.0125 Q208.45,29.3906 208.0719,29.8375 Q207.5219,30.4906 206.6453,30.8516 Q205.4938,31.35 204.0844,31.35 Q202.4344,31.35 201.1109,30.6969 Q200.0453,30.1813 199.2891,29.0641 Q198.55,27.9469 198.55,26.6234 L198.55,25.4203 Q198.55,24.0453 199.2031,22.8422 Q199.8734,21.6391 201.025,21.0031 Q202.1938,20.35 203.5,20.35 Q204.2906,20.35 204.9781,20.625 Q205.6656,20.9 206.25,21.45 Z " fill="#000000"/><text fill="#000000" font-family="sans-serif" font-size="13.2" lengthAdjust="spacing" textLength="99" x="219.45" y="30.7012">SpecialistDoctor</text><line style="stroke:#A80036;stroke-width:1.6500000000000001;" x1="188.65" x2="320.65" y1="42.9" y2="42.9"/><line style="stroke:#A80036;stroke-width:1.6500000000000001;" x1="188.65" x2="320.65" y1="51.7" y2="51.7"/><!--MD5=[01931d41e78f8996acd44f6f0fd8de28]
class MedicalLabTechnician--><rect codeLine="14" fill="#FEFECE" filter="url(#f1f4lul5fbwwkg)" height="52.8" id="MedicalLabTechnician" style="stroke:#A80036;stroke-width:1.6500000000000001;" width="170.5" x="7.7" y="146.3"/><ellipse cx="24.2" cy="163.9" fill="#ADD1B2" rx="12.1" ry="12.1" style="stroke:#A80036;stroke-width:1.1;"/><path d="M26.4,160.05 Q26.6234,159.5 26.8813,159.225 Q27.1391,158.95 27.4313,158.95 Q27.9469,158.95 28.2734,159.2594 Q28.6,159.5688 28.6,160.2906 L28.6,162.0094 Q28.6,162.7313 28.2906,163.0406 Q27.9813,163.35 27.5,163.35 Q27.0703,163.35 26.7953,163.1609 Q26.5203,162.9719 26.4,162.4734 Q26.3484,162.1297 26.1594,161.9406 Q25.8156,161.5797 25.1969,161.3734 Q24.5781,161.15 23.9594,161.15 Q23.1859,161.15 22.5328,161.4594 Q21.8969,161.7688 21.3984,162.4563 Q20.9,163.1438 20.9,164.0891 L20.9,165.1031 Q20.9,166.2375 21.8281,166.9938 Q22.7563,167.75 24.4063,167.75 Q25.3859,167.75 26.0734,167.5266 Q26.4688,167.4063 26.9156,167.0109 Q27.2078,166.7875 27.3625,166.7188 Q27.5172,166.65 27.7063,166.65 Q28.0672,166.65 28.325,166.9422 Q28.6,167.2172 28.6,167.6125 Q28.6,167.9906 28.2219,168.4375 Q27.6719,169.0906 26.7953,169.4516 Q25.6438,169.95 24.2344,169.95 Q22.5844,169.95 21.2609,169.2969 Q20.1953,168.7813 19.4391,167.6641 Q18.7,166.5469 18.7,165.2234 L18.7,164.0203 Q18.7,162.6453 19.3531,161.4422 Q20.0234,160.2391 21.175,159.6031 Q22.3438,158.95 23.65,158.95 Q24.4406,158.95 25.1281,159.225 Q25.8156,159.5 26.4,160.05 Z " fill="#000000"/><text fill="#000000" font-family="sans-serif" font-size="13.2" lengthAdjust="spacing" textLength="135.3" x="39.6" y="169.3012">MedicalLabTechnician</text><line style="stroke:#A80036;stroke-width:1.6500000000000001;" x1="8.8" x2="177.1" y1="181.5" y2="181.5"/><line style="stroke:#A80036;stroke-width:1.6500000000000001;" x1="8.8" x2="177.1" y1="190.3" y2="190.3"/><!--MD5=[a999c1570c205a2156b04a15307bc1ff]
class LabOrder--><rect codeLine="15" fill="#FEFECE" filter="url(#f1f4lul5fbwwkg)" height="52.8" id="LabOrder" style="stroke:#A80036;stroke-width:1.6500000000000001;" width="92.4" x="794.75" y="284.9"/><ellipse cx="811.25" cy="302.5" fill="#ADD1B2" rx="12.1" ry="12.1" style="stroke:#A80036;stroke-width:1.1;"/><path d="M813.45,298.65 Q813.6734,298.1 813.9313,297.825 Q814.1891,297.55 814.4813,297.55 Q814.9969,297.55 815.3234,297.8594 Q815.65,298.1688 815.65,298.8906 L815.65,300.6094 Q815.65,301.3313 815.3406,301.6406 Q815.0313,301.95 814.55,301.95 Q814.1203,301.95 813.8453,301.7609 Q813.5703,301.5719 813.45,301.0734 Q813.3984,300.7297 813.2094,300.5406 Q812.8656,300.1797 812.2469,299.9734 Q811.6281,299.75 811.0094,299.75 Q810.2359,299.75 809.5828,300.0594 Q808.9469,300.3688 808.4484,301.0563 Q807.95,301.7438 807.95,302.6891 L807.95,303.7031 Q807.95,304.8375 808.8781,305.5938 Q809.8063,306.35 811.4563,306.35 Q812.4359,306.35 813.1234,306.1266 Q813.5188,306.0063 813.9656,305.6109 Q814.2578,305.3875 814.4125,305.3188 Q814.5672,305.25 814.7563,305.25 Q815.1172,305.25 815.375,305.5422 Q815.65,305.8172 815.65,306.2125 Q815.65,306.5906 815.2719,307.0375 Q814.7219,307.6906 813.8453,308.0516 Q812.6938,308.55 811.2844,308.55 Q809.6344,308.55 808.3109,307.8969 Q807.2453,307.3813 806.4891,306.2641 Q805.75,305.1469 805.75,303.8234 L805.75,302.6203 Q805.75,301.2453 806.4031,300.0422 Q807.0734,298.8391 808.225,298.2031 Q809.3938,297.55 810.7,297.55 Q811.4906,297.55 812.1781,297.825 Q812.8656,298.1 813.45,298.65 Z " fill="#000000"/><text fill="#000000" font-family="sans-serif" font-size="13.2" lengthAdjust="spacing" textLength="57.2" x="826.65" y="307.9012">LabOrder</text><line style="stroke:#A80036;stroke-width:1.6500000000000001;" x1="795.85" x2="886.05" y1="320.1" y2="320.1"/><line style="stroke:#A80036;stroke-width:1.6500000000000001;" x1="795.85" x2="886.05" y1="328.9" y2="328.9"/><!--MD5=[fdfe1f7a1d4f9a6f0814f21c5f7b0d38]
link ClinicalAnalysisLaboratory to Company--><path codeLine="19" d="M627.242,753.533 C581.064,778.118 511.412,815.177 465.465,839.63 " fill="none" id="ClinicalAnalysisLaboratory-Company" style="stroke:#A80036;stroke-width:1.1;"/><polygon fill="#000000" points="573.0052,794.0094,562.7032,795.83,565.7408,801.5376,573.0052,794.0094" style="stroke:#000000;stroke-width:1.1;"/><text fill="#000000" font-family="sans-serif" font-size="14.3" lengthAdjust="spacing" textLength="33" x="578.05" y="802.4446">owns</text><text fill="#000000" font-family="sans-serif" font-size="14.3" lengthAdjust="spacing" textLength="5.5" x="609.4672" y="777.0128">*</text><text fill="#000000" font-family="sans-serif" font-size="14.3" lengthAdjust="spacing" textLength="7.7" x="474.1902" y="830.9146">1</text><!--MD5=[de3aa179ee7f21b344f648244b25a961]
link ChemicalLaboratory to Company--><path codeLine="21" d="M387.09,337.799 C379.962,365.024 370.15,409.596 370.15,448.8 C370.15,448.8 370.15,448.8 370.15,728.2 C370.15,768.658 389.29,812.174 403.502,838.904 " fill="none" id="ChemicalLaboratory-Company" style="stroke:#A80036;stroke-width:1.1;"/><polygon fill="#000000" points="375.47,583.1963,372.5646,593.2464,379.0267,593.0347,375.47,583.1963" style="stroke:#000000;stroke-width:1.1;"/><text fill="#000000" font-family="sans-serif" font-size="14.3" lengthAdjust="spacing" textLength="33" x="385.55" y="594.5446">owns</text><text fill="#000000" font-family="sans-serif" font-size="14.3" lengthAdjust="spacing" textLength="7.7" x="376.6819" y="361.2949">1</text><text fill="#000000" font-family="sans-serif" font-size="14.3" lengthAdjust="spacing" textLength="7.7" x="391.1956" y="827.5192">1</text><!--MD5=[6d9eb9a083ac0654c8b63743033752d3]
link TestType to Company--><path codeLine="23" d="M525.052,43.857 C433.917,62.557 237.05,110.088 237.05,171.6 C237.05,171.6 237.05,171.6 237.05,728.2 C237.05,795.41 317.559,833.591 371.338,851.609 " fill="none" id="TestType-Company" style="stroke:#A80036;stroke-width:1.1;"/><polygon fill="#000000" points="243.5782,444.6903,238.5424,453.8602,244.894,455.0689,243.5782,444.6903" style="stroke:#000000;stroke-width:1.1;"/><text fill="#000000" font-family="sans-serif" font-size="14.3" lengthAdjust="spacing" textLength="58.3" x="252.45" y="455.9446">conducts</text><text fill="#000000" font-family="sans-serif" font-size="14.3" lengthAdjust="spacing" textLength="5.5" x="510.9935" y="41.3065">*</text><text fill="#000000" font-family="sans-serif" font-size="14.3" lengthAdjust="spacing" textLength="7.7" x="355.1809" y="845.0943">1</text><!--MD5=[150ee6e4dbb30ab82336f9e174f6c4ed]
link Test to Company--><path codeLine="25" d="M571.351,613.25 C545.908,634.029 510.301,666.248 486.75,700.7 C456.313,745.228 435.622,805.464 425.568,839.135 " fill="none" id="Test-Company" style="stroke:#A80036;stroke-width:1.1;"/><polygon fill="#000000" points="495.2324,722.6722,487.1209,729.2789,492.5534,732.785,495.2324,722.6722" style="stroke:#000000;stroke-width:1.1;"/><text fill="#000000" font-family="sans-serif" font-size="14.3" lengthAdjust="spacing" textLength="55" x="502.15" y="733.1446">performs</text><text fill="#000000" font-family="sans-serif" font-size="14.3" lengthAdjust="spacing" textLength="5.5" x="557.2284" y="614.6314">*</text><text fill="#000000" font-family="sans-serif" font-size="14.3" lengthAdjust="spacing" textLength="7.7" x="418.6798" y="827.3669">1</text><!--MD5=[c2c6b28b052a3fe86d789b83a09b2815]
link TestType to Test--><path codeLine="27" d="M570.35,60.841 C570.35,88.253 570.35,133.001 570.35,171.6 C570.35,171.6 570.35,171.6 570.35,451 C570.35,490.402 583.121,534.556 592.504,561.671 " fill="none" id="TestType-Test" style="stroke:#A80036;stroke-width:1.1;"/><polygon fill="#000000" points="575.6069,305.9987,572.817,316.0815,579.2763,315.7957,575.6069,305.9987" style="stroke:#000000;stroke-width:1.1;"/><text fill="#000000" font-family="sans-serif" font-size="14.3" lengthAdjust="spacing" textLength="26.4" x="585.75" y="317.3446">is of</text><text fill="#000000" font-family="sans-serif" font-size="14.3" lengthAdjust="spacing" textLength="5.5" x="564.2141" y="83.9492">*</text><text fill="#000000" font-family="sans-serif" font-size="14.3" lengthAdjust="spacing" textLength="7.7" x="581.49" y="550.2782">1</text><!--MD5=[1ae83efc6d1967ce5bc17dfe294d00c2]
link Sample to Test--><path codeLine="29" d="M465.817,476.366 C464.343,492.8 465.245,513.887 475.75,529.1 C497.673,560.835 541.387,575.652 571.219,582.318 " fill="none" id="Sample-Test" style="stroke:#A80036;stroke-width:1.1;"/><polygon fill="#000000" points="477.371,515.4942,482.0963,524.8279,486.68,520.2679,477.371,515.4942" style="stroke:#000000;stroke-width:1.1;"/><text fill="#000000" font-family="sans-serif" font-size="14.3" lengthAdjust="spacing" textLength="49.5" x="491.15" y="525.2446">collects</text><text fill="#000000" font-family="sans-serif" font-size="14.3" lengthAdjust="spacing" textLength="5.5" x="458.5661" y="499.8538">*</text><text fill="#000000" font-family="sans-serif" font-size="14.3" lengthAdjust="spacing" textLength="7.7" x="555.0168" y="575.9579">1</text><!--MD5=[502b51bc079239060389dab43b7d3470]
link Client to Test--><path codeLine="31" d="M829.4,476.542 C821.898,493.691 809.754,515.559 792.55,529.1 C745.041,566.511 673.552,580.019 633.083,584.815 " fill="none" id="Client-Test" style="stroke:#A80036;stroke-width:1.1;"/><polygon fill="#000000" points="820.4661,516.7372,810.1924,518.7114,813.315,524.3731,820.4661,516.7372" style="stroke:#000000;stroke-width:1.1;"/><text fill="#000000" font-family="sans-serif" font-size="14.3" lengthAdjust="spacing" textLength="82.5" x="825.55" y="525.2446">requested by</text><text fill="#000000" font-family="sans-serif" font-size="14.3" lengthAdjust="spacing" textLength="7.7" x="818.4825" y="500.0727">1</text><text fill="#000000" font-family="sans-serif" font-size="14.3" lengthAdjust="spacing" textLength="5.5" x="641.6886" y="578.9099">*</text><!--MD5=[7d17329589c8a1a28e6f8826215bde21]
link Administrator to Category--><path codeLine="33" d="M692.373,199.133 C693.352,223.487 694.826,260.084 695.816,284.537 " fill="none" id="Administrator-Category" style="stroke:#A80036;stroke-width:1.1;"/><polygon fill="#000000" points="698.8285,236.6978,695.999,246.7696,702.4594,246.5091,698.8285,236.6978" style="stroke:#000000;stroke-width:1.1;"/><text fill="#000000" font-family="sans-serif" font-size="14.3" lengthAdjust="spacing" textLength="67.1" x="708.95" y="248.0446">created by</text><text fill="#000000" font-family="sans-serif" font-size="14.3" lengthAdjust="spacing" textLength="7.7" x="683.9839" y="222.6128">1</text><text fill="#000000" font-family="sans-serif" font-size="14.3" lengthAdjust="spacing" textLength="5.5" x="689.3936" y="273.1603">*</text><!--MD5=[9e2b536d5f14dafa66c4d5113ebdcad2]
link Category to Parameter--><path codeLine="35" d="M693.374,337.733 C690.041,362.087 685.025,398.684 681.67,423.137 " fill="none" id="Category-Parameter" style="stroke:#A80036;stroke-width:1.1;"/><polygon fill="#000000" points="694.2968,375.3443,689.743,384.7628,696.1487,385.6407,694.2968,375.3443" style="stroke:#000000;stroke-width:1.1;"/><text fill="#000000" font-family="sans-serif" font-size="14.3" lengthAdjust="spacing" textLength="102.3" x="703.45" y="386.6446">presented under</text><text fill="#000000" font-family="sans-serif" font-size="14.3" lengthAdjust="spacing" textLength="7.7" x="683.8883" y="361.2128">1</text><text fill="#000000" font-family="sans-serif" font-size="14.3" lengthAdjust="spacing" textLength="5.5" x="676.3577" y="411.7603">*</text><!--MD5=[4265453a012991a726928e22789b8a83]
link Parameter to Test--><path codeLine="37" d="M663.003,476.421 C657.008,486.596 650.122,498.454 644.05,509.3 C634.282,526.746 623.656,546.612 615.56,561.946 " fill="none" id="Parameter-Test" style="stroke:#A80036;stroke-width:1.1;"/><polygon fill="#000000" points="652.218,514.5838,644.5646,521.7162,650.2185,524.8526,652.218,514.5838" style="stroke:#000000;stroke-width:1.1;"/><text fill="#000000" font-family="sans-serif" font-size="14.3" lengthAdjust="spacing" textLength="127.6" x="659.45" y="525.2446">requests analysis of</text><text fill="#000000" font-family="sans-serif" font-size="14.3" lengthAdjust="spacing" textLength="22" x="634.6297" y="499.9223">1..*</text><text fill="#000000" font-family="sans-serif" font-size="14.3" lengthAdjust="spacing" textLength="5.5" x="612.766" y="550.1807">*</text><!--MD5=[ca29482912e344ebd5dc9db2d1c2ccab]
link Test to ClinicalAnalysisLaboratory--><path codeLine="39" d="M615.736,614.933 C628.694,639.287 648.175,675.884 661.188,700.337 " fill="none" id="Test-ClinicalAnalysisLaboratory" style="stroke:#A80036;stroke-width:1.1;"/><polygon fill="#000000" points="645.8661,653.1381,647.6866,663.4401,653.3943,660.4025,645.8661,653.1381" style="stroke:#000000;stroke-width:1.1;"/><text fill="#000000" font-family="sans-serif" font-size="14.3" lengthAdjust="spacing" textLength="55" x="658.35" y="663.8446">performs</text><text fill="#000000" font-family="sans-serif" font-size="14.3" lengthAdjust="spacing" textLength="5.5" x="612.8529" y="638.4128">*</text><text fill="#000000" font-family="sans-serif" font-size="14.3" lengthAdjust="spacing" textLength="5.5" x="651.6876" y="688.9603">*</text><!--MD5=[0985ee834cc881275852ed47ce1e01f6]
link TestType to Administrator--><path codeLine="41" d="M592.823,60.533 C614.427,84.887 646.888,121.484 668.58,145.937 " fill="none" id="TestType-Administrator" style="stroke:#A80036;stroke-width:1.1;"/><polygon fill="#000000" points="640.4002,99.4788,644.5843,109.0673,649.4212,104.7768,640.4002,99.4788" style="stroke:#000000;stroke-width:1.1;"/><text fill="#000000" font-family="sans-serif" font-size="14.3" lengthAdjust="spacing" textLength="47.3" x="653.95" y="109.4446">creates</text><text fill="#000000" font-family="sans-serif" font-size="14.3" lengthAdjust="spacing" textLength="5.5" x="592.1305" y="84.0128">*</text><text fill="#000000" font-family="sans-serif" font-size="14.3" lengthAdjust="spacing" textLength="7.7" x="654.3914" y="134.5603">1</text><!--MD5=[47855ee4dabeea37c5949a17ed9e3a41]
link ChemicalLaboratory to Sample--><path codeLine="43" d="M408.452,337.733 C421.993,362.087 442.365,398.684 455.972,423.137 " fill="none" id="ChemicalLaboratory-Sample" style="stroke:#A80036;stroke-width:1.1;"/><polygon fill="#000000" points="440.0758,375.9872,442.0885,386.2534,447.7384,383.1097,440.0758,375.9872" style="stroke:#000000;stroke-width:1.1;"/><text fill="#000000" font-family="sans-serif" font-size="14.3" lengthAdjust="spacing" textLength="42.9" x="452.65" y="386.6446">is sent</text><text fill="#000000" font-family="sans-serif" font-size="14.3" lengthAdjust="spacing" textLength="7.7" x="403.2509" y="361.2128">1</text><text fill="#000000" font-family="sans-serif" font-size="14.3" lengthAdjust="spacing" textLength="5.5" x="446.3214" y="411.7603">*</text><!--MD5=[b097d9d314264888b7dbeddc95343863]
link LabOrder to Client--><path codeLine="45" d="M840.543,337.733 C840.147,362.087 839.553,398.684 839.168,423.137 " fill="none" id="LabOrder-Client" style="stroke:#A80036;stroke-width:1.1;"/><polygon fill="#000000" points="845.4385,375.2941,842.046,385.1903,848.5108,385.2944,845.4385,375.2941" style="stroke:#000000;stroke-width:1.1;"/><text fill="#000000" font-family="sans-serif" font-size="14.3" lengthAdjust="spacing" textLength="82.5" x="855.25" y="386.6446">requested by</text><text fill="#000000" font-family="sans-serif" font-size="14.3" lengthAdjust="spacing" textLength="22" x="815.7625" y="361.2128">1..*</text><text fill="#000000" font-family="sans-serif" font-size="14.3" lengthAdjust="spacing" textLength="5.5" x="833.0996" y="411.7603">*</text><!--MD5=[175a2d48afbf9a0b6adf93e2e3d78e0d]
link Receptionist to SpecialistDoctor--><!--MD5=[285eb29bb1ffd98a519fe4b25ad0df10]
link Receptionist to MedicalLabTechnician--><!--MD5=[571ec15603c6196c86458276cd518ac2]
@startuml

class Company
class Sample
class Client
class Test
class ChemicalLaboratory
class TestType
class Category
class Parameter
class Administrator
class ClinicalAnalysisLaboratory
class Receptionist
class SpecialistDoctor
class MedicalLabTechnician
class LabOrder



ClinicalAnalysisLaboratory "*" - - "1" Company : < owns

ChemicalLaboratory "1" - - "1" Company : < owns

TestType "*" - - "1" Company : < conducts

Test "*" - - "1" Company : < performs

TestType "*" - - "1" Test: < is of

Sample "*" - - "1" Test : < collects

Client "1" - - "*" Test : < requested by

Administrator "1" - - "*" Category : < created by

Category "1" - - "*" Parameter : < presented under

Parameter "1..*" - - "*" Test : < requests analysis of

Test "*" - - "*" ClinicalAnalysisLaboratory : < performs

TestType "*" - - "1" Administrator : < creates

ChemicalLaboratory "1" - - "*" Sample : < is sent

LabOrder "1..*" - - "*" Client : < requested by

@enduml

PlantUML version 1.2021.4(Sun Apr 04 09:49:39 BST 2021)
(GPL source distribution)
Java Runtime: OpenJDK Runtime Environment
JVM: OpenJDK 64-Bit Server VM
Default Encoding: Cp1252
Language: pt
Country: PT
--></g></svg>