<?xml version="1.0" encoding="UTF-8" standalone="no"?><svg xmlns="http://www.w3.org/2000/svg" xmlns:xlink="http://www.w3.org/1999/xlink" contentScriptType="application/ecmascript" contentStyleType="text/css" height="863.55px" preserveAspectRatio="none" style="width:850px;height:863px;" version="1.1" viewBox="0 0 850 863" width="850.42px" zoomAndPan="magnify"><defs><filter height="300%" id="f6dmo893kj0wo" width="300%" x="-1" y="-1"><feGaussianBlur result="blurOut" stdDeviation="2.02"/><feColorMatrix in="blurOut" result="blurOut2" type="matrix" values="0 0 0 0 0 0 0 0 0 0 0 0 0 0 0 0 0 0 .4 0"/><feOffset dx="4.04" dy="4.04" in="blurOut2" result="blurOut3"/><feBlend in="SourceGraphic" in2="blurOut3" mode="normal"/></filter></defs><g><!--MD5=[02e4b9b7573f1156f41e60aa5b4e25a4]
class Company--><rect codeLine="2" fill="#FEFECE" filter="url(#f6dmo893kj0wo)" height="48.48" id="Company" style="stroke:#A80036;stroke-width:1.5150000000000001;" width="85.85" x="421.17" y="800.93"/><ellipse cx="436.32" cy="817.09" fill="#ADD1B2" rx="11.11" ry="11.11" style="stroke:#A80036;stroke-width:1.01;"/><path d="M438.34,813.555 Q438.5452,813.05 438.7819,812.7975 Q439.0186,812.545 439.2869,812.545 Q439.7603,812.545 440.0602,812.8291 Q440.36,813.1131 440.36,813.7759 L440.36,815.3541 Q440.36,816.0169 440.0759,816.3009 Q439.7919,816.585 439.35,816.585 Q438.9555,816.585 438.703,816.4114 Q438.4505,816.2378 438.34,815.7802 Q438.2927,815.4645 438.1191,815.2909 Q437.8034,814.9595 437.2353,814.7702 Q436.6672,814.565 436.0991,814.565 Q435.3889,814.565 434.7892,814.8491 Q434.2053,815.1331 433.7477,815.7644 Q433.29,816.3956 433.29,817.2636 L433.29,818.1947 Q433.29,819.2363 434.1422,819.9306 Q434.9944,820.625 436.5094,820.625 Q437.4089,820.625 438.0402,820.4198 Q438.4031,820.3094 438.8134,819.9464 Q439.0817,819.7413 439.2238,819.6781 Q439.3658,819.615 439.5394,819.615 Q439.8708,819.615 440.1075,819.8833 Q440.36,820.1358 440.36,820.4988 Q440.36,820.8459 440.0128,821.2563 Q439.5078,821.8559 438.703,822.1873 Q437.6456,822.645 436.3516,822.645 Q434.8366,822.645 433.6214,822.0453 Q432.643,821.5719 431.9486,820.5461 Q431.27,819.5203 431.27,818.3052 L431.27,817.2005 Q431.27,815.938 431.8697,814.8333 Q432.4852,813.7286 433.5425,813.1447 Q434.6156,812.545 435.815,812.545 Q436.5409,812.545 437.1722,812.7975 Q437.8034,813.05 438.34,813.555 Z " fill="#000000"/><text fill="#000000" font-family="sans-serif" font-size="12.12" lengthAdjust="spacing" textLength="53.53" x="450.46" y="822.0493">Company</text><line style="stroke:#A80036;stroke-width:1.5150000000000001;" x1="422.18" x2="506.01" y1="833.25" y2="833.25"/><line style="stroke:#A80036;stroke-width:1.5150000000000001;" x1="422.18" x2="506.01" y1="841.33" y2="841.33"/><!--MD5=[a64badb107d3691f2dc6af242cdbeb21]
class ChemicalLaboratory--><rect codeLine="3" fill="#FEFECE" filter="url(#f6dmo893kj0wo)" height="48.48" id="ChemicalLaboratory" style="stroke:#A80036;stroke-width:1.5150000000000001;" width="144.43" x="7.07" y="291.89"/><ellipse cx="22.22" cy="308.05" fill="#ADD1B2" rx="11.11" ry="11.11" style="stroke:#A80036;stroke-width:1.01;"/><path d="M24.24,304.515 Q24.4452,304.01 24.6819,303.7575 Q24.9186,303.505 25.1869,303.505 Q25.6603,303.505 25.9602,303.7891 Q26.26,304.0731 26.26,304.7359 L26.26,306.3141 Q26.26,306.9769 25.9759,307.2609 Q25.6919,307.545 25.25,307.545 Q24.8555,307.545 24.603,307.3714 Q24.3505,307.1978 24.24,306.7402 Q24.1927,306.4245 24.0191,306.2509 Q23.7034,305.9195 23.1353,305.7302 Q22.5672,305.525 21.9991,305.525 Q21.2889,305.525 20.6892,305.8091 Q20.1053,306.0931 19.6477,306.7244 Q19.19,307.3556 19.19,308.2236 L19.19,309.1547 Q19.19,310.1963 20.0422,310.8906 Q20.8944,311.585 22.4094,311.585 Q23.3089,311.585 23.9402,311.3798 Q24.3031,311.2694 24.7134,310.9064 Q24.9817,310.7013 25.1238,310.6381 Q25.2658,310.575 25.4394,310.575 Q25.7708,310.575 26.0075,310.8433 Q26.26,311.0958 26.26,311.4588 Q26.26,311.8059 25.9128,312.2163 Q25.4078,312.8159 24.603,313.1473 Q23.5456,313.605 22.2516,313.605 Q20.7366,313.605 19.5214,313.0053 Q18.543,312.5319 17.8486,311.5061 Q17.17,310.4803 17.17,309.2652 L17.17,308.1605 Q17.17,306.898 17.7697,305.7933 Q18.3852,304.6886 19.4425,304.1047 Q20.5156,303.505 21.715,303.505 Q22.4409,303.505 23.0722,303.7575 Q23.7034,304.01 24.24,304.515 Z " fill="#000000"/><text fill="#000000" font-family="sans-serif" font-size="12.12" lengthAdjust="spacing" textLength="112.11" x="36.36" y="313.0093">ChemicalLaboratory</text><line style="stroke:#A80036;stroke-width:1.5150000000000001;" x1="8.08" x2="150.49" y1="324.21" y2="324.21"/><line style="stroke:#A80036;stroke-width:1.5150000000000001;" x1="8.08" x2="150.49" y1="332.29" y2="332.29"/><!--MD5=[1934a092c0e7d4da7dc7075b6f4b6b03]
class ClinicalAnalysisLaboratory--><rect codeLine="4" fill="#FEFECE" filter="url(#f6dmo893kj0wo)" height="48.48" id="ClinicalAnalysisLaboratory" style="stroke:#A80036;stroke-width:1.5150000000000001;" width="178.77" x="254.52" y="673.67"/><ellipse cx="269.67" cy="689.83" fill="#ADD1B2" rx="11.11" ry="11.11" style="stroke:#A80036;stroke-width:1.01;"/><path d="M271.69,686.295 Q271.8952,685.79 272.1319,685.5375 Q272.3686,685.285 272.6369,685.285 Q273.1103,685.285 273.4102,685.5691 Q273.71,685.8531 273.71,686.5159 L273.71,688.0941 Q273.71,688.7569 273.4259,689.0409 Q273.1419,689.325 272.7,689.325 Q272.3055,689.325 272.053,689.1514 Q271.8005,688.9778 271.69,688.5202 Q271.6427,688.2045 271.4691,688.0309 Q271.1534,687.6995 270.5853,687.5102 Q270.0172,687.305 269.4491,687.305 Q268.7389,687.305 268.1392,687.5891 Q267.5553,687.8731 267.0977,688.5044 Q266.64,689.1356 266.64,690.0036 L266.64,690.9347 Q266.64,691.9763 267.4922,692.6706 Q268.3444,693.365 269.8594,693.365 Q270.7589,693.365 271.3902,693.1598 Q271.7531,693.0494 272.1634,692.6864 Q272.4317,692.4813 272.5738,692.4181 Q272.7158,692.355 272.8894,692.355 Q273.2208,692.355 273.4575,692.6233 Q273.71,692.8758 273.71,693.2388 Q273.71,693.5859 273.3628,693.9963 Q272.8578,694.5959 272.053,694.9273 Q270.9956,695.385 269.7016,695.385 Q268.1866,695.385 266.9714,694.7853 Q265.993,694.3119 265.2986,693.2861 Q264.62,692.2603 264.62,691.0452 L264.62,689.9405 Q264.62,688.678 265.2197,687.5733 Q265.8352,686.4686 266.8925,685.8847 Q267.9656,685.285 269.165,685.285 Q269.8909,685.285 270.5222,685.5375 Q271.1534,685.79 271.69,686.295 Z " fill="#000000"/><text fill="#000000" font-family="sans-serif" font-size="12.12" lengthAdjust="spacing" textLength="146.45" x="283.81" y="694.7893">ClinicalAnalysisLaboratory</text><line style="stroke:#A80036;stroke-width:1.5150000000000001;" x1="255.53" x2="432.28" y1="705.99" y2="705.99"/><line style="stroke:#A80036;stroke-width:1.5150000000000001;" x1="255.53" x2="432.28" y1="714.07" y2="714.07"/><!--MD5=[da547346deef918ea16944ba046651ef]
class Administrator--><rect codeLine="5" fill="#FEFECE" filter="url(#f6dmo893kj0wo)" height="48.48" id="Administrator" style="stroke:#A80036;stroke-width:1.5150000000000001;" width="106.05" x="223.21" y="134.33"/><ellipse cx="238.36" cy="150.49" fill="#ADD1B2" rx="11.11" ry="11.11" style="stroke:#A80036;stroke-width:1.01;"/><path d="M240.38,146.955 Q240.5852,146.45 240.8219,146.1975 Q241.0586,145.945 241.3269,145.945 Q241.8003,145.945 242.1002,146.2291 Q242.4,146.5131 242.4,147.1759 L242.4,148.7541 Q242.4,149.4169 242.1159,149.7009 Q241.8319,149.985 241.39,149.985 Q240.9955,149.985 240.743,149.8114 Q240.4905,149.6378 240.38,149.1802 Q240.3327,148.8645 240.1591,148.6909 Q239.8434,148.3595 239.2753,148.1702 Q238.7072,147.965 238.1391,147.965 Q237.4289,147.965 236.8292,148.2491 Q236.2453,148.5331 235.7877,149.1644 Q235.33,149.7956 235.33,150.6636 L235.33,151.5947 Q235.33,152.6363 236.1822,153.3306 Q237.0344,154.025 238.5494,154.025 Q239.4489,154.025 240.0802,153.8198 Q240.4431,153.7094 240.8534,153.3464 Q241.1217,153.1413 241.2638,153.0781 Q241.4058,153.015 241.5794,153.015 Q241.9108,153.015 242.1475,153.2833 Q242.4,153.5358 242.4,153.8988 Q242.4,154.2459 242.0528,154.6563 Q241.5478,155.2559 240.743,155.5873 Q239.6856,156.045 238.3916,156.045 Q236.8766,156.045 235.6614,155.4453 Q234.683,154.9719 233.9886,153.9461 Q233.31,152.9203 233.31,151.7052 L233.31,150.6005 Q233.31,149.338 233.9097,148.2333 Q234.5252,147.1286 235.5825,146.5447 Q236.6556,145.945 237.855,145.945 Q238.5809,145.945 239.2122,146.1975 Q239.8434,146.45 240.38,146.955 Z " fill="#000000"/><text fill="#000000" font-family="sans-serif" font-size="12.12" lengthAdjust="spacing" textLength="73.73" x="252.5" y="155.4493">Administrator</text><line style="stroke:#A80036;stroke-width:1.5150000000000001;" x1="224.22" x2="328.25" y1="166.65" y2="166.65"/><line style="stroke:#A80036;stroke-width:1.5150000000000001;" x1="224.22" x2="328.25" y1="174.73" y2="174.73"/><!--MD5=[7d96fd15f3014691d2fcaf89c5791e2a]
class SpecialistDoctor--><rect codeLine="6" fill="#FEFECE" filter="url(#f6dmo893kj0wo)" height="48.48" id="SpecialistDoctor" style="stroke:#A80036;stroke-width:1.5150000000000001;" width="123.22" x="520.655" y="7.07"/><ellipse cx="535.805" cy="23.23" fill="#ADD1B2" rx="11.11" ry="11.11" style="stroke:#A80036;stroke-width:1.01;"/><path d="M537.825,19.695 Q538.0302,19.19 538.2669,18.9375 Q538.5036,18.685 538.7719,18.685 Q539.2453,18.685 539.5452,18.9691 Q539.845,19.2531 539.845,19.9159 L539.845,21.4941 Q539.845,22.1569 539.5609,22.4409 Q539.2769,22.725 538.835,22.725 Q538.4405,22.725 538.188,22.5514 Q537.9355,22.3778 537.825,21.9202 Q537.7777,21.6045 537.6041,21.4309 Q537.2884,21.0995 536.7203,20.9102 Q536.1522,20.705 535.5841,20.705 Q534.8739,20.705 534.2742,20.9891 Q533.6903,21.2731 533.2327,21.9044 Q532.775,22.5356 532.775,23.4036 L532.775,24.3347 Q532.775,25.3763 533.6272,26.0706 Q534.4794,26.765 535.9944,26.765 Q536.8939,26.765 537.5252,26.5598 Q537.8881,26.4494 538.2984,26.0864 Q538.5667,25.8813 538.7088,25.8181 Q538.8508,25.755 539.0244,25.755 Q539.3558,25.755 539.5925,26.0233 Q539.845,26.2758 539.845,26.6388 Q539.845,26.9859 539.4978,27.3963 Q538.9928,27.9959 538.188,28.3273 Q537.1306,28.785 535.8366,28.785 Q534.3216,28.785 533.1064,28.1853 Q532.128,27.7119 531.4336,26.6861 Q530.755,25.6603 530.755,24.4452 L530.755,23.3405 Q530.755,22.078 531.3547,20.9733 Q531.9702,19.8686 533.0275,19.2847 Q534.1006,18.685 535.3,18.685 Q536.0259,18.685 536.6572,18.9375 Q537.2884,19.19 537.825,19.695 Z " fill="#000000"/><text fill="#000000" font-family="sans-serif" font-size="12.12" lengthAdjust="spacing" textLength="90.9" x="549.945" y="28.1893">SpecialistDoctor</text><line style="stroke:#A80036;stroke-width:1.5150000000000001;" x1="521.665" x2="642.865" y1="39.39" y2="39.39"/><line style="stroke:#A80036;stroke-width:1.5150000000000001;" x1="521.665" x2="642.865" y1="47.47" y2="47.47"/><!--MD5=[01931d41e78f8996acd44f6f0fd8de28]
class MedicalLabTechnician--><rect codeLine="7" fill="#FEFECE" filter="url(#f6dmo893kj0wo)" height="48.48" id="MedicalLabTechnician" style="stroke:#A80036;stroke-width:1.5150000000000001;" width="156.55" x="679.73" y="7.07"/><ellipse cx="694.88" cy="23.23" fill="#ADD1B2" rx="11.11" ry="11.11" style="stroke:#A80036;stroke-width:1.01;"/><path d="M696.9,19.695 Q697.1052,19.19 697.3419,18.9375 Q697.5786,18.685 697.8469,18.685 Q698.3203,18.685 698.6202,18.9691 Q698.92,19.2531 698.92,19.9159 L698.92,21.4941 Q698.92,22.1569 698.6359,22.4409 Q698.3519,22.725 697.91,22.725 Q697.5155,22.725 697.263,22.5514 Q697.0105,22.3778 696.9,21.9202 Q696.8527,21.6045 696.6791,21.4309 Q696.3634,21.0995 695.7953,20.9102 Q695.2272,20.705 694.6591,20.705 Q693.9489,20.705 693.3492,20.9891 Q692.7653,21.2731 692.3077,21.9044 Q691.85,22.5356 691.85,23.4036 L691.85,24.3347 Q691.85,25.3763 692.7022,26.0706 Q693.5544,26.765 695.0694,26.765 Q695.9689,26.765 696.6002,26.5598 Q696.9631,26.4494 697.3734,26.0864 Q697.6417,25.8813 697.7838,25.8181 Q697.9258,25.755 698.0994,25.755 Q698.4308,25.755 698.6675,26.0233 Q698.92,26.2758 698.92,26.6388 Q698.92,26.9859 698.5728,27.3963 Q698.0678,27.9959 697.263,28.3273 Q696.2056,28.785 694.9116,28.785 Q693.3966,28.785 692.1814,28.1853 Q691.203,27.7119 690.5086,26.6861 Q689.83,25.6603 689.83,24.4452 L689.83,23.3405 Q689.83,22.078 690.4297,20.9733 Q691.0452,19.8686 692.1025,19.2847 Q693.1756,18.685 694.375,18.685 Q695.1009,18.685 695.7322,18.9375 Q696.3634,19.19 696.9,19.695 Z " fill="#000000"/><text fill="#000000" font-family="sans-serif" font-size="12.12" lengthAdjust="spacing" textLength="124.23" x="709.02" y="28.1893">MedicalLabTechnician</text><line style="stroke:#A80036;stroke-width:1.5150000000000001;" x1="680.74" x2="835.27" y1="39.39" y2="39.39"/><line style="stroke:#A80036;stroke-width:1.5150000000000001;" x1="680.74" x2="835.27" y1="47.47" y2="47.47"/><!--MD5=[03960189e81aa2c066c762ffabbee709]
class Receptionist--><rect codeLine="8" fill="#FEFECE" filter="url(#f6dmo893kj0wo)" height="48.48" id="Receptionist" style="stroke:#A80036;stroke-width:1.5150000000000001;" width="102.01" x="512.07" y="546.41"/><ellipse cx="527.22" cy="562.57" fill="#ADD1B2" rx="11.11" ry="11.11" style="stroke:#A80036;stroke-width:1.01;"/><path d="M529.24,559.035 Q529.4452,558.53 529.6819,558.2775 Q529.9186,558.025 530.1869,558.025 Q530.6603,558.025 530.9602,558.3091 Q531.26,558.5931 531.26,559.2559 L531.26,560.8341 Q531.26,561.4969 530.9759,561.7809 Q530.6919,562.065 530.25,562.065 Q529.8555,562.065 529.603,561.8914 Q529.3505,561.7178 529.24,561.2602 Q529.1927,560.9445 529.0191,560.7709 Q528.7034,560.4395 528.1353,560.2502 Q527.5672,560.045 526.9991,560.045 Q526.2889,560.045 525.6892,560.3291 Q525.1053,560.6131 524.6477,561.2444 Q524.19,561.8756 524.19,562.7436 L524.19,563.6747 Q524.19,564.7163 525.0422,565.4106 Q525.8944,566.105 527.4094,566.105 Q528.3089,566.105 528.9402,565.8998 Q529.3031,565.7894 529.7134,565.4264 Q529.9817,565.2213 530.1238,565.1581 Q530.2658,565.095 530.4394,565.095 Q530.7708,565.095 531.0075,565.3633 Q531.26,565.6158 531.26,565.9788 Q531.26,566.3259 530.9128,566.7363 Q530.4078,567.3359 529.603,567.6673 Q528.5456,568.125 527.2516,568.125 Q525.7366,568.125 524.5214,567.5253 Q523.543,567.0519 522.8486,566.0261 Q522.17,565.0003 522.17,563.7852 L522.17,562.6805 Q522.17,561.418 522.7697,560.3133 Q523.3852,559.2086 524.4425,558.6247 Q525.5156,558.025 526.715,558.025 Q527.4409,558.025 528.0722,558.2775 Q528.7034,558.53 529.24,559.035 Z " fill="#000000"/><text fill="#000000" font-family="sans-serif" font-size="12.12" lengthAdjust="spacing" textLength="69.69" x="541.36" y="567.5293">Receptionist</text><line style="stroke:#A80036;stroke-width:1.5150000000000001;" x1="513.08" x2="613.07" y1="578.73" y2="578.73"/><line style="stroke:#A80036;stroke-width:1.5150000000000001;" x1="513.08" x2="613.07" y1="586.81" y2="586.81"/><!--MD5=[ed6624c6556d5e7b1bd23032162d20b7]
class Client--><rect codeLine="9" fill="#FEFECE" filter="url(#f6dmo893kj0wo)" height="48.48" id="Client" style="stroke:#A80036;stroke-width:1.5150000000000001;" width="64.64" x="467.125" y="419.15"/><ellipse cx="482.275" cy="435.31" fill="#ADD1B2" rx="11.11" ry="11.11" style="stroke:#A80036;stroke-width:1.01;"/><path d="M484.295,431.775 Q484.5002,431.27 484.7369,431.0175 Q484.9736,430.765 485.2419,430.765 Q485.7153,430.765 486.0152,431.0491 Q486.315,431.3331 486.315,431.9959 L486.315,433.5741 Q486.315,434.2369 486.0309,434.5209 Q485.7469,434.805 485.305,434.805 Q484.9105,434.805 484.658,434.6314 Q484.4055,434.4578 484.295,434.0002 Q484.2477,433.6845 484.0741,433.5109 Q483.7584,433.1795 483.1903,432.9902 Q482.6222,432.785 482.0541,432.785 Q481.3439,432.785 480.7442,433.0691 Q480.1603,433.3531 479.7027,433.9844 Q479.245,434.6156 479.245,435.4836 L479.245,436.4147 Q479.245,437.4563 480.0972,438.1506 Q480.9494,438.845 482.4644,438.845 Q483.3639,438.845 483.9952,438.6398 Q484.3581,438.5294 484.7684,438.1664 Q485.0367,437.9613 485.1788,437.8981 Q485.3208,437.835 485.4944,437.835 Q485.8258,437.835 486.0625,438.1033 Q486.315,438.3558 486.315,438.7188 Q486.315,439.0659 485.9678,439.4763 Q485.4628,440.0759 484.658,440.4073 Q483.6006,440.865 482.3066,440.865 Q480.7916,440.865 479.5764,440.2653 Q478.598,439.7919 477.9036,438.7661 Q477.225,437.7403 477.225,436.5252 L477.225,435.4205 Q477.225,434.158 477.8247,433.0533 Q478.4402,431.9486 479.4975,431.3647 Q480.5706,430.765 481.77,430.765 Q482.4959,430.765 483.1272,431.0175 Q483.7584,431.27 484.295,431.775 Z " fill="#000000"/><text fill="#000000" font-family="sans-serif" font-size="12.12" lengthAdjust="spacing" textLength="32.32" x="496.415" y="440.2693">Client</text><line style="stroke:#A80036;stroke-width:1.5150000000000001;" x1="468.135" x2="530.755" y1="451.47" y2="451.47"/><line style="stroke:#A80036;stroke-width:1.5150000000000001;" x1="468.135" x2="530.755" y1="459.55" y2="459.55"/><!--MD5=[a999c1570c205a2156b04a15307bc1ff]
class LabOrder--><rect codeLine="10" fill="#FEFECE" filter="url(#f6dmo893kj0wo)" height="48.48" id="LabOrder" style="stroke:#A80036;stroke-width:1.5150000000000001;" width="84.84" x="437.835" y="213.11"/><ellipse cx="452.985" cy="229.27" fill="#ADD1B2" rx="11.11" ry="11.11" style="stroke:#A80036;stroke-width:1.01;"/><path d="M455.005,225.735 Q455.2102,225.23 455.4469,224.9775 Q455.6836,224.725 455.9519,224.725 Q456.4253,224.725 456.7252,225.0091 Q457.025,225.2931 457.025,225.9559 L457.025,227.5341 Q457.025,228.1969 456.7409,228.4809 Q456.4569,228.765 456.015,228.765 Q455.6205,228.765 455.368,228.5914 Q455.1155,228.4178 455.005,227.9602 Q454.9577,227.6445 454.7841,227.4709 Q454.4684,227.1395 453.9003,226.9502 Q453.3322,226.745 452.7641,226.745 Q452.0539,226.745 451.4542,227.0291 Q450.8703,227.3131 450.4127,227.9444 Q449.955,228.5756 449.955,229.4436 L449.955,230.3747 Q449.955,231.4163 450.8072,232.1106 Q451.6594,232.805 453.1744,232.805 Q454.0739,232.805 454.7052,232.5998 Q455.0681,232.4894 455.4784,232.1264 Q455.7467,231.9213 455.8888,231.8581 Q456.0308,231.795 456.2044,231.795 Q456.5358,231.795 456.7725,232.0633 Q457.025,232.3158 457.025,232.6788 Q457.025,233.0259 456.6778,233.4363 Q456.1728,234.0359 455.368,234.3673 Q454.3106,234.825 453.0166,234.825 Q451.5016,234.825 450.2864,234.2253 Q449.308,233.7519 448.6136,232.7261 Q447.935,231.7003 447.935,230.4852 L447.935,229.3805 Q447.935,228.118 448.5347,227.0133 Q449.1502,225.9086 450.2075,225.3247 Q451.2806,224.725 452.48,224.725 Q453.2059,224.725 453.8372,224.9775 Q454.4684,225.23 455.005,225.735 Z " fill="#000000"/><text fill="#000000" font-family="sans-serif" font-size="12.12" lengthAdjust="spacing" textLength="52.52" x="467.125" y="234.2293">LabOrder</text><line style="stroke:#A80036;stroke-width:1.5150000000000001;" x1="438.845" x2="521.665" y1="245.43" y2="245.43"/><line style="stroke:#A80036;stroke-width:1.5150000000000001;" x1="438.845" x2="521.665" y1="253.51" y2="253.51"/><!--MD5=[a96594a83e2ecdc78cbf17c2ddf01934]
class Category--><rect codeLine="11" fill="#FEFECE" filter="url(#f6dmo893kj0wo)" height="48.48" id="Category" style="stroke:#A80036;stroke-width:1.5150000000000001;" width="81.81" x="218.16" y="291.89"/><ellipse cx="233.31" cy="308.05" fill="#ADD1B2" rx="11.11" ry="11.11" style="stroke:#A80036;stroke-width:1.01;"/><path d="M235.33,304.515 Q235.5352,304.01 235.7719,303.7575 Q236.0086,303.505 236.2769,303.505 Q236.7503,303.505 237.0502,303.7891 Q237.35,304.0731 237.35,304.7359 L237.35,306.3141 Q237.35,306.9769 237.0659,307.2609 Q236.7819,307.545 236.34,307.545 Q235.9455,307.545 235.693,307.3714 Q235.4405,307.1978 235.33,306.7402 Q235.2827,306.4245 235.1091,306.2509 Q234.7934,305.9195 234.2253,305.7302 Q233.6572,305.525 233.0891,305.525 Q232.3789,305.525 231.7792,305.8091 Q231.1953,306.0931 230.7377,306.7244 Q230.28,307.3556 230.28,308.2236 L230.28,309.1547 Q230.28,310.1963 231.1322,310.8906 Q231.9844,311.585 233.4994,311.585 Q234.3989,311.585 235.0302,311.3798 Q235.3931,311.2694 235.8034,310.9064 Q236.0717,310.7013 236.2138,310.6381 Q236.3558,310.575 236.5294,310.575 Q236.8608,310.575 237.0975,310.8433 Q237.35,311.0958 237.35,311.4588 Q237.35,311.8059 237.0028,312.2163 Q236.4978,312.8159 235.693,313.1473 Q234.6356,313.605 233.3416,313.605 Q231.8266,313.605 230.6114,313.0053 Q229.633,312.5319 228.9386,311.5061 Q228.26,310.4803 228.26,309.2652 L228.26,308.1605 Q228.26,306.898 228.8597,305.7933 Q229.4752,304.6886 230.5325,304.1047 Q231.6056,303.505 232.805,303.505 Q233.5309,303.505 234.1622,303.7575 Q234.7934,304.01 235.33,304.515 Z " fill="#000000"/><text fill="#000000" font-family="sans-serif" font-size="12.12" lengthAdjust="spacing" textLength="49.49" x="247.45" y="313.0093">Category</text><line style="stroke:#A80036;stroke-width:1.5150000000000001;" x1="219.17" x2="298.96" y1="324.21" y2="324.21"/><line style="stroke:#A80036;stroke-width:1.5150000000000001;" x1="219.17" x2="298.96" y1="332.29" y2="332.29"/><!--MD5=[1f6362a5c8f21d8d6a0fce68f3a92a4e]
class Parameter--><rect codeLine="12" fill="#FEFECE" filter="url(#f6dmo893kj0wo)" height="48.48" id="Parameter" style="stroke:#A80036;stroke-width:1.5150000000000001;" width="90.9" x="208.565" y="419.15"/><ellipse cx="223.715" cy="435.31" fill="#ADD1B2" rx="11.11" ry="11.11" style="stroke:#A80036;stroke-width:1.01;"/><path d="M225.735,431.775 Q225.9402,431.27 226.1769,431.0175 Q226.4136,430.765 226.6819,430.765 Q227.1553,430.765 227.4552,431.0491 Q227.755,431.3331 227.755,431.9959 L227.755,433.5741 Q227.755,434.2369 227.4709,434.5209 Q227.1869,434.805 226.745,434.805 Q226.3505,434.805 226.098,434.6314 Q225.8455,434.4578 225.735,434.0002 Q225.6877,433.6845 225.5141,433.5109 Q225.1984,433.1795 224.6303,432.9902 Q224.0622,432.785 223.4941,432.785 Q222.7839,432.785 222.1842,433.0691 Q221.6003,433.3531 221.1427,433.9844 Q220.685,434.6156 220.685,435.4836 L220.685,436.4147 Q220.685,437.4563 221.5372,438.1506 Q222.3894,438.845 223.9044,438.845 Q224.8039,438.845 225.4352,438.6398 Q225.7981,438.5294 226.2084,438.1664 Q226.4767,437.9613 226.6188,437.8981 Q226.7608,437.835 226.9344,437.835 Q227.2658,437.835 227.5025,438.1033 Q227.755,438.3558 227.755,438.7188 Q227.755,439.0659 227.4078,439.4763 Q226.9028,440.0759 226.098,440.4073 Q225.0406,440.865 223.7466,440.865 Q222.2316,440.865 221.0164,440.2653 Q220.038,439.7919 219.3436,438.7661 Q218.665,437.7403 218.665,436.5252 L218.665,435.4205 Q218.665,434.158 219.2647,433.0533 Q219.8802,431.9486 220.9375,431.3647 Q222.0106,430.765 223.21,430.765 Q223.9359,430.765 224.5672,431.0175 Q225.1984,431.27 225.735,431.775 Z " fill="#000000"/><text fill="#000000" font-family="sans-serif" font-size="12.12" lengthAdjust="spacing" textLength="58.58" x="237.855" y="440.2693">Parameter</text><line style="stroke:#A80036;stroke-width:1.5150000000000001;" x1="209.575" x2="298.455" y1="451.47" y2="451.47"/><line style="stroke:#A80036;stroke-width:1.5150000000000001;" x1="209.575" x2="298.455" y1="459.55" y2="459.55"/><!--MD5=[aeb3272166074d8737a70b61b1e71682]
class TestType--><rect codeLine="13" fill="#FEFECE" filter="url(#f6dmo893kj0wo)" height="48.48" id="TestType" style="stroke:#A80036;stroke-width:1.5150000000000001;" width="82.82" x="402.485" y="7.07"/><ellipse cx="417.635" cy="23.23" fill="#ADD1B2" rx="11.11" ry="11.11" style="stroke:#A80036;stroke-width:1.01;"/><path d="M419.655,19.695 Q419.8602,19.19 420.0969,18.9375 Q420.3336,18.685 420.6019,18.685 Q421.0753,18.685 421.3752,18.9691 Q421.675,19.2531 421.675,19.9159 L421.675,21.4941 Q421.675,22.1569 421.3909,22.4409 Q421.1069,22.725 420.665,22.725 Q420.2705,22.725 420.018,22.5514 Q419.7655,22.3778 419.655,21.9202 Q419.6077,21.6045 419.4341,21.4309 Q419.1184,21.0995 418.5503,20.9102 Q417.9822,20.705 417.4141,20.705 Q416.7039,20.705 416.1042,20.9891 Q415.5203,21.2731 415.0627,21.9044 Q414.605,22.5356 414.605,23.4036 L414.605,24.3347 Q414.605,25.3763 415.4572,26.0706 Q416.3094,26.765 417.8244,26.765 Q418.7239,26.765 419.3552,26.5598 Q419.7181,26.4494 420.1284,26.0864 Q420.3967,25.8813 420.5388,25.8181 Q420.6808,25.755 420.8544,25.755 Q421.1858,25.755 421.4225,26.0233 Q421.675,26.2758 421.675,26.6388 Q421.675,26.9859 421.3278,27.3963 Q420.8228,27.9959 420.018,28.3273 Q418.9606,28.785 417.6666,28.785 Q416.1516,28.785 414.9364,28.1853 Q413.958,27.7119 413.2636,26.6861 Q412.585,25.6603 412.585,24.4452 L412.585,23.3405 Q412.585,22.078 413.1847,20.9733 Q413.8002,19.8686 414.8575,19.2847 Q415.9306,18.685 417.13,18.685 Q417.8559,18.685 418.4872,18.9375 Q419.1184,19.19 419.655,19.695 Z " fill="#000000"/><text fill="#000000" font-family="sans-serif" font-size="12.12" lengthAdjust="spacing" textLength="50.5" x="431.775" y="28.1893">TestType</text><line style="stroke:#A80036;stroke-width:1.5150000000000001;" x1="403.495" x2="484.295" y1="39.39" y2="39.39"/><line style="stroke:#A80036;stroke-width:1.5150000000000001;" x1="403.495" x2="484.295" y1="47.47" y2="47.47"/><!--MD5=[df38be88ccee13e832d6fafd6288a4ca]
class Test--><rect codeLine="14" fill="#FEFECE" filter="url(#f6dmo893kj0wo)" height="48.48" id="Test" style="stroke:#A80036;stroke-width:1.5150000000000001;" width="56.56" x="348.955" y="546.41"/><ellipse cx="364.105" cy="562.57" fill="#ADD1B2" rx="11.11" ry="11.11" style="stroke:#A80036;stroke-width:1.01;"/><path d="M366.125,559.035 Q366.3302,558.53 366.5669,558.2775 Q366.8036,558.025 367.0719,558.025 Q367.5453,558.025 367.8452,558.3091 Q368.145,558.5931 368.145,559.2559 L368.145,560.8341 Q368.145,561.4969 367.8609,561.7809 Q367.5769,562.065 367.135,562.065 Q366.7405,562.065 366.488,561.8914 Q366.2355,561.7178 366.125,561.2602 Q366.0777,560.9445 365.9041,560.7709 Q365.5884,560.4395 365.0203,560.2502 Q364.4522,560.045 363.8841,560.045 Q363.1739,560.045 362.5742,560.3291 Q361.9903,560.6131 361.5327,561.2444 Q361.075,561.8756 361.075,562.7436 L361.075,563.6747 Q361.075,564.7163 361.9272,565.4106 Q362.7794,566.105 364.2944,566.105 Q365.1939,566.105 365.8252,565.8998 Q366.1881,565.7894 366.5984,565.4264 Q366.8667,565.2213 367.0088,565.1581 Q367.1508,565.095 367.3244,565.095 Q367.6558,565.095 367.8925,565.3633 Q368.145,565.6158 368.145,565.9788 Q368.145,566.3259 367.7978,566.7363 Q367.2928,567.3359 366.488,567.6673 Q365.4306,568.125 364.1366,568.125 Q362.6216,568.125 361.4064,567.5253 Q360.428,567.0519 359.7336,566.0261 Q359.055,565.0003 359.055,563.7852 L359.055,562.6805 Q359.055,561.418 359.6547,560.3133 Q360.2702,559.2086 361.3275,558.6247 Q362.4006,558.025 363.6,558.025 Q364.3259,558.025 364.9572,558.2775 Q365.5884,558.53 366.125,559.035 Z " fill="#000000"/><text fill="#000000" font-family="sans-serif" font-size="12.12" lengthAdjust="spacing" textLength="24.24" x="378.245" y="567.5293">Test</text><line style="stroke:#A80036;stroke-width:1.5150000000000001;" x1="349.965" x2="404.505" y1="578.73" y2="578.73"/><line style="stroke:#A80036;stroke-width:1.5150000000000001;" x1="349.965" x2="404.505" y1="586.81" y2="586.81"/><!--MD5=[9681492165142af2a4a3a169d90ee8d4]
class Sample--><rect codeLine="15" fill="#FEFECE" filter="url(#f6dmo893kj0wo)" height="48.48" id="Sample" style="stroke:#A80036;stroke-width:1.5150000000000001;" width="75.75" x="95.95" y="419.15"/><ellipse cx="111.1" cy="435.31" fill="#ADD1B2" rx="11.11" ry="11.11" style="stroke:#A80036;stroke-width:1.01;"/><path d="M113.12,431.775 Q113.3252,431.27 113.5619,431.0175 Q113.7986,430.765 114.0669,430.765 Q114.5403,430.765 114.8402,431.0491 Q115.14,431.3331 115.14,431.9959 L115.14,433.5741 Q115.14,434.2369 114.8559,434.5209 Q114.5719,434.805 114.13,434.805 Q113.7355,434.805 113.483,434.6314 Q113.2305,434.4578 113.12,434.0002 Q113.0727,433.6845 112.8991,433.5109 Q112.5834,433.1795 112.0153,432.9902 Q111.4472,432.785 110.8791,432.785 Q110.1689,432.785 109.5692,433.0691 Q108.9853,433.3531 108.5277,433.9844 Q108.07,434.6156 108.07,435.4836 L108.07,436.4147 Q108.07,437.4563 108.9222,438.1506 Q109.7744,438.845 111.2894,438.845 Q112.1889,438.845 112.8202,438.6398 Q113.1831,438.5294 113.5934,438.1664 Q113.8617,437.9613 114.0038,437.8981 Q114.1458,437.835 114.3194,437.835 Q114.6508,437.835 114.8875,438.1033 Q115.14,438.3558 115.14,438.7188 Q115.14,439.0659 114.7928,439.4763 Q114.2878,440.0759 113.483,440.4073 Q112.4256,440.865 111.1316,440.865 Q109.6166,440.865 108.4014,440.2653 Q107.423,439.7919 106.7286,438.7661 Q106.05,437.7403 106.05,436.5252 L106.05,435.4205 Q106.05,434.158 106.6497,433.0533 Q107.2652,431.9486 108.3225,431.3647 Q109.3956,430.765 110.595,430.765 Q111.3209,430.765 111.9522,431.0175 Q112.5834,431.27 113.12,431.775 Z " fill="#000000"/><text fill="#000000" font-family="sans-serif" font-size="12.12" lengthAdjust="spacing" textLength="43.43" x="125.24" y="440.2693">Sample</text><line style="stroke:#A80036;stroke-width:1.5150000000000001;" x1="96.96" x2="170.69" y1="451.47" y2="451.47"/><line style="stroke:#A80036;stroke-width:1.5150000000000001;" x1="96.96" x2="170.69" y1="459.55" y2="459.55"/><!--MD5=[fdfe1f7a1d4f9a6f0814f21c5f7b0d38]
link ClinicalAnalysisLaboratory to Company--><path codeLine="18" d="M366.226,722.1803 C387.6784,744.5417 419.9378,778.1444 441.4811,800.5967 " fill="none" id="ClinicalAnalysisLaboratory-Company" style="stroke:#A80036;stroke-width:1.01;"/><polygon fill="#000000" points="413.1283,758.074,417.3122,766.7206,421.5955,762.61,413.1283,758.074" style="stroke:#000000;stroke-width:1.01;"/><text fill="#000000" font-family="sans-serif" font-size="13.13" lengthAdjust="spacing" textLength="30.3" x="425.715" y="767.0901">owns</text><text fill="#000000" font-family="sans-serif" font-size="13.13" lengthAdjust="spacing" textLength="5.05" x="366.0013" y="743.739">*</text><text fill="#000000" font-family="sans-serif" font-size="13.13" lengthAdjust="spacing" textLength="7.07" x="428.0373" y="790.1508">1</text><!--MD5=[de3aa179ee7f21b344f648244b25a961]
link ChemicalLaboratory to Company--><path codeLine="20" d="M67.872,340.5316 C56.8832,365.2362 41.915,405.6261 41.915,442.38 C41.915,442.38 41.915,442.38 41.915,698.92 C41.915,777.3768 313.302,810.5351 420.8973,820.5947 " fill="none" id="ChemicalLaboratory-Company" style="stroke:#A80036;stroke-width:1.01;"/><polygon fill="#000000" points="43.9732,566.7592,46.9941,575.8775,51.7767,572.3604,43.9732,566.7592" style="stroke:#000000;stroke-width:1.01;"/><text fill="#000000" font-family="sans-serif" font-size="13.13" lengthAdjust="spacing" textLength="30.3" x="56.055" y="576.2001">owns</text><text fill="#000000" font-family="sans-serif" font-size="13.13" lengthAdjust="spacing" textLength="7.07" x="57.1584" y="362.1223">1</text><text fill="#000000" font-family="sans-serif" font-size="13.13" lengthAdjust="spacing" textLength="7.07" x="406.0872" y="815.9981">1</text><!--MD5=[6d9eb9a083ac0654c8b63743033752d3]
link TestType to Company--><path codeLine="22" d="M485.5474,50.8737 C550.3894,80.4162 668.115,136.8853 668.115,157.56 C668.115,157.56 668.115,157.56 668.115,698.92 C668.115,773.7307 567.2463,805.2528 507.3634,817.3829 " fill="none" id="TestType-Company" style="stroke:#A80036;stroke-width:1.01;"/><polygon fill="#000000" points="673.0213,438.5196,670.3141,447.7359,676.2483,447.567,673.0213,438.5196" style="stroke:#000000;stroke-width:1.01;"/><text fill="#000000" font-family="sans-serif" font-size="13.13" lengthAdjust="spacing" textLength="53.53" x="682.255" y="448.9401">conducts</text><text fill="#000000" font-family="sans-serif" font-size="13.13" lengthAdjust="spacing" textLength="5.05" x="493.4165" y="50.4209">*</text><text fill="#000000" font-family="sans-serif" font-size="13.13" lengthAdjust="spacing" textLength="7.07" x="515.1152" y="812.2544">1</text><!--MD5=[150ee6e4dbb30ab82336f9e174f6c4ed]
link Test to Company--><path codeLine="24" d="M405.6362,591.6479 C416.7563,600.748 428.7551,612.363 436.825,625.19 C471.5286,680.3865 470.0843,761.1057 466.7816,800.6169 " fill="none" id="Test-Company" style="stroke:#A80036;stroke-width:1.01;"/><polygon fill="#000000" points="470.7568,693.2408,470.4735,702.8423,476.1712,701.1751,470.7568,693.2408" style="stroke:#000000;stroke-width:1.01;"/><text fill="#000000" font-family="sans-serif" font-size="13.13" lengthAdjust="spacing" textLength="50.5" x="481.265" y="703.4601">performs</text><text fill="#000000" font-family="sans-serif" font-size="13.13" lengthAdjust="spacing" textLength="5.05" x="413.561" y="592.4737">*</text><text fill="#000000" font-family="sans-serif" font-size="13.13" lengthAdjust="spacing" textLength="7.07" x="459.4942" y="789.7702">1</text><!--MD5=[c2c6b28b052a3fe86d789b83a09b2815]
link TestType to Test--><path codeLine="26" d="M426.6341,55.9439 C410.6559,80.1839 389.355,119.6143 389.355,157.56 C389.355,157.56 389.355,157.56 389.355,444.4 C389.355,480.0025 384.4464,521.0489 380.871,546.1575 " fill="none" id="TestType-Test" style="stroke:#A80036;stroke-width:1.01;"/><polygon fill="#000000" points="394.8744,311.2794,391.0698,320.0995,396.9807,320.6513,394.8744,311.2794" style="stroke:#000000;stroke-width:1.01;"/><text fill="#000000" font-family="sans-serif" font-size="13.13" lengthAdjust="spacing" textLength="24.24" x="403.495" y="321.6801">is of</text><text fill="#000000" font-family="sans-serif" font-size="13.13" lengthAdjust="spacing" textLength="5.05" x="417.0086" y="77.1801">*</text><text fill="#000000" font-family="sans-serif" font-size="13.13" lengthAdjust="spacing" textLength="7.07" x="373.8269" y="535.3264">1</text><!--MD5=[1ae83efc6d1967ce5bc17dfe294d00c2]
link Sample to Test--><path codeLine="28" d="M135.946,467.9027 C138.6124,483.6789 144.6017,503.7678 158.065,516.11 C185.8501,541.5923 295.7785,559.0148 348.6015,566.0949 " fill="none" id="Sample-Test" style="stroke:#A80036;stroke-width:1.01;"/><polygon fill="#000000" points="158.5302,505.0805,165.5799,511.6051,168.0686,506.2153,158.5302,505.0805" style="stroke:#000000;stroke-width:1.01;"/><text fill="#000000" font-family="sans-serif" font-size="13.13" lengthAdjust="spacing" textLength="45.45" x="172.205" y="512.5701">collects</text><text fill="#000000" font-family="sans-serif" font-size="13.13" lengthAdjust="spacing" textLength="5.05" x="130.7975" y="489.5205">*</text><text fill="#000000" font-family="sans-serif" font-size="13.13" lengthAdjust="spacing" textLength="7.07" x="333.6904" y="560.5284">1</text><!--MD5=[502b51bc079239060389dab43b7d3470]
link Client to Test--><path codeLine="30" d="M472.6497,467.8118 C462.479,476.9725 450.9246,487.729 440.865,497.93 C425.5635,513.4638 409.2621,531.8761 396.9805,546.1575 " fill="none" id="Client-Test" style="stroke:#A80036;stroke-width:1.01;"/><polygon fill="#000000" points="449.4233,503.5651,440.9417,508.0741,445.2118,512.1983,449.4233,503.5651" style="stroke:#000000;stroke-width:1.01;"/><text fill="#000000" font-family="sans-serif" font-size="13.13" lengthAdjust="spacing" textLength="75.75" x="455.005" y="512.5701">requested by</text><text fill="#000000" font-family="sans-serif" font-size="13.13" lengthAdjust="spacing" textLength="7.07" x="458.1867" y="489.4075">1</text><text fill="#000000" font-family="sans-serif" font-size="13.13" lengthAdjust="spacing" textLength="5.05" x="396.3433" y="535.3264">*</text><!--MD5=[7d17329589c8a1a28e6f8826215bde21]
link Administrator to Category--><path codeLine="32" d="M273.6595,182.8706 C270.4275,212.1909 264.9028,262.2768 261.6506,291.6779 " fill="none" id="Administrator-Category" style="stroke:#A80036;stroke-width:1.01;"/><polygon fill="#000000" points="276.789,232.508,272.8364,241.2628,278.7372,241.914,276.789,232.508" style="stroke:#000000;stroke-width:1.01;"/><text fill="#000000" font-family="sans-serif" font-size="13.13" lengthAdjust="spacing" textLength="61.61" x="285.325" y="242.9001">created by</text><text fill="#000000" font-family="sans-serif" font-size="13.13" lengthAdjust="spacing" textLength="7.07" x="265.1001" y="204.4367">1</text><text fill="#000000" font-family="sans-serif" font-size="13.13" lengthAdjust="spacing" textLength="5.05" x="256.6161" y="280.8571">*</text><!--MD5=[9e2b536d5f14dafa66c4d5113ebdcad2]
link Category to Parameter--><path codeLine="34" d="M256.3784,340.5619 C255.429,349.9145 254.4796,360.7821 254.015,370.67 C253.2575,386.8401 253.2676,405.0807 253.4595,419.1096 " fill="none" id="Category-Parameter" style="stroke:#A80036;stroke-width:1.01;"/><polygon fill="#000000" points="259.2525,374.891,255.947,383.91,261.8796,384.1305,259.2525,374.891" style="stroke:#000000;stroke-width:1.01;"/><text fill="#000000" font-family="sans-serif" font-size="13.13" lengthAdjust="spacing" textLength="93.93" x="268.155" y="385.3101">presented under</text><text fill="#000000" font-family="sans-serif" font-size="13.13" lengthAdjust="spacing" textLength="7.07" x="247.7919" y="362.16">1</text><text fill="#000000" font-family="sans-serif" font-size="13.13" lengthAdjust="spacing" textLength="5.05" x="247.6201" y="408.3328">*</text><!--MD5=[4265453a012991a726928e22789b8a83]
link Parameter to Test--><path codeLine="36" d="M236.3703,467.9431 C227.5732,482.7598 220.7355,501.7377 230.785,516.11 C257.4692,554.2678 314.4029,565.3172 348.8944,568.4583 " fill="none" id="Parameter-Test" style="stroke:#A80036;stroke-width:1.01;"/><polygon fill="#000000" points="232.0688,503.8333,236.9045,512.133,240.8594,507.7056,232.0688,503.8333" style="stroke:#000000;stroke-width:1.01;"/><text fill="#000000" font-family="sans-serif" font-size="13.13" lengthAdjust="spacing" textLength="117.16" x="244.925" y="512.5701">requests analysis of</text><text fill="#000000" font-family="sans-serif" font-size="13.13" lengthAdjust="spacing" textLength="20.2" x="209.7543" y="489.1606">1..*</text><text fill="#000000" font-family="sans-serif" font-size="13.13" lengthAdjust="spacing" textLength="5.05" x="335.9351" y="583.6427">*</text><!--MD5=[ca29482912e344ebd5dc9db2d1c2ccab]
link Test to ClinicalAnalysisLaboratory--><path codeLine="38" d="M371.0437,594.9203 C365.0948,617.2817 356.1563,650.8844 350.1771,673.3367 " fill="none" id="Test-ClinicalAnalysisLaboratory" style="stroke:#A80036;stroke-width:1.01;"/><polygon fill="#000000" points="369.4436,629.5774,364.2259,637.6424,369.9629,639.169,369.4436,629.5774" style="stroke:#000000;stroke-width:1.01;"/><text fill="#000000" font-family="sans-serif" font-size="13.13" lengthAdjust="spacing" textLength="50.5" x="377.235" y="639.8301">performs</text><text fill="#000000" font-family="sans-serif" font-size="13.13" lengthAdjust="spacing" textLength="5.05" x="363.8691" y="616.479">*</text><text fill="#000000" font-family="sans-serif" font-size="13.13" lengthAdjust="spacing" textLength="5.05" x="346.0405" y="662.8908">*</text><!--MD5=[0985ee834cc881275852ed47ce1e01f6]
link TestType to Administrator--><path codeLine="40" d="M402.4244,39.0062 C371.8113,45.9247 331.0275,59.5698 304.515,85.85 C291.3951,98.8487 284.2039,118.675 280.3558,134.1886 " fill="none" id="TestType-Administrator" style="stroke:#A80036;stroke-width:1.01;"/><polygon fill="#000000" points="313.5474,92.0123,304.5179,95.289,308.1684,99.9706,313.5474,92.0123" style="stroke:#000000;stroke-width:1.01;"/><text fill="#000000" font-family="sans-serif" font-size="13.13" lengthAdjust="spacing" textLength="43.43" x="318.655" y="100.4901">creates</text><text fill="#000000" font-family="sans-serif" font-size="13.13" lengthAdjust="spacing" textLength="5.05" x="389.2627" y="36.4382">*</text><text fill="#000000" font-family="sans-serif" font-size="13.13" lengthAdjust="spacing" textLength="7.07" x="273.4359" y="123.3859">1</text><!--MD5=[47855ee4dabeea37c5949a17ed9e3a41]
link ChemicalLaboratory to Sample--><path codeLine="42" d="M89.4153,340.4003 C99.1517,362.7617 113.7866,396.3644 123.5634,418.8167 " fill="none" id="ChemicalLaboratory-Sample" style="stroke:#A80036;stroke-width:1.01;"/><polygon fill="#000000" points="113.6288,375.3075,114.5547,384.8684,119.9976,382.4982,113.6288,375.3075" style="stroke:#000000;stroke-width:1.01;"/><text fill="#000000" font-family="sans-serif" font-size="13.13" lengthAdjust="spacing" textLength="39.39" x="124.735" y="385.3101">is sent</text><text fill="#000000" font-family="sans-serif" font-size="13.13" lengthAdjust="spacing" textLength="7.07" x="83.9529" y="361.959">1</text><text fill="#000000" font-family="sans-serif" font-size="13.13" lengthAdjust="spacing" textLength="5.05" x="115.3967" y="408.3708">*</text><!--MD5=[b097d9d314264888b7dbeddc95343863]
link LabOrder to Client--><path codeLine="44" d="M482.4568,261.7617 C486.1433,301.0103 493.5466,379.659 497.2432,418.9379 " fill="none" id="LabOrder-Client" style="stroke:#A80036;stroke-width:1.01;"/><polygon fill="#000000" points="495.878,321.3353,497.9776,311.9619,492.0671,312.518,495.878,321.3353" style="stroke:#000000;stroke-width:1.01;"/><text fill="#000000" font-family="sans-serif" font-size="13.13" lengthAdjust="spacing" textLength="75.75" x="504.495" y="321.6801">requested by</text><text fill="#000000" font-family="sans-serif" font-size="13.13" lengthAdjust="spacing" textLength="20.2" x="460.3316" y="283.3549">1..*</text><text fill="#000000" font-family="sans-serif" font-size="13.13" lengthAdjust="spacing" textLength="5.05" x="490.982" y="408.1171">*</text><!--MD5=[df02e8987f6870a0052669ffdc0b53df]
link TestType to LabOrder--><path codeLine="46" d="M448.0663,55.7217 C455.0656,94.9703 469.0743,173.619 476.0736,212.8979 " fill="none" id="TestType-LabOrder" style="stroke:#A80036;stroke-width:1.01;"/><polygon fill="#000000" points="460.1791,90.1459,458.8594,99.6604,464.704,98.619,460.1791,90.1459" style="stroke:#000000;stroke-width:1.01;"/><text fill="#000000" font-family="sans-serif" font-size="13.13" lengthAdjust="spacing" textLength="49.49" x="470.155" y="100.4901">contains</text><text fill="#000000" font-family="sans-serif" font-size="13.13" lengthAdjust="spacing" textLength="7.07" x="441.1514" y="77.3149">1</text><text fill="#000000" font-family="sans-serif" font-size="13.13" lengthAdjust="spacing" textLength="7.07" x="467.0263" y="202.0771">1</text><!--MD5=[7048eb257bae2750d747ca61a113ed73]
link Client to Receptionist--><path codeLine="48" d="M519.7662,467.7714 C526.8362,476.7604 534.3607,487.3957 539.845,497.93 C547.824,513.2517 553.7426,531.8357 557.621,546.2484 " fill="none" id="Client-Receptionist" style="stroke:#A80036;stroke-width:1.01;"/><polygon fill="#000000" points="550.781,502.6491,552.0765,512.167,557.4235,509.5877,550.781,502.6491" style="stroke:#000000;stroke-width:1.01;"/><text fill="#000000" font-family="sans-serif" font-size="13.13" lengthAdjust="spacing" textLength="50.5" x="562.065" y="512.5701">registers</text><text fill="#000000" font-family="sans-serif" font-size="13.13" lengthAdjust="spacing" textLength="5.05" x="519.054" y="489.3572">*</text><text fill="#000000" font-family="sans-serif" font-size="13.13" lengthAdjust="spacing" textLength="20.2" x="533.4353" y="535.4406">1..*</text><!--MD5=[6cd0a3af2322bf46f6c633408da71c74]
link Receptionist to ClinicalAnalysisLaboratory--><path codeLine="50" d="M522.3619,594.9203 C483.1234,617.3524 424.0586,651.0965 384.7696,673.5488 " fill="none" id="Receptionist-ClinicalAnalysisLaboratory" style="stroke:#A80036;stroke-width:1.01;"/><polygon fill="#000000" points="467.7904,636.9631,477.1949,635.0076,474.2494,629.8533,467.7904,636.9631" style="stroke:#000000;stroke-width:1.01;"/><text fill="#000000" font-family="sans-serif" font-size="13.13" lengthAdjust="spacing" textLength="52.52" x="481.265" y="639.8301">works for</text><text fill="#000000" font-family="sans-serif" font-size="13.13" lengthAdjust="spacing" textLength="20.2" x="489.7762" y="616.479">1..*</text><!--MD5=[32477ec324dfc97c5c3763c62756e379]
@startuml

class Company
class ChemicalLaboratory
class ClinicalAnalysisLaboratory
class Administrator
class SpecialistDoctor
class MedicalLabTechnician
class Receptionist
class Client
class LabOrder
class Category
class Parameter
class TestType
class Test
class Sample


ClinicalAnalysisLaboratory "*" - - "1" Company : < owns

ChemicalLaboratory "1" - - "1" Company : < owns

TestType "*" - - "1" Company : < conducts

Test "*" - - "1" Company : < performs

TestType "*" - - "1" Test: < is of

Sample "*" - - "1" Test : < collects

Client "1" - - "*" Test : < requested by

Administrator "1" - - "*" Category : < created by

Category "1" - - "*" Parameter : < presented under

Parameter "1..*" - - "*" Test : < requests analysis of

Test "*" - - "*" ClinicalAnalysisLaboratory : < performs

TestType "*" - - "1" Administrator : < creates

ChemicalLaboratory "1" - - "*" Sample : < is sent

LabOrder "1..*" - - "*" Client : requested by >

TestType "1" - - "1" LabOrder : < contains

Client "*" - - "1..*" Receptionist : < registers

Receptionist "1..*" - - ClinicalAnalysisLaboratory : works for >




@enduml

PlantUML version 1.2021.4(Sun Apr 04 09:49:39 BST 2021)
(GPL source distribution)
Java Runtime: OpenJDK Runtime Environment
JVM: OpenJDK 64-Bit Server VM
Default Encoding: Cp1252
Language: pt
Country: PT
--></g></svg>