<?xml version="1.0" encoding="UTF-8" standalone="no"?><svg xmlns="http://www.w3.org/2000/svg" xmlns:xlink="http://www.w3.org/1999/xlink" contentScriptType="application/ecmascript" contentStyleType="text/css" height="1302px" preserveAspectRatio="none" style="width:612px;height:1302px;" version="1.1" viewBox="0 0 612 1302" width="612px" zoomAndPan="magnify"><defs><filter height="300%" id="fmmhcz7dr5t3r" width="300%" x="-1" y="-1"><feGaussianBlur result="blurOut" stdDeviation="2.0"/><feColorMatrix in="blurOut" result="blurOut2" type="matrix" values="0 0 0 0 0 0 0 0 0 0 0 0 0 0 0 0 0 0 .4 0"/><feOffset dx="4.0" dy="4.0" in="blurOut2" result="blurOut3"/><feBlend in="SourceGraphic" in2="blurOut3" mode="normal"/></filter></defs><g><ellipse cx="414.6626" cy="1185.0325" fill="#FEFECE" filter="url(#fmmhcz7dr5t3r)" rx="98.1626" ry="22.0325" style="stroke:#A80036;stroke-width:1.5;"/><text fill="#000000" font-family="sans-serif" font-size="14" lengthAdjust="spacingAndGlyphs" textLength="172" x="328.6626" y="1189.681">US1 - Register as a client</text><ellipse cx="414.6701" cy="1266.134" fill="#FEFECE" filter="url(#fmmhcz7dr5t3r)" rx="108.6701" ry="24.134" style="stroke:#A80036;stroke-width:1.5;"/><text fill="#000000" font-family="sans-serif" font-size="14" lengthAdjust="spacingAndGlyphs" textLength="195" x="317.1701" y="1270.7825">US2 - Quick blood/swab test</text><ellipse cx="414.5751" cy="971.215" fill="#FEFECE" filter="url(#fmmhcz7dr5t3r)" rx="104.0751" ry="23.215" style="stroke:#A80036;stroke-width:1.5;"/><text fill="#000000" font-family="sans-serif" font-size="14" lengthAdjust="spacingAndGlyphs" textLength="185" x="322.0751" y="975.8635">US3 - Register a new client</text><ellipse cx="414.4703" cy="1065.8941" fill="#FEFECE" filter="url(#fmmhcz7dr5t3r)" rx="172.4703" ry="36.8941" style="stroke:#A80036;stroke-width:1.5;"/><text fill="#000000" font-family="sans-serif" font-size="14" lengthAdjust="spacingAndGlyphs" textLength="329" x="249.9703" y="1070.5425">US4 - Register a test to be performed to a client</text><ellipse cx="414.6502" cy="796.93" fill="#FEFECE" filter="url(#fmmhcz7dr5t3r)" rx="122.6502" ry="26.93" style="stroke:#A80036;stroke-width:1.5;"/><text fill="#000000" font-family="sans-serif" font-size="14" lengthAdjust="spacingAndGlyphs" textLength="225" x="302.1502" y="801.5785">US5 - Record given test samples</text><ellipse cx="414.2717" cy="886.0543" fill="#FEFECE" filter="url(#fmmhcz7dr5t3r)" rx="120.7717" ry="26.5543" style="stroke:#A80036;stroke-width:1.5;"/><text fill="#000000" font-family="sans-serif" font-size="14" lengthAdjust="spacingAndGlyphs" textLength="221" x="303.7717" y="890.7028">US6 - Associate sample to client</text><ellipse cx="414.3872" cy="420.7774" fill="#FEFECE" filter="url(#fmmhcz7dr5t3r)" rx="91.8872" ry="20.7774" style="stroke:#A80036;stroke-width:1.5;"/><text fill="#000000" font-family="sans-serif" font-size="14" lengthAdjust="spacingAndGlyphs" textLength="158" x="335.3872" y="425.4259">US7 - Receive samples</text><ellipse cx="414.6032" cy="517.0206" fill="#FEFECE" filter="url(#fmmhcz7dr5t3r)" rx="185.6032" ry="39.5206" style="stroke:#A80036;stroke-width:1.5;"/><text fill="#000000" font-family="sans-serif" font-size="14" lengthAdjust="spacingAndGlyphs" textLength="356" x="236.6032" y="521.6691">US8 - Perform chemical analysis and register results</text><ellipse cx="414.4506" cy="702.9901" fill="#FEFECE" filter="url(#fmmhcz7dr5t3r)" rx="145.4506" ry="31.4901" style="stroke:#A80036;stroke-width:1.5;"/><text fill="#000000" font-family="sans-serif" font-size="14" lengthAdjust="spacingAndGlyphs" textLength="273" x="277.9506" y="707.6386">US9 - Make diagnosis and write a report</text><ellipse cx="414.6894" cy="333.9379" fill="#FEFECE" filter="url(#fmmhcz7dr5t3r)" rx="140.1894" ry="30.4379" style="stroke:#A80036;stroke-width:1.5;"/><text fill="#000000" font-family="sans-serif" font-size="14" lengthAdjust="spacingAndGlyphs" textLength="262" x="283.6894" y="338.5863">US10 - Validate and check test results</text><ellipse cx="414.4738" cy="613.8948" fill="#FEFECE" filter="url(#fmmhcz7dr5t3r)" rx="99.9738" ry="22.3948" style="stroke:#A80036;stroke-width:1.5;"/><text fill="#000000" font-family="sans-serif" font-size="14" lengthAdjust="spacingAndGlyphs" textLength="176" x="326.4738" y="618.5432">US11 - Check test results</text><ellipse cx="414.4942" cy="31.8988" fill="#FEFECE" filter="url(#fmmhcz7dr5t3r)" rx="117.4942" ry="25.8988" style="stroke:#A80036;stroke-width:1.5;"/><text fill="#000000" font-family="sans-serif" font-size="14" lengthAdjust="spacingAndGlyphs" textLength="214" x="307.4942" y="36.5473">US12 - Specify new type of test</text><ellipse cx="414.7461" cy="131.9492" fill="#FEFECE" filter="url(#fmmhcz7dr5t3r)" rx="180.2461" ry="38.4492" style="stroke:#A80036;stroke-width:1.5;"/><text fill="#000000" font-family="sans-serif" font-size="14" lengthAdjust="spacingAndGlyphs" textLength="345" x="242.2461" y="136.5977">US13 - Specify and categorize new test parameter</text><ellipse cx="414.4927" cy="236.7985" fill="#FEFECE" filter="url(#fmmhcz7dr5t3r)" rx="144.4927" ry="31.2985" style="stroke:#A80036;stroke-width:1.5;"/><text fill="#000000" font-family="sans-serif" font-size="14" lengthAdjust="spacingAndGlyphs" textLength="271" x="278.9927" y="241.447">US14 - Specify new parameter category</text><!--MD5=[1364da7149c555d30494bbf5399437dc]
entity NC--><ellipse cx="87.5" cy="1167" fill="#FEFECE" filter="url(#fmmhcz7dr5t3r)" rx="8" ry="8" style="stroke:#A80036;stroke-width:1.5;"/><path d="M87.5,1175 L87.5,1202 M74.5,1183 L100.5,1183 M87.5,1202 L74.5,1217 M87.5,1202 L100.5,1217 " fill="none" filter="url(#fmmhcz7dr5t3r)" style="stroke:#A80036;stroke-width:1.5;"/><text fill="#000000" font-family="sans-serif" font-size="14" lengthAdjust="spacingAndGlyphs" textLength="73" x="51" y="1235.4951">New Client</text><!--MD5=[e6f50d5c7be293f9ad4811f22e771899]
entity RCP--><ellipse cx="87.5" cy="1022" fill="#FEFECE" filter="url(#fmmhcz7dr5t3r)" rx="8" ry="8" style="stroke:#A80036;stroke-width:1.5;"/><path d="M87.5,1030 L87.5,1057 M74.5,1038 L100.5,1038 M87.5,1057 L74.5,1072 M87.5,1057 L100.5,1072 " fill="none" filter="url(#fmmhcz7dr5t3r)" style="stroke:#A80036;stroke-width:1.5;"/><text fill="#000000" font-family="sans-serif" font-size="14" lengthAdjust="spacingAndGlyphs" textLength="87" x="44" y="1090.4951">Receptionist</text><!--MD5=[e7d38603a700bedb049d1f5e1789c8aa]
entity MLT--><ellipse cx="87.5" cy="822" fill="#FEFECE" filter="url(#fmmhcz7dr5t3r)" rx="8" ry="8" style="stroke:#A80036;stroke-width:1.5;"/><path d="M87.5,830 L87.5,857 M74.5,838 L100.5,838 M87.5,857 L74.5,872 M87.5,857 L100.5,872 " fill="none" filter="url(#fmmhcz7dr5t3r)" style="stroke:#A80036;stroke-width:1.5;"/><text fill="#000000" font-family="sans-serif" font-size="14" lengthAdjust="spacingAndGlyphs" textLength="159" x="8" y="890.4951">Medical Lab Technician</text><!--MD5=[87439e3fb2bd72484276c19727d934ee]
entity CT--><ellipse cx="87.5" cy="486" fill="#FEFECE" filter="url(#fmmhcz7dr5t3r)" rx="8" ry="8" style="stroke:#A80036;stroke-width:1.5;"/><path d="M87.5,494 L87.5,521 M74.5,502 L100.5,502 M87.5,521 L74.5,536 M87.5,521 L100.5,536 " fill="none" filter="url(#fmmhcz7dr5t3r)" style="stroke:#A80036;stroke-width:1.5;"/><text fill="#000000" font-family="sans-serif" font-size="14" lengthAdjust="spacingAndGlyphs" textLength="163" x="6" y="554.4951">Chemistry Technologist</text><!--MD5=[f0e91d5aa74c2411969e7ef072c6f268]
entity SD--><ellipse cx="87.5" cy="637" fill="#FEFECE" filter="url(#fmmhcz7dr5t3r)" rx="8" ry="8" style="stroke:#A80036;stroke-width:1.5;"/><path d="M87.5,645 L87.5,672 M74.5,653 L100.5,653 M87.5,672 L74.5,687 M87.5,672 L100.5,687 " fill="none" filter="url(#fmmhcz7dr5t3r)" style="stroke:#A80036;stroke-width:1.5;"/><text fill="#000000" font-family="sans-serif" font-size="14" lengthAdjust="spacingAndGlyphs" textLength="116" x="29.5" y="705.4951">Specialist Doctor</text><!--MD5=[b0100dfa164aec77c855c16afe11d7ec]
entity LC--><ellipse cx="87.5" cy="303" fill="#FEFECE" filter="url(#fmmhcz7dr5t3r)" rx="8" ry="8" style="stroke:#A80036;stroke-width:1.5;"/><path d="M87.5,311 L87.5,338 M74.5,319 L100.5,319 M87.5,338 L74.5,353 M87.5,338 L100.5,353 " fill="none" filter="url(#fmmhcz7dr5t3r)" style="stroke:#A80036;stroke-width:1.5;"/><text fill="#000000" font-family="sans-serif" font-size="14" lengthAdjust="spacingAndGlyphs" textLength="109" x="33" y="371.4951">Lab Coordinator</text><!--MD5=[5bb58f447e60c14e9d23282c6a4405f4]
entity ADM--><ellipse cx="87.5" cy="101" fill="#FEFECE" filter="url(#fmmhcz7dr5t3r)" rx="8" ry="8" style="stroke:#A80036;stroke-width:1.5;"/><path d="M87.5,109 L87.5,136 M74.5,117 L100.5,117 M87.5,136 L74.5,151 M87.5,136 L100.5,151 " fill="none" filter="url(#fmmhcz7dr5t3r)" style="stroke:#A80036;stroke-width:1.5;"/><text fill="#000000" font-family="sans-serif" font-size="14" lengthAdjust="spacingAndGlyphs" textLength="91" x="42" y="169.4951">Administrator</text><!--MD5=[dd4de8735cb32a65a7799e4e8c338fa9]
link NC to US1--><path d="M124.0592,1196.5466 C169.2857,1194.7486 248.1616,1191.6128 312.312,1189.0625 " fill="none" id="NC-to-US1" style="stroke:#A80036;stroke-width:1.0;"/><polygon fill="#A80036" points="317.6863,1188.8489,308.5344,1185.2097,312.6903,1189.0476,308.8524,1193.2034,317.6863,1188.8489" style="stroke:#A80036;stroke-width:1.0;"/><!--MD5=[e643f0ec2c01afacfde20a92619e896c]
link NC to US2--><path d="M124.0592,1205.6025 C173.5996,1215.9045 263.515,1234.6025 330.225,1248.4749 " fill="none" id="NC-to-US2" style="stroke:#A80036;stroke-width:1.0;"/><polygon fill="#A80036" points="335.3905,1249.5491,327.3934,1243.8005,330.4952,1248.5311,325.7646,1251.6329,335.3905,1249.5491" style="stroke:#A80036;stroke-width:1.0;"/><!--MD5=[d3296c317fc77f323ed494992cfa0bee]
link RCP to US3--><path d="M131.2794,1039.5239 C159.1339,1031.1465 196.039,1020.4085 229,1012 C262.8243,1003.3712 300.387,994.8694 332.8157,987.8643 " fill="none" id="RCP-to-US3" style="stroke:#A80036;stroke-width:1.0;"/><polygon fill="#A80036" points="337.9748,986.7531,328.3343,984.7379,333.0869,987.806,330.0189,992.5586,337.9748,986.7531" style="stroke:#A80036;stroke-width:1.0;"/><!--MD5=[60e42f625be440784ef5d863d70a2c0d]
link RCP to US4--><path d="M131.2614,1054.7397 C159.7422,1055.872 198.9534,1057.4309 239.1256,1059.0279 " fill="none" id="RCP-to-US4" style="stroke:#A80036;stroke-width:1.0;"/><polygon fill="#A80036" points="244.5415,1059.2432,235.7076,1054.8887,239.5455,1059.0445,235.3896,1062.8824,244.5415,1059.2432" style="stroke:#A80036;stroke-width:1.0;"/><!--MD5=[7c032f5019e62970a7d038ba44b96dbe]
link MLT to US5--><path d="M167.0751,839.3725 C210.8516,831.8756 265.6409,822.4927 312.527,814.4633 " fill="none" id="MLT-to-US5" style="stroke:#A80036;stroke-width:1.0;"/><polygon fill="#A80036" points="317.6198,813.5911,308.0737,811.1677,312.6916,814.4351,309.4242,819.0529,317.6198,813.5911" style="stroke:#A80036;stroke-width:1.0;"/><!--MD5=[ada7709f344ab3ba796891ae8f0c49bd]
link MLT to US6--><path d="M167.0751,861.0305 C206.8493,865.0444 255.7146,869.9758 299.4834,874.3928 " fill="none" id="MLT-to-US6" style="stroke:#A80036;stroke-width:1.0;"/><polygon fill="#A80036" points="304.5204,874.9011,295.9676,870.0175,299.5457,874.399,295.1642,877.977,304.5204,874.9011" style="stroke:#A80036;stroke-width:1.0;"/><!--MD5=[8b633356141b6ba3c562b74376628c52]
link CT to US7--><path d="M169.3043,481.2151 C188.6458,473.5481 209.3619,465.9691 229,460 C263.2213,449.5982 301.8206,440.9991 334.9123,434.5468 " fill="none" id="CT-to-US7" style="stroke:#A80036;stroke-width:1.0;"/><polygon fill="#A80036" points="340.1745,433.5298,330.579,431.3104,335.2654,434.4787,332.0971,439.1651,340.1745,433.5298" style="stroke:#A80036;stroke-width:1.0;"/><!--MD5=[d9480182366b298f77128500b2f308d0]
link CT to US8--><path d="M169.1724,517 C186.0314,517 204.4544,517 223.3861,517 " fill="none" id="CT-to-US8" style="stroke:#A80036;stroke-width:1.0;"/><polygon fill="#A80036" points="228.7384,517,219.7384,513,223.7384,517,219.7384,521,228.7384,517" style="stroke:#A80036;stroke-width:1.0;"/><!--MD5=[8d116136c1079502f6442581a6c22480]
link CT to US11--><path d="M169.3268,552.7111 C188.6674,560.3813 209.3773,567.9802 229,574 C261.7371,584.0429 298.4699,592.5246 330.5572,599.0573 " fill="none" id="CT-to-US11" style="stroke:#A80036;stroke-width:1.0;"/><polygon fill="#A80036" points="335.6658,600.0889,327.6358,594.3864,330.7648,599.0991,326.0521,602.228,335.6658,600.0889" style="stroke:#A80036;stroke-width:1.0;"/><!--MD5=[18f5ea70bd4fa999c9be452727a56ce5]
link SD to US9--><path d="M145.5842,674.217 C182.5933,678.1782 232.1642,683.4839 278.6612,688.4607 " fill="none" id="SD-to-US9" style="stroke:#A80036;stroke-width:1.0;"/><polygon fill="#A80036" points="283.7308,689.0033,275.2076,684.0682,278.7592,688.4712,274.3562,692.0227,283.7308,689.0033" style="stroke:#A80036;stroke-width:1.0;"/><!--MD5=[a19a26e59ca33e03bc332a7cca0e980a]
link SD to US11--><path d="M145.5842,658.4081 C196.3576,650.0235 270.7744,637.7345 328.4603,628.2084 " fill="none" id="SD-to-US11" style="stroke:#A80036;stroke-width:1.0;"/><polygon fill="#A80036" points="333.6365,627.3536,324.105,624.8736,328.7033,628.1683,325.4086,632.7666,333.6365,627.3536" style="stroke:#A80036;stroke-width:1.0;"/><!--MD5=[983ca7f7537615a2f8dccccb8fe7de89]
link LC to US10--><path d="M142.2324,334 C177.0708,334 223.9671,334 269.0165,334 " fill="none" id="LC-to-US10" style="stroke:#A80036;stroke-width:1.0;"/><polygon fill="#A80036" points="274.216,334,265.216,330,269.216,334,265.216,338,274.216,334" style="stroke:#A80036;stroke-width:1.0;"/><!--MD5=[7ecbe1873262c637926a36ae828acc91]
link ADM to US12--><path d="M133.0997,112.0151 C160.5375,100.4796 196.364,86.2699 229,76 C259.2932,66.4673 292.9369,57.8994 323.164,50.9122 " fill="none" id="ADM-to-US12" style="stroke:#A80036;stroke-width:1.0;"/><polygon fill="#A80036" points="328.3744,49.7156,318.7074,47.8318,323.5013,50.8349,320.4982,55.6288,328.3744,49.7156" style="stroke:#A80036;stroke-width:1.0;"/><!--MD5=[e6df8597a2440954569b8b533a306f6e]
link ADM to US13--><path d="M133.3123,132 C159.196,132 193.4509,132 229.1206,132 " fill="none" id="ADM-to-US13" style="stroke:#A80036;stroke-width:1.0;"/><polygon fill="#A80036" points="234.3927,132,225.3927,128,229.3927,132,225.3927,136,234.3927,132" style="stroke:#A80036;stroke-width:1.0;"/><!--MD5=[7f17385d68f5f7ca3d3a8248c615edd5]
link ADM to US14--><path d="M133.197,151.6824 C160.6688,163.1123 196.4969,177.3171 229,188 C255.662,196.763 284.8677,205.0656 312.0546,212.2617 " fill="none" id="ADM-to-US14" style="stroke:#A80036;stroke-width:1.0;"/><polygon fill="#A80036" points="317.1064,213.5923,309.4223,207.4316,312.2713,212.3186,307.3844,215.1677,317.1064,213.5923" style="stroke:#A80036;stroke-width:1.0;"/><!--MD5=[e3f614568eca7757f634f787497d009c]
@startuml
usecase US1 as "US1 - Register as a client"
usecase US2 as "US2 - Quick blood/swab test"
usecase US3 as "US3 - Register a new client"
usecase US4 as "US4 - Register a test to be performed to a client"
usecase US5 as "US5 - Record given test samples"
usecase US6 as "US6 - Associate sample to client"
usecase US7 as "US7 - Receive samples"
usecase US8 as "US8 - Perform chemical analysis and register results"
usecase US9 as "US9 - Make diagnosis and write a report"
usecase US10 as "US10 - Validate and check test results"
usecase US11 as "US11 - Check test results"
usecase US12 as "US12 - Specify new type of test"
usecase US13 as "US13 - Specify and categorize new test parameter"
usecase US14 as "US14 - Specify new parameter category"

actor "New Client" as NC
actor "Receptionist" as RCP
actor "Medical Lab Technician" as MLT
actor "Chemistry Technologist" as CT
actor "Specialist Doctor" as SD
actor "Lab Coordinator" as LC
actor "Administrator" as ADM


left to right direction
NC - ->(US1)
NC - ->(US2)

RCP - ->(US3)
RCP - ->(US4)

MLT - ->(US5)
MLT - ->(US6)

CT - ->(US7)
CT - ->(US8)
CT - ->(US11)

SD - ->(US9)
SD - ->(US11)

LC- -> (US10)

ADM - ->(US12)
ADM - ->(US13)
ADM - ->(US14)
@enduml

PlantUML version 1.2020.22(Sun Dec 06 09:36:27 UTC 2020)
(GPL source distribution)
Java Runtime: OpenJDK Runtime Environment
JVM: OpenJDK 64-Bit Server VM
Default Encoding: UTF-8
Language: en
Country: US
--></g></svg>