<?xml version="1.0" encoding="UTF-8" standalone="no"?><svg xmlns="http://www.w3.org/2000/svg" xmlns:xlink="http://www.w3.org/1999/xlink" contentScriptType="application/ecmascript" contentStyleType="text/css" height="1311px" preserveAspectRatio="none" style="width:613px;height:1311px;" version="1.1" viewBox="0 0 613 1311" width="613px" zoomAndPan="magnify"><defs><filter height="300%" id="fejbi49sdtcgw" width="300%" x="-1" y="-1"><feGaussianBlur result="blurOut" stdDeviation="2.0"/><feColorMatrix in="blurOut" result="blurOut2" type="matrix" values="0 0 0 0 0 0 0 0 0 0 0 0 0 0 0 0 0 0 .4 0"/><feOffset dx="4.0" dy="4.0" in="blurOut2" result="blurOut3"/><feBlend in="SourceGraphic" in2="blurOut3" mode="normal"/></filter></defs><g><ellipse cx="414.9616" cy="1189.9923" fill="#FEFECE" filter="url(#fejbi49sdtcgw)" rx="117.9616" ry="25.9923" style="stroke:#A80036;stroke-width:1.5;"/><text fill="#000000" font-family="sans-serif" font-size="14" lengthAdjust="spacingAndGlyphs" textLength="215" x="307.4616" y="1194.6408">UC1 - Get registered as a client</text><ellipse cx="415.1316" cy="1275.2263" fill="#FEFECE" filter="url(#fejbi49sdtcgw)" rx="109.1316" ry="24.2263" style="stroke:#A80036;stroke-width:1.5;"/><text fill="#000000" font-family="sans-serif" font-size="14" lengthAdjust="spacingAndGlyphs" textLength="196" x="317.1316" y="1279.8748">UC2 - Quick blood/swab test</text><ellipse cx="415.0329" cy="970.8066" fill="#FEFECE" filter="url(#fejbi49sdtcgw)" rx="104.5329" ry="23.3066" style="stroke:#A80036;stroke-width:1.5;"/><text fill="#000000" font-family="sans-serif" font-size="14" lengthAdjust="spacingAndGlyphs" textLength="186" x="322.0329" y="975.455">UC3 - Register a new client</text><ellipse cx="414.9557" cy="1066.9911" fill="#FEFECE" filter="url(#fejbi49sdtcgw)" rx="172.9557" ry="36.9911" style="stroke:#A80036;stroke-width:1.5;"/><text fill="#000000" font-family="sans-serif" font-size="14" lengthAdjust="spacingAndGlyphs" textLength="330" x="249.9557" y="1071.6396">UC4 - Register a test to be performed to a client</text><ellipse cx="415.1205" cy="797.0241" fill="#FEFECE" filter="url(#fejbi49sdtcgw)" rx="123.1205" ry="27.0241" style="stroke:#A80036;stroke-width:1.5;"/><text fill="#000000" font-family="sans-serif" font-size="14" lengthAdjust="spacingAndGlyphs" textLength="226" x="302.1205" y="801.6725">UC5 - Record given test samples</text><ellipse cx="415.241" cy="886.1482" fill="#FEFECE" filter="url(#fejbi49sdtcgw)" rx="121.241" ry="26.6482" style="stroke:#A80036;stroke-width:1.5;"/><text fill="#000000" font-family="sans-serif" font-size="14" lengthAdjust="spacingAndGlyphs" textLength="222" x="304.241" y="890.7966">UC6 - Associate sample to client</text><ellipse cx="414.8318" cy="420.8664" fill="#FEFECE" filter="url(#fejbi49sdtcgw)" rx="92.3318" ry="20.8664" style="stroke:#A80036;stroke-width:1.5;"/><text fill="#000000" font-family="sans-serif" font-size="14" lengthAdjust="spacingAndGlyphs" textLength="159" x="335.3318" y="425.5148">UC7 - Receive samples</text><ellipse cx="415.0906" cy="517.1181" fill="#FEFECE" filter="url(#fejbi49sdtcgw)" rx="186.0906" ry="39.6181" style="stroke:#A80036;stroke-width:1.5;"/><text fill="#000000" font-family="sans-serif" font-size="14" lengthAdjust="spacingAndGlyphs" textLength="357" x="236.5906" y="521.7666">UC8 - Perform chemical analysis and register results</text><ellipse cx="414.9298" cy="703.086" fill="#FEFECE" filter="url(#fejbi49sdtcgw)" rx="145.9298" ry="31.586" style="stroke:#A80036;stroke-width:1.5;"/><text fill="#000000" font-family="sans-serif" font-size="14" lengthAdjust="spacingAndGlyphs" textLength="274" x="277.9298" y="707.7344">UC9 - Make diagnosis and write a report</text><ellipse cx="415.1669" cy="334.0334" fill="#FEFECE" filter="url(#fejbi49sdtcgw)" rx="140.6669" ry="30.5334" style="stroke:#A80036;stroke-width:1.5;"/><text fill="#000000" font-family="sans-serif" font-size="14" lengthAdjust="spacingAndGlyphs" textLength="263" x="283.6669" y="338.6818">UC10 - Validate and check test results</text><ellipse cx="414.9278" cy="613.9856" fill="#FEFECE" filter="url(#fejbi49sdtcgw)" rx="100.4278" ry="22.4856" style="stroke:#A80036;stroke-width:1.5;"/><text fill="#000000" font-family="sans-serif" font-size="14" lengthAdjust="spacingAndGlyphs" textLength="177" x="326.4278" y="618.634">UC11 - Check test results</text><ellipse cx="414.9616" cy="31.9923" fill="#FEFECE" filter="url(#fejbi49sdtcgw)" rx="117.9616" ry="25.9923" style="stroke:#A80036;stroke-width:1.5;"/><text fill="#000000" font-family="sans-serif" font-size="14" lengthAdjust="spacingAndGlyphs" textLength="215" x="307.4616" y="36.6408">UC12 - Specify new type of test</text><ellipse cx="415.2327" cy="132.0465" fill="#FEFECE" filter="url(#fejbi49sdtcgw)" rx="180.7327" ry="38.5465" style="stroke:#A80036;stroke-width:1.5;"/><text fill="#000000" font-family="sans-serif" font-size="14" lengthAdjust="spacingAndGlyphs" textLength="346" x="242.2327" y="136.695">UC13 - Specify and categorize new test parameter</text><ellipse cx="414.9716" cy="236.8943" fill="#FEFECE" filter="url(#fejbi49sdtcgw)" rx="144.9716" ry="31.3943" style="stroke:#A80036;stroke-width:1.5;"/><text fill="#000000" font-family="sans-serif" font-size="14" lengthAdjust="spacingAndGlyphs" textLength="272" x="278.9716" y="241.5428">UC14 - Specify new parameter category</text><!--MD5=[16fab723be418f7eaf2ea4bd895a8e51]
entity C--><ellipse cx="87.5" cy="1172" fill="#FEFECE" filter="url(#fejbi49sdtcgw)" rx="8" ry="8" style="stroke:#A80036;stroke-width:1.5;"/><path d="M87.5,1180 L87.5,1207 M74.5,1188 L100.5,1188 M87.5,1207 L74.5,1222 M87.5,1207 L100.5,1222 " fill="none" filter="url(#fejbi49sdtcgw)" style="stroke:#A80036;stroke-width:1.5;"/><text fill="#000000" font-family="sans-serif" font-size="14" lengthAdjust="spacingAndGlyphs" textLength="39" x="68" y="1240.4951">Client</text><!--MD5=[e6f50d5c7be293f9ad4811f22e771899]
entity RCP--><ellipse cx="87.5" cy="1023" fill="#FEFECE" filter="url(#fejbi49sdtcgw)" rx="8" ry="8" style="stroke:#A80036;stroke-width:1.5;"/><path d="M87.5,1031 L87.5,1058 M74.5,1039 L100.5,1039 M87.5,1058 L74.5,1073 M87.5,1058 L100.5,1073 " fill="none" filter="url(#fejbi49sdtcgw)" style="stroke:#A80036;stroke-width:1.5;"/><text fill="#000000" font-family="sans-serif" font-size="14" lengthAdjust="spacingAndGlyphs" textLength="87" x="44" y="1091.4951">Receptionist</text><!--MD5=[e7d38603a700bedb049d1f5e1789c8aa]
entity MLT--><ellipse cx="87.5" cy="822" fill="#FEFECE" filter="url(#fejbi49sdtcgw)" rx="8" ry="8" style="stroke:#A80036;stroke-width:1.5;"/><path d="M87.5,830 L87.5,857 M74.5,838 L100.5,838 M87.5,857 L74.5,872 M87.5,857 L100.5,872 " fill="none" filter="url(#fejbi49sdtcgw)" style="stroke:#A80036;stroke-width:1.5;"/><text fill="#000000" font-family="sans-serif" font-size="14" lengthAdjust="spacingAndGlyphs" textLength="159" x="8" y="890.4951">Medical Lab Technician</text><!--MD5=[87439e3fb2bd72484276c19727d934ee]
entity CT--><ellipse cx="87.5" cy="486" fill="#FEFECE" filter="url(#fejbi49sdtcgw)" rx="8" ry="8" style="stroke:#A80036;stroke-width:1.5;"/><path d="M87.5,494 L87.5,521 M74.5,502 L100.5,502 M87.5,521 L74.5,536 M87.5,521 L100.5,536 " fill="none" filter="url(#fejbi49sdtcgw)" style="stroke:#A80036;stroke-width:1.5;"/><text fill="#000000" font-family="sans-serif" font-size="14" lengthAdjust="spacingAndGlyphs" textLength="163" x="6" y="554.4951">Chemistry Technologist</text><!--MD5=[f0e91d5aa74c2411969e7ef072c6f268]
entity SD--><ellipse cx="87.5" cy="637" fill="#FEFECE" filter="url(#fejbi49sdtcgw)" rx="8" ry="8" style="stroke:#A80036;stroke-width:1.5;"/><path d="M87.5,645 L87.5,672 M74.5,653 L100.5,653 M87.5,672 L74.5,687 M87.5,672 L100.5,687 " fill="none" filter="url(#fejbi49sdtcgw)" style="stroke:#A80036;stroke-width:1.5;"/><text fill="#000000" font-family="sans-serif" font-size="14" lengthAdjust="spacingAndGlyphs" textLength="116" x="29.5" y="705.4951">Specialist Doctor</text><!--MD5=[b0100dfa164aec77c855c16afe11d7ec]
entity LC--><ellipse cx="87.5" cy="303" fill="#FEFECE" filter="url(#fejbi49sdtcgw)" rx="8" ry="8" style="stroke:#A80036;stroke-width:1.5;"/><path d="M87.5,311 L87.5,338 M74.5,319 L100.5,319 M87.5,338 L74.5,353 M87.5,338 L100.5,353 " fill="none" filter="url(#fejbi49sdtcgw)" style="stroke:#A80036;stroke-width:1.5;"/><text fill="#000000" font-family="sans-serif" font-size="14" lengthAdjust="spacingAndGlyphs" textLength="109" x="33" y="371.4951">Lab Coordinator</text><!--MD5=[5bb58f447e60c14e9d23282c6a4405f4]
entity ADM--><ellipse cx="87.5" cy="101" fill="#FEFECE" filter="url(#fejbi49sdtcgw)" rx="8" ry="8" style="stroke:#A80036;stroke-width:1.5;"/><path d="M87.5,109 L87.5,136 M74.5,117 L100.5,117 M87.5,136 L74.5,151 M87.5,136 L100.5,151 " fill="none" filter="url(#fejbi49sdtcgw)" style="stroke:#A80036;stroke-width:1.5;"/><text fill="#000000" font-family="sans-serif" font-size="14" lengthAdjust="spacingAndGlyphs" textLength="91" x="42" y="169.4951">Administrator</text><!--MD5=[9030d6887516f535981585d735d1cddc]
link C to UC1--><path d="M107.0058,1202.2257 C143.242,1200.7873 223.587,1197.5981 293.1293,1194.8376 " fill="none" id="C-to-UC1" style="stroke:#A80036;stroke-width:1.0;"/><polygon fill="#A80036" points="298.5415,1194.6228,289.3898,1190.9831,293.5454,1194.8212,289.7073,1198.9768,298.5415,1194.6228" style="stroke:#A80036;stroke-width:1.0;"/><!--MD5=[b5354e77eeaec3a5c0a143f734fe5382]
link C to UC2--><path d="M107.0058,1207.2883 C150.394,1216.8271 257.0211,1240.2688 332.6218,1256.8894 " fill="none" id="C-to-UC2" style="stroke:#A80036;stroke-width:1.0;"/><polygon fill="#A80036" points="337.5556,1257.9741,329.6244,1252.135,332.6722,1256.9005,327.9067,1259.9484,337.5556,1257.9741" style="stroke:#A80036;stroke-width:1.0;"/><!--MD5=[94236bf45e65b545fd636a3fed1d335b]
link RCP to UC3--><path d="M131.2927,1040.5759 C159.1524,1032.2186 196.0582,1021.4836 229,1013 C263.0823,1004.2227 300.9346,995.4922 333.5478,988.2834 " fill="none" id="RCP-to-UC3" style="stroke:#A80036;stroke-width:1.0;"/><polygon fill="#A80036" points="338.7357,987.1397,329.0855,985.1714,333.853,988.2163,330.8081,992.9837,338.7357,987.1397" style="stroke:#A80036;stroke-width:1.0;"/><!--MD5=[ebe511c10220804a2c21382879e85e27]
link RCP to UC4--><path d="M131.3283,1055.7397 C159.8526,1056.872 199.1238,1058.4309 239.3574,1060.0279 " fill="none" id="RCP-to-UC4" style="stroke:#A80036;stroke-width:1.0;"/><polygon fill="#A80036" points="244.7816,1060.2432,235.9474,1055.8892,239.7855,1060.0448,235.6299,1063.8829,244.7816,1060.2432" style="stroke:#A80036;stroke-width:1.0;"/><!--MD5=[2ed272b7ba05c8a563a77b8cf4dc3c7b]
link MLT to UC5--><path d="M167.1967,839.3725 C210.9489,831.8912 265.6847,822.5318 312.5775,814.5135 " fill="none" id="MLT-to-UC5" style="stroke:#A80036;stroke-width:1.0;"/><polygon fill="#A80036" points="317.6713,813.6425,308.1259,811.2166,312.7428,814.4852,309.4742,819.1022,317.6713,813.6425" style="stroke:#A80036;stroke-width:1.0;"/><!--MD5=[f50825f9f8e4609eaac7d5f35ca4d631]
link MLT to UC6--><path d="M167.1967,861.0305 C207.0318,865.0444 255.9718,869.9758 299.8076,874.3928 " fill="none" id="MLT-to-UC6" style="stroke:#A80036;stroke-width:1.0;"/><polygon fill="#A80036" points="304.8522,874.9011,296.2986,870.0189,299.8774,874.3998,295.4965,877.9786,304.8522,874.9011" style="stroke:#A80036;stroke-width:1.0;"/><!--MD5=[1f43a6894f19c1355b6a2606dda9eddc]
link CT to UC7--><path d="M169.3019,481.2074 C188.6435,473.5407 209.3602,465.9638 229,460 C263.3125,449.5806 302.0156,440.9789 335.1967,434.5294 " fill="none" id="CT-to-UC7" style="stroke:#A80036;stroke-width:1.0;"/><polygon fill="#A80036" points="340.4731,433.5128,330.8789,431.2878,335.5634,434.4588,332.3924,439.1433,340.4731,433.5128" style="stroke:#A80036;stroke-width:1.0;"/><!--MD5=[f1634b4d1e58b863690c36f4318e9556]
link CT to UC8--><path d="M169.2973,517 C186.1821,517 204.6332,517 223.5939,517 " fill="none" id="CT-to-UC8" style="stroke:#A80036;stroke-width:1.0;"/><polygon fill="#A80036" points="228.9543,517,219.9543,513,223.9543,517,219.9543,521,228.9543,517" style="stroke:#A80036;stroke-width:1.0;"/><!--MD5=[96e3caa6af3e00a33f9c99fd0991fe16]
link CT to UC11--><path d="M169.3244,552.719 C188.665,560.3889 209.3757,567.9857 229,574 C261.6743,584.0138 298.3195,592.467 330.3887,598.9855 " fill="none" id="CT-to-UC11" style="stroke:#A80036;stroke-width:1.0;"/><polygon fill="#A80036" points="335.495,600.015,327.4632,594.315,330.5936,599.0267,325.8819,602.1572,335.495,600.015" style="stroke:#A80036;stroke-width:1.0;"/><!--MD5=[b4b899843ca20650a796ade55d57bc46]
link SD to UC9--><path d="M145.6731,674.217 C182.7387,678.1782 232.3854,683.4839 278.9535,688.4607 " fill="none" id="SD-to-UC9" style="stroke:#A80036;stroke-width:1.0;"/><polygon fill="#A80036" points="284.0309,689.0033,275.507,684.0694,279.0592,688.4719,274.6567,692.0241,284.0309,689.0033" style="stroke:#A80036;stroke-width:1.0;"/><!--MD5=[3aa81f363dee73e2d3abf01bae994aee]
link SD to UC11--><path d="M145.6731,658.4081 C196.524,650.0235 271.0547,637.7345 328.8287,628.2084 " fill="none" id="SD-to-UC11" style="stroke:#A80036;stroke-width:1.0;"/><polygon fill="#A80036" points="334.0129,627.3536,324.4821,624.871,329.0795,628.167,325.7835,632.7645,334.0129,627.3536" style="stroke:#A80036;stroke-width:1.0;"/><!--MD5=[40e2592b95e22baa35de449a6ed4bfd1]
link LC to UC10--><path d="M142.3161,334 C177.1201,334 223.9398,334 268.9539,334 " fill="none" id="LC-to-UC10" style="stroke:#A80036;stroke-width:1.0;"/><polygon fill="#A80036" points="274.1495,334,265.1495,330,269.1495,334,265.1495,338,274.1495,334" style="stroke:#A80036;stroke-width:1.0;"/><!--MD5=[781d2fd99e122bdadeb00b9e8a4cb347]
link ADM to UC12--><path d="M133.0975,112.0079 C160.5344,100.4698 196.3609,86.26 229,76 C259.2238,66.4992 292.7751,57.965 322.968,50.9978 " fill="none" id="ADM-to-UC12" style="stroke:#A80036;stroke-width:1.0;"/><polygon fill="#A80036" points="328.173,49.8045,318.5067,47.9168,323.2994,50.9218,320.2944,55.7145,328.173,49.8045" style="stroke:#A80036;stroke-width:1.0;"/><!--MD5=[89184bc4fda4fa846ce9477335a6b33e]
link ADM to UC13--><path d="M133.0375,132 C158.9192,132 193.2374,132 228.9981,132 " fill="none" id="ADM-to-UC13" style="stroke:#A80036;stroke-width:1.0;"/><polygon fill="#A80036" points="234.284,132,225.284,128,229.284,132,225.284,136,234.284,132" style="stroke:#A80036;stroke-width:1.0;"/><!--MD5=[e7e1e4e9f8489381c98d20b1474157c4]
link ADM to UC14--><path d="M133.1944,151.6903 C160.6653,163.123 196.4933,177.3279 229,188 C255.7321,196.7763 285.0159,205.0834 312.276,212.2795 " fill="none" id="ADM-to-UC14" style="stroke:#A80036;stroke-width:1.0;"/><polygon fill="#A80036" points="317.3415,213.6101,309.6532,207.4546,312.5056,212.3397,307.6205,215.1921,317.3415,213.6101" style="stroke:#A80036;stroke-width:1.0;"/><!--MD5=[9949765cf43be068168d0f776bdf2ddd]
@startuml
usecase UC1 as "UC1 - Get registered as a client"
usecase UC2 as "UC2 - Quick blood/swab test"
usecase UC3 as "UC3 - Register a new client"
usecase UC4 as "UC4 - Register a test to be performed to a client"
usecase UC5 as "UC5 - Record given test samples"
usecase UC6 as "UC6 - Associate sample to client"
usecase UC7 as "UC7 - Receive samples"
usecase UC8 as "UC8 - Perform chemical analysis and register results"
usecase UC9 as "UC9 - Make diagnosis and write a report"
usecase UC10 as "UC10 - Validate and check test results"
usecase UC11 as "UC11 - Check test results"
usecase UC12 as "UC12 - Specify new type of test"
usecase UC13 as "UC13 - Specify and categorize new test parameter"
usecase UC14 as "UC14 - Specify new parameter category"

actor "Client" as C
actor "Receptionist" as RCP
actor "Medical Lab Technician" as MLT
actor "Chemistry Technologist" as CT
actor "Specialist Doctor" as SD
actor "Lab Coordinator" as LC
actor "Administrator" as ADM


left to right direction
C - ->(UC1)
C - ->(UC2)

RCP - ->(UC3)
RCP - ->(UC4)

MLT - ->(UC5)
MLT - ->(UC6)

CT - ->(UC7)
CT - ->(UC8)
CT - ->(UC11)

SD - ->(UC9)
SD - ->(UC11)

LC- -> (UC10)

ADM - ->(UC12)
ADM - ->(UC13)
ADM - ->(UC14)
@enduml

PlantUML version 1.2020.22(Sun Dec 06 09:36:27 UTC 2020)
(GPL source distribution)
Java Runtime: OpenJDK Runtime Environment
JVM: OpenJDK 64-Bit Server VM
Default Encoding: UTF-8
Language: en
Country: US
--></g></svg>