<?xml version="1.0" encoding="UTF-8" standalone="no"?><svg xmlns="http://www.w3.org/2000/svg" xmlns:xlink="http://www.w3.org/1999/xlink" contentScriptType="application/ecmascript" contentStyleType="text/css" height="1598px" preserveAspectRatio="none" style="width:592px;height:1598px;" version="1.1" viewBox="0 0 592 1598" width="592px" zoomAndPan="magnify"><defs><filter height="300%" id="fh9clj756kafh" width="300%" x="-1" y="-1"><feGaussianBlur result="blurOut" stdDeviation="2.0"/><feColorMatrix in="blurOut" result="blurOut2" type="matrix" values="0 0 0 0 0 0 0 0 0 0 0 0 0 0 0 0 0 0 .4 0"/><feOffset dx="4.0" dy="4.0" in="blurOut2" result="blurOut3"/><feBlend in="SourceGraphic" in2="blurOut3" mode="normal"/></filter></defs><g><!--MD5=[2cc54385fe6c63704b2c0e5551b589df]
entity US1--><ellipse cx="407" cy="1406" fill="#FEFECE" filter="url(#fh9clj756kafh)" rx="8" ry="8" style="stroke:#A80036;stroke-width:1.5;"/><path d="M407,1414 L407,1441 M394,1422 L420,1422 M407,1441 L394,1456 M407,1441 L420,1456 " fill="none" filter="url(#fh9clj756kafh)" style="stroke:#A80036;stroke-width:1.5;"/><text fill="#000000" font-family="sans-serif" font-size="14" lengthAdjust="spacingAndGlyphs" textLength="172" x="321" y="1474.4951">US1 - Register as a client</text><!--MD5=[ed5b8903cbc4e2367162acbc848c760e]
entity US2--><ellipse cx="407" cy="1522" fill="#FEFECE" filter="url(#fh9clj756kafh)" rx="8" ry="8" style="stroke:#A80036;stroke-width:1.5;"/><path d="M407,1530 L407,1557 M394,1538 L420,1538 M407,1557 L394,1572 M407,1557 L420,1572 " fill="none" filter="url(#fh9clj756kafh)" style="stroke:#A80036;stroke-width:1.5;"/><text fill="#000000" font-family="sans-serif" font-size="14" lengthAdjust="spacingAndGlyphs" textLength="195" x="309.5" y="1590.4951">US2 - Quick blood/swab test</text><!--MD5=[7a5beee285df21797851f235a2605f5b]
entity US3--><ellipse cx="407" cy="1174" fill="#FEFECE" filter="url(#fh9clj756kafh)" rx="8" ry="8" style="stroke:#A80036;stroke-width:1.5;"/><path d="M407,1182 L407,1209 M394,1190 L420,1190 M407,1209 L394,1224 M407,1209 L420,1224 " fill="none" filter="url(#fh9clj756kafh)" style="stroke:#A80036;stroke-width:1.5;"/><text fill="#000000" font-family="sans-serif" font-size="14" lengthAdjust="spacingAndGlyphs" textLength="185" x="314.5" y="1242.4951">US3 - Register a new client</text><!--MD5=[e2a00dffb0ce28eb2c1ab5767cfe2015]
entity US4--><ellipse cx="407" cy="1290" fill="#FEFECE" filter="url(#fh9clj756kafh)" rx="8" ry="8" style="stroke:#A80036;stroke-width:1.5;"/><path d="M407,1298 L407,1325 M394,1306 L420,1306 M407,1325 L394,1340 M407,1325 L420,1340 " fill="none" filter="url(#fh9clj756kafh)" style="stroke:#A80036;stroke-width:1.5;"/><text fill="#000000" font-family="sans-serif" font-size="14" lengthAdjust="spacingAndGlyphs" textLength="329" x="242.5" y="1358.4951">US4 - Register a test to be performed to a client</text><!--MD5=[b080445c5854e5c0108f0b64d5f757c6]
entity US5--><ellipse cx="407" cy="942" fill="#FEFECE" filter="url(#fh9clj756kafh)" rx="8" ry="8" style="stroke:#A80036;stroke-width:1.5;"/><path d="M407,950 L407,977 M394,958 L420,958 M407,977 L394,992 M407,977 L420,992 " fill="none" filter="url(#fh9clj756kafh)" style="stroke:#A80036;stroke-width:1.5;"/><text fill="#000000" font-family="sans-serif" font-size="14" lengthAdjust="spacingAndGlyphs" textLength="225" x="294.5" y="1010.4951">US5 - Record given test samples</text><!--MD5=[632809b056a1ec0230dd76de0e478c02]
entity US6--><ellipse cx="407" cy="1058" fill="#FEFECE" filter="url(#fh9clj756kafh)" rx="8" ry="8" style="stroke:#A80036;stroke-width:1.5;"/><path d="M407,1066 L407,1093 M394,1074 L420,1074 M407,1093 L394,1108 M407,1093 L420,1108 " fill="none" filter="url(#fh9clj756kafh)" style="stroke:#A80036;stroke-width:1.5;"/><text fill="#000000" font-family="sans-serif" font-size="14" lengthAdjust="spacingAndGlyphs" textLength="221" x="296.5" y="1126.4951">US6 - Associate sample to client</text><!--MD5=[8f1e6c907ea8d2a5fd881bda6878e554]
entity US7--><ellipse cx="407" cy="478" fill="#FEFECE" filter="url(#fh9clj756kafh)" rx="8" ry="8" style="stroke:#A80036;stroke-width:1.5;"/><path d="M407,486 L407,513 M394,494 L420,494 M407,513 L394,528 M407,513 L420,528 " fill="none" filter="url(#fh9clj756kafh)" style="stroke:#A80036;stroke-width:1.5;"/><text fill="#000000" font-family="sans-serif" font-size="14" lengthAdjust="spacingAndGlyphs" textLength="158" x="328" y="546.4951">US7 - Receive samples</text><!--MD5=[c3e17659395c0d7a265af4b9bf88a4d5]
entity US8--><ellipse cx="407" cy="594" fill="#FEFECE" filter="url(#fh9clj756kafh)" rx="8" ry="8" style="stroke:#A80036;stroke-width:1.5;"/><path d="M407,602 L407,629 M394,610 L420,610 M407,629 L394,644 M407,629 L420,644 " fill="none" filter="url(#fh9clj756kafh)" style="stroke:#A80036;stroke-width:1.5;"/><text fill="#000000" font-family="sans-serif" font-size="14" lengthAdjust="spacingAndGlyphs" textLength="356" x="229" y="662.4951">US8 - Perform chemical analysis and register results</text><!--MD5=[e33a89f96f35f33b5b70a125486def88]
entity US9--><ellipse cx="407" cy="826" fill="#FEFECE" filter="url(#fh9clj756kafh)" rx="8" ry="8" style="stroke:#A80036;stroke-width:1.5;"/><path d="M407,834 L407,861 M394,842 L420,842 M407,861 L394,876 M407,861 L420,876 " fill="none" filter="url(#fh9clj756kafh)" style="stroke:#A80036;stroke-width:1.5;"/><text fill="#000000" font-family="sans-serif" font-size="14" lengthAdjust="spacingAndGlyphs" textLength="273" x="270.5" y="894.4951">US9 - Make diagnosis and write a report</text><!--MD5=[7b8ca5bb6d68e336bf9a6a900daa3609]
entity US10--><ellipse cx="407" cy="362" fill="#FEFECE" filter="url(#fh9clj756kafh)" rx="8" ry="8" style="stroke:#A80036;stroke-width:1.5;"/><path d="M407,370 L407,397 M394,378 L420,378 M407,397 L394,412 M407,397 L420,412 " fill="none" filter="url(#fh9clj756kafh)" style="stroke:#A80036;stroke-width:1.5;"/><text fill="#000000" font-family="sans-serif" font-size="14" lengthAdjust="spacingAndGlyphs" textLength="262" x="276" y="430.4951">US10 - Validate and check test results</text><!--MD5=[afb1fe6ef298a16492bed0b36b52bee0]
entity US11--><ellipse cx="407" cy="710" fill="#FEFECE" filter="url(#fh9clj756kafh)" rx="8" ry="8" style="stroke:#A80036;stroke-width:1.5;"/><path d="M407,718 L407,745 M394,726 L420,726 M407,745 L394,760 M407,745 L420,760 " fill="none" filter="url(#fh9clj756kafh)" style="stroke:#A80036;stroke-width:1.5;"/><text fill="#000000" font-family="sans-serif" font-size="14" lengthAdjust="spacingAndGlyphs" textLength="176" x="319" y="778.4951">US11 - Check test results</text><!--MD5=[6cbb8490fb8c04b65112e408c827a86f]
entity US12--><ellipse cx="407" cy="14" fill="#FEFECE" filter="url(#fh9clj756kafh)" rx="8" ry="8" style="stroke:#A80036;stroke-width:1.5;"/><path d="M407,22 L407,49 M394,30 L420,30 M407,49 L394,64 M407,49 L420,64 " fill="none" filter="url(#fh9clj756kafh)" style="stroke:#A80036;stroke-width:1.5;"/><text fill="#000000" font-family="sans-serif" font-size="14" lengthAdjust="spacingAndGlyphs" textLength="214" x="300" y="82.4951">US12 - Specify new type of test</text><!--MD5=[7f1ccf0ea2baa6f0c7c11d073a78499d]
entity US13--><ellipse cx="407" cy="130" fill="#FEFECE" filter="url(#fh9clj756kafh)" rx="8" ry="8" style="stroke:#A80036;stroke-width:1.5;"/><path d="M407,138 L407,165 M394,146 L420,146 M407,165 L394,180 M407,165 L420,180 " fill="none" filter="url(#fh9clj756kafh)" style="stroke:#A80036;stroke-width:1.5;"/><text fill="#000000" font-family="sans-serif" font-size="14" lengthAdjust="spacingAndGlyphs" textLength="345" x="234.5" y="198.4951">US13 - Specify and categorize new test parameter</text><!--MD5=[fef2954aa0c28836dc3be20f4410bd33]
entity US14--><ellipse cx="407" cy="246" fill="#FEFECE" filter="url(#fh9clj756kafh)" rx="8" ry="8" style="stroke:#A80036;stroke-width:1.5;"/><path d="M407,254 L407,281 M394,262 L420,262 M407,281 L394,296 M407,281 L420,296 " fill="none" filter="url(#fh9clj756kafh)" style="stroke:#A80036;stroke-width:1.5;"/><text fill="#000000" font-family="sans-serif" font-size="14" lengthAdjust="spacingAndGlyphs" textLength="271" x="271.5" y="314.4951">US14 - Specify new parameter category</text><!--MD5=[1364da7149c555d30494bbf5399437dc]
entity NC--><ellipse cx="87.5" cy="1464" fill="#FEFECE" filter="url(#fh9clj756kafh)" rx="8" ry="8" style="stroke:#A80036;stroke-width:1.5;"/><path d="M87.5,1472 L87.5,1499 M74.5,1480 L100.5,1480 M87.5,1499 L74.5,1514 M87.5,1499 L100.5,1514 " fill="none" filter="url(#fh9clj756kafh)" style="stroke:#A80036;stroke-width:1.5;"/><text fill="#000000" font-family="sans-serif" font-size="14" lengthAdjust="spacingAndGlyphs" textLength="73" x="51" y="1532.4951">New Client</text><!--MD5=[e6f50d5c7be293f9ad4811f22e771899]
entity RCP--><ellipse cx="87.5" cy="1232" fill="#FEFECE" filter="url(#fh9clj756kafh)" rx="8" ry="8" style="stroke:#A80036;stroke-width:1.5;"/><path d="M87.5,1240 L87.5,1267 M74.5,1248 L100.5,1248 M87.5,1267 L74.5,1282 M87.5,1267 L100.5,1282 " fill="none" filter="url(#fh9clj756kafh)" style="stroke:#A80036;stroke-width:1.5;"/><text fill="#000000" font-family="sans-serif" font-size="14" lengthAdjust="spacingAndGlyphs" textLength="87" x="44" y="1300.4951">Receptionist</text><!--MD5=[e7d38603a700bedb049d1f5e1789c8aa]
entity MLT--><ellipse cx="87.5" cy="1000" fill="#FEFECE" filter="url(#fh9clj756kafh)" rx="8" ry="8" style="stroke:#A80036;stroke-width:1.5;"/><path d="M87.5,1008 L87.5,1035 M74.5,1016 L100.5,1016 M87.5,1035 L74.5,1050 M87.5,1035 L100.5,1050 " fill="none" filter="url(#fh9clj756kafh)" style="stroke:#A80036;stroke-width:1.5;"/><text fill="#000000" font-family="sans-serif" font-size="14" lengthAdjust="spacingAndGlyphs" textLength="159" x="8" y="1068.4951">Medical Lab Technician</text><!--MD5=[87439e3fb2bd72484276c19727d934ee]
entity CT--><ellipse cx="87.5" cy="594" fill="#FEFECE" filter="url(#fh9clj756kafh)" rx="8" ry="8" style="stroke:#A80036;stroke-width:1.5;"/><path d="M87.5,602 L87.5,629 M74.5,610 L100.5,610 M87.5,629 L74.5,644 M87.5,629 L100.5,644 " fill="none" filter="url(#fh9clj756kafh)" style="stroke:#A80036;stroke-width:1.5;"/><text fill="#000000" font-family="sans-serif" font-size="14" lengthAdjust="spacingAndGlyphs" textLength="163" x="6" y="662.4951">Chemistry Technologist</text><!--MD5=[f0e91d5aa74c2411969e7ef072c6f268]
entity SD--><ellipse cx="87.5" cy="768" fill="#FEFECE" filter="url(#fh9clj756kafh)" rx="8" ry="8" style="stroke:#A80036;stroke-width:1.5;"/><path d="M87.5,776 L87.5,803 M74.5,784 L100.5,784 M87.5,803 L74.5,818 M87.5,803 L100.5,818 " fill="none" filter="url(#fh9clj756kafh)" style="stroke:#A80036;stroke-width:1.5;"/><text fill="#000000" font-family="sans-serif" font-size="14" lengthAdjust="spacingAndGlyphs" textLength="116" x="29.5" y="836.4951">Specialist Doctor</text><!--MD5=[b0100dfa164aec77c855c16afe11d7ec]
entity LC--><ellipse cx="87.5" cy="362" fill="#FEFECE" filter="url(#fh9clj756kafh)" rx="8" ry="8" style="stroke:#A80036;stroke-width:1.5;"/><path d="M87.5,370 L87.5,397 M74.5,378 L100.5,378 M87.5,397 L74.5,412 M87.5,397 L100.5,412 " fill="none" filter="url(#fh9clj756kafh)" style="stroke:#A80036;stroke-width:1.5;"/><text fill="#000000" font-family="sans-serif" font-size="14" lengthAdjust="spacingAndGlyphs" textLength="109" x="33" y="430.4951">Lab Coordinator</text><!--MD5=[5bb58f447e60c14e9d23282c6a4405f4]
entity ADM--><ellipse cx="87.5" cy="130" fill="#FEFECE" filter="url(#fh9clj756kafh)" rx="8" ry="8" style="stroke:#A80036;stroke-width:1.5;"/><path d="M87.5,138 L87.5,165 M74.5,146 L100.5,146 M87.5,165 L74.5,180 M87.5,165 L100.5,180 " fill="none" filter="url(#fh9clj756kafh)" style="stroke:#A80036;stroke-width:1.5;"/><text fill="#000000" font-family="sans-serif" font-size="14" lengthAdjust="spacingAndGlyphs" textLength="91" x="42" y="198.4951">Administrator</text><!--MD5=[dd4de8735cb32a65a7799e4e8c338fa9]
link NC to US1--><path d="M124.1507,1488.3467 C170.5578,1479.9222 252.1314,1465.1139 315.7884,1453.558 " fill="none" id="NC-to-US1" style="stroke:#A80036;stroke-width:1.0;stroke-dasharray:7.0,7.0;"/><polygon fill="#A80036" points="320.7262,1452.6616,311.1564,1450.3336,315.8066,1453.5547,312.5855,1458.2049,320.7262,1452.6616" style="stroke:#A80036;stroke-width:1.0;"/><!--MD5=[e643f0ec2c01afacfde20a92619e896c]
link NC to US2--><path d="M124.1507,1501.6533 C167.7545,1509.5689 242.4045,1523.1204 304.0681,1534.3144 " fill="none" id="NC-to-US2" style="stroke:#A80036;stroke-width:1.0;stroke-dasharray:7.0,7.0;"/><polygon fill="#A80036" points="309.2368,1535.2527,301.0962,1529.7091,304.3172,1534.3594,299.667,1537.5804,309.2368,1535.2527" style="stroke:#A80036;stroke-width:1.0;"/><!--MD5=[d3296c317fc77f323ed494992cfa0bee]
link RCP to US3--><path d="M131.2552,1255.057 C176.8856,1246.7735 249.9104,1233.517 309.3502,1222.7267 " fill="none" id="RCP-to-US3" style="stroke:#A80036;stroke-width:1.0;stroke-dasharray:7.0,7.0;"/><polygon fill="#A80036" points="314.3301,1221.8227,304.7603,1219.4947,309.4105,1222.7158,306.1894,1227.366,314.3301,1221.8227" style="stroke:#A80036;stroke-width:1.0;"/><!--MD5=[60e42f625be440784ef5d863d70a2c0d]
link RCP to US4--><path d="M131.2552,1270.943 C159.3059,1276.0352 197.7089,1283.0066 236.9443,1290.1292 " fill="none" id="RCP-to-US4" style="stroke:#A80036;stroke-width:1.0;stroke-dasharray:7.0,7.0;"/><polygon fill="#A80036" points="242.2333,1291.0893,234.0926,1285.546,237.3137,1290.1962,232.6635,1293.4173,242.2333,1291.0893" style="stroke:#A80036;stroke-width:1.0;"/><!--MD5=[7c032f5019e62970a7d038ba44b96dbe]
link MLT to US5--><path d="M167.2992,1016.5138 C204.2423,1009.8073 248.8714,1001.7057 289.5555,994.3201 " fill="none" id="MLT-to-US5" style="stroke:#A80036;stroke-width:1.0;stroke-dasharray:7.0,7.0;"/><polygon fill="#A80036" points="294.4967,993.4231,284.9269,991.0951,289.5771,994.3162,286.356,998.9664,294.4967,993.4231" style="stroke:#A80036;stroke-width:1.0;"/><!--MD5=[ada7709f344ab3ba796891ae8f0c49bd]
link MLT to US6--><path d="M167.2992,1045.4862 C204.7752,1052.2894 250.1604,1060.5283 291.3134,1067.999 " fill="none" id="MLT-to-US6" style="stroke:#A80036;stroke-width:1.0;stroke-dasharray:7.0,7.0;"/><polygon fill="#A80036" points="296.3103,1068.9061,288.1696,1063.3628,291.3907,1068.013,286.7405,1071.2341,296.3103,1068.9061" style="stroke:#A80036;stroke-width:1.0;"/><!--MD5=[8b633356141b6ba3c562b74376628c52]
link CT to US7--><path d="M169.0293,590.3797 C188.5659,582.4181 209.4365,574.1856 229,567 C259.2826,555.8773 292.8415,544.6605 322.5837,535.0946 " fill="none" id="CT-to-US7" style="stroke:#A80036;stroke-width:1.0;stroke-dasharray:7.0,7.0;"/><polygon fill="#A80036" points="327.7058,533.4514,317.9141,532.392,322.9448,534.9788,320.358,540.0096,327.7058,533.4514" style="stroke:#A80036;stroke-width:1.0;"/><!--MD5=[d9480182366b298f77128500b2f308d0]
link CT to US8--><path d="M169.3643,625 C186.2643,625 204.7041,625 223.5952,625 " fill="none" id="CT-to-US8" style="stroke:#A80036;stroke-width:1.0;stroke-dasharray:7.0,7.0;"/><polygon fill="#A80036" points="228.9345,625,219.9345,621,223.9345,625,219.9345,629,228.9345,625" style="stroke:#A80036;stroke-width:1.0;"/><!--MD5=[8d116136c1079502f6442581a6c22480]
link CT to US11--><path d="M169.0293,659.6203 C188.5659,667.5819 209.4365,675.8144 229,683 C256.2854,693.0218 286.2305,703.12 313.647,712.0181 " fill="none" id="CT-to-US11" style="stroke:#A80036;stroke-width:1.0;stroke-dasharray:7.0,7.0;"/><polygon fill="#A80036" points="318.7357,713.6654,311.405,707.0881,313.9787,712.1255,308.9413,714.6993,318.7357,713.6654" style="stroke:#A80036;stroke-width:1.0;"/><!--MD5=[18f5ea70bd4fa999c9be452727a56ce5]
link SD to US9--><path d="M145.7297,809.5707 C179.2837,815.6618 223.0407,823.6052 265.1223,831.2444 " fill="none" id="SD-to-US9" style="stroke:#A80036;stroke-width:1.0;stroke-dasharray:7.0,7.0;"/><polygon fill="#A80036" points="270.2451,832.1744,262.1044,826.6311,265.3255,831.2813,260.6753,834.5024,270.2451,832.1744" style="stroke:#A80036;stroke-width:1.0;"/><!--MD5=[a19a26e59ca33e03bc332a7cca0e980a]
link SD to US11--><path d="M145.7297,788.4293 C192.5467,779.9305 259.2266,767.8258 313.5046,757.9726 " fill="none" id="SD-to-US11" style="stroke:#A80036;stroke-width:1.0;stroke-dasharray:7.0,7.0;"/><polygon fill="#A80036" points="318.7175,757.0262,309.1477,754.6982,313.7979,757.9193,310.5768,762.5695,318.7175,757.0262" style="stroke:#A80036;stroke-width:1.0;"/><!--MD5=[983ca7f7537615a2f8dccccb8fe7de89]
link LC to US10--><path d="M142.061,393 C177.4994,393 225.3702,393 270.6723,393 " fill="none" id="LC-to-US10" style="stroke:#A80036;stroke-width:1.0;stroke-dasharray:7.0,7.0;"/><polygon fill="#A80036" points="275.8978,393,266.8978,389,270.8978,393,266.8978,397,275.8978,393" style="stroke:#A80036;stroke-width:1.0;"/><!--MD5=[7ecbe1873262c637926a36ae828acc91]
link ADM to US12--><path d="M133.0467,141.3277 C160.6189,129.6705 196.6018,114.8998 229,103 C250.1311,95.2386 272.8575,87.4314 294.7691,80.1713 " fill="none" id="ADM-to-US12" style="stroke:#A80036;stroke-width:1.0;stroke-dasharray:7.0,7.0;"/><polygon fill="#A80036" points="299.7257,78.5337,289.9252,77.5591,294.9781,80.1023,292.4349,85.1552,299.7257,78.5337" style="stroke:#A80036;stroke-width:1.0;"/><!--MD5=[e6df8597a2440954569b8b533a306f6e]
link ADM to US13--><path d="M133.2766,161 C159.2612,161 193.6405,161 229.2281,161 " fill="none" id="ADM-to-US13" style="stroke:#A80036;stroke-width:1.0;stroke-dasharray:7.0,7.0;"/><polygon fill="#A80036" points="234.4867,161,225.4867,157,229.4867,161,225.4867,165,234.4867,161" style="stroke:#A80036;stroke-width:1.0;"/><!--MD5=[7f17385d68f5f7ca3d3a8248c615edd5]
link ADM to US14--><path d="M133.0467,180.6723 C160.6189,192.3295 196.6018,207.1002 229,219 C243.3905,224.2856 258.5209,229.5924 273.6299,234.7332 " fill="none" id="ADM-to-US14" style="stroke:#A80036;stroke-width:1.0;stroke-dasharray:7.0,7.0;"/><polygon fill="#A80036" points="278.7519,236.47,271.5131,229.7917,274.0167,234.8643,268.9441,237.3679,278.7519,236.47" style="stroke:#A80036;stroke-width:1.0;"/><!--MD5=[7150e03c23d739a23f99eadc010b4b5f]
@startuml
US1 as "US1 - Register as a client"
US2 as "US2 - Quick blood/swab test"
US3 as "US3 - Register a new client"
US4 as "US4 - Register a test to be performed to a client"
US5 as "US5 - Record given test samples"
US6 as "US6 - Associate sample to client"
US7 as "US7 - Receive samples"
US8 as "US8 - Perform chemical analysis and register results"
US9 as "US9 - Make diagnosis and write a report"
US10 as "US10 - Validate and check test results"
US11 as "US11 - Check test results"
US12 as "US12 - Specify new type of test"
US13 as "US13 - Specify and categorize new test parameter"
US14 as "US14 - Specify new parameter category"

actor "New Client" as NC
actor "Receptionist" as RCP
actor "Medical Lab Technician" as MLT
actor "Chemistry Technologist" as CT
actor "Specialist Doctor" as SD
actor "Lab Coordinator" as LC
actor "Administrator" as ADM


left to right direction
NC ..>(US1)
NC ..>(US2)

RCP ..>(US3)
RCP ..>(US4)

MLT ..>(US5)
MLT ..>(US6)

CT ..>(US7)
CT ..>(US8)
CT ..>(US11)

SD ..>(US9)
SD ..>(US11)

LC ..> (US10)

ADM ..>(US12)
ADM ..>(US13)
ADM ..>(US14)
@enduml

PlantUML version 1.2020.22(Sun Dec 06 09:36:27 UTC 2020)
(GPL source distribution)
Java Runtime: OpenJDK Runtime Environment
JVM: OpenJDK 64-Bit Server VM
Default Encoding: UTF-8
Language: en
Country: US
--></g></svg>