<?xml version="1.0" encoding="UTF-8" standalone="no"?><svg xmlns="http://www.w3.org/2000/svg" xmlns:xlink="http://www.w3.org/1999/xlink" contentScriptType="application/ecmascript" contentStyleType="text/css" height="1334px" preserveAspectRatio="none" style="width:603px;height:1334px;" version="1.1" viewBox="0 0 603 1334" width="603px" zoomAndPan="magnify"><defs><filter height="300%" id="f4se86p5folje" width="300%" x="-1" y="-1"><feGaussianBlur result="blurOut" stdDeviation="2.0"/><feColorMatrix in="blurOut" result="blurOut2" type="matrix" values="0 0 0 0 0 0 0 0 0 0 0 0 0 0 0 0 0 0 .4 0"/><feOffset dx="4.0" dy="4.0" in="blurOut2" result="blurOut3"/><feBlend in="SourceGraphic" in2="blurOut3" mode="normal"/></filter></defs><g><ellipse cx="403.3167" cy="1213.8633" fill="#FEFECE" filter="url(#f4se86p5folje)" rx="117.3167" ry="25.8633" style="stroke:#A80036;stroke-width:1.5;"/><text fill="#000000" font-family="sans-serif" font-size="14" lengthAdjust="spacing" textLength="199" x="303.8167" y="1217.5919">UC1 - Get registered as a client</text><ellipse cx="403.7046" cy="1298.9409" fill="#FEFECE" filter="url(#f4se86p5folje)" rx="107.7046" ry="23.9409" style="stroke:#A80036;stroke-width:1.5;"/><text fill="#000000" font-family="sans-serif" font-size="14" lengthAdjust="spacing" textLength="178" x="314.7046" y="1302.6694">UC2 - Quick blood/swab test</text><ellipse cx="403.5397" cy="996.8079" fill="#FEFECE" filter="url(#f4se86p5folje)" rx="104.5397" ry="23.3079" style="stroke:#A80036;stroke-width:1.5;"/><text fill="#000000" font-family="sans-serif" font-size="14" lengthAdjust="spacing" textLength="171" x="318.0397" y="1000.5365">UC3 - Register a new client</text><ellipse cx="403.5554" cy="1091.1111" fill="#FEFECE" filter="url(#f4se86p5folje)" rx="166.0554" ry="35.6111" style="stroke:#A80036;stroke-width:1.5;"/><text fill="#000000" font-family="sans-serif" font-size="14" lengthAdjust="spacing" textLength="302" x="252.5554" y="1094.8396">UC4 - Register a test to be performed to a client</text><ellipse cx="403.29" cy="822.158" fill="#FEFECE" filter="url(#f4se86p5folje)" rx="131.29" ry="28.658" style="stroke:#A80036;stroke-width:1.5;"/><text fill="#000000" font-family="sans-serif" font-size="14" lengthAdjust="spacing" textLength="229" x="288.79" y="825.8865">UC5 - Record collected test samples</text><ellipse cx="403.665" cy="912.233" fill="#FEFECE" filter="url(#f4se86p5folje)" rx="119.165" ry="26.233" style="stroke:#A80036;stroke-width:1.5;"/><text fill="#000000" font-family="sans-serif" font-size="14" lengthAdjust="spacing" textLength="203" x="302.165" y="915.9615">UC6 - Associate sample to client</text><ellipse cx="403.3753" cy="625.1751" fill="#FEFECE" filter="url(#f4se86p5folje)" rx="93.8753" ry="21.1751" style="stroke:#A80036;stroke-width:1.5;"/><text fill="#000000" font-family="sans-serif" font-size="14" lengthAdjust="spacing" textLength="147" x="329.8753" y="628.9036">UC7 - Receive samples</text><ellipse cx="403.5759" cy="719.8152" fill="#FEFECE" filter="url(#f4se86p5folje)" rx="179.5759" ry="38.3152" style="stroke:#A80036;stroke-width:1.5;"/><text fill="#000000" font-family="sans-serif" font-size="14" lengthAdjust="spacing" textLength="330" x="238.5759" y="723.5437">UC8 - Perform chemical analysis and register results</text><ellipse cx="403.3053" cy="323.0611" fill="#FEFECE" filter="url(#f4se86p5folje)" rx="188.3053" ry="40.0611" style="stroke:#A80036;stroke-width:1.5;"/><text fill="#000000" font-family="sans-serif" font-size="14" lengthAdjust="spacing" textLength="348" x="229.3053" y="326.7896">UC9 - Specify new type of test (and collecting methods)</text><ellipse cx="403.306" cy="434.9612" fill="#FEFECE" filter="url(#f4se86p5folje)" rx="172.806" ry="36.9612" style="stroke:#A80036;stroke-width:1.5;"/><text fill="#000000" font-family="sans-serif" font-size="14" lengthAdjust="spacing" textLength="316" x="245.306" y="438.6897">UC10 - Specify and categorize new test parameter</text><ellipse cx="403.6734" cy="538.2347" fill="#FEFECE" filter="url(#f4se86p5folje)" rx="141.6734" ry="30.7347" style="stroke:#A80036;stroke-width:1.5;"/><text fill="#000000" font-family="sans-serif" font-size="14" lengthAdjust="spacing" textLength="251" x="278.1734" y="541.9632">UC11 - Specify new parameter category</text><ellipse cx="403.4235" cy="136.1847" fill="#FEFECE" filter="url(#f4se86p5folje)" rx="146.4235" ry="31.6847" style="stroke:#A80036;stroke-width:1.5;"/><text fill="#000000" font-family="sans-serif" font-size="14" lengthAdjust="spacing" textLength="261" x="272.9235" y="139.9132">UC12 - Make diagnosis and write a report</text><ellipse cx="403.5583" cy="224.9117" fill="#FEFECE" filter="url(#f4se86p5folje)" rx="100.0583" ry="22.4117" style="stroke:#A80036;stroke-width:1.5;"/><text fill="#000000" font-family="sans-serif" font-size="14" lengthAdjust="spacing" textLength="161" x="323.0583" y="228.6402">UC13 - Check test results</text><ellipse cx="403.4905" cy="45.8981" fill="#FEFECE" filter="url(#f4se86p5folje)" rx="104.9905" ry="23.3981" style="stroke:#A80036;stroke-width:1.5;"/><text fill="#000000" font-family="sans-serif" font-size="14" lengthAdjust="spacing" textLength="172" x="317.4905" y="49.6266">UC14 - Validate test results</text><!--MD5=[16fab723be418f7eaf2ea4bd895a8e51]
entity C--><ellipse cx="80.5" cy="1196" fill="#FEFECE" filter="url(#f4se86p5folje)" rx="8" ry="8" style="stroke:#A80036;stroke-width:1.5;"/><path d="M80.5,1204 L80.5,1231 M67.5,1212 L93.5,1212 M80.5,1231 L67.5,1246 M80.5,1231 L93.5,1246 " fill="none" filter="url(#f4se86p5folje)" style="stroke:#A80036;stroke-width:1.5;"/><text fill="#000000" font-family="sans-serif" font-size="14" lengthAdjust="spacing" textLength="36" x="62.5" y="1266.0332">Client</text><!--MD5=[e6f50d5c7be293f9ad4811f22e771899]
entity RCP--><ellipse cx="80.5" cy="1046" fill="#FEFECE" filter="url(#f4se86p5folje)" rx="8" ry="8" style="stroke:#A80036;stroke-width:1.5;"/><path d="M80.5,1054 L80.5,1081 M67.5,1062 L93.5,1062 M80.5,1081 L67.5,1096 M80.5,1081 L93.5,1096 " fill="none" filter="url(#f4se86p5folje)" style="stroke:#A80036;stroke-width:1.5;"/><text fill="#000000" font-family="sans-serif" font-size="14" lengthAdjust="spacing" textLength="78" x="41.5" y="1116.0332">Receptionist</text><!--MD5=[e7d38603a700bedb049d1f5e1789c8aa]
entity MLT--><ellipse cx="80.5" cy="843" fill="#FEFECE" filter="url(#f4se86p5folje)" rx="8" ry="8" style="stroke:#A80036;stroke-width:1.5;"/><path d="M80.5,851 L80.5,878 M67.5,859 L93.5,859 M80.5,878 L67.5,893 M80.5,878 L93.5,893 " fill="none" filter="url(#f4se86p5folje)" style="stroke:#A80036;stroke-width:1.5;"/><text fill="#000000" font-family="sans-serif" font-size="14" lengthAdjust="spacing" textLength="149" x="6" y="913.0332">Medical Lab Technician</text><!--MD5=[87439e3fb2bd72484276c19727d934ee]
entity CT--><ellipse cx="80.5" cy="641" fill="#FEFECE" filter="url(#f4se86p5folje)" rx="8" ry="8" style="stroke:#A80036;stroke-width:1.5;"/><path d="M80.5,649 L80.5,676 M67.5,657 L93.5,657 M80.5,676 L67.5,691 M80.5,676 L93.5,691 " fill="none" filter="url(#f4se86p5folje)" style="stroke:#A80036;stroke-width:1.5;"/><text fill="#000000" font-family="sans-serif" font-size="14" lengthAdjust="spacing" textLength="148" x="6.5" y="711.0332">Chemistry Technologist</text><!--MD5=[f0e91d5aa74c2411969e7ef072c6f268]
entity SD--><ellipse cx="80.5" cy="163" fill="#FEFECE" filter="url(#f4se86p5folje)" rx="8" ry="8" style="stroke:#A80036;stroke-width:1.5;"/><path d="M80.5,171 L80.5,198 M67.5,179 L93.5,179 M80.5,198 L67.5,213 M80.5,198 L93.5,213 " fill="none" filter="url(#f4se86p5folje)" style="stroke:#A80036;stroke-width:1.5;"/><text fill="#000000" font-family="sans-serif" font-size="14" lengthAdjust="spacing" textLength="106" x="27.5" y="233.0332">Specialist Doctor</text><!--MD5=[b0100dfa164aec77c855c16afe11d7ec]
entity LC--><ellipse cx="80.5" cy="14" fill="#FEFECE" filter="url(#f4se86p5folje)" rx="8" ry="8" style="stroke:#A80036;stroke-width:1.5;"/><path d="M80.5,22 L80.5,49 M67.5,30 L93.5,30 M80.5,49 L67.5,64 M80.5,49 L93.5,64 " fill="none" filter="url(#f4se86p5folje)" style="stroke:#A80036;stroke-width:1.5;"/><text fill="#000000" font-family="sans-serif" font-size="14" lengthAdjust="spacing" textLength="103" x="29" y="84.0332">Lab Coordinator</text><!--MD5=[5bb58f447e60c14e9d23282c6a4405f4]
entity ADM--><ellipse cx="80.5" cy="403" fill="#FEFECE" filter="url(#f4se86p5folje)" rx="8" ry="8" style="stroke:#A80036;stroke-width:1.5;"/><path d="M80.5,411 L80.5,438 M67.5,419 L93.5,419 M80.5,438 L67.5,453 M80.5,438 L93.5,453 " fill="none" filter="url(#f4se86p5folje)" style="stroke:#A80036;stroke-width:1.5;"/><text fill="#000000" font-family="sans-serif" font-size="14" lengthAdjust="spacing" textLength="83" x="39" y="473.0332">Administrator</text><!--MD5=[9030d6887516f535981585d735d1cddc]
link C to UC1--><path d="M98.76,1227.25 C133.22,1225.74 213.19,1222.26 282.42,1219.24 " fill="none" id="C-to-UC1" style="stroke:#A80036;stroke-width:1.0;"/><polygon fill="#A80036" points="287.81,1219,278.647,1215.389,282.8146,1219.2141,278.9895,1223.3817,287.81,1219" style="stroke:#A80036;stroke-width:1.0;"/><!--MD5=[b5354e77eeaec3a5c0a143f734fe5382]
link C to UC2--><path d="M98.77,1231.92 C124.21,1237.67 173.25,1248.75 215,1258 C249.58,1265.67 287.78,1274.04 320.62,1281.2 " fill="none" id="C-to-UC2" style="stroke:#A80036;stroke-width:1.0;"/><polygon fill="#A80036" points="325.85,1282.34,317.9157,1276.505,320.9661,1281.269,316.2021,1284.3193,325.85,1282.34" style="stroke:#A80036;stroke-width:1.0;"/><!--MD5=[94236bf45e65b545fd636a3fed1d335b]
link RCP to UC3--><path d="M119.55,1065.76 C146.14,1057.41 182.56,1046.39 215,1038 C249.14,1029.17 287.1,1020.63 319.89,1013.65 " fill="none" id="RCP-to-UC3" style="stroke:#A80036;stroke-width:1.0;"/><polygon fill="#A80036" points="325.1,1012.55,315.4702,1010.4842,320.2066,1013.5772,317.1137,1018.3136,325.1,1012.55" style="stroke:#A80036;stroke-width:1.0;"/><!--MD5=[ebe511c10220804a2c21382879e85e27]
link RCP to UC4--><path d="M119.58,1079.54 C148.93,1080.73 191.71,1082.46 235.16,1084.22 " fill="none" id="RCP-to-UC4" style="stroke:#A80036;stroke-width:1.0;"/><polygon fill="#A80036" points="240.19,1084.43,231.3701,1080.0472,235.1946,1084.2153,231.0265,1088.0398,240.19,1084.43" style="stroke:#A80036;stroke-width:1.0;"/><!--MD5=[2ed272b7ba05c8a563a77b8cf4dc3c7b]
link MLT to UC5--><path d="M155.14,862.84 C196.13,856.07 247.93,847.52 293.53,839.99 " fill="none" id="MLT-to-UC5" style="stroke:#A80036;stroke-width:1.0;"/><polygon fill="#A80036" points="298.48,839.17,288.9495,836.6861,293.5465,839.9827,290.2499,844.5797,298.48,839.17" style="stroke:#A80036;stroke-width:1.0;"/><!--MD5=[f50825f9f8e4609eaac7d5f35ca4d631]
link MLT to UC6--><path d="M155.14,883.49 C195.87,888.18 247.27,894.11 292.65,899.34 " fill="none" id="MLT-to-UC6" style="stroke:#A80036;stroke-width:1.0;"/><polygon fill="#A80036" points="297.87,899.94,289.3998,894.9144,292.9043,899.355,288.4638,902.8595,297.87,899.94" style="stroke:#A80036;stroke-width:1.0;"/><!--MD5=[1f43a6894f19c1355b6a2606dda9eddc]
link CT to UC7--><path d="M154.74,662.05 C203.85,654.7 268.61,645.02 319.61,637.39 " fill="none" id="CT-to-UC7" style="stroke:#A80036;stroke-width:1.0;"/><polygon fill="#A80036" points="324.81,636.62,315.3155,634.002,319.8655,637.3631,316.5044,641.9132,324.81,636.62" style="stroke:#A80036;stroke-width:1.0;"/><!--MD5=[f1634b4d1e58b863690c36f4318e9556]
link CT to UC8--><path d="M154.74,683.72 C183.02,687.86 216.49,692.76 249.53,697.6 " fill="none" id="CT-to-UC8" style="stroke:#A80036;stroke-width:1.0;"/><polygon fill="#A80036" points="254.83,698.38,246.5073,693.1138,249.8831,697.6529,245.344,701.0288,254.83,698.38" style="stroke:#A80036;stroke-width:1.0;"/><!--MD5=[b228c7a7ebb1dc8ed63dbccd84ede524]
link ADM to UC9--><path d="M122.06,417.56 C148.34,406.51 183.44,392.24 215,381 C238.32,372.69 263.51,364.43 287.62,356.85 " fill="none" id="ADM-to-UC9" style="stroke:#A80036;stroke-width:1.0;"/><polygon fill="#A80036" points="292.43,355.35,282.6477,354.2065,287.6561,356.8365,285.0261,361.8448,292.43,355.35" style="stroke:#A80036;stroke-width:1.0;"/><!--MD5=[f2aeeef0e7f82e4bd55d88af897bea0b]
link ADM to UC10--><path d="M122.15,435 C149.04,435 186.34,435 224.98,435 " fill="none" id="ADM-to-UC10" style="stroke:#A80036;stroke-width:1.0;"/><polygon fill="#A80036" points="230.19,435,221.19,431,225.19,435,221.19,439,230.19,435" style="stroke:#A80036;stroke-width:1.0;"/><!--MD5=[09c8f0596f04e0f1f852d912de51c40d]
link ADM to UC11--><path d="M122.13,453.48 C148.3,464.95 183.24,479.45 215,490 C242.32,499.07 272.35,507.45 300.22,514.58 " fill="none" id="ADM-to-UC11" style="stroke:#A80036;stroke-width:1.0;"/><polygon fill="#A80036" points="305.4,515.9,297.6599,509.8097,300.5535,514.6705,295.6927,517.5641,305.4,515.9" style="stroke:#A80036;stroke-width:1.0;"/><!--MD5=[6ca0ef08659782dcef224c552a8dba3b]
link SD to UC12--><path d="M133.79,185.39 C175.09,177.8 234.3,166.92 286.62,157.3 " fill="none" id="SD-to-UC12" style="stroke:#A80036;stroke-width:1.0;"/><polygon fill="#A80036" points="291.66,156.37,282.0879,154.0518,286.7413,157.2682,283.525,161.9217,291.66,156.37" style="stroke:#A80036;stroke-width:1.0;"/><!--MD5=[c0fa65b284683212cbcc65c980a35f0c]
link SD to UC13--><path d="M133.79,199.89 C180.26,204.23 249.4,210.69 305.9,215.97 " fill="none" id="SD-to-UC13" style="stroke:#A80036;stroke-width:1.0;"/><polygon fill="#A80036" points="310.98,216.45,302.3978,211.6182,306.0023,215.978,301.6426,219.5825,310.98,216.45" style="stroke:#A80036;stroke-width:1.0;"/><!--MD5=[33e5d6a9e88c3c015deddac573632067]
link LC to UC14--><path d="M132.01,46 C175.03,46 238.35,46 292.92,46 " fill="none" id="LC-to-UC14" style="stroke:#A80036;stroke-width:1.0;"/><polygon fill="#A80036" points="298.17,46,289.17,42,293.17,46,289.17,50,298.17,46" style="stroke:#A80036;stroke-width:1.0;"/><!--MD5=[dc4aff81f895a1bdb67c49dcf8958e5f]
@startuml

usecase UC1 as "UC1 - Get registered as a client"
usecase UC2 as "UC2 - Quick blood/swab test"
usecase UC3 as "UC3 - Register a new client"
usecase UC4 as "UC4 - Register a test to be performed to a client"
usecase UC5 as "UC5 - Record collected test samples"
usecase UC6 as "UC6 - Associate sample to client"
usecase UC7 as "UC7 - Receive samples"
usecase UC8 as "UC8 - Perform chemical analysis and register results"
usecase UC9 as "UC9 - Specify new type of test (and collecting methods)"
usecase UC10 as "UC10 - Specify and categorize new test parameter"
usecase UC11 as "UC11 - Specify new parameter category"
usecase UC12 as "UC12 - Make diagnosis and write a report"
usecase UC13 as "UC13 - Check test results"
usecase UC14 as "UC14 - Validate test results"


actor "Client" as C
actor "Receptionist" as RCP
actor "Medical Lab Technician" as MLT
actor "Chemistry Technologist" as CT
actor "Specialist Doctor" as SD
actor "Lab Coordinator" as LC
actor "Administrator" as ADM


left to right direction

C - ->(UC1)
C - ->(UC2)

RCP - ->(UC3)
RCP - ->(UC4)

MLT - ->(UC5)
MLT - ->(UC6)

CT - ->(UC7)
CT - ->(UC8)

ADM - ->(UC9)
ADM - ->(UC10)
ADM - ->(UC11)

SD - ->(UC12)
SD - ->(UC13)

LC- -> (UC14)



@enduml

PlantUML version 1.2021.4(Sun Apr 04 09:49:39 BST 2021)
(GPL source distribution)
Java Runtime: OpenJDK Runtime Environment
JVM: OpenJDK 64-Bit Server VM
Default Encoding: Cp1252
Language: pt
Country: PT
--></g></svg>