<?xml version="1.0" encoding="UTF-8" standalone="no"?><svg xmlns="http://www.w3.org/2000/svg" xmlns:xlink="http://www.w3.org/1999/xlink" contentScriptType="application/ecmascript" contentStyleType="text/css" height="434px" preserveAspectRatio="none" style="width:277px;height:434px;" version="1.1" viewBox="0 0 277 434" width="277px" zoomAndPan="magnify"><defs><filter height="300%" id="fapbynz4rfxxz" width="300%" x="-1" y="-1"><feGaussianBlur result="blurOut" stdDeviation="2.0"/><feColorMatrix in="blurOut" result="blurOut2" type="matrix" values="0 0 0 0 0 0 0 0 0 0 0 0 0 0 0 0 0 0 .4 0"/><feOffset dx="4.0" dy="4.0" in="blurOut2" result="blurOut3"/><feBlend in="SourceGraphic" in2="blurOut3" mode="normal"/></filter></defs><g><!--MD5=[02e4b9b7573f1156f41e60aa5b4e25a4]
class Company--><rect codeLine="2" fill="#FEFECE" filter="url(#fapbynz4rfxxz)" height="60.8047" id="Company" style="stroke:#A80036;stroke-width:1.5;" width="89" x="115.5" y="7"/><ellipse cx="130.5" cy="23" fill="#ADD1B2" rx="11" ry="11" style="stroke:#A80036;stroke-width:1.0;"/><path d="M133.4688,28.6406 Q132.8906,28.9375 132.25,29.0781 Q131.6094,29.2344 130.9063,29.2344 Q128.4063,29.2344 127.0781,27.5938 Q125.7656,25.9375 125.7656,22.8125 Q125.7656,19.6875 127.0781,18.0313 Q128.4063,16.375 130.9063,16.375 Q131.6094,16.375 132.25,16.5313 Q132.9063,16.6875 133.4688,16.9844 L133.4688,19.7031 Q132.8438,19.125 132.25,18.8594 Q131.6563,18.5781 131.0313,18.5781 Q129.6875,18.5781 129,19.6563 Q128.3125,20.7188 128.3125,22.8125 Q128.3125,24.9063 129,25.9844 Q129.6875,27.0469 131.0313,27.0469 Q131.6563,27.0469 132.25,26.7813 Q132.8438,26.5 133.4688,25.9219 L133.4688,28.6406 Z " fill="#000000"/><text fill="#000000" font-family="sans-serif" font-size="12" lengthAdjust="spacingAndGlyphs" textLength="57" x="144.5" y="27.1543">Company</text><line style="stroke:#A80036;stroke-width:1.5;" x1="116.5" x2="203.5" y1="39" y2="39"/><text fill="#000000" font-family="sans-serif" font-size="11" lengthAdjust="spacingAndGlyphs" textLength="70" x="121.5" y="53.2104">-designation</text><line style="stroke:#A80036;stroke-width:1.5;" x1="116.5" x2="203.5" y1="59.8047" y2="59.8047"/><!--MD5=[da547346deef918ea16944ba046651ef]
class Administrator--><rect codeLine="5" fill="#FEFECE" filter="url(#fapbynz4rfxxz)" height="48" id="Administrator" style="stroke:#A80036;stroke-width:1.5;" width="116" x="13" y="145"/><ellipse cx="28" cy="161" fill="#ADD1B2" rx="11" ry="11" style="stroke:#A80036;stroke-width:1.0;"/><path d="M30.9688,166.6406 Q30.3906,166.9375 29.75,167.0781 Q29.1094,167.2344 28.4063,167.2344 Q25.9063,167.2344 24.5781,165.5938 Q23.2656,163.9375 23.2656,160.8125 Q23.2656,157.6875 24.5781,156.0313 Q25.9063,154.375 28.4063,154.375 Q29.1094,154.375 29.75,154.5313 Q30.4063,154.6875 30.9688,154.9844 L30.9688,157.7031 Q30.3438,157.125 29.75,156.8594 Q29.1563,156.5781 28.5313,156.5781 Q27.1875,156.5781 26.5,157.6563 Q25.8125,158.7188 25.8125,160.8125 Q25.8125,162.9063 26.5,163.9844 Q27.1875,165.0469 28.5313,165.0469 Q29.1563,165.0469 29.75,164.7813 Q30.3438,164.5 30.9688,163.9219 L30.9688,166.6406 Z " fill="#000000"/><text fill="#000000" font-family="sans-serif" font-size="12" lengthAdjust="spacingAndGlyphs" textLength="84" x="42" y="165.1543">Administrator</text><line style="stroke:#A80036;stroke-width:1.5;" x1="14" x2="128" y1="177" y2="177"/><line style="stroke:#A80036;stroke-width:1.5;" x1="14" x2="128" y1="185" y2="185"/><!--MD5=[7421f545a0d8420c5bec41e74b387d9c]
class Employee--><rect codeLine="6" fill="#FEFECE" filter="url(#fapbynz4rfxxz)" height="150.4375" id="Employee" style="stroke:#A80036;stroke-width:1.5;" width="256" x="7" y="270"/><ellipse cx="100.75" cy="286" fill="#ADD1B2" rx="11" ry="11" style="stroke:#A80036;stroke-width:1.0;"/><path d="M103.7188,291.6406 Q103.1406,291.9375 102.5,292.0781 Q101.8594,292.2344 101.1563,292.2344 Q98.6563,292.2344 97.3281,290.5938 Q96.0156,288.9375 96.0156,285.8125 Q96.0156,282.6875 97.3281,281.0313 Q98.6563,279.375 101.1563,279.375 Q101.8594,279.375 102.5,279.5313 Q103.1563,279.6875 103.7188,279.9844 L103.7188,282.7031 Q103.0938,282.125 102.5,281.8594 Q101.9063,281.5781 101.2813,281.5781 Q99.9375,281.5781 99.25,282.6563 Q98.5625,283.7188 98.5625,285.8125 Q98.5625,287.9063 99.25,288.9844 Q99.9375,290.0469 101.2813,290.0469 Q101.9063,290.0469 102.5,289.7813 Q103.0938,289.5 103.7188,288.9219 L103.7188,291.6406 Z " fill="#000000"/><text fill="#000000" font-family="sans-serif" font-size="12" lengthAdjust="spacingAndGlyphs" textLength="60" x="121.25" y="290.1543">Employee</text><line style="stroke:#A80036;stroke-width:1.5;" x1="8" x2="262" y1="302" y2="302"/><text fill="#000000" font-family="sans-serif" font-size="11" lengthAdjust="spacingAndGlyphs" textLength="74" x="13" y="316.2104">-employee ID</text><text fill="#000000" font-family="sans-serif" font-size="11" lengthAdjust="spacingAndGlyphs" textLength="99" x="13" y="329.0151">-organization role</text><text fill="#000000" font-family="sans-serif" font-size="11" lengthAdjust="spacingAndGlyphs" textLength="36" x="13" y="341.8198">-name</text><text fill="#000000" font-family="sans-serif" font-size="11" lengthAdjust="spacingAndGlyphs" textLength="51" x="13" y="354.6245">-address</text><text fill="#000000" font-family="sans-serif" font-size="11" lengthAdjust="spacingAndGlyphs" textLength="87" x="13" y="367.4292">-phone number</text><text fill="#000000" font-family="sans-serif" font-size="11" lengthAdjust="spacingAndGlyphs" textLength="39" x="13" y="380.2339">-e-mail</text><text fill="#000000" font-family="sans-serif" font-size="11" lengthAdjust="spacingAndGlyphs" textLength="244" x="13" y="393.0386">-Standard Occupational Classification code</text><text fill="#000000" font-family="sans-serif" font-size="11" lengthAdjust="spacingAndGlyphs" textLength="124" x="13" y="405.8433">-Doctor Index Number</text><line style="stroke:#A80036;stroke-width:1.5;" x1="8" x2="262" y1="412.4375" y2="412.4375"/><!--MD5=[eaea43e34e45c5b9d20b595fc78f1f20]
link Company to Administrator--><path codeLine="18" d="M139.1356,68.2734 C132.6787,77.8007 125.5432,88.3331 119,98 C108.4913,113.5254 96.6992,130.9676 87.4327,144.6788 " fill="none" id="Company-Administrator" style="stroke:#A80036;stroke-width:1.0;"/><polygon fill="#000000" points="121.1978,110.7074,128.701,104.8634,123.833,101.5692,121.1978,110.7074" style="stroke:#000000;stroke-width:1.0;"/><text fill="#000000" font-family="sans-serif" font-size="13" lengthAdjust="spacingAndGlyphs" textLength="39" x="133" y="111.0669">knows</text><text fill="#000000" font-family="sans-serif" font-size="13" lengthAdjust="spacingAndGlyphs" textLength="8" x="126.2404" y="87.9077">1</text><text fill="#000000" font-family="sans-serif" font-size="13" lengthAdjust="spacingAndGlyphs" textLength="8" x="82.4632" y="134.0055">1</text><!--MD5=[09366576ee87d48d594df10cacc83f45]
link Company to Employee--><path codeLine="19" d="M170.3935,68.2435 C173.1045,77.677 175.6444,88.1646 177,98 C181.5369,130.9175 205.5764,81.0032 175,240 C173.1028,249.8654 170.3501,260.0109 167.1629,269.9245 " fill="none" id="Company-Employee" style="stroke:#A80036;stroke-width:1.0;"/><polygon fill="#000000" points="193.9199,174.0658,197.0033,165.0689,191.1262,164.9748,193.9199,174.0658" style="stroke:#000000;stroke-width:1.0;"/><text fill="#000000" font-family="sans-serif" font-size="13" lengthAdjust="spacingAndGlyphs" textLength="39" x="203" y="173.5669">knows</text><text fill="#000000" font-family="sans-serif" font-size="13" lengthAdjust="spacingAndGlyphs" textLength="8" x="163.6522" y="87.8719">1</text><text fill="#000000" font-family="sans-serif" font-size="13" lengthAdjust="spacingAndGlyphs" textLength="7" x="162.9844" y="258.8479">*</text><!--MD5=[8f7dd94d56b58fc07b233ccd3dd98f8c]
link Administrator to Employee--><path codeLine="20" d="M79.7647,193.103 C86.9882,212.9675 97.6388,242.2566 107.665,269.8287 " fill="none" id="Administrator-Employee" style="stroke:#A80036;stroke-width:1.0;"/><polygon fill="#000000" points="102.7087,236.2654,102.3796,226.7605,96.8556,228.7692,102.7087,236.2654" style="stroke:#000000;stroke-width:1.0;"/><text fill="#000000" font-family="sans-serif" font-size="13" lengthAdjust="spacingAndGlyphs" textLength="56" x="110" y="236.0669">registers</text><text fill="#000000" font-family="sans-serif" font-size="13" lengthAdjust="spacingAndGlyphs" textLength="8" x="72.9261" y="212.8893">1</text><text fill="#000000" font-family="sans-serif" font-size="13" lengthAdjust="spacingAndGlyphs" textLength="7" x="97.726" y="259.0015">*</text><!--MD5=[36ee6938e23b56378b5f25795aa1ea64]
@startuml
skinparam classAttributeIconSize 0
class Company {
-designation
}
class Administrator
class Employee {
 - employee ID
 - organization role
 - name 
 - address 
 - phone number
  - e-mail 
 - Standard Occupational Classification code
 - Doctor Index Number 
  }
  

Company "1" - - "1" Administrator : > knows
Company "1" - - "*" Employee : > knows
Administrator "1" - - "*" Employee : > registers
@enduml

PlantUML version 1.2020.22(Sun Dec 06 09:36:27 UTC 2020)
(GPL source distribution)
Java Runtime: OpenJDK Runtime Environment
JVM: OpenJDK 64-Bit Server VM
Default Encoding: UTF-8
Language: en
Country: US
--></g></svg>