<?xml version="1.0" encoding="UTF-8" standalone="no"?><svg xmlns="http://www.w3.org/2000/svg" xmlns:xlink="http://www.w3.org/1999/xlink" contentScriptType="application/ecmascript" contentStyleType="text/css" height="781px" preserveAspectRatio="none" style="width:1630px;height:781px;" version="1.1" viewBox="0 0 1630 781" width="1630px" zoomAndPan="magnify"><defs><filter height="300%" id="facgh3psirybv" width="300%" x="-1" y="-1"><feGaussianBlur result="blurOut" stdDeviation="2.0"/><feColorMatrix in="blurOut" result="blurOut2" type="matrix" values="0 0 0 0 0 0 0 0 0 0 0 0 0 0 0 0 0 0 .4 0"/><feOffset dx="4.0" dy="4.0" in="blurOut2" result="blurOut3"/><feBlend in="SourceGraphic" in2="blurOut3" mode="normal"/></filter></defs><g><!--MD5=[2c2e2644034c00788261e03c85b06837]
cluster Core--><polygon fill="#FFFFFF" filter="url(#facgh3psirybv)" points="193,6,233,6,240,29.6094,1613,29.6094,1613,774,193,774,193,6" style="stroke:#000000;stroke-width:1.5;"/><line style="stroke:#000000;stroke-width:1.5;" x1="193" x2="240" y1="29.6094" y2="29.6094"/><text fill="#000000" font-family="sans-serif" font-size="14" font-weight="bold" lengthAdjust="spacing" textLength="34" x="197" y="22.5332">Core</text><!--MD5=[121a8bf1197281ab89ed693fab589f94]
cluster Domain--><polygon fill="#FFFFFF" filter="url(#facgh3psirybv)" points="554.5,464,612.5,464,619.5,487.6094,1589,487.6094,1589,750,554.5,750,554.5,464" style="stroke:#000000;stroke-width:1.5;"/><line style="stroke:#000000;stroke-width:1.5;" x1="554.5" x2="619.5" y1="487.6094" y2="487.6094"/><text fill="#000000" font-family="sans-serif" font-size="14" font-weight="bold" lengthAdjust="spacing" textLength="52" x="558.5" y="480.5332">Domain</text><!--MD5=[8dd535d56cd4cf7faf64fdd082ba836e]
cluster Stores--><polygon fill="#FFFFFF" filter="url(#facgh3psirybv)" points="537.5,298,589.5,298,596.5,321.6094,705.5,321.6094,705.5,440,537.5,440,537.5,298" style="stroke:#000000;stroke-width:1.5;"/><line style="stroke:#000000;stroke-width:1.5;" x1="537.5" x2="596.5" y1="321.6094" y2="321.6094"/><text fill="#000000" font-family="sans-serif" font-size="14" font-weight="bold" lengthAdjust="spacing" textLength="46" x="541.5" y="314.5332">Stores</text><!--MD5=[ed1d20ea533a2a0e7df5ba3c35e56ced]
cluster Controllers--><polygon fill="#FFFFFF" filter="url(#facgh3psirybv)" points="217,200,302,200,309,223.6094,414,223.6094,414,342,217,342,217,200" style="stroke:#000000;stroke-width:1.5;"/><line style="stroke:#000000;stroke-width:1.5;" x1="217" x2="309" y1="223.6094" y2="223.6094"/><text fill="#000000" font-family="sans-serif" font-size="14" font-weight="bold" lengthAdjust="spacing" textLength="79" x="221" y="216.5332">Controllers</text><!--MD5=[701152d03fbf85133a1de050cfdbc7fd]
cluster Mappers--><polygon fill="#FFFFFF" filter="url(#facgh3psirybv)" points="447,50,515,50,522,73.6094,796,73.6094,796,261,447,261,447,50" style="stroke:#000000;stroke-width:1.5;"/><line style="stroke:#000000;stroke-width:1.5;" x1="447" x2="522" y1="73.6094" y2="73.6094"/><text fill="#000000" font-family="sans-serif" font-size="14" font-weight="bold" lengthAdjust="spacing" textLength="62" x="451" y="66.5332">Mappers</text><!--MD5=[a7e26d82dece3a99be33d8557e72e039]
cluster Dto--><polygon fill="#FFFFFF" filter="url(#facgh3psirybv)" points="983,71,1013,71,1020,94.6094,1173,94.6094,1173,254,983,254,983,71" style="stroke:#000000;stroke-width:1.5;"/><line style="stroke:#000000;stroke-width:1.5;" x1="983" x2="1020" y1="94.6094" y2="94.6094"/><text fill="#000000" font-family="sans-serif" font-size="14" font-weight="bold" lengthAdjust="spacing" textLength="24" x="987" y="87.5332">Dto</text><!--MD5=[9681dc6e01e10c6b4fe06895ae94f592]
cluster UI--><polygon fill="#FFFFFF" filter="url(#facgh3psirybv)" points="16,221,36,221,43,244.6094,160,244.6094,160,321,16,321,16,221" style="stroke:#000000;stroke-width:1.5;"/><line style="stroke:#000000;stroke-width:1.5;" x1="16" x2="43" y1="244.6094" y2="244.6094"/><text fill="#000000" font-family="sans-serif" font-size="14" font-weight="bold" lengthAdjust="spacing" textLength="14" x="20" y="237.5332">UI</text><!--MD5=[378b18254a1b2429f435e93f5e5cc50c]
class C--><rect codeLine="7" fill="#FEFECE" filter="url(#facgh3psirybv)" height="75.6719" id="C" style="stroke:#A80036;stroke-width:1.5;" width="102" x="570.5" y="509"/><ellipse cx="593.15" cy="525" fill="#ADD1B2" rx="11" ry="11" style="stroke:#A80036;stroke-width:1.0;"/><path d="M595.15,521.5 Q595.3531,521 595.5875,520.75 Q595.8219,520.5 596.0875,520.5 Q596.5563,520.5 596.8531,520.7813 Q597.15,521.0625 597.15,521.7188 L597.15,523.2813 Q597.15,523.9375 596.8688,524.2188 Q596.5875,524.5 596.15,524.5 Q595.7594,524.5 595.5094,524.3281 Q595.2594,524.1563 595.15,523.7031 Q595.1031,523.3906 594.9313,523.2188 Q594.6188,522.8906 594.0563,522.7031 Q593.4938,522.5 592.9313,522.5 Q592.2281,522.5 591.6344,522.7813 Q591.0563,523.0625 590.6031,523.6875 Q590.15,524.3125 590.15,525.1719 L590.15,526.0938 Q590.15,527.125 590.9938,527.8125 Q591.8375,528.5 593.3375,528.5 Q594.2281,528.5 594.8531,528.2969 Q595.2125,528.1875 595.6188,527.8281 Q595.8844,527.625 596.025,527.5625 Q596.1656,527.5 596.3375,527.5 Q596.6656,527.5 596.9,527.7656 Q597.15,528.0156 597.15,528.375 Q597.15,528.7188 596.8063,529.125 Q596.3063,529.7188 595.5094,530.0469 Q594.4625,530.5 593.1813,530.5 Q591.6813,530.5 590.4781,529.9063 Q589.5094,529.4375 588.8219,528.4219 Q588.15,527.4063 588.15,526.2031 L588.15,525.1094 Q588.15,523.8594 588.7438,522.7656 Q589.3531,521.6719 590.4,521.0938 Q591.4625,520.5 592.65,520.5 Q593.3688,520.5 593.9938,520.75 Q594.6188,521 595.15,521.5 Z " fill="#000000"/><text fill="#000000" font-family="sans-serif" font-size="12" lengthAdjust="spacing" textLength="53" x="608.85" y="529.9102">Company</text><line style="stroke:#A80036;stroke-width:1.5;" x1="571.5" x2="671.5" y1="541" y2="541"/><text fill="#000000" font-family="sans-serif" font-size="11" lengthAdjust="spacing" textLength="90" x="576.5" y="556.4189">-String designation</text><line style="stroke:#A80036;stroke-width:1.5;" x1="571.5" x2="671.5" y1="562.8359" y2="562.8359"/><text fill="#000000" font-family="sans-serif" font-size="11" lengthAdjust="spacing" textLength="76" x="576.5" y="578.2549">+getTestStore()</text><!--MD5=[218f71f443b9e0720bb96dd9df1d4749]
class PC--><rect codeLine="12" fill="#FEFECE" filter="url(#facgh3psirybv)" height="89.5078" id="PC" style="stroke:#A80036;stroke-width:1.5;" width="175" x="1398" y="607"/><ellipse cx="1429.2" cy="623" fill="#ADD1B2" rx="11" ry="11" style="stroke:#A80036;stroke-width:1.0;"/><path d="M1431.2,619.5 Q1431.4031,619 1431.6375,618.75 Q1431.8719,618.5 1432.1375,618.5 Q1432.6063,618.5 1432.9031,618.7813 Q1433.2,619.0625 1433.2,619.7188 L1433.2,621.2813 Q1433.2,621.9375 1432.9188,622.2188 Q1432.6375,622.5 1432.2,622.5 Q1431.8094,622.5 1431.5594,622.3281 Q1431.3094,622.1563 1431.2,621.7031 Q1431.1531,621.3906 1430.9813,621.2188 Q1430.6688,620.8906 1430.1063,620.7031 Q1429.5438,620.5 1428.9813,620.5 Q1428.2781,620.5 1427.6844,620.7813 Q1427.1063,621.0625 1426.6531,621.6875 Q1426.2,622.3125 1426.2,623.1719 L1426.2,624.0938 Q1426.2,625.125 1427.0438,625.8125 Q1427.8875,626.5 1429.3875,626.5 Q1430.2781,626.5 1430.9031,626.2969 Q1431.2625,626.1875 1431.6688,625.8281 Q1431.9344,625.625 1432.075,625.5625 Q1432.2156,625.5 1432.3875,625.5 Q1432.7156,625.5 1432.95,625.7656 Q1433.2,626.0156 1433.2,626.375 Q1433.2,626.7188 1432.8563,627.125 Q1432.3563,627.7188 1431.5594,628.0469 Q1430.5125,628.5 1429.2313,628.5 Q1427.7313,628.5 1426.5281,627.9063 Q1425.5594,627.4375 1424.8719,626.4219 Q1424.2,625.4063 1424.2,624.2031 L1424.2,623.1094 Q1424.2,621.8594 1424.7938,620.7656 Q1425.4031,619.6719 1426.45,619.0938 Q1427.5125,618.5 1428.7,618.5 Q1429.4188,618.5 1430.0438,618.75 Q1430.6688,619 1431.2,619.5 Z " fill="#000000"/><text fill="#000000" font-family="sans-serif" font-size="12" lengthAdjust="spacing" textLength="107" x="1446.8" y="627.9102">ParameterCategory</text><line style="stroke:#A80036;stroke-width:1.5;" x1="1399" x2="1572" y1="639" y2="639"/><text fill="#000000" font-family="sans-serif" font-size="11" lengthAdjust="spacing" textLength="61" x="1404" y="654.4189">-String name</text><text fill="#000000" font-family="sans-serif" font-size="11" lengthAdjust="spacing" textLength="59" x="1404" y="668.2549">-String code</text><line style="stroke:#A80036;stroke-width:1.5;" x1="1399" x2="1572" y1="674.6719" y2="674.6719"/><text fill="#000000" font-family="sans-serif" font-size="11" lengthAdjust="spacing" textLength="163" x="1404" y="690.0908">+ParameterCategory(name, code)</text><!--MD5=[f76673142371ead9f091198193c4bd63]
class TT--><rect codeLine="18" fill="#FEFECE" filter="url(#facgh3psirybv)" height="144.8516" id="TT" style="stroke:#A80036;stroke-width:1.5;" width="364" x="896" y="500.5"/><ellipse cx="1048.75" cy="516.5" fill="#ADD1B2" rx="11" ry="11" style="stroke:#A80036;stroke-width:1.0;"/><path d="M1050.75,513 Q1050.9531,512.5 1051.1875,512.25 Q1051.4219,512 1051.6875,512 Q1052.1563,512 1052.4531,512.2813 Q1052.75,512.5625 1052.75,513.2188 L1052.75,514.7813 Q1052.75,515.4375 1052.4688,515.7188 Q1052.1875,516 1051.75,516 Q1051.3594,516 1051.1094,515.8281 Q1050.8594,515.6563 1050.75,515.2031 Q1050.7031,514.8906 1050.5313,514.7188 Q1050.2188,514.3906 1049.6563,514.2031 Q1049.0938,514 1048.5313,514 Q1047.8281,514 1047.2344,514.2813 Q1046.6563,514.5625 1046.2031,515.1875 Q1045.75,515.8125 1045.75,516.6719 L1045.75,517.5938 Q1045.75,518.625 1046.5938,519.3125 Q1047.4375,520 1048.9375,520 Q1049.8281,520 1050.4531,519.7969 Q1050.8125,519.6875 1051.2188,519.3281 Q1051.4844,519.125 1051.625,519.0625 Q1051.7656,519 1051.9375,519 Q1052.2656,519 1052.5,519.2656 Q1052.75,519.5156 1052.75,519.875 Q1052.75,520.2188 1052.4063,520.625 Q1051.9063,521.2188 1051.1094,521.5469 Q1050.0625,522 1048.7813,522 Q1047.2813,522 1046.0781,521.4063 Q1045.1094,520.9375 1044.4219,519.9219 Q1043.75,518.9063 1043.75,517.7031 L1043.75,516.6094 Q1043.75,515.3594 1044.3438,514.2656 Q1044.9531,513.1719 1046,512.5938 Q1047.0625,512 1048.25,512 Q1048.9688,512 1049.5938,512.25 Q1050.2188,512.5 1050.75,513 Z " fill="#000000"/><text fill="#000000" font-family="sans-serif" font-size="12" lengthAdjust="spacing" textLength="50" x="1069.25" y="521.4102">TestType</text><line style="stroke:#A80036;stroke-width:1.5;" x1="897" x2="1259" y1="532.5" y2="532.5"/><text fill="#000000" font-family="sans-serif" font-size="11" lengthAdjust="spacing" textLength="59" x="902" y="547.9189">-String code</text><text fill="#000000" font-family="sans-serif" font-size="11" lengthAdjust="spacing" textLength="88" x="902" y="561.7549">-String description</text><text fill="#000000" font-family="sans-serif" font-size="11" lengthAdjust="spacing" textLength="115" x="902" y="575.5908">-String collectingMethod</text><text fill="#000000" font-family="sans-serif" font-size="11" lengthAdjust="spacing" textLength="193" x="902" y="589.4268">-ParameterCategory parameterCategory</text><text fill="#000000" font-family="sans-serif" font-size="11" lengthAdjust="spacing" textLength="250" x="902" y="603.2627">-List &lt;ParameterCategory&gt; parameterCategoriesList</text><line style="stroke:#A80036;stroke-width:1.5;" x1="897" x2="1259" y1="609.6797" y2="609.6797"/><text fill="#000000" font-family="sans-serif" font-size="11" lengthAdjust="spacing" textLength="327" x="902" y="625.0986">+TestType(code, description, collectingMethod, parameterCategory)</text><text fill="#000000" font-family="sans-serif" font-size="11" lengthAdjust="spacing" textLength="352" x="902" y="638.9346">+TestType(code, description, collectingMethod, parameterCategoriesList)</text><!--MD5=[b0a1b9137b50b50b320b426f68562434]
class TS--><rect codeLine="33" fill="#FEFECE" filter="url(#facgh3psirybv)" height="89.5078" id="TS" style="stroke:#A80036;stroke-width:1.5;" width="136" x="553.5" y="334"/><ellipse cx="591.45" cy="350" fill="#ADD1B2" rx="11" ry="11" style="stroke:#A80036;stroke-width:1.0;"/><path d="M593.45,346.5 Q593.6531,346 593.8875,345.75 Q594.1219,345.5 594.3875,345.5 Q594.8563,345.5 595.1531,345.7813 Q595.45,346.0625 595.45,346.7188 L595.45,348.2813 Q595.45,348.9375 595.1688,349.2188 Q594.8875,349.5 594.45,349.5 Q594.0594,349.5 593.8094,349.3281 Q593.5594,349.1563 593.45,348.7031 Q593.4031,348.3906 593.2313,348.2188 Q592.9188,347.8906 592.3563,347.7031 Q591.7938,347.5 591.2313,347.5 Q590.5281,347.5 589.9344,347.7813 Q589.3563,348.0625 588.9031,348.6875 Q588.45,349.3125 588.45,350.1719 L588.45,351.0938 Q588.45,352.125 589.2938,352.8125 Q590.1375,353.5 591.6375,353.5 Q592.5281,353.5 593.1531,353.2969 Q593.5125,353.1875 593.9188,352.8281 Q594.1844,352.625 594.325,352.5625 Q594.4656,352.5 594.6375,352.5 Q594.9656,352.5 595.2,352.7656 Q595.45,353.0156 595.45,353.375 Q595.45,353.7188 595.1063,354.125 Q594.6063,354.7188 593.8094,355.0469 Q592.7625,355.5 591.4813,355.5 Q589.9813,355.5 588.7781,354.9063 Q587.8094,354.4375 587.1219,353.4219 Q586.45,352.4063 586.45,351.2031 L586.45,350.1094 Q586.45,348.8594 587.0438,347.7656 Q587.6531,346.6719 588.7,346.0938 Q589.7625,345.5 590.95,345.5 Q591.6688,345.5 592.2938,345.75 Q592.9188,346 593.45,346.5 Z " fill="#000000"/><text fill="#000000" font-family="sans-serif" font-size="12" lengthAdjust="spacing" textLength="53" x="610.55" y="354.9102">TestStore</text><line style="stroke:#A80036;stroke-width:1.5;" x1="554.5" x2="688.5" y1="366" y2="366"/><text fill="#000000" font-family="sans-serif" font-size="11" lengthAdjust="spacing" textLength="92" x="559.5" y="381.4189">-List&lt;Test&gt; testList</text><line style="stroke:#A80036;stroke-width:1.5;" x1="554.5" x2="688.5" y1="387.8359" y2="387.8359"/><text fill="#000000" font-family="sans-serif" font-size="11" lengthAdjust="spacing" textLength="124" x="559.5" y="403.2549">+List &lt;Test&gt; getAllTests()</text><text fill="#000000" font-family="sans-serif" font-size="11" lengthAdjust="spacing" textLength="113" x="559.5" y="417.0908">+boolean validateTest()</text><!--MD5=[e0d42c936ced924a28e0518427c43ea5]
class VTC--><rect codeLine="43" fill="#FEFECE" filter="url(#facgh3psirybv)" height="89.5078" id="VTC" style="stroke:#A80036;stroke-width:1.5;" width="165" x="233" y="236"/><ellipse cx="252.95" cy="252" fill="#ADD1B2" rx="11" ry="11" style="stroke:#A80036;stroke-width:1.0;"/><path d="M254.95,248.5 Q255.1531,248 255.3875,247.75 Q255.6219,247.5 255.8875,247.5 Q256.3563,247.5 256.6531,247.7813 Q256.95,248.0625 256.95,248.7188 L256.95,250.2813 Q256.95,250.9375 256.6688,251.2188 Q256.3875,251.5 255.95,251.5 Q255.5594,251.5 255.3094,251.3281 Q255.0594,251.1563 254.95,250.7031 Q254.9031,250.3906 254.7313,250.2188 Q254.4188,249.8906 253.8563,249.7031 Q253.2938,249.5 252.7313,249.5 Q252.0281,249.5 251.4344,249.7813 Q250.8563,250.0625 250.4031,250.6875 Q249.95,251.3125 249.95,252.1719 L249.95,253.0938 Q249.95,254.125 250.7938,254.8125 Q251.6375,255.5 253.1375,255.5 Q254.0281,255.5 254.6531,255.2969 Q255.0125,255.1875 255.4188,254.8281 Q255.6844,254.625 255.825,254.5625 Q255.9656,254.5 256.1375,254.5 Q256.4656,254.5 256.7,254.7656 Q256.95,255.0156 256.95,255.375 Q256.95,255.7188 256.6063,256.125 Q256.1063,256.7188 255.3094,257.0469 Q254.2625,257.5 252.9813,257.5 Q251.4813,257.5 250.2781,256.9063 Q249.3094,256.4375 248.6219,255.4219 Q247.95,254.4063 247.95,253.2031 L247.95,252.1094 Q247.95,250.8594 248.5438,249.7656 Q249.1531,248.6719 250.2,248.0938 Q251.2625,247.5 252.45,247.5 Q253.1688,247.5 253.7938,247.75 Q254.4188,248 254.95,248.5 Z " fill="#000000"/><text fill="#000000" font-family="sans-serif" font-size="12" lengthAdjust="spacing" textLength="122" x="268.05" y="256.9102">ValidateTestController</text><line style="stroke:#A80036;stroke-width:1.5;" x1="234" x2="397" y1="268" y2="268"/><line style="stroke:#A80036;stroke-width:1.5;" x1="234" x2="397" y1="276" y2="276"/><text fill="#000000" font-family="sans-serif" font-size="11" lengthAdjust="spacing" textLength="120" x="239" y="291.4189">+ValidateTestController()</text><text fill="#000000" font-family="sans-serif" font-size="11" lengthAdjust="spacing" textLength="153" x="239" y="305.2549">+List&lt;TestDto&gt; getAllTestsDto()</text><text fill="#000000" font-family="sans-serif" font-size="11" lengthAdjust="spacing" textLength="113" x="239" y="319.0908">+boolean validateTest()</text><!--MD5=[1905ea1c532ab03438cb5177c6784fd5]
class ttM--><rect codeLine="56" fill="#FEFECE" filter="url(#facgh3psirybv)" height="61.8359" id="ttM" style="stroke:#A80036;stroke-width:1.5;" width="221" x="511" y="183"/><ellipse cx="571.75" cy="199" fill="#ADD1B2" rx="11" ry="11" style="stroke:#A80036;stroke-width:1.0;"/><path d="M573.75,195.5 Q573.9531,195 574.1875,194.75 Q574.4219,194.5 574.6875,194.5 Q575.1563,194.5 575.4531,194.7813 Q575.75,195.0625 575.75,195.7188 L575.75,197.2813 Q575.75,197.9375 575.4688,198.2188 Q575.1875,198.5 574.75,198.5 Q574.3594,198.5 574.1094,198.3281 Q573.8594,198.1563 573.75,197.7031 Q573.7031,197.3906 573.5313,197.2188 Q573.2188,196.8906 572.6563,196.7031 Q572.0938,196.5 571.5313,196.5 Q570.8281,196.5 570.2344,196.7813 Q569.6563,197.0625 569.2031,197.6875 Q568.75,198.3125 568.75,199.1719 L568.75,200.0938 Q568.75,201.125 569.5938,201.8125 Q570.4375,202.5 571.9375,202.5 Q572.8281,202.5 573.4531,202.2969 Q573.8125,202.1875 574.2188,201.8281 Q574.4844,201.625 574.625,201.5625 Q574.7656,201.5 574.9375,201.5 Q575.2656,201.5 575.5,201.7656 Q575.75,202.0156 575.75,202.375 Q575.75,202.7188 575.4063,203.125 Q574.9063,203.7188 574.1094,204.0469 Q573.0625,204.5 571.7813,204.5 Q570.2813,204.5 569.0781,203.9063 Q568.1094,203.4375 567.4219,202.4219 Q566.75,201.4063 566.75,200.2031 L566.75,199.1094 Q566.75,197.8594 567.3438,196.7656 Q567.9531,195.6719 569,195.0938 Q570.0625,194.5 571.25,194.5 Q571.9688,194.5 572.5938,194.75 Q573.2188,195 573.75,195.5 Z " fill="#000000"/><text fill="#000000" font-family="sans-serif" font-size="12" lengthAdjust="spacing" textLength="91" x="592.25" y="203.9102">TestTypeMapper</text><line style="stroke:#A80036;stroke-width:1.5;" x1="512" x2="731" y1="215" y2="215"/><line style="stroke:#A80036;stroke-width:1.5;" x1="512" x2="731" y1="223" y2="223"/><text fill="#000000" font-family="sans-serif" font-size="11" lengthAdjust="spacing" textLength="209" x="517" y="238.4189">+List &lt;TestTypeDto&gt; toDto(List&lt;TestType&gt;)</text><!--MD5=[c87944dbd4a20957a43785b60d8aa940]
class pcM--><rect codeLine="60" fill="#FEFECE" filter="url(#facgh3psirybv)" height="61.8359" id="pcM" style="stroke:#A80036;stroke-width:1.5;" width="317" x="463" y="86"/><ellipse cx="543.25" cy="102" fill="#ADD1B2" rx="11" ry="11" style="stroke:#A80036;stroke-width:1.0;"/><path d="M545.25,98.5 Q545.4531,98 545.6875,97.75 Q545.9219,97.5 546.1875,97.5 Q546.6563,97.5 546.9531,97.7813 Q547.25,98.0625 547.25,98.7188 L547.25,100.2813 Q547.25,100.9375 546.9688,101.2188 Q546.6875,101.5 546.25,101.5 Q545.8594,101.5 545.6094,101.3281 Q545.3594,101.1563 545.25,100.7031 Q545.2031,100.3906 545.0313,100.2188 Q544.7188,99.8906 544.1563,99.7031 Q543.5938,99.5 543.0313,99.5 Q542.3281,99.5 541.7344,99.7813 Q541.1563,100.0625 540.7031,100.6875 Q540.25,101.3125 540.25,102.1719 L540.25,103.0938 Q540.25,104.125 541.0938,104.8125 Q541.9375,105.5 543.4375,105.5 Q544.3281,105.5 544.9531,105.2969 Q545.3125,105.1875 545.7188,104.8281 Q545.9844,104.625 546.125,104.5625 Q546.2656,104.5 546.4375,104.5 Q546.7656,104.5 547,104.7656 Q547.25,105.0156 547.25,105.375 Q547.25,105.7188 546.9063,106.125 Q546.4063,106.7188 545.6094,107.0469 Q544.5625,107.5 543.2813,107.5 Q541.7813,107.5 540.5781,106.9063 Q539.6094,106.4375 538.9219,105.4219 Q538.25,104.4063 538.25,103.2031 L538.25,102.1094 Q538.25,100.8594 538.8438,99.7656 Q539.4531,98.6719 540.5,98.0938 Q541.5625,97.5 542.75,97.5 Q543.4688,97.5 544.0938,97.75 Q544.7188,98 545.25,98.5 Z " fill="#000000"/><text fill="#000000" font-family="sans-serif" font-size="12" lengthAdjust="spacing" textLength="148" x="563.75" y="106.9102">ParameterCategoryMapper</text><line style="stroke:#A80036;stroke-width:1.5;" x1="464" x2="779" y1="118" y2="118"/><line style="stroke:#A80036;stroke-width:1.5;" x1="464" x2="779" y1="126" y2="126"/><text fill="#000000" font-family="sans-serif" font-size="11" lengthAdjust="spacing" textLength="305" x="469" y="141.4189">+List &lt;ParameterCategoryDto&gt; toDto(List&lt;ParameterCategory&gt;)</text><!--MD5=[ec0a4f007167539f7ef0283e3ce97f9f]
class ttDto--><rect codeLine="68" fill="#FEFECE" filter="url(#facgh3psirybv)" height="48" id="ttDto" style="stroke:#A80036;stroke-width:1.5;" width="101" x="1027.5" y="190"/><ellipse cx="1042.5" cy="206" fill="#ADD1B2" rx="11" ry="11" style="stroke:#A80036;stroke-width:1.0;"/><path d="M1044.5,202.5 Q1044.7031,202 1044.9375,201.75 Q1045.1719,201.5 1045.4375,201.5 Q1045.9063,201.5 1046.2031,201.7813 Q1046.5,202.0625 1046.5,202.7188 L1046.5,204.2813 Q1046.5,204.9375 1046.2188,205.2188 Q1045.9375,205.5 1045.5,205.5 Q1045.1094,205.5 1044.8594,205.3281 Q1044.6094,205.1563 1044.5,204.7031 Q1044.4531,204.3906 1044.2813,204.2188 Q1043.9688,203.8906 1043.4063,203.7031 Q1042.8438,203.5 1042.2813,203.5 Q1041.5781,203.5 1040.9844,203.7813 Q1040.4063,204.0625 1039.9531,204.6875 Q1039.5,205.3125 1039.5,206.1719 L1039.5,207.0938 Q1039.5,208.125 1040.3438,208.8125 Q1041.1875,209.5 1042.6875,209.5 Q1043.5781,209.5 1044.2031,209.2969 Q1044.5625,209.1875 1044.9688,208.8281 Q1045.2344,208.625 1045.375,208.5625 Q1045.5156,208.5 1045.6875,208.5 Q1046.0156,208.5 1046.25,208.7656 Q1046.5,209.0156 1046.5,209.375 Q1046.5,209.7188 1046.1563,210.125 Q1045.6563,210.7188 1044.8594,211.0469 Q1043.8125,211.5 1042.5313,211.5 Q1041.0313,211.5 1039.8281,210.9063 Q1038.8594,210.4375 1038.1719,209.4219 Q1037.5,208.4063 1037.5,207.2031 L1037.5,206.1094 Q1037.5,204.8594 1038.0938,203.7656 Q1038.7031,202.6719 1039.75,202.0938 Q1040.8125,201.5 1042,201.5 Q1042.7188,201.5 1043.3438,201.75 Q1043.9688,202 1044.5,202.5 Z " fill="#000000"/><text fill="#000000" font-family="sans-serif" font-size="12" lengthAdjust="spacing" textLength="69" x="1056.5" y="210.9102">TestTypeDto</text><line style="stroke:#A80036;stroke-width:1.5;" x1="1028.5" x2="1127.5" y1="222" y2="222"/><line style="stroke:#A80036;stroke-width:1.5;" x1="1028.5" x2="1127.5" y1="230" y2="230"/><!--MD5=[808bc6f30abcce3f75fbe2ba7c53e00a]
class pcDto--><rect codeLine="71" fill="#FEFECE" filter="url(#facgh3psirybv)" height="48" id="pcDto" style="stroke:#A80036;stroke-width:1.5;" width="158" x="999" y="107"/><ellipse cx="1014" cy="123" fill="#ADD1B2" rx="11" ry="11" style="stroke:#A80036;stroke-width:1.0;"/><path d="M1016,119.5 Q1016.2031,119 1016.4375,118.75 Q1016.6719,118.5 1016.9375,118.5 Q1017.4063,118.5 1017.7031,118.7813 Q1018,119.0625 1018,119.7188 L1018,121.2813 Q1018,121.9375 1017.7188,122.2188 Q1017.4375,122.5 1017,122.5 Q1016.6094,122.5 1016.3594,122.3281 Q1016.1094,122.1563 1016,121.7031 Q1015.9531,121.3906 1015.7813,121.2188 Q1015.4688,120.8906 1014.9063,120.7031 Q1014.3438,120.5 1013.7813,120.5 Q1013.0781,120.5 1012.4844,120.7813 Q1011.9063,121.0625 1011.4531,121.6875 Q1011,122.3125 1011,123.1719 L1011,124.0938 Q1011,125.125 1011.8438,125.8125 Q1012.6875,126.5 1014.1875,126.5 Q1015.0781,126.5 1015.7031,126.2969 Q1016.0625,126.1875 1016.4688,125.8281 Q1016.7344,125.625 1016.875,125.5625 Q1017.0156,125.5 1017.1875,125.5 Q1017.5156,125.5 1017.75,125.7656 Q1018,126.0156 1018,126.375 Q1018,126.7188 1017.6563,127.125 Q1017.1563,127.7188 1016.3594,128.0469 Q1015.3125,128.5 1014.0313,128.5 Q1012.5313,128.5 1011.3281,127.9063 Q1010.3594,127.4375 1009.6719,126.4219 Q1009,125.4063 1009,124.2031 L1009,123.1094 Q1009,121.8594 1009.5938,120.7656 Q1010.2031,119.6719 1011.25,119.0938 Q1012.3125,118.5 1013.5,118.5 Q1014.2188,118.5 1014.8438,118.75 Q1015.4688,119 1016,119.5 Z " fill="#000000"/><text fill="#000000" font-family="sans-serif" font-size="12" lengthAdjust="spacing" textLength="126" x="1028" y="127.9102">ParameterCategoryDto</text><line style="stroke:#A80036;stroke-width:1.5;" x1="1000" x2="1156" y1="139" y2="139"/><line style="stroke:#A80036;stroke-width:1.5;" x1="1000" x2="1156" y1="147" y2="147"/><!--MD5=[9a8f089cd1561ce4ec56c0b237cdd71f]
class VTUI--><rect codeLine="78" fill="#FEFECE" filter="url(#facgh3psirybv)" height="48" id="VTUI" style="stroke:#A80036;stroke-width:1.5;" width="112" x="32" y="257"/><ellipse cx="47" cy="273" fill="#ADD1B2" rx="11" ry="11" style="stroke:#A80036;stroke-width:1.0;"/><path d="M49,269.5 Q49.2031,269 49.4375,268.75 Q49.6719,268.5 49.9375,268.5 Q50.4063,268.5 50.7031,268.7813 Q51,269.0625 51,269.7188 L51,271.2813 Q51,271.9375 50.7188,272.2188 Q50.4375,272.5 50,272.5 Q49.6094,272.5 49.3594,272.3281 Q49.1094,272.1563 49,271.7031 Q48.9531,271.3906 48.7813,271.2188 Q48.4688,270.8906 47.9063,270.7031 Q47.3438,270.5 46.7813,270.5 Q46.0781,270.5 45.4844,270.7813 Q44.9063,271.0625 44.4531,271.6875 Q44,272.3125 44,273.1719 L44,274.0938 Q44,275.125 44.8438,275.8125 Q45.6875,276.5 47.1875,276.5 Q48.0781,276.5 48.7031,276.2969 Q49.0625,276.1875 49.4688,275.8281 Q49.7344,275.625 49.875,275.5625 Q50.0156,275.5 50.1875,275.5 Q50.5156,275.5 50.75,275.7656 Q51,276.0156 51,276.375 Q51,276.7188 50.6563,277.125 Q50.1563,277.7188 49.3594,278.0469 Q48.3125,278.5 47.0313,278.5 Q45.5313,278.5 44.3281,277.9063 Q43.3594,277.4375 42.6719,276.4219 Q42,275.4063 42,274.2031 L42,273.1094 Q42,271.8594 42.5938,270.7656 Q43.2031,269.6719 44.25,269.0938 Q45.3125,268.5 46.5,268.5 Q47.2188,268.5 47.8438,268.75 Q48.4688,269 49,269.5 Z " fill="#000000"/><text fill="#000000" font-family="sans-serif" font-size="12" lengthAdjust="spacing" textLength="80" x="61" y="277.9102">ValidateTestUI</text><line style="stroke:#A80036;stroke-width:1.5;" x1="33" x2="143" y1="289" y2="289"/><line style="stroke:#A80036;stroke-width:1.5;" x1="33" x2="143" y1="297" y2="297"/><!--MD5=[6e150dedde4c1218bdd2d70b1a6afa35]
link VTUI to VTC--><path codeLine="81" d="M144.16,281 C169.2,281 199.43,281 227.42,281 " fill="none" id="VTUI-to-VTC" style="stroke:#A80036;stroke-width:1.0;stroke-dasharray:7.0,7.0;"/><polygon fill="#A80036" points="232.62,281,223.62,277,227.62,281,223.62,285,232.62,281" style="stroke:#A80036;stroke-width:1.0;"/><!--MD5=[d5fc24fc5738d367467ea53b7c5dadfc]
link C to TS--><path codeLine="83" d="M621.5,508.94 C621.5,482.45 621.5,455.96 621.5,429.47 " fill="none" id="C-to-TS" style="stroke:#A80036;stroke-width:1.0;stroke-dasharray:7.0,7.0;"/><polygon fill="#A80036" points="621.5,424.17,617.5,433.17,621.5,429.17,625.5,433.17,621.5,424.17" style="stroke:#A80036;stroke-width:1.0;"/><!--MD5=[eac73315b97dd8eedf47faf1f4811060]
link VTC to C--><path codeLine="84" d="M344.49,326.24 C367.1,360.3 401.26,406.66 439,440 C477.2,473.74 527.58,502.45 565.57,521.61 " fill="none" id="VTC-to-C" style="stroke:#A80036;stroke-width:1.0;stroke-dasharray:7.0,7.0;"/><polygon fill="#A80036" points="570.14,523.9,563.8887,516.2894,565.6707,521.6582,560.3019,523.4402,570.14,523.9" style="stroke:#A80036;stroke-width:1.0;"/><!--MD5=[92e13bee7fc89f85ae5c3103c58d233a]
link VTC to ttM--><path codeLine="85" d="M398.37,262.96 C431.3,255.7 469.87,247.2 505.53,239.34 " fill="none" id="VTC-to-ttM" style="stroke:#A80036;stroke-width:1.0;stroke-dasharray:7.0,7.0;"/><polygon fill="#A80036" points="510.77,238.18,501.1166,236.2276,505.8891,239.2647,502.852,244.0371,510.77,238.18" style="stroke:#A80036;stroke-width:1.0;"/><!--MD5=[281d9d3254b37ca504d465fbfe47a58d]
link VTC to ttDto--><path codeLine="86" d="M398.25,280.87 C495.28,279.97 661.86,276.09 804,261 C880.21,252.91 967.33,236.68 1022.24,225.58 " fill="none" id="VTC-to-ttDto" style="stroke:#A80036;stroke-width:1.0;stroke-dasharray:7.0,7.0;"/><polygon fill="#A80036" points="1027.45,224.52,1017.8379,222.3735,1022.5482,225.5061,1019.4156,230.2164,1027.45,224.52" style="stroke:#A80036;stroke-width:1.0;"/><!--MD5=[93286ab8d15dacf230424bab250ab910]
link TT to PC--><path codeLine="87" d="M1260.11,608.28 C1308.01,617.62 1357.55,627.27 1397.85,635.12 " fill="none" id="TT-PC" style="stroke:#A80036;stroke-width:1.0;"/><polygon fill="#000000" points="1299.9077,607.1321,1291.5917,602.5174,1290.4675,608.2868,1299.9077,607.1321" style="stroke:#000000;stroke-width:1.0;"/><text fill="#000000" font-family="sans-serif" font-size="13" lengthAdjust="spacing" textLength="63" x="1304" y="611.4951">analyzes a</text><text fill="#000000" font-family="sans-serif" font-size="13" lengthAdjust="spacing" textLength="5" x="1267.8982" y="623.6115">*</text><text fill="#000000" font-family="sans-serif" font-size="13" lengthAdjust="spacing" textLength="7" x="1383.0168" y="647.8882">1</text><!--MD5=[2b3dc9607e677cf7f3ec29a718c0abff]
link TS to TT--><path codeLine="88" d="M689.56,407.63 C745.5,431.5 827.78,466.62 902.14,498.36 " fill="none" id="TS-to-TT" style="stroke:#A80036;stroke-width:1.0;stroke-dasharray:7.0,7.0;"/><polygon fill="#A80036" points="907.03,500.45,900.3334,493.2281,902.4343,498.4804,897.182,500.5813,907.03,500.45" style="stroke:#A80036;stroke-width:1.0;"/><!--MD5=[87cf4899889a61f69e835453d85d5116]
link ttM to ttDto--><path codeLine="89" d="M732.23,214 C823.94,214 950.89,214 1022.37,214 " fill="none" id="ttM-to-ttDto" style="stroke:#A80036;stroke-width:1.0;stroke-dasharray:7.0,7.0;"/><polygon fill="#A80036" points="1027.42,214,1018.42,210,1022.42,214,1018.42,218,1027.42,214" style="stroke:#A80036;stroke-width:1.0;"/><!--MD5=[8189db5086aad6005fc8a167d8882fed]
link pcM to pcDto--><path codeLine="90" d="M780.19,121.86 C851.99,124.07 934.04,126.6 993.65,128.43 " fill="none" id="pcM-to-pcDto" style="stroke:#A80036;stroke-width:1.0;stroke-dasharray:7.0,7.0;"/><polygon fill="#A80036" points="998.99,128.6,990.1079,124.3446,993.992,128.4572,989.8794,132.3413,998.99,128.6" style="stroke:#A80036;stroke-width:1.0;"/><!--MD5=[b83cceec495819d0b37daa935a10185d]
link C to TT--><path codeLine="93" d="M672.88,549.88 C726.73,552.96 815.26,558.03 895.75,562.63 " fill="none" id="C-TT" style="stroke:#A80036;stroke-width:1.0;"/><polygon fill="#000000" points="821.9918,550.4614,813.1294,547.0106,812.7937,552.8789,821.9918,550.4614" style="stroke:#000000;stroke-width:1.0;"/><text fill="#000000" font-family="sans-serif" font-size="13" lengthAdjust="spacing" textLength="39" x="826" y="555.4951">adopts</text><text fill="#000000" font-family="sans-serif" font-size="13" lengthAdjust="spacing" textLength="7" x="680.5975" y="564.9529">1</text><text fill="#000000" font-family="sans-serif" font-size="13" lengthAdjust="spacing" textLength="5" x="882.9559" y="576.0357">*</text><!--MD5=[71b3fc4d6ca120e51ce9c04aa77747d8]
link C to PC--><path codeLine="94" d="M672.78,580.41 C725.74,613.43 812.81,661.72 896,681 C1070.64,721.48 1281.97,692.95 1397.91,670.92 " fill="none" id="C-PC" style="stroke:#A80036;stroke-width:1.0;"/><polygon fill="#000000" points="1060.9615,672.7951,1052.3501,668.7585,1051.6221,674.5911,1060.9615,672.7951" style="stroke:#000000;stroke-width:1.0;"/><text fill="#000000" font-family="sans-serif" font-size="13" lengthAdjust="spacing" textLength="39" x="1065" y="677.4951">adopts</text><text fill="#000000" font-family="sans-serif" font-size="13" lengthAdjust="spacing" textLength="7" x="680.4834" y="599.7762">1</text><text fill="#000000" font-family="sans-serif" font-size="13" lengthAdjust="spacing" textLength="5" x="1384.8864" y="686.8503">*</text><!--MD5=[556472cac6b5e89ecd9bf79da66f9211]
@startuml
skinparam classAttributeIconSize 0
left to right direction

package Core{

package Domain{
class "Company" as C {
-String designation
+getTestStore()
}

class "ParameterCategory" as PC{
-String name
-String code
+ParameterCategory(name, code)
}

class "TestType" as TT {
-String code
-String description
-String collectingMethod
-ParameterCategory parameterCategory
-List <ParameterCategory> parameterCategoriesList
+TestType(code, description, collectingMethod, parameterCategory)
+TestType(code, description, collectingMethod, parameterCategoriesList)
}

}



package Stores{
class "TestStore" as TS{
-List<Test> testList
+List <Test> getAllTests()
+boolean validateTest()
}
}



package Controllers{
class "ValidateTestController" as VTC {
+ValidateTestController()
+List<TestDto> getAllTestsDto()
+boolean validateTest()
}





}

package Mappers{
class "TestTypeMapper" as ttM{
+List <TestTypeDto> toDto(List<TestType>)
}

class "ParameterCategoryMapper" as pcM{
+List <ParameterCategoryDto> toDto(List<ParameterCategory>)
}

}


package Dto{
class "TestTypeDto" as ttDto{
}

class "ParameterCategoryDto" as pcDto{
}

}

}
package UI{
class "ValidateTestUI" as VTUI
}

VTUI ..> VTC

C ..> TS
VTC ..> C
VTC ..> ttM
VTC ..> ttDto
TT "*" - - "1" PC : > analyzes a
TS ..> TT
ttM ..> ttDto
pcM ..> pcDto


C "1" - - "*" TT : > adopts
C "1" - - "*" PC : > adopts

@enduml

PlantUML version 1.2021.5(Sun Apr 25 12:20:28 BST 2021)
(GPL source distribution)
Java Runtime: OpenJDK Runtime Environment
JVM: OpenJDK 64-Bit Server VM
Default Encoding: Cp1252
Language: pt
Country: PT
--></g></svg>