<?xml version="1.0" encoding="UTF-8" standalone="no"?><svg xmlns="http://www.w3.org/2000/svg" xmlns:xlink="http://www.w3.org/1999/xlink" contentScriptType="application/ecmascript" contentStyleType="text/css" height="365px" preserveAspectRatio="none" style="width:1877px;height:365px;" version="1.1" viewBox="0 0 1877 365" width="1877px" zoomAndPan="magnify"><defs><filter height="300%" id="f18paqjjmsprko" width="300%" x="-1" y="-1"><feGaussianBlur result="blurOut" stdDeviation="2.0"/><feColorMatrix in="blurOut" result="blurOut2" type="matrix" values="0 0 0 0 0 0 0 0 0 0 0 0 0 0 0 0 0 0 .4 0"/><feOffset dx="4.0" dy="4.0" in="blurOut2" result="blurOut3"/><feBlend in="SourceGraphic" in2="blurOut3" mode="normal"/></filter></defs><g><!--MD5=[02e4b9b7573f1156f41e60aa5b4e25a4]
class Company--><rect codeLine="47" fill="#FEFECE" filter="url(#f18paqjjmsprko)" height="53.8359" id="Company" style="stroke:#A80036;stroke-width:1.5;" width="85" x="318.5" y="92.3564"/><ellipse cx="333.5" cy="108.3564" fill="#ADD1B2" rx="11" ry="11" style="stroke:#A80036;stroke-width:1.0;"/><path d="M335.5,104.8564 Q335.7031,104.3564 335.9375,104.1064 Q336.1719,103.8564 336.4375,103.8564 Q336.9063,103.8564 337.2031,104.1377 Q337.5,104.4189 337.5,105.0752 L337.5,106.6377 Q337.5,107.2939 337.2188,107.5752 Q336.9375,107.8564 336.5,107.8564 Q336.1094,107.8564 335.8594,107.6846 Q335.6094,107.5127 335.5,107.0596 Q335.4531,106.7471 335.2813,106.5752 Q334.9688,106.2471 334.4063,106.0596 Q333.8438,105.8564 333.2813,105.8564 Q332.5781,105.8564 331.9844,106.1377 Q331.4063,106.4189 330.9531,107.0439 Q330.5,107.6689 330.5,108.5283 L330.5,109.4502 Q330.5,110.4814 331.3438,111.1689 Q332.1875,111.8564 333.6875,111.8564 Q334.5781,111.8564 335.2031,111.6533 Q335.5625,111.5439 335.9688,111.1846 Q336.2344,110.9814 336.375,110.9189 Q336.5156,110.8564 336.6875,110.8564 Q337.0156,110.8564 337.25,111.1221 Q337.5,111.3721 337.5,111.7314 Q337.5,112.0752 337.1563,112.4814 Q336.6563,113.0752 335.8594,113.4033 Q334.8125,113.8564 333.5313,113.8564 Q332.0313,113.8564 330.8281,113.2627 Q329.8594,112.7939 329.1719,111.7783 Q328.5,110.7627 328.5,109.5596 L328.5,108.4658 Q328.5,107.2158 329.0938,106.1221 Q329.7031,105.0283 330.75,104.4502 Q331.8125,103.8564 333,103.8564 Q333.7188,103.8564 334.3438,104.1064 Q334.9688,104.3564 335.5,104.8564 Z " fill="#000000"/><text fill="#000000" font-family="sans-serif" font-size="12" lengthAdjust="spacing" textLength="53" x="347.5" y="113.2666">Company</text><line style="stroke:#A80036;stroke-width:1.5;" x1="319.5" x2="402.5" y1="124.3564" y2="124.3564"/><text fill="#000000" font-family="sans-serif" font-size="11" lengthAdjust="spacing" textLength="59" x="324.5" y="139.7754">-designation</text><!--MD5=[0caf3a413731a0de34fc6162fe213ed9]
class Laboratory--><rect codeLine="51" fill="#FEFECE" filter="url(#f18paqjjmsprko)" height="95.3438" id="Laboratory" style="stroke:#A80036;stroke-width:1.5;" width="90" x="1261.5" y="81.8564"/><ellipse cx="1276.5" cy="97.8564" fill="#ADD1B2" rx="11" ry="11" style="stroke:#A80036;stroke-width:1.0;"/><path d="M1278.5,94.3564 Q1278.7031,93.8564 1278.9375,93.6064 Q1279.1719,93.3564 1279.4375,93.3564 Q1279.9063,93.3564 1280.2031,93.6377 Q1280.5,93.9189 1280.5,94.5752 L1280.5,96.1377 Q1280.5,96.7939 1280.2188,97.0752 Q1279.9375,97.3564 1279.5,97.3564 Q1279.1094,97.3564 1278.8594,97.1846 Q1278.6094,97.0127 1278.5,96.5596 Q1278.4531,96.2471 1278.2813,96.0752 Q1277.9688,95.7471 1277.4063,95.5596 Q1276.8438,95.3564 1276.2813,95.3564 Q1275.5781,95.3564 1274.9844,95.6377 Q1274.4063,95.9189 1273.9531,96.5439 Q1273.5,97.1689 1273.5,98.0283 L1273.5,98.9502 Q1273.5,99.9814 1274.3438,100.6689 Q1275.1875,101.3564 1276.6875,101.3564 Q1277.5781,101.3564 1278.2031,101.1533 Q1278.5625,101.0439 1278.9688,100.6846 Q1279.2344,100.4814 1279.375,100.4189 Q1279.5156,100.3564 1279.6875,100.3564 Q1280.0156,100.3564 1280.25,100.6221 Q1280.5,100.8721 1280.5,101.2314 Q1280.5,101.5752 1280.1563,101.9814 Q1279.6563,102.5752 1278.8594,102.9033 Q1277.8125,103.3564 1276.5313,103.3564 Q1275.0313,103.3564 1273.8281,102.7627 Q1272.8594,102.2939 1272.1719,101.2783 Q1271.5,100.2627 1271.5,99.0596 L1271.5,97.9658 Q1271.5,96.7158 1272.0938,95.6221 Q1272.7031,94.5283 1273.75,93.9502 Q1274.8125,93.3564 1276,93.3564 Q1276.7188,93.3564 1277.3438,93.6064 Q1277.9688,93.8564 1278.5,94.3564 Z " fill="#000000"/><text fill="#000000" font-family="sans-serif" font-size="12" lengthAdjust="spacing" textLength="58" x="1290.5" y="102.7666">Laboratory</text><line style="stroke:#A80036;stroke-width:1.5;" x1="1262.5" x2="1350.5" y1="113.8564" y2="113.8564"/><text fill="#000000" font-family="sans-serif" font-size="11" lengthAdjust="spacing" textLength="30" x="1267.5" y="129.2754">-name</text><text fill="#000000" font-family="sans-serif" font-size="11" lengthAdjust="spacing" textLength="44" x="1267.5" y="143.1113">-address</text><text fill="#000000" font-family="sans-serif" font-size="11" lengthAdjust="spacing" textLength="71" x="1267.5" y="156.9473">-phoneNumber</text><text fill="#000000" font-family="sans-serif" font-size="11" lengthAdjust="spacing" textLength="19" x="1267.5" y="170.7832">-TIN</text><!--MD5=[a64badb107d3691f2dc6af242cdbeb21]
class ChemicalLaboratory--><rect codeLine="58" fill="#FEFECE" filter="url(#f18paqjjmsprko)" height="40" id="ChemicalLaboratory" style="stroke:#A80036;stroke-width:1.5;" width="143" x="1720" y="107.3564"/><ellipse cx="1735" cy="123.3564" fill="#ADD1B2" rx="11" ry="11" style="stroke:#A80036;stroke-width:1.0;"/><path d="M1737,119.8564 Q1737.2031,119.3564 1737.4375,119.1064 Q1737.6719,118.8564 1737.9375,118.8564 Q1738.4063,118.8564 1738.7031,119.1377 Q1739,119.4189 1739,120.0752 L1739,121.6377 Q1739,122.2939 1738.7188,122.5752 Q1738.4375,122.8564 1738,122.8564 Q1737.6094,122.8564 1737.3594,122.6846 Q1737.1094,122.5127 1737,122.0596 Q1736.9531,121.7471 1736.7813,121.5752 Q1736.4688,121.2471 1735.9063,121.0596 Q1735.3438,120.8564 1734.7813,120.8564 Q1734.0781,120.8564 1733.4844,121.1377 Q1732.9063,121.4189 1732.4531,122.0439 Q1732,122.6689 1732,123.5283 L1732,124.4502 Q1732,125.4814 1732.8438,126.1689 Q1733.6875,126.8564 1735.1875,126.8564 Q1736.0781,126.8564 1736.7031,126.6533 Q1737.0625,126.5439 1737.4688,126.1846 Q1737.7344,125.9814 1737.875,125.9189 Q1738.0156,125.8564 1738.1875,125.8564 Q1738.5156,125.8564 1738.75,126.1221 Q1739,126.3721 1739,126.7314 Q1739,127.0752 1738.6563,127.4814 Q1738.1563,128.0752 1737.3594,128.4033 Q1736.3125,128.8564 1735.0313,128.8564 Q1733.5313,128.8564 1732.3281,128.2627 Q1731.3594,127.7939 1730.6719,126.7783 Q1730,125.7627 1730,124.5596 L1730,123.4658 Q1730,122.2158 1730.5938,121.1221 Q1731.2031,120.0283 1732.25,119.4502 Q1733.3125,118.8564 1734.5,118.8564 Q1735.2188,118.8564 1735.8438,119.1064 Q1736.4688,119.3564 1737,119.8564 Z " fill="#000000"/><text fill="#000000" font-family="sans-serif" font-size="12" lengthAdjust="spacing" textLength="111" x="1749" y="128.2666">ChemicalLaboratory</text><line style="stroke:#A80036;stroke-width:1.5;" x1="1721" x2="1862" y1="139.3564" y2="139.3564"/><!--MD5=[052425de1c0eb6cc1c1b48342b0bb88f]
class LaboratoryCoordinator--><rect codeLine="8" fill="#FEFECE" filter="url(#f18paqjjmsprko)" height="40" id="LaboratoryCoordinator" style="stroke:#A80036;stroke-width:1.5;" width="155" x="849" y="110.3564"/><ellipse cx="864" cy="126.3564" fill="#ADD1B2" rx="11" ry="11" style="stroke:#A80036;stroke-width:1.0;"/><path d="M866,122.8564 Q866.2031,122.3564 866.4375,122.1064 Q866.6719,121.8564 866.9375,121.8564 Q867.4063,121.8564 867.7031,122.1377 Q868,122.4189 868,123.0752 L868,124.6377 Q868,125.2939 867.7188,125.5752 Q867.4375,125.8564 867,125.8564 Q866.6094,125.8564 866.3594,125.6846 Q866.1094,125.5127 866,125.0596 Q865.9531,124.7471 865.7813,124.5752 Q865.4688,124.2471 864.9063,124.0596 Q864.3438,123.8564 863.7813,123.8564 Q863.0781,123.8564 862.4844,124.1377 Q861.9063,124.4189 861.4531,125.0439 Q861,125.6689 861,126.5283 L861,127.4502 Q861,128.4814 861.8438,129.1689 Q862.6875,129.8564 864.1875,129.8564 Q865.0781,129.8564 865.7031,129.6533 Q866.0625,129.5439 866.4688,129.1846 Q866.7344,128.9814 866.875,128.9189 Q867.0156,128.8564 867.1875,128.8564 Q867.5156,128.8564 867.75,129.1221 Q868,129.3721 868,129.7314 Q868,130.0752 867.6563,130.4814 Q867.1563,131.0752 866.3594,131.4033 Q865.3125,131.8564 864.0313,131.8564 Q862.5313,131.8564 861.3281,131.2627 Q860.3594,130.7939 859.6719,129.7783 Q859,128.7627 859,127.5596 L859,126.4658 Q859,125.2158 859.5938,124.1221 Q860.2031,123.0283 861.25,122.4502 Q862.3125,121.8564 863.5,121.8564 Q864.2188,121.8564 864.8438,122.1064 Q865.4688,122.3564 866,122.8564 Z " fill="#000000"/><text fill="#000000" font-family="sans-serif" font-size="12" lengthAdjust="spacing" textLength="123" x="878" y="131.2666">LaboratoryCoordinator</text><line style="stroke:#A80036;stroke-width:1.5;" x1="850" x2="1003" y1="142.3564" y2="142.3564"/><!--MD5=[7421f545a0d8420c5bec41e74b387d9c]
class Employee--><rect codeLine="65" fill="#FEFECE" filter="url(#f18paqjjmsprko)" height="136.8516" id="Employee" style="stroke:#A80036;stroke-width:1.5;" width="87" x="617.5" y="77.8564"/><ellipse cx="632.5" cy="93.8564" fill="#ADD1B2" rx="11" ry="11" style="stroke:#A80036;stroke-width:1.0;"/><path d="M634.5,90.3564 Q634.7031,89.8564 634.9375,89.6064 Q635.1719,89.3564 635.4375,89.3564 Q635.9063,89.3564 636.2031,89.6377 Q636.5,89.9189 636.5,90.5752 L636.5,92.1377 Q636.5,92.7939 636.2188,93.0752 Q635.9375,93.3564 635.5,93.3564 Q635.1094,93.3564 634.8594,93.1846 Q634.6094,93.0127 634.5,92.5596 Q634.4531,92.2471 634.2813,92.0752 Q633.9688,91.7471 633.4063,91.5596 Q632.8438,91.3564 632.2813,91.3564 Q631.5781,91.3564 630.9844,91.6377 Q630.4063,91.9189 629.9531,92.5439 Q629.5,93.1689 629.5,94.0283 L629.5,94.9502 Q629.5,95.9814 630.3438,96.6689 Q631.1875,97.3564 632.6875,97.3564 Q633.5781,97.3564 634.2031,97.1533 Q634.5625,97.0439 634.9688,96.6846 Q635.2344,96.4814 635.375,96.4189 Q635.5156,96.3564 635.6875,96.3564 Q636.0156,96.3564 636.25,96.6221 Q636.5,96.8721 636.5,97.2314 Q636.5,97.5752 636.1563,97.9814 Q635.6563,98.5752 634.8594,98.9033 Q633.8125,99.3564 632.5313,99.3564 Q631.0313,99.3564 629.8281,98.7627 Q628.8594,98.2939 628.1719,97.2783 Q627.5,96.2627 627.5,95.0596 L627.5,93.9658 Q627.5,92.7158 628.0938,91.6221 Q628.7031,90.5283 629.75,89.9502 Q630.8125,89.3564 632,89.3564 Q632.7188,89.3564 633.3438,89.6064 Q633.9688,89.8564 634.5,90.3564 Z " fill="#000000"/><text fill="#000000" font-family="sans-serif" font-size="12" lengthAdjust="spacing" textLength="55" x="646.5" y="98.7666">Employee</text><line style="stroke:#A80036;stroke-width:1.5;" x1="618.5" x2="703.5" y1="109.8564" y2="109.8564"/><text fill="#000000" font-family="sans-serif" font-size="11" lengthAdjust="spacing" textLength="30" x="623.5" y="125.2754">-name</text><text fill="#000000" font-family="sans-serif" font-size="11" lengthAdjust="spacing" textLength="44" x="623.5" y="139.1113">-address</text><text fill="#000000" font-family="sans-serif" font-size="11" lengthAdjust="spacing" textLength="71" x="623.5" y="152.9473">-phoneNumber</text><text fill="#000000" font-family="sans-serif" font-size="11" lengthAdjust="spacing" textLength="59" x="623.5" y="166.7832">-employeeID</text><text fill="#000000" font-family="sans-serif" font-size="11" lengthAdjust="spacing" textLength="41" x="623.5" y="180.6191">-orgRole</text><text fill="#000000" font-family="sans-serif" font-size="11" lengthAdjust="spacing" textLength="28" x="623.5" y="194.4551">-email</text><text fill="#000000" font-family="sans-serif" font-size="11" lengthAdjust="spacing" textLength="50" x="623.5" y="208.291">-SOCcode</text><!--MD5=[012ee2a8bf3ae2b319009b06f951c2e5]
class ClinicalChemistryTechnologist--><rect codeLine="95" fill="#FEFECE" filter="url(#f18paqjjmsprko)" height="40" id="ClinicalChemistryTechnologist" style="stroke:#A80036;stroke-width:1.5;" width="200" x="1396" y="180.3564"/><ellipse cx="1411" cy="196.3564" fill="#ADD1B2" rx="11" ry="11" style="stroke:#A80036;stroke-width:1.0;"/><path d="M1413,192.8564 Q1413.2031,192.3564 1413.4375,192.1064 Q1413.6719,191.8564 1413.9375,191.8564 Q1414.4063,191.8564 1414.7031,192.1377 Q1415,192.4189 1415,193.0752 L1415,194.6377 Q1415,195.2939 1414.7188,195.5752 Q1414.4375,195.8564 1414,195.8564 Q1413.6094,195.8564 1413.3594,195.6846 Q1413.1094,195.5127 1413,195.0596 Q1412.9531,194.7471 1412.7813,194.5752 Q1412.4688,194.2471 1411.9063,194.0596 Q1411.3438,193.8564 1410.7813,193.8564 Q1410.0781,193.8564 1409.4844,194.1377 Q1408.9063,194.4189 1408.4531,195.0439 Q1408,195.6689 1408,196.5283 L1408,197.4502 Q1408,198.4814 1408.8438,199.1689 Q1409.6875,199.8564 1411.1875,199.8564 Q1412.0781,199.8564 1412.7031,199.6533 Q1413.0625,199.5439 1413.4688,199.1846 Q1413.7344,198.9814 1413.875,198.9189 Q1414.0156,198.8564 1414.1875,198.8564 Q1414.5156,198.8564 1414.75,199.1221 Q1415,199.3721 1415,199.7314 Q1415,200.0752 1414.6563,200.4814 Q1414.1563,201.0752 1413.3594,201.4033 Q1412.3125,201.8564 1411.0313,201.8564 Q1409.5313,201.8564 1408.3281,201.2627 Q1407.3594,200.7939 1406.6719,199.7783 Q1406,198.7627 1406,197.5596 L1406,196.4658 Q1406,195.2158 1406.5938,194.1221 Q1407.2031,193.0283 1408.25,192.4502 Q1409.3125,191.8564 1410.5,191.8564 Q1411.2188,191.8564 1411.8438,192.1064 Q1412.4688,192.3564 1413,192.8564 Z " fill="#000000"/><text fill="#000000" font-family="sans-serif" font-size="12" lengthAdjust="spacing" textLength="168" x="1425" y="201.2666">ClinicalChemistryTechnologist</text><line style="stroke:#A80036;stroke-width:1.5;" x1="1397" x2="1595" y1="212.3564" y2="212.3564"/><!--MD5=[7d96fd15f3014691d2fcaf89c5791e2a]
class SpecialistDoctor--><rect codeLine="75" fill="#FEFECE" filter="url(#f18paqjjmsprko)" height="53.8359" id="SpecialistDoctor" style="stroke:#A80036;stroke-width:1.5;" width="122" x="865.5" y="236.3564"/><ellipse cx="880.5" cy="252.3564" fill="#ADD1B2" rx="11" ry="11" style="stroke:#A80036;stroke-width:1.0;"/><path d="M882.5,248.8564 Q882.7031,248.3564 882.9375,248.1064 Q883.1719,247.8564 883.4375,247.8564 Q883.9063,247.8564 884.2031,248.1377 Q884.5,248.4189 884.5,249.0752 L884.5,250.6377 Q884.5,251.2939 884.2188,251.5752 Q883.9375,251.8564 883.5,251.8564 Q883.1094,251.8564 882.8594,251.6846 Q882.6094,251.5127 882.5,251.0596 Q882.4531,250.7471 882.2813,250.5752 Q881.9688,250.2471 881.4063,250.0596 Q880.8438,249.8564 880.2813,249.8564 Q879.5781,249.8564 878.9844,250.1377 Q878.4063,250.4189 877.9531,251.0439 Q877.5,251.6689 877.5,252.5283 L877.5,253.4502 Q877.5,254.4814 878.3438,255.1689 Q879.1875,255.8564 880.6875,255.8564 Q881.5781,255.8564 882.2031,255.6533 Q882.5625,255.5439 882.9688,255.1846 Q883.2344,254.9814 883.375,254.9189 Q883.5156,254.8564 883.6875,254.8564 Q884.0156,254.8564 884.25,255.1221 Q884.5,255.3721 884.5,255.7314 Q884.5,256.0752 884.1563,256.4814 Q883.6563,257.0752 882.8594,257.4033 Q881.8125,257.8564 880.5313,257.8564 Q879.0313,257.8564 877.8281,257.2627 Q876.8594,256.7939 876.1719,255.7783 Q875.5,254.7627 875.5,253.5596 L875.5,252.4658 Q875.5,251.2158 876.0938,250.1221 Q876.7031,249.0283 877.75,248.4502 Q878.8125,247.8564 880,247.8564 Q880.7188,247.8564 881.3438,248.1064 Q881.9688,248.3564 882.5,248.8564 Z " fill="#000000"/><text fill="#000000" font-family="sans-serif" font-size="12" lengthAdjust="spacing" textLength="90" x="894.5" y="257.2666">SpecialistDoctor</text><line style="stroke:#A80036;stroke-width:1.5;" x1="866.5" x2="986.5" y1="268.3564" y2="268.3564"/><text fill="#000000" font-family="sans-serif" font-size="11" lengthAdjust="spacing" textLength="61" x="871.5" y="283.7754">-doctorIndex</text><!--MD5=[2741598bdf59a7d7e0d5c97658fd3022]
class Result--><rect codeLine="79" fill="#FEFECE" filter="url(#f18paqjjmsprko)" height="40" id="Result" style="stroke:#A80036;stroke-width:1.5;" width="68" x="1149" y="251.3564"/><ellipse cx="1164" cy="267.3564" fill="#ADD1B2" rx="11" ry="11" style="stroke:#A80036;stroke-width:1.0;"/><path d="M1166,263.8564 Q1166.2031,263.3564 1166.4375,263.1064 Q1166.6719,262.8564 1166.9375,262.8564 Q1167.4063,262.8564 1167.7031,263.1377 Q1168,263.4189 1168,264.0752 L1168,265.6377 Q1168,266.2939 1167.7188,266.5752 Q1167.4375,266.8564 1167,266.8564 Q1166.6094,266.8564 1166.3594,266.6846 Q1166.1094,266.5127 1166,266.0596 Q1165.9531,265.7471 1165.7813,265.5752 Q1165.4688,265.2471 1164.9063,265.0596 Q1164.3438,264.8564 1163.7813,264.8564 Q1163.0781,264.8564 1162.4844,265.1377 Q1161.9063,265.4189 1161.4531,266.0439 Q1161,266.6689 1161,267.5283 L1161,268.4502 Q1161,269.4814 1161.8438,270.1689 Q1162.6875,270.8564 1164.1875,270.8564 Q1165.0781,270.8564 1165.7031,270.6533 Q1166.0625,270.5439 1166.4688,270.1846 Q1166.7344,269.9814 1166.875,269.9189 Q1167.0156,269.8564 1167.1875,269.8564 Q1167.5156,269.8564 1167.75,270.1221 Q1168,270.3721 1168,270.7314 Q1168,271.0752 1167.6563,271.4814 Q1167.1563,272.0752 1166.3594,272.4033 Q1165.3125,272.8564 1164.0313,272.8564 Q1162.5313,272.8564 1161.3281,272.2627 Q1160.3594,271.7939 1159.6719,270.7783 Q1159,269.7627 1159,268.5596 L1159,267.4658 Q1159,266.2158 1159.5938,265.1221 Q1160.2031,264.0283 1161.25,263.4502 Q1162.3125,262.8564 1163.5,262.8564 Q1164.2188,262.8564 1164.8438,263.1064 Q1165.4688,263.3564 1166,263.8564 Z " fill="#000000"/><text fill="#000000" font-family="sans-serif" font-size="12" lengthAdjust="spacing" textLength="36" x="1178" y="272.2666">Result</text><line style="stroke:#A80036;stroke-width:1.5;" x1="1150" x2="1216" y1="283.3564" y2="283.3564"/><!--MD5=[f61f25a4c924aea49782a3614f4b4835]
class DiagnosisReport--><rect codeLine="82" fill="#FEFECE" filter="url(#f18paqjjmsprko)" height="40" id="DiagnosisReport" style="stroke:#A80036;stroke-width:1.5;" width="126" x="598" y="250.3564"/><ellipse cx="613" cy="266.3564" fill="#ADD1B2" rx="11" ry="11" style="stroke:#A80036;stroke-width:1.0;"/><path d="M615,262.8564 Q615.2031,262.3564 615.4375,262.1064 Q615.6719,261.8564 615.9375,261.8564 Q616.4063,261.8564 616.7031,262.1377 Q617,262.4189 617,263.0752 L617,264.6377 Q617,265.2939 616.7188,265.5752 Q616.4375,265.8564 616,265.8564 Q615.6094,265.8564 615.3594,265.6846 Q615.1094,265.5127 615,265.0596 Q614.9531,264.7471 614.7813,264.5752 Q614.4688,264.2471 613.9063,264.0596 Q613.3438,263.8564 612.7813,263.8564 Q612.0781,263.8564 611.4844,264.1377 Q610.9063,264.4189 610.4531,265.0439 Q610,265.6689 610,266.5283 L610,267.4502 Q610,268.4814 610.8438,269.1689 Q611.6875,269.8564 613.1875,269.8564 Q614.0781,269.8564 614.7031,269.6533 Q615.0625,269.5439 615.4688,269.1846 Q615.7344,268.9814 615.875,268.9189 Q616.0156,268.8564 616.1875,268.8564 Q616.5156,268.8564 616.75,269.1221 Q617,269.3721 617,269.7314 Q617,270.0752 616.6563,270.4814 Q616.1563,271.0752 615.3594,271.4033 Q614.3125,271.8564 613.0313,271.8564 Q611.5313,271.8564 610.3281,271.2627 Q609.3594,270.7939 608.6719,269.7783 Q608,268.7627 608,267.5596 L608,266.4658 Q608,265.2158 608.5938,264.1221 Q609.2031,263.0283 610.25,262.4502 Q611.3125,261.8564 612.5,261.8564 Q613.2188,261.8564 613.8438,262.1064 Q614.4688,262.3564 615,262.8564 Z " fill="#000000"/><text fill="#000000" font-family="sans-serif" font-size="12" lengthAdjust="spacing" textLength="94" x="627" y="271.2666">DiagnosisReport</text><line style="stroke:#A80036;stroke-width:1.5;" x1="599" x2="723" y1="282.3564" y2="282.3564"/><!--MD5=[df38be88ccee13e832d6fafd6288a4ca]
class Test--><rect codeLine="85" fill="#FEFECE" filter="url(#f18paqjjmsprko)" height="136.8516" id="Test" style="stroke:#A80036;stroke-width:1.5;" width="144" x="289" y="214.8564"/><ellipse cx="344.75" cy="230.8564" fill="#ADD1B2" rx="11" ry="11" style="stroke:#A80036;stroke-width:1.0;"/><path d="M346.75,227.3564 Q346.9531,226.8564 347.1875,226.6064 Q347.4219,226.3564 347.6875,226.3564 Q348.1563,226.3564 348.4531,226.6377 Q348.75,226.9189 348.75,227.5752 L348.75,229.1377 Q348.75,229.7939 348.4688,230.0752 Q348.1875,230.3564 347.75,230.3564 Q347.3594,230.3564 347.1094,230.1846 Q346.8594,230.0127 346.75,229.5596 Q346.7031,229.2471 346.5313,229.0752 Q346.2188,228.7471 345.6563,228.5596 Q345.0938,228.3564 344.5313,228.3564 Q343.8281,228.3564 343.2344,228.6377 Q342.6563,228.9189 342.2031,229.5439 Q341.75,230.1689 341.75,231.0283 L341.75,231.9502 Q341.75,232.9814 342.5938,233.6689 Q343.4375,234.3564 344.9375,234.3564 Q345.8281,234.3564 346.4531,234.1533 Q346.8125,234.0439 347.2188,233.6846 Q347.4844,233.4814 347.625,233.4189 Q347.7656,233.3564 347.9375,233.3564 Q348.2656,233.3564 348.5,233.6221 Q348.75,233.8721 348.75,234.2314 Q348.75,234.5752 348.4063,234.9814 Q347.9063,235.5752 347.1094,235.9033 Q346.0625,236.3564 344.7813,236.3564 Q343.2813,236.3564 342.0781,235.7627 Q341.1094,235.2939 340.4219,234.2783 Q339.75,233.2627 339.75,232.0596 L339.75,230.9658 Q339.75,229.7158 340.3438,228.6221 Q340.9531,227.5283 342,226.9502 Q343.0625,226.3564 344.25,226.3564 Q344.9688,226.3564 345.5938,226.6064 Q346.2188,226.8564 346.75,227.3564 Z " fill="#000000"/><text fill="#000000" font-family="sans-serif" font-size="12" lengthAdjust="spacing" textLength="24" x="365.25" y="235.7666">Test</text><line style="stroke:#A80036;stroke-width:1.5;" x1="290" x2="432" y1="246.8564" y2="246.8564"/><text fill="#000000" font-family="sans-serif" font-size="11" lengthAdjust="spacing" textLength="57" x="295" y="262.2754">-description</text><text fill="#000000" font-family="sans-serif" font-size="11" lengthAdjust="spacing" textLength="28" x="295" y="276.1113">-code</text><text fill="#000000" font-family="sans-serif" font-size="11" lengthAdjust="spacing" textLength="47" x="295" y="289.9473">-nhsCode</text><text fill="#000000" font-family="sans-serif" font-size="11" lengthAdjust="spacing" textLength="79" x="295" y="303.7832">-collectDateTime</text><text fill="#000000" font-family="sans-serif" font-size="11" lengthAdjust="spacing" textLength="132" x="295" y="317.6191">-chemicalAnalysisDateTime</text><text fill="#000000" font-family="sans-serif" font-size="11" lengthAdjust="spacing" textLength="94" x="295" y="331.4551">-diagnosisDateTime</text><text fill="#000000" font-family="sans-serif" font-size="11" lengthAdjust="spacing" textLength="93" x="295" y="345.291">-validationDateTime</text><!--MD5=[1934a092c0e7d4da7dc7075b6f4b6b03]
class ClinicalAnalysisLaboratory--><rect codeLine="61" fill="#FEFECE" filter="url(#f18paqjjmsprko)" height="53.8359" id="ClinicalAnalysisLaboratory" style="stroke:#A80036;stroke-width:1.5;" width="177" x="7" y="92.3564"/><ellipse cx="22" cy="108.3564" fill="#ADD1B2" rx="11" ry="11" style="stroke:#A80036;stroke-width:1.0;"/><path d="M24,104.8564 Q24.2031,104.3564 24.4375,104.1064 Q24.6719,103.8564 24.9375,103.8564 Q25.4063,103.8564 25.7031,104.1377 Q26,104.4189 26,105.0752 L26,106.6377 Q26,107.2939 25.7188,107.5752 Q25.4375,107.8564 25,107.8564 Q24.6094,107.8564 24.3594,107.6846 Q24.1094,107.5127 24,107.0596 Q23.9531,106.7471 23.7813,106.5752 Q23.4688,106.2471 22.9063,106.0596 Q22.3438,105.8564 21.7813,105.8564 Q21.0781,105.8564 20.4844,106.1377 Q19.9063,106.4189 19.4531,107.0439 Q19,107.6689 19,108.5283 L19,109.4502 Q19,110.4814 19.8438,111.1689 Q20.6875,111.8564 22.1875,111.8564 Q23.0781,111.8564 23.7031,111.6533 Q24.0625,111.5439 24.4688,111.1846 Q24.7344,110.9814 24.875,110.9189 Q25.0156,110.8564 25.1875,110.8564 Q25.5156,110.8564 25.75,111.1221 Q26,111.3721 26,111.7314 Q26,112.0752 25.6563,112.4814 Q25.1563,113.0752 24.3594,113.4033 Q23.3125,113.8564 22.0313,113.8564 Q20.5313,113.8564 19.3281,113.2627 Q18.3594,112.7939 17.6719,111.7783 Q17,110.7627 17,109.5596 L17,108.4658 Q17,107.2158 17.5938,106.1221 Q18.2031,105.0283 19.25,104.4502 Q20.3125,103.8564 21.5,103.8564 Q22.2188,103.8564 22.8438,104.1064 Q23.4688,104.3564 24,104.8564 Z " fill="#000000"/><text fill="#000000" font-family="sans-serif" font-size="12" lengthAdjust="spacing" textLength="145" x="36" y="113.2666">ClinicalAnalysisLaboratory</text><line style="stroke:#A80036;stroke-width:1.5;" x1="8" x2="183" y1="124.3564" y2="124.3564"/><text fill="#000000" font-family="sans-serif" font-size="11" lengthAdjust="spacing" textLength="27" x="13" y="139.7754">-labID</text><!--MD5=[76b5e19c9337179d2d7ae334371d68c8]
class Notification--><rect fill="#FEFECE" filter="url(#f18paqjjmsprko)" height="40" id="Notification" style="stroke:#A80036;stroke-width:1.5;" width="93" x="1449.5" y="255.3564"/><ellipse cx="1464.5" cy="271.3564" fill="#ADD1B2" rx="11" ry="11" style="stroke:#A80036;stroke-width:1.0;"/><path d="M1466.5,267.8564 Q1466.7031,267.3564 1466.9375,267.1064 Q1467.1719,266.8564 1467.4375,266.8564 Q1467.9063,266.8564 1468.2031,267.1377 Q1468.5,267.4189 1468.5,268.0752 L1468.5,269.6377 Q1468.5,270.2939 1468.2188,270.5752 Q1467.9375,270.8564 1467.5,270.8564 Q1467.1094,270.8564 1466.8594,270.6846 Q1466.6094,270.5127 1466.5,270.0596 Q1466.4531,269.7471 1466.2813,269.5752 Q1465.9688,269.2471 1465.4063,269.0596 Q1464.8438,268.8564 1464.2813,268.8564 Q1463.5781,268.8564 1462.9844,269.1377 Q1462.4063,269.4189 1461.9531,270.0439 Q1461.5,270.6689 1461.5,271.5283 L1461.5,272.4502 Q1461.5,273.4814 1462.3438,274.1689 Q1463.1875,274.8564 1464.6875,274.8564 Q1465.5781,274.8564 1466.2031,274.6533 Q1466.5625,274.5439 1466.9688,274.1846 Q1467.2344,273.9814 1467.375,273.9189 Q1467.5156,273.8564 1467.6875,273.8564 Q1468.0156,273.8564 1468.25,274.1221 Q1468.5,274.3721 1468.5,274.7314 Q1468.5,275.0752 1468.1563,275.4814 Q1467.6563,276.0752 1466.8594,276.4033 Q1465.8125,276.8564 1464.5313,276.8564 Q1463.0313,276.8564 1461.8281,276.2627 Q1460.8594,275.7939 1460.1719,274.7783 Q1459.5,273.7627 1459.5,272.5596 L1459.5,271.4658 Q1459.5,270.2158 1460.0938,269.1221 Q1460.7031,268.0283 1461.75,267.4502 Q1462.8125,266.8564 1464,266.8564 Q1464.7188,266.8564 1465.3438,267.1064 Q1465.9688,267.3564 1466.5,267.8564 Z " fill="#000000"/><text fill="#000000" font-family="sans-serif" font-size="12" lengthAdjust="spacing" textLength="61" x="1478.5" y="276.2666">Notification</text><line style="stroke:#A80036;stroke-width:1.5;" x1="1450.5" x2="1541.5" y1="287.3564" y2="287.3564"/><!--MD5=[09366576ee87d48d594df10cacc83f45]
link Company to Employee--><path codeLine="16" d="M403.75,123.1364 C460.13,128.2464 560.11,137.3064 617.09,142.4664 " fill="none" id="Company-Employee" style="stroke:#A80036;stroke-width:1.0;"/><polygon fill="#000000" points="482.0204,120.081,490.7634,123.8242,491.2938,117.9703,482.0204,120.081" style="stroke:#000000;stroke-width:1.0;"/><text fill="#000000" font-family="sans-serif" font-size="13" lengthAdjust="spacing" textLength="52" x="496" y="125.8516">works for</text><text fill="#000000" font-family="sans-serif" font-size="13" lengthAdjust="spacing" textLength="7" x="411.4102" y="138.6253">1</text><text fill="#000000" font-family="sans-serif" font-size="13" lengthAdjust="spacing" textLength="5" x="604.4033" y="156.6837">*</text><!--MD5=[7dae17bb55c59b06af656d7c83a51371]
reverse link Employee to LaboratoryCoordinator--><path codeLine="18" d="M724.69,142.5464 C761.93,140.2864 809.44,137.4064 848.89,135.0064 " fill="none" id="Employee-backto-LaboratoryCoordinator" style="stroke:#A80036;stroke-width:1.0;"/><polygon fill="none" points="725.02,149.5464,704.63,143.7664,724.17,135.5664,725.02,149.5464" style="stroke:#A80036;stroke-width:1.0;"/><text fill="#000000" font-family="sans-serif" font-size="13" lengthAdjust="spacing" textLength="5" x="712.5586" y="158.2344">*</text><text fill="#000000" font-family="sans-serif" font-size="13" lengthAdjust="spacing" textLength="20" x="821.0872" y="149.6439">1..*</text><!--MD5=[c3a86c626b5b742f72786125539e9227]
link ClinicalChemistryTechnologist to ChemicalLaboratory--><path codeLine="20" d="M1596.26,190.5364 C1626.7,186.1764 1660.05,179.9964 1690,171.3564 C1710.86,165.3364 1733.07,155.9564 1751.3,147.3964 " fill="none" id="ClinicalChemistryTechnologist-ChemicalLaboratory" style="stroke:#A80036;stroke-width:1.0;"/><polygon fill="#000000" points="1635.817,161.1919,1626.3151,160.7852,1627.8908,166.4479,1635.817,161.1919" style="stroke:#000000;stroke-width:1.0;"/><text fill="#000000" font-family="sans-serif" font-size="13" lengthAdjust="spacing" textLength="49" x="1640" y="167.8516">works at</text><text fill="#000000" font-family="sans-serif" font-size="13" lengthAdjust="spacing" textLength="5" x="1604.1276" y="203.9057">*</text><text fill="#000000" font-family="sans-serif" font-size="13" lengthAdjust="spacing" textLength="7" x="1732.0094" y="168.8273">1</text><!--MD5=[4d5641458326529fdf5c82259a5ad32d]
link LaboratoryCoordinator to Laboratory--><path codeLine="22" d="M1004.45,130.1564 C1081.84,129.9464 1198.45,129.6364 1261.41,129.4764 " fill="none" id="LaboratoryCoordinator-Laboratory" style="stroke:#A80036;stroke-width:1.0;"/><polygon fill="#000000" points="1049,121.519,1039.9472,118.604,1039.9627,124.4818,1049,121.519" style="stroke:#000000;stroke-width:1.0;"/><text fill="#000000" font-family="sans-serif" font-size="13" lengthAdjust="spacing" textLength="60" x="1053" y="126.8516">works at a</text><text fill="#000000" font-family="sans-serif" font-size="13" lengthAdjust="spacing" textLength="20" x="1012.0082" y="144.337">1..*</text><text fill="#000000" font-family="sans-serif" font-size="13" lengthAdjust="spacing" textLength="5" x="1248.5279" y="144.3171">*</text><!--MD5=[de3aa179ee7f21b344f648244b25a961]
link ChemicalLaboratory to Company--><path codeLine="24" d="M1757.06,107.2564 C1703.93,77.2764 1596.09,24.3564 1497,24.3564 C660,24.3564 660,24.3564 660,24.3564 C564.7,24.3564 460.01,69.0064 403.6,97.0864 " fill="none" id="ChemicalLaboratory-Company" style="stroke:#A80036;stroke-width:1.0;"/><polygon fill="#000000" points="1063.9999,15.5698,1054.9771,12.563,1054.9329,18.4407,1063.9999,15.5698" style="stroke:#000000;stroke-width:1.0;"/><text fill="#000000" font-family="sans-serif" font-size="13" lengthAdjust="spacing" textLength="30" x="1068" y="20.8516">owns</text><text fill="#000000" font-family="sans-serif" font-size="13" lengthAdjust="spacing" textLength="7" x="1738.9151" y="96.5488">1</text><text fill="#000000" font-family="sans-serif" font-size="13" lengthAdjust="spacing" textLength="7" x="411.5234" y="108.1732">1</text><!--MD5=[fdfe1f7a1d4f9a6f0814f21c5f7b0d38]
link ClinicalAnalysisLaboratory to Company--><path codeLine="26" d="M184.24,119.3564 C229.45,119.3564 282.48,119.3564 318.37,119.3564 " fill="none" id="ClinicalAnalysisLaboratory-Company" style="stroke:#A80036;stroke-width:1.0;"/><polygon fill="#000000" points="214,110.5322,223.0451,113.4712,223.0451,107.5933,214,110.5322" style="stroke:#000000;stroke-width:1.0;"/><text fill="#000000" font-family="sans-serif" font-size="13" lengthAdjust="spacing" textLength="30" x="228" y="115.8516">owns</text><text fill="#000000" font-family="sans-serif" font-size="13" lengthAdjust="spacing" textLength="5" x="192.0809" y="133.5612">*</text><text fill="#000000" font-family="sans-serif" font-size="13" lengthAdjust="spacing" textLength="7" x="303.4414" y="134.2709">1</text><!--MD5=[38773adfcb560b2ecbe80133f36e08b9]
reverse link Laboratory to ChemicalLaboratory--><path codeLine="28" d="M1371.87,129.0864 C1462.18,128.7164 1625.9,128.0364 1719.6,127.6464 " fill="none" id="Laboratory-backto-ChemicalLaboratory" style="stroke:#A80036;stroke-width:1.0;"/><polygon fill="none" points="1371.67,136.0864,1351.64,129.1764,1371.61,122.0864,1371.67,136.0864" style="stroke:#A80036;stroke-width:1.0;"/><text fill="#000000" font-family="sans-serif" font-size="13" lengthAdjust="spacing" textLength="7" x="1359.392" y="143.9185">1</text><text fill="#000000" font-family="sans-serif" font-size="13" lengthAdjust="spacing" textLength="7" x="1704.8244" y="142.0146">1</text><!--MD5=[49f9c994ab9013da19f25c37bbd596b3]
link SpecialistDoctor to Result--><path codeLine="30" d="M987.81,265.2564 C1038.23,266.8364 1108.25,269.0364 1148.98,270.3164 " fill="none" id="SpecialistDoctor-Result" style="stroke:#A80036;stroke-width:1.0;"/><polygon fill="#000000" points="1034.0025,257.3753,1042.9509,260.5966,1043.1353,254.7217,1034.0025,257.3753" style="stroke:#000000;stroke-width:1.0;"/><text fill="#000000" font-family="sans-serif" font-size="13" lengthAdjust="spacing" textLength="70" x="1048" y="262.8516">analyzed by</text><text fill="#000000" font-family="sans-serif" font-size="13" lengthAdjust="spacing" textLength="7" x="995.3037" y="279.9261">1</text><text fill="#000000" font-family="sans-serif" font-size="13" lengthAdjust="spacing" textLength="7" x="1133.7725" y="265.8725">1</text><!--MD5=[372bd27a178b4208a6d241b4516ac7e6]
reverse link Employee to SpecialistDoctor--><path codeLine="32" d="M724.33,160.5564 C753.78,168.3764 788.97,179.3564 819,193.3564 C844.07,205.0364 870.05,222.0064 890.07,236.3064 " fill="none" id="Employee-backto-SpecialistDoctor" style="stroke:#A80036;stroke-width:1.0;"/><polygon fill="none" points="722.2,167.2364,704.53,155.5364,725.64,153.6664,722.2,167.2364" style="stroke:#A80036;stroke-width:1.0;"/><text fill="#000000" font-family="sans-serif" font-size="13" lengthAdjust="spacing" textLength="5" x="712.4414" y="172.0273">*</text><text fill="#000000" font-family="sans-serif" font-size="13" lengthAdjust="spacing" textLength="20" x="858.7527" y="225.321">1..*</text><!--MD5=[8a0bab72ab0281f8a9e78a6f98e5652c]
link Result to ClinicalChemistryTechnologist--><path codeLine="34" d="M1217.31,257.4064 C1226.79,253.7864 1237.2,250.1264 1247,247.3564 C1295.28,233.6964 1349.99,222.8564 1395.71,215.0464 " fill="none" id="Result-ClinicalChemistryTechnologist" style="stroke:#A80036;stroke-width:1.0;"/><polygon fill="#000000" points="1274.1353,213.6873,1283.6146,214.4572,1282.2567,208.7383,1274.1353,213.6873" style="stroke:#000000;stroke-width:1.0;"/><text fill="#000000" font-family="sans-serif" font-size="13" lengthAdjust="spacing" textLength="50" x="1288" y="217.8516">registers</text><text fill="#000000" font-family="sans-serif" font-size="13" lengthAdjust="spacing" textLength="5" x="1224.9021" y="269.7106">*</text><text fill="#000000" font-family="sans-serif" font-size="13" lengthAdjust="spacing" textLength="20" x="1367.9552" y="230.1493">1..*</text><!--MD5=[d14b4c18c397fa0293924715644730ec]
link Result to Notification--><path codeLine="36" d="M1217.28,271.7864 C1273.22,272.5064 1386.17,273.9564 1449.43,274.7664 " fill="none" id="Result-Notification" style="stroke:#A80036;stroke-width:1.0;"/><polygon fill="#000000" points="1256.9996,262.5964,1247.993,259.5416,1247.9175,265.419,1256.9996,262.5964" style="stroke:#000000;stroke-width:1.0;"/><text fill="#000000" font-family="sans-serif" font-size="13" lengthAdjust="spacing" textLength="104" x="1261" y="267.8516">is associated with</text><text fill="#000000" font-family="sans-serif" font-size="13" lengthAdjust="spacing" textLength="5" x="1224.8659" y="287.0565">*</text><text fill="#000000" font-family="sans-serif" font-size="13" lengthAdjust="spacing" textLength="20" x="1421.4748" y="289.3283">1..*</text><!--MD5=[e509fed78cd7f855333fe9c80fc7ea15]
link DiagnosisReport to SpecialistDoctor--><path codeLine="38" d="M724.35,272.6664 C734.27,272.9564 744.41,273.1964 754,273.3564 C782.89,273.8264 790.14,274.7064 819,273.3564 C834.03,272.6564 850.21,271.3964 865.3,269.9964 " fill="none" id="DiagnosisReport-SpecialistDoctor" style="stroke:#A80036;stroke-width:1.0;"/><polygon fill="#000000" points="754.0009,264.6269,763.1,267.394,762.9887,261.5172,754.0009,264.6269" style="stroke:#000000;stroke-width:1.0;"/><text fill="#000000" font-family="sans-serif" font-size="13" lengthAdjust="spacing" textLength="50" x="768" y="269.8516">registers</text><text fill="#000000" font-family="sans-serif" font-size="13" lengthAdjust="spacing" textLength="7" x="732.0795" y="287.374">1</text><text fill="#000000" font-family="sans-serif" font-size="13" lengthAdjust="spacing" textLength="7" x="850.4147" y="285.3072">1</text><!--MD5=[e83232b12920152899b3d956169a0d16]
link DiagnosisReport to LaboratoryCoordinator--><path codeLine="40" d="M699.75,250.2964 C749.84,223.6864 837.76,176.9764 887.82,150.3764 " fill="none" id="DiagnosisReport-LaboratoryCoordinator" style="stroke:#A80036;stroke-width:1.0;"/><polygon fill="#000000" points="754.5845,181.8781,763.9511,180.2297,761.1933,175.039,754.5845,181.8781" style="stroke:#000000;stroke-width:1.0;"/><text fill="#000000" font-family="sans-serif" font-size="13" lengthAdjust="spacing" textLength="50" x="768" y="184.8516">validates</text><text fill="#000000" font-family="sans-serif" font-size="13" lengthAdjust="spacing" textLength="5" x="705.3984" y="239.6006">*</text><text fill="#000000" font-family="sans-serif" font-size="13" lengthAdjust="spacing" textLength="7" x="868.9569" y="171.8016">1</text><!--MD5=[9163865a413f55935f47e026f9eaa033]
link Test to Result--><path codeLine="42" d="M433.46,292.7064 C552.23,306.7664 797.62,329.5764 1004,308.3564 C1055.18,303.0964 1113.35,289.5364 1148.86,280.3764 " fill="none" id="Test-Result" style="stroke:#A80036;stroke-width:1.0;"/><polygon fill="#000000" points="772.9993,306.4461,763.9049,303.6634,764.0062,309.5404,772.9993,306.4461" style="stroke:#000000;stroke-width:1.0;"/><text fill="#000000" font-family="sans-serif" font-size="13" lengthAdjust="spacing" textLength="32" x="777" y="311.8516">has a</text><text fill="#000000" font-family="sans-serif" font-size="13" lengthAdjust="spacing" textLength="7" x="440.9373" y="307.9341">1</text><text fill="#000000" font-family="sans-serif" font-size="13" lengthAdjust="spacing" textLength="7" x="1134.0968" y="297.4182">1</text><!--MD5=[5fda545c79585d17c4a435a79f76ac33]
link Test to DiagnosisReport--><path codeLine="44" d="M433.38,280.2464 C483.49,278.0564 549.84,275.1664 597.79,273.0664 " fill="none" id="Test-DiagnosisReport" style="stroke:#A80036;stroke-width:1.0;"/><polygon fill="#000000" points="463.0048,265.7504,472.1695,268.2919,471.913,262.4196,463.0048,265.7504" style="stroke:#000000;stroke-width:1.0;"/><text fill="#000000" font-family="sans-serif" font-size="13" lengthAdjust="spacing" textLength="90" x="477" y="270.8516">associated with</text><text fill="#000000" font-family="sans-serif" font-size="13" lengthAdjust="spacing" textLength="7" x="441.2051" y="276.6216">1</text><text fill="#000000" font-family="sans-serif" font-size="13" lengthAdjust="spacing" textLength="7" x="583.0767" y="287.8202">1</text><!--MD5=[87ec237940fc14e0b23d2a4b54f8c260]
@startuml
hide methods
skinparam classAttributeIconSize 0
left to right direction

class Company
class Laboratory
class ChemicalLaboratory
class LaboratoryCoordinator
class Employee
class ClinicalChemistryTechnologist
class SpecialistDoctor
class Result
class DiagnosisReport
class Test

Company "1" - - "*" Employee : < works for

Employee "*" <|- - "1..*" LaboratoryCoordinator

ClinicalChemistryTechnologist "*" - - "1" ChemicalLaboratory : > works at

LaboratoryCoordinator "1..*" - - "*" Laboratory: > works at a

ChemicalLaboratory "1" - - "1" Company : < owns

ClinicalAnalysisLaboratory "*" - - "1" Company : < owns

Laboratory "1"  <|- - "1" ChemicalLaboratory

SpecialistDoctor "1" - - "1" Result : < analyzed by

Employee "*" <|- - "1..*" SpecialistDoctor

Result "*" - - "1..*" ClinicalChemistryTechnologist : < registers

Result "*" - - "1..*" Notification : > is associated with

DiagnosisReport "1" - - "1" SpecialistDoctor : < registers

DiagnosisReport "*" - - "1" LaboratoryCoordinator : < validates

Test "1" - - "1" Result : > has a

Test "1" - - "1" DiagnosisReport : < associated with


class Company{
-designation
}

class Laboratory{
-name
-address
-phoneNumber
-TIN
}

class ChemicalLaboratory{
}

class ClinicalAnalysisLaboratory{
-labID
}

class Employee{
-name
-address
-phoneNumber
-employeeID
-orgRole
-email
-SOCcode
}

class SpecialistDoctor{
-doctorIndex
}

class Result{
}

class DiagnosisReport{
}

class Test{
-description
-code
-nhsCode
-collectDateTime
-chemicalAnalysisDateTime
-diagnosisDateTime
-validationDateTime
}

class ClinicalChemistryTechnologist{
}

@enduml

PlantUML version 1.2021.5(Sun Apr 25 12:20:28 BST 2021)
(GPL source distribution)
Java Runtime: OpenJDK Runtime Environment
JVM: OpenJDK 64-Bit Server VM
Default Encoding: Cp1252
Language: pt
Country: PT
--></g></svg>