<?xml version="1.0" encoding="UTF-8" standalone="no"?><svg xmlns="http://www.w3.org/2000/svg" xmlns:xlink="http://www.w3.org/1999/xlink" contentScriptType="application/ecmascript" contentStyleType="text/css" height="409px" preserveAspectRatio="none" style="width:820px;height:409px;background:#FFFFFF;" version="1.1" viewBox="0 0 820 409" width="820px" zoomAndPan="magnify"><defs><filter height="300%" id="fte45p3r3pvi3" width="300%" x="-1" y="-1"><feGaussianBlur result="blurOut" stdDeviation="2.0"/><feColorMatrix in="blurOut" result="blurOut2" type="matrix" values="0 0 0 0 0 0 0 0 0 0 0 0 0 0 0 0 0 0 .4 0"/><feOffset dx="4.0" dy="4.0" in="blurOut2" result="blurOut3"/><feBlend in="SourceGraphic" in2="blurOut3" mode="normal"/></filter></defs><g><rect fill="#FFFFFF" filter="url(#fte45p3r3pvi3)" height="215.4609" style="stroke:#A80036;stroke-width:1.0;" width="10" x="92" y="99.6094"/><rect fill="#FFFFFF" filter="url(#fte45p3r3pvi3)" height="30.3516" style="stroke:#A80036;stroke-width:1.0;" width="10" x="759" y="121.9609"/><rect fill="#FFFFFF" filter="url(#fte45p3r3pvi3)" height="30.3516" style="stroke:#A80036;stroke-width:1.0;" width="10" x="759" y="208.0156"/><rect fill="#FFFFFF" filter="url(#fte45p3r3pvi3)" height="30.3516" style="stroke:#A80036;stroke-width:1.0;" width="10" x="759" y="268.7188"/><rect fill="#FFFFFF" filter="url(#fte45p3r3pvi3)" height="139.7578" style="stroke:#000000;stroke-width:2.0;" width="796" x="10" y="167.3125"/><line style="stroke:#A80036;stroke-width:1.0;stroke-dasharray:5.0,5.0;" x1="97" x2="97" y1="89.6094" y2="324.0703"/><line style="stroke:#A80036;stroke-width:1.0;stroke-dasharray:5.0,5.0;" x1="764" x2="764" y1="89.6094" y2="324.0703"/><text fill="#000000" font-family="sans-serif" font-size="14" lengthAdjust="spacing" textLength="148" x="20" y="86.5332">Laboratory Coordinator</text><ellipse cx="97" cy="15" fill="#FEFECE" filter="url(#fte45p3r3pvi3)" rx="8" ry="8" style="stroke:#A80036;stroke-width:2.0;"/><path d="M97,23 L97,50 M84,31 L110,31 M97,50 L84,65 M97,50 L110,65 " fill="none" filter="url(#fte45p3r3pvi3)" style="stroke:#A80036;stroke-width:2.0;"/><text fill="#000000" font-family="sans-serif" font-size="14" lengthAdjust="spacing" textLength="148" x="20" y="337.6035">Laboratory Coordinator</text><ellipse cx="97" cy="350.6797" fill="#FEFECE" filter="url(#fte45p3r3pvi3)" rx="8" ry="8" style="stroke:#A80036;stroke-width:2.0;"/><path d="M97,358.6797 L97,385.6797 M84,366.6797 L110,366.6797 M97,385.6797 L84,400.6797 M97,385.6797 L110,400.6797 " fill="none" filter="url(#fte45p3r3pvi3)" style="stroke:#A80036;stroke-width:2.0;"/><rect fill="#FEFECE" filter="url(#fte45p3r3pvi3)" height="31.6094" style="stroke:#A80036;stroke-width:1.5;" width="60" x="732" y="53"/><text fill="#000000" font-family="sans-serif" font-size="14" lengthAdjust="spacing" textLength="46" x="739" y="74.5332">System</text><rect fill="#FEFECE" filter="url(#fte45p3r3pvi3)" height="31.6094" style="stroke:#A80036;stroke-width:1.5;" width="60" x="732" y="323.0703"/><text fill="#000000" font-family="sans-serif" font-size="14" lengthAdjust="spacing" textLength="46" x="739" y="344.6035">System</text><rect fill="#FFFFFF" filter="url(#fte45p3r3pvi3)" height="215.4609" style="stroke:#A80036;stroke-width:1.0;" width="10" x="92" y="99.6094"/><rect fill="#FFFFFF" filter="url(#fte45p3r3pvi3)" height="30.3516" style="stroke:#A80036;stroke-width:1.0;" width="10" x="759" y="121.9609"/><rect fill="#FFFFFF" filter="url(#fte45p3r3pvi3)" height="30.3516" style="stroke:#A80036;stroke-width:1.0;" width="10" x="759" y="208.0156"/><rect fill="#FFFFFF" filter="url(#fte45p3r3pvi3)" height="30.3516" style="stroke:#A80036;stroke-width:1.0;" width="10" x="759" y="268.7188"/><polygon fill="#A80036" points="747,117.9609,757,121.9609,747,125.9609,751,121.9609" style="stroke:#A80036;stroke-width:1.0;"/><line style="stroke:#A80036;stroke-width:1.0;" x1="102" x2="753" y1="121.9609" y2="121.9609"/><text fill="#000000" font-family="sans-serif" font-size="13" font-weight="bold" lengthAdjust="spacing" textLength="7" x="109" y="117.1045">1</text><text fill="#000000" font-family="sans-serif" font-size="13" lengthAdjust="spacing" textLength="185" x="120" y="117.1045">validate a Test Result/Diagnosis</text><polygon fill="#A80036" points="113,148.3125,103,152.3125,113,156.3125,109,152.3125" style="stroke:#A80036;stroke-width:1.0;"/><line style="stroke:#A80036;stroke-width:1.0;stroke-dasharray:2.0,2.0;" x1="107" x2="763" y1="152.3125" y2="152.3125"/><text fill="#000000" font-family="sans-serif" font-size="13" font-weight="bold" lengthAdjust="spacing" textLength="7" x="119" y="147.4561">2</text><text fill="#000000" font-family="sans-serif" font-size="13" lengthAdjust="spacing" textLength="203" x="130" y="147.4561">shows a list of to-be validated tests</text><path d="M10,167.3125 L83,167.3125 L83,175.3125 L73,185.3125 L10,185.3125 L10,167.3125 " fill="#EEEEEE" style="stroke:#000000;stroke-width:1.0;"/><rect fill="none" height="139.7578" style="stroke:#000000;stroke-width:2.0;" width="796" x="10" y="167.3125"/><text fill="#000000" font-family="sans-serif" font-size="13" font-weight="bold" lengthAdjust="spacing" textLength="28" x="25" y="181.8076">loop</text><text fill="#000000" font-family="sans-serif" font-size="11" font-weight="bold" lengthAdjust="spacing" textLength="121" x="98" y="180.7314">[for the chosen tests]</text><polygon fill="#A80036" points="747,204.0156,757,208.0156,747,212.0156,751,208.0156" style="stroke:#A80036;stroke-width:1.0;"/><line style="stroke:#A80036;stroke-width:1.0;" x1="102" x2="753" y1="208.0156" y2="208.0156"/><text fill="#000000" font-family="sans-serif" font-size="13" font-weight="bold" lengthAdjust="spacing" textLength="7" x="109" y="203.1592">3</text><text fill="#000000" font-family="sans-serif" font-size="13" lengthAdjust="spacing" textLength="151" x="120" y="203.1592">selects a test from the list</text><polygon fill="#A80036" points="113,234.3672,103,238.3672,113,242.3672,109,238.3672" style="stroke:#A80036;stroke-width:1.0;"/><line style="stroke:#A80036;stroke-width:1.0;stroke-dasharray:2.0,2.0;" x1="107" x2="763" y1="238.3672" y2="238.3672"/><text fill="#000000" font-family="sans-serif" font-size="13" font-weight="bold" lengthAdjust="spacing" textLength="7" x="119" y="233.5107">4</text><text fill="#000000" font-family="sans-serif" font-size="13" lengthAdjust="spacing" textLength="622" x="130" y="233.5107">displays its data (registration date, chemical analysis date, diagnosis date) and requests to confirm it's valid</text><polygon fill="#A80036" points="747,264.7188,757,268.7188,747,272.7188,751,268.7188" style="stroke:#A80036;stroke-width:1.0;"/><line style="stroke:#A80036;stroke-width:1.0;" x1="102" x2="753" y1="268.7188" y2="268.7188"/><text fill="#000000" font-family="sans-serif" font-size="13" font-weight="bold" lengthAdjust="spacing" textLength="7" x="109" y="263.8623">5</text><text fill="#000000" font-family="sans-serif" font-size="13" lengthAdjust="spacing" textLength="133" x="120" y="263.8623">confirms the valid state</text><polygon fill="#A80036" points="113,295.0703,103,299.0703,113,303.0703,109,299.0703" style="stroke:#A80036;stroke-width:1.0;"/><line style="stroke:#A80036;stroke-width:1.0;stroke-dasharray:2.0,2.0;" x1="107" x2="763" y1="299.0703" y2="299.0703"/><text fill="#000000" font-family="sans-serif" font-size="13" font-weight="bold" lengthAdjust="spacing" textLength="7" x="119" y="294.2139">6</text><text fill="#000000" font-family="sans-serif" font-size="13" lengthAdjust="spacing" textLength="210" x="130" y="294.2139">informs about the operation success</text><!--MD5=[d8d2d931d68e30e099cbe593aed8f75d]
@startuml
autonumber

actor "Laboratory Coordinator" as labC
activate labC

labC -> System ++: validate a Test Result/Diagnosis
System - -> labC - -: shows a list of to-be validated tests
loop for the chosen tests
labC -> System ++: selects a test from the list
System - ->  labC - -: displays its data (registration date, chemical analysis date, diagnosis date) and requests to confirm it's valid
labC ->  System ++: confirms the valid state
System - -> labC - -: informs about the operation success
end

@enduml

PlantUML version 1.2021.7(Sun May 23 13:40:07 BST 2021)
(GPL source distribution)
Java Runtime: OpenJDK Runtime Environment
JVM: Dynamic Code Evolution 64-Bit Server VM
Default Encoding: Cp1252
Language: pt
Country: PT
--></g></svg>