<?xml version="1.0" encoding="UTF-8" standalone="no"?><svg xmlns="http://www.w3.org/2000/svg" xmlns:xlink="http://www.w3.org/1999/xlink" contentScriptType="application/ecmascript" contentStyleType="text/css" height="859px" preserveAspectRatio="none" style="width:1308px;height:859px;background:#FFFFFF;" version="1.1" viewBox="0 0 1308 859" width="1308px" zoomAndPan="magnify"><defs><filter height="300%" id="ffjk8tilojz" width="300%" x="-1" y="-1"><feGaussianBlur result="blurOut" stdDeviation="2.0"/><feColorMatrix in="blurOut" result="blurOut2" type="matrix" values="0 0 0 0 0 0 0 0 0 0 0 0 0 0 0 0 0 0 .4 0"/><feOffset dx="4.0" dy="4.0" in="blurOut2" result="blurOut3"/><feBlend in="SourceGraphic" in2="blurOut3" mode="normal"/></filter></defs><g><!--MD5=[2c2e2644034c00788261e03c85b06837]
cluster Core--><polygon fill="#FFFFFF" filter="url(#ffjk8tilojz)" points="193,6,233,6,240,29.6094,1291,29.6094,1291,852,193,852,193,6" style="stroke:#000000;stroke-width:1.5;"/><line style="stroke:#000000;stroke-width:1.5;" x1="193" x2="240" y1="29.6094" y2="29.6094"/><text fill="#000000" font-family="sans-serif" font-size="14" font-weight="bold" lengthAdjust="spacing" textLength="34" x="197" y="22.5332">Core</text><!--MD5=[121a8bf1197281ab89ed693fab589f94]
cluster Domain--><polygon fill="#FFFFFF" filter="url(#ffjk8tilojz)" points="452.5,506,510.5,506,517.5,529.6094,1152,529.6094,1152,828,452.5,828,452.5,506" style="stroke:#000000;stroke-width:1.5;"/><line style="stroke:#000000;stroke-width:1.5;" x1="452.5" x2="517.5" y1="529.6094" y2="529.6094"/><text fill="#000000" font-family="sans-serif" font-size="14" font-weight="bold" lengthAdjust="spacing" textLength="52" x="456.5" y="522.5332">Domain</text><!--MD5=[8dd535d56cd4cf7faf64fdd082ba836e]
cluster Stores--><polygon fill="#FFFFFF" filter="url(#ffjk8tilojz)" points="453.5,201,505.5,201,512.5,224.6094,670.5,224.6094,670.5,482,453.5,482,453.5,201" style="stroke:#000000;stroke-width:1.5;"/><line style="stroke:#000000;stroke-width:1.5;" x1="453.5" x2="512.5" y1="224.6094" y2="224.6094"/><text fill="#000000" font-family="sans-serif" font-size="14" font-weight="bold" lengthAdjust="spacing" textLength="46" x="457.5" y="217.5332">Stores</text><!--MD5=[ed1d20ea533a2a0e7df5ba3c35e56ced]
cluster Controllers--><polygon fill="#FFFFFF" filter="url(#ffjk8tilojz)" points="217,249,302,249,309,272.6094,414,272.6094,414,419,217,419,217,249" style="stroke:#000000;stroke-width:1.5;"/><line style="stroke:#000000;stroke-width:1.5;" x1="217" x2="309" y1="272.6094" y2="272.6094"/><text fill="#000000" font-family="sans-serif" font-size="14" font-weight="bold" lengthAdjust="spacing" textLength="79" x="221" y="265.5332">Controllers</text><!--MD5=[701152d03fbf85133a1de050cfdbc7fd]
cluster Mappers--><polygon fill="#FFFFFF" filter="url(#ffjk8tilojz)" points="447,50,515,50,522,73.6094,677,73.6094,677,164,447,164,447,50" style="stroke:#000000;stroke-width:1.5;"/><line style="stroke:#000000;stroke-width:1.5;" x1="447" x2="522" y1="73.6094" y2="73.6094"/><text fill="#000000" font-family="sans-serif" font-size="14" font-weight="bold" lengthAdjust="spacing" textLength="62" x="451" y="66.5332">Mappers</text><!--MD5=[a7e26d82dece3a99be33d8557e72e039]
cluster Dto--><polygon fill="#FFFFFF" filter="url(#ffjk8tilojz)" points="814,77,844,77,851,100.6094,1267,100.6094,1267,247,814,247,814,77" style="stroke:#000000;stroke-width:1.5;"/><line style="stroke:#000000;stroke-width:1.5;" x1="814" x2="851" y1="100.6094" y2="100.6094"/><text fill="#000000" font-family="sans-serif" font-size="14" font-weight="bold" lengthAdjust="spacing" textLength="24" x="818" y="93.5332">Dto</text><!--MD5=[9681dc6e01e10c6b4fe06895ae94f592]
cluster UI--><polygon fill="#FFFFFF" filter="url(#ffjk8tilojz)" points="16,284,36,284,43,307.6094,160,307.6094,160,384,16,384,16,284" style="stroke:#000000;stroke-width:1.5;"/><line style="stroke:#000000;stroke-width:1.5;" x1="16" x2="43" y1="307.6094" y2="307.6094"/><text fill="#000000" font-family="sans-serif" font-size="14" font-weight="bold" lengthAdjust="spacing" textLength="14" x="20" y="300.5332">UI</text><!--MD5=[378b18254a1b2429f435e93f5e5cc50c]
class C--><rect codeLine="7" fill="#FEFECE" filter="url(#ffjk8tilojz)" height="131.0156" id="C" style="stroke:#A80036;stroke-width:1.5;" width="187" x="468.5" y="542.5"/><ellipse cx="531.25" cy="558.5" fill="#ADD1B2" rx="11" ry="11" style="stroke:#A80036;stroke-width:1.0;"/><path d="M533.25,555 Q533.4531,554.5 533.6875,554.25 Q533.9219,554 534.1875,554 Q534.6563,554 534.9531,554.2813 Q535.25,554.5625 535.25,555.2188 L535.25,556.7813 Q535.25,557.4375 534.9688,557.7188 Q534.6875,558 534.25,558 Q533.8594,558 533.6094,557.8281 Q533.3594,557.6563 533.25,557.2031 Q533.2031,556.8906 533.0313,556.7188 Q532.7188,556.3906 532.1563,556.2031 Q531.5938,556 531.0313,556 Q530.3281,556 529.7344,556.2813 Q529.1563,556.5625 528.7031,557.1875 Q528.25,557.8125 528.25,558.6719 L528.25,559.5938 Q528.25,560.625 529.0938,561.3125 Q529.9375,562 531.4375,562 Q532.3281,562 532.9531,561.7969 Q533.3125,561.6875 533.7188,561.3281 Q533.9844,561.125 534.125,561.0625 Q534.2656,561 534.4375,561 Q534.7656,561 535,561.2656 Q535.25,561.5156 535.25,561.875 Q535.25,562.2188 534.9063,562.625 Q534.4063,563.2188 533.6094,563.5469 Q532.5625,564 531.2813,564 Q529.7813,564 528.5781,563.4063 Q527.6094,562.9375 526.9219,561.9219 Q526.25,560.9063 526.25,559.7031 L526.25,558.6094 Q526.25,557.3594 526.8438,556.2656 Q527.4531,555.1719 528.5,554.5938 Q529.5625,554 530.75,554 Q531.4688,554 532.0938,554.25 Q532.7188,554.5 533.25,555 Z " fill="#000000"/><text fill="#000000" font-family="sans-serif" font-size="12" lengthAdjust="spacing" textLength="53" x="551.75" y="563.4102">Company</text><line style="stroke:#A80036;stroke-width:1.5;" x1="469.5" x2="654.5" y1="574.5" y2="574.5"/><text fill="#000000" font-family="sans-serif" font-size="11" lengthAdjust="spacing" textLength="120" x="474.5" y="589.9189">-ReportStore reportStore</text><text fill="#000000" font-family="sans-serif" font-size="11" lengthAdjust="spacing" textLength="98" x="474.5" y="603.7549">-TestStore testStore</text><text fill="#000000" font-family="sans-serif" font-size="11" lengthAdjust="spacing" textLength="112" x="474.5" y="617.5908">-Notification notification</text><line style="stroke:#A80036;stroke-width:1.5;" x1="469.5" x2="654.5" y1="624.0078" y2="624.0078"/><text fill="#000000" font-family="sans-serif" font-size="11" lengthAdjust="spacing" textLength="126" x="474.5" y="639.4268">+TestStore getTestStore()</text><text fill="#000000" font-family="sans-serif" font-size="11" lengthAdjust="spacing" textLength="148" x="474.5" y="653.2627">+ReportStore getReportStore()</text><text fill="#000000" font-family="sans-serif" font-size="11" lengthAdjust="spacing" textLength="175" x="474.5" y="667.0986">+Notification getNotificationService()</text><!--MD5=[56e4c9075fa7c9f4c09ef0a20c49f72c]
class T--><rect codeLine="16" fill="#FEFECE" filter="url(#ffjk8tilojz)" height="158.6875" id="T" style="stroke:#A80036;stroke-width:1.5;" width="191" x="945" y="542.5"/><ellipse cx="1024.25" cy="558.5" fill="#ADD1B2" rx="11" ry="11" style="stroke:#A80036;stroke-width:1.0;"/><path d="M1026.25,555 Q1026.4531,554.5 1026.6875,554.25 Q1026.9219,554 1027.1875,554 Q1027.6563,554 1027.9531,554.2813 Q1028.25,554.5625 1028.25,555.2188 L1028.25,556.7813 Q1028.25,557.4375 1027.9688,557.7188 Q1027.6875,558 1027.25,558 Q1026.8594,558 1026.6094,557.8281 Q1026.3594,557.6563 1026.25,557.2031 Q1026.2031,556.8906 1026.0313,556.7188 Q1025.7188,556.3906 1025.1563,556.2031 Q1024.5938,556 1024.0313,556 Q1023.3281,556 1022.7344,556.2813 Q1022.1563,556.5625 1021.7031,557.1875 Q1021.25,557.8125 1021.25,558.6719 L1021.25,559.5938 Q1021.25,560.625 1022.0938,561.3125 Q1022.9375,562 1024.4375,562 Q1025.3281,562 1025.9531,561.7969 Q1026.3125,561.6875 1026.7188,561.3281 Q1026.9844,561.125 1027.125,561.0625 Q1027.2656,561 1027.4375,561 Q1027.7656,561 1028,561.2656 Q1028.25,561.5156 1028.25,561.875 Q1028.25,562.2188 1027.9063,562.625 Q1027.4063,563.2188 1026.6094,563.5469 Q1025.5625,564 1024.2813,564 Q1022.7813,564 1021.5781,563.4063 Q1020.6094,562.9375 1019.9219,561.9219 Q1019.25,560.9063 1019.25,559.7031 L1019.25,558.6094 Q1019.25,557.3594 1019.8438,556.2656 Q1020.4531,555.1719 1021.5,554.5938 Q1022.5625,554 1023.75,554 Q1024.4688,554 1025.0938,554.25 Q1025.7188,554.5 1026.25,555 Z " fill="#000000"/><text fill="#000000" font-family="sans-serif" font-size="12" lengthAdjust="spacing" textLength="24" x="1044.75" y="563.4102">Test</text><line style="stroke:#A80036;stroke-width:1.5;" x1="946" x2="1135" y1="574.5" y2="574.5"/><text fill="#000000" font-family="sans-serif" font-size="11" lengthAdjust="spacing" textLength="127" x="951" y="589.9189">-Date registrationDateTime</text><text fill="#000000" font-family="sans-serif" font-size="11" lengthAdjust="spacing" textLength="104" x="951" y="603.7549">-Date collectDateTime</text><text fill="#000000" font-family="sans-serif" font-size="11" lengthAdjust="spacing" textLength="157" x="951" y="617.5908">-Date chemicalAnalysisDateTime</text><text fill="#000000" font-family="sans-serif" font-size="11" lengthAdjust="spacing" textLength="119" x="951" y="631.4268">-Date diagnosisDateTime</text><text fill="#000000" font-family="sans-serif" font-size="11" lengthAdjust="spacing" textLength="118" x="951" y="645.2627">-Date validationDateTime</text><line style="stroke:#A80036;stroke-width:1.5;" x1="946" x2="1135" y1="651.6797" y2="651.6797"/><text fill="#000000" font-family="sans-serif" font-size="11" lengthAdjust="spacing" textLength="91" x="951" y="667.0986">+String getStatus()</text><text fill="#000000" font-family="sans-serif" font-size="11" lengthAdjust="spacing" textLength="179" x="951" y="680.9346">+boolean updateValidationDateTime()</text><text fill="#000000" font-family="sans-serif" font-size="11" lengthAdjust="spacing" textLength="99" x="951" y="694.7705">+updateTestStatus()</text><!--MD5=[c75e629d71444dd998043aef5ce1a035]
class R--><rect codeLine="27" fill="#FEFECE" filter="url(#ffjk8tilojz)" height="103.3438" id="R" style="stroke:#A80036;stroke-width:1.5;" width="129" x="497.5" y="708.5"/><ellipse cx="539.5" cy="724.5" fill="#ADD1B2" rx="11" ry="11" style="stroke:#A80036;stroke-width:1.0;"/><path d="M541.5,721 Q541.7031,720.5 541.9375,720.25 Q542.1719,720 542.4375,720 Q542.9063,720 543.2031,720.2813 Q543.5,720.5625 543.5,721.2188 L543.5,722.7813 Q543.5,723.4375 543.2188,723.7188 Q542.9375,724 542.5,724 Q542.1094,724 541.8594,723.8281 Q541.6094,723.6563 541.5,723.2031 Q541.4531,722.8906 541.2813,722.7188 Q540.9688,722.3906 540.4063,722.2031 Q539.8438,722 539.2813,722 Q538.5781,722 537.9844,722.2813 Q537.4063,722.5625 536.9531,723.1875 Q536.5,723.8125 536.5,724.6719 L536.5,725.5938 Q536.5,726.625 537.3438,727.3125 Q538.1875,728 539.6875,728 Q540.5781,728 541.2031,727.7969 Q541.5625,727.6875 541.9688,727.3281 Q542.2344,727.125 542.375,727.0625 Q542.5156,727 542.6875,727 Q543.0156,727 543.25,727.2656 Q543.5,727.5156 543.5,727.875 Q543.5,728.2188 543.1563,728.625 Q542.6563,729.2188 541.8594,729.5469 Q540.8125,730 539.5313,730 Q538.0313,730 536.8281,729.4063 Q535.8594,728.9375 535.1719,727.9219 Q534.5,726.9063 534.5,725.7031 L534.5,724.6094 Q534.5,723.3594 535.0938,722.2656 Q535.7031,721.1719 536.75,720.5938 Q537.8125,720 539,720 Q539.7188,720 540.3438,720.25 Q540.9688,720.5 541.5,721 Z " fill="#000000"/><text fill="#000000" font-family="sans-serif" font-size="12" lengthAdjust="spacing" textLength="37" x="559.5" y="729.4102">Report</text><line style="stroke:#A80036;stroke-width:1.5;" x1="498.5" x2="625.5" y1="740.5" y2="740.5"/><text fill="#000000" font-family="sans-serif" font-size="11" lengthAdjust="spacing" textLength="90" x="503.5" y="755.9189">-boolean validation</text><text fill="#000000" font-family="sans-serif" font-size="11" lengthAdjust="spacing" textLength="78" x="503.5" y="769.7549">-String testCode</text><line style="stroke:#A80036;stroke-width:1.5;" x1="498.5" x2="625.5" y1="776.1719" y2="776.1719"/><text fill="#000000" font-family="sans-serif" font-size="11" lengthAdjust="spacing" textLength="117" x="503.5" y="791.5908">+boolean getValidation()</text><text fill="#000000" font-family="sans-serif" font-size="11" lengthAdjust="spacing" textLength="76" x="503.5" y="805.4268">+setValidation()</text><!--MD5=[eb5ccf2b691ea085ad85ef1be8b5406c]
class N--><rect codeLine="34" fill="#FEFECE" filter="url(#ffjk8tilojz)" height="61.8359" id="N" style="stroke:#A80036;stroke-width:1.5;" width="123" x="979" y="737"/><ellipse cx="1007.5" cy="753" fill="#ADD1B2" rx="11" ry="11" style="stroke:#A80036;stroke-width:1.0;"/><path d="M1009.5,749.5 Q1009.7031,749 1009.9375,748.75 Q1010.1719,748.5 1010.4375,748.5 Q1010.9063,748.5 1011.2031,748.7813 Q1011.5,749.0625 1011.5,749.7188 L1011.5,751.2813 Q1011.5,751.9375 1011.2188,752.2188 Q1010.9375,752.5 1010.5,752.5 Q1010.1094,752.5 1009.8594,752.3281 Q1009.6094,752.1563 1009.5,751.7031 Q1009.4531,751.3906 1009.2813,751.2188 Q1008.9688,750.8906 1008.4063,750.7031 Q1007.8438,750.5 1007.2813,750.5 Q1006.5781,750.5 1005.9844,750.7813 Q1005.4063,751.0625 1004.9531,751.6875 Q1004.5,752.3125 1004.5,753.1719 L1004.5,754.0938 Q1004.5,755.125 1005.3438,755.8125 Q1006.1875,756.5 1007.6875,756.5 Q1008.5781,756.5 1009.2031,756.2969 Q1009.5625,756.1875 1009.9688,755.8281 Q1010.2344,755.625 1010.375,755.5625 Q1010.5156,755.5 1010.6875,755.5 Q1011.0156,755.5 1011.25,755.7656 Q1011.5,756.0156 1011.5,756.375 Q1011.5,756.7188 1011.1563,757.125 Q1010.6563,757.7188 1009.8594,758.0469 Q1008.8125,758.5 1007.5313,758.5 Q1006.0313,758.5 1004.8281,757.9063 Q1003.8594,757.4375 1003.1719,756.4219 Q1002.5,755.4063 1002.5,754.2031 L1002.5,753.1094 Q1002.5,751.8594 1003.0938,750.7656 Q1003.7031,749.6719 1004.75,749.0938 Q1005.8125,748.5 1007,748.5 Q1007.7188,748.5 1008.3438,748.75 Q1008.9688,749 1009.5,749.5 Z " fill="#000000"/><text fill="#000000" font-family="sans-serif" font-size="12" lengthAdjust="spacing" textLength="61" x="1024.5" y="757.9102">Notification</text><line style="stroke:#A80036;stroke-width:1.5;" x1="980" x2="1101" y1="769" y2="769"/><line style="stroke:#A80036;stroke-width:1.5;" x1="980" x2="1101" y1="777" y2="777"/><text fill="#000000" font-family="sans-serif" font-size="11" lengthAdjust="spacing" textLength="111" x="985" y="792.4189">+writeToFile(message)</text><!--MD5=[b0a1b9137b50b50b320b426f68562434]
class TS--><rect codeLine="41" fill="#FEFECE" filter="url(#ffjk8tilojz)" height="103.3438" id="TS" style="stroke:#A80036;stroke-width:1.5;" width="175" x="474.5" y="237.5"/><ellipse cx="531.25" cy="253.5" fill="#ADD1B2" rx="11" ry="11" style="stroke:#A80036;stroke-width:1.0;"/><path d="M533.25,250 Q533.4531,249.5 533.6875,249.25 Q533.9219,249 534.1875,249 Q534.6563,249 534.9531,249.2813 Q535.25,249.5625 535.25,250.2188 L535.25,251.7813 Q535.25,252.4375 534.9688,252.7188 Q534.6875,253 534.25,253 Q533.8594,253 533.6094,252.8281 Q533.3594,252.6563 533.25,252.2031 Q533.2031,251.8906 533.0313,251.7188 Q532.7188,251.3906 532.1563,251.2031 Q531.5938,251 531.0313,251 Q530.3281,251 529.7344,251.2813 Q529.1563,251.5625 528.7031,252.1875 Q528.25,252.8125 528.25,253.6719 L528.25,254.5938 Q528.25,255.625 529.0938,256.3125 Q529.9375,257 531.4375,257 Q532.3281,257 532.9531,256.7969 Q533.3125,256.6875 533.7188,256.3281 Q533.9844,256.125 534.125,256.0625 Q534.2656,256 534.4375,256 Q534.7656,256 535,256.2656 Q535.25,256.5156 535.25,256.875 Q535.25,257.2188 534.9063,257.625 Q534.4063,258.2188 533.6094,258.5469 Q532.5625,259 531.2813,259 Q529.7813,259 528.5781,258.4063 Q527.6094,257.9375 526.9219,256.9219 Q526.25,255.9063 526.25,254.7031 L526.25,253.6094 Q526.25,252.3594 526.8438,251.2656 Q527.4531,250.1719 528.5,249.5938 Q529.5625,249 530.75,249 Q531.4688,249 532.0938,249.25 Q532.7188,249.5 533.25,250 Z " fill="#000000"/><text fill="#000000" font-family="sans-serif" font-size="12" lengthAdjust="spacing" textLength="53" x="551.75" y="258.4102">TestStore</text><line style="stroke:#A80036;stroke-width:1.5;" x1="475.5" x2="648.5" y1="269.5" y2="269.5"/><text fill="#000000" font-family="sans-serif" font-size="11" lengthAdjust="spacing" textLength="95" x="480.5" y="284.9189">-List&lt;Test&gt; TestList</text><line style="stroke:#A80036;stroke-width:1.5;" x1="475.5" x2="648.5" y1="291.3359" y2="291.3359"/><text fill="#000000" font-family="sans-serif" font-size="11" lengthAdjust="spacing" textLength="163" x="480.5" y="306.7549">+List &lt;Test&gt; getDiagnosedTests()</text><text fill="#000000" font-family="sans-serif" font-size="11" lengthAdjust="spacing" textLength="136" x="480.5" y="320.5908">+Test getTestByCode(code)</text><text fill="#000000" font-family="sans-serif" font-size="11" lengthAdjust="spacing" textLength="131" x="480.5" y="334.4268">+boolean validateTest(test)</text><!--MD5=[5d34c01a8296ea2c0dac42f422676877]
class RS--><rect codeLine="48" fill="#FEFECE" filter="url(#ffjk8tilojz)" height="89.5078" id="RS" style="stroke:#A80036;stroke-width:1.5;" width="185" x="469.5" y="376"/><ellipse cx="524.75" cy="392" fill="#ADD1B2" rx="11" ry="11" style="stroke:#A80036;stroke-width:1.0;"/><path d="M526.75,388.5 Q526.9531,388 527.1875,387.75 Q527.4219,387.5 527.6875,387.5 Q528.1563,387.5 528.4531,387.7813 Q528.75,388.0625 528.75,388.7188 L528.75,390.2813 Q528.75,390.9375 528.4688,391.2188 Q528.1875,391.5 527.75,391.5 Q527.3594,391.5 527.1094,391.3281 Q526.8594,391.1563 526.75,390.7031 Q526.7031,390.3906 526.5313,390.2188 Q526.2188,389.8906 525.6563,389.7031 Q525.0938,389.5 524.5313,389.5 Q523.8281,389.5 523.2344,389.7813 Q522.6563,390.0625 522.2031,390.6875 Q521.75,391.3125 521.75,392.1719 L521.75,393.0938 Q521.75,394.125 522.5938,394.8125 Q523.4375,395.5 524.9375,395.5 Q525.8281,395.5 526.4531,395.2969 Q526.8125,395.1875 527.2188,394.8281 Q527.4844,394.625 527.625,394.5625 Q527.7656,394.5 527.9375,394.5 Q528.2656,394.5 528.5,394.7656 Q528.75,395.0156 528.75,395.375 Q528.75,395.7188 528.4063,396.125 Q527.9063,396.7188 527.1094,397.0469 Q526.0625,397.5 524.7813,397.5 Q523.2813,397.5 522.0781,396.9063 Q521.1094,396.4375 520.4219,395.4219 Q519.75,394.4063 519.75,393.2031 L519.75,392.1094 Q519.75,390.8594 520.3438,389.7656 Q520.9531,388.6719 522,388.0938 Q523.0625,387.5 524.25,387.5 Q524.9688,387.5 525.5938,387.75 Q526.2188,388 526.75,388.5 Z " fill="#000000"/><text fill="#000000" font-family="sans-serif" font-size="12" lengthAdjust="spacing" textLength="66" x="545.25" y="396.9102">ReportStore</text><line style="stroke:#A80036;stroke-width:1.5;" x1="470.5" x2="653.5" y1="408" y2="408"/><text fill="#000000" font-family="sans-serif" font-size="11" lengthAdjust="spacing" textLength="117" x="475.5" y="423.4189">-List&lt;Report&gt; ReportList</text><line style="stroke:#A80036;stroke-width:1.5;" x1="470.5" x2="653.5" y1="429.8359" y2="429.8359"/><text fill="#000000" font-family="sans-serif" font-size="11" lengthAdjust="spacing" textLength="148" x="475.5" y="445.2549">+boolean validateReport(code)</text><text fill="#000000" font-family="sans-serif" font-size="11" lengthAdjust="spacing" textLength="173" x="475.5" y="459.0908">+boolean getReportValidation(code)</text><!--MD5=[e0d42c936ced924a28e0518427c43ea5]
class VTC--><rect codeLine="57" fill="#FEFECE" filter="url(#ffjk8tilojz)" height="117.1797" id="VTC" style="stroke:#A80036;stroke-width:1.5;" width="165" x="233" y="285.5"/><ellipse cx="252.95" cy="301.5" fill="#ADD1B2" rx="11" ry="11" style="stroke:#A80036;stroke-width:1.0;"/><path d="M254.95,298 Q255.1531,297.5 255.3875,297.25 Q255.6219,297 255.8875,297 Q256.3563,297 256.6531,297.2813 Q256.95,297.5625 256.95,298.2188 L256.95,299.7813 Q256.95,300.4375 256.6688,300.7188 Q256.3875,301 255.95,301 Q255.5594,301 255.3094,300.8281 Q255.0594,300.6563 254.95,300.2031 Q254.9031,299.8906 254.7313,299.7188 Q254.4188,299.3906 253.8563,299.2031 Q253.2938,299 252.7313,299 Q252.0281,299 251.4344,299.2813 Q250.8563,299.5625 250.4031,300.1875 Q249.95,300.8125 249.95,301.6719 L249.95,302.5938 Q249.95,303.625 250.7938,304.3125 Q251.6375,305 253.1375,305 Q254.0281,305 254.6531,304.7969 Q255.0125,304.6875 255.4188,304.3281 Q255.6844,304.125 255.825,304.0625 Q255.9656,304 256.1375,304 Q256.4656,304 256.7,304.2656 Q256.95,304.5156 256.95,304.875 Q256.95,305.2188 256.6063,305.625 Q256.1063,306.2188 255.3094,306.5469 Q254.2625,307 252.9813,307 Q251.4813,307 250.2781,306.4063 Q249.3094,305.9375 248.6219,304.9219 Q247.95,303.9063 247.95,302.7031 L247.95,301.6094 Q247.95,300.3594 248.5438,299.2656 Q249.1531,298.1719 250.2,297.5938 Q251.2625,297 252.45,297 Q253.1688,297 253.7938,297.25 Q254.4188,297.5 254.95,298 Z " fill="#000000"/><text fill="#000000" font-family="sans-serif" font-size="12" lengthAdjust="spacing" textLength="122" x="268.05" y="306.4102">ValidateTestController</text><line style="stroke:#A80036;stroke-width:1.5;" x1="234" x2="397" y1="317.5" y2="317.5"/><line style="stroke:#A80036;stroke-width:1.5;" x1="234" x2="397" y1="325.5" y2="325.5"/><text fill="#000000" font-family="sans-serif" font-size="11" lengthAdjust="spacing" textLength="120" x="239" y="340.9189">+ValidateTestController()</text><text fill="#000000" font-family="sans-serif" font-size="11" lengthAdjust="spacing" textLength="153" x="239" y="354.7549">+List&lt;TestDto&gt; getAllTestsDto()</text><text fill="#000000" font-family="sans-serif" font-size="11" lengthAdjust="spacing" textLength="148" x="239" y="368.5908">+boolean validateReport(code)</text><text fill="#000000" font-family="sans-serif" font-size="11" lengthAdjust="spacing" textLength="137" x="239" y="382.4268">+boolean validateTest(code)</text><text fill="#000000" font-family="sans-serif" font-size="11" lengthAdjust="spacing" textLength="91" x="239" y="396.2627">+sendNotification()</text><!--MD5=[34b8bb9118ebfeedd29a37b63ba1f816]
class tM--><rect codeLine="72" fill="#FEFECE" filter="url(#ffjk8tilojz)" height="61.8359" id="tM" style="stroke:#A80036;stroke-width:1.5;" width="198" x="463" y="86"/><ellipse cx="525.25" cy="102" fill="#ADD1B2" rx="11" ry="11" style="stroke:#A80036;stroke-width:1.0;"/><path d="M527.25,98.5 Q527.4531,98 527.6875,97.75 Q527.9219,97.5 528.1875,97.5 Q528.6563,97.5 528.9531,97.7813 Q529.25,98.0625 529.25,98.7188 L529.25,100.2813 Q529.25,100.9375 528.9688,101.2188 Q528.6875,101.5 528.25,101.5 Q527.8594,101.5 527.6094,101.3281 Q527.3594,101.1563 527.25,100.7031 Q527.2031,100.3906 527.0313,100.2188 Q526.7188,99.8906 526.1563,99.7031 Q525.5938,99.5 525.0313,99.5 Q524.3281,99.5 523.7344,99.7813 Q523.1563,100.0625 522.7031,100.6875 Q522.25,101.3125 522.25,102.1719 L522.25,103.0938 Q522.25,104.125 523.0938,104.8125 Q523.9375,105.5 525.4375,105.5 Q526.3281,105.5 526.9531,105.2969 Q527.3125,105.1875 527.7188,104.8281 Q527.9844,104.625 528.125,104.5625 Q528.2656,104.5 528.4375,104.5 Q528.7656,104.5 529,104.7656 Q529.25,105.0156 529.25,105.375 Q529.25,105.7188 528.9063,106.125 Q528.4063,106.7188 527.6094,107.0469 Q526.5625,107.5 525.2813,107.5 Q523.7813,107.5 522.5781,106.9063 Q521.6094,106.4375 520.9219,105.4219 Q520.25,104.4063 520.25,103.2031 L520.25,102.1094 Q520.25,100.8594 520.8438,99.7656 Q521.4531,98.6719 522.5,98.0938 Q523.5625,97.5 524.75,97.5 Q525.4688,97.5 526.0938,97.75 Q526.7188,98 527.25,98.5 Z " fill="#000000"/><text fill="#000000" font-family="sans-serif" font-size="12" lengthAdjust="spacing" textLength="65" x="545.75" y="106.9102">TestMapper</text><line style="stroke:#A80036;stroke-width:1.5;" x1="464" x2="660" y1="118" y2="118"/><line style="stroke:#A80036;stroke-width:1.5;" x1="464" x2="660" y1="126" y2="126"/><text fill="#000000" font-family="sans-serif" font-size="11" lengthAdjust="spacing" textLength="186" x="469" y="141.4189">+List &lt;TestDto&gt; toDtoLabC(List&lt;Test&gt;)</text><!--MD5=[06b817c767b97587138ec05296e83bc0]
class tDto--><rect codeLine="80" fill="#FEFECE" filter="url(#ffjk8tilojz)" height="117.1797" id="tDto" style="stroke:#A80036;stroke-width:1.5;" width="421" x="830" y="113.5"/><ellipse cx="1014.75" cy="129.5" fill="#ADD1B2" rx="11" ry="11" style="stroke:#A80036;stroke-width:1.0;"/><path d="M1016.75,126 Q1016.9531,125.5 1017.1875,125.25 Q1017.4219,125 1017.6875,125 Q1018.1563,125 1018.4531,125.2813 Q1018.75,125.5625 1018.75,126.2188 L1018.75,127.7813 Q1018.75,128.4375 1018.4688,128.7188 Q1018.1875,129 1017.75,129 Q1017.3594,129 1017.1094,128.8281 Q1016.8594,128.6563 1016.75,128.2031 Q1016.7031,127.8906 1016.5313,127.7188 Q1016.2188,127.3906 1015.6563,127.2031 Q1015.0938,127 1014.5313,127 Q1013.8281,127 1013.2344,127.2813 Q1012.6563,127.5625 1012.2031,128.1875 Q1011.75,128.8125 1011.75,129.6719 L1011.75,130.5938 Q1011.75,131.625 1012.5938,132.3125 Q1013.4375,133 1014.9375,133 Q1015.8281,133 1016.4531,132.7969 Q1016.8125,132.6875 1017.2188,132.3281 Q1017.4844,132.125 1017.625,132.0625 Q1017.7656,132 1017.9375,132 Q1018.2656,132 1018.5,132.2656 Q1018.75,132.5156 1018.75,132.875 Q1018.75,133.2188 1018.4063,133.625 Q1017.9063,134.2188 1017.1094,134.5469 Q1016.0625,135 1014.7813,135 Q1013.2813,135 1012.0781,134.4063 Q1011.1094,133.9375 1010.4219,132.9219 Q1009.75,131.9063 1009.75,130.7031 L1009.75,129.6094 Q1009.75,128.3594 1010.3438,127.2656 Q1010.9531,126.1719 1012,125.5938 Q1013.0625,125 1014.25,125 Q1014.9688,125 1015.5938,125.25 Q1016.2188,125.5 1016.75,126 Z " fill="#000000"/><text fill="#000000" font-family="sans-serif" font-size="12" lengthAdjust="spacing" textLength="43" x="1035.25" y="134.4102">TestDto</text><line style="stroke:#A80036;stroke-width:1.5;" x1="831" x2="1250" y1="145.5" y2="145.5"/><line style="stroke:#A80036;stroke-width:1.5;" x1="831" x2="1250" y1="153.5" y2="153.5"/><text fill="#000000" font-family="sans-serif" font-size="11" lengthAdjust="spacing" textLength="409" x="836" y="168.9189">+TestDto(registrationDateTime, chemicalAnalysisDateTime, diagnosisDateTime, code)</text><text fill="#000000" font-family="sans-serif" font-size="11" lengthAdjust="spacing" textLength="155" x="836" y="182.7549">+Date getRegistrationDateTime()</text><text fill="#000000" font-family="sans-serif" font-size="11" lengthAdjust="spacing" textLength="183" x="836" y="196.5908">+Date getChemicalAnalysisDateTime()</text><text fill="#000000" font-family="sans-serif" font-size="11" lengthAdjust="spacing" textLength="145" x="836" y="210.4268">+Date getDiagnosisDateTime()</text><text fill="#000000" font-family="sans-serif" font-size="11" lengthAdjust="spacing" textLength="85" x="836" y="224.2627">+String getCode()</text><!--MD5=[9a8f089cd1561ce4ec56c0b237cdd71f]
class VTUI--><rect codeLine="94" fill="#FEFECE" filter="url(#ffjk8tilojz)" height="48" id="VTUI" style="stroke:#A80036;stroke-width:1.5;" width="112" x="32" y="320"/><ellipse cx="47" cy="336" fill="#ADD1B2" rx="11" ry="11" style="stroke:#A80036;stroke-width:1.0;"/><path d="M49,332.5 Q49.2031,332 49.4375,331.75 Q49.6719,331.5 49.9375,331.5 Q50.4063,331.5 50.7031,331.7813 Q51,332.0625 51,332.7188 L51,334.2813 Q51,334.9375 50.7188,335.2188 Q50.4375,335.5 50,335.5 Q49.6094,335.5 49.3594,335.3281 Q49.1094,335.1563 49,334.7031 Q48.9531,334.3906 48.7813,334.2188 Q48.4688,333.8906 47.9063,333.7031 Q47.3438,333.5 46.7813,333.5 Q46.0781,333.5 45.4844,333.7813 Q44.9063,334.0625 44.4531,334.6875 Q44,335.3125 44,336.1719 L44,337.0938 Q44,338.125 44.8438,338.8125 Q45.6875,339.5 47.1875,339.5 Q48.0781,339.5 48.7031,339.2969 Q49.0625,339.1875 49.4688,338.8281 Q49.7344,338.625 49.875,338.5625 Q50.0156,338.5 50.1875,338.5 Q50.5156,338.5 50.75,338.7656 Q51,339.0156 51,339.375 Q51,339.7188 50.6563,340.125 Q50.1563,340.7188 49.3594,341.0469 Q48.3125,341.5 47.0313,341.5 Q45.5313,341.5 44.3281,340.9063 Q43.3594,340.4375 42.6719,339.4219 Q42,338.4063 42,337.2031 L42,336.1094 Q42,334.8594 42.5938,333.7656 Q43.2031,332.6719 44.25,332.0938 Q45.3125,331.5 46.5,331.5 Q47.2188,331.5 47.8438,331.75 Q48.4688,332 49,332.5 Z " fill="#000000"/><text fill="#000000" font-family="sans-serif" font-size="12" lengthAdjust="spacing" textLength="80" x="61" y="340.9102">ValidateTestUI</text><line style="stroke:#A80036;stroke-width:1.5;" x1="33" x2="143" y1="352" y2="352"/><line style="stroke:#A80036;stroke-width:1.5;" x1="33" x2="143" y1="360" y2="360"/><!--MD5=[6e150dedde4c1218bdd2d70b1a6afa35]
link VTUI to VTC--><path codeLine="97" d="M144.16,344 C169.2,344 199.43,344 227.42,344 " fill="none" id="VTUI-to-VTC" style="stroke:#A80036;stroke-width:1.0;stroke-dasharray:7.0,7.0;"/><polygon fill="#A80036" points="232.62,344,223.62,340,227.62,344,223.62,348,232.62,344" style="stroke:#A80036;stroke-width:1.0;"/><!--MD5=[d5fc24fc5738d367467ea53b7c5dadfc]
link C to TS--><path codeLine="99" d="M476.08,542.26 C455.39,520.38 437.28,493.97 430.5,464.5 C421.63,425.95 421.63,414.05 430.5,375.5 C432.44,367.07 433.07,364.29 439,358 C448.12,348.32 458.92,339.64 470.25,331.97 " fill="none" id="C-to-TS" style="stroke:#A80036;stroke-width:1.0;stroke-dasharray:7.0,7.0;"/><polygon fill="#A80036" points="474.46,329.2,464.7488,330.841,470.2932,331.9636,469.1705,337.5079,474.46,329.2" style="stroke:#A80036;stroke-width:1.0;"/><!--MD5=[3ca4f9a315dc56bb1139649740c27af1]
link C to RS--><path codeLine="100" d="M562,542.26 C562,518.67 562,495.09 562,471.5 " fill="none" id="C-to-RS" style="stroke:#A80036;stroke-width:1.0;stroke-dasharray:7.0,7.0;"/><polygon fill="#A80036" points="562,466.47,558,475.47,562,471.47,566,475.47,562,466.47" style="stroke:#A80036;stroke-width:1.0;"/><!--MD5=[eac73315b97dd8eedf47faf1f4811060]
link VTC to C--><path codeLine="101" d="M348.98,402.88 C369.55,437.2 398.22,480.06 430,513 C440.43,523.81 452.21,534.25 464.33,544 " fill="none" id="VTC-to-C" style="stroke:#A80036;stroke-width:1.0;stroke-dasharray:7.0,7.0;"/><polygon fill="#A80036" points="468.45,547.28,463.8976,538.5464,464.5373,544.167,458.9167,544.8067,468.45,547.28" style="stroke:#A80036;stroke-width:1.0;"/><!--MD5=[878438dd79dcafedd24603c31f486646]
link VTC to tM--><path codeLine="102" d="M344.99,285.37 C364.76,249.65 393.99,205.21 430,175 C441.21,165.59 454.19,157.44 467.54,150.48 " fill="none" id="VTC-to-tM" style="stroke:#A80036;stroke-width:1.0;stroke-dasharray:7.0,7.0;"/><polygon fill="#A80036" points="472.07,148.16,462.2364,148.7076,467.6209,150.4416,465.8869,155.8261,472.07,148.16" style="stroke:#A80036;stroke-width:1.0;"/><!--MD5=[f4ff3011b7db2cea863ad0c0313bce0d]
link VTC to tDto--><path codeLine="103" d="M359.27,285.48 C380.38,261.21 407.97,235.4 439,221 C505.81,190 680.84,178.28 824.81,174.01 " fill="none" id="VTC-to-tDto" style="stroke:#A80036;stroke-width:1.0;stroke-dasharray:7.0,7.0;"/><polygon fill="#A80036" points="829.92,173.86,820.8094,170.1187,824.922,174.0028,821.0379,178.1154,829.92,173.86" style="stroke:#A80036;stroke-width:1.0;"/><!--MD5=[190a8683387f98e76a1f9347759bf883]
link VTC to N--><path codeLine="104" d="M354.26,402.55 C375.69,430.99 405.01,463.03 439,482 C584.17,563 709.03,446.57 798,587 C813.73,611.82 786.79,696.76 806,719 C846.71,766.15 920.18,774.81 973.87,773.94 " fill="none" id="VTC-to-N" style="stroke:#A80036;stroke-width:1.0;stroke-dasharray:7.0,7.0;"/><polygon fill="#A80036" points="979,773.82,969.9109,770.0267,974.0013,773.9343,970.0938,778.0246,979,773.82" style="stroke:#A80036;stroke-width:1.0;"/><!--MD5=[0b037e5f89e300193b3080f69ffc7684]
link TS to T--><path codeLine="106" d="M649.79,336.3 C661.76,343.34 673.79,350.69 685,358 C774.2,416.11 870.84,488.77 940.65,543.15 " fill="none" id="TS-to-T" style="stroke:#A80036;stroke-width:1.0;stroke-dasharray:7.0,7.0;"/><polygon fill="#A80036" points="944.79,546.38,940.1481,537.6936,940.8455,543.3073,935.2319,544.0048,944.79,546.38" style="stroke:#A80036;stroke-width:1.0;"/><!--MD5=[f9daeeff800a5106e842a57bb30d48b6]
link tM to tDto--><path codeLine="107" d="M661.15,128.33 C708.62,133.81 767.6,140.62 824.76,147.21 " fill="none" id="tM-to-tDto" style="stroke:#A80036;stroke-width:1.0;stroke-dasharray:7.0,7.0;"/><polygon fill="#A80036" points="829.93,147.81,821.4456,142.8084,824.9627,147.239,820.5321,150.7561,829.93,147.81" style="stroke:#A80036;stroke-width:1.0;"/><!--MD5=[281a59200fe523f79922830c877c9cf1]
link C to T--><path codeLine="109" d="M655.72,610.72 C739.11,613.17 861.05,616.76 944.99,619.22 " fill="none" id="C-T" style="stroke:#A80036;stroke-width:1.0;"/><polygon fill="#000000" points="722.9978,604.3226,714.043,601.1193,713.8703,606.9946,722.9978,604.3226" style="stroke:#000000;stroke-width:1.0;"/><text fill="#000000" font-family="sans-serif" font-size="13" lengthAdjust="spacing" textLength="50" x="727" y="609.4951">performs</text><text fill="#000000" font-family="sans-serif" font-size="13" lengthAdjust="spacing" textLength="7" x="663.4672" y="625.0828">1</text><text fill="#000000" font-family="sans-serif" font-size="13" lengthAdjust="spacing" textLength="5" x="931.8735" y="633.1749">*</text><!--MD5=[d79f796b7193e7ca26e46655b3a51e19]
link RS to R--><path codeLine="111" d="M469.42,459.55 C450.94,472.9 435.61,490.27 430.5,512.5 C422.48,547.37 422.48,638.63 430.5,673.5 C432.44,681.93 433.07,684.71 439,691 C454.02,706.93 473.55,720.15 492.61,730.61 " fill="none" id="RS-to-R" style="stroke:#A80036;stroke-width:1.0;stroke-dasharray:7.0,7.0;"/><polygon fill="#A80036" points="497.45,733.21,491.3951,725.4422,493.0394,730.8548,487.6268,732.4992,497.45,733.21" style="stroke:#A80036;stroke-width:1.0;"/><!--MD5=[b6d05c8ba1925f463401f0316ca5edcc]
link R to T--><path codeLine="112" d="M626.77,741.53 C708.43,717.88 850.62,676.7 944.91,649.4 " fill="none" id="R-T" style="stroke:#A80036;stroke-width:1.0;"/><polygon fill="#000000" points="702.8027,685.785,693.2971,685.478,694.932,691.1239,702.8027,685.785" style="stroke:#000000;stroke-width:1.0;"/><text fill="#000000" font-family="sans-serif" font-size="13" lengthAdjust="spacing" textLength="90" x="707" y="692.4951">associated with</text><text fill="#000000" font-family="sans-serif" font-size="13" lengthAdjust="spacing" textLength="7" x="634.6637" y="753.815">1</text><text fill="#000000" font-family="sans-serif" font-size="13" lengthAdjust="spacing" textLength="7" x="930.0138" y="665.7425">1</text><!--MD5=[d0dc5803637187dcce575693335d8dcd]
link R to N--><path codeLine="113" d="M626.77,761.07 C718.95,762.62 888.28,765.46 978.74,766.98 " fill="none" id="R-N" style="stroke:#A80036;stroke-width:1.0;"/><polygon fill="#000000" points="693.0007,754.0918,701.9952,757.1822,702.0939,751.3052,693.0007,754.0918" style="stroke:#000000;stroke-width:1.0;"/><text fill="#000000" font-family="sans-serif" font-size="13" lengthAdjust="spacing" textLength="90" x="707" y="759.4951">associated with</text><text fill="#000000" font-family="sans-serif" font-size="13" lengthAdjust="spacing" textLength="7" x="634.6637" y="775.6143">1</text><text fill="#000000" font-family="sans-serif" font-size="13" lengthAdjust="spacing" textLength="7" x="964.1943" y="781.312">1</text><!--MD5=[ca2c4c1b2fc38cb20576e640239e21a3]
@startuml
skinparam classAttributeIconSize 0
left to right direction

package Core{

package Domain{
class "Company" as C {
-ReportStore reportStore
-TestStore testStore
-Notification notification
+TestStore getTestStore()
+ReportStore getReportStore()
+Notification getNotificationService()
}

class "Test" as T {
-Date registrationDateTime
-Date collectDateTime
-Date chemicalAnalysisDateTime
-Date diagnosisDateTime
-Date validationDateTime
+String getStatus()
+boolean updateValidationDateTime()
+updateTestStatus()
}

class "Report" as R{
-boolean validation
-String testCode
+boolean getValidation()
+setValidation()
}

class "Notification" as N{
+ writeToFile(message)
}

}

package Stores{
class "TestStore" as TS{
-List<Test> TestList
+List <Test> getDiagnosedTests()
+Test getTestByCode(code)
+boolean validateTest(test)
}

class "ReportStore" as RS{
-List<Report> ReportList
+boolean validateReport(code)
+boolean getReportValidation(code)
}

}

package Controllers{
class "ValidateTestController" as VTC {
+ValidateTestController()
+List<TestDto> getAllTestsDto()
+boolean validateReport(code)
+boolean validateTest(code)
+sendNotification()
}





}

package Mappers{
class "TestMapper" as tM{
+List <TestDto> toDtoLabC(List<Test>)
}

}


package Dto{
class "TestDto" as tDto{
+TestDto(registrationDateTime, chemicalAnalysisDateTime, diagnosisDateTime, code)
+Date getRegistrationDateTime()
+Date getChemicalAnalysisDateTime()
+Date getDiagnosisDateTime()
+String getCode()
}



}

}
package UI{
class "ValidateTestUI" as VTUI
}

VTUI ..> VTC

C ..> TS
C ..> RS
VTC ..> C
VTC ..> tM
VTC ..> tDto
VTC ..> N

TS ..> T
tM ..> tDto

C "1" - - "*" T : > performs

RS ..> R
R "1" - - "1" T : > associated with
R "1" - - "1" N : < associated with

@enduml

PlantUML version 1.2021.7(Sun May 23 13:40:07 BST 2021)
(GPL source distribution)
Java Runtime: OpenJDK Runtime Environment
JVM: Dynamic Code Evolution 64-Bit Server VM
Default Encoding: Cp1252
Language: pt
Country: PT
--></g></svg>