<?xml version="1.0" encoding="UTF-8" standalone="no"?><svg xmlns="http://www.w3.org/2000/svg" xmlns:xlink="http://www.w3.org/1999/xlink" contentScriptType="application/ecmascript" contentStyleType="text/css" height="502px" preserveAspectRatio="none" style="width:830px;height:502px;" version="1.1" viewBox="0 0 830 502" width="830px" zoomAndPan="magnify"><defs><filter height="300%" id="fkvo1ej6cisee" width="300%" x="-1" y="-1"><feGaussianBlur result="blurOut" stdDeviation="2.0"/><feColorMatrix in="blurOut" result="blurOut2" type="matrix" values="0 0 0 0 0 0 0 0 0 0 0 0 0 0 0 0 0 0 .4 0"/><feOffset dx="4.0" dy="4.0" in="blurOut2" result="blurOut3"/><feBlend in="SourceGraphic" in2="blurOut3" mode="normal"/></filter></defs><g><rect fill="#FFFFFF" filter="url(#fkvo1ej6cisee)" height="308.5156" style="stroke:#A80036;stroke-width:1.0;" width="10" x="92" y="99.6094"/><rect fill="#FFFFFF" filter="url(#fkvo1ej6cisee)" height="30.3516" style="stroke:#A80036;stroke-width:1.0;" width="10" x="769" y="121.9609"/><rect fill="#FFFFFF" filter="url(#fkvo1ej6cisee)" height="30.3516" style="stroke:#A80036;stroke-width:1.0;" width="10" x="769" y="208.0156"/><rect fill="#FFFFFF" filter="url(#fkvo1ej6cisee)" height="30.3516" style="stroke:#A80036;stroke-width:1.0;" width="10" x="769" y="301.0703"/><rect fill="#FFFFFF" filter="url(#fkvo1ej6cisee)" height="37.3516" style="stroke:#A80036;stroke-width:1.0;" width="10" x="769" y="361.7734"/><rect fill="#FFFFFF" filter="url(#fkvo1ej6cisee)" height="79.0547" style="stroke:#000000;stroke-width:2.0;" width="806" x="10" y="167.3125"/><rect fill="#FFFFFF" filter="url(#fkvo1ej6cisee)" height="109.4063" style="stroke:#000000;stroke-width:2.0;" width="806" x="10" y="260.3672"/><line style="stroke:#A80036;stroke-width:1.0;stroke-dasharray:5.0,5.0;" x1="97" x2="97" y1="89.6094" y2="417.125"/><line style="stroke:#A80036;stroke-width:1.0;stroke-dasharray:5.0,5.0;" x1="774" x2="774" y1="89.6094" y2="417.125"/><text fill="#000000" font-family="sans-serif" font-size="14" lengthAdjust="spacing" textLength="148" x="20" y="86.5332">Laboratory Coordinator</text><ellipse cx="97" cy="15" fill="#FEFECE" filter="url(#fkvo1ej6cisee)" rx="8" ry="8" style="stroke:#A80036;stroke-width:2.0;"/><path d="M97,23 L97,50 M84,31 L110,31 M97,50 L84,65 M97,50 L110,65 " fill="none" filter="url(#fkvo1ej6cisee)" style="stroke:#A80036;stroke-width:2.0;"/><text fill="#000000" font-family="sans-serif" font-size="14" lengthAdjust="spacing" textLength="148" x="20" y="430.6582">Laboratory Coordinator</text><ellipse cx="97" cy="443.7344" fill="#FEFECE" filter="url(#fkvo1ej6cisee)" rx="8" ry="8" style="stroke:#A80036;stroke-width:2.0;"/><path d="M97,451.7344 L97,478.7344 M84,459.7344 L110,459.7344 M97,478.7344 L84,493.7344 M97,478.7344 L110,493.7344 " fill="none" filter="url(#fkvo1ej6cisee)" style="stroke:#A80036;stroke-width:2.0;"/><rect fill="#FEFECE" filter="url(#fkvo1ej6cisee)" height="31.6094" style="stroke:#A80036;stroke-width:1.5;" width="60" x="742" y="53"/><text fill="#000000" font-family="sans-serif" font-size="14" lengthAdjust="spacing" textLength="46" x="749" y="74.5332">System</text><rect fill="#FEFECE" filter="url(#fkvo1ej6cisee)" height="31.6094" style="stroke:#A80036;stroke-width:1.5;" width="60" x="742" y="416.125"/><text fill="#000000" font-family="sans-serif" font-size="14" lengthAdjust="spacing" textLength="46" x="749" y="437.6582">System</text><rect fill="#FFFFFF" filter="url(#fkvo1ej6cisee)" height="308.5156" style="stroke:#A80036;stroke-width:1.0;" width="10" x="92" y="99.6094"/><rect fill="#FFFFFF" filter="url(#fkvo1ej6cisee)" height="30.3516" style="stroke:#A80036;stroke-width:1.0;" width="10" x="769" y="121.9609"/><rect fill="#FFFFFF" filter="url(#fkvo1ej6cisee)" height="30.3516" style="stroke:#A80036;stroke-width:1.0;" width="10" x="769" y="208.0156"/><rect fill="#FFFFFF" filter="url(#fkvo1ej6cisee)" height="30.3516" style="stroke:#A80036;stroke-width:1.0;" width="10" x="769" y="301.0703"/><rect fill="#FFFFFF" filter="url(#fkvo1ej6cisee)" height="37.3516" style="stroke:#A80036;stroke-width:1.0;" width="10" x="769" y="361.7734"/><polygon fill="#A80036" points="757,117.9609,767,121.9609,757,125.9609,761,121.9609" style="stroke:#A80036;stroke-width:1.0;"/><line style="stroke:#A80036;stroke-width:1.0;" x1="102" x2="763" y1="121.9609" y2="121.9609"/><text fill="#000000" font-family="sans-serif" font-size="13" font-weight="bold" lengthAdjust="spacing" textLength="7" x="109" y="117.1045">1</text><text fill="#000000" font-family="sans-serif" font-size="13" lengthAdjust="spacing" textLength="185" x="120" y="117.1045">validate a Test Result/Diagnosis</text><polygon fill="#A80036" points="113,148.3125,103,152.3125,113,156.3125,109,152.3125" style="stroke:#A80036;stroke-width:1.0;"/><line style="stroke:#A80036;stroke-width:1.0;stroke-dasharray:2.0,2.0;" x1="107" x2="773" y1="152.3125" y2="152.3125"/><text fill="#000000" font-family="sans-serif" font-size="13" font-weight="bold" lengthAdjust="spacing" textLength="7" x="119" y="147.4561">2</text><text fill="#000000" font-family="sans-serif" font-size="13" lengthAdjust="spacing" textLength="203" x="130" y="147.4561">shows a list of to-be validated tests</text><path d="M10,167.3125 L83,167.3125 L83,175.3125 L73,185.3125 L10,185.3125 L10,167.3125 " fill="#EEEEEE" style="stroke:#000000;stroke-width:1.0;"/><rect fill="none" height="79.0547" style="stroke:#000000;stroke-width:2.0;" width="806" x="10" y="167.3125"/><text fill="#000000" font-family="sans-serif" font-size="13" font-weight="bold" lengthAdjust="spacing" textLength="28" x="25" y="181.8076">loop</text><text fill="#000000" font-family="sans-serif" font-size="11" font-weight="bold" lengthAdjust="spacing" textLength="320" x="98" y="180.7314">[for how many tests the Laboratory Coordinator chooses]</text><polygon fill="#A80036" points="757,204.0156,767,208.0156,757,212.0156,761,208.0156" style="stroke:#A80036;stroke-width:1.0;"/><line style="stroke:#A80036;stroke-width:1.0;" x1="102" x2="763" y1="208.0156" y2="208.0156"/><text fill="#000000" font-family="sans-serif" font-size="13" font-weight="bold" lengthAdjust="spacing" textLength="7" x="109" y="203.1592">3</text><text fill="#000000" font-family="sans-serif" font-size="13" lengthAdjust="spacing" textLength="151" x="120" y="203.1592">selects a test from the list</text><polygon fill="#A80036" points="113,234.3672,103,238.3672,113,242.3672,109,238.3672" style="stroke:#A80036;stroke-width:1.0;"/><line style="stroke:#A80036;stroke-width:1.0;stroke-dasharray:2.0,2.0;" x1="107" x2="773" y1="238.3672" y2="238.3672"/><text fill="#000000" font-family="sans-serif" font-size="13" font-weight="bold" lengthAdjust="spacing" textLength="7" x="119" y="233.5107">4</text><text fill="#000000" font-family="sans-serif" font-size="13" lengthAdjust="spacing" textLength="632" x="130" y="233.5107">displays its data (registration date, chemical analysis date, diagnosis date) and requests to choose if it's valid</text><path d="M10,260.3672 L83,260.3672 L83,268.3672 L73,278.3672 L10,278.3672 L10,260.3672 " fill="#EEEEEE" style="stroke:#000000;stroke-width:1.0;"/><rect fill="none" height="109.4063" style="stroke:#000000;stroke-width:2.0;" width="806" x="10" y="260.3672"/><text fill="#000000" font-family="sans-serif" font-size="13" font-weight="bold" lengthAdjust="spacing" textLength="28" x="25" y="274.8623">loop</text><text fill="#000000" font-family="sans-serif" font-size="11" font-weight="bold" lengthAdjust="spacing" textLength="452" x="98" y="273.7861">[until the Laboratory Coordinator confirms the selected state of the chosen tests]</text><polygon fill="#A80036" points="757,297.0703,767,301.0703,757,305.0703,761,301.0703" style="stroke:#A80036;stroke-width:1.0;"/><line style="stroke:#A80036;stroke-width:1.0;" x1="102" x2="763" y1="301.0703" y2="301.0703"/><text fill="#000000" font-family="sans-serif" font-size="13" font-weight="bold" lengthAdjust="spacing" textLength="7" x="109" y="296.2139">5</text><text fill="#000000" font-family="sans-serif" font-size="13" lengthAdjust="spacing" textLength="143" x="120" y="296.2139">selects the desired state</text><polygon fill="#A80036" points="113,327.4219,103,331.4219,113,335.4219,109,331.4219" style="stroke:#A80036;stroke-width:1.0;"/><line style="stroke:#A80036;stroke-width:1.0;stroke-dasharray:2.0,2.0;" x1="107" x2="773" y1="331.4219" y2="331.4219"/><text fill="#000000" font-family="sans-serif" font-size="13" font-weight="bold" lengthAdjust="spacing" textLength="7" x="119" y="326.5654">6</text><text fill="#000000" font-family="sans-serif" font-size="13" lengthAdjust="spacing" textLength="212" x="130" y="326.5654">shows it and requests a confirmation</text><polygon fill="#A80036" points="757,357.7734,767,361.7734,757,365.7734,761,361.7734" style="stroke:#A80036;stroke-width:1.0;"/><line style="stroke:#A80036;stroke-width:1.0;" x1="102" x2="763" y1="361.7734" y2="361.7734"/><text fill="#000000" font-family="sans-serif" font-size="13" font-weight="bold" lengthAdjust="spacing" textLength="7" x="109" y="356.917">7</text><text fill="#000000" font-family="sans-serif" font-size="13" lengthAdjust="spacing" textLength="157" x="120" y="356.917">confirms the selected state</text><polygon fill="#A80036" points="113,395.125,103,399.125,113,403.125,109,399.125" style="stroke:#A80036;stroke-width:1.0;"/><line style="stroke:#A80036;stroke-width:1.0;stroke-dasharray:2.0,2.0;" x1="107" x2="773" y1="399.125" y2="399.125"/><text fill="#000000" font-family="sans-serif" font-size="13" font-weight="bold" lengthAdjust="spacing" textLength="7" x="119" y="394.2686">8</text><text fill="#000000" font-family="sans-serif" font-size="13" lengthAdjust="spacing" textLength="210" x="130" y="394.2686">informs about the operation success</text><!--MD5=[36b3df6305a644210eb7d1875ea03c68]
@startuml
autonumber

actor "Laboratory Coordinator" as labC
activate labC

labC -> System ++: validate a Test Result/Diagnosis
System - -> labC - -: shows a list of to-be validated tests
loop for how many tests the Laboratory Coordinator chooses
labC -> System ++: selects a test from the list
System - ->  labC - -: displays its data (registration date, chemical analysis date, diagnosis date) and requests to choose if it's valid
end
loop until the Laboratory Coordinator confirms the selected state of the chosen tests
labC ->  System ++: selects the desired state
System - -> labC - -: shows it and requests a confirmation
labC -> System ++: confirms the selected state
end
System - -> labC - -: informs about the operation success

@enduml

PlantUML version 1.2021.5(Sun Apr 25 12:20:28 BST 2021)
(GPL source distribution)
Java Runtime: OpenJDK Runtime Environment
JVM: OpenJDK 64-Bit Server VM
Default Encoding: Cp1252
Language: pt
Country: PT
--></g></svg>