<?xml version="1.0" encoding="UTF-8" standalone="no"?><svg xmlns="http://www.w3.org/2000/svg" xmlns:xlink="http://www.w3.org/1999/xlink" contentScriptType="application/ecmascript" contentStyleType="text/css" height="832px" preserveAspectRatio="none" style="width:1308px;height:832px;" version="1.1" viewBox="0 0 1308 832" width="1308px" zoomAndPan="magnify"><defs><filter height="300%" id="f1hcmexi0n6uol" width="300%" x="-1" y="-1"><feGaussianBlur result="blurOut" stdDeviation="2.0"/><feColorMatrix in="blurOut" result="blurOut2" type="matrix" values="0 0 0 0 0 0 0 0 0 0 0 0 0 0 0 0 0 0 .4 0"/><feOffset dx="4.0" dy="4.0" in="blurOut2" result="blurOut3"/><feBlend in="SourceGraphic" in2="blurOut3" mode="normal"/></filter></defs><g><!--MD5=[2c2e2644034c00788261e03c85b06837]
cluster Core--><polygon fill="#FFFFFF" filter="url(#f1hcmexi0n6uol)" points="193,6,233,6,240,29.6094,1291,29.6094,1291,825,193,825,193,6" style="stroke:#000000;stroke-width:1.5;"/><line style="stroke:#000000;stroke-width:1.5;" x1="193" x2="240" y1="29.6094" y2="29.6094"/><text fill="#000000" font-family="sans-serif" font-size="14" font-weight="bold" lengthAdjust="spacing" textLength="34" x="197" y="22.5332">Core</text><!--MD5=[121a8bf1197281ab89ed693fab589f94]
cluster Domain--><polygon fill="#FFFFFF" filter="url(#f1hcmexi0n6uol)" points="452.5,492,510.5,492,517.5,515.6094,1152,515.6094,1152,801,452.5,801,452.5,492" style="stroke:#000000;stroke-width:1.5;"/><line style="stroke:#000000;stroke-width:1.5;" x1="452.5" x2="517.5" y1="515.6094" y2="515.6094"/><text fill="#000000" font-family="sans-serif" font-size="14" font-weight="bold" lengthAdjust="spacing" textLength="52" x="456.5" y="508.5332">Domain</text><!--MD5=[8dd535d56cd4cf7faf64fdd082ba836e]
cluster Stores--><polygon fill="#FFFFFF" filter="url(#f1hcmexi0n6uol)" points="466,201,518,201,525,224.6094,658,224.6094,658,468,466,468,466,201" style="stroke:#000000;stroke-width:1.5;"/><line style="stroke:#000000;stroke-width:1.5;" x1="466" x2="525" y1="224.6094" y2="224.6094"/><text fill="#000000" font-family="sans-serif" font-size="14" font-weight="bold" lengthAdjust="spacing" textLength="46" x="470" y="217.5332">Stores</text><!--MD5=[ed1d20ea533a2a0e7df5ba3c35e56ced]
cluster Controllers--><polygon fill="#FFFFFF" filter="url(#f1hcmexi0n6uol)" points="217,242,302,242,309,265.6094,414,265.6094,414,412,217,412,217,242" style="stroke:#000000;stroke-width:1.5;"/><line style="stroke:#000000;stroke-width:1.5;" x1="217" x2="309" y1="265.6094" y2="265.6094"/><text fill="#000000" font-family="sans-serif" font-size="14" font-weight="bold" lengthAdjust="spacing" textLength="79" x="221" y="258.5332">Controllers</text><!--MD5=[701152d03fbf85133a1de050cfdbc7fd]
cluster Mappers--><polygon fill="#FFFFFF" filter="url(#f1hcmexi0n6uol)" points="447,50,515,50,522,73.6094,677,73.6094,677,164,447,164,447,50" style="stroke:#000000;stroke-width:1.5;"/><line style="stroke:#000000;stroke-width:1.5;" x1="447" x2="522" y1="73.6094" y2="73.6094"/><text fill="#000000" font-family="sans-serif" font-size="14" font-weight="bold" lengthAdjust="spacing" textLength="62" x="451" y="66.5332">Mappers</text><!--MD5=[a7e26d82dece3a99be33d8557e72e039]
cluster Dto--><polygon fill="#FFFFFF" filter="url(#f1hcmexi0n6uol)" points="814,77,844,77,851,100.6094,1267,100.6094,1267,247,814,247,814,77" style="stroke:#000000;stroke-width:1.5;"/><line style="stroke:#000000;stroke-width:1.5;" x1="814" x2="851" y1="100.6094" y2="100.6094"/><text fill="#000000" font-family="sans-serif" font-size="14" font-weight="bold" lengthAdjust="spacing" textLength="24" x="818" y="93.5332">Dto</text><!--MD5=[9681dc6e01e10c6b4fe06895ae94f592]
cluster UI--><polygon fill="#FFFFFF" filter="url(#f1hcmexi0n6uol)" points="16,277,36,277,43,300.6094,160,300.6094,160,377,16,377,16,277" style="stroke:#000000;stroke-width:1.5;"/><line style="stroke:#000000;stroke-width:1.5;" x1="16" x2="43" y1="300.6094" y2="300.6094"/><text fill="#000000" font-family="sans-serif" font-size="14" font-weight="bold" lengthAdjust="spacing" textLength="14" x="20" y="293.5332">UI</text><!--MD5=[378b18254a1b2429f435e93f5e5cc50c]
class C--><rect codeLine="7" fill="#FEFECE" filter="url(#f1hcmexi0n6uol)" height="103.3438" id="C" style="stroke:#A80036;stroke-width:1.5;" width="187" x="468.5" y="528.5"/><ellipse cx="531.25" cy="544.5" fill="#ADD1B2" rx="11" ry="11" style="stroke:#A80036;stroke-width:1.0;"/><path d="M533.25,541 Q533.4531,540.5 533.6875,540.25 Q533.9219,540 534.1875,540 Q534.6563,540 534.9531,540.2813 Q535.25,540.5625 535.25,541.2188 L535.25,542.7813 Q535.25,543.4375 534.9688,543.7188 Q534.6875,544 534.25,544 Q533.8594,544 533.6094,543.8281 Q533.3594,543.6563 533.25,543.2031 Q533.2031,542.8906 533.0313,542.7188 Q532.7188,542.3906 532.1563,542.2031 Q531.5938,542 531.0313,542 Q530.3281,542 529.7344,542.2813 Q529.1563,542.5625 528.7031,543.1875 Q528.25,543.8125 528.25,544.6719 L528.25,545.5938 Q528.25,546.625 529.0938,547.3125 Q529.9375,548 531.4375,548 Q532.3281,548 532.9531,547.7969 Q533.3125,547.6875 533.7188,547.3281 Q533.9844,547.125 534.125,547.0625 Q534.2656,547 534.4375,547 Q534.7656,547 535,547.2656 Q535.25,547.5156 535.25,547.875 Q535.25,548.2188 534.9063,548.625 Q534.4063,549.2188 533.6094,549.5469 Q532.5625,550 531.2813,550 Q529.7813,550 528.5781,549.4063 Q527.6094,548.9375 526.9219,547.9219 Q526.25,546.9063 526.25,545.7031 L526.25,544.6094 Q526.25,543.3594 526.8438,542.2656 Q527.4531,541.1719 528.5,540.5938 Q529.5625,540 530.75,540 Q531.4688,540 532.0938,540.25 Q532.7188,540.5 533.25,541 Z " fill="#000000"/><text fill="#000000" font-family="sans-serif" font-size="12" lengthAdjust="spacing" textLength="53" x="551.75" y="549.4102">Company</text><line style="stroke:#A80036;stroke-width:1.5;" x1="469.5" x2="654.5" y1="560.5" y2="560.5"/><text fill="#000000" font-family="sans-serif" font-size="11" lengthAdjust="spacing" textLength="90" x="474.5" y="575.9189">-String designation</text><line style="stroke:#A80036;stroke-width:1.5;" x1="469.5" x2="654.5" y1="582.3359" y2="582.3359"/><text fill="#000000" font-family="sans-serif" font-size="11" lengthAdjust="spacing" textLength="126" x="474.5" y="597.7549">+TestStore getTestStore()</text><text fill="#000000" font-family="sans-serif" font-size="11" lengthAdjust="spacing" textLength="148" x="474.5" y="611.5908">+ReportStore getReportStore()</text><text fill="#000000" font-family="sans-serif" font-size="11" lengthAdjust="spacing" textLength="175" x="474.5" y="625.4268">+Notification getNotificationService()</text><!--MD5=[56e4c9075fa7c9f4c09ef0a20c49f72c]
class T--><rect codeLine="14" fill="#FEFECE" filter="url(#f1hcmexi0n6uol)" height="158.6875" id="T" style="stroke:#A80036;stroke-width:1.5;" width="191" x="945" y="528.5"/><ellipse cx="1024.25" cy="544.5" fill="#ADD1B2" rx="11" ry="11" style="stroke:#A80036;stroke-width:1.0;"/><path d="M1026.25,541 Q1026.4531,540.5 1026.6875,540.25 Q1026.9219,540 1027.1875,540 Q1027.6563,540 1027.9531,540.2813 Q1028.25,540.5625 1028.25,541.2188 L1028.25,542.7813 Q1028.25,543.4375 1027.9688,543.7188 Q1027.6875,544 1027.25,544 Q1026.8594,544 1026.6094,543.8281 Q1026.3594,543.6563 1026.25,543.2031 Q1026.2031,542.8906 1026.0313,542.7188 Q1025.7188,542.3906 1025.1563,542.2031 Q1024.5938,542 1024.0313,542 Q1023.3281,542 1022.7344,542.2813 Q1022.1563,542.5625 1021.7031,543.1875 Q1021.25,543.8125 1021.25,544.6719 L1021.25,545.5938 Q1021.25,546.625 1022.0938,547.3125 Q1022.9375,548 1024.4375,548 Q1025.3281,548 1025.9531,547.7969 Q1026.3125,547.6875 1026.7188,547.3281 Q1026.9844,547.125 1027.125,547.0625 Q1027.2656,547 1027.4375,547 Q1027.7656,547 1028,547.2656 Q1028.25,547.5156 1028.25,547.875 Q1028.25,548.2188 1027.9063,548.625 Q1027.4063,549.2188 1026.6094,549.5469 Q1025.5625,550 1024.2813,550 Q1022.7813,550 1021.5781,549.4063 Q1020.6094,548.9375 1019.9219,547.9219 Q1019.25,546.9063 1019.25,545.7031 L1019.25,544.6094 Q1019.25,543.3594 1019.8438,542.2656 Q1020.4531,541.1719 1021.5,540.5938 Q1022.5625,540 1023.75,540 Q1024.4688,540 1025.0938,540.25 Q1025.7188,540.5 1026.25,541 Z " fill="#000000"/><text fill="#000000" font-family="sans-serif" font-size="12" lengthAdjust="spacing" textLength="24" x="1044.75" y="549.4102">Test</text><line style="stroke:#A80036;stroke-width:1.5;" x1="946" x2="1135" y1="560.5" y2="560.5"/><text fill="#000000" font-family="sans-serif" font-size="11" lengthAdjust="spacing" textLength="127" x="951" y="575.9189">-Date registrationDateTime</text><text fill="#000000" font-family="sans-serif" font-size="11" lengthAdjust="spacing" textLength="104" x="951" y="589.7549">-Date collectDateTime</text><text fill="#000000" font-family="sans-serif" font-size="11" lengthAdjust="spacing" textLength="157" x="951" y="603.5908">-Date chemicalAnalysisDateTime</text><text fill="#000000" font-family="sans-serif" font-size="11" lengthAdjust="spacing" textLength="119" x="951" y="617.4268">-Date diagnosisDateTime</text><text fill="#000000" font-family="sans-serif" font-size="11" lengthAdjust="spacing" textLength="118" x="951" y="631.2627">-Date validationDateTime</text><line style="stroke:#A80036;stroke-width:1.5;" x1="946" x2="1135" y1="637.6797" y2="637.6797"/><text fill="#000000" font-family="sans-serif" font-size="11" lengthAdjust="spacing" textLength="91" x="951" y="653.0986">+String getStatus()</text><text fill="#000000" font-family="sans-serif" font-size="11" lengthAdjust="spacing" textLength="179" x="951" y="666.9346">+boolean updateValidationDateTime()</text><text fill="#000000" font-family="sans-serif" font-size="11" lengthAdjust="spacing" textLength="99" x="951" y="680.7705">+updateTestStatus()</text><!--MD5=[c75e629d71444dd998043aef5ce1a035]
class R--><rect codeLine="25" fill="#FEFECE" filter="url(#f1hcmexi0n6uol)" height="89.5078" id="R" style="stroke:#A80036;stroke-width:1.5;" width="129" x="497.5" y="667"/><ellipse cx="539.5" cy="683" fill="#ADD1B2" rx="11" ry="11" style="stroke:#A80036;stroke-width:1.0;"/><path d="M541.5,679.5 Q541.7031,679 541.9375,678.75 Q542.1719,678.5 542.4375,678.5 Q542.9063,678.5 543.2031,678.7813 Q543.5,679.0625 543.5,679.7188 L543.5,681.2813 Q543.5,681.9375 543.2188,682.2188 Q542.9375,682.5 542.5,682.5 Q542.1094,682.5 541.8594,682.3281 Q541.6094,682.1563 541.5,681.7031 Q541.4531,681.3906 541.2813,681.2188 Q540.9688,680.8906 540.4063,680.7031 Q539.8438,680.5 539.2813,680.5 Q538.5781,680.5 537.9844,680.7813 Q537.4063,681.0625 536.9531,681.6875 Q536.5,682.3125 536.5,683.1719 L536.5,684.0938 Q536.5,685.125 537.3438,685.8125 Q538.1875,686.5 539.6875,686.5 Q540.5781,686.5 541.2031,686.2969 Q541.5625,686.1875 541.9688,685.8281 Q542.2344,685.625 542.375,685.5625 Q542.5156,685.5 542.6875,685.5 Q543.0156,685.5 543.25,685.7656 Q543.5,686.0156 543.5,686.375 Q543.5,686.7188 543.1563,687.125 Q542.6563,687.7188 541.8594,688.0469 Q540.8125,688.5 539.5313,688.5 Q538.0313,688.5 536.8281,687.9063 Q535.8594,687.4375 535.1719,686.4219 Q534.5,685.4063 534.5,684.2031 L534.5,683.1094 Q534.5,681.8594 535.0938,680.7656 Q535.7031,679.6719 536.75,679.0938 Q537.8125,678.5 539,678.5 Q539.7188,678.5 540.3438,678.75 Q540.9688,679 541.5,679.5 Z " fill="#000000"/><text fill="#000000" font-family="sans-serif" font-size="12" lengthAdjust="spacing" textLength="37" x="559.5" y="687.9102">Report</text><line style="stroke:#A80036;stroke-width:1.5;" x1="498.5" x2="625.5" y1="699" y2="699"/><text fill="#000000" font-family="sans-serif" font-size="11" lengthAdjust="spacing" textLength="90" x="503.5" y="714.4189">-boolean validation</text><line style="stroke:#A80036;stroke-width:1.5;" x1="498.5" x2="625.5" y1="720.8359" y2="720.8359"/><text fill="#000000" font-family="sans-serif" font-size="11" lengthAdjust="spacing" textLength="117" x="503.5" y="736.2549">+boolean getValidation()</text><text fill="#000000" font-family="sans-serif" font-size="11" lengthAdjust="spacing" textLength="76" x="503.5" y="750.0908">+setValidation()</text><!--MD5=[eb5ccf2b691ea085ad85ef1be8b5406c]
class N--><rect codeLine="31" fill="#FEFECE" filter="url(#f1hcmexi0n6uol)" height="61.8359" id="N" style="stroke:#A80036;stroke-width:1.5;" width="123" x="979" y="723"/><ellipse cx="1007.5" cy="739" fill="#ADD1B2" rx="11" ry="11" style="stroke:#A80036;stroke-width:1.0;"/><path d="M1009.5,735.5 Q1009.7031,735 1009.9375,734.75 Q1010.1719,734.5 1010.4375,734.5 Q1010.9063,734.5 1011.2031,734.7813 Q1011.5,735.0625 1011.5,735.7188 L1011.5,737.2813 Q1011.5,737.9375 1011.2188,738.2188 Q1010.9375,738.5 1010.5,738.5 Q1010.1094,738.5 1009.8594,738.3281 Q1009.6094,738.1563 1009.5,737.7031 Q1009.4531,737.3906 1009.2813,737.2188 Q1008.9688,736.8906 1008.4063,736.7031 Q1007.8438,736.5 1007.2813,736.5 Q1006.5781,736.5 1005.9844,736.7813 Q1005.4063,737.0625 1004.9531,737.6875 Q1004.5,738.3125 1004.5,739.1719 L1004.5,740.0938 Q1004.5,741.125 1005.3438,741.8125 Q1006.1875,742.5 1007.6875,742.5 Q1008.5781,742.5 1009.2031,742.2969 Q1009.5625,742.1875 1009.9688,741.8281 Q1010.2344,741.625 1010.375,741.5625 Q1010.5156,741.5 1010.6875,741.5 Q1011.0156,741.5 1011.25,741.7656 Q1011.5,742.0156 1011.5,742.375 Q1011.5,742.7188 1011.1563,743.125 Q1010.6563,743.7188 1009.8594,744.0469 Q1008.8125,744.5 1007.5313,744.5 Q1006.0313,744.5 1004.8281,743.9063 Q1003.8594,743.4375 1003.1719,742.4219 Q1002.5,741.4063 1002.5,740.2031 L1002.5,739.1094 Q1002.5,737.8594 1003.0938,736.7656 Q1003.7031,735.6719 1004.75,735.0938 Q1005.8125,734.5 1007,734.5 Q1007.7188,734.5 1008.3438,734.75 Q1008.9688,735 1009.5,735.5 Z " fill="#000000"/><text fill="#000000" font-family="sans-serif" font-size="12" lengthAdjust="spacing" textLength="61" x="1024.5" y="743.9102">Notification</text><line style="stroke:#A80036;stroke-width:1.5;" x1="980" x2="1101" y1="755" y2="755"/><line style="stroke:#A80036;stroke-width:1.5;" x1="980" x2="1101" y1="763" y2="763"/><text fill="#000000" font-family="sans-serif" font-size="11" lengthAdjust="spacing" textLength="111" x="985" y="778.4189">+writeToFile(message)</text><!--MD5=[b0a1b9137b50b50b320b426f68562434]
class TS--><rect codeLine="38" fill="#FEFECE" filter="url(#f1hcmexi0n6uol)" height="103.3438" id="TS" style="stroke:#A80036;stroke-width:1.5;" width="135" x="494.5" y="237.5"/><ellipse cx="532" cy="253.5" fill="#ADD1B2" rx="11" ry="11" style="stroke:#A80036;stroke-width:1.0;"/><path d="M534,250 Q534.2031,249.5 534.4375,249.25 Q534.6719,249 534.9375,249 Q535.4063,249 535.7031,249.2813 Q536,249.5625 536,250.2188 L536,251.7813 Q536,252.4375 535.7188,252.7188 Q535.4375,253 535,253 Q534.6094,253 534.3594,252.8281 Q534.1094,252.6563 534,252.2031 Q533.9531,251.8906 533.7813,251.7188 Q533.4688,251.3906 532.9063,251.2031 Q532.3438,251 531.7813,251 Q531.0781,251 530.4844,251.2813 Q529.9063,251.5625 529.4531,252.1875 Q529,252.8125 529,253.6719 L529,254.5938 Q529,255.625 529.8438,256.3125 Q530.6875,257 532.1875,257 Q533.0781,257 533.7031,256.7969 Q534.0625,256.6875 534.4688,256.3281 Q534.7344,256.125 534.875,256.0625 Q535.0156,256 535.1875,256 Q535.5156,256 535.75,256.2656 Q536,256.5156 536,256.875 Q536,257.2188 535.6563,257.625 Q535.1563,258.2188 534.3594,258.5469 Q533.3125,259 532.0313,259 Q530.5313,259 529.3281,258.4063 Q528.3594,257.9375 527.6719,256.9219 Q527,255.9063 527,254.7031 L527,253.6094 Q527,252.3594 527.5938,251.2656 Q528.2031,250.1719 529.25,249.5938 Q530.3125,249 531.5,249 Q532.2188,249 532.8438,249.25 Q533.4688,249.5 534,250 Z " fill="#000000"/><text fill="#000000" font-family="sans-serif" font-size="12" lengthAdjust="spacing" textLength="53" x="551" y="258.4102">TestStore</text><line style="stroke:#A80036;stroke-width:1.5;" x1="495.5" x2="628.5" y1="269.5" y2="269.5"/><text fill="#000000" font-family="sans-serif" font-size="11" lengthAdjust="spacing" textLength="95" x="500.5" y="284.9189">-List&lt;Test&gt; TestList</text><line style="stroke:#A80036;stroke-width:1.5;" x1="495.5" x2="628.5" y1="291.3359" y2="291.3359"/><text fill="#000000" font-family="sans-serif" font-size="11" lengthAdjust="spacing" textLength="123" x="500.5" y="306.7549">+List &lt;Test&gt; getTestList()</text><text fill="#000000" font-family="sans-serif" font-size="11" lengthAdjust="spacing" textLength="112" x="500.5" y="320.5908">+Test getTestByCode()</text><text fill="#000000" font-family="sans-serif" font-size="11" lengthAdjust="spacing" textLength="113" x="500.5" y="334.4268">+boolean validateTest()</text><!--MD5=[5d34c01a8296ea2c0dac42f422676877]
class RS--><rect codeLine="45" fill="#FEFECE" filter="url(#f1hcmexi0n6uol)" height="75.6719" id="RS" style="stroke:#A80036;stroke-width:1.5;" width="160" x="482" y="376"/><ellipse cx="524.9" cy="392" fill="#ADD1B2" rx="11" ry="11" style="stroke:#A80036;stroke-width:1.0;"/><path d="M526.9,388.5 Q527.1031,388 527.3375,387.75 Q527.5719,387.5 527.8375,387.5 Q528.3063,387.5 528.6031,387.7813 Q528.9,388.0625 528.9,388.7188 L528.9,390.2813 Q528.9,390.9375 528.6188,391.2188 Q528.3375,391.5 527.9,391.5 Q527.5094,391.5 527.2594,391.3281 Q527.0094,391.1563 526.9,390.7031 Q526.8531,390.3906 526.6813,390.2188 Q526.3688,389.8906 525.8063,389.7031 Q525.2438,389.5 524.6813,389.5 Q523.9781,389.5 523.3844,389.7813 Q522.8063,390.0625 522.3531,390.6875 Q521.9,391.3125 521.9,392.1719 L521.9,393.0938 Q521.9,394.125 522.7438,394.8125 Q523.5875,395.5 525.0875,395.5 Q525.9781,395.5 526.6031,395.2969 Q526.9625,395.1875 527.3688,394.8281 Q527.6344,394.625 527.775,394.5625 Q527.9156,394.5 528.0875,394.5 Q528.4156,394.5 528.65,394.7656 Q528.9,395.0156 528.9,395.375 Q528.9,395.7188 528.5563,396.125 Q528.0563,396.7188 527.2594,397.0469 Q526.2125,397.5 524.9313,397.5 Q523.4313,397.5 522.2281,396.9063 Q521.2594,396.4375 520.5719,395.4219 Q519.9,394.4063 519.9,393.2031 L519.9,392.1094 Q519.9,390.8594 520.4938,389.7656 Q521.1031,388.6719 522.15,388.0938 Q523.2125,387.5 524.4,387.5 Q525.1188,387.5 525.7438,387.75 Q526.3688,388 526.9,388.5 Z " fill="#000000"/><text fill="#000000" font-family="sans-serif" font-size="12" lengthAdjust="spacing" textLength="66" x="545.1" y="396.9102">ReportStore</text><line style="stroke:#A80036;stroke-width:1.5;" x1="483" x2="641" y1="408" y2="408"/><text fill="#000000" font-family="sans-serif" font-size="11" lengthAdjust="spacing" textLength="117" x="488" y="423.4189">-List&lt;Report&gt; ReportList</text><line style="stroke:#A80036;stroke-width:1.5;" x1="483" x2="641" y1="429.8359" y2="429.8359"/><text fill="#000000" font-family="sans-serif" font-size="11" lengthAdjust="spacing" textLength="148" x="488" y="445.2549">+boolean validateReport(code)</text><!--MD5=[e0d42c936ced924a28e0518427c43ea5]
class VTC--><rect codeLine="52" fill="#FEFECE" filter="url(#f1hcmexi0n6uol)" height="117.1797" id="VTC" style="stroke:#A80036;stroke-width:1.5;" width="165" x="233" y="278.5"/><ellipse cx="252.95" cy="294.5" fill="#ADD1B2" rx="11" ry="11" style="stroke:#A80036;stroke-width:1.0;"/><path d="M254.95,291 Q255.1531,290.5 255.3875,290.25 Q255.6219,290 255.8875,290 Q256.3563,290 256.6531,290.2813 Q256.95,290.5625 256.95,291.2188 L256.95,292.7813 Q256.95,293.4375 256.6688,293.7188 Q256.3875,294 255.95,294 Q255.5594,294 255.3094,293.8281 Q255.0594,293.6563 254.95,293.2031 Q254.9031,292.8906 254.7313,292.7188 Q254.4188,292.3906 253.8563,292.2031 Q253.2938,292 252.7313,292 Q252.0281,292 251.4344,292.2813 Q250.8563,292.5625 250.4031,293.1875 Q249.95,293.8125 249.95,294.6719 L249.95,295.5938 Q249.95,296.625 250.7938,297.3125 Q251.6375,298 253.1375,298 Q254.0281,298 254.6531,297.7969 Q255.0125,297.6875 255.4188,297.3281 Q255.6844,297.125 255.825,297.0625 Q255.9656,297 256.1375,297 Q256.4656,297 256.7,297.2656 Q256.95,297.5156 256.95,297.875 Q256.95,298.2188 256.6063,298.625 Q256.1063,299.2188 255.3094,299.5469 Q254.2625,300 252.9813,300 Q251.4813,300 250.2781,299.4063 Q249.3094,298.9375 248.6219,297.9219 Q247.95,296.9063 247.95,295.7031 L247.95,294.6094 Q247.95,293.3594 248.5438,292.2656 Q249.1531,291.1719 250.2,290.5938 Q251.2625,290 252.45,290 Q253.1688,290 253.7938,290.25 Q254.4188,290.5 254.95,291 Z " fill="#000000"/><text fill="#000000" font-family="sans-serif" font-size="12" lengthAdjust="spacing" textLength="122" x="268.05" y="299.4102">ValidateTestController</text><line style="stroke:#A80036;stroke-width:1.5;" x1="234" x2="397" y1="310.5" y2="310.5"/><line style="stroke:#A80036;stroke-width:1.5;" x1="234" x2="397" y1="318.5" y2="318.5"/><text fill="#000000" font-family="sans-serif" font-size="11" lengthAdjust="spacing" textLength="120" x="239" y="333.9189">+ValidateTestController()</text><text fill="#000000" font-family="sans-serif" font-size="11" lengthAdjust="spacing" textLength="153" x="239" y="347.7549">+List&lt;TestDto&gt; getAllTestsDto()</text><text fill="#000000" font-family="sans-serif" font-size="11" lengthAdjust="spacing" textLength="148" x="239" y="361.5908">+boolean validateReport(code)</text><text fill="#000000" font-family="sans-serif" font-size="11" lengthAdjust="spacing" textLength="137" x="239" y="375.4268">+boolean validateTest(code)</text><text fill="#000000" font-family="sans-serif" font-size="11" lengthAdjust="spacing" textLength="91" x="239" y="389.2627">+sendNotification()</text><!--MD5=[34b8bb9118ebfeedd29a37b63ba1f816]
class tM--><rect codeLine="67" fill="#FEFECE" filter="url(#f1hcmexi0n6uol)" height="61.8359" id="tM" style="stroke:#A80036;stroke-width:1.5;" width="198" x="463" y="86"/><ellipse cx="525.25" cy="102" fill="#ADD1B2" rx="11" ry="11" style="stroke:#A80036;stroke-width:1.0;"/><path d="M527.25,98.5 Q527.4531,98 527.6875,97.75 Q527.9219,97.5 528.1875,97.5 Q528.6563,97.5 528.9531,97.7813 Q529.25,98.0625 529.25,98.7188 L529.25,100.2813 Q529.25,100.9375 528.9688,101.2188 Q528.6875,101.5 528.25,101.5 Q527.8594,101.5 527.6094,101.3281 Q527.3594,101.1563 527.25,100.7031 Q527.2031,100.3906 527.0313,100.2188 Q526.7188,99.8906 526.1563,99.7031 Q525.5938,99.5 525.0313,99.5 Q524.3281,99.5 523.7344,99.7813 Q523.1563,100.0625 522.7031,100.6875 Q522.25,101.3125 522.25,102.1719 L522.25,103.0938 Q522.25,104.125 523.0938,104.8125 Q523.9375,105.5 525.4375,105.5 Q526.3281,105.5 526.9531,105.2969 Q527.3125,105.1875 527.7188,104.8281 Q527.9844,104.625 528.125,104.5625 Q528.2656,104.5 528.4375,104.5 Q528.7656,104.5 529,104.7656 Q529.25,105.0156 529.25,105.375 Q529.25,105.7188 528.9063,106.125 Q528.4063,106.7188 527.6094,107.0469 Q526.5625,107.5 525.2813,107.5 Q523.7813,107.5 522.5781,106.9063 Q521.6094,106.4375 520.9219,105.4219 Q520.25,104.4063 520.25,103.2031 L520.25,102.1094 Q520.25,100.8594 520.8438,99.7656 Q521.4531,98.6719 522.5,98.0938 Q523.5625,97.5 524.75,97.5 Q525.4688,97.5 526.0938,97.75 Q526.7188,98 527.25,98.5 Z " fill="#000000"/><text fill="#000000" font-family="sans-serif" font-size="12" lengthAdjust="spacing" textLength="65" x="545.75" y="106.9102">TestMapper</text><line style="stroke:#A80036;stroke-width:1.5;" x1="464" x2="660" y1="118" y2="118"/><line style="stroke:#A80036;stroke-width:1.5;" x1="464" x2="660" y1="126" y2="126"/><text fill="#000000" font-family="sans-serif" font-size="11" lengthAdjust="spacing" textLength="186" x="469" y="141.4189">+List &lt;TestDto&gt; toDtoLabC(List&lt;Test&gt;)</text><!--MD5=[06b817c767b97587138ec05296e83bc0]
class tDto--><rect codeLine="75" fill="#FEFECE" filter="url(#f1hcmexi0n6uol)" height="117.1797" id="tDto" style="stroke:#A80036;stroke-width:1.5;" width="421" x="830" y="113.5"/><ellipse cx="1014.75" cy="129.5" fill="#ADD1B2" rx="11" ry="11" style="stroke:#A80036;stroke-width:1.0;"/><path d="M1016.75,126 Q1016.9531,125.5 1017.1875,125.25 Q1017.4219,125 1017.6875,125 Q1018.1563,125 1018.4531,125.2813 Q1018.75,125.5625 1018.75,126.2188 L1018.75,127.7813 Q1018.75,128.4375 1018.4688,128.7188 Q1018.1875,129 1017.75,129 Q1017.3594,129 1017.1094,128.8281 Q1016.8594,128.6563 1016.75,128.2031 Q1016.7031,127.8906 1016.5313,127.7188 Q1016.2188,127.3906 1015.6563,127.2031 Q1015.0938,127 1014.5313,127 Q1013.8281,127 1013.2344,127.2813 Q1012.6563,127.5625 1012.2031,128.1875 Q1011.75,128.8125 1011.75,129.6719 L1011.75,130.5938 Q1011.75,131.625 1012.5938,132.3125 Q1013.4375,133 1014.9375,133 Q1015.8281,133 1016.4531,132.7969 Q1016.8125,132.6875 1017.2188,132.3281 Q1017.4844,132.125 1017.625,132.0625 Q1017.7656,132 1017.9375,132 Q1018.2656,132 1018.5,132.2656 Q1018.75,132.5156 1018.75,132.875 Q1018.75,133.2188 1018.4063,133.625 Q1017.9063,134.2188 1017.1094,134.5469 Q1016.0625,135 1014.7813,135 Q1013.2813,135 1012.0781,134.4063 Q1011.1094,133.9375 1010.4219,132.9219 Q1009.75,131.9063 1009.75,130.7031 L1009.75,129.6094 Q1009.75,128.3594 1010.3438,127.2656 Q1010.9531,126.1719 1012,125.5938 Q1013.0625,125 1014.25,125 Q1014.9688,125 1015.5938,125.25 Q1016.2188,125.5 1016.75,126 Z " fill="#000000"/><text fill="#000000" font-family="sans-serif" font-size="12" lengthAdjust="spacing" textLength="43" x="1035.25" y="134.4102">TestDto</text><line style="stroke:#A80036;stroke-width:1.5;" x1="831" x2="1250" y1="145.5" y2="145.5"/><line style="stroke:#A80036;stroke-width:1.5;" x1="831" x2="1250" y1="153.5" y2="153.5"/><text fill="#000000" font-family="sans-serif" font-size="11" lengthAdjust="spacing" textLength="409" x="836" y="168.9189">+TestDto(registrationDateTime, chemicalAnalysisDateTime, diagnosisDateTime, code)</text><text fill="#000000" font-family="sans-serif" font-size="11" lengthAdjust="spacing" textLength="155" x="836" y="182.7549">+Date getRegistrationDateTime()</text><text fill="#000000" font-family="sans-serif" font-size="11" lengthAdjust="spacing" textLength="183" x="836" y="196.5908">+Date getChemicalAnalysisDateTime()</text><text fill="#000000" font-family="sans-serif" font-size="11" lengthAdjust="spacing" textLength="145" x="836" y="210.4268">+Date getDiagnosisDateTime()</text><text fill="#000000" font-family="sans-serif" font-size="11" lengthAdjust="spacing" textLength="85" x="836" y="224.2627">+String getCode()</text><!--MD5=[9a8f089cd1561ce4ec56c0b237cdd71f]
class VTUI--><rect codeLine="89" fill="#FEFECE" filter="url(#f1hcmexi0n6uol)" height="48" id="VTUI" style="stroke:#A80036;stroke-width:1.5;" width="112" x="32" y="313"/><ellipse cx="47" cy="329" fill="#ADD1B2" rx="11" ry="11" style="stroke:#A80036;stroke-width:1.0;"/><path d="M49,325.5 Q49.2031,325 49.4375,324.75 Q49.6719,324.5 49.9375,324.5 Q50.4063,324.5 50.7031,324.7813 Q51,325.0625 51,325.7188 L51,327.2813 Q51,327.9375 50.7188,328.2188 Q50.4375,328.5 50,328.5 Q49.6094,328.5 49.3594,328.3281 Q49.1094,328.1563 49,327.7031 Q48.9531,327.3906 48.7813,327.2188 Q48.4688,326.8906 47.9063,326.7031 Q47.3438,326.5 46.7813,326.5 Q46.0781,326.5 45.4844,326.7813 Q44.9063,327.0625 44.4531,327.6875 Q44,328.3125 44,329.1719 L44,330.0938 Q44,331.125 44.8438,331.8125 Q45.6875,332.5 47.1875,332.5 Q48.0781,332.5 48.7031,332.2969 Q49.0625,332.1875 49.4688,331.8281 Q49.7344,331.625 49.875,331.5625 Q50.0156,331.5 50.1875,331.5 Q50.5156,331.5 50.75,331.7656 Q51,332.0156 51,332.375 Q51,332.7188 50.6563,333.125 Q50.1563,333.7188 49.3594,334.0469 Q48.3125,334.5 47.0313,334.5 Q45.5313,334.5 44.3281,333.9063 Q43.3594,333.4375 42.6719,332.4219 Q42,331.4063 42,330.2031 L42,329.1094 Q42,327.8594 42.5938,326.7656 Q43.2031,325.6719 44.25,325.0938 Q45.3125,324.5 46.5,324.5 Q47.2188,324.5 47.8438,324.75 Q48.4688,325 49,325.5 Z " fill="#000000"/><text fill="#000000" font-family="sans-serif" font-size="12" lengthAdjust="spacing" textLength="80" x="61" y="333.9102">ValidateTestUI</text><line style="stroke:#A80036;stroke-width:1.5;" x1="33" x2="143" y1="345" y2="345"/><line style="stroke:#A80036;stroke-width:1.5;" x1="33" x2="143" y1="353" y2="353"/><!--MD5=[6e150dedde4c1218bdd2d70b1a6afa35]
link VTUI to VTC--><path codeLine="92" d="M144.16,337 C169.2,337 199.43,337 227.42,337 " fill="none" id="VTUI-to-VTC" style="stroke:#A80036;stroke-width:1.0;stroke-dasharray:7.0,7.0;"/><polygon fill="#A80036" points="232.62,337,223.62,333,227.62,337,223.62,341,232.62,337" style="stroke:#A80036;stroke-width:1.0;"/><!--MD5=[d5fc24fc5738d367467ea53b7c5dadfc]
link C to TS--><path codeLine="94" d="M481.96,528.19 C458.67,507.52 437.57,481.26 430.5,450.5 C423.03,418.01 423.03,407.99 430.5,375.5 C432.44,367.07 433.07,364.29 439,358 C453.24,342.89 471.55,330.22 489.66,320.03 " fill="none" id="C-to-TS" style="stroke:#A80036;stroke-width:1.0;stroke-dasharray:7.0,7.0;"/><polygon fill="#A80036" points="494.26,317.49,484.4467,318.3261,489.8798,319.9012,488.3047,325.3344,494.26,317.49" style="stroke:#A80036;stroke-width:1.0;"/><!--MD5=[3ca4f9a315dc56bb1139649740c27af1]
link C to RS--><path codeLine="95" d="M562,528.45 C562,504.66 562,480.87 562,457.08 " fill="none" id="C-to-RS" style="stroke:#A80036;stroke-width:1.0;stroke-dasharray:7.0,7.0;"/><polygon fill="#A80036" points="562,452,558,461,562,457,566,461,562,452" style="stroke:#A80036;stroke-width:1.0;"/><!--MD5=[eac73315b97dd8eedf47faf1f4811060]
link VTC to C--><path codeLine="96" d="M349.52,395.75 C369.89,428.64 398.16,468.94 430,499 C440.39,508.81 452.16,518.06 464.27,526.55 " fill="none" id="VTC-to-C" style="stroke:#A80036;stroke-width:1.0;stroke-dasharray:7.0,7.0;"/><polygon fill="#A80036" points="468.39,529.4,463.2732,520.9846,464.2811,526.551,458.7148,527.5589,468.39,529.4" style="stroke:#A80036;stroke-width:1.0;"/><!--MD5=[878438dd79dcafedd24603c31f486646]
link VTC to tM--><path codeLine="97" d="M347.09,278.12 C367.01,244.37 395.65,203.25 430,175 C441.48,165.56 454.73,157.37 468.31,150.36 " fill="none" id="VTC-to-tM" style="stroke:#A80036;stroke-width:1.0;stroke-dasharray:7.0,7.0;"/><polygon fill="#A80036" points="472.93,148.02,463.0925,148.4924,468.4636,150.2675,466.6885,155.6386,472.93,148.02" style="stroke:#A80036;stroke-width:1.0;"/><!--MD5=[f4ff3011b7db2cea863ad0c0313bce0d]
link VTC to tDto--><path codeLine="98" d="M363.02,278.44 C383.8,256.55 410.11,233.89 439,221 C506.2,191.01 680.94,179.18 824.7,174.61 " fill="none" id="VTC-to-tDto" style="stroke:#A80036;stroke-width:1.0;stroke-dasharray:7.0,7.0;"/><polygon fill="#A80036" points="829.8,174.45,820.6788,170.7347,824.8025,174.6071,820.9301,178.7307,829.8,174.45" style="stroke:#A80036;stroke-width:1.0;"/><!--MD5=[190a8683387f98e76a1f9347759bf883]
link VTC to N--><path codeLine="99" d="M357.29,395.59 C378.62,421.81 406.96,450.66 439,468 C584.16,546.55 705.09,426.58 798,563 C815.79,589.12 785.4,681.03 806,705 C846.61,752.24 920.1,760.88 973.81,759.98 " fill="none" id="VTC-to-N" style="stroke:#A80036;stroke-width:1.0;stroke-dasharray:7.0,7.0;"/><polygon fill="#A80036" points="978.95,759.86,969.8609,756.0667,973.9513,759.9743,970.0438,764.0646,978.95,759.86" style="stroke:#A80036;stroke-width:1.0;"/><!--MD5=[0b037e5f89e300193b3080f69ffc7684]
link TS to T--><path codeLine="101" d="M629.56,325.06 C647.75,335.34 667.32,346.8 685,358 C773.59,414.09 870.67,483.12 940.81,534.42 " fill="none" id="TS-to-T" style="stroke:#A80036;stroke-width:1.0;stroke-dasharray:7.0,7.0;"/><polygon fill="#A80036" points="944.96,537.46,940.052,528.9212,940.9225,534.5106,935.333,535.3811,944.96,537.46" style="stroke:#A80036;stroke-width:1.0;"/><!--MD5=[f9daeeff800a5106e842a57bb30d48b6]
link tM to tDto--><path codeLine="102" d="M661.15,128.33 C708.62,133.81 767.6,140.62 824.76,147.21 " fill="none" id="tM-to-tDto" style="stroke:#A80036;stroke-width:1.0;stroke-dasharray:7.0,7.0;"/><polygon fill="#A80036" points="829.93,147.81,821.4456,142.8084,824.9627,147.239,820.5321,150.7561,829.93,147.81" style="stroke:#A80036;stroke-width:1.0;"/><!--MD5=[281a59200fe523f79922830c877c9cf1]
link C to T--><path codeLine="104" d="M655.72,585.45 C739.11,590.35 861.05,597.51 944.99,602.45 " fill="none" id="C-T" style="stroke:#A80036;stroke-width:1.0;"/><polygon fill="#000000" points="722.9914,580.4691,714.1343,577.0046,713.7895,582.8723,722.9914,580.4691" style="stroke:#000000;stroke-width:1.0;"/><text fill="#000000" font-family="sans-serif" font-size="13" lengthAdjust="spacing" textLength="50" x="727" y="585.4951">performs</text><text fill="#000000" font-family="sans-serif" font-size="13" lengthAdjust="spacing" textLength="7" x="663.4672" y="600.0172">1</text><text fill="#000000" font-family="sans-serif" font-size="13" lengthAdjust="spacing" textLength="5" x="931.8735" y="616.1755">*</text><!--MD5=[d79f796b7193e7ca26e46655b3a51e19]
link RS to R--><path codeLine="106" d="M481.77,448.26 C466.31,457.34 451.17,468.25 439,481 C415.87,505.23 422.99,598.85 430.5,631.5 C437.39,661.46 464.57,680.74 492.44,692.9 " fill="none" id="RS-to-R" style="stroke:#A80036;stroke-width:1.0;stroke-dasharray:7.0,7.0;"/><polygon fill="#A80036" points="497.28,694.93,490.5186,687.7687,492.6667,693.0019,487.4336,695.15,497.28,694.93" style="stroke:#A80036;stroke-width:1.0;"/><!--MD5=[b6d05c8ba1925f463401f0316ca5edcc]
link R to T--><path codeLine="107" d="M626.77,698.08 C708.43,680.26 850.62,649.22 944.91,628.65 " fill="none" id="R-T" style="stroke:#A80036;stroke-width:1.0;"/><polygon fill="#000000" points="702.885,654.1097,693.4213,653.1669,694.6746,658.9096,702.885,654.1097" style="stroke:#000000;stroke-width:1.0;"/><text fill="#000000" font-family="sans-serif" font-size="13" lengthAdjust="spacing" textLength="90" x="707" y="660.4951">associated with</text><text fill="#000000" font-family="sans-serif" font-size="13" lengthAdjust="spacing" textLength="7" x="634.6637" y="710.9394">1</text><text fill="#000000" font-family="sans-serif" font-size="13" lengthAdjust="spacing" textLength="7" x="930.0138" y="644.4546">1</text><!--MD5=[d0dc5803637187dcce575693335d8dcd]
link R to N--><path codeLine="108" d="M626.77,717.62 C718.95,725.75 888.28,740.67 978.74,748.64 " fill="none" id="R-N" style="stroke:#A80036;stroke-width:1.0;"/><polygon fill="#000000" points="702.9807,716.6147,694.2285,712.8931,693.7125,718.7482,702.9807,716.6147" style="stroke:#000000;stroke-width:1.0;"/><text fill="#000000" font-family="sans-serif" font-size="13" lengthAdjust="spacing" textLength="90" x="707" y="721.4951">associated with</text><text fill="#000000" font-family="sans-serif" font-size="13" lengthAdjust="spacing" textLength="7" x="634.6637" y="732.7387">1</text><text fill="#000000" font-family="sans-serif" font-size="13" lengthAdjust="spacing" textLength="7" x="964.1943" y="762.4702">1</text><!--MD5=[cae0a14869ceae93aa51546f83296dcb]
@startuml
skinparam classAttributeIconSize 0
left to right direction

package Core{

package Domain{
class "Company" as C {
-String designation
+TestStore getTestStore()
+ReportStore getReportStore()
+Notification getNotificationService()
}

class "Test" as T {
-Date registrationDateTime
-Date collectDateTime
-Date chemicalAnalysisDateTime
-Date diagnosisDateTime
-Date validationDateTime
+String getStatus()
+boolean updateValidationDateTime()
+updateTestStatus()
}

class "Report" as R{
-boolean validation
+boolean getValidation()
+setValidation()
}

class "Notification" as N{
+ writeToFile(message)
}

}

package Stores{
class "TestStore" as TS{
-List<Test> TestList
+List <Test> getTestList()
+Test getTestByCode()
+boolean validateTest()
}

class "ReportStore" as RS{
-List<Report> ReportList
+boolean validateReport(code)
}
}

package Controllers{
class "ValidateTestController" as VTC {
+ValidateTestController()
+List<TestDto> getAllTestsDto()
+boolean validateReport(code)
+boolean validateTest(code)
+sendNotification()
}





}

package Mappers{
class "TestMapper" as tM{
+List <TestDto> toDtoLabC(List<Test>)
}

}


package Dto{
class "TestDto" as tDto{
+TestDto(registrationDateTime, chemicalAnalysisDateTime, diagnosisDateTime, code)
+Date getRegistrationDateTime()
+Date getChemicalAnalysisDateTime()
+Date getDiagnosisDateTime()
+String getCode()
}



}

}
package UI{
class "ValidateTestUI" as VTUI
}

VTUI ..> VTC

C ..> TS
C ..> RS
VTC ..> C
VTC ..> tM
VTC ..> tDto
VTC ..> N

TS ..> T
tM ..> tDto

C "1" - - "*" T : > performs

RS ..> R
R "1" - - "1" T : > associated with
R "1" - - "1" N : > associated with

@enduml

PlantUML version 1.2021.5(Sun Apr 25 12:20:28 BST 2021)
(GPL source distribution)
Java Runtime: OpenJDK Runtime Environment
JVM: OpenJDK 64-Bit Server VM
Default Encoding: Cp1252
Language: pt
Country: PT
--></g></svg>