<?xml version="1.0" encoding="UTF-8" standalone="no"?><svg xmlns="http://www.w3.org/2000/svg" xmlns:xlink="http://www.w3.org/1999/xlink" contentScriptType="application/ecmascript" contentStyleType="text/css" height="818px" preserveAspectRatio="none" style="width:1308px;height:818px;" version="1.1" viewBox="0 0 1308 818" width="1308px" zoomAndPan="magnify"><defs><filter height="300%" id="fd9jse1d8rj74" width="300%" x="-1" y="-1"><feGaussianBlur result="blurOut" stdDeviation="2.0"/><feColorMatrix in="blurOut" result="blurOut2" type="matrix" values="0 0 0 0 0 0 0 0 0 0 0 0 0 0 0 0 0 0 .4 0"/><feOffset dx="4.0" dy="4.0" in="blurOut2" result="blurOut3"/><feBlend in="SourceGraphic" in2="blurOut3" mode="normal"/></filter></defs><g><!--MD5=[2c2e2644034c00788261e03c85b06837]
cluster Core--><polygon fill="#FFFFFF" filter="url(#fd9jse1d8rj74)" points="193,6,233,6,240,29.6094,1291,29.6094,1291,811,193,811,193,6" style="stroke:#000000;stroke-width:1.5;"/><line style="stroke:#000000;stroke-width:1.5;" x1="193" x2="240" y1="29.6094" y2="29.6094"/><text fill="#000000" font-family="sans-serif" font-size="14" font-weight="bold" lengthAdjust="spacing" textLength="34" x="197" y="22.5332">Core</text><!--MD5=[121a8bf1197281ab89ed693fab589f94]
cluster Domain--><polygon fill="#FFFFFF" filter="url(#fd9jse1d8rj74)" points="452.5,478,510.5,478,517.5,501.6094,1141,501.6094,1141,787,452.5,787,452.5,478" style="stroke:#000000;stroke-width:1.5;"/><line style="stroke:#000000;stroke-width:1.5;" x1="452.5" x2="517.5" y1="501.6094" y2="501.6094"/><text fill="#000000" font-family="sans-serif" font-size="14" font-weight="bold" lengthAdjust="spacing" textLength="52" x="456.5" y="494.5332">Domain</text><!--MD5=[8dd535d56cd4cf7faf64fdd082ba836e]
cluster Stores--><polygon fill="#FFFFFF" filter="url(#fd9jse1d8rj74)" points="466,201,518,201,525,224.6094,658,224.6094,658,454,466,454,466,201" style="stroke:#000000;stroke-width:1.5;"/><line style="stroke:#000000;stroke-width:1.5;" x1="466" x2="525" y1="224.6094" y2="224.6094"/><text fill="#000000" font-family="sans-serif" font-size="14" font-weight="bold" lengthAdjust="spacing" textLength="46" x="470" y="217.5332">Stores</text><!--MD5=[ed1d20ea533a2a0e7df5ba3c35e56ced]
cluster Controllers--><polygon fill="#FFFFFF" filter="url(#fd9jse1d8rj74)" points="217,249,302,249,309,272.6094,414,272.6094,414,391,217,391,217,249" style="stroke:#000000;stroke-width:1.5;"/><line style="stroke:#000000;stroke-width:1.5;" x1="217" x2="309" y1="272.6094" y2="272.6094"/><text fill="#000000" font-family="sans-serif" font-size="14" font-weight="bold" lengthAdjust="spacing" textLength="79" x="221" y="265.5332">Controllers</text><!--MD5=[701152d03fbf85133a1de050cfdbc7fd]
cluster Mappers--><polygon fill="#FFFFFF" filter="url(#fd9jse1d8rj74)" points="447,50,515,50,522,73.6094,677,73.6094,677,164,447,164,447,50" style="stroke:#000000;stroke-width:1.5;"/><line style="stroke:#000000;stroke-width:1.5;" x1="447" x2="522" y1="73.6094" y2="73.6094"/><text fill="#000000" font-family="sans-serif" font-size="14" font-weight="bold" lengthAdjust="spacing" textLength="62" x="451" y="66.5332">Mappers</text><!--MD5=[a7e26d82dece3a99be33d8557e72e039]
cluster Dto--><polygon fill="#FFFFFF" filter="url(#fd9jse1d8rj74)" points="814,77,844,77,851,100.6094,1267,100.6094,1267,247,814,247,814,77" style="stroke:#000000;stroke-width:1.5;"/><line style="stroke:#000000;stroke-width:1.5;" x1="814" x2="851" y1="100.6094" y2="100.6094"/><text fill="#000000" font-family="sans-serif" font-size="14" font-weight="bold" lengthAdjust="spacing" textLength="24" x="818" y="93.5332">Dto</text><!--MD5=[9681dc6e01e10c6b4fe06895ae94f592]
cluster UI--><polygon fill="#FFFFFF" filter="url(#fd9jse1d8rj74)" points="16,270,36,270,43,293.6094,160,293.6094,160,370,16,370,16,270" style="stroke:#000000;stroke-width:1.5;"/><line style="stroke:#000000;stroke-width:1.5;" x1="16" x2="43" y1="293.6094" y2="293.6094"/><text fill="#000000" font-family="sans-serif" font-size="14" font-weight="bold" lengthAdjust="spacing" textLength="14" x="20" y="286.5332">UI</text><!--MD5=[378b18254a1b2429f435e93f5e5cc50c]
class C--><rect codeLine="7" fill="#FEFECE" filter="url(#fd9jse1d8rj74)" height="103.3438" id="C" style="stroke:#A80036;stroke-width:1.5;" width="187" x="468.5" y="514.5"/><ellipse cx="531.25" cy="530.5" fill="#ADD1B2" rx="11" ry="11" style="stroke:#A80036;stroke-width:1.0;"/><path d="M533.25,527 Q533.4531,526.5 533.6875,526.25 Q533.9219,526 534.1875,526 Q534.6563,526 534.9531,526.2813 Q535.25,526.5625 535.25,527.2188 L535.25,528.7813 Q535.25,529.4375 534.9688,529.7188 Q534.6875,530 534.25,530 Q533.8594,530 533.6094,529.8281 Q533.3594,529.6563 533.25,529.2031 Q533.2031,528.8906 533.0313,528.7188 Q532.7188,528.3906 532.1563,528.2031 Q531.5938,528 531.0313,528 Q530.3281,528 529.7344,528.2813 Q529.1563,528.5625 528.7031,529.1875 Q528.25,529.8125 528.25,530.6719 L528.25,531.5938 Q528.25,532.625 529.0938,533.3125 Q529.9375,534 531.4375,534 Q532.3281,534 532.9531,533.7969 Q533.3125,533.6875 533.7188,533.3281 Q533.9844,533.125 534.125,533.0625 Q534.2656,533 534.4375,533 Q534.7656,533 535,533.2656 Q535.25,533.5156 535.25,533.875 Q535.25,534.2188 534.9063,534.625 Q534.4063,535.2188 533.6094,535.5469 Q532.5625,536 531.2813,536 Q529.7813,536 528.5781,535.4063 Q527.6094,534.9375 526.9219,533.9219 Q526.25,532.9063 526.25,531.7031 L526.25,530.6094 Q526.25,529.3594 526.8438,528.2656 Q527.4531,527.1719 528.5,526.5938 Q529.5625,526 530.75,526 Q531.4688,526 532.0938,526.25 Q532.7188,526.5 533.25,527 Z " fill="#000000"/><text fill="#000000" font-family="sans-serif" font-size="12" lengthAdjust="spacing" textLength="53" x="551.75" y="535.4102">Company</text><line style="stroke:#A80036;stroke-width:1.5;" x1="469.5" x2="654.5" y1="546.5" y2="546.5"/><text fill="#000000" font-family="sans-serif" font-size="11" lengthAdjust="spacing" textLength="90" x="474.5" y="561.9189">-String designation</text><line style="stroke:#A80036;stroke-width:1.5;" x1="469.5" x2="654.5" y1="568.3359" y2="568.3359"/><text fill="#000000" font-family="sans-serif" font-size="11" lengthAdjust="spacing" textLength="126" x="474.5" y="583.7549">+TestStore getTestStore()</text><text fill="#000000" font-family="sans-serif" font-size="11" lengthAdjust="spacing" textLength="148" x="474.5" y="597.5908">+ReportStore getReportStore()</text><text fill="#000000" font-family="sans-serif" font-size="11" lengthAdjust="spacing" textLength="175" x="474.5" y="611.4268">+Notification getNotificationService()</text><!--MD5=[56e4c9075fa7c9f4c09ef0a20c49f72c]
class T--><rect codeLine="14" fill="#FEFECE" filter="url(#fd9jse1d8rj74)" height="158.6875" id="T" style="stroke:#A80036;stroke-width:1.5;" width="169" x="956" y="514.5"/><ellipse cx="1024.25" cy="530.5" fill="#ADD1B2" rx="11" ry="11" style="stroke:#A80036;stroke-width:1.0;"/><path d="M1026.25,527 Q1026.4531,526.5 1026.6875,526.25 Q1026.9219,526 1027.1875,526 Q1027.6563,526 1027.9531,526.2813 Q1028.25,526.5625 1028.25,527.2188 L1028.25,528.7813 Q1028.25,529.4375 1027.9688,529.7188 Q1027.6875,530 1027.25,530 Q1026.8594,530 1026.6094,529.8281 Q1026.3594,529.6563 1026.25,529.2031 Q1026.2031,528.8906 1026.0313,528.7188 Q1025.7188,528.3906 1025.1563,528.2031 Q1024.5938,528 1024.0313,528 Q1023.3281,528 1022.7344,528.2813 Q1022.1563,528.5625 1021.7031,529.1875 Q1021.25,529.8125 1021.25,530.6719 L1021.25,531.5938 Q1021.25,532.625 1022.0938,533.3125 Q1022.9375,534 1024.4375,534 Q1025.3281,534 1025.9531,533.7969 Q1026.3125,533.6875 1026.7188,533.3281 Q1026.9844,533.125 1027.125,533.0625 Q1027.2656,533 1027.4375,533 Q1027.7656,533 1028,533.2656 Q1028.25,533.5156 1028.25,533.875 Q1028.25,534.2188 1027.9063,534.625 Q1027.4063,535.2188 1026.6094,535.5469 Q1025.5625,536 1024.2813,536 Q1022.7813,536 1021.5781,535.4063 Q1020.6094,534.9375 1019.9219,533.9219 Q1019.25,532.9063 1019.25,531.7031 L1019.25,530.6094 Q1019.25,529.3594 1019.8438,528.2656 Q1020.4531,527.1719 1021.5,526.5938 Q1022.5625,526 1023.75,526 Q1024.4688,526 1025.0938,526.25 Q1025.7188,526.5 1026.25,527 Z " fill="#000000"/><text fill="#000000" font-family="sans-serif" font-size="12" lengthAdjust="spacing" textLength="24" x="1044.75" y="535.4102">Test</text><line style="stroke:#A80036;stroke-width:1.5;" x1="957" x2="1124" y1="546.5" y2="546.5"/><text fill="#000000" font-family="sans-serif" font-size="11" lengthAdjust="spacing" textLength="127" x="962" y="561.9189">-Date registrationDateTime</text><text fill="#000000" font-family="sans-serif" font-size="11" lengthAdjust="spacing" textLength="104" x="962" y="575.7549">-Date collectDateTime</text><text fill="#000000" font-family="sans-serif" font-size="11" lengthAdjust="spacing" textLength="157" x="962" y="589.5908">-Date chemicalAnalysisDateTime</text><text fill="#000000" font-family="sans-serif" font-size="11" lengthAdjust="spacing" textLength="119" x="962" y="603.4268">-Date diagnosisDateTime</text><text fill="#000000" font-family="sans-serif" font-size="11" lengthAdjust="spacing" textLength="118" x="962" y="617.2627">-Date validationDateTime</text><line style="stroke:#A80036;stroke-width:1.5;" x1="957" x2="1124" y1="623.6797" y2="623.6797"/><text fill="#000000" font-family="sans-serif" font-size="11" lengthAdjust="spacing" textLength="91" x="962" y="639.0986">+String getStatus()</text><text fill="#000000" font-family="sans-serif" font-size="11" lengthAdjust="spacing" textLength="138" x="962" y="652.9346">+updateValidationDateTime()</text><text fill="#000000" font-family="sans-serif" font-size="11" lengthAdjust="spacing" textLength="99" x="962" y="666.7705">+updateTestStatus()</text><!--MD5=[c75e629d71444dd998043aef5ce1a035]
class R--><rect codeLine="25" fill="#FEFECE" filter="url(#fd9jse1d8rj74)" height="89.5078" id="R" style="stroke:#A80036;stroke-width:1.5;" width="129" x="497.5" y="653"/><ellipse cx="539.5" cy="669" fill="#ADD1B2" rx="11" ry="11" style="stroke:#A80036;stroke-width:1.0;"/><path d="M541.5,665.5 Q541.7031,665 541.9375,664.75 Q542.1719,664.5 542.4375,664.5 Q542.9063,664.5 543.2031,664.7813 Q543.5,665.0625 543.5,665.7188 L543.5,667.2813 Q543.5,667.9375 543.2188,668.2188 Q542.9375,668.5 542.5,668.5 Q542.1094,668.5 541.8594,668.3281 Q541.6094,668.1563 541.5,667.7031 Q541.4531,667.3906 541.2813,667.2188 Q540.9688,666.8906 540.4063,666.7031 Q539.8438,666.5 539.2813,666.5 Q538.5781,666.5 537.9844,666.7813 Q537.4063,667.0625 536.9531,667.6875 Q536.5,668.3125 536.5,669.1719 L536.5,670.0938 Q536.5,671.125 537.3438,671.8125 Q538.1875,672.5 539.6875,672.5 Q540.5781,672.5 541.2031,672.2969 Q541.5625,672.1875 541.9688,671.8281 Q542.2344,671.625 542.375,671.5625 Q542.5156,671.5 542.6875,671.5 Q543.0156,671.5 543.25,671.7656 Q543.5,672.0156 543.5,672.375 Q543.5,672.7188 543.1563,673.125 Q542.6563,673.7188 541.8594,674.0469 Q540.8125,674.5 539.5313,674.5 Q538.0313,674.5 536.8281,673.9063 Q535.8594,673.4375 535.1719,672.4219 Q534.5,671.4063 534.5,670.2031 L534.5,669.1094 Q534.5,667.8594 535.0938,666.7656 Q535.7031,665.6719 536.75,665.0938 Q537.8125,664.5 539,664.5 Q539.7188,664.5 540.3438,664.75 Q540.9688,665 541.5,665.5 Z " fill="#000000"/><text fill="#000000" font-family="sans-serif" font-size="12" lengthAdjust="spacing" textLength="37" x="559.5" y="673.9102">Report</text><line style="stroke:#A80036;stroke-width:1.5;" x1="498.5" x2="625.5" y1="685" y2="685"/><text fill="#000000" font-family="sans-serif" font-size="11" lengthAdjust="spacing" textLength="90" x="503.5" y="700.4189">-boolean validation</text><line style="stroke:#A80036;stroke-width:1.5;" x1="498.5" x2="625.5" y1="706.8359" y2="706.8359"/><text fill="#000000" font-family="sans-serif" font-size="11" lengthAdjust="spacing" textLength="117" x="503.5" y="722.2549">+boolean getValidation()</text><text fill="#000000" font-family="sans-serif" font-size="11" lengthAdjust="spacing" textLength="76" x="503.5" y="736.0908">+setValidation()</text><!--MD5=[eb5ccf2b691ea085ad85ef1be8b5406c]
class N--><rect codeLine="31" fill="#FEFECE" filter="url(#fd9jse1d8rj74)" height="61.8359" id="N" style="stroke:#A80036;stroke-width:1.5;" width="123" x="979" y="709"/><ellipse cx="1007.5" cy="725" fill="#ADD1B2" rx="11" ry="11" style="stroke:#A80036;stroke-width:1.0;"/><path d="M1009.5,721.5 Q1009.7031,721 1009.9375,720.75 Q1010.1719,720.5 1010.4375,720.5 Q1010.9063,720.5 1011.2031,720.7813 Q1011.5,721.0625 1011.5,721.7188 L1011.5,723.2813 Q1011.5,723.9375 1011.2188,724.2188 Q1010.9375,724.5 1010.5,724.5 Q1010.1094,724.5 1009.8594,724.3281 Q1009.6094,724.1563 1009.5,723.7031 Q1009.4531,723.3906 1009.2813,723.2188 Q1008.9688,722.8906 1008.4063,722.7031 Q1007.8438,722.5 1007.2813,722.5 Q1006.5781,722.5 1005.9844,722.7813 Q1005.4063,723.0625 1004.9531,723.6875 Q1004.5,724.3125 1004.5,725.1719 L1004.5,726.0938 Q1004.5,727.125 1005.3438,727.8125 Q1006.1875,728.5 1007.6875,728.5 Q1008.5781,728.5 1009.2031,728.2969 Q1009.5625,728.1875 1009.9688,727.8281 Q1010.2344,727.625 1010.375,727.5625 Q1010.5156,727.5 1010.6875,727.5 Q1011.0156,727.5 1011.25,727.7656 Q1011.5,728.0156 1011.5,728.375 Q1011.5,728.7188 1011.1563,729.125 Q1010.6563,729.7188 1009.8594,730.0469 Q1008.8125,730.5 1007.5313,730.5 Q1006.0313,730.5 1004.8281,729.9063 Q1003.8594,729.4375 1003.1719,728.4219 Q1002.5,727.4063 1002.5,726.2031 L1002.5,725.1094 Q1002.5,723.8594 1003.0938,722.7656 Q1003.7031,721.6719 1004.75,721.0938 Q1005.8125,720.5 1007,720.5 Q1007.7188,720.5 1008.3438,720.75 Q1008.9688,721 1009.5,721.5 Z " fill="#000000"/><text fill="#000000" font-family="sans-serif" font-size="12" lengthAdjust="spacing" textLength="61" x="1024.5" y="729.9102">Notification</text><line style="stroke:#A80036;stroke-width:1.5;" x1="980" x2="1101" y1="741" y2="741"/><line style="stroke:#A80036;stroke-width:1.5;" x1="980" x2="1101" y1="749" y2="749"/><text fill="#000000" font-family="sans-serif" font-size="11" lengthAdjust="spacing" textLength="111" x="985" y="764.4189">+writeToFile(message)</text><!--MD5=[b0a1b9137b50b50b320b426f68562434]
class TS--><rect codeLine="38" fill="#FEFECE" filter="url(#fd9jse1d8rj74)" height="89.5078" id="TS" style="stroke:#A80036;stroke-width:1.5;" width="136" x="494" y="237"/><ellipse cx="531.95" cy="253" fill="#ADD1B2" rx="11" ry="11" style="stroke:#A80036;stroke-width:1.0;"/><path d="M533.95,249.5 Q534.1531,249 534.3875,248.75 Q534.6219,248.5 534.8875,248.5 Q535.3563,248.5 535.6531,248.7813 Q535.95,249.0625 535.95,249.7188 L535.95,251.2813 Q535.95,251.9375 535.6688,252.2188 Q535.3875,252.5 534.95,252.5 Q534.5594,252.5 534.3094,252.3281 Q534.0594,252.1563 533.95,251.7031 Q533.9031,251.3906 533.7313,251.2188 Q533.4188,250.8906 532.8563,250.7031 Q532.2938,250.5 531.7313,250.5 Q531.0281,250.5 530.4344,250.7813 Q529.8563,251.0625 529.4031,251.6875 Q528.95,252.3125 528.95,253.1719 L528.95,254.0938 Q528.95,255.125 529.7938,255.8125 Q530.6375,256.5 532.1375,256.5 Q533.0281,256.5 533.6531,256.2969 Q534.0125,256.1875 534.4188,255.8281 Q534.6844,255.625 534.825,255.5625 Q534.9656,255.5 535.1375,255.5 Q535.4656,255.5 535.7,255.7656 Q535.95,256.0156 535.95,256.375 Q535.95,256.7188 535.6063,257.125 Q535.1063,257.7188 534.3094,258.0469 Q533.2625,258.5 531.9813,258.5 Q530.4813,258.5 529.2781,257.9063 Q528.3094,257.4375 527.6219,256.4219 Q526.95,255.4063 526.95,254.2031 L526.95,253.1094 Q526.95,251.8594 527.5438,250.7656 Q528.1531,249.6719 529.2,249.0938 Q530.2625,248.5 531.45,248.5 Q532.1688,248.5 532.7938,248.75 Q533.4188,249 533.95,249.5 Z " fill="#000000"/><text fill="#000000" font-family="sans-serif" font-size="12" lengthAdjust="spacing" textLength="53" x="551.05" y="257.9102">TestStore</text><line style="stroke:#A80036;stroke-width:1.5;" x1="495" x2="629" y1="269" y2="269"/><text fill="#000000" font-family="sans-serif" font-size="11" lengthAdjust="spacing" textLength="92" x="500" y="284.4189">-List&lt;Test&gt; testList</text><line style="stroke:#A80036;stroke-width:1.5;" x1="495" x2="629" y1="290.8359" y2="290.8359"/><text fill="#000000" font-family="sans-serif" font-size="11" lengthAdjust="spacing" textLength="124" x="500" y="306.2549">+List &lt;Test&gt; getAllTests()</text><text fill="#000000" font-family="sans-serif" font-size="11" lengthAdjust="spacing" textLength="113" x="500" y="320.0908">+boolean validateTest()</text><!--MD5=[5d34c01a8296ea2c0dac42f422676877]
class RS--><rect codeLine="44" fill="#FEFECE" filter="url(#fd9jse1d8rj74)" height="75.6719" id="RS" style="stroke:#A80036;stroke-width:1.5;" width="160" x="482" y="362"/><ellipse cx="524.9" cy="378" fill="#ADD1B2" rx="11" ry="11" style="stroke:#A80036;stroke-width:1.0;"/><path d="M526.9,374.5 Q527.1031,374 527.3375,373.75 Q527.5719,373.5 527.8375,373.5 Q528.3063,373.5 528.6031,373.7813 Q528.9,374.0625 528.9,374.7188 L528.9,376.2813 Q528.9,376.9375 528.6188,377.2188 Q528.3375,377.5 527.9,377.5 Q527.5094,377.5 527.2594,377.3281 Q527.0094,377.1563 526.9,376.7031 Q526.8531,376.3906 526.6813,376.2188 Q526.3688,375.8906 525.8063,375.7031 Q525.2438,375.5 524.6813,375.5 Q523.9781,375.5 523.3844,375.7813 Q522.8063,376.0625 522.3531,376.6875 Q521.9,377.3125 521.9,378.1719 L521.9,379.0938 Q521.9,380.125 522.7438,380.8125 Q523.5875,381.5 525.0875,381.5 Q525.9781,381.5 526.6031,381.2969 Q526.9625,381.1875 527.3688,380.8281 Q527.6344,380.625 527.775,380.5625 Q527.9156,380.5 528.0875,380.5 Q528.4156,380.5 528.65,380.7656 Q528.9,381.0156 528.9,381.375 Q528.9,381.7188 528.5563,382.125 Q528.0563,382.7188 527.2594,383.0469 Q526.2125,383.5 524.9313,383.5 Q523.4313,383.5 522.2281,382.9063 Q521.2594,382.4375 520.5719,381.4219 Q519.9,380.4063 519.9,379.2031 L519.9,378.1094 Q519.9,376.8594 520.4938,375.7656 Q521.1031,374.6719 522.15,374.0938 Q523.2125,373.5 524.4,373.5 Q525.1188,373.5 525.7438,373.75 Q526.3688,374 526.9,374.5 Z " fill="#000000"/><text fill="#000000" font-family="sans-serif" font-size="12" lengthAdjust="spacing" textLength="66" x="545.1" y="382.9102">ReportStore</text><line style="stroke:#A80036;stroke-width:1.5;" x1="483" x2="641" y1="394" y2="394"/><text fill="#000000" font-family="sans-serif" font-size="11" lengthAdjust="spacing" textLength="117" x="488" y="409.4189">-List&lt;Report&gt; ReportList</text><line style="stroke:#A80036;stroke-width:1.5;" x1="483" x2="641" y1="415.8359" y2="415.8359"/><text fill="#000000" font-family="sans-serif" font-size="11" lengthAdjust="spacing" textLength="148" x="488" y="431.2549">+boolean validateReport(code)</text><!--MD5=[e0d42c936ced924a28e0518427c43ea5]
class VTC--><rect codeLine="53" fill="#FEFECE" filter="url(#fd9jse1d8rj74)" height="89.5078" id="VTC" style="stroke:#A80036;stroke-width:1.5;" width="165" x="233" y="285"/><ellipse cx="252.95" cy="301" fill="#ADD1B2" rx="11" ry="11" style="stroke:#A80036;stroke-width:1.0;"/><path d="M254.95,297.5 Q255.1531,297 255.3875,296.75 Q255.6219,296.5 255.8875,296.5 Q256.3563,296.5 256.6531,296.7813 Q256.95,297.0625 256.95,297.7188 L256.95,299.2813 Q256.95,299.9375 256.6688,300.2188 Q256.3875,300.5 255.95,300.5 Q255.5594,300.5 255.3094,300.3281 Q255.0594,300.1563 254.95,299.7031 Q254.9031,299.3906 254.7313,299.2188 Q254.4188,298.8906 253.8563,298.7031 Q253.2938,298.5 252.7313,298.5 Q252.0281,298.5 251.4344,298.7813 Q250.8563,299.0625 250.4031,299.6875 Q249.95,300.3125 249.95,301.1719 L249.95,302.0938 Q249.95,303.125 250.7938,303.8125 Q251.6375,304.5 253.1375,304.5 Q254.0281,304.5 254.6531,304.2969 Q255.0125,304.1875 255.4188,303.8281 Q255.6844,303.625 255.825,303.5625 Q255.9656,303.5 256.1375,303.5 Q256.4656,303.5 256.7,303.7656 Q256.95,304.0156 256.95,304.375 Q256.95,304.7188 256.6063,305.125 Q256.1063,305.7188 255.3094,306.0469 Q254.2625,306.5 252.9813,306.5 Q251.4813,306.5 250.2781,305.9063 Q249.3094,305.4375 248.6219,304.4219 Q247.95,303.4063 247.95,302.2031 L247.95,301.1094 Q247.95,299.8594 248.5438,298.7656 Q249.1531,297.6719 250.2,297.0938 Q251.2625,296.5 252.45,296.5 Q253.1688,296.5 253.7938,296.75 Q254.4188,297 254.95,297.5 Z " fill="#000000"/><text fill="#000000" font-family="sans-serif" font-size="12" lengthAdjust="spacing" textLength="122" x="268.05" y="305.9102">ValidateTestController</text><line style="stroke:#A80036;stroke-width:1.5;" x1="234" x2="397" y1="317" y2="317"/><line style="stroke:#A80036;stroke-width:1.5;" x1="234" x2="397" y1="325" y2="325"/><text fill="#000000" font-family="sans-serif" font-size="11" lengthAdjust="spacing" textLength="120" x="239" y="340.4189">+ValidateTestController()</text><text fill="#000000" font-family="sans-serif" font-size="11" lengthAdjust="spacing" textLength="153" x="239" y="354.2549">+List&lt;TestDto&gt; getAllTestsDto()</text><text fill="#000000" font-family="sans-serif" font-size="11" lengthAdjust="spacing" textLength="113" x="239" y="368.0908">+boolean validateTest()</text><!--MD5=[34b8bb9118ebfeedd29a37b63ba1f816]
class tM--><rect codeLine="66" fill="#FEFECE" filter="url(#fd9jse1d8rj74)" height="61.8359" id="tM" style="stroke:#A80036;stroke-width:1.5;" width="198" x="463" y="86"/><ellipse cx="525.25" cy="102" fill="#ADD1B2" rx="11" ry="11" style="stroke:#A80036;stroke-width:1.0;"/><path d="M527.25,98.5 Q527.4531,98 527.6875,97.75 Q527.9219,97.5 528.1875,97.5 Q528.6563,97.5 528.9531,97.7813 Q529.25,98.0625 529.25,98.7188 L529.25,100.2813 Q529.25,100.9375 528.9688,101.2188 Q528.6875,101.5 528.25,101.5 Q527.8594,101.5 527.6094,101.3281 Q527.3594,101.1563 527.25,100.7031 Q527.2031,100.3906 527.0313,100.2188 Q526.7188,99.8906 526.1563,99.7031 Q525.5938,99.5 525.0313,99.5 Q524.3281,99.5 523.7344,99.7813 Q523.1563,100.0625 522.7031,100.6875 Q522.25,101.3125 522.25,102.1719 L522.25,103.0938 Q522.25,104.125 523.0938,104.8125 Q523.9375,105.5 525.4375,105.5 Q526.3281,105.5 526.9531,105.2969 Q527.3125,105.1875 527.7188,104.8281 Q527.9844,104.625 528.125,104.5625 Q528.2656,104.5 528.4375,104.5 Q528.7656,104.5 529,104.7656 Q529.25,105.0156 529.25,105.375 Q529.25,105.7188 528.9063,106.125 Q528.4063,106.7188 527.6094,107.0469 Q526.5625,107.5 525.2813,107.5 Q523.7813,107.5 522.5781,106.9063 Q521.6094,106.4375 520.9219,105.4219 Q520.25,104.4063 520.25,103.2031 L520.25,102.1094 Q520.25,100.8594 520.8438,99.7656 Q521.4531,98.6719 522.5,98.0938 Q523.5625,97.5 524.75,97.5 Q525.4688,97.5 526.0938,97.75 Q526.7188,98 527.25,98.5 Z " fill="#000000"/><text fill="#000000" font-family="sans-serif" font-size="12" lengthAdjust="spacing" textLength="65" x="545.75" y="106.9102">TestMapper</text><line style="stroke:#A80036;stroke-width:1.5;" x1="464" x2="660" y1="118" y2="118"/><line style="stroke:#A80036;stroke-width:1.5;" x1="464" x2="660" y1="126" y2="126"/><text fill="#000000" font-family="sans-serif" font-size="11" lengthAdjust="spacing" textLength="186" x="469" y="141.4189">+List &lt;TestDto&gt; toDtoLabC(List&lt;Test&gt;)</text><!--MD5=[06b817c767b97587138ec05296e83bc0]
class tDto--><rect codeLine="74" fill="#FEFECE" filter="url(#fd9jse1d8rj74)" height="117.1797" id="tDto" style="stroke:#A80036;stroke-width:1.5;" width="421" x="830" y="113.5"/><ellipse cx="1014.75" cy="129.5" fill="#ADD1B2" rx="11" ry="11" style="stroke:#A80036;stroke-width:1.0;"/><path d="M1016.75,126 Q1016.9531,125.5 1017.1875,125.25 Q1017.4219,125 1017.6875,125 Q1018.1563,125 1018.4531,125.2813 Q1018.75,125.5625 1018.75,126.2188 L1018.75,127.7813 Q1018.75,128.4375 1018.4688,128.7188 Q1018.1875,129 1017.75,129 Q1017.3594,129 1017.1094,128.8281 Q1016.8594,128.6563 1016.75,128.2031 Q1016.7031,127.8906 1016.5313,127.7188 Q1016.2188,127.3906 1015.6563,127.2031 Q1015.0938,127 1014.5313,127 Q1013.8281,127 1013.2344,127.2813 Q1012.6563,127.5625 1012.2031,128.1875 Q1011.75,128.8125 1011.75,129.6719 L1011.75,130.5938 Q1011.75,131.625 1012.5938,132.3125 Q1013.4375,133 1014.9375,133 Q1015.8281,133 1016.4531,132.7969 Q1016.8125,132.6875 1017.2188,132.3281 Q1017.4844,132.125 1017.625,132.0625 Q1017.7656,132 1017.9375,132 Q1018.2656,132 1018.5,132.2656 Q1018.75,132.5156 1018.75,132.875 Q1018.75,133.2188 1018.4063,133.625 Q1017.9063,134.2188 1017.1094,134.5469 Q1016.0625,135 1014.7813,135 Q1013.2813,135 1012.0781,134.4063 Q1011.1094,133.9375 1010.4219,132.9219 Q1009.75,131.9063 1009.75,130.7031 L1009.75,129.6094 Q1009.75,128.3594 1010.3438,127.2656 Q1010.9531,126.1719 1012,125.5938 Q1013.0625,125 1014.25,125 Q1014.9688,125 1015.5938,125.25 Q1016.2188,125.5 1016.75,126 Z " fill="#000000"/><text fill="#000000" font-family="sans-serif" font-size="12" lengthAdjust="spacing" textLength="43" x="1035.25" y="134.4102">TestDto</text><line style="stroke:#A80036;stroke-width:1.5;" x1="831" x2="1250" y1="145.5" y2="145.5"/><line style="stroke:#A80036;stroke-width:1.5;" x1="831" x2="1250" y1="153.5" y2="153.5"/><text fill="#000000" font-family="sans-serif" font-size="11" lengthAdjust="spacing" textLength="409" x="836" y="168.9189">+TestDto(registrationDateTime, chemicalAnalysisDateTime, diagnosisDateTime, code)</text><text fill="#000000" font-family="sans-serif" font-size="11" lengthAdjust="spacing" textLength="133" x="836" y="182.7549">+Date getRegistrationDate()</text><text fill="#000000" font-family="sans-serif" font-size="11" lengthAdjust="spacing" textLength="161" x="836" y="196.5908">+Date getChemicalAnalysisDate()</text><text fill="#000000" font-family="sans-serif" font-size="11" lengthAdjust="spacing" textLength="123" x="836" y="210.4268">+Date getDiagnosisDate()</text><text fill="#000000" font-family="sans-serif" font-size="11" lengthAdjust="spacing" textLength="85" x="836" y="224.2627">+String getCode()</text><!--MD5=[9a8f089cd1561ce4ec56c0b237cdd71f]
class VTUI--><rect codeLine="88" fill="#FEFECE" filter="url(#fd9jse1d8rj74)" height="48" id="VTUI" style="stroke:#A80036;stroke-width:1.5;" width="112" x="32" y="306"/><ellipse cx="47" cy="322" fill="#ADD1B2" rx="11" ry="11" style="stroke:#A80036;stroke-width:1.0;"/><path d="M49,318.5 Q49.2031,318 49.4375,317.75 Q49.6719,317.5 49.9375,317.5 Q50.4063,317.5 50.7031,317.7813 Q51,318.0625 51,318.7188 L51,320.2813 Q51,320.9375 50.7188,321.2188 Q50.4375,321.5 50,321.5 Q49.6094,321.5 49.3594,321.3281 Q49.1094,321.1563 49,320.7031 Q48.9531,320.3906 48.7813,320.2188 Q48.4688,319.8906 47.9063,319.7031 Q47.3438,319.5 46.7813,319.5 Q46.0781,319.5 45.4844,319.7813 Q44.9063,320.0625 44.4531,320.6875 Q44,321.3125 44,322.1719 L44,323.0938 Q44,324.125 44.8438,324.8125 Q45.6875,325.5 47.1875,325.5 Q48.0781,325.5 48.7031,325.2969 Q49.0625,325.1875 49.4688,324.8281 Q49.7344,324.625 49.875,324.5625 Q50.0156,324.5 50.1875,324.5 Q50.5156,324.5 50.75,324.7656 Q51,325.0156 51,325.375 Q51,325.7188 50.6563,326.125 Q50.1563,326.7188 49.3594,327.0469 Q48.3125,327.5 47.0313,327.5 Q45.5313,327.5 44.3281,326.9063 Q43.3594,326.4375 42.6719,325.4219 Q42,324.4063 42,323.2031 L42,322.1094 Q42,320.8594 42.5938,319.7656 Q43.2031,318.6719 44.25,318.0938 Q45.3125,317.5 46.5,317.5 Q47.2188,317.5 47.8438,317.75 Q48.4688,318 49,318.5 Z " fill="#000000"/><text fill="#000000" font-family="sans-serif" font-size="12" lengthAdjust="spacing" textLength="80" x="61" y="326.9102">ValidateTestUI</text><line style="stroke:#A80036;stroke-width:1.5;" x1="33" x2="143" y1="338" y2="338"/><line style="stroke:#A80036;stroke-width:1.5;" x1="33" x2="143" y1="346" y2="346"/><!--MD5=[6e150dedde4c1218bdd2d70b1a6afa35]
link VTUI to VTC--><path codeLine="91" d="M144.16,330 C169.2,330 199.43,330 227.42,330 " fill="none" id="VTUI-to-VTC" style="stroke:#A80036;stroke-width:1.0;stroke-dasharray:7.0,7.0;"/><polygon fill="#A80036" points="232.62,330,223.62,326,227.62,330,223.62,334,232.62,330" style="stroke:#A80036;stroke-width:1.0;"/><!--MD5=[d5fc24fc5738d367467ea53b7c5dadfc]
link C to TS--><path codeLine="93" d="M481.96,514.19 C458.67,493.52 437.57,467.26 430.5,436.5 C423.03,404.01 423.03,393.99 430.5,361.5 C432.44,353.07 432.93,350.16 439,344 C453.16,329.63 471.34,318 489.36,308.86 " fill="none" id="C-to-TS" style="stroke:#A80036;stroke-width:1.0;stroke-dasharray:7.0,7.0;"/><polygon fill="#A80036" points="493.93,306.59,484.0907,307.0246,489.455,308.8203,487.6593,314.1846,493.93,306.59" style="stroke:#A80036;stroke-width:1.0;"/><!--MD5=[3ca4f9a315dc56bb1139649740c27af1]
link C to RS--><path codeLine="94" d="M562,514.45 C562,490.66 562,466.87 562,443.08 " fill="none" id="C-to-RS" style="stroke:#A80036;stroke-width:1.0;stroke-dasharray:7.0,7.0;"/><polygon fill="#A80036" points="562,438,558,447,562,443,566,447,562,438" style="stroke:#A80036;stroke-width:1.0;"/><!--MD5=[eac73315b97dd8eedf47faf1f4811060]
link VTC to C--><path codeLine="95" d="M342.85,375.01 C363.67,408.05 394.98,452.62 430,485 C440.32,494.54 451.92,503.57 463.84,511.91 " fill="none" id="VTC-to-C" style="stroke:#A80036;stroke-width:1.0;stroke-dasharray:7.0,7.0;"/><polygon fill="#A80036" points="468.25,514.95,463.0997,506.5551,464.1298,512.1174,458.5675,513.1474,468.25,514.95" style="stroke:#A80036;stroke-width:1.0;"/><!--MD5=[878438dd79dcafedd24603c31f486646]
link VTC to tM--><path codeLine="96" d="M340.76,284.95 C360.92,251.02 392.33,205.33 430,175 C441.66,165.61 455.08,157.43 468.79,150.41 " fill="none" id="VTC-to-tM" style="stroke:#A80036;stroke-width:1.0;stroke-dasharray:7.0,7.0;"/><polygon fill="#A80036" points="473.45,148.07,463.6107,148.5046,468.975,150.3003,467.1793,155.6646,473.45,148.07" style="stroke:#A80036;stroke-width:1.0;"/><!--MD5=[f4ff3011b7db2cea863ad0c0313bce0d]
link VTC to tDto--><path codeLine="97" d="M353.94,284.86 C376.07,261.52 406.15,235.05 439,221 C506.6,192.08 681.04,180.14 824.6,175.26 " fill="none" id="VTC-to-tDto" style="stroke:#A80036;stroke-width:1.0;stroke-dasharray:7.0,7.0;"/><polygon fill="#A80036" points="829.7,175.09,820.5682,171.4007,824.7029,175.2613,820.8423,179.396,829.7,175.09" style="stroke:#A80036;stroke-width:1.0;"/><!--MD5=[190a8683387f98e76a1f9347759bf883]
link VTC to N--><path codeLine="98" d="M349.22,375.14 C371.43,402.35 403.21,435.26 439,454 C585.22,530.55 705.09,412.58 798,549 C815.79,575.12 785.4,667.03 806,691 C846.61,738.24 920.1,746.88 973.81,745.98 " fill="none" id="VTC-to-N" style="stroke:#A80036;stroke-width:1.0;stroke-dasharray:7.0,7.0;"/><polygon fill="#A80036" points="978.95,745.86,969.8609,742.0667,973.9513,745.9743,970.0438,750.0646,978.95,745.86" style="stroke:#A80036;stroke-width:1.0;"/><!--MD5=[0b037e5f89e300193b3080f69ffc7684]
link TS to T--><path codeLine="100" d="M630.11,313.92 C648.21,323.12 667.6,333.52 685,344 C779.24,400.77 881.37,474.16 951.69,526.72 " fill="none" id="TS-to-T" style="stroke:#A80036;stroke-width:1.0;stroke-dasharray:7.0,7.0;"/><polygon fill="#A80036" points="955.85,529.83,951.05,521.23,951.85,526.83,946.25,527.63,955.85,529.83" style="stroke:#A80036;stroke-width:1.0;"/><!--MD5=[f9daeeff800a5106e842a57bb30d48b6]
link tM to tDto--><path codeLine="101" d="M661.15,128.33 C708.62,133.81 767.6,140.62 824.76,147.21 " fill="none" id="tM-to-tDto" style="stroke:#A80036;stroke-width:1.0;stroke-dasharray:7.0,7.0;"/><polygon fill="#A80036" points="829.93,147.81,821.4456,142.8084,824.9627,147.239,820.5321,150.7561,829.93,147.81" style="stroke:#A80036;stroke-width:1.0;"/><!--MD5=[281a59200fe523f79922830c877c9cf1]
link C to T--><path codeLine="103" d="M655.72,571.45 C742.77,576.56 871.82,584.15 955.8,589.08 " fill="none" id="C-T" style="stroke:#A80036;stroke-width:1.0;"/><polygon fill="#000000" points="722.9914,566.469,714.1342,563.0047,713.7895,568.8724,722.9914,566.469" style="stroke:#000000;stroke-width:1.0;"/><text fill="#000000" font-family="sans-serif" font-size="13" lengthAdjust="spacing" textLength="50" x="727" y="571.4951">performs</text><text fill="#000000" font-family="sans-serif" font-size="13" lengthAdjust="spacing" textLength="7" x="663.4672" y="586.0172">1</text><text fill="#000000" font-family="sans-serif" font-size="13" lengthAdjust="spacing" textLength="5" x="943.0337" y="602.879">*</text><!--MD5=[d79f796b7193e7ca26e46655b3a51e19]
link RS to R--><path codeLine="105" d="M481.77,434.26 C466.31,443.34 451.17,454.25 439,467 C415.87,491.23 422.99,584.85 430.5,617.5 C437.39,647.46 464.57,666.74 492.44,678.9 " fill="none" id="RS-to-R" style="stroke:#A80036;stroke-width:1.0;stroke-dasharray:7.0,7.0;"/><polygon fill="#A80036" points="497.28,680.93,490.5186,673.7687,492.6667,679.0019,487.4336,681.15,497.28,680.93" style="stroke:#A80036;stroke-width:1.0;"/><!--MD5=[b6d05c8ba1925f463401f0316ca5edcc]
link R to T--><path codeLine="106" d="M626.77,684.08 C711.6,665.57 861.75,632.8 955.67,612.3 " fill="none" id="R-T" style="stroke:#A80036;stroke-width:1.0;"/><polygon fill="#000000" points="702.885,640.1097,693.4213,639.1669,694.6746,644.9096,702.885,640.1097" style="stroke:#000000;stroke-width:1.0;"/><text fill="#000000" font-family="sans-serif" font-size="13" lengthAdjust="spacing" textLength="90" x="707" y="646.4951">associated with</text><text fill="#000000" font-family="sans-serif" font-size="13" lengthAdjust="spacing" textLength="7" x="634.6637" y="696.9394">1</text><text fill="#000000" font-family="sans-serif" font-size="13" lengthAdjust="spacing" textLength="7" x="941.0791" y="628.0838">1</text><!--MD5=[d0dc5803637187dcce575693335d8dcd]
link R to N--><path codeLine="107" d="M626.77,703.62 C718.95,711.75 888.28,726.67 978.74,734.64 " fill="none" id="R-N" style="stroke:#A80036;stroke-width:1.0;"/><polygon fill="#000000" points="702.9807,702.6147,694.2285,698.8931,693.7125,704.7482,702.9807,702.6147" style="stroke:#000000;stroke-width:1.0;"/><text fill="#000000" font-family="sans-serif" font-size="13" lengthAdjust="spacing" textLength="90" x="707" y="707.4951">associated with</text><text fill="#000000" font-family="sans-serif" font-size="13" lengthAdjust="spacing" textLength="7" x="634.6637" y="718.7387">1</text><text fill="#000000" font-family="sans-serif" font-size="13" lengthAdjust="spacing" textLength="7" x="964.1943" y="748.4702">1</text><!--MD5=[a0a3bd854c1855ec15a7be3a8bd3c307]
@startuml
skinparam classAttributeIconSize 0
left to right direction

package Core{

package Domain{
class "Company" as C {
-String designation
+TestStore getTestStore()
+ReportStore getReportStore()
+Notification getNotificationService()
}

class "Test" as T {
-Date registrationDateTime
-Date collectDateTime
-Date chemicalAnalysisDateTime
-Date diagnosisDateTime
-Date validationDateTime
+String getStatus()
+updateValidationDateTime()
+updateTestStatus()
}

class "Report" as R{
-boolean validation
+boolean getValidation()
+ setValidation()
}

class "Notification" as N{
+ writeToFile(message)
}

}

package Stores{
class "TestStore" as TS{
-List<Test> testList
+List <Test> getAllTests()
+boolean validateTest()
}

class "ReportStore" as RS{
-List<Report> ReportList
+boolean validateReport(code)
}
}



package Controllers{
class "ValidateTestController" as VTC {
+ValidateTestController()
+List<TestDto> getAllTestsDto()
+boolean validateTest()
}





}

package Mappers{
class "TestMapper" as tM{
+List <TestDto> toDtoLabC(List<Test>)
}

}


package Dto{
class "TestDto" as tDto{
+TestDto(registrationDateTime, chemicalAnalysisDateTime, diagnosisDateTime, code)
+Date getRegistrationDate()
+Date getChemicalAnalysisDate()
+Date getDiagnosisDate()
+String getCode()
}



}

}
package UI{
class "ValidateTestUI" as VTUI
}

VTUI ..> VTC

C ..> TS
C ..> RS
VTC ..> C
VTC ..> tM
VTC ..> tDto
VTC ..> N

TS ..> T
tM ..> tDto

C "1" - - "*" T : > performs

RS ..> R
R "1" - - "1" T : > associated with
R "1" - - "1" N : > associated with

@enduml

PlantUML version 1.2021.5(Sun Apr 25 12:20:28 BST 2021)
(GPL source distribution)
Java Runtime: OpenJDK Runtime Environment
JVM: OpenJDK 64-Bit Server VM
Default Encoding: Cp1252
Language: pt
Country: PT
--></g></svg>