<?xml version="1.0" encoding="UTF-8" standalone="no"?><svg xmlns="http://www.w3.org/2000/svg" xmlns:xlink="http://www.w3.org/1999/xlink" contentScriptType="application/ecmascript" contentStyleType="text/css" height="1350px" preserveAspectRatio="none" style="width:2484px;height:1350px;" version="1.1" viewBox="0 0 2484 1350" width="2484px" zoomAndPan="magnify"><defs><filter height="300%" id="faqtpcr7vatzf" width="300%" x="-1" y="-1"><feGaussianBlur result="blurOut" stdDeviation="2.0"/><feColorMatrix in="blurOut" result="blurOut2" type="matrix" values="0 0 0 0 0 0 0 0 0 0 0 0 0 0 0 0 0 0 .4 0"/><feOffset dx="4.0" dy="4.0" in="blurOut2" result="blurOut3"/><feBlend in="SourceGraphic" in2="blurOut3" mode="normal"/></filter></defs><g><rect fill="#FFFFFF" filter="url(#faqtpcr7vatzf)" height="1156.1406" style="stroke:#A80036;stroke-width:1.0;" width="10" x="100" y="99.6094"/><rect fill="#FFFFFF" filter="url(#faqtpcr7vatzf)" height="241.7578" style="stroke:#A80036;stroke-width:1.0;" width="10" x="768" y="121.9609"/><rect fill="#FFFFFF" filter="url(#faqtpcr7vatzf)" height="211.4063" style="stroke:#A80036;stroke-width:1.0;" width="10" x="768" y="419.4219"/><rect fill="#FFFFFF" filter="url(#faqtpcr7vatzf)" height="30.3516" style="stroke:#A80036;stroke-width:1.0;" width="10" x="768" y="718.8828"/><rect fill="#FFFFFF" filter="url(#faqtpcr7vatzf)" height="460.1641" style="stroke:#A80036;stroke-width:1.0;" width="10" x="768" y="779.5859"/><rect fill="#FFFFFF" filter="url(#faqtpcr7vatzf)" height="181.0547" style="stroke:#A80036;stroke-width:1.0;" width="10" x="987" y="152.3125"/><rect fill="#FFFFFF" filter="url(#faqtpcr7vatzf)" height="332.1094" style="stroke:#A80036;stroke-width:1.0;" width="10" x="987" y="877.2891"/><rect fill="#FFFFFF" filter="url(#faqtpcr7vatzf)" height="30" style="stroke:#A80036;stroke-width:1.0;" width="10" x="1274" y="182.6641"/><rect fill="#FFFFFF" filter="url(#faqtpcr7vatzf)" height="30" style="stroke:#A80036;stroke-width:1.0;" width="10" x="1274" y="1119.0469"/><rect fill="#FFFFFF" filter="url(#faqtpcr7vatzf)" height="30" style="stroke:#A80036;stroke-width:1.0;" width="10" x="1385" y="243.0156"/><rect fill="#FFFFFF" filter="url(#faqtpcr7vatzf)" height="120.7031" style="stroke:#A80036;stroke-width:1.0;" width="10" x="1385" y="967.9922"/><rect fill="#FFFFFF" filter="url(#faqtpcr7vatzf)" height="30" style="stroke:#A80036;stroke-width:1.0;" width="10" x="1502" y="303.3672"/><rect fill="#FFFFFF" filter="url(#faqtpcr7vatzf)" height="30" style="stroke:#A80036;stroke-width:1.0;" width="10" x="1619.5" y="449.7734"/><rect fill="#FFFFFF" filter="url(#faqtpcr7vatzf)" height="30" style="stroke:#A80036;stroke-width:1.0;" width="10" x="1619.5" y="510.125"/><rect fill="#FFFFFF" filter="url(#faqtpcr7vatzf)" height="30" style="stroke:#A80036;stroke-width:1.0;" width="10" x="1619.5" y="570.4766"/><rect fill="#FFFFFF" filter="url(#faqtpcr7vatzf)" height="30" style="stroke:#A80036;stroke-width:1.0;" width="10" x="1619.5" y="816.9375"/><rect fill="#FFFFFF" filter="url(#faqtpcr7vatzf)" height="30" style="stroke:#A80036;stroke-width:1.0;" width="10" x="1755.5" y="907.6406"/><rect fill="#FFFFFF" filter="url(#faqtpcr7vatzf)" height="30" style="stroke:#A80036;stroke-width:1.0;" width="10" x="2270.5" y="1179.3984"/><rect fill="#FFFFFF" filter="url(#faqtpcr7vatzf)" height="30" style="stroke:#A80036;stroke-width:1.0;" width="10" x="2416.5" y="998.3438"/><rect fill="#FFFFFF" filter="url(#faqtpcr7vatzf)" height="30" style="stroke:#A80036;stroke-width:1.0;" width="10" x="2416.5" y="1058.6953"/><rect fill="#FFFFFF" filter="url(#faqtpcr7vatzf)" height="260.1094" style="stroke:#000000;stroke-width:2.0;" width="1675" x="20" y="378.7188"/><rect fill="#FFFFFF" filter="url(#faqtpcr7vatzf)" height="594.9219" style="stroke:#000000;stroke-width:2.0;" width="2460" x="10" y="652.8281"/><rect fill="#FFFFFF" filter="url(#faqtpcr7vatzf)" height="109.4063" style="stroke:#000000;stroke-width:2.0;" width="819.5" x="20" y="678.1797"/><line style="stroke:#A80036;stroke-width:1.0;stroke-dasharray:5.0,5.0;" x1="105" x2="105" y1="89.6094" y2="1264.75"/><line style="stroke:#A80036;stroke-width:1.0;stroke-dasharray:5.0,5.0;" x1="772.5" x2="772.5" y1="89.6094" y2="1264.75"/><line style="stroke:#A80036;stroke-width:1.0;stroke-dasharray:5.0,5.0;" x1="991.5" x2="991.5" y1="89.6094" y2="1264.75"/><line style="stroke:#A80036;stroke-width:1.0;stroke-dasharray:5.0,5.0;" x1="1279" x2="1279" y1="89.6094" y2="1264.75"/><line style="stroke:#A80036;stroke-width:1.0;stroke-dasharray:5.0,5.0;" x1="1390" x2="1390" y1="89.6094" y2="1264.75"/><line style="stroke:#A80036;stroke-width:1.0;stroke-dasharray:5.0,5.0;" x1="1507" x2="1507" y1="89.6094" y2="1264.75"/><line style="stroke:#A80036;stroke-width:1.0;stroke-dasharray:5.0,5.0;" x1="1624" x2="1624" y1="89.6094" y2="1264.75"/><line style="stroke:#A80036;stroke-width:1.0;stroke-dasharray:5.0,5.0;" x1="1760" x2="1760" y1="89.6094" y2="1264.75"/><line style="stroke:#A80036;stroke-width:1.0;stroke-dasharray:5.0,5.0;" x1="1905" x2="1905" y1="89.6094" y2="1264.75"/><line style="stroke:#A80036;stroke-width:1.0;stroke-dasharray:5.0,5.0;" x1="2076" x2="2076" y1="89.6094" y2="1264.75"/><line style="stroke:#A80036;stroke-width:1.0;stroke-dasharray:5.0,5.0;" x1="2275" x2="2275" y1="89.6094" y2="1264.75"/><line style="stroke:#A80036;stroke-width:1.0;stroke-dasharray:5.0,5.0;" x1="2421" x2="2421" y1="89.6094" y2="1264.75"/><text fill="#000000" font-family="sans-serif" font-size="14" lengthAdjust="spacing" textLength="144" x="30" y="86.5332">LaboratoryCoordinator</text><ellipse cx="105" cy="15" fill="#FEFECE" filter="url(#faqtpcr7vatzf)" rx="8" ry="8" style="stroke:#A80036;stroke-width:2.0;"/><path d="M105,23 L105,50 M92,31 L118,31 M105,50 L92,65 M105,50 L118,65 " fill="none" filter="url(#faqtpcr7vatzf)" style="stroke:#A80036;stroke-width:2.0;"/><text fill="#000000" font-family="sans-serif" font-size="14" lengthAdjust="spacing" textLength="144" x="30" y="1278.2832">LaboratoryCoordinator</text><ellipse cx="105" cy="1291.3594" fill="#FEFECE" filter="url(#faqtpcr7vatzf)" rx="8" ry="8" style="stroke:#A80036;stroke-width:2.0;"/><path d="M105,1299.3594 L105,1326.3594 M92,1307.3594 L118,1307.3594 M105,1326.3594 L92,1341.3594 M105,1326.3594 L118,1341.3594 " fill="none" filter="url(#faqtpcr7vatzf)" style="stroke:#A80036;stroke-width:2.0;"/><rect fill="#FEFECE" filter="url(#faqtpcr7vatzf)" height="31.6094" style="stroke:#A80036;stroke-width:1.5;" width="109" x="716.5" y="53"/><text fill="#000000" font-family="sans-serif" font-size="14" lengthAdjust="spacing" textLength="95" x="723.5" y="74.5332">:ValidateTestUI</text><rect fill="#FEFECE" filter="url(#faqtpcr7vatzf)" height="31.6094" style="stroke:#A80036;stroke-width:1.5;" width="109" x="716.5" y="1263.75"/><text fill="#000000" font-family="sans-serif" font-size="14" lengthAdjust="spacing" textLength="95" x="723.5" y="1285.2832">:ValidateTestUI</text><rect fill="#FEFECE" filter="url(#faqtpcr7vatzf)" height="31.6094" style="stroke:#A80036;stroke-width:1.5;" width="159" x="910.5" y="53"/><text fill="#000000" font-family="sans-serif" font-size="14" lengthAdjust="spacing" textLength="145" x="917.5" y="74.5332">:ValidateTestController</text><rect fill="#FEFECE" filter="url(#faqtpcr7vatzf)" height="31.6094" style="stroke:#A80036;stroke-width:1.5;" width="159" x="910.5" y="1263.75"/><text fill="#000000" font-family="sans-serif" font-size="14" lengthAdjust="spacing" textLength="145" x="917.5" y="1285.2832">:ValidateTestController</text><rect fill="#FEFECE" filter="url(#faqtpcr7vatzf)" height="31.6094" style="stroke:#A80036;stroke-width:1.5;" width="78" x="1238" y="53"/><text fill="#000000" font-family="sans-serif" font-size="14" lengthAdjust="spacing" textLength="64" x="1245" y="74.5332">:Company</text><rect fill="#FEFECE" filter="url(#faqtpcr7vatzf)" height="31.6094" style="stroke:#A80036;stroke-width:1.5;" width="78" x="1238" y="1263.75"/><text fill="#000000" font-family="sans-serif" font-size="14" lengthAdjust="spacing" textLength="64" x="1245" y="1285.2832">:Company</text><rect fill="#FEFECE" filter="url(#faqtpcr7vatzf)" height="31.6094" style="stroke:#A80036;stroke-width:1.5;" width="116" x="1330" y="53"/><text fill="#000000" font-family="sans-serif" font-size="14" lengthAdjust="spacing" textLength="102" x="1337" y="74.5332">store: TestStore</text><rect fill="#FEFECE" filter="url(#faqtpcr7vatzf)" height="31.6094" style="stroke:#A80036;stroke-width:1.5;" width="116" x="1330" y="1263.75"/><text fill="#000000" font-family="sans-serif" font-size="14" lengthAdjust="spacing" textLength="102" x="1337" y="1285.2832">store: TestStore</text><rect fill="#FEFECE" filter="url(#faqtpcr7vatzf)" height="31.6094" style="stroke:#A80036;stroke-width:1.5;" width="90" x="1460" y="53"/><text fill="#000000" font-family="sans-serif" font-size="14" lengthAdjust="spacing" textLength="76" x="1467" y="74.5332">TestMapper</text><rect fill="#FEFECE" filter="url(#faqtpcr7vatzf)" height="31.6094" style="stroke:#A80036;stroke-width:1.5;" width="90" x="1460" y="1263.75"/><text fill="#000000" font-family="sans-serif" font-size="14" lengthAdjust="spacing" textLength="76" x="1467" y="1285.2832">TestMapper</text><rect fill="#FEFECE" filter="url(#faqtpcr7vatzf)" height="31.6094" style="stroke:#A80036;stroke-width:1.5;" width="117" x="1564" y="53"/><text fill="#000000" font-family="sans-serif" font-size="14" lengthAdjust="spacing" textLength="103" x="1571" y="74.5332">testDto: TestDto</text><rect fill="#FEFECE" filter="url(#faqtpcr7vatzf)" height="31.6094" style="stroke:#A80036;stroke-width:1.5;" width="117" x="1564" y="1263.75"/><text fill="#000000" font-family="sans-serif" font-size="14" lengthAdjust="spacing" textLength="103" x="1571" y="1285.2832">testDto: TestDto</text><rect fill="#FEFECE" filter="url(#faqtpcr7vatzf)" height="31.6094" style="stroke:#A80036;stroke-width:1.5;" width="127" x="1695" y="53"/><text fill="#000000" font-family="sans-serif" font-size="14" lengthAdjust="spacing" textLength="113" x="1702" y="74.5332">store:ReportStore</text><rect fill="#FEFECE" filter="url(#faqtpcr7vatzf)" height="31.6094" style="stroke:#A80036;stroke-width:1.5;" width="127" x="1695" y="1263.75"/><text fill="#000000" font-family="sans-serif" font-size="14" lengthAdjust="spacing" textLength="113" x="1702" y="1285.2832">store:ReportStore</text><rect fill="#FEFECE" filter="url(#faqtpcr7vatzf)" height="31.6094" style="stroke:#A80036;stroke-width:1.5;" width="135" x="1836" y="53"/><text fill="#000000" font-family="sans-serif" font-size="14" lengthAdjust="spacing" textLength="121" x="1843" y="74.5332">testsList: list&lt;Test&gt;</text><rect fill="#FEFECE" filter="url(#faqtpcr7vatzf)" height="31.6094" style="stroke:#A80036;stroke-width:1.5;" width="135" x="1836" y="1263.75"/><text fill="#000000" font-family="sans-serif" font-size="14" lengthAdjust="spacing" textLength="121" x="1843" y="1285.2832">testsList: list&lt;Test&gt;</text><rect fill="#FEFECE" filter="url(#faqtpcr7vatzf)" height="31.6094" style="stroke:#A80036;stroke-width:1.5;" width="179" x="1985" y="53"/><text fill="#000000" font-family="sans-serif" font-size="14" lengthAdjust="spacing" textLength="165" x="1992" y="74.5332">testsListDto: list&lt;TestDto&gt;</text><rect fill="#FEFECE" filter="url(#faqtpcr7vatzf)" height="31.6094" style="stroke:#A80036;stroke-width:1.5;" width="179" x="1985" y="1263.75"/><text fill="#000000" font-family="sans-serif" font-size="14" lengthAdjust="spacing" textLength="165" x="1992" y="1285.2832">testsListDto: list&lt;TestDto&gt;</text><rect fill="#FEFECE" filter="url(#faqtpcr7vatzf)" height="31.6094" style="stroke:#A80036;stroke-width:1.5;" width="191" x="2178" y="53"/><text fill="#000000" font-family="sans-serif" font-size="14" lengthAdjust="spacing" textLength="177" x="2185" y="74.5332">sendNotification: Notification</text><rect fill="#FEFECE" filter="url(#faqtpcr7vatzf)" height="31.6094" style="stroke:#A80036;stroke-width:1.5;" width="191" x="2178" y="1263.75"/><text fill="#000000" font-family="sans-serif" font-size="14" lengthAdjust="spacing" textLength="177" x="2185" y="1285.2832">sendNotification: Notification</text><rect fill="#FEFECE" filter="url(#faqtpcr7vatzf)" height="31.6094" style="stroke:#A80036;stroke-width:1.5;" width="73" x="2383" y="53"/><text fill="#000000" font-family="sans-serif" font-size="14" lengthAdjust="spacing" textLength="59" x="2390" y="74.5332">test: Test</text><rect fill="#FEFECE" filter="url(#faqtpcr7vatzf)" height="31.6094" style="stroke:#A80036;stroke-width:1.5;" width="73" x="2383" y="1263.75"/><text fill="#000000" font-family="sans-serif" font-size="14" lengthAdjust="spacing" textLength="59" x="2390" y="1285.2832">test: Test</text><rect fill="#FFFFFF" filter="url(#faqtpcr7vatzf)" height="1156.1406" style="stroke:#A80036;stroke-width:1.0;" width="10" x="100" y="99.6094"/><rect fill="#FFFFFF" filter="url(#faqtpcr7vatzf)" height="241.7578" style="stroke:#A80036;stroke-width:1.0;" width="10" x="768" y="121.9609"/><rect fill="#FFFFFF" filter="url(#faqtpcr7vatzf)" height="211.4063" style="stroke:#A80036;stroke-width:1.0;" width="10" x="768" y="419.4219"/><rect fill="#FFFFFF" filter="url(#faqtpcr7vatzf)" height="30.3516" style="stroke:#A80036;stroke-width:1.0;" width="10" x="768" y="718.8828"/><rect fill="#FFFFFF" filter="url(#faqtpcr7vatzf)" height="460.1641" style="stroke:#A80036;stroke-width:1.0;" width="10" x="768" y="779.5859"/><rect fill="#FFFFFF" filter="url(#faqtpcr7vatzf)" height="181.0547" style="stroke:#A80036;stroke-width:1.0;" width="10" x="987" y="152.3125"/><rect fill="#FFFFFF" filter="url(#faqtpcr7vatzf)" height="332.1094" style="stroke:#A80036;stroke-width:1.0;" width="10" x="987" y="877.2891"/><rect fill="#FFFFFF" filter="url(#faqtpcr7vatzf)" height="30" style="stroke:#A80036;stroke-width:1.0;" width="10" x="1274" y="182.6641"/><rect fill="#FFFFFF" filter="url(#faqtpcr7vatzf)" height="30" style="stroke:#A80036;stroke-width:1.0;" width="10" x="1274" y="1119.0469"/><rect fill="#FFFFFF" filter="url(#faqtpcr7vatzf)" height="30" style="stroke:#A80036;stroke-width:1.0;" width="10" x="1385" y="243.0156"/><rect fill="#FFFFFF" filter="url(#faqtpcr7vatzf)" height="120.7031" style="stroke:#A80036;stroke-width:1.0;" width="10" x="1385" y="967.9922"/><rect fill="#FFFFFF" filter="url(#faqtpcr7vatzf)" height="30" style="stroke:#A80036;stroke-width:1.0;" width="10" x="1502" y="303.3672"/><rect fill="#FFFFFF" filter="url(#faqtpcr7vatzf)" height="30" style="stroke:#A80036;stroke-width:1.0;" width="10" x="1619.5" y="449.7734"/><rect fill="#FFFFFF" filter="url(#faqtpcr7vatzf)" height="30" style="stroke:#A80036;stroke-width:1.0;" width="10" x="1619.5" y="510.125"/><rect fill="#FFFFFF" filter="url(#faqtpcr7vatzf)" height="30" style="stroke:#A80036;stroke-width:1.0;" width="10" x="1619.5" y="570.4766"/><rect fill="#FFFFFF" filter="url(#faqtpcr7vatzf)" height="30" style="stroke:#A80036;stroke-width:1.0;" width="10" x="1619.5" y="816.9375"/><rect fill="#FFFFFF" filter="url(#faqtpcr7vatzf)" height="30" style="stroke:#A80036;stroke-width:1.0;" width="10" x="1755.5" y="907.6406"/><rect fill="#FFFFFF" filter="url(#faqtpcr7vatzf)" height="30" style="stroke:#A80036;stroke-width:1.0;" width="10" x="2270.5" y="1179.3984"/><rect fill="#FFFFFF" filter="url(#faqtpcr7vatzf)" height="30" style="stroke:#A80036;stroke-width:1.0;" width="10" x="2416.5" y="998.3438"/><rect fill="#FFFFFF" filter="url(#faqtpcr7vatzf)" height="30" style="stroke:#A80036;stroke-width:1.0;" width="10" x="2416.5" y="1058.6953"/><polygon fill="#A80036" points="756,117.9609,766,121.9609,756,125.9609,760,121.9609" style="stroke:#A80036;stroke-width:1.0;"/><line style="stroke:#A80036;stroke-width:1.0;" x1="110" x2="762" y1="121.9609" y2="121.9609"/><text fill="#000000" font-family="sans-serif" font-size="13" font-weight="bold" lengthAdjust="spacing" textLength="7" x="117" y="117.1045">1</text><text fill="#000000" font-family="sans-serif" font-size="13" lengthAdjust="spacing" textLength="185" x="128" y="117.1045">validate a Test Result/Diagnosis</text><polygon fill="#A80036" points="975,148.3125,985,152.3125,975,156.3125,979,152.3125" style="stroke:#A80036;stroke-width:1.0;"/><line style="stroke:#A80036;stroke-width:1.0;" x1="778" x2="981" y1="152.3125" y2="152.3125"/><text fill="#000000" font-family="sans-serif" font-size="13" font-weight="bold" lengthAdjust="spacing" textLength="7" x="785" y="147.4561">2</text><text fill="#000000" font-family="sans-serif" font-size="13" lengthAdjust="spacing" textLength="179" x="796" y="147.4561">testsListDto = getAllTestsDto()</text><polygon fill="#A80036" points="1262,178.6641,1272,182.6641,1262,186.6641,1266,182.6641" style="stroke:#A80036;stroke-width:1.0;"/><line style="stroke:#A80036;stroke-width:1.0;" x1="997" x2="1268" y1="182.6641" y2="182.6641"/><text fill="#000000" font-family="sans-serif" font-size="13" font-weight="bold" lengthAdjust="spacing" textLength="7" x="1004" y="177.8076">3</text><text fill="#000000" font-family="sans-serif" font-size="13" lengthAdjust="spacing" textLength="214" x="1015" y="177.8076">store = getParameterCategoryStore()</text><polygon fill="#A80036" points="1373,239.0156,1383,243.0156,1373,247.0156,1377,243.0156" style="stroke:#A80036;stroke-width:1.0;"/><line style="stroke:#A80036;stroke-width:1.0;" x1="997" x2="1379" y1="243.0156" y2="243.0156"/><text fill="#000000" font-family="sans-serif" font-size="13" font-weight="bold" lengthAdjust="spacing" textLength="7" x="1004" y="238.1592">4</text><text fill="#000000" font-family="sans-serif" font-size="13" lengthAdjust="spacing" textLength="139" x="1015" y="238.1592">testsList = getAllTests()</text><polygon fill="#A80036" points="1490,299.3672,1500,303.3672,1490,307.3672,1494,303.3672" style="stroke:#A80036;stroke-width:1.0;"/><line style="stroke:#A80036;stroke-width:1.0;" x1="997" x2="1496" y1="303.3672" y2="303.3672"/><text fill="#000000" font-family="sans-serif" font-size="13" font-weight="bold" lengthAdjust="spacing" textLength="7" x="1004" y="298.5107">5</text><text fill="#000000" font-family="sans-serif" font-size="13" lengthAdjust="spacing" textLength="175" x="1015" y="298.5107">testsListDto = toDto(testsList)</text><polygon fill="#A80036" points="121,359.7188,111,363.7188,121,367.7188,117,363.7188" style="stroke:#A80036;stroke-width:1.0;"/><line style="stroke:#A80036;stroke-width:1.0;stroke-dasharray:2.0,2.0;" x1="115" x2="772" y1="363.7188" y2="363.7188"/><text fill="#000000" font-family="sans-serif" font-size="13" font-weight="bold" lengthAdjust="spacing" textLength="7" x="127" y="358.8623">6</text><text fill="#000000" font-family="sans-serif" font-size="13" lengthAdjust="spacing" textLength="203" x="138" y="358.8623">shows a list of to-be validated tests</text><path d="M20,378.7188 L93,378.7188 L93,386.7188 L83,396.7188 L20,396.7188 L20,378.7188 " fill="#EEEEEE" style="stroke:#000000;stroke-width:1.0;"/><rect fill="none" height="260.1094" style="stroke:#000000;stroke-width:2.0;" width="1675" x="20" y="378.7188"/><text fill="#000000" font-family="sans-serif" font-size="13" font-weight="bold" lengthAdjust="spacing" textLength="28" x="35" y="393.2139">loop</text><text fill="#000000" font-family="sans-serif" font-size="11" font-weight="bold" lengthAdjust="spacing" textLength="320" x="108" y="392.1377">[for how many tests the Laboratory Coordinator chooses]</text><polygon fill="#A80036" points="756,415.4219,766,419.4219,756,423.4219,760,419.4219" style="stroke:#A80036;stroke-width:1.0;"/><line style="stroke:#A80036;stroke-width:1.0;" x1="110" x2="762" y1="419.4219" y2="419.4219"/><text fill="#000000" font-family="sans-serif" font-size="13" font-weight="bold" lengthAdjust="spacing" textLength="7" x="117" y="414.5654">7</text><text fill="#000000" font-family="sans-serif" font-size="13" lengthAdjust="spacing" textLength="151" x="128" y="414.5654">selects a test from the list</text><polygon fill="#A80036" points="1607.5,445.7734,1617.5,449.7734,1607.5,453.7734,1611.5,449.7734" style="stroke:#A80036;stroke-width:1.0;"/><line style="stroke:#A80036;stroke-width:1.0;" x1="778" x2="1613.5" y1="449.7734" y2="449.7734"/><text fill="#000000" font-family="sans-serif" font-size="13" font-weight="bold" lengthAdjust="spacing" textLength="7" x="785" y="444.917">8</text><text fill="#000000" font-family="sans-serif" font-size="13" lengthAdjust="spacing" textLength="229" x="796" y="444.917">registrationDate = getRegistrationDate()</text><polygon fill="#A80036" points="1607.5,506.125,1617.5,510.125,1607.5,514.125,1611.5,510.125" style="stroke:#A80036;stroke-width:1.0;"/><line style="stroke:#A80036;stroke-width:1.0;" x1="778" x2="1613.5" y1="510.125" y2="510.125"/><text fill="#000000" font-family="sans-serif" font-size="13" font-weight="bold" lengthAdjust="spacing" textLength="7" x="785" y="505.2686">9</text><text fill="#000000" font-family="sans-serif" font-size="13" lengthAdjust="spacing" textLength="262" x="796" y="505.2686">chemAnalysisDate = getChemAnalysisDate()</text><polygon fill="#A80036" points="1607.5,566.4766,1617.5,570.4766,1607.5,574.4766,1611.5,570.4766" style="stroke:#A80036;stroke-width:1.0;"/><line style="stroke:#A80036;stroke-width:1.0;" x1="778" x2="1613.5" y1="570.4766" y2="570.4766"/><text fill="#000000" font-family="sans-serif" font-size="13" font-weight="bold" lengthAdjust="spacing" textLength="14" x="785" y="565.6201">10</text><text fill="#000000" font-family="sans-serif" font-size="13" lengthAdjust="spacing" textLength="208" x="803" y="565.6201">diagnosisDate = getDiagnosisDate()</text><polygon fill="#A80036" points="121,626.8281,111,630.8281,121,634.8281,117,630.8281" style="stroke:#A80036;stroke-width:1.0;"/><line style="stroke:#A80036;stroke-width:1.0;stroke-dasharray:2.0,2.0;" x1="115" x2="772" y1="630.8281" y2="630.8281"/><text fill="#000000" font-family="sans-serif" font-size="13" font-weight="bold" lengthAdjust="spacing" textLength="14" x="127" y="625.9717">11</text><text fill="#000000" font-family="sans-serif" font-size="13" lengthAdjust="spacing" textLength="616" x="145" y="625.9717">displays its data (registration date, chemical analysis date, diagnosis date) and request to chose if its valid</text><path d="M10,652.8281 L83,652.8281 L83,660.8281 L73,670.8281 L10,670.8281 L10,652.8281 " fill="#EEEEEE" style="stroke:#000000;stroke-width:1.0;"/><rect fill="none" height="594.9219" style="stroke:#000000;stroke-width:2.0;" width="2460" x="10" y="652.8281"/><text fill="#000000" font-family="sans-serif" font-size="13" font-weight="bold" lengthAdjust="spacing" textLength="28" x="25" y="667.3232">loop</text><text fill="#000000" font-family="sans-serif" font-size="11" font-weight="bold" lengthAdjust="spacing" textLength="122" x="98" y="666.2471">[for each chosen test]</text><path d="M20,678.1797 L93,678.1797 L93,686.1797 L83,696.1797 L20,696.1797 L20,678.1797 " fill="#EEEEEE" style="stroke:#000000;stroke-width:1.0;"/><rect fill="none" height="109.4063" style="stroke:#000000;stroke-width:2.0;" width="819.5" x="20" y="678.1797"/><text fill="#000000" font-family="sans-serif" font-size="13" font-weight="bold" lengthAdjust="spacing" textLength="28" x="35" y="692.6748">loop</text><text fill="#000000" font-family="sans-serif" font-size="11" font-weight="bold" lengthAdjust="spacing" textLength="452" x="108" y="691.5986">[until the Laboratory Coordinator confirms the selected state of the chosen tests]</text><polygon fill="#A80036" points="756,714.8828,766,718.8828,756,722.8828,760,718.8828" style="stroke:#A80036;stroke-width:1.0;"/><line style="stroke:#A80036;stroke-width:1.0;" x1="110" x2="762" y1="718.8828" y2="718.8828"/><text fill="#000000" font-family="sans-serif" font-size="13" font-weight="bold" lengthAdjust="spacing" textLength="14" x="117" y="714.0264">12</text><text fill="#000000" font-family="sans-serif" font-size="13" lengthAdjust="spacing" textLength="143" x="135" y="714.0264">selects the desired state</text><polygon fill="#A80036" points="121,745.2344,111,749.2344,121,753.2344,117,749.2344" style="stroke:#A80036;stroke-width:1.0;"/><line style="stroke:#A80036;stroke-width:1.0;stroke-dasharray:2.0,2.0;" x1="115" x2="772" y1="749.2344" y2="749.2344"/><text fill="#000000" font-family="sans-serif" font-size="13" font-weight="bold" lengthAdjust="spacing" textLength="14" x="127" y="744.3779">13</text><text fill="#000000" font-family="sans-serif" font-size="13" lengthAdjust="spacing" textLength="212" x="145" y="744.3779">shows it and requests a confirmation</text><polygon fill="#A80036" points="756,775.5859,766,779.5859,756,783.5859,760,779.5859" style="stroke:#A80036;stroke-width:1.0;"/><line style="stroke:#A80036;stroke-width:1.0;" x1="110" x2="762" y1="779.5859" y2="779.5859"/><text fill="#000000" font-family="sans-serif" font-size="13" font-weight="bold" lengthAdjust="spacing" textLength="14" x="117" y="774.7295">14</text><text fill="#000000" font-family="sans-serif" font-size="13" lengthAdjust="spacing" textLength="157" x="135" y="774.7295">confirms the selected state</text><polygon fill="#A80036" points="1607.5,812.9375,1617.5,816.9375,1607.5,820.9375,1611.5,816.9375" style="stroke:#A80036;stroke-width:1.0;"/><line style="stroke:#A80036;stroke-width:1.0;" x1="778" x2="1613.5" y1="816.9375" y2="816.9375"/><text fill="#000000" font-family="sans-serif" font-size="13" font-weight="bold" lengthAdjust="spacing" textLength="14" x="785" y="812.0811">15</text><text fill="#000000" font-family="sans-serif" font-size="13" lengthAdjust="spacing" textLength="100" x="803" y="812.0811">code = getCode()</text><polygon fill="#A80036" points="975,873.2891,985,877.2891,975,881.2891,979,877.2891" style="stroke:#A80036;stroke-width:1.0;"/><line style="stroke:#A80036;stroke-width:1.0;" x1="778" x2="981" y1="877.2891" y2="877.2891"/><text fill="#000000" font-family="sans-serif" font-size="13" font-weight="bold" lengthAdjust="spacing" textLength="14" x="785" y="872.4326">16</text><text fill="#000000" font-family="sans-serif" font-size="13" lengthAdjust="spacing" textLength="104" x="803" y="872.4326">validateTest(code)</text><polygon fill="#A80036" points="1743.5,903.6406,1753.5,907.6406,1743.5,911.6406,1747.5,907.6406" style="stroke:#A80036;stroke-width:1.0;"/><line style="stroke:#A80036;stroke-width:1.0;" x1="997" x2="1749.5" y1="907.6406" y2="907.6406"/><text fill="#000000" font-family="sans-serif" font-size="13" font-weight="bold" lengthAdjust="spacing" textLength="14" x="1004" y="902.7842">17</text><text fill="#000000" font-family="sans-serif" font-size="13" lengthAdjust="spacing" textLength="117" x="1022" y="902.7842">validateReport(code)</text><polygon fill="#A80036" points="1373,963.9922,1383,967.9922,1373,971.9922,1377,967.9922" style="stroke:#A80036;stroke-width:1.0;"/><line style="stroke:#A80036;stroke-width:1.0;" x1="997" x2="1379" y1="967.9922" y2="967.9922"/><text fill="#000000" font-family="sans-serif" font-size="13" font-weight="bold" lengthAdjust="spacing" textLength="14" x="1004" y="963.1357">18</text><text fill="#000000" font-family="sans-serif" font-size="13" lengthAdjust="spacing" textLength="76" x="1022" y="963.1357">validateTest()</text><polygon fill="#A80036" points="2404.5,994.3438,2414.5,998.3438,2404.5,1002.3438,2408.5,998.3438" style="stroke:#A80036;stroke-width:1.0;"/><line style="stroke:#A80036;stroke-width:1.0;" x1="1395" x2="2410.5" y1="998.3438" y2="998.3438"/><text fill="#000000" font-family="sans-serif" font-size="13" font-weight="bold" lengthAdjust="spacing" textLength="14" x="1402" y="993.4873">19</text><text fill="#000000" font-family="sans-serif" font-size="13" lengthAdjust="spacing" textLength="138" x="1420" y="993.4873">setValidationDateTime()</text><polygon fill="#A80036" points="2404.5,1054.6953,2414.5,1058.6953,2404.5,1062.6953,2408.5,1058.6953" style="stroke:#A80036;stroke-width:1.0;"/><line style="stroke:#A80036;stroke-width:1.0;" x1="1395" x2="2410.5" y1="1058.6953" y2="1058.6953"/><text fill="#000000" font-family="sans-serif" font-size="13" font-weight="bold" lengthAdjust="spacing" textLength="14" x="1402" y="1053.8389">20</text><text fill="#000000" font-family="sans-serif" font-size="13" lengthAdjust="spacing" textLength="110" x="1420" y="1053.8389">updateTestStatus()</text><polygon fill="#A80036" points="1262,1115.0469,1272,1119.0469,1262,1123.0469,1266,1119.0469" style="stroke:#A80036;stroke-width:1.0;"/><line style="stroke:#A80036;stroke-width:1.0;" x1="997" x2="1268" y1="1119.0469" y2="1119.0469"/><text fill="#000000" font-family="sans-serif" font-size="13" font-weight="bold" lengthAdjust="spacing" textLength="14" x="1004" y="1114.1904">21</text><text fill="#000000" font-family="sans-serif" font-size="13" lengthAdjust="spacing" textLength="240" x="1022" y="1114.1904">sendNotification = getNotificationService()</text><polygon fill="#A80036" points="2258.5,1175.3984,2268.5,1179.3984,2258.5,1183.3984,2262.5,1179.3984" style="stroke:#A80036;stroke-width:1.0;"/><line style="stroke:#A80036;stroke-width:1.0;" x1="997" x2="2264.5" y1="1179.3984" y2="1179.3984"/><text fill="#000000" font-family="sans-serif" font-size="13" font-weight="bold" lengthAdjust="spacing" textLength="14" x="1004" y="1174.542">22</text><text fill="#000000" font-family="sans-serif" font-size="13" lengthAdjust="spacing" textLength="153" x="1022" y="1174.542">sendNotification(message)</text><polygon fill="#A80036" points="121,1235.75,111,1239.75,121,1243.75,117,1239.75" style="stroke:#A80036;stroke-width:1.0;"/><line style="stroke:#A80036;stroke-width:1.0;stroke-dasharray:2.0,2.0;" x1="115" x2="772" y1="1239.75" y2="1239.75"/><text fill="#000000" font-family="sans-serif" font-size="13" font-weight="bold" lengthAdjust="spacing" textLength="14" x="127" y="1234.8936">23</text><text fill="#000000" font-family="sans-serif" font-size="13" lengthAdjust="spacing" textLength="188" x="145" y="1234.8936">informs about operation success</text><!--MD5=[05dd02e0787152734340ea944d5e42d1]
@startuml
autonumber

actor "LaboratoryCoordinator" as labC
activate labC

participant ":ValidateTestUI" as validateTestUI
participant ":ValidateTestController" as validateTestCont
participant ":Company" as comp
participant "store: TestStore" as TestStore
participant "TestMapper" as TestMapper
participant "testDto: TestDto" as TestDto
participant "store:ReportStore" as ReportStore
participant "testsList: list<Test>" as testsList
participant "testsListDto: list<TestDto>" as testsListDto
participant "sendNotification: Notification" as notification
participant "test: Test" as test


labC -> validateTestUI : validate a Test Result/Diagnosis


activate validateTestUI
validateTestUI -> validateTestCont: testsListDto = getAllTestsDto()


activate validateTestCont


validateTestCont -> comp : store = getParameterCategoryStore()
activate comp
deactivate comp


validateTestCont -> TestStore : testsList = getAllTests()
activate TestStore
deactivate TestStore


validateTestCont -> TestMapper : testsListDto = toDto(testsList)
activate TestMapper
deactivate TestMapper


deactivate validateTestCont


validateTestUI - -> labC : shows a list of to-be validated tests
deactivate validateTestUI


loop for how many tests the Laboratory Coordinator chooses
labC -> validateTestUI : selects a test from the list
activate validateTestUI


validateTestUI -> TestDto : registrationDate = getRegistrationDate()
activate TestDto
deactivate TestDto


validateTestUI -> TestDto : chemAnalysisDate = getChemAnalysisDate()
activate TestDto
deactivate TestDto


validateTestUI -> TestDto : diagnosisDate = getDiagnosisDate()
activate TestDto
deactivate TestDto


validateTestUI - -> labC : displays its data (registration date, chemical analysis date, diagnosis date) and request to chose if its valid
deactivate validateTestUI
end




deactivate validateTestUI

loop for each chosen test

loop until the Laboratory Coordinator confirms the selected state of the chosen tests
labC -> validateTestUI : selects the desired state
activate validateTestUI


validateTestUI - -> labC : shows it and requests a confirmation
deactivate validateTestUI

labC -> validateTestUI : confirms the selected state
activate validateTestUI
end


validateTestUI -> TestDto : code = getCode()
activate TestDto
deactivate TestDto


validateTestUI -> validateTestCont : validateTest(code)


activate validateTestCont
validateTestCont -> ReportStore : validateReport(code)
activate ReportStore
deactivate ReportStore

validateTestCont -> TestStore : validateTest()
activate TestStore


TestStore -> test : setValidationDateTime()
activate test
deactivate test


TestStore -> test : updateTestStatus()
activate test
deactivate test
deactivate TestStore


validateTestCont -> comp: sendNotification = getNotificationService()
activate comp
deactivate comp

validateTestCont -> notification: sendNotification(message)
activate notification
deactivate notification
deactivate validateTestCont


validateTestUI - -> labC : informs about operation success
deactivate validateTestCont
deactivate validateTestUI

end
@enduml

PlantUML version 1.2021.5(Sun Apr 25 12:20:28 BST 2021)
(GPL source distribution)
Java Runtime: OpenJDK Runtime Environment
JVM: OpenJDK 64-Bit Server VM
Default Encoding: Cp1252
Language: pt
Country: PT
--></g></svg>