<?xml version="1.0" encoding="UTF-8" standalone="no"?><svg xmlns="http://www.w3.org/2000/svg" xmlns:xlink="http://www.w3.org/1999/xlink" contentScriptType="application/ecmascript" contentStyleType="text/css" height="157px" preserveAspectRatio="none" style="width:790px;height:157px;" version="1.1" viewBox="0 0 790 157" width="790px" zoomAndPan="magnify"><defs><filter height="300%" id="fkf4e34r0clgi" width="300%" x="-1" y="-1"><feGaussianBlur result="blurOut" stdDeviation="2.0"/><feColorMatrix in="blurOut" result="blurOut2" type="matrix" values="0 0 0 0 0 0 0 0 0 0 0 0 0 0 0 0 0 0 .4 0"/><feOffset dx="4.0" dy="4.0" in="blurOut2" result="blurOut3"/><feBlend in="SourceGraphic" in2="blurOut3" mode="normal"/></filter></defs><g><!--MD5=[052425de1c0eb6cc1c1b48342b0bb88f]
class LaboratoryCoordinator--><rect codeLine="5" fill="#FEFECE" filter="url(#fkf4e34r0clgi)" height="40" id="LaboratoryCoordinator" style="stroke:#A80036;stroke-width:1.5;" width="155" x="621" y="92.5"/><ellipse cx="636" cy="108.5" fill="#ADD1B2" rx="11" ry="11" style="stroke:#A80036;stroke-width:1.0;"/><path d="M638,105 Q638.2031,104.5 638.4375,104.25 Q638.6719,104 638.9375,104 Q639.4063,104 639.7031,104.2813 Q640,104.5625 640,105.2188 L640,106.7813 Q640,107.4375 639.7188,107.7188 Q639.4375,108 639,108 Q638.6094,108 638.3594,107.8281 Q638.1094,107.6563 638,107.2031 Q637.9531,106.8906 637.7813,106.7188 Q637.4688,106.3906 636.9063,106.2031 Q636.3438,106 635.7813,106 Q635.0781,106 634.4844,106.2813 Q633.9063,106.5625 633.4531,107.1875 Q633,107.8125 633,108.6719 L633,109.5938 Q633,110.625 633.8438,111.3125 Q634.6875,112 636.1875,112 Q637.0781,112 637.7031,111.7969 Q638.0625,111.6875 638.4688,111.3281 Q638.7344,111.125 638.875,111.0625 Q639.0156,111 639.1875,111 Q639.5156,111 639.75,111.2656 Q640,111.5156 640,111.875 Q640,112.2188 639.6563,112.625 Q639.1563,113.2188 638.3594,113.5469 Q637.3125,114 636.0313,114 Q634.5313,114 633.3281,113.4063 Q632.3594,112.9375 631.6719,111.9219 Q631,110.9063 631,109.7031 L631,108.6094 Q631,107.3594 631.5938,106.2656 Q632.2031,105.1719 633.25,104.5938 Q634.3125,104 635.5,104 Q636.2188,104 636.8438,104.25 Q637.4688,104.5 638,105 Z " fill="#000000"/><text fill="#000000" font-family="sans-serif" font-size="12" lengthAdjust="spacing" textLength="123" x="650" y="113.4102">LaboratoryCoordinator</text><line style="stroke:#A80036;stroke-width:1.5;" x1="622" x2="775" y1="124.5" y2="124.5"/><!--MD5=[2741598bdf59a7d7e0d5c97658fd3022]
class Result--><rect codeLine="19" fill="#FEFECE" filter="url(#fkf4e34r0clgi)" height="40" id="Result" style="stroke:#A80036;stroke-width:1.5;" width="68" x="345" y="17.5"/><ellipse cx="360" cy="33.5" fill="#ADD1B2" rx="11" ry="11" style="stroke:#A80036;stroke-width:1.0;"/><path d="M362,30 Q362.2031,29.5 362.4375,29.25 Q362.6719,29 362.9375,29 Q363.4063,29 363.7031,29.2813 Q364,29.5625 364,30.2188 L364,31.7813 Q364,32.4375 363.7188,32.7188 Q363.4375,33 363,33 Q362.6094,33 362.3594,32.8281 Q362.1094,32.6563 362,32.2031 Q361.9531,31.8906 361.7813,31.7188 Q361.4688,31.3906 360.9063,31.2031 Q360.3438,31 359.7813,31 Q359.0781,31 358.4844,31.2813 Q357.9063,31.5625 357.4531,32.1875 Q357,32.8125 357,33.6719 L357,34.5938 Q357,35.625 357.8438,36.3125 Q358.6875,37 360.1875,37 Q361.0781,37 361.7031,36.7969 Q362.0625,36.6875 362.4688,36.3281 Q362.7344,36.125 362.875,36.0625 Q363.0156,36 363.1875,36 Q363.5156,36 363.75,36.2656 Q364,36.5156 364,36.875 Q364,37.2188 363.6563,37.625 Q363.1563,38.2188 362.3594,38.5469 Q361.3125,39 360.0313,39 Q358.5313,39 357.3281,38.4063 Q356.3594,37.9375 355.6719,36.9219 Q355,35.9063 355,34.7031 L355,33.6094 Q355,32.3594 355.5938,31.2656 Q356.2031,30.1719 357.25,29.5938 Q358.3125,29 359.5,29 Q360.2188,29 360.8438,29.25 Q361.4688,29.5 362,30 Z " fill="#000000"/><text fill="#000000" font-family="sans-serif" font-size="12" lengthAdjust="spacing" textLength="36" x="374" y="38.4102">Result</text><line style="stroke:#A80036;stroke-width:1.5;" x1="346" x2="412" y1="49.5" y2="49.5"/><!--MD5=[f61f25a4c924aea49782a3614f4b4835]
class DiagnosisReport--><rect codeLine="22" fill="#FEFECE" filter="url(#fkf4e34r0clgi)" height="40" id="DiagnosisReport" style="stroke:#A80036;stroke-width:1.5;" width="126" x="316" y="92.5"/><ellipse cx="331" cy="108.5" fill="#ADD1B2" rx="11" ry="11" style="stroke:#A80036;stroke-width:1.0;"/><path d="M333,105 Q333.2031,104.5 333.4375,104.25 Q333.6719,104 333.9375,104 Q334.4063,104 334.7031,104.2813 Q335,104.5625 335,105.2188 L335,106.7813 Q335,107.4375 334.7188,107.7188 Q334.4375,108 334,108 Q333.6094,108 333.3594,107.8281 Q333.1094,107.6563 333,107.2031 Q332.9531,106.8906 332.7813,106.7188 Q332.4688,106.3906 331.9063,106.2031 Q331.3438,106 330.7813,106 Q330.0781,106 329.4844,106.2813 Q328.9063,106.5625 328.4531,107.1875 Q328,107.8125 328,108.6719 L328,109.5938 Q328,110.625 328.8438,111.3125 Q329.6875,112 331.1875,112 Q332.0781,112 332.7031,111.7969 Q333.0625,111.6875 333.4688,111.3281 Q333.7344,111.125 333.875,111.0625 Q334.0156,111 334.1875,111 Q334.5156,111 334.75,111.2656 Q335,111.5156 335,111.875 Q335,112.2188 334.6563,112.625 Q334.1563,113.2188 333.3594,113.5469 Q332.3125,114 331.0313,114 Q329.5313,114 328.3281,113.4063 Q327.3594,112.9375 326.6719,111.9219 Q326,110.9063 326,109.7031 L326,108.6094 Q326,107.3594 326.5938,106.2656 Q327.2031,105.1719 328.25,104.5938 Q329.3125,104 330.5,104 Q331.2188,104 331.8438,104.25 Q332.4688,104.5 333,105 Z " fill="#000000"/><text fill="#000000" font-family="sans-serif" font-size="12" lengthAdjust="spacing" textLength="94" x="345" y="113.4102">DiagnosisReport</text><line style="stroke:#A80036;stroke-width:1.5;" x1="317" x2="441" y1="124.5" y2="124.5"/><!--MD5=[df38be88ccee13e832d6fafd6288a4ca]
class Test--><rect codeLine="25" fill="#FEFECE" filter="url(#fkf4e34r0clgi)" height="136.8516" id="Test" style="stroke:#A80036;stroke-width:1.5;" width="144" x="7" y="7"/><ellipse cx="62.75" cy="23" fill="#ADD1B2" rx="11" ry="11" style="stroke:#A80036;stroke-width:1.0;"/><path d="M64.75,19.5 Q64.9531,19 65.1875,18.75 Q65.4219,18.5 65.6875,18.5 Q66.1563,18.5 66.4531,18.7813 Q66.75,19.0625 66.75,19.7188 L66.75,21.2813 Q66.75,21.9375 66.4688,22.2188 Q66.1875,22.5 65.75,22.5 Q65.3594,22.5 65.1094,22.3281 Q64.8594,22.1563 64.75,21.7031 Q64.7031,21.3906 64.5313,21.2188 Q64.2188,20.8906 63.6563,20.7031 Q63.0938,20.5 62.5313,20.5 Q61.8281,20.5 61.2344,20.7813 Q60.6563,21.0625 60.2031,21.6875 Q59.75,22.3125 59.75,23.1719 L59.75,24.0938 Q59.75,25.125 60.5938,25.8125 Q61.4375,26.5 62.9375,26.5 Q63.8281,26.5 64.4531,26.2969 Q64.8125,26.1875 65.2188,25.8281 Q65.4844,25.625 65.625,25.5625 Q65.7656,25.5 65.9375,25.5 Q66.2656,25.5 66.5,25.7656 Q66.75,26.0156 66.75,26.375 Q66.75,26.7188 66.4063,27.125 Q65.9063,27.7188 65.1094,28.0469 Q64.0625,28.5 62.7813,28.5 Q61.2813,28.5 60.0781,27.9063 Q59.1094,27.4375 58.4219,26.4219 Q57.75,25.4063 57.75,24.2031 L57.75,23.1094 Q57.75,21.8594 58.3438,20.7656 Q58.9531,19.6719 60,19.0938 Q61.0625,18.5 62.25,18.5 Q62.9688,18.5 63.5938,18.75 Q64.2188,19 64.75,19.5 Z " fill="#000000"/><text fill="#000000" font-family="sans-serif" font-size="12" lengthAdjust="spacing" textLength="24" x="83.25" y="27.9102">Test</text><line style="stroke:#A80036;stroke-width:1.5;" x1="8" x2="150" y1="39" y2="39"/><text fill="#000000" font-family="sans-serif" font-size="11" lengthAdjust="spacing" textLength="57" x="13" y="54.4189">-description</text><text fill="#000000" font-family="sans-serif" font-size="11" lengthAdjust="spacing" textLength="28" x="13" y="68.2549">-code</text><text fill="#000000" font-family="sans-serif" font-size="11" lengthAdjust="spacing" textLength="47" x="13" y="82.0908">-nhsCode</text><text fill="#000000" font-family="sans-serif" font-size="11" lengthAdjust="spacing" textLength="79" x="13" y="95.9268">-collectDateTime</text><text fill="#000000" font-family="sans-serif" font-size="11" lengthAdjust="spacing" textLength="132" x="13" y="109.7627">-chemicalAnalysisDateTime</text><text fill="#000000" font-family="sans-serif" font-size="11" lengthAdjust="spacing" textLength="94" x="13" y="123.5986">-diagnosisDateTime</text><text fill="#000000" font-family="sans-serif" font-size="11" lengthAdjust="spacing" textLength="93" x="13" y="137.4346">-validationDateTime</text><!--MD5=[76b5e19c9337179d2d7ae334371d68c8]
class Notification--><rect fill="#FEFECE" filter="url(#fkf4e34r0clgi)" height="40" id="Notification" style="stroke:#A80036;stroke-width:1.5;" width="93" x="652" y="17.5"/><ellipse cx="667" cy="33.5" fill="#ADD1B2" rx="11" ry="11" style="stroke:#A80036;stroke-width:1.0;"/><path d="M669,30 Q669.2031,29.5 669.4375,29.25 Q669.6719,29 669.9375,29 Q670.4063,29 670.7031,29.2813 Q671,29.5625 671,30.2188 L671,31.7813 Q671,32.4375 670.7188,32.7188 Q670.4375,33 670,33 Q669.6094,33 669.3594,32.8281 Q669.1094,32.6563 669,32.2031 Q668.9531,31.8906 668.7813,31.7188 Q668.4688,31.3906 667.9063,31.2031 Q667.3438,31 666.7813,31 Q666.0781,31 665.4844,31.2813 Q664.9063,31.5625 664.4531,32.1875 Q664,32.8125 664,33.6719 L664,34.5938 Q664,35.625 664.8438,36.3125 Q665.6875,37 667.1875,37 Q668.0781,37 668.7031,36.7969 Q669.0625,36.6875 669.4688,36.3281 Q669.7344,36.125 669.875,36.0625 Q670.0156,36 670.1875,36 Q670.5156,36 670.75,36.2656 Q671,36.5156 671,36.875 Q671,37.2188 670.6563,37.625 Q670.1563,38.2188 669.3594,38.5469 Q668.3125,39 667.0313,39 Q665.5313,39 664.3281,38.4063 Q663.3594,37.9375 662.6719,36.9219 Q662,35.9063 662,34.7031 L662,33.6094 Q662,32.3594 662.5938,31.2656 Q663.2031,30.1719 664.25,29.5938 Q665.3125,29 666.5,29 Q667.2188,29 667.8438,29.25 Q668.4688,29.5 669,30 Z " fill="#000000"/><text fill="#000000" font-family="sans-serif" font-size="12" lengthAdjust="spacing" textLength="61" x="681" y="38.4102">Notification</text><line style="stroke:#A80036;stroke-width:1.5;" x1="653" x2="744" y1="49.5" y2="49.5"/><!--MD5=[d14b4c18c397fa0293924715644730ec]
link Result to Notification--><path codeLine="11" d="M413.08,37.5 C470.1,37.5 586.99,37.5 651.76,37.5 " fill="none" id="Result-Notification" style="stroke:#A80036;stroke-width:1.0;"/><polygon fill="#000000" points="482,28.6758,472.9549,25.7369,472.9549,31.6147,482,28.6758" style="stroke:#000000;stroke-width:1.0;"/><text fill="#000000" font-family="sans-serif" font-size="13" lengthAdjust="spacing" textLength="104" x="486" y="33.9951">is associated with</text><text fill="#000000" font-family="sans-serif" font-size="13" lengthAdjust="spacing" textLength="5" x="421.0819" y="52.7836">*</text><text fill="#000000" font-family="sans-serif" font-size="13" lengthAdjust="spacing" textLength="20" x="624.1356" y="52.0937">1..*</text><!--MD5=[e83232b12920152899b3d956169a0d16]
link DiagnosisReport to LaboratoryCoordinator--><path codeLine="13" d="M442.35,112.5 C493.55,112.5 566.28,112.5 620.99,112.5 " fill="none" id="DiagnosisReport-LaboratoryCoordinator" style="stroke:#A80036;stroke-width:1.0;"/><polygon fill="#000000" points="499,103.6758,508.0451,106.6147,508.0451,100.7369,499,103.6758" style="stroke:#000000;stroke-width:1.0;"/><text fill="#000000" font-family="sans-serif" font-size="13" lengthAdjust="spacing" textLength="50" x="513" y="108.9951">validates</text><text fill="#000000" font-family="sans-serif" font-size="13" lengthAdjust="spacing" textLength="5" x="449.9639" y="126.9404">*</text><text fill="#000000" font-family="sans-serif" font-size="13" lengthAdjust="spacing" textLength="7" x="606.0156" y="126.7999">1</text><!--MD5=[9163865a413f55935f47e026f9eaa033]
link Test to Result--><path codeLine="15" d="M151.38,66.4 C212.68,58.58 298.29,47.66 344.78,41.74 " fill="none" id="Test-Result" style="stroke:#A80036;stroke-width:1.0;"/><polygon fill="#000000" points="219.9598,41.0434,210.6157,39.2721,211.3591,45.1027,219.9598,41.0434" style="stroke:#000000;stroke-width:1.0;"/><text fill="#000000" font-family="sans-serif" font-size="13" lengthAdjust="spacing" textLength="32" x="224" y="46.9951">has a</text><text fill="#000000" font-family="sans-serif" font-size="13" lengthAdjust="spacing" textLength="7" x="159.2051" y="79.8075">1</text><text fill="#000000" font-family="sans-serif" font-size="13" lengthAdjust="spacing" textLength="7" x="330.0003" y="57.7959">1</text><!--MD5=[5fda545c79585d17c4a435a79f76ac33]
link Test to DiagnosisReport--><path codeLine="17" d="M151.01,97.33 C161.01,99.77 171.21,101.94 181,103.5 C225.8,110.64 277,112.8 315.97,113.22 " fill="none" id="Test-DiagnosisReport" style="stroke:#A80036;stroke-width:1.0;"/><polygon fill="#000000" points="181.023,94.1964,189.7447,97.989,190.3082,92.1382,181.023,94.1964" style="stroke:#000000;stroke-width:1.0;"/><text fill="#000000" font-family="sans-serif" font-size="13" lengthAdjust="spacing" textLength="90" x="195" y="99.9951">associated with</text><text fill="#000000" font-family="sans-serif" font-size="13" lengthAdjust="spacing" textLength="7" x="158.797" y="113.9271">1</text><text fill="#000000" font-family="sans-serif" font-size="13" lengthAdjust="spacing" textLength="7" x="300.8617" y="127.7993">1</text><!--MD5=[18633f9beecffd09e13f54024fadd8b8]
@startuml
hide methods
skinparam classAttributeIconSize 0
left to right direction

class LaboratoryCoordinator
class Result
class DiagnosisReport
class Test


Result "*" - - "1..*" Notification : > is associated with

DiagnosisReport "*" - - "1" LaboratoryCoordinator : < validates

Test "1" - - "1" Result : > has a

Test "1" - - "1" DiagnosisReport : < associated with

class Result{
}

class DiagnosisReport{
}

class Test{
-description
-code
-nhsCode
-collectDateTime
-chemicalAnalysisDateTime
-diagnosisDateTime
-validationDateTime
}

@enduml

PlantUML version 1.2021.5(Sun Apr 25 12:20:28 BST 2021)
(GPL source distribution)
Java Runtime: OpenJDK Runtime Environment
JVM: OpenJDK 64-Bit Server VM
Default Encoding: Cp1252
Language: pt
Country: PT
--></g></svg>