<?xml version="1.0" encoding="UTF-8" standalone="no"?><svg xmlns="http://www.w3.org/2000/svg" xmlns:xlink="http://www.w3.org/1999/xlink" contentScriptType="application/ecmascript" contentStyleType="text/css" height="797px" preserveAspectRatio="none" style="width:1728px;height:797px;" version="1.1" viewBox="0 0 1728 797" width="1728px" zoomAndPan="magnify"><defs><filter height="300%" id="fbisp6p69edxh" width="300%" x="-1" y="-1"><feGaussianBlur result="blurOut" stdDeviation="2.0"/><feColorMatrix in="blurOut" result="blurOut2" type="matrix" values="0 0 0 0 0 0 0 0 0 0 0 0 0 0 0 0 0 0 .4 0"/><feOffset dx="4.0" dy="4.0" in="blurOut2" result="blurOut3"/><feBlend in="SourceGraphic" in2="blurOut3" mode="normal"/></filter></defs><g><rect fill="#FFFFFF" filter="url(#fbisp6p69edxh)" height="602.8438" style="stroke:#A80036;stroke-width:1.0;" width="10" x="90" y="99.6094"/><rect fill="#FFFFFF" filter="url(#fbisp6p69edxh)" height="355.0313" style="stroke:#A80036;stroke-width:1.0;" width="10" x="746" y="121.9609"/><rect fill="#FFFFFF" filter="url(#fbisp6p69edxh)" height="30.3516" style="stroke:#A80036;stroke-width:1.0;" width="10" x="746" y="625.75"/><rect fill="#FFFFFF" filter="url(#fbisp6p69edxh)" height="197.6641" style="stroke:#A80036;stroke-width:1.0;" width="10" x="892" y="152.3125"/><rect fill="#FFFFFF" filter="url(#fbisp6p69edxh)" height="30" style="stroke:#A80036;stroke-width:1.0;" width="10" x="1117" y="289.625"/><rect fill="#FFFFFF" filter="url(#fbisp6p69edxh)" height="30" style="stroke:#A80036;stroke-width:1.0;" width="10" x="1226" y="182.6641"/><rect fill="#FFFFFF" filter="url(#fbisp6p69edxh)" height="48.7031" style="stroke:#000000;stroke-width:2.0;" width="806.5" x="10" y="491.9922"/><rect fill="#FFFFFF" filter="url(#fbisp6p69edxh)" height="109.4063" style="stroke:#000000;stroke-width:2.0;" width="806.5" x="10" y="585.0469"/><line style="stroke:#A80036;stroke-width:1.0;stroke-dasharray:5.0,5.0;" x1="95" x2="95" y1="89.6094" y2="711.4531"/><line style="stroke:#A80036;stroke-width:1.0;stroke-dasharray:5.0,5.0;" x1="750.5" x2="750.5" y1="89.6094" y2="711.4531"/><line style="stroke:#A80036;stroke-width:1.0;stroke-dasharray:5.0,5.0;" x1="896.5" x2="896.5" y1="89.6094" y2="711.4531"/><line style="stroke:#A80036;stroke-width:1.0;stroke-dasharray:5.0,5.0;" x1="1122" x2="1122" y1="89.6094" y2="711.4531"/><line style="stroke:#A80036;stroke-width:1.0;stroke-dasharray:5.0,5.0;" x1="1231" x2="1231" y1="89.6094" y2="711.4531"/><line style="stroke:#A80036;stroke-width:1.0;stroke-dasharray:5.0,5.0;" x1="1329" x2="1329" y1="89.6094" y2="711.4531"/><line style="stroke:#A80036;stroke-width:1.0;stroke-dasharray:5.0,5.0;" x1="1455" x2="1455" y1="253.9688" y2="711.4531"/><line style="stroke:#A80036;stroke-width:1.0;stroke-dasharray:5.0,5.0;" x1="1626" x2="1626" y1="360.9297" y2="711.4531"/><text fill="#000000" font-family="sans-serif" font-size="14" lengthAdjust="spacing" textLength="144" x="20" y="86.5332">LaboratoryCoordinator</text><ellipse cx="95" cy="15" fill="#FEFECE" filter="url(#fbisp6p69edxh)" rx="8" ry="8" style="stroke:#A80036;stroke-width:2.0;"/><path d="M95,23 L95,50 M82,31 L108,31 M95,50 L82,65 M95,50 L108,65 " fill="none" filter="url(#fbisp6p69edxh)" style="stroke:#A80036;stroke-width:2.0;"/><text fill="#000000" font-family="sans-serif" font-size="14" lengthAdjust="spacing" textLength="144" x="20" y="724.9863">LaboratoryCoordinator</text><ellipse cx="95" cy="738.0625" fill="#FEFECE" filter="url(#fbisp6p69edxh)" rx="8" ry="8" style="stroke:#A80036;stroke-width:2.0;"/><path d="M95,746.0625 L95,773.0625 M82,754.0625 L108,754.0625 M95,773.0625 L82,788.0625 M95,773.0625 L108,788.0625 " fill="none" filter="url(#fbisp6p69edxh)" style="stroke:#A80036;stroke-width:2.0;"/><rect fill="#FEFECE" filter="url(#fbisp6p69edxh)" height="31.6094" style="stroke:#A80036;stroke-width:1.5;" width="107" x="695.5" y="53"/><text fill="#000000" font-family="sans-serif" font-size="14" lengthAdjust="spacing" textLength="93" x="702.5" y="74.5332">:validateTestUI</text><rect fill="#FEFECE" filter="url(#fbisp6p69edxh)" height="31.6094" style="stroke:#A80036;stroke-width:1.5;" width="107" x="695.5" y="710.4531"/><text fill="#000000" font-family="sans-serif" font-size="14" lengthAdjust="spacing" textLength="93" x="702.5" y="731.9863">:validateTestUI</text><rect fill="#FEFECE" filter="url(#fbisp6p69edxh)" height="31.6094" style="stroke:#A80036;stroke-width:1.5;" width="157" x="816.5" y="53"/><text fill="#000000" font-family="sans-serif" font-size="14" lengthAdjust="spacing" textLength="143" x="823.5" y="74.5332">:validateTestController</text><rect fill="#FEFECE" filter="url(#fbisp6p69edxh)" height="31.6094" style="stroke:#A80036;stroke-width:1.5;" width="157" x="816.5" y="710.4531"/><text fill="#000000" font-family="sans-serif" font-size="14" lengthAdjust="spacing" textLength="143" x="823.5" y="731.9863">:validateTestController</text><rect fill="#FEFECE" filter="url(#fbisp6p69edxh)" height="31.6094" style="stroke:#A80036;stroke-width:1.5;" width="112" x="1064" y="53"/><text fill="#000000" font-family="sans-serif" font-size="14" lengthAdjust="spacing" textLength="98" x="1071" y="74.5332">store:TestStore</text><rect fill="#FEFECE" filter="url(#fbisp6p69edxh)" height="31.6094" style="stroke:#A80036;stroke-width:1.5;" width="112" x="1064" y="710.4531"/><text fill="#000000" font-family="sans-serif" font-size="14" lengthAdjust="spacing" textLength="98" x="1071" y="731.9863">store:TestStore</text><rect fill="#FEFECE" filter="url(#fbisp6p69edxh)" height="31.6094" style="stroke:#A80036;stroke-width:1.5;" width="78" x="1190" y="53"/><text fill="#000000" font-family="sans-serif" font-size="14" lengthAdjust="spacing" textLength="64" x="1197" y="74.5332">:Company</text><rect fill="#FEFECE" filter="url(#fbisp6p69edxh)" height="31.6094" style="stroke:#A80036;stroke-width:1.5;" width="78" x="1190" y="710.4531"/><text fill="#000000" font-family="sans-serif" font-size="14" lengthAdjust="spacing" textLength="64" x="1197" y="731.9863">:Company</text><rect fill="#FEFECE" filter="url(#fbisp6p69edxh)" height="31.6094" style="stroke:#A80036;stroke-width:1.5;" width="90" x="1282" y="53"/><text fill="#000000" font-family="sans-serif" font-size="14" lengthAdjust="spacing" textLength="76" x="1289" y="74.5332">TestMapper</text><rect fill="#FEFECE" filter="url(#fbisp6p69edxh)" height="31.6094" style="stroke:#A80036;stroke-width:1.5;" width="90" x="1282" y="710.4531"/><text fill="#000000" font-family="sans-serif" font-size="14" lengthAdjust="spacing" textLength="76" x="1289" y="731.9863">TestMapper</text><rect fill="#FEFECE" filter="url(#fbisp6p69edxh)" height="31.6094" style="stroke:#A80036;stroke-width:1.5;" width="135" x="1386" y="710.4531"/><text fill="#000000" font-family="sans-serif" font-size="14" lengthAdjust="spacing" textLength="121" x="1393" y="731.9863">testsList: list&lt;Test&gt;</text><rect fill="#FEFECE" filter="url(#fbisp6p69edxh)" height="31.6094" style="stroke:#A80036;stroke-width:1.5;" width="179" x="1535" y="710.4531"/><text fill="#000000" font-family="sans-serif" font-size="14" lengthAdjust="spacing" textLength="165" x="1542" y="731.9863">testsListDto: list&lt;TestDto&gt;</text><rect fill="#FFFFFF" filter="url(#fbisp6p69edxh)" height="602.8438" style="stroke:#A80036;stroke-width:1.0;" width="10" x="90" y="99.6094"/><rect fill="#FFFFFF" filter="url(#fbisp6p69edxh)" height="355.0313" style="stroke:#A80036;stroke-width:1.0;" width="10" x="746" y="121.9609"/><rect fill="#FFFFFF" filter="url(#fbisp6p69edxh)" height="30.3516" style="stroke:#A80036;stroke-width:1.0;" width="10" x="746" y="625.75"/><rect fill="#FFFFFF" filter="url(#fbisp6p69edxh)" height="197.6641" style="stroke:#A80036;stroke-width:1.0;" width="10" x="892" y="152.3125"/><rect fill="#FFFFFF" filter="url(#fbisp6p69edxh)" height="30" style="stroke:#A80036;stroke-width:1.0;" width="10" x="1117" y="289.625"/><rect fill="#FFFFFF" filter="url(#fbisp6p69edxh)" height="30" style="stroke:#A80036;stroke-width:1.0;" width="10" x="1226" y="182.6641"/><polygon fill="#A80036" points="734,117.9609,744,121.9609,734,125.9609,738,121.9609" style="stroke:#A80036;stroke-width:1.0;"/><line style="stroke:#A80036;stroke-width:1.0;" x1="100" x2="740" y1="121.9609" y2="121.9609"/><text fill="#000000" font-family="sans-serif" font-size="13" font-weight="bold" lengthAdjust="spacing" textLength="7" x="107" y="117.1045">1</text><text fill="#000000" font-family="sans-serif" font-size="13" lengthAdjust="spacing" textLength="185" x="118" y="117.1045">validate a Test Result/Diagnosis</text><polygon fill="#A80036" points="880,148.3125,890,152.3125,880,156.3125,884,152.3125" style="stroke:#A80036;stroke-width:1.0;"/><line style="stroke:#A80036;stroke-width:1.0;" x1="756" x2="886" y1="152.3125" y2="152.3125"/><text fill="#000000" font-family="sans-serif" font-size="13" font-weight="bold" lengthAdjust="spacing" textLength="7" x="763" y="147.4561">2</text><text fill="#000000" font-family="sans-serif" font-size="13" lengthAdjust="spacing" textLength="93" x="774" y="147.4561">getAllTestsDto()</text><polygon fill="#A80036" points="1214,178.6641,1224,182.6641,1214,186.6641,1218,182.6641" style="stroke:#A80036;stroke-width:1.0;"/><line style="stroke:#A80036;stroke-width:1.0;" x1="902" x2="1220" y1="182.6641" y2="182.6641"/><text fill="#000000" font-family="sans-serif" font-size="13" font-weight="bold" lengthAdjust="spacing" textLength="7" x="909" y="177.8076">3</text><text fill="#000000" font-family="sans-serif" font-size="13" lengthAdjust="spacing" textLength="214" x="920" y="177.8076">store = getParameterCategoryStore()</text><polygon fill="#A80036" points="1374,239.0156,1384,243.0156,1374,247.0156,1378,243.0156" style="stroke:#A80036;stroke-width:1.0;"/><line style="stroke:#A80036;stroke-width:1.0;stroke-dasharray:2.0,2.0;" x1="902" x2="1380" y1="243.0156" y2="243.0156"/><text fill="#000000" font-family="sans-serif" font-size="13" font-weight="bold" lengthAdjust="spacing" textLength="7" x="909" y="238.1592">4</text><text fill="#000000" font-family="sans-serif" font-size="13" lengthAdjust="spacing" textLength="44" x="920" y="238.1592">create()</text><rect fill="#FEFECE" filter="url(#fbisp6p69edxh)" height="31.6094" style="stroke:#A80036;stroke-width:1.5;" width="135" x="1386" y="220.6641"/><text fill="#000000" font-family="sans-serif" font-size="14" lengthAdjust="spacing" textLength="121" x="1393" y="242.1973">testsList: list&lt;Test&gt;</text><polygon fill="#A80036" points="1105,285.625,1115,289.625,1105,293.625,1109,289.625" style="stroke:#A80036;stroke-width:1.0;"/><line style="stroke:#A80036;stroke-width:1.0;" x1="902" x2="1111" y1="289.625" y2="289.625"/><text fill="#000000" font-family="sans-serif" font-size="13" font-weight="bold" lengthAdjust="spacing" textLength="7" x="909" y="284.7686">5</text><text fill="#000000" font-family="sans-serif" font-size="13" lengthAdjust="spacing" textLength="139" x="920" y="284.7686">testsList = getAllTests()</text><polygon fill="#A80036" points="1523,345.9766,1533,349.9766,1523,353.9766,1527,349.9766" style="stroke:#A80036;stroke-width:1.0;"/><line style="stroke:#A80036;stroke-width:1.0;stroke-dasharray:2.0,2.0;" x1="897" x2="1529" y1="349.9766" y2="349.9766"/><text fill="#000000" font-family="sans-serif" font-size="13" font-weight="bold" lengthAdjust="spacing" textLength="7" x="904" y="345.1201">6</text><text fill="#000000" font-family="sans-serif" font-size="13" lengthAdjust="spacing" textLength="44" x="915" y="345.1201">create()</text><rect fill="#FEFECE" filter="url(#fbisp6p69edxh)" height="31.6094" style="stroke:#A80036;stroke-width:1.5;" width="179" x="1535" y="327.625"/><text fill="#000000" font-family="sans-serif" font-size="14" lengthAdjust="spacing" textLength="165" x="1542" y="349.1582">testsListDto: list&lt;TestDto&gt;</text><rect fill="#FFFFFF" filter="url(#fbisp6p69edxh)" height="75.4063" style="stroke:#000000;stroke-width:2.0;" width="378" x="813.5" y="374.2344"/><polygon fill="#EEEEEE" points="813.5,374.2344,875.5,374.2344,875.5,382.2344,865.5,392.2344,813.5,392.2344,813.5,374.2344" style="stroke:#000000;stroke-width:2.0;"/><text fill="#000000" font-family="sans-serif" font-size="13" font-weight="bold" lengthAdjust="spacing" textLength="17" x="826.5" y="389.7295">ref</text><text fill="#000000" font-family="sans-serif" font-size="13" lengthAdjust="spacing" textLength="370" x="819.5" y="409.7295">validateTestCont -&gt; TestMapper : testsListDto = toDto(testsList)</text><text fill="#000000" font-family="sans-serif" font-size="13" lengthAdjust="spacing" textLength="116" x="819.5" y="426.0811">activate TestMapper</text><text fill="#000000" font-family="sans-serif" font-size="13" lengthAdjust="spacing" textLength="130" x="819.5" y="442.4326">deactivate TestMapper</text><polygon fill="#A80036" points="111,472.9922,101,476.9922,111,480.9922,107,476.9922" style="stroke:#A80036;stroke-width:1.0;"/><line style="stroke:#A80036;stroke-width:1.0;stroke-dasharray:2.0,2.0;" x1="105" x2="750" y1="476.9922" y2="476.9922"/><text fill="#000000" font-family="sans-serif" font-size="13" font-weight="bold" lengthAdjust="spacing" textLength="7" x="117" y="472.1357">7</text><text fill="#000000" font-family="sans-serif" font-size="13" lengthAdjust="spacing" textLength="203" x="128" y="472.1357">shows a list of to-be validated tests</text><path d="M10,491.9922 L71,491.9922 L71,499.9922 L61,509.9922 L10,509.9922 L10,491.9922 " fill="#EEEEEE" style="stroke:#000000;stroke-width:1.0;"/><rect fill="none" height="48.7031" style="stroke:#000000;stroke-width:2.0;" width="806.5" x="10" y="491.9922"/><text fill="#000000" font-family="sans-serif" font-size="13" font-weight="bold" lengthAdjust="spacing" textLength="16" x="25" y="506.4873">alt</text><polygon fill="#A80036" points="739,528.6953,749,532.6953,739,536.6953,743,532.6953" style="stroke:#A80036;stroke-width:1.0;"/><line style="stroke:#A80036;stroke-width:1.0;" x1="100" x2="745" y1="532.6953" y2="532.6953"/><text fill="#000000" font-family="sans-serif" font-size="13" font-weight="bold" lengthAdjust="spacing" textLength="7" x="107" y="527.8389">8</text><text fill="#000000" font-family="sans-serif" font-size="13" lengthAdjust="spacing" textLength="151" x="118" y="527.8389">selects a test from the list</text><polygon fill="#A80036" points="111,566.0469,101,570.0469,111,574.0469,107,570.0469" style="stroke:#A80036;stroke-width:1.0;"/><line style="stroke:#A80036;stroke-width:1.0;stroke-dasharray:2.0,2.0;" x1="105" x2="750" y1="570.0469" y2="570.0469"/><text fill="#000000" font-family="sans-serif" font-size="13" font-weight="bold" lengthAdjust="spacing" textLength="7" x="117" y="565.1904">9</text><text fill="#000000" font-family="sans-serif" font-size="13" lengthAdjust="spacing" textLength="616" x="128" y="565.1904">displays its data (registration date, chemical analysis date, diagnosis date) and request to chose if its valid</text><path d="M10,585.0469 L83,585.0469 L83,593.0469 L73,603.0469 L10,603.0469 L10,585.0469 " fill="#EEEEEE" style="stroke:#000000;stroke-width:1.0;"/><rect fill="none" height="109.4063" style="stroke:#000000;stroke-width:2.0;" width="806.5" x="10" y="585.0469"/><text fill="#000000" font-family="sans-serif" font-size="13" font-weight="bold" lengthAdjust="spacing" textLength="28" x="25" y="599.542">loop</text><text fill="#000000" font-family="sans-serif" font-size="11" font-weight="bold" lengthAdjust="spacing" textLength="238" x="98" y="598.4658">[until the user confirms the selected state]</text><polygon fill="#A80036" points="734,621.75,744,625.75,734,629.75,738,625.75" style="stroke:#A80036;stroke-width:1.0;"/><line style="stroke:#A80036;stroke-width:1.0;" x1="100" x2="740" y1="625.75" y2="625.75"/><text fill="#000000" font-family="sans-serif" font-size="13" font-weight="bold" lengthAdjust="spacing" textLength="14" x="107" y="620.8936">10</text><text fill="#000000" font-family="sans-serif" font-size="13" lengthAdjust="spacing" textLength="143" x="125" y="620.8936">selects the desired state</text><polygon fill="#A80036" points="111,652.1016,101,656.1016,111,660.1016,107,656.1016" style="stroke:#A80036;stroke-width:1.0;"/><line style="stroke:#A80036;stroke-width:1.0;stroke-dasharray:2.0,2.0;" x1="105" x2="750" y1="656.1016" y2="656.1016"/><text fill="#000000" font-family="sans-serif" font-size="13" font-weight="bold" lengthAdjust="spacing" textLength="14" x="117" y="651.2451">11</text><text fill="#000000" font-family="sans-serif" font-size="13" lengthAdjust="spacing" textLength="212" x="135" y="651.2451">shows it and requests a confirmation</text><polygon fill="#A80036" points="734,682.4531,744,686.4531,734,690.4531,738,686.4531" style="stroke:#A80036;stroke-width:1.0;"/><line style="stroke:#A80036;stroke-width:1.0;" x1="100" x2="740" y1="686.4531" y2="686.4531"/><text fill="#000000" font-family="sans-serif" font-size="13" font-weight="bold" lengthAdjust="spacing" textLength="14" x="107" y="681.5967">12</text><text fill="#000000" font-family="sans-serif" font-size="13" lengthAdjust="spacing" textLength="157" x="125" y="681.5967">confirms the selected state</text><!--MD5=[9320c5d568c2daaa383947b2c15b1b01]
@startuml
autonumber
actor "LaboratoryCoordinator" as labC
activate labC

participant ":validateTestUI" as validateTestUI
participant ":validateTestController" as validateTestCont
participant "store:TestStore" as TestStore
participant ":Company" as comp
participant "TestMapper" as TestMapper

labC -> validateTestUI : validate a Test Result/Diagnosis

activate validateTestUI
validateTestUI -> validateTestCont: getAllTestsDto()


activate validateTestCont

validateTestCont -> comp : store = getParameterCategoryStore()
activate comp
deactivate comp


create "testsList: list<Test>" as testsList

validateTestCont - -> testsList : create()

validateTestCont -> TestStore : testsList = getAllTests()
activate TestStore
deactivate TestStore

create "testsListDto: list<TestDto>" as testsListDto
validateTestCont - -> testsListDto : create()

ref over validateTestCont
validateTestCont -> TestMapper : testsListDto = toDto(testsList)
activate TestMapper
deactivate TestMapper
end ref

deactivate validateTestCont
validateTestUI - -> labC : shows a list of to-be validated tests
deactivate validateTestUI

alt
labC -> validateTestUI : selects a test from the list
end alt
activate validateTestUI

validateTestUI - -> labC : displays its data (registration date, chemical analysis date, diagnosis date) and request to chose if its valid
deactivate validateTestUI


loop until the user confirms the selected state
labC -> validateTestUI : selects the desired state
activate validateTestUI


validateTestUI - -> labC : shows it and requests a confirmation
deactivate validateTestUI

labC -> validateTestUI : confirms the selected state
activate validateTestUI
end

@enduml

PlantUML version 1.2021.5(Sun Apr 25 12:20:28 BST 2021)
(GPL source distribution)
Java Runtime: OpenJDK Runtime Environment
JVM: OpenJDK 64-Bit Server VM
Default Encoding: Cp1252
Language: pt
Country: PT
--></g></svg>