<?xml version="1.0" encoding="UTF-8" standalone="no"?><svg xmlns="http://www.w3.org/2000/svg" xmlns:xlink="http://www.w3.org/1999/xlink" contentScriptType="application/ecmascript" contentStyleType="text/css" height="1421px" preserveAspectRatio="none" style="width:2592px;height:1421px;" version="1.1" viewBox="0 0 2592 1421" width="2592px" zoomAndPan="magnify"><defs><filter height="300%" id="f2cfebg4egumb" width="300%" x="-1" y="-1"><feGaussianBlur result="blurOut" stdDeviation="2.0"/><feColorMatrix in="blurOut" result="blurOut2" type="matrix" values="0 0 0 0 0 0 0 0 0 0 0 0 0 0 0 0 0 0 .4 0"/><feOffset dx="4.0" dy="4.0" in="blurOut2" result="blurOut3"/><feBlend in="SourceGraphic" in2="blurOut3" mode="normal"/></filter></defs><g><rect fill="#FFFFFF" filter="url(#f2cfebg4egumb)" height="1227.4922" style="stroke:#A80036;stroke-width:1.0;" width="10" x="100" y="99.6094"/><rect fill="#FFFFFF" filter="url(#f2cfebg4egumb)" height="241.7578" style="stroke:#A80036;stroke-width:1.0;" width="10" x="768" y="121.9609"/><rect fill="#FFFFFF" filter="url(#f2cfebg4egumb)" height="211.4063" style="stroke:#A80036;stroke-width:1.0;" width="10" x="768" y="419.4219"/><rect fill="#FFFFFF" filter="url(#f2cfebg4egumb)" height="30.3516" style="stroke:#A80036;stroke-width:1.0;" width="10" x="768" y="686.5313"/><rect fill="#FFFFFF" filter="url(#f2cfebg4egumb)" height="563.8672" style="stroke:#A80036;stroke-width:1.0;" width="10" x="768" y="747.2344"/><rect fill="#FFFFFF" filter="url(#f2cfebg4egumb)" height="181.0547" style="stroke:#A80036;stroke-width:1.0;" width="10" x="987" y="152.3125"/><rect fill="#FFFFFF" filter="url(#f2cfebg4egumb)" height="435.8125" style="stroke:#A80036;stroke-width:1.0;" width="10" x="987" y="844.9375"/><rect fill="#FFFFFF" filter="url(#f2cfebg4egumb)" height="30" style="stroke:#A80036;stroke-width:1.0;" width="10" x="1274" y="182.6641"/><rect fill="#FFFFFF" filter="url(#f2cfebg4egumb)" height="30" style="stroke:#A80036;stroke-width:1.0;" width="10" x="1274" y="875.2891"/><rect fill="#FFFFFF" filter="url(#f2cfebg4egumb)" height="30" style="stroke:#A80036;stroke-width:1.0;" width="10" x="1274" y="1190.3984"/><rect fill="#FFFFFF" filter="url(#f2cfebg4egumb)" height="30" style="stroke:#A80036;stroke-width:1.0;" width="10" x="1385" y="243.0156"/><rect fill="#FFFFFF" filter="url(#f2cfebg4egumb)" height="30" style="stroke:#A80036;stroke-width:1.0;" width="10" x="1385" y="995.9922"/><rect fill="#FFFFFF" filter="url(#f2cfebg4egumb)" height="96.7031" style="stroke:#A80036;stroke-width:1.0;" width="10" x="1385" y="1056.3438"/><rect fill="#FFFFFF" filter="url(#f2cfebg4egumb)" height="30" style="stroke:#A80036;stroke-width:1.0;" width="10" x="1502" y="303.3672"/><rect fill="#FFFFFF" filter="url(#f2cfebg4egumb)" height="30" style="stroke:#A80036;stroke-width:1.0;" width="10" x="1619.5" y="449.7734"/><rect fill="#FFFFFF" filter="url(#f2cfebg4egumb)" height="30" style="stroke:#A80036;stroke-width:1.0;" width="10" x="1619.5" y="510.125"/><rect fill="#FFFFFF" filter="url(#f2cfebg4egumb)" height="30" style="stroke:#A80036;stroke-width:1.0;" width="10" x="1619.5" y="570.4766"/><rect fill="#FFFFFF" filter="url(#f2cfebg4egumb)" height="30" style="stroke:#A80036;stroke-width:1.0;" width="10" x="1619.5" y="784.5859"/><rect fill="#FFFFFF" filter="url(#f2cfebg4egumb)" height="30" style="stroke:#A80036;stroke-width:1.0;" width="10" x="1755.5" y="935.6406"/><rect fill="#FFFFFF" filter="url(#f2cfebg4egumb)" height="30" style="stroke:#A80036;stroke-width:1.0;" width="10" x="2270.5" y="1250.75"/><rect fill="#FFFFFF" filter="url(#f2cfebg4egumb)" height="66.3516" style="stroke:#A80036;stroke-width:1.0;" width="10" x="2416.5" y="1086.6953"/><rect fill="#FFFFFF" filter="url(#f2cfebg4egumb)" height="28" style="stroke:#A80036;stroke-width:1.0;" width="10" x="2421.5" y="1125.0469"/><rect fill="#FFFFFF" filter="url(#f2cfebg4egumb)" height="940.3828" style="stroke:#000000;stroke-width:2.0;" width="2568.5" x="10" y="378.7188"/><rect fill="#FFFFFF" filter="url(#f2cfebg4egumb)" height="109.4063" style="stroke:#000000;stroke-width:2.0;" width="819.5" x="20" y="645.8281"/><line style="stroke:#A80036;stroke-width:1.0;stroke-dasharray:5.0,5.0;" x1="105" x2="105" y1="89.6094" y2="1336.1016"/><line style="stroke:#A80036;stroke-width:1.0;stroke-dasharray:5.0,5.0;" x1="772.5" x2="772.5" y1="89.6094" y2="1336.1016"/><line style="stroke:#A80036;stroke-width:1.0;stroke-dasharray:5.0,5.0;" x1="991.5" x2="991.5" y1="89.6094" y2="1336.1016"/><line style="stroke:#A80036;stroke-width:1.0;stroke-dasharray:5.0,5.0;" x1="1279" x2="1279" y1="89.6094" y2="1336.1016"/><line style="stroke:#A80036;stroke-width:1.0;stroke-dasharray:5.0,5.0;" x1="1390" x2="1390" y1="89.6094" y2="1336.1016"/><line style="stroke:#A80036;stroke-width:1.0;stroke-dasharray:5.0,5.0;" x1="1507" x2="1507" y1="89.6094" y2="1336.1016"/><line style="stroke:#A80036;stroke-width:1.0;stroke-dasharray:5.0,5.0;" x1="1624" x2="1624" y1="89.6094" y2="1336.1016"/><line style="stroke:#A80036;stroke-width:1.0;stroke-dasharray:5.0,5.0;" x1="1760" x2="1760" y1="89.6094" y2="1336.1016"/><line style="stroke:#A80036;stroke-width:1.0;stroke-dasharray:5.0,5.0;" x1="1905" x2="1905" y1="89.6094" y2="1336.1016"/><line style="stroke:#A80036;stroke-width:1.0;stroke-dasharray:5.0,5.0;" x1="2076" x2="2076" y1="89.6094" y2="1336.1016"/><line style="stroke:#A80036;stroke-width:1.0;stroke-dasharray:5.0,5.0;" x1="2275" x2="2275" y1="89.6094" y2="1336.1016"/><line style="stroke:#A80036;stroke-width:1.0;stroke-dasharray:5.0,5.0;" x1="2421" x2="2421" y1="89.6094" y2="1336.1016"/><text fill="#000000" font-family="sans-serif" font-size="14" lengthAdjust="spacing" textLength="144" x="30" y="86.5332">LaboratoryCoordinator</text><ellipse cx="105" cy="15" fill="#FEFECE" filter="url(#f2cfebg4egumb)" rx="8" ry="8" style="stroke:#A80036;stroke-width:2.0;"/><path d="M105,23 L105,50 M92,31 L118,31 M105,50 L92,65 M105,50 L118,65 " fill="none" filter="url(#f2cfebg4egumb)" style="stroke:#A80036;stroke-width:2.0;"/><text fill="#000000" font-family="sans-serif" font-size="14" lengthAdjust="spacing" textLength="144" x="30" y="1349.6348">LaboratoryCoordinator</text><ellipse cx="105" cy="1362.7109" fill="#FEFECE" filter="url(#f2cfebg4egumb)" rx="8" ry="8" style="stroke:#A80036;stroke-width:2.0;"/><path d="M105,1370.7109 L105,1397.7109 M92,1378.7109 L118,1378.7109 M105,1397.7109 L92,1412.7109 M105,1397.7109 L118,1412.7109 " fill="none" filter="url(#f2cfebg4egumb)" style="stroke:#A80036;stroke-width:2.0;"/><rect fill="#FEFECE" filter="url(#f2cfebg4egumb)" height="31.6094" style="stroke:#A80036;stroke-width:1.5;" width="109" x="716.5" y="53"/><text fill="#000000" font-family="sans-serif" font-size="14" lengthAdjust="spacing" textLength="95" x="723.5" y="74.5332">:ValidateTestUI</text><rect fill="#FEFECE" filter="url(#f2cfebg4egumb)" height="31.6094" style="stroke:#A80036;stroke-width:1.5;" width="109" x="716.5" y="1335.1016"/><text fill="#000000" font-family="sans-serif" font-size="14" lengthAdjust="spacing" textLength="95" x="723.5" y="1356.6348">:ValidateTestUI</text><rect fill="#FEFECE" filter="url(#f2cfebg4egumb)" height="31.6094" style="stroke:#A80036;stroke-width:1.5;" width="159" x="910.5" y="53"/><text fill="#000000" font-family="sans-serif" font-size="14" lengthAdjust="spacing" textLength="145" x="917.5" y="74.5332">:ValidateTestController</text><rect fill="#FEFECE" filter="url(#f2cfebg4egumb)" height="31.6094" style="stroke:#A80036;stroke-width:1.5;" width="159" x="910.5" y="1335.1016"/><text fill="#000000" font-family="sans-serif" font-size="14" lengthAdjust="spacing" textLength="145" x="917.5" y="1356.6348">:ValidateTestController</text><rect fill="#FEFECE" filter="url(#f2cfebg4egumb)" height="31.6094" style="stroke:#A80036;stroke-width:1.5;" width="78" x="1238" y="53"/><text fill="#000000" font-family="sans-serif" font-size="14" lengthAdjust="spacing" textLength="64" x="1245" y="74.5332">:Company</text><rect fill="#FEFECE" filter="url(#f2cfebg4egumb)" height="31.6094" style="stroke:#A80036;stroke-width:1.5;" width="78" x="1238" y="1335.1016"/><text fill="#000000" font-family="sans-serif" font-size="14" lengthAdjust="spacing" textLength="64" x="1245" y="1356.6348">:Company</text><rect fill="#FEFECE" filter="url(#f2cfebg4egumb)" height="31.6094" style="stroke:#A80036;stroke-width:1.5;" width="116" x="1330" y="53"/><text fill="#000000" font-family="sans-serif" font-size="14" lengthAdjust="spacing" textLength="102" x="1337" y="74.5332">store: TestStore</text><rect fill="#FEFECE" filter="url(#f2cfebg4egumb)" height="31.6094" style="stroke:#A80036;stroke-width:1.5;" width="116" x="1330" y="1335.1016"/><text fill="#000000" font-family="sans-serif" font-size="14" lengthAdjust="spacing" textLength="102" x="1337" y="1356.6348">store: TestStore</text><rect fill="#FEFECE" filter="url(#f2cfebg4egumb)" height="31.6094" style="stroke:#A80036;stroke-width:1.5;" width="90" x="1460" y="53"/><text fill="#000000" font-family="sans-serif" font-size="14" lengthAdjust="spacing" textLength="76" x="1467" y="74.5332">TestMapper</text><rect fill="#FEFECE" filter="url(#f2cfebg4egumb)" height="31.6094" style="stroke:#A80036;stroke-width:1.5;" width="90" x="1460" y="1335.1016"/><text fill="#000000" font-family="sans-serif" font-size="14" lengthAdjust="spacing" textLength="76" x="1467" y="1356.6348">TestMapper</text><rect fill="#FEFECE" filter="url(#f2cfebg4egumb)" height="31.6094" style="stroke:#A80036;stroke-width:1.5;" width="117" x="1564" y="53"/><text fill="#000000" font-family="sans-serif" font-size="14" lengthAdjust="spacing" textLength="103" x="1571" y="74.5332">testDto: TestDto</text><rect fill="#FEFECE" filter="url(#f2cfebg4egumb)" height="31.6094" style="stroke:#A80036;stroke-width:1.5;" width="117" x="1564" y="1335.1016"/><text fill="#000000" font-family="sans-serif" font-size="14" lengthAdjust="spacing" textLength="103" x="1571" y="1356.6348">testDto: TestDto</text><rect fill="#FEFECE" filter="url(#f2cfebg4egumb)" height="31.6094" style="stroke:#A80036;stroke-width:1.5;" width="127" x="1695" y="53"/><text fill="#000000" font-family="sans-serif" font-size="14" lengthAdjust="spacing" textLength="113" x="1702" y="74.5332">store:ReportStore</text><rect fill="#FEFECE" filter="url(#f2cfebg4egumb)" height="31.6094" style="stroke:#A80036;stroke-width:1.5;" width="127" x="1695" y="1335.1016"/><text fill="#000000" font-family="sans-serif" font-size="14" lengthAdjust="spacing" textLength="113" x="1702" y="1356.6348">store:ReportStore</text><rect fill="#FEFECE" filter="url(#f2cfebg4egumb)" height="31.6094" style="stroke:#A80036;stroke-width:1.5;" width="135" x="1836" y="53"/><text fill="#000000" font-family="sans-serif" font-size="14" lengthAdjust="spacing" textLength="121" x="1843" y="74.5332">testsList: list&lt;Test&gt;</text><rect fill="#FEFECE" filter="url(#f2cfebg4egumb)" height="31.6094" style="stroke:#A80036;stroke-width:1.5;" width="135" x="1836" y="1335.1016"/><text fill="#000000" font-family="sans-serif" font-size="14" lengthAdjust="spacing" textLength="121" x="1843" y="1356.6348">testsList: list&lt;Test&gt;</text><rect fill="#FEFECE" filter="url(#f2cfebg4egumb)" height="31.6094" style="stroke:#A80036;stroke-width:1.5;" width="179" x="1985" y="53"/><text fill="#000000" font-family="sans-serif" font-size="14" lengthAdjust="spacing" textLength="165" x="1992" y="74.5332">testsListDto: list&lt;TestDto&gt;</text><rect fill="#FEFECE" filter="url(#f2cfebg4egumb)" height="31.6094" style="stroke:#A80036;stroke-width:1.5;" width="179" x="1985" y="1335.1016"/><text fill="#000000" font-family="sans-serif" font-size="14" lengthAdjust="spacing" textLength="165" x="1992" y="1356.6348">testsListDto: list&lt;TestDto&gt;</text><rect fill="#FEFECE" filter="url(#f2cfebg4egumb)" height="31.6094" style="stroke:#A80036;stroke-width:1.5;" width="191" x="2178" y="53"/><text fill="#000000" font-family="sans-serif" font-size="14" lengthAdjust="spacing" textLength="177" x="2185" y="74.5332">sendNotification: Notification</text><rect fill="#FEFECE" filter="url(#f2cfebg4egumb)" height="31.6094" style="stroke:#A80036;stroke-width:1.5;" width="191" x="2178" y="1335.1016"/><text fill="#000000" font-family="sans-serif" font-size="14" lengthAdjust="spacing" textLength="177" x="2185" y="1356.6348">sendNotification: Notification</text><rect fill="#FEFECE" filter="url(#f2cfebg4egumb)" height="31.6094" style="stroke:#A80036;stroke-width:1.5;" width="73" x="2383" y="53"/><text fill="#000000" font-family="sans-serif" font-size="14" lengthAdjust="spacing" textLength="59" x="2390" y="74.5332">test: Test</text><rect fill="#FEFECE" filter="url(#f2cfebg4egumb)" height="31.6094" style="stroke:#A80036;stroke-width:1.5;" width="73" x="2383" y="1335.1016"/><text fill="#000000" font-family="sans-serif" font-size="14" lengthAdjust="spacing" textLength="59" x="2390" y="1356.6348">test: Test</text><rect fill="#FFFFFF" filter="url(#f2cfebg4egumb)" height="1227.4922" style="stroke:#A80036;stroke-width:1.0;" width="10" x="100" y="99.6094"/><rect fill="#FFFFFF" filter="url(#f2cfebg4egumb)" height="241.7578" style="stroke:#A80036;stroke-width:1.0;" width="10" x="768" y="121.9609"/><rect fill="#FFFFFF" filter="url(#f2cfebg4egumb)" height="211.4063" style="stroke:#A80036;stroke-width:1.0;" width="10" x="768" y="419.4219"/><rect fill="#FFFFFF" filter="url(#f2cfebg4egumb)" height="30.3516" style="stroke:#A80036;stroke-width:1.0;" width="10" x="768" y="686.5313"/><rect fill="#FFFFFF" filter="url(#f2cfebg4egumb)" height="563.8672" style="stroke:#A80036;stroke-width:1.0;" width="10" x="768" y="747.2344"/><rect fill="#FFFFFF" filter="url(#f2cfebg4egumb)" height="181.0547" style="stroke:#A80036;stroke-width:1.0;" width="10" x="987" y="152.3125"/><rect fill="#FFFFFF" filter="url(#f2cfebg4egumb)" height="435.8125" style="stroke:#A80036;stroke-width:1.0;" width="10" x="987" y="844.9375"/><rect fill="#FFFFFF" filter="url(#f2cfebg4egumb)" height="30" style="stroke:#A80036;stroke-width:1.0;" width="10" x="1274" y="182.6641"/><rect fill="#FFFFFF" filter="url(#f2cfebg4egumb)" height="30" style="stroke:#A80036;stroke-width:1.0;" width="10" x="1274" y="875.2891"/><rect fill="#FFFFFF" filter="url(#f2cfebg4egumb)" height="30" style="stroke:#A80036;stroke-width:1.0;" width="10" x="1274" y="1190.3984"/><rect fill="#FFFFFF" filter="url(#f2cfebg4egumb)" height="30" style="stroke:#A80036;stroke-width:1.0;" width="10" x="1385" y="243.0156"/><rect fill="#FFFFFF" filter="url(#f2cfebg4egumb)" height="30" style="stroke:#A80036;stroke-width:1.0;" width="10" x="1385" y="995.9922"/><rect fill="#FFFFFF" filter="url(#f2cfebg4egumb)" height="96.7031" style="stroke:#A80036;stroke-width:1.0;" width="10" x="1385" y="1056.3438"/><rect fill="#FFFFFF" filter="url(#f2cfebg4egumb)" height="30" style="stroke:#A80036;stroke-width:1.0;" width="10" x="1502" y="303.3672"/><rect fill="#FFFFFF" filter="url(#f2cfebg4egumb)" height="30" style="stroke:#A80036;stroke-width:1.0;" width="10" x="1619.5" y="449.7734"/><rect fill="#FFFFFF" filter="url(#f2cfebg4egumb)" height="30" style="stroke:#A80036;stroke-width:1.0;" width="10" x="1619.5" y="510.125"/><rect fill="#FFFFFF" filter="url(#f2cfebg4egumb)" height="30" style="stroke:#A80036;stroke-width:1.0;" width="10" x="1619.5" y="570.4766"/><rect fill="#FFFFFF" filter="url(#f2cfebg4egumb)" height="30" style="stroke:#A80036;stroke-width:1.0;" width="10" x="1619.5" y="784.5859"/><rect fill="#FFFFFF" filter="url(#f2cfebg4egumb)" height="30" style="stroke:#A80036;stroke-width:1.0;" width="10" x="1755.5" y="935.6406"/><rect fill="#FFFFFF" filter="url(#f2cfebg4egumb)" height="30" style="stroke:#A80036;stroke-width:1.0;" width="10" x="2270.5" y="1250.75"/><rect fill="#FFFFFF" filter="url(#f2cfebg4egumb)" height="66.3516" style="stroke:#A80036;stroke-width:1.0;" width="10" x="2416.5" y="1086.6953"/><rect fill="#FFFFFF" filter="url(#f2cfebg4egumb)" height="28" style="stroke:#A80036;stroke-width:1.0;" width="10" x="2421.5" y="1125.0469"/><polygon fill="#A80036" points="756,117.9609,766,121.9609,756,125.9609,760,121.9609" style="stroke:#A80036;stroke-width:1.0;"/><line style="stroke:#A80036;stroke-width:1.0;" x1="110" x2="762" y1="121.9609" y2="121.9609"/><text fill="#000000" font-family="sans-serif" font-size="13" font-weight="bold" lengthAdjust="spacing" textLength="7" x="117" y="117.1045">1</text><text fill="#000000" font-family="sans-serif" font-size="13" lengthAdjust="spacing" textLength="185" x="128" y="117.1045">validate a Test Result/Diagnosis</text><polygon fill="#A80036" points="975,148.3125,985,152.3125,975,156.3125,979,152.3125" style="stroke:#A80036;stroke-width:1.0;"/><line style="stroke:#A80036;stroke-width:1.0;" x1="778" x2="981" y1="152.3125" y2="152.3125"/><text fill="#000000" font-family="sans-serif" font-size="13" font-weight="bold" lengthAdjust="spacing" textLength="7" x="785" y="147.4561">2</text><text fill="#000000" font-family="sans-serif" font-size="13" lengthAdjust="spacing" textLength="179" x="796" y="147.4561">testsListDto = getAllTestsDto()</text><polygon fill="#A80036" points="1262,178.6641,1272,182.6641,1262,186.6641,1266,182.6641" style="stroke:#A80036;stroke-width:1.0;"/><line style="stroke:#A80036;stroke-width:1.0;" x1="997" x2="1268" y1="182.6641" y2="182.6641"/><text fill="#000000" font-family="sans-serif" font-size="13" font-weight="bold" lengthAdjust="spacing" textLength="7" x="1004" y="177.8076">3</text><text fill="#000000" font-family="sans-serif" font-size="13" lengthAdjust="spacing" textLength="127" x="1015" y="177.8076">store = getTestStore()</text><polygon fill="#A80036" points="1373,239.0156,1383,243.0156,1373,247.0156,1377,243.0156" style="stroke:#A80036;stroke-width:1.0;"/><line style="stroke:#A80036;stroke-width:1.0;" x1="997" x2="1379" y1="243.0156" y2="243.0156"/><text fill="#000000" font-family="sans-serif" font-size="13" font-weight="bold" lengthAdjust="spacing" textLength="7" x="1004" y="238.1592">4</text><text fill="#000000" font-family="sans-serif" font-size="13" lengthAdjust="spacing" textLength="138" x="1015" y="238.1592">testsList = getTestList()</text><polygon fill="#A80036" points="1490,299.3672,1500,303.3672,1490,307.3672,1494,303.3672" style="stroke:#A80036;stroke-width:1.0;"/><line style="stroke:#A80036;stroke-width:1.0;" x1="997" x2="1496" y1="303.3672" y2="303.3672"/><text fill="#000000" font-family="sans-serif" font-size="13" font-weight="bold" lengthAdjust="spacing" textLength="7" x="1004" y="298.5107">5</text><text fill="#000000" font-family="sans-serif" font-size="13" lengthAdjust="spacing" textLength="205" x="1015" y="298.5107">testsListDto = toDtoLabC(testsList)</text><polygon fill="#A80036" points="121,359.7188,111,363.7188,121,367.7188,117,363.7188" style="stroke:#A80036;stroke-width:1.0;"/><line style="stroke:#A80036;stroke-width:1.0;stroke-dasharray:2.0,2.0;" x1="115" x2="772" y1="363.7188" y2="363.7188"/><text fill="#000000" font-family="sans-serif" font-size="13" font-weight="bold" lengthAdjust="spacing" textLength="7" x="127" y="358.8623">6</text><text fill="#000000" font-family="sans-serif" font-size="13" lengthAdjust="spacing" textLength="203" x="138" y="358.8623">shows a list of to-be validated tests</text><path d="M10,378.7188 L83,378.7188 L83,386.7188 L73,396.7188 L10,396.7188 L10,378.7188 " fill="#EEEEEE" style="stroke:#000000;stroke-width:1.0;"/><rect fill="none" height="940.3828" style="stroke:#000000;stroke-width:2.0;" width="2568.5" x="10" y="378.7188"/><text fill="#000000" font-family="sans-serif" font-size="13" font-weight="bold" lengthAdjust="spacing" textLength="28" x="25" y="393.2139">loop</text><text fill="#000000" font-family="sans-serif" font-size="11" font-weight="bold" lengthAdjust="spacing" textLength="121" x="98" y="392.1377">[for the chosen tests]</text><polygon fill="#A80036" points="756,415.4219,766,419.4219,756,423.4219,760,419.4219" style="stroke:#A80036;stroke-width:1.0;"/><line style="stroke:#A80036;stroke-width:1.0;" x1="110" x2="762" y1="419.4219" y2="419.4219"/><text fill="#000000" font-family="sans-serif" font-size="13" font-weight="bold" lengthAdjust="spacing" textLength="7" x="117" y="414.5654">7</text><text fill="#000000" font-family="sans-serif" font-size="13" lengthAdjust="spacing" textLength="151" x="128" y="414.5654">selects a test from the list</text><polygon fill="#A80036" points="1607.5,445.7734,1617.5,449.7734,1607.5,453.7734,1611.5,449.7734" style="stroke:#A80036;stroke-width:1.0;"/><line style="stroke:#A80036;stroke-width:1.0;" x1="778" x2="1613.5" y1="449.7734" y2="449.7734"/><text fill="#000000" font-family="sans-serif" font-size="13" font-weight="bold" lengthAdjust="spacing" textLength="7" x="785" y="444.917">8</text><text fill="#000000" font-family="sans-serif" font-size="13" lengthAdjust="spacing" textLength="229" x="796" y="444.917">registrationDate = getRegistrationDate()</text><polygon fill="#A80036" points="1607.5,506.125,1617.5,510.125,1607.5,514.125,1611.5,510.125" style="stroke:#A80036;stroke-width:1.0;"/><line style="stroke:#A80036;stroke-width:1.0;" x1="778" x2="1613.5" y1="510.125" y2="510.125"/><text fill="#000000" font-family="sans-serif" font-size="13" font-weight="bold" lengthAdjust="spacing" textLength="7" x="785" y="505.2686">9</text><text fill="#000000" font-family="sans-serif" font-size="13" lengthAdjust="spacing" textLength="302" x="796" y="505.2686">chemicalAnalysisDate = getChemicalAnalysisDate()</text><polygon fill="#A80036" points="1607.5,566.4766,1617.5,570.4766,1607.5,574.4766,1611.5,570.4766" style="stroke:#A80036;stroke-width:1.0;"/><line style="stroke:#A80036;stroke-width:1.0;" x1="778" x2="1613.5" y1="570.4766" y2="570.4766"/><text fill="#000000" font-family="sans-serif" font-size="13" font-weight="bold" lengthAdjust="spacing" textLength="14" x="785" y="565.6201">10</text><text fill="#000000" font-family="sans-serif" font-size="13" lengthAdjust="spacing" textLength="208" x="803" y="565.6201">diagnosisDate = getDiagnosisDate()</text><polygon fill="#A80036" points="121,626.8281,111,630.8281,121,634.8281,117,630.8281" style="stroke:#A80036;stroke-width:1.0;"/><line style="stroke:#A80036;stroke-width:1.0;stroke-dasharray:2.0,2.0;" x1="115" x2="772" y1="630.8281" y2="630.8281"/><text fill="#000000" font-family="sans-serif" font-size="13" font-weight="bold" lengthAdjust="spacing" textLength="14" x="127" y="625.9717">11</text><text fill="#000000" font-family="sans-serif" font-size="13" lengthAdjust="spacing" textLength="616" x="145" y="625.9717">displays its data (registration date, chemical analysis date, diagnosis date) and request to chose if its valid</text><path d="M20,645.8281 L93,645.8281 L93,653.8281 L83,663.8281 L20,663.8281 L20,645.8281 " fill="#EEEEEE" style="stroke:#000000;stroke-width:1.0;"/><rect fill="none" height="109.4063" style="stroke:#000000;stroke-width:2.0;" width="819.5" x="20" y="645.8281"/><text fill="#000000" font-family="sans-serif" font-size="13" font-weight="bold" lengthAdjust="spacing" textLength="28" x="35" y="660.3232">loop</text><text fill="#000000" font-family="sans-serif" font-size="11" font-weight="bold" lengthAdjust="spacing" textLength="452" x="108" y="659.2471">[until the Laboratory Coordinator confirms the selected state of the chosen tests]</text><polygon fill="#A80036" points="756,682.5313,766,686.5313,756,690.5313,760,686.5313" style="stroke:#A80036;stroke-width:1.0;"/><line style="stroke:#A80036;stroke-width:1.0;" x1="110" x2="762" y1="686.5313" y2="686.5313"/><text fill="#000000" font-family="sans-serif" font-size="13" font-weight="bold" lengthAdjust="spacing" textLength="14" x="117" y="681.6748">12</text><text fill="#000000" font-family="sans-serif" font-size="13" lengthAdjust="spacing" textLength="143" x="135" y="681.6748">selects the desired state</text><polygon fill="#A80036" points="121,712.8828,111,716.8828,121,720.8828,117,716.8828" style="stroke:#A80036;stroke-width:1.0;"/><line style="stroke:#A80036;stroke-width:1.0;stroke-dasharray:2.0,2.0;" x1="115" x2="772" y1="716.8828" y2="716.8828"/><text fill="#000000" font-family="sans-serif" font-size="13" font-weight="bold" lengthAdjust="spacing" textLength="14" x="127" y="712.0264">13</text><text fill="#000000" font-family="sans-serif" font-size="13" lengthAdjust="spacing" textLength="212" x="145" y="712.0264">shows it and requests a confirmation</text><polygon fill="#A80036" points="756,743.2344,766,747.2344,756,751.2344,760,747.2344" style="stroke:#A80036;stroke-width:1.0;"/><line style="stroke:#A80036;stroke-width:1.0;" x1="110" x2="762" y1="747.2344" y2="747.2344"/><text fill="#000000" font-family="sans-serif" font-size="13" font-weight="bold" lengthAdjust="spacing" textLength="14" x="117" y="742.3779">14</text><text fill="#000000" font-family="sans-serif" font-size="13" lengthAdjust="spacing" textLength="157" x="135" y="742.3779">confirms the selected state</text><polygon fill="#A80036" points="1607.5,780.5859,1617.5,784.5859,1607.5,788.5859,1611.5,784.5859" style="stroke:#A80036;stroke-width:1.0;"/><line style="stroke:#A80036;stroke-width:1.0;" x1="778" x2="1613.5" y1="784.5859" y2="784.5859"/><text fill="#000000" font-family="sans-serif" font-size="13" font-weight="bold" lengthAdjust="spacing" textLength="14" x="785" y="779.7295">15</text><text fill="#000000" font-family="sans-serif" font-size="13" lengthAdjust="spacing" textLength="100" x="803" y="779.7295">code = getCode()</text><polygon fill="#A80036" points="975,840.9375,985,844.9375,975,848.9375,979,844.9375" style="stroke:#A80036;stroke-width:1.0;"/><line style="stroke:#A80036;stroke-width:1.0;" x1="778" x2="981" y1="844.9375" y2="844.9375"/><text fill="#000000" font-family="sans-serif" font-size="13" font-weight="bold" lengthAdjust="spacing" textLength="14" x="785" y="840.0811">16</text><text fill="#000000" font-family="sans-serif" font-size="13" lengthAdjust="spacing" textLength="104" x="803" y="840.0811">validateTest(code)</text><polygon fill="#A80036" points="1262,871.2891,1272,875.2891,1262,879.2891,1266,875.2891" style="stroke:#A80036;stroke-width:1.0;"/><line style="stroke:#A80036;stroke-width:1.0;" x1="997" x2="1268" y1="875.2891" y2="875.2891"/><text fill="#000000" font-family="sans-serif" font-size="13" font-weight="bold" lengthAdjust="spacing" textLength="14" x="1004" y="870.4326">17</text><text fill="#000000" font-family="sans-serif" font-size="13" lengthAdjust="spacing" textLength="140" x="1022" y="870.4326">store = getReportStore()</text><polygon fill="#A80036" points="1743.5,931.6406,1753.5,935.6406,1743.5,939.6406,1747.5,935.6406" style="stroke:#A80036;stroke-width:1.0;"/><line style="stroke:#A80036;stroke-width:1.0;" x1="997" x2="1749.5" y1="935.6406" y2="935.6406"/><text fill="#000000" font-family="sans-serif" font-size="13" font-weight="bold" lengthAdjust="spacing" textLength="14" x="1004" y="930.7842">18</text><text fill="#000000" font-family="sans-serif" font-size="13" lengthAdjust="spacing" textLength="117" x="1022" y="930.7842">validateReport(code)</text><polygon fill="#A80036" points="1373,991.9922,1383,995.9922,1373,999.9922,1377,995.9922" style="stroke:#A80036;stroke-width:1.0;"/><line style="stroke:#A80036;stroke-width:1.0;" x1="997" x2="1379" y1="995.9922" y2="995.9922"/><text fill="#000000" font-family="sans-serif" font-size="13" font-weight="bold" lengthAdjust="spacing" textLength="14" x="1004" y="991.1357">19</text><text fill="#000000" font-family="sans-serif" font-size="13" lengthAdjust="spacing" textLength="163" x="1022" y="991.1357">test = getTestByCode(code)</text><polygon fill="#A80036" points="1373,1052.3438,1383,1056.3438,1373,1060.3438,1377,1056.3438" style="stroke:#A80036;stroke-width:1.0;"/><line style="stroke:#A80036;stroke-width:1.0;" x1="997" x2="1379" y1="1056.3438" y2="1056.3438"/><text fill="#000000" font-family="sans-serif" font-size="13" font-weight="bold" lengthAdjust="spacing" textLength="14" x="1004" y="1051.4873">20</text><text fill="#000000" font-family="sans-serif" font-size="13" lengthAdjust="spacing" textLength="98" x="1022" y="1051.4873">validateTest(test)</text><polygon fill="#A80036" points="2404.5,1082.6953,2414.5,1086.6953,2404.5,1090.6953,2408.5,1086.6953" style="stroke:#A80036;stroke-width:1.0;"/><line style="stroke:#A80036;stroke-width:1.0;" x1="1395" x2="2410.5" y1="1086.6953" y2="1086.6953"/><text fill="#000000" font-family="sans-serif" font-size="13" font-weight="bold" lengthAdjust="spacing" textLength="14" x="1402" y="1081.8389">21</text><text fill="#000000" font-family="sans-serif" font-size="13" lengthAdjust="spacing" textLength="159" x="1420" y="1081.8389">updateValidationDateTime()</text><line style="stroke:#A80036;stroke-width:1.0;" x1="2431.5" x2="2473.5" y1="1117.0469" y2="1117.0469"/><line style="stroke:#A80036;stroke-width:1.0;" x1="2473.5" x2="2473.5" y1="1117.0469" y2="1130.0469"/><line style="stroke:#A80036;stroke-width:1.0;" x1="2432.5" x2="2473.5" y1="1130.0469" y2="1130.0469"/><polygon fill="#A80036" points="2442.5,1126.0469,2432.5,1130.0469,2442.5,1134.0469,2438.5,1130.0469" style="stroke:#A80036;stroke-width:1.0;"/><text fill="#000000" font-family="sans-serif" font-size="13" font-weight="bold" lengthAdjust="spacing" textLength="14" x="2438.5" y="1112.1904">22</text><text fill="#000000" font-family="sans-serif" font-size="13" lengthAdjust="spacing" textLength="110" x="2456.5" y="1112.1904">updateTestStatus()</text><polygon fill="#A80036" points="1262,1186.3984,1272,1190.3984,1262,1194.3984,1266,1190.3984" style="stroke:#A80036;stroke-width:1.0;"/><line style="stroke:#A80036;stroke-width:1.0;" x1="997" x2="1268" y1="1190.3984" y2="1190.3984"/><text fill="#000000" font-family="sans-serif" font-size="13" font-weight="bold" lengthAdjust="spacing" textLength="14" x="1004" y="1185.542">23</text><text fill="#000000" font-family="sans-serif" font-size="13" lengthAdjust="spacing" textLength="240" x="1022" y="1185.542">sendNotification = getNotificationService()</text><polygon fill="#A80036" points="2258.5,1246.75,2268.5,1250.75,2258.5,1254.75,2262.5,1250.75" style="stroke:#A80036;stroke-width:1.0;"/><line style="stroke:#A80036;stroke-width:1.0;" x1="997" x2="2264.5" y1="1250.75" y2="1250.75"/><text fill="#000000" font-family="sans-serif" font-size="13" font-weight="bold" lengthAdjust="spacing" textLength="14" x="1004" y="1245.8936">24</text><text fill="#000000" font-family="sans-serif" font-size="13" lengthAdjust="spacing" textLength="153" x="1022" y="1245.8936">sendNotification(message)</text><polygon fill="#A80036" points="121,1307.1016,111,1311.1016,121,1315.1016,117,1311.1016" style="stroke:#A80036;stroke-width:1.0;"/><line style="stroke:#A80036;stroke-width:1.0;stroke-dasharray:2.0,2.0;" x1="115" x2="772" y1="1311.1016" y2="1311.1016"/><text fill="#000000" font-family="sans-serif" font-size="13" font-weight="bold" lengthAdjust="spacing" textLength="14" x="127" y="1306.2451">25</text><text fill="#000000" font-family="sans-serif" font-size="13" lengthAdjust="spacing" textLength="188" x="145" y="1306.2451">informs about operation success</text><!--MD5=[36e6b8f2acaff0a7b68aa93f3e888bfc]
@startuml
autonumber

actor "LaboratoryCoordinator" as labC
activate labC

participant ":ValidateTestUI" as validateTestUI
participant ":ValidateTestController" as validateTestCont
participant ":Company" as comp
participant "store: TestStore" as TestStore
participant "TestMapper" as TestMapper
participant "testDto: TestDto" as TestDto
participant "store:ReportStore" as ReportStore
participant "testsList: list<Test>" as testsList
participant "testsListDto: list<TestDto>" as testsListDto
participant "sendNotification: Notification" as notification
participant "test: Test" as test


labC -> validateTestUI : validate a Test Result/Diagnosis


activate validateTestUI
validateTestUI -> validateTestCont: testsListDto = getAllTestsDto()


activate validateTestCont


validateTestCont -> comp : store = getTestStore()
activate comp
deactivate comp


validateTestCont -> TestStore : testsList = getTestList()
activate TestStore
deactivate TestStore


validateTestCont -> TestMapper : testsListDto = toDtoLabC(testsList)
activate TestMapper
deactivate TestMapper


deactivate validateTestCont


validateTestUI - -> labC : shows a list of to-be validated tests
deactivate validateTestUI


loop for the chosen tests
labC -> validateTestUI : selects a test from the list
activate validateTestUI


validateTestUI -> TestDto : registrationDate = getRegistrationDate()
activate TestDto
deactivate TestDto


validateTestUI -> TestDto : chemicalAnalysisDate = getChemicalAnalysisDate()
activate TestDto
deactivate TestDto


validateTestUI -> TestDto : diagnosisDate = getDiagnosisDate()
activate TestDto
deactivate TestDto


validateTestUI - -> labC : displays its data (registration date, chemical analysis date, diagnosis date) and request to chose if its valid
deactivate validateTestUI


deactivate validateTestUI


loop until the Laboratory Coordinator confirms the selected state of the chosen tests
labC -> validateTestUI : selects the desired state
activate validateTestUI


validateTestUI - -> labC : shows it and requests a confirmation
deactivate validateTestUI

labC -> validateTestUI : confirms the selected state
activate validateTestUI
end


validateTestUI -> TestDto : code = getCode()
activate TestDto
deactivate TestDto


validateTestUI -> validateTestCont : validateTest(code)


activate validateTestCont

validateTestCont -> comp: store = getReportStore()
activate comp
deactivate comp


validateTestCont -> ReportStore : validateReport(code)
activate ReportStore
deactivate ReportStore

validateTestCont -> TestStore : test = getTestByCode(code)
activate TestStore
deactivate TestStore

validateTestCont -> TestStore : validateTest(test)
activate TestStore


TestStore -> test ++: updateValidationDateTime()


test -> test ++: updateTestStatus()
deactivate test
deactivate test
deactivate TestStore


validateTestCont -> comp: sendNotification = getNotificationService()
activate comp
deactivate comp


validateTestCont -> notification: sendNotification(message)
activate notification
deactivate notification
deactivate validateTestCont


validateTestUI - -> labC : informs about operation success
deactivate validateTestCont
deactivate validateTestUI

end
@enduml

PlantUML version 1.2021.5(Sun Apr 25 12:20:28 BST 2021)
(GPL source distribution)
Java Runtime: OpenJDK Runtime Environment
JVM: OpenJDK 64-Bit Server VM
Default Encoding: Cp1252
Language: pt
Country: PT
--></g></svg>