<?xml version="1.0" encoding="UTF-8" standalone="no"?><svg xmlns="http://www.w3.org/2000/svg" xmlns:xlink="http://www.w3.org/1999/xlink" contentScriptType="application/ecmascript" contentStyleType="text/css" height="438px" preserveAspectRatio="none" style="width:801px;height:438px;" version="1.1" viewBox="0 0 801 438" width="801px" zoomAndPan="magnify"><defs><filter height="300%" id="f15krhs52cj8h8" width="300%" x="-1" y="-1"><feGaussianBlur result="blurOut" stdDeviation="2.0"/><feColorMatrix in="blurOut" result="blurOut2" type="matrix" values="0 0 0 0 0 0 0 0 0 0 0 0 0 0 0 0 0 0 .4 0"/><feOffset dx="4.0" dy="4.0" in="blurOut2" result="blurOut3"/><feBlend in="SourceGraphic" in2="blurOut3" mode="normal"/></filter></defs><g><rect fill="#FFFFFF" filter="url(#f15krhs52cj8h8)" height="243.8125" style="stroke:#A80036;stroke-width:1.0;" width="10" x="77" y="99.6094"/><rect fill="#FFFFFF" filter="url(#f15krhs52cj8h8)" height="30.3516" style="stroke:#A80036;stroke-width:1.0;" width="10" x="754" y="121.9609"/><rect fill="#FFFFFF" filter="url(#f15krhs52cj8h8)" height="30.3516" style="stroke:#A80036;stroke-width:1.0;" width="10" x="754" y="182.6641"/><rect fill="#FFFFFF" filter="url(#f15krhs52cj8h8)" height="30.3516" style="stroke:#A80036;stroke-width:1.0;" width="10" x="754" y="243.3672"/><rect fill="#FFFFFF" filter="url(#f15krhs52cj8h8)" height="30.3516" style="stroke:#A80036;stroke-width:1.0;" width="10" x="754" y="304.0703"/><line style="stroke:#A80036;stroke-width:1.0;stroke-dasharray:5.0,5.0;" x1="82" x2="82" y1="89.6094" y2="352.4219"/><line style="stroke:#A80036;stroke-width:1.0;stroke-dasharray:5.0,5.0;" x1="759" x2="759" y1="89.6094" y2="352.4219"/><text fill="#000000" font-family="sans-serif" font-size="14" lengthAdjust="spacing" textLength="148" x="5" y="86.5332">Laboratory Coordinator</text><ellipse cx="82" cy="15" fill="#FEFECE" filter="url(#f15krhs52cj8h8)" rx="8" ry="8" style="stroke:#A80036;stroke-width:2.0;"/><path d="M82,23 L82,50 M69,31 L95,31 M82,50 L69,65 M82,50 L95,65 " fill="none" filter="url(#f15krhs52cj8h8)" style="stroke:#A80036;stroke-width:2.0;"/><text fill="#000000" font-family="sans-serif" font-size="14" lengthAdjust="spacing" textLength="148" x="5" y="365.9551">Laboratory Coordinator</text><ellipse cx="82" cy="379.0313" fill="#FEFECE" filter="url(#f15krhs52cj8h8)" rx="8" ry="8" style="stroke:#A80036;stroke-width:2.0;"/><path d="M82,387.0313 L82,414.0313 M69,395.0313 L95,395.0313 M82,414.0313 L69,429.0313 M82,414.0313 L95,429.0313 " fill="none" filter="url(#f15krhs52cj8h8)" style="stroke:#A80036;stroke-width:2.0;"/><rect fill="#FEFECE" filter="url(#f15krhs52cj8h8)" height="31.6094" style="stroke:#A80036;stroke-width:1.5;" width="60" x="727" y="53"/><text fill="#000000" font-family="sans-serif" font-size="14" lengthAdjust="spacing" textLength="46" x="734" y="74.5332">System</text><rect fill="#FEFECE" filter="url(#f15krhs52cj8h8)" height="31.6094" style="stroke:#A80036;stroke-width:1.5;" width="60" x="727" y="351.4219"/><text fill="#000000" font-family="sans-serif" font-size="14" lengthAdjust="spacing" textLength="46" x="734" y="372.9551">System</text><rect fill="#FFFFFF" filter="url(#f15krhs52cj8h8)" height="243.8125" style="stroke:#A80036;stroke-width:1.0;" width="10" x="77" y="99.6094"/><rect fill="#FFFFFF" filter="url(#f15krhs52cj8h8)" height="30.3516" style="stroke:#A80036;stroke-width:1.0;" width="10" x="754" y="121.9609"/><rect fill="#FFFFFF" filter="url(#f15krhs52cj8h8)" height="30.3516" style="stroke:#A80036;stroke-width:1.0;" width="10" x="754" y="182.6641"/><rect fill="#FFFFFF" filter="url(#f15krhs52cj8h8)" height="30.3516" style="stroke:#A80036;stroke-width:1.0;" width="10" x="754" y="243.3672"/><rect fill="#FFFFFF" filter="url(#f15krhs52cj8h8)" height="30.3516" style="stroke:#A80036;stroke-width:1.0;" width="10" x="754" y="304.0703"/><polygon fill="#A80036" points="742,117.9609,752,121.9609,742,125.9609,746,121.9609" style="stroke:#A80036;stroke-width:1.0;"/><line style="stroke:#A80036;stroke-width:1.0;" x1="87" x2="748" y1="121.9609" y2="121.9609"/><text fill="#000000" font-family="sans-serif" font-size="13" font-weight="bold" lengthAdjust="spacing" textLength="7" x="94" y="117.1045">1</text><text fill="#000000" font-family="sans-serif" font-size="13" lengthAdjust="spacing" textLength="185" x="105" y="117.1045">validate a Test Result/Diagnosis</text><polygon fill="#A80036" points="98,148.3125,88,152.3125,98,156.3125,94,152.3125" style="stroke:#A80036;stroke-width:1.0;"/><line style="stroke:#A80036;stroke-width:1.0;stroke-dasharray:2.0,2.0;" x1="92" x2="758" y1="152.3125" y2="152.3125"/><text fill="#000000" font-family="sans-serif" font-size="13" font-weight="bold" lengthAdjust="spacing" textLength="7" x="104" y="147.4561">2</text><text fill="#000000" font-family="sans-serif" font-size="13" lengthAdjust="spacing" textLength="203" x="115" y="147.4561">shows a list of to-be validated tests</text><polygon fill="#A80036" points="742,178.6641,752,182.6641,742,186.6641,746,182.6641" style="stroke:#A80036;stroke-width:1.0;"/><line style="stroke:#A80036;stroke-width:1.0;" x1="87" x2="748" y1="182.6641" y2="182.6641"/><text fill="#000000" font-family="sans-serif" font-size="13" font-weight="bold" lengthAdjust="spacing" textLength="7" x="94" y="177.8076">3</text><text fill="#000000" font-family="sans-serif" font-size="13" lengthAdjust="spacing" textLength="151" x="105" y="177.8076">selects a test from the list</text><polygon fill="#A80036" points="98,209.0156,88,213.0156,98,217.0156,94,213.0156" style="stroke:#A80036;stroke-width:1.0;"/><line style="stroke:#A80036;stroke-width:1.0;stroke-dasharray:2.0,2.0;" x1="92" x2="758" y1="213.0156" y2="213.0156"/><text fill="#000000" font-family="sans-serif" font-size="13" font-weight="bold" lengthAdjust="spacing" textLength="7" x="104" y="208.1592">4</text><text fill="#000000" font-family="sans-serif" font-size="13" lengthAdjust="spacing" textLength="632" x="115" y="208.1592">displays its data (registration date, chemical analysis date, diagnosis date) and requests to choose if it's valid</text><polygon fill="#A80036" points="742,239.3672,752,243.3672,742,247.3672,746,243.3672" style="stroke:#A80036;stroke-width:1.0;"/><line style="stroke:#A80036;stroke-width:1.0;" x1="87" x2="748" y1="243.3672" y2="243.3672"/><text fill="#000000" font-family="sans-serif" font-size="13" font-weight="bold" lengthAdjust="spacing" textLength="7" x="94" y="238.5107">5</text><text fill="#000000" font-family="sans-serif" font-size="13" lengthAdjust="spacing" textLength="143" x="105" y="238.5107">selects the desired state</text><polygon fill="#A80036" points="98,269.7188,88,273.7188,98,277.7188,94,273.7188" style="stroke:#A80036;stroke-width:1.0;"/><line style="stroke:#A80036;stroke-width:1.0;stroke-dasharray:2.0,2.0;" x1="92" x2="758" y1="273.7188" y2="273.7188"/><text fill="#000000" font-family="sans-serif" font-size="13" font-weight="bold" lengthAdjust="spacing" textLength="7" x="104" y="268.8623">6</text><text fill="#000000" font-family="sans-serif" font-size="13" lengthAdjust="spacing" textLength="212" x="115" y="268.8623">shows it and requests a confirmation</text><polygon fill="#A80036" points="742,300.0703,752,304.0703,742,308.0703,746,304.0703" style="stroke:#A80036;stroke-width:1.0;"/><line style="stroke:#A80036;stroke-width:1.0;" x1="87" x2="748" y1="304.0703" y2="304.0703"/><text fill="#000000" font-family="sans-serif" font-size="13" font-weight="bold" lengthAdjust="spacing" textLength="7" x="94" y="299.2139">7</text><text fill="#000000" font-family="sans-serif" font-size="13" lengthAdjust="spacing" textLength="157" x="105" y="299.2139">confirms the selected state</text><polygon fill="#A80036" points="98,330.4219,88,334.4219,98,338.4219,94,334.4219" style="stroke:#A80036;stroke-width:1.0;"/><line style="stroke:#A80036;stroke-width:1.0;stroke-dasharray:2.0,2.0;" x1="92" x2="758" y1="334.4219" y2="334.4219"/><text fill="#000000" font-family="sans-serif" font-size="13" font-weight="bold" lengthAdjust="spacing" textLength="7" x="104" y="329.5654">8</text><text fill="#000000" font-family="sans-serif" font-size="13" lengthAdjust="spacing" textLength="283" x="115" y="329.5654">saves it and informs about the operation success</text><!--MD5=[67f7019eaf55954ec10bf64a02635609]
@startuml
autonumber

actor "Laboratory Coordinator" as labC
activate labC

labC -> System ++: validate a Test Result/Diagnosis
System - -> labC - -: shows a list of to-be validated tests
labC -> System ++: selects a test from the list
System - ->  labC - -: displays its data (registration date, chemical analysis date, diagnosis date) and requests to choose if it's valid
labC ->  System ++: selects the desired state
System - -> labC - -: shows it and requests a confirmation
labC -> System ++: confirms the selected state
System - -> labC - -: saves it and informs about the operation success

@enduml

PlantUML version 1.2021.5(Sun Apr 25 12:20:28 BST 2021)
(GPL source distribution)
Java Runtime: OpenJDK Runtime Environment
JVM: OpenJDK 64-Bit Server VM
Default Encoding: Cp1252
Language: pt
Country: PT
--></g></svg>