<?xml version="1.0" encoding="UTF-8" standalone="no"?><svg xmlns="http://www.w3.org/2000/svg" xmlns:xlink="http://www.w3.org/1999/xlink" contentScriptType="application/ecmascript" contentStyleType="text/css" height="442px" preserveAspectRatio="none" style="width:850px;height:442px;background:#FFFFFF;" version="1.1" viewBox="0 0 850 442" width="850px" zoomAndPan="magnify"><defs><filter height="300%" id="f1tyhbz7670g9j" width="300%" x="-1" y="-1"><feGaussianBlur result="blurOut" stdDeviation="2.0"/><feColorMatrix in="blurOut" result="blurOut2" type="matrix" values="0 0 0 0 0 0 0 0 0 0 0 0 0 0 0 0 0 0 .4 0"/><feOffset dx="4.0" dy="4.0" in="blurOut2" result="blurOut3"/><feBlend in="SourceGraphic" in2="blurOut3" mode="normal"/></filter></defs><g><rect fill="#FFFFFF" filter="url(#f1tyhbz7670g9j)" height="247.8125" style="stroke:#A80036;stroke-width:1.0;" width="10" x="102" y="99.6094"/><rect fill="#FFFFFF" filter="url(#f1tyhbz7670g9j)" height="30.3516" style="stroke:#A80036;stroke-width:1.0;" width="10" x="779" y="121.9609"/><rect fill="#FFFFFF" filter="url(#f1tyhbz7670g9j)" height="30.3516" style="stroke:#A80036;stroke-width:1.0;" width="10" x="779" y="208.0156"/><rect fill="#FFFFFF" filter="url(#f1tyhbz7670g9j)" height="37.3516" style="stroke:#A80036;stroke-width:1.0;" width="10" x="779" y="294.0703"/><rect fill="#FFFFFF" filter="url(#f1tyhbz7670g9j)" height="172.1094" style="stroke:#000000;stroke-width:2.0;" width="826" x="10" y="167.3125"/><rect fill="#FFFFFF" filter="url(#f1tyhbz7670g9j)" height="48.7031" style="stroke:#000000;stroke-width:2.0;" width="806" x="20" y="253.3672"/><line style="stroke:#A80036;stroke-width:1.0;stroke-dasharray:5.0,5.0;" x1="107" x2="107" y1="89.6094" y2="356.4219"/><line style="stroke:#A80036;stroke-width:1.0;stroke-dasharray:5.0,5.0;" x1="784" x2="784" y1="89.6094" y2="356.4219"/><text fill="#000000" font-family="sans-serif" font-size="14" lengthAdjust="spacing" textLength="148" x="30" y="86.5332">Laboratory Coordinator</text><ellipse cx="107" cy="15" fill="#FEFECE" filter="url(#f1tyhbz7670g9j)" rx="8" ry="8" style="stroke:#A80036;stroke-width:2.0;"/><path d="M107,23 L107,50 M94,31 L120,31 M107,50 L94,65 M107,50 L120,65 " fill="none" filter="url(#f1tyhbz7670g9j)" style="stroke:#A80036;stroke-width:2.0;"/><text fill="#000000" font-family="sans-serif" font-size="14" lengthAdjust="spacing" textLength="148" x="30" y="369.9551">Laboratory Coordinator</text><ellipse cx="107" cy="383.0313" fill="#FEFECE" filter="url(#f1tyhbz7670g9j)" rx="8" ry="8" style="stroke:#A80036;stroke-width:2.0;"/><path d="M107,391.0313 L107,418.0313 M94,399.0313 L120,399.0313 M107,418.0313 L94,433.0313 M107,418.0313 L120,433.0313 " fill="none" filter="url(#f1tyhbz7670g9j)" style="stroke:#A80036;stroke-width:2.0;"/><rect fill="#FEFECE" filter="url(#f1tyhbz7670g9j)" height="31.6094" style="stroke:#A80036;stroke-width:1.5;" width="60" x="752" y="53"/><text fill="#000000" font-family="sans-serif" font-size="14" lengthAdjust="spacing" textLength="46" x="759" y="74.5332">System</text><rect fill="#FEFECE" filter="url(#f1tyhbz7670g9j)" height="31.6094" style="stroke:#A80036;stroke-width:1.5;" width="60" x="752" y="355.4219"/><text fill="#000000" font-family="sans-serif" font-size="14" lengthAdjust="spacing" textLength="46" x="759" y="376.9551">System</text><rect fill="#FFFFFF" filter="url(#f1tyhbz7670g9j)" height="247.8125" style="stroke:#A80036;stroke-width:1.0;" width="10" x="102" y="99.6094"/><rect fill="#FFFFFF" filter="url(#f1tyhbz7670g9j)" height="30.3516" style="stroke:#A80036;stroke-width:1.0;" width="10" x="779" y="121.9609"/><rect fill="#FFFFFF" filter="url(#f1tyhbz7670g9j)" height="30.3516" style="stroke:#A80036;stroke-width:1.0;" width="10" x="779" y="208.0156"/><rect fill="#FFFFFF" filter="url(#f1tyhbz7670g9j)" height="37.3516" style="stroke:#A80036;stroke-width:1.0;" width="10" x="779" y="294.0703"/><polygon fill="#A80036" points="767,117.9609,777,121.9609,767,125.9609,771,121.9609" style="stroke:#A80036;stroke-width:1.0;"/><line style="stroke:#A80036;stroke-width:1.0;" x1="112" x2="773" y1="121.9609" y2="121.9609"/><text fill="#000000" font-family="sans-serif" font-size="13" font-weight="bold" lengthAdjust="spacing" textLength="7" x="119" y="117.1045">1</text><text fill="#000000" font-family="sans-serif" font-size="13" lengthAdjust="spacing" textLength="185" x="130" y="117.1045">validate a Test Result/Diagnosis</text><polygon fill="#A80036" points="123,148.3125,113,152.3125,123,156.3125,119,152.3125" style="stroke:#A80036;stroke-width:1.0;"/><line style="stroke:#A80036;stroke-width:1.0;stroke-dasharray:2.0,2.0;" x1="117" x2="783" y1="152.3125" y2="152.3125"/><text fill="#000000" font-family="sans-serif" font-size="13" font-weight="bold" lengthAdjust="spacing" textLength="7" x="129" y="147.4561">2</text><text fill="#000000" font-family="sans-serif" font-size="13" lengthAdjust="spacing" textLength="203" x="140" y="147.4561">shows a list of to-be validated tests</text><path d="M10,167.3125 L83,167.3125 L83,175.3125 L73,185.3125 L10,185.3125 L10,167.3125 " fill="#EEEEEE" style="stroke:#000000;stroke-width:1.0;"/><rect fill="none" height="172.1094" style="stroke:#000000;stroke-width:2.0;" width="826" x="10" y="167.3125"/><text fill="#000000" font-family="sans-serif" font-size="13" font-weight="bold" lengthAdjust="spacing" textLength="28" x="25" y="181.8076">loop</text><text fill="#000000" font-family="sans-serif" font-size="11" font-weight="bold" lengthAdjust="spacing" textLength="121" x="98" y="180.7314">[for the chosen tests]</text><polygon fill="#A80036" points="767,204.0156,777,208.0156,767,212.0156,771,208.0156" style="stroke:#A80036;stroke-width:1.0;"/><line style="stroke:#A80036;stroke-width:1.0;" x1="112" x2="773" y1="208.0156" y2="208.0156"/><text fill="#000000" font-family="sans-serif" font-size="13" font-weight="bold" lengthAdjust="spacing" textLength="7" x="119" y="203.1592">3</text><text fill="#000000" font-family="sans-serif" font-size="13" lengthAdjust="spacing" textLength="151" x="130" y="203.1592">selects a test from the list</text><polygon fill="#A80036" points="123,234.3672,113,238.3672,123,242.3672,119,238.3672" style="stroke:#A80036;stroke-width:1.0;"/><line style="stroke:#A80036;stroke-width:1.0;stroke-dasharray:2.0,2.0;" x1="117" x2="783" y1="238.3672" y2="238.3672"/><text fill="#000000" font-family="sans-serif" font-size="13" font-weight="bold" lengthAdjust="spacing" textLength="7" x="129" y="233.5107">4</text><text fill="#000000" font-family="sans-serif" font-size="13" lengthAdjust="spacing" textLength="632" x="140" y="233.5107">displays its data (registration date, chemical analysis date, diagnosis date) and requests to choose if it's valid</text><path d="M20,253.3672 L93,253.3672 L93,261.3672 L83,271.3672 L20,271.3672 L20,253.3672 " fill="#EEEEEE" style="stroke:#000000;stroke-width:1.0;"/><rect fill="none" height="48.7031" style="stroke:#000000;stroke-width:2.0;" width="806" x="20" y="253.3672"/><text fill="#000000" font-family="sans-serif" font-size="13" font-weight="bold" lengthAdjust="spacing" textLength="28" x="35" y="267.8623">loop</text><text fill="#000000" font-family="sans-serif" font-size="11" font-weight="bold" lengthAdjust="spacing" textLength="452" x="108" y="266.7861">[until the Laboratory Coordinator confirms the selected state of the chosen tests]</text><polygon fill="#A80036" points="767,290.0703,777,294.0703,767,298.0703,771,294.0703" style="stroke:#A80036;stroke-width:1.0;"/><line style="stroke:#A80036;stroke-width:1.0;" x1="112" x2="773" y1="294.0703" y2="294.0703"/><text fill="#000000" font-family="sans-serif" font-size="13" font-weight="bold" lengthAdjust="spacing" textLength="7" x="119" y="289.2139">5</text><text fill="#000000" font-family="sans-serif" font-size="13" lengthAdjust="spacing" textLength="143" x="130" y="289.2139">selects the desired state</text><polygon fill="#A80036" points="123,327.4219,113,331.4219,123,335.4219,119,331.4219" style="stroke:#A80036;stroke-width:1.0;"/><line style="stroke:#A80036;stroke-width:1.0;stroke-dasharray:2.0,2.0;" x1="117" x2="783" y1="331.4219" y2="331.4219"/><text fill="#000000" font-family="sans-serif" font-size="13" font-weight="bold" lengthAdjust="spacing" textLength="7" x="129" y="326.5654">6</text><text fill="#000000" font-family="sans-serif" font-size="13" lengthAdjust="spacing" textLength="210" x="140" y="326.5654">informs about the operation success</text><!--MD5=[41caf46fd8b1ac92171b023527b1fa38]
@startuml
autonumber

actor "Laboratory Coordinator" as labC
activate labC

labC -> System ++: validate a Test Result/Diagnosis
System - -> labC - -: shows a list of to-be validated tests
loop for the chosen tests
labC -> System ++: selects a test from the list
System - ->  labC - -: displays its data (registration date, chemical analysis date, diagnosis date) and requests to choose if it's valid
loop until the Laboratory Coordinator confirms the selected state of the chosen tests
labC ->  System ++: selects the desired state
end
System - -> labC - -: informs about the operation success
end

@enduml

PlantUML version 1.2021.7(Sun May 23 13:40:07 BST 2021)
(GPL source distribution)
Java Runtime: OpenJDK Runtime Environment
JVM: Dynamic Code Evolution 64-Bit Server VM
Default Encoding: Cp1252
Language: pt
Country: PT
--></g></svg>