<?xml version="1.0" encoding="UTF-8" standalone="no"?><svg xmlns="http://www.w3.org/2000/svg" xmlns:xlink="http://www.w3.org/1999/xlink" contentScriptType="application/ecmascript" contentStyleType="text/css" height="748.2px" preserveAspectRatio="none" style="width:692px;height:748px;" version="1.1" viewBox="0 0 692 748" width="692.52px" zoomAndPan="magnify"><defs><filter height="300%" id="f1ngumqnk4ol6a" width="300%" x="-1" y="-1"><feGaussianBlur result="blurOut" stdDeviation="1.74"/><feColorMatrix in="blurOut" result="blurOut2" type="matrix" values="0 0 0 0 0 0 0 0 0 0 0 0 0 0 0 0 0 0 .4 0"/><feOffset dx="3.48" dy="3.48" in="blurOut2" result="blurOut3"/><feBlend in="SourceGraphic" in2="blurOut3" mode="normal"/></filter></defs><g><!--MD5=[be7802b157a16874d39c59ca0e2b25be]
class ParameterStore--><rect codeLine="4" fill="#FEFECE" filter="url(#f1ngumqnk4ol6a)" height="101.9463" id="ParameterStore" style="stroke:#A80036;stroke-width:1.305;" width="240.99" x="6.09" y="372.36"/><ellipse cx="85.0425" cy="386.28" fill="#ADD1B2" rx="9.57" ry="9.57" style="stroke:#A80036;stroke-width:0.87;"/><path d="M86.7825,383.235 Q86.9592,382.8 87.1631,382.5825 Q87.367,382.365 87.5981,382.365 Q88.0059,382.365 88.2642,382.6097 Q88.5225,382.8544 88.5225,383.4253 L88.5225,384.7847 Q88.5225,385.3556 88.2778,385.6003 Q88.0331,385.845 87.6525,385.845 Q87.3127,385.845 87.0952,385.6955 Q86.8777,385.5459 86.7825,385.1517 Q86.7417,384.8798 86.5922,384.7303 Q86.3203,384.4448 85.8309,384.2817 Q85.3416,384.105 84.8522,384.105 Q84.2405,384.105 83.7239,384.3497 Q83.2209,384.5944 82.8267,385.1381 Q82.4325,385.6819 82.4325,386.4295 L82.4325,387.2316 Q82.4325,388.1288 83.1666,388.7269 Q83.9006,389.325 85.2056,389.325 Q85.9805,389.325 86.5242,389.1483 Q86.8369,389.0531 87.1903,388.7405 Q87.4214,388.5637 87.5438,388.5094 Q87.6661,388.455 87.8156,388.455 Q88.1011,388.455 88.305,388.6861 Q88.5225,388.9036 88.5225,389.2163 Q88.5225,389.5153 88.2234,389.8688 Q87.7884,390.3853 87.0952,390.6708 Q86.1844,391.065 85.0697,391.065 Q83.7647,391.065 82.718,390.5484 Q81.8752,390.1406 81.277,389.257 Q80.6925,388.3734 80.6925,387.3267 L80.6925,386.3752 Q80.6925,385.2877 81.2091,384.3361 Q81.7392,383.3845 82.65,382.8816 Q83.5744,382.365 84.6075,382.365 Q85.2328,382.365 85.7766,382.5825 Q86.3203,382.8 86.7825,383.235 Z " fill="#000000"/><text fill="#000000" font-family="sans-serif" font-size="10.44" lengthAdjust="spacing" textLength="75.69" x="102.8775" y="390.5518">ParameterStore</text><line style="stroke:#A80036;stroke-width:1.305;" x1="6.96" x2="246.21" y1="400.2" y2="400.2"/><line style="stroke:#A80036;stroke-width:1.305;" x1="6.96" x2="246.21" y1="407.16" y2="407.16"/><text fill="#000000" font-family="sans-serif" font-size="9.57" lengthAdjust="spacing" textLength="230.55" x="11.31" y="420.5745">+createParameter(code, designation, description, pcat)</text><text fill="#000000" font-family="sans-serif" font-size="9.57" lengthAdjust="spacing" textLength="118.32" x="11.31" y="432.6117">+saveParameter(parameter)</text><text fill="#000000" font-family="sans-serif" font-size="9.57" lengthAdjust="spacing" textLength="85.26" x="11.31" y="444.649">-validate(parameter)</text><text fill="#000000" font-family="sans-serif" font-size="9.57" lengthAdjust="spacing" textLength="68.73" x="11.31" y="456.6863">-add(parameter)</text><text fill="#000000" font-family="sans-serif" font-size="9.57" lengthAdjust="spacing" textLength="83.52" x="11.31" y="468.7235">+getAllParameters()</text><!--MD5=[d802db621b5b215a6f0466f93cefcb42]
class ParameterCategoryStore--><rect codeLine="12" fill="#FEFECE" filter="url(#f1ngumqnk4ol6a)" height="65.8345" id="ParameterCategoryStore" style="stroke:#A80036;stroke-width:1.305;" width="170.52" x="153.555" y="274.05"/><ellipse cx="177.567" cy="287.97" fill="#ADD1B2" rx="9.57" ry="9.57" style="stroke:#A80036;stroke-width:0.87;"/><path d="M179.307,284.925 Q179.4837,284.49 179.6876,284.2725 Q179.8915,284.055 180.1226,284.055 Q180.5304,284.055 180.7887,284.2997 Q181.047,284.5444 181.047,285.1153 L181.047,286.4747 Q181.047,287.0456 180.8023,287.2903 Q180.5576,287.535 180.177,287.535 Q179.8372,287.535 179.6197,287.3855 Q179.4022,287.2359 179.307,286.8417 Q179.2662,286.5698 179.1167,286.4203 Q178.8448,286.1348 178.3554,285.9717 Q177.8661,285.795 177.3767,285.795 Q176.765,285.795 176.2484,286.0397 Q175.7454,286.2844 175.3512,286.8281 Q174.957,287.3719 174.957,288.1195 L174.957,288.9216 Q174.957,289.8188 175.6911,290.4169 Q176.4251,291.015 177.7301,291.015 Q178.505,291.015 179.0487,290.8383 Q179.3614,290.7431 179.7148,290.4305 Q179.9459,290.2538 180.0683,290.1994 Q180.1906,290.145 180.3401,290.145 Q180.6256,290.145 180.8295,290.3761 Q181.047,290.5936 181.047,290.9063 Q181.047,291.2053 180.7479,291.5588 Q180.3129,292.0753 179.6197,292.3608 Q178.7089,292.755 177.5942,292.755 Q176.2892,292.755 175.2425,292.2384 Q174.3997,291.8306 173.8015,290.947 Q173.217,290.0634 173.217,289.0167 L173.217,288.0652 Q173.217,286.9777 173.7336,286.0261 Q174.2637,285.0745 175.1745,284.5716 Q176.0989,284.055 177.132,284.055 Q177.7573,284.055 178.3011,284.2725 Q178.8448,284.49 179.307,284.925 Z " fill="#000000"/><text fill="#000000" font-family="sans-serif" font-size="10.44" lengthAdjust="spacing" textLength="118.32" x="192.183" y="292.2418">ParameterCategoryStore</text><line style="stroke:#A80036;stroke-width:1.305;" x1="154.425" x2="323.205" y1="301.89" y2="301.89"/><line style="stroke:#A80036;stroke-width:1.305;" x1="154.425" x2="323.205" y1="308.85" y2="308.85"/><text fill="#000000" font-family="sans-serif" font-size="9.57" lengthAdjust="spacing" textLength="123.54" x="158.775" y="322.2645">+getAllParameterCategories()</text><text fill="#000000" font-family="sans-serif" font-size="9.57" lengthAdjust="spacing" textLength="160.08" x="158.775" y="334.3017">+getParameterCategoryByCode(code)</text><!--MD5=[1f6362a5c8f21d8d6a0fce68f3a92a4e]
class Parameter--><rect codeLine="18" fill="#FEFECE" filter="url(#f1ngumqnk4ol6a)" height="89.9091" id="Parameter" style="stroke:#A80036;stroke-width:1.305;" width="206.19" x="171.39" y="646.41"/><ellipse cx="245.5575" cy="660.33" fill="#ADD1B2" rx="9.57" ry="9.57" style="stroke:#A80036;stroke-width:0.87;"/><path d="M247.2975,657.285 Q247.4742,656.85 247.6781,656.6325 Q247.882,656.415 248.1131,656.415 Q248.5209,656.415 248.7792,656.6597 Q249.0375,656.9044 249.0375,657.4753 L249.0375,658.8347 Q249.0375,659.4056 248.7928,659.6503 Q248.5481,659.895 248.1675,659.895 Q247.8277,659.895 247.6102,659.7455 Q247.3927,659.5959 247.2975,659.2017 Q247.2567,658.9298 247.1072,658.7803 Q246.8353,658.4948 246.3459,658.3317 Q245.8566,658.155 245.3672,658.155 Q244.7555,658.155 244.2389,658.3997 Q243.7359,658.6444 243.3417,659.1881 Q242.9475,659.7319 242.9475,660.4795 L242.9475,661.2816 Q242.9475,662.1788 243.6816,662.7769 Q244.4156,663.375 245.7206,663.375 Q246.4955,663.375 247.0392,663.1983 Q247.3519,663.1031 247.7053,662.7905 Q247.9364,662.6138 248.0588,662.5594 Q248.1811,662.505 248.3306,662.505 Q248.6161,662.505 248.82,662.7361 Q249.0375,662.9536 249.0375,663.2663 Q249.0375,663.5653 248.7384,663.9188 Q248.3034,664.4353 247.6102,664.7208 Q246.6994,665.115 245.5847,665.115 Q244.2797,665.115 243.233,664.5984 Q242.3902,664.1906 241.792,663.307 Q241.2075,662.4234 241.2075,661.3767 L241.2075,660.4252 Q241.2075,659.3377 241.7241,658.3861 Q242.2542,657.4345 243.165,656.9316 Q244.0894,656.415 245.1225,656.415 Q245.7478,656.415 246.2916,656.6325 Q246.8353,656.85 247.2975,657.285 Z " fill="#000000"/><text fill="#000000" font-family="sans-serif" font-size="10.44" lengthAdjust="spacing" textLength="50.46" x="263.3925" y="664.6018">Parameter</text><line style="stroke:#A80036;stroke-width:1.305;" x1="172.26" x2="376.71" y1="674.25" y2="674.25"/><text fill="#000000" font-family="sans-serif" font-size="9.57" lengthAdjust="spacing" textLength="78.3" x="176.61" y="687.6645">-String designation</text><text fill="#000000" font-family="sans-serif" font-size="9.57" lengthAdjust="spacing" textLength="76.56" x="176.61" y="699.7017">-String description</text><text fill="#000000" font-family="sans-serif" font-size="9.57" lengthAdjust="spacing" textLength="51.33" x="176.61" y="711.739">-String code</text><line style="stroke:#A80036;stroke-width:1.305;" x1="172.26" x2="376.71" y1="717.3218" y2="717.3218"/><text fill="#000000" font-family="sans-serif" font-size="9.57" lengthAdjust="spacing" textLength="195.75" x="176.61" y="730.7363">+Parameter(code,description,designation,pcat)</text><!--MD5=[02e4b9b7573f1156f41e60aa5b4e25a4]
class Company--><rect codeLine="25" fill="#FEFECE" filter="url(#f1ngumqnk4ol6a)" height="77.8718" id="Company" style="stroke:#A80036;stroke-width:1.305;" width="139.2" x="354.525" y="267.96"/><ellipse cx="397.3725" cy="281.88" fill="#ADD1B2" rx="9.57" ry="9.57" style="stroke:#A80036;stroke-width:0.87;"/><path d="M399.1125,278.835 Q399.2892,278.4 399.4931,278.1825 Q399.697,277.965 399.9281,277.965 Q400.3359,277.965 400.5942,278.2097 Q400.8525,278.4544 400.8525,279.0253 L400.8525,280.3847 Q400.8525,280.9556 400.6078,281.2003 Q400.3631,281.445 399.9825,281.445 Q399.6427,281.445 399.4252,281.2955 Q399.2077,281.1459 399.1125,280.7517 Q399.0717,280.4798 398.9222,280.3303 Q398.6503,280.0448 398.1609,279.8817 Q397.6716,279.705 397.1822,279.705 Q396.5705,279.705 396.0539,279.9497 Q395.5509,280.1944 395.1567,280.7381 Q394.7625,281.2819 394.7625,282.0295 L394.7625,282.8316 Q394.7625,283.7288 395.4966,284.3269 Q396.2306,284.925 397.5356,284.925 Q398.3105,284.925 398.8542,284.7483 Q399.1669,284.6531 399.5203,284.3405 Q399.7514,284.1638 399.8738,284.1094 Q399.9961,284.055 400.1456,284.055 Q400.4311,284.055 400.635,284.2861 Q400.8525,284.5036 400.8525,284.8163 Q400.8525,285.1153 400.5534,285.4688 Q400.1184,285.9853 399.4252,286.2708 Q398.5144,286.665 397.3997,286.665 Q396.0947,286.665 395.048,286.1484 Q394.2052,285.7406 393.607,284.857 Q393.0225,283.9734 393.0225,282.9267 L393.0225,281.9752 Q393.0225,280.8877 393.5391,279.9361 Q394.0692,278.9845 394.98,278.4816 Q395.9044,277.965 396.9375,277.965 Q397.5628,277.965 398.1066,278.1825 Q398.6503,278.4 399.1125,278.835 Z " fill="#000000"/><text fill="#000000" font-family="sans-serif" font-size="10.44" lengthAdjust="spacing" textLength="46.11" x="415.2075" y="286.1518">Company</text><line style="stroke:#A80036;stroke-width:1.305;" x1="355.395" x2="492.855" y1="295.8" y2="295.8"/><text fill="#000000" font-family="sans-serif" font-size="9.57" lengthAdjust="spacing" textLength="78.3" x="359.745" y="309.2145">-String designation</text><line style="stroke:#A80036;stroke-width:1.305;" x1="355.395" x2="492.855" y1="314.7973" y2="314.7973"/><text fill="#000000" font-family="sans-serif" font-size="9.57" lengthAdjust="spacing" textLength="128.76" x="359.745" y="328.2117">+getParameterCategoryStore()</text><text fill="#000000" font-family="sans-serif" font-size="9.57" lengthAdjust="spacing" textLength="90.48" x="359.745" y="340.249">+getParameterStore()</text><!--MD5=[36afb6bbd95a8ac778c4537c55a683d5]
class ParameterCategory--><rect codeLine="31" fill="#FEFECE" filter="url(#f1ngumqnk4ol6a)" height="77.8718" id="ParameterCategory" style="stroke:#A80036;stroke-width:1.305;" width="152.25" x="198.36" y="500.25"/><ellipse cx="225.504" cy="514.17" fill="#ADD1B2" rx="9.57" ry="9.57" style="stroke:#A80036;stroke-width:0.87;"/><path d="M227.244,511.125 Q227.4207,510.69 227.6246,510.4725 Q227.8285,510.255 228.0596,510.255 Q228.4674,510.255 228.7257,510.4997 Q228.984,510.7444 228.984,511.3153 L228.984,512.6747 Q228.984,513.2456 228.7393,513.4903 Q228.4946,513.735 228.114,513.735 Q227.7742,513.735 227.5567,513.5855 Q227.3392,513.4359 227.244,513.0417 Q227.2032,512.7698 227.0537,512.6203 Q226.7818,512.3348 226.2924,512.1717 Q225.8031,511.995 225.3137,511.995 Q224.702,511.995 224.1854,512.2397 Q223.6824,512.4844 223.2882,513.0281 Q222.894,513.5719 222.894,514.3195 L222.894,515.1216 Q222.894,516.0188 223.6281,516.6169 Q224.3621,517.215 225.6671,517.215 Q226.442,517.215 226.9857,517.0383 Q227.2984,516.9431 227.6518,516.6305 Q227.8829,516.4538 228.0053,516.3994 Q228.1276,516.345 228.2771,516.345 Q228.5626,516.345 228.7665,516.5761 Q228.984,516.7936 228.984,517.1063 Q228.984,517.4053 228.6849,517.7588 Q228.2499,518.2753 227.5567,518.5608 Q226.6459,518.955 225.5312,518.955 Q224.2262,518.955 223.1795,518.4384 Q222.3367,518.0306 221.7385,517.147 Q221.154,516.2634 221.154,515.2167 L221.154,514.2652 Q221.154,513.1777 221.6706,512.2261 Q222.2007,511.2745 223.1115,510.7716 Q224.0359,510.255 225.069,510.255 Q225.6943,510.255 226.2381,510.4725 Q226.7818,510.69 227.244,511.125 Z " fill="#000000"/><text fill="#000000" font-family="sans-serif" font-size="10.44" lengthAdjust="spacing" textLength="93.09" x="240.816" y="518.4418">ParameterCategory</text><line style="stroke:#A80036;stroke-width:1.305;" x1="199.23" x2="349.74" y1="528.09" y2="528.09"/><text fill="#000000" font-family="sans-serif" font-size="9.57" lengthAdjust="spacing" textLength="53.07" x="203.58" y="541.5045">-String name</text><text fill="#000000" font-family="sans-serif" font-size="9.57" lengthAdjust="spacing" textLength="51.33" x="203.58" y="553.5417">-String code</text><line style="stroke:#A80036;stroke-width:1.305;" x1="199.23" x2="349.74" y1="559.1245" y2="559.1245"/><text fill="#000000" font-family="sans-serif" font-size="9.57" lengthAdjust="spacing" textLength="141.81" x="203.58" y="572.539">+ParameterCategory(name, code)</text><!--MD5=[fab6cba0d8a30102bb3e071a5ce00b91]
class ParameterCategoryMapper--><rect codeLine="39" fill="#FEFECE" filter="url(#f1ngumqnk4ol6a)" height="53.7973" id="ParameterCategoryMapper" style="stroke:#A80036;stroke-width:1.305;" width="156.6" x="524.175" y="280.14"/><ellipse cx="537.225" cy="294.06" fill="#ADD1B2" rx="9.57" ry="9.57" style="stroke:#A80036;stroke-width:0.87;"/><path d="M538.965,291.015 Q539.1417,290.58 539.3456,290.3625 Q539.5495,290.145 539.7806,290.145 Q540.1884,290.145 540.4467,290.3897 Q540.705,290.6344 540.705,291.2053 L540.705,292.5647 Q540.705,293.1356 540.4603,293.3803 Q540.2156,293.625 539.835,293.625 Q539.4952,293.625 539.2777,293.4755 Q539.0602,293.3259 538.965,292.9317 Q538.9242,292.6598 538.7747,292.5103 Q538.5028,292.2248 538.0134,292.0617 Q537.5241,291.885 537.0347,291.885 Q536.423,291.885 535.9064,292.1297 Q535.4034,292.3744 535.0092,292.9181 Q534.615,293.4619 534.615,294.2095 L534.615,295.0116 Q534.615,295.9088 535.3491,296.5069 Q536.0831,297.105 537.3881,297.105 Q538.163,297.105 538.7067,296.9283 Q539.0194,296.8331 539.3728,296.5205 Q539.6039,296.3438 539.7263,296.2894 Q539.8486,296.235 539.9981,296.235 Q540.2836,296.235 540.4875,296.4661 Q540.705,296.6836 540.705,296.9963 Q540.705,297.2953 540.4059,297.6488 Q539.9709,298.1653 539.2777,298.4508 Q538.3669,298.845 537.2522,298.845 Q535.9472,298.845 534.9005,298.3284 Q534.0577,297.9206 533.4595,297.037 Q532.875,296.1534 532.875,295.1067 L532.875,294.1552 Q532.875,293.0677 533.3916,292.1161 Q533.9217,291.1645 534.8325,290.6616 Q535.7569,290.145 536.79,290.145 Q537.4153,290.145 537.9591,290.3625 Q538.5028,290.58 538.965,291.015 Z " fill="#000000"/><text fill="#000000" font-family="sans-serif" font-size="10.44" lengthAdjust="spacing" textLength="128.76" x="549.405" y="298.3318">ParameterCategoryMapper</text><line style="stroke:#A80036;stroke-width:1.305;" x1="525.045" x2="679.905" y1="307.98" y2="307.98"/><line style="stroke:#A80036;stroke-width:1.305;" x1="525.045" x2="679.905" y1="314.94" y2="314.94"/><text fill="#000000" font-family="sans-serif" font-size="9.57" lengthAdjust="spacing" textLength="46.11" x="529.395" y="328.3545">+toDto(lpc)</text><!--MD5=[b9009a04d919d78a73c2eeec1e385786]
class CreateParameterController--><rect codeLine="44" fill="#FEFECE" filter="url(#f1ngumqnk4ol6a)" height="113.9836" id="CreateParameterController" style="stroke:#A80036;stroke-width:1.305;" width="235.77" x="203.58" y="100.92"/><ellipse cx="252.9525" cy="114.84" fill="#ADD1B2" rx="9.57" ry="9.57" style="stroke:#A80036;stroke-width:0.87;"/><path d="M254.6925,111.795 Q254.8692,111.36 255.0731,111.1425 Q255.277,110.925 255.5081,110.925 Q255.9159,110.925 256.1742,111.1697 Q256.4325,111.4144 256.4325,111.9853 L256.4325,113.3447 Q256.4325,113.9156 256.1878,114.1603 Q255.9431,114.405 255.5625,114.405 Q255.2227,114.405 255.0052,114.2555 Q254.7877,114.1059 254.6925,113.7117 Q254.6517,113.4398 254.5022,113.2903 Q254.2303,113.0048 253.7409,112.8417 Q253.2516,112.665 252.7622,112.665 Q252.1505,112.665 251.6339,112.9097 Q251.1309,113.1544 250.7367,113.6981 Q250.3425,114.2419 250.3425,114.9895 L250.3425,115.7916 Q250.3425,116.6888 251.0766,117.2869 Q251.8106,117.885 253.1156,117.885 Q253.8905,117.885 254.4342,117.7083 Q254.7469,117.6131 255.1003,117.3005 Q255.3314,117.1238 255.4537,117.0694 Q255.5761,117.015 255.7256,117.015 Q256.0111,117.015 256.215,117.2461 Q256.4325,117.4636 256.4325,117.7763 Q256.4325,118.0753 256.1334,118.4288 Q255.6984,118.9453 255.0052,119.2308 Q254.0944,119.625 252.9797,119.625 Q251.6747,119.625 250.628,119.1084 Q249.7852,118.7006 249.187,117.817 Q248.6025,116.9334 248.6025,115.8867 L248.6025,114.9352 Q248.6025,113.8477 249.1191,112.8961 Q249.6492,111.9445 250.56,111.4416 Q251.4844,110.925 252.5175,110.925 Q253.1428,110.925 253.6866,111.1425 Q254.2303,111.36 254.6925,111.795 Z " fill="#000000"/><text fill="#000000" font-family="sans-serif" font-size="10.44" lengthAdjust="spacing" textLength="129.63" x="270.7875" y="119.1118">CreateParameterController</text><line style="stroke:#A80036;stroke-width:1.305;" x1="204.45" x2="438.48" y1="128.76" y2="128.76"/><line style="stroke:#A80036;stroke-width:1.305;" x1="204.45" x2="438.48" y1="135.72" y2="135.72"/><text fill="#000000" font-family="sans-serif" font-size="9.57" lengthAdjust="spacing" textLength="122.67" x="208.8" y="149.1345">+CreateParameterController()</text><text fill="#000000" font-family="sans-serif" font-size="9.57" lengthAdjust="spacing" textLength="33.93" x="208.8" y="161.1717">+toDto()</text><text fill="#000000" font-family="sans-serif" font-size="9.57" lengthAdjust="spacing" textLength="160.08" x="208.8" y="173.209">+getParameterCategoryByCode(code)</text><text fill="#000000" font-family="sans-serif" font-size="9.57" lengthAdjust="spacing" textLength="225.33" x="208.8" y="185.2463">+createParameter(code,designation,description,code)</text><text fill="#000000" font-family="sans-serif" font-size="9.57" lengthAdjust="spacing" textLength="75.69" x="208.8" y="197.2835">+saveParameter()</text><text fill="#000000" font-family="sans-serif" font-size="9.57" lengthAdjust="spacing" textLength="83.52" x="208.8" y="209.3208">+getAllParameters()</text><!--MD5=[5518e6815e09c51d4db6e17774f331d2]
class CreateParameterUI--><rect codeLine="53" fill="#FEFECE" filter="url(#f1ngumqnk4ol6a)" height="41.76" id="CreateParameterUI" style="stroke:#A80036;stroke-width:1.305;" width="120.93" x="261" y="6.09"/><ellipse cx="274.05" cy="20.01" fill="#ADD1B2" rx="9.57" ry="9.57" style="stroke:#A80036;stroke-width:0.87;"/><path d="M275.79,16.965 Q275.9667,16.53 276.1706,16.3125 Q276.3745,16.095 276.6056,16.095 Q277.0134,16.095 277.2717,16.3397 Q277.53,16.5844 277.53,17.1553 L277.53,18.5147 Q277.53,19.0856 277.2853,19.3303 Q277.0406,19.575 276.66,19.575 Q276.3202,19.575 276.1027,19.4255 Q275.8852,19.2759 275.79,18.8817 Q275.7492,18.6098 275.5997,18.4603 Q275.3278,18.1748 274.8384,18.0117 Q274.3491,17.835 273.8597,17.835 Q273.248,17.835 272.7314,18.0797 Q272.2284,18.3244 271.8342,18.8681 Q271.44,19.4119 271.44,20.1595 L271.44,20.9616 Q271.44,21.8588 272.1741,22.4569 Q272.9081,23.055 274.2131,23.055 Q274.988,23.055 275.5317,22.8783 Q275.8444,22.7831 276.1978,22.4705 Q276.4289,22.2938 276.5513,22.2394 Q276.6736,22.185 276.8231,22.185 Q277.1086,22.185 277.3125,22.4161 Q277.53,22.6336 277.53,22.9463 Q277.53,23.2453 277.2309,23.5988 Q276.7959,24.1153 276.1027,24.4008 Q275.1919,24.795 274.0772,24.795 Q272.7722,24.795 271.7255,24.2784 Q270.8827,23.8706 270.2845,22.987 Q269.7,22.1034 269.7,21.0567 L269.7,20.1052 Q269.7,19.0177 270.2166,18.0661 Q270.7467,17.1145 271.6575,16.6116 Q272.5819,16.095 273.615,16.095 Q274.2403,16.095 274.7841,16.3125 Q275.3278,16.53 275.79,16.965 Z " fill="#000000"/><text fill="#000000" font-family="sans-serif" font-size="10.44" lengthAdjust="spacing" textLength="93.09" x="286.23" y="24.2818">CreateParameterUI</text><line style="stroke:#A80036;stroke-width:1.305;" x1="261.87" x2="381.06" y1="33.93" y2="33.93"/><line style="stroke:#A80036;stroke-width:1.305;" x1="261.87" x2="381.06" y1="40.89" y2="40.89"/><!--MD5=[9d3dd688f78c4545f26622cd23f9dd25]
link CreateParameterUI to CreateParameterController--><path codeLine="56" d="M321.465,48.024 C321.465,61.1088 321.465,78.909 321.465,96.3264 " fill="none" id="CreateParameterUI-to-CreateParameterController" style="stroke:#A80036;stroke-width:0.87;stroke-dasharray:7.0,7.0;"/><polygon fill="#A80036" points="321.465,100.746,324.945,92.916,321.465,96.396,317.985,92.916,321.465,100.746" style="stroke:#A80036;stroke-width:0.87;"/><!--MD5=[28500599d7d52b0914bd4c3c68a17d33]
link CreateParameterController to ParameterCategoryMapper--><path codeLine="57" d="M428.5011,214.9422 C469.4955,236.4573 514.5093,260.0778 548.4828,277.9128 " fill="none" id="CreateParameterController-to-ParameterCategoryMapper" style="stroke:#A80036;stroke-width:0.87;stroke-dasharray:7.0,7.0;"/><polygon fill="#A80036" points="552.5718,280.053,547.261,273.3288,548.7216,278.0285,544.0219,279.4891,552.5718,280.053" style="stroke:#A80036;stroke-width:0.87;"/><!--MD5=[6d585fb02c26694275539b4f1508918e]
link CreateParameterController to Company--><path codeLine="58" d="M360.5715,214.9422 C371.9076,231.2286 384.0876,248.7243 394.719,264.0015 " fill="none" id="CreateParameterController-to-Company" style="stroke:#A80036;stroke-width:0.87;stroke-dasharray:7.0,7.0;"/><polygon fill="#A80036" points="397.3899,267.8295,395.7821,259.4132,394.9087,264.2565,390.0653,263.3832,397.3899,267.8295" style="stroke:#A80036;stroke-width:0.87;"/><!--MD5=[46706d5726812879537e05899d80bc9e]
link CreateParameterController to ParameterStore--><path codeLine="59" d="M203.5365,206.2683 C177.8628,222.1023 153.6855,242.4081 137.895,267.96 C119.712,297.3834 116.9454,336.2376 118.6941,367.6185 " fill="none" id="CreateParameterController-to-ParameterStore" style="stroke:#A80036;stroke-width:0.87;stroke-dasharray:7.0,7.0;"/><polygon fill="#A80036" points="118.9899,372.186,121.9718,364.1531,118.717,367.8446,115.0256,364.5897,118.9899,372.186" style="stroke:#A80036;stroke-width:0.87;"/><!--MD5=[d4acd0f9b6f472dc8c1d58fc6da00ca5]
link CreateParameterController to ParameterCategoryStore--><path codeLine="60" d="M289.9797,214.9422 C279.7224,233.2557 268.6038,253.1004 259.3557,269.5956 " fill="none" id="CreateParameterController-to-ParameterCategoryStore" style="stroke:#A80036;stroke-width:0.87;stroke-dasharray:7.0,7.0;"/><polygon fill="#A80036" points="257.0502,273.7107,263.9077,268.5732,259.1722,269.9134,257.832,265.1779,257.0502,273.7107" style="stroke:#A80036;stroke-width:0.87;"/><!--MD5=[a0992dda039fed1bb57aff5aacace800]
link ParameterStore to Parameter--><path codeLine="61" d="M140.2875,474.324 C149.9097,505.47 164.4039,545.6814 183.135,578.55 C196.0458,601.2048 213.5502,623.9031 229.7757,642.8778 " fill="none" id="ParameterStore-to-Parameter" style="stroke:#A80036;stroke-width:0.87;stroke-dasharray:7.0,7.0;"/><polygon fill="#A80036" points="232.7946,646.3752,230.3258,638.17,229.9575,643.0777,225.0499,642.7094,232.7946,646.3752" style="stroke:#A80036;stroke-width:0.87;"/><!--MD5=[d6274e3b73b5bc8f467c6cfbf5bf003e]
link ParameterCategoryStore to ParameterCategory--><path codeLine="62" d="M246.3492,340.3005 C248.5851,350.523 250.9167,361.8852 252.735,372.36 C259.956,414.0591 265.9938,462.0309 269.8653,495.6738 " fill="none" id="ParameterCategoryStore-to-ParameterCategory" style="stroke:#A80036;stroke-width:0.87;stroke-dasharray:7.0,7.0;"/><polygon fill="#A80036" points="270.3699,500.1108,272.9562,491.9419,269.8854,495.7879,266.0395,492.7171,270.3699,500.1108" style="stroke:#A80036;stroke-width:0.87;"/><!--MD5=[12d76240d3c3c66074d4ec2ea8bf469c]
link Company to Parameter--><path codeLine="64" d="M427.6224,346.2861 C431.3982,408.8739 430.6935,534.6672 375.405,620.31 C369.2193,629.8974 361.2066,638.5365 352.4109,646.2012 " fill="none" id="Company-Parameter" style="stroke:#A80036;stroke-width:0.87;"/><polygon fill="#000000" points="423.0669,543.7723,427.4611,536.7613,422.501,535.5175,423.0669,543.7723" style="stroke:#000000;stroke-width:0.87;"/><text fill="#000000" font-family="sans-serif" font-size="11.31" lengthAdjust="spacing" textLength="102.66" x="431.955" y="544.1808">capable of analysing</text><text fill="#000000" font-family="sans-serif" font-size="11.31" lengthAdjust="spacing" textLength="6.09" x="421.596" y="364.5664">1</text><text fill="#000000" font-family="sans-serif" font-size="11.31" lengthAdjust="spacing" textLength="4.35" x="358.2399" y="637.0384">*</text><!--MD5=[93b4f25fb503a8e0e9a46b1d30ff3f44]
link Company to ParameterCategory--><path codeLine="65" d="M375.5181,346.3209 C367.0182,354.3597 358.7271,363.1989 351.915,372.36 C322.3872,412.0755 300.1587,464.8497 287.2653,500.1717 " fill="none" id="Company-ParameterCategory" style="stroke:#A80036;stroke-width:0.87;"/><polygon fill="#000000" points="354.1005,427.1812,360.234,421.6275,355.7982,419.083,354.1005,427.1812" style="stroke:#000000;stroke-width:0.87;"/><text fill="#000000" font-family="sans-serif" font-size="11.31" lengthAdjust="spacing" textLength="33.93" x="364.095" y="428.0358">adopts</text><text fill="#000000" font-family="sans-serif" font-size="11.31" lengthAdjust="spacing" textLength="6.09" x="362.1646" y="364.606">1</text><text fill="#000000" font-family="sans-serif" font-size="11.31" lengthAdjust="spacing" textLength="4.35" x="284.6055" y="490.6897">*</text><!--MD5=[7a9e3e328fb1db48284e23a673c1e60d]
link ParameterCategory to Parameter--><path codeLine="66" d="M274.485,578.9154 C274.485,599.4996 274.485,624.9036 274.485,646.2534 " fill="none" id="ParameterCategory-Parameter" style="stroke:#A80036;stroke-width:0.87;"/><polygon fill="#000000" points="278.835,608.2829,276.2781,616.1522,281.3919,616.1522,278.835,608.2829" style="stroke:#000000;stroke-width:0.87;"/><text fill="#000000" font-family="sans-serif" font-size="11.31" lengthAdjust="spacing" textLength="80.91" x="286.665" y="617.2608">presented under</text><text fill="#000000" font-family="sans-serif" font-size="11.31" lengthAdjust="spacing" textLength="6.09" x="267.9858" y="596.9506">1</text><text fill="#000000" font-family="sans-serif" font-size="11.31" lengthAdjust="spacing" textLength="4.35" x="269.8427" y="637.0976">*</text><!--MD5=[9092b283ff49325b019c018de76199fc]
@startuml
skinparam classAttributeIconSize 0


class ParameterStore{
  +createParameter(code, designation, description, pcat)
  +saveParameter(parameter)
  -validate(parameter)
  -add(parameter)
  +getAllParameters()
}

class ParameterCategoryStore{
  +getAllParameterCategories()
  +getParameterCategoryByCode(code)
}


class Parameter {
  - String designation
  - String description
  - String code
  +Parameter(code,description,designation,pcat)
}

class Company {
  -String designation
  +getParameterCategoryStore()
  +getParameterStore()
}

class ParameterCategory {
  -String name
  -String code
  +ParameterCategory(name, code)
}



class ParameterCategoryMapper{
  +toDto(lpc)
}


class CreateParameterController {
  +CreateParameterController()
  +toDto()
  +getParameterCategoryByCode(code)
  +createParameter(code,designation,description,code)
  +saveParameter()
  +getAllParameters()
}

class CreateParameterUI {
}

CreateParameterUI ..> CreateParameterController
CreateParameterController ..> ParameterCategoryMapper
CreateParameterController ..> Company
CreateParameterController ..> ParameterStore
CreateParameterController ..> ParameterCategoryStore
ParameterStore ..> Parameter
ParameterCategoryStore ..> ParameterCategory

Company "1" - - "*" Parameter : > capable of analysing
Company "1" - - "*" ParameterCategory : > adopts
ParameterCategory "1" - - "*" Parameter : < presented under



@enduml

PlantUML version 1.2021.2(Sun Mar 07 11:10:27 GMT 2021)
(GPL source distribution)
Java Runtime: OpenJDK Runtime Environment
JVM: OpenJDK 64-Bit Server VM
Default Encoding: Cp1252
Language: pt
Country: PT
--></g></svg>