<?xml version="1.0" encoding="UTF-8" standalone="no"?><svg xmlns="http://www.w3.org/2000/svg" xmlns:xlink="http://www.w3.org/1999/xlink" contentScriptType="application/ecmascript" contentStyleType="text/css" height="1475px" preserveAspectRatio="none" style="width:5011px;height:1475px;" version="1.1" viewBox="0 0 5011 1475" width="5011.25px" zoomAndPan="magnify"><defs><filter height="300%" id="fqa0na90n0jeu" width="300%" x="-1" y="-1"><feGaussianBlur result="blurOut" stdDeviation="2.5"/><feColorMatrix in="blurOut" result="blurOut2" type="matrix" values="0 0 0 0 0 0 0 0 0 0 0 0 0 0 0 0 0 0 .4 0"/><feOffset dx="5.0" dy="5.0" in="blurOut2" result="blurOut3"/><feBlend in="SourceGraphic" in2="blurOut3" mode="normal"/></filter></defs><g><!--MD5=[02e4b9b7573f1156f41e60aa5b4e25a4]
class Company--><rect codeLine="121" fill="#FEFECE" filter="url(#fqa0na90n0jeu)" height="67.2949" id="Company" style="stroke:#A80036;stroke-width:1.875;" width="106.25" x="548.75" y="774.1956"/><ellipse cx="567.5" cy="794.1956" fill="#ADD1B2" rx="13.75" ry="13.75" style="stroke:#A80036;stroke-width:1.25;"/><path d="M570,789.8206 Q570.2539,789.1956 570.5469,788.8831 Q570.8398,788.5706 571.1719,788.5706 Q571.7578,788.5706 572.1289,788.9221 Q572.5,789.2737 572.5,790.094 L572.5,792.0471 Q572.5,792.8674 572.1484,793.219 Q571.7969,793.5706 571.25,793.5706 Q570.7617,793.5706 570.4492,793.3557 Q570.1367,793.1409 570,792.5745 Q569.9414,792.1838 569.7266,791.969 Q569.3359,791.5588 568.6328,791.3245 Q567.9297,791.0706 567.2266,791.0706 Q566.3477,791.0706 565.6055,791.4221 Q564.8828,791.7737 564.3164,792.5549 Q563.75,793.3362 563.75,794.4104 L563.75,795.5627 Q563.75,796.8518 564.8047,797.7112 Q565.8594,798.5706 567.7344,798.5706 Q568.8477,798.5706 569.6289,798.3167 Q570.0781,798.1799 570.5859,797.7307 Q570.918,797.4768 571.0938,797.3987 Q571.2695,797.3206 571.4844,797.3206 Q571.8945,797.3206 572.1875,797.6526 Q572.5,797.9651 572.5,798.4143 Q572.5,798.844 572.0703,799.3518 Q571.4453,800.094 570.4492,800.5042 Q569.1406,801.0706 567.5391,801.0706 Q565.6641,801.0706 564.1602,800.3284 Q562.9492,799.7424 562.0898,798.4729 Q561.25,797.2034 561.25,795.6995 L561.25,794.3323 Q561.25,792.7698 561.9922,791.4026 Q562.7539,790.0354 564.0625,789.3127 Q565.3906,788.5706 566.875,788.5706 Q567.7734,788.5706 568.5547,788.8831 Q569.3359,789.1956 570,789.8206 Z " fill="#000000"/><text fill="#000000" font-family="sans-serif" font-size="15" lengthAdjust="spacing" textLength="66.25" x="585" y="800.3333">Company</text><line style="stroke:#A80036;stroke-width:1.875;" x1="550" x2="653.75" y1="814.1956" y2="814.1956"/><text fill="#000000" font-family="sans-serif" font-size="13.75" lengthAdjust="spacing" textLength="73.75" x="556.25" y="833.4692">-designation</text><!--MD5=[0caf3a413731a0de34fc6162fe213ed9]
class Laboratory--><rect codeLine="125" fill="#FEFECE" filter="url(#fqa0na90n0jeu)" height="119.1797" id="Laboratory" style="stroke:#A80036;stroke-width:1.875;" width="112.5" x="1590" y="488.5706"/><ellipse cx="1608.75" cy="508.5706" fill="#ADD1B2" rx="13.75" ry="13.75" style="stroke:#A80036;stroke-width:1.25;"/><path d="M1611.25,504.1956 Q1611.5039,503.5706 1611.7969,503.2581 Q1612.0898,502.9456 1612.4219,502.9456 Q1613.0078,502.9456 1613.3789,503.2971 Q1613.75,503.6487 1613.75,504.469 L1613.75,506.4221 Q1613.75,507.2424 1613.3984,507.594 Q1613.0469,507.9456 1612.5,507.9456 Q1612.0117,507.9456 1611.6992,507.7307 Q1611.3867,507.5159 1611.25,506.9495 Q1611.1914,506.5588 1610.9766,506.344 Q1610.5859,505.9338 1609.8828,505.6995 Q1609.1797,505.4456 1608.4766,505.4456 Q1607.5977,505.4456 1606.8555,505.7971 Q1606.1328,506.1487 1605.5664,506.9299 Q1605,507.7112 1605,508.7854 L1605,509.9377 Q1605,511.2268 1606.0547,512.0862 Q1607.1094,512.9456 1608.9844,512.9456 Q1610.0977,512.9456 1610.8789,512.6917 Q1611.3281,512.5549 1611.8359,512.1057 Q1612.168,511.8518 1612.3438,511.7737 Q1612.5195,511.6956 1612.7344,511.6956 Q1613.1445,511.6956 1613.4375,512.0276 Q1613.75,512.3401 1613.75,512.7893 Q1613.75,513.219 1613.3203,513.7268 Q1612.6953,514.469 1611.6992,514.8792 Q1610.3906,515.4456 1608.7891,515.4456 Q1606.9141,515.4456 1605.4102,514.7034 Q1604.1992,514.1174 1603.3398,512.8479 Q1602.5,511.5784 1602.5,510.0745 L1602.5,508.7073 Q1602.5,507.1448 1603.2422,505.7776 Q1604.0039,504.4104 1605.3125,503.6877 Q1606.6406,502.9456 1608.125,502.9456 Q1609.0234,502.9456 1609.8047,503.2581 Q1610.5859,503.5706 1611.25,504.1956 Z " fill="#000000"/><text fill="#000000" font-family="sans-serif" font-size="15" lengthAdjust="spacing" textLength="72.5" x="1626.25" y="514.7083">Laboratory</text><line style="stroke:#A80036;stroke-width:1.875;" x1="1591.25" x2="1701.25" y1="528.5706" y2="528.5706"/><text fill="#000000" font-family="sans-serif" font-size="13.75" lengthAdjust="spacing" textLength="37.5" x="1597.5" y="547.8442">-name</text><text fill="#000000" font-family="sans-serif" font-size="13.75" lengthAdjust="spacing" textLength="55" x="1597.5" y="565.1392">-address</text><text fill="#000000" font-family="sans-serif" font-size="13.75" lengthAdjust="spacing" textLength="88.75" x="1597.5" y="582.4341">-phoneNumber</text><text fill="#000000" font-family="sans-serif" font-size="13.75" lengthAdjust="spacing" textLength="23.75" x="1597.5" y="599.729">-TIN</text><!--MD5=[a64badb107d3691f2dc6af242cdbeb21]
class ChemicalLaboratory--><rect codeLine="132" fill="#FEFECE" filter="url(#fqa0na90n0jeu)" height="50" id="ChemicalLaboratory" style="stroke:#A80036;stroke-width:1.875;" width="178.75" x="1778.75" y="609.1956"/><ellipse cx="1797.5" cy="629.1956" fill="#ADD1B2" rx="13.75" ry="13.75" style="stroke:#A80036;stroke-width:1.25;"/><path d="M1800,624.8206 Q1800.2539,624.1956 1800.5469,623.8831 Q1800.8398,623.5706 1801.1719,623.5706 Q1801.7578,623.5706 1802.1289,623.9221 Q1802.5,624.2737 1802.5,625.094 L1802.5,627.0471 Q1802.5,627.8674 1802.1484,628.219 Q1801.7969,628.5706 1801.25,628.5706 Q1800.7617,628.5706 1800.4492,628.3557 Q1800.1367,628.1409 1800,627.5745 Q1799.9414,627.1838 1799.7266,626.969 Q1799.3359,626.5588 1798.6328,626.3245 Q1797.9297,626.0706 1797.2266,626.0706 Q1796.3477,626.0706 1795.6055,626.4221 Q1794.8828,626.7737 1794.3164,627.5549 Q1793.75,628.3362 1793.75,629.4104 L1793.75,630.5627 Q1793.75,631.8518 1794.8047,632.7112 Q1795.8594,633.5706 1797.7344,633.5706 Q1798.8477,633.5706 1799.6289,633.3167 Q1800.0781,633.1799 1800.5859,632.7307 Q1800.918,632.4768 1801.0938,632.3987 Q1801.2695,632.3206 1801.4844,632.3206 Q1801.8945,632.3206 1802.1875,632.6526 Q1802.5,632.9651 1802.5,633.4143 Q1802.5,633.844 1802.0703,634.3518 Q1801.4453,635.094 1800.4492,635.5042 Q1799.1406,636.0706 1797.5391,636.0706 Q1795.6641,636.0706 1794.1602,635.3284 Q1792.9492,634.7424 1792.0898,633.4729 Q1791.25,632.2034 1791.25,630.6995 L1791.25,629.3323 Q1791.25,627.7698 1791.9922,626.4026 Q1792.7539,625.0354 1794.0625,624.3127 Q1795.3906,623.5706 1796.875,623.5706 Q1797.7734,623.5706 1798.5547,623.8831 Q1799.3359,624.1956 1800,624.8206 Z " fill="#000000"/><text fill="#000000" font-family="sans-serif" font-size="15" lengthAdjust="spacing" textLength="138.75" x="1815" y="635.3333">ChemicalLaboratory</text><line style="stroke:#A80036;stroke-width:1.875;" x1="1780" x2="1956.25" y1="649.1956" y2="649.1956"/><!--MD5=[1934a092c0e7d4da7dc7075b6f4b6b03]
class ClinicalAnalysisLaboratory--><rect codeLine="135" fill="#FEFECE" filter="url(#fqa0na90n0jeu)" height="67.2949" id="ClinicalAnalysisLaboratory" style="stroke:#A80036;stroke-width:1.875;" width="221.25" x="4772.5" y="351.6956"/><ellipse cx="4791.25" cy="371.6956" fill="#ADD1B2" rx="13.75" ry="13.75" style="stroke:#A80036;stroke-width:1.25;"/><path d="M4793.75,367.3206 Q4794.0039,366.6956 4794.2969,366.3831 Q4794.5898,366.0706 4794.9219,366.0706 Q4795.5078,366.0706 4795.8789,366.4221 Q4796.25,366.7737 4796.25,367.594 L4796.25,369.5471 Q4796.25,370.3674 4795.8984,370.719 Q4795.5469,371.0706 4795,371.0706 Q4794.5117,371.0706 4794.1992,370.8557 Q4793.8867,370.6409 4793.75,370.0745 Q4793.6914,369.6838 4793.4766,369.469 Q4793.0859,369.0588 4792.3828,368.8245 Q4791.6797,368.5706 4790.9766,368.5706 Q4790.0977,368.5706 4789.3555,368.9221 Q4788.6328,369.2737 4788.0664,370.0549 Q4787.5,370.8362 4787.5,371.9104 L4787.5,373.0627 Q4787.5,374.3518 4788.5547,375.2112 Q4789.6094,376.0706 4791.4844,376.0706 Q4792.5977,376.0706 4793.3789,375.8167 Q4793.8281,375.6799 4794.3359,375.2307 Q4794.668,374.9768 4794.8438,374.8987 Q4795.0195,374.8206 4795.2344,374.8206 Q4795.6445,374.8206 4795.9375,375.1526 Q4796.25,375.4651 4796.25,375.9143 Q4796.25,376.344 4795.8203,376.8518 Q4795.1953,377.594 4794.1992,378.0042 Q4792.8906,378.5706 4791.2891,378.5706 Q4789.4141,378.5706 4787.9102,377.8284 Q4786.6992,377.2424 4785.8398,375.9729 Q4785,374.7034 4785,373.1995 L4785,371.8323 Q4785,370.2698 4785.7422,368.9026 Q4786.5039,367.5354 4787.8125,366.8127 Q4789.1406,366.0706 4790.625,366.0706 Q4791.5234,366.0706 4792.3047,366.3831 Q4793.0859,366.6956 4793.75,367.3206 Z " fill="#000000"/><text fill="#000000" font-family="sans-serif" font-size="15" lengthAdjust="spacing" textLength="181.25" x="4808.75" y="377.8333">ClinicalAnalysisLaboratory</text><line style="stroke:#A80036;stroke-width:1.875;" x1="4773.75" x2="4992.5" y1="391.6956" y2="391.6956"/><text fill="#000000" font-family="sans-serif" font-size="13.75" lengthAdjust="spacing" textLength="33.75" x="4780" y="410.9692">-labID</text><!--MD5=[052425de1c0eb6cc1c1b48342b0bb88f]
class LaboratoryCoordinator--><rect codeLine="9" fill="#FEFECE" filter="url(#fqa0na90n0jeu)" height="50" id="LaboratoryCoordinator" style="stroke:#A80036;stroke-width:1.875;" width="193.75" x="1186.25" y="522.9456"/><ellipse cx="1205" cy="542.9456" fill="#ADD1B2" rx="13.75" ry="13.75" style="stroke:#A80036;stroke-width:1.25;"/><path d="M1207.5,538.5706 Q1207.7539,537.9456 1208.0469,537.6331 Q1208.3398,537.3206 1208.6719,537.3206 Q1209.2578,537.3206 1209.6289,537.6721 Q1210,538.0237 1210,538.844 L1210,540.7971 Q1210,541.6174 1209.6484,541.969 Q1209.2969,542.3206 1208.75,542.3206 Q1208.2617,542.3206 1207.9492,542.1057 Q1207.6367,541.8909 1207.5,541.3245 Q1207.4414,540.9338 1207.2266,540.719 Q1206.8359,540.3088 1206.1328,540.0745 Q1205.4297,539.8206 1204.7266,539.8206 Q1203.8477,539.8206 1203.1055,540.1721 Q1202.3828,540.5237 1201.8164,541.3049 Q1201.25,542.0862 1201.25,543.1604 L1201.25,544.3127 Q1201.25,545.6018 1202.3047,546.4612 Q1203.3594,547.3206 1205.2344,547.3206 Q1206.3477,547.3206 1207.1289,547.0667 Q1207.5781,546.9299 1208.0859,546.4807 Q1208.418,546.2268 1208.5938,546.1487 Q1208.7695,546.0706 1208.9844,546.0706 Q1209.3945,546.0706 1209.6875,546.4026 Q1210,546.7151 1210,547.1643 Q1210,547.594 1209.5703,548.1018 Q1208.9453,548.844 1207.9492,549.2542 Q1206.6406,549.8206 1205.0391,549.8206 Q1203.1641,549.8206 1201.6602,549.0784 Q1200.4492,548.4924 1199.5898,547.2229 Q1198.75,545.9534 1198.75,544.4495 L1198.75,543.0823 Q1198.75,541.5198 1199.4922,540.1526 Q1200.2539,538.7854 1201.5625,538.0627 Q1202.8906,537.3206 1204.375,537.3206 Q1205.2734,537.3206 1206.0547,537.6331 Q1206.8359,537.9456 1207.5,538.5706 Z " fill="#000000"/><text fill="#000000" font-family="sans-serif" font-size="15" lengthAdjust="spacing" textLength="153.75" x="1222.5" y="549.0833">LaboratoryCoordinator</text><line style="stroke:#A80036;stroke-width:1.875;" x1="1187.5" x2="1378.75" y1="562.9456" y2="562.9456"/><!--MD5=[7421f545a0d8420c5bec41e74b387d9c]
class Employee--><rect codeLine="149" fill="#FEFECE" filter="url(#fqa0na90n0jeu)" height="171.0645" id="Employee" style="stroke:#A80036;stroke-width:1.875;" width="108.75" x="825" y="319.8206"/><ellipse cx="843.75" cy="339.8206" fill="#ADD1B2" rx="13.75" ry="13.75" style="stroke:#A80036;stroke-width:1.25;"/><path d="M846.25,335.4456 Q846.5039,334.8206 846.7969,334.5081 Q847.0898,334.1956 847.4219,334.1956 Q848.0078,334.1956 848.3789,334.5471 Q848.75,334.8987 848.75,335.719 L848.75,337.6721 Q848.75,338.4924 848.3984,338.844 Q848.0469,339.1956 847.5,339.1956 Q847.0117,339.1956 846.6992,338.9807 Q846.3867,338.7659 846.25,338.1995 Q846.1914,337.8088 845.9766,337.594 Q845.5859,337.1838 844.8828,336.9495 Q844.1797,336.6956 843.4766,336.6956 Q842.5977,336.6956 841.8555,337.0471 Q841.1328,337.3987 840.5664,338.1799 Q840,338.9612 840,340.0354 L840,341.1877 Q840,342.4768 841.0547,343.3362 Q842.1094,344.1956 843.9844,344.1956 Q845.0977,344.1956 845.8789,343.9417 Q846.3281,343.8049 846.8359,343.3557 Q847.168,343.1018 847.3438,343.0237 Q847.5195,342.9456 847.7344,342.9456 Q848.1445,342.9456 848.4375,343.2776 Q848.75,343.5901 848.75,344.0393 Q848.75,344.469 848.3203,344.9768 Q847.6953,345.719 846.6992,346.1292 Q845.3906,346.6956 843.7891,346.6956 Q841.9141,346.6956 840.4102,345.9534 Q839.1992,345.3674 838.3398,344.0979 Q837.5,342.8284 837.5,341.3245 L837.5,339.9573 Q837.5,338.3948 838.2422,337.0276 Q839.0039,335.6604 840.3125,334.9377 Q841.6406,334.1956 843.125,334.1956 Q844.0234,334.1956 844.8047,334.5081 Q845.5859,334.8206 846.25,335.4456 Z " fill="#000000"/><text fill="#000000" font-family="sans-serif" font-size="15" lengthAdjust="spacing" textLength="68.75" x="861.25" y="345.9583">Employee</text><line style="stroke:#A80036;stroke-width:1.875;" x1="826.25" x2="932.5" y1="359.8206" y2="359.8206"/><text fill="#000000" font-family="sans-serif" font-size="13.75" lengthAdjust="spacing" textLength="37.5" x="832.5" y="379.0942">-name</text><text fill="#000000" font-family="sans-serif" font-size="13.75" lengthAdjust="spacing" textLength="55" x="832.5" y="396.3892">-address</text><text fill="#000000" font-family="sans-serif" font-size="13.75" lengthAdjust="spacing" textLength="88.75" x="832.5" y="413.6841">-phoneNumber</text><text fill="#000000" font-family="sans-serif" font-size="13.75" lengthAdjust="spacing" textLength="73.75" x="832.5" y="430.979">-employeeID</text><text fill="#000000" font-family="sans-serif" font-size="13.75" lengthAdjust="spacing" textLength="51.25" x="832.5" y="448.2739">-orgRole</text><text fill="#000000" font-family="sans-serif" font-size="13.75" lengthAdjust="spacing" textLength="35" x="832.5" y="465.5688">-email</text><text fill="#000000" font-family="sans-serif" font-size="13.75" lengthAdjust="spacing" textLength="62.5" x="832.5" y="482.8638">-SOCcode</text><!--MD5=[da547346deef918ea16944ba046651ef]
class Administrator--><rect codeLine="139" fill="#FEFECE" filter="url(#fqa0na90n0jeu)" height="171.0645" id="Administrator" style="stroke:#A80036;stroke-width:1.875;" width="131.25" x="813.75" y="941.0706"/><ellipse cx="832.5" cy="961.0706" fill="#ADD1B2" rx="13.75" ry="13.75" style="stroke:#A80036;stroke-width:1.25;"/><path d="M835,956.6956 Q835.2539,956.0706 835.5469,955.7581 Q835.8398,955.4456 836.1719,955.4456 Q836.7578,955.4456 837.1289,955.7971 Q837.5,956.1487 837.5,956.969 L837.5,958.9221 Q837.5,959.7424 837.1484,960.094 Q836.7969,960.4456 836.25,960.4456 Q835.7617,960.4456 835.4492,960.2307 Q835.1367,960.0159 835,959.4495 Q834.9414,959.0588 834.7266,958.844 Q834.3359,958.4338 833.6328,958.1995 Q832.9297,957.9456 832.2266,957.9456 Q831.3477,957.9456 830.6055,958.2971 Q829.8828,958.6487 829.3164,959.4299 Q828.75,960.2112 828.75,961.2854 L828.75,962.4377 Q828.75,963.7268 829.8047,964.5862 Q830.8594,965.4456 832.7344,965.4456 Q833.8477,965.4456 834.6289,965.1917 Q835.0781,965.0549 835.5859,964.6057 Q835.918,964.3518 836.0938,964.2737 Q836.2695,964.1956 836.4844,964.1956 Q836.8945,964.1956 837.1875,964.5276 Q837.5,964.8401 837.5,965.2893 Q837.5,965.719 837.0703,966.2268 Q836.4453,966.969 835.4492,967.3792 Q834.1406,967.9456 832.5391,967.9456 Q830.6641,967.9456 829.1602,967.2034 Q827.9492,966.6174 827.0898,965.3479 Q826.25,964.0784 826.25,962.5745 L826.25,961.2073 Q826.25,959.6448 826.9922,958.2776 Q827.7539,956.9104 829.0625,956.1877 Q830.3906,955.4456 831.875,955.4456 Q832.7734,955.4456 833.5547,955.7581 Q834.3359,956.0706 835,956.6956 Z " fill="#000000"/><text fill="#000000" font-family="sans-serif" font-size="15" lengthAdjust="spacing" textLength="91.25" x="850" y="967.2083">Administrator</text><line style="stroke:#A80036;stroke-width:1.875;" x1="815" x2="943.75" y1="981.0706" y2="981.0706"/><text fill="#000000" font-family="sans-serif" font-size="13.75" lengthAdjust="spacing" textLength="37.5" x="821.25" y="1000.3442">-name</text><text fill="#000000" font-family="sans-serif" font-size="13.75" lengthAdjust="spacing" textLength="55" x="821.25" y="1017.6392">-address</text><text fill="#000000" font-family="sans-serif" font-size="13.75" lengthAdjust="spacing" textLength="88.75" x="821.25" y="1034.9341">-phoneNumber</text><text fill="#000000" font-family="sans-serif" font-size="13.75" lengthAdjust="spacing" textLength="73.75" x="821.25" y="1052.229">-employeeID</text><text fill="#000000" font-family="sans-serif" font-size="13.75" lengthAdjust="spacing" textLength="51.25" x="821.25" y="1069.5239">-orgRole</text><text fill="#000000" font-family="sans-serif" font-size="13.75" lengthAdjust="spacing" textLength="35" x="821.25" y="1086.8188">-email</text><text fill="#000000" font-family="sans-serif" font-size="13.75" lengthAdjust="spacing" textLength="62.5" x="821.25" y="1104.1138">-SOCcode</text><!--MD5=[7d96fd15f3014691d2fcaf89c5791e2a]
class SpecialistDoctor--><rect codeLine="159" fill="#FEFECE" filter="url(#fqa0na90n0jeu)" height="67.2949" id="SpecialistDoctor" style="stroke:#A80036;stroke-width:1.875;" width="152.5" x="3185" y="941.6956"/><ellipse cx="3203.75" cy="961.6956" fill="#ADD1B2" rx="13.75" ry="13.75" style="stroke:#A80036;stroke-width:1.25;"/><path d="M3206.25,957.3206 Q3206.5039,956.6956 3206.7969,956.3831 Q3207.0898,956.0706 3207.4219,956.0706 Q3208.0078,956.0706 3208.3789,956.4221 Q3208.75,956.7737 3208.75,957.594 L3208.75,959.5471 Q3208.75,960.3674 3208.3984,960.719 Q3208.0469,961.0706 3207.5,961.0706 Q3207.0117,961.0706 3206.6992,960.8557 Q3206.3867,960.6409 3206.25,960.0745 Q3206.1914,959.6838 3205.9766,959.469 Q3205.5859,959.0588 3204.8828,958.8245 Q3204.1797,958.5706 3203.4766,958.5706 Q3202.5977,958.5706 3201.8555,958.9221 Q3201.1328,959.2737 3200.5664,960.0549 Q3200,960.8362 3200,961.9104 L3200,963.0627 Q3200,964.3518 3201.0547,965.2112 Q3202.1094,966.0706 3203.9844,966.0706 Q3205.0977,966.0706 3205.8789,965.8167 Q3206.3281,965.6799 3206.8359,965.2307 Q3207.168,964.9768 3207.3438,964.8987 Q3207.5195,964.8206 3207.7344,964.8206 Q3208.1445,964.8206 3208.4375,965.1526 Q3208.75,965.4651 3208.75,965.9143 Q3208.75,966.344 3208.3203,966.8518 Q3207.6953,967.594 3206.6992,968.0042 Q3205.3906,968.5706 3203.7891,968.5706 Q3201.9141,968.5706 3200.4102,967.8284 Q3199.1992,967.2424 3198.3398,965.9729 Q3197.5,964.7034 3197.5,963.1995 L3197.5,961.8323 Q3197.5,960.2698 3198.2422,958.9026 Q3199.0039,957.5354 3200.3125,956.8127 Q3201.6406,956.0706 3203.125,956.0706 Q3204.0234,956.0706 3204.8047,956.3831 Q3205.5859,956.6956 3206.25,957.3206 Z " fill="#000000"/><text fill="#000000" font-family="sans-serif" font-size="15" lengthAdjust="spacing" textLength="112.5" x="3221.25" y="967.8333">SpecialistDoctor</text><line style="stroke:#A80036;stroke-width:1.875;" x1="3186.25" x2="3336.25" y1="981.6956" y2="981.6956"/><text fill="#000000" font-family="sans-serif" font-size="13.75" lengthAdjust="spacing" textLength="76.25" x="3192.5" y="1000.9692">-doctorIndex</text><!--MD5=[012ee2a8bf3ae2b319009b06f951c2e5]
class ClinicalChemistryTechnologist--><rect codeLine="163" fill="#FEFECE" filter="url(#fqa0na90n0jeu)" height="50" id="ClinicalChemistryTechnologist" style="stroke:#A80036;stroke-width:1.875;" width="250" x="3835" y="606.6956"/><ellipse cx="3853.75" cy="626.6956" fill="#ADD1B2" rx="13.75" ry="13.75" style="stroke:#A80036;stroke-width:1.25;"/><path d="M3856.25,622.3206 Q3856.5039,621.6956 3856.7969,621.3831 Q3857.0898,621.0706 3857.4219,621.0706 Q3858.0078,621.0706 3858.3789,621.4221 Q3858.75,621.7737 3858.75,622.594 L3858.75,624.5471 Q3858.75,625.3674 3858.3984,625.719 Q3858.0469,626.0706 3857.5,626.0706 Q3857.0117,626.0706 3856.6992,625.8557 Q3856.3867,625.6409 3856.25,625.0745 Q3856.1914,624.6838 3855.9766,624.469 Q3855.5859,624.0588 3854.8828,623.8245 Q3854.1797,623.5706 3853.4766,623.5706 Q3852.5977,623.5706 3851.8555,623.9221 Q3851.1328,624.2737 3850.5664,625.0549 Q3850,625.8362 3850,626.9104 L3850,628.0627 Q3850,629.3518 3851.0547,630.2112 Q3852.1094,631.0706 3853.9844,631.0706 Q3855.0977,631.0706 3855.8789,630.8167 Q3856.3281,630.6799 3856.8359,630.2307 Q3857.168,629.9768 3857.3438,629.8987 Q3857.5195,629.8206 3857.7344,629.8206 Q3858.1445,629.8206 3858.4375,630.1526 Q3858.75,630.4651 3858.75,630.9143 Q3858.75,631.344 3858.3203,631.8518 Q3857.6953,632.594 3856.6992,633.0042 Q3855.3906,633.5706 3853.7891,633.5706 Q3851.9141,633.5706 3850.4102,632.8284 Q3849.1992,632.2424 3848.3398,630.9729 Q3847.5,629.7034 3847.5,628.1995 L3847.5,626.8323 Q3847.5,625.2698 3848.2422,623.9026 Q3849.0039,622.5354 3850.3125,621.8127 Q3851.6406,621.0706 3853.125,621.0706 Q3854.0234,621.0706 3854.8047,621.3831 Q3855.5859,621.6956 3856.25,622.3206 Z " fill="#000000"/><text fill="#000000" font-family="sans-serif" font-size="15" lengthAdjust="spacing" textLength="210" x="3871.25" y="632.8333">ClinicalChemistryTechnologist</text><line style="stroke:#A80036;stroke-width:1.875;" x1="3836.25" x2="4083.75" y1="646.6956" y2="646.6956"/><!--MD5=[01931d41e78f8996acd44f6f0fd8de28]
class MedicalLabTechnician--><rect codeLine="166" fill="#FEFECE" filter="url(#fqa0na90n0jeu)" height="50" id="MedicalLabTechnician" style="stroke:#A80036;stroke-width:1.875;" width="193.75" x="2446.25" y="200.4456"/><ellipse cx="2465" cy="220.4456" fill="#ADD1B2" rx="13.75" ry="13.75" style="stroke:#A80036;stroke-width:1.25;"/><path d="M2467.5,216.0706 Q2467.7539,215.4456 2468.0469,215.1331 Q2468.3398,214.8206 2468.6719,214.8206 Q2469.2578,214.8206 2469.6289,215.1721 Q2470,215.5237 2470,216.344 L2470,218.2971 Q2470,219.1174 2469.6484,219.469 Q2469.2969,219.8206 2468.75,219.8206 Q2468.2617,219.8206 2467.9492,219.6057 Q2467.6367,219.3909 2467.5,218.8245 Q2467.4414,218.4338 2467.2266,218.219 Q2466.8359,217.8088 2466.1328,217.5745 Q2465.4297,217.3206 2464.7266,217.3206 Q2463.8477,217.3206 2463.1055,217.6721 Q2462.3828,218.0237 2461.8164,218.8049 Q2461.25,219.5862 2461.25,220.6604 L2461.25,221.8127 Q2461.25,223.1018 2462.3047,223.9612 Q2463.3594,224.8206 2465.2344,224.8206 Q2466.3477,224.8206 2467.1289,224.5667 Q2467.5781,224.4299 2468.0859,223.9807 Q2468.418,223.7268 2468.5938,223.6487 Q2468.7695,223.5706 2468.9844,223.5706 Q2469.3945,223.5706 2469.6875,223.9026 Q2470,224.2151 2470,224.6643 Q2470,225.094 2469.5703,225.6018 Q2468.9453,226.344 2467.9492,226.7542 Q2466.6406,227.3206 2465.0391,227.3206 Q2463.1641,227.3206 2461.6602,226.5784 Q2460.4492,225.9924 2459.5898,224.7229 Q2458.75,223.4534 2458.75,221.9495 L2458.75,220.5823 Q2458.75,219.0198 2459.4922,217.6526 Q2460.2539,216.2854 2461.5625,215.5627 Q2462.8906,214.8206 2464.375,214.8206 Q2465.2734,214.8206 2466.0547,215.1331 Q2466.8359,215.4456 2467.5,216.0706 Z " fill="#000000"/><text fill="#000000" font-family="sans-serif" font-size="15" lengthAdjust="spacing" textLength="153.75" x="2482.5" y="226.5833">MedicalLabTechnician</text><line style="stroke:#A80036;stroke-width:1.875;" x1="2447.5" x2="2638.75" y1="240.4456" y2="240.4456"/><!--MD5=[03960189e81aa2c066c762ffabbee709]
class Receptionist--><rect codeLine="169" fill="#FEFECE" filter="url(#fqa0na90n0jeu)" height="50" id="Receptionist" style="stroke:#A80036;stroke-width:1.875;" width="126.25" x="4491.25" y="451.6956"/><ellipse cx="4510" cy="471.6956" fill="#ADD1B2" rx="13.75" ry="13.75" style="stroke:#A80036;stroke-width:1.25;"/><path d="M4512.5,467.3206 Q4512.7539,466.6956 4513.0469,466.3831 Q4513.3398,466.0706 4513.6719,466.0706 Q4514.2578,466.0706 4514.6289,466.4221 Q4515,466.7737 4515,467.594 L4515,469.5471 Q4515,470.3674 4514.6484,470.719 Q4514.2969,471.0706 4513.75,471.0706 Q4513.2617,471.0706 4512.9492,470.8557 Q4512.6367,470.6409 4512.5,470.0745 Q4512.4414,469.6838 4512.2266,469.469 Q4511.8359,469.0588 4511.1328,468.8245 Q4510.4297,468.5706 4509.7266,468.5706 Q4508.8477,468.5706 4508.1055,468.9221 Q4507.3828,469.2737 4506.8164,470.0549 Q4506.25,470.8362 4506.25,471.9104 L4506.25,473.0627 Q4506.25,474.3518 4507.3047,475.2112 Q4508.3594,476.0706 4510.2344,476.0706 Q4511.3477,476.0706 4512.1289,475.8167 Q4512.5781,475.6799 4513.0859,475.2307 Q4513.418,474.9768 4513.5938,474.8987 Q4513.7695,474.8206 4513.9844,474.8206 Q4514.3945,474.8206 4514.6875,475.1526 Q4515,475.4651 4515,475.9143 Q4515,476.344 4514.5703,476.8518 Q4513.9453,477.594 4512.9492,478.0042 Q4511.6406,478.5706 4510.0391,478.5706 Q4508.1641,478.5706 4506.6602,477.8284 Q4505.4492,477.2424 4504.5898,475.9729 Q4503.75,474.7034 4503.75,473.1995 L4503.75,471.8323 Q4503.75,470.2698 4504.4922,468.9026 Q4505.2539,467.5354 4506.5625,466.8127 Q4507.8906,466.0706 4509.375,466.0706 Q4510.2734,466.0706 4511.0547,466.3831 Q4511.8359,466.6956 4512.5,467.3206 Z " fill="#000000"/><text fill="#000000" font-family="sans-serif" font-size="15" lengthAdjust="spacing" textLength="86.25" x="4527.5" y="477.8333">Receptionist</text><line style="stroke:#A80036;stroke-width:1.875;" x1="4492.5" x2="4616.25" y1="491.6956" y2="491.6956"/><!--MD5=[ed6624c6556d5e7b1bd23032162d20b7]
class Client--><rect codeLine="172" fill="#FEFECE" filter="url(#fqa0na90n0jeu)" height="188.3594" id="Client" style="stroke:#A80036;stroke-width:1.875;" width="103.75" x="4231.25" y="1058.5706"/><ellipse cx="4260.6875" cy="1078.5706" fill="#ADD1B2" rx="13.75" ry="13.75" style="stroke:#A80036;stroke-width:1.25;"/><path d="M4263.1875,1074.1956 Q4263.4414,1073.5706 4263.7344,1073.2581 Q4264.0273,1072.9456 4264.3594,1072.9456 Q4264.9453,1072.9456 4265.3164,1073.2971 Q4265.6875,1073.6487 4265.6875,1074.469 L4265.6875,1076.4221 Q4265.6875,1077.2424 4265.3359,1077.594 Q4264.9844,1077.9456 4264.4375,1077.9456 Q4263.9492,1077.9456 4263.6367,1077.7307 Q4263.3242,1077.5159 4263.1875,1076.9495 Q4263.1289,1076.5588 4262.9141,1076.344 Q4262.5234,1075.9338 4261.8203,1075.6995 Q4261.1172,1075.4456 4260.4141,1075.4456 Q4259.5352,1075.4456 4258.793,1075.7971 Q4258.0703,1076.1487 4257.5039,1076.9299 Q4256.9375,1077.7112 4256.9375,1078.7854 L4256.9375,1079.9377 Q4256.9375,1081.2268 4257.9922,1082.0862 Q4259.0469,1082.9456 4260.9219,1082.9456 Q4262.0352,1082.9456 4262.8164,1082.6917 Q4263.2656,1082.5549 4263.7734,1082.1057 Q4264.1055,1081.8518 4264.2813,1081.7737 Q4264.457,1081.6956 4264.6719,1081.6956 Q4265.082,1081.6956 4265.375,1082.0276 Q4265.6875,1082.3401 4265.6875,1082.7893 Q4265.6875,1083.219 4265.2578,1083.7268 Q4264.6328,1084.469 4263.6367,1084.8792 Q4262.3281,1085.4456 4260.7266,1085.4456 Q4258.8516,1085.4456 4257.3477,1084.7034 Q4256.1367,1084.1174 4255.2773,1082.8479 Q4254.4375,1081.5784 4254.4375,1080.0745 L4254.4375,1078.7073 Q4254.4375,1077.1448 4255.1797,1075.7776 Q4255.9414,1074.4104 4257.25,1073.6877 Q4258.5781,1072.9456 4260.0625,1072.9456 Q4260.9609,1072.9456 4261.7422,1073.2581 Q4262.5234,1073.5706 4263.1875,1074.1956 Z " fill="#000000"/><text fill="#000000" font-family="sans-serif" font-size="15" lengthAdjust="spacing" textLength="40" x="4280.5625" y="1084.7083">Client</text><line style="stroke:#A80036;stroke-width:1.875;" x1="4232.5" x2="4333.75" y1="1098.5706" y2="1098.5706"/><text fill="#000000" font-family="sans-serif" font-size="13.75" lengthAdjust="spacing" textLength="55" x="4238.75" y="1117.8442">-citizenID</text><text fill="#000000" font-family="sans-serif" font-size="13.75" lengthAdjust="spacing" textLength="38.75" x="4238.75" y="1135.1392">-nhsID</text><text fill="#000000" font-family="sans-serif" font-size="13.75" lengthAdjust="spacing" textLength="58.75" x="4238.75" y="1152.4341">-birthDate</text><text fill="#000000" font-family="sans-serif" font-size="13.75" lengthAdjust="spacing" textLength="27.5" x="4238.75" y="1169.729">-sex</text><text fill="#000000" font-family="sans-serif" font-size="13.75" lengthAdjust="spacing" textLength="23.75" x="4238.75" y="1187.0239">-TIN</text><text fill="#000000" font-family="sans-serif" font-size="13.75" lengthAdjust="spacing" textLength="88.75" x="4238.75" y="1204.3188">-phoneNumber</text><text fill="#000000" font-family="sans-serif" font-size="13.75" lengthAdjust="spacing" textLength="35" x="4238.75" y="1221.6138">-email</text><text fill="#000000" font-family="sans-serif" font-size="13.75" lengthAdjust="spacing" textLength="37.5" x="4238.75" y="1238.9087">-name</text><!--MD5=[a999c1570c205a2156b04a15307bc1ff]
class LabOrder--><rect codeLine="183" fill="#FEFECE" filter="url(#fqa0na90n0jeu)" height="50" id="LabOrder" style="stroke:#A80036;stroke-width:1.875;" width="105" x="8.75" y="1232.9456"/><ellipse cx="27.5" cy="1252.9456" fill="#ADD1B2" rx="13.75" ry="13.75" style="stroke:#A80036;stroke-width:1.25;"/><path d="M30,1248.5706 Q30.2539,1247.9456 30.5469,1247.6331 Q30.8398,1247.3206 31.1719,1247.3206 Q31.7578,1247.3206 32.1289,1247.6721 Q32.5,1248.0237 32.5,1248.844 L32.5,1250.7971 Q32.5,1251.6174 32.1484,1251.969 Q31.7969,1252.3206 31.25,1252.3206 Q30.7617,1252.3206 30.4492,1252.1057 Q30.1367,1251.8909 30,1251.3245 Q29.9414,1250.9338 29.7266,1250.719 Q29.3359,1250.3088 28.6328,1250.0745 Q27.9297,1249.8206 27.2266,1249.8206 Q26.3477,1249.8206 25.6055,1250.1721 Q24.8828,1250.5237 24.3164,1251.3049 Q23.75,1252.0862 23.75,1253.1604 L23.75,1254.3127 Q23.75,1255.6018 24.8047,1256.4612 Q25.8594,1257.3206 27.7344,1257.3206 Q28.8477,1257.3206 29.6289,1257.0667 Q30.0781,1256.9299 30.5859,1256.4807 Q30.918,1256.2268 31.0938,1256.1487 Q31.2695,1256.0706 31.4844,1256.0706 Q31.8945,1256.0706 32.1875,1256.4026 Q32.5,1256.7151 32.5,1257.1643 Q32.5,1257.594 32.0703,1258.1018 Q31.4453,1258.844 30.4492,1259.2542 Q29.1406,1259.8206 27.5391,1259.8206 Q25.6641,1259.8206 24.1602,1259.0784 Q22.9492,1258.4924 22.0898,1257.2229 Q21.25,1255.9534 21.25,1254.4495 L21.25,1253.0823 Q21.25,1251.5198 21.9922,1250.1526 Q22.7539,1248.7854 24.0625,1248.0627 Q25.3906,1247.3206 26.875,1247.3206 Q27.7734,1247.3206 28.5547,1247.6331 Q29.3359,1247.9456 30,1248.5706 Z " fill="#000000"/><text fill="#000000" font-family="sans-serif" font-size="15" lengthAdjust="spacing" textLength="65" x="45" y="1259.0833">LabOrder</text><line style="stroke:#A80036;stroke-width:1.875;" x1="10" x2="112.5" y1="1272.9456" y2="1272.9456"/><!--MD5=[2741598bdf59a7d7e0d5c97658fd3022]
class Result--><rect codeLine="186" fill="#FEFECE" filter="url(#fqa0na90n0jeu)" height="50" id="Result" style="stroke:#A80036;stroke-width:1.875;" width="85" x="3525.625" y="977.9456"/><ellipse cx="3544.375" cy="997.9456" fill="#ADD1B2" rx="13.75" ry="13.75" style="stroke:#A80036;stroke-width:1.25;"/><path d="M3546.875,993.5706 Q3547.1289,992.9456 3547.4219,992.6331 Q3547.7148,992.3206 3548.0469,992.3206 Q3548.6328,992.3206 3549.0039,992.6721 Q3549.375,993.0237 3549.375,993.844 L3549.375,995.7971 Q3549.375,996.6174 3549.0234,996.969 Q3548.6719,997.3206 3548.125,997.3206 Q3547.6367,997.3206 3547.3242,997.1057 Q3547.0117,996.8909 3546.875,996.3245 Q3546.8164,995.9338 3546.6016,995.719 Q3546.2109,995.3088 3545.5078,995.0745 Q3544.8047,994.8206 3544.1016,994.8206 Q3543.2227,994.8206 3542.4805,995.1721 Q3541.7578,995.5237 3541.1914,996.3049 Q3540.625,997.0862 3540.625,998.1604 L3540.625,999.3127 Q3540.625,1000.6018 3541.6797,1001.4612 Q3542.7344,1002.3206 3544.6094,1002.3206 Q3545.7227,1002.3206 3546.5039,1002.0667 Q3546.9531,1001.9299 3547.4609,1001.4807 Q3547.793,1001.2268 3547.9688,1001.1487 Q3548.1445,1001.0706 3548.3594,1001.0706 Q3548.7695,1001.0706 3549.0625,1001.4026 Q3549.375,1001.7151 3549.375,1002.1643 Q3549.375,1002.594 3548.9453,1003.1018 Q3548.3203,1003.844 3547.3242,1004.2542 Q3546.0156,1004.8206 3544.4141,1004.8206 Q3542.5391,1004.8206 3541.0352,1004.0784 Q3539.8242,1003.4924 3538.9648,1002.2229 Q3538.125,1000.9534 3538.125,999.4495 L3538.125,998.0823 Q3538.125,996.5198 3538.8672,995.1526 Q3539.6289,993.7854 3540.9375,993.0627 Q3542.2656,992.3206 3543.75,992.3206 Q3544.6484,992.3206 3545.4297,992.6331 Q3546.2109,992.9456 3546.875,993.5706 Z " fill="#000000"/><text fill="#000000" font-family="sans-serif" font-size="15" lengthAdjust="spacing" textLength="45" x="3561.875" y="1004.0833">Result</text><line style="stroke:#A80036;stroke-width:1.875;" x1="3526.875" x2="3609.375" y1="1017.9456" y2="1017.9456"/><!--MD5=[f61f25a4c924aea49782a3614f4b4835]
class DiagnosisReport--><rect codeLine="189" fill="#FEFECE" filter="url(#fqa0na90n0jeu)" height="50" id="DiagnosisReport" style="stroke:#A80036;stroke-width:1.875;" width="157.5" x="2846.25" y="956.6956"/><ellipse cx="2865" cy="976.6956" fill="#ADD1B2" rx="13.75" ry="13.75" style="stroke:#A80036;stroke-width:1.25;"/><path d="M2867.5,972.3206 Q2867.7539,971.6956 2868.0469,971.3831 Q2868.3398,971.0706 2868.6719,971.0706 Q2869.2578,971.0706 2869.6289,971.4221 Q2870,971.7737 2870,972.594 L2870,974.5471 Q2870,975.3674 2869.6484,975.719 Q2869.2969,976.0706 2868.75,976.0706 Q2868.2617,976.0706 2867.9492,975.8557 Q2867.6367,975.6409 2867.5,975.0745 Q2867.4414,974.6838 2867.2266,974.469 Q2866.8359,974.0588 2866.1328,973.8245 Q2865.4297,973.5706 2864.7266,973.5706 Q2863.8477,973.5706 2863.1055,973.9221 Q2862.3828,974.2737 2861.8164,975.0549 Q2861.25,975.8362 2861.25,976.9104 L2861.25,978.0627 Q2861.25,979.3518 2862.3047,980.2112 Q2863.3594,981.0706 2865.2344,981.0706 Q2866.3477,981.0706 2867.1289,980.8167 Q2867.5781,980.6799 2868.0859,980.2307 Q2868.418,979.9768 2868.5938,979.8987 Q2868.7695,979.8206 2868.9844,979.8206 Q2869.3945,979.8206 2869.6875,980.1526 Q2870,980.4651 2870,980.9143 Q2870,981.344 2869.5703,981.8518 Q2868.9453,982.594 2867.9492,983.0042 Q2866.6406,983.5706 2865.0391,983.5706 Q2863.1641,983.5706 2861.6602,982.8284 Q2860.4492,982.2424 2859.5898,980.9729 Q2858.75,979.7034 2858.75,978.1995 L2858.75,976.8323 Q2858.75,975.2698 2859.4922,973.9026 Q2860.2539,972.5354 2861.5625,971.8127 Q2862.8906,971.0706 2864.375,971.0706 Q2865.2734,971.0706 2866.0547,971.3831 Q2866.8359,971.6956 2867.5,972.3206 Z " fill="#000000"/><text fill="#000000" font-family="sans-serif" font-size="15" lengthAdjust="spacing" textLength="117.5" x="2882.5" y="982.8333">DiagnosisReport</text><line style="stroke:#A80036;stroke-width:1.875;" x1="2847.5" x2="3002.5" y1="996.6956" y2="996.6956"/><!--MD5=[74783ec010d186752c4ffd5c6de5633a]
class NHSReport--><rect codeLine="20" fill="#FEFECE" filter="url(#fqa0na90n0jeu)" height="50" id="NHSReport" style="stroke:#A80036;stroke-width:1.875;" width="118.75" x="3201.875" y="847.9456"/><ellipse cx="3220.625" cy="867.9456" fill="#ADD1B2" rx="13.75" ry="13.75" style="stroke:#A80036;stroke-width:1.25;"/><path d="M3223.125,863.5706 Q3223.3789,862.9456 3223.6719,862.6331 Q3223.9648,862.3206 3224.2969,862.3206 Q3224.8828,862.3206 3225.2539,862.6721 Q3225.625,863.0237 3225.625,863.844 L3225.625,865.7971 Q3225.625,866.6174 3225.2734,866.969 Q3224.9219,867.3206 3224.375,867.3206 Q3223.8867,867.3206 3223.5742,867.1057 Q3223.2617,866.8909 3223.125,866.3245 Q3223.0664,865.9338 3222.8516,865.719 Q3222.4609,865.3088 3221.7578,865.0745 Q3221.0547,864.8206 3220.3516,864.8206 Q3219.4727,864.8206 3218.7305,865.1721 Q3218.0078,865.5237 3217.4414,866.3049 Q3216.875,867.0862 3216.875,868.1604 L3216.875,869.3127 Q3216.875,870.6018 3217.9297,871.4612 Q3218.9844,872.3206 3220.8594,872.3206 Q3221.9727,872.3206 3222.7539,872.0667 Q3223.2031,871.9299 3223.7109,871.4807 Q3224.043,871.2268 3224.2188,871.1487 Q3224.3945,871.0706 3224.6094,871.0706 Q3225.0195,871.0706 3225.3125,871.4026 Q3225.625,871.7151 3225.625,872.1643 Q3225.625,872.594 3225.1953,873.1018 Q3224.5703,873.844 3223.5742,874.2542 Q3222.2656,874.8206 3220.6641,874.8206 Q3218.7891,874.8206 3217.2852,874.0784 Q3216.0742,873.4924 3215.2148,872.2229 Q3214.375,870.9534 3214.375,869.4495 L3214.375,868.0823 Q3214.375,866.5198 3215.1172,865.1526 Q3215.8789,863.7854 3217.1875,863.0627 Q3218.5156,862.3206 3220,862.3206 Q3220.8984,862.3206 3221.6797,862.6331 Q3222.4609,862.9456 3223.125,863.5706 Z " fill="#000000"/><text fill="#000000" font-family="sans-serif" font-size="15" lengthAdjust="spacing" textLength="78.75" x="3238.125" y="874.0833">NHSReport</text><line style="stroke:#A80036;stroke-width:1.875;" x1="3203.125" x2="3319.375" y1="887.9456" y2="887.9456"/><!--MD5=[36afb6bbd95a8ac778c4537c55a683d5]
class ParameterCategory--><rect codeLine="192" fill="#FEFECE" filter="url(#fqa0na90n0jeu)" height="101.8848" id="ParameterCategory" style="stroke:#A80036;stroke-width:1.875;" width="173.75" x="1196.25" y="975.4456"/><ellipse cx="1215" cy="995.4456" fill="#ADD1B2" rx="13.75" ry="13.75" style="stroke:#A80036;stroke-width:1.25;"/><path d="M1217.5,991.0706 Q1217.7539,990.4456 1218.0469,990.1331 Q1218.3398,989.8206 1218.6719,989.8206 Q1219.2578,989.8206 1219.6289,990.1721 Q1220,990.5237 1220,991.344 L1220,993.2971 Q1220,994.1174 1219.6484,994.469 Q1219.2969,994.8206 1218.75,994.8206 Q1218.2617,994.8206 1217.9492,994.6057 Q1217.6367,994.3909 1217.5,993.8245 Q1217.4414,993.4338 1217.2266,993.219 Q1216.8359,992.8088 1216.1328,992.5745 Q1215.4297,992.3206 1214.7266,992.3206 Q1213.8477,992.3206 1213.1055,992.6721 Q1212.3828,993.0237 1211.8164,993.8049 Q1211.25,994.5862 1211.25,995.6604 L1211.25,996.8127 Q1211.25,998.1018 1212.3047,998.9612 Q1213.3594,999.8206 1215.2344,999.8206 Q1216.3477,999.8206 1217.1289,999.5667 Q1217.5781,999.4299 1218.0859,998.9807 Q1218.418,998.7268 1218.5938,998.6487 Q1218.7695,998.5706 1218.9844,998.5706 Q1219.3945,998.5706 1219.6875,998.9026 Q1220,999.2151 1220,999.6643 Q1220,1000.094 1219.5703,1000.6018 Q1218.9453,1001.344 1217.9492,1001.7542 Q1216.6406,1002.3206 1215.0391,1002.3206 Q1213.1641,1002.3206 1211.6602,1001.5784 Q1210.4492,1000.9924 1209.5898,999.7229 Q1208.75,998.4534 1208.75,996.9495 L1208.75,995.5823 Q1208.75,994.0198 1209.4922,992.6526 Q1210.2539,991.2854 1211.5625,990.5627 Q1212.8906,989.8206 1214.375,989.8206 Q1215.2734,989.8206 1216.0547,990.1331 Q1216.8359,990.4456 1217.5,991.0706 Z " fill="#000000"/><text fill="#000000" font-family="sans-serif" font-size="15" lengthAdjust="spacing" textLength="133.75" x="1232.5" y="1001.5833">ParameterCategory</text><line style="stroke:#A80036;stroke-width:1.875;" x1="1197.5" x2="1368.75" y1="1015.4456" y2="1015.4456"/><text fill="#000000" font-family="sans-serif" font-size="13.75" lengthAdjust="spacing" textLength="35" x="1203.75" y="1034.7192">-code</text><text fill="#000000" font-family="sans-serif" font-size="13.75" lengthAdjust="spacing" textLength="71.25" x="1203.75" y="1052.0142">-description</text><text fill="#000000" font-family="sans-serif" font-size="13.75" lengthAdjust="spacing" textLength="38.75" x="1203.75" y="1069.3091">-nhsID</text><!--MD5=[1f6362a5c8f21d8d6a0fce68f3a92a4e]
class Parameter--><rect codeLine="198" fill="#FEFECE" filter="url(#fqa0na90n0jeu)" height="101.8848" id="Parameter" style="stroke:#A80036;stroke-width:1.875;" width="112.5" x="1590" y="1024.1956"/><ellipse cx="1608.75" cy="1044.1956" fill="#ADD1B2" rx="13.75" ry="13.75" style="stroke:#A80036;stroke-width:1.25;"/><path d="M1611.25,1039.8206 Q1611.5039,1039.1956 1611.7969,1038.8831 Q1612.0898,1038.5706 1612.4219,1038.5706 Q1613.0078,1038.5706 1613.3789,1038.9221 Q1613.75,1039.2737 1613.75,1040.094 L1613.75,1042.0471 Q1613.75,1042.8674 1613.3984,1043.219 Q1613.0469,1043.5706 1612.5,1043.5706 Q1612.0117,1043.5706 1611.6992,1043.3557 Q1611.3867,1043.1409 1611.25,1042.5745 Q1611.1914,1042.1838 1610.9766,1041.969 Q1610.5859,1041.5588 1609.8828,1041.3245 Q1609.1797,1041.0706 1608.4766,1041.0706 Q1607.5977,1041.0706 1606.8555,1041.4221 Q1606.1328,1041.7737 1605.5664,1042.5549 Q1605,1043.3362 1605,1044.4104 L1605,1045.5627 Q1605,1046.8518 1606.0547,1047.7112 Q1607.1094,1048.5706 1608.9844,1048.5706 Q1610.0977,1048.5706 1610.8789,1048.3167 Q1611.3281,1048.1799 1611.8359,1047.7307 Q1612.168,1047.4768 1612.3438,1047.3987 Q1612.5195,1047.3206 1612.7344,1047.3206 Q1613.1445,1047.3206 1613.4375,1047.6526 Q1613.75,1047.9651 1613.75,1048.4143 Q1613.75,1048.844 1613.3203,1049.3518 Q1612.6953,1050.094 1611.6992,1050.5042 Q1610.3906,1051.0706 1608.7891,1051.0706 Q1606.9141,1051.0706 1605.4102,1050.3284 Q1604.1992,1049.7424 1603.3398,1048.4729 Q1602.5,1047.2034 1602.5,1045.6995 L1602.5,1044.3323 Q1602.5,1042.7698 1603.2422,1041.4026 Q1604.0039,1040.0354 1605.3125,1039.3127 Q1606.6406,1038.5706 1608.125,1038.5706 Q1609.0234,1038.5706 1609.8047,1038.8831 Q1610.5859,1039.1956 1611.25,1039.8206 Z " fill="#000000"/><text fill="#000000" font-family="sans-serif" font-size="15" lengthAdjust="spacing" textLength="72.5" x="1626.25" y="1050.3333">Parameter</text><line style="stroke:#A80036;stroke-width:1.875;" x1="1591.25" x2="1701.25" y1="1064.1956" y2="1064.1956"/><text fill="#000000" font-family="sans-serif" font-size="13.75" lengthAdjust="spacing" textLength="73.75" x="1597.5" y="1083.4692">-designation</text><text fill="#000000" font-family="sans-serif" font-size="13.75" lengthAdjust="spacing" textLength="71.25" x="1597.5" y="1100.7642">-description</text><text fill="#000000" font-family="sans-serif" font-size="13.75" lengthAdjust="spacing" textLength="35" x="1597.5" y="1118.0591">-code</text><!--MD5=[aeb3272166074d8737a70b61b1e71682]
class TestType--><rect codeLine="204" fill="#FEFECE" filter="url(#fqa0na90n0jeu)" height="101.8848" id="TestType" style="stroke:#A80036;stroke-width:1.875;" width="120" x="268.75" y="1131.6956"/><ellipse cx="295.375" cy="1151.6956" fill="#ADD1B2" rx="13.75" ry="13.75" style="stroke:#A80036;stroke-width:1.25;"/><path d="M297.875,1147.3206 Q298.1289,1146.6956 298.4219,1146.3831 Q298.7148,1146.0706 299.0469,1146.0706 Q299.6328,1146.0706 300.0039,1146.4221 Q300.375,1146.7737 300.375,1147.594 L300.375,1149.5471 Q300.375,1150.3674 300.0234,1150.719 Q299.6719,1151.0706 299.125,1151.0706 Q298.6367,1151.0706 298.3242,1150.8557 Q298.0117,1150.6409 297.875,1150.0745 Q297.8164,1149.6838 297.6016,1149.469 Q297.2109,1149.0588 296.5078,1148.8245 Q295.8047,1148.5706 295.1016,1148.5706 Q294.2227,1148.5706 293.4805,1148.9221 Q292.7578,1149.2737 292.1914,1150.0549 Q291.625,1150.8362 291.625,1151.9104 L291.625,1153.0627 Q291.625,1154.3518 292.6797,1155.2112 Q293.7344,1156.0706 295.6094,1156.0706 Q296.7227,1156.0706 297.5039,1155.8167 Q297.9531,1155.6799 298.4609,1155.2307 Q298.793,1154.9768 298.9688,1154.8987 Q299.1445,1154.8206 299.3594,1154.8206 Q299.7695,1154.8206 300.0625,1155.1526 Q300.375,1155.4651 300.375,1155.9143 Q300.375,1156.344 299.9453,1156.8518 Q299.3203,1157.594 298.3242,1158.0042 Q297.0156,1158.5706 295.4141,1158.5706 Q293.5391,1158.5706 292.0352,1157.8284 Q290.8242,1157.2424 289.9648,1155.9729 Q289.125,1154.7034 289.125,1153.1995 L289.125,1151.8323 Q289.125,1150.2698 289.8672,1148.9026 Q290.6289,1147.5354 291.9375,1146.8127 Q293.2656,1146.0706 294.75,1146.0706 Q295.6484,1146.0706 296.4297,1146.3831 Q297.2109,1146.6956 297.875,1147.3206 Z " fill="#000000"/><text fill="#000000" font-family="sans-serif" font-size="15" lengthAdjust="spacing" textLength="62.5" x="314.625" y="1157.8333">TestType</text><line style="stroke:#A80036;stroke-width:1.875;" x1="270" x2="387.5" y1="1171.6956" y2="1171.6956"/><text fill="#000000" font-family="sans-serif" font-size="13.75" lengthAdjust="spacing" textLength="35" x="276.25" y="1190.9692">-code</text><text fill="#000000" font-family="sans-serif" font-size="13.75" lengthAdjust="spacing" textLength="71.25" x="276.25" y="1208.2642">-description</text><text fill="#000000" font-family="sans-serif" font-size="13.75" lengthAdjust="spacing" textLength="105" x="276.25" y="1225.5591">-collectingMethod</text><!--MD5=[df38be88ccee13e832d6fafd6288a4ca]
class Test--><rect codeLine="210" fill="#FEFECE" filter="url(#fqa0na90n0jeu)" height="188.3594" id="Test" style="stroke:#A80036;stroke-width:1.875;" width="180" x="2453.125" y="981.0706"/><ellipse cx="2522.8125" cy="1001.0706" fill="#ADD1B2" rx="13.75" ry="13.75" style="stroke:#A80036;stroke-width:1.25;"/><path d="M2525.3125,996.6956 Q2525.5664,996.0706 2525.8594,995.7581 Q2526.1523,995.4456 2526.4844,995.4456 Q2527.0703,995.4456 2527.4414,995.7971 Q2527.8125,996.1487 2527.8125,996.969 L2527.8125,998.9221 Q2527.8125,999.7424 2527.4609,1000.094 Q2527.1094,1000.4456 2526.5625,1000.4456 Q2526.0742,1000.4456 2525.7617,1000.2307 Q2525.4492,1000.0159 2525.3125,999.4495 Q2525.2539,999.0588 2525.0391,998.844 Q2524.6484,998.4338 2523.9453,998.1995 Q2523.2422,997.9456 2522.5391,997.9456 Q2521.6602,997.9456 2520.918,998.2971 Q2520.1953,998.6487 2519.6289,999.4299 Q2519.0625,1000.2112 2519.0625,1001.2854 L2519.0625,1002.4377 Q2519.0625,1003.7268 2520.1172,1004.5862 Q2521.1719,1005.4456 2523.0469,1005.4456 Q2524.1602,1005.4456 2524.9414,1005.1917 Q2525.3906,1005.0549 2525.8984,1004.6057 Q2526.2305,1004.3518 2526.4063,1004.2737 Q2526.582,1004.1956 2526.7969,1004.1956 Q2527.207,1004.1956 2527.5,1004.5276 Q2527.8125,1004.8401 2527.8125,1005.2893 Q2527.8125,1005.719 2527.3828,1006.2268 Q2526.7578,1006.969 2525.7617,1007.3792 Q2524.4531,1007.9456 2522.8516,1007.9456 Q2520.9766,1007.9456 2519.4727,1007.2034 Q2518.2617,1006.6174 2517.4023,1005.3479 Q2516.5625,1004.0784 2516.5625,1002.5745 L2516.5625,1001.2073 Q2516.5625,999.6448 2517.3047,998.2776 Q2518.0664,996.9104 2519.375,996.1877 Q2520.7031,995.4456 2522.1875,995.4456 Q2523.0859,995.4456 2523.8672,995.7581 Q2524.6484,996.0706 2525.3125,996.6956 Z " fill="#000000"/><text fill="#000000" font-family="sans-serif" font-size="15" lengthAdjust="spacing" textLength="30" x="2548.4375" y="1007.2083">Test</text><line style="stroke:#A80036;stroke-width:1.875;" x1="2454.375" x2="2631.875" y1="1021.0706" y2="1021.0706"/><text fill="#000000" font-family="sans-serif" font-size="13.75" lengthAdjust="spacing" textLength="71.25" x="2460.625" y="1040.3442">-description</text><text fill="#000000" font-family="sans-serif" font-size="13.75" lengthAdjust="spacing" textLength="80" x="2460.625" y="1057.6392">-internalCode</text><text fill="#000000" font-family="sans-serif" font-size="13.75" lengthAdjust="spacing" textLength="58.75" x="2460.625" y="1074.9341">-nhsCode</text><text fill="#000000" font-family="sans-serif" font-size="13.75" lengthAdjust="spacing" textLength="105" x="2460.625" y="1092.229">-collectingMethod</text><text fill="#000000" font-family="sans-serif" font-size="13.75" lengthAdjust="spacing" textLength="98.75" x="2460.625" y="1109.5239">-collectDateTime</text><text fill="#000000" font-family="sans-serif" font-size="13.75" lengthAdjust="spacing" textLength="165" x="2460.625" y="1126.8188">-chemicalAnalysisDateTime</text><text fill="#000000" font-family="sans-serif" font-size="13.75" lengthAdjust="spacing" textLength="117.5" x="2460.625" y="1144.1138">-diagnosisDateTime</text><text fill="#000000" font-family="sans-serif" font-size="13.75" lengthAdjust="spacing" textLength="116.25" x="2460.625" y="1161.4087">-validationDateTime</text><!--MD5=[76b5e19c9337179d2d7ae334371d68c8]
class Notification--><rect codeLine="25" fill="#FEFECE" filter="url(#fqa0na90n0jeu)" height="50" id="Notification" style="stroke:#A80036;stroke-width:1.875;" width="116.25" x="3901.875" y="1006.6956"/><ellipse cx="3920.625" cy="1026.6956" fill="#ADD1B2" rx="13.75" ry="13.75" style="stroke:#A80036;stroke-width:1.25;"/><path d="M3923.125,1022.3206 Q3923.3789,1021.6956 3923.6719,1021.3831 Q3923.9648,1021.0706 3924.2969,1021.0706 Q3924.8828,1021.0706 3925.2539,1021.4221 Q3925.625,1021.7737 3925.625,1022.594 L3925.625,1024.5471 Q3925.625,1025.3674 3925.2734,1025.719 Q3924.9219,1026.0706 3924.375,1026.0706 Q3923.8867,1026.0706 3923.5742,1025.8557 Q3923.2617,1025.6409 3923.125,1025.0745 Q3923.0664,1024.6838 3922.8516,1024.469 Q3922.4609,1024.0588 3921.7578,1023.8245 Q3921.0547,1023.5706 3920.3516,1023.5706 Q3919.4727,1023.5706 3918.7305,1023.9221 Q3918.0078,1024.2737 3917.4414,1025.0549 Q3916.875,1025.8362 3916.875,1026.9104 L3916.875,1028.0627 Q3916.875,1029.3518 3917.9297,1030.2112 Q3918.9844,1031.0706 3920.8594,1031.0706 Q3921.9727,1031.0706 3922.7539,1030.8167 Q3923.2031,1030.6799 3923.7109,1030.2307 Q3924.043,1029.9768 3924.2188,1029.8987 Q3924.3945,1029.8206 3924.6094,1029.8206 Q3925.0195,1029.8206 3925.3125,1030.1526 Q3925.625,1030.4651 3925.625,1030.9143 Q3925.625,1031.344 3925.1953,1031.8518 Q3924.5703,1032.594 3923.5742,1033.0042 Q3922.2656,1033.5706 3920.6641,1033.5706 Q3918.7891,1033.5706 3917.2852,1032.8284 Q3916.0742,1032.2424 3915.2148,1030.9729 Q3914.375,1029.7034 3914.375,1028.1995 L3914.375,1026.8323 Q3914.375,1025.2698 3915.1172,1023.9026 Q3915.8789,1022.5354 3917.1875,1021.8127 Q3918.5156,1021.0706 3920,1021.0706 Q3920.8984,1021.0706 3921.6797,1021.3831 Q3922.4609,1021.6956 3923.125,1022.3206 Z " fill="#000000"/><text fill="#000000" font-family="sans-serif" font-size="15" lengthAdjust="spacing" textLength="76.25" x="3938.125" y="1032.8333">Notification</text><line style="stroke:#A80036;stroke-width:1.875;" x1="3903.125" x2="4016.875" y1="1046.6956" y2="1046.6956"/><!--MD5=[0a105ea8d9af02dadec02d3e239f1d60]
class NHS--><rect codeLine="26" fill="#FEFECE" filter="url(#fqa0na90n0jeu)" height="50" id="NHS" style="stroke:#A80036;stroke-width:1.875;" width="72.5" x="3531.875" y="869.1956"/><ellipse cx="3550.625" cy="889.1956" fill="#ADD1B2" rx="13.75" ry="13.75" style="stroke:#A80036;stroke-width:1.25;"/><path d="M3553.125,884.8206 Q3553.3789,884.1956 3553.6719,883.8831 Q3553.9648,883.5706 3554.2969,883.5706 Q3554.8828,883.5706 3555.2539,883.9221 Q3555.625,884.2737 3555.625,885.094 L3555.625,887.0471 Q3555.625,887.8674 3555.2734,888.219 Q3554.9219,888.5706 3554.375,888.5706 Q3553.8867,888.5706 3553.5742,888.3557 Q3553.2617,888.1409 3553.125,887.5745 Q3553.0664,887.1838 3552.8516,886.969 Q3552.4609,886.5588 3551.7578,886.3245 Q3551.0547,886.0706 3550.3516,886.0706 Q3549.4727,886.0706 3548.7305,886.4221 Q3548.0078,886.7737 3547.4414,887.5549 Q3546.875,888.3362 3546.875,889.4104 L3546.875,890.5627 Q3546.875,891.8518 3547.9297,892.7112 Q3548.9844,893.5706 3550.8594,893.5706 Q3551.9727,893.5706 3552.7539,893.3167 Q3553.2031,893.1799 3553.7109,892.7307 Q3554.043,892.4768 3554.2188,892.3987 Q3554.3945,892.3206 3554.6094,892.3206 Q3555.0195,892.3206 3555.3125,892.6526 Q3555.625,892.9651 3555.625,893.4143 Q3555.625,893.844 3555.1953,894.3518 Q3554.5703,895.094 3553.5742,895.5042 Q3552.2656,896.0706 3550.6641,896.0706 Q3548.7891,896.0706 3547.2852,895.3284 Q3546.0742,894.7424 3545.2148,893.4729 Q3544.375,892.2034 3544.375,890.6995 L3544.375,889.3323 Q3544.375,887.7698 3545.1172,886.4026 Q3545.8789,885.0354 3547.1875,884.3127 Q3548.5156,883.5706 3550,883.5706 Q3550.8984,883.5706 3551.6797,883.8831 Q3552.4609,884.1956 3553.125,884.8206 Z " fill="#000000"/><text fill="#000000" font-family="sans-serif" font-size="15" lengthAdjust="spacing" textLength="32.5" x="3568.125" y="895.3333">NHS</text><line style="stroke:#A80036;stroke-width:1.875;" x1="3533.125" x2="3603.125" y1="909.1956" y2="909.1956"/><!--MD5=[9681492165142af2a4a3a169d90ee8d4]
class Sample--><rect codeLine="221" fill="#FEFECE" filter="url(#fqa0na90n0jeu)" height="67.2949" id="Sample" style="stroke:#A80036;stroke-width:1.875;" width="93.75" x="2196.25" y="649.1956"/><ellipse cx="2215" cy="669.1956" fill="#ADD1B2" rx="13.75" ry="13.75" style="stroke:#A80036;stroke-width:1.25;"/><path d="M2217.5,664.8206 Q2217.7539,664.1956 2218.0469,663.8831 Q2218.3398,663.5706 2218.6719,663.5706 Q2219.2578,663.5706 2219.6289,663.9221 Q2220,664.2737 2220,665.094 L2220,667.0471 Q2220,667.8674 2219.6484,668.219 Q2219.2969,668.5706 2218.75,668.5706 Q2218.2617,668.5706 2217.9492,668.3557 Q2217.6367,668.1409 2217.5,667.5745 Q2217.4414,667.1838 2217.2266,666.969 Q2216.8359,666.5588 2216.1328,666.3245 Q2215.4297,666.0706 2214.7266,666.0706 Q2213.8477,666.0706 2213.1055,666.4221 Q2212.3828,666.7737 2211.8164,667.5549 Q2211.25,668.3362 2211.25,669.4104 L2211.25,670.5627 Q2211.25,671.8518 2212.3047,672.7112 Q2213.3594,673.5706 2215.2344,673.5706 Q2216.3477,673.5706 2217.1289,673.3167 Q2217.5781,673.1799 2218.0859,672.7307 Q2218.418,672.4768 2218.5938,672.3987 Q2218.7695,672.3206 2218.9844,672.3206 Q2219.3945,672.3206 2219.6875,672.6526 Q2220,672.9651 2220,673.4143 Q2220,673.844 2219.5703,674.3518 Q2218.9453,675.094 2217.9492,675.5042 Q2216.6406,676.0706 2215.0391,676.0706 Q2213.1641,676.0706 2211.6602,675.3284 Q2210.4492,674.7424 2209.5898,673.4729 Q2208.75,672.2034 2208.75,670.6995 L2208.75,669.3323 Q2208.75,667.7698 2209.4922,666.4026 Q2210.2539,665.0354 2211.5625,664.3127 Q2212.8906,663.5706 2214.375,663.5706 Q2215.2734,663.5706 2216.0547,663.8831 Q2216.8359,664.1956 2217.5,664.8206 Z " fill="#000000"/><text fill="#000000" font-family="sans-serif" font-size="15" lengthAdjust="spacing" textLength="53.75" x="2232.5" y="675.3333">Sample</text><line style="stroke:#A80036;stroke-width:1.875;" x1="2197.5" x2="2288.75" y1="689.1956" y2="689.1956"/><text fill="#000000" font-family="sans-serif" font-size="13.75" lengthAdjust="spacing" textLength="55" x="2203.75" y="708.4692">-barcode</text><!--MD5=[12d76240d3c3c66074d4ec2ea8bf469c]
link Company to Parameter--><path codeLine="29" d="M612.3625,842.0956 C633.7375,913.2456 694.175,1075.6331 813.75,1134.1956 C1079.45,1264.3331 1451.1,1149.0581 1589.875,1097.4206 " fill="none" id="Company-Parameter" style="stroke:#A80036;stroke-width:1.25;"/><polygon fill="#000000" points="994.7971,1175.9948,984.7862,1169.583,982.9294,1176.6918,994.7971,1175.9948" style="stroke:#000000;stroke-width:1.25;"/><text fill="#000000" font-family="sans-serif" font-size="16.25" lengthAdjust="spacing" textLength="147.5" x="1000" y="1181.0645">capable of analysing</text><text fill="#000000" font-family="sans-serif" font-size="16.25" lengthAdjust="spacing" textLength="8.75" x="604.8732" y="868.1369">1</text><text fill="#000000" font-family="sans-serif" font-size="16.25" lengthAdjust="spacing" textLength="6.25" x="1573.7703" y="1119.6727">*</text><!--MD5=[09366576ee87d48d594df10cacc83f45]
link Company to Employee--><path codeLine="31" d="M619.35,774.1331 C636.1625,740.0956 663.9375,686.5456 692.5,642.9456 C733.225,580.7831 785.875,514.5081 824.7,467.8081 " fill="none" id="Company-Employee" style="stroke:#A80036;stroke-width:1.25;"/><polygon fill="#000000" points="695.2698,524.6067,704.617,517.2609,698.5141,513.1697,695.2698,524.6067" style="stroke:#000000;stroke-width:1.25;"/><text fill="#000000" font-family="sans-serif" font-size="16.25" lengthAdjust="spacing" textLength="65" x="710" y="526.0645">works for</text><text fill="#000000" font-family="sans-serif" font-size="16.25" lengthAdjust="spacing" textLength="8.75" x="613.7931" y="760.4012">1</text><text fill="#000000" font-family="sans-serif" font-size="16.25" lengthAdjust="spacing" textLength="6.25" x="808.8769" y="496.7138">*</text><!--MD5=[93b4f25fb503a8e0e9a46b1d30ff3f44]
link Company to ParameterCategory--><path codeLine="33" d="M655.2625,824.7456 C771.5125,862.2081 1052.95,952.9206 1195.725,998.9331 " fill="none" id="Company-ParameterCategory" style="stroke:#A80036;stroke-width:1.25;"/><polygon fill="#000000" points="857.8237,868.8325,848.1893,861.8677,845.9355,868.8608,857.8237,868.8325" style="stroke:#000000;stroke-width:1.25;"/><text fill="#000000" font-family="sans-serif" font-size="16.25" lengthAdjust="spacing" textLength="48.75" x="863.125" y="873.5645">adopts</text><text fill="#000000" font-family="sans-serif" font-size="16.25" lengthAdjust="spacing" textLength="8.75" x="664.8294" y="846.1066">1</text><text fill="#000000" font-family="sans-serif" font-size="16.25" lengthAdjust="spacing" textLength="6.25" x="1180.1396" y="1014.0246">*</text><!--MD5=[eaea43e34e45c5b9d20b595fc78f1f20]
link Company to Administrator--><path codeLine="35" d="M629.625,842.0456 C646.4125,862.4456 669.275,888.1706 692.5,907.9456 C729.9375,939.8081 776.55,969.6081 813.7125,991.3831 " fill="none" id="Company-Administrator" style="stroke:#A80036;stroke-width:1.25;"/><polygon fill="#000000" points="712.9787,900.8528,706.5127,890.8768,701.8839,896.5827,712.9787,900.8528" style="stroke:#000000;stroke-width:1.25;"/><text fill="#000000" font-family="sans-serif" font-size="16.25" lengthAdjust="spacing" textLength="46.25" x="719.375" y="903.5645">knows</text><text fill="#000000" font-family="sans-serif" font-size="16.25" lengthAdjust="spacing" textLength="8.75" x="625.9883" y="868.6318">1</text><text fill="#000000" font-family="sans-serif" font-size="16.25" lengthAdjust="spacing" textLength="6.25" x="797.3593" y="1004.5801">*</text><!--MD5=[4c7c52c4bf7e982cdae6fb6daeda4b43]
reverse link Employee to ClinicalChemistryTechnologist--><path codeLine="37" d="M959.325,405.4456 C1040.225,405.4456 1169.85,405.4456 1281.875,405.4456 C1281.875,405.4456 1281.875,405.4456 2078.125,405.4456 C2373.125,405.4456 2446.875,405.4456 2741.875,405.4456 C2741.875,405.4456 2741.875,405.4456 3569.375,405.4456 C3728.0875,405.4456 3879.925,547.7081 3936,606.6206 " fill="none" id="Employee-backto-ClinicalChemistryTechnologist" style="stroke:#A80036;stroke-width:1.25;"/><polygon fill="none" points="958.85,414.1956,933.85,405.4456,958.85,396.6956,958.85,414.1956" style="stroke:#A80036;stroke-width:1.25;"/><text fill="#000000" font-family="sans-serif" font-size="16.25" lengthAdjust="spacing" textLength="6.25" x="943.75" y="406.5088">*</text><text fill="#000000" font-family="sans-serif" font-size="16.25" lengthAdjust="spacing" textLength="6.25" x="3921.782" y="593.2507">*</text><!--MD5=[bfff716514ca687b645fe473c6e098a4]
reverse link Employee to Receptionist--><path codeLine="39" d="M958.1625,377.7706 C1038.175,351.7331 1167.125,316.6956 1281.875,316.6956 C1281.875,316.6956 1281.875,316.6956 3724.375,316.6956 C4015.6125,316.6956 4354.1625,413.1331 4491.0125,456.2706 " fill="none" id="Employee-backto-Receptionist" style="stroke:#A80036;stroke-width:1.25;"/><polygon fill="none" points="960.475,386.2331,933.9875,385.8581,954.925,369.6331,960.475,386.2331" style="stroke:#A80036;stroke-width:1.25;"/><text fill="#000000" font-family="sans-serif" font-size="16.25" lengthAdjust="spacing" textLength="6.25" x="943.9111" y="377.6953">*</text><text fill="#000000" font-family="sans-serif" font-size="16.25" lengthAdjust="spacing" textLength="25" x="4456.2926" y="471.8319">1..*</text><!--MD5=[8c76900db13228c02bafda6909b4bb57]
reverse link Employee to MedicalLabTechnician--><path codeLine="41" d="M951.3875,307.7706 C961.025,298.7956 971.4375,290.6581 982.5,284.1956 C1099.3875,215.8831 1146.4875,227.9456 1281.875,227.9456 C1281.875,227.9456 1281.875,227.9456 2244.375,227.9456 C2311.775,227.9456 2387.775,227.2956 2446.075,226.6581 " fill="none" id="Employee-backto-MedicalLabTechnician" style="stroke:#A80036;stroke-width:1.25;"/><polygon fill="none" points="957.5375,313.9956,933.8625,325.8581,944.975,301.8206,957.5375,313.9956" style="stroke:#A80036;stroke-width:1.25;"/><text fill="#000000" font-family="sans-serif" font-size="16.25" lengthAdjust="spacing" textLength="6.25" x="943.7646" y="330.8203">*</text><text fill="#000000" font-family="sans-serif" font-size="16.25" lengthAdjust="spacing" textLength="6.25" x="2429.964" y="244.6523">*</text><!--MD5=[7dae17bb55c59b06af656d7c83a51371]
reverse link Employee to LaboratoryCoordinator--><path codeLine="43" d="M957.75,432.8331 C1031.0875,458.8831 1140.45,497.7206 1211.475,522.9456 " fill="none" id="Employee-backto-LaboratoryCoordinator" style="stroke:#A80036;stroke-width:1.25;"/><polygon fill="none" points="954.5375,440.9831,933.9125,424.3706,960.4,424.4956,954.5375,440.9831" style="stroke:#A80036;stroke-width:1.25;"/><text fill="#000000" font-family="sans-serif" font-size="16.25" lengthAdjust="spacing" textLength="6.25" x="943.8232" y="446.2646">*</text><text fill="#000000" font-family="sans-serif" font-size="16.25" lengthAdjust="spacing" textLength="25" x="1160.7041" y="509.163">1..*</text><!--MD5=[c3a86c626b5b742f72786125539e9227]
link ClinicalChemistryTechnologist to ChemicalLaboratory--><path codeLine="45" d="M3834.7375,608.1831 C3758.4875,595.7081 3658.625,582.9456 3569.375,582.9456 C2241.875,582.9456 2241.875,582.9456 2241.875,582.9456 C2143.95,582.9456 2032.9,600.5456 1957.7125,615.1081 " fill="none" id="ClinicalChemistryTechnologist-ChemicalLaboratory" style="stroke:#A80036;stroke-width:1.25;"/><polygon fill="#000000" points="2885,571.9383,2896.3199,575.5703,2896.2928,568.223,2885,571.9383" style="stroke:#000000;stroke-width:1.25;"/><text fill="#000000" font-family="sans-serif" font-size="16.25" lengthAdjust="spacing" textLength="61.25" x="2902.5" y="578.5645">works at</text><text fill="#000000" font-family="sans-serif" font-size="16.25" lengthAdjust="spacing" textLength="6.25" x="3818.6578" y="624.0342">*</text><text fill="#000000" font-family="sans-serif" font-size="16.25" lengthAdjust="spacing" textLength="8.75" x="1967.4024" y="631.0625">1</text><!--MD5=[738f0445d4a0804ca0738b44323ae22b]
link MedicalLabTechnician to ClinicalAnalysisLaboratory--><path codeLine="47" d="M2640.2625,226.4206 C2716.9625,227.1331 2827.2625,227.9456 2923.75,227.9456 C2923.75,227.9456 2923.75,227.9456 4555.625,227.9456 C4668.525,227.9456 4783.5,305.3831 4842.125,351.6581 " fill="none" id="MedicalLabTechnician-ClinicalAnalysisLaboratory" style="stroke:#A80036;stroke-width:1.25;"/><polygon fill="#000000" points="3695.6149,217.2702,3684.5354,212.9604,3684.1182,220.2959,3695.6149,217.2702" style="stroke:#000000;stroke-width:1.25;"/><text fill="#000000" font-family="sans-serif" font-size="16.25" lengthAdjust="spacing" textLength="61.25" x="3700.625" y="223.5645">works at</text><text fill="#000000" font-family="sans-serif" font-size="16.25" lengthAdjust="spacing" textLength="25" x="2650.0271" y="244.2865">1..*</text><text fill="#000000" font-family="sans-serif" font-size="16.25" lengthAdjust="spacing" textLength="6.25" x="4825.1195" y="337.9323">*</text><!--MD5=[6cd0a3af2322bf46f6c633408da71c74]
link Receptionist to ClinicalAnalysisLaboratory--><path codeLine="49" d="M4617.6375,466.6706 C4652.4625,460.4206 4696.5125,451.4706 4735,440.4456 C4755.8125,434.4831 4777.8625,426.9206 4798.375,419.3331 " fill="none" id="Receptionist-ClinicalAnalysisLaboratory" style="stroke:#A80036;stroke-width:1.25;"/><polygon fill="#000000" points="4667.2961,427.8317,4655.4278,427.1426,4657.2894,434.2502,4667.2961,427.8317" style="stroke:#000000;stroke-width:1.25;"/><text fill="#000000" font-family="sans-serif" font-size="16.25" lengthAdjust="spacing" textLength="61.25" x="4672.5" y="436.0645">works at</text><text fill="#000000" font-family="sans-serif" font-size="16.25" lengthAdjust="spacing" textLength="25" x="4627.3446" y="483.5644">1..*</text><text fill="#000000" font-family="sans-serif" font-size="16.25" lengthAdjust="spacing" textLength="6.25" x="4772.9023" y="445.8728">*</text><!--MD5=[4d5641458326529fdf5c82259a5ad32d]
link LaboratoryCoordinator to Laboratory--><path codeLine="51" d="M1380.075,547.9456 C1447.05,547.9456 1534.175,547.9456 1589.8625,547.9456 " fill="none" id="LaboratoryCoordinator-Laboratory" style="stroke:#A80036;stroke-width:1.25;"/><polygon fill="#000000" points="1450.625,536.9153,1439.3186,533.2416,1439.3186,540.5889,1450.625,536.9153" style="stroke:#000000;stroke-width:1.25;"/><text fill="#000000" font-family="sans-serif" font-size="16.25" lengthAdjust="spacing" textLength="75" x="1455.625" y="543.5645">works at a</text><text fill="#000000" font-family="sans-serif" font-size="16.25" lengthAdjust="spacing" textLength="25" x="1390.1649" y="565.7566">1..*</text><text fill="#000000" font-family="sans-serif" font-size="16.25" lengthAdjust="spacing" textLength="6.25" x="1573.7557" y="566.4715">*</text><!--MD5=[de3aa179ee7f21b344f648244b25a961]
link ChemicalLaboratory to Company--><path codeLine="53" d="M1778.4625,658.5456 C1738.7375,667.4831 1691.1,675.4456 1647.5,675.4456 C878.125,675.4456 878.125,675.4456 878.125,675.4456 C791.925,675.4456 768.1375,690.3456 692.5,731.6956 C672.1,742.8456 652.1375,759.1831 636.2875,773.8831 " fill="none" id="ChemicalLaboratory-Company" style="stroke:#A80036;stroke-width:1.25;"/><polygon fill="#000000" points="1267.4684,663.7873,1255.8501,661.2682,1256.5883,668.5784,1267.4684,663.7873" style="stroke:#000000;stroke-width:1.25;"/><text fill="#000000" font-family="sans-serif" font-size="16.25" lengthAdjust="spacing" textLength="37.5" x="1272.5" y="671.0645">owns</text><text fill="#000000" font-family="sans-serif" font-size="16.25" lengthAdjust="spacing" textLength="8.75" x="1760.0149" y="678.9795">1</text><text fill="#000000" font-family="sans-serif" font-size="16.25" lengthAdjust="spacing" textLength="8.75" x="634.4837" y="760.637">1</text><!--MD5=[47855ee4dabeea37c5949a17ed9e3a41]
link ChemicalLaboratory to Sample--><path codeLine="55" d="M1957.65,645.7456 C2032.525,655.5456 2136.925,669.2081 2196.1125,676.9581 " fill="none" id="ChemicalLaboratory-Sample" style="stroke:#A80036;stroke-width:1.25;"/><polygon fill="#000000" points="2033.8029,639.8541,2044.5368,644.9641,2045.4904,637.6789,2033.8029,639.8541" style="stroke:#000000;stroke-width:1.25;"/><text fill="#000000" font-family="sans-serif" font-size="16.25" lengthAdjust="spacing" textLength="67.5" x="2051.25" y="647.3145">is sent to</text><text fill="#000000" font-family="sans-serif" font-size="16.25" lengthAdjust="spacing" textLength="8.75" x="1967.3334" y="664.8595">1</text><text fill="#000000" font-family="sans-serif" font-size="16.25" lengthAdjust="spacing" textLength="6.25" x="2179.9917" y="694.6804">*</text><!--MD5=[fdfe1f7a1d4f9a6f0814f21c5f7b0d38]
link ClinicalAnalysisLaboratory to Company--><path codeLine="57" d="M4857.825,351.5206 C4831.45,316.6831 4786.025,263.2456 4735,231.6956 C4688.5125,202.9581 4671.45,204.1956 4617.5,195.4456 C3503.1625,14.8206 3207.0125,139.1956 2078.125,139.1956 C878.125,139.1956 878.125,139.1956 878.125,139.1956 C739.4125,139.1956 635.25,637.5831 609.3625,773.8581 " fill="none" id="ClinicalAnalysisLaboratory-Company" style="stroke:#A80036;stroke-width:1.25;"/><polygon fill="#000000" points="2727.4693,111.297,2715.855,108.7598,2716.5818,116.0711,2727.4693,111.297" style="stroke:#000000;stroke-width:1.25;"/><text fill="#000000" font-family="sans-serif" font-size="16.25" lengthAdjust="spacing" textLength="37.5" x="2732.5" y="118.5645">owns</text><text fill="#000000" font-family="sans-serif" font-size="16.25" lengthAdjust="spacing" textLength="6.25" x="4845.0017" y="338.3063">*</text><text fill="#000000" font-family="sans-serif" font-size="16.25" lengthAdjust="spacing" textLength="8.75" x="601.3323" y="760.6062">1</text><!--MD5=[38773adfcb560b2ecbe80133f36e08b9]
reverse link Laboratory to ChemicalLaboratory--><path codeLine="59" d="M1726.5,579.0081 C1751.6125,588.8831 1779.075,599.6706 1802.975,609.0706 " fill="none" id="Laboratory-backto-ChemicalLaboratory" style="stroke:#A80036;stroke-width:1.25;"/><polygon fill="none" points="1722.925,586.9956,1702.8625,569.7081,1729.325,570.7206,1722.925,586.9956" style="stroke:#A80036;stroke-width:1.25;"/><text fill="#000000" font-family="sans-serif" font-size="16.25" lengthAdjust="spacing" textLength="8.75" x="1712.5824" y="591.6399">1</text><text fill="#000000" font-family="sans-serif" font-size="16.25" lengthAdjust="spacing" textLength="8.75" x="1773.802" y="595.686">1</text><!--MD5=[e284e91db30362f23fd6ce34ffcc83e7]
reverse link Laboratory to ClinicalAnalysisLaboratory--><path codeLine="61" d="M1727.85,541.2956 C1908.775,526.9081 2361.975,494.1956 2741.875,494.1956 C2741.875,494.1956 2741.875,494.1956 3432.5,494.1956 C3693.825,494.1956 4481.0625,423.0081 4772.1375,395.8206 " fill="none" id="Laboratory-backto-ClinicalAnalysisLaboratory" style="stroke:#A80036;stroke-width:1.25;"/><polygon fill="none" points="1728.3,550.0331,1702.6875,543.3206,1726.9,532.5956,1728.3,550.0331" style="stroke:#A80036;stroke-width:1.25;"/><text fill="#000000" font-family="sans-serif" font-size="16.25" lengthAdjust="spacing" textLength="8.75" x="1712.3795" y="561.0469">1</text><text fill="#000000" font-family="sans-serif" font-size="16.25" lengthAdjust="spacing" textLength="8.75" x="4753.834" y="414.4034">1</text><!--MD5=[7144ffdeebbe38808f7fb2ce8ac24f7d]
link Administrator to ParameterCategory--><path codeLine="63" d="M945.0875,1026.6956 C1013.2125,1026.6956 1120.9875,1026.6956 1196.2125,1026.6956 " fill="none" id="Administrator-ParameterCategory" style="stroke:#A80036;stroke-width:1.25;"/><polygon fill="#000000" points="1018.125,1015.6653,1029.4314,1019.3389,1029.4314,1011.9916,1018.125,1015.6653" style="stroke:#000000;stroke-width:1.25;"/><text fill="#000000" font-family="sans-serif" font-size="16.25" lengthAdjust="spacing" textLength="76.25" x="1035.625" y="1022.3145">created by</text><text fill="#000000" font-family="sans-serif" font-size="16.25" lengthAdjust="spacing" textLength="6.25" x="955.198" y="1045.0791">*</text><text fill="#000000" font-family="sans-serif" font-size="16.25" lengthAdjust="spacing" textLength="6.25" x="1180.1146" y="1044.7159">*</text><!--MD5=[49f9c994ab9013da19f25c37bbd596b3]
link SpecialistDoctor to Result--><path codeLine="65" d="M3337.55,999.3081 C3349.95,1002.3831 3362.75,1005.0206 3375,1006.6956 C3424.5375,1013.4456 3437.5125,1007.8706 3487.5,1006.6956 C3499.775,1006.4081 3513.1125,1005.8581 3525.275,1005.2831 " fill="none" id="SpecialistDoctor-Result" style="stroke:#A80036;stroke-width:1.25;"/><polygon fill="#000000" points="3378.1282,995.4665,3389.3119,999.4979,3389.5457,992.1543,3378.1282,995.4665" style="stroke:#000000;stroke-width:1.25;"/><text fill="#000000" font-family="sans-serif" font-size="16.25" lengthAdjust="spacing" textLength="87.5" x="3395.625" y="1002.3145">analyzed by</text><text fill="#000000" font-family="sans-serif" font-size="16.25" lengthAdjust="spacing" textLength="8.75" x="3347.3823" y="1020.3432">1</text><text fill="#000000" font-family="sans-serif" font-size="16.25" lengthAdjust="spacing" textLength="8.75" x="3506.7848" y="1024.7419">1</text><!--MD5=[98994e1502641fa381021dffe882d56a]
link ClinicalChemistryTechnologist to Sample--><path codeLine="67" d="M3856.55,656.6956 C3778.4125,673.6331 3667.75,692.9456 3569.375,692.9456 C3093.125,692.9456 3093.125,692.9456 3093.125,692.9456 C2786.6125,692.9456 2417.875,686.3456 2290.375,683.8706 " fill="none" id="ClinicalChemistryTechnologist-Sample" style="stroke:#A80036;stroke-width:1.25;"/><polygon fill="#000000" points="3053.7491,681.8069,3042.3807,678.3299,3042.5081,685.6761,3053.7491,681.8069" style="stroke:#000000;stroke-width:1.25;"/><text fill="#000000" font-family="sans-serif" font-size="16.25" lengthAdjust="spacing" textLength="87.5" x="3058.75" y="688.5645">analyzed by</text><text fill="#000000" font-family="sans-serif" font-size="16.25" lengthAdjust="spacing" textLength="6.25" x="3820.3258" y="683.47">*</text><text fill="#000000" font-family="sans-serif" font-size="16.25" lengthAdjust="spacing" textLength="25" x="2299.8977" y="702.532">1..*</text><!--MD5=[502b51bc079239060389dab43b7d3470]
link Client to Test--><path codeLine="69" d="M4230.9625,1182.1331 C4169.2125,1214.7206 4061,1262.9456 3961.25,1262.9456 C2923.75,1262.9456 2923.75,1262.9456 2923.75,1262.9456 C2815.75,1262.9456 2706.6875,1201.1206 2633.4,1148.4706 " fill="none" id="Client-Test" style="stroke:#A80036;stroke-width:1.25;"/><polygon fill="#000000" points="3387.4986,1252.0469,3376.2722,1248.1359,3376.1174,1255.4816,3387.4986,1252.0469" style="stroke:#000000;stroke-width:1.25;"/><text fill="#000000" font-family="sans-serif" font-size="16.25" lengthAdjust="spacing" textLength="93.75" x="3392.5" y="1258.5645">requested by</text><text fill="#000000" font-family="sans-serif" font-size="16.25" lengthAdjust="spacing" textLength="8.75" x="4212.4951" y="1205.8086">1</text><text fill="#000000" font-family="sans-serif" font-size="16.25" lengthAdjust="spacing" textLength="6.25" x="2643.0319" y="1173.9442">*</text><!--MD5=[7048eb257bae2750d747ca61a113ed73]
link Client to Receptionist--><path codeLine="71" d="M4335.1,1070.4956 C4371.875,1008.0706 4420.725,919.2456 4453.75,836.6956 C4502.3875,715.0956 4536.15,561.2456 4548.2125,501.7581 " fill="none" id="Client-Receptionist" style="stroke:#A80036;stroke-width:1.25;"/><polygon fill="#000000" points="4376.557,831.5179,4383.9643,822.2195,4377.0841,819.6414,4376.557,831.5179" style="stroke:#000000;stroke-width:1.25;"/><text fill="#000000" font-family="sans-serif" font-size="16.25" lengthAdjust="spacing" textLength="62.5" x="4390" y="832.3145">registers</text><text fill="#000000" font-family="sans-serif" font-size="16.25" lengthAdjust="spacing" textLength="6.25" x="4344.9147" y="1074.5332">*</text><text fill="#000000" font-family="sans-serif" font-size="16.25" lengthAdjust="spacing" textLength="25" x="4549.9949" y="528.5501">1..*</text><!--MD5=[b097d9d314264888b7dbeddc95343863]
link LabOrder to Client--><path codeLine="73" d="M77.9125,1283.1206 C114.0375,1338.6456 210.075,1466.6956 327.5,1466.6956 C327.5,1466.6956 327.5,1466.6956 3432.5,1466.6956 C3732.325,1466.6956 3813.975,1423.6706 4085,1295.4456 C4134.1875,1272.1706 4149.65,1271.0831 4193.75,1239.1956 C4206.5875,1229.9081 4219.3625,1218.7956 4231.05,1207.6706 " fill="none" id="LabOrder-Client" style="stroke:#A80036;stroke-width:1.25;"/><polygon fill="#000000" points="2041.874,1455.5518,2030.5027,1452.0841,2030.6362,1459.4302,2041.874,1455.5518" style="stroke:#000000;stroke-width:1.25;"/><text fill="#000000" font-family="sans-serif" font-size="16.25" lengthAdjust="spacing" textLength="76.25" x="2046.875" y="1462.3145">brought by</text><text fill="#000000" font-family="sans-serif" font-size="16.25" lengthAdjust="spacing" textLength="8.75" x="72.6184" y="1309.9442">1</text><text fill="#000000" font-family="sans-serif" font-size="16.25" lengthAdjust="spacing" textLength="6.25" x="4214.9675" y="1236.1425">*</text><!--MD5=[727b58dfd932e2fbda2a273f174e2308]
link LabOrder to Receptionist--><path codeLine="75" d="M62.375,1232.8456 C62.1875,1058.0206 71.9,29.1956 327.5,29.1956 C327.5,29.1956 327.5,29.1956 2078.125,29.1956 C2453.9875,29.1956 2547.8875,39.1956 2923.75,39.1956 C2923.75,39.1956 2923.75,39.1956 3724.375,39.1956 C4080.275,39.1956 4433.0625,358.6331 4528.2,451.6081 " fill="none" id="LabOrder-Receptionist" style="stroke:#A80036;stroke-width:1.25;"/><polygon fill="#000000" points="2204.4685,20.4923,2216.2388,22.1627,2214.9727,14.9253,2204.4685,20.4923" style="stroke:#000000;stroke-width:1.25;"/><text fill="#000000" font-family="sans-serif" font-size="16.25" lengthAdjust="spacing" textLength="58.75" x="2221.875" y="26.0645">receives</text><text fill="#000000" font-family="sans-serif" font-size="16.25" lengthAdjust="spacing" textLength="8.75" x="52.6703" y="1219.4684">1</text><text fill="#000000" font-family="sans-serif" font-size="16.25" lengthAdjust="spacing" textLength="25" x="4491.8392" y="438.2345">1..*</text><!--MD5=[84a279e28ad6c3248737114c29c49c27]
link LabOrder to Test--><path codeLine="77" d="M102.5375,1283.1206 C152.9875,1312.3831 243.3,1356.6956 327.5,1356.6956 C327.5,1356.6956 327.5,1356.6956 2244.375,1356.6956 C2355.6125,1356.6956 2442.025,1251.5831 2492.4,1169.8831 " fill="none" id="LabOrder-Test" style="stroke:#A80036;stroke-width:1.25;"/><polygon fill="#000000" points="1225.632,1345.9611,1237.0996,1349.0955,1236.7518,1341.7564,1225.632,1345.9611" style="stroke:#000000;stroke-width:1.25;"/><text fill="#000000" font-family="sans-serif" font-size="16.25" lengthAdjust="spacing" textLength="96.25" x="1243.125" y="1352.3145">is associated</text><text fill="#000000" font-family="sans-serif" font-size="16.25" lengthAdjust="spacing" textLength="8.75" x="104.1691" y="1309.9442">1</text><text fill="#000000" font-family="sans-serif" font-size="16.25" lengthAdjust="spacing" textLength="8.75" x="2478.5705" y="1196.418">1</text><!--MD5=[fba3ac294f3c76c431d275cef443fef8]
link LabOrder to TestType--><path codeLine="79" d="M113.9125,1243.3956 C158.1625,1230.8706 222.0125,1212.7956 268.375,1199.6831 " fill="none" id="LabOrder-TestType" style="stroke:#A80036;stroke-width:1.25;"/><polygon fill="#000000" points="163.5138,1197.7134,151.6344,1197.2573,153.6351,1204.327,163.5138,1197.7134" style="stroke:#000000;stroke-width:1.25;"/><text fill="#000000" font-family="sans-serif" font-size="16.25" lengthAdjust="spacing" textLength="61.25" x="168.75" y="1206.0645">contains</text><text fill="#000000" font-family="sans-serif" font-size="16.25" lengthAdjust="spacing" textLength="8.75" x="123.7158" y="1259.5202">1</text><text fill="#000000" font-family="sans-serif" font-size="16.25" lengthAdjust="spacing" textLength="8.75" x="250.1148" y="1220.5565">1</text><!--MD5=[8a0bab72ab0281f8a9e78a6f98e5652c]
link Result to ClinicalChemistryTechnologist--><path codeLine="81" d="M3596.1375,977.4331 C3667.4375,909.4456 3861.3875,724.5206 3932.3125,656.8956 " fill="none" id="Result-ClinicalChemistryTechnologist" style="stroke:#A80036;stroke-width:1.25;"/><polygon fill="#000000" points="3684.2266,787.4782,3694.9446,782.3348,3689.8744,777.0173,3684.2266,787.4782" style="stroke:#000000;stroke-width:1.25;"/><text fill="#000000" font-family="sans-serif" font-size="16.25" lengthAdjust="spacing" textLength="62.5" x="3700" y="789.8145">registers</text><text fill="#000000" font-family="sans-serif" font-size="16.25" lengthAdjust="spacing" textLength="6.25" x="3596.8871" y="964.3759">*</text><text fill="#000000" font-family="sans-serif" font-size="16.25" lengthAdjust="spacing" textLength="25" x="3896.0098" y="683.7263">1..*</text><!--MD5=[d14b4c18c397fa0293924715644730ec]
link Result to Notification--><path codeLine="83" d="M3610.675,1005.9956 C3680.55,1011.1581 3822.2125,1021.6081 3901.575,1027.4706 " fill="none" id="Result-Notification" style="stroke:#A80036;stroke-width:1.25;"/><polygon fill="#000000" points="3661.233,997.3754,3650.2278,992.8793,3649.6869,1000.2067,3661.233,997.3754" style="stroke:#000000;stroke-width:1.25;"/><text fill="#000000" font-family="sans-serif" font-size="16.25" lengthAdjust="spacing" textLength="130" x="3666.25" y="1003.5645">is associated with</text><text fill="#000000" font-family="sans-serif" font-size="16.25" lengthAdjust="spacing" textLength="6.25" x="3620.6664" y="1025.7672">*</text><text fill="#000000" font-family="sans-serif" font-size="16.25" lengthAdjust="spacing" textLength="25" x="3867.0445" y="1045.145">1..*</text><!--MD5=[e509fed78cd7f855333fe9c80fc7ea15]
link DiagnosisReport to SpecialistDoctor--><path codeLine="85" d="M3004.075,980.2331 C3058.5875,979.2206 3131.025,977.8581 3184.925,976.8456 " fill="none" id="DiagnosisReport-SpecialistDoctor" style="stroke:#A80036;stroke-width:1.25;"/><polygon fill="#000000" points="3053.7511,965.7823,3065.1243,969.2436,3064.9867,961.8976,3053.7511,965.7823" style="stroke:#000000;stroke-width:1.25;"/><text fill="#000000" font-family="sans-serif" font-size="16.25" lengthAdjust="spacing" textLength="62.5" x="3071.25" y="972.3145">registers</text><text fill="#000000" font-family="sans-serif" font-size="16.25" lengthAdjust="spacing" textLength="8.75" x="3013.7239" y="998.1145">1</text><text fill="#000000" font-family="sans-serif" font-size="16.25" lengthAdjust="spacing" textLength="8.75" x="3166.3397" y="995.1431">1</text><!--MD5=[91dc3644f358c08f88b60791b947d3a3]
link DiagnosisReport to Client--><path codeLine="87" d="M2954.675,1007.0581 C2976.65,1025.0456 3008.725,1047.9081 3041.25,1059.1956 C3480.4625,1211.7081 4058.175,1174.0331 4230.9625,1158.1706 " fill="none" id="DiagnosisReport-Client" style="stroke:#A80036;stroke-width:1.25;"/><polygon fill="#000000" points="3537.4566,1147.6502,3526.6607,1142.6726,3525.7968,1149.9689,3537.4566,1147.6502" style="stroke:#000000;stroke-width:1.25;"/><text fill="#000000" font-family="sans-serif" font-size="16.25" lengthAdjust="spacing" textLength="67.5" x="3542.5" y="1153.5645">is sent to</text><text fill="#000000" font-family="sans-serif" font-size="16.25" lengthAdjust="spacing" textLength="8.75" x="2952.7244" y="1033.4897">1</text><text fill="#000000" font-family="sans-serif" font-size="16.25" lengthAdjust="spacing" textLength="8.75" x="4212.4951" y="1177.7276">1</text><!--MD5=[e83232b12920152899b3d956169a0d16]
link DiagnosisReport to LaboratoryCoordinator--><path codeLine="89" d="M2846.25,959.6456 C2745.6,931.1581 2564.3625,880.3206 2408.75,839.1956 C2129.5875,765.4081 2058.2125,753.0956 1778.75,680.4456 C1638.1375,643.8956 1475.4875,599.9831 1376.2875,573.0206 " fill="none" id="DiagnosisReport-LaboratoryCoordinator" style="stroke:#A80036;stroke-width:1.25;"/><polygon fill="#000000" points="2048.5444,726.0051,2038.5444,719.5763,2036.6755,726.6819,2048.5444,726.0051" style="stroke:#000000;stroke-width:1.25;"/><text fill="#000000" font-family="sans-serif" font-size="16.25" lengthAdjust="spacing" textLength="62.5" x="2053.75" y="731.0645">validates</text><text fill="#000000" font-family="sans-serif" font-size="16.25" lengthAdjust="spacing" textLength="6.25" x="2830.0215" y="975.0726">*</text><text fill="#000000" font-family="sans-serif" font-size="16.25" lengthAdjust="spacing" textLength="8.75" x="1390.2893" y="598.9337">1</text><!--MD5=[b25b37dde2866fd853924cb818679535]
link NHSReport to Result--><path codeLine="91" d="M3320.825,897.8581 C3380.725,923.4456 3472.45,962.6206 3525.35,985.2081 " fill="none" id="NHSReport-Result" style="stroke:#A80036;stroke-width:1.25;"/><polygon fill="#000000" points="3386.7523,908.2105,3395.7071,916.0297,3398.5929,909.2728,3386.7523,908.2105" style="stroke:#000000;stroke-width:1.25;"/><text fill="#000000" font-family="sans-serif" font-size="16.25" lengthAdjust="spacing" textLength="71.25" x="3403.75" y="917.3145">generates</text><text fill="#000000" font-family="sans-serif" font-size="16.25" lengthAdjust="spacing" textLength="25" x="3330.5101" y="919.4478">1..*</text><text fill="#000000" font-family="sans-serif" font-size="16.25" lengthAdjust="spacing" textLength="8.75" x="3506.8753" y="1000.5264">1</text><!--MD5=[5853f8747c18e89b10dd024359cfe8ec]
link NHSReport to NHS--><path codeLine="93" d="M3320.825,877.0206 C3383.1375,881.3706 3479.9,888.1206 3531.55,891.7331 " fill="none" id="NHSReport-NHS" style="stroke:#A80036;stroke-width:1.25;"/><polygon fill="#000000" points="3400.6098,869.8506,3389.5868,865.3984,3389.0751,872.7278,3400.6098,869.8506" style="stroke:#000000;stroke-width:1.25;"/><text fill="#000000" font-family="sans-serif" font-size="16.25" lengthAdjust="spacing" textLength="67.5" x="3405.625" y="876.0645">is sent to</text><text fill="#000000" font-family="sans-serif" font-size="16.25" lengthAdjust="spacing" textLength="25" x="3330.5101" y="895.8103">1..*</text><text fill="#000000" font-family="sans-serif" font-size="16.25" lengthAdjust="spacing" textLength="8.75" x="3513.3303" y="910.3958">1</text><!--MD5=[7a9e3e328fb1db48284e23a673c1e60d]
link ParameterCategory to Parameter--><path codeLine="95" d="M1370.3,1038.3081 C1438.2125,1047.4956 1531.0125,1060.0331 1589.475,1067.9331 " fill="none" id="ParameterCategory-Parameter" style="stroke:#A80036;stroke-width:1.25;"/><polygon fill="#000000" points="1417.5563,1032.3281,1428.2687,1037.4831,1429.2529,1030.202,1417.5563,1032.3281" style="stroke:#000000;stroke-width:1.25;"/><text fill="#000000" font-family="sans-serif" font-size="16.25" lengthAdjust="spacing" textLength="116.25" x="1435" y="1039.8145">presented under</text><text fill="#000000" font-family="sans-serif" font-size="16.25" lengthAdjust="spacing" textLength="8.75" x="1379.7411" y="1057.4601">1</text><text fill="#000000" font-family="sans-serif" font-size="16.25" lengthAdjust="spacing" textLength="6.25" x="1573.6784" y="1085.2824">*</text><!--MD5=[4265453a012991a726928e22789b8a83]
link Parameter to Test--><path codeLine="97" d="M1702.775,1075.4456 C1852.925,1075.4456 2269.3625,1075.4456 2452.975,1075.4456 " fill="none" id="Parameter-Test" style="stroke:#A80036;stroke-width:1.25;"/><polygon fill="#000000" points="1995,1064.4153,2006.3064,1068.0889,2006.3064,1060.7416,1995,1064.4153" style="stroke:#000000;stroke-width:1.25;"/><text fill="#000000" font-family="sans-serif" font-size="16.25" lengthAdjust="spacing" textLength="145" x="2012.5" y="1071.0645">requests analysis of</text><text fill="#000000" font-family="sans-serif" font-size="16.25" lengthAdjust="spacing" textLength="25" x="1712.4816" y="1093.7949">1..*</text><text fill="#000000" font-family="sans-serif" font-size="16.25" lengthAdjust="spacing" textLength="6.25" x="2437.106" y="1093.3885">*</text><!--MD5=[6d9eb9a083ac0654c8b63743033752d3]
link TestType to Company--><path codeLine="99" d="M367.0625,1131.5956 C423.225,1053.7581 528.4,908.0331 576.05,842.0081 " fill="none" id="TestType-Company" style="stroke:#A80036;stroke-width:1.25;"/><polygon fill="#000000" points="428.8425,933.2333,438.4379,926.2149,432.48,921.9153,428.8425,933.2333" style="stroke:#000000;stroke-width:1.25;"/><text fill="#000000" font-family="sans-serif" font-size="16.25" lengthAdjust="spacing" textLength="66.25" x="443.75" y="934.8145">conducts</text><text fill="#000000" font-family="sans-serif" font-size="16.25" lengthAdjust="spacing" textLength="6.25" x="366.8604" y="1118.0106">*</text><text fill="#000000" font-family="sans-serif" font-size="16.25" lengthAdjust="spacing" textLength="8.75" x="560.6937" y="868.5861">1</text><!--MD5=[c2c6b28b052a3fe86d789b83a09b2815]
link TestType to Test--><path codeLine="101" d="M389.0625,1212.9081 C442.7875,1237.3831 525.0375,1267.9456 600.625,1267.9456 C600.625,1267.9456 600.625,1267.9456 2244.375,1267.9456 C2324.0375,1267.9456 2399.2375,1218.6831 2454.1,1170.0081 " fill="none" id="TestType-Test" style="stroke:#A80036;stroke-width:1.25;"/><polygon fill="#000000" points="1460.6263,1257.0451,1472.0066,1260.4831,1471.854,1253.1374,1460.6263,1257.0451" style="stroke:#000000;stroke-width:1.25;"/><text fill="#000000" font-family="sans-serif" font-size="16.25" lengthAdjust="spacing" textLength="30" x="1478.125" y="1263.5645">is of</text><text fill="#000000" font-family="sans-serif" font-size="16.25" lengthAdjust="spacing" textLength="8.75" x="398.5635" y="1235.7239">1</text><text fill="#000000" font-family="sans-serif" font-size="16.25" lengthAdjust="spacing" textLength="6.25" x="2439.6429" y="1196.2265">*</text><!--MD5=[0985ee834cc881275852ed47ce1e01f6]
link TestType to Administrator--><path codeLine="103" d="M389.175,1166.0706 C492.85,1136.5206 706.45,1075.6331 813.7,1045.0581 " fill="none" id="TestType-Administrator" style="stroke:#A80036;stroke-width:1.25;"/><polygon fill="#000000" points="565.8644,1082.3786,577.7447,1082.8121,575.7306,1075.7462,565.8644,1082.3786" style="stroke:#000000;stroke-width:1.25;"/><text fill="#000000" font-family="sans-serif" font-size="16.25" lengthAdjust="spacing" textLength="53.75" x="583.125" y="1087.3145">creates</text><text fill="#000000" font-family="sans-serif" font-size="16.25" lengthAdjust="spacing" textLength="6.25" x="398.9061" y="1181.9675">*</text><text fill="#000000" font-family="sans-serif" font-size="16.25" lengthAdjust="spacing" textLength="8.75" x="795.0992" y="1065.9594">1</text><!--MD5=[9163865a413f55935f47e026f9eaa033]
link Test to Result--><path codeLine="105" d="M2633.6375,1071.3331 C2780.5,1064.3956 3082.3,1049.3581 3337.5,1031.6956 C3404.2375,1027.0706 3421.275,1028.6956 3487.5,1019.1956 C3499.8875,1017.4206 3513.2625,1014.9081 3525.425,1012.3956 " fill="none" id="Test-Result" style="stroke:#A80036;stroke-width:1.25;"/><polygon fill="#000000" points="3077.4864,1031.5031,3065.9624,1028.5831,3066.4469,1035.9144,3077.4864,1031.5031" style="stroke:#000000;stroke-width:1.25;"/><text fill="#000000" font-family="sans-serif" font-size="16.25" lengthAdjust="spacing" textLength="40" x="3082.5" y="1038.5645">has a</text><text fill="#000000" font-family="sans-serif" font-size="16.25" lengthAdjust="spacing" textLength="8.75" x="2642.978" y="1088.8224">1</text><text fill="#000000" font-family="sans-serif" font-size="16.25" lengthAdjust="spacing" textLength="8.75" x="3506.9658" y="1033.3213">1</text><!--MD5=[150ee6e4dbb30ab82336f9e174f6c4ed]
link Test to Company--><path codeLine="107" d="M2453,1052.4206 C2438.275,1048.9831 2423.125,1045.6831 2408.75,1042.9456 C1689.25,905.6331 1505.5,885.5206 776.25,816.6956 C735.65,812.8581 689.525,810.6331 655.1,809.3956 " fill="none" id="Test-Company" style="stroke:#A80036;stroke-width:1.25;"/><polygon fill="#000000" points="1618.0687,892.7525,1607.3563,887.5974,1606.3721,894.8785,1618.0687,892.7525" style="stroke:#000000;stroke-width:1.25;"/><text fill="#000000" font-family="sans-serif" font-size="16.25" lengthAdjust="spacing" textLength="62.5" x="1623.125" y="898.5645">performs</text><text fill="#000000" font-family="sans-serif" font-size="16.25" lengthAdjust="spacing" textLength="6.25" x="2437.1336" y="1067.9891">*</text><text fill="#000000" font-family="sans-serif" font-size="16.25" lengthAdjust="spacing" textLength="8.75" x="665" y="804.8503">1</text><!--MD5=[ca29482912e344ebd5dc9db2d1c2ccab]
link Test to ClinicalAnalysisLaboratory--><path codeLine="109" d="M2606.6125,1169.9081 C2673.4,1258.6706 2788.3375,1377.9456 2923.75,1377.9456 C2923.75,1377.9456 2923.75,1377.9456 3432.5,1377.9456 C3755.6375,1377.9456 3833.7375,1440.4456 4156.875,1440.4456 C4156.875,1440.4456 4156.875,1440.4456 4555.625,1440.4456 C4774.6625,1440.4456 4862.6,599.9331 4878.975,419.3581 " fill="none" id="Test-ClinicalAnalysisLaboratory" style="stroke:#A80036;stroke-width:1.25;"/><polygon fill="#000000" points="3682.8153,1380.1255,3694.7034,1380.0678,3692.3991,1373.0912,3682.8153,1380.1255" style="stroke:#000000;stroke-width:1.25;"/><text fill="#000000" font-family="sans-serif" font-size="16.25" lengthAdjust="spacing" textLength="62.5" x="3700" y="1384.8145">performs</text><text fill="#000000" font-family="sans-serif" font-size="16.25" lengthAdjust="spacing" textLength="6.25" x="2605.9272" y="1196.4454">*</text><text fill="#000000" font-family="sans-serif" font-size="16.25" lengthAdjust="spacing" textLength="6.25" x="4871.1336" y="445.9033">*</text><!--MD5=[10af4306acabee641eea198ac06587b8]
link Test to Receptionist--><path codeLine="111" d="M2633.4875,1004.9331 C2647.725,995.4706 2662.675,986.5206 2677.5,979.1956 C2987.4875,826.0206 3084.225,781.6956 3430,781.6956 C3430,781.6956 3430,781.6956 4284.375,781.6956 C4432.9375,781.6956 4518.8875,575.4831 4544.75,502.1706 " fill="none" id="Test-Receptionist" style="stroke:#A80036;stroke-width:1.25;"/><polygon fill="#000000" points="3527.7056,772.2553,3539.5746,772.9317,3537.7054,765.8262,3527.7056,772.2553" style="stroke:#000000;stroke-width:1.25;"/><text fill="#000000" font-family="sans-serif" font-size="16.25" lengthAdjust="spacing" textLength="62.5" x="3545" y="777.3145">registers</text><text fill="#000000" font-family="sans-serif" font-size="16.25" lengthAdjust="spacing" textLength="6.25" x="2643.1284" y="1015.6044">*</text><text fill="#000000" font-family="sans-serif" font-size="16.25" lengthAdjust="spacing" textLength="25" x="4513.8039" y="528.6324">1..*</text><!--MD5=[5fda545c79585d17c4a435a79f76ac33]
link Test to DiagnosisReport--><path codeLine="113" d="M2633.325,1053.4706 C2697.825,1037.5331 2784.2125,1016.1831 2845.9625,1000.9206 " fill="none" id="Test-DiagnosisReport" style="stroke:#A80036;stroke-width:1.25;"/><polygon fill="#000000" points="2677.6825,1002.1648,2689.54,1003.0185,2687.7773,995.8858,2677.6825,1002.1648" style="stroke:#000000;stroke-width:1.25;"/><text fill="#000000" font-family="sans-serif" font-size="16.25" lengthAdjust="spacing" textLength="112.5" x="2695" y="1007.3145">associated with</text><text fill="#000000" font-family="sans-serif" font-size="16.25" lengthAdjust="spacing" textLength="8.75" x="2643.078" y="1047.0848">1</text><text fill="#000000" font-family="sans-serif" font-size="16.25" lengthAdjust="spacing" textLength="8.75" x="2827.5679" y="1021.194">1</text><!--MD5=[1ae83efc6d1967ce5bc17dfe294d00c2]
link Sample to Test--><path codeLine="115" d="M2286.5625,716.8706 C2321.925,746.6706 2372.325,792.4581 2408.75,839.1956 C2442.6125,882.6456 2473.325,935.7206 2496.7,980.5581 " fill="none" id="Sample-Test" style="stroke:#A80036;stroke-width:1.25;"/><polygon fill="#000000" points="2332.9798,737.0275,2337.1533,748.1591,2342.8992,743.5801,2332.9798,737.0275" style="stroke:#000000;stroke-width:1.25;"/><text fill="#000000" font-family="sans-serif" font-size="16.25" lengthAdjust="spacing" textLength="56.25" x="2348.125" y="748.5645">collects</text><text fill="#000000" font-family="sans-serif" font-size="16.25" lengthAdjust="spacing" textLength="6.25" x="2289.1309" y="743.4185">*</text><text fill="#000000" font-family="sans-serif" font-size="16.25" lengthAdjust="spacing" textLength="8.75" x="2483.1081" y="967.4694">1</text><!--MD5=[cb5e86f6614a99551e1d9ce6f0ae5849]
link Sample to MedicalLabTechnician--><path codeLine="117" d="M2266.4875,648.9331 C2323.5875,561.1331 2474.975,328.3206 2525.325,250.8956 " fill="none" id="Sample-MedicalLabTechnician" style="stroke:#A80036;stroke-width:1.25;"/><polygon fill="#000000" points="2330.3428,435.9049,2339.5863,428.4291,2333.4267,424.4236,2330.3428,435.9049" style="stroke:#000000;stroke-width:1.25;"/><text fill="#000000" font-family="sans-serif" font-size="16.25" lengthAdjust="spacing" textLength="62.5" x="2345" y="437.3145">registers</text><text fill="#000000" font-family="sans-serif" font-size="16.25" lengthAdjust="spacing" textLength="25" x="2243.9995" y="635.6986">1..*</text><text fill="#000000" font-family="sans-serif" font-size="16.25" lengthAdjust="spacing" textLength="25" x="2492.1819" y="277.3507">1..*</text><!--MD5=[c1a9c7f16ec55f9c4038f73c31b8becd]
link Notification to Client--><path codeLine="119" d="M4018.2,1053.2331 C4078.4875,1076.0331 4172.7625,1111.6831 4230.7375,1133.6081 " fill="none" id="Notification-Client" style="stroke:#A80036;stroke-width:1.25;"/><polygon fill="#000000" points="4134.5959,1086.626,4125.32,1079.1906,4122.7211,1086.0629,4134.5959,1086.626" style="stroke:#000000;stroke-width:1.25;"/><text fill="#000000" font-family="sans-serif" font-size="16.25" lengthAdjust="spacing" textLength="52.5" x="4140" y="1091.0645">informs</text><text fill="#000000" font-family="sans-serif" font-size="16.25" lengthAdjust="spacing" textLength="25" x="4028.1422" y="1074.5678">1..*</text><text fill="#000000" font-family="sans-serif" font-size="16.25" lengthAdjust="spacing" textLength="6.25" x="4214.9463" y="1148.9434">*</text><!--MD5=[5c30cf0fd8e143b79b8866530b3e611e]
@startuml
hide methods
skinparam classAttributeIconSize 0
left to right direction

class Company
class Laboratory
class ChemicalLaboratory
class ClinicalAnalysisLaboratory
class LaboratoryCoordinator
class Employee
class Administrator
class SpecialistDoctor
class ClinicalChemistryTechnologist
class MedicalLabTechnician
class Receptionist
class Client
class LabOrder
class Result
class DiagnosisReport
class NHSReport
class ParameterCategory
class Parameter
class TestType
class Test
class Notification
class NHS
class Sample

Company "1" - - "*" Parameter : > capable of analysing

Company "1" - - "*" Employee : < works for

Company "1" - - "*" ParameterCategory : > adopts

Company "1" - - "*" Administrator : > knows

Employee "*" <|- - "*" ClinicalChemistryTechnologist

Employee "*" <|- - "1..*" Receptionist

Employee "*" <|- - "*" MedicalLabTechnician

Employee "*" <|- - "1..*" LaboratoryCoordinator

ClinicalChemistryTechnologist "*" - - "1" ChemicalLaboratory : > works at

MedicalLabTechnician "1..*" - - "*" ClinicalAnalysisLaboratory : > works at

Receptionist "1..*" - - "*" ClinicalAnalysisLaboratory : > works at

LaboratoryCoordinator "1..*" - - "*" Laboratory: > works at a

ChemicalLaboratory "1" - - "1" Company : < owns

ChemicalLaboratory "1" - - "*" Sample : < is sent to

ClinicalAnalysisLaboratory "*" - - "1" Company : < owns

Laboratory "1"  <|- - "1" ChemicalLaboratory

Laboratory "1"  <|- - "1" ClinicalAnalysisLaboratory

Administrator "*" - - "*" ParameterCategory : < created by

SpecialistDoctor "1" - - "1" Result : < analyzed by

ClinicalChemistryTechnologist "*" - - "1..*" Sample : < analyzed by

Client "1" - - "*" Test : < requested by

Client "*" - - "1..*" Receptionist : < registers

LabOrder "1" - - "*" Client : > brought by

LabOrder "1" - - "1..*" Receptionist : < receives

LabOrder "1" - - "1" Test : < is associated

LabOrder "1" - - "1" TestType : > contains

Result "*" - - "1..*" ClinicalChemistryTechnologist : < registers

Result "*" - - "1..*" Notification : > is associated with

DiagnosisReport "1" - - "1" SpecialistDoctor : < registers

DiagnosisReport "1" - - "1" Client : > is sent to

DiagnosisReport "*" - - "1" LaboratoryCoordinator : < validates

NHSReport "1..*" - - "1" Result : < generates

NHSReport "1..*" - - "1" NHS : > is sent to

ParameterCategory "1" - - "*" Parameter : < presented under

Parameter "1..*" - - "*" Test : < requests analysis of

TestType "*" - - "1" Company : < conducts

TestType "1" - - "*" Test: < is of

TestType "*" - - "1" Administrator : < creates

Test "1" - - "1" Result : > has a

Test "*" - - "1" Company : < performs

Test "*" - - "*" ClinicalAnalysisLaboratory : < performs

Test "*" - - "1..*" Receptionist : < registers

Test "1" - - "1" DiagnosisReport : < associated with

Sample "*" - - "1" Test : < collects

Sample "1..*" - - "1..*" MedicalLabTechnician : < registers

Notification "1..*" - - "*" Client : > informs

class Company{
-designation
}

class Laboratory{
-name
-address
-phoneNumber
-TIN
}

class ChemicalLaboratory{
}

class ClinicalAnalysisLaboratory{
-labID
}

class Administrator{
-name
-address
-phoneNumber
-employeeID
-orgRole
-email
-SOCcode
}

class Employee{
-name
-address
-phoneNumber
-employeeID
-orgRole
-email
-SOCcode
}

class SpecialistDoctor{
-doctorIndex
}

class ClinicalChemistryTechnologist{
}

class MedicalLabTechnician{
}

class Receptionist{
}

class Client{
-citizenID
-nhsID
-birthDate
-sex
-TIN
-phoneNumber
-email
-name
}

class LabOrder{
}

class Result{
}

class DiagnosisReport{
}

class ParameterCategory{
-code
-description
-nhsID
}

class Parameter{
-designation
-description
-code
}

class TestType{
-code
-description
-collectingMethod
}

class Test{
-description
-internalCode
-nhsCode
-collectingMethod
-collectDateTime
-chemicalAnalysisDateTime
-diagnosisDateTime
-validationDateTime
}

class Sample{
-barcode
}

@enduml

PlantUML version 1.2021.4(Sun Apr 04 09:49:39 BST 2021)
(GPL source distribution)
Java Runtime: OpenJDK Runtime Environment
JVM: OpenJDK 64-Bit Server VM
Default Encoding: Cp1252
Language: pt
Country: PT
--></g></svg>