<?xml version="1.0" encoding="UTF-8" standalone="no"?><svg xmlns="http://www.w3.org/2000/svg" xmlns:xlink="http://www.w3.org/1999/xlink" contentScriptType="application/ecmascript" contentStyleType="text/css" height="1313px" preserveAspectRatio="none" style="width:4037px;height:1313px;" version="1.1" viewBox="0 0 4037 1313" width="4037px" zoomAndPan="magnify"><defs><filter height="300%" id="f1c0n3edbt31ds" width="300%" x="-1" y="-1"><feGaussianBlur result="blurOut" stdDeviation="2.0"/><feColorMatrix in="blurOut" result="blurOut2" type="matrix" values="0 0 0 0 0 0 0 0 0 0 0 0 0 0 0 0 0 0 .4 0"/><feOffset dx="4.0" dy="4.0" in="blurOut2" result="blurOut3"/><feBlend in="SourceGraphic" in2="blurOut3" mode="normal"/></filter></defs><g><!--MD5=[02e4b9b7573f1156f41e60aa5b4e25a4]
class Company--><rect codeLine="123" fill="#FEFECE" filter="url(#f1c0n3edbt31ds)" height="53.8359" id="Company" style="stroke:#A80036;stroke-width:1.5;" width="85" x="439" y="701"/><ellipse cx="454" cy="717" fill="#ADD1B2" rx="11" ry="11" style="stroke:#A80036;stroke-width:1.0;"/><path d="M456,713.5 Q456.2031,713 456.4375,712.75 Q456.6719,712.5 456.9375,712.5 Q457.4063,712.5 457.7031,712.7813 Q458,713.0625 458,713.7188 L458,715.2813 Q458,715.9375 457.7188,716.2188 Q457.4375,716.5 457,716.5 Q456.6094,716.5 456.3594,716.3281 Q456.1094,716.1563 456,715.7031 Q455.9531,715.3906 455.7813,715.2188 Q455.4688,714.8906 454.9063,714.7031 Q454.3438,714.5 453.7813,714.5 Q453.0781,714.5 452.4844,714.7813 Q451.9063,715.0625 451.4531,715.6875 Q451,716.3125 451,717.1719 L451,718.0938 Q451,719.125 451.8438,719.8125 Q452.6875,720.5 454.1875,720.5 Q455.0781,720.5 455.7031,720.2969 Q456.0625,720.1875 456.4688,719.8281 Q456.7344,719.625 456.875,719.5625 Q457.0156,719.5 457.1875,719.5 Q457.5156,719.5 457.75,719.7656 Q458,720.0156 458,720.375 Q458,720.7188 457.6563,721.125 Q457.1563,721.7188 456.3594,722.0469 Q455.3125,722.5 454.0313,722.5 Q452.5313,722.5 451.3281,721.9063 Q450.3594,721.4375 449.6719,720.4219 Q449,719.4063 449,718.2031 L449,717.1094 Q449,715.8594 449.5938,714.7656 Q450.2031,713.6719 451.25,713.0938 Q452.3125,712.5 453.5,712.5 Q454.2188,712.5 454.8438,712.75 Q455.4688,713 456,713.5 Z " fill="#000000"/><text fill="#000000" font-family="sans-serif" font-size="12" lengthAdjust="spacing" textLength="53" x="468" y="721.9102">Company</text><line style="stroke:#A80036;stroke-width:1.5;" x1="440" x2="523" y1="733" y2="733"/><text fill="#000000" font-family="sans-serif" font-size="11" lengthAdjust="spacing" textLength="59" x="445" y="748.4189">-designation</text><!--MD5=[0caf3a413731a0de34fc6162fe213ed9]
class Laboratory--><rect codeLine="127" fill="#FEFECE" filter="url(#f1c0n3edbt31ds)" height="95.3438" id="Laboratory" style="stroke:#A80036;stroke-width:1.5;" width="90" x="1167.5" y="330.5"/><ellipse cx="1182.5" cy="346.5" fill="#ADD1B2" rx="11" ry="11" style="stroke:#A80036;stroke-width:1.0;"/><path d="M1184.5,343 Q1184.7031,342.5 1184.9375,342.25 Q1185.1719,342 1185.4375,342 Q1185.9063,342 1186.2031,342.2813 Q1186.5,342.5625 1186.5,343.2188 L1186.5,344.7813 Q1186.5,345.4375 1186.2188,345.7188 Q1185.9375,346 1185.5,346 Q1185.1094,346 1184.8594,345.8281 Q1184.6094,345.6563 1184.5,345.2031 Q1184.4531,344.8906 1184.2813,344.7188 Q1183.9688,344.3906 1183.4063,344.2031 Q1182.8438,344 1182.2813,344 Q1181.5781,344 1180.9844,344.2813 Q1180.4063,344.5625 1179.9531,345.1875 Q1179.5,345.8125 1179.5,346.6719 L1179.5,347.5938 Q1179.5,348.625 1180.3438,349.3125 Q1181.1875,350 1182.6875,350 Q1183.5781,350 1184.2031,349.7969 Q1184.5625,349.6875 1184.9688,349.3281 Q1185.2344,349.125 1185.375,349.0625 Q1185.5156,349 1185.6875,349 Q1186.0156,349 1186.25,349.2656 Q1186.5,349.5156 1186.5,349.875 Q1186.5,350.2188 1186.1563,350.625 Q1185.6563,351.2188 1184.8594,351.5469 Q1183.8125,352 1182.5313,352 Q1181.0313,352 1179.8281,351.4063 Q1178.8594,350.9375 1178.1719,349.9219 Q1177.5,348.9063 1177.5,347.7031 L1177.5,346.6094 Q1177.5,345.3594 1178.0938,344.2656 Q1178.7031,343.1719 1179.75,342.5938 Q1180.8125,342 1182,342 Q1182.7188,342 1183.3438,342.25 Q1183.9688,342.5 1184.5,343 Z " fill="#000000"/><text fill="#000000" font-family="sans-serif" font-size="12" lengthAdjust="spacing" textLength="58" x="1196.5" y="351.4102">Laboratory</text><line style="stroke:#A80036;stroke-width:1.5;" x1="1168.5" x2="1256.5" y1="362.5" y2="362.5"/><text fill="#000000" font-family="sans-serif" font-size="11" lengthAdjust="spacing" textLength="30" x="1173.5" y="377.9189">-name</text><text fill="#000000" font-family="sans-serif" font-size="11" lengthAdjust="spacing" textLength="44" x="1173.5" y="391.7549">-address</text><text fill="#000000" font-family="sans-serif" font-size="11" lengthAdjust="spacing" textLength="71" x="1173.5" y="405.5908">-phoneNumber</text><text fill="#000000" font-family="sans-serif" font-size="11" lengthAdjust="spacing" textLength="19" x="1173.5" y="419.4268">-TIN</text><!--MD5=[a64badb107d3691f2dc6af242cdbeb21]
class ChemicalLaboratory--><rect codeLine="134" fill="#FEFECE" filter="url(#f1c0n3edbt31ds)" height="40" id="ChemicalLaboratory" style="stroke:#A80036;stroke-width:1.5;" width="143" x="1450" y="177"/><ellipse cx="1465" cy="193" fill="#ADD1B2" rx="11" ry="11" style="stroke:#A80036;stroke-width:1.0;"/><path d="M1467,189.5 Q1467.2031,189 1467.4375,188.75 Q1467.6719,188.5 1467.9375,188.5 Q1468.4063,188.5 1468.7031,188.7813 Q1469,189.0625 1469,189.7188 L1469,191.2813 Q1469,191.9375 1468.7188,192.2188 Q1468.4375,192.5 1468,192.5 Q1467.6094,192.5 1467.3594,192.3281 Q1467.1094,192.1563 1467,191.7031 Q1466.9531,191.3906 1466.7813,191.2188 Q1466.4688,190.8906 1465.9063,190.7031 Q1465.3438,190.5 1464.7813,190.5 Q1464.0781,190.5 1463.4844,190.7813 Q1462.9063,191.0625 1462.4531,191.6875 Q1462,192.3125 1462,193.1719 L1462,194.0938 Q1462,195.125 1462.8438,195.8125 Q1463.6875,196.5 1465.1875,196.5 Q1466.0781,196.5 1466.7031,196.2969 Q1467.0625,196.1875 1467.4688,195.8281 Q1467.7344,195.625 1467.875,195.5625 Q1468.0156,195.5 1468.1875,195.5 Q1468.5156,195.5 1468.75,195.7656 Q1469,196.0156 1469,196.375 Q1469,196.7188 1468.6563,197.125 Q1468.1563,197.7188 1467.3594,198.0469 Q1466.3125,198.5 1465.0313,198.5 Q1463.5313,198.5 1462.3281,197.9063 Q1461.3594,197.4375 1460.6719,196.4219 Q1460,195.4063 1460,194.2031 L1460,193.1094 Q1460,191.8594 1460.5938,190.7656 Q1461.2031,189.6719 1462.25,189.0938 Q1463.3125,188.5 1464.5,188.5 Q1465.2188,188.5 1465.8438,188.75 Q1466.4688,189 1467,189.5 Z " fill="#000000"/><text fill="#000000" font-family="sans-serif" font-size="12" lengthAdjust="spacing" textLength="111" x="1479" y="197.9102">ChemicalLaboratory</text><line style="stroke:#A80036;stroke-width:1.5;" x1="1451" x2="1592" y1="209" y2="209"/><!--MD5=[1934a092c0e7d4da7dc7075b6f4b6b03]
class ClinicalAnalysisLaboratory--><rect codeLine="137" fill="#FEFECE" filter="url(#f1c0n3edbt31ds)" height="53.8359" id="ClinicalAnalysisLaboratory" style="stroke:#A80036;stroke-width:1.5;" width="177" x="3846" y="491"/><ellipse cx="3861" cy="507" fill="#ADD1B2" rx="11" ry="11" style="stroke:#A80036;stroke-width:1.0;"/><path d="M3863,503.5 Q3863.2031,503 3863.4375,502.75 Q3863.6719,502.5 3863.9375,502.5 Q3864.4063,502.5 3864.7031,502.7813 Q3865,503.0625 3865,503.7188 L3865,505.2813 Q3865,505.9375 3864.7188,506.2188 Q3864.4375,506.5 3864,506.5 Q3863.6094,506.5 3863.3594,506.3281 Q3863.1094,506.1563 3863,505.7031 Q3862.9531,505.3906 3862.7813,505.2188 Q3862.4688,504.8906 3861.9063,504.7031 Q3861.3438,504.5 3860.7813,504.5 Q3860.0781,504.5 3859.4844,504.7813 Q3858.9063,505.0625 3858.4531,505.6875 Q3858,506.3125 3858,507.1719 L3858,508.0938 Q3858,509.125 3858.8438,509.8125 Q3859.6875,510.5 3861.1875,510.5 Q3862.0781,510.5 3862.7031,510.2969 Q3863.0625,510.1875 3863.4688,509.8281 Q3863.7344,509.625 3863.875,509.5625 Q3864.0156,509.5 3864.1875,509.5 Q3864.5156,509.5 3864.75,509.7656 Q3865,510.0156 3865,510.375 Q3865,510.7188 3864.6563,511.125 Q3864.1563,511.7188 3863.3594,512.0469 Q3862.3125,512.5 3861.0313,512.5 Q3859.5313,512.5 3858.3281,511.9063 Q3857.3594,511.4375 3856.6719,510.4219 Q3856,509.4063 3856,508.2031 L3856,507.1094 Q3856,505.8594 3856.5938,504.7656 Q3857.2031,503.6719 3858.25,503.0938 Q3859.3125,502.5 3860.5,502.5 Q3861.2188,502.5 3861.8438,502.75 Q3862.4688,503 3863,503.5 Z " fill="#000000"/><text fill="#000000" font-family="sans-serif" font-size="12" lengthAdjust="spacing" textLength="145" x="3875" y="511.9102">ClinicalAnalysisLaboratory</text><line style="stroke:#A80036;stroke-width:1.5;" x1="3847" x2="4022" y1="523" y2="523"/><text fill="#000000" font-family="sans-serif" font-size="11" lengthAdjust="spacing" textLength="27" x="3852" y="538.4189">-labID</text><!--MD5=[052425de1c0eb6cc1c1b48342b0bb88f]
class LaboratoryCoordinator--><rect codeLine="9" fill="#FEFECE" filter="url(#f1c0n3edbt31ds)" height="40" id="LaboratoryCoordinator" style="stroke:#A80036;stroke-width:1.5;" width="155" x="852" y="457"/><ellipse cx="867" cy="473" fill="#ADD1B2" rx="11" ry="11" style="stroke:#A80036;stroke-width:1.0;"/><path d="M869,469.5 Q869.2031,469 869.4375,468.75 Q869.6719,468.5 869.9375,468.5 Q870.4063,468.5 870.7031,468.7813 Q871,469.0625 871,469.7188 L871,471.2813 Q871,471.9375 870.7188,472.2188 Q870.4375,472.5 870,472.5 Q869.6094,472.5 869.3594,472.3281 Q869.1094,472.1563 869,471.7031 Q868.9531,471.3906 868.7813,471.2188 Q868.4688,470.8906 867.9063,470.7031 Q867.3438,470.5 866.7813,470.5 Q866.0781,470.5 865.4844,470.7813 Q864.9063,471.0625 864.4531,471.6875 Q864,472.3125 864,473.1719 L864,474.0938 Q864,475.125 864.8438,475.8125 Q865.6875,476.5 867.1875,476.5 Q868.0781,476.5 868.7031,476.2969 Q869.0625,476.1875 869.4688,475.8281 Q869.7344,475.625 869.875,475.5625 Q870.0156,475.5 870.1875,475.5 Q870.5156,475.5 870.75,475.7656 Q871,476.0156 871,476.375 Q871,476.7188 870.6563,477.125 Q870.1563,477.7188 869.3594,478.0469 Q868.3125,478.5 867.0313,478.5 Q865.5313,478.5 864.3281,477.9063 Q863.3594,477.4375 862.6719,476.4219 Q862,475.4063 862,474.2031 L862,473.1094 Q862,471.8594 862.5938,470.7656 Q863.2031,469.6719 864.25,469.0938 Q865.3125,468.5 866.5,468.5 Q867.2188,468.5 867.8438,468.75 Q868.4688,469 869,469.5 Z " fill="#000000"/><text fill="#000000" font-family="sans-serif" font-size="12" lengthAdjust="spacing" textLength="123" x="881" y="477.9102">LaboratoryCoordinator</text><line style="stroke:#A80036;stroke-width:1.5;" x1="853" x2="1006" y1="489" y2="489"/><!--MD5=[7421f545a0d8420c5bec41e74b387d9c]
class Employee--><rect codeLine="141" fill="#FEFECE" filter="url(#f1c0n3edbt31ds)" height="136.8516" id="Employee" style="stroke:#A80036;stroke-width:1.5;" width="87" x="651" y="424.5"/><ellipse cx="666" cy="440.5" fill="#ADD1B2" rx="11" ry="11" style="stroke:#A80036;stroke-width:1.0;"/><path d="M668,437 Q668.2031,436.5 668.4375,436.25 Q668.6719,436 668.9375,436 Q669.4063,436 669.7031,436.2813 Q670,436.5625 670,437.2188 L670,438.7813 Q670,439.4375 669.7188,439.7188 Q669.4375,440 669,440 Q668.6094,440 668.3594,439.8281 Q668.1094,439.6563 668,439.2031 Q667.9531,438.8906 667.7813,438.7188 Q667.4688,438.3906 666.9063,438.2031 Q666.3438,438 665.7813,438 Q665.0781,438 664.4844,438.2813 Q663.9063,438.5625 663.4531,439.1875 Q663,439.8125 663,440.6719 L663,441.5938 Q663,442.625 663.8438,443.3125 Q664.6875,444 666.1875,444 Q667.0781,444 667.7031,443.7969 Q668.0625,443.6875 668.4688,443.3281 Q668.7344,443.125 668.875,443.0625 Q669.0156,443 669.1875,443 Q669.5156,443 669.75,443.2656 Q670,443.5156 670,443.875 Q670,444.2188 669.6563,444.625 Q669.1563,445.2188 668.3594,445.5469 Q667.3125,446 666.0313,446 Q664.5313,446 663.3281,445.4063 Q662.3594,444.9375 661.6719,443.9219 Q661,442.9063 661,441.7031 L661,440.6094 Q661,439.3594 661.5938,438.2656 Q662.2031,437.1719 663.25,436.5938 Q664.3125,436 665.5,436 Q666.2188,436 666.8438,436.25 Q667.4688,436.5 668,437 Z " fill="#000000"/><text fill="#000000" font-family="sans-serif" font-size="12" lengthAdjust="spacing" textLength="55" x="680" y="445.4102">Employee</text><line style="stroke:#A80036;stroke-width:1.5;" x1="652" x2="737" y1="456.5" y2="456.5"/><text fill="#000000" font-family="sans-serif" font-size="11" lengthAdjust="spacing" textLength="30" x="657" y="471.9189">-name</text><text fill="#000000" font-family="sans-serif" font-size="11" lengthAdjust="spacing" textLength="44" x="657" y="485.7549">-address</text><text fill="#000000" font-family="sans-serif" font-size="11" lengthAdjust="spacing" textLength="71" x="657" y="499.5908">-phoneNumber</text><text fill="#000000" font-family="sans-serif" font-size="11" lengthAdjust="spacing" textLength="59" x="657" y="513.4268">-employeeID</text><text fill="#000000" font-family="sans-serif" font-size="11" lengthAdjust="spacing" textLength="41" x="657" y="527.2627">-orgRole</text><text fill="#000000" font-family="sans-serif" font-size="11" lengthAdjust="spacing" textLength="28" x="657" y="541.0986">-email</text><text fill="#000000" font-family="sans-serif" font-size="11" lengthAdjust="spacing" textLength="50" x="657" y="554.9346">-SOCcode</text><!--MD5=[da547346deef918ea16944ba046651ef]
class Administrator--><rect codeLine="151" fill="#FEFECE" filter="url(#f1c0n3edbt31ds)" height="40" id="Administrator" style="stroke:#A80036;stroke-width:1.5;" width="105" x="877" y="758"/><ellipse cx="892" cy="774" fill="#ADD1B2" rx="11" ry="11" style="stroke:#A80036;stroke-width:1.0;"/><path d="M894,770.5 Q894.2031,770 894.4375,769.75 Q894.6719,769.5 894.9375,769.5 Q895.4063,769.5 895.7031,769.7813 Q896,770.0625 896,770.7188 L896,772.2813 Q896,772.9375 895.7188,773.2188 Q895.4375,773.5 895,773.5 Q894.6094,773.5 894.3594,773.3281 Q894.1094,773.1563 894,772.7031 Q893.9531,772.3906 893.7813,772.2188 Q893.4688,771.8906 892.9063,771.7031 Q892.3438,771.5 891.7813,771.5 Q891.0781,771.5 890.4844,771.7813 Q889.9063,772.0625 889.4531,772.6875 Q889,773.3125 889,774.1719 L889,775.0938 Q889,776.125 889.8438,776.8125 Q890.6875,777.5 892.1875,777.5 Q893.0781,777.5 893.7031,777.2969 Q894.0625,777.1875 894.4688,776.8281 Q894.7344,776.625 894.875,776.5625 Q895.0156,776.5 895.1875,776.5 Q895.5156,776.5 895.75,776.7656 Q896,777.0156 896,777.375 Q896,777.7188 895.6563,778.125 Q895.1563,778.7188 894.3594,779.0469 Q893.3125,779.5 892.0313,779.5 Q890.5313,779.5 889.3281,778.9063 Q888.3594,778.4375 887.6719,777.4219 Q887,776.4063 887,775.2031 L887,774.1094 Q887,772.8594 887.5938,771.7656 Q888.2031,770.6719 889.25,770.0938 Q890.3125,769.5 891.5,769.5 Q892.2188,769.5 892.8438,769.75 Q893.4688,770 894,770.5 Z " fill="#000000"/><text fill="#000000" font-family="sans-serif" font-size="12" lengthAdjust="spacing" textLength="73" x="906" y="778.9102">Administrator</text><line style="stroke:#A80036;stroke-width:1.5;" x1="878" x2="981" y1="790" y2="790"/><!--MD5=[7d96fd15f3014691d2fcaf89c5791e2a]
class SpecialistDoctor--><rect codeLine="154" fill="#FEFECE" filter="url(#f1c0n3edbt31ds)" height="53.8359" id="SpecialistDoctor" style="stroke:#A80036;stroke-width:1.5;" width="122" x="2576" y="571"/><ellipse cx="2591" cy="587" fill="#ADD1B2" rx="11" ry="11" style="stroke:#A80036;stroke-width:1.0;"/><path d="M2593,583.5 Q2593.2031,583 2593.4375,582.75 Q2593.6719,582.5 2593.9375,582.5 Q2594.4063,582.5 2594.7031,582.7813 Q2595,583.0625 2595,583.7188 L2595,585.2813 Q2595,585.9375 2594.7188,586.2188 Q2594.4375,586.5 2594,586.5 Q2593.6094,586.5 2593.3594,586.3281 Q2593.1094,586.1563 2593,585.7031 Q2592.9531,585.3906 2592.7813,585.2188 Q2592.4688,584.8906 2591.9063,584.7031 Q2591.3438,584.5 2590.7813,584.5 Q2590.0781,584.5 2589.4844,584.7813 Q2588.9063,585.0625 2588.4531,585.6875 Q2588,586.3125 2588,587.1719 L2588,588.0938 Q2588,589.125 2588.8438,589.8125 Q2589.6875,590.5 2591.1875,590.5 Q2592.0781,590.5 2592.7031,590.2969 Q2593.0625,590.1875 2593.4688,589.8281 Q2593.7344,589.625 2593.875,589.5625 Q2594.0156,589.5 2594.1875,589.5 Q2594.5156,589.5 2594.75,589.7656 Q2595,590.0156 2595,590.375 Q2595,590.7188 2594.6563,591.125 Q2594.1563,591.7188 2593.3594,592.0469 Q2592.3125,592.5 2591.0313,592.5 Q2589.5313,592.5 2588.3281,591.9063 Q2587.3594,591.4375 2586.6719,590.4219 Q2586,589.4063 2586,588.2031 L2586,587.1094 Q2586,585.8594 2586.5938,584.7656 Q2587.2031,583.6719 2588.25,583.0938 Q2589.3125,582.5 2590.5,582.5 Q2591.2188,582.5 2591.8438,582.75 Q2592.4688,583 2593,583.5 Z " fill="#000000"/><text fill="#000000" font-family="sans-serif" font-size="12" lengthAdjust="spacing" textLength="90" x="2605" y="591.9102">SpecialistDoctor</text><line style="stroke:#A80036;stroke-width:1.5;" x1="2577" x2="2697" y1="603" y2="603"/><text fill="#000000" font-family="sans-serif" font-size="11" lengthAdjust="spacing" textLength="61" x="2582" y="618.4189">-doctorIndex</text><!--MD5=[012ee2a8bf3ae2b319009b06f951c2e5]
class ClinicalChemistryTechnologist--><rect codeLine="158" fill="#FEFECE" filter="url(#f1c0n3edbt31ds)" height="40" id="ClinicalChemistryTechnologist" style="stroke:#A80036;stroke-width:1.5;" width="200" x="3096" y="212"/><ellipse cx="3111" cy="228" fill="#ADD1B2" rx="11" ry="11" style="stroke:#A80036;stroke-width:1.0;"/><path d="M3113,224.5 Q3113.2031,224 3113.4375,223.75 Q3113.6719,223.5 3113.9375,223.5 Q3114.4063,223.5 3114.7031,223.7813 Q3115,224.0625 3115,224.7188 L3115,226.2813 Q3115,226.9375 3114.7188,227.2188 Q3114.4375,227.5 3114,227.5 Q3113.6094,227.5 3113.3594,227.3281 Q3113.1094,227.1563 3113,226.7031 Q3112.9531,226.3906 3112.7813,226.2188 Q3112.4688,225.8906 3111.9063,225.7031 Q3111.3438,225.5 3110.7813,225.5 Q3110.0781,225.5 3109.4844,225.7813 Q3108.9063,226.0625 3108.4531,226.6875 Q3108,227.3125 3108,228.1719 L3108,229.0938 Q3108,230.125 3108.8438,230.8125 Q3109.6875,231.5 3111.1875,231.5 Q3112.0781,231.5 3112.7031,231.2969 Q3113.0625,231.1875 3113.4688,230.8281 Q3113.7344,230.625 3113.875,230.5625 Q3114.0156,230.5 3114.1875,230.5 Q3114.5156,230.5 3114.75,230.7656 Q3115,231.0156 3115,231.375 Q3115,231.7188 3114.6563,232.125 Q3114.1563,232.7188 3113.3594,233.0469 Q3112.3125,233.5 3111.0313,233.5 Q3109.5313,233.5 3108.3281,232.9063 Q3107.3594,232.4375 3106.6719,231.4219 Q3106,230.4063 3106,229.2031 L3106,228.1094 Q3106,226.8594 3106.5938,225.7656 Q3107.2031,224.6719 3108.25,224.0938 Q3109.3125,223.5 3110.5,223.5 Q3111.2188,223.5 3111.8438,223.75 Q3112.4688,224 3113,224.5 Z " fill="#000000"/><text fill="#000000" font-family="sans-serif" font-size="12" lengthAdjust="spacing" textLength="168" x="3125" y="232.9102">ClinicalChemistryTechnologist</text><line style="stroke:#A80036;stroke-width:1.5;" x1="3097" x2="3295" y1="244" y2="244"/><!--MD5=[01931d41e78f8996acd44f6f0fd8de28]
class MedicalLabTechnician--><rect codeLine="161" fill="#FEFECE" filter="url(#f1c0n3edbt31ds)" height="40" id="MedicalLabTechnician" style="stroke:#A80036;stroke-width:1.5;" width="155" x="1985" y="7"/><ellipse cx="2000" cy="23" fill="#ADD1B2" rx="11" ry="11" style="stroke:#A80036;stroke-width:1.0;"/><path d="M2002,19.5 Q2002.2031,19 2002.4375,18.75 Q2002.6719,18.5 2002.9375,18.5 Q2003.4063,18.5 2003.7031,18.7813 Q2004,19.0625 2004,19.7188 L2004,21.2813 Q2004,21.9375 2003.7188,22.2188 Q2003.4375,22.5 2003,22.5 Q2002.6094,22.5 2002.3594,22.3281 Q2002.1094,22.1563 2002,21.7031 Q2001.9531,21.3906 2001.7813,21.2188 Q2001.4688,20.8906 2000.9063,20.7031 Q2000.3438,20.5 1999.7813,20.5 Q1999.0781,20.5 1998.4844,20.7813 Q1997.9063,21.0625 1997.4531,21.6875 Q1997,22.3125 1997,23.1719 L1997,24.0938 Q1997,25.125 1997.8438,25.8125 Q1998.6875,26.5 2000.1875,26.5 Q2001.0781,26.5 2001.7031,26.2969 Q2002.0625,26.1875 2002.4688,25.8281 Q2002.7344,25.625 2002.875,25.5625 Q2003.0156,25.5 2003.1875,25.5 Q2003.5156,25.5 2003.75,25.7656 Q2004,26.0156 2004,26.375 Q2004,26.7188 2003.6563,27.125 Q2003.1563,27.7188 2002.3594,28.0469 Q2001.3125,28.5 2000.0313,28.5 Q1998.5313,28.5 1997.3281,27.9063 Q1996.3594,27.4375 1995.6719,26.4219 Q1995,25.4063 1995,24.2031 L1995,23.1094 Q1995,21.8594 1995.5938,20.7656 Q1996.2031,19.6719 1997.25,19.0938 Q1998.3125,18.5 1999.5,18.5 Q2000.2188,18.5 2000.8438,18.75 Q2001.4688,19 2002,19.5 Z " fill="#000000"/><text fill="#000000" font-family="sans-serif" font-size="12" lengthAdjust="spacing" textLength="123" x="2014" y="27.9102">MedicalLabTechnician</text><line style="stroke:#A80036;stroke-width:1.5;" x1="1986" x2="2139" y1="39" y2="39"/><!--MD5=[03960189e81aa2c066c762ffabbee709]
class Receptionist--><rect codeLine="164" fill="#FEFECE" filter="url(#f1c0n3edbt31ds)" height="40" id="Receptionist" style="stroke:#A80036;stroke-width:1.5;" width="101" x="3621" y="833"/><ellipse cx="3636" cy="849" fill="#ADD1B2" rx="11" ry="11" style="stroke:#A80036;stroke-width:1.0;"/><path d="M3638,845.5 Q3638.2031,845 3638.4375,844.75 Q3638.6719,844.5 3638.9375,844.5 Q3639.4063,844.5 3639.7031,844.7813 Q3640,845.0625 3640,845.7188 L3640,847.2813 Q3640,847.9375 3639.7188,848.2188 Q3639.4375,848.5 3639,848.5 Q3638.6094,848.5 3638.3594,848.3281 Q3638.1094,848.1563 3638,847.7031 Q3637.9531,847.3906 3637.7813,847.2188 Q3637.4688,846.8906 3636.9063,846.7031 Q3636.3438,846.5 3635.7813,846.5 Q3635.0781,846.5 3634.4844,846.7813 Q3633.9063,847.0625 3633.4531,847.6875 Q3633,848.3125 3633,849.1719 L3633,850.0938 Q3633,851.125 3633.8438,851.8125 Q3634.6875,852.5 3636.1875,852.5 Q3637.0781,852.5 3637.7031,852.2969 Q3638.0625,852.1875 3638.4688,851.8281 Q3638.7344,851.625 3638.875,851.5625 Q3639.0156,851.5 3639.1875,851.5 Q3639.5156,851.5 3639.75,851.7656 Q3640,852.0156 3640,852.375 Q3640,852.7188 3639.6563,853.125 Q3639.1563,853.7188 3638.3594,854.0469 Q3637.3125,854.5 3636.0313,854.5 Q3634.5313,854.5 3633.3281,853.9063 Q3632.3594,853.4375 3631.6719,852.4219 Q3631,851.4063 3631,850.2031 L3631,849.1094 Q3631,847.8594 3631.5938,846.7656 Q3632.2031,845.6719 3633.25,845.0938 Q3634.3125,844.5 3635.5,844.5 Q3636.2188,844.5 3636.8438,844.75 Q3637.4688,845 3638,845.5 Z " fill="#000000"/><text fill="#000000" font-family="sans-serif" font-size="12" lengthAdjust="spacing" textLength="69" x="3650" y="853.9102">Receptionist</text><line style="stroke:#A80036;stroke-width:1.5;" x1="3622" x2="3721" y1="865" y2="865"/><!--MD5=[ed6624c6556d5e7b1bd23032162d20b7]
class Client--><rect codeLine="167" fill="#FEFECE" filter="url(#f1c0n3edbt31ds)" height="150.6875" id="Client" style="stroke:#A80036;stroke-width:1.5;" width="83" x="3413" y="777.5"/><ellipse cx="3436.55" cy="793.5" fill="#ADD1B2" rx="11" ry="11" style="stroke:#A80036;stroke-width:1.0;"/><path d="M3438.55,790 Q3438.7531,789.5 3438.9875,789.25 Q3439.2219,789 3439.4875,789 Q3439.9563,789 3440.2531,789.2813 Q3440.55,789.5625 3440.55,790.2188 L3440.55,791.7813 Q3440.55,792.4375 3440.2688,792.7188 Q3439.9875,793 3439.55,793 Q3439.1594,793 3438.9094,792.8281 Q3438.6594,792.6563 3438.55,792.2031 Q3438.5031,791.8906 3438.3313,791.7188 Q3438.0188,791.3906 3437.4563,791.2031 Q3436.8938,791 3436.3313,791 Q3435.6281,791 3435.0344,791.2813 Q3434.4563,791.5625 3434.0031,792.1875 Q3433.55,792.8125 3433.55,793.6719 L3433.55,794.5938 Q3433.55,795.625 3434.3938,796.3125 Q3435.2375,797 3436.7375,797 Q3437.6281,797 3438.2531,796.7969 Q3438.6125,796.6875 3439.0188,796.3281 Q3439.2844,796.125 3439.425,796.0625 Q3439.5656,796 3439.7375,796 Q3440.0656,796 3440.3,796.2656 Q3440.55,796.5156 3440.55,796.875 Q3440.55,797.2188 3440.2063,797.625 Q3439.7063,798.2188 3438.9094,798.5469 Q3437.8625,799 3436.5813,799 Q3435.0813,799 3433.8781,798.4063 Q3432.9094,797.9375 3432.2219,796.9219 Q3431.55,795.9063 3431.55,794.7031 L3431.55,793.6094 Q3431.55,792.3594 3432.1438,791.2656 Q3432.7531,790.1719 3433.8,789.5938 Q3434.8625,789 3436.05,789 Q3436.7688,789 3437.3938,789.25 Q3438.0188,789.5 3438.55,790 Z " fill="#000000"/><text fill="#000000" font-family="sans-serif" font-size="12" lengthAdjust="spacing" textLength="32" x="3452.45" y="798.4102">Client</text><line style="stroke:#A80036;stroke-width:1.5;" x1="3414" x2="3495" y1="809.5" y2="809.5"/><text fill="#000000" font-family="sans-serif" font-size="11" lengthAdjust="spacing" textLength="44" x="3419" y="824.9189">-citizenID</text><text fill="#000000" font-family="sans-serif" font-size="11" lengthAdjust="spacing" textLength="31" x="3419" y="838.7549">-nhsID</text><text fill="#000000" font-family="sans-serif" font-size="11" lengthAdjust="spacing" textLength="47" x="3419" y="852.5908">-birthDate</text><text fill="#000000" font-family="sans-serif" font-size="11" lengthAdjust="spacing" textLength="22" x="3419" y="866.4268">-sex</text><text fill="#000000" font-family="sans-serif" font-size="11" lengthAdjust="spacing" textLength="19" x="3419" y="880.2627">-TIN</text><text fill="#000000" font-family="sans-serif" font-size="11" lengthAdjust="spacing" textLength="71" x="3419" y="894.0986">-phoneNumber</text><text fill="#000000" font-family="sans-serif" font-size="11" lengthAdjust="spacing" textLength="28" x="3419" y="907.9346">-email</text><text fill="#000000" font-family="sans-serif" font-size="11" lengthAdjust="spacing" textLength="30" x="3419" y="921.7705">-name</text><!--MD5=[a999c1570c205a2156b04a15307bc1ff]
class LabOrder--><rect codeLine="178" fill="#FEFECE" filter="url(#f1c0n3edbt31ds)" height="40" id="LabOrder" style="stroke:#A80036;stroke-width:1.5;" width="84" x="7" y="973"/><ellipse cx="22" cy="989" fill="#ADD1B2" rx="11" ry="11" style="stroke:#A80036;stroke-width:1.0;"/><path d="M24,985.5 Q24.2031,985 24.4375,984.75 Q24.6719,984.5 24.9375,984.5 Q25.4063,984.5 25.7031,984.7813 Q26,985.0625 26,985.7188 L26,987.2813 Q26,987.9375 25.7188,988.2188 Q25.4375,988.5 25,988.5 Q24.6094,988.5 24.3594,988.3281 Q24.1094,988.1563 24,987.7031 Q23.9531,987.3906 23.7813,987.2188 Q23.4688,986.8906 22.9063,986.7031 Q22.3438,986.5 21.7813,986.5 Q21.0781,986.5 20.4844,986.7813 Q19.9063,987.0625 19.4531,987.6875 Q19,988.3125 19,989.1719 L19,990.0938 Q19,991.125 19.8438,991.8125 Q20.6875,992.5 22.1875,992.5 Q23.0781,992.5 23.7031,992.2969 Q24.0625,992.1875 24.4688,991.8281 Q24.7344,991.625 24.875,991.5625 Q25.0156,991.5 25.1875,991.5 Q25.5156,991.5 25.75,991.7656 Q26,992.0156 26,992.375 Q26,992.7188 25.6563,993.125 Q25.1563,993.7188 24.3594,994.0469 Q23.3125,994.5 22.0313,994.5 Q20.5313,994.5 19.3281,993.9063 Q18.3594,993.4375 17.6719,992.4219 Q17,991.4063 17,990.2031 L17,989.1094 Q17,987.8594 17.5938,986.7656 Q18.2031,985.6719 19.25,985.0938 Q20.3125,984.5 21.5,984.5 Q22.2188,984.5 22.8438,984.75 Q23.4688,985 24,985.5 Z " fill="#000000"/><text fill="#000000" font-family="sans-serif" font-size="12" lengthAdjust="spacing" textLength="52" x="36" y="993.9102">LabOrder</text><line style="stroke:#A80036;stroke-width:1.5;" x1="8" x2="90" y1="1005" y2="1005"/><!--MD5=[2741598bdf59a7d7e0d5c97658fd3022]
class Result--><rect codeLine="181" fill="#FEFECE" filter="url(#f1c0n3edbt31ds)" height="40" id="Result" style="stroke:#A80036;stroke-width:1.5;" width="68" x="2848.5" y="647"/><ellipse cx="2863.5" cy="663" fill="#ADD1B2" rx="11" ry="11" style="stroke:#A80036;stroke-width:1.0;"/><path d="M2865.5,659.5 Q2865.7031,659 2865.9375,658.75 Q2866.1719,658.5 2866.4375,658.5 Q2866.9063,658.5 2867.2031,658.7813 Q2867.5,659.0625 2867.5,659.7188 L2867.5,661.2813 Q2867.5,661.9375 2867.2188,662.2188 Q2866.9375,662.5 2866.5,662.5 Q2866.1094,662.5 2865.8594,662.3281 Q2865.6094,662.1563 2865.5,661.7031 Q2865.4531,661.3906 2865.2813,661.2188 Q2864.9688,660.8906 2864.4063,660.7031 Q2863.8438,660.5 2863.2813,660.5 Q2862.5781,660.5 2861.9844,660.7813 Q2861.4063,661.0625 2860.9531,661.6875 Q2860.5,662.3125 2860.5,663.1719 L2860.5,664.0938 Q2860.5,665.125 2861.3438,665.8125 Q2862.1875,666.5 2863.6875,666.5 Q2864.5781,666.5 2865.2031,666.2969 Q2865.5625,666.1875 2865.9688,665.8281 Q2866.2344,665.625 2866.375,665.5625 Q2866.5156,665.5 2866.6875,665.5 Q2867.0156,665.5 2867.25,665.7656 Q2867.5,666.0156 2867.5,666.375 Q2867.5,666.7188 2867.1563,667.125 Q2866.6563,667.7188 2865.8594,668.0469 Q2864.8125,668.5 2863.5313,668.5 Q2862.0313,668.5 2860.8281,667.9063 Q2859.8594,667.4375 2859.1719,666.4219 Q2858.5,665.4063 2858.5,664.2031 L2858.5,663.1094 Q2858.5,661.8594 2859.0938,660.7656 Q2859.7031,659.6719 2860.75,659.0938 Q2861.8125,658.5 2863,658.5 Q2863.7188,658.5 2864.3438,658.75 Q2864.9688,659 2865.5,659.5 Z " fill="#000000"/><text fill="#000000" font-family="sans-serif" font-size="12" lengthAdjust="spacing" textLength="36" x="2877.5" y="667.9102">Result</text><line style="stroke:#A80036;stroke-width:1.5;" x1="2849.5" x2="2915.5" y1="679" y2="679"/><!--MD5=[f61f25a4c924aea49782a3614f4b4835]
class DiagnosisReport--><rect codeLine="184" fill="#FEFECE" filter="url(#f1c0n3edbt31ds)" height="40" id="DiagnosisReport" style="stroke:#A80036;stroke-width:1.5;" width="126" x="2305" y="582"/><ellipse cx="2320" cy="598" fill="#ADD1B2" rx="11" ry="11" style="stroke:#A80036;stroke-width:1.0;"/><path d="M2322,594.5 Q2322.2031,594 2322.4375,593.75 Q2322.6719,593.5 2322.9375,593.5 Q2323.4063,593.5 2323.7031,593.7813 Q2324,594.0625 2324,594.7188 L2324,596.2813 Q2324,596.9375 2323.7188,597.2188 Q2323.4375,597.5 2323,597.5 Q2322.6094,597.5 2322.3594,597.3281 Q2322.1094,597.1563 2322,596.7031 Q2321.9531,596.3906 2321.7813,596.2188 Q2321.4688,595.8906 2320.9063,595.7031 Q2320.3438,595.5 2319.7813,595.5 Q2319.0781,595.5 2318.4844,595.7813 Q2317.9063,596.0625 2317.4531,596.6875 Q2317,597.3125 2317,598.1719 L2317,599.0938 Q2317,600.125 2317.8438,600.8125 Q2318.6875,601.5 2320.1875,601.5 Q2321.0781,601.5 2321.7031,601.2969 Q2322.0625,601.1875 2322.4688,600.8281 Q2322.7344,600.625 2322.875,600.5625 Q2323.0156,600.5 2323.1875,600.5 Q2323.5156,600.5 2323.75,600.7656 Q2324,601.0156 2324,601.375 Q2324,601.7188 2323.6563,602.125 Q2323.1563,602.7188 2322.3594,603.0469 Q2321.3125,603.5 2320.0313,603.5 Q2318.5313,603.5 2317.3281,602.9063 Q2316.3594,602.4375 2315.6719,601.4219 Q2315,600.4063 2315,599.2031 L2315,598.1094 Q2315,596.8594 2315.5938,595.7656 Q2316.2031,594.6719 2317.25,594.0938 Q2318.3125,593.5 2319.5,593.5 Q2320.2188,593.5 2320.8438,593.75 Q2321.4688,594 2322,594.5 Z " fill="#000000"/><text fill="#000000" font-family="sans-serif" font-size="12" lengthAdjust="spacing" textLength="94" x="2334" y="602.9102">DiagnosisReport</text><line style="stroke:#A80036;stroke-width:1.5;" x1="2306" x2="2430" y1="614" y2="614"/><!--MD5=[74783ec010d186752c4ffd5c6de5633a]
class NHSReport--><rect codeLine="20" fill="#FEFECE" filter="url(#f1c0n3edbt31ds)" height="40" id="NHSReport" style="stroke:#A80036;stroke-width:1.5;" width="95" x="2589.5" y="731"/><ellipse cx="2604.5" cy="747" fill="#ADD1B2" rx="11" ry="11" style="stroke:#A80036;stroke-width:1.0;"/><path d="M2606.5,743.5 Q2606.7031,743 2606.9375,742.75 Q2607.1719,742.5 2607.4375,742.5 Q2607.9063,742.5 2608.2031,742.7813 Q2608.5,743.0625 2608.5,743.7188 L2608.5,745.2813 Q2608.5,745.9375 2608.2188,746.2188 Q2607.9375,746.5 2607.5,746.5 Q2607.1094,746.5 2606.8594,746.3281 Q2606.6094,746.1563 2606.5,745.7031 Q2606.4531,745.3906 2606.2813,745.2188 Q2605.9688,744.8906 2605.4063,744.7031 Q2604.8438,744.5 2604.2813,744.5 Q2603.5781,744.5 2602.9844,744.7813 Q2602.4063,745.0625 2601.9531,745.6875 Q2601.5,746.3125 2601.5,747.1719 L2601.5,748.0938 Q2601.5,749.125 2602.3438,749.8125 Q2603.1875,750.5 2604.6875,750.5 Q2605.5781,750.5 2606.2031,750.2969 Q2606.5625,750.1875 2606.9688,749.8281 Q2607.2344,749.625 2607.375,749.5625 Q2607.5156,749.5 2607.6875,749.5 Q2608.0156,749.5 2608.25,749.7656 Q2608.5,750.0156 2608.5,750.375 Q2608.5,750.7188 2608.1563,751.125 Q2607.6563,751.7188 2606.8594,752.0469 Q2605.8125,752.5 2604.5313,752.5 Q2603.0313,752.5 2601.8281,751.9063 Q2600.8594,751.4375 2600.1719,750.4219 Q2599.5,749.4063 2599.5,748.2031 L2599.5,747.1094 Q2599.5,745.8594 2600.0938,744.7656 Q2600.7031,743.6719 2601.75,743.0938 Q2602.8125,742.5 2604,742.5 Q2604.7188,742.5 2605.3438,742.75 Q2605.9688,743 2606.5,743.5 Z " fill="#000000"/><text fill="#000000" font-family="sans-serif" font-size="12" lengthAdjust="spacing" textLength="63" x="2618.5" y="751.9102">NHSReport</text><line style="stroke:#A80036;stroke-width:1.5;" x1="2590.5" x2="2683.5" y1="763" y2="763"/><!--MD5=[36afb6bbd95a8ac778c4537c55a683d5]
class ParameterCategory--><rect codeLine="187" fill="#FEFECE" filter="url(#f1c0n3edbt31ds)" height="81.5078" id="ParameterCategory" style="stroke:#A80036;stroke-width:1.5;" width="139" x="1143" y="714"/><ellipse cx="1158" cy="730" fill="#ADD1B2" rx="11" ry="11" style="stroke:#A80036;stroke-width:1.0;"/><path d="M1160,726.5 Q1160.2031,726 1160.4375,725.75 Q1160.6719,725.5 1160.9375,725.5 Q1161.4063,725.5 1161.7031,725.7813 Q1162,726.0625 1162,726.7188 L1162,728.2813 Q1162,728.9375 1161.7188,729.2188 Q1161.4375,729.5 1161,729.5 Q1160.6094,729.5 1160.3594,729.3281 Q1160.1094,729.1563 1160,728.7031 Q1159.9531,728.3906 1159.7813,728.2188 Q1159.4688,727.8906 1158.9063,727.7031 Q1158.3438,727.5 1157.7813,727.5 Q1157.0781,727.5 1156.4844,727.7813 Q1155.9063,728.0625 1155.4531,728.6875 Q1155,729.3125 1155,730.1719 L1155,731.0938 Q1155,732.125 1155.8438,732.8125 Q1156.6875,733.5 1158.1875,733.5 Q1159.0781,733.5 1159.7031,733.2969 Q1160.0625,733.1875 1160.4688,732.8281 Q1160.7344,732.625 1160.875,732.5625 Q1161.0156,732.5 1161.1875,732.5 Q1161.5156,732.5 1161.75,732.7656 Q1162,733.0156 1162,733.375 Q1162,733.7188 1161.6563,734.125 Q1161.1563,734.7188 1160.3594,735.0469 Q1159.3125,735.5 1158.0313,735.5 Q1156.5313,735.5 1155.3281,734.9063 Q1154.3594,734.4375 1153.6719,733.4219 Q1153,732.4063 1153,731.2031 L1153,730.1094 Q1153,728.8594 1153.5938,727.7656 Q1154.2031,726.6719 1155.25,726.0938 Q1156.3125,725.5 1157.5,725.5 Q1158.2188,725.5 1158.8438,725.75 Q1159.4688,726 1160,726.5 Z " fill="#000000"/><text fill="#000000" font-family="sans-serif" font-size="12" lengthAdjust="spacing" textLength="107" x="1172" y="734.9102">ParameterCategory</text><line style="stroke:#A80036;stroke-width:1.5;" x1="1144" x2="1281" y1="746" y2="746"/><text fill="#000000" font-family="sans-serif" font-size="11" lengthAdjust="spacing" textLength="28" x="1149" y="761.4189">-code</text><text fill="#000000" font-family="sans-serif" font-size="11" lengthAdjust="spacing" textLength="57" x="1149" y="775.2549">-description</text><text fill="#000000" font-family="sans-serif" font-size="11" lengthAdjust="spacing" textLength="31" x="1149" y="789.0908">-nhsID</text><!--MD5=[1f6362a5c8f21d8d6a0fce68f3a92a4e]
class Parameter--><rect codeLine="193" fill="#FEFECE" filter="url(#f1c0n3edbt31ds)" height="81.5078" id="Parameter" style="stroke:#A80036;stroke-width:1.5;" width="90" x="1476.5" y="714"/><ellipse cx="1491.5" cy="730" fill="#ADD1B2" rx="11" ry="11" style="stroke:#A80036;stroke-width:1.0;"/><path d="M1493.5,726.5 Q1493.7031,726 1493.9375,725.75 Q1494.1719,725.5 1494.4375,725.5 Q1494.9063,725.5 1495.2031,725.7813 Q1495.5,726.0625 1495.5,726.7188 L1495.5,728.2813 Q1495.5,728.9375 1495.2188,729.2188 Q1494.9375,729.5 1494.5,729.5 Q1494.1094,729.5 1493.8594,729.3281 Q1493.6094,729.1563 1493.5,728.7031 Q1493.4531,728.3906 1493.2813,728.2188 Q1492.9688,727.8906 1492.4063,727.7031 Q1491.8438,727.5 1491.2813,727.5 Q1490.5781,727.5 1489.9844,727.7813 Q1489.4063,728.0625 1488.9531,728.6875 Q1488.5,729.3125 1488.5,730.1719 L1488.5,731.0938 Q1488.5,732.125 1489.3438,732.8125 Q1490.1875,733.5 1491.6875,733.5 Q1492.5781,733.5 1493.2031,733.2969 Q1493.5625,733.1875 1493.9688,732.8281 Q1494.2344,732.625 1494.375,732.5625 Q1494.5156,732.5 1494.6875,732.5 Q1495.0156,732.5 1495.25,732.7656 Q1495.5,733.0156 1495.5,733.375 Q1495.5,733.7188 1495.1563,734.125 Q1494.6563,734.7188 1493.8594,735.0469 Q1492.8125,735.5 1491.5313,735.5 Q1490.0313,735.5 1488.8281,734.9063 Q1487.8594,734.4375 1487.1719,733.4219 Q1486.5,732.4063 1486.5,731.2031 L1486.5,730.1094 Q1486.5,728.8594 1487.0938,727.7656 Q1487.7031,726.6719 1488.75,726.0938 Q1489.8125,725.5 1491,725.5 Q1491.7188,725.5 1492.3438,725.75 Q1492.9688,726 1493.5,726.5 Z " fill="#000000"/><text fill="#000000" font-family="sans-serif" font-size="12" lengthAdjust="spacing" textLength="58" x="1505.5" y="734.9102">Parameter</text><line style="stroke:#A80036;stroke-width:1.5;" x1="1477.5" x2="1565.5" y1="746" y2="746"/><text fill="#000000" font-family="sans-serif" font-size="11" lengthAdjust="spacing" textLength="59" x="1482.5" y="761.4189">-designation</text><text fill="#000000" font-family="sans-serif" font-size="11" lengthAdjust="spacing" textLength="57" x="1482.5" y="775.2549">-description</text><text fill="#000000" font-family="sans-serif" font-size="11" lengthAdjust="spacing" textLength="28" x="1482.5" y="789.0908">-code</text><!--MD5=[aeb3272166074d8737a70b61b1e71682]
class TestType--><rect codeLine="199" fill="#FEFECE" filter="url(#f1c0n3edbt31ds)" height="81.5078" id="TestType" style="stroke:#A80036;stroke-width:1.5;" width="96" x="215" y="845"/><ellipse cx="236.3" cy="861" fill="#ADD1B2" rx="11" ry="11" style="stroke:#A80036;stroke-width:1.0;"/><path d="M238.3,857.5 Q238.5031,857 238.7375,856.75 Q238.9719,856.5 239.2375,856.5 Q239.7063,856.5 240.0031,856.7813 Q240.3,857.0625 240.3,857.7188 L240.3,859.2813 Q240.3,859.9375 240.0188,860.2188 Q239.7375,860.5 239.3,860.5 Q238.9094,860.5 238.6594,860.3281 Q238.4094,860.1563 238.3,859.7031 Q238.2531,859.3906 238.0813,859.2188 Q237.7688,858.8906 237.2063,858.7031 Q236.6438,858.5 236.0813,858.5 Q235.3781,858.5 234.7844,858.7813 Q234.2063,859.0625 233.7531,859.6875 Q233.3,860.3125 233.3,861.1719 L233.3,862.0938 Q233.3,863.125 234.1438,863.8125 Q234.9875,864.5 236.4875,864.5 Q237.3781,864.5 238.0031,864.2969 Q238.3625,864.1875 238.7688,863.8281 Q239.0344,863.625 239.175,863.5625 Q239.3156,863.5 239.4875,863.5 Q239.8156,863.5 240.05,863.7656 Q240.3,864.0156 240.3,864.375 Q240.3,864.7188 239.9563,865.125 Q239.4563,865.7188 238.6594,866.0469 Q237.6125,866.5 236.3313,866.5 Q234.8313,866.5 233.6281,865.9063 Q232.6594,865.4375 231.9719,864.4219 Q231.3,863.4063 231.3,862.2031 L231.3,861.1094 Q231.3,859.8594 231.8938,858.7656 Q232.5031,857.6719 233.55,857.0938 Q234.6125,856.5 235.8,856.5 Q236.5188,856.5 237.1438,856.75 Q237.7688,857 238.3,857.5 Z " fill="#000000"/><text fill="#000000" font-family="sans-serif" font-size="12" lengthAdjust="spacing" textLength="50" x="251.7" y="865.9102">TestType</text><line style="stroke:#A80036;stroke-width:1.5;" x1="216" x2="310" y1="877" y2="877"/><text fill="#000000" font-family="sans-serif" font-size="11" lengthAdjust="spacing" textLength="28" x="221" y="892.4189">-code</text><text fill="#000000" font-family="sans-serif" font-size="11" lengthAdjust="spacing" textLength="57" x="221" y="906.2549">-description</text><text fill="#000000" font-family="sans-serif" font-size="11" lengthAdjust="spacing" textLength="84" x="221" y="920.0908">-collectingMethod</text><!--MD5=[df38be88ccee13e832d6fafd6288a4ca]
class Test--><rect codeLine="205" fill="#FEFECE" filter="url(#f1c0n3edbt31ds)" height="150.6875" id="Test" style="stroke:#A80036;stroke-width:1.5;" width="144" x="1990.5" y="573.5"/><ellipse cx="2046.25" cy="589.5" fill="#ADD1B2" rx="11" ry="11" style="stroke:#A80036;stroke-width:1.0;"/><path d="M2048.25,586 Q2048.4531,585.5 2048.6875,585.25 Q2048.9219,585 2049.1875,585 Q2049.6563,585 2049.9531,585.2813 Q2050.25,585.5625 2050.25,586.2188 L2050.25,587.7813 Q2050.25,588.4375 2049.9688,588.7188 Q2049.6875,589 2049.25,589 Q2048.8594,589 2048.6094,588.8281 Q2048.3594,588.6563 2048.25,588.2031 Q2048.2031,587.8906 2048.0313,587.7188 Q2047.7188,587.3906 2047.1563,587.2031 Q2046.5938,587 2046.0313,587 Q2045.3281,587 2044.7344,587.2813 Q2044.1563,587.5625 2043.7031,588.1875 Q2043.25,588.8125 2043.25,589.6719 L2043.25,590.5938 Q2043.25,591.625 2044.0938,592.3125 Q2044.9375,593 2046.4375,593 Q2047.3281,593 2047.9531,592.7969 Q2048.3125,592.6875 2048.7188,592.3281 Q2048.9844,592.125 2049.125,592.0625 Q2049.2656,592 2049.4375,592 Q2049.7656,592 2050,592.2656 Q2050.25,592.5156 2050.25,592.875 Q2050.25,593.2188 2049.9063,593.625 Q2049.4063,594.2188 2048.6094,594.5469 Q2047.5625,595 2046.2813,595 Q2044.7813,595 2043.5781,594.4063 Q2042.6094,593.9375 2041.9219,592.9219 Q2041.25,591.9063 2041.25,590.7031 L2041.25,589.6094 Q2041.25,588.3594 2041.8438,587.2656 Q2042.4531,586.1719 2043.5,585.5938 Q2044.5625,585 2045.75,585 Q2046.4688,585 2047.0938,585.25 Q2047.7188,585.5 2048.25,586 Z " fill="#000000"/><text fill="#000000" font-family="sans-serif" font-size="12" lengthAdjust="spacing" textLength="24" x="2066.75" y="594.4102">Test</text><line style="stroke:#A80036;stroke-width:1.5;" x1="1991.5" x2="2133.5" y1="605.5" y2="605.5"/><text fill="#000000" font-family="sans-serif" font-size="11" lengthAdjust="spacing" textLength="57" x="1996.5" y="620.9189">-description</text><text fill="#000000" font-family="sans-serif" font-size="11" lengthAdjust="spacing" textLength="64" x="1996.5" y="634.7549">-internalCode</text><text fill="#000000" font-family="sans-serif" font-size="11" lengthAdjust="spacing" textLength="47" x="1996.5" y="648.5908">-nhsCode</text><text fill="#000000" font-family="sans-serif" font-size="11" lengthAdjust="spacing" textLength="84" x="1996.5" y="662.4268">-collectingMethod</text><text fill="#000000" font-family="sans-serif" font-size="11" lengthAdjust="spacing" textLength="79" x="1996.5" y="676.2627">-collectDateTime</text><text fill="#000000" font-family="sans-serif" font-size="11" lengthAdjust="spacing" textLength="132" x="1996.5" y="690.0986">-chemicalAnalysisDateTime</text><text fill="#000000" font-family="sans-serif" font-size="11" lengthAdjust="spacing" textLength="94" x="1996.5" y="703.9346">-diagnosisDateTime</text><text fill="#000000" font-family="sans-serif" font-size="11" lengthAdjust="spacing" textLength="93" x="1996.5" y="717.7705">-validationDateTime</text><!--MD5=[76b5e19c9337179d2d7ae334371d68c8]
class Notification--><rect codeLine="25" fill="#FEFECE" filter="url(#f1c0n3edbt31ds)" height="40" id="Notification" style="stroke:#A80036;stroke-width:1.5;" width="93" x="3149.5" y="681"/><ellipse cx="3164.5" cy="697" fill="#ADD1B2" rx="11" ry="11" style="stroke:#A80036;stroke-width:1.0;"/><path d="M3166.5,693.5 Q3166.7031,693 3166.9375,692.75 Q3167.1719,692.5 3167.4375,692.5 Q3167.9063,692.5 3168.2031,692.7813 Q3168.5,693.0625 3168.5,693.7188 L3168.5,695.2813 Q3168.5,695.9375 3168.2188,696.2188 Q3167.9375,696.5 3167.5,696.5 Q3167.1094,696.5 3166.8594,696.3281 Q3166.6094,696.1563 3166.5,695.7031 Q3166.4531,695.3906 3166.2813,695.2188 Q3165.9688,694.8906 3165.4063,694.7031 Q3164.8438,694.5 3164.2813,694.5 Q3163.5781,694.5 3162.9844,694.7813 Q3162.4063,695.0625 3161.9531,695.6875 Q3161.5,696.3125 3161.5,697.1719 L3161.5,698.0938 Q3161.5,699.125 3162.3438,699.8125 Q3163.1875,700.5 3164.6875,700.5 Q3165.5781,700.5 3166.2031,700.2969 Q3166.5625,700.1875 3166.9688,699.8281 Q3167.2344,699.625 3167.375,699.5625 Q3167.5156,699.5 3167.6875,699.5 Q3168.0156,699.5 3168.25,699.7656 Q3168.5,700.0156 3168.5,700.375 Q3168.5,700.7188 3168.1563,701.125 Q3167.6563,701.7188 3166.8594,702.0469 Q3165.8125,702.5 3164.5313,702.5 Q3163.0313,702.5 3161.8281,701.9063 Q3160.8594,701.4375 3160.1719,700.4219 Q3159.5,699.4063 3159.5,698.2031 L3159.5,697.1094 Q3159.5,695.8594 3160.0938,694.7656 Q3160.7031,693.6719 3161.75,693.0938 Q3162.8125,692.5 3164,692.5 Q3164.7188,692.5 3165.3438,692.75 Q3165.9688,693 3166.5,693.5 Z " fill="#000000"/><text fill="#000000" font-family="sans-serif" font-size="12" lengthAdjust="spacing" textLength="61" x="3178.5" y="701.9102">Notification</text><line style="stroke:#A80036;stroke-width:1.5;" x1="3150.5" x2="3241.5" y1="713" y2="713"/><!--MD5=[0a105ea8d9af02dadec02d3e239f1d60]
class NHS--><rect codeLine="26" fill="#FEFECE" filter="url(#f1c0n3edbt31ds)" height="40" id="NHS" style="stroke:#A80036;stroke-width:1.5;" width="58" x="2853.5" y="724"/><ellipse cx="2868.5" cy="740" fill="#ADD1B2" rx="11" ry="11" style="stroke:#A80036;stroke-width:1.0;"/><path d="M2870.5,736.5 Q2870.7031,736 2870.9375,735.75 Q2871.1719,735.5 2871.4375,735.5 Q2871.9063,735.5 2872.2031,735.7813 Q2872.5,736.0625 2872.5,736.7188 L2872.5,738.2813 Q2872.5,738.9375 2872.2188,739.2188 Q2871.9375,739.5 2871.5,739.5 Q2871.1094,739.5 2870.8594,739.3281 Q2870.6094,739.1563 2870.5,738.7031 Q2870.4531,738.3906 2870.2813,738.2188 Q2869.9688,737.8906 2869.4063,737.7031 Q2868.8438,737.5 2868.2813,737.5 Q2867.5781,737.5 2866.9844,737.7813 Q2866.4063,738.0625 2865.9531,738.6875 Q2865.5,739.3125 2865.5,740.1719 L2865.5,741.0938 Q2865.5,742.125 2866.3438,742.8125 Q2867.1875,743.5 2868.6875,743.5 Q2869.5781,743.5 2870.2031,743.2969 Q2870.5625,743.1875 2870.9688,742.8281 Q2871.2344,742.625 2871.375,742.5625 Q2871.5156,742.5 2871.6875,742.5 Q2872.0156,742.5 2872.25,742.7656 Q2872.5,743.0156 2872.5,743.375 Q2872.5,743.7188 2872.1563,744.125 Q2871.6563,744.7188 2870.8594,745.0469 Q2869.8125,745.5 2868.5313,745.5 Q2867.0313,745.5 2865.8281,744.9063 Q2864.8594,744.4375 2864.1719,743.4219 Q2863.5,742.4063 2863.5,741.2031 L2863.5,740.1094 Q2863.5,738.8594 2864.0938,737.7656 Q2864.7031,736.6719 2865.75,736.0938 Q2866.8125,735.5 2868,735.5 Q2868.7188,735.5 2869.3438,735.75 Q2869.9688,736 2870.5,736.5 Z " fill="#000000"/><text fill="#000000" font-family="sans-serif" font-size="12" lengthAdjust="spacing" textLength="26" x="2882.5" y="744.9102">NHS</text><line style="stroke:#A80036;stroke-width:1.5;" x1="2854.5" x2="2910.5" y1="756" y2="756"/><!--MD5=[9681492165142af2a4a3a169d90ee8d4]
class Sample--><rect codeLine="216" fill="#FEFECE" filter="url(#f1c0n3edbt31ds)" height="53.8359" id="Sample" style="stroke:#A80036;stroke-width:1.5;" width="75" x="1757" y="99"/><ellipse cx="1772" cy="115" fill="#ADD1B2" rx="11" ry="11" style="stroke:#A80036;stroke-width:1.0;"/><path d="M1774,111.5 Q1774.2031,111 1774.4375,110.75 Q1774.6719,110.5 1774.9375,110.5 Q1775.4063,110.5 1775.7031,110.7813 Q1776,111.0625 1776,111.7188 L1776,113.2813 Q1776,113.9375 1775.7188,114.2188 Q1775.4375,114.5 1775,114.5 Q1774.6094,114.5 1774.3594,114.3281 Q1774.1094,114.1563 1774,113.7031 Q1773.9531,113.3906 1773.7813,113.2188 Q1773.4688,112.8906 1772.9063,112.7031 Q1772.3438,112.5 1771.7813,112.5 Q1771.0781,112.5 1770.4844,112.7813 Q1769.9063,113.0625 1769.4531,113.6875 Q1769,114.3125 1769,115.1719 L1769,116.0938 Q1769,117.125 1769.8438,117.8125 Q1770.6875,118.5 1772.1875,118.5 Q1773.0781,118.5 1773.7031,118.2969 Q1774.0625,118.1875 1774.4688,117.8281 Q1774.7344,117.625 1774.875,117.5625 Q1775.0156,117.5 1775.1875,117.5 Q1775.5156,117.5 1775.75,117.7656 Q1776,118.0156 1776,118.375 Q1776,118.7188 1775.6563,119.125 Q1775.1563,119.7188 1774.3594,120.0469 Q1773.3125,120.5 1772.0313,120.5 Q1770.5313,120.5 1769.3281,119.9063 Q1768.3594,119.4375 1767.6719,118.4219 Q1767,117.4063 1767,116.2031 L1767,115.1094 Q1767,113.8594 1767.5938,112.7656 Q1768.2031,111.6719 1769.25,111.0938 Q1770.3125,110.5 1771.5,110.5 Q1772.2188,110.5 1772.8438,110.75 Q1773.4688,111 1774,111.5 Z " fill="#000000"/><text fill="#000000" font-family="sans-serif" font-size="12" lengthAdjust="spacing" textLength="43" x="1786" y="119.9102">Sample</text><line style="stroke:#A80036;stroke-width:1.5;" x1="1758" x2="1831" y1="131" y2="131"/><text fill="#000000" font-family="sans-serif" font-size="11" lengthAdjust="spacing" textLength="44" x="1763" y="146.4189">-barcode</text><!--MD5=[12d76240d3c3c66074d4ec2ea8bf469c]
link Company to Parameter--><path codeLine="29" d="M490.22,755.04 C499.94,783.45 519.67,826.66 554,846 C836.18,1004.96 962.14,864.82 1282,814 C1350.67,803.09 1428.58,782.15 1476.13,768.38 " fill="none" id="Company-Parameter" style="stroke:#A80036;stroke-width:1.0;"/><polygon fill="#000000" points="872.9995,873.2434,863.995,870.1824,863.9155,876.0597,872.9995,873.2434" style="stroke:#000000;stroke-width:1.0;"/><text fill="#000000" font-family="sans-serif" font-size="13" lengthAdjust="spacing" textLength="118" x="877" y="878.4951">capable of analysing</text><text fill="#000000" font-family="sans-serif" font-size="13" lengthAdjust="spacing" textLength="7" x="492.8931" y="776.2565">1</text><text fill="#000000" font-family="sans-serif" font-size="13" lengthAdjust="spacing" textLength="5" x="1463.5007" y="785.3498">*</text><!--MD5=[09366576ee87d48d594df10cacc83f45]
link Company to Employee--><path codeLine="31" d="M492.84,700.86 C504.63,672.34 525.94,627.23 554,595 C581.68,563.21 621,535.59 650.84,517.14 " fill="none" id="Company-Employee" style="stroke:#A80036;stroke-width:1.0;"/><polygon fill="#000000" points="555.7398,533.9667,563.8658,529.0252,559.4093,525.1926,555.7398,533.9667" style="stroke:#000000;stroke-width:1.0;"/><text fill="#000000" font-family="sans-serif" font-size="13" lengthAdjust="spacing" textLength="52" x="568" y="535.4951">works for</text><text fill="#000000" font-family="sans-serif" font-size="13" lengthAdjust="spacing" textLength="7" x="496.2718" y="690.2886">1</text><text fill="#000000" font-family="sans-serif" font-size="13" lengthAdjust="spacing" textLength="5" x="637.9063" y="536.2021">*</text><!--MD5=[93b4f25fb503a8e0e9a46b1d30ff3f44]
link Company to ParameterCategory--><path codeLine="33" d="M524.36,721.15 C534.07,719.84 544.37,718.67 554,718 C583.71,715.93 591.23,717.43 621,718 C839.79,722.22 895.49,713.05 1113,737 C1122.68,738.07 1132.83,739.53 1142.8,741.16 " fill="none" id="Company-ParameterCategory" style="stroke:#A80036;stroke-width:1.0;"/><polygon fill="#000000" points="777.9974,710.3375,769.0521,707.1076,768.862,712.9824,777.9974,710.3375" style="stroke:#000000;stroke-width:1.0;"/><text fill="#000000" font-family="sans-serif" font-size="13" lengthAdjust="spacing" textLength="39" x="782" y="715.4951">adopts</text><text fill="#000000" font-family="sans-serif" font-size="13" lengthAdjust="spacing" textLength="7" x="532.0384" y="716.2283">1</text><text fill="#000000" font-family="sans-serif" font-size="13" lengthAdjust="spacing" textLength="5" x="1129.9031" y="754.0625">*</text><!--MD5=[eaea43e34e45c5b9d20b595fc78f1f20]
link Company to Administrator--><path codeLine="35" d="M524.46,734.91 C580.02,743.82 681.11,759.22 768,768 C804.25,771.66 845.25,774.19 876.74,775.79 " fill="none" id="Company-Administrator" style="stroke:#A80036;stroke-width:1.0;"/><polygon fill="#000000" points="678.4667,745.7521,669.8207,741.7902,669.1431,747.6288,678.4667,745.7521" style="stroke:#000000;stroke-width:1.0;"/><text fill="#000000" font-family="sans-serif" font-size="13" lengthAdjust="spacing" textLength="37" x="682.5" y="750.4951">knows</text><text fill="#000000" font-family="sans-serif" font-size="13" lengthAdjust="spacing" textLength="7" x="531.8646" y="750.8225">1</text><text fill="#000000" font-family="sans-serif" font-size="13" lengthAdjust="spacing" textLength="5" x="863.9691" y="790.1241">*</text><!--MD5=[f7fb1bbd8b4f4021e9754ae6fe2871a0]
reverse link Employee to Administrator--><path codeLine="37" d="M702.84,581.69 C711.34,630.72 729.46,689.36 768,728 C796.75,756.83 841.83,769.09 876.9,774.27 " fill="none" id="Employee-backto-Administrator" style="stroke:#A80036;stroke-width:1.0;"/><polygon fill="none" points="695.89,582.52,699.81,561.7,709.73,580.42,695.89,582.52" style="stroke:#A80036;stroke-width:1.0;"/><text fill="#000000" font-family="sans-serif" font-size="13" lengthAdjust="spacing" textLength="5" x="695.0866" y="582.7699">*</text><text fill="#000000" font-family="sans-serif" font-size="13" lengthAdjust="spacing" textLength="5" x="864.1516" y="770.1403">*</text><!--MD5=[4c7c52c4bf7e982cdae6fb6daeda4b43]
reverse link Employee to ClinicalChemistryTechnologist--><path codeLine="39" d="M756.04,459.31 C871,398.57 1130.44,277 1365,277 C1365,277 1365,277 2883.5,277 C2958.5,277 3042.61,264.07 3104.51,252.07 " fill="none" id="Employee-backto-ClinicalChemistryTechnologist" style="stroke:#A80036;stroke-width:1.0;"/><polygon fill="none" points="759.15,465.58,738.21,468.85,752.54,453.24,759.15,465.58" style="stroke:#A80036;stroke-width:1.0;"/><text fill="#000000" font-family="sans-serif" font-size="13" lengthAdjust="spacing" textLength="5" x="745.8635" y="479.7117">*</text><text fill="#000000" font-family="sans-serif" font-size="13" lengthAdjust="spacing" textLength="5" x="3082.768" y="270.5964">*</text><!--MD5=[bfff716514ca687b645fe473c6e098a4]
reverse link Employee to Receptionist--><path codeLine="41" d="M757.06,516.6 C803.46,532.28 869.06,550 928.5,550 C928.5,550 928.5,550 1662,550 C1917.39,550 1966.11,419 2221.5,419 C2221.5,419 2221.5,419 2883.5,419 C2965.2,419 2989.51,412.29 3066,441 C3322.53,537.3 3576.02,763.91 3649.39,832.79 " fill="none" id="Employee-backto-Receptionist" style="stroke:#A80036;stroke-width:1.0;"/><polygon fill="none" points="754.66,523.18,738.11,509.95,759.3,509.97,754.66,523.18" style="stroke:#A80036;stroke-width:1.0;"/><text fill="#000000" font-family="sans-serif" font-size="13" lengthAdjust="spacing" textLength="5" x="746.0352" y="527.7764">*</text><text fill="#000000" font-family="sans-serif" font-size="13" lengthAdjust="spacing" textLength="20" x="3619.9577" y="822.0501">1..*</text><!--MD5=[8c76900db13228c02bafda6909b4bb57]
reverse link Employee to MedicalLabTechnician--><path codeLine="43" d="M723.99,404.63 C728.67,390.06 733.48,375.11 738,361 C751.39,319.24 735.52,296.46 768,267 C815.22,224.17 1826.6,32.73 1890,26 C1920.94,22.71 1955.2,22.28 1984.91,22.91 " fill="none" id="Employee-backto-MedicalLabTechnician" style="stroke:#A80036;stroke-width:1.0;"/><polygon fill="none" points="730.49,407.27,717.7,424.16,717.17,402.98,730.49,407.27" style="stroke:#A80036;stroke-width:1.0;"/><text fill="#000000" font-family="sans-serif" font-size="13" lengthAdjust="spacing" textLength="5" x="714.8347" y="413.7568">*</text><text fill="#000000" font-family="sans-serif" font-size="13" lengthAdjust="spacing" textLength="5" x="1972.0261" y="36.8073">*</text><!--MD5=[7dae17bb55c59b06af656d7c83a51371]
reverse link Employee to LaboratoryCoordinator--><path codeLine="45" d="M758.48,488.68 C787.18,486.7 821.42,484.35 851.63,482.28 " fill="none" id="Employee-backto-LaboratoryCoordinator" style="stroke:#A80036;stroke-width:1.0;"/><polygon fill="none" points="758.67,495.68,738.24,490.07,757.71,481.71,758.67,495.68" style="stroke:#A80036;stroke-width:1.0;"/><text fill="#000000" font-family="sans-serif" font-size="13" lengthAdjust="spacing" textLength="5" x="745.8985" y="504.4462">*</text><text fill="#000000" font-family="sans-serif" font-size="13" lengthAdjust="spacing" textLength="20" x="824.0787" y="496.9315">1..*</text><!--MD5=[c3a86c626b5b742f72786125539e9227]
link ClinicalChemistryTechnologist to ChemicalLaboratory--><path codeLine="47" d="M3099.69,211.95 C3038.27,200.74 2956.52,189 2883.5,189 C2502.5,189 2502.5,189 2502.5,189 C2161.79,189 1754.46,193.9 1593.21,196.03 " fill="none" id="ClinicalChemistryTechnologist-ChemicalLaboratory" style="stroke:#A80036;stroke-width:1.0;"/><polygon fill="#000000" points="2336.0003,180.1229,2345.0138,183.1573,2345.0759,177.2798,2336.0003,180.1229" style="stroke:#000000;stroke-width:1.0;"/><text fill="#000000" font-family="sans-serif" font-size="13" lengthAdjust="spacing" textLength="49" x="2350" y="185.4951">works at</text><text fill="#000000" font-family="sans-serif" font-size="13" lengthAdjust="spacing" textLength="5" x="3083.2651" y="206.2222">*</text><text fill="#000000" font-family="sans-serif" font-size="13" lengthAdjust="spacing" textLength="7" x="1600.966" y="210.2682">1</text><!--MD5=[738f0445d4a0804ca0738b44323ae22b]
link MedicalLabTechnician to ClinicalAnalysisLaboratory--><path codeLine="49" d="M2140.21,27.39 C2201.57,27.67 2289.81,28 2367,28 C2367,28 2367,28 3672.5,28 C3884.06,28 3924.71,388.23 3932,490.96 " fill="none" id="MedicalLabTechnician-ClinicalAnalysisLaboratory" style="stroke:#A80036;stroke-width:1.0;"/><polygon fill="#000000" points="2984.3406,20.4281,2976.32,15.3174,2974.8477,21.0078,2984.3406,20.4281" style="stroke:#000000;stroke-width:1.0;"/><text fill="#000000" font-family="sans-serif" font-size="13" lengthAdjust="spacing" textLength="49" x="2988.5" y="24.4951">works at</text><text fill="#000000" font-family="sans-serif" font-size="13" lengthAdjust="spacing" textLength="20" x="2148.0217" y="41.648">1..*</text><text fill="#000000" font-family="sans-serif" font-size="13" lengthAdjust="spacing" textLength="5" x="3925.7813" y="479.977">*</text><!--MD5=[6cd0a3af2322bf46f6c633408da71c74]
link Receptionist to ClinicalAnalysisLaboratory--><path codeLine="51" d="M3688.24,832.8 C3733.1,775.22 3861.62,610.26 3912.45,545.02 " fill="none" id="Receptionist-ClinicalAnalysisLaboratory" style="stroke:#A80036;stroke-width:1.0;"/><polygon fill="#000000" points="3760.073,662.2316,3752.1956,667.5605,3756.8323,671.173,3760.073,662.2316" style="stroke:#000000;stroke-width:1.0;"/><text fill="#000000" font-family="sans-serif" font-size="13" lengthAdjust="spacing" textLength="49" x="3766" y="671.4951">works at</text><text fill="#000000" font-family="sans-serif" font-size="13" lengthAdjust="spacing" textLength="20" x="3670.2199" y="822.063">1..*</text><text fill="#000000" font-family="sans-serif" font-size="13" lengthAdjust="spacing" textLength="5" x="3902.0797" y="566.2321">*</text><!--MD5=[4d5641458326529fdf5c82259a5ad32d]
link LaboratoryCoordinator to Laboratory--><path codeLine="53" d="M987.36,456.97 C1040.45,438.26 1118.57,410.74 1167.17,393.62 " fill="none" id="LaboratoryCoordinator-Laboratory" style="stroke:#A80036;stroke-width:1.0;"/><polygon fill="#000000" points="1047.2159,401.5143,1037.7082,401.748,1039.6614,407.2919,1047.2159,401.5143" style="stroke:#000000;stroke-width:1.0;"/><text fill="#000000" font-family="sans-serif" font-size="13" lengthAdjust="spacing" textLength="60" x="1051.5" y="408.4951">works at a</text><text fill="#000000" font-family="sans-serif" font-size="13" lengthAdjust="spacing" textLength="20" x="981.4189" y="446.2829">1..*</text><text fill="#000000" font-family="sans-serif" font-size="13" lengthAdjust="spacing" textLength="5" x="1154.5471" y="410.8802">*</text><!--MD5=[de3aa179ee7f21b344f648244b25a961]
link ChemicalLaboratory to Company--><path codeLine="55" d="M1449.86,186.96 C1310.67,170.6 994.79,150.71 768,267 C639.05,333.12 625.82,387.13 554,513 C518.33,575.52 497.12,658.52 487.92,700.78 " fill="none" id="ChemicalLaboratory-Company" style="stroke:#A80036;stroke-width:1.0;"/><polygon fill="#000000" points="916.4103,180.82,907.0473,182.4893,909.8167,187.6739,916.4103,180.82" style="stroke:#000000;stroke-width:1.0;"/><text fill="#000000" font-family="sans-serif" font-size="13" lengthAdjust="spacing" textLength="30" x="921" y="188.4951">owns</text><text fill="#000000" font-family="sans-serif" font-size="13" lengthAdjust="spacing" textLength="7" x="1435.1112" y="200.2629">1</text><text fill="#000000" font-family="sans-serif" font-size="13" lengthAdjust="spacing" textLength="7" x="481.5953" y="690.1901">1</text><!--MD5=[47855ee4dabeea37c5949a17ed9e3a41]
link ChemicalLaboratory to Sample--><path codeLine="57" d="M1593.35,178.44 C1645.73,164.72 1714.94,146.58 1756.74,135.63 " fill="none" id="ChemicalLaboratory-Sample" style="stroke:#A80036;stroke-width:1.0;"/><polygon fill="#000000" points="1626.6633,142.4431,1636.1579,142.9935,1634.6681,137.3076,1626.6633,142.4431" style="stroke:#000000;stroke-width:1.0;"/><text fill="#000000" font-family="sans-serif" font-size="13" lengthAdjust="spacing" textLength="54" x="1640.5" y="146.4951">is sent to</text><text fill="#000000" font-family="sans-serif" font-size="13" lengthAdjust="spacing" textLength="7" x="1601.1205" y="190.8642">1</text><text fill="#000000" font-family="sans-serif" font-size="13" lengthAdjust="spacing" textLength="5" x="1744.0654" y="152.535">*</text><!--MD5=[fdfe1f7a1d4f9a6f0814f21c5f7b0d38]
link ClinicalAnalysisLaboratory to Company--><path codeLine="59" d="M3928.38,545.31 C3907.88,645.9 3821.38,996.56 3591,1127 C3274.08,1306.44 3138.19,1064 2774,1064 C1921.5,1064 1921.5,1064 1921.5,1064 C1673.04,1064 1615.46,993 1367,993 C693.5,993 693.5,993 693.5,993 C572.94,993 510.16,823.07 489.93,755.36 " fill="none" id="ClinicalAnalysisLaboratory-Company" style="stroke:#A80036;stroke-width:1.0;"/><polygon fill="#000000" points="2209.9907,1054.8709,2200.7832,1052.489,2201.1416,1058.3559,2209.9907,1054.8709" style="stroke:#000000;stroke-width:1.0;"/><text fill="#000000" font-family="sans-serif" font-size="13" lengthAdjust="spacing" textLength="30" x="2214" y="1060.4951">owns</text><text fill="#000000" font-family="sans-serif" font-size="13" lengthAdjust="spacing" textLength="5" x="3921.6021" y="566.141">*</text><text fill="#000000" font-family="sans-serif" font-size="13" lengthAdjust="spacing" textLength="7" x="483.9468" y="776.2013">1</text><!--MD5=[38773adfcb560b2ecbe80133f36e08b9]
reverse link Laboratory to ChemicalLaboratory--><path codeLine="61" d="M1275.16,341.65 C1338.62,304.23 1435.18,247.3 1486.17,217.24 " fill="none" id="Laboratory-backto-ChemicalLaboratory" style="stroke:#A80036;stroke-width:1.0;"/><polygon fill="none" points="1278.6,347.75,1257.81,351.87,1271.49,335.69,1278.6,347.75" style="stroke:#A80036;stroke-width:1.0;"/><text fill="#000000" font-family="sans-serif" font-size="13" lengthAdjust="spacing" textLength="7" x="1265.5891" y="362.4763">1</text><text fill="#000000" font-family="sans-serif" font-size="13" lengthAdjust="spacing" textLength="7" x="1468.7344" y="238.3719">1</text><!--MD5=[e284e91db30362f23fd6ce34ffcc83e7]
reverse link Laboratory to ClinicalAnalysisLaboratory--><path codeLine="63" d="M1277.61,368.07 C1339.6,359.33 1436.24,348 1520.5,348 C1520.5,348 1520.5,348 3672.5,348 C3775.79,348 3870.24,442.63 3911.54,490.69 " fill="none" id="Laboratory-backto-ClinicalAnalysisLaboratory" style="stroke:#A80036;stroke-width:1.0;"/><polygon fill="none" points="1278.4,375.03,1257.6,370.97,1276.39,361.17,1278.4,375.03" style="stroke:#A80036;stroke-width:1.0;"/><text fill="#000000" font-family="sans-serif" font-size="13" lengthAdjust="spacing" textLength="7" x="1265.6494" y="384.6264">1</text><text fill="#000000" font-family="sans-serif" font-size="13" lengthAdjust="spacing" textLength="7" x="3898.4211" y="480.0793">1</text><!--MD5=[7144ffdeebbe38808f7fb2ce8ac24f7d]
link Administrator to ParameterCategory--><path codeLine="65" d="M982.04,773.78 C1027.2,770.09 1093.18,764.68 1142.81,760.62 " fill="none" id="Administrator-ParameterCategory" style="stroke:#A80036;stroke-width:1.0;"/><polygon fill="#000000" points="1037.0167,754.5837,1046.2714,756.7749,1045.7918,750.9166,1037.0167,754.5837" style="stroke:#000000;stroke-width:1.0;"/><text fill="#000000" font-family="sans-serif" font-size="13" lengthAdjust="spacing" textLength="61" x="1051" y="759.4951">created by</text><text fill="#000000" font-family="sans-serif" font-size="13" lengthAdjust="spacing" textLength="5" x="990.124" y="787.8561">*</text><text fill="#000000" font-family="sans-serif" font-size="13" lengthAdjust="spacing" textLength="5" x="1129.9142" y="775.6509">*</text><!--MD5=[49f9c994ab9013da19f25c37bbd596b3]
link SpecialistDoctor to Result--><path codeLine="67" d="M2698.08,611.17 C2733.3,619.35 2778.5,630.64 2818,643 C2828.01,646.13 2838.74,649.99 2848.47,653.68 " fill="none" id="SpecialistDoctor-Result" style="stroke:#A80036;stroke-width:1.0;"/><polygon fill="#000000" points="2730.6885,607.8157,2738.5932,613.1042,2740.192,607.448,2730.6885,607.8157" style="stroke:#000000;stroke-width:1.0;"/><text fill="#000000" font-family="sans-serif" font-size="13" lengthAdjust="spacing" textLength="70" x="2744.5" y="614.4951">analyzed by</text><text fill="#000000" font-family="sans-serif" font-size="13" lengthAdjust="spacing" textLength="7" x="2705.9507" y="627.2766">1</text><text fill="#000000" font-family="sans-serif" font-size="13" lengthAdjust="spacing" textLength="7" x="2833.7294" y="646.8141">1</text><!--MD5=[98994e1502641fa381021dffe882d56a]
link ClinicalChemistryTechnologist to Sample--><path codeLine="69" d="M3168.29,211.95 C3116.34,175.03 2996.86,100 2883.5,100 C2061.5,100 2061.5,100 2061.5,100 C1979.37,100 1883.65,112.43 1832.4,120.1 " fill="none" id="ClinicalChemistryTechnologist-Sample" style="stroke:#A80036;stroke-width:1.0;"/><polygon fill="#000000" points="2470.9882,91.5187,2462.166,87.9663,2461.7629,93.8303,2470.9882,91.5187" style="stroke:#000000;stroke-width:1.0;"/><text fill="#000000" font-family="sans-serif" font-size="13" lengthAdjust="spacing" textLength="70" x="2475" y="96.4951">analyzed by</text><text fill="#000000" font-family="sans-serif" font-size="13" lengthAdjust="spacing" textLength="5" x="3154.4158" y="201.2571">*</text><text fill="#000000" font-family="sans-serif" font-size="13" lengthAdjust="spacing" textLength="20" x="1840.0341" y="133.9709">1..*</text><!--MD5=[502b51bc079239060389dab43b7d3470]
link Client to Test--><path codeLine="71" d="M3412.99,858.27 C3307.78,871.49 3017.13,905 2774,905 C2367,905 2367,905 2367,905 C2254.12,905 2161.47,800.26 2109.36,724.77 " fill="none" id="Client-Test" style="stroke:#A80036;stroke-width:1.0;"/><polygon fill="#000000" points="2737.974,896.6851,2729.2754,892.8401,2728.6766,898.6873,2737.974,896.6851" style="stroke:#000000;stroke-width:1.0;"/><text fill="#000000" font-family="sans-serif" font-size="13" lengthAdjust="spacing" textLength="75" x="2742" y="901.4951">requested by</text><text fill="#000000" font-family="sans-serif" font-size="13" lengthAdjust="spacing" textLength="7" x="3397.9726" y="874.188">1</text><text fill="#000000" font-family="sans-serif" font-size="13" lengthAdjust="spacing" textLength="5" x="2108.3108" y="745.7555">*</text><!--MD5=[7048eb257bae2750d747ca61a113ed73]
link Client to Receptionist--><path codeLine="73" d="M3496.19,853 C3531.62,853 3583.08,853 3620.91,853 " fill="none" id="Client-Receptionist" style="stroke:#A80036;stroke-width:1.0;"/><polygon fill="#000000" points="3526,844.1758,3535.0451,847.1147,3535.0451,841.2369,3526,844.1758" style="stroke:#000000;stroke-width:1.0;"/><text fill="#000000" font-family="sans-serif" font-size="13" lengthAdjust="spacing" textLength="50" x="3540" y="849.4951">registers</text><text fill="#000000" font-family="sans-serif" font-size="13" lengthAdjust="spacing" textLength="5" x="3504.0613" y="867.9793">*</text><text fill="#000000" font-family="sans-serif" font-size="13" lengthAdjust="spacing" textLength="20" x="3593.1469" y="867.5426">1..*</text><!--MD5=[b097d9d314264888b7dbeddc95343863]
link LabOrder to Client--><path codeLine="75" d="M65.41,1013.04 C97.43,1052.19 175.4,1135 262,1135 C262,1135 262,1135 2774,1135 C3034.24,1135 3310.66,956.37 3412.66,883.45 " fill="none" id="LabOrder-Client" style="stroke:#A80036;stroke-width:1.0;"/><polygon fill="#000000" points="1632.9963,1125.9823,1623.8442,1123.3955,1624.0716,1129.269,1632.9963,1125.9823" style="stroke:#000000;stroke-width:1.0;"/><text fill="#000000" font-family="sans-serif" font-size="13" lengthAdjust="spacing" textLength="61" x="1637" y="1131.4951">brought by</text><text fill="#000000" font-family="sans-serif" font-size="13" lengthAdjust="spacing" textLength="7" x="62.0409" y="1034.4708">1</text><text fill="#000000" font-family="sans-serif" font-size="13" lengthAdjust="spacing" textLength="5" x="3400.0391" y="903.6108">*</text><!--MD5=[727b58dfd932e2fbda2a273f174e2308]
link LabOrder to Receptionist--><path codeLine="77" d="M57.31,1013.44 C67.9,1040.81 89.73,1089.65 121,1122 C171.69,1174.45 189.06,1206 262,1206 C262,1206 262,1206 2774,1206 C3109.46,1206 3181.58,1102.92 3496,986 C3539.27,969.91 3553.82,971.37 3591,944 C3618.2,923.98 3642.63,893.15 3657.02,873.02 " fill="none" id="LabOrder-Receptionist" style="stroke:#A80036;stroke-width:1.0;"/><polygon fill="#000000" points="1763.5038,1197.3707,1772.6566,1199.9548,1772.4275,1194.0814,1763.5038,1197.3707" style="stroke:#000000;stroke-width:1.0;"/><text fill="#000000" font-family="sans-serif" font-size="13" lengthAdjust="spacing" textLength="47" x="1777.5" y="1202.4951">receives</text><text fill="#000000" font-family="sans-serif" font-size="13" lengthAdjust="spacing" textLength="7" x="51.6027" y="1034.6256">1</text><text fill="#000000" font-family="sans-serif" font-size="13" lengthAdjust="spacing" textLength="20" x="3655.76" y="894.4452">1..*</text><!--MD5=[84a279e28ad6c3248737114c29c49c27]
link LabOrder to Test--><path codeLine="79" d="M50.06,972.78 C51.02,835.54 65.09,46 262,46 C262,46 262,46 1662,46 C1751.44,46 1789.84,26.53 1860,82 C2012.94,202.92 2049.98,448.87 2058.82,573.29 " fill="none" id="LabOrder-Test" style="stroke:#A80036;stroke-width:1.0;"/><polygon fill="#000000" points="883.596,38.1511,893.0406,39.2692,891.8941,33.5043,883.596,38.1511" style="stroke:#000000;stroke-width:1.0;"/><text fill="#000000" font-family="sans-serif" font-size="13" lengthAdjust="spacing" textLength="77" x="897.5" y="42.4951">is associated</text><text fill="#000000" font-family="sans-serif" font-size="13" lengthAdjust="spacing" textLength="7" x="42.3433" y="962.0371">1</text><text fill="#000000" font-family="sans-serif" font-size="13" lengthAdjust="spacing" textLength="7" x="2051.1132" y="562.5776">1</text><!--MD5=[fba3ac294f3c76c431d275cef443fef8]
link LabOrder to TestType--><path codeLine="81" d="M89.88,972.87 C125.38,954.95 177.36,928.72 214.9,909.77 " fill="none" id="LabOrder-TestType" style="stroke:#A80036;stroke-width:1.0;"/><polygon fill="#000000" points="130.4637,914.9229,121.0646,916.3747,123.713,921.6221,130.4637,914.9229" style="stroke:#000000;stroke-width:1.0;"/><text fill="#000000" font-family="sans-serif" font-size="13" lengthAdjust="spacing" textLength="49" x="135" y="922.4951">contains</text><text fill="#000000" font-family="sans-serif" font-size="13" lengthAdjust="spacing" textLength="7" x="93.8604" y="962.1536">1</text><text fill="#000000" font-family="sans-serif" font-size="13" lengthAdjust="spacing" textLength="7" x="199.9988" y="928.1945">1</text><!--MD5=[8a0bab72ab0281f8a9e78a6f98e5652c]
link Result to ClinicalChemistryTechnologist--><path codeLine="83" d="M2888.36,646.98 C2896.87,614.29 2916.52,548.16 2947,499 C3012.17,393.88 3122.43,293.6 3170.91,252.07 " fill="none" id="Result-ClinicalChemistryTechnologist" style="stroke:#A80036;stroke-width:1.0;"/><polygon fill="#000000" points="2976.0906,347.2422,2983.7439,341.5961,2978.9636,338.1759,2976.0906,347.2422" style="stroke:#000000;stroke-width:1.0;"/><text fill="#000000" font-family="sans-serif" font-size="13" lengthAdjust="spacing" textLength="50" x="2988" y="348.4951">registers</text><text fill="#000000" font-family="sans-serif" font-size="13" lengthAdjust="spacing" textLength="5" x="2884.347" y="636.2959">*</text><text fill="#000000" font-family="sans-serif" font-size="13" lengthAdjust="spacing" textLength="20" x="3141.0409" y="273.5092">1..*</text><!--MD5=[d14b4c18c397fa0293924715644730ec]
link Result to Notification--><path codeLine="85" d="M2916.54,670.61 C2972.44,676.71 3085.77,689.08 3149.26,696.01 " fill="none" id="Result-Notification" style="stroke:#A80036;stroke-width:1.0;"/><polygon fill="#000000" points="2956.9705,665.7183,2948.2977,661.8153,2947.6599,667.6585,2956.9705,665.7183" style="stroke:#000000;stroke-width:1.0;"/><text fill="#000000" font-family="sans-serif" font-size="13" lengthAdjust="spacing" textLength="104" x="2961" y="670.4951">is associated with</text><text fill="#000000" font-family="sans-serif" font-size="13" lengthAdjust="spacing" textLength="5" x="2924.5331" y="686.6833">*</text><text fill="#000000" font-family="sans-serif" font-size="13" lengthAdjust="spacing" textLength="20" x="3121.6356" y="709.9332">1..*</text><!--MD5=[e509fed78cd7f855333fe9c80fc7ea15]
link DiagnosisReport to SpecialistDoctor--><path codeLine="87" d="M2431.26,601.07 C2474.87,600.41 2532.82,599.55 2575.94,598.9 " fill="none" id="DiagnosisReport-SpecialistDoctor" style="stroke:#A80036;stroke-width:1.0;"/><polygon fill="#000000" points="2471.0006,590.2508,2480.0887,593.0537,2480.0006,587.1765,2471.0006,590.2508" style="stroke:#000000;stroke-width:1.0;"/><text fill="#000000" font-family="sans-serif" font-size="13" lengthAdjust="spacing" textLength="50" x="2485" y="595.4951">registers</text><text fill="#000000" font-family="sans-serif" font-size="13" lengthAdjust="spacing" textLength="7" x="2438.9791" y="615.4029">1</text><text fill="#000000" font-family="sans-serif" font-size="13" lengthAdjust="spacing" textLength="7" x="2561.0718" y="613.5112">1</text><!--MD5=[91dc3644f358c08f88b60791b947d3a3]
link DiagnosisReport to Client--><path codeLine="89" d="M2383.63,622.16 C2414.13,662.36 2488.93,751.8 2576,789 C2729.64,854.64 3261.42,854.83 3412.93,853.5 " fill="none" id="DiagnosisReport-Client" style="stroke:#A80036;stroke-width:1.0;"/><polygon fill="#000000" points="2857.8783,829.2722,2849.6978,824.4214,2848.4089,830.1562,2857.8783,829.2722" style="stroke:#000000;stroke-width:1.0;"/><text fill="#000000" font-family="sans-serif" font-size="13" lengthAdjust="spacing" textLength="54" x="2862" y="833.4951">is sent to</text><text fill="#000000" font-family="sans-serif" font-size="13" lengthAdjust="spacing" textLength="7" x="2380.0416" y="643.6246">1</text><text fill="#000000" font-family="sans-serif" font-size="13" lengthAdjust="spacing" textLength="7" x="3397.9019" y="849.7183">1</text><!--MD5=[e83232b12920152899b3d956169a0d16]
link DiagnosisReport to LaboratoryCoordinator--><path codeLine="91" d="M2304.92,583.72 C2182.9,549.45 1902.72,479 1662,479 C1211.5,479 1211.5,479 1211.5,479 C1142.35,479 1063.62,478.39 1007.13,477.84 " fill="none" id="DiagnosisReport-LaboratoryCoordinator" style="stroke:#A80036;stroke-width:1.0;"/><polygon fill="#000000" points="1638.4834,470.5824,1629.7073,466.9177,1629.2293,472.7761,1638.4834,470.5824" style="stroke:#000000;stroke-width:1.0;"/><text fill="#000000" font-family="sans-serif" font-size="13" lengthAdjust="spacing" textLength="50" x="1642.5" y="475.4951">validates</text><text fill="#000000" font-family="sans-serif" font-size="13" lengthAdjust="spacing" textLength="5" x="2291.9274" y="595.9837">*</text><text fill="#000000" font-family="sans-serif" font-size="13" lengthAdjust="spacing" textLength="7" x="1015.1162" y="492.2226">1</text><!--MD5=[b25b37dde2866fd853924cb818679535]
link NHSReport to Result--><path codeLine="93" d="M2684.66,745.68 C2721.93,740.25 2774.89,729.86 2818,711 C2831.89,704.93 2845.89,695.64 2857.19,687.16 " fill="none" id="NHSReport-Result" style="stroke:#A80036;stroke-width:1.0;"/><polygon fill="#000000" points="2737.265,703.7818,2746.7747,703.6596,2744.8867,698.0933,2737.265,703.7818" style="stroke:#000000;stroke-width:1.0;"/><text fill="#000000" font-family="sans-serif" font-size="13" lengthAdjust="spacing" textLength="57" x="2751" y="707.4951">generates</text><text fill="#000000" font-family="sans-serif" font-size="13" lengthAdjust="spacing" textLength="20" x="2692.4081" y="759.5589">1..*</text><text fill="#000000" font-family="sans-serif" font-size="13" lengthAdjust="spacing" textLength="7" x="2842.0872" y="708.6246">1</text><!--MD5=[5853f8747c18e89b10dd024359cfe8ec]
link NHSReport to NHS--><path codeLine="95" d="M2684.56,762.93 C2721.1,770.54 2773.11,777.52 2818,769 C2829.99,766.72 2842.61,762.23 2853.41,757.68 " fill="none" id="NHSReport-NHS" style="stroke:#A80036;stroke-width:1.0;"/><polygon fill="#000000" points="2748.4976,760.0204,2739.3655,757.364,2739.5482,763.239,2748.4976,760.0204" style="stroke:#000000;stroke-width:1.0;"/><text fill="#000000" font-family="sans-serif" font-size="13" lengthAdjust="spacing" textLength="54" x="2752.5" y="765.4951">is sent to</text><text fill="#000000" font-family="sans-serif" font-size="13" lengthAdjust="spacing" textLength="20" x="2692.6544" y="779.2525">1..*</text><text fill="#000000" font-family="sans-serif" font-size="13" lengthAdjust="spacing" textLength="7" x="2838.4662" y="776.5025">1</text><!--MD5=[7a9e3e328fb1db48284e23a673c1e60d]
link ParameterCategory to Parameter--><path codeLine="97" d="M1282.01,755 C1341.39,755 1425.54,755 1476.38,755 " fill="none" id="ParameterCategory-Parameter" style="stroke:#A80036;stroke-width:1.0;"/><polygon fill="#000000" points="1312,746.1758,1321.0451,749.1147,1321.0451,743.2369,1312,746.1758" style="stroke:#000000;stroke-width:1.0;"/><text fill="#000000" font-family="sans-serif" font-size="13" lengthAdjust="spacing" textLength="93" x="1326" y="751.4951">presented under</text><text fill="#000000" font-family="sans-serif" font-size="13" lengthAdjust="spacing" textLength="7" x="1289.9955" y="769.4163">1</text><text fill="#000000" font-family="sans-serif" font-size="13" lengthAdjust="spacing" textLength="5" x="1463.4929" y="751.24">*</text><!--MD5=[4265453a012991a726928e22789b8a83]
link Parameter to Test--><path codeLine="99" d="M1566.61,746.33 C1659.76,728.01 1877.24,685.24 1990.34,662.99 " fill="none" id="Parameter-Test" style="stroke:#A80036;stroke-width:1.0;"/><polygon fill="#000000" points="1729.094,681.1407,1738.5362,682.2788,1737.4019,676.5115,1729.094,681.1407" style="stroke:#000000;stroke-width:1.0;"/><text fill="#000000" font-family="sans-serif" font-size="13" lengthAdjust="spacing" textLength="116" x="1743" y="685.4951">requests analysis of</text><text fill="#000000" font-family="sans-serif" font-size="13" lengthAdjust="spacing" textLength="20" x="1574.3598" y="759.7902">1..*</text><text fill="#000000" font-family="sans-serif" font-size="13" lengthAdjust="spacing" textLength="5" x="1977.6407" y="678.7871">*</text><!--MD5=[6d9eb9a083ac0654c8b63743033752d3]
link TestType to Company--><path codeLine="101" d="M311.29,847.78 C321.03,840.13 331.28,832.22 341,825 C373.8,800.64 411.94,774.25 440.04,755.15 " fill="none" id="TestType-Company" style="stroke:#A80036;stroke-width:1.0;"/><polygon fill="#000000" points="341.9413,772.0959,350.9999,769.199,347.5672,764.4277,341.9413,772.0959" style="stroke:#000000;stroke-width:1.0;"/><text fill="#000000" font-family="sans-serif" font-size="13" lengthAdjust="spacing" textLength="53" x="355" y="774.4951">conducts</text><text fill="#000000" font-family="sans-serif" font-size="13" lengthAdjust="spacing" textLength="5" x="319.0672" y="856.7123">*</text><text fill="#000000" font-family="sans-serif" font-size="13" lengthAdjust="spacing" textLength="7" x="423.767" y="775.948">1</text><!--MD5=[c2c6b28b052a3fe86d789b83a09b2815]
link TestType to Test--><path codeLine="103" d="M289.12,927.28 C324.64,979.87 394.86,1064 480.5,1064 C480.5,1064 480.5,1064 1367,1064 C1628.61,1064 1877.16,844.34 1993.19,724.63 " fill="none" id="TestType-Test" style="stroke:#A80036;stroke-width:1.0;"/><polygon fill="#000000" points="1055.535,1055.7662,1064.8638,1057.6165,1064.1697,1051.7797,1055.535,1055.7662" style="stroke:#000000;stroke-width:1.0;"/><text fill="#000000" font-family="sans-serif" font-size="13" lengthAdjust="spacing" textLength="24" x="1069.5" y="1060.4951">is of</text><text fill="#000000" font-family="sans-serif" font-size="13" lengthAdjust="spacing" textLength="7" x="285.4423" y="948.0751">1</text><text fill="#000000" font-family="sans-serif" font-size="13" lengthAdjust="spacing" textLength="5" x="1981.7944" y="745.603">*</text><!--MD5=[0985ee834cc881275852ed47ce1e01f6]
link TestType to Administrator--><path codeLine="105" d="M311.26,878.32 C432.08,858.68 751.57,806.76 876.96,786.38 " fill="none" id="TestType-Administrator" style="stroke:#A80036;stroke-width:1.0;"/><polygon fill="#000000" points="558.5648,819.9779,567.9642,821.4277,567.0212,815.626,558.5648,819.9779" style="stroke:#000000;stroke-width:1.0;"/><text fill="#000000" font-family="sans-serif" font-size="13" lengthAdjust="spacing" textLength="43" x="572.5" y="824.4951">creates</text><text fill="#000000" font-family="sans-serif" font-size="13" lengthAdjust="spacing" textLength="5" x="319.0326" y="891.9287">*</text><text fill="#000000" font-family="sans-serif" font-size="13" lengthAdjust="spacing" textLength="7" x="862.0794" y="802.2033">1</text><!--MD5=[9163865a413f55935f47e026f9eaa033]
link Test to Result--><path codeLine="107" d="M2134.66,650.57 C2304.13,654.3 2726.55,663.59 2848.22,666.27 " fill="none" id="Test-Result" style="stroke:#A80036;stroke-width:1.0;"/><polygon fill="#000000" points="2489.9988,648.2858,2481.0205,645.1486,2480.8912,651.025,2489.9988,648.2858" style="stroke:#000000;stroke-width:1.0;"/><text fill="#000000" font-family="sans-serif" font-size="13" lengthAdjust="spacing" textLength="32" x="2494" y="653.4951">has a</text><text fill="#000000" font-family="sans-serif" font-size="13" lengthAdjust="spacing" textLength="7" x="2142.4624" y="665.0863">1</text><text fill="#000000" font-family="sans-serif" font-size="13" lengthAdjust="spacing" textLength="7" x="2833.4279" y="681.3008">1</text><!--MD5=[150ee6e4dbb30ab82336f9e174f6c4ed]
link Test to Company--><path codeLine="109" d="M1990.31,637.41 C1936.86,629.71 1861.79,621 1795.5,621 C693.5,621 693.5,621 693.5,621 C622.85,621 551.89,669.3 512.93,701 " fill="none" id="Test-Company" style="stroke:#A80036;stroke-width:1.0;"/><polygon fill="#000000" points="1189.9954,611.9608,1180.8323,609.4135,1181.085,615.2859,1189.9954,611.9608" style="stroke:#000000;stroke-width:1.0;"/><text fill="#000000" font-family="sans-serif" font-size="13" lengthAdjust="spacing" textLength="50" x="1194" y="617.4951">performs</text><text fill="#000000" font-family="sans-serif" font-size="13" lengthAdjust="spacing" textLength="5" x="1977.6076" y="650.5691">*</text><text fill="#000000" font-family="sans-serif" font-size="13" lengthAdjust="spacing" textLength="7" x="512.7379" y="690.0267">1</text><!--MD5=[ca29482912e344ebd5dc9db2d1c2ccab]
link Test to ClinicalAnalysisLaboratory--><path codeLine="111" d="M2134.57,606.42 C2146.15,600.63 2158.21,595.23 2170,591 C2320.42,537.03 2655.17,518 2772,518 C2772,518 2772,518 3672.5,518 C3730.27,518 3795.24,518 3845.9,518 " fill="none" id="Test-ClinicalAnalysisLaboratory" style="stroke:#A80036;stroke-width:1.0;"/><polygon fill="#000000" points="2974.0067,509.4338,2983.1913,511.9021,2982.8881,506.032,2974.0067,509.4338" style="stroke:#000000;stroke-width:1.0;"/><text fill="#000000" font-family="sans-serif" font-size="13" lengthAdjust="spacing" textLength="50" x="2988" y="514.4951">performs</text><text fill="#000000" font-family="sans-serif" font-size="13" lengthAdjust="spacing" textLength="5" x="2142.7261" y="616.1692">*</text><text fill="#000000" font-family="sans-serif" font-size="13" lengthAdjust="spacing" textLength="5" x="3833.0711" y="532.2048">*</text><!--MD5=[10af4306acabee641eea198ac06587b8]
link Test to Receptionist--><path codeLine="113" d="M2082.29,724.67 C2098.3,775.71 2125.88,841.61 2170,886 C2237.85,954.28 2270.74,976 2367,976 C2367,976 2367,976 2774,976 C3044.7,976 3116.03,1029.77 3383,985 C3484.02,968.06 3590.44,905.74 3640.77,873.16 " fill="none" id="Test-Receptionist" style="stroke:#A80036;stroke-width:1.0;"/><polygon fill="#000000" points="2850.0225,967.7015,2858.7481,971.4851,2859.3056,965.6338,2850.0225,967.7015" style="stroke:#000000;stroke-width:1.0;"/><text fill="#000000" font-family="sans-serif" font-size="13" lengthAdjust="spacing" textLength="50" x="2864" y="973.4951">registers</text><text fill="#000000" font-family="sans-serif" font-size="13" lengthAdjust="spacing" textLength="5" x="2078.8299" y="745.6465">*</text><text fill="#000000" font-family="sans-serif" font-size="13" lengthAdjust="spacing" textLength="20" x="3609.3147" y="894.6246">1..*</text><!--MD5=[5fda545c79585d17c4a435a79f76ac33]
link Test to DiagnosisReport--><path codeLine="115" d="M2134.66,637.98 C2186.26,629.99 2255.37,619.29 2304.77,611.64 " fill="none" id="Test-DiagnosisReport" style="stroke:#A80036;stroke-width:1.0;"/><polygon fill="#000000" points="2170.0589,608.9409,2179.4472,610.4611,2178.5477,604.6525,2170.0589,608.9409" style="stroke:#000000;stroke-width:1.0;"/><text fill="#000000" font-family="sans-serif" font-size="13" lengthAdjust="spacing" textLength="90" x="2184" y="613.4951">associated with</text><text fill="#000000" font-family="sans-serif" font-size="13" lengthAdjust="spacing" textLength="7" x="2142.4624" y="637.9604">1</text><text fill="#000000" font-family="sans-serif" font-size="13" lengthAdjust="spacing" textLength="7" x="2290.0543" y="627.1951">1</text><!--MD5=[1ae83efc6d1967ce5bc17dfe294d00c2]
link Sample to Test--><path codeLine="117" d="M1809.24,153.02 C1848.55,230.31 1962.5,454.36 2022.89,573.09 " fill="none" id="Sample-Test" style="stroke:#A80036;stroke-width:1.0;"/><polygon fill="#000000" points="1895.2333,311.7191,1896.7142,321.1137,1901.9534,318.449,1895.2333,311.7191" style="stroke:#000000;stroke-width:1.0;"/><text fill="#000000" font-family="sans-serif" font-size="13" lengthAdjust="spacing" textLength="45" x="1906.5" y="321.4951">collects</text><text fill="#000000" font-family="sans-serif" font-size="13" lengthAdjust="spacing" textLength="5" x="1806.9175" y="174.2321">*</text><text fill="#000000" font-family="sans-serif" font-size="13" lengthAdjust="spacing" textLength="7" x="2011.7811" y="562.6191">1</text><!--MD5=[cb5e86f6614a99551e1d9ce6f0ae5849]
link Sample to MedicalLabTechnician--><path codeLine="119" d="M1832.21,103.16 C1849.31,93.21 1870.22,82.02 1890,74 C1920.18,61.76 1954.61,51.63 1984.67,43.94 " fill="none" id="Sample-MedicalLabTechnician" style="stroke:#A80036;stroke-width:1.0;"/><polygon fill="#000000" points="1890.3393,44.9862,1899.8347,44.4507,1897.7065,38.9716,1890.3393,44.9862" style="stroke:#000000;stroke-width:1.0;"/><text fill="#000000" font-family="sans-serif" font-size="13" lengthAdjust="spacing" textLength="50" x="1904" y="48.4951">registers</text><text fill="#000000" font-family="sans-serif" font-size="13" lengthAdjust="spacing" textLength="20" x="1840.112" y="114.2399">1..*</text><text fill="#000000" font-family="sans-serif" font-size="13" lengthAdjust="spacing" textLength="20" x="1957.1221" y="59.5935">1..*</text><!--MD5=[c1a9c7f16ec55f9c4038f73c31b8becd]
link Notification to Client--><path codeLine="121" d="M3242.81,719.04 C3281.64,735.29 3338.02,761.14 3383,791 C3393.18,797.76 3403.45,805.88 3412.88,813.99 " fill="none" id="Notification-Client" style="stroke:#A80036;stroke-width:1.0;"/><polygon fill="#000000" points="3335.3657,752.6131,3328.9007,745.6378,3326.0354,750.77,3335.3657,752.6131" style="stroke:#000000;stroke-width:1.0;"/><text fill="#000000" font-family="sans-serif" font-size="13" lengthAdjust="spacing" textLength="42" x="3340" y="755.4951">informs</text><text fill="#000000" font-family="sans-serif" font-size="13" lengthAdjust="spacing" textLength="20" x="3250.4438" y="736.0579">1..*</text><text fill="#000000" font-family="sans-serif" font-size="13" lengthAdjust="spacing" textLength="5" x="3400.0211" y="822.0206">*</text><!--MD5=[f812b22f13138bc0561e280f102a9c73]
@startuml
hide methods
skinparam classAttributeIconSize 0
left to right direction

class Company
class Laboratory
class ChemicalLaboratory
class ClinicalAnalysisLaboratory
class LaboratoryCoordinator
class Employee
class Administrator
class SpecialistDoctor
class ClinicalChemistryTechnologist
class MedicalLabTechnician
class Receptionist
class Client
class LabOrder
class Result
class DiagnosisReport
class NHSReport
class ParameterCategory
class Parameter
class TestType
class Test
class Notification
class NHS
class Sample

Company "1" - - "*" Parameter : > capable of analysing

Company "1" - - "*" Employee : < works for

Company "1" - - "*" ParameterCategory : > adopts

Company "1" - - "*" Administrator : > knows

Employee "*" <|- - "*" Administrator

Employee "*" <|- - "*" ClinicalChemistryTechnologist

Employee "*" <|- - "1..*" Receptionist

Employee "*" <|- - "*" MedicalLabTechnician

Employee "*" <|- - "1..*" LaboratoryCoordinator

ClinicalChemistryTechnologist "*" - - "1" ChemicalLaboratory : > works at

MedicalLabTechnician "1..*" - - "*" ClinicalAnalysisLaboratory : > works at

Receptionist "1..*" - - "*" ClinicalAnalysisLaboratory : > works at

LaboratoryCoordinator "1..*" - - "*" Laboratory: > works at a

ChemicalLaboratory "1" - - "1" Company : < owns

ChemicalLaboratory "1" - - "*" Sample : < is sent to

ClinicalAnalysisLaboratory "*" - - "1" Company : < owns

Laboratory "1"  <|- - "1" ChemicalLaboratory

Laboratory "1"  <|- - "1" ClinicalAnalysisLaboratory

Administrator "*" - - "*" ParameterCategory : < created by

SpecialistDoctor "1" - - "1" Result : < analyzed by

ClinicalChemistryTechnologist "*" - - "1..*" Sample : < analyzed by

Client "1" - - "*" Test : < requested by

Client "*" - - "1..*" Receptionist : < registers

LabOrder "1" - - "*" Client : > brought by

LabOrder "1" - - "1..*" Receptionist : < receives

LabOrder "1" - - "1" Test : < is associated

LabOrder "1" - - "1" TestType : > contains

Result "*" - - "1..*" ClinicalChemistryTechnologist : < registers

Result "*" - - "1..*" Notification : > is associated with

DiagnosisReport "1" - - "1" SpecialistDoctor : < registers

DiagnosisReport "1" - - "1" Client : > is sent to

DiagnosisReport "*" - - "1" LaboratoryCoordinator : < validates

NHSReport "1..*" - - "1" Result : < generates

NHSReport "1..*" - - "1" NHS : > is sent to

ParameterCategory "1" - - "*" Parameter : < presented under

Parameter "1..*" - - "*" Test : < requests analysis of

TestType "*" - - "1" Company : < conducts

TestType "1" - - "*" Test: < is of

TestType "*" - - "1" Administrator : < creates

Test "1" - - "1" Result : > has a

Test "*" - - "1" Company : < performs

Test "*" - - "*" ClinicalAnalysisLaboratory : < performs

Test "*" - - "1..*" Receptionist : < registers

Test "1" - - "1" DiagnosisReport : < associated with

Sample "*" - - "1" Test : < collects

Sample "1..*" - - "1..*" MedicalLabTechnician : < registers

Notification "1..*" - - "*" Client : > informs

class Company{
-designation
}

class Laboratory{
-name
-address
-phoneNumber
-TIN
}

class ChemicalLaboratory{
}

class ClinicalAnalysisLaboratory{
-labID
}

class Employee{
-name
-address
-phoneNumber
-employeeID
-orgRole
-email
-SOCcode
}

class Administrator{
}

class SpecialistDoctor{
-doctorIndex
}

class ClinicalChemistryTechnologist{
}

class MedicalLabTechnician{
}

class Receptionist{
}

class Client{
-citizenID
-nhsID
-birthDate
-sex
-TIN
-phoneNumber
-email
-name
}

class LabOrder{
}

class Result{
}

class DiagnosisReport{
}

class ParameterCategory{
-code
-description
-nhsID
}

class Parameter{
-designation
-description
-code
}

class TestType{
-code
-description
-collectingMethod
}

class Test{
-description
-internalCode
-nhsCode
-collectingMethod
-collectDateTime
-chemicalAnalysisDateTime
-diagnosisDateTime
-validationDateTime
}

class Sample{
-barcode
}

@enduml

PlantUML version 1.2021.4(Sun Apr 04 09:49:39 BST 2021)
(GPL source distribution)
Java Runtime: OpenJDK Runtime Environment
JVM: OpenJDK 64-Bit Server VM
Default Encoding: Cp1252
Language: pt
Country: PT
--></g></svg>