<?xml version="1.0" encoding="UTF-8" standalone="no"?><svg xmlns="http://www.w3.org/2000/svg" xmlns:xlink="http://www.w3.org/1999/xlink" contentScriptType="application/ecmascript" contentStyleType="text/css" height="965.6px" preserveAspectRatio="none" style="width:3214px;height:965px;" version="1.1" viewBox="0 0 3214 965" width="3214.4px" zoomAndPan="magnify"><defs><filter height="300%" id="fsn4b3kiqdmqy" width="300%" x="-1" y="-1"><feGaussianBlur result="blurOut" stdDeviation="1.6000000000000003"/><feColorMatrix in="blurOut" result="blurOut2" type="matrix" values="0 0 0 0 0 0 0 0 0 0 0 0 0 0 0 0 0 0 .4 0"/><feOffset dx="3.2000000000000006" dy="3.2000000000000006" in="blurOut2" result="blurOut3"/><feBlend in="SourceGraphic" in2="blurOut3" mode="normal"/></filter></defs><g><!--MD5=[02e4b9b7573f1156f41e60aa5b4e25a4]
class Company--><rect codeLine="121" fill="#FEFECE" filter="url(#fsn4b3kiqdmqy)" height="43.0688" id="Company" style="stroke:#A80036;stroke-width:1.2000000000000002;" width="68" x="351.2" y="577.6"/><ellipse cx="363.2" cy="590.4" fill="#ADD1B2" rx="8.8" ry="8.8" style="stroke:#A80036;stroke-width:0.8000000000000002;"/><path d="M364.8,587.6 Q364.9625,587.2 365.15,587 Q365.3375,586.8 365.55,586.8 Q365.925,586.8 366.1625,587.025 Q366.4,587.25 366.4,587.775 L366.4,589.025 Q366.4,589.55 366.175,589.775 Q365.95,590 365.6,590 Q365.2875,590 365.0875,589.8625 Q364.8875,589.725 364.8,589.3625 Q364.7625,589.1125 364.625,588.975 Q364.375,588.7125 363.925,588.5625 Q363.475,588.4 363.025,588.4 Q362.4625,588.4 361.9875,588.625 Q361.525,588.85 361.1625,589.35 Q360.8,589.85 360.8,590.5375 L360.8,591.275 Q360.8,592.1 361.475,592.65 Q362.15,593.2 363.35,593.2 Q364.0625,593.2 364.5625,593.0375 Q364.85,592.95 365.175,592.6625 Q365.3875,592.5 365.5,592.45 Q365.6125,592.4 365.75,592.4 Q366.0125,592.4 366.2,592.6125 Q366.4,592.8125 366.4,593.1 Q366.4,593.375 366.125,593.7 Q365.725,594.175 365.0875,594.4375 Q364.25,594.8 363.225,594.8 Q362.025,594.8 361.0625,594.325 Q360.2875,593.95 359.7375,593.1375 Q359.2,592.325 359.2,591.3625 L359.2,590.4875 Q359.2,589.4875 359.675,588.6125 Q360.1625,587.7375 361,587.275 Q361.85,586.8 362.8,586.8 Q363.375,586.8 363.875,587 Q364.375,587.2 364.8,587.6 Z " fill="#000000"/><text fill="#000000" font-family="sans-serif" font-size="9.6" lengthAdjust="spacing" textLength="42.4" x="374.4" y="594.3281">Company</text><line style="stroke:#A80036;stroke-width:1.2000000000000002;" x1="352" x2="418.4" y1="603.2" y2="603.2"/><text fill="#000000" font-family="sans-serif" font-size="8.8" lengthAdjust="spacing" textLength="47.2" x="356" y="615.5352">-designation</text><!--MD5=[0caf3a413731a0de34fc6162fe213ed9]
class Laboratory--><rect codeLine="6" fill="#FEFECE" filter="url(#fsn4b3kiqdmqy)" height="32" id="Laboratory" style="stroke:#A80036;stroke-width:1.2000000000000002;" width="72" x="919.6" y="254.4"/><ellipse cx="931.6" cy="267.2" fill="#ADD1B2" rx="8.8" ry="8.8" style="stroke:#A80036;stroke-width:0.8000000000000002;"/><path d="M933.2,264.4 Q933.3625,264 933.55,263.8 Q933.7375,263.6 933.95,263.6 Q934.325,263.6 934.5625,263.825 Q934.8,264.05 934.8,264.575 L934.8,265.825 Q934.8,266.35 934.575,266.575 Q934.35,266.8 934,266.8 Q933.6875,266.8 933.4875,266.6625 Q933.2875,266.525 933.2,266.1625 Q933.1625,265.9125 933.025,265.775 Q932.775,265.5125 932.325,265.3625 Q931.875,265.2 931.425,265.2 Q930.8625,265.2 930.3875,265.425 Q929.925,265.65 929.5625,266.15 Q929.2,266.65 929.2,267.3375 L929.2,268.075 Q929.2,268.9 929.875,269.45 Q930.55,270 931.75,270 Q932.4625,270 932.9625,269.8375 Q933.25,269.75 933.575,269.4625 Q933.7875,269.3 933.9,269.25 Q934.0125,269.2 934.15,269.2 Q934.4125,269.2 934.6,269.4125 Q934.8,269.6125 934.8,269.9 Q934.8,270.175 934.525,270.5 Q934.125,270.975 933.4875,271.2375 Q932.65,271.6 931.625,271.6 Q930.425,271.6 929.4625,271.125 Q928.6875,270.75 928.1375,269.9375 Q927.6,269.125 927.6,268.1625 L927.6,267.2875 Q927.6,266.2875 928.075,265.4125 Q928.5625,264.5375 929.4,264.075 Q930.25,263.6 931.2,263.6 Q931.775,263.6 932.275,263.8 Q932.775,264 933.2,264.4 Z " fill="#000000"/><text fill="#000000" font-family="sans-serif" font-size="9.6" lengthAdjust="spacing" textLength="46.4" x="942.8" y="271.1281">Laboratory</text><line style="stroke:#A80036;stroke-width:1.2000000000000002;" x1="920.4" x2="990.8" y1="280" y2="280"/><!--MD5=[a64badb107d3691f2dc6af242cdbeb21]
class ChemicalLaboratory--><rect codeLine="125" fill="#FEFECE" filter="url(#fsn4b3kiqdmqy)" height="76.275" id="ChemicalLaboratory" style="stroke:#A80036;stroke-width:1.2000000000000002;" width="114.4" x="1145.6" y="232.4"/><ellipse cx="1157.6" cy="245.2" fill="#ADD1B2" rx="8.8" ry="8.8" style="stroke:#A80036;stroke-width:0.8000000000000002;"/><path d="M1159.2,242.4 Q1159.3625,242 1159.55,241.8 Q1159.7375,241.6 1159.95,241.6 Q1160.325,241.6 1160.5625,241.825 Q1160.8,242.05 1160.8,242.575 L1160.8,243.825 Q1160.8,244.35 1160.575,244.575 Q1160.35,244.8 1160,244.8 Q1159.6875,244.8 1159.4875,244.6625 Q1159.2875,244.525 1159.2,244.1625 Q1159.1625,243.9125 1159.025,243.775 Q1158.775,243.5125 1158.325,243.3625 Q1157.875,243.2 1157.425,243.2 Q1156.8625,243.2 1156.3875,243.425 Q1155.925,243.65 1155.5625,244.15 Q1155.2,244.65 1155.2,245.3375 L1155.2,246.075 Q1155.2,246.9 1155.875,247.45 Q1156.55,248 1157.75,248 Q1158.4625,248 1158.9625,247.8375 Q1159.25,247.75 1159.575,247.4625 Q1159.7875,247.3 1159.9,247.25 Q1160.0125,247.2 1160.15,247.2 Q1160.4125,247.2 1160.6,247.4125 Q1160.8,247.6125 1160.8,247.9 Q1160.8,248.175 1160.525,248.5 Q1160.125,248.975 1159.4875,249.2375 Q1158.65,249.6 1157.625,249.6 Q1156.425,249.6 1155.4625,249.125 Q1154.6875,248.75 1154.1375,247.9375 Q1153.6,247.125 1153.6,246.1625 L1153.6,245.2875 Q1153.6,244.2875 1154.075,243.4125 Q1154.5625,242.5375 1155.4,242.075 Q1156.25,241.6 1157.2,241.6 Q1157.775,241.6 1158.275,241.8 Q1158.775,242 1159.2,242.4 Z " fill="#000000"/><text fill="#000000" font-family="sans-serif" font-size="9.6" lengthAdjust="spacing" textLength="88.8" x="1168.8" y="249.1281">ChemicalLaboratory</text><line style="stroke:#A80036;stroke-width:1.2000000000000002;" x1="1146.4" x2="1259.2" y1="258" y2="258"/><text fill="#000000" font-family="sans-serif" font-size="8.8" lengthAdjust="spacing" textLength="24" x="1150.4" y="270.3352">-name</text><text fill="#000000" font-family="sans-serif" font-size="8.8" lengthAdjust="spacing" textLength="35.2" x="1150.4" y="281.4039">-address</text><text fill="#000000" font-family="sans-serif" font-size="8.8" lengthAdjust="spacing" textLength="56.8" x="1150.4" y="292.4727">-phoneNumber</text><text fill="#000000" font-family="sans-serif" font-size="8.8" lengthAdjust="spacing" textLength="15.2" x="1150.4" y="303.5414">-TIN</text><!--MD5=[1934a092c0e7d4da7dc7075b6f4b6b03]
class ClinicalAnalysisLaboratory--><rect codeLine="132" fill="#FEFECE" filter="url(#fsn4b3kiqdmqy)" height="87.3438" id="ClinicalAnalysisLaboratory" style="stroke:#A80036;stroke-width:1.2000000000000002;" width="141.6" x="3061.6" y="446"/><ellipse cx="3073.6" cy="458.8" fill="#ADD1B2" rx="8.8" ry="8.8" style="stroke:#A80036;stroke-width:0.8000000000000002;"/><path d="M3075.2,456 Q3075.3625,455.6 3075.55,455.4 Q3075.7375,455.2 3075.95,455.2 Q3076.325,455.2 3076.5625,455.425 Q3076.8,455.65 3076.8,456.175 L3076.8,457.425 Q3076.8,457.95 3076.575,458.175 Q3076.35,458.4 3076,458.4 Q3075.6875,458.4 3075.4875,458.2625 Q3075.2875,458.125 3075.2,457.7625 Q3075.1625,457.5125 3075.025,457.375 Q3074.775,457.1125 3074.325,456.9625 Q3073.875,456.8 3073.425,456.8 Q3072.8625,456.8 3072.3875,457.025 Q3071.925,457.25 3071.5625,457.75 Q3071.2,458.25 3071.2,458.9375 L3071.2,459.675 Q3071.2,460.5 3071.875,461.05 Q3072.55,461.6 3073.75,461.6 Q3074.4625,461.6 3074.9625,461.4375 Q3075.25,461.35 3075.575,461.0625 Q3075.7875,460.9 3075.9,460.85 Q3076.0125,460.8 3076.15,460.8 Q3076.4125,460.8 3076.6,461.0125 Q3076.8,461.2125 3076.8,461.5 Q3076.8,461.775 3076.525,462.1 Q3076.125,462.575 3075.4875,462.8375 Q3074.65,463.2 3073.625,463.2 Q3072.425,463.2 3071.4625,462.725 Q3070.6875,462.35 3070.1375,461.5375 Q3069.6,460.725 3069.6,459.7625 L3069.6,458.8875 Q3069.6,457.8875 3070.075,457.0125 Q3070.5625,456.1375 3071.4,455.675 Q3072.25,455.2 3073.2,455.2 Q3073.775,455.2 3074.275,455.4 Q3074.775,455.6 3075.2,456 Z " fill="#000000"/><text fill="#000000" font-family="sans-serif" font-size="9.6" lengthAdjust="spacing" textLength="116" x="3084.8" y="462.7281">ClinicalAnalysisLaboratory</text><line style="stroke:#A80036;stroke-width:1.2000000000000002;" x1="3062.4" x2="3202.4" y1="471.6" y2="471.6"/><text fill="#000000" font-family="sans-serif" font-size="8.8" lengthAdjust="spacing" textLength="24" x="3066.4" y="483.9352">-name</text><text fill="#000000" font-family="sans-serif" font-size="8.8" lengthAdjust="spacing" textLength="35.2" x="3066.4" y="495.0039">-address</text><text fill="#000000" font-family="sans-serif" font-size="8.8" lengthAdjust="spacing" textLength="56.8" x="3066.4" y="506.0727">-phoneNumber</text><text fill="#000000" font-family="sans-serif" font-size="8.8" lengthAdjust="spacing" textLength="21.6" x="3066.4" y="517.1414">-labID</text><text fill="#000000" font-family="sans-serif" font-size="8.8" lengthAdjust="spacing" textLength="15.2" x="3066.4" y="528.2102">-TIN</text><!--MD5=[052425de1c0eb6cc1c1b48342b0bb88f]
class LaboratoryCoordinator--><rect codeLine="9" fill="#FEFECE" filter="url(#fsn4b3kiqdmqy)" height="32" id="LaboratoryCoordinator" style="stroke:#A80036;stroke-width:1.2000000000000002;" width="124" x="667.2" y="333.6"/><ellipse cx="679.2" cy="346.4" fill="#ADD1B2" rx="8.8" ry="8.8" style="stroke:#A80036;stroke-width:0.8000000000000002;"/><path d="M680.8,343.6 Q680.9625,343.2 681.15,343 Q681.3375,342.8 681.55,342.8 Q681.925,342.8 682.1625,343.025 Q682.4,343.25 682.4,343.775 L682.4,345.025 Q682.4,345.55 682.175,345.775 Q681.95,346 681.6,346 Q681.2875,346 681.0875,345.8625 Q680.8875,345.725 680.8,345.3625 Q680.7625,345.1125 680.625,344.975 Q680.375,344.7125 679.925,344.5625 Q679.475,344.4 679.025,344.4 Q678.4625,344.4 677.9875,344.625 Q677.525,344.85 677.1625,345.35 Q676.8,345.85 676.8,346.5375 L676.8,347.275 Q676.8,348.1 677.475,348.65 Q678.15,349.2 679.35,349.2 Q680.0625,349.2 680.5625,349.0375 Q680.85,348.95 681.175,348.6625 Q681.3875,348.5 681.5,348.45 Q681.6125,348.4 681.75,348.4 Q682.0125,348.4 682.2,348.6125 Q682.4,348.8125 682.4,349.1 Q682.4,349.375 682.125,349.7 Q681.725,350.175 681.0875,350.4375 Q680.25,350.8 679.225,350.8 Q678.025,350.8 677.0625,350.325 Q676.2875,349.95 675.7375,349.1375 Q675.2,348.325 675.2,347.3625 L675.2,346.4875 Q675.2,345.4875 675.675,344.6125 Q676.1625,343.7375 677,343.275 Q677.85,342.8 678.8,342.8 Q679.375,342.8 679.875,343 Q680.375,343.2 680.8,343.6 Z " fill="#000000"/><text fill="#000000" font-family="sans-serif" font-size="9.6" lengthAdjust="spacing" textLength="98.4" x="690.4" y="350.3281">LaboratoryCoordinator</text><line style="stroke:#A80036;stroke-width:1.2000000000000002;" x1="668" x2="790.4" y1="359.2" y2="359.2"/><!--MD5=[7421f545a0d8420c5bec41e74b387d9c]
class Employee--><rect codeLine="140" fill="#FEFECE" filter="url(#fsn4b3kiqdmqy)" height="109.4813" id="Employee" style="stroke:#A80036;stroke-width:1.2000000000000002;" width="69.6" x="520.8" y="320.4"/><ellipse cx="532.8" cy="333.2" fill="#ADD1B2" rx="8.8" ry="8.8" style="stroke:#A80036;stroke-width:0.8000000000000002;"/><path d="M534.4,330.4 Q534.5625,330 534.75,329.8 Q534.9375,329.6 535.15,329.6 Q535.525,329.6 535.7625,329.825 Q536,330.05 536,330.575 L536,331.825 Q536,332.35 535.775,332.575 Q535.55,332.8 535.2,332.8 Q534.8875,332.8 534.6875,332.6625 Q534.4875,332.525 534.4,332.1625 Q534.3625,331.9125 534.225,331.775 Q533.975,331.5125 533.525,331.3625 Q533.075,331.2 532.625,331.2 Q532.0625,331.2 531.5875,331.425 Q531.125,331.65 530.7625,332.15 Q530.4,332.65 530.4,333.3375 L530.4,334.075 Q530.4,334.9 531.075,335.45 Q531.75,336 532.95,336 Q533.6625,336 534.1625,335.8375 Q534.45,335.75 534.775,335.4625 Q534.9875,335.3 535.1,335.25 Q535.2125,335.2 535.35,335.2 Q535.6125,335.2 535.8,335.4125 Q536,335.6125 536,335.9 Q536,336.175 535.725,336.5 Q535.325,336.975 534.6875,337.2375 Q533.85,337.6 532.825,337.6 Q531.625,337.6 530.6625,337.125 Q529.8875,336.75 529.3375,335.9375 Q528.8,335.125 528.8,334.1625 L528.8,333.2875 Q528.8,332.2875 529.275,331.4125 Q529.7625,330.5375 530.6,330.075 Q531.45,329.6 532.4,329.6 Q532.975,329.6 533.475,329.8 Q533.975,330 534.4,330.4 Z " fill="#000000"/><text fill="#000000" font-family="sans-serif" font-size="9.6" lengthAdjust="spacing" textLength="44" x="544" y="337.1281">Employee</text><line style="stroke:#A80036;stroke-width:1.2000000000000002;" x1="521.6" x2="589.6" y1="346" y2="346"/><text fill="#000000" font-family="sans-serif" font-size="8.8" lengthAdjust="spacing" textLength="24" x="525.6" y="358.3352">-name</text><text fill="#000000" font-family="sans-serif" font-size="8.8" lengthAdjust="spacing" textLength="35.2" x="525.6" y="369.4039">-address</text><text fill="#000000" font-family="sans-serif" font-size="8.8" lengthAdjust="spacing" textLength="56.8" x="525.6" y="380.4727">-phoneNumber</text><text fill="#000000" font-family="sans-serif" font-size="8.8" lengthAdjust="spacing" textLength="47.2" x="525.6" y="391.5414">-employeeID</text><text fill="#000000" font-family="sans-serif" font-size="8.8" lengthAdjust="spacing" textLength="32.8" x="525.6" y="402.6102">-orgRole</text><text fill="#000000" font-family="sans-serif" font-size="8.8" lengthAdjust="spacing" textLength="22.4" x="525.6" y="413.6789">-email</text><text fill="#000000" font-family="sans-serif" font-size="8.8" lengthAdjust="spacing" textLength="40" x="525.6" y="424.7477">-SOCcode</text><!--MD5=[da547346deef918ea16944ba046651ef]
class Administrator--><rect codeLine="150" fill="#FEFECE" filter="url(#fsn4b3kiqdmqy)" height="32" id="Administrator" style="stroke:#A80036;stroke-width:1.2000000000000002;" width="84" x="687.2" y="615.2"/><ellipse cx="699.2" cy="628" fill="#ADD1B2" rx="8.8" ry="8.8" style="stroke:#A80036;stroke-width:0.8000000000000002;"/><path d="M700.8,625.2 Q700.9625,624.8 701.15,624.6 Q701.3375,624.4 701.55,624.4 Q701.925,624.4 702.1625,624.625 Q702.4,624.85 702.4,625.375 L702.4,626.625 Q702.4,627.15 702.175,627.375 Q701.95,627.6 701.6,627.6 Q701.2875,627.6 701.0875,627.4625 Q700.8875,627.325 700.8,626.9625 Q700.7625,626.7125 700.625,626.575 Q700.375,626.3125 699.925,626.1625 Q699.475,626 699.025,626 Q698.4625,626 697.9875,626.225 Q697.525,626.45 697.1625,626.95 Q696.8,627.45 696.8,628.1375 L696.8,628.875 Q696.8,629.7 697.475,630.25 Q698.15,630.8 699.35,630.8 Q700.0625,630.8 700.5625,630.6375 Q700.85,630.55 701.175,630.2625 Q701.3875,630.1 701.5,630.05 Q701.6125,630 701.75,630 Q702.0125,630 702.2,630.2125 Q702.4,630.4125 702.4,630.7 Q702.4,630.975 702.125,631.3 Q701.725,631.775 701.0875,632.0375 Q700.25,632.4 699.225,632.4 Q698.025,632.4 697.0625,631.925 Q696.2875,631.55 695.7375,630.7375 Q695.2,629.925 695.2,628.9625 L695.2,628.0875 Q695.2,627.0875 695.675,626.2125 Q696.1625,625.3375 697,624.875 Q697.85,624.4 698.8,624.4 Q699.375,624.4 699.875,624.6 Q700.375,624.8 700.8,625.2 Z " fill="#000000"/><text fill="#000000" font-family="sans-serif" font-size="9.6" lengthAdjust="spacing" textLength="58.4" x="710.4" y="631.9281">Administrator</text><line style="stroke:#A80036;stroke-width:1.2000000000000002;" x1="688" x2="770.4" y1="640.8" y2="640.8"/><!--MD5=[7d96fd15f3014691d2fcaf89c5791e2a]
class SpecialistDoctor--><rect codeLine="153" fill="#FEFECE" filter="url(#fsn4b3kiqdmqy)" height="43.0688" id="SpecialistDoctor" style="stroke:#A80036;stroke-width:1.2000000000000002;" width="97.6" x="2046.4" y="533.6"/><ellipse cx="2058.4" cy="546.4" fill="#ADD1B2" rx="8.8" ry="8.8" style="stroke:#A80036;stroke-width:0.8000000000000002;"/><path d="M2060,543.6 Q2060.1625,543.2 2060.35,543 Q2060.5375,542.8 2060.75,542.8 Q2061.125,542.8 2061.3625,543.025 Q2061.6,543.25 2061.6,543.775 L2061.6,545.025 Q2061.6,545.55 2061.375,545.775 Q2061.15,546 2060.8,546 Q2060.4875,546 2060.2875,545.8625 Q2060.0875,545.725 2060,545.3625 Q2059.9625,545.1125 2059.825,544.975 Q2059.575,544.7125 2059.125,544.5625 Q2058.675,544.4 2058.225,544.4 Q2057.6625,544.4 2057.1875,544.625 Q2056.725,544.85 2056.3625,545.35 Q2056,545.85 2056,546.5375 L2056,547.275 Q2056,548.1 2056.675,548.65 Q2057.35,549.2 2058.55,549.2 Q2059.2625,549.2 2059.7625,549.0375 Q2060.05,548.95 2060.375,548.6625 Q2060.5875,548.5 2060.7,548.45 Q2060.8125,548.4 2060.95,548.4 Q2061.2125,548.4 2061.4,548.6125 Q2061.6,548.8125 2061.6,549.1 Q2061.6,549.375 2061.325,549.7 Q2060.925,550.175 2060.2875,550.4375 Q2059.45,550.8 2058.425,550.8 Q2057.225,550.8 2056.2625,550.325 Q2055.4875,549.95 2054.9375,549.1375 Q2054.4,548.325 2054.4,547.3625 L2054.4,546.4875 Q2054.4,545.4875 2054.875,544.6125 Q2055.3625,543.7375 2056.2,543.275 Q2057.05,542.8 2058,542.8 Q2058.575,542.8 2059.075,543 Q2059.575,543.2 2060,543.6 Z " fill="#000000"/><text fill="#000000" font-family="sans-serif" font-size="9.6" lengthAdjust="spacing" textLength="72" x="2069.6" y="550.3281">SpecialistDoctor</text><line style="stroke:#A80036;stroke-width:1.2000000000000002;" x1="2047.2" x2="2143.2" y1="559.2" y2="559.2"/><text fill="#000000" font-family="sans-serif" font-size="8.8" lengthAdjust="spacing" textLength="48.8" x="2051.2" y="571.5352">-doctorIndex</text><!--MD5=[012ee2a8bf3ae2b319009b06f951c2e5]
class ClinicalChemistryTechnologist--><rect codeLine="157" fill="#FEFECE" filter="url(#fsn4b3kiqdmqy)" height="32" id="ClinicalChemistryTechnologist" style="stroke:#A80036;stroke-width:1.2000000000000002;" width="160" x="2461.6" y="261.6"/><ellipse cx="2473.6" cy="274.4" fill="#ADD1B2" rx="8.8" ry="8.8" style="stroke:#A80036;stroke-width:0.8000000000000002;"/><path d="M2475.2,271.6 Q2475.3625,271.2 2475.55,271 Q2475.7375,270.8 2475.95,270.8 Q2476.325,270.8 2476.5625,271.025 Q2476.8,271.25 2476.8,271.775 L2476.8,273.025 Q2476.8,273.55 2476.575,273.775 Q2476.35,274 2476,274 Q2475.6875,274 2475.4875,273.8625 Q2475.2875,273.725 2475.2,273.3625 Q2475.1625,273.1125 2475.025,272.975 Q2474.775,272.7125 2474.325,272.5625 Q2473.875,272.4 2473.425,272.4 Q2472.8625,272.4 2472.3875,272.625 Q2471.925,272.85 2471.5625,273.35 Q2471.2,273.85 2471.2,274.5375 L2471.2,275.275 Q2471.2,276.1 2471.875,276.65 Q2472.55,277.2 2473.75,277.2 Q2474.4625,277.2 2474.9625,277.0375 Q2475.25,276.95 2475.575,276.6625 Q2475.7875,276.5 2475.9,276.45 Q2476.0125,276.4 2476.15,276.4 Q2476.4125,276.4 2476.6,276.6125 Q2476.8,276.8125 2476.8,277.1 Q2476.8,277.375 2476.525,277.7 Q2476.125,278.175 2475.4875,278.4375 Q2474.65,278.8 2473.625,278.8 Q2472.425,278.8 2471.4625,278.325 Q2470.6875,277.95 2470.1375,277.1375 Q2469.6,276.325 2469.6,275.3625 L2469.6,274.4875 Q2469.6,273.4875 2470.075,272.6125 Q2470.5625,271.7375 2471.4,271.275 Q2472.25,270.8 2473.2,270.8 Q2473.775,270.8 2474.275,271 Q2474.775,271.2 2475.2,271.6 Z " fill="#000000"/><text fill="#000000" font-family="sans-serif" font-size="9.6" lengthAdjust="spacing" textLength="134.4" x="2484.8" y="278.3281">ClinicalChemistryTechnologist</text><line style="stroke:#A80036;stroke-width:1.2000000000000002;" x1="2462.4" x2="2620.8" y1="287.2" y2="287.2"/><!--MD5=[01931d41e78f8996acd44f6f0fd8de28]
class MedicalLabTechnician--><rect codeLine="160" fill="#FEFECE" filter="url(#fsn4b3kiqdmqy)" height="32" id="MedicalLabTechnician" style="stroke:#A80036;stroke-width:1.2000000000000002;" width="124" x="1573.6" y="58.4"/><ellipse cx="1585.6" cy="71.2" fill="#ADD1B2" rx="8.8" ry="8.8" style="stroke:#A80036;stroke-width:0.8000000000000002;"/><path d="M1587.2,68.4 Q1587.3625,68 1587.55,67.8 Q1587.7375,67.6 1587.95,67.6 Q1588.325,67.6 1588.5625,67.825 Q1588.8,68.05 1588.8,68.575 L1588.8,69.825 Q1588.8,70.35 1588.575,70.575 Q1588.35,70.8 1588,70.8 Q1587.6875,70.8 1587.4875,70.6625 Q1587.2875,70.525 1587.2,70.1625 Q1587.1625,69.9125 1587.025,69.775 Q1586.775,69.5125 1586.325,69.3625 Q1585.875,69.2 1585.425,69.2 Q1584.8625,69.2 1584.3875,69.425 Q1583.925,69.65 1583.5625,70.15 Q1583.2,70.65 1583.2,71.3375 L1583.2,72.075 Q1583.2,72.9 1583.875,73.45 Q1584.55,74 1585.75,74 Q1586.4625,74 1586.9625,73.8375 Q1587.25,73.75 1587.575,73.4625 Q1587.7875,73.3 1587.9,73.25 Q1588.0125,73.2 1588.15,73.2 Q1588.4125,73.2 1588.6,73.4125 Q1588.8,73.6125 1588.8,73.9 Q1588.8,74.175 1588.525,74.5 Q1588.125,74.975 1587.4875,75.2375 Q1586.65,75.6 1585.625,75.6 Q1584.425,75.6 1583.4625,75.125 Q1582.6875,74.75 1582.1375,73.9375 Q1581.6,73.125 1581.6,72.1625 L1581.6,71.2875 Q1581.6,70.2875 1582.075,69.4125 Q1582.5625,68.5375 1583.4,68.075 Q1584.25,67.6 1585.2,67.6 Q1585.775,67.6 1586.275,67.8 Q1586.775,68 1587.2,68.4 Z " fill="#000000"/><text fill="#000000" font-family="sans-serif" font-size="9.6" lengthAdjust="spacing" textLength="98.4" x="1596.8" y="75.1281">MedicalLabTechnician</text><line style="stroke:#A80036;stroke-width:1.2000000000000002;" x1="1574.4" x2="1696.8" y1="84" y2="84"/><!--MD5=[03960189e81aa2c066c762ffabbee709]
class Receptionist--><rect codeLine="163" fill="#FEFECE" filter="url(#fsn4b3kiqdmqy)" height="32" id="Receptionist" style="stroke:#A80036;stroke-width:1.2000000000000002;" width="80.8" x="2881.6" y="473.6"/><ellipse cx="2893.6" cy="486.4" fill="#ADD1B2" rx="8.8" ry="8.8" style="stroke:#A80036;stroke-width:0.8000000000000002;"/><path d="M2895.2,483.6 Q2895.3625,483.2 2895.55,483 Q2895.7375,482.8 2895.95,482.8 Q2896.325,482.8 2896.5625,483.025 Q2896.8,483.25 2896.8,483.775 L2896.8,485.025 Q2896.8,485.55 2896.575,485.775 Q2896.35,486 2896,486 Q2895.6875,486 2895.4875,485.8625 Q2895.2875,485.725 2895.2,485.3625 Q2895.1625,485.1125 2895.025,484.975 Q2894.775,484.7125 2894.325,484.5625 Q2893.875,484.4 2893.425,484.4 Q2892.8625,484.4 2892.3875,484.625 Q2891.925,484.85 2891.5625,485.35 Q2891.2,485.85 2891.2,486.5375 L2891.2,487.275 Q2891.2,488.1 2891.875,488.65 Q2892.55,489.2 2893.75,489.2 Q2894.4625,489.2 2894.9625,489.0375 Q2895.25,488.95 2895.575,488.6625 Q2895.7875,488.5 2895.9,488.45 Q2896.0125,488.4 2896.15,488.4 Q2896.4125,488.4 2896.6,488.6125 Q2896.8,488.8125 2896.8,489.1 Q2896.8,489.375 2896.525,489.7 Q2896.125,490.175 2895.4875,490.4375 Q2894.65,490.8 2893.625,490.8 Q2892.425,490.8 2891.4625,490.325 Q2890.6875,489.95 2890.1375,489.1375 Q2889.6,488.325 2889.6,487.3625 L2889.6,486.4875 Q2889.6,485.4875 2890.075,484.6125 Q2890.5625,483.7375 2891.4,483.275 Q2892.25,482.8 2893.2,482.8 Q2893.775,482.8 2894.275,483 Q2894.775,483.2 2895.2,483.6 Z " fill="#000000"/><text fill="#000000" font-family="sans-serif" font-size="9.6" lengthAdjust="spacing" textLength="55.2" x="2904.8" y="490.3281">Receptionist</text><line style="stroke:#A80036;stroke-width:1.2000000000000002;" x1="2882.4" x2="2961.6" y1="499.2" y2="499.2"/><!--MD5=[ed6624c6556d5e7b1bd23032162d20b7]
class Client--><rect codeLine="166" fill="#FEFECE" filter="url(#fsn4b3kiqdmqy)" height="120.55" id="Client" style="stroke:#A80036;stroke-width:1.2000000000000002;" width="66.4" x="2715.2" y="602"/><ellipse cx="2734.04" cy="614.8" fill="#ADD1B2" rx="8.8" ry="8.8" style="stroke:#A80036;stroke-width:0.8000000000000002;"/><path d="M2735.64,612 Q2735.8025,611.6 2735.99,611.4 Q2736.1775,611.2 2736.39,611.2 Q2736.765,611.2 2737.0025,611.425 Q2737.24,611.65 2737.24,612.175 L2737.24,613.425 Q2737.24,613.95 2737.015,614.175 Q2736.79,614.4 2736.44,614.4 Q2736.1275,614.4 2735.9275,614.2625 Q2735.7275,614.125 2735.64,613.7625 Q2735.6025,613.5125 2735.465,613.375 Q2735.215,613.1125 2734.765,612.9625 Q2734.315,612.8 2733.865,612.8 Q2733.3025,612.8 2732.8275,613.025 Q2732.365,613.25 2732.0025,613.75 Q2731.64,614.25 2731.64,614.9375 L2731.64,615.675 Q2731.64,616.5 2732.315,617.05 Q2732.99,617.6 2734.19,617.6 Q2734.9025,617.6 2735.4025,617.4375 Q2735.69,617.35 2736.015,617.0625 Q2736.2275,616.9 2736.34,616.85 Q2736.4525,616.8 2736.59,616.8 Q2736.8525,616.8 2737.04,617.0125 Q2737.24,617.2125 2737.24,617.5 Q2737.24,617.775 2736.965,618.1 Q2736.565,618.575 2735.9275,618.8375 Q2735.09,619.2 2734.065,619.2 Q2732.865,619.2 2731.9025,618.725 Q2731.1275,618.35 2730.5775,617.5375 Q2730.04,616.725 2730.04,615.7625 L2730.04,614.8875 Q2730.04,613.8875 2730.515,613.0125 Q2731.0025,612.1375 2731.84,611.675 Q2732.69,611.2 2733.64,611.2 Q2734.215,611.2 2734.715,611.4 Q2735.215,611.6 2735.64,612 Z " fill="#000000"/><text fill="#000000" font-family="sans-serif" font-size="9.6" lengthAdjust="spacing" textLength="25.6" x="2746.76" y="618.7281">Client</text><line style="stroke:#A80036;stroke-width:1.2000000000000002;" x1="2716" x2="2780.8" y1="627.6" y2="627.6"/><text fill="#000000" font-family="sans-serif" font-size="8.8" lengthAdjust="spacing" textLength="35.2" x="2720" y="639.9352">-citizenID</text><text fill="#000000" font-family="sans-serif" font-size="8.8" lengthAdjust="spacing" textLength="24.8" x="2720" y="651.0039">-nhsID</text><text fill="#000000" font-family="sans-serif" font-size="8.8" lengthAdjust="spacing" textLength="37.6" x="2720" y="662.0727">-birthDate</text><text fill="#000000" font-family="sans-serif" font-size="8.8" lengthAdjust="spacing" textLength="17.6" x="2720" y="673.1414">-sex</text><text fill="#000000" font-family="sans-serif" font-size="8.8" lengthAdjust="spacing" textLength="15.2" x="2720" y="684.2102">-TIN</text><text fill="#000000" font-family="sans-serif" font-size="8.8" lengthAdjust="spacing" textLength="56.8" x="2720" y="695.2789">-phoneNumber</text><text fill="#000000" font-family="sans-serif" font-size="8.8" lengthAdjust="spacing" textLength="22.4" x="2720" y="706.3477">-email</text><text fill="#000000" font-family="sans-serif" font-size="8.8" lengthAdjust="spacing" textLength="24" x="2720" y="717.4164">-name</text><!--MD5=[a999c1570c205a2156b04a15307bc1ff]
class LabOrder--><rect codeLine="177" fill="#FEFECE" filter="url(#fsn4b3kiqdmqy)" height="32" id="LabOrder" style="stroke:#A80036;stroke-width:1.2000000000000002;" width="67.2" x="5.6" y="807.2"/><ellipse cx="17.6" cy="820" fill="#ADD1B2" rx="8.8" ry="8.8" style="stroke:#A80036;stroke-width:0.8000000000000002;"/><path d="M19.2,817.2 Q19.3625,816.8 19.55,816.6 Q19.7375,816.4 19.95,816.4 Q20.325,816.4 20.5625,816.625 Q20.8,816.85 20.8,817.375 L20.8,818.625 Q20.8,819.15 20.575,819.375 Q20.35,819.6 20,819.6 Q19.6875,819.6 19.4875,819.4625 Q19.2875,819.325 19.2,818.9625 Q19.1625,818.7125 19.025,818.575 Q18.775,818.3125 18.325,818.1625 Q17.875,818 17.425,818 Q16.8625,818 16.3875,818.225 Q15.925,818.45 15.5625,818.95 Q15.2,819.45 15.2,820.1375 L15.2,820.875 Q15.2,821.7 15.875,822.25 Q16.55,822.8 17.75,822.8 Q18.4625,822.8 18.9625,822.6375 Q19.25,822.55 19.575,822.2625 Q19.7875,822.1 19.9,822.05 Q20.0125,822 20.15,822 Q20.4125,822 20.6,822.2125 Q20.8,822.4125 20.8,822.7 Q20.8,822.975 20.525,823.3 Q20.125,823.775 19.4875,824.0375 Q18.65,824.4 17.625,824.4 Q16.425,824.4 15.4625,823.925 Q14.6875,823.55 14.1375,822.7375 Q13.6,821.925 13.6,820.9625 L13.6,820.0875 Q13.6,819.0875 14.075,818.2125 Q14.5625,817.3375 15.4,816.875 Q16.25,816.4 17.2,816.4 Q17.775,816.4 18.275,816.6 Q18.775,816.8 19.2,817.2 Z " fill="#000000"/><text fill="#000000" font-family="sans-serif" font-size="9.6" lengthAdjust="spacing" textLength="41.6" x="28.8" y="823.9281">LabOrder</text><line style="stroke:#A80036;stroke-width:1.2000000000000002;" x1="6.4" x2="72" y1="832.8" y2="832.8"/><!--MD5=[2741598bdf59a7d7e0d5c97658fd3022]
class Result--><rect codeLine="180" fill="#FEFECE" filter="url(#fsn4b3kiqdmqy)" height="32" id="Result" style="stroke:#A80036;stroke-width:1.2000000000000002;" width="54.4" x="2264" y="556.8"/><ellipse cx="2276" cy="569.6" fill="#ADD1B2" rx="8.8" ry="8.8" style="stroke:#A80036;stroke-width:0.8000000000000002;"/><path d="M2277.6,566.8 Q2277.7625,566.4 2277.95,566.2 Q2278.1375,566 2278.35,566 Q2278.725,566 2278.9625,566.225 Q2279.2,566.45 2279.2,566.975 L2279.2,568.225 Q2279.2,568.75 2278.975,568.975 Q2278.75,569.2 2278.4,569.2 Q2278.0875,569.2 2277.8875,569.0625 Q2277.6875,568.925 2277.6,568.5625 Q2277.5625,568.3125 2277.425,568.175 Q2277.175,567.9125 2276.725,567.7625 Q2276.275,567.6 2275.825,567.6 Q2275.2625,567.6 2274.7875,567.825 Q2274.325,568.05 2273.9625,568.55 Q2273.6,569.05 2273.6,569.7375 L2273.6,570.475 Q2273.6,571.3 2274.275,571.85 Q2274.95,572.4 2276.15,572.4 Q2276.8625,572.4 2277.3625,572.2375 Q2277.65,572.15 2277.975,571.8625 Q2278.1875,571.7 2278.3,571.65 Q2278.4125,571.6 2278.55,571.6 Q2278.8125,571.6 2279,571.8125 Q2279.2,572.0125 2279.2,572.3 Q2279.2,572.575 2278.925,572.9 Q2278.525,573.375 2277.8875,573.6375 Q2277.05,574 2276.025,574 Q2274.825,574 2273.8625,573.525 Q2273.0875,573.15 2272.5375,572.3375 Q2272,571.525 2272,570.5625 L2272,569.6875 Q2272,568.6875 2272.475,567.8125 Q2272.9625,566.9375 2273.8,566.475 Q2274.65,566 2275.6,566 Q2276.175,566 2276.675,566.2 Q2277.175,566.4 2277.6,566.8 Z " fill="#000000"/><text fill="#000000" font-family="sans-serif" font-size="9.6" lengthAdjust="spacing" textLength="28.8" x="2287.2" y="573.5281">Result</text><line style="stroke:#A80036;stroke-width:1.2000000000000002;" x1="2264.8" x2="2317.6" y1="582.4" y2="582.4"/><!--MD5=[f61f25a4c924aea49782a3614f4b4835]
class DiagnosisReport--><rect codeLine="183" fill="#FEFECE" filter="url(#fsn4b3kiqdmqy)" height="32" id="DiagnosisReport" style="stroke:#A80036;stroke-width:1.2000000000000002;" width="100.8" x="1829.6" y="543.2"/><ellipse cx="1841.6" cy="556" fill="#ADD1B2" rx="8.8" ry="8.8" style="stroke:#A80036;stroke-width:0.8000000000000002;"/><path d="M1843.2,553.2 Q1843.3625,552.8 1843.55,552.6 Q1843.7375,552.4 1843.95,552.4 Q1844.325,552.4 1844.5625,552.625 Q1844.8,552.85 1844.8,553.375 L1844.8,554.625 Q1844.8,555.15 1844.575,555.375 Q1844.35,555.6 1844,555.6 Q1843.6875,555.6 1843.4875,555.4625 Q1843.2875,555.325 1843.2,554.9625 Q1843.1625,554.7125 1843.025,554.575 Q1842.775,554.3125 1842.325,554.1625 Q1841.875,554 1841.425,554 Q1840.8625,554 1840.3875,554.225 Q1839.925,554.45 1839.5625,554.95 Q1839.2,555.45 1839.2,556.1375 L1839.2,556.875 Q1839.2,557.7 1839.875,558.25 Q1840.55,558.8 1841.75,558.8 Q1842.4625,558.8 1842.9625,558.6375 Q1843.25,558.55 1843.575,558.2625 Q1843.7875,558.1 1843.9,558.05 Q1844.0125,558 1844.15,558 Q1844.4125,558 1844.6,558.2125 Q1844.8,558.4125 1844.8,558.7 Q1844.8,558.975 1844.525,559.3 Q1844.125,559.775 1843.4875,560.0375 Q1842.65,560.4 1841.625,560.4 Q1840.425,560.4 1839.4625,559.925 Q1838.6875,559.55 1838.1375,558.7375 Q1837.6,557.925 1837.6,556.9625 L1837.6,556.0875 Q1837.6,555.0875 1838.075,554.2125 Q1838.5625,553.3375 1839.4,552.875 Q1840.25,552.4 1841.2,552.4 Q1841.775,552.4 1842.275,552.6 Q1842.775,552.8 1843.2,553.2 Z " fill="#000000"/><text fill="#000000" font-family="sans-serif" font-size="9.6" lengthAdjust="spacing" textLength="75.2" x="1852.8" y="559.9281">DiagnosisReport</text><line style="stroke:#A80036;stroke-width:1.2000000000000002;" x1="1830.4" x2="1929.6" y1="568.8" y2="568.8"/><!--MD5=[74783ec010d186752c4ffd5c6de5633a]
class NHSReport--><rect codeLine="20" fill="#FEFECE" filter="url(#fsn4b3kiqdmqy)" height="32" id="NHSReport" style="stroke:#A80036;stroke-width:1.2000000000000002;" width="76" x="2057.2" y="473.6"/><ellipse cx="2069.2" cy="486.4" fill="#ADD1B2" rx="8.8" ry="8.8" style="stroke:#A80036;stroke-width:0.8000000000000002;"/><path d="M2070.8,483.6 Q2070.9625,483.2 2071.15,483 Q2071.3375,482.8 2071.55,482.8 Q2071.925,482.8 2072.1625,483.025 Q2072.4,483.25 2072.4,483.775 L2072.4,485.025 Q2072.4,485.55 2072.175,485.775 Q2071.95,486 2071.6,486 Q2071.2875,486 2071.0875,485.8625 Q2070.8875,485.725 2070.8,485.3625 Q2070.7625,485.1125 2070.625,484.975 Q2070.375,484.7125 2069.925,484.5625 Q2069.475,484.4 2069.025,484.4 Q2068.4625,484.4 2067.9875,484.625 Q2067.525,484.85 2067.1625,485.35 Q2066.8,485.85 2066.8,486.5375 L2066.8,487.275 Q2066.8,488.1 2067.475,488.65 Q2068.15,489.2 2069.35,489.2 Q2070.0625,489.2 2070.5625,489.0375 Q2070.85,488.95 2071.175,488.6625 Q2071.3875,488.5 2071.5,488.45 Q2071.6125,488.4 2071.75,488.4 Q2072.0125,488.4 2072.2,488.6125 Q2072.4,488.8125 2072.4,489.1 Q2072.4,489.375 2072.125,489.7 Q2071.725,490.175 2071.0875,490.4375 Q2070.25,490.8 2069.225,490.8 Q2068.025,490.8 2067.0625,490.325 Q2066.2875,489.95 2065.7375,489.1375 Q2065.2,488.325 2065.2,487.3625 L2065.2,486.4875 Q2065.2,485.4875 2065.675,484.6125 Q2066.1625,483.7375 2067,483.275 Q2067.85,482.8 2068.8,482.8 Q2069.375,482.8 2069.875,483 Q2070.375,483.2 2070.8,483.6 Z " fill="#000000"/><text fill="#000000" font-family="sans-serif" font-size="9.6" lengthAdjust="spacing" textLength="50.4" x="2080.4" y="490.3281">NHSReport</text><line style="stroke:#A80036;stroke-width:1.2000000000000002;" x1="2058" x2="2132.4" y1="499.2" y2="499.2"/><!--MD5=[36afb6bbd95a8ac778c4537c55a683d5]
class ParameterCategory--><rect codeLine="186" fill="#FEFECE" filter="url(#fsn4b3kiqdmqy)" height="65.2063" id="ParameterCategory" style="stroke:#A80036;stroke-width:1.2000000000000002;" width="111.2" x="900" y="588"/><ellipse cx="912" cy="600.8" fill="#ADD1B2" rx="8.8" ry="8.8" style="stroke:#A80036;stroke-width:0.8000000000000002;"/><path d="M913.6,598 Q913.7625,597.6 913.95,597.4 Q914.1375,597.2 914.35,597.2 Q914.725,597.2 914.9625,597.425 Q915.2,597.65 915.2,598.175 L915.2,599.425 Q915.2,599.95 914.975,600.175 Q914.75,600.4 914.4,600.4 Q914.0875,600.4 913.8875,600.2625 Q913.6875,600.125 913.6,599.7625 Q913.5625,599.5125 913.425,599.375 Q913.175,599.1125 912.725,598.9625 Q912.275,598.8 911.825,598.8 Q911.2625,598.8 910.7875,599.025 Q910.325,599.25 909.9625,599.75 Q909.6,600.25 909.6,600.9375 L909.6,601.675 Q909.6,602.5 910.275,603.05 Q910.95,603.6 912.15,603.6 Q912.8625,603.6 913.3625,603.4375 Q913.65,603.35 913.975,603.0625 Q914.1875,602.9 914.3,602.85 Q914.4125,602.8 914.55,602.8 Q914.8125,602.8 915,603.0125 Q915.2,603.2125 915.2,603.5 Q915.2,603.775 914.925,604.1 Q914.525,604.575 913.8875,604.8375 Q913.05,605.2 912.025,605.2 Q910.825,605.2 909.8625,604.725 Q909.0875,604.35 908.5375,603.5375 Q908,602.725 908,601.7625 L908,600.8875 Q908,599.8875 908.475,599.0125 Q908.9625,598.1375 909.8,597.675 Q910.65,597.2 911.6,597.2 Q912.175,597.2 912.675,597.4 Q913.175,597.6 913.6,598 Z " fill="#000000"/><text fill="#000000" font-family="sans-serif" font-size="9.6" lengthAdjust="spacing" textLength="85.6" x="923.2" y="604.7281">ParameterCategory</text><line style="stroke:#A80036;stroke-width:1.2000000000000002;" x1="900.8" x2="1010.4" y1="613.6" y2="613.6"/><text fill="#000000" font-family="sans-serif" font-size="8.8" lengthAdjust="spacing" textLength="22.4" x="904.8" y="625.9352">-code</text><text fill="#000000" font-family="sans-serif" font-size="8.8" lengthAdjust="spacing" textLength="45.6" x="904.8" y="637.0039">-description</text><text fill="#000000" font-family="sans-serif" font-size="8.8" lengthAdjust="spacing" textLength="24.8" x="904.8" y="648.0727">-nhsID</text><!--MD5=[1f6362a5c8f21d8d6a0fce68f3a92a4e]
class Parameter--><rect codeLine="192" fill="#FEFECE" filter="url(#fsn4b3kiqdmqy)" height="65.2063" id="Parameter" style="stroke:#A80036;stroke-width:1.2000000000000002;" width="72" x="1166.8" y="586.4"/><ellipse cx="1178.8" cy="599.2" fill="#ADD1B2" rx="8.8" ry="8.8" style="stroke:#A80036;stroke-width:0.8000000000000002;"/><path d="M1180.4,596.4 Q1180.5625,596 1180.75,595.8 Q1180.9375,595.6 1181.15,595.6 Q1181.525,595.6 1181.7625,595.825 Q1182,596.05 1182,596.575 L1182,597.825 Q1182,598.35 1181.775,598.575 Q1181.55,598.8 1181.2,598.8 Q1180.8875,598.8 1180.6875,598.6625 Q1180.4875,598.525 1180.4,598.1625 Q1180.3625,597.9125 1180.225,597.775 Q1179.975,597.5125 1179.525,597.3625 Q1179.075,597.2 1178.625,597.2 Q1178.0625,597.2 1177.5875,597.425 Q1177.125,597.65 1176.7625,598.15 Q1176.4,598.65 1176.4,599.3375 L1176.4,600.075 Q1176.4,600.9 1177.075,601.45 Q1177.75,602 1178.95,602 Q1179.6625,602 1180.1625,601.8375 Q1180.45,601.75 1180.775,601.4625 Q1180.9875,601.3 1181.1,601.25 Q1181.2125,601.2 1181.35,601.2 Q1181.6125,601.2 1181.8,601.4125 Q1182,601.6125 1182,601.9 Q1182,602.175 1181.725,602.5 Q1181.325,602.975 1180.6875,603.2375 Q1179.85,603.6 1178.825,603.6 Q1177.625,603.6 1176.6625,603.125 Q1175.8875,602.75 1175.3375,601.9375 Q1174.8,601.125 1174.8,600.1625 L1174.8,599.2875 Q1174.8,598.2875 1175.275,597.4125 Q1175.7625,596.5375 1176.6,596.075 Q1177.45,595.6 1178.4,595.6 Q1178.975,595.6 1179.475,595.8 Q1179.975,596 1180.4,596.4 Z " fill="#000000"/><text fill="#000000" font-family="sans-serif" font-size="9.6" lengthAdjust="spacing" textLength="46.4" x="1190" y="603.1281">Parameter</text><line style="stroke:#A80036;stroke-width:1.2000000000000002;" x1="1167.6" x2="1238" y1="612" y2="612"/><text fill="#000000" font-family="sans-serif" font-size="8.8" lengthAdjust="spacing" textLength="47.2" x="1171.6" y="624.3352">-designation</text><text fill="#000000" font-family="sans-serif" font-size="8.8" lengthAdjust="spacing" textLength="45.6" x="1171.6" y="635.4039">-description</text><text fill="#000000" font-family="sans-serif" font-size="8.8" lengthAdjust="spacing" textLength="22.4" x="1171.6" y="646.4727">-code</text><!--MD5=[aeb3272166074d8737a70b61b1e71682]
class TestType--><rect codeLine="198" fill="#FEFECE" filter="url(#fsn4b3kiqdmqy)" height="65.2063" id="TestType" style="stroke:#A80036;stroke-width:1.2000000000000002;" width="76.8" x="172" y="744"/><ellipse cx="189.04" cy="756.8" fill="#ADD1B2" rx="8.8" ry="8.8" style="stroke:#A80036;stroke-width:0.8000000000000002;"/><path d="M190.64,754 Q190.8025,753.6 190.99,753.4 Q191.1775,753.2 191.39,753.2 Q191.765,753.2 192.0025,753.425 Q192.24,753.65 192.24,754.175 L192.24,755.425 Q192.24,755.95 192.015,756.175 Q191.79,756.4 191.44,756.4 Q191.1275,756.4 190.9275,756.2625 Q190.7275,756.125 190.64,755.7625 Q190.6025,755.5125 190.465,755.375 Q190.215,755.1125 189.765,754.9625 Q189.315,754.8 188.865,754.8 Q188.3025,754.8 187.8275,755.025 Q187.365,755.25 187.0025,755.75 Q186.64,756.25 186.64,756.9375 L186.64,757.675 Q186.64,758.5 187.315,759.05 Q187.99,759.6 189.19,759.6 Q189.9025,759.6 190.4025,759.4375 Q190.69,759.35 191.015,759.0625 Q191.2275,758.9 191.34,758.85 Q191.4525,758.8 191.59,758.8 Q191.8525,758.8 192.04,759.0125 Q192.24,759.2125 192.24,759.5 Q192.24,759.775 191.965,760.1 Q191.565,760.575 190.9275,760.8375 Q190.09,761.2 189.065,761.2 Q187.865,761.2 186.9025,760.725 Q186.1275,760.35 185.5775,759.5375 Q185.04,758.725 185.04,757.7625 L185.04,756.8875 Q185.04,755.8875 185.515,755.0125 Q186.0025,754.1375 186.84,753.675 Q187.69,753.2 188.64,753.2 Q189.215,753.2 189.715,753.4 Q190.215,753.6 190.64,754 Z " fill="#000000"/><text fill="#000000" font-family="sans-serif" font-size="9.6" lengthAdjust="spacing" textLength="40" x="201.36" y="760.7281">TestType</text><line style="stroke:#A80036;stroke-width:1.2000000000000002;" x1="172.8" x2="248" y1="769.6" y2="769.6"/><text fill="#000000" font-family="sans-serif" font-size="8.8" lengthAdjust="spacing" textLength="22.4" x="176.8" y="781.9352">-code</text><text fill="#000000" font-family="sans-serif" font-size="8.8" lengthAdjust="spacing" textLength="45.6" x="176.8" y="793.0039">-description</text><text fill="#000000" font-family="sans-serif" font-size="8.8" lengthAdjust="spacing" textLength="67.2" x="176.8" y="804.0727">-collectingMethod</text><!--MD5=[df38be88ccee13e832d6fafd6288a4ca]
class Test--><rect codeLine="204" fill="#FEFECE" filter="url(#fsn4b3kiqdmqy)" height="120.55" id="Test" style="stroke:#A80036;stroke-width:1.2000000000000002;" width="115.2" x="1578" y="558.8"/><ellipse cx="1622.6" cy="571.6" fill="#ADD1B2" rx="8.8" ry="8.8" style="stroke:#A80036;stroke-width:0.8000000000000002;"/><path d="M1624.2,568.8 Q1624.3625,568.4 1624.55,568.2 Q1624.7375,568 1624.95,568 Q1625.325,568 1625.5625,568.225 Q1625.8,568.45 1625.8,568.975 L1625.8,570.225 Q1625.8,570.75 1625.575,570.975 Q1625.35,571.2 1625,571.2 Q1624.6875,571.2 1624.4875,571.0625 Q1624.2875,570.925 1624.2,570.5625 Q1624.1625,570.3125 1624.025,570.175 Q1623.775,569.9125 1623.325,569.7625 Q1622.875,569.6 1622.425,569.6 Q1621.8625,569.6 1621.3875,569.825 Q1620.925,570.05 1620.5625,570.55 Q1620.2,571.05 1620.2,571.7375 L1620.2,572.475 Q1620.2,573.3 1620.875,573.85 Q1621.55,574.4 1622.75,574.4 Q1623.4625,574.4 1623.9625,574.2375 Q1624.25,574.15 1624.575,573.8625 Q1624.7875,573.7 1624.9,573.65 Q1625.0125,573.6 1625.15,573.6 Q1625.4125,573.6 1625.6,573.8125 Q1625.8,574.0125 1625.8,574.3 Q1625.8,574.575 1625.525,574.9 Q1625.125,575.375 1624.4875,575.6375 Q1623.65,576 1622.625,576 Q1621.425,576 1620.4625,575.525 Q1619.6875,575.15 1619.1375,574.3375 Q1618.6,573.525 1618.6,572.5625 L1618.6,571.6875 Q1618.6,570.6875 1619.075,569.8125 Q1619.5625,568.9375 1620.4,568.475 Q1621.25,568 1622.2,568 Q1622.775,568 1623.275,568.2 Q1623.775,568.4 1624.2,568.8 Z " fill="#000000"/><text fill="#000000" font-family="sans-serif" font-size="9.6" lengthAdjust="spacing" textLength="19.2" x="1639" y="575.5281">Test</text><line style="stroke:#A80036;stroke-width:1.2000000000000002;" x1="1578.8" x2="1692.4" y1="584.4" y2="584.4"/><text fill="#000000" font-family="sans-serif" font-size="8.8" lengthAdjust="spacing" textLength="45.6" x="1582.8" y="596.7352">-description</text><text fill="#000000" font-family="sans-serif" font-size="8.8" lengthAdjust="spacing" textLength="51.2" x="1582.8" y="607.8039">-internalCode</text><text fill="#000000" font-family="sans-serif" font-size="8.8" lengthAdjust="spacing" textLength="37.6" x="1582.8" y="618.8727">-nhsCode</text><text fill="#000000" font-family="sans-serif" font-size="8.8" lengthAdjust="spacing" textLength="67.2" x="1582.8" y="629.9414">-collectingMethod</text><text fill="#000000" font-family="sans-serif" font-size="8.8" lengthAdjust="spacing" textLength="63.2" x="1582.8" y="641.0102">-collectDateTime</text><text fill="#000000" font-family="sans-serif" font-size="8.8" lengthAdjust="spacing" textLength="105.6" x="1582.8" y="652.0789">-chemicalAnalysisDateTime</text><text fill="#000000" font-family="sans-serif" font-size="8.8" lengthAdjust="spacing" textLength="75.2" x="1582.8" y="663.1477">-diagnosisDateTime</text><text fill="#000000" font-family="sans-serif" font-size="8.8" lengthAdjust="spacing" textLength="74.4" x="1582.8" y="674.2164">-validationDateTime</text><!--MD5=[76b5e19c9337179d2d7ae334371d68c8]
class Notification--><rect codeLine="25" fill="#FEFECE" filter="url(#fsn4b3kiqdmqy)" height="32" id="Notification" style="stroke:#A80036;stroke-width:1.2000000000000002;" width="74.4" x="2504.4" y="579.2"/><ellipse cx="2516.4" cy="592" fill="#ADD1B2" rx="8.8" ry="8.8" style="stroke:#A80036;stroke-width:0.8000000000000002;"/><path d="M2518,589.2 Q2518.1625,588.8 2518.35,588.6 Q2518.5375,588.4 2518.75,588.4 Q2519.125,588.4 2519.3625,588.625 Q2519.6,588.85 2519.6,589.375 L2519.6,590.625 Q2519.6,591.15 2519.375,591.375 Q2519.15,591.6 2518.8,591.6 Q2518.4875,591.6 2518.2875,591.4625 Q2518.0875,591.325 2518,590.9625 Q2517.9625,590.7125 2517.825,590.575 Q2517.575,590.3125 2517.125,590.1625 Q2516.675,590 2516.225,590 Q2515.6625,590 2515.1875,590.225 Q2514.725,590.45 2514.3625,590.95 Q2514,591.45 2514,592.1375 L2514,592.875 Q2514,593.7 2514.675,594.25 Q2515.35,594.8 2516.55,594.8 Q2517.2625,594.8 2517.7625,594.6375 Q2518.05,594.55 2518.375,594.2625 Q2518.5875,594.1 2518.7,594.05 Q2518.8125,594 2518.95,594 Q2519.2125,594 2519.4,594.2125 Q2519.6,594.4125 2519.6,594.7 Q2519.6,594.975 2519.325,595.3 Q2518.925,595.775 2518.2875,596.0375 Q2517.45,596.4 2516.425,596.4 Q2515.225,596.4 2514.2625,595.925 Q2513.4875,595.55 2512.9375,594.7375 Q2512.4,593.925 2512.4,592.9625 L2512.4,592.0875 Q2512.4,591.0875 2512.875,590.2125 Q2513.3625,589.3375 2514.2,588.875 Q2515.05,588.4 2516,588.4 Q2516.575,588.4 2517.075,588.6 Q2517.575,588.8 2518,589.2 Z " fill="#000000"/><text fill="#000000" font-family="sans-serif" font-size="9.6" lengthAdjust="spacing" textLength="48.8" x="2527.6" y="595.9281">Notification</text><line style="stroke:#A80036;stroke-width:1.2000000000000002;" x1="2505.2" x2="2578" y1="604.8" y2="604.8"/><!--MD5=[0a105ea8d9af02dadec02d3e239f1d60]
class NHS--><rect codeLine="26" fill="#FEFECE" filter="url(#fsn4b3kiqdmqy)" height="32" id="NHS" style="stroke:#A80036;stroke-width:1.2000000000000002;" width="46.4" x="2268" y="487.2"/><ellipse cx="2280" cy="500" fill="#ADD1B2" rx="8.8" ry="8.8" style="stroke:#A80036;stroke-width:0.8000000000000002;"/><path d="M2281.6,497.2 Q2281.7625,496.8 2281.95,496.6 Q2282.1375,496.4 2282.35,496.4 Q2282.725,496.4 2282.9625,496.625 Q2283.2,496.85 2283.2,497.375 L2283.2,498.625 Q2283.2,499.15 2282.975,499.375 Q2282.75,499.6 2282.4,499.6 Q2282.0875,499.6 2281.8875,499.4625 Q2281.6875,499.325 2281.6,498.9625 Q2281.5625,498.7125 2281.425,498.575 Q2281.175,498.3125 2280.725,498.1625 Q2280.275,498 2279.825,498 Q2279.2625,498 2278.7875,498.225 Q2278.325,498.45 2277.9625,498.95 Q2277.6,499.45 2277.6,500.1375 L2277.6,500.875 Q2277.6,501.7 2278.275,502.25 Q2278.95,502.8 2280.15,502.8 Q2280.8625,502.8 2281.3625,502.6375 Q2281.65,502.55 2281.975,502.2625 Q2282.1875,502.1 2282.3,502.05 Q2282.4125,502 2282.55,502 Q2282.8125,502 2283,502.2125 Q2283.2,502.4125 2283.2,502.7 Q2283.2,502.975 2282.925,503.3 Q2282.525,503.775 2281.8875,504.0375 Q2281.05,504.4 2280.025,504.4 Q2278.825,504.4 2277.8625,503.925 Q2277.0875,503.55 2276.5375,502.7375 Q2276,501.925 2276,500.9625 L2276,500.0875 Q2276,499.0875 2276.475,498.2125 Q2276.9625,497.3375 2277.8,496.875 Q2278.65,496.4 2279.6,496.4 Q2280.175,496.4 2280.675,496.6 Q2281.175,496.8 2281.6,497.2 Z " fill="#000000"/><text fill="#000000" font-family="sans-serif" font-size="9.6" lengthAdjust="spacing" textLength="20.8" x="2291.2" y="503.9281">NHS</text><line style="stroke:#A80036;stroke-width:1.2000000000000002;" x1="2268.8" x2="2313.6" y1="512.8" y2="512.8"/><!--MD5=[9681492165142af2a4a3a169d90ee8d4]
class Sample--><rect codeLine="215" fill="#FEFECE" filter="url(#fsn4b3kiqdmqy)" height="43.0688" id="Sample" style="stroke:#A80036;stroke-width:1.2000000000000002;" width="60" x="1391.2" y="288.8"/><ellipse cx="1403.2" cy="301.6" fill="#ADD1B2" rx="8.8" ry="8.8" style="stroke:#A80036;stroke-width:0.8000000000000002;"/><path d="M1404.8,298.8 Q1404.9625,298.4 1405.15,298.2 Q1405.3375,298 1405.55,298 Q1405.925,298 1406.1625,298.225 Q1406.4,298.45 1406.4,298.975 L1406.4,300.225 Q1406.4,300.75 1406.175,300.975 Q1405.95,301.2 1405.6,301.2 Q1405.2875,301.2 1405.0875,301.0625 Q1404.8875,300.925 1404.8,300.5625 Q1404.7625,300.3125 1404.625,300.175 Q1404.375,299.9125 1403.925,299.7625 Q1403.475,299.6 1403.025,299.6 Q1402.4625,299.6 1401.9875,299.825 Q1401.525,300.05 1401.1625,300.55 Q1400.8,301.05 1400.8,301.7375 L1400.8,302.475 Q1400.8,303.3 1401.475,303.85 Q1402.15,304.4 1403.35,304.4 Q1404.0625,304.4 1404.5625,304.2375 Q1404.85,304.15 1405.175,303.8625 Q1405.3875,303.7 1405.5,303.65 Q1405.6125,303.6 1405.75,303.6 Q1406.0125,303.6 1406.2,303.8125 Q1406.4,304.0125 1406.4,304.3 Q1406.4,304.575 1406.125,304.9 Q1405.725,305.375 1405.0875,305.6375 Q1404.25,306 1403.225,306 Q1402.025,306 1401.0625,305.525 Q1400.2875,305.15 1399.7375,304.3375 Q1399.2,303.525 1399.2,302.5625 L1399.2,301.6875 Q1399.2,300.6875 1399.675,299.8125 Q1400.1625,298.9375 1401,298.475 Q1401.85,298 1402.8,298 Q1403.375,298 1403.875,298.2 Q1404.375,298.4 1404.8,298.8 Z " fill="#000000"/><text fill="#000000" font-family="sans-serif" font-size="9.6" lengthAdjust="spacing" textLength="34.4" x="1414.4" y="305.5281">Sample</text><line style="stroke:#A80036;stroke-width:1.2000000000000002;" x1="1392" x2="1450.4" y1="314.4" y2="314.4"/><text fill="#000000" font-family="sans-serif" font-size="8.8" lengthAdjust="spacing" textLength="35.2" x="1396" y="326.7352">-barcode</text><!--MD5=[12d76240d3c3c66074d4ec2ea8bf469c]
link Company to Parameter--><path codeLine="29" d="M419.328,594.456 C512.92,581.872 786.008,550.208 1011.2,574.4 C1066.344,580.328 1128.616,596.864 1166.584,608.104 " fill="none" id="Company-Parameter" style="stroke:#A80036;stroke-width:0.8000000000000002;"/><polygon fill="#000000" points="683.9993,558.6137,676.8074,556.1308,676.7215,560.8323,683.9993,558.6137" style="stroke:#000000;stroke-width:0.8000000000000002;"/><text fill="#000000" font-family="sans-serif" font-size="10.4" lengthAdjust="spacing" textLength="94.4" x="687.2" y="562.7961">capable of analysing</text><text fill="#000000" font-family="sans-serif" font-size="10.4" lengthAdjust="spacing" textLength="5.6" x="425.675" y="605.5722">1</text><text fill="#000000" font-family="sans-serif" font-size="10.4" lengthAdjust="spacing" textLength="4" x="1156.4933" y="618.2055">*</text><!--MD5=[09366576ee87d48d594df10cacc83f45]
link Company to Employee--><path codeLine="31" d="M402.336,577.52 C429.56,541.392 484.752,468.16 520.728,420.416 " fill="none" id="Company-Employee" style="stroke:#A80036;stroke-width:0.8000000000000002;"/><polygon fill="#000000" points="444.7927,449.7351,451.0252,445.3712,447.2699,442.5412,444.7927,449.7351" style="stroke:#000000;stroke-width:0.8000000000000002;"/><text fill="#000000" font-family="sans-serif" font-size="10.4" lengthAdjust="spacing" textLength="41.6" x="454.4" y="450.7961">works for</text><text fill="#000000" font-family="sans-serif" font-size="10.4" lengthAdjust="spacing" textLength="5.6" x="400.0512" y="569.0703">1</text><text fill="#000000" font-family="sans-serif" font-size="10.4" lengthAdjust="spacing" textLength="4" x="510.3906" y="440.118">*</text><!--MD5=[b8a4f1f13c2d56b2385b1bfafed8418f]
link Employee to Administrator--><path codeLine="33" d="M574.536,430.048 C592.352,477.544 623.256,545.92 667.2,593.6 C674.976,602.032 685.064,609.264 694.8,615.064 " fill="none" id="Employee-Administrator" style="stroke:#A80036;stroke-width:0.8000000000000002;"/><polygon fill="#000000" points="616.22,511.9869,618.1924,519.3352,622.1349,516.7725,616.22,511.9869" style="stroke:#000000;stroke-width:0.8000000000000002;"/><text fill="#000000" font-family="sans-serif" font-size="10.4" lengthAdjust="spacing" textLength="16.8" x="625.6" y="519.5961">is a</text><text fill="#000000" font-family="sans-serif" font-size="10.4" lengthAdjust="spacing" textLength="4" x="572.2825" y="447.1809">*</text><text fill="#000000" font-family="sans-serif" font-size="10.4" lengthAdjust="spacing" textLength="5.6" x="678.2725" y="606.4815">1</text><!--MD5=[d0b577d991866bb293f65e18071b6be7]
link Employee to ClinicalChemistryTechnologist--><path codeLine="35" d="M590.728,352.176 C684.368,291.672 953.872,132.8 1202,132.8 C1202,132.8 1202,132.8 2204.8,132.8 C2333.744,132.8 2469.464,223.848 2520.136,261.552 " fill="none" id="Employee-ClinicalChemistryTechnologist" style="stroke:#A80036;stroke-width:0.8000000000000002;"/><polygon fill="#000000" points="1509.2044,125.9283,1516.5428,127.9373,1516.3222,123.2402,1509.2044,125.9283" style="stroke:#000000;stroke-width:0.8000000000000002;"/><text fill="#000000" font-family="sans-serif" font-size="10.4" lengthAdjust="spacing" textLength="16.8" x="1520.4" y="129.9961">is a</text><text fill="#000000" font-family="sans-serif" font-size="10.4" lengthAdjust="spacing" textLength="4" x="596.8773" y="360.2519">*</text><text fill="#000000" font-family="sans-serif" font-size="10.4" lengthAdjust="spacing" textLength="4" x="2509.2435" y="252.9953">*</text><!--MD5=[1da12df22706e73e1def33b218b7f412]
link Employee to Receptionist--><path codeLine="37" d="M590.624,385.672 C625.08,395.264 679.912,408 728.4,408 C728.4,408 728.4,408 1079.2,408 C1276.92,408 1325.08,374.4 1522.8,374.4 C1522.8,374.4 1522.8,374.4 2749.2,374.4 C2819.64,374.4 2883.04,441.928 2908.896,473.584 " fill="none" id="Employee-Receptionist" style="stroke:#A80036;stroke-width:0.8000000000000002;"/><polygon fill="#000000" points="1749.2029,367.189,1756.3446,369.8127,1756.5228,365.1138,1749.2029,367.189" style="stroke:#000000;stroke-width:0.8000000000000002;"/><text fill="#000000" font-family="sans-serif" font-size="10.4" lengthAdjust="spacing" textLength="16.8" x="1760.4" y="371.5961">is a</text><text fill="#000000" font-family="sans-serif" font-size="10.4" lengthAdjust="spacing" textLength="4" x="596.7561" y="399.2956">*</text><text fill="#000000" font-family="sans-serif" font-size="10.4" lengthAdjust="spacing" textLength="16" x="2886.6967" y="465.0367">1..*</text><!--MD5=[3960df5b1ea8ecab6ad2804cc08d8583]
link Employee to MedicalLabTechnician--><path codeLine="39" d="M565.216,320.192 C574.984,266.264 592.32,189.256 614.4,168.8 C691.408,97.448 972.624,76 1077.6,76 C1077.6,76 1077.6,76 1422,76 C1473.08,76 1531.048,75.536 1573.568,75.104 " fill="none" id="Employee-MedicalLabTechnician" style="stroke:#A80036;stroke-width:0.8000000000000002;"/><polygon fill="#000000" points="1064.1132,69.8854,1071.6998,70.4609,1070.5892,65.8917,1064.1132,69.8854" style="stroke:#000000;stroke-width:0.8000000000000002;"/><text fill="#000000" font-family="sans-serif" font-size="10.4" lengthAdjust="spacing" textLength="16.8" x="1075.2" y="73.1961">is a</text><text fill="#000000" font-family="sans-serif" font-size="10.4" lengthAdjust="spacing" textLength="4" x="562.0014" y="311.876">*</text><text fill="#000000" font-family="sans-serif" font-size="10.4" lengthAdjust="spacing" textLength="4" x="1563.2649" y="86.6132">*</text><!--MD5=[a0184b63db99e4170c08b50ca520f26e]
link Employee to LaboratoryCoordinator--><path codeLine="41" d="M590.584,370.112 C612.432,366.856 641.392,362.552 667.128,358.72 " fill="none" id="Employee-LaboratoryCoordinator" style="stroke:#A80036;stroke-width:0.8000000000000002;"/><polygon fill="#000000" points="614.4436,355.9295,621.9469,357.1898,621.2547,352.5387,614.4436,355.9295" style="stroke:#000000;stroke-width:0.8000000000000002;"/><text fill="#000000" font-family="sans-serif" font-size="10.4" lengthAdjust="spacing" textLength="16.8" x="625.6" y="359.5961">is a</text><text fill="#000000" font-family="sans-serif" font-size="10.4" lengthAdjust="spacing" textLength="4" x="596.7095" y="381.1585">*</text><text fill="#000000" font-family="sans-serif" font-size="10.4" lengthAdjust="spacing" textLength="16" x="644.8872" y="370.9109">1..*</text><!--MD5=[c3a86c626b5b742f72786125539e9227]
link ClinicalChemistryTechnologist to ChemicalLaboratory--><path codeLine="43" d="M2461.304,275.752 C2286.856,271.888 1857.36,263.328 1497.6,264 C1402.664,264.176 1378.872,261.32 1284,264.8 C1276.24,265.088 1268.064,265.512 1260.024,266 " fill="none" id="ClinicalChemistryTechnologist-ChemicalLaboratory" style="stroke:#A80036;stroke-width:0.8000000000000002;"/><polygon fill="#000000" points="1854.4001,257.7082,1861.6169,260.118,1861.655,255.4158,1854.4001,257.7082" style="stroke:#000000;stroke-width:0.8000000000000002;"/><text fill="#000000" font-family="sans-serif" font-size="10.4" lengthAdjust="spacing" textLength="39.2" x="1865.6" y="261.9961">works at</text><text fill="#000000" font-family="sans-serif" font-size="10.4" lengthAdjust="spacing" textLength="4" x="2451.2604" y="286.8927">*</text><text fill="#000000" font-family="sans-serif" font-size="10.4" lengthAdjust="spacing" textLength="5.6" x="1266.214" y="277.0027">1</text><!--MD5=[738f0445d4a0804ca0738b44323ae22b]
link MedicalLabTechnician to ClinicalAnalysisLaboratory--><path codeLine="45" d="M1697.768,74.712 C1746.856,74.936 1817.448,75.2 1879.2,75.2 C1879.2,75.2 1879.2,75.2 2922.8,75.2 C3087.344,75.2 3122.24,338.992 3129.624,445.648 " fill="none" id="MedicalLabTechnician-ClinicalAnalysisLaboratory" style="stroke:#A80036;stroke-width:0.8000000000000002;"/><polygon fill="#000000" points="2372.2722,69.1437,2365.857,65.0531,2364.6777,69.6051,2372.2722,69.1437" style="stroke:#000000;stroke-width:0.8000000000000002;"/><text fill="#000000" font-family="sans-serif" font-size="10.4" lengthAdjust="spacing" textLength="39.2" x="2375.6" y="72.3961">works at</text><text fill="#000000" font-family="sans-serif" font-size="10.4" lengthAdjust="spacing" textLength="16" x="1704.0173" y="86.1184">1..*</text><text fill="#000000" font-family="sans-serif" font-size="10.4" lengthAdjust="spacing" textLength="4" x="3125.0121" y="437.2016">*</text><!--MD5=[6cd0a3af2322bf46f6c633408da71c74]
link Receptionist to ClinicalAnalysisLaboratory--><path codeLine="47" d="M2962.568,489.6 C2990.488,489.6 3028.584,489.6 3061.544,489.6 " fill="none" id="Receptionist-ClinicalAnalysisLaboratory" style="stroke:#A80036;stroke-width:0.8000000000000002;"/><polygon fill="#000000" points="2994.4,482.5406,2987.1639,480.1895,2987.1639,484.8918,2994.4,482.5406" style="stroke:#000000;stroke-width:0.8000000000000002;"/><text fill="#000000" font-family="sans-serif" font-size="10.4" lengthAdjust="spacing" textLength="39.2" x="2997.6" y="486.7961">works at</text><text fill="#000000" font-family="sans-serif" font-size="10.4" lengthAdjust="spacing" textLength="16" x="2968.7908" y="501.2341">1..*</text><text fill="#000000" font-family="sans-serif" font-size="10.4" lengthAdjust="spacing" textLength="4" x="3051.2829" y="500.952">*</text><!--MD5=[4d5641458326529fdf5c82259a5ad32d]
link LaboratoryCoordinator to Laboratory--><path codeLine="49" d="M775.488,333.576 C817.96,318.608 880.456,296.592 919.336,282.896 " fill="none" id="LaboratoryCoordinator-Laboratory" style="stroke:#A80036;stroke-width:0.8000000000000002;"/><polygon fill="#000000" points="823.3727,289.2114,815.7665,289.3984,817.3291,293.8335,823.3727,289.2114" style="stroke:#000000;stroke-width:0.8000000000000002;"/><text fill="#000000" font-family="sans-serif" font-size="10.4" lengthAdjust="spacing" textLength="48" x="826.8" y="294.7961">works at a</text><text fill="#000000" font-family="sans-serif" font-size="10.4" lengthAdjust="spacing" textLength="16" x="770.7351" y="325.0264">1..*</text><text fill="#000000" font-family="sans-serif" font-size="10.4" lengthAdjust="spacing" textLength="4" x="909.2377" y="296.7261">*</text><!--MD5=[de3aa179ee7f21b344f648244b25a961]
link ChemicalLaboratory to Company--><path codeLine="51" d="M1151.6,232.264 C1045.28,156.832 793.12,4.8 614.4,112 C439.56,216.872 396.832,497.04 388.032,577.384 " fill="none" id="ChemicalLaboratory-Company" style="stroke:#A80036;stroke-width:0.8000000000000002;"/><polygon fill="#000000" points="718.845,65.6932,711.2828,66.531,713.2195,70.8159,718.845,65.6932" style="stroke:#000000;stroke-width:0.8000000000000002;"/><text fill="#000000" font-family="sans-serif" font-size="10.4" lengthAdjust="spacing" textLength="24" x="722.4" y="71.5961">owns</text><text fill="#000000" font-family="sans-serif" font-size="10.4" lengthAdjust="spacing" textLength="5.6" x="1138.0688" y="223.7193">1</text><text fill="#000000" font-family="sans-serif" font-size="10.4" lengthAdjust="spacing" textLength="5.6" x="382.4394" y="568.9028">1</text><!--MD5=[47855ee4dabeea37c5949a17ed9e3a41]
link ChemicalLaboratory to Sample--><path codeLine="53" d="M1260.28,280.856 C1302.184,288.592 1357.552,298.808 1390.992,304.976 " fill="none" id="ChemicalLaboratory-Sample" style="stroke:#A80036;stroke-width:0.8000000000000002;"/><polygon fill="#000000" points="1292.8664,277.8148,1299.5557,281.44,1300.409,276.8157,1292.8664,277.8148" style="stroke:#000000;stroke-width:0.8000000000000002;"/><text fill="#000000" font-family="sans-serif" font-size="10.4" lengthAdjust="spacing" textLength="31.2" x="1304" y="282.7961">is sent</text><text fill="#000000" font-family="sans-serif" font-size="10.4" lengthAdjust="spacing" textLength="5.6" x="1266.4964" y="293.3907">1</text><text fill="#000000" font-family="sans-serif" font-size="10.4" lengthAdjust="spacing" textLength="4" x="1380.8524" y="315.9975">*</text><!--MD5=[fdfe1f7a1d4f9a6f0814f21c5f7b0d38]
link ClinicalAnalysisLaboratory to Company--><path codeLine="55" d="M3129.592,533.472 C3122.136,639.912 3087.096,903.2 2922.8,903.2 C1762.8,903.2 1762.8,903.2 1762.8,903.2 C1692.72,903.2 588.256,701.408 520.8,682.4 C485.144,672.352 474.592,671.656 443.2,652 C429.568,643.464 416.248,631.456 405.904,621.048 " fill="none" id="ClinicalAnalysisLaboratory-Company" style="stroke:#A80036;stroke-width:0.8000000000000002;"/><polygon fill="#000000" points="1753.5979,891.2121,1746.29,889.0947,1746.4412,893.7945,1753.5979,891.2121" style="stroke:#000000;stroke-width:0.8000000000000002;"/><text fill="#000000" font-family="sans-serif" font-size="10.4" lengthAdjust="spacing" textLength="24" x="1756.8" y="895.5961">owns</text><text fill="#000000" font-family="sans-serif" font-size="10.4" lengthAdjust="spacing" textLength="4" x="3125.006" y="550.4034">*</text><text fill="#000000" font-family="sans-serif" font-size="10.4" lengthAdjust="spacing" textLength="5.6" x="403.9967" y="637.7128">1</text><!--MD5=[6495f60a88b066bf0994b6815c6a96c6]
link Laboratory to ChemicalLaboratory--><path codeLine="57" d="M991.848,270.4 C1032.032,270.4 1098.088,270.4 1145.424,270.4 " fill="none" id="Laboratory-ChemicalLaboratory" style="stroke:#A80036;stroke-width:0.8000000000000002;"/><polygon fill="#000000" points="1064,263.3406,1071.2361,265.6918,1071.2361,260.9895,1064,263.3406" style="stroke:#000000;stroke-width:0.8000000000000002;"/><text fill="#000000" font-family="sans-serif" font-size="10.4" lengthAdjust="spacing" textLength="16.8" x="1075.2" y="267.5961">is a</text><text fill="#000000" font-family="sans-serif" font-size="10.4" lengthAdjust="spacing" textLength="5.6" x="998.0713" y="282.2385">1</text><text fill="#000000" font-family="sans-serif" font-size="10.4" lengthAdjust="spacing" textLength="5.6" x="1133.6184" y="281.8564">1</text><!--MD5=[98f82590f5f631bfe55e6520882022d0]
link Laboratory to ClinicalAnalysisLaboratory--><path codeLine="59" d="M991.8,256.872 C1055.28,233.872 1193.112,189.6 1313.6,189.6 C1313.6,189.6 1313.6,189.6 2922.8,189.6 C3046.224,189.6 3102.632,362.776 3122.608,445.976 " fill="none" id="Laboratory-ClinicalAnalysisLaboratory" style="stroke:#A80036;stroke-width:0.8000000000000002;"/><polygon fill="#000000" points="2080.8157,182.187,2087.8156,185.1686,2088.2312,180.4848,2080.8157,182.187" style="stroke:#000000;stroke-width:0.8000000000000002;"/><text fill="#000000" font-family="sans-serif" font-size="10.4" lengthAdjust="spacing" textLength="16.8" x="2092" y="186.7961">is a</text><text fill="#000000" font-family="sans-serif" font-size="10.4" lengthAdjust="spacing" textLength="5.6" x="998.0156" y="266.5545">1</text><text fill="#000000" font-family="sans-serif" font-size="10.4" lengthAdjust="spacing" textLength="5.6" x="3115.316" y="437.2594">1</text><!--MD5=[7144ffdeebbe38808f7fb2ce8ac24f7d]
link Administrator to ParameterCategory--><path codeLine="61" d="M771.232,629.296 C807.36,627.624 860.144,625.176 899.848,623.344 " fill="none" id="Administrator-ParameterCategory" style="stroke:#A80036;stroke-width:0.8000000000000002;"/><polygon fill="#000000" points="815.2043,617.1255,822.5413,619.1397,822.3239,614.4424,815.2043,617.1255" style="stroke:#000000;stroke-width:0.8000000000000002;"/><text fill="#000000" font-family="sans-serif" font-size="10.4" lengthAdjust="spacing" textLength="48.8" x="826.4" y="621.1961">created by</text><text fill="#000000" font-family="sans-serif" font-size="10.4" lengthAdjust="spacing" textLength="5.6" x="777.5365" y="640.7441">1</text><text fill="#000000" font-family="sans-serif" font-size="10.4" lengthAdjust="spacing" textLength="4" x="889.5314" y="635.1553">*</text><!--MD5=[49f9c994ab9013da19f25c37bbd596b3]
link SpecialistDoctor to Result--><path codeLine="63" d="M2144.032,570.472 C2151.968,572.44 2160.16,574.128 2168,575.2 C2199.704,579.52 2208.008,575.96 2240,575.2 C2247.792,575.016 2256.264,574.664 2263.992,574.296 " fill="none" id="SpecialistDoctor-Result" style="stroke:#A80036;stroke-width:0.8000000000000002;"/><polygon fill="#000000" points="2170.002,568.0132,2177.1595,570.5937,2177.3093,565.8938,2170.002,568.0132" style="stroke:#000000;stroke-width:0.8000000000000002;"/><text fill="#000000" font-family="sans-serif" font-size="10.4" lengthAdjust="spacing" textLength="56" x="2181.2" y="572.3961">analyzed by</text><text fill="#000000" font-family="sans-serif" font-size="10.4" lengthAdjust="spacing" textLength="5.6" x="2150.3247" y="583.9345">1</text><text fill="#000000" font-family="sans-serif" font-size="10.4" lengthAdjust="spacing" textLength="5.6" x="2251.8278" y="571.2501">1</text><!--MD5=[98994e1502641fa381021dffe882d56a]
link ClinicalChemistryTechnologist to Sample--><path codeLine="65" d="M2461.536,279.92 C2235.728,286.544 1596.064,305.296 1451.352,309.536 " fill="none" id="ClinicalChemistryTechnologist-Sample" style="stroke:#A80036;stroke-width:0.8000000000000002;"/><polygon fill="#000000" points="1962.3983,285.6234,1955.0964,283.4853,1955.2342,288.1856,1962.3983,285.6234" style="stroke:#000000;stroke-width:0.8000000000000002;"/><text fill="#000000" font-family="sans-serif" font-size="10.4" lengthAdjust="spacing" textLength="56" x="1965.6" y="289.9961">analyzed by</text><text fill="#000000" font-family="sans-serif" font-size="10.4" lengthAdjust="spacing" textLength="4" x="2451.253" y="277.6145">*</text><text fill="#000000" font-family="sans-serif" font-size="10.4" lengthAdjust="spacing" textLength="16" x="1457.6709" y="321.2832">1..*</text><!--MD5=[502b51bc079239060389dab43b7d3470]
link Client to Test--><path codeLine="67" d="M2719.528,722.888 C2711.776,734.488 2702.352,745.512 2691.2,753.6 C2636.104,793.528 2610.44,789.6 2542.4,789.6 C2203.2,789.6 2203.2,789.6 2203.2,789.6 C2009.512,789.6 1793.752,697.216 1693.44,648.496 " fill="none" id="Client-Test" style="stroke:#A80036;stroke-width:0.8000000000000002;"/><polygon fill="#000000" points="2175.9895,782.0299,2168.9424,779.1616,2168.6024,783.8516,2175.9895,782.0299" style="stroke:#000000;stroke-width:0.8000000000000002;"/><text fill="#000000" font-family="sans-serif" font-size="10.4" lengthAdjust="spacing" textLength="60" x="2179.2" y="785.9961">requested by</text><text fill="#000000" font-family="sans-serif" font-size="10.4" lengthAdjust="spacing" textLength="5.6" x="2711.1072" y="739.665">1</text><text fill="#000000" font-family="sans-serif" font-size="10.4" lengthAdjust="spacing" textLength="4" x="1699.611" y="663.0006">*</text><!--MD5=[7048eb257bae2750d747ca61a113ed73]
link Client to Receptionist--><path codeLine="69" d="M2781.752,629.696 C2818.568,592.712 2877.032,533.976 2905.112,505.768 " fill="none" id="Client-Receptionist" style="stroke:#A80036;stroke-width:0.8000000000000002;"/><polygon fill="#000000" points="2806.7781,550.9755,2813.5493,547.5058,2810.2167,544.1884,2806.7781,550.9755" style="stroke:#000000;stroke-width:0.8000000000000002;"/><text fill="#000000" font-family="sans-serif" font-size="10.4" lengthAdjust="spacing" textLength="40" x="2816.8" y="552.3961">registers</text><text fill="#000000" font-family="sans-serif" font-size="10.4" lengthAdjust="spacing" textLength="4" x="2788.0491" y="635.854">*</text><text fill="#000000" font-family="sans-serif" font-size="10.4" lengthAdjust="spacing" textLength="16" x="2882.4234" y="522.667">1..*</text><!--MD5=[b097d9d314264888b7dbeddc95343863]
link LabOrder to Client--><path codeLine="71" d="M69.032,839.328 C102.048,856.12 158.056,880 209.6,880 C209.6,880 209.6,880 1315.2,880 C1715.256,880 1803.144,732.8 2203.2,732.8 C2203.2,732.8 2203.2,732.8 2542.4,732.8 C2606.24,732.8 2675.496,701.936 2715.016,681.08 " fill="none" id="LabOrder-Client" style="stroke:#A80036;stroke-width:0.8000000000000002;"/><polygon fill="#000000" points="1291.9929,872.7018,1284.6293,870.7869,1284.9101,875.4808,1291.9929,872.7018" style="stroke:#000000;stroke-width:0.8000000000000002;"/><text fill="#000000" font-family="sans-serif" font-size="10.4" lengthAdjust="spacing" textLength="48.8" x="1295.2" y="877.1961">brought by</text><text fill="#000000" font-family="sans-serif" font-size="10.4" lengthAdjust="spacing" textLength="5.6" x="71.0348" y="856.4996">1</text><text fill="#000000" font-family="sans-serif" font-size="10.4" lengthAdjust="spacing" textLength="4" x="2704.7132" y="696.3908">*</text><!--MD5=[727b58dfd932e2fbda2a273f174e2308]
link LabOrder to Receptionist--><path codeLine="73" d="M49.592,839.432 C72.376,875.664 133.56,960 209.6,960 C209.6,960 209.6,960 2669.2,960 C2879.976,960 2915.144,588.504 2920.36,505.792 " fill="none" id="LabOrder-Receptionist" style="stroke:#A80036;stroke-width:0.8000000000000002;"/><polygon fill="#000000" points="1396.4267,953.4024,1403.8859,954.9025,1403.343,950.2316,1396.4267,953.4024" style="stroke:#000000;stroke-width:0.8000000000000002;"/><text fill="#000000" font-family="sans-serif" font-size="10.4" lengthAdjust="spacing" textLength="37.6" x="1407.6" y="957.1961">receives</text><text fill="#000000" font-family="sans-serif" font-size="10.4" lengthAdjust="spacing" textLength="5.6" x="46.0324" y="856.3482">1</text><text fill="#000000" font-family="sans-serif" font-size="10.4" lengthAdjust="spacing" textLength="16" x="2922.0693" y="522.6975">1..*</text><!--MD5=[84a279e28ad6c3248737114c29c49c27]
link LabOrder to Test--><path codeLine="75" d="M40.536,807.072 C43.672,740.272 65.088,488.8 209.6,488.8 C209.6,488.8 209.6,488.8 846.4,488.8 C1123.872,488.8 1448.992,568.392 1577.96,603.208 " fill="none" id="LabOrder-Test" style="stroke:#A80036;stroke-width:0.8000000000000002;"/><polygon fill="#000000" points="692.4347,482.2664,699.917,483.646,699.2989,478.9845,692.4347,482.2664" style="stroke:#000000;stroke-width:0.8000000000000002;"/><text fill="#000000" font-family="sans-serif" font-size="10.4" lengthAdjust="spacing" textLength="61.6" x="703.6" y="485.9961">is associated</text><text fill="#000000" font-family="sans-serif" font-size="10.4" lengthAdjust="spacing" textLength="5.6" x="34.506" y="798.4918">1</text><text fill="#000000" font-family="sans-serif" font-size="10.4" lengthAdjust="spacing" textLength="5.6" x="1566.1271" y="613.0423">1</text><!--MD5=[fba3ac294f3c76c431d275cef443fef8]
link LabOrder to TestType--><path codeLine="77" d="M72.824,829.784 C94.72,832.776 123.824,834.016 148,825.6 C158.048,822.104 167.696,816.208 176.248,809.696 " fill="none" id="LabOrder-TestType" style="stroke:#A80036;stroke-width:0.8000000000000002;"/><polygon fill="#000000" points="104.7266,817.778,97.175,816.8496,98.0716,821.4656,104.7266,817.778" style="stroke:#000000;stroke-width:0.8000000000000002;"/><text fill="#000000" font-family="sans-serif" font-size="10.4" lengthAdjust="spacing" textLength="39.2" x="108" y="822.7961">contains</text><text fill="#000000" font-family="sans-serif" font-size="10.4" lengthAdjust="spacing" textLength="5.6" x="79.312" y="842.9179">1</text><text fill="#000000" font-family="sans-serif" font-size="10.4" lengthAdjust="spacing" textLength="5.6" x="165.2207" y="826.3133">1</text><!--MD5=[df02e8987f6870a0052669ffdc0b53df]
link TestType to LabOrder--><path codeLine="103" d="M171.76,787.152 C142.088,795.272 101.224,806.448 72.904,814.2 " fill="none" id="TestType-LabOrder" style="stroke:#A80036;stroke-width:0.8000000000000002;"/><polygon fill="#000000" points="104.6582,786.285,97.0582,785.9269,98.2991,790.4624,104.6582,786.285" style="stroke:#000000;stroke-width:0.8000000000000002;"/><text fill="#000000" font-family="sans-serif" font-size="10.4" lengthAdjust="spacing" textLength="39.2" x="108" y="791.5961">contains</text><text fill="#000000" font-family="sans-serif" font-size="10.4" lengthAdjust="spacing" textLength="5.6" x="160.0735" y="800.4581">1</text><text fill="#000000" font-family="sans-serif" font-size="10.4" lengthAdjust="spacing" textLength="5.6" x="79.1781" y="824.5734">1</text><!--MD5=[8a0bab72ab0281f8a9e78a6f98e5652c]
link Result to ClinicalChemistryTechnologist--><path codeLine="79" d="M2305.552,556.72 C2348.856,505.344 2483.552,345.528 2527.08,293.88 " fill="none" id="Result-ClinicalChemistryTechnologist" style="stroke:#A80036;stroke-width:0.8000000000000002;"/><polygon fill="#000000" points="2365.4222,403.1992,2371.8833,399.1814,2368.2877,396.151,2365.4222,403.1992" style="stroke:#000000;stroke-width:0.8000000000000002;"/><text fill="#000000" font-family="sans-serif" font-size="10.4" lengthAdjust="spacing" textLength="40" x="2375.2" y="404.3961">registers</text><text fill="#000000" font-family="sans-serif" font-size="10.4" lengthAdjust="spacing" textLength="4" x="2305.1804" y="548.1539">*</text><text fill="#000000" font-family="sans-serif" font-size="10.4" lengthAdjust="spacing" textLength="16" x="2505.0278" y="310.8091">1..*</text><!--MD5=[d14b4c18c397fa0293924715644730ec]
link Result to Notification--><path codeLine="81" d="M2318.624,575.2 C2363.376,579.224 2453.736,587.36 2504.344,591.92 " fill="none" id="Result-Notification" style="stroke:#A80036;stroke-width:0.8000000000000002;"/><polygon fill="#000000" points="2350.3839,570.8993,2343.3878,567.9088,2342.9662,572.5921,2350.3839,570.8993" style="stroke:#000000;stroke-width:0.8000000000000002;"/><text fill="#000000" font-family="sans-serif" font-size="10.4" lengthAdjust="spacing" textLength="83.2" x="2353.6" y="574.7961">is associated with</text><text fill="#000000" font-family="sans-serif" font-size="10.4" lengthAdjust="spacing" textLength="4" x="2324.6927" y="587.8401">*</text><text fill="#000000" font-family="sans-serif" font-size="10.4" lengthAdjust="spacing" textLength="16" x="2481.9799" y="603.1746">1..*</text><!--MD5=[e509fed78cd7f855333fe9c80fc7ea15]
link DiagnosisReport to SpecialistDoctor--><path codeLine="83" d="M1930.608,558.264 C1965.496,557.616 2011.856,556.744 2046.352,556.096 " fill="none" id="DiagnosisReport-SpecialistDoctor" style="stroke:#A80036;stroke-width:0.8000000000000002;"/><polygon fill="#000000" points="1962.4007,549.0155,1969.6795,551.2307,1969.5915,546.5293,1962.4007,549.0155" style="stroke:#000000;stroke-width:0.8000000000000002;"/><text fill="#000000" font-family="sans-serif" font-size="10.4" lengthAdjust="spacing" textLength="40" x="1973.6" y="553.1961">registers</text><text fill="#000000" font-family="sans-serif" font-size="10.4" lengthAdjust="spacing" textLength="5.6" x="1936.7833" y="569.7081">1</text><text fill="#000000" font-family="sans-serif" font-size="10.4" lengthAdjust="spacing" textLength="5.6" x="2034.4574" y="567.8064">1</text><!--MD5=[91dc3644f358c08f88b60791b947d3a3]
link DiagnosisReport to Client--><path codeLine="85" d="M1898.68,575.24 C1912.744,586.808 1933.408,601.608 1954.4,608.8 C2235.44,705.136 2604.648,677.368 2715.064,666.08 " fill="none" id="DiagnosisReport-Client" style="stroke:#A80036;stroke-width:0.8000000000000002;"/><text fill="#000000" font-family="sans-serif" font-size="10.4" lengthAdjust="spacing" textLength="43.2" x="2269.6" y="666.7961">is sent to</text><text fill="#000000" font-family="sans-serif" font-size="10.4" lengthAdjust="spacing" textLength="5.6" x="1897.5463" y="592.3869">1</text><text fill="#000000" font-family="sans-serif" font-size="10.4" lengthAdjust="spacing" textLength="5.6" x="2703.2531" y="678.6542">1</text><!--MD5=[e83232b12920152899b3d956169a0d16]
link DiagnosisReport to LaboratoryCoordinator--><path codeLine="87" d="M1839.864,543.12 C1778.8,518.824 1657.032,473.032 1549.6,448.8 C1270.664,385.888 928.728,360.784 791.384,352.768 " fill="none" id="DiagnosisReport-LaboratoryCoordinator" style="stroke:#A80036;stroke-width:0.8000000000000002;"/><polygon fill="#000000" points="1296.3357,395.2551,1289.636,391.6492,1288.796,396.2759,1296.3357,395.2551" style="stroke:#000000;stroke-width:0.8000000000000002;"/><text fill="#000000" font-family="sans-serif" font-size="10.4" lengthAdjust="spacing" textLength="40" x="1299.6" y="398.7961">validates</text><text fill="#000000" font-family="sans-serif" font-size="10.4" lengthAdjust="spacing" textLength="4" x="1823.4866" y="534.5539">*</text><text fill="#000000" font-family="sans-serif" font-size="10.4" lengthAdjust="spacing" textLength="5.6" x="797.5778" y="364.4894">1</text><!--MD5=[b25b37dde2866fd853924cb818679535]
link NHSReport to Result--><path codeLine="89" d="M2133.256,505.544 C2171.512,521.92 2230.088,546.992 2263.88,561.448 " fill="none" id="NHSReport-Result" style="stroke:#A80036;stroke-width:0.8000000000000002;"/><polygon fill="#000000" points="2175.5226,512.1668,2181.25,517.1754,2183.1001,512.8524,2175.5226,512.1668" style="stroke:#000000;stroke-width:0.8000000000000002;"/><text fill="#000000" font-family="sans-serif" font-size="10.4" lengthAdjust="spacing" textLength="45.6" x="2186.4" y="517.9961">generates</text><text fill="#000000" font-family="sans-serif" font-size="10.4" lengthAdjust="spacing" textLength="16" x="2139.7326" y="519.502">1..*</text><text fill="#000000" font-family="sans-serif" font-size="10.4" lengthAdjust="spacing" textLength="5.6" x="2252.0678" y="555.8117">1</text><!--MD5=[5853f8747c18e89b10dd024359cfe8ec]
link NHSReport to NHS--><path codeLine="91" d="M2133.256,492.208 C2173.056,494.992 2234.848,499.312 2267.84,501.624 " fill="none" id="NHSReport-NHS" style="stroke:#A80036;stroke-width:0.8000000000000002;"/><polygon fill="#000000" points="2184.3902,487.6198,2177.3359,484.7694,2177.0077,489.4602,2184.3902,487.6198" style="stroke:#000000;stroke-width:0.8000000000000002;"/><text fill="#000000" font-family="sans-serif" font-size="10.4" lengthAdjust="spacing" textLength="43.2" x="2187.6" y="491.5961">is sent to</text><text fill="#000000" font-family="sans-serif" font-size="10.4" lengthAdjust="spacing" textLength="16" x="2139.7326" y="504.2906">1..*</text><text fill="#000000" font-family="sans-serif" font-size="10.4" lengthAdjust="spacing" textLength="5.6" x="2255.8635" y="513.6302">1</text><!--MD5=[7a9e3e328fb1db48284e23a673c1e60d]
link ParameterCategory to Parameter--><path codeLine="93" d="M1011.208,620.44 C1058.712,620.136 1126.032,619.696 1166.704,619.432 " fill="none" id="ParameterCategory-Parameter" style="stroke:#A80036;stroke-width:0.8000000000000002;"/><polygon fill="#000000" points="1035.2001,612.1666,1042.4512,614.4707,1042.4208,609.7686,1035.2001,612.1666" style="stroke:#000000;stroke-width:0.8000000000000002;"/><text fill="#000000" font-family="sans-serif" font-size="10.4" lengthAdjust="spacing" textLength="74.4" x="1046.4" y="616.3961">presented under</text><text fill="#000000" font-family="sans-serif" font-size="10.4" lengthAdjust="spacing" textLength="5.6" x="1017.5964" y="631.9336">1</text><text fill="#000000" font-family="sans-serif" font-size="10.4" lengthAdjust="spacing" textLength="4" x="1156.3944" y="631.3824">*</text><!--MD5=[4265453a012991a726928e22789b8a83]
link Parameter to Test--><path codeLine="95" d="M1238.888,619.2 C1313.408,619.2 1487.392,619.2 1577.872,619.2 " fill="none" id="Parameter-Test" style="stroke:#A80036;stroke-width:0.8000000000000002;"/><polygon fill="#000000" points="1368.8,612.1406,1376.0361,614.4918,1376.0361,609.7895,1368.8,612.1406" style="stroke:#000000;stroke-width:0.8000000000000002;"/><text fill="#000000" font-family="sans-serif" font-size="10.4" lengthAdjust="spacing" textLength="92.8" x="1380" y="616.3961">requests analysis of</text><text fill="#000000" font-family="sans-serif" font-size="10.4" lengthAdjust="spacing" textLength="16" x="1245.0879" y="630.9436">1..*</text><text fill="#000000" font-family="sans-serif" font-size="10.4" lengthAdjust="spacing" textLength="4" x="1567.7126" y="630.6835">*</text><!--MD5=[6d9eb9a083ac0654c8b63743033752d3]
link TestType to Company--><path codeLine="97" d="M243.368,743.808 C278.392,707.896 333.392,651.504 363.304,620.832 " fill="none" id="TestType-Company" style="stroke:#A80036;stroke-width:0.8000000000000002;"/><polygon fill="#000000" points="274.0072,657.4042,280.7426,653.8655,277.3762,650.5824,274.0072,657.4042" style="stroke:#000000;stroke-width:0.8000000000000002;"/><text fill="#000000" font-family="sans-serif" font-size="10.4" lengthAdjust="spacing" textLength="42.4" x="284" y="658.7961">conducts</text><text fill="#000000" font-family="sans-serif" font-size="10.4" lengthAdjust="spacing" textLength="4" x="244.4971" y="735.3357">*</text><text fill="#000000" font-family="sans-serif" font-size="10.4" lengthAdjust="spacing" textLength="5.6" x="352.3018" y="637.8052">1</text><!--MD5=[c2c6b28b052a3fe86d789b83a09b2815]
link TestType to Test--><path codeLine="99" d="M248.944,793.032 C283.52,806.408 336.464,823.2 384.4,823.2 C384.4,823.2 384.4,823.2 1079.2,823.2 C1296.632,823.2 1360.8,796.648 1549.6,688.8 C1559.136,683.352 1568.688,676.84 1577.768,670.016 " fill="none" id="TestType-Test" style="stroke:#A80036;stroke-width:0.8000000000000002;"/><polygon fill="#000000" points="830.017,816.5093,837.439,818.1835,837.0056,813.5012,830.017,816.5093" style="stroke:#000000;stroke-width:0.8000000000000002;"/><text fill="#000000" font-family="sans-serif" font-size="10.4" lengthAdjust="spacing" textLength="19.2" x="841.2" y="820.3961">is of</text><text fill="#000000" font-family="sans-serif" font-size="10.4" lengthAdjust="spacing" textLength="5.6" x="255.2748" y="807.3453">1</text><text fill="#000000" font-family="sans-serif" font-size="10.4" lengthAdjust="spacing" textLength="4" x="1567.5978" y="686.7399">*</text><!--MD5=[0985ee834cc881275852ed47ce1e01f6]
link TestType to Administrator--><path codeLine="101" d="M248.816,766.208 C343.072,739.672 588.848,670.488 687.016,642.848 " fill="none" id="TestType-Administrator" style="stroke:#A80036;stroke-width:0.8000000000000002;"/><polygon fill="#000000" points="446.9497,690.8246,454.5521,691.1269,453.2779,686.6005,446.9497,690.8246" style="stroke:#000000;stroke-width:0.8000000000000002;"/><text fill="#000000" font-family="sans-serif" font-size="10.4" lengthAdjust="spacing" textLength="34.4" x="458" y="693.9961">creates</text><text fill="#000000" font-family="sans-serif" font-size="10.4" lengthAdjust="spacing" textLength="4" x="255.2573" y="776.3898">*</text><text fill="#000000" font-family="sans-serif" font-size="10.4" lengthAdjust="spacing" textLength="5.6" x="675.0901" y="656.2019">1</text><!--MD5=[9163865a413f55935f47e026f9eaa033]
link Test to Result--><path codeLine="105" d="M1693.528,616.568 C1787.52,612.128 1980.672,602.504 2144,591.2 C2186.712,588.24 2197.624,589.312 2240,583.2 C2247.784,582.08 2256.168,580.496 2263.824,578.904 " fill="none" id="Test-Result" style="stroke:#A80036;stroke-width:0.8000000000000002;"/><polygon fill="#000000" points="1977.5913,591.077,1970.216,589.2078,1970.5259,593.8999,1977.5913,591.077" style="stroke:#000000;stroke-width:0.8000000000000002;"/><text fill="#000000" font-family="sans-serif" font-size="10.4" lengthAdjust="spacing" textLength="25.6" x="1980.8" y="595.5961">has a</text><text fill="#000000" font-family="sans-serif" font-size="10.4" lengthAdjust="spacing" textLength="5.6" x="1699.5059" y="627.7612">1</text><text fill="#000000" font-family="sans-serif" font-size="10.4" lengthAdjust="spacing" textLength="5.6" x="2252.0002" y="592.308">1</text><!--MD5=[150ee6e4dbb30ab82336f9e174f6c4ed]
link Test to Company--><path codeLine="107" d="M1577.856,651.88 C1536.104,672.784 1477.28,696 1422,696 C728.4,696 728.4,696 728.4,696 C611.184,696 479.616,642.816 419.376,615.296 " fill="none" id="Test-Company" style="stroke:#A80036;stroke-width:0.8000000000000002;"/><polygon fill="#000000" points="937.598,689.0669,930.4398,686.4885,930.2913,691.1885,937.598,689.0669" style="stroke:#000000;stroke-width:0.8000000000000002;"/><text fill="#000000" font-family="sans-serif" font-size="10.4" lengthAdjust="spacing" textLength="40" x="940.8" y="693.1961">performs</text><text fill="#000000" font-family="sans-serif" font-size="10.4" lengthAdjust="spacing" textLength="4" x="1567.6949" y="666.7336">*</text><text fill="#000000" font-family="sans-serif" font-size="10.4" lengthAdjust="spacing" textLength="5.6" x="425.5002" y="629.8522">1</text><!--MD5=[ca29482912e344ebd5dc9db2d1c2ccab]
link Test to ClinicalAnalysisLaboratory--><path codeLine="109" d="M1687.712,679.784 C1750.792,747.088 1864.696,846.4 1987.6,846.4 C1987.6,846.4 1987.6,846.4 2922.8,846.4 C3066.344,846.4 3113.04,628.624 3126.6,533.352 " fill="none" id="Test-ClinicalAnalysisLaboratory" style="stroke:#A80036;stroke-width:0.8000000000000002;"/><polygon fill="#000000" points="2364.0206,839.7456,2371.4575,841.3521,2370.9814,836.6739,2364.0206,839.7456" style="stroke:#000000;stroke-width:0.8000000000000002;"/><text fill="#000000" font-family="sans-serif" font-size="10.4" lengthAdjust="spacing" textLength="40" x="2375.2" y="843.5961">performs</text><text fill="#000000" font-family="sans-serif" font-size="10.4" lengthAdjust="spacing" textLength="4" x="1688.1751" y="696.5695">*</text><text fill="#000000" font-family="sans-serif" font-size="10.4" lengthAdjust="spacing" textLength="4" x="3121.6006" y="550.5826">*</text><!--MD5=[10af4306acabee641eea198ac06587b8]
link Test to Receptionist--><path codeLine="111" d="M1693.432,574.072 C1702.544,568.016 1712.112,562.288 1721.6,557.6 C1919.992,459.568 1981.904,431.2 2203.2,431.2 C2203.2,431.2 2203.2,431.2 2749.2,431.2 C2802.024,431.2 2859.352,456.2 2892.68,473.488 " fill="none" id="Test-Receptionist" style="stroke:#A80036;stroke-width:0.8000000000000002;"/><polygon fill="#000000" points="2265.214,424.4749,2272.6213,426.2131,2272.2282,421.5272,2265.214,424.4749" style="stroke:#000000;stroke-width:0.8000000000000002;"/><text fill="#000000" font-family="sans-serif" font-size="10.4" lengthAdjust="spacing" textLength="40" x="2276.4" y="428.3961">registers</text><text fill="#000000" font-family="sans-serif" font-size="10.4" lengthAdjust="spacing" textLength="4" x="1699.6022" y="580.9017">*</text><text fill="#000000" font-family="sans-serif" font-size="10.4" lengthAdjust="spacing" textLength="16" x="2865.7173" y="464.9125">1..*</text><!--MD5=[5fda545c79585d17c4a435a79f76ac33]
link Test to DiagnosisReport--><path codeLine="113" d="M1693.328,605.136 C1734.608,594.936 1789.896,581.272 1829.416,571.504 " fill="none" id="Test-DiagnosisReport" style="stroke:#A80036;stroke-width:0.8000000000000002;"/><polygon fill="#000000" points="1721.7168,572.3003,1729.3056,572.8467,1728.1775,568.2818,1721.7168,572.3003" style="stroke:#000000;stroke-width:0.8000000000000002;"/><text fill="#000000" font-family="sans-serif" font-size="10.4" lengthAdjust="spacing" textLength="72" x="1732.8" y="575.5961">associated with</text><text fill="#000000" font-family="sans-serif" font-size="10.4" lengthAdjust="spacing" textLength="5.6" x="1699.57" y="601.0491">1</text><text fill="#000000" font-family="sans-serif" font-size="10.4" lengthAdjust="spacing" textLength="5.6" x="1817.6435" y="584.479">1</text><!--MD5=[1ae83efc6d1967ce5bc17dfe294d00c2]
link Sample to Test--><path codeLine="115" d="M1436.944,332.008 C1460.792,366.496 1508.904,436.12 1549.6,495.2 C1563.824,515.848 1579.36,538.448 1593.224,558.632 " fill="none" id="Sample-Test" style="stroke:#A80036;stroke-width:0.8000000000000002;"/><polygon fill="#000000" points="1501.3292,413.6477,1503.5016,420.9394,1507.3727,418.2699,1501.3292,413.6477" style="stroke:#000000;stroke-width:0.8000000000000002;"/><text fill="#000000" font-family="sans-serif" font-size="10.4" lengthAdjust="spacing" textLength="36" x="1510.8" y="421.1961">collects</text><text fill="#000000" font-family="sans-serif" font-size="10.4" lengthAdjust="spacing" textLength="4" x="1435.9505" y="348.976">*</text><text fill="#000000" font-family="sans-serif" font-size="10.4" lengthAdjust="spacing" textLength="5.6" x="1583.177" y="550.0621">1</text><!--MD5=[cb5e86f6614a99551e1d9ce6f0ae5849]
link Sample to MedicalLabTechnician--><path codeLine="117" d="M1444.888,288.776 C1471.032,263.744 1514.696,220.904 1549.6,181.6 C1577.224,150.488 1606.896,111.816 1622.904,90.464 " fill="none" id="Sample-MedicalLabTechnician" style="stroke:#A80036;stroke-width:0.8000000000000002;"/><polygon fill="#000000" points="1498.928,177.5173,1505.5113,173.703,1502.0121,170.5619,1498.928,177.5173" style="stroke:#000000;stroke-width:0.8000000000000002;"/><text fill="#000000" font-family="sans-serif" font-size="10.4" lengthAdjust="spacing" textLength="40" x="1508.8" y="178.7961">registers</text><text fill="#000000" font-family="sans-serif" font-size="10.4" lengthAdjust="spacing" textLength="16" x="1432.712" y="279.9915">1..*</text><text fill="#000000" font-family="sans-serif" font-size="10.4" lengthAdjust="spacing" textLength="16" x="1601.0833" y="107.6176">1..*</text><!--MD5=[c1a9c7f16ec55f9c4038f73c31b8becd]
link Notification to Client--><path codeLine="119" d="M2578.952,606.032 C2609.176,615.12 2653.152,628.664 2691.2,641.6 C2699.008,644.256 2707.368,647.248 2715.192,650.128 " fill="none" id="Notification-Client" style="stroke:#A80036;stroke-width:0.8000000000000002;"/><polygon fill="#000000" points="2653.4056,620.5724,2647.2452,616.1072,2645.7972,620.581,2653.4056,620.5724" style="stroke:#000000;stroke-width:0.8000000000000002;"/><text fill="#000000" font-family="sans-serif" font-size="10.4" lengthAdjust="spacing" textLength="33.6" x="2656.8" y="623.5961">informs</text><text fill="#000000" font-family="sans-serif" font-size="10.4" lengthAdjust="spacing" textLength="16" x="2585.3296" y="619.2711">1..*</text><text fill="#000000" font-family="sans-serif" font-size="10.4" lengthAdjust="spacing" textLength="4" x="2704.7005" y="659.8904">*</text><!--MD5=[7b6621f62b9e65982331fb9581e6389b]
@startuml
hide methods
skinparam classAttributeIconSize 0
left to right direction

class Company
class Laboratory
class ChemicalLaboratory
class ClinicalAnalysisLaboratory
class LaboratoryCoordinator
class Employee
class Administrator
class SpecialistDoctor
class ClinicalChemistryTechnologist
class MedicalLabTechnician
class Receptionist
class Client
class LabOrder
class Result
class DiagnosisReport
class NHSReport
class ParameterCategory
class Parameter
class TestType
class Test
class Notification
class NHS
class Sample

Company "1" - - "*" Parameter : > capable of analysing

Company "1" - - "*" Employee : < works for

Employee "*" - - "1" Administrator : < is a

Employee "*" - - "*" ClinicalChemistryTechnologist : < is a

Employee "*" - - "1..*" Receptionist : < is a

Employee "*" - - "*" MedicalLabTechnician : < is a

Employee "*" - - "1..*" LaboratoryCoordinator: < is a

ClinicalChemistryTechnologist "*" - - "1" ChemicalLaboratory : > works at

MedicalLabTechnician "1..*" - - "*" ClinicalAnalysisLaboratory : > works at

Receptionist "1..*" - - "*" ClinicalAnalysisLaboratory : > works at

LaboratoryCoordinator "1..*" - - "*" Laboratory: > works at a

ChemicalLaboratory "1" - - "1" Company : < owns

ChemicalLaboratory "1" - - "*" Sample : < is sent

ClinicalAnalysisLaboratory "*" - - "1" Company : < owns

Laboratory "1"  - - "1" ChemicalLaboratory: < is a

Laboratory "1"  - - "1" ClinicalAnalysisLaboratory: < is a

Administrator "1" - - "*" ParameterCategory : < created by

SpecialistDoctor "1" - - "1" Result : < analyzed by

ClinicalChemistryTechnologist "*" - - "1..*" Sample : < analyzed by

Client "1" - - "*" Test : < requested by

Client "*" - - "1..*" Receptionist : < registers

LabOrder "1" - - "*" Client : > brought by

LabOrder "1" - - "1..*" Receptionist : < receives

LabOrder "1" - - "1" Test : < is associated

LabOrder "1" - - "1" TestType : > contains

Result "*" - - "1..*" ClinicalChemistryTechnologist : < registers

Result "*" - - "1..*" Notification : > is associated with

DiagnosisReport "1" - - "1" SpecialistDoctor : < registers

DiagnosisReport "1" - - "1" Client : is sent to

DiagnosisReport "*" - - "1" LaboratoryCoordinator : < validates

NHSReport "1..*" - - "1" Result : < generates

NHSReport "1..*" - - "1" NHS : > is sent to

ParameterCategory "1" - - "*" Parameter : < presented under

Parameter "1..*" - - "*" Test : < requests analysis of

TestType "*" - - "1" Company : < conducts

TestType "1" - - "*" Test: < is of

TestType "*" - - "1" Administrator : < creates

TestType "1" - - "1" LabOrder : < contains

Test "1" - - "1" Result : > has a

Test "*" - - "1" Company : < performs

Test "*" - - "*" ClinicalAnalysisLaboratory : < performs

Test "*" - - "1..*" Receptionist : < registers

Test "1" - - "1" DiagnosisReport : < associated with

Sample "*" - - "1" Test : < collects

Sample "1..*" - - "1..*" MedicalLabTechnician : < registers

Notification "1..*" - - "*" Client : > informs

class Company{
-designation
}

class ChemicalLaboratory{
-name
-address
-phoneNumber
-TIN
}

class ClinicalAnalysisLaboratory{
-name
-address
-phoneNumber
-labID
-TIN
}

class Employee{
-name
-address
-phoneNumber
-employeeID
-orgRole
-email
-SOCcode
}

class Administrator{
}

class SpecialistDoctor{
-doctorIndex
}

class ClinicalChemistryTechnologist{
}

class MedicalLabTechnician{
}

class Receptionist{
}

class Client{
-citizenID
-nhsID
-birthDate
-sex
-TIN
-phoneNumber
-email
-name
}

class LabOrder{
}

class Result{
}

class DiagnosisReport{
}

class ParameterCategory{
-code
-description
-nhsID
}

class Parameter{
-designation
-description
-code
}

class TestType{
-code
-description
-collectingMethod
}

class Test{
-description
-internalCode
-nhsCode
-collectingMethod
-collectDateTime
-chemicalAnalysisDateTime
-diagnosisDateTime
-validationDateTime
}

class Sample{
-barcode
}

@enduml

PlantUML version 1.2021.4(Sun Apr 04 09:49:39 BST 2021)
(GPL source distribution)
Java Runtime: OpenJDK Runtime Environment
JVM: OpenJDK 64-Bit Server VM
Default Encoding: Cp1252
Language: pt
Country: PT
--></g></svg>