<?xml version="1.0" encoding="UTF-8" standalone="no"?><svg xmlns="http://www.w3.org/2000/svg" xmlns:xlink="http://www.w3.org/1999/xlink" contentScriptType="application/ecmascript" contentStyleType="text/css" height="1049.3px" preserveAspectRatio="none" style="width:2795px;height:1049px;" version="1.1" viewBox="0 0 2795 1049" width="2795.1px" zoomAndPan="magnify"><defs><filter height="300%" id="fr7z7z88yvti9" width="300%" x="-1" y="-1"><feGaussianBlur result="blurOut" stdDeviation="1.3999999999999997"/><feColorMatrix in="blurOut" result="blurOut2" type="matrix" values="0 0 0 0 0 0 0 0 0 0 0 0 0 0 0 0 0 0 .4 0"/><feOffset dx="2.7999999999999994" dy="2.7999999999999994" in="blurOut2" result="blurOut3"/><feBlend in="SourceGraphic" in2="blurOut3" mode="normal"/></filter></defs><g><!--MD5=[02e4b9b7573f1156f41e60aa5b4e25a4]
class Company--><rect codeLine="119" fill="#FEFECE" filter="url(#fr7z7z88yvti9)" height="37.6852" id="Company" style="stroke:#A80036;stroke-width:1.0499999999999998;" width="59.5" x="314.3" y="743.827"/><ellipse cx="324.8" cy="755.027" fill="#ADD1B2" rx="7.7" ry="7.7" style="stroke:#A80036;stroke-width:0.6999999999999998;"/><path d="M326.2,752.577 Q326.3422,752.227 326.5062,752.052 Q326.6703,751.877 326.8562,751.877 Q327.1844,751.877 327.3922,752.0739 Q327.6,752.2707 327.6,752.7301 L327.6,753.8239 Q327.6,754.2832 327.4031,754.4801 Q327.2062,754.677 326.9,754.677 Q326.6266,754.677 326.4516,754.5567 Q326.2766,754.4364 326.2,754.1192 Q326.1672,753.9004 326.0469,753.7801 Q325.8281,753.5504 325.4344,753.4192 Q325.0406,753.277 324.6469,753.277 Q324.1547,753.277 323.7391,753.4739 Q323.3344,753.6707 323.0172,754.1082 Q322.7,754.5457 322.7,755.1473 L322.7,755.7926 Q322.7,756.5145 323.2906,756.9957 Q323.8812,757.477 324.9312,757.477 Q325.5547,757.477 325.9922,757.3348 Q326.2437,757.2582 326.5281,757.0067 Q326.7141,756.8645 326.8125,756.8207 Q326.9109,756.777 327.0312,756.777 Q327.2609,756.777 327.425,756.9629 Q327.6,757.1379 327.6,757.3895 Q327.6,757.6301 327.3594,757.9145 Q327.0094,758.3301 326.4516,758.5598 Q325.7187,758.877 324.8219,758.877 Q323.7719,758.877 322.9297,758.4614 Q322.2516,758.1332 321.7703,757.4223 Q321.3,756.7114 321.3,755.8692 L321.3,755.1036 Q321.3,754.2286 321.7156,753.4629 Q322.1422,752.6973 322.875,752.2926 Q323.6187,751.877 324.45,751.877 Q324.9531,751.877 325.3906,752.052 Q325.8281,752.227 326.2,752.577 Z " fill="#000000"/><text fill="#000000" font-family="sans-serif" font-size="8.4" lengthAdjust="spacing" textLength="37.1" x="334.6" y="758.4641">Company</text><line style="stroke:#A80036;stroke-width:1.0499999999999998;" x1="315" x2="373.1" y1="766.227" y2="766.227"/><text fill="#000000" font-family="sans-serif" font-size="7.7" lengthAdjust="spacing" textLength="41.3" x="318.5" y="777.0203">-designation</text><!--MD5=[0caf3a413731a0de34fc6162fe213ed9]
class Laboratory--><rect codeLine="6" fill="#FEFECE" filter="url(#fr7z7z88yvti9)" height="28" id="Laboratory" style="stroke:#A80036;stroke-width:1.0499999999999998;" width="63" x="893.9" y="384.727"/><ellipse cx="904.4" cy="395.927" fill="#ADD1B2" rx="7.7" ry="7.7" style="stroke:#A80036;stroke-width:0.6999999999999998;"/><path d="M905.8,393.477 Q905.9422,393.127 906.1062,392.952 Q906.2703,392.777 906.4562,392.777 Q906.7844,392.777 906.9922,392.9739 Q907.2,393.1707 907.2,393.6301 L907.2,394.7239 Q907.2,395.1832 907.0031,395.3801 Q906.8062,395.577 906.5,395.577 Q906.2266,395.577 906.0516,395.4567 Q905.8766,395.3364 905.8,395.0192 Q905.7672,394.8004 905.6469,394.6801 Q905.4281,394.4504 905.0344,394.3192 Q904.6406,394.177 904.2469,394.177 Q903.7547,394.177 903.3391,394.3739 Q902.9344,394.5707 902.6172,395.0082 Q902.3,395.4457 902.3,396.0473 L902.3,396.6926 Q902.3,397.4145 902.8906,397.8957 Q903.4812,398.377 904.5312,398.377 Q905.1547,398.377 905.5922,398.2348 Q905.8437,398.1582 906.1281,397.9067 Q906.3141,397.7645 906.4125,397.7207 Q906.5109,397.677 906.6312,397.677 Q906.8609,397.677 907.025,397.8629 Q907.2,398.0379 907.2,398.2895 Q907.2,398.5301 906.9594,398.8145 Q906.6094,399.2301 906.0516,399.4598 Q905.3187,399.777 904.4219,399.777 Q903.3719,399.777 902.5297,399.3614 Q901.8516,399.0332 901.3703,398.3223 Q900.9,397.6114 900.9,396.7692 L900.9,396.0036 Q900.9,395.1286 901.3156,394.3629 Q901.7422,393.5973 902.475,393.1926 Q903.2187,392.777 904.05,392.777 Q904.5531,392.777 904.9906,392.952 Q905.4281,393.127 905.8,393.477 Z " fill="#000000"/><text fill="#000000" font-family="sans-serif" font-size="8.4" lengthAdjust="spacing" textLength="40.6" x="914.2" y="399.3641">Laboratory</text><line style="stroke:#A80036;stroke-width:1.0499999999999998;" x1="894.6" x2="956.2" y1="407.127" y2="407.127"/><!--MD5=[a64badb107d3691f2dc6af242cdbeb21]
class ChemicalLaboratory--><rect codeLine="123" fill="#FEFECE" filter="url(#fr7z7z88yvti9)" height="66.7406" id="ChemicalLaboratory" style="stroke:#A80036;stroke-width:1.0499999999999998;" width="100.1" x="1024.1" y="518.077"/><ellipse cx="1034.6" cy="529.277" fill="#ADD1B2" rx="7.7" ry="7.7" style="stroke:#A80036;stroke-width:0.6999999999999998;"/><path d="M1036,526.827 Q1036.1422,526.477 1036.3062,526.302 Q1036.4703,526.127 1036.6562,526.127 Q1036.9844,526.127 1037.1922,526.3239 Q1037.4,526.5207 1037.4,526.9801 L1037.4,528.0739 Q1037.4,528.5332 1037.2031,528.7301 Q1037.0062,528.927 1036.7,528.927 Q1036.4266,528.927 1036.2516,528.8067 Q1036.0766,528.6864 1036,528.3692 Q1035.9672,528.1504 1035.8469,528.0301 Q1035.6281,527.8004 1035.2344,527.6692 Q1034.8406,527.527 1034.4469,527.527 Q1033.9547,527.527 1033.5391,527.7239 Q1033.1344,527.9207 1032.8172,528.3582 Q1032.5,528.7957 1032.5,529.3973 L1032.5,530.0426 Q1032.5,530.7645 1033.0906,531.2457 Q1033.6812,531.727 1034.7312,531.727 Q1035.3547,531.727 1035.7922,531.5848 Q1036.0437,531.5082 1036.3281,531.2567 Q1036.5141,531.1145 1036.6125,531.0707 Q1036.7109,531.027 1036.8312,531.027 Q1037.0609,531.027 1037.225,531.2129 Q1037.4,531.3879 1037.4,531.6395 Q1037.4,531.8801 1037.1594,532.1645 Q1036.8094,532.5801 1036.2516,532.8098 Q1035.5187,533.127 1034.6219,533.127 Q1033.5719,533.127 1032.7297,532.7114 Q1032.0516,532.3832 1031.5703,531.6723 Q1031.1,530.9614 1031.1,530.1192 L1031.1,529.3536 Q1031.1,528.4786 1031.5156,527.7129 Q1031.9422,526.9473 1032.675,526.5426 Q1033.4187,526.127 1034.25,526.127 Q1034.7531,526.127 1035.1906,526.302 Q1035.6281,526.477 1036,526.827 Z " fill="#000000"/><text fill="#000000" font-family="sans-serif" font-size="8.4" lengthAdjust="spacing" textLength="77.7" x="1044.4" y="532.7141">ChemicalLaboratory</text><line style="stroke:#A80036;stroke-width:1.0499999999999998;" x1="1024.8" x2="1123.5" y1="540.477" y2="540.477"/><text fill="#000000" font-family="sans-serif" font-size="7.7" lengthAdjust="spacing" textLength="21" x="1028.3" y="551.2703">-name</text><text fill="#000000" font-family="sans-serif" font-size="7.7" lengthAdjust="spacing" textLength="30.8" x="1028.3" y="560.9554">-address</text><text fill="#000000" font-family="sans-serif" font-size="7.7" lengthAdjust="spacing" textLength="49.7" x="1028.3" y="570.6406">-phoneNumber</text><text fill="#000000" font-family="sans-serif" font-size="7.7" lengthAdjust="spacing" textLength="13.3" x="1028.3" y="580.3257">-TIN</text><!--MD5=[1934a092c0e7d4da7dc7075b6f4b6b03]
class ClinicalAnalysisLaboratory--><rect codeLine="130" fill="#FEFECE" filter="url(#fr7z7z88yvti9)" height="76.4258" id="ClinicalAnalysisLaboratory" style="stroke:#A80036;stroke-width:1.0499999999999998;" width="123.9" x="2661.4" y="755.377"/><ellipse cx="2671.9" cy="766.577" fill="#ADD1B2" rx="7.7" ry="7.7" style="stroke:#A80036;stroke-width:0.6999999999999998;"/><path d="M2673.3,764.127 Q2673.4422,763.777 2673.6062,763.602 Q2673.7703,763.427 2673.9562,763.427 Q2674.2844,763.427 2674.4922,763.6239 Q2674.7,763.8207 2674.7,764.2801 L2674.7,765.3739 Q2674.7,765.8332 2674.5031,766.0301 Q2674.3062,766.227 2674,766.227 Q2673.7266,766.227 2673.5516,766.1067 Q2673.3766,765.9864 2673.3,765.6692 Q2673.2672,765.4504 2673.1469,765.3301 Q2672.9281,765.1004 2672.5344,764.9692 Q2672.1406,764.827 2671.7469,764.827 Q2671.2547,764.827 2670.8391,765.0239 Q2670.4344,765.2207 2670.1172,765.6582 Q2669.8,766.0957 2669.8,766.6973 L2669.8,767.3426 Q2669.8,768.0645 2670.3906,768.5457 Q2670.9812,769.027 2672.0312,769.027 Q2672.6547,769.027 2673.0922,768.8848 Q2673.3437,768.8082 2673.6281,768.5567 Q2673.8141,768.4145 2673.9125,768.3707 Q2674.0109,768.327 2674.1312,768.327 Q2674.3609,768.327 2674.525,768.5129 Q2674.7,768.6879 2674.7,768.9395 Q2674.7,769.1801 2674.4594,769.4645 Q2674.1094,769.8801 2673.5516,770.1098 Q2672.8187,770.427 2671.9219,770.427 Q2670.8719,770.427 2670.0297,770.0114 Q2669.3516,769.6832 2668.8703,768.9723 Q2668.4,768.2614 2668.4,767.4192 L2668.4,766.6536 Q2668.4,765.7786 2668.8156,765.0129 Q2669.2422,764.2473 2669.975,763.8426 Q2670.7187,763.427 2671.55,763.427 Q2672.0531,763.427 2672.4906,763.602 Q2672.9281,763.777 2673.3,764.127 Z " fill="#000000"/><text fill="#000000" font-family="sans-serif" font-size="8.4" lengthAdjust="spacing" textLength="101.5" x="2681.7" y="770.0141">ClinicalAnalysisLaboratory</text><line style="stroke:#A80036;stroke-width:1.0499999999999998;" x1="2662.1" x2="2784.6" y1="777.777" y2="777.777"/><text fill="#000000" font-family="sans-serif" font-size="7.7" lengthAdjust="spacing" textLength="21" x="2665.6" y="788.5703">-name</text><text fill="#000000" font-family="sans-serif" font-size="7.7" lengthAdjust="spacing" textLength="30.8" x="2665.6" y="798.2554">-address</text><text fill="#000000" font-family="sans-serif" font-size="7.7" lengthAdjust="spacing" textLength="49.7" x="2665.6" y="807.9406">-phoneNumber</text><text fill="#000000" font-family="sans-serif" font-size="7.7" lengthAdjust="spacing" textLength="18.9" x="2665.6" y="817.6257">-labID</text><text fill="#000000" font-family="sans-serif" font-size="7.7" lengthAdjust="spacing" textLength="13.3" x="2665.6" y="827.3109">-TIN</text><!--MD5=[052425de1c0eb6cc1c1b48342b0bb88f]
class LaboratoryCoordinator--><rect codeLine="9" fill="#FEFECE" filter="url(#fr7z7z88yvti9)" height="28" id="LaboratoryCoordinator" style="stroke:#A80036;stroke-width:1.0499999999999998;" width="108.5" x="690.9" y="510.027"/><ellipse cx="701.4" cy="521.227" fill="#ADD1B2" rx="7.7" ry="7.7" style="stroke:#A80036;stroke-width:0.6999999999999998;"/><path d="M702.8,518.777 Q702.9422,518.427 703.1062,518.252 Q703.2703,518.077 703.4562,518.077 Q703.7844,518.077 703.9922,518.2739 Q704.2,518.4707 704.2,518.9301 L704.2,520.0239 Q704.2,520.4832 704.0031,520.6801 Q703.8062,520.877 703.5,520.877 Q703.2266,520.877 703.0516,520.7567 Q702.8766,520.6364 702.8,520.3192 Q702.7672,520.1004 702.6469,519.9801 Q702.4281,519.7504 702.0344,519.6192 Q701.6406,519.477 701.2469,519.477 Q700.7547,519.477 700.3391,519.6739 Q699.9344,519.8707 699.6172,520.3082 Q699.3,520.7457 699.3,521.3473 L699.3,521.9926 Q699.3,522.7145 699.8906,523.1957 Q700.4812,523.677 701.5312,523.677 Q702.1547,523.677 702.5922,523.5348 Q702.8437,523.4582 703.1281,523.2067 Q703.3141,523.0645 703.4125,523.0207 Q703.5109,522.977 703.6312,522.977 Q703.8609,522.977 704.025,523.1629 Q704.2,523.3379 704.2,523.5895 Q704.2,523.8301 703.9594,524.1145 Q703.6094,524.5301 703.0516,524.7598 Q702.3187,525.077 701.4219,525.077 Q700.3719,525.077 699.5297,524.6614 Q698.8516,524.3332 698.3703,523.6223 Q697.9,522.9114 697.9,522.0692 L697.9,521.3036 Q697.9,520.4286 698.3156,519.6629 Q698.7422,518.8973 699.475,518.4926 Q700.2187,518.077 701.05,518.077 Q701.5531,518.077 701.9906,518.252 Q702.4281,518.427 702.8,518.777 Z " fill="#000000"/><text fill="#000000" font-family="sans-serif" font-size="8.4" lengthAdjust="spacing" textLength="86.1" x="711.2" y="524.6641">LaboratoryCoordinator</text><line style="stroke:#A80036;stroke-width:1.0499999999999998;" x1="691.6" x2="798.7" y1="532.427" y2="532.427"/><!--MD5=[7421f545a0d8420c5bec41e74b387d9c]
class Employee--><rect codeLine="138" fill="#FEFECE" filter="url(#fr7z7z88yvti9)" height="95.7961" id="Employee" style="stroke:#A80036;stroke-width:1.0499999999999998;" width="60.9" x="494.2" y="476.077"/><ellipse cx="504.7" cy="487.277" fill="#ADD1B2" rx="7.7" ry="7.7" style="stroke:#A80036;stroke-width:0.6999999999999998;"/><path d="M506.1,484.827 Q506.2422,484.477 506.4062,484.302 Q506.5703,484.127 506.7562,484.127 Q507.0844,484.127 507.2922,484.3239 Q507.5,484.5207 507.5,484.9801 L507.5,486.0739 Q507.5,486.5332 507.3031,486.7301 Q507.1062,486.927 506.8,486.927 Q506.5266,486.927 506.3516,486.8067 Q506.1766,486.6864 506.1,486.3692 Q506.0672,486.1504 505.9469,486.0301 Q505.7281,485.8004 505.3344,485.6692 Q504.9406,485.527 504.5469,485.527 Q504.0547,485.527 503.6391,485.7239 Q503.2344,485.9207 502.9172,486.3582 Q502.6,486.7957 502.6,487.3973 L502.6,488.0426 Q502.6,488.7645 503.1906,489.2457 Q503.7812,489.727 504.8312,489.727 Q505.4547,489.727 505.8922,489.5848 Q506.1437,489.5082 506.4281,489.2567 Q506.6141,489.1145 506.7125,489.0707 Q506.8109,489.027 506.9312,489.027 Q507.1609,489.027 507.325,489.2129 Q507.5,489.3879 507.5,489.6395 Q507.5,489.8801 507.2594,490.1645 Q506.9094,490.5801 506.3516,490.8098 Q505.6187,491.127 504.7219,491.127 Q503.6719,491.127 502.8297,490.7114 Q502.1516,490.3832 501.6703,489.6723 Q501.2,488.9614 501.2,488.1192 L501.2,487.3536 Q501.2,486.4786 501.6156,485.7129 Q502.0422,484.9473 502.775,484.5426 Q503.5187,484.127 504.35,484.127 Q504.8531,484.127 505.2906,484.302 Q505.7281,484.477 506.1,484.827 Z " fill="#000000"/><text fill="#000000" font-family="sans-serif" font-size="8.4" lengthAdjust="spacing" textLength="38.5" x="514.5" y="490.7141">Employee</text><line style="stroke:#A80036;stroke-width:1.0499999999999998;" x1="494.9" x2="554.4" y1="498.477" y2="498.477"/><text fill="#000000" font-family="sans-serif" font-size="7.7" lengthAdjust="spacing" textLength="21" x="498.4" y="509.2703">-name</text><text fill="#000000" font-family="sans-serif" font-size="7.7" lengthAdjust="spacing" textLength="30.8" x="498.4" y="518.9554">-address</text><text fill="#000000" font-family="sans-serif" font-size="7.7" lengthAdjust="spacing" textLength="49.7" x="498.4" y="528.6406">-phoneNumber</text><text fill="#000000" font-family="sans-serif" font-size="7.7" lengthAdjust="spacing" textLength="41.3" x="498.4" y="538.3257">-employeeID</text><text fill="#000000" font-family="sans-serif" font-size="7.7" lengthAdjust="spacing" textLength="28.7" x="498.4" y="548.0109">-orgRole</text><text fill="#000000" font-family="sans-serif" font-size="7.7" lengthAdjust="spacing" textLength="19.6" x="498.4" y="557.696">-email</text><text fill="#000000" font-family="sans-serif" font-size="7.7" lengthAdjust="spacing" textLength="35" x="498.4" y="567.3812">-SOCcode</text><!--MD5=[da547346deef918ea16944ba046651ef]
class Administrator--><rect codeLine="148" fill="#FEFECE" filter="url(#fr7z7z88yvti9)" height="28" id="Administrator" style="stroke:#A80036;stroke-width:1.0499999999999998;" width="73.5" x="307.3" y="841.127"/><ellipse cx="317.8" cy="852.327" fill="#ADD1B2" rx="7.7" ry="7.7" style="stroke:#A80036;stroke-width:0.6999999999999998;"/><path d="M319.2,849.877 Q319.3422,849.527 319.5062,849.352 Q319.6703,849.177 319.8562,849.177 Q320.1844,849.177 320.3922,849.3739 Q320.6,849.5707 320.6,850.0301 L320.6,851.1239 Q320.6,851.5832 320.4031,851.7801 Q320.2062,851.977 319.9,851.977 Q319.6266,851.977 319.4516,851.8567 Q319.2766,851.7364 319.2,851.4192 Q319.1672,851.2004 319.0469,851.0801 Q318.8281,850.8504 318.4344,850.7192 Q318.0406,850.577 317.6469,850.577 Q317.1547,850.577 316.7391,850.7739 Q316.3344,850.9707 316.0172,851.4082 Q315.7,851.8457 315.7,852.4473 L315.7,853.0926 Q315.7,853.8145 316.2906,854.2957 Q316.8812,854.777 317.9312,854.777 Q318.5547,854.777 318.9922,854.6348 Q319.2437,854.5582 319.5281,854.3067 Q319.7141,854.1645 319.8125,854.1207 Q319.9109,854.077 320.0312,854.077 Q320.2609,854.077 320.425,854.2629 Q320.6,854.4379 320.6,854.6895 Q320.6,854.9301 320.3594,855.2145 Q320.0094,855.6301 319.4516,855.8598 Q318.7187,856.177 317.8219,856.177 Q316.7719,856.177 315.9297,855.7614 Q315.2516,855.4332 314.7703,854.7223 Q314.3,854.0114 314.3,853.1692 L314.3,852.4036 Q314.3,851.5286 314.7156,850.7629 Q315.1422,849.9973 315.875,849.5926 Q316.6187,849.177 317.45,849.177 Q317.9531,849.177 318.3906,849.352 Q318.8281,849.527 319.2,849.877 Z " fill="#000000"/><text fill="#000000" font-family="sans-serif" font-size="8.4" lengthAdjust="spacing" textLength="51.1" x="327.6" y="855.7641">Administrator</text><line style="stroke:#A80036;stroke-width:1.0499999999999998;" x1="308" x2="380.1" y1="863.527" y2="863.527"/><!--MD5=[7d96fd15f3014691d2fcaf89c5791e2a]
class SpecialistDoctor--><rect codeLine="151" fill="#FEFECE" filter="url(#fr7z7z88yvti9)" height="37.6852" id="SpecialistDoctor" style="stroke:#A80036;stroke-width:1.0499999999999998;" width="85.4" x="1773.1" y="631.127"/><ellipse cx="1783.6" cy="642.327" fill="#ADD1B2" rx="7.7" ry="7.7" style="stroke:#A80036;stroke-width:0.6999999999999998;"/><path d="M1785,639.877 Q1785.1422,639.527 1785.3062,639.352 Q1785.4703,639.177 1785.6562,639.177 Q1785.9844,639.177 1786.1922,639.3739 Q1786.4,639.5707 1786.4,640.0301 L1786.4,641.1239 Q1786.4,641.5832 1786.2031,641.7801 Q1786.0062,641.977 1785.7,641.977 Q1785.4266,641.977 1785.2516,641.8567 Q1785.0766,641.7364 1785,641.4192 Q1784.9672,641.2004 1784.8469,641.0801 Q1784.6281,640.8504 1784.2344,640.7192 Q1783.8406,640.577 1783.4469,640.577 Q1782.9547,640.577 1782.5391,640.7739 Q1782.1344,640.9707 1781.8172,641.4082 Q1781.5,641.8457 1781.5,642.4473 L1781.5,643.0926 Q1781.5,643.8145 1782.0906,644.2957 Q1782.6812,644.777 1783.7312,644.777 Q1784.3547,644.777 1784.7922,644.6348 Q1785.0437,644.5582 1785.3281,644.3067 Q1785.5141,644.1645 1785.6125,644.1207 Q1785.7109,644.077 1785.8312,644.077 Q1786.0609,644.077 1786.225,644.2629 Q1786.4,644.4379 1786.4,644.6895 Q1786.4,644.9301 1786.1594,645.2145 Q1785.8094,645.6301 1785.2516,645.8598 Q1784.5187,646.177 1783.6219,646.177 Q1782.5719,646.177 1781.7297,645.7614 Q1781.0516,645.4332 1780.5703,644.7223 Q1780.1,644.0114 1780.1,643.1692 L1780.1,642.4036 Q1780.1,641.5286 1780.5156,640.7629 Q1780.9422,639.9973 1781.675,639.5926 Q1782.4187,639.177 1783.25,639.177 Q1783.7531,639.177 1784.1906,639.352 Q1784.6281,639.527 1785,639.877 Z " fill="#000000"/><text fill="#000000" font-family="sans-serif" font-size="8.4" lengthAdjust="spacing" textLength="63" x="1793.4" y="645.7641">SpecialistDoctor</text><line style="stroke:#A80036;stroke-width:1.0499999999999998;" x1="1773.8" x2="1857.8" y1="653.527" y2="653.527"/><text fill="#000000" font-family="sans-serif" font-size="7.7" lengthAdjust="spacing" textLength="42.7" x="1777.3" y="664.3203">-doctorIndex</text><!--MD5=[012ee2a8bf3ae2b319009b06f951c2e5]
class ClinicalChemistryTechnologist--><rect codeLine="155" fill="#FEFECE" filter="url(#fr7z7z88yvti9)" height="28" id="ClinicalChemistryTechnologist" style="stroke:#A80036;stroke-width:1.0499999999999998;" width="140" x="2136.4" y="503.027"/><ellipse cx="2146.9" cy="514.227" fill="#ADD1B2" rx="7.7" ry="7.7" style="stroke:#A80036;stroke-width:0.6999999999999998;"/><path d="M2148.3,511.777 Q2148.4422,511.427 2148.6062,511.252 Q2148.7703,511.077 2148.9562,511.077 Q2149.2844,511.077 2149.4922,511.2739 Q2149.7,511.4707 2149.7,511.9301 L2149.7,513.0239 Q2149.7,513.4832 2149.5031,513.6801 Q2149.3062,513.877 2149,513.877 Q2148.7266,513.877 2148.5516,513.7567 Q2148.3766,513.6364 2148.3,513.3192 Q2148.2672,513.1004 2148.1469,512.9801 Q2147.9281,512.7504 2147.5344,512.6192 Q2147.1406,512.477 2146.7469,512.477 Q2146.2547,512.477 2145.8391,512.6739 Q2145.4344,512.8707 2145.1172,513.3082 Q2144.8,513.7457 2144.8,514.3473 L2144.8,514.9926 Q2144.8,515.7145 2145.3906,516.1957 Q2145.9812,516.677 2147.0312,516.677 Q2147.6547,516.677 2148.0922,516.5348 Q2148.3437,516.4582 2148.6281,516.2067 Q2148.8141,516.0645 2148.9125,516.0207 Q2149.0109,515.977 2149.1312,515.977 Q2149.3609,515.977 2149.525,516.1629 Q2149.7,516.3379 2149.7,516.5895 Q2149.7,516.8301 2149.4594,517.1145 Q2149.1094,517.5301 2148.5516,517.7598 Q2147.8187,518.077 2146.9219,518.077 Q2145.8719,518.077 2145.0297,517.6614 Q2144.3516,517.3332 2143.8703,516.6223 Q2143.4,515.9114 2143.4,515.0692 L2143.4,514.3036 Q2143.4,513.4286 2143.8156,512.6629 Q2144.2422,511.8973 2144.975,511.4926 Q2145.7187,511.077 2146.55,511.077 Q2147.0531,511.077 2147.4906,511.252 Q2147.9281,511.427 2148.3,511.777 Z " fill="#000000"/><text fill="#000000" font-family="sans-serif" font-size="8.4" lengthAdjust="spacing" textLength="117.6" x="2156.7" y="517.6641">ClinicalChemistryTechnologist</text><line style="stroke:#A80036;stroke-width:1.0499999999999998;" x1="2137.1" x2="2275.7" y1="525.427" y2="525.427"/><!--MD5=[01931d41e78f8996acd44f6f0fd8de28]
class MedicalLabTechnician--><rect codeLine="158" fill="#FEFECE" filter="url(#fr7z7z88yvti9)" height="28" id="MedicalLabTechnician" style="stroke:#A80036;stroke-width:1.0499999999999998;" width="108.5" x="1359.4" y="377.027"/><ellipse cx="1369.9" cy="388.227" fill="#ADD1B2" rx="7.7" ry="7.7" style="stroke:#A80036;stroke-width:0.6999999999999998;"/><path d="M1371.3,385.777 Q1371.4422,385.427 1371.6062,385.252 Q1371.7703,385.077 1371.9562,385.077 Q1372.2844,385.077 1372.4922,385.2739 Q1372.7,385.4707 1372.7,385.9301 L1372.7,387.0239 Q1372.7,387.4832 1372.5031,387.6801 Q1372.3062,387.877 1372,387.877 Q1371.7266,387.877 1371.5516,387.7567 Q1371.3766,387.6364 1371.3,387.3192 Q1371.2672,387.1004 1371.1469,386.9801 Q1370.9281,386.7504 1370.5344,386.6192 Q1370.1406,386.477 1369.7469,386.477 Q1369.2547,386.477 1368.8391,386.6739 Q1368.4344,386.8707 1368.1172,387.3082 Q1367.8,387.7457 1367.8,388.3473 L1367.8,388.9926 Q1367.8,389.7145 1368.3906,390.1957 Q1368.9812,390.677 1370.0312,390.677 Q1370.6547,390.677 1371.0922,390.5348 Q1371.3437,390.4582 1371.6281,390.2067 Q1371.8141,390.0645 1371.9125,390.0207 Q1372.0109,389.977 1372.1312,389.977 Q1372.3609,389.977 1372.525,390.1629 Q1372.7,390.3379 1372.7,390.5895 Q1372.7,390.8301 1372.4594,391.1145 Q1372.1094,391.5301 1371.5516,391.7598 Q1370.8187,392.077 1369.9219,392.077 Q1368.8719,392.077 1368.0297,391.6614 Q1367.3516,391.3332 1366.8703,390.6223 Q1366.4,389.9114 1366.4,389.0692 L1366.4,388.3036 Q1366.4,387.4286 1366.8156,386.6629 Q1367.2422,385.8973 1367.975,385.4926 Q1368.7187,385.077 1369.55,385.077 Q1370.0531,385.077 1370.4906,385.252 Q1370.9281,385.427 1371.3,385.777 Z " fill="#000000"/><text fill="#000000" font-family="sans-serif" font-size="8.4" lengthAdjust="spacing" textLength="86.1" x="1379.7" y="391.6641">MedicalLabTechnician</text><line style="stroke:#A80036;stroke-width:1.0499999999999998;" x1="1360.1" x2="1467.2" y1="399.427" y2="399.427"/><!--MD5=[03960189e81aa2c066c762ffabbee709]
class Receptionist--><rect codeLine="161" fill="#FEFECE" filter="url(#fr7z7z88yvti9)" height="28" id="Receptionist" style="stroke:#A80036;stroke-width:1.0499999999999998;" width="70.7" x="2503.9" y="779.527"/><ellipse cx="2514.4" cy="790.727" fill="#ADD1B2" rx="7.7" ry="7.7" style="stroke:#A80036;stroke-width:0.6999999999999998;"/><path d="M2515.8,788.277 Q2515.9422,787.927 2516.1062,787.752 Q2516.2703,787.577 2516.4562,787.577 Q2516.7844,787.577 2516.9922,787.7739 Q2517.2,787.9707 2517.2,788.4301 L2517.2,789.5239 Q2517.2,789.9832 2517.0031,790.1801 Q2516.8062,790.377 2516.5,790.377 Q2516.2266,790.377 2516.0516,790.2567 Q2515.8766,790.1364 2515.8,789.8192 Q2515.7672,789.6004 2515.6469,789.4801 Q2515.4281,789.2504 2515.0344,789.1192 Q2514.6406,788.977 2514.2469,788.977 Q2513.7547,788.977 2513.3391,789.1739 Q2512.9344,789.3707 2512.6172,789.8082 Q2512.3,790.2457 2512.3,790.8473 L2512.3,791.4926 Q2512.3,792.2145 2512.8906,792.6957 Q2513.4812,793.177 2514.5312,793.177 Q2515.1547,793.177 2515.5922,793.0348 Q2515.8437,792.9582 2516.1281,792.7067 Q2516.3141,792.5645 2516.4125,792.5207 Q2516.5109,792.477 2516.6312,792.477 Q2516.8609,792.477 2517.025,792.6629 Q2517.2,792.8379 2517.2,793.0895 Q2517.2,793.3301 2516.9594,793.6145 Q2516.6094,794.0301 2516.0516,794.2598 Q2515.3187,794.577 2514.4219,794.577 Q2513.3719,794.577 2512.5297,794.1614 Q2511.8516,793.8332 2511.3703,793.1223 Q2510.9,792.4114 2510.9,791.5692 L2510.9,790.8036 Q2510.9,789.9286 2511.3156,789.1629 Q2511.7422,788.3973 2512.475,787.9926 Q2513.2187,787.577 2514.05,787.577 Q2514.5531,787.577 2514.9906,787.752 Q2515.4281,787.927 2515.8,788.277 Z " fill="#000000"/><text fill="#000000" font-family="sans-serif" font-size="8.4" lengthAdjust="spacing" textLength="48.3" x="2524.2" y="794.1641">Receptionist</text><line style="stroke:#A80036;stroke-width:1.0499999999999998;" x1="2504.6" x2="2573.9" y1="801.927" y2="801.927"/><!--MD5=[ed6624c6556d5e7b1bd23032162d20b7]
class Client--><rect codeLine="164" fill="#FEFECE" filter="url(#fr7z7z88yvti9)" height="105.4812" id="Client" style="stroke:#A80036;stroke-width:1.0499999999999998;" width="58.1" x="2358.3" y="690.977"/><ellipse cx="2374.785" cy="702.177" fill="#ADD1B2" rx="7.7" ry="7.7" style="stroke:#A80036;stroke-width:0.6999999999999998;"/><path d="M2376.185,699.727 Q2376.3272,699.377 2376.4912,699.202 Q2376.6553,699.027 2376.8412,699.027 Q2377.1694,699.027 2377.3772,699.2239 Q2377.585,699.4207 2377.585,699.8801 L2377.585,700.9739 Q2377.585,701.4332 2377.3881,701.6301 Q2377.1912,701.827 2376.885,701.827 Q2376.6116,701.827 2376.4366,701.7067 Q2376.2616,701.5864 2376.185,701.2692 Q2376.1522,701.0504 2376.0319,700.9301 Q2375.8131,700.7004 2375.4194,700.5692 Q2375.0256,700.427 2374.6319,700.427 Q2374.1397,700.427 2373.7241,700.6239 Q2373.3194,700.8207 2373.0022,701.2582 Q2372.685,701.6957 2372.685,702.2973 L2372.685,702.9426 Q2372.685,703.6645 2373.2756,704.1457 Q2373.8662,704.627 2374.9162,704.627 Q2375.5397,704.627 2375.9772,704.4848 Q2376.2287,704.4082 2376.5131,704.1567 Q2376.6991,704.0145 2376.7975,703.9707 Q2376.8959,703.927 2377.0162,703.927 Q2377.2459,703.927 2377.41,704.1129 Q2377.585,704.2879 2377.585,704.5395 Q2377.585,704.7801 2377.3444,705.0645 Q2376.9944,705.4801 2376.4366,705.7098 Q2375.7037,706.027 2374.8069,706.027 Q2373.7569,706.027 2372.9147,705.6114 Q2372.2366,705.2832 2371.7553,704.5723 Q2371.285,703.8614 2371.285,703.0192 L2371.285,702.2536 Q2371.285,701.3786 2371.7006,700.6129 Q2372.1272,699.8473 2372.86,699.4426 Q2373.6037,699.027 2374.435,699.027 Q2374.9381,699.027 2375.3756,699.202 Q2375.8131,699.377 2376.185,699.727 Z " fill="#000000"/><text fill="#000000" font-family="sans-serif" font-size="8.4" lengthAdjust="spacing" textLength="22.4" x="2385.915" y="705.6141">Client</text><line style="stroke:#A80036;stroke-width:1.0499999999999998;" x1="2359" x2="2415.7" y1="713.377" y2="713.377"/><text fill="#000000" font-family="sans-serif" font-size="7.7" lengthAdjust="spacing" textLength="30.8" x="2362.5" y="724.1703">-citizenID</text><text fill="#000000" font-family="sans-serif" font-size="7.7" lengthAdjust="spacing" textLength="21.7" x="2362.5" y="733.8554">-nhsID</text><text fill="#000000" font-family="sans-serif" font-size="7.7" lengthAdjust="spacing" textLength="32.9" x="2362.5" y="743.5406">-birthDate</text><text fill="#000000" font-family="sans-serif" font-size="7.7" lengthAdjust="spacing" textLength="15.4" x="2362.5" y="753.2257">-sex</text><text fill="#000000" font-family="sans-serif" font-size="7.7" lengthAdjust="spacing" textLength="13.3" x="2362.5" y="762.9109">-TIN</text><text fill="#000000" font-family="sans-serif" font-size="7.7" lengthAdjust="spacing" textLength="49.7" x="2362.5" y="772.596">-phoneNumber</text><text fill="#000000" font-family="sans-serif" font-size="7.7" lengthAdjust="spacing" textLength="19.6" x="2362.5" y="782.2812">-email</text><text fill="#000000" font-family="sans-serif" font-size="7.7" lengthAdjust="spacing" textLength="21" x="2362.5" y="791.9664">-name</text><!--MD5=[a999c1570c205a2156b04a15307bc1ff]
class LabOrder--><rect codeLine="175" fill="#FEFECE" filter="url(#fr7z7z88yvti9)" height="28" id="LabOrder" style="stroke:#A80036;stroke-width:1.0499999999999998;" width="58.8" x="4.9" y="769.027"/><ellipse cx="15.4" cy="780.227" fill="#ADD1B2" rx="7.7" ry="7.7" style="stroke:#A80036;stroke-width:0.6999999999999998;"/><path d="M16.8,777.777 Q16.9422,777.427 17.1062,777.252 Q17.2703,777.077 17.4562,777.077 Q17.7844,777.077 17.9922,777.2739 Q18.2,777.4707 18.2,777.9301 L18.2,779.0239 Q18.2,779.4832 18.0031,779.6801 Q17.8062,779.877 17.5,779.877 Q17.2266,779.877 17.0516,779.7567 Q16.8766,779.6364 16.8,779.3192 Q16.7672,779.1004 16.6469,778.9801 Q16.4281,778.7504 16.0344,778.6192 Q15.6406,778.477 15.2469,778.477 Q14.7547,778.477 14.3391,778.6739 Q13.9344,778.8707 13.6172,779.3082 Q13.3,779.7457 13.3,780.3473 L13.3,780.9926 Q13.3,781.7145 13.8906,782.1957 Q14.4812,782.677 15.5312,782.677 Q16.1547,782.677 16.5922,782.5348 Q16.8437,782.4582 17.1281,782.2067 Q17.3141,782.0645 17.4125,782.0207 Q17.5109,781.977 17.6312,781.977 Q17.8609,781.977 18.025,782.1629 Q18.2,782.3379 18.2,782.5895 Q18.2,782.8301 17.9594,783.1145 Q17.6094,783.5301 17.0516,783.7598 Q16.3187,784.077 15.4219,784.077 Q14.3719,784.077 13.5297,783.6614 Q12.8516,783.3332 12.3703,782.6223 Q11.9,781.9114 11.9,781.0692 L11.9,780.3036 Q11.9,779.4286 12.3156,778.6629 Q12.7422,777.8973 13.475,777.4926 Q14.2187,777.077 15.05,777.077 Q15.5531,777.077 15.9906,777.252 Q16.4281,777.427 16.8,777.777 Z " fill="#000000"/><text fill="#000000" font-family="sans-serif" font-size="8.4" lengthAdjust="spacing" textLength="36.4" x="25.2" y="783.6641">LabOrder</text><line style="stroke:#A80036;stroke-width:1.0499999999999998;" x1="5.6" x2="63" y1="791.427" y2="791.427"/><!--MD5=[2741598bdf59a7d7e0d5c97658fd3022]
class Result--><rect codeLine="178" fill="#FEFECE" filter="url(#fr7z7z88yvti9)" height="28" id="Result" style="stroke:#A80036;stroke-width:1.0499999999999998;" width="47.6" x="1963.5" y="651.427"/><ellipse cx="1974" cy="662.627" fill="#ADD1B2" rx="7.7" ry="7.7" style="stroke:#A80036;stroke-width:0.6999999999999998;"/><path d="M1975.4,660.177 Q1975.5422,659.827 1975.7062,659.652 Q1975.8703,659.477 1976.0562,659.477 Q1976.3844,659.477 1976.5922,659.6739 Q1976.8,659.8707 1976.8,660.3301 L1976.8,661.4239 Q1976.8,661.8832 1976.6031,662.0801 Q1976.4062,662.277 1976.1,662.277 Q1975.8266,662.277 1975.6516,662.1567 Q1975.4766,662.0364 1975.4,661.7192 Q1975.3672,661.5004 1975.2469,661.3801 Q1975.0281,661.1504 1974.6344,661.0192 Q1974.2406,660.877 1973.8469,660.877 Q1973.3547,660.877 1972.9391,661.0739 Q1972.5344,661.2707 1972.2172,661.7082 Q1971.9,662.1457 1971.9,662.7473 L1971.9,663.3926 Q1971.9,664.1145 1972.4906,664.5957 Q1973.0812,665.077 1974.1312,665.077 Q1974.7547,665.077 1975.1922,664.9348 Q1975.4437,664.8582 1975.7281,664.6067 Q1975.9141,664.4645 1976.0125,664.4207 Q1976.1109,664.377 1976.2312,664.377 Q1976.4609,664.377 1976.625,664.5629 Q1976.8,664.7379 1976.8,664.9895 Q1976.8,665.2301 1976.5594,665.5145 Q1976.2094,665.9301 1975.6516,666.1598 Q1974.9187,666.477 1974.0219,666.477 Q1972.9719,666.477 1972.1297,666.0614 Q1971.4516,665.7332 1970.9703,665.0223 Q1970.5,664.3114 1970.5,663.4692 L1970.5,662.7036 Q1970.5,661.8286 1970.9156,661.0629 Q1971.3422,660.2973 1972.075,659.8926 Q1972.8187,659.477 1973.65,659.477 Q1974.1531,659.477 1974.5906,659.652 Q1975.0281,659.827 1975.4,660.177 Z " fill="#000000"/><text fill="#000000" font-family="sans-serif" font-size="8.4" lengthAdjust="spacing" textLength="25.2" x="1983.8" y="666.0641">Result</text><line style="stroke:#A80036;stroke-width:1.0499999999999998;" x1="1964.2" x2="2010.4" y1="673.827" y2="673.827"/><!--MD5=[f61f25a4c924aea49782a3614f4b4835]
class DiagnosisReport--><rect codeLine="181" fill="#FEFECE" filter="url(#fr7z7z88yvti9)" height="28" id="DiagnosisReport" style="stroke:#A80036;stroke-width:1.0499999999999998;" width="88.2" x="1583.4" y="650.027"/><ellipse cx="1593.9" cy="661.227" fill="#ADD1B2" rx="7.7" ry="7.7" style="stroke:#A80036;stroke-width:0.6999999999999998;"/><path d="M1595.3,658.777 Q1595.4422,658.427 1595.6062,658.252 Q1595.7703,658.077 1595.9562,658.077 Q1596.2844,658.077 1596.4922,658.2739 Q1596.7,658.4707 1596.7,658.9301 L1596.7,660.0239 Q1596.7,660.4832 1596.5031,660.6801 Q1596.3062,660.877 1596,660.877 Q1595.7266,660.877 1595.5516,660.7567 Q1595.3766,660.6364 1595.3,660.3192 Q1595.2672,660.1004 1595.1469,659.9801 Q1594.9281,659.7504 1594.5344,659.6192 Q1594.1406,659.477 1593.7469,659.477 Q1593.2547,659.477 1592.8391,659.6739 Q1592.4344,659.8707 1592.1172,660.3082 Q1591.8,660.7457 1591.8,661.3473 L1591.8,661.9926 Q1591.8,662.7145 1592.3906,663.1957 Q1592.9812,663.677 1594.0312,663.677 Q1594.6547,663.677 1595.0922,663.5348 Q1595.3437,663.4582 1595.6281,663.2067 Q1595.8141,663.0645 1595.9125,663.0207 Q1596.0109,662.977 1596.1312,662.977 Q1596.3609,662.977 1596.525,663.1629 Q1596.7,663.3379 1596.7,663.5895 Q1596.7,663.8301 1596.4594,664.1145 Q1596.1094,664.5301 1595.5516,664.7598 Q1594.8187,665.077 1593.9219,665.077 Q1592.8719,665.077 1592.0297,664.6614 Q1591.3516,664.3332 1590.8703,663.6223 Q1590.4,662.9114 1590.4,662.0692 L1590.4,661.3036 Q1590.4,660.4286 1590.8156,659.6629 Q1591.2422,658.8973 1591.975,658.4926 Q1592.7187,658.077 1593.55,658.077 Q1594.0531,658.077 1594.4906,658.252 Q1594.9281,658.427 1595.3,658.777 Z " fill="#000000"/><text fill="#000000" font-family="sans-serif" font-size="8.4" lengthAdjust="spacing" textLength="65.8" x="1603.7" y="664.6641">DiagnosisReport</text><line style="stroke:#A80036;stroke-width:1.0499999999999998;" x1="1584.1" x2="1670.9" y1="672.427" y2="672.427"/><!--MD5=[74783ec010d186752c4ffd5c6de5633a]
class NHSReport--><rect codeLine="20" fill="#FEFECE" filter="url(#fr7z7z88yvti9)" height="28" id="NHSReport" style="stroke:#A80036;stroke-width:1.0499999999999998;" width="66.5" x="1782.55" y="578.627"/><ellipse cx="1793.05" cy="589.827" fill="#ADD1B2" rx="7.7" ry="7.7" style="stroke:#A80036;stroke-width:0.6999999999999998;"/><path d="M1794.45,587.377 Q1794.5922,587.027 1794.7562,586.852 Q1794.9203,586.677 1795.1062,586.677 Q1795.4344,586.677 1795.6422,586.8739 Q1795.85,587.0707 1795.85,587.5301 L1795.85,588.6239 Q1795.85,589.0832 1795.6531,589.2801 Q1795.4562,589.477 1795.15,589.477 Q1794.8766,589.477 1794.7016,589.3567 Q1794.5266,589.2364 1794.45,588.9192 Q1794.4172,588.7004 1794.2969,588.5801 Q1794.0781,588.3504 1793.6844,588.2192 Q1793.2906,588.077 1792.8969,588.077 Q1792.4047,588.077 1791.9891,588.2739 Q1791.5844,588.4707 1791.2672,588.9082 Q1790.95,589.3457 1790.95,589.9473 L1790.95,590.5926 Q1790.95,591.3145 1791.5406,591.7957 Q1792.1312,592.277 1793.1812,592.277 Q1793.8047,592.277 1794.2422,592.1348 Q1794.4937,592.0582 1794.7781,591.8067 Q1794.9641,591.6645 1795.0625,591.6207 Q1795.1609,591.577 1795.2812,591.577 Q1795.5109,591.577 1795.675,591.7629 Q1795.85,591.9379 1795.85,592.1895 Q1795.85,592.4301 1795.6094,592.7145 Q1795.2594,593.1301 1794.7016,593.3598 Q1793.9687,593.677 1793.0719,593.677 Q1792.0219,593.677 1791.1797,593.2614 Q1790.5016,592.9332 1790.0203,592.2223 Q1789.55,591.5114 1789.55,590.6692 L1789.55,589.9036 Q1789.55,589.0286 1789.9656,588.2629 Q1790.3922,587.4973 1791.125,587.0926 Q1791.8687,586.677 1792.7,586.677 Q1793.2031,586.677 1793.6406,586.852 Q1794.0781,587.027 1794.45,587.377 Z " fill="#000000"/><text fill="#000000" font-family="sans-serif" font-size="8.4" lengthAdjust="spacing" textLength="44.1" x="1802.85" y="593.2641">NHSReport</text><line style="stroke:#A80036;stroke-width:1.0499999999999998;" x1="1783.25" x2="1848.35" y1="601.027" y2="601.027"/><!--MD5=[36afb6bbd95a8ac778c4537c55a683d5]
class ParameterCategory--><rect codeLine="184" fill="#FEFECE" filter="url(#fr7z7z88yvti9)" height="57.0555" id="ParameterCategory" style="stroke:#A80036;stroke-width:1.0499999999999998;" width="97.3" x="476" y="850.927"/><ellipse cx="486.5" cy="862.127" fill="#ADD1B2" rx="7.7" ry="7.7" style="stroke:#A80036;stroke-width:0.6999999999999998;"/><path d="M487.9,859.677 Q488.0422,859.327 488.2062,859.152 Q488.3703,858.977 488.5562,858.977 Q488.8844,858.977 489.0922,859.1739 Q489.3,859.3707 489.3,859.8301 L489.3,860.9239 Q489.3,861.3832 489.1031,861.5801 Q488.9062,861.777 488.6,861.777 Q488.3266,861.777 488.1516,861.6567 Q487.9766,861.5364 487.9,861.2192 Q487.8672,861.0004 487.7469,860.8801 Q487.5281,860.6504 487.1344,860.5192 Q486.7406,860.377 486.3469,860.377 Q485.8547,860.377 485.4391,860.5739 Q485.0344,860.7707 484.7172,861.2082 Q484.4,861.6457 484.4,862.2473 L484.4,862.8926 Q484.4,863.6145 484.9906,864.0957 Q485.5812,864.577 486.6312,864.577 Q487.2547,864.577 487.6922,864.4348 Q487.9437,864.3582 488.2281,864.1067 Q488.4141,863.9645 488.5125,863.9207 Q488.6109,863.877 488.7312,863.877 Q488.9609,863.877 489.125,864.0629 Q489.3,864.2379 489.3,864.4895 Q489.3,864.7301 489.0594,865.0145 Q488.7094,865.4301 488.1516,865.6598 Q487.4187,865.977 486.5219,865.977 Q485.4719,865.977 484.6297,865.5614 Q483.9516,865.2332 483.4703,864.5223 Q483,863.8114 483,862.9692 L483,862.2036 Q483,861.3286 483.4156,860.5629 Q483.8422,859.7973 484.575,859.3926 Q485.3187,858.977 486.15,858.977 Q486.6531,858.977 487.0906,859.152 Q487.5281,859.327 487.9,859.677 Z " fill="#000000"/><text fill="#000000" font-family="sans-serif" font-size="8.4" lengthAdjust="spacing" textLength="74.9" x="496.3" y="865.5641">ParameterCategory</text><line style="stroke:#A80036;stroke-width:1.0499999999999998;" x1="476.7" x2="572.6" y1="873.327" y2="873.327"/><text fill="#000000" font-family="sans-serif" font-size="7.7" lengthAdjust="spacing" textLength="19.6" x="480.2" y="884.1203">-code</text><text fill="#000000" font-family="sans-serif" font-size="7.7" lengthAdjust="spacing" textLength="39.9" x="480.2" y="893.8054">-description</text><text fill="#000000" font-family="sans-serif" font-size="7.7" lengthAdjust="spacing" textLength="21.7" x="480.2" y="903.4906">-nhsID</text><!--MD5=[1f6362a5c8f21d8d6a0fce68f3a92a4e]
class Parameter--><rect codeLine="190" fill="#FEFECE" filter="url(#fr7z7z88yvti9)" height="57.0555" id="Parameter" style="stroke:#A80036;stroke-width:1.0499999999999998;" width="63" x="713.65" y="826.427"/><ellipse cx="724.15" cy="837.627" fill="#ADD1B2" rx="7.7" ry="7.7" style="stroke:#A80036;stroke-width:0.6999999999999998;"/><path d="M725.55,835.177 Q725.6922,834.827 725.8562,834.652 Q726.0203,834.477 726.2062,834.477 Q726.5344,834.477 726.7422,834.6739 Q726.95,834.8707 726.95,835.3301 L726.95,836.4239 Q726.95,836.8832 726.7531,837.0801 Q726.5562,837.277 726.25,837.277 Q725.9766,837.277 725.8016,837.1567 Q725.6266,837.0364 725.55,836.7192 Q725.5172,836.5004 725.3969,836.3801 Q725.1781,836.1504 724.7844,836.0192 Q724.3906,835.877 723.9969,835.877 Q723.5047,835.877 723.0891,836.0739 Q722.6844,836.2707 722.3672,836.7082 Q722.05,837.1457 722.05,837.7473 L722.05,838.3926 Q722.05,839.1145 722.6406,839.5957 Q723.2312,840.077 724.2812,840.077 Q724.9047,840.077 725.3422,839.9348 Q725.5937,839.8582 725.8781,839.6067 Q726.0641,839.4645 726.1625,839.4207 Q726.2609,839.377 726.3812,839.377 Q726.6109,839.377 726.775,839.5629 Q726.95,839.7379 726.95,839.9895 Q726.95,840.2301 726.7094,840.5145 Q726.3594,840.9301 725.8016,841.1598 Q725.0687,841.477 724.1719,841.477 Q723.1219,841.477 722.2797,841.0614 Q721.6016,840.7332 721.1203,840.0223 Q720.65,839.3114 720.65,838.4692 L720.65,837.7036 Q720.65,836.8286 721.0656,836.0629 Q721.4922,835.2973 722.225,834.8926 Q722.9687,834.477 723.8,834.477 Q724.3031,834.477 724.7406,834.652 Q725.1781,834.827 725.55,835.177 Z " fill="#000000"/><text fill="#000000" font-family="sans-serif" font-size="8.4" lengthAdjust="spacing" textLength="40.6" x="733.95" y="841.0641">Parameter</text><line style="stroke:#A80036;stroke-width:1.0499999999999998;" x1="714.35" x2="775.95" y1="848.827" y2="848.827"/><text fill="#000000" font-family="sans-serif" font-size="7.7" lengthAdjust="spacing" textLength="41.3" x="717.85" y="859.6203">-designation</text><text fill="#000000" font-family="sans-serif" font-size="7.7" lengthAdjust="spacing" textLength="39.9" x="717.85" y="869.3054">-description</text><text fill="#000000" font-family="sans-serif" font-size="7.7" lengthAdjust="spacing" textLength="19.6" x="717.85" y="878.9906">-code</text><!--MD5=[aeb3272166074d8737a70b61b1e71682]
class TestType--><rect codeLine="196" fill="#FEFECE" filter="url(#fr7z7z88yvti9)" height="57.0555" id="TestType" style="stroke:#A80036;stroke-width:1.0499999999999998;" width="67.2" x="150.5" y="794.927"/><ellipse cx="165.41" cy="806.127" fill="#ADD1B2" rx="7.7" ry="7.7" style="stroke:#A80036;stroke-width:0.6999999999999998;"/><path d="M166.81,803.677 Q166.9522,803.327 167.1162,803.152 Q167.2803,802.977 167.4662,802.977 Q167.7944,802.977 168.0022,803.1739 Q168.21,803.3707 168.21,803.8301 L168.21,804.9239 Q168.21,805.3832 168.0131,805.5801 Q167.8162,805.777 167.51,805.777 Q167.2366,805.777 167.0616,805.6567 Q166.8866,805.5364 166.81,805.2192 Q166.7772,805.0004 166.6569,804.8801 Q166.4381,804.6504 166.0444,804.5192 Q165.6506,804.377 165.2569,804.377 Q164.7647,804.377 164.3491,804.5739 Q163.9444,804.7707 163.6272,805.2082 Q163.31,805.6457 163.31,806.2473 L163.31,806.8926 Q163.31,807.6145 163.9006,808.0957 Q164.4912,808.577 165.5412,808.577 Q166.1647,808.577 166.6022,808.4348 Q166.8537,808.3582 167.1381,808.1067 Q167.3241,807.9645 167.4225,807.9207 Q167.5209,807.877 167.6412,807.877 Q167.8709,807.877 168.035,808.0629 Q168.21,808.2379 168.21,808.4895 Q168.21,808.7301 167.9694,809.0145 Q167.6194,809.4301 167.0616,809.6598 Q166.3287,809.977 165.4319,809.977 Q164.3819,809.977 163.5397,809.5614 Q162.8616,809.2332 162.3803,808.5223 Q161.91,807.8114 161.91,806.9692 L161.91,806.2036 Q161.91,805.3286 162.3256,804.5629 Q162.7522,803.7973 163.485,803.3926 Q164.2287,802.977 165.06,802.977 Q165.5631,802.977 166.0006,803.152 Q166.4381,803.327 166.81,803.677 Z " fill="#000000"/><text fill="#000000" font-family="sans-serif" font-size="8.4" lengthAdjust="spacing" textLength="35" x="176.19" y="809.5641">TestType</text><line style="stroke:#A80036;stroke-width:1.0499999999999998;" x1="151.2" x2="217" y1="817.327" y2="817.327"/><text fill="#000000" font-family="sans-serif" font-size="7.7" lengthAdjust="spacing" textLength="19.6" x="154.7" y="828.1203">-code</text><text fill="#000000" font-family="sans-serif" font-size="7.7" lengthAdjust="spacing" textLength="39.9" x="154.7" y="837.8054">-description</text><text fill="#000000" font-family="sans-serif" font-size="7.7" lengthAdjust="spacing" textLength="58.8" x="154.7" y="847.4906">-collectingMethod</text><!--MD5=[df38be88ccee13e832d6fafd6288a4ca]
class Test--><rect codeLine="202" fill="#FEFECE" filter="url(#fr7z7z88yvti9)" height="105.4812" id="Test" style="stroke:#A80036;stroke-width:1.0499999999999998;" width="100.8" x="1363.25" y="802.277"/><ellipse cx="1402.275" cy="813.477" fill="#ADD1B2" rx="7.7" ry="7.7" style="stroke:#A80036;stroke-width:0.6999999999999998;"/><path d="M1403.675,811.027 Q1403.8172,810.677 1403.9812,810.502 Q1404.1453,810.327 1404.3312,810.327 Q1404.6594,810.327 1404.8672,810.5239 Q1405.075,810.7207 1405.075,811.1801 L1405.075,812.2739 Q1405.075,812.7332 1404.8781,812.9301 Q1404.6812,813.127 1404.375,813.127 Q1404.1016,813.127 1403.9266,813.0067 Q1403.7516,812.8864 1403.675,812.5692 Q1403.6422,812.3504 1403.5219,812.2301 Q1403.3031,812.0004 1402.9094,811.8692 Q1402.5156,811.727 1402.1219,811.727 Q1401.6297,811.727 1401.2141,811.9239 Q1400.8094,812.1207 1400.4922,812.5582 Q1400.175,812.9957 1400.175,813.5973 L1400.175,814.2426 Q1400.175,814.9645 1400.7656,815.4457 Q1401.3562,815.927 1402.4062,815.927 Q1403.0297,815.927 1403.4672,815.7848 Q1403.7187,815.7082 1404.0031,815.4567 Q1404.1891,815.3145 1404.2875,815.2707 Q1404.3859,815.227 1404.5062,815.227 Q1404.7359,815.227 1404.9,815.4129 Q1405.075,815.5879 1405.075,815.8395 Q1405.075,816.0801 1404.8344,816.3645 Q1404.4844,816.7801 1403.9266,817.0098 Q1403.1937,817.327 1402.2969,817.327 Q1401.2469,817.327 1400.4047,816.9114 Q1399.7266,816.5832 1399.2453,815.8723 Q1398.775,815.1614 1398.775,814.3192 L1398.775,813.5536 Q1398.775,812.6786 1399.1906,811.9129 Q1399.6172,811.1473 1400.35,810.7426 Q1401.0937,810.327 1401.925,810.327 Q1402.4281,810.327 1402.8656,810.502 Q1403.3031,810.677 1403.675,811.027 Z " fill="#000000"/><text fill="#000000" font-family="sans-serif" font-size="8.4" lengthAdjust="spacing" textLength="16.8" x="1416.625" y="816.9141">Test</text><line style="stroke:#A80036;stroke-width:1.0499999999999998;" x1="1363.95" x2="1463.35" y1="824.677" y2="824.677"/><text fill="#000000" font-family="sans-serif" font-size="7.7" lengthAdjust="spacing" textLength="39.9" x="1367.45" y="835.4703">-description</text><text fill="#000000" font-family="sans-serif" font-size="7.7" lengthAdjust="spacing" textLength="44.8" x="1367.45" y="845.1554">-internalCode</text><text fill="#000000" font-family="sans-serif" font-size="7.7" lengthAdjust="spacing" textLength="32.9" x="1367.45" y="854.8406">-nhsCode</text><text fill="#000000" font-family="sans-serif" font-size="7.7" lengthAdjust="spacing" textLength="58.8" x="1367.45" y="864.5257">-collectingMethod</text><text fill="#000000" font-family="sans-serif" font-size="7.7" lengthAdjust="spacing" textLength="55.3" x="1367.45" y="874.2109">-collectDateTime</text><text fill="#000000" font-family="sans-serif" font-size="7.7" lengthAdjust="spacing" textLength="92.4" x="1367.45" y="883.896">-chemicalAnalysisDateTime</text><text fill="#000000" font-family="sans-serif" font-size="7.7" lengthAdjust="spacing" textLength="65.8" x="1367.45" y="893.5812">-diagnosisDateTime</text><text fill="#000000" font-family="sans-serif" font-size="7.7" lengthAdjust="spacing" textLength="65.1" x="1367.45" y="903.2664">-validationDateTime</text><!--MD5=[76b5e19c9337179d2d7ae334371d68c8]
class Notification--><rect codeLine="25" fill="#FEFECE" filter="url(#fr7z7z88yvti9)" height="28" id="Notification" style="stroke:#A80036;stroke-width:1.0499999999999998;" width="65.1" x="2173.85" y="671.027"/><ellipse cx="2184.35" cy="682.227" fill="#ADD1B2" rx="7.7" ry="7.7" style="stroke:#A80036;stroke-width:0.6999999999999998;"/><path d="M2185.75,679.777 Q2185.8922,679.427 2186.0562,679.252 Q2186.2203,679.077 2186.4062,679.077 Q2186.7344,679.077 2186.9422,679.2739 Q2187.15,679.4707 2187.15,679.9301 L2187.15,681.0239 Q2187.15,681.4832 2186.9531,681.6801 Q2186.7562,681.877 2186.45,681.877 Q2186.1766,681.877 2186.0016,681.7567 Q2185.8266,681.6364 2185.75,681.3192 Q2185.7172,681.1004 2185.5969,680.9801 Q2185.3781,680.7504 2184.9844,680.6192 Q2184.5906,680.477 2184.1969,680.477 Q2183.7047,680.477 2183.2891,680.6739 Q2182.8844,680.8707 2182.5672,681.3082 Q2182.25,681.7457 2182.25,682.3473 L2182.25,682.9926 Q2182.25,683.7145 2182.8406,684.1957 Q2183.4312,684.677 2184.4812,684.677 Q2185.1047,684.677 2185.5422,684.5348 Q2185.7937,684.4582 2186.0781,684.2067 Q2186.2641,684.0645 2186.3625,684.0207 Q2186.4609,683.977 2186.5812,683.977 Q2186.8109,683.977 2186.975,684.1629 Q2187.15,684.3379 2187.15,684.5895 Q2187.15,684.8301 2186.9094,685.1145 Q2186.5594,685.5301 2186.0016,685.7598 Q2185.2687,686.077 2184.3719,686.077 Q2183.3219,686.077 2182.4797,685.6614 Q2181.8016,685.3332 2181.3203,684.6223 Q2180.85,683.9114 2180.85,683.0692 L2180.85,682.3036 Q2180.85,681.4286 2181.2656,680.6629 Q2181.6922,679.8973 2182.425,679.4926 Q2183.1687,679.077 2184,679.077 Q2184.5031,679.077 2184.9406,679.252 Q2185.3781,679.427 2185.75,679.777 Z " fill="#000000"/><text fill="#000000" font-family="sans-serif" font-size="8.4" lengthAdjust="spacing" textLength="42.7" x="2194.15" y="685.6641">Notification</text><line style="stroke:#A80036;stroke-width:1.0499999999999998;" x1="2174.55" x2="2238.25" y1="693.427" y2="693.427"/><!--MD5=[0a105ea8d9af02dadec02d3e239f1d60]
class NHS--><rect codeLine="26" fill="#FEFECE" filter="url(#fr7z7z88yvti9)" height="28" id="NHS" style="stroke:#A80036;stroke-width:1.0499999999999998;" width="40.6" x="1967" y="578.627"/><ellipse cx="1977.5" cy="589.827" fill="#ADD1B2" rx="7.7" ry="7.7" style="stroke:#A80036;stroke-width:0.6999999999999998;"/><path d="M1978.9,587.377 Q1979.0422,587.027 1979.2062,586.852 Q1979.3703,586.677 1979.5562,586.677 Q1979.8844,586.677 1980.0922,586.8739 Q1980.3,587.0707 1980.3,587.5301 L1980.3,588.6239 Q1980.3,589.0832 1980.1031,589.2801 Q1979.9062,589.477 1979.6,589.477 Q1979.3266,589.477 1979.1516,589.3567 Q1978.9766,589.2364 1978.9,588.9192 Q1978.8672,588.7004 1978.7469,588.5801 Q1978.5281,588.3504 1978.1344,588.2192 Q1977.7406,588.077 1977.3469,588.077 Q1976.8547,588.077 1976.4391,588.2739 Q1976.0344,588.4707 1975.7172,588.9082 Q1975.4,589.3457 1975.4,589.9473 L1975.4,590.5926 Q1975.4,591.3145 1975.9906,591.7957 Q1976.5812,592.277 1977.6312,592.277 Q1978.2547,592.277 1978.6922,592.1348 Q1978.9437,592.0582 1979.2281,591.8067 Q1979.4141,591.6645 1979.5125,591.6207 Q1979.6109,591.577 1979.7312,591.577 Q1979.9609,591.577 1980.125,591.7629 Q1980.3,591.9379 1980.3,592.1895 Q1980.3,592.4301 1980.0594,592.7145 Q1979.7094,593.1301 1979.1516,593.3598 Q1978.4187,593.677 1977.5219,593.677 Q1976.4719,593.677 1975.6297,593.2614 Q1974.9516,592.9332 1974.4703,592.2223 Q1974,591.5114 1974,590.6692 L1974,589.9036 Q1974,589.0286 1974.4156,588.2629 Q1974.8422,587.4973 1975.575,587.0926 Q1976.3187,586.677 1977.15,586.677 Q1977.6531,586.677 1978.0906,586.852 Q1978.5281,587.027 1978.9,587.377 Z " fill="#000000"/><text fill="#000000" font-family="sans-serif" font-size="8.4" lengthAdjust="spacing" textLength="18.2" x="1987.3" y="593.2641">NHS</text><line style="stroke:#A80036;stroke-width:1.0499999999999998;" x1="1967.7" x2="2006.9" y1="601.027" y2="601.027"/><!--MD5=[9681492165142af2a4a3a169d90ee8d4]
class Sample--><rect codeLine="213" fill="#FEFECE" filter="url(#fr7z7z88yvti9)" height="37.6852" id="Sample" style="stroke:#A80036;stroke-width:1.0499999999999998;" width="52.5" x="1219.4" y="560.427"/><ellipse cx="1229.9" cy="571.627" fill="#ADD1B2" rx="7.7" ry="7.7" style="stroke:#A80036;stroke-width:0.6999999999999998;"/><path d="M1231.3,569.177 Q1231.4422,568.827 1231.6062,568.652 Q1231.7703,568.477 1231.9562,568.477 Q1232.2844,568.477 1232.4922,568.6739 Q1232.7,568.8707 1232.7,569.3301 L1232.7,570.4239 Q1232.7,570.8832 1232.5031,571.0801 Q1232.3062,571.277 1232,571.277 Q1231.7266,571.277 1231.5516,571.1567 Q1231.3766,571.0364 1231.3,570.7192 Q1231.2672,570.5004 1231.1469,570.3801 Q1230.9281,570.1504 1230.5344,570.0192 Q1230.1406,569.877 1229.7469,569.877 Q1229.2547,569.877 1228.8391,570.0739 Q1228.4344,570.2707 1228.1172,570.7082 Q1227.8,571.1457 1227.8,571.7473 L1227.8,572.3926 Q1227.8,573.1145 1228.3906,573.5957 Q1228.9812,574.077 1230.0312,574.077 Q1230.6547,574.077 1231.0922,573.9348 Q1231.3437,573.8582 1231.6281,573.6067 Q1231.8141,573.4645 1231.9125,573.4207 Q1232.0109,573.377 1232.1312,573.377 Q1232.3609,573.377 1232.525,573.5629 Q1232.7,573.7379 1232.7,573.9895 Q1232.7,574.2301 1232.4594,574.5145 Q1232.1094,574.9301 1231.5516,575.1598 Q1230.8187,575.477 1229.9219,575.477 Q1228.8719,575.477 1228.0297,575.0614 Q1227.3516,574.7332 1226.8703,574.0223 Q1226.4,573.3114 1226.4,572.4692 L1226.4,571.7036 Q1226.4,570.8286 1226.8156,570.0629 Q1227.2422,569.2973 1227.975,568.8926 Q1228.7187,568.477 1229.55,568.477 Q1230.0531,568.477 1230.4906,568.652 Q1230.9281,568.827 1231.3,569.177 Z " fill="#000000"/><text fill="#000000" font-family="sans-serif" font-size="8.4" lengthAdjust="spacing" textLength="30.1" x="1239.7" y="575.0641">Sample</text><line style="stroke:#A80036;stroke-width:1.0499999999999998;" x1="1220.1" x2="1271.2" y1="582.827" y2="582.827"/><text fill="#000000" font-family="sans-serif" font-size="7.7" lengthAdjust="spacing" textLength="30.8" x="1223.6" y="593.6203">-barcode</text><!--MD5=[12d76240d3c3c66074d4ec2ea8bf469c]
link Company to Parameter--><path codeLine="29" d="M373.814,769.447 C447.02,786.373 638.477,830.627 713.58,847.994 " fill="none" id="Company-Parameter" style="stroke:#A80036;stroke-width:0.6999999999999998;"/><polygon fill="#000000" points="485.0101,788.1384,479.3046,784.7079,478.3778,788.7167,485.0101,788.1384" style="stroke:#000000;stroke-width:0.6999999999999998;"/><text fill="#000000" font-family="sans-serif" font-size="9.1" lengthAdjust="spacing" textLength="82.6" x="487.9" y="791.0736">capable of analysing</text><text fill="#000000" font-family="sans-serif" font-size="9.1" lengthAdjust="spacing" textLength="4.9" x="379.3508" y="781.0421">1</text><text fill="#000000" font-family="sans-serif" font-size="9.1" lengthAdjust="spacing" textLength="3.5" x="704.5614" y="844.1806">*</text><!--MD5=[09366576ee87d48d594df10cacc83f45]
link Company to Employee--><path codeLine="31" d="M347.97,743.631 C353.99,712.607 369.39,650.524 401.8,608.727 C426.552,576.814 466.69,552.265 494.151,538.006 " fill="none" id="Company-Employee" style="stroke:#A80036;stroke-width:0.6999999999999998;"/><polygon fill="#000000" points="406.422,559.9027,411.7674,555.9342,408.4139,553.5502,406.422,559.9027" style="stroke:#000000;stroke-width:0.6999999999999998;"/><text fill="#000000" font-family="sans-serif" font-size="9.1" lengthAdjust="spacing" textLength="36.4" x="414.75" y="560.7736">works for</text><text fill="#000000" font-family="sans-serif" font-size="9.1" lengthAdjust="spacing" textLength="4.9" x="343.4099" y="736.2084">1</text><text fill="#000000" font-family="sans-serif" font-size="9.1" lengthAdjust="spacing" textLength="3.5" x="485.1082" y="550.8478">*</text><!--MD5=[d0b577d991866bb293f65e18071b6be7]
link Employee to ClinicalChemistryTechnologist--><path codeLine="33" d="M555.31,514.92 C567.329,511.588 581.371,508.081 594.3,505.827 C636.755,498.435 647.948,500.941 690.9,497.427 C1011.682,471.198 1091.097,442.127 1412.95,442.127 C1412.95,442.127 1412.95,442.127 1988,442.127 C2061.941,442.127 2142.707,481.243 2181.816,502.936 " fill="none" id="Employee-ClinicalChemistryTechnologist" style="stroke:#A80036;stroke-width:0.6999999999999998;"/><polygon fill="#000000" points="1303.0501,436.6758,1309.3966,438.6864,1309.3663,434.572,1303.0501,436.6758" style="stroke:#000000;stroke-width:0.6999999999999998;"/><text fill="#000000" font-family="sans-serif" font-size="9.1" lengthAdjust="spacing" textLength="14.7" x="1312.85" y="440.3736">is a</text><text fill="#000000" font-family="sans-serif" font-size="9.1" lengthAdjust="spacing" textLength="3.5" x="560.6779" y="510.7597">*</text><text fill="#000000" font-family="sans-serif" font-size="9.1" lengthAdjust="spacing" textLength="3.5" x="2170.5804" y="495.4345">*</text><!--MD5=[1da12df22706e73e1def33b218b7f412]
link Employee to Receptionist--><path codeLine="35" d="M551.95,572.208 C587.608,629.629 656.705,717.927 744.45,717.927 C744.45,717.927 744.45,717.927 1246.35,717.927 C1370.313,717.927 2234.442,803.866 2358.3,808.927 C2384.102,809.984 2390.626,810.544 2416.4,808.927 C2445.947,807.072 2479.274,802.718 2503.648,799.106 " fill="none" id="Employee-Receptionist" style="stroke:#A80036;stroke-width:0.6999999999999998;"/><polygon fill="#000000" points="1513.0734,727.4459,1519.125,730.2205,1519.6002,726.1335,1513.0734,727.4459" style="stroke:#000000;stroke-width:0.6999999999999998;"/><text fill="#000000" font-family="sans-serif" font-size="9.1" lengthAdjust="spacing" textLength="14.7" x="1522.85" y="731.5736">is a</text><text fill="#000000" font-family="sans-serif" font-size="9.1" lengthAdjust="spacing" textLength="3.5" x="550.9651" y="586.9659">*</text><text fill="#000000" font-family="sans-serif" font-size="9.1" lengthAdjust="spacing" textLength="14" x="2484.1896" y="810.0007">1..*</text><!--MD5=[3960df5b1ea8ecab6ad2804cc08d8583]
link Employee to MedicalLabTechnician--><path codeLine="37" d="M551.999,476.021 C587.699,418.803 656.838,330.827 744.45,330.827 C744.45,330.827 744.45,330.827 1246.35,330.827 C1300.32,330.827 1358.595,359.121 1389.899,376.915 " fill="none" id="Employee-MedicalLabTechnician" style="stroke:#A80036;stroke-width:0.6999999999999998;"/><polygon fill="#000000" points="977.9242,325.0612,984.4536,326.3605,983.9703,322.2744,977.9242,325.0612" style="stroke:#000000;stroke-width:0.6999999999999998;"/><text fill="#000000" font-family="sans-serif" font-size="9.1" lengthAdjust="spacing" textLength="14.7" x="987.7" y="328.3736">is a</text><text fill="#000000" font-family="sans-serif" font-size="9.1" lengthAdjust="spacing" textLength="3.5" x="551.2989" y="468.4236">*</text><text fill="#000000" font-family="sans-serif" font-size="9.1" lengthAdjust="spacing" textLength="3.5" x="1378.9081" y="369.4073">*</text><!--MD5=[a0184b63db99e4170c08b50ca520f26e]
link Employee to LaboratoryCoordinator--><path codeLine="39" d="M555.128,524.027 C589.876,524.027 648.018,524.027 690.718,524.027 " fill="none" id="Employee-LaboratoryCoordinator" style="stroke:#A80036;stroke-width:0.6999999999999998;"/><polygon fill="#000000" points="619.5,517.85,625.8316,519.9073,625.8316,515.7928,619.5,517.85" style="stroke:#000000;stroke-width:0.6999999999999998;"/><text fill="#000000" font-family="sans-serif" font-size="9.1" lengthAdjust="spacing" textLength="14.7" x="629.3" y="521.5736">is a</text><text fill="#000000" font-family="sans-serif" font-size="9.1" lengthAdjust="spacing" textLength="3.5" x="560.6672" y="534.4662">*</text><text fill="#000000" font-family="sans-serif" font-size="9.1" lengthAdjust="spacing" textLength="14" x="671.2467" y="533.9833">1..*</text><!--MD5=[c3a86c626b5b742f72786125539e9227]
link ClinicalChemistryTechnologist to ChemicalLaboratory--><path codeLine="41" d="M2136.323,504.868 C2093.679,498.428 2037.84,491.827 1988,491.827 C1721.65,491.827 1721.65,491.827 1721.65,491.827 C1497.811,491.827 1232.224,527.597 1124.207,543.669 " fill="none" id="ClinicalChemistryTechnologist-ChemicalLaboratory" style="stroke:#A80036;stroke-width:0.6999999999999998;"/><polygon fill="#000000" points="1605.1026,486.4841,1611.5083,488.2973,1611.3507,484.1858,1605.1026,486.4841" style="stroke:#000000;stroke-width:0.6999999999999998;"/><text fill="#000000" font-family="sans-serif" font-size="9.1" lengthAdjust="spacing" textLength="34.3" x="1614.9" y="490.0736">works at</text><text fill="#000000" font-family="sans-serif" font-size="9.1" lengthAdjust="spacing" textLength="3.5" x="2127.3237" y="513.8218">*</text><text fill="#000000" font-family="sans-serif" font-size="9.1" lengthAdjust="spacing" textLength="4.9" x="1129.95" y="552.8908">1</text><!--MD5=[738f0445d4a0804ca0738b44323ae22b]
link MedicalLabTechnician to ClinicalAnalysisLaboratory--><path codeLine="43" d="M1468.047,391.573 C1510.999,391.972 1572.767,392.427 1626.8,392.427 C1626.8,392.427 1626.8,392.427 2539.95,392.427 C2698.437,392.427 2720.067,654.99 2722.545,755.251 " fill="none" id="MedicalLabTechnician-ClinicalAnalysisLaboratory" style="stroke:#A80036;stroke-width:0.6999999999999998;"/><polygon fill="#000000" points="2058.2116,387.2246,2052.7032,383.4857,2051.5576,387.4375,2058.2116,387.2246" style="stroke:#000000;stroke-width:0.6999999999999998;"/><text fill="#000000" font-family="sans-serif" font-size="9.1" lengthAdjust="spacing" textLength="34.3" x="2061.15" y="389.9736">works at</text><text fill="#000000" font-family="sans-serif" font-size="9.1" lengthAdjust="spacing" textLength="14" x="1473.5152" y="401.5779">1..*</text><text fill="#000000" font-family="sans-serif" font-size="9.1" lengthAdjust="spacing" textLength="3.5" x="2718.7176" y="747.8837">*</text><!--MD5=[6cd0a3af2322bf46f6c633408da71c74]
link Receptionist to ClinicalAnalysisLaboratory--><path codeLine="45" d="M2574.747,793.527 C2599.177,793.527 2632.511,793.527 2661.351,793.527 " fill="none" id="Receptionist-ClinicalAnalysisLaboratory" style="stroke:#A80036;stroke-width:0.6999999999999998;"/><polygon fill="#000000" points="2602.6,787.35,2596.2684,785.2928,2596.2684,789.4073,2602.6,787.35" style="stroke:#000000;stroke-width:0.6999999999999998;"/><text fill="#000000" font-family="sans-serif" font-size="9.1" lengthAdjust="spacing" textLength="34.3" x="2605.4" y="791.0736">works at</text><text fill="#000000" font-family="sans-serif" font-size="9.1" lengthAdjust="spacing" textLength="14" x="2580.1919" y="803.7068">1..*</text><text fill="#000000" font-family="sans-serif" font-size="9.1" lengthAdjust="spacing" textLength="3.5" x="2652.3726" y="803.46">*</text><!--MD5=[4d5641458326529fdf5c82259a5ad32d]
link LaboratoryCoordinator to Laboratory--><path codeLine="47" d="M766.017,509.894 C800.457,485.765 870.212,436.898 904.603,412.804 " fill="none" id="LaboratoryCoordinator-Laboratory" style="stroke:#A80036;stroke-width:0.6999999999999998;"/><polygon fill="#000000" points="826.7665,427.6418,820.4005,429.5898,822.7613,432.9596,826.7665,427.6418" style="stroke:#000000;stroke-width:0.6999999999999998;"/><text fill="#000000" font-family="sans-serif" font-size="9.1" lengthAdjust="spacing" textLength="42" x="830.2" y="433.3736">works at a</text><text fill="#000000" font-family="sans-serif" font-size="9.1" lengthAdjust="spacing" textLength="14" x="756.0904" y="502.3802">1..*</text><text fill="#000000" font-family="sans-serif" font-size="9.1" lengthAdjust="spacing" textLength="3.5" x="894.7617" y="427.8193">*</text><!--MD5=[de3aa179ee7f21b344f648244b25a961]
link ChemicalLaboratory to Company--><path codeLine="49" d="M1023.918,561.232 C911.19,584.535 627.774,647.458 401.8,734.027 C392.483,737.597 382.662,742.203 373.849,746.676 " fill="none" id="ChemicalLaboratory-Company" style="stroke:#A80036;stroke-width:0.6999999999999998;"/><polygon fill="#000000" points="736.2657,605.7899,729.6127,605.5485,730.7414,609.5051,736.2657,605.7899" style="stroke:#000000;stroke-width:0.6999999999999998;"/><text fill="#000000" font-family="sans-serif" font-size="9.1" lengthAdjust="spacing" textLength="21" x="739.2" y="610.4736">owns</text><text fill="#000000" font-family="sans-serif" font-size="9.1" lengthAdjust="spacing" textLength="4.9" x="1013.5852" y="572.2778">1</text><text fill="#000000" font-family="sans-serif" font-size="9.1" lengthAdjust="spacing" textLength="4.9" x="379.3918" y="754.3573">1</text><!--MD5=[47855ee4dabeea37c5949a17ed9e3a41]
link ChemicalLaboratory to Sample--><path codeLine="51" d="M1124.277,559.461 C1155.371,564.585 1194.221,570.976 1219.302,575.106 " fill="none" id="ChemicalLaboratory-Sample" style="stroke:#A80036;stroke-width:0.6999999999999998;"/><polygon fill="#000000" points="1152.9465,557.1815,1158.8597,560.24,1159.5282,556.1801,1152.9465,557.1815" style="stroke:#000000;stroke-width:0.6999999999999998;"/><text fill="#000000" font-family="sans-serif" font-size="9.1" lengthAdjust="spacing" textLength="27.3" x="1162.7" y="561.4736">is sent</text><text fill="#000000" font-family="sans-serif" font-size="9.1" lengthAdjust="spacing" textLength="4.9" x="1129.699" y="570.3242">1</text><text fill="#000000" font-family="sans-serif" font-size="9.1" lengthAdjust="spacing" textLength="3.5" x="1210.2702" y="584.8596">*</text><!--MD5=[fdfe1f7a1d4f9a6f0814f21c5f7b0d38]
link ClinicalAnalysisLaboratory to Company--><path codeLine="53" d="M2710.897,831.796 C2688.707,895.44 2634.191,1016.127 2539.95,1016.127 C1412.95,1016.127 1412.95,1016.127 1412.95,1016.127 C1301.559,1016.127 1283.891,945.427 1172.5,945.427 C523.95,945.427 523.95,945.427 523.95,945.427 C461.223,945.427 443.31,921.753 401.8,874.727 C387.058,858.032 390.782,849.135 380.8,829.227 C372.68,813.022 362.838,794.969 355.488,781.76 " fill="none" id="ClinicalAnalysisLaboratory-Company" style="stroke:#A80036;stroke-width:0.6999999999999998;"/><polygon fill="#000000" points="1516.8992,1010.0244,1510.6128,1007.8331,1510.5254,1011.9467,1516.8992,1010.0244" style="stroke:#000000;stroke-width:0.6999999999999998;"/><text fill="#000000" font-family="sans-serif" font-size="9.1" lengthAdjust="spacing" textLength="21" x="1519.7" y="1013.6736">owns</text><text fill="#000000" font-family="sans-serif" font-size="9.1" lengthAdjust="spacing" textLength="3.5" x="2705.5772" y="846.871">*</text><text fill="#000000" font-family="sans-serif" font-size="9.1" lengthAdjust="spacing" textLength="4.9" x="352.5541" y="796.6345">1</text><!--MD5=[6495f60a88b066bf0994b6815c6a96c6]
link Laboratory to ChemicalLaboratory--><path codeLine="55" d="M939.701,412.811 C962.64,436.569 1009.624,485.233 1041.341,518.077 " fill="none" id="Laboratory-ChemicalLaboratory" style="stroke:#A80036;stroke-width:0.6999999999999998;"/><polygon fill="#000000" points="978.9689,443.9322,981.8869,449.916,984.8468,447.0581,978.9689,443.9322" style="stroke:#000000;stroke-width:0.6999999999999998;"/><text fill="#000000" font-family="sans-serif" font-size="9.1" lengthAdjust="spacing" textLength="14.7" x="987.7" y="450.1736">is a</text><text fill="#000000" font-family="sans-serif" font-size="9.1" lengthAdjust="spacing" textLength="4.9" x="938.1341" y="427.8283">1</text><text fill="#000000" font-family="sans-serif" font-size="9.1" lengthAdjust="spacing" textLength="4.9" x="1031.042" y="510.3751">1</text><!--MD5=[98f82590f5f631bfe55e6520882022d0]
link Laboratory to ClinicalAnalysisLaboratory--><path codeLine="57" d="M957.047,395.43 C1028.062,388.059 1208.221,370.398 1359.4,364.427 C1568.154,356.174 2219.343,296.828 2574.6,374.227 C2605.897,381.045 2620.275,378.707 2640.4,403.627 C2684.129,457.786 2709.938,667.751 2718.975,755.083 " fill="none" id="Laboratory-ClinicalAnalysisLaboratory" style="stroke:#A80036;stroke-width:0.6999999999999998;"/><polygon fill="#000000" points="1803.2707,332.35,1809.0629,335.632,1809.8858,331.6007,1803.2707,332.35" style="stroke:#000000;stroke-width:0.6999999999999998;"/><text fill="#000000" font-family="sans-serif" font-size="9.1" lengthAdjust="spacing" textLength="14.7" x="1813" y="336.7736">is a</text><text fill="#000000" font-family="sans-serif" font-size="9.1" lengthAdjust="spacing" textLength="4.9" x="962.4812" y="405.2632">1</text><text fill="#000000" font-family="sans-serif" font-size="9.1" lengthAdjust="spacing" textLength="4.9" x="2713.2005" y="747.6942">1</text><!--MD5=[7144ffdeebbe38808f7fb2ce8ac24f7d]
link Administrator to ParameterCategory--><path codeLine="59" d="M381.017,860.083 C408.317,863.821 446.019,868.973 475.846,873.047 " fill="none" id="Administrator-ParameterCategory" style="stroke:#A80036;stroke-width:0.6999999999999998;"/><polygon fill="#000000" points="401.8323,856.176,407.8268,859.0719,408.3841,854.9953,401.8323,856.176" style="stroke:#000000;stroke-width:0.6999999999999998;"/><text fill="#000000" font-family="sans-serif" font-size="9.1" lengthAdjust="spacing" textLength="42.7" x="411.6" y="860.3736">created by</text><text fill="#000000" font-family="sans-serif" font-size="9.1" lengthAdjust="spacing" textLength="4.9" x="386.3137" y="870.9646">1</text><text fill="#000000" font-family="sans-serif" font-size="9.1" lengthAdjust="spacing" textLength="3.5" x="466.8167" y="882.4187">*</text><!--MD5=[49f9c994ab9013da19f25c37bbd596b3]
link SpecialistDoctor to Result--><path codeLine="61" d="M1858.528,663.39 C1865.472,665.112 1872.64,666.589 1879.5,667.527 C1907.241,671.307 1914.507,668.192 1942.5,667.527 C1949.318,667.366 1956.731,667.058 1963.493,666.736 " fill="none" id="SpecialistDoctor-Result" style="stroke:#A80036;stroke-width:0.6999999999999998;"/><polygon fill="#000000" points="1881.2518,661.2385,1887.5146,663.4965,1887.6457,659.3841,1881.2518,661.2385" style="stroke:#000000;stroke-width:0.6999999999999998;"/><text fill="#000000" font-family="sans-serif" font-size="9.1" lengthAdjust="spacing" textLength="49" x="1891.05" y="665.0736">analyzed by</text><text fill="#000000" font-family="sans-serif" font-size="9.1" lengthAdjust="spacing" textLength="4.9" x="1864.0341" y="675.1697">1</text><text fill="#000000" font-family="sans-serif" font-size="9.1" lengthAdjust="spacing" textLength="4.9" x="1952.8493" y="664.0708">1</text><!--MD5=[98994e1502641fa381021dffe882d56a]
link ClinicalChemistryTechnologist to Sample--><path codeLine="63" d="M2136.134,521.542 C1941.366,534.191 1396.71,569.562 1272.012,577.661 " fill="none" id="ClinicalChemistryTechnologist-Sample" style="stroke:#A80036;stroke-width:0.6999999999999998;"/><polygon fill="#000000" points="1699.5926,540.7232,1693.1411,539.0806,1693.4077,543.1865,1699.5926,540.7232" style="stroke:#000000;stroke-width:0.6999999999999998;"/><text fill="#000000" font-family="sans-serif" font-size="9.1" lengthAdjust="spacing" textLength="49" x="1702.4" y="544.6736">analyzed by</text><text fill="#000000" font-family="sans-serif" font-size="9.1" lengthAdjust="spacing" textLength="3.5" x="2127.3453" y="531.7404">*</text><text fill="#000000" font-family="sans-serif" font-size="9.1" lengthAdjust="spacing" textLength="14" x="1277.5376" y="587.789">1..*</text><!--MD5=[502b51bc079239060389dab43b7d3470]
link Client to Test--><path codeLine="65" d="M2358.279,755.321 C2285.437,783.755 2085.314,855.127 1911.7,855.127 C1626.8,855.127 1626.8,855.127 1626.8,855.127 C1571.108,855.127 1507.198,855.127 1464.141,855.127 " fill="none" id="Client-Test" style="stroke:#A80036;stroke-width:0.6999999999999998;"/><polygon fill="#000000" points="1886.4784,848.5618,1879.9577,847.2196,1880.4141,851.3087,1886.4784,848.5618" style="stroke:#000000;stroke-width:0.6999999999999998;"/><text fill="#000000" font-family="sans-serif" font-size="9.1" lengthAdjust="spacing" textLength="52.5" x="1889.3" y="852.6736">requested by</text><text fill="#000000" font-family="sans-serif" font-size="9.1" lengthAdjust="spacing" textLength="4.9" x="2347.7643" y="767.8539">1</text><text fill="#000000" font-family="sans-serif" font-size="9.1" lengthAdjust="spacing" textLength="3.5" x="1469.5284" y="865.1751">*</text><!--MD5=[7048eb257bae2750d747ca61a113ed73]
link Client to Receptionist--><path codeLine="67" d="M2416.533,753.235 C2441.334,761.425 2477.356,773.318 2503.837,782.061 " fill="none" id="Client-Receptionist" style="stroke:#A80036;stroke-width:0.6999999999999998;"/><polygon fill="#000000" points="2437.5765,753.3527,2442.9438,757.2913,2444.2338,753.3843,2437.5765,753.3527" style="stroke:#000000;stroke-width:0.6999999999999998;"/><text fill="#000000" font-family="sans-serif" font-size="9.1" lengthAdjust="spacing" textLength="35" x="2447.2" y="758.1736">registers</text><text fill="#000000" font-family="sans-serif" font-size="9.1" lengthAdjust="spacing" textLength="3.5" x="2422.0429" y="765.3963">*</text><text fill="#000000" font-family="sans-serif" font-size="9.1" lengthAdjust="spacing" textLength="14" x="2484.4028" y="790.7718">1..*</text><!--MD5=[b097d9d314264888b7dbeddc95343863]
link LabOrder to Client--><path codeLine="69" d="M36.029,768.817 C42.308,687.134 78.792,281.127 183.4,281.127 C183.4,281.127 183.4,281.127 2074.45,281.127 C2270.317,281.127 2351.517,569.569 2377.011,690.977 " fill="none" id="LabOrder-Client" style="stroke:#A80036;stroke-width:0.6999999999999998;"/><polygon fill="#000000" points="1152.1981,274.8337,1145.8016,272.988,1145.9384,277.1003,1152.1981,274.8337" style="stroke:#000000;stroke-width:0.6999999999999998;"/><text fill="#000000" font-family="sans-serif" font-size="9.1" lengthAdjust="spacing" textLength="42.7" x="1155" y="278.6736">brought by</text><text fill="#000000" font-family="sans-serif" font-size="9.1" lengthAdjust="spacing" textLength="4.9" x="37.2043" y="761.5266">1</text><text fill="#000000" font-family="sans-serif" font-size="9.1" lengthAdjust="spacing" textLength="3.5" x="2372.2643" y="683.2199">*</text><!--MD5=[727b58dfd932e2fbda2a273f174e2308]
link LabOrder to Receptionist--><path codeLine="71" d="M35.714,768.866 C39.137,704.179 54.873,436.534 84.7,358.827 C111.895,287.987 107.52,219.527 183.4,219.527 C183.4,219.527 183.4,219.527 1172.5,219.527 C1665.895,219.527 1912.253,4.2 2276.4,337.127 C2426.62,474.467 2513.896,718.347 2534.035,779.38 " fill="none" id="LabOrder-Receptionist" style="stroke:#A80036;stroke-width:0.6999999999999998;"/><polygon fill="#000000" points="1223.95,211.2353,1230.2729,213.3192,1230.2902,209.2047,1223.95,211.2353" style="stroke:#000000;stroke-width:0.6999999999999998;"/><text fill="#000000" font-family="sans-serif" font-size="9.1" lengthAdjust="spacing" textLength="32.9" x="1233.75" y="214.9736">receives</text><text fill="#000000" font-family="sans-serif" font-size="9.1" lengthAdjust="spacing" textLength="4.9" x="30.5097" y="761.3439">1</text><text fill="#000000" font-family="sans-serif" font-size="9.1" lengthAdjust="spacing" textLength="14" x="2516.4468" y="771.862">1..*</text><!--MD5=[84a279e28ad6c3248737114c29c49c27]
link LabOrder to Test--><path codeLine="73" d="M36.162,797.104 C41.475,851.48 68.46,1044.827 183.4,1044.827 C183.4,1044.827 183.4,1044.827 1246.35,1044.827 C1319.437,1044.827 1367.996,964.341 1392.972,908.222 " fill="none" id="LabOrder-Test" style="stroke:#A80036;stroke-width:0.6999999999999998;"/><polygon fill="#000000" points="712.9617,1038.3644,719.1042,1040.9316,719.44,1036.8308,712.9617,1038.3644" style="stroke:#000000;stroke-width:0.6999999999999998;"/><text fill="#000000" font-family="sans-serif" font-size="9.1" lengthAdjust="spacing" textLength="53.9" x="722.75" y="1042.3736">is associated</text><text fill="#000000" font-family="sans-serif" font-size="9.1" lengthAdjust="spacing" textLength="4.9" x="31.0966" y="812.1193">1</text><text fill="#000000" font-family="sans-serif" font-size="9.1" lengthAdjust="spacing" textLength="4.9" x="1386.0844" y="922.7327">1</text><!--MD5=[fba3ac294f3c76c431d275cef443fef8]
link LabOrder to TestType--><path codeLine="75" d="M46.396,797.125 C55.531,807.233 69.342,820.036 84.7,825.727 C105.595,833.469 130.718,832.804 150.388,830.277 " fill="none" id="LabOrder-TestType" style="stroke:#A80036;stroke-width:0.6999999999999998;"/><polygon fill="#000000" points="91.5347,820.6131,86.1271,816.73,84.8774,820.6501,91.5347,820.6131" style="stroke:#000000;stroke-width:0.6999999999999998;"/><text fill="#000000" font-family="sans-serif" font-size="9.1" lengthAdjust="spacing" textLength="34.3" x="94.5" y="823.2736">contains</text><text fill="#000000" font-family="sans-serif" font-size="9.1" lengthAdjust="spacing" textLength="4.9" x="44.2089" y="812.1463">1</text><text fill="#000000" font-family="sans-serif" font-size="9.1" lengthAdjust="spacing" textLength="4.9" x="139.9507" y="841.6446">1</text><!--MD5=[df02e8987f6870a0052669ffdc0b53df]
link TestType to LabOrder--><path codeLine="101" d="M150.29,814.569 C124.327,807.464 88.571,797.685 63.791,790.902 " fill="none" id="TestType-LabOrder" style="stroke:#A80036;stroke-width:0.6999999999999998;"/><polygon fill="#000000" points="91.5759,791.7737,86.0118,788.1185,84.9259,792.0871,91.5759,791.7737" style="stroke:#000000;stroke-width:0.6999999999999998;"/><text fill="#000000" font-family="sans-serif" font-size="9.1" lengthAdjust="spacing" textLength="34.3" x="94.5" y="794.5736">contains</text><text fill="#000000" font-family="sans-serif" font-size="9.1" lengthAdjust="spacing" textLength="4.9" x="140.0643" y="823.5511">1</text><text fill="#000000" font-family="sans-serif" font-size="9.1" lengthAdjust="spacing" textLength="4.9" x="69.2809" y="802.6857">1</text><!--MD5=[8a0bab72ab0281f8a9e78a6f98e5652c]
link Result to ClinicalChemistryTechnologist--><path codeLine="77" d="M2008.678,651.329 C2050.279,622.972 2143.673,559.314 2185.162,531.027 " fill="none" id="Result-ClinicalChemistryTechnologist" style="stroke:#A80036;stroke-width:0.6999999999999998;"/><polygon fill="#000000" points="2051.608,578.6214,2057.9984,576.7551,2055.6809,573.3553,2051.608,578.6214" style="stroke:#000000;stroke-width:0.6999999999999998;"/><text fill="#000000" font-family="sans-serif" font-size="9.1" lengthAdjust="spacing" textLength="35" x="2060.8" y="580.3736">registers</text><text fill="#000000" font-family="sans-serif" font-size="9.1" lengthAdjust="spacing" textLength="3.5" x="2010.9437" y="643.8254">*</text><text fill="#000000" font-family="sans-serif" font-size="9.1" lengthAdjust="spacing" textLength="14" x="2163.2201" y="546.0207">1..*</text><!--MD5=[d14b4c18c397fa0293924715644730ec]
link Result to Notification--><path codeLine="79" d="M2011.296,667.527 C2050.454,671.048 2129.519,678.167 2173.801,682.157 " fill="none" id="Result-Notification" style="stroke:#A80036;stroke-width:0.6999999999999998;"/><polygon fill="#000000" points="2039.0859,663.7639,2032.9643,661.1472,2032.5954,665.2451,2039.0859,663.7639" style="stroke:#000000;stroke-width:0.6999999999999998;"/><text fill="#000000" font-family="sans-serif" font-size="9.1" lengthAdjust="spacing" textLength="72.8" x="2041.9" y="667.1736">is associated with</text><text fill="#000000" font-family="sans-serif" font-size="9.1" lengthAdjust="spacing" textLength="3.5" x="2016.6061" y="678.5871">*</text><text fill="#000000" font-family="sans-serif" font-size="9.1" lengthAdjust="spacing" textLength="14" x="2154.2324" y="692.0048">1..*</text><!--MD5=[e509fed78cd7f855333fe9c80fc7ea15]
link DiagnosisReport to SpecialistDoctor--><path codeLine="81" d="M1671.782,660.765 C1702.309,658.476 1742.874,655.438 1773.058,653.177 " fill="none" id="DiagnosisReport-SpecialistDoctor" style="stroke:#A80036;stroke-width:0.6999999999999998;"/><polygon fill="#000000" points="1699.6098,649.0115,1706.0774,650.59,1705.7699,646.487,1699.6098,649.0115" style="stroke:#000000;stroke-width:0.6999999999999998;"/><text fill="#000000" font-family="sans-serif" font-size="9.1" lengthAdjust="spacing" textLength="35" x="1709.4" y="652.4736">registers</text><text fill="#000000" font-family="sans-serif" font-size="9.1" lengthAdjust="spacing" textLength="4.9" x="1677.1854" y="658.0011">1</text><text fill="#000000" font-family="sans-serif" font-size="9.1" lengthAdjust="spacing" textLength="4.9" x="1762.6502" y="663.712">1</text><!--MD5=[91dc3644f358c08f88b60791b947d3a3]
link DiagnosisReport to Client--><path codeLine="83" d="M1671.824,669.704 C1735.762,677.943 1858.696,693.427 1963.5,704.627 C2111.872,720.482 2289.917,735.749 2358.146,741.468 " fill="none" id="DiagnosisReport-Client" style="stroke:#A80036;stroke-width:0.6999999999999998;"/><text fill="#000000" font-family="sans-serif" font-size="9.1" lengthAdjust="spacing" textLength="37.8" x="1968.4" y="702.1736">is sent to</text><text fill="#000000" font-family="sans-serif" font-size="9.1" lengthAdjust="spacing" textLength="4.9" x="1677.2322" y="680.4687">1</text><text fill="#000000" font-family="sans-serif" font-size="9.1" lengthAdjust="spacing" textLength="4.9" x="2347.8055" y="751.5116">1</text><!--MD5=[e83232b12920152899b3d956169a0d16]
link DiagnosisReport to LaboratoryCoordinator--><path codeLine="85" d="M1583.358,658.119 C1540.483,652.806 1473.024,645.827 1414.35,645.827 C989.8,645.827 989.8,645.827 989.8,645.827 C894.411,645.827 798.049,570.367 761.341,538.237 " fill="none" id="DiagnosisReport-LaboratoryCoordinator" style="stroke:#A80036;stroke-width:0.6999999999999998;"/><polygon fill="#000000" points="1156.0134,640.1551,1150.045,637.2057,1149.4512,641.2771,1156.0134,640.1551" style="stroke:#000000;stroke-width:0.6999999999999998;"/><text fill="#000000" font-family="sans-serif" font-size="9.1" lengthAdjust="spacing" textLength="35" x="1158.85" y="643.3736">validates</text><text fill="#000000" font-family="sans-serif" font-size="9.1" lengthAdjust="spacing" textLength="3.5" x="1574.2649" y="667.543">*</text><text fill="#000000" font-family="sans-serif" font-size="9.1" lengthAdjust="spacing" textLength="4.9" x="760.1339" y="553.0406">1</text><!--MD5=[b25b37dde2866fd853924cb818679535]
link NHSReport to Result--><path codeLine="87" d="M1849.099,606.578 C1882.573,620.907 1933.827,642.845 1963.395,655.494 " fill="none" id="NHSReport-Result" style="stroke:#A80036;stroke-width:0.6999999999999998;"/><polygon fill="#000000" points="1886.0823,612.3729,1891.0937,616.7555,1892.7126,612.9728,1886.0823,612.3729" style="stroke:#000000;stroke-width:0.6999999999999998;"/><text fill="#000000" font-family="sans-serif" font-size="9.1" lengthAdjust="spacing" textLength="39.9" x="1895.6" y="617.4736">generates</text><text fill="#000000" font-family="sans-serif" font-size="9.1" lengthAdjust="spacing" textLength="14" x="1854.766" y="618.7912">1..*</text><text fill="#000000" font-family="sans-serif" font-size="9.1" lengthAdjust="spacing" textLength="4.9" x="1953.0593" y="650.5623">1</text><!--MD5=[5853f8747c18e89b10dd024359cfe8ec]
link NHSReport to NHS--><path codeLine="89" d="M1849.099,592.627 C1883.924,592.627 1937.992,592.627 1966.86,592.627 " fill="none" id="NHSReport-NHS" style="stroke:#A80036;stroke-width:0.6999999999999998;"/><polygon fill="#000000" points="1893.85,586.45,1887.5184,584.3928,1887.5184,588.5073,1893.85,586.45" style="stroke:#000000;stroke-width:0.6999999999999998;"/><text fill="#000000" font-family="sans-serif" font-size="9.1" lengthAdjust="spacing" textLength="37.8" x="1896.65" y="590.1736">is sent to</text><text fill="#000000" font-family="sans-serif" font-size="9.1" lengthAdjust="spacing" textLength="14" x="1854.766" y="602.8784">1..*</text><text fill="#000000" font-family="sans-serif" font-size="9.1" lengthAdjust="spacing" textLength="4.9" x="1956.3806" y="603.4686">1</text><!--MD5=[7a9e3e328fb1db48284e23a673c1e60d]
link ParameterCategory to Parameter--><path codeLine="91" d="M573.433,874.251 C616.007,869.491 676.9,862.68 713.37,858.599 " fill="none" id="ParameterCategory-Parameter" style="stroke:#A80036;stroke-width:0.6999999999999998;"/><polygon fill="#000000" points="594.3217,857.7391,600.8427,859.0798,600.3853,854.9908,594.3217,857.7391" style="stroke:#000000;stroke-width:0.6999999999999998;"/><text fill="#000000" font-family="sans-serif" font-size="9.1" lengthAdjust="spacing" textLength="65.1" x="604.1" y="861.0736">presented under</text><text fill="#000000" font-family="sans-serif" font-size="9.1" lengthAdjust="spacing" textLength="4.9" x="579.0366" y="883.7544">1</text><text fill="#000000" font-family="sans-serif" font-size="9.1" lengthAdjust="spacing" textLength="3.5" x="704.5262" y="869.5385">*</text><!--MD5=[4265453a012991a726928e22789b8a83]
link Parameter to Test--><path codeLine="93" d="M776.867,855.127 C812.532,855.127 872.844,855.127 924.7,855.127 C924.7,855.127 924.7,855.127 1246.35,855.127 C1285.613,855.127 1330.084,855.127 1363.194,855.127 " fill="none" id="Parameter-Test" style="stroke:#A80036;stroke-width:0.6999999999999998;"/><polygon fill="#000000" points="1028.3,848.95,1034.6316,851.0073,1034.6316,846.8928,1028.3,848.95" style="stroke:#000000;stroke-width:0.6999999999999998;"/><text fill="#000000" font-family="sans-serif" font-size="9.1" lengthAdjust="spacing" textLength="81.2" x="1038.1" y="852.6736">requests analysis of</text><text fill="#000000" font-family="sans-serif" font-size="9.1" lengthAdjust="spacing" textLength="14" x="782.3116" y="865.4026">1..*</text><text fill="#000000" font-family="sans-serif" font-size="9.1" lengthAdjust="spacing" textLength="3.5" x="1354.3103" y="865.1751">*</text><!--MD5=[6d9eb9a083ac0654c8b63743033752d3]
link TestType to Company--><path codeLine="95" d="M217.847,810.936 C246.253,800.023 286.832,784.434 314.083,773.969 " fill="none" id="TestType-Company" style="stroke:#A80036;stroke-width:0.6999999999999998;"/><polygon fill="#000000" points="238.9328,780.9051,245.5809,780.5551,244.1056,776.7143,238.9328,780.9051" style="stroke:#000000;stroke-width:0.6999999999999998;"/><text fill="#000000" font-family="sans-serif" font-size="9.1" lengthAdjust="spacing" textLength="37.1" x="248.5" y="783.3736">conducts</text><text fill="#000000" font-family="sans-serif" font-size="9.1" lengthAdjust="spacing" textLength="3.5" x="223.2825" y="819.342">*</text><text fill="#000000" font-family="sans-serif" font-size="9.1" lengthAdjust="spacing" textLength="4.9" x="303.8139" y="786.2349">1</text><!--MD5=[c2c6b28b052a3fe86d789b83a09b2815]
link TestType to Test--><path codeLine="97" d="M195.783,852.334 C216.552,901.152 266.511,995.127 343.35,995.127 C343.35,995.127 343.35,995.127 1172.5,995.127 C1246.287,995.127 1317.624,945.28 1363.166,905.079 " fill="none" id="TestType-Test" style="stroke:#A80036;stroke-width:0.6999999999999998;"/><polygon fill="#000000" points="833.0036,988.7921,839.2358,991.133,839.4215,987.0227,833.0036,988.7921" style="stroke:#000000;stroke-width:0.6999999999999998;"/><text fill="#000000" font-family="sans-serif" font-size="9.1" lengthAdjust="spacing" textLength="16.8" x="842.8" y="992.6736">is of</text><text fill="#000000" font-family="sans-serif" font-size="9.1" lengthAdjust="spacing" textLength="4.9" x="192.2968" y="867.0791">1</text><text fill="#000000" font-family="sans-serif" font-size="9.1" lengthAdjust="spacing" textLength="3.5" x="1354.2794" y="920.2784">*</text><!--MD5=[0985ee834cc881275852ed47ce1e01f6]
link TestType to Administrator--><path codeLine="99" d="M217.714,841.386 C224.483,844.354 231.693,847.049 238.7,848.827 C261.016,854.497 286.832,856.1 307.237,856.275 " fill="none" id="TestType-Administrator" style="stroke:#A80036;stroke-width:0.6999999999999998;"/><polygon fill="#000000" points="242.2474,842.0758,248.1557,845.144,248.8307,841.0852,242.2474,842.0758" style="stroke:#000000;stroke-width:0.6999999999999998;"/><text fill="#000000" font-family="sans-serif" font-size="9.1" lengthAdjust="spacing" textLength="30.1" x="252" y="846.3736">creates</text><text fill="#000000" font-family="sans-serif" font-size="9.1" lengthAdjust="spacing" textLength="3.5" x="223.3501" y="854.6025">*</text><text fill="#000000" font-family="sans-serif" font-size="9.1" lengthAdjust="spacing" textLength="4.9" x="296.8156" y="866.6878">1</text><!--MD5=[9163865a413f55935f47e026f9eaa033]
link Test to Result--><path codeLine="103" d="M1441.384,802.2 C1453.466,783.608 1469.419,764.351 1488.9,752.227 C1575.721,698.187 1842.008,693.497 1942.5,674.527 C1949.262,673.253 1956.584,671.776 1963.283,670.39 " fill="none" id="Test-Result" style="stroke:#A80036;stroke-width:0.6999999999999998;"/><polygon fill="#000000" points="1712.7934,688.493,1706.1509,688.0488,1707.1584,692.038,1712.7934,688.493" style="stroke:#000000;stroke-width:0.6999999999999998;"/><text fill="#000000" font-family="sans-serif" font-size="9.1" lengthAdjust="spacing" textLength="22.4" x="1715.7" y="693.0736">has a</text><text fill="#000000" font-family="sans-serif" font-size="9.1" lengthAdjust="spacing" textLength="4.9" x="1438.9729" y="794.7082">1</text><text fill="#000000" font-family="sans-serif" font-size="9.1" lengthAdjust="spacing" textLength="4.9" x="1952.9242" y="682.0406">1</text><!--MD5=[150ee6e4dbb30ab82336f9e174f6c4ed]
link Test to Company--><path codeLine="105" d="M1363.25,841.834 C1354.997,839.958 1346.492,838.229 1338.4,836.927 C1001.609,782.614 913.542,800.093 573.3,775.327 C520.751,771.505 507.612,770.511 455,767.627 C427.546,766.122 396.228,764.764 374.003,763.861 " fill="none" id="Test-Company" style="stroke:#A80036;stroke-width:0.6999999999999998;"/><polygon fill="#000000" points="909.6392,786.2251,903.4888,783.6767,903.1655,787.7784,909.6392,786.2251" style="stroke:#000000;stroke-width:0.6999999999999998;"/><text fill="#000000" font-family="sans-serif" font-size="9.1" lengthAdjust="spacing" textLength="35" x="912.45" y="789.6736">performs</text><text fill="#000000" font-family="sans-serif" font-size="9.1" lengthAdjust="spacing" textLength="3.5" x="1354.0461" y="850.4646">*</text><text fill="#000000" font-family="sans-serif" font-size="9.1" lengthAdjust="spacing" textLength="4.9" x="379.3697" y="767.9253">1</text><!--MD5=[ca29482912e344ebd5dc9db2d1c2ccab]
link Test to ClinicalAnalysisLaboratory--><path codeLine="107" d="M1464.225,898.793 C1505.042,929.978 1565.802,966.427 1626.8,966.427 C1626.8,966.427 1626.8,966.427 2539.95,966.427 C2617.79,966.427 2675.813,882.602 2703.869,831.684 " fill="none" id="Test-ClinicalAnalysisLaboratory" style="stroke:#A80036;stroke-width:0.6999999999999998;"/><polygon fill="#000000" points="2051.0051,960.4392,2057.4386,962.1512,2057.2162,958.0427,2051.0051,960.4392" style="stroke:#000000;stroke-width:0.6999999999999998;"/><text fill="#000000" font-family="sans-serif" font-size="9.1" lengthAdjust="spacing" textLength="35" x="2060.8" y="963.9736">performs</text><text fill="#000000" font-family="sans-serif" font-size="9.1" lengthAdjust="spacing" textLength="3.5" x="1469.621" y="913.3441">*</text><text fill="#000000" font-family="sans-serif" font-size="9.1" lengthAdjust="spacing" textLength="3.5" x="2697.6488" y="846.7447">*</text><!--MD5=[10af4306acabee641eea198ac06587b8]
link Test to Receptionist--><path codeLine="109" d="M1464.232,873.635 C1506.806,887.761 1569.981,904.827 1626.8,904.827 C1626.8,904.827 1626.8,904.827 2388.05,904.827 C2434.411,904.827 2446.185,889.728 2482.9,861.427 C2502.696,846.167 2519.965,822.591 2529.828,807.618 " fill="none" id="Test-Receptionist" style="stroke:#A80036;stroke-width:0.6999999999999998;"/><polygon fill="#000000" points="1964.5567,898.8665,1971.0034,900.5283,1970.7489,896.4216,1964.5567,898.8665" style="stroke:#000000;stroke-width:0.6999999999999998;"/><text fill="#000000" font-family="sans-serif" font-size="9.1" lengthAdjust="spacing" textLength="35" x="1974.35" y="902.3736">registers</text><text fill="#000000" font-family="sans-serif" font-size="9.1" lengthAdjust="spacing" textLength="3.5" x="1469.6287" y="885.5917">*</text><text fill="#000000" font-family="sans-serif" font-size="9.1" lengthAdjust="spacing" textLength="14" x="2511.2093" y="822.6373">1..*</text><!--MD5=[5fda545c79585d17c4a435a79f76ac33]
link Test to DiagnosisReport--><path codeLine="111" d="M1431.857,802.179 C1443.869,773.045 1462.461,738.227 1488.9,715.127 C1515.528,691.859 1553.706,678.811 1583.141,671.734 " fill="none" id="Test-DiagnosisReport" style="stroke:#A80036;stroke-width:0.6999999999999998;"/><polygon fill="#000000" points="1489.7493,673.4356,1495.8879,670.859,1493.201,667.7429,1489.7493,673.4356" style="stroke:#000000;stroke-width:0.6999999999999998;"/><text fill="#000000" font-family="sans-serif" font-size="9.1" lengthAdjust="spacing" textLength="63" x="1498.7" y="674.8736">associated with</text><text fill="#000000" font-family="sans-serif" font-size="9.1" lengthAdjust="spacing" textLength="4.9" x="1428.5081" y="794.6851">1</text><text fill="#000000" font-family="sans-serif" font-size="9.1" lengthAdjust="spacing" textLength="4.9" x="1572.8287" y="682.7334">1</text><!--MD5=[1ae83efc6d1967ce5bc17dfe294d00c2]
link Sample to Test--><path codeLine="113" d="M1257.802,598.283 C1282.869,639.786 1343.37,739.935 1380.981,802.2 " fill="none" id="Sample-Test" style="stroke:#A80036;stroke-width:0.6999999999999998;"/><polygon fill="#000000" points="1296.3403,651.3542,1297.8532,657.8374,1301.375,655.71,1296.3403,651.3542" style="stroke:#000000;stroke-width:0.6999999999999998;"/><text fill="#000000" font-family="sans-serif" font-size="9.1" lengthAdjust="spacing" textLength="31.5" x="1304.45" y="658.0736">collects</text><text fill="#000000" font-family="sans-serif" font-size="9.1" lengthAdjust="spacing" textLength="3.5" x="1256.5774" y="613.1407">*</text><text fill="#000000" font-family="sans-serif" font-size="9.1" lengthAdjust="spacing" textLength="4.9" x="1372.624" y="794.7082">1</text><!--MD5=[cb5e86f6614a99551e1d9ce6f0ae5849]
link Sample to MedicalLabTechnician--><path codeLine="115" d="M1265.978,560.322 C1285.025,541.618 1314.488,511.987 1338.4,484.827 C1362.459,457.506 1388.457,423.703 1402.506,405.048 " fill="none" id="Sample-MedicalLabTechnician" style="stroke:#A80036;stroke-width:0.6999999999999998;"/><polygon fill="#000000" points="1294.0889,481.2785,1299.8147,477.882,1296.7248,475.1651,1294.0889,481.2785" style="stroke:#000000;stroke-width:0.6999999999999998;"/><text fill="#000000" font-family="sans-serif" font-size="9.1" lengthAdjust="spacing" textLength="35" x="1302.7" y="482.3736">registers</text><text fill="#000000" font-family="sans-serif" font-size="9.1" lengthAdjust="spacing" textLength="14" x="1255.0601" y="552.9204">1..*</text><text fill="#000000" font-family="sans-serif" font-size="9.1" lengthAdjust="spacing" textLength="14" x="1383.403" y="420.0476">1..*</text><!--MD5=[c1a9c7f16ec55f9c4038f73c31b8becd]
link Notification to Client--><path codeLine="117" d="M2239.083,694.505 C2265.529,702.457 2304.008,714.308 2337.3,725.627 C2344.132,727.951 2351.447,730.569 2358.293,733.089 " fill="none" id="Notification-Client" style="stroke:#A80036;stroke-width:0.6999999999999998;"/><polygon fill="#000000" points="2304.2299,707.2278,2298.8395,703.3208,2297.5725,707.2354,2304.2299,707.2278" style="stroke:#000000;stroke-width:0.6999999999999998;"/><text fill="#000000" font-family="sans-serif" font-size="9.1" lengthAdjust="spacing" textLength="29.4" x="2307.2" y="709.8736">informs</text><text fill="#000000" font-family="sans-serif" font-size="9.1" lengthAdjust="spacing" textLength="14" x="2244.6634" y="706.0892">1..*</text><text fill="#000000" font-family="sans-serif" font-size="9.1" lengthAdjust="spacing" textLength="3.5" x="2349.113" y="728.3661">*</text><!--MD5=[e4d1847c93c87040a0b1cb47ee7786b9]
@startuml
hide methods
skinparam classAttributeIconSize 0
left to right direction

class Company
class Laboratory
class ChemicalLaboratory
class ClinicalAnalysisLaboratory
class LaboratoryCoordinator
class Employee
class Administrator
class SpecialistDoctor
class ClinicalChemistryTechnologist
class MedicalLabTechnician
class Receptionist
class Client
class LabOrder
class Result
class DiagnosisReport
class NHSReport
class ParameterCategory
class Parameter
class TestType
class Test
class Notification
class NHS
class Sample

Company "1" - - "*" Parameter : > capable of analysing

Company "1" - - "*" Employee : < works for

Employee "*" - - "*" ClinicalChemistryTechnologist : < is a

Employee "*" - - "1..*" Receptionist : < is a

Employee "*" - - "*" MedicalLabTechnician : < is a

Employee "*" - - "1..*" LaboratoryCoordinator: < is a

ClinicalChemistryTechnologist "*" - - "1" ChemicalLaboratory : > works at

MedicalLabTechnician "1..*" - - "*" ClinicalAnalysisLaboratory : > works at

Receptionist "1..*" - - "*" ClinicalAnalysisLaboratory : > works at

LaboratoryCoordinator "1..*" - - "*" Laboratory: > works at a

ChemicalLaboratory "1" - - "1" Company : < owns

ChemicalLaboratory "1" - - "*" Sample : < is sent

ClinicalAnalysisLaboratory "*" - - "1" Company : < owns

Laboratory "1"  - - "1" ChemicalLaboratory: < is a

Laboratory "1"  - - "1" ClinicalAnalysisLaboratory: < is a

Administrator "1" - - "*" ParameterCategory : < created by

SpecialistDoctor "1" - - "1" Result : < analyzed by

ClinicalChemistryTechnologist "*" - - "1..*" Sample : < analyzed by

Client "1" - - "*" Test : < requested by

Client "*" - - "1..*" Receptionist : < registers

LabOrder "1" - - "*" Client : > brought by

LabOrder "1" - - "1..*" Receptionist : < receives

LabOrder "1" - - "1" Test : < is associated

LabOrder "1" - - "1" TestType : > contains

Result "*" - - "1..*" ClinicalChemistryTechnologist : < registers

Result "*" - - "1..*" Notification : > is associated with

DiagnosisReport "1" - - "1" SpecialistDoctor : < registers

DiagnosisReport "1" - - "1" Client : is sent to

DiagnosisReport "*" - - "1" LaboratoryCoordinator : < validates

NHSReport "1..*" - - "1" Result : < generates

NHSReport "1..*" - - "1" NHS : > is sent to

ParameterCategory "1" - - "*" Parameter : < presented under

Parameter "1..*" - - "*" Test : < requests analysis of

TestType "*" - - "1" Company : < conducts

TestType "1" - - "*" Test: < is of

TestType "*" - - "1" Administrator : < creates

TestType "1" - - "1" LabOrder : < contains

Test "1" - - "1" Result : > has a

Test "*" - - "1" Company : < performs

Test "*" - - "*" ClinicalAnalysisLaboratory : < performs

Test "*" - - "1..*" Receptionist : < registers

Test "1" - - "1" DiagnosisReport : < associated with

Sample "*" - - "1" Test : < collects

Sample "1..*" - - "1..*" MedicalLabTechnician : < registers

Notification "1..*" - - "*" Client : > informs

class Company{
-designation
}

class ChemicalLaboratory{
-name
-address
-phoneNumber
-TIN
}

class ClinicalAnalysisLaboratory{
-name
-address
-phoneNumber
-labID
-TIN
}

class Employee{
-name
-address
-phoneNumber
-employeeID
-orgRole
-email
-SOCcode
}

class Administrator{
}

class SpecialistDoctor{
-doctorIndex
}

class ClinicalChemistryTechnologist{
}

class MedicalLabTechnician{
}

class Receptionist{
}

class Client{
-citizenID
-nhsID
-birthDate
-sex
-TIN
-phoneNumber
-email
-name
}

class LabOrder{
}

class Result{
}

class DiagnosisReport{
}

class ParameterCategory{
-code
-description
-nhsID
}

class Parameter{
-designation
-description
-code
}

class TestType{
-code
-description
-collectingMethod
}

class Test{
-description
-internalCode
-nhsCode
-collectingMethod
-collectDateTime
-chemicalAnalysisDateTime
-diagnosisDateTime
-validationDateTime
}

class Sample{
-barcode
}

@enduml

PlantUML version 1.2021.4(Sun Apr 04 09:49:39 BST 2021)
(GPL source distribution)
Java Runtime: OpenJDK Runtime Environment
JVM: OpenJDK 64-Bit Server VM
Default Encoding: Cp1252
Language: pt
Country: PT
--></g></svg>