<?xml version="1.0" encoding="UTF-8" standalone="no"?><svg xmlns="http://www.w3.org/2000/svg" xmlns:xlink="http://www.w3.org/1999/xlink" contentScriptType="application/ecmascript" contentStyleType="text/css" height="1180px" preserveAspectRatio="none" style="width:4009px;height:1180px;" version="1.1" viewBox="0 0 4009 1180" width="4009px" zoomAndPan="magnify"><defs><filter height="300%" id="fqa0na90n0jeu" width="300%" x="-1" y="-1"><feGaussianBlur result="blurOut" stdDeviation="2.0"/><feColorMatrix in="blurOut" result="blurOut2" type="matrix" values="0 0 0 0 0 0 0 0 0 0 0 0 0 0 0 0 0 0 .4 0"/><feOffset dx="4.0" dy="4.0" in="blurOut2" result="blurOut3"/><feBlend in="SourceGraphic" in2="blurOut3" mode="normal"/></filter></defs><g><!--MD5=[02e4b9b7573f1156f41e60aa5b4e25a4]
class Company--><rect codeLine="121" fill="#FEFECE" filter="url(#fqa0na90n0jeu)" height="53.8359" id="Company" style="stroke:#A80036;stroke-width:1.5;" width="85" x="439" y="619.3564"/><ellipse cx="454" cy="635.3564" fill="#ADD1B2" rx="11" ry="11" style="stroke:#A80036;stroke-width:1.0;"/><path d="M456,631.8564 Q456.2031,631.3564 456.4375,631.1064 Q456.6719,630.8564 456.9375,630.8564 Q457.4063,630.8564 457.7031,631.1377 Q458,631.4189 458,632.0752 L458,633.6377 Q458,634.2939 457.7188,634.5752 Q457.4375,634.8564 457,634.8564 Q456.6094,634.8564 456.3594,634.6846 Q456.1094,634.5127 456,634.0596 Q455.9531,633.7471 455.7813,633.5752 Q455.4688,633.2471 454.9063,633.0596 Q454.3438,632.8564 453.7813,632.8564 Q453.0781,632.8564 452.4844,633.1377 Q451.9063,633.4189 451.4531,634.0439 Q451,634.6689 451,635.5283 L451,636.4502 Q451,637.4814 451.8438,638.1689 Q452.6875,638.8564 454.1875,638.8564 Q455.0781,638.8564 455.7031,638.6533 Q456.0625,638.5439 456.4688,638.1846 Q456.7344,637.9814 456.875,637.9189 Q457.0156,637.8564 457.1875,637.8564 Q457.5156,637.8564 457.75,638.1221 Q458,638.3721 458,638.7314 Q458,639.0752 457.6563,639.4814 Q457.1563,640.0752 456.3594,640.4033 Q455.3125,640.8564 454.0313,640.8564 Q452.5313,640.8564 451.3281,640.2627 Q450.3594,639.7939 449.6719,638.7783 Q449,637.7627 449,636.5596 L449,635.4658 Q449,634.2158 449.5938,633.1221 Q450.2031,632.0283 451.25,631.4502 Q452.3125,630.8564 453.5,630.8564 Q454.2188,630.8564 454.8438,631.1064 Q455.4688,631.3564 456,631.8564 Z " fill="#000000"/><text fill="#000000" font-family="sans-serif" font-size="12" lengthAdjust="spacing" textLength="53" x="468" y="640.2666">Company</text><line style="stroke:#A80036;stroke-width:1.5;" x1="440" x2="523" y1="651.3564" y2="651.3564"/><text fill="#000000" font-family="sans-serif" font-size="11" lengthAdjust="spacing" textLength="59" x="445" y="666.7754">-designation</text><!--MD5=[0caf3a413731a0de34fc6162fe213ed9]
class Laboratory--><rect codeLine="125" fill="#FEFECE" filter="url(#fqa0na90n0jeu)" height="95.3438" id="Laboratory" style="stroke:#A80036;stroke-width:1.5;" width="90" x="1272" y="390.8564"/><ellipse cx="1287" cy="406.8564" fill="#ADD1B2" rx="11" ry="11" style="stroke:#A80036;stroke-width:1.0;"/><path d="M1289,403.3564 Q1289.2031,402.8564 1289.4375,402.6064 Q1289.6719,402.3564 1289.9375,402.3564 Q1290.4063,402.3564 1290.7031,402.6377 Q1291,402.9189 1291,403.5752 L1291,405.1377 Q1291,405.7939 1290.7188,406.0752 Q1290.4375,406.3564 1290,406.3564 Q1289.6094,406.3564 1289.3594,406.1846 Q1289.1094,406.0127 1289,405.5596 Q1288.9531,405.2471 1288.7813,405.0752 Q1288.4688,404.7471 1287.9063,404.5596 Q1287.3438,404.3564 1286.7813,404.3564 Q1286.0781,404.3564 1285.4844,404.6377 Q1284.9063,404.9189 1284.4531,405.5439 Q1284,406.1689 1284,407.0283 L1284,407.9502 Q1284,408.9814 1284.8438,409.6689 Q1285.6875,410.3564 1287.1875,410.3564 Q1288.0781,410.3564 1288.7031,410.1533 Q1289.0625,410.0439 1289.4688,409.6846 Q1289.7344,409.4814 1289.875,409.4189 Q1290.0156,409.3564 1290.1875,409.3564 Q1290.5156,409.3564 1290.75,409.6221 Q1291,409.8721 1291,410.2314 Q1291,410.5752 1290.6563,410.9814 Q1290.1563,411.5752 1289.3594,411.9033 Q1288.3125,412.3564 1287.0313,412.3564 Q1285.5313,412.3564 1284.3281,411.7627 Q1283.3594,411.2939 1282.6719,410.2783 Q1282,409.2627 1282,408.0596 L1282,406.9658 Q1282,405.7158 1282.5938,404.6221 Q1283.2031,403.5283 1284.25,402.9502 Q1285.3125,402.3564 1286.5,402.3564 Q1287.2188,402.3564 1287.8438,402.6064 Q1288.4688,402.8564 1289,403.3564 Z " fill="#000000"/><text fill="#000000" font-family="sans-serif" font-size="12" lengthAdjust="spacing" textLength="58" x="1301" y="411.7666">Laboratory</text><line style="stroke:#A80036;stroke-width:1.5;" x1="1273" x2="1361" y1="422.8564" y2="422.8564"/><text fill="#000000" font-family="sans-serif" font-size="11" lengthAdjust="spacing" textLength="30" x="1278" y="438.2754">-name</text><text fill="#000000" font-family="sans-serif" font-size="11" lengthAdjust="spacing" textLength="44" x="1278" y="452.1113">-address</text><text fill="#000000" font-family="sans-serif" font-size="11" lengthAdjust="spacing" textLength="71" x="1278" y="465.9473">-phoneNumber</text><text fill="#000000" font-family="sans-serif" font-size="11" lengthAdjust="spacing" textLength="19" x="1278" y="479.7832">-TIN</text><!--MD5=[a64badb107d3691f2dc6af242cdbeb21]
class ChemicalLaboratory--><rect codeLine="132" fill="#FEFECE" filter="url(#fqa0na90n0jeu)" height="40" id="ChemicalLaboratory" style="stroke:#A80036;stroke-width:1.5;" width="143" x="1423" y="487.3564"/><ellipse cx="1438" cy="503.3564" fill="#ADD1B2" rx="11" ry="11" style="stroke:#A80036;stroke-width:1.0;"/><path d="M1440,499.8564 Q1440.2031,499.3564 1440.4375,499.1064 Q1440.6719,498.8564 1440.9375,498.8564 Q1441.4063,498.8564 1441.7031,499.1377 Q1442,499.4189 1442,500.0752 L1442,501.6377 Q1442,502.2939 1441.7188,502.5752 Q1441.4375,502.8564 1441,502.8564 Q1440.6094,502.8564 1440.3594,502.6846 Q1440.1094,502.5127 1440,502.0596 Q1439.9531,501.7471 1439.7813,501.5752 Q1439.4688,501.2471 1438.9063,501.0596 Q1438.3438,500.8564 1437.7813,500.8564 Q1437.0781,500.8564 1436.4844,501.1377 Q1435.9063,501.4189 1435.4531,502.0439 Q1435,502.6689 1435,503.5283 L1435,504.4502 Q1435,505.4814 1435.8438,506.1689 Q1436.6875,506.8564 1438.1875,506.8564 Q1439.0781,506.8564 1439.7031,506.6533 Q1440.0625,506.5439 1440.4688,506.1846 Q1440.7344,505.9814 1440.875,505.9189 Q1441.0156,505.8564 1441.1875,505.8564 Q1441.5156,505.8564 1441.75,506.1221 Q1442,506.3721 1442,506.7314 Q1442,507.0752 1441.6563,507.4814 Q1441.1563,508.0752 1440.3594,508.4033 Q1439.3125,508.8564 1438.0313,508.8564 Q1436.5313,508.8564 1435.3281,508.2627 Q1434.3594,507.7939 1433.6719,506.7783 Q1433,505.7627 1433,504.5596 L1433,503.4658 Q1433,502.2158 1433.5938,501.1221 Q1434.2031,500.0283 1435.25,499.4502 Q1436.3125,498.8564 1437.5,498.8564 Q1438.2188,498.8564 1438.8438,499.1064 Q1439.4688,499.3564 1440,499.8564 Z " fill="#000000"/><text fill="#000000" font-family="sans-serif" font-size="12" lengthAdjust="spacing" textLength="111" x="1452" y="508.2666">ChemicalLaboratory</text><line style="stroke:#A80036;stroke-width:1.5;" x1="1424" x2="1565" y1="519.3564" y2="519.3564"/><!--MD5=[1934a092c0e7d4da7dc7075b6f4b6b03]
class ClinicalAnalysisLaboratory--><rect codeLine="135" fill="#FEFECE" filter="url(#fqa0na90n0jeu)" height="53.8359" id="ClinicalAnalysisLaboratory" style="stroke:#A80036;stroke-width:1.5;" width="177" x="3818" y="281.3564"/><ellipse cx="3833" cy="297.3564" fill="#ADD1B2" rx="11" ry="11" style="stroke:#A80036;stroke-width:1.0;"/><path d="M3835,293.8564 Q3835.2031,293.3564 3835.4375,293.1064 Q3835.6719,292.8564 3835.9375,292.8564 Q3836.4063,292.8564 3836.7031,293.1377 Q3837,293.4189 3837,294.0752 L3837,295.6377 Q3837,296.2939 3836.7188,296.5752 Q3836.4375,296.8564 3836,296.8564 Q3835.6094,296.8564 3835.3594,296.6846 Q3835.1094,296.5127 3835,296.0596 Q3834.9531,295.7471 3834.7813,295.5752 Q3834.4688,295.2471 3833.9063,295.0596 Q3833.3438,294.8564 3832.7813,294.8564 Q3832.0781,294.8564 3831.4844,295.1377 Q3830.9063,295.4189 3830.4531,296.0439 Q3830,296.6689 3830,297.5283 L3830,298.4502 Q3830,299.4814 3830.8438,300.1689 Q3831.6875,300.8564 3833.1875,300.8564 Q3834.0781,300.8564 3834.7031,300.6533 Q3835.0625,300.5439 3835.4688,300.1846 Q3835.7344,299.9814 3835.875,299.9189 Q3836.0156,299.8564 3836.1875,299.8564 Q3836.5156,299.8564 3836.75,300.1221 Q3837,300.3721 3837,300.7314 Q3837,301.0752 3836.6563,301.4814 Q3836.1563,302.0752 3835.3594,302.4033 Q3834.3125,302.8564 3833.0313,302.8564 Q3831.5313,302.8564 3830.3281,302.2627 Q3829.3594,301.7939 3828.6719,300.7783 Q3828,299.7627 3828,298.5596 L3828,297.4658 Q3828,296.2158 3828.5938,295.1221 Q3829.2031,294.0283 3830.25,293.4502 Q3831.3125,292.8564 3832.5,292.8564 Q3833.2188,292.8564 3833.8438,293.1064 Q3834.4688,293.3564 3835,293.8564 Z " fill="#000000"/><text fill="#000000" font-family="sans-serif" font-size="12" lengthAdjust="spacing" textLength="145" x="3847" y="302.2666">ClinicalAnalysisLaboratory</text><line style="stroke:#A80036;stroke-width:1.5;" x1="3819" x2="3994" y1="313.3564" y2="313.3564"/><text fill="#000000" font-family="sans-serif" font-size="11" lengthAdjust="spacing" textLength="27" x="3824" y="328.7754">-labID</text><!--MD5=[052425de1c0eb6cc1c1b48342b0bb88f]
class LaboratoryCoordinator--><rect codeLine="9" fill="#FEFECE" filter="url(#fqa0na90n0jeu)" height="40" id="LaboratoryCoordinator" style="stroke:#A80036;stroke-width:1.5;" width="155" x="949" y="418.3564"/><ellipse cx="964" cy="434.3564" fill="#ADD1B2" rx="11" ry="11" style="stroke:#A80036;stroke-width:1.0;"/><path d="M966,430.8564 Q966.2031,430.3564 966.4375,430.1064 Q966.6719,429.8564 966.9375,429.8564 Q967.4063,429.8564 967.7031,430.1377 Q968,430.4189 968,431.0752 L968,432.6377 Q968,433.2939 967.7188,433.5752 Q967.4375,433.8564 967,433.8564 Q966.6094,433.8564 966.3594,433.6846 Q966.1094,433.5127 966,433.0596 Q965.9531,432.7471 965.7813,432.5752 Q965.4688,432.2471 964.9063,432.0596 Q964.3438,431.8564 963.7813,431.8564 Q963.0781,431.8564 962.4844,432.1377 Q961.9063,432.4189 961.4531,433.0439 Q961,433.6689 961,434.5283 L961,435.4502 Q961,436.4814 961.8438,437.1689 Q962.6875,437.8564 964.1875,437.8564 Q965.0781,437.8564 965.7031,437.6533 Q966.0625,437.5439 966.4688,437.1846 Q966.7344,436.9814 966.875,436.9189 Q967.0156,436.8564 967.1875,436.8564 Q967.5156,436.8564 967.75,437.1221 Q968,437.3721 968,437.7314 Q968,438.0752 967.6563,438.4814 Q967.1563,439.0752 966.3594,439.4033 Q965.3125,439.8564 964.0313,439.8564 Q962.5313,439.8564 961.3281,439.2627 Q960.3594,438.7939 959.6719,437.7783 Q959,436.7627 959,435.5596 L959,434.4658 Q959,433.2158 959.5938,432.1221 Q960.2031,431.0283 961.25,430.4502 Q962.3125,429.8564 963.5,429.8564 Q964.2188,429.8564 964.8438,430.1064 Q965.4688,430.3564 966,430.8564 Z " fill="#000000"/><text fill="#000000" font-family="sans-serif" font-size="12" lengthAdjust="spacing" textLength="123" x="978" y="439.2666">LaboratoryCoordinator</text><line style="stroke:#A80036;stroke-width:1.5;" x1="950" x2="1103" y1="450.3564" y2="450.3564"/><!--MD5=[7421f545a0d8420c5bec41e74b387d9c]
class Employee--><rect codeLine="149" fill="#FEFECE" filter="url(#fqa0na90n0jeu)" height="136.8516" id="Employee" style="stroke:#A80036;stroke-width:1.5;" width="87" x="660" y="255.8564"/><ellipse cx="675" cy="271.8564" fill="#ADD1B2" rx="11" ry="11" style="stroke:#A80036;stroke-width:1.0;"/><path d="M677,268.3564 Q677.2031,267.8564 677.4375,267.6064 Q677.6719,267.3564 677.9375,267.3564 Q678.4063,267.3564 678.7031,267.6377 Q679,267.9189 679,268.5752 L679,270.1377 Q679,270.7939 678.7188,271.0752 Q678.4375,271.3564 678,271.3564 Q677.6094,271.3564 677.3594,271.1846 Q677.1094,271.0127 677,270.5596 Q676.9531,270.2471 676.7813,270.0752 Q676.4688,269.7471 675.9063,269.5596 Q675.3438,269.3564 674.7813,269.3564 Q674.0781,269.3564 673.4844,269.6377 Q672.9063,269.9189 672.4531,270.5439 Q672,271.1689 672,272.0283 L672,272.9502 Q672,273.9814 672.8438,274.6689 Q673.6875,275.3564 675.1875,275.3564 Q676.0781,275.3564 676.7031,275.1533 Q677.0625,275.0439 677.4688,274.6846 Q677.7344,274.4814 677.875,274.4189 Q678.0156,274.3564 678.1875,274.3564 Q678.5156,274.3564 678.75,274.6221 Q679,274.8721 679,275.2314 Q679,275.5752 678.6563,275.9814 Q678.1563,276.5752 677.3594,276.9033 Q676.3125,277.3564 675.0313,277.3564 Q673.5313,277.3564 672.3281,276.7627 Q671.3594,276.2939 670.6719,275.2783 Q670,274.2627 670,273.0596 L670,271.9658 Q670,270.7158 670.5938,269.6221 Q671.2031,268.5283 672.25,267.9502 Q673.3125,267.3564 674.5,267.3564 Q675.2188,267.3564 675.8438,267.6064 Q676.4688,267.8564 677,268.3564 Z " fill="#000000"/><text fill="#000000" font-family="sans-serif" font-size="12" lengthAdjust="spacing" textLength="55" x="689" y="276.7666">Employee</text><line style="stroke:#A80036;stroke-width:1.5;" x1="661" x2="746" y1="287.8564" y2="287.8564"/><text fill="#000000" font-family="sans-serif" font-size="11" lengthAdjust="spacing" textLength="30" x="666" y="303.2754">-name</text><text fill="#000000" font-family="sans-serif" font-size="11" lengthAdjust="spacing" textLength="44" x="666" y="317.1113">-address</text><text fill="#000000" font-family="sans-serif" font-size="11" lengthAdjust="spacing" textLength="71" x="666" y="330.9473">-phoneNumber</text><text fill="#000000" font-family="sans-serif" font-size="11" lengthAdjust="spacing" textLength="59" x="666" y="344.7832">-employeeID</text><text fill="#000000" font-family="sans-serif" font-size="11" lengthAdjust="spacing" textLength="41" x="666" y="358.6191">-orgRole</text><text fill="#000000" font-family="sans-serif" font-size="11" lengthAdjust="spacing" textLength="28" x="666" y="372.4551">-email</text><text fill="#000000" font-family="sans-serif" font-size="11" lengthAdjust="spacing" textLength="50" x="666" y="386.291">-SOCcode</text><!--MD5=[da547346deef918ea16944ba046651ef]
class Administrator--><rect codeLine="139" fill="#FEFECE" filter="url(#fqa0na90n0jeu)" height="136.8516" id="Administrator" style="stroke:#A80036;stroke-width:1.5;" width="105" x="651" y="752.8564"/><ellipse cx="666" cy="768.8564" fill="#ADD1B2" rx="11" ry="11" style="stroke:#A80036;stroke-width:1.0;"/><path d="M668,765.3564 Q668.2031,764.8564 668.4375,764.6064 Q668.6719,764.3564 668.9375,764.3564 Q669.4063,764.3564 669.7031,764.6377 Q670,764.9189 670,765.5752 L670,767.1377 Q670,767.7939 669.7188,768.0752 Q669.4375,768.3564 669,768.3564 Q668.6094,768.3564 668.3594,768.1846 Q668.1094,768.0127 668,767.5596 Q667.9531,767.2471 667.7813,767.0752 Q667.4688,766.7471 666.9063,766.5596 Q666.3438,766.3564 665.7813,766.3564 Q665.0781,766.3564 664.4844,766.6377 Q663.9063,766.9189 663.4531,767.5439 Q663,768.1689 663,769.0283 L663,769.9502 Q663,770.9814 663.8438,771.6689 Q664.6875,772.3564 666.1875,772.3564 Q667.0781,772.3564 667.7031,772.1533 Q668.0625,772.0439 668.4688,771.6846 Q668.7344,771.4814 668.875,771.4189 Q669.0156,771.3564 669.1875,771.3564 Q669.5156,771.3564 669.75,771.6221 Q670,771.8721 670,772.2314 Q670,772.5752 669.6563,772.9814 Q669.1563,773.5752 668.3594,773.9033 Q667.3125,774.3564 666.0313,774.3564 Q664.5313,774.3564 663.3281,773.7627 Q662.3594,773.2939 661.6719,772.2783 Q661,771.2627 661,770.0596 L661,768.9658 Q661,767.7158 661.5938,766.6221 Q662.2031,765.5283 663.25,764.9502 Q664.3125,764.3564 665.5,764.3564 Q666.2188,764.3564 666.8438,764.6064 Q667.4688,764.8564 668,765.3564 Z " fill="#000000"/><text fill="#000000" font-family="sans-serif" font-size="12" lengthAdjust="spacing" textLength="73" x="680" y="773.7666">Administrator</text><line style="stroke:#A80036;stroke-width:1.5;" x1="652" x2="755" y1="784.8564" y2="784.8564"/><text fill="#000000" font-family="sans-serif" font-size="11" lengthAdjust="spacing" textLength="30" x="657" y="800.2754">-name</text><text fill="#000000" font-family="sans-serif" font-size="11" lengthAdjust="spacing" textLength="44" x="657" y="814.1113">-address</text><text fill="#000000" font-family="sans-serif" font-size="11" lengthAdjust="spacing" textLength="71" x="657" y="827.9473">-phoneNumber</text><text fill="#000000" font-family="sans-serif" font-size="11" lengthAdjust="spacing" textLength="59" x="657" y="841.7832">-employeeID</text><text fill="#000000" font-family="sans-serif" font-size="11" lengthAdjust="spacing" textLength="41" x="657" y="855.6191">-orgRole</text><text fill="#000000" font-family="sans-serif" font-size="11" lengthAdjust="spacing" textLength="28" x="657" y="869.4551">-email</text><text fill="#000000" font-family="sans-serif" font-size="11" lengthAdjust="spacing" textLength="50" x="657" y="883.291">-SOCcode</text><!--MD5=[7d96fd15f3014691d2fcaf89c5791e2a]
class SpecialistDoctor--><rect codeLine="159" fill="#FEFECE" filter="url(#fqa0na90n0jeu)" height="53.8359" id="SpecialistDoctor" style="stroke:#A80036;stroke-width:1.5;" width="122" x="2548" y="753.3564"/><ellipse cx="2563" cy="769.3564" fill="#ADD1B2" rx="11" ry="11" style="stroke:#A80036;stroke-width:1.0;"/><path d="M2565,765.8564 Q2565.2031,765.3564 2565.4375,765.1064 Q2565.6719,764.8564 2565.9375,764.8564 Q2566.4063,764.8564 2566.7031,765.1377 Q2567,765.4189 2567,766.0752 L2567,767.6377 Q2567,768.2939 2566.7188,768.5752 Q2566.4375,768.8564 2566,768.8564 Q2565.6094,768.8564 2565.3594,768.6846 Q2565.1094,768.5127 2565,768.0596 Q2564.9531,767.7471 2564.7813,767.5752 Q2564.4688,767.2471 2563.9063,767.0596 Q2563.3438,766.8564 2562.7813,766.8564 Q2562.0781,766.8564 2561.4844,767.1377 Q2560.9063,767.4189 2560.4531,768.0439 Q2560,768.6689 2560,769.5283 L2560,770.4502 Q2560,771.4814 2560.8438,772.1689 Q2561.6875,772.8564 2563.1875,772.8564 Q2564.0781,772.8564 2564.7031,772.6533 Q2565.0625,772.5439 2565.4688,772.1846 Q2565.7344,771.9814 2565.875,771.9189 Q2566.0156,771.8564 2566.1875,771.8564 Q2566.5156,771.8564 2566.75,772.1221 Q2567,772.3721 2567,772.7314 Q2567,773.0752 2566.6563,773.4814 Q2566.1563,774.0752 2565.3594,774.4033 Q2564.3125,774.8564 2563.0313,774.8564 Q2561.5313,774.8564 2560.3281,774.2627 Q2559.3594,773.7939 2558.6719,772.7783 Q2558,771.7627 2558,770.5596 L2558,769.4658 Q2558,768.2158 2558.5938,767.1221 Q2559.2031,766.0283 2560.25,765.4502 Q2561.3125,764.8564 2562.5,764.8564 Q2563.2188,764.8564 2563.8438,765.1064 Q2564.4688,765.3564 2565,765.8564 Z " fill="#000000"/><text fill="#000000" font-family="sans-serif" font-size="12" lengthAdjust="spacing" textLength="90" x="2577" y="774.2666">SpecialistDoctor</text><line style="stroke:#A80036;stroke-width:1.5;" x1="2549" x2="2669" y1="785.3564" y2="785.3564"/><text fill="#000000" font-family="sans-serif" font-size="11" lengthAdjust="spacing" textLength="61" x="2554" y="800.7754">-doctorIndex</text><!--MD5=[012ee2a8bf3ae2b319009b06f951c2e5]
class ClinicalChemistryTechnologist--><rect codeLine="163" fill="#FEFECE" filter="url(#fqa0na90n0jeu)" height="40" id="ClinicalChemistryTechnologist" style="stroke:#A80036;stroke-width:1.5;" width="200" x="3068" y="485.3564"/><ellipse cx="3083" cy="501.3564" fill="#ADD1B2" rx="11" ry="11" style="stroke:#A80036;stroke-width:1.0;"/><path d="M3085,497.8564 Q3085.2031,497.3564 3085.4375,497.1064 Q3085.6719,496.8564 3085.9375,496.8564 Q3086.4063,496.8564 3086.7031,497.1377 Q3087,497.4189 3087,498.0752 L3087,499.6377 Q3087,500.2939 3086.7188,500.5752 Q3086.4375,500.8564 3086,500.8564 Q3085.6094,500.8564 3085.3594,500.6846 Q3085.1094,500.5127 3085,500.0596 Q3084.9531,499.7471 3084.7813,499.5752 Q3084.4688,499.2471 3083.9063,499.0596 Q3083.3438,498.8564 3082.7813,498.8564 Q3082.0781,498.8564 3081.4844,499.1377 Q3080.9063,499.4189 3080.4531,500.0439 Q3080,500.6689 3080,501.5283 L3080,502.4502 Q3080,503.4814 3080.8438,504.1689 Q3081.6875,504.8564 3083.1875,504.8564 Q3084.0781,504.8564 3084.7031,504.6533 Q3085.0625,504.5439 3085.4688,504.1846 Q3085.7344,503.9814 3085.875,503.9189 Q3086.0156,503.8564 3086.1875,503.8564 Q3086.5156,503.8564 3086.75,504.1221 Q3087,504.3721 3087,504.7314 Q3087,505.0752 3086.6563,505.4814 Q3086.1563,506.0752 3085.3594,506.4033 Q3084.3125,506.8564 3083.0313,506.8564 Q3081.5313,506.8564 3080.3281,506.2627 Q3079.3594,505.7939 3078.6719,504.7783 Q3078,503.7627 3078,502.5596 L3078,501.4658 Q3078,500.2158 3078.5938,499.1221 Q3079.2031,498.0283 3080.25,497.4502 Q3081.3125,496.8564 3082.5,496.8564 Q3083.2188,496.8564 3083.8438,497.1064 Q3084.4688,497.3564 3085,497.8564 Z " fill="#000000"/><text fill="#000000" font-family="sans-serif" font-size="12" lengthAdjust="spacing" textLength="168" x="3097" y="506.2666">ClinicalChemistryTechnologist</text><line style="stroke:#A80036;stroke-width:1.5;" x1="3069" x2="3267" y1="517.3564" y2="517.3564"/><!--MD5=[01931d41e78f8996acd44f6f0fd8de28]
class MedicalLabTechnician--><rect codeLine="166" fill="#FEFECE" filter="url(#fqa0na90n0jeu)" height="40" id="MedicalLabTechnician" style="stroke:#A80036;stroke-width:1.5;" width="155" x="1957" y="160.3564"/><ellipse cx="1972" cy="176.3564" fill="#ADD1B2" rx="11" ry="11" style="stroke:#A80036;stroke-width:1.0;"/><path d="M1974,172.8564 Q1974.2031,172.3564 1974.4375,172.1064 Q1974.6719,171.8564 1974.9375,171.8564 Q1975.4063,171.8564 1975.7031,172.1377 Q1976,172.4189 1976,173.0752 L1976,174.6377 Q1976,175.2939 1975.7188,175.5752 Q1975.4375,175.8564 1975,175.8564 Q1974.6094,175.8564 1974.3594,175.6846 Q1974.1094,175.5127 1974,175.0596 Q1973.9531,174.7471 1973.7813,174.5752 Q1973.4688,174.2471 1972.9063,174.0596 Q1972.3438,173.8564 1971.7813,173.8564 Q1971.0781,173.8564 1970.4844,174.1377 Q1969.9063,174.4189 1969.4531,175.0439 Q1969,175.6689 1969,176.5283 L1969,177.4502 Q1969,178.4814 1969.8438,179.1689 Q1970.6875,179.8564 1972.1875,179.8564 Q1973.0781,179.8564 1973.7031,179.6533 Q1974.0625,179.5439 1974.4688,179.1846 Q1974.7344,178.9814 1974.875,178.9189 Q1975.0156,178.8564 1975.1875,178.8564 Q1975.5156,178.8564 1975.75,179.1221 Q1976,179.3721 1976,179.7314 Q1976,180.0752 1975.6563,180.4814 Q1975.1563,181.0752 1974.3594,181.4033 Q1973.3125,181.8564 1972.0313,181.8564 Q1970.5313,181.8564 1969.3281,181.2627 Q1968.3594,180.7939 1967.6719,179.7783 Q1967,178.7627 1967,177.5596 L1967,176.4658 Q1967,175.2158 1967.5938,174.1221 Q1968.2031,173.0283 1969.25,172.4502 Q1970.3125,171.8564 1971.5,171.8564 Q1972.2188,171.8564 1972.8438,172.1064 Q1973.4688,172.3564 1974,172.8564 Z " fill="#000000"/><text fill="#000000" font-family="sans-serif" font-size="12" lengthAdjust="spacing" textLength="123" x="1986" y="181.2666">MedicalLabTechnician</text><line style="stroke:#A80036;stroke-width:1.5;" x1="1958" x2="2111" y1="192.3564" y2="192.3564"/><!--MD5=[03960189e81aa2c066c762ffabbee709]
class Receptionist--><rect codeLine="169" fill="#FEFECE" filter="url(#fqa0na90n0jeu)" height="40" id="Receptionist" style="stroke:#A80036;stroke-width:1.5;" width="101" x="3593" y="361.3564"/><ellipse cx="3608" cy="377.3564" fill="#ADD1B2" rx="11" ry="11" style="stroke:#A80036;stroke-width:1.0;"/><path d="M3610,373.8564 Q3610.2031,373.3564 3610.4375,373.1064 Q3610.6719,372.8564 3610.9375,372.8564 Q3611.4063,372.8564 3611.7031,373.1377 Q3612,373.4189 3612,374.0752 L3612,375.6377 Q3612,376.2939 3611.7188,376.5752 Q3611.4375,376.8564 3611,376.8564 Q3610.6094,376.8564 3610.3594,376.6846 Q3610.1094,376.5127 3610,376.0596 Q3609.9531,375.7471 3609.7813,375.5752 Q3609.4688,375.2471 3608.9063,375.0596 Q3608.3438,374.8564 3607.7813,374.8564 Q3607.0781,374.8564 3606.4844,375.1377 Q3605.9063,375.4189 3605.4531,376.0439 Q3605,376.6689 3605,377.5283 L3605,378.4502 Q3605,379.4814 3605.8438,380.1689 Q3606.6875,380.8564 3608.1875,380.8564 Q3609.0781,380.8564 3609.7031,380.6533 Q3610.0625,380.5439 3610.4688,380.1846 Q3610.7344,379.9814 3610.875,379.9189 Q3611.0156,379.8564 3611.1875,379.8564 Q3611.5156,379.8564 3611.75,380.1221 Q3612,380.3721 3612,380.7314 Q3612,381.0752 3611.6563,381.4814 Q3611.1563,382.0752 3610.3594,382.4033 Q3609.3125,382.8564 3608.0313,382.8564 Q3606.5313,382.8564 3605.3281,382.2627 Q3604.3594,381.7939 3603.6719,380.7783 Q3603,379.7627 3603,378.5596 L3603,377.4658 Q3603,376.2158 3603.5938,375.1221 Q3604.2031,374.0283 3605.25,373.4502 Q3606.3125,372.8564 3607.5,372.8564 Q3608.2188,372.8564 3608.8438,373.1064 Q3609.4688,373.3564 3610,373.8564 Z " fill="#000000"/><text fill="#000000" font-family="sans-serif" font-size="12" lengthAdjust="spacing" textLength="69" x="3622" y="382.2666">Receptionist</text><line style="stroke:#A80036;stroke-width:1.5;" x1="3594" x2="3693" y1="393.3564" y2="393.3564"/><!--MD5=[ed6624c6556d5e7b1bd23032162d20b7]
class Client--><rect codeLine="172" fill="#FEFECE" filter="url(#fqa0na90n0jeu)" height="150.6875" id="Client" style="stroke:#A80036;stroke-width:1.5;" width="83" x="3385" y="846.8564"/><ellipse cx="3408.55" cy="862.8564" fill="#ADD1B2" rx="11" ry="11" style="stroke:#A80036;stroke-width:1.0;"/><path d="M3410.55,859.3564 Q3410.7531,858.8564 3410.9875,858.6064 Q3411.2219,858.3564 3411.4875,858.3564 Q3411.9563,858.3564 3412.2531,858.6377 Q3412.55,858.9189 3412.55,859.5752 L3412.55,861.1377 Q3412.55,861.7939 3412.2688,862.0752 Q3411.9875,862.3564 3411.55,862.3564 Q3411.1594,862.3564 3410.9094,862.1846 Q3410.6594,862.0127 3410.55,861.5596 Q3410.5031,861.2471 3410.3313,861.0752 Q3410.0188,860.7471 3409.4563,860.5596 Q3408.8938,860.3564 3408.3313,860.3564 Q3407.6281,860.3564 3407.0344,860.6377 Q3406.4563,860.9189 3406.0031,861.5439 Q3405.55,862.1689 3405.55,863.0283 L3405.55,863.9502 Q3405.55,864.9814 3406.3938,865.6689 Q3407.2375,866.3564 3408.7375,866.3564 Q3409.6281,866.3564 3410.2531,866.1533 Q3410.6125,866.0439 3411.0188,865.6846 Q3411.2844,865.4814 3411.425,865.4189 Q3411.5656,865.3564 3411.7375,865.3564 Q3412.0656,865.3564 3412.3,865.6221 Q3412.55,865.8721 3412.55,866.2314 Q3412.55,866.5752 3412.2063,866.9814 Q3411.7063,867.5752 3410.9094,867.9033 Q3409.8625,868.3564 3408.5813,868.3564 Q3407.0813,868.3564 3405.8781,867.7627 Q3404.9094,867.2939 3404.2219,866.2783 Q3403.55,865.2627 3403.55,864.0596 L3403.55,862.9658 Q3403.55,861.7158 3404.1438,860.6221 Q3404.7531,859.5283 3405.8,858.9502 Q3406.8625,858.3564 3408.05,858.3564 Q3408.7688,858.3564 3409.3938,858.6064 Q3410.0188,858.8564 3410.55,859.3564 Z " fill="#000000"/><text fill="#000000" font-family="sans-serif" font-size="12" lengthAdjust="spacing" textLength="32" x="3424.45" y="867.7666">Client</text><line style="stroke:#A80036;stroke-width:1.5;" x1="3386" x2="3467" y1="878.8564" y2="878.8564"/><text fill="#000000" font-family="sans-serif" font-size="11" lengthAdjust="spacing" textLength="44" x="3391" y="894.2754">-citizenID</text><text fill="#000000" font-family="sans-serif" font-size="11" lengthAdjust="spacing" textLength="31" x="3391" y="908.1113">-nhsID</text><text fill="#000000" font-family="sans-serif" font-size="11" lengthAdjust="spacing" textLength="47" x="3391" y="921.9473">-birthDate</text><text fill="#000000" font-family="sans-serif" font-size="11" lengthAdjust="spacing" textLength="22" x="3391" y="935.7832">-sex</text><text fill="#000000" font-family="sans-serif" font-size="11" lengthAdjust="spacing" textLength="19" x="3391" y="949.6191">-TIN</text><text fill="#000000" font-family="sans-serif" font-size="11" lengthAdjust="spacing" textLength="71" x="3391" y="963.4551">-phoneNumber</text><text fill="#000000" font-family="sans-serif" font-size="11" lengthAdjust="spacing" textLength="28" x="3391" y="977.291">-email</text><text fill="#000000" font-family="sans-serif" font-size="11" lengthAdjust="spacing" textLength="30" x="3391" y="991.127">-name</text><!--MD5=[a999c1570c205a2156b04a15307bc1ff]
class LabOrder--><rect codeLine="183" fill="#FEFECE" filter="url(#fqa0na90n0jeu)" height="40" id="LabOrder" style="stroke:#A80036;stroke-width:1.5;" width="84" x="7" y="986.3564"/><ellipse cx="22" cy="1002.3564" fill="#ADD1B2" rx="11" ry="11" style="stroke:#A80036;stroke-width:1.0;"/><path d="M24,998.8564 Q24.2031,998.3564 24.4375,998.1064 Q24.6719,997.8564 24.9375,997.8564 Q25.4063,997.8564 25.7031,998.1377 Q26,998.4189 26,999.0752 L26,1000.6377 Q26,1001.2939 25.7188,1001.5752 Q25.4375,1001.8564 25,1001.8564 Q24.6094,1001.8564 24.3594,1001.6846 Q24.1094,1001.5127 24,1001.0596 Q23.9531,1000.7471 23.7813,1000.5752 Q23.4688,1000.2471 22.9063,1000.0596 Q22.3438,999.8564 21.7813,999.8564 Q21.0781,999.8564 20.4844,1000.1377 Q19.9063,1000.4189 19.4531,1001.0439 Q19,1001.6689 19,1002.5283 L19,1003.4502 Q19,1004.4814 19.8438,1005.1689 Q20.6875,1005.8564 22.1875,1005.8564 Q23.0781,1005.8564 23.7031,1005.6533 Q24.0625,1005.5439 24.4688,1005.1846 Q24.7344,1004.9814 24.875,1004.9189 Q25.0156,1004.8564 25.1875,1004.8564 Q25.5156,1004.8564 25.75,1005.1221 Q26,1005.3721 26,1005.7314 Q26,1006.0752 25.6563,1006.4814 Q25.1563,1007.0752 24.3594,1007.4033 Q23.3125,1007.8564 22.0313,1007.8564 Q20.5313,1007.8564 19.3281,1007.2627 Q18.3594,1006.7939 17.6719,1005.7783 Q17,1004.7627 17,1003.5596 L17,1002.4658 Q17,1001.2158 17.5938,1000.1221 Q18.2031,999.0283 19.25,998.4502 Q20.3125,997.8564 21.5,997.8564 Q22.2188,997.8564 22.8438,998.1064 Q23.4688,998.3564 24,998.8564 Z " fill="#000000"/><text fill="#000000" font-family="sans-serif" font-size="12" lengthAdjust="spacing" textLength="52" x="36" y="1007.2666">LabOrder</text><line style="stroke:#A80036;stroke-width:1.5;" x1="8" x2="90" y1="1018.3564" y2="1018.3564"/><!--MD5=[2741598bdf59a7d7e0d5c97658fd3022]
class Result--><rect codeLine="186" fill="#FEFECE" filter="url(#fqa0na90n0jeu)" height="40" id="Result" style="stroke:#A80036;stroke-width:1.5;" width="68" x="2820.5" y="782.3564"/><ellipse cx="2835.5" cy="798.3564" fill="#ADD1B2" rx="11" ry="11" style="stroke:#A80036;stroke-width:1.0;"/><path d="M2837.5,794.8564 Q2837.7031,794.3564 2837.9375,794.1064 Q2838.1719,793.8564 2838.4375,793.8564 Q2838.9063,793.8564 2839.2031,794.1377 Q2839.5,794.4189 2839.5,795.0752 L2839.5,796.6377 Q2839.5,797.2939 2839.2188,797.5752 Q2838.9375,797.8564 2838.5,797.8564 Q2838.1094,797.8564 2837.8594,797.6846 Q2837.6094,797.5127 2837.5,797.0596 Q2837.4531,796.7471 2837.2813,796.5752 Q2836.9688,796.2471 2836.4063,796.0596 Q2835.8438,795.8564 2835.2813,795.8564 Q2834.5781,795.8564 2833.9844,796.1377 Q2833.4063,796.4189 2832.9531,797.0439 Q2832.5,797.6689 2832.5,798.5283 L2832.5,799.4502 Q2832.5,800.4814 2833.3438,801.1689 Q2834.1875,801.8564 2835.6875,801.8564 Q2836.5781,801.8564 2837.2031,801.6533 Q2837.5625,801.5439 2837.9688,801.1846 Q2838.2344,800.9814 2838.375,800.9189 Q2838.5156,800.8564 2838.6875,800.8564 Q2839.0156,800.8564 2839.25,801.1221 Q2839.5,801.3721 2839.5,801.7314 Q2839.5,802.0752 2839.1563,802.4814 Q2838.6563,803.0752 2837.8594,803.4033 Q2836.8125,803.8564 2835.5313,803.8564 Q2834.0313,803.8564 2832.8281,803.2627 Q2831.8594,802.7939 2831.1719,801.7783 Q2830.5,800.7627 2830.5,799.5596 L2830.5,798.4658 Q2830.5,797.2158 2831.0938,796.1221 Q2831.7031,795.0283 2832.75,794.4502 Q2833.8125,793.8564 2835,793.8564 Q2835.7188,793.8564 2836.3438,794.1064 Q2836.9688,794.3564 2837.5,794.8564 Z " fill="#000000"/><text fill="#000000" font-family="sans-serif" font-size="12" lengthAdjust="spacing" textLength="36" x="2849.5" y="803.2666">Result</text><line style="stroke:#A80036;stroke-width:1.5;" x1="2821.5" x2="2887.5" y1="814.3564" y2="814.3564"/><!--MD5=[f61f25a4c924aea49782a3614f4b4835]
class DiagnosisReport--><rect codeLine="189" fill="#FEFECE" filter="url(#fqa0na90n0jeu)" height="40" id="DiagnosisReport" style="stroke:#A80036;stroke-width:1.5;" width="126" x="2277" y="765.3564"/><ellipse cx="2292" cy="781.3564" fill="#ADD1B2" rx="11" ry="11" style="stroke:#A80036;stroke-width:1.0;"/><path d="M2294,777.8564 Q2294.2031,777.3564 2294.4375,777.1064 Q2294.6719,776.8564 2294.9375,776.8564 Q2295.4063,776.8564 2295.7031,777.1377 Q2296,777.4189 2296,778.0752 L2296,779.6377 Q2296,780.2939 2295.7188,780.5752 Q2295.4375,780.8564 2295,780.8564 Q2294.6094,780.8564 2294.3594,780.6846 Q2294.1094,780.5127 2294,780.0596 Q2293.9531,779.7471 2293.7813,779.5752 Q2293.4688,779.2471 2292.9063,779.0596 Q2292.3438,778.8564 2291.7813,778.8564 Q2291.0781,778.8564 2290.4844,779.1377 Q2289.9063,779.4189 2289.4531,780.0439 Q2289,780.6689 2289,781.5283 L2289,782.4502 Q2289,783.4814 2289.8438,784.1689 Q2290.6875,784.8564 2292.1875,784.8564 Q2293.0781,784.8564 2293.7031,784.6533 Q2294.0625,784.5439 2294.4688,784.1846 Q2294.7344,783.9814 2294.875,783.9189 Q2295.0156,783.8564 2295.1875,783.8564 Q2295.5156,783.8564 2295.75,784.1221 Q2296,784.3721 2296,784.7314 Q2296,785.0752 2295.6563,785.4814 Q2295.1563,786.0752 2294.3594,786.4033 Q2293.3125,786.8564 2292.0313,786.8564 Q2290.5313,786.8564 2289.3281,786.2627 Q2288.3594,785.7939 2287.6719,784.7783 Q2287,783.7627 2287,782.5596 L2287,781.4658 Q2287,780.2158 2287.5938,779.1221 Q2288.2031,778.0283 2289.25,777.4502 Q2290.3125,776.8564 2291.5,776.8564 Q2292.2188,776.8564 2292.8438,777.1064 Q2293.4688,777.3564 2294,777.8564 Z " fill="#000000"/><text fill="#000000" font-family="sans-serif" font-size="12" lengthAdjust="spacing" textLength="94" x="2306" y="786.2666">DiagnosisReport</text><line style="stroke:#A80036;stroke-width:1.5;" x1="2278" x2="2402" y1="797.3564" y2="797.3564"/><!--MD5=[74783ec010d186752c4ffd5c6de5633a]
class NHSReport--><rect codeLine="20" fill="#FEFECE" filter="url(#fqa0na90n0jeu)" height="40" id="NHSReport" style="stroke:#A80036;stroke-width:1.5;" width="95" x="2561.5" y="678.3564"/><ellipse cx="2576.5" cy="694.3564" fill="#ADD1B2" rx="11" ry="11" style="stroke:#A80036;stroke-width:1.0;"/><path d="M2578.5,690.8564 Q2578.7031,690.3564 2578.9375,690.1064 Q2579.1719,689.8564 2579.4375,689.8564 Q2579.9063,689.8564 2580.2031,690.1377 Q2580.5,690.4189 2580.5,691.0752 L2580.5,692.6377 Q2580.5,693.2939 2580.2188,693.5752 Q2579.9375,693.8564 2579.5,693.8564 Q2579.1094,693.8564 2578.8594,693.6846 Q2578.6094,693.5127 2578.5,693.0596 Q2578.4531,692.7471 2578.2813,692.5752 Q2577.9688,692.2471 2577.4063,692.0596 Q2576.8438,691.8564 2576.2813,691.8564 Q2575.5781,691.8564 2574.9844,692.1377 Q2574.4063,692.4189 2573.9531,693.0439 Q2573.5,693.6689 2573.5,694.5283 L2573.5,695.4502 Q2573.5,696.4814 2574.3438,697.1689 Q2575.1875,697.8564 2576.6875,697.8564 Q2577.5781,697.8564 2578.2031,697.6533 Q2578.5625,697.5439 2578.9688,697.1846 Q2579.2344,696.9814 2579.375,696.9189 Q2579.5156,696.8564 2579.6875,696.8564 Q2580.0156,696.8564 2580.25,697.1221 Q2580.5,697.3721 2580.5,697.7314 Q2580.5,698.0752 2580.1563,698.4814 Q2579.6563,699.0752 2578.8594,699.4033 Q2577.8125,699.8564 2576.5313,699.8564 Q2575.0313,699.8564 2573.8281,699.2627 Q2572.8594,698.7939 2572.1719,697.7783 Q2571.5,696.7627 2571.5,695.5596 L2571.5,694.4658 Q2571.5,693.2158 2572.0938,692.1221 Q2572.7031,691.0283 2573.75,690.4502 Q2574.8125,689.8564 2576,689.8564 Q2576.7188,689.8564 2577.3438,690.1064 Q2577.9688,690.3564 2578.5,690.8564 Z " fill="#000000"/><text fill="#000000" font-family="sans-serif" font-size="12" lengthAdjust="spacing" textLength="63" x="2590.5" y="699.2666">NHSReport</text><line style="stroke:#A80036;stroke-width:1.5;" x1="2562.5" x2="2655.5" y1="710.3564" y2="710.3564"/><!--MD5=[36afb6bbd95a8ac778c4537c55a683d5]
class ParameterCategory--><rect codeLine="192" fill="#FEFECE" filter="url(#fqa0na90n0jeu)" height="81.5078" id="ParameterCategory" style="stroke:#A80036;stroke-width:1.5;" width="139" x="957" y="780.3564"/><ellipse cx="972" cy="796.3564" fill="#ADD1B2" rx="11" ry="11" style="stroke:#A80036;stroke-width:1.0;"/><path d="M974,792.8564 Q974.2031,792.3564 974.4375,792.1064 Q974.6719,791.8564 974.9375,791.8564 Q975.4063,791.8564 975.7031,792.1377 Q976,792.4189 976,793.0752 L976,794.6377 Q976,795.2939 975.7188,795.5752 Q975.4375,795.8564 975,795.8564 Q974.6094,795.8564 974.3594,795.6846 Q974.1094,795.5127 974,795.0596 Q973.9531,794.7471 973.7813,794.5752 Q973.4688,794.2471 972.9063,794.0596 Q972.3438,793.8564 971.7813,793.8564 Q971.0781,793.8564 970.4844,794.1377 Q969.9063,794.4189 969.4531,795.0439 Q969,795.6689 969,796.5283 L969,797.4502 Q969,798.4814 969.8438,799.1689 Q970.6875,799.8564 972.1875,799.8564 Q973.0781,799.8564 973.7031,799.6533 Q974.0625,799.5439 974.4688,799.1846 Q974.7344,798.9814 974.875,798.9189 Q975.0156,798.8564 975.1875,798.8564 Q975.5156,798.8564 975.75,799.1221 Q976,799.3721 976,799.7314 Q976,800.0752 975.6563,800.4814 Q975.1563,801.0752 974.3594,801.4033 Q973.3125,801.8564 972.0313,801.8564 Q970.5313,801.8564 969.3281,801.2627 Q968.3594,800.7939 967.6719,799.7783 Q967,798.7627 967,797.5596 L967,796.4658 Q967,795.2158 967.5938,794.1221 Q968.2031,793.0283 969.25,792.4502 Q970.3125,791.8564 971.5,791.8564 Q972.2188,791.8564 972.8438,792.1064 Q973.4688,792.3564 974,792.8564 Z " fill="#000000"/><text fill="#000000" font-family="sans-serif" font-size="12" lengthAdjust="spacing" textLength="107" x="986" y="801.2666">ParameterCategory</text><line style="stroke:#A80036;stroke-width:1.5;" x1="958" x2="1095" y1="812.3564" y2="812.3564"/><text fill="#000000" font-family="sans-serif" font-size="11" lengthAdjust="spacing" textLength="28" x="963" y="827.7754">-code</text><text fill="#000000" font-family="sans-serif" font-size="11" lengthAdjust="spacing" textLength="57" x="963" y="841.6113">-description</text><text fill="#000000" font-family="sans-serif" font-size="11" lengthAdjust="spacing" textLength="31" x="963" y="855.4473">-nhsID</text><!--MD5=[1f6362a5c8f21d8d6a0fce68f3a92a4e]
class Parameter--><rect codeLine="198" fill="#FEFECE" filter="url(#fqa0na90n0jeu)" height="81.5078" id="Parameter" style="stroke:#A80036;stroke-width:1.5;" width="90" x="1272" y="819.3564"/><ellipse cx="1287" cy="835.3564" fill="#ADD1B2" rx="11" ry="11" style="stroke:#A80036;stroke-width:1.0;"/><path d="M1289,831.8564 Q1289.2031,831.3564 1289.4375,831.1064 Q1289.6719,830.8564 1289.9375,830.8564 Q1290.4063,830.8564 1290.7031,831.1377 Q1291,831.4189 1291,832.0752 L1291,833.6377 Q1291,834.2939 1290.7188,834.5752 Q1290.4375,834.8564 1290,834.8564 Q1289.6094,834.8564 1289.3594,834.6846 Q1289.1094,834.5127 1289,834.0596 Q1288.9531,833.7471 1288.7813,833.5752 Q1288.4688,833.2471 1287.9063,833.0596 Q1287.3438,832.8564 1286.7813,832.8564 Q1286.0781,832.8564 1285.4844,833.1377 Q1284.9063,833.4189 1284.4531,834.0439 Q1284,834.6689 1284,835.5283 L1284,836.4502 Q1284,837.4814 1284.8438,838.1689 Q1285.6875,838.8564 1287.1875,838.8564 Q1288.0781,838.8564 1288.7031,838.6533 Q1289.0625,838.5439 1289.4688,838.1846 Q1289.7344,837.9814 1289.875,837.9189 Q1290.0156,837.8564 1290.1875,837.8564 Q1290.5156,837.8564 1290.75,838.1221 Q1291,838.3721 1291,838.7314 Q1291,839.0752 1290.6563,839.4814 Q1290.1563,840.0752 1289.3594,840.4033 Q1288.3125,840.8564 1287.0313,840.8564 Q1285.5313,840.8564 1284.3281,840.2627 Q1283.3594,839.7939 1282.6719,838.7783 Q1282,837.7627 1282,836.5596 L1282,835.4658 Q1282,834.2158 1282.5938,833.1221 Q1283.2031,832.0283 1284.25,831.4502 Q1285.3125,830.8564 1286.5,830.8564 Q1287.2188,830.8564 1287.8438,831.1064 Q1288.4688,831.3564 1289,831.8564 Z " fill="#000000"/><text fill="#000000" font-family="sans-serif" font-size="12" lengthAdjust="spacing" textLength="58" x="1301" y="840.2666">Parameter</text><line style="stroke:#A80036;stroke-width:1.5;" x1="1273" x2="1361" y1="851.3564" y2="851.3564"/><text fill="#000000" font-family="sans-serif" font-size="11" lengthAdjust="spacing" textLength="59" x="1278" y="866.7754">-designation</text><text fill="#000000" font-family="sans-serif" font-size="11" lengthAdjust="spacing" textLength="57" x="1278" y="880.6113">-description</text><text fill="#000000" font-family="sans-serif" font-size="11" lengthAdjust="spacing" textLength="28" x="1278" y="894.4473">-code</text><!--MD5=[aeb3272166074d8737a70b61b1e71682]
class TestType--><rect codeLine="204" fill="#FEFECE" filter="url(#fqa0na90n0jeu)" height="81.5078" id="TestType" style="stroke:#A80036;stroke-width:1.5;" width="96" x="215" y="905.3564"/><ellipse cx="236.3" cy="921.3564" fill="#ADD1B2" rx="11" ry="11" style="stroke:#A80036;stroke-width:1.0;"/><path d="M238.3,917.8564 Q238.5031,917.3564 238.7375,917.1064 Q238.9719,916.8564 239.2375,916.8564 Q239.7063,916.8564 240.0031,917.1377 Q240.3,917.4189 240.3,918.0752 L240.3,919.6377 Q240.3,920.2939 240.0188,920.5752 Q239.7375,920.8564 239.3,920.8564 Q238.9094,920.8564 238.6594,920.6846 Q238.4094,920.5127 238.3,920.0596 Q238.2531,919.7471 238.0813,919.5752 Q237.7688,919.2471 237.2063,919.0596 Q236.6438,918.8564 236.0813,918.8564 Q235.3781,918.8564 234.7844,919.1377 Q234.2063,919.4189 233.7531,920.0439 Q233.3,920.6689 233.3,921.5283 L233.3,922.4502 Q233.3,923.4814 234.1438,924.1689 Q234.9875,924.8564 236.4875,924.8564 Q237.3781,924.8564 238.0031,924.6533 Q238.3625,924.5439 238.7688,924.1846 Q239.0344,923.9814 239.175,923.9189 Q239.3156,923.8564 239.4875,923.8564 Q239.8156,923.8564 240.05,924.1221 Q240.3,924.3721 240.3,924.7314 Q240.3,925.0752 239.9563,925.4814 Q239.4563,926.0752 238.6594,926.4033 Q237.6125,926.8564 236.3313,926.8564 Q234.8313,926.8564 233.6281,926.2627 Q232.6594,925.7939 231.9719,924.7783 Q231.3,923.7627 231.3,922.5596 L231.3,921.4658 Q231.3,920.2158 231.8938,919.1221 Q232.5031,918.0283 233.55,917.4502 Q234.6125,916.8564 235.8,916.8564 Q236.5188,916.8564 237.1438,917.1064 Q237.7688,917.3564 238.3,917.8564 Z " fill="#000000"/><text fill="#000000" font-family="sans-serif" font-size="12" lengthAdjust="spacing" textLength="50" x="251.7" y="926.2666">TestType</text><line style="stroke:#A80036;stroke-width:1.5;" x1="216" x2="310" y1="937.3564" y2="937.3564"/><text fill="#000000" font-family="sans-serif" font-size="11" lengthAdjust="spacing" textLength="28" x="221" y="952.7754">-code</text><text fill="#000000" font-family="sans-serif" font-size="11" lengthAdjust="spacing" textLength="57" x="221" y="966.6113">-description</text><text fill="#000000" font-family="sans-serif" font-size="11" lengthAdjust="spacing" textLength="84" x="221" y="980.4473">-collectingMethod</text><!--MD5=[df38be88ccee13e832d6fafd6288a4ca]
class Test--><rect codeLine="210" fill="#FEFECE" filter="url(#fqa0na90n0jeu)" height="150.6875" id="Test" style="stroke:#A80036;stroke-width:1.5;" width="144" x="1962.5" y="784.8564"/><ellipse cx="2018.25" cy="800.8564" fill="#ADD1B2" rx="11" ry="11" style="stroke:#A80036;stroke-width:1.0;"/><path d="M2020.25,797.3564 Q2020.4531,796.8564 2020.6875,796.6064 Q2020.9219,796.3564 2021.1875,796.3564 Q2021.6563,796.3564 2021.9531,796.6377 Q2022.25,796.9189 2022.25,797.5752 L2022.25,799.1377 Q2022.25,799.7939 2021.9688,800.0752 Q2021.6875,800.3564 2021.25,800.3564 Q2020.8594,800.3564 2020.6094,800.1846 Q2020.3594,800.0127 2020.25,799.5596 Q2020.2031,799.2471 2020.0313,799.0752 Q2019.7188,798.7471 2019.1563,798.5596 Q2018.5938,798.3564 2018.0313,798.3564 Q2017.3281,798.3564 2016.7344,798.6377 Q2016.1563,798.9189 2015.7031,799.5439 Q2015.25,800.1689 2015.25,801.0283 L2015.25,801.9502 Q2015.25,802.9814 2016.0938,803.6689 Q2016.9375,804.3564 2018.4375,804.3564 Q2019.3281,804.3564 2019.9531,804.1533 Q2020.3125,804.0439 2020.7188,803.6846 Q2020.9844,803.4814 2021.125,803.4189 Q2021.2656,803.3564 2021.4375,803.3564 Q2021.7656,803.3564 2022,803.6221 Q2022.25,803.8721 2022.25,804.2314 Q2022.25,804.5752 2021.9063,804.9814 Q2021.4063,805.5752 2020.6094,805.9033 Q2019.5625,806.3564 2018.2813,806.3564 Q2016.7813,806.3564 2015.5781,805.7627 Q2014.6094,805.2939 2013.9219,804.2783 Q2013.25,803.2627 2013.25,802.0596 L2013.25,800.9658 Q2013.25,799.7158 2013.8438,798.6221 Q2014.4531,797.5283 2015.5,796.9502 Q2016.5625,796.3564 2017.75,796.3564 Q2018.4688,796.3564 2019.0938,796.6064 Q2019.7188,796.8564 2020.25,797.3564 Z " fill="#000000"/><text fill="#000000" font-family="sans-serif" font-size="12" lengthAdjust="spacing" textLength="24" x="2038.75" y="805.7666">Test</text><line style="stroke:#A80036;stroke-width:1.5;" x1="1963.5" x2="2105.5" y1="816.8564" y2="816.8564"/><text fill="#000000" font-family="sans-serif" font-size="11" lengthAdjust="spacing" textLength="57" x="1968.5" y="832.2754">-description</text><text fill="#000000" font-family="sans-serif" font-size="11" lengthAdjust="spacing" textLength="64" x="1968.5" y="846.1113">-internalCode</text><text fill="#000000" font-family="sans-serif" font-size="11" lengthAdjust="spacing" textLength="47" x="1968.5" y="859.9473">-nhsCode</text><text fill="#000000" font-family="sans-serif" font-size="11" lengthAdjust="spacing" textLength="84" x="1968.5" y="873.7832">-collectingMethod</text><text fill="#000000" font-family="sans-serif" font-size="11" lengthAdjust="spacing" textLength="79" x="1968.5" y="887.6191">-collectDateTime</text><text fill="#000000" font-family="sans-serif" font-size="11" lengthAdjust="spacing" textLength="132" x="1968.5" y="901.4551">-chemicalAnalysisDateTime</text><text fill="#000000" font-family="sans-serif" font-size="11" lengthAdjust="spacing" textLength="94" x="1968.5" y="915.291">-diagnosisDateTime</text><text fill="#000000" font-family="sans-serif" font-size="11" lengthAdjust="spacing" textLength="93" x="1968.5" y="929.127">-validationDateTime</text><!--MD5=[76b5e19c9337179d2d7ae334371d68c8]
class Notification--><rect codeLine="25" fill="#FEFECE" filter="url(#fqa0na90n0jeu)" height="40" id="Notification" style="stroke:#A80036;stroke-width:1.5;" width="93" x="3121.5" y="805.3564"/><ellipse cx="3136.5" cy="821.3564" fill="#ADD1B2" rx="11" ry="11" style="stroke:#A80036;stroke-width:1.0;"/><path d="M3138.5,817.8564 Q3138.7031,817.3564 3138.9375,817.1064 Q3139.1719,816.8564 3139.4375,816.8564 Q3139.9063,816.8564 3140.2031,817.1377 Q3140.5,817.4189 3140.5,818.0752 L3140.5,819.6377 Q3140.5,820.2939 3140.2188,820.5752 Q3139.9375,820.8564 3139.5,820.8564 Q3139.1094,820.8564 3138.8594,820.6846 Q3138.6094,820.5127 3138.5,820.0596 Q3138.4531,819.7471 3138.2813,819.5752 Q3137.9688,819.2471 3137.4063,819.0596 Q3136.8438,818.8564 3136.2813,818.8564 Q3135.5781,818.8564 3134.9844,819.1377 Q3134.4063,819.4189 3133.9531,820.0439 Q3133.5,820.6689 3133.5,821.5283 L3133.5,822.4502 Q3133.5,823.4814 3134.3438,824.1689 Q3135.1875,824.8564 3136.6875,824.8564 Q3137.5781,824.8564 3138.2031,824.6533 Q3138.5625,824.5439 3138.9688,824.1846 Q3139.2344,823.9814 3139.375,823.9189 Q3139.5156,823.8564 3139.6875,823.8564 Q3140.0156,823.8564 3140.25,824.1221 Q3140.5,824.3721 3140.5,824.7314 Q3140.5,825.0752 3140.1563,825.4814 Q3139.6563,826.0752 3138.8594,826.4033 Q3137.8125,826.8564 3136.5313,826.8564 Q3135.0313,826.8564 3133.8281,826.2627 Q3132.8594,825.7939 3132.1719,824.7783 Q3131.5,823.7627 3131.5,822.5596 L3131.5,821.4658 Q3131.5,820.2158 3132.0938,819.1221 Q3132.7031,818.0283 3133.75,817.4502 Q3134.8125,816.8564 3136,816.8564 Q3136.7188,816.8564 3137.3438,817.1064 Q3137.9688,817.3564 3138.5,817.8564 Z " fill="#000000"/><text fill="#000000" font-family="sans-serif" font-size="12" lengthAdjust="spacing" textLength="61" x="3150.5" y="826.2666">Notification</text><line style="stroke:#A80036;stroke-width:1.5;" x1="3122.5" x2="3213.5" y1="837.3564" y2="837.3564"/><!--MD5=[0a105ea8d9af02dadec02d3e239f1d60]
class NHS--><rect codeLine="26" fill="#FEFECE" filter="url(#fqa0na90n0jeu)" height="40" id="NHS" style="stroke:#A80036;stroke-width:1.5;" width="58" x="2825.5" y="695.3564"/><ellipse cx="2840.5" cy="711.3564" fill="#ADD1B2" rx="11" ry="11" style="stroke:#A80036;stroke-width:1.0;"/><path d="M2842.5,707.8564 Q2842.7031,707.3564 2842.9375,707.1064 Q2843.1719,706.8564 2843.4375,706.8564 Q2843.9063,706.8564 2844.2031,707.1377 Q2844.5,707.4189 2844.5,708.0752 L2844.5,709.6377 Q2844.5,710.2939 2844.2188,710.5752 Q2843.9375,710.8564 2843.5,710.8564 Q2843.1094,710.8564 2842.8594,710.6846 Q2842.6094,710.5127 2842.5,710.0596 Q2842.4531,709.7471 2842.2813,709.5752 Q2841.9688,709.2471 2841.4063,709.0596 Q2840.8438,708.8564 2840.2813,708.8564 Q2839.5781,708.8564 2838.9844,709.1377 Q2838.4063,709.4189 2837.9531,710.0439 Q2837.5,710.6689 2837.5,711.5283 L2837.5,712.4502 Q2837.5,713.4814 2838.3438,714.1689 Q2839.1875,714.8564 2840.6875,714.8564 Q2841.5781,714.8564 2842.2031,714.6533 Q2842.5625,714.5439 2842.9688,714.1846 Q2843.2344,713.9814 2843.375,713.9189 Q2843.5156,713.8564 2843.6875,713.8564 Q2844.0156,713.8564 2844.25,714.1221 Q2844.5,714.3721 2844.5,714.7314 Q2844.5,715.0752 2844.1563,715.4814 Q2843.6563,716.0752 2842.8594,716.4033 Q2841.8125,716.8564 2840.5313,716.8564 Q2839.0313,716.8564 2837.8281,716.2627 Q2836.8594,715.7939 2836.1719,714.7783 Q2835.5,713.7627 2835.5,712.5596 L2835.5,711.4658 Q2835.5,710.2158 2836.0938,709.1221 Q2836.7031,708.0283 2837.75,707.4502 Q2838.8125,706.8564 2840,706.8564 Q2840.7188,706.8564 2841.3438,707.1064 Q2841.9688,707.3564 2842.5,707.8564 Z " fill="#000000"/><text fill="#000000" font-family="sans-serif" font-size="12" lengthAdjust="spacing" textLength="26" x="2854.5" y="716.2666">NHS</text><line style="stroke:#A80036;stroke-width:1.5;" x1="2826.5" x2="2882.5" y1="727.3564" y2="727.3564"/><!--MD5=[9681492165142af2a4a3a169d90ee8d4]
class Sample--><rect codeLine="221" fill="#FEFECE" filter="url(#fqa0na90n0jeu)" height="53.8359" id="Sample" style="stroke:#A80036;stroke-width:1.5;" width="75" x="1757" y="519.3564"/><ellipse cx="1772" cy="535.3564" fill="#ADD1B2" rx="11" ry="11" style="stroke:#A80036;stroke-width:1.0;"/><path d="M1774,531.8564 Q1774.2031,531.3564 1774.4375,531.1064 Q1774.6719,530.8564 1774.9375,530.8564 Q1775.4063,530.8564 1775.7031,531.1377 Q1776,531.4189 1776,532.0752 L1776,533.6377 Q1776,534.2939 1775.7188,534.5752 Q1775.4375,534.8564 1775,534.8564 Q1774.6094,534.8564 1774.3594,534.6846 Q1774.1094,534.5127 1774,534.0596 Q1773.9531,533.7471 1773.7813,533.5752 Q1773.4688,533.2471 1772.9063,533.0596 Q1772.3438,532.8564 1771.7813,532.8564 Q1771.0781,532.8564 1770.4844,533.1377 Q1769.9063,533.4189 1769.4531,534.0439 Q1769,534.6689 1769,535.5283 L1769,536.4502 Q1769,537.4814 1769.8438,538.1689 Q1770.6875,538.8564 1772.1875,538.8564 Q1773.0781,538.8564 1773.7031,538.6533 Q1774.0625,538.5439 1774.4688,538.1846 Q1774.7344,537.9814 1774.875,537.9189 Q1775.0156,537.8564 1775.1875,537.8564 Q1775.5156,537.8564 1775.75,538.1221 Q1776,538.3721 1776,538.7314 Q1776,539.0752 1775.6563,539.4814 Q1775.1563,540.0752 1774.3594,540.4033 Q1773.3125,540.8564 1772.0313,540.8564 Q1770.5313,540.8564 1769.3281,540.2627 Q1768.3594,539.7939 1767.6719,538.7783 Q1767,537.7627 1767,536.5596 L1767,535.4658 Q1767,534.2158 1767.5938,533.1221 Q1768.2031,532.0283 1769.25,531.4502 Q1770.3125,530.8564 1771.5,530.8564 Q1772.2188,530.8564 1772.8438,531.1064 Q1773.4688,531.3564 1774,531.8564 Z " fill="#000000"/><text fill="#000000" font-family="sans-serif" font-size="12" lengthAdjust="spacing" textLength="43" x="1786" y="540.2666">Sample</text><line style="stroke:#A80036;stroke-width:1.5;" x1="1758" x2="1831" y1="551.3564" y2="551.3564"/><text fill="#000000" font-family="sans-serif" font-size="11" lengthAdjust="spacing" textLength="44" x="1763" y="566.7754">-barcode</text><!--MD5=[12d76240d3c3c66074d4ec2ea8bf469c]
link Company to Parameter--><path codeLine="29" d="M489.89,673.6764 C506.99,730.5964 555.34,860.5064 651,907.3564 C863.56,1011.4664 1160.88,919.2464 1271.9,877.9364 " fill="none" id="Company-Parameter" style="stroke:#A80036;stroke-width:1.0;"/><polygon fill="#000000" points="795.8377,940.7958,787.8289,935.6664,786.3435,941.3535,795.8377,940.7958" style="stroke:#000000;stroke-width:1.0;"/><text fill="#000000" font-family="sans-serif" font-size="13" lengthAdjust="spacing" textLength="118" x="800" y="944.8516">capable of analysing</text><text fill="#000000" font-family="sans-serif" font-size="13" lengthAdjust="spacing" textLength="7" x="483.8986" y="694.5095">1</text><text fill="#000000" font-family="sans-serif" font-size="13" lengthAdjust="spacing" textLength="5" x="1259.0163" y="895.7381">*</text><!--MD5=[09366576ee87d48d594df10cacc83f45]
link Company to Employee--><path codeLine="31" d="M495.48,619.3064 C508.93,592.0764 531.15,549.2364 554,514.3564 C586.58,464.6264 628.7,411.6064 659.76,374.2464 " fill="none" id="Company-Employee" style="stroke:#A80036;stroke-width:1.0;"/><polygon fill="#000000" points="556.2159,419.6854,563.6936,413.8087,558.8113,410.5358,556.2159,419.6854" style="stroke:#000000;stroke-width:1.0;"/><text fill="#000000" font-family="sans-serif" font-size="13" lengthAdjust="spacing" textLength="52" x="568" y="420.8516">works for</text><text fill="#000000" font-family="sans-serif" font-size="13" lengthAdjust="spacing" textLength="7" x="491.0345" y="608.321">1</text><text fill="#000000" font-family="sans-serif" font-size="13" lengthAdjust="spacing" textLength="5" x="647.1015" y="397.371">*</text><!--MD5=[93b4f25fb503a8e0e9a46b1d30ff3f44]
link Company to ParameterCategory--><path codeLine="33" d="M524.21,659.7964 C617.21,689.7664 842.36,762.3364 956.58,799.1464 " fill="none" id="Company-ParameterCategory" style="stroke:#A80036;stroke-width:1.0;"/><polygon fill="#000000" points="686.2589,695.066,678.5515,689.4941,676.7484,695.0886,686.2589,695.066" style="stroke:#000000;stroke-width:1.0;"/><text fill="#000000" font-family="sans-serif" font-size="13" lengthAdjust="spacing" textLength="39" x="690.5" y="698.8516">adopts</text><text fill="#000000" font-family="sans-serif" font-size="13" lengthAdjust="spacing" textLength="7" x="531.8635" y="676.8853">1</text><text fill="#000000" font-family="sans-serif" font-size="13" lengthAdjust="spacing" textLength="5" x="944.1117" y="811.2197">*</text><!--MD5=[eaea43e34e45c5b9d20b595fc78f1f20]
link Company to Administrator--><path codeLine="35" d="M503.7,673.6364 C517.13,689.9564 535.42,710.5364 554,726.3564 C583.95,751.8464 621.24,775.6864 650.97,793.1064 " fill="none" id="Company-Administrator" style="stroke:#A80036;stroke-width:1.0;"/><polygon fill="#000000" points="570.383,720.6822,565.2101,712.7015,561.5071,717.2662,570.383,720.6822" style="stroke:#000000;stroke-width:1.0;"/><text fill="#000000" font-family="sans-serif" font-size="13" lengthAdjust="spacing" textLength="37" x="575.5" y="722.8516">knows</text><text fill="#000000" font-family="sans-serif" font-size="13" lengthAdjust="spacing" textLength="7" x="500.7906" y="694.9055">1</text><text fill="#000000" font-family="sans-serif" font-size="13" lengthAdjust="spacing" textLength="5" x="637.8875" y="803.6641">*</text><!--MD5=[4c7c52c4bf7e982cdae6fb6daeda4b43]
reverse link Employee to ClinicalChemistryTechnologist--><path codeLine="37" d="M767.46,324.3564 C832.18,324.3564 935.88,324.3564 1025.5,324.3564 C1025.5,324.3564 1025.5,324.3564 1662.5,324.3564 C1898.5,324.3564 1957.5,324.3564 2193.5,324.3564 C2193.5,324.3564 2193.5,324.3564 2855.5,324.3564 C2982.47,324.3564 3103.94,438.1664 3148.8,485.2964 " fill="none" id="Employee-backto-ClinicalChemistryTechnologist" style="stroke:#A80036;stroke-width:1.0;"/><polygon fill="none" points="767.08,331.3564,747.08,324.3564,767.08,317.3564,767.08,331.3564" style="stroke:#A80036;stroke-width:1.0;"/><text fill="#000000" font-family="sans-serif" font-size="13" lengthAdjust="spacing" textLength="5" x="755" y="325.207">*</text><text fill="#000000" font-family="sans-serif" font-size="13" lengthAdjust="spacing" textLength="5" x="3137.4256" y="474.6006">*</text><!--MD5=[bfff716514ca687b645fe473c6e098a4]
reverse link Employee to Receptionist--><path codeLine="39" d="M766.53,302.2164 C830.54,281.3864 933.7,253.3564 1025.5,253.3564 C1025.5,253.3564 1025.5,253.3564 2979.5,253.3564 C3212.49,253.3564 3483.33,330.5064 3592.81,365.0164 " fill="none" id="Employee-backto-Receptionist" style="stroke:#A80036;stroke-width:1.0;"/><polygon fill="none" points="768.38,308.9864,747.19,308.6864,763.94,295.7064,768.38,308.9864" style="stroke:#A80036;stroke-width:1.0;"/><text fill="#000000" font-family="sans-serif" font-size="13" lengthAdjust="spacing" textLength="5" x="755.1289" y="302.1563">*</text><text fill="#000000" font-family="sans-serif" font-size="13" lengthAdjust="spacing" textLength="20" x="3565.0341" y="377.4655">1..*</text><!--MD5=[8c76900db13228c02bafda6909b4bb57]
reverse link Employee to MedicalLabTechnician--><path codeLine="41" d="M761.11,246.2164 C768.82,239.0364 777.15,232.5264 786,227.3564 C879.51,172.7064 917.19,182.3564 1025.5,182.3564 C1025.5,182.3564 1025.5,182.3564 1795.5,182.3564 C1849.42,182.3564 1910.22,181.8364 1956.86,181.3264 " fill="none" id="Employee-backto-MedicalLabTechnician" style="stroke:#A80036;stroke-width:1.0;"/><polygon fill="none" points="766.03,251.1964,747.09,260.6864,755.98,241.4564,766.03,251.1964" style="stroke:#A80036;stroke-width:1.0;"/><text fill="#000000" font-family="sans-serif" font-size="13" lengthAdjust="spacing" textLength="5" x="755.0117" y="264.6563">*</text><text fill="#000000" font-family="sans-serif" font-size="13" lengthAdjust="spacing" textLength="5" x="1943.9712" y="195.7219">*</text><!--MD5=[7dae17bb55c59b06af656d7c83a51371]
reverse link Employee to LaboratoryCoordinator--><path codeLine="43" d="M766.2,346.2664 C824.87,367.1064 912.36,398.1764 969.18,418.3564 " fill="none" id="Employee-backto-LaboratoryCoordinator" style="stroke:#A80036;stroke-width:1.0;"/><polygon fill="none" points="763.63,352.7864,747.13,339.4964,768.32,339.5964,763.63,352.7864" style="stroke:#A80036;stroke-width:1.0;"/><text fill="#000000" font-family="sans-serif" font-size="13" lengthAdjust="spacing" textLength="5" x="755.0586" y="357.0117">*</text><text fill="#000000" font-family="sans-serif" font-size="13" lengthAdjust="spacing" textLength="20" x="928.5632" y="407.3304">1..*</text><!--MD5=[c3a86c626b5b742f72786125539e9227]
link ClinicalChemistryTechnologist to ChemicalLaboratory--><path codeLine="45" d="M3067.79,486.5464 C3006.79,476.5664 2926.9,466.3564 2855.5,466.3564 C1793.5,466.3564 1793.5,466.3564 1793.5,466.3564 C1715.16,466.3564 1626.32,480.4364 1566.17,492.0864 " fill="none" id="ClinicalChemistryTechnologist-ChemicalLaboratory" style="stroke:#A80036;stroke-width:1.0;"/><polygon fill="#000000" points="2308,457.5507,2317.0559,460.4562,2317.0342,454.5784,2308,457.5507" style="stroke:#000000;stroke-width:1.0;"/><text fill="#000000" font-family="sans-serif" font-size="13" lengthAdjust="spacing" textLength="49" x="2322" y="462.8516">works at</text><text fill="#000000" font-family="sans-serif" font-size="13" lengthAdjust="spacing" textLength="5" x="3054.9263" y="499.2274">*</text><text fill="#000000" font-family="sans-serif" font-size="13" lengthAdjust="spacing" textLength="7" x="1573.9219" y="504.85">1</text><!--MD5=[738f0445d4a0804ca0738b44323ae22b]
link MedicalLabTechnician to ClinicalAnalysisLaboratory--><path codeLine="47" d="M2112.21,181.1364 C2173.57,181.7064 2261.81,182.3564 2339,182.3564 C2339,182.3564 2339,182.3564 3644.5,182.3564 C3734.82,182.3564 3826.8,244.3064 3873.7,281.3264 " fill="none" id="MedicalLabTechnician-ClinicalAnalysisLaboratory" style="stroke:#A80036;stroke-width:1.0;"/><polygon fill="#000000" points="2956.4919,173.8162,2947.6283,170.3683,2947.2946,176.2367,2956.4919,173.8162" style="stroke:#000000;stroke-width:1.0;"/><text fill="#000000" font-family="sans-serif" font-size="13" lengthAdjust="spacing" textLength="49" x="2960.5" y="178.8516">works at</text><text fill="#000000" font-family="sans-serif" font-size="13" lengthAdjust="spacing" textLength="20" x="2120.0217" y="195.4292">1..*</text><text fill="#000000" font-family="sans-serif" font-size="13" lengthAdjust="spacing" textLength="5" x="3860.0956" y="270.3458">*</text><!--MD5=[6cd0a3af2322bf46f6c633408da71c74]
link Receptionist to ClinicalAnalysisLaboratory--><path codeLine="49" d="M3694.11,373.3364 C3721.97,368.3364 3757.21,361.1764 3788,352.3564 C3804.65,347.5864 3822.29,341.5364 3838.7,335.4664 " fill="none" id="Receptionist-ClinicalAnalysisLaboratory" style="stroke:#A80036;stroke-width:1.0;"/><polygon fill="#000000" points="3733.8369,342.2654,3724.3423,341.7141,3725.8315,347.4001,3733.8369,342.2654" style="stroke:#000000;stroke-width:1.0;"/><text fill="#000000" font-family="sans-serif" font-size="13" lengthAdjust="spacing" textLength="49" x="3738" y="348.8516">works at</text><text fill="#000000" font-family="sans-serif" font-size="13" lengthAdjust="spacing" textLength="20" x="3701.8757" y="386.8515">1..*</text><text fill="#000000" font-family="sans-serif" font-size="13" lengthAdjust="spacing" textLength="5" x="3818.3219" y="356.6983">*</text><!--MD5=[4d5641458326529fdf5c82259a5ad32d]
link LaboratoryCoordinator to Laboratory--><path codeLine="51" d="M1104.06,438.3564 C1157.64,438.3564 1227.34,438.3564 1271.89,438.3564 " fill="none" id="LaboratoryCoordinator-Laboratory" style="stroke:#A80036;stroke-width:1.0;"/><polygon fill="#000000" points="1160.5,429.5322,1151.4549,426.5933,1151.4549,432.4712,1160.5,429.5322" style="stroke:#000000;stroke-width:1.0;"/><text fill="#000000" font-family="sans-serif" font-size="13" lengthAdjust="spacing" textLength="60" x="1164.5" y="434.8516">works at a</text><text fill="#000000" font-family="sans-serif" font-size="13" lengthAdjust="spacing" textLength="20" x="1112.1319" y="452.6053">1..*</text><text fill="#000000" font-family="sans-serif" font-size="13" lengthAdjust="spacing" textLength="5" x="1259.0046" y="453.1772">*</text><!--MD5=[de3aa179ee7f21b344f648244b25a961]
link ChemicalLaboratory to Company--><path codeLine="53" d="M1422.77,526.8364 C1390.99,533.9864 1352.88,540.3564 1318,540.3564 C702.5,540.3564 702.5,540.3564 702.5,540.3564 C633.54,540.3564 614.51,552.2764 554,585.3564 C537.68,594.2764 521.71,607.3464 509.03,619.1064 " fill="none" id="ChemicalLaboratory-Company" style="stroke:#A80036;stroke-width:1.0;"/><polygon fill="#000000" points="1013.9747,531.0299,1004.6801,529.0146,1005.2707,534.8627,1013.9747,531.0299" style="stroke:#000000;stroke-width:1.0;"/><text fill="#000000" font-family="sans-serif" font-size="13" lengthAdjust="spacing" textLength="30" x="1018" y="536.8516">owns</text><text fill="#000000" font-family="sans-serif" font-size="13" lengthAdjust="spacing" textLength="7" x="1408.0119" y="543.1836">1</text><text fill="#000000" font-family="sans-serif" font-size="13" lengthAdjust="spacing" textLength="7" x="507.5869" y="608.5096">1</text><!--MD5=[47855ee4dabeea37c5949a17ed9e3a41]
link ChemicalLaboratory to Sample--><path codeLine="55" d="M1566.12,516.5964 C1626.02,524.4364 1709.54,535.3664 1756.89,541.5664 " fill="none" id="ChemicalLaboratory-Sample" style="stroke:#A80036;stroke-width:1.0;"/><polygon fill="#000000" points="1627.0423,511.8833,1635.6294,515.9713,1636.3923,510.1431,1627.0423,511.8833" style="stroke:#000000;stroke-width:1.0;"/><text fill="#000000" font-family="sans-serif" font-size="13" lengthAdjust="spacing" textLength="54" x="1641" y="517.8516">is sent to</text><text fill="#000000" font-family="sans-serif" font-size="13" lengthAdjust="spacing" textLength="7" x="1573.8668" y="531.8876">1</text><text fill="#000000" font-family="sans-serif" font-size="13" lengthAdjust="spacing" textLength="5" x="1743.9933" y="555.7443">*</text><!--MD5=[fdfe1f7a1d4f9a6f0814f21c5f7b0d38]
link ClinicalAnalysisLaboratory to Company--><path codeLine="57" d="M3886.26,281.2164 C3865.16,253.3464 3828.82,210.5964 3788,185.3564 C3750.81,162.3664 3737.16,163.3564 3694,156.3564 C2802.53,11.8564 2565.61,111.3564 1662.5,111.3564 C702.5,111.3564 702.5,111.3564 702.5,111.3564 C591.53,111.3564 508.2,510.0664 487.49,619.0864 " fill="none" id="ClinicalAnalysisLaboratory-Company" style="stroke:#A80036;stroke-width:1.0;"/><polygon fill="#000000" points="2181.9755,89.0376,2172.684,87.0079,2173.2655,92.8569,2181.9755,89.0376" style="stroke:#000000;stroke-width:1.0;"/><text fill="#000000" font-family="sans-serif" font-size="13" lengthAdjust="spacing" textLength="30" x="2186" y="94.8516">owns</text><text fill="#000000" font-family="sans-serif" font-size="13" lengthAdjust="spacing" textLength="5" x="3876.0014" y="270.6451">*</text><text fill="#000000" font-family="sans-serif" font-size="13" lengthAdjust="spacing" textLength="7" x="481.0658" y="608.485">1</text><!--MD5=[38773adfcb560b2ecbe80133f36e08b9]
reverse link Laboratory to ChemicalLaboratory--><path codeLine="59" d="M1381.2,463.2064 C1401.29,471.1064 1423.26,479.7364 1442.38,487.2564 " fill="none" id="Laboratory-backto-ChemicalLaboratory" style="stroke:#A80036;stroke-width:1.0;"/><polygon fill="none" points="1378.34,469.5964,1362.29,455.7664,1383.46,456.5764,1378.34,469.5964" style="stroke:#A80036;stroke-width:1.0;"/><text fill="#000000" font-family="sans-serif" font-size="13" lengthAdjust="spacing" textLength="7" x="1370.0659" y="473.3119">1</text><text fill="#000000" font-family="sans-serif" font-size="13" lengthAdjust="spacing" textLength="7" x="1419.0416" y="476.5488">1</text><!--MD5=[e284e91db30362f23fd6ce34ffcc83e7]
reverse link Laboratory to ClinicalAnalysisLaboratory--><path codeLine="61" d="M1382.28,433.0364 C1527.02,421.5264 1889.58,395.3564 2193.5,395.3564 C2193.5,395.3564 2193.5,395.3564 2746,395.3564 C2955.06,395.3564 3584.85,338.4064 3817.71,316.6564 " fill="none" id="Laboratory-backto-ClinicalAnalysisLaboratory" style="stroke:#A80036;stroke-width:1.0;"/><polygon fill="none" points="1382.64,440.0264,1362.15,434.6564,1381.52,426.0764,1382.64,440.0264" style="stroke:#A80036;stroke-width:1.0;"/><text fill="#000000" font-family="sans-serif" font-size="13" lengthAdjust="spacing" textLength="7" x="1369.9036" y="448.8375">1</text><text fill="#000000" font-family="sans-serif" font-size="13" lengthAdjust="spacing" textLength="7" x="3803.0672" y="331.5228">1</text><!--MD5=[7144ffdeebbe38808f7fb2ce8ac24f7d]
link Administrator to ParameterCategory--><path codeLine="63" d="M756.07,821.3564 C810.57,821.3564 896.79,821.3564 956.97,821.3564 " fill="none" id="Administrator-ParameterCategory" style="stroke:#A80036;stroke-width:1.0;"/><polygon fill="#000000" points="814.5,812.5322,823.5451,815.4712,823.5451,809.5933,814.5,812.5322" style="stroke:#000000;stroke-width:1.0;"/><text fill="#000000" font-family="sans-serif" font-size="13" lengthAdjust="spacing" textLength="61" x="828.5" y="817.8516">created by</text><text fill="#000000" font-family="sans-serif" font-size="13" lengthAdjust="spacing" textLength="5" x="764.1584" y="836.0633">*</text><text fill="#000000" font-family="sans-serif" font-size="13" lengthAdjust="spacing" textLength="5" x="944.0917" y="835.7727">*</text><!--MD5=[49f9c994ab9013da19f25c37bbd596b3]
link SpecialistDoctor to Result--><path codeLine="65" d="M2670.04,799.4464 C2679.96,801.9064 2690.2,804.0164 2700,805.3564 C2739.63,810.7564 2750.01,806.2964 2790,805.3564 C2799.82,805.1264 2810.49,804.6864 2820.22,804.2264 " fill="none" id="SpecialistDoctor-Result" style="stroke:#A80036;stroke-width:1.0;"/><polygon fill="#000000" points="2702.5025,796.3732,2711.4495,799.5983,2711.6365,793.7235,2702.5025,796.3732" style="stroke:#000000;stroke-width:1.0;"/><text fill="#000000" font-family="sans-serif" font-size="13" lengthAdjust="spacing" textLength="70" x="2716.5" y="801.8516">analyzed by</text><text fill="#000000" font-family="sans-serif" font-size="13" lengthAdjust="spacing" textLength="7" x="2677.9058" y="816.2746">1</text><text fill="#000000" font-family="sans-serif" font-size="13" lengthAdjust="spacing" textLength="7" x="2805.4279" y="819.7935">1</text><!--MD5=[98994e1502641fa381021dffe882d56a]
link ClinicalChemistryTechnologist to Sample--><path codeLine="67" d="M3085.24,525.3564 C3022.73,538.9064 2934.2,554.3564 2855.5,554.3564 C2474.5,554.3564 2474.5,554.3564 2474.5,554.3564 C2229.29,554.3564 1934.3,549.0764 1832.3,547.0964 " fill="none" id="ClinicalChemistryTechnologist-Sample" style="stroke:#A80036;stroke-width:1.0;"/><polygon fill="#000000" points="2442.9992,545.4455,2433.9045,542.6639,2434.0065,548.5409,2442.9992,545.4455" style="stroke:#000000;stroke-width:1.0;"/><text fill="#000000" font-family="sans-serif" font-size="13" lengthAdjust="spacing" textLength="70" x="2447" y="550.8516">analyzed by</text><text fill="#000000" font-family="sans-serif" font-size="13" lengthAdjust="spacing" textLength="5" x="3056.2606" y="546.776">*</text><text fill="#000000" font-family="sans-serif" font-size="13" lengthAdjust="spacing" textLength="20" x="1839.9181" y="562.0256">1..*</text><!--MD5=[502b51bc079239060389dab43b7d3470]
link Client to Test--><path codeLine="69" d="M3384.77,945.7064 C3335.37,971.7764 3248.8,1010.3564 3169,1010.3564 C2339,1010.3564 2339,1010.3564 2339,1010.3564 C2252.6,1010.3564 2165.35,960.8964 2106.72,918.7764 " fill="none" id="Client-Test" style="stroke:#A80036;stroke-width:1.0;"/><polygon fill="#000000" points="2709.9989,1001.6376,2701.0177,998.5087,2700.8939,1004.3853,2709.9989,1001.6376" style="stroke:#000000;stroke-width:1.0;"/><text fill="#000000" font-family="sans-serif" font-size="13" lengthAdjust="spacing" textLength="75" x="2714" y="1006.8516">requested by</text><text fill="#000000" font-family="sans-serif" font-size="13" lengthAdjust="spacing" textLength="7" x="3369.9961" y="964.6469">1</text><text fill="#000000" font-family="sans-serif" font-size="13" lengthAdjust="spacing" textLength="5" x="2114.4255" y="939.1554">*</text><!--MD5=[7048eb257bae2750d747ca61a113ed73]
link Client to Receptionist--><path codeLine="71" d="M3468.08,856.3964 C3497.5,806.4564 3536.58,735.3964 3563,669.3564 C3601.91,572.0764 3628.92,448.9964 3638.57,401.4064 " fill="none" id="Client-Receptionist" style="stroke:#A80036;stroke-width:1.0;"/><polygon fill="#000000" points="3501.2456,665.2143,3507.1714,657.7756,3501.6673,655.7131,3501.2456,665.2143" style="stroke:#000000;stroke-width:1.0;"/><text fill="#000000" font-family="sans-serif" font-size="13" lengthAdjust="spacing" textLength="50" x="3512" y="665.8516">registers</text><text fill="#000000" font-family="sans-serif" font-size="13" lengthAdjust="spacing" textLength="5" x="3475.9317" y="859.6266">*</text><text fill="#000000" font-family="sans-serif" font-size="13" lengthAdjust="spacing" textLength="20" x="3639.9959" y="422.8401">1..*</text><!--MD5=[b097d9d314264888b7dbeddc95343863]
link LabOrder to Client--><path codeLine="73" d="M62.33,1026.4964 C91.23,1070.9164 168.06,1173.3564 262,1173.3564 C262,1173.3564 262,1173.3564 2746,1173.3564 C2985.86,1173.3564 3051.18,1138.9364 3268,1036.3564 C3307.35,1017.7364 3319.72,1016.8664 3355,991.3564 C3365.27,983.9264 3375.49,975.0364 3384.84,966.1364 " fill="none" id="LabOrder-Client" style="stroke:#A80036;stroke-width:1.0;"/><polygon fill="#000000" points="1633.4992,1164.4414,1624.4022,1161.6673,1624.509,1167.5441,1633.4992,1164.4414" style="stroke:#000000;stroke-width:1.0;"/><text fill="#000000" font-family="sans-serif" font-size="13" lengthAdjust="spacing" textLength="61" x="1637.5" y="1169.8516">brought by</text><text fill="#000000" font-family="sans-serif" font-size="13" lengthAdjust="spacing" textLength="7" x="58.0947" y="1047.9554">1</text><text fill="#000000" font-family="sans-serif" font-size="13" lengthAdjust="spacing" textLength="5" x="3371.974" y="988.914">*</text><!--MD5=[727b58dfd932e2fbda2a273f174e2308]
link LabOrder to Receptionist--><path codeLine="75" d="M49.9,986.2764 C49.75,846.4164 57.52,23.3564 262,23.3564 C262,23.3564 262,23.3564 1662.5,23.3564 C1963.19,23.3564 2038.31,31.3564 2339,31.3564 C2339,31.3564 2339,31.3564 2979.5,31.3564 C3264.22,31.3564 3546.45,286.9064 3622.56,361.2864 " fill="none" id="LabOrder-Receptionist" style="stroke:#A80036;stroke-width:1.0;"/><polygon fill="#000000" points="1763.5748,16.3938,1772.991,17.7301,1771.9781,11.9402,1763.5748,16.3938" style="stroke:#000000;stroke-width:1.0;"/><text fill="#000000" font-family="sans-serif" font-size="13" lengthAdjust="spacing" textLength="47" x="1777.5" y="20.8516">receives</text><text fill="#000000" font-family="sans-serif" font-size="13" lengthAdjust="spacing" textLength="7" x="42.1363" y="975.5747">1</text><text fill="#000000" font-family="sans-serif" font-size="13" lengthAdjust="spacing" textLength="20" x="3593.4714" y="350.5876">1..*</text><!--MD5=[84a279e28ad6c3248737114c29c49c27]
link LabOrder to Test--><path codeLine="77" d="M82.03,1026.4964 C122.39,1049.9064 194.64,1085.3564 262,1085.3564 C262,1085.3564 262,1085.3564 1795.5,1085.3564 C1884.49,1085.3564 1953.62,1001.2664 1993.92,935.9064 " fill="none" id="LabOrder-Test" style="stroke:#A80036;stroke-width:1.0;"/><polygon fill="#000000" points="980.5056,1076.7689,989.6796,1079.2764,989.4015,1073.4051,980.5056,1076.7689" style="stroke:#000000;stroke-width:1.0;"/><text fill="#000000" font-family="sans-serif" font-size="13" lengthAdjust="spacing" textLength="77" x="994.5" y="1081.8516">is associated</text><text fill="#000000" font-family="sans-serif" font-size="13" lengthAdjust="spacing" textLength="7" x="83.3353" y="1047.9554">1</text><text fill="#000000" font-family="sans-serif" font-size="13" lengthAdjust="spacing" textLength="7" x="1982.8564" y="957.1344">1</text><!--MD5=[fba3ac294f3c76c431d275cef443fef8]
link LabOrder to TestType--><path codeLine="79" d="M91.13,994.7164 C126.53,984.6964 177.61,970.2364 214.7,959.7464 " fill="none" id="LabOrder-TestType" style="stroke:#A80036;stroke-width:1.0;"/><polygon fill="#000000" points="130.8111,958.1707,121.3075,957.8058,122.9081,963.4616,130.8111,958.1707" style="stroke:#000000;stroke-width:1.0;"/><text fill="#000000" font-family="sans-serif" font-size="13" lengthAdjust="spacing" textLength="49" x="135" y="964.8516">contains</text><text fill="#000000" font-family="sans-serif" font-size="13" lengthAdjust="spacing" textLength="7" x="98.9727" y="1007.6161">1</text><text fill="#000000" font-family="sans-serif" font-size="13" lengthAdjust="spacing" textLength="7" x="200.0919" y="976.4452">1</text><!--MD5=[8a0bab72ab0281f8a9e78a6f98e5652c]
link Result to ClinicalChemistryTechnologist--><path codeLine="81" d="M2876.91,781.9464 C2933.95,727.5564 3089.11,579.6164 3145.85,525.5164 " fill="none" id="Result-ClinicalChemistryTechnologist" style="stroke:#A80036;stroke-width:1.0;"/><polygon fill="#000000" points="2947.3813,629.9826,2955.9557,625.8678,2951.8995,621.6138,2947.3813,629.9826" style="stroke:#000000;stroke-width:1.0;"/><text fill="#000000" font-family="sans-serif" font-size="13" lengthAdjust="spacing" textLength="50" x="2960" y="631.8516">registers</text><text fill="#000000" font-family="sans-serif" font-size="13" lengthAdjust="spacing" textLength="5" x="2877.5097" y="771.5007">*</text><text fill="#000000" font-family="sans-serif" font-size="13" lengthAdjust="spacing" textLength="20" x="3116.8078" y="546.981">1..*</text><!--MD5=[d14b4c18c397fa0293924715644730ec]
link Result to Notification--><path codeLine="83" d="M2888.54,804.7964 C2944.44,808.9264 3057.77,817.2864 3121.26,821.9764 " fill="none" id="Result-Notification" style="stroke:#A80036;stroke-width:1.0;"/><polygon fill="#000000" points="2928.9864,797.9003,2920.1823,794.3035,2919.7495,800.1654,2928.9864,797.9003" style="stroke:#000000;stroke-width:1.0;"/><text fill="#000000" font-family="sans-serif" font-size="13" lengthAdjust="spacing" textLength="104" x="2933" y="802.8516">is associated with</text><text fill="#000000" font-family="sans-serif" font-size="13" lengthAdjust="spacing" textLength="5" x="2896.5331" y="820.6138">*</text><text fill="#000000" font-family="sans-serif" font-size="13" lengthAdjust="spacing" textLength="20" x="3093.6356" y="836.116">1..*</text><!--MD5=[e509fed78cd7f855333fe9c80fc7ea15]
link DiagnosisReport to SpecialistDoctor--><path codeLine="85" d="M2403.26,784.1864 C2446.87,783.3764 2504.82,782.2864 2547.94,781.4764 " fill="none" id="DiagnosisReport-SpecialistDoctor" style="stroke:#A80036;stroke-width:1.0;"/><polygon fill="#000000" points="2443.0009,772.6259,2452.0994,775.3949,2451.9893,769.5181,2443.0009,772.6259" style="stroke:#000000;stroke-width:1.0;"/><text fill="#000000" font-family="sans-serif" font-size="13" lengthAdjust="spacing" textLength="50" x="2457" y="777.8516">registers</text><text fill="#000000" font-family="sans-serif" font-size="13" lengthAdjust="spacing" textLength="7" x="2410.9791" y="798.4916">1</text><text fill="#000000" font-family="sans-serif" font-size="13" lengthAdjust="spacing" textLength="7" x="2533.0718" y="796.1145">1</text><!--MD5=[91dc3644f358c08f88b60791b947d3a3]
link DiagnosisReport to Client--><path codeLine="87" d="M2363.74,805.6464 C2381.32,820.0364 2406.98,838.3264 2433,847.3564 C2784.37,969.3664 3246.54,939.2264 3384.77,926.5364 " fill="none" id="DiagnosisReport-Client" style="stroke:#A80036;stroke-width:1.0;"/><polygon fill="#000000" points="2829.9653,918.1201,2821.3285,914.1381,2820.6374,919.9752,2829.9653,918.1201" style="stroke:#000000;stroke-width:1.0;"/><text fill="#000000" font-family="sans-serif" font-size="13" lengthAdjust="spacing" textLength="54" x="2834" y="922.8516">is sent to</text><text fill="#000000" font-family="sans-serif" font-size="13" lengthAdjust="spacing" textLength="7" x="2362.1795" y="826.7917">1</text><text fill="#000000" font-family="sans-serif" font-size="13" lengthAdjust="spacing" textLength="7" x="3369.9961" y="942.1821">1</text><!--MD5=[e83232b12920152899b3d956169a0d16]
link DiagnosisReport to LaboratoryCoordinator--><path codeLine="89" d="M2277,767.7164 C2196.48,744.9264 2051.49,704.2564 1927,671.3564 C1703.67,612.3264 1646.57,602.4764 1423,544.3564 C1310.51,515.1164 1180.39,479.9864 1101.03,458.4164 " fill="none" id="DiagnosisReport-LaboratoryCoordinator" style="stroke:#A80036;stroke-width:1.0;"/><polygon fill="#000000" points="1638.8355,580.8041,1630.8355,575.661,1629.3404,581.3456,1638.8355,580.8041" style="stroke:#000000;stroke-width:1.0;"/><text fill="#000000" font-family="sans-serif" font-size="13" lengthAdjust="spacing" textLength="50" x="1643" y="584.8516">validates</text><text fill="#000000" font-family="sans-serif" font-size="13" lengthAdjust="spacing" textLength="5" x="2264.0172" y="780.0581">*</text><text fill="#000000" font-family="sans-serif" font-size="13" lengthAdjust="spacing" textLength="7" x="1112.2314" y="479.147">1</text><!--MD5=[b25b37dde2866fd853924cb818679535]
link NHSReport to Result--><path codeLine="91" d="M2656.66,718.2864 C2704.58,738.7564 2777.96,770.0964 2820.28,788.1664 " fill="none" id="NHSReport-Result" style="stroke:#A80036;stroke-width:1.0;"/><polygon fill="#000000" points="2709.4018,726.5684,2716.5657,732.8237,2718.8743,727.4182,2709.4018,726.5684" style="stroke:#000000;stroke-width:1.0;"/><text fill="#000000" font-family="sans-serif" font-size="13" lengthAdjust="spacing" textLength="57" x="2723" y="733.8516">generates</text><text fill="#000000" font-family="sans-serif" font-size="13" lengthAdjust="spacing" textLength="20" x="2664.4081" y="735.5583">1..*</text><text fill="#000000" font-family="sans-serif" font-size="13" lengthAdjust="spacing" textLength="7" x="2805.5003" y="800.4211">1</text><!--MD5=[5853f8747c18e89b10dd024359cfe8ec]
link NHSReport to NHS--><path codeLine="93" d="M2656.66,701.6164 C2706.51,705.0964 2783.92,710.4964 2825.24,713.3864 " fill="none" id="NHSReport-NHS" style="stroke:#A80036;stroke-width:1.0;"/><polygon fill="#000000" points="2720.4879,695.8805,2711.6694,692.3187,2711.26,698.1823,2720.4879,695.8805" style="stroke:#000000;stroke-width:1.0;"/><text fill="#000000" font-family="sans-serif" font-size="13" lengthAdjust="spacing" textLength="54" x="2724.5" y="700.8516">is sent to</text><text fill="#000000" font-family="sans-serif" font-size="13" lengthAdjust="spacing" textLength="20" x="2664.4081" y="716.6482">1..*</text><text fill="#000000" font-family="sans-serif" font-size="13" lengthAdjust="spacing" textLength="7" x="2810.6643" y="728.3166">1</text><!--MD5=[7a9e3e328fb1db48284e23a673c1e60d]
link ParameterCategory to Parameter--><path codeLine="95" d="M1096.24,830.6464 C1150.57,837.9964 1224.81,848.0264 1271.58,854.3464 " fill="none" id="ParameterCategory-Parameter" style="stroke:#A80036;stroke-width:1.0;"/><polygon fill="#000000" points="1134.0451,825.8625,1142.615,829.9865,1143.4023,824.1616,1134.0451,825.8625" style="stroke:#000000;stroke-width:1.0;"/><text fill="#000000" font-family="sans-serif" font-size="13" lengthAdjust="spacing" textLength="93" x="1148" y="831.8516">presented under</text><text fill="#000000" font-family="sans-serif" font-size="13" lengthAdjust="spacing" textLength="7" x="1103.7929" y="845.9681">1</text><text fill="#000000" font-family="sans-serif" font-size="13" lengthAdjust="spacing" textLength="5" x="1258.9428" y="868.226">*</text><!--MD5=[4265453a012991a726928e22789b8a83]
link Parameter to Test--><path codeLine="97" d="M1362.22,860.3564 C1482.34,860.3564 1815.49,860.3564 1962.38,860.3564 " fill="none" id="Parameter-Test" style="stroke:#A80036;stroke-width:1.0;"/><polygon fill="#000000" points="1596,851.5322,1605.0451,854.4712,1605.0451,848.5933,1596,851.5322" style="stroke:#000000;stroke-width:1.0;"/><text fill="#000000" font-family="sans-serif" font-size="13" lengthAdjust="spacing" textLength="116" x="1610" y="856.8516">requests analysis of</text><text fill="#000000" font-family="sans-serif" font-size="13" lengthAdjust="spacing" textLength="20" x="1369.9853" y="875.0359">1..*</text><text fill="#000000" font-family="sans-serif" font-size="13" lengthAdjust="spacing" textLength="5" x="1949.6848" y="874.7108">*</text><!--MD5=[6d9eb9a083ac0654c8b63743033752d3]
link TestType to Company--><path codeLine="99" d="M293.65,905.2764 C338.58,843.0064 422.72,726.4264 460.84,673.6064 " fill="none" id="TestType-Company" style="stroke:#A80036;stroke-width:1.0;"/><polygon fill="#000000" points="343.074,746.5867,350.7503,740.972,345.984,737.5323,343.074,746.5867" style="stroke:#000000;stroke-width:1.0;"/><text fill="#000000" font-family="sans-serif" font-size="13" lengthAdjust="spacing" textLength="53" x="355" y="747.8516">conducts</text><text fill="#000000" font-family="sans-serif" font-size="13" lengthAdjust="spacing" textLength="5" x="293.4883" y="894.4084">*</text><text fill="#000000" font-family="sans-serif" font-size="13" lengthAdjust="spacing" textLength="7" x="448.555" y="694.8689">1</text><!--MD5=[c2c6b28b052a3fe86d789b83a09b2815]
link TestType to Test--><path codeLine="101" d="M311.25,970.3264 C354.23,989.9064 420.03,1014.3564 480.5,1014.3564 C480.5,1014.3564 480.5,1014.3564 1795.5,1014.3564 C1859.23,1014.3564 1919.39,974.9464 1963.28,936.0064 " fill="none" id="TestType-Test" style="stroke:#A80036;stroke-width:1.0;"/><polygon fill="#000000" points="1168.5011,1005.6361,1177.6053,1008.3865,1177.4832,1002.5099,1168.5011,1005.6361" style="stroke:#000000;stroke-width:1.0;"/><text fill="#000000" font-family="sans-serif" font-size="13" lengthAdjust="spacing" textLength="24" x="1182.5" y="1010.8516">is of</text><text fill="#000000" font-family="sans-serif" font-size="13" lengthAdjust="spacing" textLength="7" x="318.8508" y="988.5791">1</text><text fill="#000000" font-family="sans-serif" font-size="13" lengthAdjust="spacing" textLength="5" x="1951.7143" y="956.9812">*</text><!--MD5=[0985ee834cc881275852ed47ce1e01f6]
link TestType to Administrator--><path codeLine="103" d="M311.34,932.8564 C394.28,909.2164 565.16,860.5064 650.96,836.0464 " fill="none" id="TestType-Administrator" style="stroke:#A80036;stroke-width:1.0;"/><polygon fill="#000000" points="452.6915,865.9029,462.1958,866.2497,460.5845,860.597,452.6915,865.9029" style="stroke:#000000;stroke-width:1.0;"/><text fill="#000000" font-family="sans-serif" font-size="13" lengthAdjust="spacing" textLength="43" x="466.5" y="869.8516">creates</text><text fill="#000000" font-family="sans-serif" font-size="13" lengthAdjust="spacing" textLength="5" x="319.1249" y="945.574">*</text><text fill="#000000" font-family="sans-serif" font-size="13" lengthAdjust="spacing" textLength="7" x="636.0794" y="852.7675">1</text><!--MD5=[9163865a413f55935f47e026f9eaa033]
link Test to Result--><path codeLine="105" d="M2106.91,857.0664 C2224.4,851.5164 2465.84,839.4864 2670,825.3564 C2723.39,821.6564 2737.02,822.9564 2790,815.3564 C2799.91,813.9364 2810.61,811.9264 2820.34,809.9164 " fill="none" id="Test-Result" style="stroke:#A80036;stroke-width:1.0;"/><polygon fill="#000000" points="2461.9891,825.2025,2452.7699,822.8665,2453.1575,828.7315,2461.9891,825.2025" style="stroke:#000000;stroke-width:1.0;"/><text fill="#000000" font-family="sans-serif" font-size="13" lengthAdjust="spacing" textLength="32" x="2466" y="830.8516">has a</text><text fill="#000000" font-family="sans-serif" font-size="13" lengthAdjust="spacing" textLength="7" x="2114.3824" y="871.0579">1</text><text fill="#000000" font-family="sans-serif" font-size="13" lengthAdjust="spacing" textLength="7" x="2805.5726" y="826.6571">1</text><!--MD5=[150ee6e4dbb30ab82336f9e174f6c4ed]
link Test to Company--><path codeLine="107" d="M1962.4,841.9364 C1950.62,839.1864 1938.5,836.5464 1927,834.3564 C1351.4,724.5064 1204.4,708.4164 621,653.3564 C588.52,650.2864 551.62,648.5064 524.08,647.5164 " fill="none" id="Test-Company" style="stroke:#A80036;stroke-width:1.0;"/><polygon fill="#000000" points="1294.4549,714.202,1285.885,710.0779,1285.0977,715.9028,1294.4549,714.202" style="stroke:#000000;stroke-width:1.0;"/><text fill="#000000" font-family="sans-serif" font-size="13" lengthAdjust="spacing" textLength="50" x="1298.5" y="718.8516">performs</text><text fill="#000000" font-family="sans-serif" font-size="13" lengthAdjust="spacing" textLength="5" x="1949.7069" y="854.3912">*</text><text fill="#000000" font-family="sans-serif" font-size="13" lengthAdjust="spacing" textLength="7" x="532" y="643.8802">1</text><!--MD5=[ca29482912e344ebd5dc9db2d1c2ccab]
link Test to ClinicalAnalysisLaboratory--><path codeLine="109" d="M2085.29,935.9264 C2138.72,1006.9364 2230.67,1102.3564 2339,1102.3564 C2339,1102.3564 2339,1102.3564 2746,1102.3564 C3004.51,1102.3564 3066.99,1152.3564 3325.5,1152.3564 C3325.5,1152.3564 3325.5,1152.3564 3644.5,1152.3564 C3819.73,1152.3564 3890.08,479.9464 3903.18,335.4864 " fill="none" id="Test-ClinicalAnalysisLaboratory" style="stroke:#A80036;stroke-width:1.0;"/><polygon fill="#000000" points="2946.2523,1104.1004,2955.7627,1104.0542,2953.9193,1098.4729,2946.2523,1104.1004" style="stroke:#000000;stroke-width:1.0;"/><text fill="#000000" font-family="sans-serif" font-size="13" lengthAdjust="spacing" textLength="50" x="2960" y="1107.8516">performs</text><text fill="#000000" font-family="sans-serif" font-size="13" lengthAdjust="spacing" textLength="5" x="2084.7417" y="957.1563">*</text><text fill="#000000" font-family="sans-serif" font-size="13" lengthAdjust="spacing" textLength="5" x="3896.9069" y="356.7226">*</text><!--MD5=[10af4306acabee641eea198ac06587b8]
link Test to Receptionist--><path codeLine="111" d="M2106.79,803.9464 C2118.18,796.3764 2130.14,789.2164 2142,783.3564 C2389.99,660.8164 2467.38,625.3564 2744,625.3564 C2744,625.3564 2744,625.3564 3427.5,625.3564 C3546.35,625.3564 3615.11,460.3864 3635.8,401.7364 " fill="none" id="Test-Receptionist" style="stroke:#A80036;stroke-width:1.0;"/><polygon fill="#000000" points="2822.1645,617.8042,2831.6597,618.3454,2830.1643,612.6609,2822.1645,617.8042" style="stroke:#000000;stroke-width:1.0;"/><text fill="#000000" font-family="sans-serif" font-size="13" lengthAdjust="spacing" textLength="50" x="2836" y="621.8516">registers</text><text fill="#000000" font-family="sans-serif" font-size="13" lengthAdjust="spacing" textLength="5" x="2114.5027" y="812.4835">*</text><text fill="#000000" font-family="sans-serif" font-size="13" lengthAdjust="spacing" textLength="20" x="3611.0431" y="422.9059">1..*</text><!--MD5=[5fda545c79585d17c4a435a79f76ac33]
link Test to DiagnosisReport--><path codeLine="113" d="M2106.66,842.7764 C2158.26,830.0264 2227.37,812.9464 2276.77,800.7364 " fill="none" id="Test-DiagnosisReport" style="stroke:#A80036;stroke-width:1.0;"/><polygon fill="#000000" points="2142.146,801.7318,2151.632,802.4148,2150.2218,796.7087,2142.146,801.7318" style="stroke:#000000;stroke-width:1.0;"/><text fill="#000000" font-family="sans-serif" font-size="13" lengthAdjust="spacing" textLength="90" x="2156" y="805.8516">associated with</text><text fill="#000000" font-family="sans-serif" font-size="13" lengthAdjust="spacing" textLength="7" x="2114.4624" y="837.6679">1</text><text fill="#000000" font-family="sans-serif" font-size="13" lengthAdjust="spacing" textLength="7" x="2262.0543" y="816.9552">1</text><!--MD5=[1ae83efc6d1967ce5bc17dfe294d00c2]
link Sample to Test--><path codeLine="115" d="M1829.25,573.4964 C1857.54,597.3364 1897.86,633.9664 1927,671.3564 C1954.09,706.1164 1978.66,748.5764 1997.36,784.4464 " fill="none" id="Sample-Test" style="stroke:#A80036;stroke-width:1.0;"/><polygon fill="#000000" points="1866.3839,589.622,1869.7226,598.5273,1874.3194,594.864,1866.3839,589.622" style="stroke:#000000;stroke-width:1.0;"/><text fill="#000000" font-family="sans-serif" font-size="13" lengthAdjust="spacing" textLength="45" x="1878.5" y="598.8516">collects</text><text fill="#000000" font-family="sans-serif" font-size="13" lengthAdjust="spacing" textLength="5" x="1831.3047" y="594.7348">*</text><text fill="#000000" font-family="sans-serif" font-size="13" lengthAdjust="spacing" textLength="7" x="1986.4865" y="773.9755">1</text><!--MD5=[cb5e86f6614a99551e1d9ce6f0ae5849]
link Sample to MedicalLabTechnician--><path codeLine="117" d="M1813.19,519.1464 C1858.87,448.9064 1979.98,262.6564 2020.26,200.7164 " fill="none" id="Sample-MedicalLabTechnician" style="stroke:#A80036;stroke-width:1.0;"/><polygon fill="#000000" points="1864.2742,348.7239,1871.669,342.7433,1866.7414,339.5389,1864.2742,348.7239" style="stroke:#000000;stroke-width:1.0;"/><text fill="#000000" font-family="sans-serif" font-size="13" lengthAdjust="spacing" textLength="50" x="1876" y="349.8516">registers</text><text fill="#000000" font-family="sans-serif" font-size="13" lengthAdjust="spacing" textLength="20" x="1795.1996" y="508.5589">1..*</text><text fill="#000000" font-family="sans-serif" font-size="13" lengthAdjust="spacing" textLength="20" x="1993.7455" y="221.8806">1..*</text><!--MD5=[c1a9c7f16ec55f9c4038f73c31b8becd]
link Notification to Client--><path codeLine="119" d="M3214.56,842.5864 C3262.79,860.8264 3338.21,889.3464 3384.59,906.8864 " fill="none" id="Notification-Client" style="stroke:#A80036;stroke-width:1.0;"/><polygon fill="#000000" points="3307.6768,869.3008,3300.256,863.3525,3298.1769,868.8503,3307.6768,869.3008" style="stroke:#000000;stroke-width:1.0;"/><text fill="#000000" font-family="sans-serif" font-size="13" lengthAdjust="spacing" textLength="42" x="3312" y="872.8516">informs</text><text fill="#000000" font-family="sans-serif" font-size="13" lengthAdjust="spacing" textLength="20" x="3222.5138" y="859.6543">1..*</text><text fill="#000000" font-family="sans-serif" font-size="13" lengthAdjust="spacing" textLength="5" x="3371.957" y="919.1547">*</text><!--MD5=[5c30cf0fd8e143b79b8866530b3e611e]
@startuml
hide methods
skinparam classAttributeIconSize 0
left to right direction

class Company
class Laboratory
class ChemicalLaboratory
class ClinicalAnalysisLaboratory
class LaboratoryCoordinator
class Employee
class Administrator
class SpecialistDoctor
class ClinicalChemistryTechnologist
class MedicalLabTechnician
class Receptionist
class Client
class LabOrder
class Result
class DiagnosisReport
class NHSReport
class ParameterCategory
class Parameter
class TestType
class Test
class Notification
class NHS
class Sample

Company "1" - - "*" Parameter : > capable of analysing

Company "1" - - "*" Employee : < works for

Company "1" - - "*" ParameterCategory : > adopts

Company "1" - - "*" Administrator : > knows

Employee "*" <|- - "*" ClinicalChemistryTechnologist

Employee "*" <|- - "1..*" Receptionist

Employee "*" <|- - "*" MedicalLabTechnician

Employee "*" <|- - "1..*" LaboratoryCoordinator

ClinicalChemistryTechnologist "*" - - "1" ChemicalLaboratory : > works at

MedicalLabTechnician "1..*" - - "*" ClinicalAnalysisLaboratory : > works at

Receptionist "1..*" - - "*" ClinicalAnalysisLaboratory : > works at

LaboratoryCoordinator "1..*" - - "*" Laboratory: > works at a

ChemicalLaboratory "1" - - "1" Company : < owns

ChemicalLaboratory "1" - - "*" Sample : < is sent to

ClinicalAnalysisLaboratory "*" - - "1" Company : < owns

Laboratory "1"  <|- - "1" ChemicalLaboratory

Laboratory "1"  <|- - "1" ClinicalAnalysisLaboratory

Administrator "*" - - "*" ParameterCategory : < created by

SpecialistDoctor "1" - - "1" Result : < analyzed by

ClinicalChemistryTechnologist "*" - - "1..*" Sample : < analyzed by

Client "1" - - "*" Test : < requested by

Client "*" - - "1..*" Receptionist : < registers

LabOrder "1" - - "*" Client : > brought by

LabOrder "1" - - "1..*" Receptionist : < receives

LabOrder "1" - - "1" Test : < is associated

LabOrder "1" - - "1" TestType : > contains

Result "*" - - "1..*" ClinicalChemistryTechnologist : < registers

Result "*" - - "1..*" Notification : > is associated with

DiagnosisReport "1" - - "1" SpecialistDoctor : < registers

DiagnosisReport "1" - - "1" Client : > is sent to

DiagnosisReport "*" - - "1" LaboratoryCoordinator : < validates

NHSReport "1..*" - - "1" Result : < generates

NHSReport "1..*" - - "1" NHS : > is sent to

ParameterCategory "1" - - "*" Parameter : < presented under

Parameter "1..*" - - "*" Test : < requests analysis of

TestType "*" - - "1" Company : < conducts

TestType "1" - - "*" Test: < is of

TestType "*" - - "1" Administrator : < creates

Test "1" - - "1" Result : > has a

Test "*" - - "1" Company : < performs

Test "*" - - "*" ClinicalAnalysisLaboratory : < performs

Test "*" - - "1..*" Receptionist : < registers

Test "1" - - "1" DiagnosisReport : < associated with

Sample "*" - - "1" Test : < collects

Sample "1..*" - - "1..*" MedicalLabTechnician : < registers

Notification "1..*" - - "*" Client : > informs

class Company{
-designation
}

class Laboratory{
-name
-address
-phoneNumber
-TIN
}

class ChemicalLaboratory{
}

class ClinicalAnalysisLaboratory{
-labID
}

class Administrator{
-name
-address
-phoneNumber
-employeeID
-orgRole
-email
-SOCcode
}

class Employee{
-name
-address
-phoneNumber
-employeeID
-orgRole
-email
-SOCcode
}

class SpecialistDoctor{
-doctorIndex
}

class ClinicalChemistryTechnologist{
}

class MedicalLabTechnician{
}

class Receptionist{
}

class Client{
-citizenID
-nhsID
-birthDate
-sex
-TIN
-phoneNumber
-email
-name
}

class LabOrder{
}

class Result{
}

class DiagnosisReport{
}

class ParameterCategory{
-code
-description
-nhsID
}

class Parameter{
-designation
-description
-code
}

class TestType{
-code
-description
-collectingMethod
}

class Test{
-description
-internalCode
-nhsCode
-collectingMethod
-collectDateTime
-chemicalAnalysisDateTime
-diagnosisDateTime
-validationDateTime
}

class Sample{
-barcode
}

@enduml

PlantUML version 1.2021.4(Sun Apr 04 09:49:39 BST 2021)
(GPL source distribution)
Java Runtime: OpenJDK Runtime Environment
JVM: OpenJDK 64-Bit Server VM
Default Encoding: Cp1252
Language: pt
Country: PT
--></g></svg>