<?xml version="1.0" encoding="UTF-8" standalone="no"?><svg xmlns="http://www.w3.org/2000/svg" xmlns:xlink="http://www.w3.org/1999/xlink" contentScriptType="application/ecmascript" contentStyleType="text/css" height="840px" preserveAspectRatio="none" style="width:2788px;height:839px;" version="1.1" viewBox="0 0 2788 839" width="2788.8px" zoomAndPan="magnify"><defs><filter height="300%" id="f1frzzmmcovj40" width="300%" x="-1" y="-1"><feGaussianBlur result="blurOut" stdDeviation="1.3999999999999997"/><feColorMatrix in="blurOut" result="blurOut2" type="matrix" values="0 0 0 0 0 0 0 0 0 0 0 0 0 0 0 0 0 0 .4 0"/><feOffset dx="2.7999999999999994" dy="2.7999999999999994" in="blurOut2" result="blurOut3"/><feBlend in="SourceGraphic" in2="blurOut3" mode="normal"/></filter></defs><g><!--MD5=[02e4b9b7573f1156f41e60aa5b4e25a4]
class Company--><rect codeLine="119" fill="#FEFECE" filter="url(#f1frzzmmcovj40)" height="37.6852" id="Company" style="stroke:#A80036;stroke-width:1.0499999999999998;" width="59.5" x="307.3" y="500.199"/><ellipse cx="317.8" cy="511.399" fill="#ADD1B2" rx="7.7" ry="7.7" style="stroke:#A80036;stroke-width:0.6999999999999998;"/><path d="M319.2,508.949 Q319.3422,508.599 319.5062,508.424 Q319.6703,508.249 319.8562,508.249 Q320.1844,508.249 320.3922,508.4459 Q320.6,508.6427 320.6,509.1021 L320.6,510.1959 Q320.6,510.6552 320.4031,510.8521 Q320.2062,511.049 319.9,511.049 Q319.6266,511.049 319.4516,510.9287 Q319.2766,510.8084 319.2,510.4912 Q319.1672,510.2724 319.0469,510.1521 Q318.8281,509.9224 318.4344,509.7912 Q318.0406,509.649 317.6469,509.649 Q317.1547,509.649 316.7391,509.8459 Q316.3344,510.0427 316.0172,510.4802 Q315.7,510.9177 315.7,511.5193 L315.7,512.1646 Q315.7,512.8865 316.2906,513.3677 Q316.8812,513.849 317.9312,513.849 Q318.5547,513.849 318.9922,513.7068 Q319.2437,513.6302 319.5281,513.3787 Q319.7141,513.2365 319.8125,513.1927 Q319.9109,513.149 320.0312,513.149 Q320.2609,513.149 320.425,513.3349 Q320.6,513.5099 320.6,513.7615 Q320.6,514.0021 320.3594,514.2865 Q320.0094,514.7021 319.4516,514.9318 Q318.7187,515.249 317.8219,515.249 Q316.7719,515.249 315.9297,514.8334 Q315.2516,514.5052 314.7703,513.7943 Q314.3,513.0834 314.3,512.2412 L314.3,511.4756 Q314.3,510.6006 314.7156,509.8349 Q315.1422,509.0693 315.875,508.6646 Q316.6187,508.249 317.45,508.249 Q317.9531,508.249 318.3906,508.424 Q318.8281,508.599 319.2,508.949 Z " fill="#000000"/><text fill="#000000" font-family="sans-serif" font-size="8.4" lengthAdjust="spacing" textLength="37.1" x="327.6" y="514.8361">Company</text><line style="stroke:#A80036;stroke-width:1.0499999999999998;" x1="308" x2="366.1" y1="522.599" y2="522.599"/><text fill="#000000" font-family="sans-serif" font-size="7.7" lengthAdjust="spacing" textLength="41.3" x="311.5" y="533.3923">-designation</text><!--MD5=[0caf3a413731a0de34fc6162fe213ed9]
class Laboratory--><rect codeLine="6" fill="#FEFECE" filter="url(#f1frzzmmcovj40)" height="28" id="Laboratory" style="stroke:#A80036;stroke-width:1.0499999999999998;" width="63" x="780.15" y="218.099"/><ellipse cx="790.65" cy="229.299" fill="#ADD1B2" rx="7.7" ry="7.7" style="stroke:#A80036;stroke-width:0.6999999999999998;"/><path d="M792.05,226.849 Q792.1922,226.499 792.3562,226.324 Q792.5203,226.149 792.7062,226.149 Q793.0344,226.149 793.2422,226.3459 Q793.45,226.5427 793.45,227.0021 L793.45,228.0959 Q793.45,228.5552 793.2531,228.7521 Q793.0562,228.949 792.75,228.949 Q792.4766,228.949 792.3016,228.8287 Q792.1266,228.7084 792.05,228.3912 Q792.0172,228.1724 791.8969,228.0521 Q791.6781,227.8224 791.2844,227.6912 Q790.8906,227.549 790.4969,227.549 Q790.0047,227.549 789.5891,227.7459 Q789.1844,227.9427 788.8672,228.3802 Q788.55,228.8177 788.55,229.4193 L788.55,230.0646 Q788.55,230.7865 789.1406,231.2677 Q789.7312,231.749 790.7812,231.749 Q791.4047,231.749 791.8422,231.6068 Q792.0937,231.5302 792.3781,231.2787 Q792.5641,231.1365 792.6625,231.0927 Q792.7609,231.049 792.8812,231.049 Q793.1109,231.049 793.275,231.2349 Q793.45,231.4099 793.45,231.6615 Q793.45,231.9021 793.2094,232.1865 Q792.8594,232.6021 792.3016,232.8318 Q791.5687,233.149 790.6719,233.149 Q789.6219,233.149 788.7797,232.7334 Q788.1016,232.4052 787.6203,231.6943 Q787.15,230.9834 787.15,230.1412 L787.15,229.3756 Q787.15,228.5006 787.5656,227.7349 Q787.9922,226.9693 788.725,226.5646 Q789.4687,226.149 790.3,226.149 Q790.8031,226.149 791.2406,226.324 Q791.6781,226.499 792.05,226.849 Z " fill="#000000"/><text fill="#000000" font-family="sans-serif" font-size="8.4" lengthAdjust="spacing" textLength="40.6" x="800.45" y="232.7361">Laboratory</text><line style="stroke:#A80036;stroke-width:1.0499999999999998;" x1="780.85" x2="842.45" y1="240.499" y2="240.499"/><!--MD5=[a64badb107d3691f2dc6af242cdbeb21]
class ChemicalLaboratory--><rect codeLine="123" fill="#FEFECE" filter="url(#f1frzzmmcovj40)" height="66.7406" id="ChemicalLaboratory" style="stroke:#A80036;stroke-width:1.0499999999999998;" width="100.1" x="977.9" y="198.849"/><ellipse cx="988.4" cy="210.049" fill="#ADD1B2" rx="7.7" ry="7.7" style="stroke:#A80036;stroke-width:0.6999999999999998;"/><path d="M989.8,207.599 Q989.9422,207.249 990.1062,207.074 Q990.2703,206.899 990.4562,206.899 Q990.7844,206.899 990.9922,207.0959 Q991.2,207.2927 991.2,207.7521 L991.2,208.8459 Q991.2,209.3052 991.0031,209.5021 Q990.8062,209.699 990.5,209.699 Q990.2266,209.699 990.0516,209.5787 Q989.8766,209.4584 989.8,209.1412 Q989.7672,208.9224 989.6469,208.8021 Q989.4281,208.5724 989.0344,208.4412 Q988.6406,208.299 988.2469,208.299 Q987.7547,208.299 987.3391,208.4959 Q986.9344,208.6927 986.6172,209.1302 Q986.3,209.5677 986.3,210.1693 L986.3,210.8146 Q986.3,211.5365 986.8906,212.0177 Q987.4812,212.499 988.5312,212.499 Q989.1547,212.499 989.5922,212.3568 Q989.8437,212.2802 990.1281,212.0287 Q990.3141,211.8865 990.4125,211.8427 Q990.5109,211.799 990.6312,211.799 Q990.8609,211.799 991.025,211.9849 Q991.2,212.1599 991.2,212.4115 Q991.2,212.6521 990.9594,212.9365 Q990.6094,213.3521 990.0516,213.5818 Q989.3187,213.899 988.4219,213.899 Q987.3719,213.899 986.5297,213.4834 Q985.8516,213.1552 985.3703,212.4443 Q984.9,211.7334 984.9,210.8912 L984.9,210.1256 Q984.9,209.2506 985.3156,208.4849 Q985.7422,207.7193 986.475,207.3146 Q987.2187,206.899 988.05,206.899 Q988.5531,206.899 988.9906,207.074 Q989.4281,207.249 989.8,207.599 Z " fill="#000000"/><text fill="#000000" font-family="sans-serif" font-size="8.4" lengthAdjust="spacing" textLength="77.7" x="998.2" y="213.4861">ChemicalLaboratory</text><line style="stroke:#A80036;stroke-width:1.0499999999999998;" x1="978.6" x2="1077.3" y1="221.249" y2="221.249"/><text fill="#000000" font-family="sans-serif" font-size="7.7" lengthAdjust="spacing" textLength="21" x="982.1" y="232.0423">-name</text><text fill="#000000" font-family="sans-serif" font-size="7.7" lengthAdjust="spacing" textLength="30.8" x="982.1" y="241.7274">-address</text><text fill="#000000" font-family="sans-serif" font-size="7.7" lengthAdjust="spacing" textLength="49.7" x="982.1" y="251.4126">-phoneNumber</text><text fill="#000000" font-family="sans-serif" font-size="7.7" lengthAdjust="spacing" textLength="13.3" x="982.1" y="261.0977">-TIN</text><!--MD5=[1934a092c0e7d4da7dc7075b6f4b6b03]
class ClinicalAnalysisLaboratory--><rect codeLine="130" fill="#FEFECE" filter="url(#f1frzzmmcovj40)" height="76.4258" id="ClinicalAnalysisLaboratory" style="stroke:#A80036;stroke-width:1.0499999999999998;" width="123.9" x="2655.1" y="385.749"/><ellipse cx="2665.6" cy="396.949" fill="#ADD1B2" rx="7.7" ry="7.7" style="stroke:#A80036;stroke-width:0.6999999999999998;"/><path d="M2667,394.499 Q2667.1422,394.149 2667.3062,393.974 Q2667.4703,393.799 2667.6562,393.799 Q2667.9844,393.799 2668.1922,393.9959 Q2668.4,394.1927 2668.4,394.6521 L2668.4,395.7459 Q2668.4,396.2052 2668.2031,396.4021 Q2668.0062,396.599 2667.7,396.599 Q2667.4266,396.599 2667.2516,396.4787 Q2667.0766,396.3584 2667,396.0412 Q2666.9672,395.8224 2666.8469,395.7021 Q2666.6281,395.4724 2666.2344,395.3412 Q2665.8406,395.199 2665.4469,395.199 Q2664.9547,395.199 2664.5391,395.3959 Q2664.1344,395.5927 2663.8172,396.0302 Q2663.5,396.4677 2663.5,397.0693 L2663.5,397.7146 Q2663.5,398.4365 2664.0906,398.9177 Q2664.6812,399.399 2665.7312,399.399 Q2666.3547,399.399 2666.7922,399.2568 Q2667.0437,399.1802 2667.3281,398.9287 Q2667.5141,398.7865 2667.6125,398.7427 Q2667.7109,398.699 2667.8312,398.699 Q2668.0609,398.699 2668.225,398.8849 Q2668.4,399.0599 2668.4,399.3115 Q2668.4,399.5521 2668.1594,399.8365 Q2667.8094,400.2521 2667.2516,400.4818 Q2666.5187,400.799 2665.6219,400.799 Q2664.5719,400.799 2663.7297,400.3834 Q2663.0516,400.0552 2662.5703,399.3443 Q2662.1,398.6334 2662.1,397.7912 L2662.1,397.0256 Q2662.1,396.1506 2662.5156,395.3849 Q2662.9422,394.6193 2663.675,394.2146 Q2664.4187,393.799 2665.25,393.799 Q2665.7531,393.799 2666.1906,393.974 Q2666.6281,394.149 2667,394.499 Z " fill="#000000"/><text fill="#000000" font-family="sans-serif" font-size="8.4" lengthAdjust="spacing" textLength="101.5" x="2675.4" y="400.3861">ClinicalAnalysisLaboratory</text><line style="stroke:#A80036;stroke-width:1.0499999999999998;" x1="2655.8" x2="2778.3" y1="408.149" y2="408.149"/><text fill="#000000" font-family="sans-serif" font-size="7.7" lengthAdjust="spacing" textLength="21" x="2659.3" y="418.9423">-name</text><text fill="#000000" font-family="sans-serif" font-size="7.7" lengthAdjust="spacing" textLength="30.8" x="2659.3" y="428.6274">-address</text><text fill="#000000" font-family="sans-serif" font-size="7.7" lengthAdjust="spacing" textLength="49.7" x="2659.3" y="438.3126">-phoneNumber</text><text fill="#000000" font-family="sans-serif" font-size="7.7" lengthAdjust="spacing" textLength="18.9" x="2659.3" y="447.9977">-labID</text><text fill="#000000" font-family="sans-serif" font-size="7.7" lengthAdjust="spacing" textLength="13.3" x="2659.3" y="457.6829">-TIN</text><!--MD5=[052425de1c0eb6cc1c1b48342b0bb88f]
class LaboratoryCoordinator--><rect codeLine="9" fill="#FEFECE" filter="url(#f1frzzmmcovj40)" height="28" id="LaboratoryCoordinator" style="stroke:#A80036;stroke-width:1.0499999999999998;" width="108.5" x="559.3" y="287.399"/><ellipse cx="569.8" cy="298.599" fill="#ADD1B2" rx="7.7" ry="7.7" style="stroke:#A80036;stroke-width:0.6999999999999998;"/><path d="M571.2,296.149 Q571.3422,295.799 571.5062,295.624 Q571.6703,295.449 571.8562,295.449 Q572.1844,295.449 572.3922,295.6459 Q572.6,295.8427 572.6,296.3021 L572.6,297.3959 Q572.6,297.8552 572.4031,298.0521 Q572.2062,298.249 571.9,298.249 Q571.6266,298.249 571.4516,298.1287 Q571.2766,298.0084 571.2,297.6912 Q571.1672,297.4724 571.0469,297.3521 Q570.8281,297.1224 570.4344,296.9912 Q570.0406,296.849 569.6469,296.849 Q569.1547,296.849 568.7391,297.0459 Q568.3344,297.2427 568.0172,297.6802 Q567.7,298.1177 567.7,298.7193 L567.7,299.3646 Q567.7,300.0865 568.2906,300.5677 Q568.8812,301.049 569.9312,301.049 Q570.5547,301.049 570.9922,300.9068 Q571.2437,300.8302 571.5281,300.5787 Q571.7141,300.4365 571.8125,300.3927 Q571.9109,300.349 572.0312,300.349 Q572.2609,300.349 572.425,300.5349 Q572.6,300.7099 572.6,300.9615 Q572.6,301.2021 572.3594,301.4865 Q572.0094,301.9021 571.4516,302.1318 Q570.7187,302.449 569.8219,302.449 Q568.7719,302.449 567.9297,302.0334 Q567.2516,301.7052 566.7703,300.9943 Q566.3,300.2834 566.3,299.4412 L566.3,298.6756 Q566.3,297.8006 566.7156,297.0349 Q567.1422,296.2693 567.875,295.8646 Q568.6187,295.449 569.45,295.449 Q569.9531,295.449 570.3906,295.624 Q570.8281,295.799 571.2,296.149 Z " fill="#000000"/><text fill="#000000" font-family="sans-serif" font-size="8.4" lengthAdjust="spacing" textLength="86.1" x="579.6" y="302.0361">LaboratoryCoordinator</text><line style="stroke:#A80036;stroke-width:1.0499999999999998;" x1="560" x2="667.1" y1="309.799" y2="309.799"/><!--MD5=[7421f545a0d8420c5bec41e74b387d9c]
class Employee--><rect codeLine="138" fill="#FEFECE" filter="url(#f1frzzmmcovj40)" height="95.7961" id="Employee" style="stroke:#A80036;stroke-width:1.0499999999999998;" width="60.9" x="455.7" y="276.549"/><ellipse cx="466.2" cy="287.749" fill="#ADD1B2" rx="7.7" ry="7.7" style="stroke:#A80036;stroke-width:0.6999999999999998;"/><path d="M467.6,285.299 Q467.7422,284.949 467.9062,284.774 Q468.0703,284.599 468.2562,284.599 Q468.5844,284.599 468.7922,284.7959 Q469,284.9927 469,285.4521 L469,286.5459 Q469,287.0052 468.8031,287.2021 Q468.6062,287.399 468.3,287.399 Q468.0266,287.399 467.8516,287.2787 Q467.6766,287.1584 467.6,286.8412 Q467.5672,286.6224 467.4469,286.5021 Q467.2281,286.2724 466.8344,286.1412 Q466.4406,285.999 466.0469,285.999 Q465.5547,285.999 465.1391,286.1959 Q464.7344,286.3927 464.4172,286.8302 Q464.1,287.2677 464.1,287.8693 L464.1,288.5146 Q464.1,289.2365 464.6906,289.7177 Q465.2812,290.199 466.3312,290.199 Q466.9547,290.199 467.3922,290.0568 Q467.6437,289.9802 467.9281,289.7287 Q468.1141,289.5865 468.2125,289.5427 Q468.3109,289.499 468.4312,289.499 Q468.6609,289.499 468.825,289.6849 Q469,289.8599 469,290.1115 Q469,290.3521 468.7594,290.6365 Q468.4094,291.0521 467.8516,291.2818 Q467.1187,291.599 466.2219,291.599 Q465.1719,291.599 464.3297,291.1834 Q463.6516,290.8552 463.1703,290.1443 Q462.7,289.4334 462.7,288.5912 L462.7,287.8256 Q462.7,286.9506 463.1156,286.1849 Q463.5422,285.4193 464.275,285.0146 Q465.0187,284.599 465.85,284.599 Q466.3531,284.599 466.7906,284.774 Q467.2281,284.949 467.6,285.299 Z " fill="#000000"/><text fill="#000000" font-family="sans-serif" font-size="8.4" lengthAdjust="spacing" textLength="38.5" x="476" y="291.1861">Employee</text><line style="stroke:#A80036;stroke-width:1.0499999999999998;" x1="456.4" x2="515.9" y1="298.949" y2="298.949"/><text fill="#000000" font-family="sans-serif" font-size="7.7" lengthAdjust="spacing" textLength="21" x="459.9" y="309.7423">-name</text><text fill="#000000" font-family="sans-serif" font-size="7.7" lengthAdjust="spacing" textLength="30.8" x="459.9" y="319.4274">-address</text><text fill="#000000" font-family="sans-serif" font-size="7.7" lengthAdjust="spacing" textLength="49.7" x="459.9" y="329.1126">-phoneNumber</text><text fill="#000000" font-family="sans-serif" font-size="7.7" lengthAdjust="spacing" textLength="41.3" x="459.9" y="338.7977">-employeeID</text><text fill="#000000" font-family="sans-serif" font-size="7.7" lengthAdjust="spacing" textLength="28.7" x="459.9" y="348.4829">-orgRole</text><text fill="#000000" font-family="sans-serif" font-size="7.7" lengthAdjust="spacing" textLength="19.6" x="459.9" y="358.168">-email</text><text fill="#000000" font-family="sans-serif" font-size="7.7" lengthAdjust="spacing" textLength="35" x="459.9" y="367.8532">-SOCcode</text><!--MD5=[da547346deef918ea16944ba046651ef]
class Administrator--><rect codeLine="148" fill="#FEFECE" filter="url(#f1frzzmmcovj40)" height="28" id="Administrator" style="stroke:#A80036;stroke-width:1.0499999999999998;" width="73.5" x="576.8" y="533.099"/><ellipse cx="587.3" cy="544.299" fill="#ADD1B2" rx="7.7" ry="7.7" style="stroke:#A80036;stroke-width:0.6999999999999998;"/><path d="M588.7,541.849 Q588.8422,541.499 589.0062,541.324 Q589.1703,541.149 589.3562,541.149 Q589.6844,541.149 589.8922,541.3459 Q590.1,541.5427 590.1,542.0021 L590.1,543.0959 Q590.1,543.5552 589.9031,543.7521 Q589.7062,543.949 589.4,543.949 Q589.1266,543.949 588.9516,543.8287 Q588.7766,543.7084 588.7,543.3912 Q588.6672,543.1724 588.5469,543.0521 Q588.3281,542.8224 587.9344,542.6912 Q587.5406,542.549 587.1469,542.549 Q586.6547,542.549 586.2391,542.7459 Q585.8344,542.9427 585.5172,543.3802 Q585.2,543.8177 585.2,544.4193 L585.2,545.0646 Q585.2,545.7865 585.7906,546.2677 Q586.3812,546.749 587.4312,546.749 Q588.0547,546.749 588.4922,546.6068 Q588.7437,546.5302 589.0281,546.2787 Q589.2141,546.1365 589.3125,546.0927 Q589.4109,546.049 589.5312,546.049 Q589.7609,546.049 589.925,546.2349 Q590.1,546.4099 590.1,546.6615 Q590.1,546.9021 589.8594,547.1865 Q589.5094,547.6021 588.9516,547.8318 Q588.2187,548.149 587.3219,548.149 Q586.2719,548.149 585.4297,547.7334 Q584.7516,547.4052 584.2703,546.6943 Q583.8,545.9834 583.8,545.1412 L583.8,544.3756 Q583.8,543.5006 584.2156,542.7349 Q584.6422,541.9693 585.375,541.5646 Q586.1187,541.149 586.95,541.149 Q587.4531,541.149 587.8906,541.324 Q588.3281,541.499 588.7,541.849 Z " fill="#000000"/><text fill="#000000" font-family="sans-serif" font-size="8.4" lengthAdjust="spacing" textLength="51.1" x="597.1" y="547.7361">Administrator</text><line style="stroke:#A80036;stroke-width:1.0499999999999998;" x1="577.5" x2="649.6" y1="555.499" y2="555.499"/><!--MD5=[7d96fd15f3014691d2fcaf89c5791e2a]
class SpecialistDoctor--><rect codeLine="151" fill="#FEFECE" filter="url(#f1frzzmmcovj40)" height="37.6852" id="SpecialistDoctor" style="stroke:#A80036;stroke-width:1.0499999999999998;" width="85.4" x="1766.1" y="462.399"/><ellipse cx="1776.6" cy="473.599" fill="#ADD1B2" rx="7.7" ry="7.7" style="stroke:#A80036;stroke-width:0.6999999999999998;"/><path d="M1778,471.149 Q1778.1422,470.799 1778.3062,470.624 Q1778.4703,470.449 1778.6562,470.449 Q1778.9844,470.449 1779.1922,470.6459 Q1779.4,470.8427 1779.4,471.3021 L1779.4,472.3959 Q1779.4,472.8552 1779.2031,473.0521 Q1779.0062,473.249 1778.7,473.249 Q1778.4266,473.249 1778.2516,473.1287 Q1778.0766,473.0084 1778,472.6912 Q1777.9672,472.4724 1777.8469,472.3521 Q1777.6281,472.1224 1777.2344,471.9912 Q1776.8406,471.849 1776.4469,471.849 Q1775.9547,471.849 1775.5391,472.0459 Q1775.1344,472.2427 1774.8172,472.6802 Q1774.5,473.1177 1774.5,473.7193 L1774.5,474.3646 Q1774.5,475.0865 1775.0906,475.5677 Q1775.6812,476.049 1776.7312,476.049 Q1777.3547,476.049 1777.7922,475.9068 Q1778.0437,475.8302 1778.3281,475.5787 Q1778.5141,475.4365 1778.6125,475.3927 Q1778.7109,475.349 1778.8312,475.349 Q1779.0609,475.349 1779.225,475.5349 Q1779.4,475.7099 1779.4,475.9615 Q1779.4,476.2021 1779.1594,476.4865 Q1778.8094,476.9021 1778.2516,477.1318 Q1777.5187,477.449 1776.6219,477.449 Q1775.5719,477.449 1774.7297,477.0334 Q1774.0516,476.7052 1773.5703,475.9943 Q1773.1,475.2834 1773.1,474.4412 L1773.1,473.6756 Q1773.1,472.8006 1773.5156,472.0349 Q1773.9422,471.2693 1774.675,470.8646 Q1775.4187,470.449 1776.25,470.449 Q1776.7531,470.449 1777.1906,470.624 Q1777.6281,470.799 1778,471.149 Z " fill="#000000"/><text fill="#000000" font-family="sans-serif" font-size="8.4" lengthAdjust="spacing" textLength="63" x="1786.4" y="477.0361">SpecialistDoctor</text><line style="stroke:#A80036;stroke-width:1.0499999999999998;" x1="1766.8" x2="1850.8" y1="484.799" y2="484.799"/><text fill="#000000" font-family="sans-serif" font-size="7.7" lengthAdjust="spacing" textLength="42.7" x="1770.3" y="495.5923">-doctorIndex</text><!--MD5=[012ee2a8bf3ae2b319009b06f951c2e5]
class ClinicalChemistryTechnologist--><rect codeLine="155" fill="#FEFECE" filter="url(#f1frzzmmcovj40)" height="28" id="ClinicalChemistryTechnologist" style="stroke:#A80036;stroke-width:1.0499999999999998;" width="140" x="2130.1" y="218.099"/><ellipse cx="2140.6" cy="229.299" fill="#ADD1B2" rx="7.7" ry="7.7" style="stroke:#A80036;stroke-width:0.6999999999999998;"/><path d="M2142,226.849 Q2142.1422,226.499 2142.3062,226.324 Q2142.4703,226.149 2142.6562,226.149 Q2142.9844,226.149 2143.1922,226.3459 Q2143.4,226.5427 2143.4,227.0021 L2143.4,228.0959 Q2143.4,228.5552 2143.2031,228.7521 Q2143.0062,228.949 2142.7,228.949 Q2142.4266,228.949 2142.2516,228.8287 Q2142.0766,228.7084 2142,228.3912 Q2141.9672,228.1724 2141.8469,228.0521 Q2141.6281,227.8224 2141.2344,227.6912 Q2140.8406,227.549 2140.4469,227.549 Q2139.9547,227.549 2139.5391,227.7459 Q2139.1344,227.9427 2138.8172,228.3802 Q2138.5,228.8177 2138.5,229.4193 L2138.5,230.0646 Q2138.5,230.7865 2139.0906,231.2677 Q2139.6812,231.749 2140.7312,231.749 Q2141.3547,231.749 2141.7922,231.6068 Q2142.0437,231.5302 2142.3281,231.2787 Q2142.5141,231.1365 2142.6125,231.0927 Q2142.7109,231.049 2142.8312,231.049 Q2143.0609,231.049 2143.225,231.2349 Q2143.4,231.4099 2143.4,231.6615 Q2143.4,231.9021 2143.1594,232.1865 Q2142.8094,232.6021 2142.2516,232.8318 Q2141.5187,233.149 2140.6219,233.149 Q2139.5719,233.149 2138.7297,232.7334 Q2138.0516,232.4052 2137.5703,231.6943 Q2137.1,230.9834 2137.1,230.1412 L2137.1,229.3756 Q2137.1,228.5006 2137.5156,227.7349 Q2137.9422,226.9693 2138.675,226.5646 Q2139.4187,226.149 2140.25,226.149 Q2140.7531,226.149 2141.1906,226.324 Q2141.6281,226.499 2142,226.849 Z " fill="#000000"/><text fill="#000000" font-family="sans-serif" font-size="8.4" lengthAdjust="spacing" textLength="117.6" x="2150.4" y="232.7361">ClinicalChemistryTechnologist</text><line style="stroke:#A80036;stroke-width:1.0499999999999998;" x1="2130.8" x2="2269.4" y1="240.499" y2="240.499"/><!--MD5=[01931d41e78f8996acd44f6f0fd8de28]
class MedicalLabTechnician--><rect codeLine="158" fill="#FEFECE" filter="url(#f1frzzmmcovj40)" height="28" id="MedicalLabTechnician" style="stroke:#A80036;stroke-width:1.0499999999999998;" width="108.5" x="1352.4" y="46.599"/><ellipse cx="1362.9" cy="57.799" fill="#ADD1B2" rx="7.7" ry="7.7" style="stroke:#A80036;stroke-width:0.6999999999999998;"/><path d="M1364.3,55.349 Q1364.4422,54.999 1364.6062,54.824 Q1364.7703,54.649 1364.9562,54.649 Q1365.2844,54.649 1365.4922,54.8459 Q1365.7,55.0427 1365.7,55.5021 L1365.7,56.5959 Q1365.7,57.0552 1365.5031,57.2521 Q1365.3062,57.449 1365,57.449 Q1364.7266,57.449 1364.5516,57.3287 Q1364.3766,57.2084 1364.3,56.8912 Q1364.2672,56.6724 1364.1469,56.5521 Q1363.9281,56.3224 1363.5344,56.1912 Q1363.1406,56.049 1362.7469,56.049 Q1362.2547,56.049 1361.8391,56.2459 Q1361.4344,56.4427 1361.1172,56.8802 Q1360.8,57.3177 1360.8,57.9193 L1360.8,58.5646 Q1360.8,59.2865 1361.3906,59.7677 Q1361.9812,60.249 1363.0312,60.249 Q1363.6547,60.249 1364.0922,60.1068 Q1364.3437,60.0302 1364.6281,59.7787 Q1364.8141,59.6365 1364.9125,59.5927 Q1365.0109,59.549 1365.1312,59.549 Q1365.3609,59.549 1365.525,59.7349 Q1365.7,59.9099 1365.7,60.1615 Q1365.7,60.4021 1365.4594,60.6865 Q1365.1094,61.1021 1364.5516,61.3318 Q1363.8187,61.649 1362.9219,61.649 Q1361.8719,61.649 1361.0297,61.2334 Q1360.3516,60.9052 1359.8703,60.1943 Q1359.4,59.4834 1359.4,58.6412 L1359.4,57.8756 Q1359.4,57.0006 1359.8156,56.2349 Q1360.2422,55.4693 1360.975,55.0646 Q1361.7187,54.649 1362.55,54.649 Q1363.0531,54.649 1363.4906,54.824 Q1363.9281,54.999 1364.3,55.349 Z " fill="#000000"/><text fill="#000000" font-family="sans-serif" font-size="8.4" lengthAdjust="spacing" textLength="86.1" x="1372.7" y="61.2361">MedicalLabTechnician</text><line style="stroke:#A80036;stroke-width:1.0499999999999998;" x1="1353.1" x2="1460.2" y1="68.999" y2="68.999"/><!--MD5=[03960189e81aa2c066c762ffabbee709]
class Receptionist--><rect codeLine="161" fill="#FEFECE" filter="url(#f1frzzmmcovj40)" height="28" id="Receptionist" style="stroke:#A80036;stroke-width:1.0499999999999998;" width="70.7" x="2497.6" y="409.899"/><ellipse cx="2508.1" cy="421.099" fill="#ADD1B2" rx="7.7" ry="7.7" style="stroke:#A80036;stroke-width:0.6999999999999998;"/><path d="M2509.5,418.649 Q2509.6422,418.299 2509.8062,418.124 Q2509.9703,417.949 2510.1562,417.949 Q2510.4844,417.949 2510.6922,418.1459 Q2510.9,418.3427 2510.9,418.8021 L2510.9,419.8959 Q2510.9,420.3552 2510.7031,420.5521 Q2510.5062,420.749 2510.2,420.749 Q2509.9266,420.749 2509.7516,420.6287 Q2509.5766,420.5084 2509.5,420.1912 Q2509.4672,419.9724 2509.3469,419.8521 Q2509.1281,419.6224 2508.7344,419.4912 Q2508.3406,419.349 2507.9469,419.349 Q2507.4547,419.349 2507.0391,419.5459 Q2506.6344,419.7427 2506.3172,420.1802 Q2506,420.6177 2506,421.2193 L2506,421.8646 Q2506,422.5865 2506.5906,423.0677 Q2507.1812,423.549 2508.2312,423.549 Q2508.8547,423.549 2509.2922,423.4068 Q2509.5437,423.3302 2509.8281,423.0787 Q2510.0141,422.9365 2510.1125,422.8927 Q2510.2109,422.849 2510.3312,422.849 Q2510.5609,422.849 2510.725,423.0349 Q2510.9,423.2099 2510.9,423.4615 Q2510.9,423.7021 2510.6594,423.9865 Q2510.3094,424.4021 2509.7516,424.6318 Q2509.0187,424.949 2508.1219,424.949 Q2507.0719,424.949 2506.2297,424.5334 Q2505.5516,424.2052 2505.0703,423.4943 Q2504.6,422.7834 2504.6,421.9412 L2504.6,421.1756 Q2504.6,420.3006 2505.0156,419.5349 Q2505.4422,418.7693 2506.175,418.3646 Q2506.9187,417.949 2507.75,417.949 Q2508.2531,417.949 2508.6906,418.124 Q2509.1281,418.299 2509.5,418.649 Z " fill="#000000"/><text fill="#000000" font-family="sans-serif" font-size="8.4" lengthAdjust="spacing" textLength="48.3" x="2517.9" y="424.5361">Receptionist</text><line style="stroke:#A80036;stroke-width:1.0499999999999998;" x1="2498.3" x2="2567.6" y1="432.299" y2="432.299"/><!--MD5=[ed6624c6556d5e7b1bd23032162d20b7]
class Client--><rect codeLine="164" fill="#FEFECE" filter="url(#f1frzzmmcovj40)" height="105.4812" id="Client" style="stroke:#A80036;stroke-width:1.0499999999999998;" width="58.1" x="2352" y="522.249"/><ellipse cx="2368.485" cy="533.449" fill="#ADD1B2" rx="7.7" ry="7.7" style="stroke:#A80036;stroke-width:0.6999999999999998;"/><path d="M2369.885,530.999 Q2370.0272,530.649 2370.1912,530.474 Q2370.3553,530.299 2370.5412,530.299 Q2370.8694,530.299 2371.0772,530.4959 Q2371.285,530.6927 2371.285,531.1521 L2371.285,532.2459 Q2371.285,532.7052 2371.0881,532.9021 Q2370.8912,533.099 2370.585,533.099 Q2370.3116,533.099 2370.1366,532.9787 Q2369.9616,532.8584 2369.885,532.5412 Q2369.8522,532.3224 2369.7319,532.2021 Q2369.5131,531.9724 2369.1194,531.8412 Q2368.7256,531.699 2368.3319,531.699 Q2367.8397,531.699 2367.4241,531.8959 Q2367.0194,532.0927 2366.7022,532.5302 Q2366.385,532.9677 2366.385,533.5693 L2366.385,534.2146 Q2366.385,534.9365 2366.9756,535.4177 Q2367.5662,535.899 2368.6162,535.899 Q2369.2397,535.899 2369.6772,535.7568 Q2369.9287,535.6802 2370.2131,535.4287 Q2370.3991,535.2865 2370.4975,535.2427 Q2370.5959,535.199 2370.7162,535.199 Q2370.9459,535.199 2371.11,535.3849 Q2371.285,535.5599 2371.285,535.8115 Q2371.285,536.0521 2371.0444,536.3365 Q2370.6944,536.7521 2370.1366,536.9818 Q2369.4037,537.299 2368.5069,537.299 Q2367.4569,537.299 2366.6147,536.8834 Q2365.9366,536.5552 2365.4553,535.8443 Q2364.985,535.1334 2364.985,534.2912 L2364.985,533.5256 Q2364.985,532.6506 2365.4006,531.8849 Q2365.8272,531.1193 2366.56,530.7146 Q2367.3037,530.299 2368.135,530.299 Q2368.6381,530.299 2369.0756,530.474 Q2369.5131,530.649 2369.885,530.999 Z " fill="#000000"/><text fill="#000000" font-family="sans-serif" font-size="8.4" lengthAdjust="spacing" textLength="22.4" x="2379.615" y="536.8861">Client</text><line style="stroke:#A80036;stroke-width:1.0499999999999998;" x1="2352.7" x2="2409.4" y1="544.649" y2="544.649"/><text fill="#000000" font-family="sans-serif" font-size="7.7" lengthAdjust="spacing" textLength="30.8" x="2356.2" y="555.4423">-citizenID</text><text fill="#000000" font-family="sans-serif" font-size="7.7" lengthAdjust="spacing" textLength="21.7" x="2356.2" y="565.1274">-nhsID</text><text fill="#000000" font-family="sans-serif" font-size="7.7" lengthAdjust="spacing" textLength="32.9" x="2356.2" y="574.8126">-birthDate</text><text fill="#000000" font-family="sans-serif" font-size="7.7" lengthAdjust="spacing" textLength="15.4" x="2356.2" y="584.4977">-sex</text><text fill="#000000" font-family="sans-serif" font-size="7.7" lengthAdjust="spacing" textLength="13.3" x="2356.2" y="594.1829">-TIN</text><text fill="#000000" font-family="sans-serif" font-size="7.7" lengthAdjust="spacing" textLength="49.7" x="2356.2" y="603.868">-phoneNumber</text><text fill="#000000" font-family="sans-serif" font-size="7.7" lengthAdjust="spacing" textLength="19.6" x="2356.2" y="613.5532">-email</text><text fill="#000000" font-family="sans-serif" font-size="7.7" lengthAdjust="spacing" textLength="21" x="2356.2" y="623.2384">-name</text><!--MD5=[a999c1570c205a2156b04a15307bc1ff]
class LabOrder--><rect codeLine="175" fill="#FEFECE" filter="url(#f1frzzmmcovj40)" height="28" id="LabOrder" style="stroke:#A80036;stroke-width:1.0499999999999998;" width="58.8" x="4.9" y="701.099"/><ellipse cx="15.4" cy="712.299" fill="#ADD1B2" rx="7.7" ry="7.7" style="stroke:#A80036;stroke-width:0.6999999999999998;"/><path d="M16.8,709.849 Q16.9422,709.499 17.1062,709.324 Q17.2703,709.149 17.4562,709.149 Q17.7844,709.149 17.9922,709.3459 Q18.2,709.5427 18.2,710.0021 L18.2,711.0959 Q18.2,711.5552 18.0031,711.7521 Q17.8062,711.949 17.5,711.949 Q17.2266,711.949 17.0516,711.8287 Q16.8766,711.7084 16.8,711.3912 Q16.7672,711.1724 16.6469,711.0521 Q16.4281,710.8224 16.0344,710.6912 Q15.6406,710.549 15.2469,710.549 Q14.7547,710.549 14.3391,710.7459 Q13.9344,710.9427 13.6172,711.3802 Q13.3,711.8177 13.3,712.4193 L13.3,713.0646 Q13.3,713.7865 13.8906,714.2677 Q14.4812,714.749 15.5312,714.749 Q16.1547,714.749 16.5922,714.6068 Q16.8437,714.5302 17.1281,714.2787 Q17.3141,714.1365 17.4125,714.0927 Q17.5109,714.049 17.6312,714.049 Q17.8609,714.049 18.025,714.2349 Q18.2,714.4099 18.2,714.6615 Q18.2,714.9021 17.9594,715.1865 Q17.6094,715.6021 17.0516,715.8318 Q16.3187,716.149 15.4219,716.149 Q14.3719,716.149 13.5297,715.7334 Q12.8516,715.4052 12.3703,714.6943 Q11.9,713.9834 11.9,713.1412 L11.9,712.3756 Q11.9,711.5006 12.3156,710.7349 Q12.7422,709.9693 13.475,709.5646 Q14.2187,709.149 15.05,709.149 Q15.5531,709.149 15.9906,709.324 Q16.4281,709.499 16.8,709.849 Z " fill="#000000"/><text fill="#000000" font-family="sans-serif" font-size="8.4" lengthAdjust="spacing" textLength="36.4" x="25.2" y="715.7361">LabOrder</text><line style="stroke:#A80036;stroke-width:1.0499999999999998;" x1="5.6" x2="63" y1="723.499" y2="723.499"/><!--MD5=[2741598bdf59a7d7e0d5c97658fd3022]
class Result--><rect codeLine="178" fill="#FEFECE" filter="url(#f1frzzmmcovj40)" height="28" id="Result" style="stroke:#A80036;stroke-width:1.0499999999999998;" width="47.6" x="1956.85" y="482.699"/><ellipse cx="1967.35" cy="493.899" fill="#ADD1B2" rx="7.7" ry="7.7" style="stroke:#A80036;stroke-width:0.6999999999999998;"/><path d="M1968.75,491.449 Q1968.8922,491.099 1969.0562,490.924 Q1969.2203,490.749 1969.4062,490.749 Q1969.7344,490.749 1969.9422,490.9459 Q1970.15,491.1427 1970.15,491.6021 L1970.15,492.6959 Q1970.15,493.1552 1969.9531,493.3521 Q1969.7562,493.549 1969.45,493.549 Q1969.1766,493.549 1969.0016,493.4287 Q1968.8266,493.3084 1968.75,492.9912 Q1968.7172,492.7724 1968.5969,492.6521 Q1968.3781,492.4224 1967.9844,492.2912 Q1967.5906,492.149 1967.1969,492.149 Q1966.7047,492.149 1966.2891,492.3459 Q1965.8844,492.5427 1965.5672,492.9802 Q1965.25,493.4177 1965.25,494.0193 L1965.25,494.6646 Q1965.25,495.3865 1965.8406,495.8677 Q1966.4312,496.349 1967.4812,496.349 Q1968.1047,496.349 1968.5422,496.2068 Q1968.7937,496.1302 1969.0781,495.8787 Q1969.2641,495.7365 1969.3625,495.6927 Q1969.4609,495.649 1969.5812,495.649 Q1969.8109,495.649 1969.975,495.8349 Q1970.15,496.0099 1970.15,496.2615 Q1970.15,496.5021 1969.9094,496.7865 Q1969.5594,497.2021 1969.0016,497.4318 Q1968.2687,497.749 1967.3719,497.749 Q1966.3219,497.749 1965.4797,497.3334 Q1964.8016,497.0052 1964.3203,496.2943 Q1963.85,495.5834 1963.85,494.7412 L1963.85,493.9756 Q1963.85,493.1006 1964.2656,492.3349 Q1964.6922,491.5693 1965.425,491.1646 Q1966.1687,490.749 1967,490.749 Q1967.5031,490.749 1967.9406,490.924 Q1968.3781,491.099 1968.75,491.449 Z " fill="#000000"/><text fill="#000000" font-family="sans-serif" font-size="8.4" lengthAdjust="spacing" textLength="25.2" x="1977.15" y="497.3361">Result</text><line style="stroke:#A80036;stroke-width:1.0499999999999998;" x1="1957.55" x2="2003.75" y1="505.099" y2="505.099"/><!--MD5=[f61f25a4c924aea49782a3614f4b4835]
class DiagnosisReport--><rect codeLine="181" fill="#FEFECE" filter="url(#f1frzzmmcovj40)" height="28" id="DiagnosisReport" style="stroke:#A80036;stroke-width:1.0499999999999998;" width="88.2" x="1576.4" y="470.799"/><ellipse cx="1586.9" cy="481.999" fill="#ADD1B2" rx="7.7" ry="7.7" style="stroke:#A80036;stroke-width:0.6999999999999998;"/><path d="M1588.3,479.549 Q1588.4422,479.199 1588.6062,479.024 Q1588.7703,478.849 1588.9562,478.849 Q1589.2844,478.849 1589.4922,479.0459 Q1589.7,479.2427 1589.7,479.7021 L1589.7,480.7959 Q1589.7,481.2552 1589.5031,481.4521 Q1589.3062,481.649 1589,481.649 Q1588.7266,481.649 1588.5516,481.5287 Q1588.3766,481.4084 1588.3,481.0912 Q1588.2672,480.8724 1588.1469,480.7521 Q1587.9281,480.5224 1587.5344,480.3912 Q1587.1406,480.249 1586.7469,480.249 Q1586.2547,480.249 1585.8391,480.4459 Q1585.4344,480.6427 1585.1172,481.0802 Q1584.8,481.5177 1584.8,482.1193 L1584.8,482.7646 Q1584.8,483.4865 1585.3906,483.9677 Q1585.9812,484.449 1587.0312,484.449 Q1587.6547,484.449 1588.0922,484.3068 Q1588.3437,484.2302 1588.6281,483.9787 Q1588.8141,483.8365 1588.9125,483.7927 Q1589.0109,483.749 1589.1312,483.749 Q1589.3609,483.749 1589.525,483.9349 Q1589.7,484.1099 1589.7,484.3615 Q1589.7,484.6021 1589.4594,484.8865 Q1589.1094,485.3021 1588.5516,485.5318 Q1587.8187,485.849 1586.9219,485.849 Q1585.8719,485.849 1585.0297,485.4334 Q1584.3516,485.1052 1583.8703,484.3943 Q1583.4,483.6834 1583.4,482.8412 L1583.4,482.0756 Q1583.4,481.2006 1583.8156,480.4349 Q1584.2422,479.6693 1584.975,479.2646 Q1585.7187,478.849 1586.55,478.849 Q1587.0531,478.849 1587.4906,479.024 Q1587.9281,479.199 1588.3,479.549 Z " fill="#000000"/><text fill="#000000" font-family="sans-serif" font-size="8.4" lengthAdjust="spacing" textLength="65.8" x="1596.7" y="485.4361">DiagnosisReport</text><line style="stroke:#A80036;stroke-width:1.0499999999999998;" x1="1577.1" x2="1663.9" y1="493.199" y2="493.199"/><!--MD5=[74783ec010d186752c4ffd5c6de5633a]
class NHSReport--><rect codeLine="20" fill="#FEFECE" filter="url(#f1frzzmmcovj40)" height="28" id="NHSReport" style="stroke:#A80036;stroke-width:1.0499999999999998;" width="66.5" x="1775.55" y="409.899"/><ellipse cx="1786.05" cy="421.099" fill="#ADD1B2" rx="7.7" ry="7.7" style="stroke:#A80036;stroke-width:0.6999999999999998;"/><path d="M1787.45,418.649 Q1787.5922,418.299 1787.7562,418.124 Q1787.9203,417.949 1788.1062,417.949 Q1788.4344,417.949 1788.6422,418.1459 Q1788.85,418.3427 1788.85,418.8021 L1788.85,419.8959 Q1788.85,420.3552 1788.6531,420.5521 Q1788.4562,420.749 1788.15,420.749 Q1787.8766,420.749 1787.7016,420.6287 Q1787.5266,420.5084 1787.45,420.1912 Q1787.4172,419.9724 1787.2969,419.8521 Q1787.0781,419.6224 1786.6844,419.4912 Q1786.2906,419.349 1785.8969,419.349 Q1785.4047,419.349 1784.9891,419.5459 Q1784.5844,419.7427 1784.2672,420.1802 Q1783.95,420.6177 1783.95,421.2193 L1783.95,421.8646 Q1783.95,422.5865 1784.5406,423.0677 Q1785.1312,423.549 1786.1812,423.549 Q1786.8047,423.549 1787.2422,423.4068 Q1787.4937,423.3302 1787.7781,423.0787 Q1787.9641,422.9365 1788.0625,422.8927 Q1788.1609,422.849 1788.2812,422.849 Q1788.5109,422.849 1788.675,423.0349 Q1788.85,423.2099 1788.85,423.4615 Q1788.85,423.7021 1788.6094,423.9865 Q1788.2594,424.4021 1787.7016,424.6318 Q1786.9687,424.949 1786.0719,424.949 Q1785.0219,424.949 1784.1797,424.5334 Q1783.5016,424.2052 1783.0203,423.4943 Q1782.55,422.7834 1782.55,421.9412 L1782.55,421.1756 Q1782.55,420.3006 1782.9656,419.5349 Q1783.3922,418.7693 1784.125,418.3646 Q1784.8687,417.949 1785.7,417.949 Q1786.2031,417.949 1786.6406,418.124 Q1787.0781,418.299 1787.45,418.649 Z " fill="#000000"/><text fill="#000000" font-family="sans-serif" font-size="8.4" lengthAdjust="spacing" textLength="44.1" x="1795.85" y="424.5361">NHSReport</text><line style="stroke:#A80036;stroke-width:1.0499999999999998;" x1="1776.25" x2="1841.35" y1="432.299" y2="432.299"/><!--MD5=[36afb6bbd95a8ac778c4537c55a683d5]
class ParameterCategory--><rect codeLine="184" fill="#FEFECE" filter="url(#f1frzzmmcovj40)" height="57.0555" id="ParameterCategory" style="stroke:#A80036;stroke-width:1.0499999999999998;" width="97.3" x="763" y="509.299"/><ellipse cx="773.5" cy="520.499" fill="#ADD1B2" rx="7.7" ry="7.7" style="stroke:#A80036;stroke-width:0.6999999999999998;"/><path d="M774.9,518.049 Q775.0422,517.699 775.2062,517.524 Q775.3703,517.349 775.5562,517.349 Q775.8844,517.349 776.0922,517.5459 Q776.3,517.7427 776.3,518.2021 L776.3,519.2959 Q776.3,519.7552 776.1031,519.9521 Q775.9062,520.149 775.6,520.149 Q775.3266,520.149 775.1516,520.0287 Q774.9766,519.9084 774.9,519.5912 Q774.8672,519.3724 774.7469,519.2521 Q774.5281,519.0224 774.1344,518.8912 Q773.7406,518.749 773.3469,518.749 Q772.8547,518.749 772.4391,518.9459 Q772.0344,519.1427 771.7172,519.5802 Q771.4,520.0177 771.4,520.6193 L771.4,521.2646 Q771.4,521.9865 771.9906,522.4677 Q772.5812,522.949 773.6312,522.949 Q774.2547,522.949 774.6922,522.8068 Q774.9437,522.7302 775.2281,522.4787 Q775.4141,522.3365 775.5125,522.2927 Q775.6109,522.249 775.7312,522.249 Q775.9609,522.249 776.125,522.4349 Q776.3,522.6099 776.3,522.8615 Q776.3,523.1021 776.0594,523.3865 Q775.7094,523.8021 775.1516,524.0318 Q774.4187,524.349 773.5219,524.349 Q772.4719,524.349 771.6297,523.9334 Q770.9516,523.6052 770.4703,522.8943 Q770,522.1834 770,521.3412 L770,520.5756 Q770,519.7006 770.4156,518.9349 Q770.8422,518.1693 771.575,517.7646 Q772.3187,517.349 773.15,517.349 Q773.6531,517.349 774.0906,517.524 Q774.5281,517.699 774.9,518.049 Z " fill="#000000"/><text fill="#000000" font-family="sans-serif" font-size="8.4" lengthAdjust="spacing" textLength="74.9" x="783.3" y="523.9361">ParameterCategory</text><line style="stroke:#A80036;stroke-width:1.0499999999999998;" x1="763.7" x2="859.6" y1="531.699" y2="531.699"/><text fill="#000000" font-family="sans-serif" font-size="7.7" lengthAdjust="spacing" textLength="19.6" x="767.2" y="542.4923">-code</text><text fill="#000000" font-family="sans-serif" font-size="7.7" lengthAdjust="spacing" textLength="39.9" x="767.2" y="552.1774">-description</text><text fill="#000000" font-family="sans-serif" font-size="7.7" lengthAdjust="spacing" textLength="21.7" x="767.2" y="561.8626">-nhsID</text><!--MD5=[1f6362a5c8f21d8d6a0fce68f3a92a4e]
class Parameter--><rect codeLine="190" fill="#FEFECE" filter="url(#f1frzzmmcovj40)" height="57.0555" id="Parameter" style="stroke:#A80036;stroke-width:1.0499999999999998;" width="63" x="996.45" y="508.599"/><ellipse cx="1006.95" cy="519.799" fill="#ADD1B2" rx="7.7" ry="7.7" style="stroke:#A80036;stroke-width:0.6999999999999998;"/><path d="M1008.35,517.349 Q1008.4922,516.999 1008.6562,516.824 Q1008.8203,516.649 1009.0062,516.649 Q1009.3344,516.649 1009.5422,516.8459 Q1009.75,517.0427 1009.75,517.5021 L1009.75,518.5959 Q1009.75,519.0552 1009.5531,519.2521 Q1009.3562,519.449 1009.05,519.449 Q1008.7766,519.449 1008.6016,519.3287 Q1008.4266,519.2084 1008.35,518.8912 Q1008.3172,518.6724 1008.1969,518.5521 Q1007.9781,518.3224 1007.5844,518.1912 Q1007.1906,518.049 1006.7969,518.049 Q1006.3047,518.049 1005.8891,518.2459 Q1005.4844,518.4427 1005.1672,518.8802 Q1004.85,519.3177 1004.85,519.9193 L1004.85,520.5646 Q1004.85,521.2865 1005.4406,521.7677 Q1006.0312,522.249 1007.0812,522.249 Q1007.7047,522.249 1008.1422,522.1068 Q1008.3937,522.0302 1008.6781,521.7787 Q1008.8641,521.6365 1008.9625,521.5927 Q1009.0609,521.549 1009.1812,521.549 Q1009.4109,521.549 1009.575,521.7349 Q1009.75,521.9099 1009.75,522.1615 Q1009.75,522.4021 1009.5094,522.6865 Q1009.1594,523.1021 1008.6016,523.3318 Q1007.8687,523.649 1006.9719,523.649 Q1005.9219,523.649 1005.0797,523.2334 Q1004.4016,522.9052 1003.9203,522.1943 Q1003.45,521.4834 1003.45,520.6412 L1003.45,519.8756 Q1003.45,519.0006 1003.8656,518.2349 Q1004.2922,517.4693 1005.025,517.0646 Q1005.7687,516.649 1006.6,516.649 Q1007.1031,516.649 1007.5406,516.824 Q1007.9781,516.999 1008.35,517.349 Z " fill="#000000"/><text fill="#000000" font-family="sans-serif" font-size="8.4" lengthAdjust="spacing" textLength="40.6" x="1016.75" y="523.2361">Parameter</text><line style="stroke:#A80036;stroke-width:1.0499999999999998;" x1="997.15" x2="1058.75" y1="530.999" y2="530.999"/><text fill="#000000" font-family="sans-serif" font-size="7.7" lengthAdjust="spacing" textLength="41.3" x="1000.65" y="541.7923">-designation</text><text fill="#000000" font-family="sans-serif" font-size="7.7" lengthAdjust="spacing" textLength="39.9" x="1000.65" y="551.4774">-description</text><text fill="#000000" font-family="sans-serif" font-size="7.7" lengthAdjust="spacing" textLength="19.6" x="1000.65" y="561.1626">-code</text><!--MD5=[aeb3272166074d8737a70b61b1e71682]
class TestType--><rect codeLine="196" fill="#FEFECE" filter="url(#f1frzzmmcovj40)" height="57.0555" id="TestType" style="stroke:#A80036;stroke-width:1.0499999999999998;" width="67.2" x="150.5" y="649.299"/><ellipse cx="165.41" cy="660.499" fill="#ADD1B2" rx="7.7" ry="7.7" style="stroke:#A80036;stroke-width:0.6999999999999998;"/><path d="M166.81,658.049 Q166.9522,657.699 167.1162,657.524 Q167.2803,657.349 167.4662,657.349 Q167.7944,657.349 168.0022,657.5459 Q168.21,657.7427 168.21,658.2021 L168.21,659.2959 Q168.21,659.7552 168.0131,659.9521 Q167.8162,660.149 167.51,660.149 Q167.2366,660.149 167.0616,660.0287 Q166.8866,659.9084 166.81,659.5912 Q166.7772,659.3724 166.6569,659.2521 Q166.4381,659.0224 166.0444,658.8912 Q165.6506,658.749 165.2569,658.749 Q164.7647,658.749 164.3491,658.9459 Q163.9444,659.1427 163.6272,659.5802 Q163.31,660.0177 163.31,660.6193 L163.31,661.2646 Q163.31,661.9865 163.9006,662.4677 Q164.4912,662.949 165.5412,662.949 Q166.1647,662.949 166.6022,662.8068 Q166.8537,662.7302 167.1381,662.4787 Q167.3241,662.3365 167.4225,662.2927 Q167.5209,662.249 167.6412,662.249 Q167.8709,662.249 168.035,662.4349 Q168.21,662.6099 168.21,662.8615 Q168.21,663.1021 167.9694,663.3865 Q167.6194,663.8021 167.0616,664.0318 Q166.3287,664.349 165.4319,664.349 Q164.3819,664.349 163.5397,663.9334 Q162.8616,663.6052 162.3803,662.8943 Q161.91,662.1834 161.91,661.3412 L161.91,660.5756 Q161.91,659.7006 162.3256,658.9349 Q162.7522,658.1693 163.485,657.7646 Q164.2287,657.349 165.06,657.349 Q165.5631,657.349 166.0006,657.524 Q166.4381,657.699 166.81,658.049 Z " fill="#000000"/><text fill="#000000" font-family="sans-serif" font-size="8.4" lengthAdjust="spacing" textLength="35" x="176.19" y="663.9361">TestType</text><line style="stroke:#A80036;stroke-width:1.0499999999999998;" x1="151.2" x2="217" y1="671.699" y2="671.699"/><text fill="#000000" font-family="sans-serif" font-size="7.7" lengthAdjust="spacing" textLength="19.6" x="154.7" y="682.4923">-code</text><text fill="#000000" font-family="sans-serif" font-size="7.7" lengthAdjust="spacing" textLength="39.9" x="154.7" y="692.1774">-description</text><text fill="#000000" font-family="sans-serif" font-size="7.7" lengthAdjust="spacing" textLength="58.8" x="154.7" y="701.8626">-collectingMethod</text><!--MD5=[df38be88ccee13e832d6fafd6288a4ca]
class Test--><rect codeLine="202" fill="#FEFECE" filter="url(#f1frzzmmcovj40)" height="105.4812" id="Test" style="stroke:#A80036;stroke-width:1.0499999999999998;" width="100.8" x="1356.25" y="484.449"/><ellipse cx="1395.275" cy="495.649" fill="#ADD1B2" rx="7.7" ry="7.7" style="stroke:#A80036;stroke-width:0.6999999999999998;"/><path d="M1396.675,493.199 Q1396.8172,492.849 1396.9812,492.674 Q1397.1453,492.499 1397.3312,492.499 Q1397.6594,492.499 1397.8672,492.6959 Q1398.075,492.8927 1398.075,493.3521 L1398.075,494.4459 Q1398.075,494.9052 1397.8781,495.1021 Q1397.6812,495.299 1397.375,495.299 Q1397.1016,495.299 1396.9266,495.1787 Q1396.7516,495.0584 1396.675,494.7412 Q1396.6422,494.5224 1396.5219,494.4021 Q1396.3031,494.1724 1395.9094,494.0412 Q1395.5156,493.899 1395.1219,493.899 Q1394.6297,493.899 1394.2141,494.0959 Q1393.8094,494.2927 1393.4922,494.7302 Q1393.175,495.1677 1393.175,495.7693 L1393.175,496.4146 Q1393.175,497.1365 1393.7656,497.6177 Q1394.3562,498.099 1395.4062,498.099 Q1396.0297,498.099 1396.4672,497.9568 Q1396.7187,497.8802 1397.0031,497.6287 Q1397.1891,497.4865 1397.2875,497.4427 Q1397.3859,497.399 1397.5062,497.399 Q1397.7359,497.399 1397.9,497.5849 Q1398.075,497.7599 1398.075,498.0115 Q1398.075,498.2521 1397.8344,498.5365 Q1397.4844,498.9521 1396.9266,499.1818 Q1396.1937,499.499 1395.2969,499.499 Q1394.2469,499.499 1393.4047,499.0834 Q1392.7266,498.7552 1392.2453,498.0443 Q1391.775,497.3334 1391.775,496.4912 L1391.775,495.7256 Q1391.775,494.8506 1392.1906,494.0849 Q1392.6172,493.3193 1393.35,492.9146 Q1394.0937,492.499 1394.925,492.499 Q1395.4281,492.499 1395.8656,492.674 Q1396.3031,492.849 1396.675,493.199 Z " fill="#000000"/><text fill="#000000" font-family="sans-serif" font-size="8.4" lengthAdjust="spacing" textLength="16.8" x="1409.625" y="499.0861">Test</text><line style="stroke:#A80036;stroke-width:1.0499999999999998;" x1="1356.95" x2="1456.35" y1="506.849" y2="506.849"/><text fill="#000000" font-family="sans-serif" font-size="7.7" lengthAdjust="spacing" textLength="39.9" x="1360.45" y="517.6423">-description</text><text fill="#000000" font-family="sans-serif" font-size="7.7" lengthAdjust="spacing" textLength="44.8" x="1360.45" y="527.3274">-internalCode</text><text fill="#000000" font-family="sans-serif" font-size="7.7" lengthAdjust="spacing" textLength="32.9" x="1360.45" y="537.0126">-nhsCode</text><text fill="#000000" font-family="sans-serif" font-size="7.7" lengthAdjust="spacing" textLength="58.8" x="1360.45" y="546.6977">-collectingMethod</text><text fill="#000000" font-family="sans-serif" font-size="7.7" lengthAdjust="spacing" textLength="55.3" x="1360.45" y="556.3829">-collectDateTime</text><text fill="#000000" font-family="sans-serif" font-size="7.7" lengthAdjust="spacing" textLength="92.4" x="1360.45" y="566.068">-chemicalAnalysisDateTime</text><text fill="#000000" font-family="sans-serif" font-size="7.7" lengthAdjust="spacing" textLength="65.8" x="1360.45" y="575.7532">-diagnosisDateTime</text><text fill="#000000" font-family="sans-serif" font-size="7.7" lengthAdjust="spacing" textLength="65.1" x="1360.45" y="585.4384">-validationDateTime</text><!--MD5=[76b5e19c9337179d2d7ae334371d68c8]
class Notification--><rect codeLine="25" fill="#FEFECE" filter="url(#f1frzzmmcovj40)" height="28" id="Notification" style="stroke:#A80036;stroke-width:1.0499999999999998;" width="65.1" x="2167.55" y="502.299"/><ellipse cx="2178.05" cy="513.499" fill="#ADD1B2" rx="7.7" ry="7.7" style="stroke:#A80036;stroke-width:0.6999999999999998;"/><path d="M2179.45,511.049 Q2179.5922,510.699 2179.7562,510.524 Q2179.9203,510.349 2180.1062,510.349 Q2180.4344,510.349 2180.6422,510.5459 Q2180.85,510.7427 2180.85,511.2021 L2180.85,512.2959 Q2180.85,512.7552 2180.6531,512.9521 Q2180.4562,513.149 2180.15,513.149 Q2179.8766,513.149 2179.7016,513.0287 Q2179.5266,512.9084 2179.45,512.5912 Q2179.4172,512.3724 2179.2969,512.2521 Q2179.0781,512.0224 2178.6844,511.8912 Q2178.2906,511.749 2177.8969,511.749 Q2177.4047,511.749 2176.9891,511.9459 Q2176.5844,512.1427 2176.2672,512.5802 Q2175.95,513.0177 2175.95,513.6193 L2175.95,514.2646 Q2175.95,514.9865 2176.5406,515.4677 Q2177.1312,515.949 2178.1812,515.949 Q2178.8047,515.949 2179.2422,515.8068 Q2179.4937,515.7302 2179.7781,515.4787 Q2179.9641,515.3365 2180.0625,515.2927 Q2180.1609,515.249 2180.2812,515.249 Q2180.5109,515.249 2180.675,515.4349 Q2180.85,515.6099 2180.85,515.8615 Q2180.85,516.1021 2180.6094,516.3865 Q2180.2594,516.8021 2179.7016,517.0318 Q2178.9687,517.349 2178.0719,517.349 Q2177.0219,517.349 2176.1797,516.9334 Q2175.5016,516.6052 2175.0203,515.8943 Q2174.55,515.1834 2174.55,514.3412 L2174.55,513.5756 Q2174.55,512.7006 2174.9656,511.9349 Q2175.3922,511.1693 2176.125,510.7646 Q2176.8687,510.349 2177.7,510.349 Q2178.2031,510.349 2178.6406,510.524 Q2179.0781,510.699 2179.45,511.049 Z " fill="#000000"/><text fill="#000000" font-family="sans-serif" font-size="8.4" lengthAdjust="spacing" textLength="42.7" x="2187.85" y="516.9361">Notification</text><line style="stroke:#A80036;stroke-width:1.0499999999999998;" x1="2168.25" x2="2231.95" y1="524.699" y2="524.699"/><!--MD5=[0a105ea8d9af02dadec02d3e239f1d60]
class NHS--><rect codeLine="26" fill="#FEFECE" filter="url(#f1frzzmmcovj40)" height="28" id="NHS" style="stroke:#A80036;stroke-width:1.0499999999999998;" width="40.6" x="1960.35" y="421.799"/><ellipse cx="1970.85" cy="432.999" fill="#ADD1B2" rx="7.7" ry="7.7" style="stroke:#A80036;stroke-width:0.6999999999999998;"/><path d="M1972.25,430.549 Q1972.3922,430.199 1972.5562,430.024 Q1972.7203,429.849 1972.9062,429.849 Q1973.2344,429.849 1973.4422,430.0459 Q1973.65,430.2427 1973.65,430.7021 L1973.65,431.7959 Q1973.65,432.2552 1973.4531,432.4521 Q1973.2562,432.649 1972.95,432.649 Q1972.6766,432.649 1972.5016,432.5287 Q1972.3266,432.4084 1972.25,432.0912 Q1972.2172,431.8724 1972.0969,431.7521 Q1971.8781,431.5224 1971.4844,431.3912 Q1971.0906,431.249 1970.6969,431.249 Q1970.2047,431.249 1969.7891,431.4459 Q1969.3844,431.6427 1969.0672,432.0802 Q1968.75,432.5177 1968.75,433.1193 L1968.75,433.7646 Q1968.75,434.4865 1969.3406,434.9677 Q1969.9312,435.449 1970.9812,435.449 Q1971.6047,435.449 1972.0422,435.3068 Q1972.2937,435.2302 1972.5781,434.9787 Q1972.7641,434.8365 1972.8625,434.7927 Q1972.9609,434.749 1973.0812,434.749 Q1973.3109,434.749 1973.475,434.9349 Q1973.65,435.1099 1973.65,435.3615 Q1973.65,435.6021 1973.4094,435.8865 Q1973.0594,436.3021 1972.5016,436.5318 Q1971.7687,436.849 1970.8719,436.849 Q1969.8219,436.849 1968.9797,436.4334 Q1968.3016,436.1052 1967.8203,435.3943 Q1967.35,434.6834 1967.35,433.8412 L1967.35,433.0756 Q1967.35,432.2006 1967.7656,431.4349 Q1968.1922,430.6693 1968.925,430.2646 Q1969.6687,429.849 1970.5,429.849 Q1971.0031,429.849 1971.4406,430.024 Q1971.8781,430.199 1972.25,430.549 Z " fill="#000000"/><text fill="#000000" font-family="sans-serif" font-size="8.4" lengthAdjust="spacing" textLength="18.2" x="1980.65" y="436.4361">NHS</text><line style="stroke:#A80036;stroke-width:1.0499999999999998;" x1="1961.05" x2="2000.25" y1="444.199" y2="444.199"/><!--MD5=[9681492165142af2a4a3a169d90ee8d4]
class Sample--><rect codeLine="213" fill="#FEFECE" filter="url(#f1frzzmmcovj40)" height="37.6852" id="Sample" style="stroke:#A80036;stroke-width:1.0499999999999998;" width="52.5" x="1192.8" y="248.199"/><ellipse cx="1203.3" cy="259.399" fill="#ADD1B2" rx="7.7" ry="7.7" style="stroke:#A80036;stroke-width:0.6999999999999998;"/><path d="M1204.7,256.949 Q1204.8422,256.599 1205.0062,256.424 Q1205.1703,256.249 1205.3562,256.249 Q1205.6844,256.249 1205.8922,256.4459 Q1206.1,256.6427 1206.1,257.1021 L1206.1,258.1959 Q1206.1,258.6552 1205.9031,258.8521 Q1205.7062,259.049 1205.4,259.049 Q1205.1266,259.049 1204.9516,258.9287 Q1204.7766,258.8084 1204.7,258.4912 Q1204.6672,258.2724 1204.5469,258.1521 Q1204.3281,257.9224 1203.9344,257.7912 Q1203.5406,257.649 1203.1469,257.649 Q1202.6547,257.649 1202.2391,257.8459 Q1201.8344,258.0427 1201.5172,258.4802 Q1201.2,258.9177 1201.2,259.5193 L1201.2,260.1646 Q1201.2,260.8865 1201.7906,261.3677 Q1202.3812,261.849 1203.4312,261.849 Q1204.0547,261.849 1204.4922,261.7068 Q1204.7437,261.6302 1205.0281,261.3787 Q1205.2141,261.2365 1205.3125,261.1927 Q1205.4109,261.149 1205.5312,261.149 Q1205.7609,261.149 1205.925,261.3349 Q1206.1,261.5099 1206.1,261.7615 Q1206.1,262.0021 1205.8594,262.2865 Q1205.5094,262.7021 1204.9516,262.9318 Q1204.2187,263.249 1203.3219,263.249 Q1202.2719,263.249 1201.4297,262.8334 Q1200.7516,262.5052 1200.2703,261.7943 Q1199.8,261.0834 1199.8,260.2412 L1199.8,259.4756 Q1199.8,258.6006 1200.2156,257.8349 Q1200.6422,257.0693 1201.375,256.6646 Q1202.1187,256.249 1202.95,256.249 Q1203.4531,256.249 1203.8906,256.424 Q1204.3281,256.599 1204.7,256.949 Z " fill="#000000"/><text fill="#000000" font-family="sans-serif" font-size="8.4" lengthAdjust="spacing" textLength="30.1" x="1213.1" y="262.8361">Sample</text><line style="stroke:#A80036;stroke-width:1.0499999999999998;" x1="1193.5" x2="1244.6" y1="270.599" y2="270.599"/><text fill="#000000" font-family="sans-serif" font-size="7.7" lengthAdjust="spacing" textLength="30.8" x="1197" y="281.3923">-barcode</text><!--MD5=[12d76240d3c3c66074d4ec2ea8bf469c]
link Company to Parameter--><path codeLine="29" d="M367.031,514.78 C446.586,503.72 673.267,476.651 860.3,497.399 C908.579,502.754 963.06,517.468 996.275,527.45 " fill="none" id="Company-Parameter" style="stroke:#A80036;stroke-width:0.6999999999999998;"/><polygon fill="#000000" points="573.9993,483.5925,567.7104,481.4082,567.6276,485.5219,573.9993,483.5925" style="stroke:#000000;stroke-width:0.6999999999999998;"/><text fill="#000000" font-family="sans-serif" font-size="9.1" lengthAdjust="spacing" textLength="82.6" x="576.8" y="487.2456">capable of analysing</text><text fill="#000000" font-family="sans-serif" font-size="9.1" lengthAdjust="spacing" textLength="4.9" x="372.4024" y="524.4686">1</text><text fill="#000000" font-family="sans-serif" font-size="9.1" lengthAdjust="spacing" textLength="3.5" x="987.4479" y="536.2665">*</text><!--MD5=[09366576ee87d48d594df10cacc83f45]
link Company to Employee--><path codeLine="31" d="M352.184,500.087 C376.061,468.622 424.277,405.09 455.7,363.699 " fill="none" id="Company-Employee" style="stroke:#A80036;stroke-width:0.6999999999999998;"/><polygon fill="#000000" points="389.184,389.01,394.6506,385.2103,391.3732,382.7228,389.184,389.01" style="stroke:#000000;stroke-width:0.6999999999999998;"/><text fill="#000000" font-family="sans-serif" font-size="9.1" lengthAdjust="spacing" textLength="36.4" x="397.6" y="389.9456">works for</text><text fill="#000000" font-family="sans-serif" font-size="9.1" lengthAdjust="spacing" textLength="4.9" x="350.2172" y="492.6838">1</text><text fill="#000000" font-family="sans-serif" font-size="9.1" lengthAdjust="spacing" textLength="3.5" x="446.6656" y="380.8757">*</text><!--MD5=[f7fb1bbd8b4f4021e9754ae6fe2871a0]
reverse link Employee to Administrator--><path codeLine="33" d="M499.513,386.169 C510.167,426.083 528.703,477.302 559.3,514.199 C565.572,521.759 574.049,528.066 582.407,533.071 " fill="none" id="Employee-backto-Administrator" style="stroke:#A80036;stroke-width:0.6999999999999998;"/><polygon fill="none" points="494.76,387.338,496.069,372.561,504.259,384.93,494.76,387.338" style="stroke:#A80036;stroke-width:0.6999999999999998;"/><text fill="#000000" font-family="sans-serif" font-size="9.1" lengthAdjust="spacing" textLength="3.5" x="493.4114" y="387.5595">*</text><text fill="#000000" font-family="sans-serif" font-size="9.1" lengthAdjust="spacing" textLength="4.9" x="567.6391" y="525.588">1</text><!--MD5=[4c7c52c4bf7e982cdae6fb6daeda4b43]
reverse link Employee to ClinicalChemistryTechnologist--><path codeLine="35" d="M528.332,294.112 C538.216,287.532 548.919,280.931 559.3,275.499 C754.551,173.369 806.897,111.699 1027.25,111.699 C1027.25,111.699 1027.25,111.699 1904.7,111.699 C2016.063,111.699 2134.699,186.291 2180.157,218.05 " fill="none" id="Employee-backto-ClinicalChemistryTechnologist" style="stroke:#A80036;stroke-width:0.6999999999999998;"/><polygon fill="none" points="531.069,298.179,516.747,302.05,525.532,290.094,531.069,298.179" style="stroke:#A80036;stroke-width:0.6999999999999998;"/><text fill="#000000" font-family="sans-serif" font-size="9.1" lengthAdjust="spacing" textLength="3.5" x="522.1045" y="308.735">*</text><text fill="#000000" font-family="sans-serif" font-size="9.1" lengthAdjust="spacing" textLength="3.5" x="2170.2847" y="210.5608">*</text><!--MD5=[bfff716514ca687b645fe473c6e098a4]
reverse link Employee to Receptionist--><path codeLine="37" d="M530.411,339.094 C554.442,345.891 584.976,352.499 612.85,352.499 C612.85,352.499 612.85,352.499 919.8,352.499 C1092.805,352.499 1134.945,323.099 1307.95,323.099 C1307.95,323.099 1307.95,323.099 2381.75,323.099 C2443.385,323.099 2498.86,382.186 2521.484,409.885 " fill="none" id="Employee-backto-Receptionist" style="stroke:#A80036;stroke-width:0.6999999999999998;"/><polygon fill="none" points="528.745,343.707,516.733,335.006,531.552,334.32,528.745,343.707" style="stroke:#A80036;stroke-width:0.6999999999999998;"/><text fill="#000000" font-family="sans-serif" font-size="9.1" lengthAdjust="spacing" textLength="3.5" x="522.2902" y="347.2511">*</text><text fill="#000000" font-family="sans-serif" font-size="9.1" lengthAdjust="spacing" textLength="14" x="2502.0596" y="402.4061">1..*</text><!--MD5=[8c76900db13228c02bafda6909b4bb57]
reverse link Employee to MedicalLabTechnician--><path codeLine="39" d="M497.126,262.654 C505.988,216.839 520.107,159.621 537.6,143.199 C600.677,83.972 831.873,61.999 918.4,61.999 C918.4,61.999 918.4,61.999 1219.75,61.999 C1264.445,61.999 1315.167,61.593 1352.372,61.215 " fill="none" id="Employee-backto-MedicalLabTechnician" style="stroke:#A80036;stroke-width:0.6999999999999998;"/><polygon fill="none" points="501.935,263.585,494.543,276.451,492.303,261.786,501.935,263.585" style="stroke:#A80036;stroke-width:0.6999999999999998;"/><text fill="#000000" font-family="sans-serif" font-size="9.1" lengthAdjust="spacing" textLength="3.5" x="491.7696" y="268.849">*</text><text fill="#000000" font-family="sans-serif" font-size="9.1" lengthAdjust="spacing" textLength="3.5" x="1343.3567" y="71.2856">*</text><!--MD5=[7dae17bb55c59b06af656d7c83a51371]
reverse link Employee to LaboratoryCoordinator--><path codeLine="41" d="M530.607,316.477 C539.854,314.783 549.717,312.977 559.279,311.22 " fill="none" id="Employee-backto-LaboratoryCoordinator" style="stroke:#A80036;stroke-width:0.6999999999999998;"/><polygon fill="none" points="531.363,321.321,516.712,319.025,529.599,311.682,531.363,321.321" style="stroke:#A80036;stroke-width:0.6999999999999998;"/><text fill="#000000" font-family="sans-serif" font-size="9.1" lengthAdjust="spacing" textLength="3.5" x="522.2656" y="328.5233">*</text><text fill="#000000" font-family="sans-serif" font-size="9.1" lengthAdjust="spacing" textLength="14" x="539.6306" y="322.0995">1..*</text><!--MD5=[c3a86c626b5b742f72786125539e9227]
link ClinicalChemistryTechnologist to ChemicalLaboratory--><path codeLine="43" d="M2130.086,221.998 C2087.316,216.622 2031.267,211.099 1981.35,211.099 C1218.35,211.099 1218.35,211.099 1218.35,211.099 C1170.47,211.099 1116.199,217.791 1078.014,223.615 " fill="none" id="ClinicalChemistryTechnologist-ChemicalLaboratory" style="stroke:#A80036;stroke-width:0.6999999999999998;"/><polygon fill="#000000" points="1598.1,204.9274,1604.4347,206.9749,1604.4284,202.8604,1598.1,204.9274" style="stroke:#000000;stroke-width:0.6999999999999998;"/><text fill="#000000" font-family="sans-serif" font-size="9.1" lengthAdjust="spacing" textLength="34.3" x="1607.9" y="208.6456">works at</text><text fill="#000000" font-family="sans-serif" font-size="9.1" lengthAdjust="spacing" textLength="3.5" x="2121.0916" y="231.1094">*</text><text fill="#000000" font-family="sans-serif" font-size="9.1" lengthAdjust="spacing" textLength="4.9" x="1083.7577" y="232.7464">1</text><!--MD5=[738f0445d4a0804ca0738b44323ae22b]
link MedicalLabTechnician to ClinicalAnalysisLaboratory--><path codeLine="45" d="M1461.047,60.872 C1503.999,61.068 1565.767,61.299 1619.8,61.299 C1619.8,61.299 1619.8,61.299 2533.65,61.299 C2677.626,61.299 2708.16,292.117 2714.621,385.441 " fill="none" id="MedicalLabTechnician-ClinicalAnalysisLaboratory" style="stroke:#A80036;stroke-width:0.6999999999999998;"/><polygon fill="#000000" points="2051.9383,55.9993,2046.3245,52.4207,2045.2932,56.4039,2051.9383,55.9993" style="stroke:#000000;stroke-width:0.6999999999999998;"/><text fill="#000000" font-family="sans-serif" font-size="9.1" lengthAdjust="spacing" textLength="34.3" x="2054.85" y="58.8456">works at</text><text fill="#000000" font-family="sans-serif" font-size="9.1" lengthAdjust="spacing" textLength="14" x="1466.5152" y="70.8526">1..*</text><text fill="#000000" font-family="sans-serif" font-size="9.1" lengthAdjust="spacing" textLength="3.5" x="2710.5856" y="378.0504">*</text><!--MD5=[6cd0a3af2322bf46f6c633408da71c74]
link Receptionist to ClinicalAnalysisLaboratory--><path codeLine="47" d="M2568.447,423.899 C2592.877,423.899 2626.211,423.899 2655.051,423.899 " fill="none" id="Receptionist-ClinicalAnalysisLaboratory" style="stroke:#A80036;stroke-width:0.6999999999999998;"/><polygon fill="#000000" points="2596.3,417.722,2589.9684,415.6648,2589.9684,419.7793,2596.3,417.722" style="stroke:#000000;stroke-width:0.6999999999999998;"/><text fill="#000000" font-family="sans-serif" font-size="9.1" lengthAdjust="spacing" textLength="34.3" x="2599.1" y="421.4456">works at</text><text fill="#000000" font-family="sans-serif" font-size="9.1" lengthAdjust="spacing" textLength="14" x="2573.8919" y="434.0788">1..*</text><text fill="#000000" font-family="sans-serif" font-size="9.1" lengthAdjust="spacing" textLength="3.5" x="2646.0726" y="433.832">*</text><!--MD5=[4d5641458326529fdf5c82259a5ad32d]
link LaboratoryCoordinator to Laboratory--><path codeLine="49" d="M654.052,287.378 C691.215,274.281 745.899,255.017 779.919,243.033 " fill="none" id="LaboratoryCoordinator-Laboratory" style="stroke:#A80036;stroke-width:0.6999999999999998;"/><polygon fill="#000000" points="695.9511,248.559,689.2957,248.7226,690.663,252.6033,695.9511,248.559" style="stroke:#000000;stroke-width:0.6999999999999998;"/><text fill="#000000" font-family="sans-serif" font-size="9.1" lengthAdjust="spacing" textLength="42" x="698.95" y="253.4456">works at a</text><text fill="#000000" font-family="sans-serif" font-size="9.1" lengthAdjust="spacing" textLength="14" x="649.8932" y="279.8971">1..*</text><text fill="#000000" font-family="sans-serif" font-size="9.1" lengthAdjust="spacing" textLength="3.5" x="771.083" y="255.1343">*</text><!--MD5=[de3aa179ee7f21b344f648244b25a961]
link ChemicalLaboratory to Company--><path codeLine="51" d="M984.319,198.646 C895.293,133.651 686.476,4.2 537.6,93.499 C384.818,185.143 347.284,429.863 339.542,500.045 " fill="none" id="ChemicalLaboratory-Company" style="stroke:#A80036;stroke-width:0.6999999999999998;"/><polygon fill="#000000" points="604.4707,55.0399,597.8637,55.8574,599.606,59.5848,604.4707,55.0399" style="stroke:#000000;stroke-width:0.6999999999999998;"/><text fill="#000000" font-family="sans-serif" font-size="9.1" lengthAdjust="spacing" textLength="21" x="607.6" y="60.2456">owns</text><text fill="#000000" font-family="sans-serif" font-size="9.1" lengthAdjust="spacing" textLength="4.9" x="972.6509" y="191.1571">1</text><text fill="#000000" font-family="sans-serif" font-size="9.1" lengthAdjust="spacing" textLength="4.9" x="334.6517" y="492.6321">1</text><!--MD5=[47855ee4dabeea37c5949a17ed9e3a41]
link ChemicalLaboratory to Sample--><path codeLine="53" d="M1078.245,241.248 C1114.911,248.017 1163.358,256.956 1192.618,262.353 " fill="none" id="ChemicalLaboratory-Sample" style="stroke:#A80036;stroke-width:0.6999999999999998;"/><polygon fill="#000000" points="1101.5081,238.5869,1107.3612,241.759,1108.1079,237.7128,1101.5081,238.5869" style="stroke:#000000;stroke-width:0.6999999999999998;"/><text fill="#000000" font-family="sans-serif" font-size="9.1" lengthAdjust="spacing" textLength="37.8" x="1111.25" y="242.9456">is sent to</text><text fill="#000000" font-family="sans-serif" font-size="9.1" lengthAdjust="spacing" textLength="4.9" x="1083.6843" y="252.2159">1</text><text fill="#000000" font-family="sans-serif" font-size="9.1" lengthAdjust="spacing" textLength="3.5" x="1183.7458" y="271.9968">*</text><!--MD5=[fdfe1f7a1d4f9a6f0814f21c5f7b0d38]
link ClinicalAnalysisLaboratory to Company--><path codeLine="55" d="M2714.593,462.287 C2708.069,555.422 2677.409,785.799 2533.65,785.799 C1517.95,785.799 1517.95,785.799 1517.95,785.799 C1458.002,785.799 513.394,612.381 455.7,596.099 C424.508,587.293 414.89,587.293 387.8,569.499 C374.71,560.903 362.292,548.429 353.094,538.048 " fill="none" id="ClinicalAnalysisLaboratory-Company" style="stroke:#A80036;stroke-width:0.6999999999999998;"/><polygon fill="#000000" points="1509.8982,775.3098,1503.5039,773.4567,1503.6359,777.569,1509.8982,775.3098" style="stroke:#000000;stroke-width:0.6999999999999998;"/><text fill="#000000" font-family="sans-serif" font-size="9.1" lengthAdjust="spacing" textLength="21" x="1512.7" y="779.1456">owns</text><text fill="#000000" font-family="sans-serif" font-size="9.1" lengthAdjust="spacing" textLength="3.5" x="2710.5803" y="477.102">*</text><text fill="#000000" font-family="sans-serif" font-size="9.1" lengthAdjust="spacing" textLength="4.9" x="351.1677" y="552.9042">1</text><!--MD5=[38773adfcb560b2ecbe80133f36e08b9]
reverse link Laboratory to ChemicalLaboratory--><path codeLine="57" d="M857.542,232.099 C892.724,232.099 941.507,232.099 977.746,232.099 " fill="none" id="Laboratory-backto-ChemicalLaboratory" style="stroke:#A80036;stroke-width:0.6999999999999998;"/><polygon fill="none" points="857.367,236.999,843.367,232.099,857.367,227.199,857.367,236.999" style="stroke:#A80036;stroke-width:0.6999999999999998;"/><text fill="#000000" font-family="sans-serif" font-size="9.1" lengthAdjust="spacing" textLength="4.9" x="848.8124" y="242.4577">1</text><text fill="#000000" font-family="sans-serif" font-size="9.1" lengthAdjust="spacing" textLength="4.9" x="967.4161" y="242.1234">1</text><!--MD5=[e284e91db30362f23fd6ce34ffcc83e7]
reverse link Laboratory to ClinicalAnalysisLaboratory--><path codeLine="59" d="M856.541,215.565 C916.454,194.67 1027.194,161.399 1124.9,161.399 C1124.9,161.399 1124.9,161.399 1904.7,161.399 C2035.719,161.399 2068.381,153.699 2199.4,153.699 C2199.4,153.699 2199.4,153.699 2533.65,153.699 C2644.215,153.699 2692.403,310.877 2709.049,385.476 " fill="none" id="Laboratory-backto-ClinicalAnalysisLaboratory" style="stroke:#A80036;stroke-width:0.6999999999999998;"/><polygon fill="none" points="858.158,220.192,843.325,220.262,854.875,210.959,858.158,220.192" style="stroke:#A80036;stroke-width:0.6999999999999998;"/><text fill="#000000" font-family="sans-serif" font-size="9.1" lengthAdjust="spacing" textLength="4.9" x="848.7637" y="228.7342">1</text><text fill="#000000" font-family="sans-serif" font-size="9.1" lengthAdjust="spacing" textLength="4.9" x="2702.81" y="378.0898">1</text><!--MD5=[7144ffdeebbe38808f7fb2ce8ac24f7d]
link Administrator to ParameterCategory--><path codeLine="61" d="M650.328,545.433 C681.94,543.97 728.126,541.828 762.867,540.225 " fill="none" id="Administrator-ParameterCategory" style="stroke:#A80036;stroke-width:0.6999999999999998;"/><polygon fill="#000000" points="688.8037,534.7838,695.2236,536.5462,695.0334,532.4361,688.8037,534.7838" style="stroke:#000000;stroke-width:0.6999999999999998;"/><text fill="#000000" font-family="sans-serif" font-size="9.1" lengthAdjust="spacing" textLength="42.7" x="698.6" y="538.3456">created by</text><text fill="#000000" font-family="sans-serif" font-size="9.1" lengthAdjust="spacing" textLength="4.9" x="655.8444" y="555.4501">1</text><text fill="#000000" font-family="sans-serif" font-size="9.1" lengthAdjust="spacing" textLength="3.5" x="753.84" y="550.5599">*</text><!--MD5=[49f9c994ab9013da19f25c37bbd596b3]
link SpecialistDoctor to Result--><path codeLine="63" d="M1851.528,494.662 C1858.472,496.384 1865.64,497.861 1872.5,498.799 C1900.241,502.579 1907.507,499.457 1935.5,498.799 C1942.374,498.638 1949.843,498.33 1956.654,498.008 " fill="none" id="SpecialistDoctor-Result" style="stroke:#A80036;stroke-width:0.6999999999999998;"/><polygon fill="#000000" points="1874.2518,492.5107,1880.5147,494.7683,1880.6456,490.6559,1874.2518,492.5107" style="stroke:#000000;stroke-width:0.6999999999999998;"/><text fill="#000000" font-family="sans-serif" font-size="9.1" lengthAdjust="spacing" textLength="49" x="1884.05" y="496.3456">analyzed by</text><text fill="#000000" font-family="sans-serif" font-size="9.1" lengthAdjust="spacing" textLength="4.9" x="1857.0341" y="506.4417">1</text><text fill="#000000" font-family="sans-serif" font-size="9.1" lengthAdjust="spacing" textLength="4.9" x="1946.2995" y="508.9049">1</text><!--MD5=[98994e1502641fa381021dffe882d56a]
link ClinicalChemistryTechnologist to Sample--><path codeLine="65" d="M2129.995,234.577 C1932.273,241.64 1372.168,261.653 1245.447,266.182 " fill="none" id="ClinicalChemistryTechnologist-Sample" style="stroke:#A80036;stroke-width:0.6999999999999998;"/><polygon fill="#000000" points="1692.5978,241.8971,1686.1968,240.0672,1686.3437,244.1791,1692.5978,241.8971" style="stroke:#000000;stroke-width:0.6999999999999998;"/><text fill="#000000" font-family="sans-serif" font-size="9.1" lengthAdjust="spacing" textLength="49" x="1695.4" y="245.7456">analyzed by</text><text fill="#000000" font-family="sans-serif" font-size="9.1" lengthAdjust="spacing" textLength="3.5" x="2120.9936" y="244.6515">*</text><text fill="#000000" font-family="sans-serif" font-size="9.1" lengthAdjust="spacing" textLength="14" x="1250.9784" y="276.4341">1..*</text><!--MD5=[502b51bc079239060389dab43b7d3470]
link Client to Test--><path codeLine="67" d="M2355.787,628.026 C2349.004,638.176 2340.758,647.822 2331,654.899 C2282.791,689.836 2260.335,686.399 2200.8,686.399 C1903.3,686.399 1903.3,686.399 1903.3,686.399 C1733.823,686.399 1545.033,605.563 1457.26,562.933 " fill="none" id="Client-Test" style="stroke:#A80036;stroke-width:0.6999999999999998;"/><polygon fill="#000000" points="1879.4909,679.7749,1873.3245,677.2656,1873.0272,681.3693,1879.4909,679.7749" style="stroke:#000000;stroke-width:0.6999999999999998;"/><text fill="#000000" font-family="sans-serif" font-size="9.1" lengthAdjust="spacing" textLength="52.5" x="1882.3" y="683.2456">requested by</text><text fill="#000000" font-family="sans-serif" font-size="9.1" lengthAdjust="spacing" textLength="4.9" x="2348.4188" y="642.7058">1</text><text fill="#000000" font-family="sans-serif" font-size="9.1" lengthAdjust="spacing" textLength="3.5" x="1462.6596" y="575.6246">*</text><!--MD5=[7048eb257bae2750d747ca61a113ed73]
link Client to Receptionist--><path codeLine="69" d="M2410.233,546.483 C2442.447,514.122 2493.603,462.728 2518.173,438.046 " fill="none" id="Client-Receptionist" style="stroke:#A80036;stroke-width:0.6999999999999998;"/><polygon fill="#000000" points="2432.1308,477.6026,2438.0556,474.5666,2435.1396,471.6639,2432.1308,477.6026" style="stroke:#000000;stroke-width:0.6999999999999998;"/><text fill="#000000" font-family="sans-serif" font-size="9.1" lengthAdjust="spacing" textLength="35" x="2440.9" y="478.8456">registers</text><text fill="#000000" font-family="sans-serif" font-size="9.1" lengthAdjust="spacing" textLength="3.5" x="2415.7429" y="551.8713">*</text><text fill="#000000" font-family="sans-serif" font-size="9.1" lengthAdjust="spacing" textLength="14" x="2498.3204" y="452.8327">1..*</text><!--MD5=[b097d9d314264888b7dbeddc95343863]
link LabOrder to Client--><path codeLine="71" d="M60.403,729.211 C89.292,743.904 138.299,764.799 183.4,764.799 C183.4,764.799 183.4,764.799 1126.3,764.799 C1476.293,764.799 1553.307,636.699 1903.3,636.699 C1903.3,636.699 1903.3,636.699 2200.8,636.699 C2256.66,636.699 2317.259,609.693 2351.839,591.444 " fill="none" id="LabOrder-Client" style="stroke:#A80036;stroke-width:0.6999999999999998;"/><polygon fill="#000000" points="1105.9937,758.412,1099.5501,756.7384,1099.797,760.8455,1105.9937,758.412" style="stroke:#000000;stroke-width:0.6999999999999998;"/><text fill="#000000" font-family="sans-serif" font-size="9.1" lengthAdjust="spacing" textLength="42.7" x="1108.8" y="762.3456">brought by</text><text fill="#000000" font-family="sans-serif" font-size="9.1" lengthAdjust="spacing" textLength="4.9" x="62.1554" y="744.2362">1</text><text fill="#000000" font-family="sans-serif" font-size="9.1" lengthAdjust="spacing" textLength="3.5" x="2342.8241" y="604.8409">*</text><!--MD5=[727b58dfd932e2fbda2a273f174e2308]
link LabOrder to Receptionist--><path codeLine="73" d="M43.225,729.148 C62.993,760.907 116.55,835.499 183.4,835.499 C183.4,835.499 183.4,835.499 2311.75,835.499 C2496.179,835.499 2526.951,510.44 2531.515,438.067 " fill="none" id="LabOrder-Receptionist" style="stroke:#A80036;stroke-width:0.6999999999999998;"/><polygon fill="#000000" points="1197.3737,829.7287,1203.9014,831.0364,1203.4234,826.9497,1197.3737,829.7287" style="stroke:#000000;stroke-width:0.6999999999999998;"/><text fill="#000000" font-family="sans-serif" font-size="9.1" lengthAdjust="spacing" textLength="32.9" x="1207.15" y="833.0456">receives</text><text fill="#000000" font-family="sans-serif" font-size="9.1" lengthAdjust="spacing" textLength="4.9" x="40.1461" y="744.1555">1</text><text fill="#000000" font-family="sans-serif" font-size="9.1" lengthAdjust="spacing" textLength="14" x="2533.0106" y="452.8593">1..*</text><!--MD5=[84a279e28ad6c3248737114c29c49c27]
link LabOrder to Test--><path codeLine="75" d="M35.469,700.987 C38.213,642.537 56.952,422.499 183.4,422.499 C183.4,422.499 183.4,422.499 716.1,422.499 C958.923,422.499 1243.389,492.569 1356.222,523.222 " fill="none" id="LabOrder-Test" style="stroke:#A80036;stroke-width:0.6999999999999998;"/><polygon fill="#000000" points="581.3813,416.7889,587.9307,417.9832,587.3818,413.9055,581.3813,416.7889" style="stroke:#000000;stroke-width:0.6999999999999998;"/><text fill="#000000" font-family="sans-serif" font-size="9.1" lengthAdjust="spacing" textLength="53.9" x="591.15" y="420.0456">is associated</text><text fill="#000000" font-family="sans-serif" font-size="9.1" lengthAdjust="spacing" textLength="4.9" x="30.1927" y="693.4793">1</text><text fill="#000000" font-family="sans-serif" font-size="9.1" lengthAdjust="spacing" textLength="4.9" x="1345.869" y="531.8184">1</text><!--MD5=[fba3ac294f3c76c431d275cef443fef8]
link LabOrder to TestType--><path codeLine="77" d="M63.791,707.903 C88.571,701.708 124.327,692.769 150.29,686.273 " fill="none" id="LabOrder-TestType" style="stroke:#A80036;stroke-width:0.6999999999999998;"/><polygon fill="#000000" points="91.5955,684.973,84.954,684.5132,85.9521,688.5048,91.5955,684.973" style="stroke:#000000;stroke-width:0.6999999999999998;"/><text fill="#000000" font-family="sans-serif" font-size="9.1" lengthAdjust="spacing" textLength="34.3" x="94.5" y="689.5456">contains</text><text fill="#000000" font-family="sans-serif" font-size="9.1" lengthAdjust="spacing" textLength="4.9" x="69.2809" y="717.0964">1</text><text fill="#000000" font-family="sans-serif" font-size="9.1" lengthAdjust="spacing" textLength="4.9" x="140.0643" y="697.8007">1</text><!--MD5=[8a0bab72ab0281f8a9e78a6f98e5652c]
link Result to ClinicalChemistryTechnologist--><path codeLine="79" d="M1992.921,482.657 C2030.693,436.828 2150.127,291.893 2187.857,246.106 " fill="none" id="Result-ClinicalChemistryTechnologist" style="stroke:#A80036;stroke-width:0.6999999999999998;"/><polygon fill="#000000" points="2045.9741,344.8231,2051.5884,341.2452,2048.4131,338.6285,2045.9741,344.8231" style="stroke:#000000;stroke-width:0.6999999999999998;"/><text fill="#000000" font-family="sans-serif" font-size="9.1" lengthAdjust="spacing" textLength="35" x="2054.5" y="345.8456">registers</text><text fill="#000000" font-family="sans-serif" font-size="9.1" lengthAdjust="spacing" textLength="3.5" x="1992.5115" y="475.1699">*</text><text fill="#000000" font-family="sans-serif" font-size="9.1" lengthAdjust="spacing" textLength="14" x="2168.4449" y="261.1017">1..*</text><!--MD5=[d14b4c18c397fa0293924715644730ec]
link Result to Notification--><path codeLine="81" d="M2004.478,498.778 C2043.608,502.292 2122.939,509.425 2167.382,513.422 " fill="none" id="Result-Notification" style="stroke:#A80036;stroke-width:0.6999999999999998;"/><polygon fill="#000000" points="2032.7859,495.0354,2026.664,492.4195,2026.2956,496.5175,2032.7859,495.0354" style="stroke:#000000;stroke-width:0.6999999999999998;"/><text fill="#000000" font-family="sans-serif" font-size="9.1" lengthAdjust="spacing" textLength="72.8" x="2035.6" y="498.4456">is associated with</text><text fill="#000000" font-family="sans-serif" font-size="9.1" lengthAdjust="spacing" textLength="3.5" x="2010.0732" y="509.9313">*</text><text fill="#000000" font-family="sans-serif" font-size="9.1" lengthAdjust="spacing" textLength="14" x="2148.0449" y="523.251">1..*</text><!--MD5=[e509fed78cd7f855333fe9c80fc7ea15]
link DiagnosisReport to SpecialistDoctor--><path codeLine="83" d="M1664.782,483.98 C1695.309,483.413 1735.874,482.65 1766.058,482.083 " fill="none" id="DiagnosisReport-SpecialistDoctor" style="stroke:#A80036;stroke-width:0.6999999999999998;"/><polygon fill="#000000" points="1692.6006,475.8876,1698.9696,477.8259,1698.8925,473.7121,1692.6006,475.8876" style="stroke:#000000;stroke-width:0.6999999999999998;"/><text fill="#000000" font-family="sans-serif" font-size="9.1" lengthAdjust="spacing" textLength="35" x="1702.4" y="479.5456">registers</text><text fill="#000000" font-family="sans-serif" font-size="9.1" lengthAdjust="spacing" textLength="4.9" x="1670.1854" y="493.9936">1</text><text fill="#000000" font-family="sans-serif" font-size="9.1" lengthAdjust="spacing" textLength="4.9" x="1755.6502" y="492.3296">1</text><!--MD5=[91dc3644f358c08f88b60791b947d3a3]
link DiagnosisReport to Client--><path codeLine="85" d="M1636.845,498.834 C1649.151,508.956 1667.232,521.906 1685.6,528.199 C1931.762,612.57 2255.141,588.217 2351.853,578.326 " fill="none" id="DiagnosisReport-Client" style="stroke:#A80036;stroke-width:0.6999999999999998;"/><polygon fill="#000000" points="1963.4786,576.3088,1957.4131,573.5645,1956.9585,577.6538,1963.4786,576.3088" style="stroke:#000000;stroke-width:0.6999999999999998;"/><text fill="#000000" font-family="sans-serif" font-size="9.1" lengthAdjust="spacing" textLength="37.8" x="1966.3" y="579.6456">is sent to</text><text fill="#000000" font-family="sans-serif" font-size="9.1" lengthAdjust="spacing" textLength="4.9" x="1635.853" y="513.8375">1</text><text fill="#000000" font-family="sans-serif" font-size="9.1" lengthAdjust="spacing" textLength="4.9" x="2341.5137" y="589.3297">1</text><!--MD5=[e83232b12920152899b3d956169a0d16]
link DiagnosisReport to LaboratoryCoordinator--><path codeLine="87" d="M1585.381,470.729 C1531.95,449.47 1425.403,409.402 1331.4,388.199 C1087.331,333.151 788.137,311.185 667.961,304.171 " fill="none" id="DiagnosisReport-LaboratoryCoordinator" style="stroke:#A80036;stroke-width:0.6999999999999998;"/><polygon fill="#000000" points="1109.7937,341.3473,1103.9315,338.1921,1103.1965,342.2404,1109.7937,341.3473" style="stroke:#000000;stroke-width:0.6999999999999998;"/><text fill="#000000" font-family="sans-serif" font-size="9.1" lengthAdjust="spacing" textLength="35" x="1112.65" y="344.4456">validates</text><text fill="#000000" font-family="sans-serif" font-size="9.1" lengthAdjust="spacing" textLength="3.5" x="1571.0507" y="463.2337">*</text><text fill="#000000" font-family="sans-serif" font-size="9.1" lengthAdjust="spacing" textLength="4.9" x="673.3806" y="314.4273">1</text><!--MD5=[b25b37dde2866fd853924cb818679535]
link NHSReport to Result--><path codeLine="89" d="M1842.162,437.85 C1875.706,452.179 1927.072,474.117 1956.696,486.766 " fill="none" id="NHSReport-Result" style="stroke:#A80036;stroke-width:0.6999999999999998;"/><polygon fill="#000000" points="1879.0813,443.6474,1884.096,448.0261,1885.712,444.2423,1879.0813,443.6474" style="stroke:#000000;stroke-width:0.6999999999999998;"/><text fill="#000000" font-family="sans-serif" font-size="9.1" lengthAdjust="spacing" textLength="39.9" x="1888.6" y="448.7456">generates</text><text fill="#000000" font-family="sans-serif" font-size="9.1" lengthAdjust="spacing" textLength="14" x="1847.5856" y="449.9403">1..*</text><text fill="#000000" font-family="sans-serif" font-size="9.1" lengthAdjust="spacing" textLength="4.9" x="1946.3502" y="495.3443">1</text><!--MD5=[5853f8747c18e89b10dd024359cfe8ec]
link NHSReport to NHS--><path codeLine="91" d="M1842.162,426.181 C1877.057,428.617 1931.244,432.397 1960.168,434.42 " fill="none" id="NHSReport-NHS" style="stroke:#A80036;stroke-width:0.6999999999999998;"/><polygon fill="#000000" points="1886.8415,422.1658,1880.6686,419.6726,1880.382,423.7771,1886.8415,422.1658" style="stroke:#000000;stroke-width:0.6999999999999998;"/><text fill="#000000" font-family="sans-serif" font-size="9.1" lengthAdjust="spacing" textLength="37.8" x="1889.65" y="425.6456">is sent to</text><text fill="#000000" font-family="sans-serif" font-size="9.1" lengthAdjust="spacing" textLength="14" x="1847.5856" y="436.7033">1..*</text><text fill="#000000" font-family="sans-serif" font-size="9.1" lengthAdjust="spacing" textLength="4.9" x="1949.965" y="444.8711">1</text><!--MD5=[7a9e3e328fb1db48284e23a673c1e60d]
link ParameterCategory to Parameter--><path codeLine="93" d="M860.307,537.845 C901.873,537.705 960.778,537.516 996.366,537.397 " fill="none" id="ParameterCategory-Parameter" style="stroke:#A80036;stroke-width:0.6999999999999998;"/><polygon fill="#000000" points="881.3,531.1336,887.6383,533.17,887.6248,529.0555,881.3,531.1336" style="stroke:#000000;stroke-width:0.6999999999999998;"/><text fill="#000000" font-family="sans-serif" font-size="9.1" lengthAdjust="spacing" textLength="65.1" x="891.1" y="534.8456">presented under</text><text fill="#000000" font-family="sans-serif" font-size="9.1" lengthAdjust="spacing" textLength="4.9" x="865.8968" y="547.9195">1</text><text fill="#000000" font-family="sans-serif" font-size="9.1" lengthAdjust="spacing" textLength="3.5" x="987.3451" y="547.8362">*</text><!--MD5=[4265453a012991a726928e22789b8a83]
link Parameter to Test--><path codeLine="95" d="M1059.527,537.299 C1124.732,537.299 1276.968,537.299 1356.138,537.299 " fill="none" id="Parameter-Test" style="stroke:#A80036;stroke-width:0.6999999999999998;"/><polygon fill="#000000" points="1173.2,531.122,1179.5316,533.1793,1179.5316,529.0648,1173.2,531.122" style="stroke:#000000;stroke-width:0.6999999999999998;"/><text fill="#000000" font-family="sans-serif" font-size="9.1" lengthAdjust="spacing" textLength="81.2" x="1183" y="534.8456">requests analysis of</text><text fill="#000000" font-family="sans-serif" font-size="9.1" lengthAdjust="spacing" textLength="14" x="1064.9519" y="547.5746">1..*</text><text fill="#000000" font-family="sans-serif" font-size="9.1" lengthAdjust="spacing" textLength="3.5" x="1347.2485" y="547.3471">*</text><!--MD5=[6d9eb9a083ac0654c8b63743033752d3]
link TestType to Company--><path codeLine="97" d="M212.247,649.222 C242.949,617.029 291.83,565.775 318.15,538.181 " fill="none" id="TestType-Company" style="stroke:#A80036;stroke-width:0.6999999999999998;"/><polygon fill="#000000" points="239.7844,570.7548,245.643,567.5928,242.6655,564.7531,239.7844,570.7548" style="stroke:#000000;stroke-width:0.6999999999999998;"/><text fill="#000000" font-family="sans-serif" font-size="9.1" lengthAdjust="spacing" textLength="37.1" x="248.5" y="571.9456">conducts</text><text fill="#000000" font-family="sans-serif" font-size="9.1" lengthAdjust="spacing" textLength="3.5" x="213.284" y="641.6108">*</text><text fill="#000000" font-family="sans-serif" font-size="9.1" lengthAdjust="spacing" textLength="4.9" x="308.5797" y="553.0662">1</text><!--MD5=[c2c6b28b052a3fe86d789b83a09b2815]
link TestType to Test--><path codeLine="99" d="M217.938,690.977 C248.269,701.673 294.637,715.099 336.35,715.099 C336.35,715.099 336.35,715.099 919.8,715.099 C1109.969,715.099 1165.836,691.754 1331.4,598.199 C1339.765,593.474 1348.137,587.797 1356.082,581.833 " fill="none" id="TestType-Test" style="stroke:#A80036;stroke-width:0.6999999999999998;"/><polygon fill="#000000" points="701.766,709.2562,708.265,710.6996,707.8722,706.6039,701.766,709.2562" style="stroke:#000000;stroke-width:0.6999999999999998;"/><text fill="#000000" font-family="sans-serif" font-size="9.1" lengthAdjust="spacing" textLength="16.8" x="711.55" y="712.6456">is of</text><text fill="#000000" font-family="sans-serif" font-size="9.1" lengthAdjust="spacing" textLength="4.9" x="223.2678" y="703.1956">1</text><text fill="#000000" font-family="sans-serif" font-size="9.1" lengthAdjust="spacing" textLength="3.5" x="1347.1867" y="596.4736">*</text><!--MD5=[0985ee834cc881275852ed47ce1e01f6]
link TestType to Administrator--><path codeLine="101" d="M217.854,667.891 C296.59,643.811 494.739,583.219 576.597,558.187 " fill="none" id="TestType-Administrator" style="stroke:#A80036;stroke-width:0.6999999999999998;"/><polygon fill="#000000" points="391.103,595.8456,397.7594,595.9613,396.5562,592.0267,391.103,595.8456" style="stroke:#000000;stroke-width:0.6999999999999998;"/><text fill="#000000" font-family="sans-serif" font-size="9.1" lengthAdjust="spacing" textLength="30.1" x="400.75" y="598.5456">creates</text><text fill="#000000" font-family="sans-serif" font-size="9.1" lengthAdjust="spacing" textLength="3.5" x="223.2905" y="676.6925">*</text><text fill="#000000" font-family="sans-serif" font-size="9.1" lengthAdjust="spacing" textLength="4.9" x="566.4022" y="569.8926">1</text><!--MD5=[9163865a413f55935f47e026f9eaa033]
link Test to Result--><path codeLine="103" d="M1457.337,534.996 C1539.58,531.111 1708.588,522.69 1851.5,512.799 C1888.873,510.209 1898.414,511.119 1935.5,505.799 C1942.437,504.805 1949.927,503.398 1956.738,501.991 " fill="none" id="Test-Result" style="stroke:#A80036;stroke-width:0.6999999999999998;"/><polygon fill="#000000" points="1705.8924,512.6912,1699.4389,511.056,1699.7103,515.1615,1705.8924,512.6912" style="stroke:#000000;stroke-width:0.6999999999999998;"/><text fill="#000000" font-family="sans-serif" font-size="9.1" lengthAdjust="spacing" textLength="22.4" x="1708.7" y="516.6456">has a</text><text fill="#000000" font-family="sans-serif" font-size="9.1" lengthAdjust="spacing" textLength="4.9" x="1462.5677" y="544.79">1</text><text fill="#000000" font-family="sans-serif" font-size="9.1" lengthAdjust="spacing" textLength="4.9" x="1946.4008" y="513.7094">1</text><!--MD5=[150ee6e4dbb30ab82336f9e174f6c4ed]
link Test to Company--><path codeLine="105" d="M1356.089,565.6 C1319.535,583.695 1268.064,603.799 1219.75,603.799 C612.85,603.799 612.85,603.799 612.85,603.799 C519.652,603.799 416.241,558.845 366.961,534.436 " fill="none" id="Test-Company" style="stroke:#A80036;stroke-width:0.6999999999999998;"/><polygon fill="#000000" points="795.8983,597.7323,789.6346,595.4767,789.5051,599.5891,795.8983,597.7323" style="stroke:#000000;stroke-width:0.6999999999999998;"/><text fill="#000000" font-family="sans-serif" font-size="9.1" lengthAdjust="spacing" textLength="35" x="798.7" y="601.3456">performs</text><text fill="#000000" font-family="sans-serif" font-size="9.1" lengthAdjust="spacing" textLength="3.5" x="1347.1944" y="578.5666">*</text><text fill="#000000" font-family="sans-serif" font-size="9.1" lengthAdjust="spacing" textLength="4.9" x="372.3208" y="547.3802">1</text><!--MD5=[ca29482912e344ebd5dc9db2d1c2ccab]
link Test to ClinicalAnalysisLaboratory--><path codeLine="107" d="M1452.248,590.31 C1507.443,649.201 1607.109,736.099 1714.65,736.099 C1714.65,736.099 1714.65,736.099 2533.65,736.099 C2659.251,736.099 2700.11,545.545 2711.975,462.182 " fill="none" id="Test-ClinicalAnalysisLaboratory" style="stroke:#A80036;stroke-width:0.6999999999999998;"/><polygon fill="#000000" points="2044.718,730.2762,2051.2252,731.6822,2050.8089,727.5888,2044.718,730.2762" style="stroke:#000000;stroke-width:0.6999999999999998;"/><text fill="#000000" font-family="sans-serif" font-size="9.1" lengthAdjust="spacing" textLength="35" x="2054.5" y="733.6456">performs</text><text fill="#000000" font-family="sans-serif" font-size="9.1" lengthAdjust="spacing" textLength="3.5" x="1452.6532" y="604.9973">*</text><text fill="#000000" font-family="sans-serif" font-size="9.1" lengthAdjust="spacing" textLength="3.5" x="2707.6005" y="477.2588">*</text><!--MD5=[10af4306acabee641eea198ac06587b8]
link Test to Receptionist--><path codeLine="109" d="M1457.253,497.812 C1465.226,492.513 1473.598,487.501 1481.9,483.399 C1655.493,397.621 1709.666,372.799 1903.3,372.799 C1903.3,372.799 1903.3,372.799 2381.75,372.799 C2427.971,372.799 2478.133,394.674 2507.295,409.801 " fill="none" id="Test-Receptionist" style="stroke:#A80036;stroke-width:0.6999999999999998;"/><polygon fill="#000000" points="1957.9122,366.9144,1964.3935,368.4356,1964.0498,364.3355,1957.9122,366.9144" style="stroke:#000000;stroke-width:0.6999999999999998;"/><text fill="#000000" font-family="sans-serif" font-size="9.1" lengthAdjust="spacing" textLength="35" x="1967.7" y="370.3456">registers</text><text fill="#000000" font-family="sans-serif" font-size="9.1" lengthAdjust="spacing" textLength="3.5" x="1462.6519" y="503.788">*</text><text fill="#000000" font-family="sans-serif" font-size="9.1" lengthAdjust="spacing" textLength="14" x="2483.7026" y="402.2974">1..*</text><!--MD5=[5fda545c79585d17c4a435a79f76ac33]
link Test to DiagnosisReport--><path codeLine="111" d="M1457.162,524.993 C1493.282,516.068 1541.659,504.112 1576.239,495.565 " fill="none" id="Test-DiagnosisReport" style="stroke:#A80036;stroke-width:0.6999999999999998;"/><polygon fill="#000000" points="1482.0022,496.2618,1488.6424,496.7399,1487.6553,492.7455,1482.0022,496.2618" style="stroke:#000000;stroke-width:0.6999999999999998;"/><text fill="#000000" font-family="sans-serif" font-size="9.1" lengthAdjust="spacing" textLength="63" x="1491.7" y="499.1456">associated with</text><text fill="#000000" font-family="sans-serif" font-size="9.1" lengthAdjust="spacing" textLength="4.9" x="1462.6237" y="521.417">1</text><text fill="#000000" font-family="sans-serif" font-size="9.1" lengthAdjust="spacing" textLength="4.9" x="1565.938" y="506.9181">1</text><!--MD5=[1ae83efc6d1967ce5bc17dfe294d00c2]
link Sample to Test--><path codeLine="113" d="M1232.826,286.006 C1253.693,316.183 1295.791,377.104 1331.4,428.799 C1343.846,446.866 1357.44,466.641 1369.571,484.302 " fill="none" id="Sample-Test" style="stroke:#A80036;stroke-width:0.6999999999999998;"/><polygon fill="#000000" points="1289.163,357.4407,1291.0639,363.821,1294.4511,361.4852,1289.163,357.4407" style="stroke:#000000;stroke-width:0.6999999999999998;"/><text fill="#000000" font-family="sans-serif" font-size="9.1" lengthAdjust="spacing" textLength="31.5" x="1297.45" y="364.0456">collects</text><text fill="#000000" font-family="sans-serif" font-size="9.1" lengthAdjust="spacing" textLength="3.5" x="1231.9567" y="300.853">*</text><text fill="#000000" font-family="sans-serif" font-size="9.1" lengthAdjust="spacing" textLength="4.9" x="1360.7799" y="476.8033">1</text><!--MD5=[cb5e86f6614a99551e1d9ce6f0ae5849]
link Sample to MedicalLabTechnician--><path codeLine="115" d="M1236.935,248.045 C1273.937,207.004 1360.443,111.069 1393.133,74.816 " fill="none" id="Sample-MedicalLabTechnician" style="stroke:#A80036;stroke-width:0.6999999999999998;"/><polygon fill="#000000" points="1287.0562,141.7214,1292.824,138.3968,1289.7683,135.6415,1287.0562,141.7214" style="stroke:#000000;stroke-width:0.6999999999999998;"/><text fill="#000000" font-family="sans-serif" font-size="9.1" lengthAdjust="spacing" textLength="35" x="1295.7" y="142.8456">registers</text><text fill="#000000" font-family="sans-serif" font-size="9.1" lengthAdjust="spacing" textLength="14" x="1225.4522" y="240.6321">1..*</text><text fill="#000000" font-family="sans-serif" font-size="9.1" lengthAdjust="spacing" textLength="14" x="1373.6191" y="89.6215">1..*</text><!--MD5=[c1a9c7f16ec55f9c4038f73c31b8becd]
link Notification to Client--><path codeLine="117" d="M2232.783,525.777 C2259.229,533.729 2297.708,545.58 2331,556.899 C2337.832,559.223 2345.147,561.841 2351.993,564.361 " fill="none" id="Notification-Client" style="stroke:#A80036;stroke-width:0.6999999999999998;"/><polygon fill="#000000" points="2297.9299,538.4998,2292.5395,534.5928,2291.2725,538.5074,2297.9299,538.4998" style="stroke:#000000;stroke-width:0.6999999999999998;"/><text fill="#000000" font-family="sans-serif" font-size="9.1" lengthAdjust="spacing" textLength="29.4" x="2300.9" y="541.1456">informs</text><text fill="#000000" font-family="sans-serif" font-size="9.1" lengthAdjust="spacing" textLength="14" x="2238.3634" y="537.3612">1..*</text><text fill="#000000" font-family="sans-serif" font-size="9.1" lengthAdjust="spacing" textLength="3.5" x="2342.813" y="572.9031">*</text><!--MD5=[7678204d322b090291f71b500f84a74c]
@startuml
hide methods
skinparam classAttributeIconSize 0
left to right direction

class Company
class Laboratory
class ChemicalLaboratory
class ClinicalAnalysisLaboratory
class LaboratoryCoordinator
class Employee
class Administrator
class SpecialistDoctor
class ClinicalChemistryTechnologist
class MedicalLabTechnician
class Receptionist
class Client
class LabOrder
class Result
class DiagnosisReport
class NHSReport
class ParameterCategory
class Parameter
class TestType
class Test
class Notification
class NHS
class Sample

Company "1" - - "*" Parameter : > capable of analysing

Company "1" - - "*" Employee : < works for

Employee "*" <|- - "1" Administrator

Employee "*" <|- - "*" ClinicalChemistryTechnologist

Employee "*" <|- - "1..*" Receptionist

Employee "*" <|- - "*" MedicalLabTechnician

Employee "*" <|- - "1..*" LaboratoryCoordinator

ClinicalChemistryTechnologist "*" - - "1" ChemicalLaboratory : > works at

MedicalLabTechnician "1..*" - - "*" ClinicalAnalysisLaboratory : > works at

Receptionist "1..*" - - "*" ClinicalAnalysisLaboratory : > works at

LaboratoryCoordinator "1..*" - - "*" Laboratory: > works at a

ChemicalLaboratory "1" - - "1" Company : < owns

ChemicalLaboratory "1" - - "*" Sample : < is sent to

ClinicalAnalysisLaboratory "*" - - "1" Company : < owns

Laboratory "1"  <|- - "1" ChemicalLaboratory

Laboratory "1"  <|- - "1" ClinicalAnalysisLaboratory

Administrator "1" - - "*" ParameterCategory : < created by

SpecialistDoctor "1" - - "1" Result : < analyzed by

ClinicalChemistryTechnologist "*" - - "1..*" Sample : < analyzed by

Client "1" - - "*" Test : < requested by

Client "*" - - "1..*" Receptionist : < registers

LabOrder "1" - - "*" Client : > brought by

LabOrder "1" - - "1..*" Receptionist : < receives

LabOrder "1" - - "1" Test : < is associated

LabOrder "1" - - "1" TestType : > contains

Result "*" - - "1..*" ClinicalChemistryTechnologist : < registers

Result "*" - - "1..*" Notification : > is associated with

DiagnosisReport "1" - - "1" SpecialistDoctor : < registers

DiagnosisReport "1" - - "1" Client : > is sent to

DiagnosisReport "*" - - "1" LaboratoryCoordinator : < validates

NHSReport "1..*" - - "1" Result : < generates

NHSReport "1..*" - - "1" NHS : > is sent to

ParameterCategory "1" - - "*" Parameter : < presented under

Parameter "1..*" - - "*" Test : < requests analysis of

TestType "*" - - "1" Company : < conducts

TestType "1" - - "*" Test: < is of

TestType "*" - - "1" Administrator : < creates

Test "1" - - "1" Result : > has a

Test "*" - - "1" Company : < performs

Test "*" - - "*" ClinicalAnalysisLaboratory : < performs

Test "*" - - "1..*" Receptionist : < registers

Test "1" - - "1" DiagnosisReport : < associated with

Sample "*" - - "1" Test : < collects

Sample "1..*" - - "1..*" MedicalLabTechnician : < registers

Notification "1..*" - - "*" Client : > informs

class Company{
-designation
}

class ChemicalLaboratory{
-name
-address
-phoneNumber
-TIN
}

class ClinicalAnalysisLaboratory{
-name
-address
-phoneNumber
-labID
-TIN
}

class Employee{
-name
-address
-phoneNumber
-employeeID
-orgRole
-email
-SOCcode
}

class Administrator{
}

class SpecialistDoctor{
-doctorIndex
}

class ClinicalChemistryTechnologist{
}

class MedicalLabTechnician{
}

class Receptionist{
}

class Client{
-citizenID
-nhsID
-birthDate
-sex
-TIN
-phoneNumber
-email
-name
}

class LabOrder{
}

class Result{
}

class DiagnosisReport{
}

class ParameterCategory{
-code
-description
-nhsID
}

class Parameter{
-designation
-description
-code
}

class TestType{
-code
-description
-collectingMethod
}

class Test{
-description
-internalCode
-nhsCode
-collectingMethod
-collectDateTime
-chemicalAnalysisDateTime
-diagnosisDateTime
-validationDateTime
}

class Sample{
-barcode
}

@enduml

PlantUML version 1.2021.4(Sun Apr 04 09:49:39 BST 2021)
(GPL source distribution)
Java Runtime: OpenJDK Runtime Environment
JVM: OpenJDK 64-Bit Server VM
Default Encoding: Cp1252
Language: pt
Country: PT
--></g></svg>