<?xml version="1.0" encoding="UTF-8" standalone="no"?><svg xmlns="http://www.w3.org/2000/svg" xmlns:xlink="http://www.w3.org/1999/xlink" contentScriptType="application/ecmascript" contentStyleType="text/css" height="1086.3px" preserveAspectRatio="none" style="width:3617px;height:1086px;" version="1.1" viewBox="0 0 3617 1086" width="3617.1px" zoomAndPan="magnify"><defs><filter height="300%" id="fy37qry040z89" width="300%" x="-1" y="-1"><feGaussianBlur result="blurOut" stdDeviation="1.8"/><feColorMatrix in="blurOut" result="blurOut2" type="matrix" values="0 0 0 0 0 0 0 0 0 0 0 0 0 0 0 0 0 0 .4 0"/><feOffset dx="3.6" dy="3.6" in="blurOut2" result="blurOut3"/><feBlend in="SourceGraphic" in2="blurOut3" mode="normal"/></filter></defs><g><!--MD5=[02e4b9b7573f1156f41e60aa5b4e25a4]
class Company--><rect codeLine="119" fill="#FEFECE" filter="url(#fy37qry040z89)" height="48.4523" id="Company" style="stroke:#A80036;stroke-width:1.35;" width="76.5" x="395.1" y="649.8"/><ellipse cx="408.6" cy="664.2" fill="#ADD1B2" rx="9.9" ry="9.9" style="stroke:#A80036;stroke-width:0.9;"/><path d="M410.4,661.05 Q410.5828,660.6 410.7938,660.375 Q411.0047,660.15 411.2438,660.15 Q411.6656,660.15 411.9328,660.4031 Q412.2,660.6563 412.2,661.2469 L412.2,662.6531 Q412.2,663.2438 411.9469,663.4969 Q411.6938,663.75 411.3,663.75 Q410.9484,663.75 410.7234,663.5953 Q410.4984,663.4406 410.4,663.0328 Q410.3578,662.7516 410.2031,662.5969 Q409.9219,662.3016 409.4156,662.1328 Q408.9094,661.95 408.4031,661.95 Q407.7703,661.95 407.2359,662.2031 Q406.7156,662.4563 406.3078,663.0188 Q405.9,663.5813 405.9,664.3547 L405.9,665.1844 Q405.9,666.1125 406.6594,666.7313 Q407.4188,667.35 408.7688,667.35 Q409.5703,667.35 410.1328,667.1672 Q410.4563,667.0688 410.8219,666.7453 Q411.0609,666.5625 411.1875,666.5063 Q411.3141,666.45 411.4688,666.45 Q411.7641,666.45 411.975,666.6891 Q412.2,666.9141 412.2,667.2375 Q412.2,667.5469 411.8906,667.9125 Q411.4406,668.4469 410.7234,668.7422 Q409.7813,669.15 408.6281,669.15 Q407.2781,669.15 406.1953,668.6156 Q405.3234,668.1938 404.7047,667.2797 Q404.1,666.3656 404.1,665.2828 L404.1,664.2984 Q404.1,663.1734 404.6344,662.1891 Q405.1828,661.2047 406.125,660.6844 Q407.0813,660.15 408.15,660.15 Q408.7969,660.15 409.3594,660.375 Q409.9219,660.6 410.4,661.05 Z " fill="#000000"/><text fill="#000000" font-family="sans-serif" font-size="10.8" lengthAdjust="spacing" textLength="47.7" x="421.2" y="668.6191">Company</text><line style="stroke:#A80036;stroke-width:1.35;" x1="396" x2="470.7" y1="678.6" y2="678.6"/><text fill="#000000" font-family="sans-serif" font-size="9.9" lengthAdjust="spacing" textLength="53.1" x="400.5" y="692.4771">-designation</text><!--MD5=[0caf3a413731a0de34fc6162fe213ed9]
class Laboratory--><rect codeLine="6" fill="#FEFECE" filter="url(#fy37qry040z89)" height="36" id="Laboratory" style="stroke:#A80036;stroke-width:1.35;" width="81" x="1034.55" y="286.2"/><ellipse cx="1048.05" cy="300.6" fill="#ADD1B2" rx="9.9" ry="9.9" style="stroke:#A80036;stroke-width:0.9;"/><path d="M1049.85,297.45 Q1050.0328,297 1050.2438,296.775 Q1050.4547,296.55 1050.6938,296.55 Q1051.1156,296.55 1051.3828,296.8031 Q1051.65,297.0563 1051.65,297.6469 L1051.65,299.0531 Q1051.65,299.6438 1051.3969,299.8969 Q1051.1438,300.15 1050.75,300.15 Q1050.3984,300.15 1050.1734,299.9953 Q1049.9484,299.8406 1049.85,299.4328 Q1049.8078,299.1516 1049.6531,298.9969 Q1049.3719,298.7016 1048.8656,298.5328 Q1048.3594,298.35 1047.8531,298.35 Q1047.2203,298.35 1046.6859,298.6031 Q1046.1656,298.8563 1045.7578,299.4188 Q1045.35,299.9813 1045.35,300.7547 L1045.35,301.5844 Q1045.35,302.5125 1046.1094,303.1313 Q1046.8688,303.75 1048.2188,303.75 Q1049.0203,303.75 1049.5828,303.5672 Q1049.9063,303.4688 1050.2719,303.1453 Q1050.5109,302.9625 1050.6375,302.9063 Q1050.7641,302.85 1050.9188,302.85 Q1051.2141,302.85 1051.425,303.0891 Q1051.65,303.3141 1051.65,303.6375 Q1051.65,303.9469 1051.3406,304.3125 Q1050.8906,304.8469 1050.1734,305.1422 Q1049.2313,305.55 1048.0781,305.55 Q1046.7281,305.55 1045.6453,305.0156 Q1044.7734,304.5938 1044.1547,303.6797 Q1043.55,302.7656 1043.55,301.6828 L1043.55,300.6984 Q1043.55,299.5734 1044.0844,298.5891 Q1044.6328,297.6047 1045.575,297.0844 Q1046.5313,296.55 1047.6,296.55 Q1048.2469,296.55 1048.8094,296.775 Q1049.3719,297 1049.85,297.45 Z " fill="#000000"/><text fill="#000000" font-family="sans-serif" font-size="10.8" lengthAdjust="spacing" textLength="52.2" x="1060.65" y="305.0191">Laboratory</text><line style="stroke:#A80036;stroke-width:1.35;" x1="1035.45" x2="1114.65" y1="315" y2="315"/><!--MD5=[a64badb107d3691f2dc6af242cdbeb21]
class ChemicalLaboratory--><rect codeLine="123" fill="#FEFECE" filter="url(#fy37qry040z89)" height="85.8094" id="ChemicalLaboratory" style="stroke:#A80036;stroke-width:1.35;" width="128.7" x="1288.8" y="261.45"/><ellipse cx="1302.3" cy="275.85" fill="#ADD1B2" rx="9.9" ry="9.9" style="stroke:#A80036;stroke-width:0.9;"/><path d="M1304.1,272.7 Q1304.2828,272.25 1304.4938,272.025 Q1304.7047,271.8 1304.9438,271.8 Q1305.3656,271.8 1305.6328,272.0531 Q1305.9,272.3063 1305.9,272.8969 L1305.9,274.3031 Q1305.9,274.8938 1305.6469,275.1469 Q1305.3938,275.4 1305,275.4 Q1304.6484,275.4 1304.4234,275.2453 Q1304.1984,275.0906 1304.1,274.6828 Q1304.0578,274.4016 1303.9031,274.2469 Q1303.6219,273.9516 1303.1156,273.7828 Q1302.6094,273.6 1302.1031,273.6 Q1301.4703,273.6 1300.9359,273.8531 Q1300.4156,274.1063 1300.0078,274.6688 Q1299.6,275.2313 1299.6,276.0047 L1299.6,276.8344 Q1299.6,277.7625 1300.3594,278.3813 Q1301.1188,279 1302.4688,279 Q1303.2703,279 1303.8328,278.8172 Q1304.1563,278.7188 1304.5219,278.3953 Q1304.7609,278.2125 1304.8875,278.1563 Q1305.0141,278.1 1305.1688,278.1 Q1305.4641,278.1 1305.675,278.3391 Q1305.9,278.5641 1305.9,278.8875 Q1305.9,279.1969 1305.5906,279.5625 Q1305.1406,280.0969 1304.4234,280.3922 Q1303.4813,280.8 1302.3281,280.8 Q1300.9781,280.8 1299.8953,280.2656 Q1299.0234,279.8438 1298.4047,278.9297 Q1297.8,278.0156 1297.8,276.9328 L1297.8,275.9484 Q1297.8,274.8234 1298.3344,273.8391 Q1298.8828,272.8547 1299.825,272.3344 Q1300.7813,271.8 1301.85,271.8 Q1302.4969,271.8 1303.0594,272.025 Q1303.6219,272.25 1304.1,272.7 Z " fill="#000000"/><text fill="#000000" font-family="sans-serif" font-size="10.8" lengthAdjust="spacing" textLength="99.9" x="1314.9" y="280.2691">ChemicalLaboratory</text><line style="stroke:#A80036;stroke-width:1.35;" x1="1289.7" x2="1416.6" y1="290.25" y2="290.25"/><text fill="#000000" font-family="sans-serif" font-size="9.9" lengthAdjust="spacing" textLength="27" x="1294.2" y="304.1271">-name</text><text fill="#000000" font-family="sans-serif" font-size="9.9" lengthAdjust="spacing" textLength="39.6" x="1294.2" y="316.5794">-address</text><text fill="#000000" font-family="sans-serif" font-size="9.9" lengthAdjust="spacing" textLength="63.9" x="1294.2" y="329.0317">-phoneNumber</text><text fill="#000000" font-family="sans-serif" font-size="9.9" lengthAdjust="spacing" textLength="17.1" x="1294.2" y="341.4841">-TIN</text><!--MD5=[1934a092c0e7d4da7dc7075b6f4b6b03]
class ClinicalAnalysisLaboratory--><rect codeLine="130" fill="#FEFECE" filter="url(#fy37qry040z89)" height="98.2617" id="ClinicalAnalysisLaboratory" style="stroke:#A80036;stroke-width:1.35;" width="159.3" x="3445.2" y="501.75"/><ellipse cx="3458.7" cy="516.15" fill="#ADD1B2" rx="9.9" ry="9.9" style="stroke:#A80036;stroke-width:0.9;"/><path d="M3460.5,513 Q3460.6828,512.55 3460.8938,512.325 Q3461.1047,512.1 3461.3438,512.1 Q3461.7656,512.1 3462.0328,512.3531 Q3462.3,512.6063 3462.3,513.1969 L3462.3,514.6031 Q3462.3,515.1938 3462.0469,515.4469 Q3461.7938,515.7 3461.4,515.7 Q3461.0484,515.7 3460.8234,515.5453 Q3460.5984,515.3906 3460.5,514.9828 Q3460.4578,514.7016 3460.3031,514.5469 Q3460.0219,514.2516 3459.5156,514.0828 Q3459.0094,513.9 3458.5031,513.9 Q3457.8703,513.9 3457.3359,514.1531 Q3456.8156,514.4063 3456.4078,514.9688 Q3456,515.5313 3456,516.3047 L3456,517.1344 Q3456,518.0625 3456.7594,518.6813 Q3457.5188,519.3 3458.8688,519.3 Q3459.6703,519.3 3460.2328,519.1172 Q3460.5563,519.0188 3460.9219,518.6953 Q3461.1609,518.5125 3461.2875,518.4563 Q3461.4141,518.4 3461.5688,518.4 Q3461.8641,518.4 3462.075,518.6391 Q3462.3,518.8641 3462.3,519.1875 Q3462.3,519.4969 3461.9906,519.8625 Q3461.5406,520.3969 3460.8234,520.6922 Q3459.8813,521.1 3458.7281,521.1 Q3457.3781,521.1 3456.2953,520.5656 Q3455.4234,520.1438 3454.8047,519.2297 Q3454.2,518.3156 3454.2,517.2328 L3454.2,516.2484 Q3454.2,515.1234 3454.7344,514.1391 Q3455.2828,513.1547 3456.225,512.6344 Q3457.1813,512.1 3458.25,512.1 Q3458.8969,512.1 3459.4594,512.325 Q3460.0219,512.55 3460.5,513 Z " fill="#000000"/><text fill="#000000" font-family="sans-serif" font-size="10.8" lengthAdjust="spacing" textLength="130.5" x="3471.3" y="520.5691">ClinicalAnalysisLaboratory</text><line style="stroke:#A80036;stroke-width:1.35;" x1="3446.1" x2="3603.6" y1="530.55" y2="530.55"/><text fill="#000000" font-family="sans-serif" font-size="9.9" lengthAdjust="spacing" textLength="27" x="3450.6" y="544.4271">-name</text><text fill="#000000" font-family="sans-serif" font-size="9.9" lengthAdjust="spacing" textLength="39.6" x="3450.6" y="556.8794">-address</text><text fill="#000000" font-family="sans-serif" font-size="9.9" lengthAdjust="spacing" textLength="63.9" x="3450.6" y="569.3317">-phoneNumber</text><text fill="#000000" font-family="sans-serif" font-size="9.9" lengthAdjust="spacing" textLength="24.3" x="3450.6" y="581.7841">-labID</text><text fill="#000000" font-family="sans-serif" font-size="9.9" lengthAdjust="spacing" textLength="17.1" x="3450.6" y="594.2364">-TIN</text><!--MD5=[052425de1c0eb6cc1c1b48342b0bb88f]
class LaboratoryCoordinator--><rect codeLine="9" fill="#FEFECE" filter="url(#fy37qry040z89)" height="36" id="LaboratoryCoordinator" style="stroke:#A80036;stroke-width:1.35;" width="139.5" x="750.6" y="375.3"/><ellipse cx="764.1" cy="389.7" fill="#ADD1B2" rx="9.9" ry="9.9" style="stroke:#A80036;stroke-width:0.9;"/><path d="M765.9,386.55 Q766.0828,386.1 766.2938,385.875 Q766.5047,385.65 766.7438,385.65 Q767.1656,385.65 767.4328,385.9031 Q767.7,386.1563 767.7,386.7469 L767.7,388.1531 Q767.7,388.7438 767.4469,388.9969 Q767.1938,389.25 766.8,389.25 Q766.4484,389.25 766.2234,389.0953 Q765.9984,388.9406 765.9,388.5328 Q765.8578,388.2516 765.7031,388.0969 Q765.4219,387.8016 764.9156,387.6328 Q764.4094,387.45 763.9031,387.45 Q763.2703,387.45 762.7359,387.7031 Q762.2156,387.9563 761.8078,388.5188 Q761.4,389.0813 761.4,389.8547 L761.4,390.6844 Q761.4,391.6125 762.1594,392.2313 Q762.9188,392.85 764.2688,392.85 Q765.0703,392.85 765.6328,392.6672 Q765.9563,392.5688 766.3219,392.2453 Q766.5609,392.0625 766.6875,392.0063 Q766.8141,391.95 766.9688,391.95 Q767.2641,391.95 767.475,392.1891 Q767.7,392.4141 767.7,392.7375 Q767.7,393.0469 767.3906,393.4125 Q766.9406,393.9469 766.2234,394.2422 Q765.2813,394.65 764.1281,394.65 Q762.7781,394.65 761.6953,394.1156 Q760.8234,393.6938 760.2047,392.7797 Q759.6,391.8656 759.6,390.7828 L759.6,389.7984 Q759.6,388.6734 760.1344,387.6891 Q760.6828,386.7047 761.625,386.1844 Q762.5813,385.65 763.65,385.65 Q764.2969,385.65 764.8594,385.875 Q765.4219,386.1 765.9,386.55 Z " fill="#000000"/><text fill="#000000" font-family="sans-serif" font-size="10.8" lengthAdjust="spacing" textLength="110.7" x="776.7" y="394.1191">LaboratoryCoordinator</text><line style="stroke:#A80036;stroke-width:1.35;" x1="751.5" x2="889.2" y1="404.1" y2="404.1"/><!--MD5=[7421f545a0d8420c5bec41e74b387d9c]
class Employee--><rect codeLine="138" fill="#FEFECE" filter="url(#fy37qry040z89)" height="123.1664" id="Employee" style="stroke:#A80036;stroke-width:1.35;" width="78.3" x="585.9" y="360.45"/><ellipse cx="599.4" cy="374.85" fill="#ADD1B2" rx="9.9" ry="9.9" style="stroke:#A80036;stroke-width:0.9;"/><path d="M601.2,371.7 Q601.3828,371.25 601.5938,371.025 Q601.8047,370.8 602.0438,370.8 Q602.4656,370.8 602.7328,371.0531 Q603,371.3063 603,371.8969 L603,373.3031 Q603,373.8938 602.7469,374.1469 Q602.4938,374.4 602.1,374.4 Q601.7484,374.4 601.5234,374.2453 Q601.2984,374.0906 601.2,373.6828 Q601.1578,373.4016 601.0031,373.2469 Q600.7219,372.9516 600.2156,372.7828 Q599.7094,372.6 599.2031,372.6 Q598.5703,372.6 598.0359,372.8531 Q597.5156,373.1063 597.1078,373.6688 Q596.7,374.2313 596.7,375.0047 L596.7,375.8344 Q596.7,376.7625 597.4594,377.3813 Q598.2188,378 599.5688,378 Q600.3703,378 600.9328,377.8172 Q601.2563,377.7188 601.6219,377.3953 Q601.8609,377.2125 601.9875,377.1563 Q602.1141,377.1 602.2688,377.1 Q602.5641,377.1 602.775,377.3391 Q603,377.5641 603,377.8875 Q603,378.1969 602.6906,378.5625 Q602.2406,379.0969 601.5234,379.3922 Q600.5813,379.8 599.4281,379.8 Q598.0781,379.8 596.9953,379.2656 Q596.1234,378.8438 595.5047,377.9297 Q594.9,377.0156 594.9,375.9328 L594.9,374.9484 Q594.9,373.8234 595.4344,372.8391 Q595.9828,371.8547 596.925,371.3344 Q597.8813,370.8 598.95,370.8 Q599.5969,370.8 600.1594,371.025 Q600.7219,371.25 601.2,371.7 Z " fill="#000000"/><text fill="#000000" font-family="sans-serif" font-size="10.8" lengthAdjust="spacing" textLength="49.5" x="612" y="379.2691">Employee</text><line style="stroke:#A80036;stroke-width:1.35;" x1="586.8" x2="663.3" y1="389.25" y2="389.25"/><text fill="#000000" font-family="sans-serif" font-size="9.9" lengthAdjust="spacing" textLength="27" x="591.3" y="403.1271">-name</text><text fill="#000000" font-family="sans-serif" font-size="9.9" lengthAdjust="spacing" textLength="39.6" x="591.3" y="415.5794">-address</text><text fill="#000000" font-family="sans-serif" font-size="9.9" lengthAdjust="spacing" textLength="63.9" x="591.3" y="428.0317">-phoneNumber</text><text fill="#000000" font-family="sans-serif" font-size="9.9" lengthAdjust="spacing" textLength="53.1" x="591.3" y="440.4841">-employeeID</text><text fill="#000000" font-family="sans-serif" font-size="9.9" lengthAdjust="spacing" textLength="36.9" x="591.3" y="452.9364">-orgRole</text><text fill="#000000" font-family="sans-serif" font-size="9.9" lengthAdjust="spacing" textLength="25.2" x="591.3" y="465.3888">-email</text><text fill="#000000" font-family="sans-serif" font-size="9.9" lengthAdjust="spacing" textLength="45" x="591.3" y="477.8411">-SOCcode</text><!--MD5=[da547346deef918ea16944ba046651ef]
class Administrator--><rect codeLine="148" fill="#FEFECE" filter="url(#fy37qry040z89)" height="36" id="Administrator" style="stroke:#A80036;stroke-width:1.35;" width="94.5" x="773.1" y="692.1"/><ellipse cx="786.6" cy="706.5" fill="#ADD1B2" rx="9.9" ry="9.9" style="stroke:#A80036;stroke-width:0.9;"/><path d="M788.4,703.35 Q788.5828,702.9 788.7938,702.675 Q789.0047,702.45 789.2438,702.45 Q789.6656,702.45 789.9328,702.7031 Q790.2,702.9563 790.2,703.5469 L790.2,704.9531 Q790.2,705.5438 789.9469,705.7969 Q789.6938,706.05 789.3,706.05 Q788.9484,706.05 788.7234,705.8953 Q788.4984,705.7406 788.4,705.3328 Q788.3578,705.0516 788.2031,704.8969 Q787.9219,704.6016 787.4156,704.4328 Q786.9094,704.25 786.4031,704.25 Q785.7703,704.25 785.2359,704.5031 Q784.7156,704.7563 784.3078,705.3188 Q783.9,705.8813 783.9,706.6547 L783.9,707.4844 Q783.9,708.4125 784.6594,709.0313 Q785.4188,709.65 786.7688,709.65 Q787.5703,709.65 788.1328,709.4672 Q788.4563,709.3688 788.8219,709.0453 Q789.0609,708.8625 789.1875,708.8063 Q789.3141,708.75 789.4688,708.75 Q789.7641,708.75 789.975,708.9891 Q790.2,709.2141 790.2,709.5375 Q790.2,709.8469 789.8906,710.2125 Q789.4406,710.7469 788.7234,711.0422 Q787.7813,711.45 786.6281,711.45 Q785.2781,711.45 784.1953,710.9156 Q783.3234,710.4938 782.7047,709.5797 Q782.1,708.6656 782.1,707.5828 L782.1,706.5984 Q782.1,705.4734 782.6344,704.4891 Q783.1828,703.5047 784.125,702.9844 Q785.0813,702.45 786.15,702.45 Q786.7969,702.45 787.3594,702.675 Q787.9219,702.9 788.4,703.35 Z " fill="#000000"/><text fill="#000000" font-family="sans-serif" font-size="10.8" lengthAdjust="spacing" textLength="65.7" x="799.2" y="710.9191">Administrator</text><line style="stroke:#A80036;stroke-width:1.35;" x1="774" x2="866.7" y1="720.9" y2="720.9"/><!--MD5=[7d96fd15f3014691d2fcaf89c5791e2a]
class SpecialistDoctor--><rect codeLine="151" fill="#FEFECE" filter="url(#fy37qry040z89)" height="48.4523" id="SpecialistDoctor" style="stroke:#A80036;stroke-width:1.35;" width="109.8" x="2302.2" y="600.3"/><ellipse cx="2315.7" cy="614.7" fill="#ADD1B2" rx="9.9" ry="9.9" style="stroke:#A80036;stroke-width:0.9;"/><path d="M2317.5,611.55 Q2317.6828,611.1 2317.8938,610.875 Q2318.1047,610.65 2318.3438,610.65 Q2318.7656,610.65 2319.0328,610.9031 Q2319.3,611.1563 2319.3,611.7469 L2319.3,613.1531 Q2319.3,613.7438 2319.0469,613.9969 Q2318.7938,614.25 2318.4,614.25 Q2318.0484,614.25 2317.8234,614.0953 Q2317.5984,613.9406 2317.5,613.5328 Q2317.4578,613.2516 2317.3031,613.0969 Q2317.0219,612.8016 2316.5156,612.6328 Q2316.0094,612.45 2315.5031,612.45 Q2314.8703,612.45 2314.3359,612.7031 Q2313.8156,612.9563 2313.4078,613.5188 Q2313,614.0813 2313,614.8547 L2313,615.6844 Q2313,616.6125 2313.7594,617.2313 Q2314.5188,617.85 2315.8688,617.85 Q2316.6703,617.85 2317.2328,617.6672 Q2317.5563,617.5688 2317.9219,617.2453 Q2318.1609,617.0625 2318.2875,617.0063 Q2318.4141,616.95 2318.5688,616.95 Q2318.8641,616.95 2319.075,617.1891 Q2319.3,617.4141 2319.3,617.7375 Q2319.3,618.0469 2318.9906,618.4125 Q2318.5406,618.9469 2317.8234,619.2422 Q2316.8813,619.65 2315.7281,619.65 Q2314.3781,619.65 2313.2953,619.1156 Q2312.4234,618.6938 2311.8047,617.7797 Q2311.2,616.8656 2311.2,615.7828 L2311.2,614.7984 Q2311.2,613.6734 2311.7344,612.6891 Q2312.2828,611.7047 2313.225,611.1844 Q2314.1813,610.65 2315.25,610.65 Q2315.8969,610.65 2316.4594,610.875 Q2317.0219,611.1 2317.5,611.55 Z " fill="#000000"/><text fill="#000000" font-family="sans-serif" font-size="10.8" lengthAdjust="spacing" textLength="81" x="2328.3" y="619.1191">SpecialistDoctor</text><line style="stroke:#A80036;stroke-width:1.35;" x1="2303.1" x2="2411.1" y1="629.1" y2="629.1"/><text fill="#000000" font-family="sans-serif" font-size="9.9" lengthAdjust="spacing" textLength="54.9" x="2307.6" y="642.9771">-doctorIndex</text><!--MD5=[012ee2a8bf3ae2b319009b06f951c2e5]
class ClinicalChemistryTechnologist--><rect codeLine="155" fill="#FEFECE" filter="url(#fy37qry040z89)" height="36" id="ClinicalChemistryTechnologist" style="stroke:#A80036;stroke-width:1.35;" width="180" x="2770.2" y="294.3"/><ellipse cx="2783.7" cy="308.7" fill="#ADD1B2" rx="9.9" ry="9.9" style="stroke:#A80036;stroke-width:0.9;"/><path d="M2785.5,305.55 Q2785.6828,305.1 2785.8938,304.875 Q2786.1047,304.65 2786.3438,304.65 Q2786.7656,304.65 2787.0328,304.9031 Q2787.3,305.1563 2787.3,305.7469 L2787.3,307.1531 Q2787.3,307.7438 2787.0469,307.9969 Q2786.7938,308.25 2786.4,308.25 Q2786.0484,308.25 2785.8234,308.0953 Q2785.5984,307.9406 2785.5,307.5328 Q2785.4578,307.2516 2785.3031,307.0969 Q2785.0219,306.8016 2784.5156,306.6328 Q2784.0094,306.45 2783.5031,306.45 Q2782.8703,306.45 2782.3359,306.7031 Q2781.8156,306.9563 2781.4078,307.5188 Q2781,308.0813 2781,308.8547 L2781,309.6844 Q2781,310.6125 2781.7594,311.2313 Q2782.5188,311.85 2783.8688,311.85 Q2784.6703,311.85 2785.2328,311.6672 Q2785.5563,311.5688 2785.9219,311.2453 Q2786.1609,311.0625 2786.2875,311.0063 Q2786.4141,310.95 2786.5688,310.95 Q2786.8641,310.95 2787.075,311.1891 Q2787.3,311.4141 2787.3,311.7375 Q2787.3,312.0469 2786.9906,312.4125 Q2786.5406,312.9469 2785.8234,313.2422 Q2784.8813,313.65 2783.7281,313.65 Q2782.3781,313.65 2781.2953,313.1156 Q2780.4234,312.6938 2779.8047,311.7797 Q2779.2,310.8656 2779.2,309.7828 L2779.2,308.7984 Q2779.2,307.6734 2779.7344,306.6891 Q2780.2828,305.7047 2781.225,305.1844 Q2782.1813,304.65 2783.25,304.65 Q2783.8969,304.65 2784.4594,304.875 Q2785.0219,305.1 2785.5,305.55 Z " fill="#000000"/><text fill="#000000" font-family="sans-serif" font-size="10.8" lengthAdjust="spacing" textLength="151.2" x="2796.3" y="313.1191">ClinicalChemistryTechnologist</text><line style="stroke:#A80036;stroke-width:1.35;" x1="2771.1" x2="2949.3" y1="323.1" y2="323.1"/><!--MD5=[01931d41e78f8996acd44f6f0fd8de28]
class MedicalLabTechnician--><rect codeLine="158" fill="#FEFECE" filter="url(#fy37qry040z89)" height="36" id="MedicalLabTechnician" style="stroke:#A80036;stroke-width:1.35;" width="139.5" x="1770.3" y="65.7"/><ellipse cx="1783.8" cy="80.1" fill="#ADD1B2" rx="9.9" ry="9.9" style="stroke:#A80036;stroke-width:0.9;"/><path d="M1785.6,76.95 Q1785.7828,76.5 1785.9938,76.275 Q1786.2047,76.05 1786.4438,76.05 Q1786.8656,76.05 1787.1328,76.3031 Q1787.4,76.5563 1787.4,77.1469 L1787.4,78.5531 Q1787.4,79.1438 1787.1469,79.3969 Q1786.8938,79.65 1786.5,79.65 Q1786.1484,79.65 1785.9234,79.4953 Q1785.6984,79.3406 1785.6,78.9328 Q1785.5578,78.6516 1785.4031,78.4969 Q1785.1219,78.2016 1784.6156,78.0328 Q1784.1094,77.85 1783.6031,77.85 Q1782.9703,77.85 1782.4359,78.1031 Q1781.9156,78.3563 1781.5078,78.9188 Q1781.1,79.4813 1781.1,80.2547 L1781.1,81.0844 Q1781.1,82.0125 1781.8594,82.6313 Q1782.6188,83.25 1783.9688,83.25 Q1784.7703,83.25 1785.3328,83.0672 Q1785.6563,82.9688 1786.0219,82.6453 Q1786.2609,82.4625 1786.3875,82.4063 Q1786.5141,82.35 1786.6688,82.35 Q1786.9641,82.35 1787.175,82.5891 Q1787.4,82.8141 1787.4,83.1375 Q1787.4,83.4469 1787.0906,83.8125 Q1786.6406,84.3469 1785.9234,84.6422 Q1784.9813,85.05 1783.8281,85.05 Q1782.4781,85.05 1781.3953,84.5156 Q1780.5234,84.0938 1779.9047,83.1797 Q1779.3,82.2656 1779.3,81.1828 L1779.3,80.1984 Q1779.3,79.0734 1779.8344,78.0891 Q1780.3828,77.1047 1781.325,76.5844 Q1782.2813,76.05 1783.35,76.05 Q1783.9969,76.05 1784.5594,76.275 Q1785.1219,76.5 1785.6,76.95 Z " fill="#000000"/><text fill="#000000" font-family="sans-serif" font-size="10.8" lengthAdjust="spacing" textLength="110.7" x="1796.4" y="84.5191">MedicalLabTechnician</text><line style="stroke:#A80036;stroke-width:1.35;" x1="1771.2" x2="1908.9" y1="94.5" y2="94.5"/><!--MD5=[03960189e81aa2c066c762ffabbee709]
class Receptionist--><rect codeLine="161" fill="#FEFECE" filter="url(#fy37qry040z89)" height="36" id="Receptionist" style="stroke:#A80036;stroke-width:1.35;" width="90.9" x="3242.7" y="532.8"/><ellipse cx="3256.2" cy="547.2" fill="#ADD1B2" rx="9.9" ry="9.9" style="stroke:#A80036;stroke-width:0.9;"/><path d="M3258,544.05 Q3258.1828,543.6 3258.3938,543.375 Q3258.6047,543.15 3258.8438,543.15 Q3259.2656,543.15 3259.5328,543.4031 Q3259.8,543.6563 3259.8,544.2469 L3259.8,545.6531 Q3259.8,546.2438 3259.5469,546.4969 Q3259.2938,546.75 3258.9,546.75 Q3258.5484,546.75 3258.3234,546.5953 Q3258.0984,546.4406 3258,546.0328 Q3257.9578,545.7516 3257.8031,545.5969 Q3257.5219,545.3016 3257.0156,545.1328 Q3256.5094,544.95 3256.0031,544.95 Q3255.3703,544.95 3254.8359,545.2031 Q3254.3156,545.4563 3253.9078,546.0188 Q3253.5,546.5813 3253.5,547.3547 L3253.5,548.1844 Q3253.5,549.1125 3254.2594,549.7313 Q3255.0188,550.35 3256.3688,550.35 Q3257.1703,550.35 3257.7328,550.1672 Q3258.0563,550.0688 3258.4219,549.7453 Q3258.6609,549.5625 3258.7875,549.5063 Q3258.9141,549.45 3259.0688,549.45 Q3259.3641,549.45 3259.575,549.6891 Q3259.8,549.9141 3259.8,550.2375 Q3259.8,550.5469 3259.4906,550.9125 Q3259.0406,551.4469 3258.3234,551.7422 Q3257.3813,552.15 3256.2281,552.15 Q3254.8781,552.15 3253.7953,551.6156 Q3252.9234,551.1938 3252.3047,550.2797 Q3251.7,549.3656 3251.7,548.2828 L3251.7,547.2984 Q3251.7,546.1734 3252.2344,545.1891 Q3252.7828,544.2047 3253.725,543.6844 Q3254.6813,543.15 3255.75,543.15 Q3256.3969,543.15 3256.9594,543.375 Q3257.5219,543.6 3258,544.05 Z " fill="#000000"/><text fill="#000000" font-family="sans-serif" font-size="10.8" lengthAdjust="spacing" textLength="62.1" x="3268.8" y="551.6191">Receptionist</text><line style="stroke:#A80036;stroke-width:1.35;" x1="3243.6" x2="3332.7" y1="561.6" y2="561.6"/><!--MD5=[ed6624c6556d5e7b1bd23032162d20b7]
class Client--><rect codeLine="164" fill="#FEFECE" filter="url(#fy37qry040z89)" height="135.6188" id="Client" style="stroke:#A80036;stroke-width:1.35;" width="74.7" x="3055.5" y="677.25"/><ellipse cx="3076.695" cy="691.65" fill="#ADD1B2" rx="9.9" ry="9.9" style="stroke:#A80036;stroke-width:0.9;"/><path d="M3078.495,688.5 Q3078.6778,688.05 3078.8888,687.825 Q3079.0997,687.6 3079.3388,687.6 Q3079.7606,687.6 3080.0278,687.8531 Q3080.295,688.1063 3080.295,688.6969 L3080.295,690.1031 Q3080.295,690.6938 3080.0419,690.9469 Q3079.7888,691.2 3079.395,691.2 Q3079.0434,691.2 3078.8184,691.0453 Q3078.5934,690.8906 3078.495,690.4828 Q3078.4528,690.2016 3078.2981,690.0469 Q3078.0169,689.7516 3077.5106,689.5828 Q3077.0044,689.4 3076.4981,689.4 Q3075.8653,689.4 3075.3309,689.6531 Q3074.8106,689.9063 3074.4028,690.4688 Q3073.995,691.0313 3073.995,691.8047 L3073.995,692.6344 Q3073.995,693.5625 3074.7544,694.1813 Q3075.5138,694.8 3076.8638,694.8 Q3077.6653,694.8 3078.2278,694.6172 Q3078.5513,694.5188 3078.9169,694.1953 Q3079.1559,694.0125 3079.2825,693.9563 Q3079.4091,693.9 3079.5638,693.9 Q3079.8591,693.9 3080.07,694.1391 Q3080.295,694.3641 3080.295,694.6875 Q3080.295,694.9969 3079.9856,695.3625 Q3079.5356,695.8969 3078.8184,696.1922 Q3077.8763,696.6 3076.7231,696.6 Q3075.3731,696.6 3074.2903,696.0656 Q3073.4184,695.6438 3072.7997,694.7297 Q3072.195,693.8156 3072.195,692.7328 L3072.195,691.7484 Q3072.195,690.6234 3072.7294,689.6391 Q3073.2778,688.6547 3074.22,688.1344 Q3075.1763,687.6 3076.245,687.6 Q3076.8919,687.6 3077.4544,687.825 Q3078.0169,688.05 3078.495,688.5 Z " fill="#000000"/><text fill="#000000" font-family="sans-serif" font-size="10.8" lengthAdjust="spacing" textLength="28.8" x="3091.005" y="696.0691">Client</text><line style="stroke:#A80036;stroke-width:1.35;" x1="3056.4" x2="3129.3" y1="706.05" y2="706.05"/><text fill="#000000" font-family="sans-serif" font-size="9.9" lengthAdjust="spacing" textLength="39.6" x="3060.9" y="719.9271">-citizenID</text><text fill="#000000" font-family="sans-serif" font-size="9.9" lengthAdjust="spacing" textLength="27.9" x="3060.9" y="732.3794">-nhsID</text><text fill="#000000" font-family="sans-serif" font-size="9.9" lengthAdjust="spacing" textLength="42.3" x="3060.9" y="744.8317">-birthDate</text><text fill="#000000" font-family="sans-serif" font-size="9.9" lengthAdjust="spacing" textLength="19.8" x="3060.9" y="757.2841">-sex</text><text fill="#000000" font-family="sans-serif" font-size="9.9" lengthAdjust="spacing" textLength="17.1" x="3060.9" y="769.7364">-TIN</text><text fill="#000000" font-family="sans-serif" font-size="9.9" lengthAdjust="spacing" textLength="63.9" x="3060.9" y="782.1888">-phoneNumber</text><text fill="#000000" font-family="sans-serif" font-size="9.9" lengthAdjust="spacing" textLength="25.2" x="3060.9" y="794.6411">-email</text><text fill="#000000" font-family="sans-serif" font-size="9.9" lengthAdjust="spacing" textLength="27" x="3060.9" y="807.0935">-name</text><!--MD5=[a999c1570c205a2156b04a15307bc1ff]
class LabOrder--><rect codeLine="175" fill="#FEFECE" filter="url(#fy37qry040z89)" height="36" id="LabOrder" style="stroke:#A80036;stroke-width:1.35;" width="75.6" x="6.3" y="908.1"/><ellipse cx="19.8" cy="922.5" fill="#ADD1B2" rx="9.9" ry="9.9" style="stroke:#A80036;stroke-width:0.9;"/><path d="M21.6,919.35 Q21.7828,918.9 21.9938,918.675 Q22.2047,918.45 22.4438,918.45 Q22.8656,918.45 23.1328,918.7031 Q23.4,918.9563 23.4,919.5469 L23.4,920.9531 Q23.4,921.5438 23.1469,921.7969 Q22.8938,922.05 22.5,922.05 Q22.1484,922.05 21.9234,921.8953 Q21.6984,921.7406 21.6,921.3328 Q21.5578,921.0516 21.4031,920.8969 Q21.1219,920.6016 20.6156,920.4328 Q20.1094,920.25 19.6031,920.25 Q18.9703,920.25 18.4359,920.5031 Q17.9156,920.7563 17.5078,921.3188 Q17.1,921.8813 17.1,922.6547 L17.1,923.4844 Q17.1,924.4125 17.8594,925.0313 Q18.6188,925.65 19.9688,925.65 Q20.7703,925.65 21.3328,925.4672 Q21.6563,925.3688 22.0219,925.0453 Q22.2609,924.8625 22.3875,924.8063 Q22.5141,924.75 22.6688,924.75 Q22.9641,924.75 23.175,924.9891 Q23.4,925.2141 23.4,925.5375 Q23.4,925.8469 23.0906,926.2125 Q22.6406,926.7469 21.9234,927.0422 Q20.9813,927.45 19.8281,927.45 Q18.4781,927.45 17.3953,926.9156 Q16.5234,926.4938 15.9047,925.5797 Q15.3,924.6656 15.3,923.5828 L15.3,922.5984 Q15.3,921.4734 15.8344,920.4891 Q16.3828,919.5047 17.325,918.9844 Q18.2813,918.45 19.35,918.45 Q19.9969,918.45 20.5594,918.675 Q21.1219,918.9 21.6,919.35 Z " fill="#000000"/><text fill="#000000" font-family="sans-serif" font-size="10.8" lengthAdjust="spacing" textLength="46.8" x="32.4" y="926.9191">LabOrder</text><line style="stroke:#A80036;stroke-width:1.35;" x1="7.2" x2="81" y1="936.9" y2="936.9"/><!--MD5=[2741598bdf59a7d7e0d5c97658fd3022]
class Result--><rect codeLine="178" fill="#FEFECE" filter="url(#fy37qry040z89)" height="36" id="Result" style="stroke:#A80036;stroke-width:1.35;" width="61.2" x="2547.45" y="626.4"/><ellipse cx="2560.95" cy="640.8" fill="#ADD1B2" rx="9.9" ry="9.9" style="stroke:#A80036;stroke-width:0.9;"/><path d="M2562.75,637.65 Q2562.9328,637.2 2563.1438,636.975 Q2563.3547,636.75 2563.5938,636.75 Q2564.0156,636.75 2564.2828,637.0031 Q2564.55,637.2563 2564.55,637.8469 L2564.55,639.2531 Q2564.55,639.8438 2564.2969,640.0969 Q2564.0438,640.35 2563.65,640.35 Q2563.2984,640.35 2563.0734,640.1953 Q2562.8484,640.0406 2562.75,639.6328 Q2562.7078,639.3516 2562.5531,639.1969 Q2562.2719,638.9016 2561.7656,638.7328 Q2561.2594,638.55 2560.7531,638.55 Q2560.1203,638.55 2559.5859,638.8031 Q2559.0656,639.0563 2558.6578,639.6188 Q2558.25,640.1813 2558.25,640.9547 L2558.25,641.7844 Q2558.25,642.7125 2559.0094,643.3313 Q2559.7688,643.95 2561.1188,643.95 Q2561.9203,643.95 2562.4828,643.7672 Q2562.8063,643.6688 2563.1719,643.3453 Q2563.4109,643.1625 2563.5375,643.1063 Q2563.6641,643.05 2563.8188,643.05 Q2564.1141,643.05 2564.325,643.2891 Q2564.55,643.5141 2564.55,643.8375 Q2564.55,644.1469 2564.2406,644.5125 Q2563.7906,645.0469 2563.0734,645.3422 Q2562.1313,645.75 2560.9781,645.75 Q2559.6281,645.75 2558.5453,645.2156 Q2557.6734,644.7938 2557.0547,643.8797 Q2556.45,642.9656 2556.45,641.8828 L2556.45,640.8984 Q2556.45,639.7734 2556.9844,638.7891 Q2557.5328,637.8047 2558.475,637.2844 Q2559.4313,636.75 2560.5,636.75 Q2561.1469,636.75 2561.7094,636.975 Q2562.2719,637.2 2562.75,637.65 Z " fill="#000000"/><text fill="#000000" font-family="sans-serif" font-size="10.8" lengthAdjust="spacing" textLength="32.4" x="2573.55" y="645.2191">Result</text><line style="stroke:#A80036;stroke-width:1.35;" x1="2548.35" x2="2607.75" y1="655.2" y2="655.2"/><!--MD5=[f61f25a4c924aea49782a3614f4b4835]
class DiagnosisReport--><rect codeLine="181" fill="#FEFECE" filter="url(#fy37qry040z89)" height="36" id="DiagnosisReport" style="stroke:#A80036;stroke-width:1.35;" width="113.4" x="2058.3" y="611.1"/><ellipse cx="2071.8" cy="625.5" fill="#ADD1B2" rx="9.9" ry="9.9" style="stroke:#A80036;stroke-width:0.9;"/><path d="M2073.6,622.35 Q2073.7828,621.9 2073.9938,621.675 Q2074.2047,621.45 2074.4438,621.45 Q2074.8656,621.45 2075.1328,621.7031 Q2075.4,621.9563 2075.4,622.5469 L2075.4,623.9531 Q2075.4,624.5438 2075.1469,624.7969 Q2074.8938,625.05 2074.5,625.05 Q2074.1484,625.05 2073.9234,624.8953 Q2073.6984,624.7406 2073.6,624.3328 Q2073.5578,624.0516 2073.4031,623.8969 Q2073.1219,623.6016 2072.6156,623.4328 Q2072.1094,623.25 2071.6031,623.25 Q2070.9703,623.25 2070.4359,623.5031 Q2069.9156,623.7563 2069.5078,624.3188 Q2069.1,624.8813 2069.1,625.6547 L2069.1,626.4844 Q2069.1,627.4125 2069.8594,628.0313 Q2070.6188,628.65 2071.9688,628.65 Q2072.7703,628.65 2073.3328,628.4672 Q2073.6563,628.3688 2074.0219,628.0453 Q2074.2609,627.8625 2074.3875,627.8063 Q2074.5141,627.75 2074.6688,627.75 Q2074.9641,627.75 2075.175,627.9891 Q2075.4,628.2141 2075.4,628.5375 Q2075.4,628.8469 2075.0906,629.2125 Q2074.6406,629.7469 2073.9234,630.0422 Q2072.9813,630.45 2071.8281,630.45 Q2070.4781,630.45 2069.3953,629.9156 Q2068.5234,629.4938 2067.9047,628.5797 Q2067.3,627.6656 2067.3,626.5828 L2067.3,625.5984 Q2067.3,624.4734 2067.8344,623.4891 Q2068.3828,622.5047 2069.325,621.9844 Q2070.2813,621.45 2071.35,621.45 Q2071.9969,621.45 2072.5594,621.675 Q2073.1219,621.9 2073.6,622.35 Z " fill="#000000"/><text fill="#000000" font-family="sans-serif" font-size="10.8" lengthAdjust="spacing" textLength="84.6" x="2084.4" y="629.9191">DiagnosisReport</text><line style="stroke:#A80036;stroke-width:1.35;" x1="2059.2" x2="2170.8" y1="639.9" y2="639.9"/><!--MD5=[74783ec010d186752c4ffd5c6de5633a]
class NHSReport--><rect codeLine="20" fill="#FEFECE" filter="url(#fy37qry040z89)" height="36" id="NHSReport" style="stroke:#A80036;stroke-width:1.35;" width="85.5" x="2314.35" y="532.8"/><ellipse cx="2327.85" cy="547.2" fill="#ADD1B2" rx="9.9" ry="9.9" style="stroke:#A80036;stroke-width:0.9;"/><path d="M2329.65,544.05 Q2329.8328,543.6 2330.0438,543.375 Q2330.2547,543.15 2330.4938,543.15 Q2330.9156,543.15 2331.1828,543.4031 Q2331.45,543.6563 2331.45,544.2469 L2331.45,545.6531 Q2331.45,546.2438 2331.1969,546.4969 Q2330.9438,546.75 2330.55,546.75 Q2330.1984,546.75 2329.9734,546.5953 Q2329.7484,546.4406 2329.65,546.0328 Q2329.6078,545.7516 2329.4531,545.5969 Q2329.1719,545.3016 2328.6656,545.1328 Q2328.1594,544.95 2327.6531,544.95 Q2327.0203,544.95 2326.4859,545.2031 Q2325.9656,545.4563 2325.5578,546.0188 Q2325.15,546.5813 2325.15,547.3547 L2325.15,548.1844 Q2325.15,549.1125 2325.9094,549.7313 Q2326.6688,550.35 2328.0188,550.35 Q2328.8203,550.35 2329.3828,550.1672 Q2329.7063,550.0688 2330.0719,549.7453 Q2330.3109,549.5625 2330.4375,549.5063 Q2330.5641,549.45 2330.7188,549.45 Q2331.0141,549.45 2331.225,549.6891 Q2331.45,549.9141 2331.45,550.2375 Q2331.45,550.5469 2331.1406,550.9125 Q2330.6906,551.4469 2329.9734,551.7422 Q2329.0313,552.15 2327.8781,552.15 Q2326.5281,552.15 2325.4453,551.6156 Q2324.5734,551.1938 2323.9547,550.2797 Q2323.35,549.3656 2323.35,548.2828 L2323.35,547.2984 Q2323.35,546.1734 2323.8844,545.1891 Q2324.4328,544.2047 2325.375,543.6844 Q2326.3313,543.15 2327.4,543.15 Q2328.0469,543.15 2328.6094,543.375 Q2329.1719,543.6 2329.65,544.05 Z " fill="#000000"/><text fill="#000000" font-family="sans-serif" font-size="10.8" lengthAdjust="spacing" textLength="56.7" x="2340.45" y="551.6191">NHSReport</text><line style="stroke:#A80036;stroke-width:1.35;" x1="2315.25" x2="2398.95" y1="561.6" y2="561.6"/><!--MD5=[36afb6bbd95a8ac778c4537c55a683d5]
class ParameterCategory--><rect codeLine="184" fill="#FEFECE" filter="url(#fy37qry040z89)" height="73.357" id="ParameterCategory" style="stroke:#A80036;stroke-width:1.35;" width="125.1" x="1012.5" y="661.5"/><ellipse cx="1026" cy="675.9" fill="#ADD1B2" rx="9.9" ry="9.9" style="stroke:#A80036;stroke-width:0.9;"/><path d="M1027.8,672.75 Q1027.9828,672.3 1028.1938,672.075 Q1028.4047,671.85 1028.6438,671.85 Q1029.0656,671.85 1029.3328,672.1031 Q1029.6,672.3563 1029.6,672.9469 L1029.6,674.3531 Q1029.6,674.9438 1029.3469,675.1969 Q1029.0938,675.45 1028.7,675.45 Q1028.3484,675.45 1028.1234,675.2953 Q1027.8984,675.1406 1027.8,674.7328 Q1027.7578,674.4516 1027.6031,674.2969 Q1027.3219,674.0016 1026.8156,673.8328 Q1026.3094,673.65 1025.8031,673.65 Q1025.1703,673.65 1024.6359,673.9031 Q1024.1156,674.1563 1023.7078,674.7188 Q1023.3,675.2813 1023.3,676.0547 L1023.3,676.8844 Q1023.3,677.8125 1024.0594,678.4313 Q1024.8188,679.05 1026.1688,679.05 Q1026.9703,679.05 1027.5328,678.8672 Q1027.8563,678.7688 1028.2219,678.4453 Q1028.4609,678.2625 1028.5875,678.2063 Q1028.7141,678.15 1028.8688,678.15 Q1029.1641,678.15 1029.375,678.3891 Q1029.6,678.6141 1029.6,678.9375 Q1029.6,679.2469 1029.2906,679.6125 Q1028.8406,680.1469 1028.1234,680.4422 Q1027.1813,680.85 1026.0281,680.85 Q1024.6781,680.85 1023.5953,680.3156 Q1022.7234,679.8938 1022.1047,678.9797 Q1021.5,678.0656 1021.5,676.9828 L1021.5,675.9984 Q1021.5,674.8734 1022.0344,673.8891 Q1022.5828,672.9047 1023.525,672.3844 Q1024.4813,671.85 1025.55,671.85 Q1026.1969,671.85 1026.7594,672.075 Q1027.3219,672.3 1027.8,672.75 Z " fill="#000000"/><text fill="#000000" font-family="sans-serif" font-size="10.8" lengthAdjust="spacing" textLength="96.3" x="1038.6" y="680.3191">ParameterCategory</text><line style="stroke:#A80036;stroke-width:1.35;" x1="1013.4" x2="1136.7" y1="690.3" y2="690.3"/><text fill="#000000" font-family="sans-serif" font-size="9.9" lengthAdjust="spacing" textLength="25.2" x="1017.9" y="704.1771">-code</text><text fill="#000000" font-family="sans-serif" font-size="9.9" lengthAdjust="spacing" textLength="51.3" x="1017.9" y="716.6294">-description</text><text fill="#000000" font-family="sans-serif" font-size="9.9" lengthAdjust="spacing" textLength="27.9" x="1017.9" y="729.0817">-nhsID</text><!--MD5=[1f6362a5c8f21d8d6a0fce68f3a92a4e]
class Parameter--><rect codeLine="190" fill="#FEFECE" filter="url(#fy37qry040z89)" height="73.357" id="Parameter" style="stroke:#A80036;stroke-width:1.35;" width="81" x="1312.65" y="659.7"/><ellipse cx="1326.15" cy="674.1" fill="#ADD1B2" rx="9.9" ry="9.9" style="stroke:#A80036;stroke-width:0.9;"/><path d="M1327.95,670.95 Q1328.1328,670.5 1328.3438,670.275 Q1328.5547,670.05 1328.7938,670.05 Q1329.2156,670.05 1329.4828,670.3031 Q1329.75,670.5563 1329.75,671.1469 L1329.75,672.5531 Q1329.75,673.1438 1329.4969,673.3969 Q1329.2438,673.65 1328.85,673.65 Q1328.4984,673.65 1328.2734,673.4953 Q1328.0484,673.3406 1327.95,672.9328 Q1327.9078,672.6516 1327.7531,672.4969 Q1327.4719,672.2016 1326.9656,672.0328 Q1326.4594,671.85 1325.9531,671.85 Q1325.3203,671.85 1324.7859,672.1031 Q1324.2656,672.3563 1323.8578,672.9188 Q1323.45,673.4813 1323.45,674.2547 L1323.45,675.0844 Q1323.45,676.0125 1324.2094,676.6313 Q1324.9688,677.25 1326.3188,677.25 Q1327.1203,677.25 1327.6828,677.0672 Q1328.0063,676.9688 1328.3719,676.6453 Q1328.6109,676.4625 1328.7375,676.4063 Q1328.8641,676.35 1329.0188,676.35 Q1329.3141,676.35 1329.525,676.5891 Q1329.75,676.8141 1329.75,677.1375 Q1329.75,677.4469 1329.4406,677.8125 Q1328.9906,678.3469 1328.2734,678.6422 Q1327.3313,679.05 1326.1781,679.05 Q1324.8281,679.05 1323.7453,678.5156 Q1322.8734,678.0938 1322.2547,677.1797 Q1321.65,676.2656 1321.65,675.1828 L1321.65,674.1984 Q1321.65,673.0734 1322.1844,672.0891 Q1322.7328,671.1047 1323.675,670.5844 Q1324.6313,670.05 1325.7,670.05 Q1326.3469,670.05 1326.9094,670.275 Q1327.4719,670.5 1327.95,670.95 Z " fill="#000000"/><text fill="#000000" font-family="sans-serif" font-size="10.8" lengthAdjust="spacing" textLength="52.2" x="1338.75" y="678.5191">Parameter</text><line style="stroke:#A80036;stroke-width:1.35;" x1="1313.55" x2="1392.75" y1="688.5" y2="688.5"/><text fill="#000000" font-family="sans-serif" font-size="9.9" lengthAdjust="spacing" textLength="53.1" x="1318.05" y="702.3771">-designation</text><text fill="#000000" font-family="sans-serif" font-size="9.9" lengthAdjust="spacing" textLength="51.3" x="1318.05" y="714.8294">-description</text><text fill="#000000" font-family="sans-serif" font-size="9.9" lengthAdjust="spacing" textLength="25.2" x="1318.05" y="727.2817">-code</text><!--MD5=[aeb3272166074d8737a70b61b1e71682]
class TestType--><rect codeLine="196" fill="#FEFECE" filter="url(#fy37qry040z89)" height="73.357" id="TestType" style="stroke:#A80036;stroke-width:1.35;" width="86.4" x="193.5" y="841.5"/><ellipse cx="212.67" cy="855.9" fill="#ADD1B2" rx="9.9" ry="9.9" style="stroke:#A80036;stroke-width:0.9;"/><path d="M214.47,852.75 Q214.6528,852.3 214.8638,852.075 Q215.0747,851.85 215.3138,851.85 Q215.7356,851.85 216.0028,852.1031 Q216.27,852.3563 216.27,852.9469 L216.27,854.3531 Q216.27,854.9438 216.0169,855.1969 Q215.7638,855.45 215.37,855.45 Q215.0184,855.45 214.7934,855.2953 Q214.5684,855.1406 214.47,854.7328 Q214.4278,854.4516 214.2731,854.2969 Q213.9919,854.0016 213.4856,853.8328 Q212.9794,853.65 212.4731,853.65 Q211.8403,853.65 211.3059,853.9031 Q210.7856,854.1563 210.3778,854.7188 Q209.97,855.2813 209.97,856.0547 L209.97,856.8844 Q209.97,857.8125 210.7294,858.4313 Q211.4888,859.05 212.8388,859.05 Q213.6403,859.05 214.2028,858.8672 Q214.5263,858.7688 214.8919,858.4453 Q215.1309,858.2625 215.2575,858.2063 Q215.3841,858.15 215.5388,858.15 Q215.8341,858.15 216.045,858.3891 Q216.27,858.6141 216.27,858.9375 Q216.27,859.2469 215.9606,859.6125 Q215.5106,860.1469 214.7934,860.4422 Q213.8513,860.85 212.6981,860.85 Q211.3481,860.85 210.2653,860.3156 Q209.3934,859.8938 208.7747,858.9797 Q208.17,858.0656 208.17,856.9828 L208.17,855.9984 Q208.17,854.8734 208.7044,853.8891 Q209.2528,852.9047 210.195,852.3844 Q211.1513,851.85 212.22,851.85 Q212.8669,851.85 213.4294,852.075 Q213.9919,852.3 214.47,852.75 Z " fill="#000000"/><text fill="#000000" font-family="sans-serif" font-size="10.8" lengthAdjust="spacing" textLength="45" x="226.53" y="860.3191">TestType</text><line style="stroke:#A80036;stroke-width:1.35;" x1="194.4" x2="279" y1="870.3" y2="870.3"/><text fill="#000000" font-family="sans-serif" font-size="9.9" lengthAdjust="spacing" textLength="25.2" x="198.9" y="884.1771">-code</text><text fill="#000000" font-family="sans-serif" font-size="9.9" lengthAdjust="spacing" textLength="51.3" x="198.9" y="896.6294">-description</text><text fill="#000000" font-family="sans-serif" font-size="9.9" lengthAdjust="spacing" textLength="75.6" x="198.9" y="909.0817">-collectingMethod</text><!--MD5=[df38be88ccee13e832d6fafd6288a4ca]
class Test--><rect codeLine="202" fill="#FEFECE" filter="url(#fy37qry040z89)" height="135.6188" id="Test" style="stroke:#A80036;stroke-width:1.35;" width="129.6" x="1775.25" y="628.65"/><ellipse cx="1825.425" cy="643.05" fill="#ADD1B2" rx="9.9" ry="9.9" style="stroke:#A80036;stroke-width:0.9;"/><path d="M1827.225,639.9 Q1827.4078,639.45 1827.6188,639.225 Q1827.8297,639 1828.0688,639 Q1828.4906,639 1828.7578,639.2531 Q1829.025,639.5063 1829.025,640.0969 L1829.025,641.5031 Q1829.025,642.0938 1828.7719,642.3469 Q1828.5188,642.6 1828.125,642.6 Q1827.7734,642.6 1827.5484,642.4453 Q1827.3234,642.2906 1827.225,641.8828 Q1827.1828,641.6016 1827.0281,641.4469 Q1826.7469,641.1516 1826.2406,640.9828 Q1825.7344,640.8 1825.2281,640.8 Q1824.5953,640.8 1824.0609,641.0531 Q1823.5406,641.3063 1823.1328,641.8688 Q1822.725,642.4313 1822.725,643.2047 L1822.725,644.0344 Q1822.725,644.9625 1823.4844,645.5813 Q1824.2438,646.2 1825.5938,646.2 Q1826.3953,646.2 1826.9578,646.0172 Q1827.2813,645.9188 1827.6469,645.5953 Q1827.8859,645.4125 1828.0125,645.3563 Q1828.1391,645.3 1828.2938,645.3 Q1828.5891,645.3 1828.8,645.5391 Q1829.025,645.7641 1829.025,646.0875 Q1829.025,646.3969 1828.7156,646.7625 Q1828.2656,647.2969 1827.5484,647.5922 Q1826.6063,648 1825.4531,648 Q1824.1031,648 1823.0203,647.4656 Q1822.1484,647.0438 1821.5297,646.1297 Q1820.925,645.2156 1820.925,644.1328 L1820.925,643.1484 Q1820.925,642.0234 1821.4594,641.0391 Q1822.0078,640.0547 1822.95,639.5344 Q1823.9063,639 1824.975,639 Q1825.6219,639 1826.1844,639.225 Q1826.7469,639.45 1827.225,639.9 Z " fill="#000000"/><text fill="#000000" font-family="sans-serif" font-size="10.8" lengthAdjust="spacing" textLength="21.6" x="1843.875" y="647.4691">Test</text><line style="stroke:#A80036;stroke-width:1.35;" x1="1776.15" x2="1903.95" y1="657.45" y2="657.45"/><text fill="#000000" font-family="sans-serif" font-size="9.9" lengthAdjust="spacing" textLength="51.3" x="1780.65" y="671.3271">-description</text><text fill="#000000" font-family="sans-serif" font-size="9.9" lengthAdjust="spacing" textLength="57.6" x="1780.65" y="683.7794">-internalCode</text><text fill="#000000" font-family="sans-serif" font-size="9.9" lengthAdjust="spacing" textLength="42.3" x="1780.65" y="696.2317">-nhsCode</text><text fill="#000000" font-family="sans-serif" font-size="9.9" lengthAdjust="spacing" textLength="75.6" x="1780.65" y="708.6841">-collectingMethod</text><text fill="#000000" font-family="sans-serif" font-size="9.9" lengthAdjust="spacing" textLength="71.1" x="1780.65" y="721.1364">-collectDateTime</text><text fill="#000000" font-family="sans-serif" font-size="9.9" lengthAdjust="spacing" textLength="118.8" x="1780.65" y="733.5888">-chemicalAnalysisDateTime</text><text fill="#000000" font-family="sans-serif" font-size="9.9" lengthAdjust="spacing" textLength="84.6" x="1780.65" y="746.0411">-diagnosisDateTime</text><text fill="#000000" font-family="sans-serif" font-size="9.9" lengthAdjust="spacing" textLength="83.7" x="1780.65" y="758.4935">-validationDateTime</text><!--MD5=[76b5e19c9337179d2d7ae334371d68c8]
class Notification--><rect codeLine="25" fill="#FEFECE" filter="url(#fy37qry040z89)" height="36" id="Notification" style="stroke:#A80036;stroke-width:1.35;" width="83.7" x="2818.35" y="651.6"/><ellipse cx="2831.85" cy="666" fill="#ADD1B2" rx="9.9" ry="9.9" style="stroke:#A80036;stroke-width:0.9;"/><path d="M2833.65,662.85 Q2833.8328,662.4 2834.0438,662.175 Q2834.2547,661.95 2834.4938,661.95 Q2834.9156,661.95 2835.1828,662.2031 Q2835.45,662.4563 2835.45,663.0469 L2835.45,664.4531 Q2835.45,665.0438 2835.1969,665.2969 Q2834.9438,665.55 2834.55,665.55 Q2834.1984,665.55 2833.9734,665.3953 Q2833.7484,665.2406 2833.65,664.8328 Q2833.6078,664.5516 2833.4531,664.3969 Q2833.1719,664.1016 2832.6656,663.9328 Q2832.1594,663.75 2831.6531,663.75 Q2831.0203,663.75 2830.4859,664.0031 Q2829.9656,664.2563 2829.5578,664.8188 Q2829.15,665.3813 2829.15,666.1547 L2829.15,666.9844 Q2829.15,667.9125 2829.9094,668.5313 Q2830.6688,669.15 2832.0188,669.15 Q2832.8203,669.15 2833.3828,668.9672 Q2833.7063,668.8688 2834.0719,668.5453 Q2834.3109,668.3625 2834.4375,668.3063 Q2834.5641,668.25 2834.7188,668.25 Q2835.0141,668.25 2835.225,668.4891 Q2835.45,668.7141 2835.45,669.0375 Q2835.45,669.3469 2835.1406,669.7125 Q2834.6906,670.2469 2833.9734,670.5422 Q2833.0313,670.95 2831.8781,670.95 Q2830.5281,670.95 2829.4453,670.4156 Q2828.5734,669.9938 2827.9547,669.0797 Q2827.35,668.1656 2827.35,667.0828 L2827.35,666.0984 Q2827.35,664.9734 2827.8844,663.9891 Q2828.4328,663.0047 2829.375,662.4844 Q2830.3313,661.95 2831.4,661.95 Q2832.0469,661.95 2832.6094,662.175 Q2833.1719,662.4 2833.65,662.85 Z " fill="#000000"/><text fill="#000000" font-family="sans-serif" font-size="10.8" lengthAdjust="spacing" textLength="54.9" x="2844.45" y="670.4191">Notification</text><line style="stroke:#A80036;stroke-width:1.35;" x1="2819.25" x2="2901.15" y1="680.4" y2="680.4"/><!--MD5=[0a105ea8d9af02dadec02d3e239f1d60]
class NHS--><rect codeLine="26" fill="#FEFECE" filter="url(#fy37qry040z89)" height="36" id="NHS" style="stroke:#A80036;stroke-width:1.35;" width="52.2" x="2551.95" y="548.1"/><ellipse cx="2565.45" cy="562.5" fill="#ADD1B2" rx="9.9" ry="9.9" style="stroke:#A80036;stroke-width:0.9;"/><path d="M2567.25,559.35 Q2567.4328,558.9 2567.6438,558.675 Q2567.8547,558.45 2568.0938,558.45 Q2568.5156,558.45 2568.7828,558.7031 Q2569.05,558.9563 2569.05,559.5469 L2569.05,560.9531 Q2569.05,561.5438 2568.7969,561.7969 Q2568.5438,562.05 2568.15,562.05 Q2567.7984,562.05 2567.5734,561.8953 Q2567.3484,561.7406 2567.25,561.3328 Q2567.2078,561.0516 2567.0531,560.8969 Q2566.7719,560.6016 2566.2656,560.4328 Q2565.7594,560.25 2565.2531,560.25 Q2564.6203,560.25 2564.0859,560.5031 Q2563.5656,560.7563 2563.1578,561.3188 Q2562.75,561.8813 2562.75,562.6547 L2562.75,563.4844 Q2562.75,564.4125 2563.5094,565.0313 Q2564.2688,565.65 2565.6188,565.65 Q2566.4203,565.65 2566.9828,565.4672 Q2567.3063,565.3688 2567.6719,565.0453 Q2567.9109,564.8625 2568.0375,564.8063 Q2568.1641,564.75 2568.3188,564.75 Q2568.6141,564.75 2568.825,564.9891 Q2569.05,565.2141 2569.05,565.5375 Q2569.05,565.8469 2568.7406,566.2125 Q2568.2906,566.7469 2567.5734,567.0422 Q2566.6313,567.45 2565.4781,567.45 Q2564.1281,567.45 2563.0453,566.9156 Q2562.1734,566.4938 2561.5547,565.5797 Q2560.95,564.6656 2560.95,563.5828 L2560.95,562.5984 Q2560.95,561.4734 2561.4844,560.4891 Q2562.0328,559.5047 2562.975,558.9844 Q2563.9313,558.45 2565,558.45 Q2565.6469,558.45 2566.2094,558.675 Q2566.7719,558.9 2567.25,559.35 Z " fill="#000000"/><text fill="#000000" font-family="sans-serif" font-size="10.8" lengthAdjust="spacing" textLength="23.4" x="2578.05" y="566.9191">NHS</text><line style="stroke:#A80036;stroke-width:1.35;" x1="2552.85" x2="2603.25" y1="576.9" y2="576.9"/><!--MD5=[9681492165142af2a4a3a169d90ee8d4]
class Sample--><rect codeLine="213" fill="#FEFECE" filter="url(#fy37qry040z89)" height="48.4523" id="Sample" style="stroke:#A80036;stroke-width:1.35;" width="67.5" x="1565.1" y="324.9"/><ellipse cx="1578.6" cy="339.3" fill="#ADD1B2" rx="9.9" ry="9.9" style="stroke:#A80036;stroke-width:0.9;"/><path d="M1580.4,336.15 Q1580.5828,335.7 1580.7938,335.475 Q1581.0047,335.25 1581.2438,335.25 Q1581.6656,335.25 1581.9328,335.5031 Q1582.2,335.7563 1582.2,336.3469 L1582.2,337.7531 Q1582.2,338.3438 1581.9469,338.5969 Q1581.6938,338.85 1581.3,338.85 Q1580.9484,338.85 1580.7234,338.6953 Q1580.4984,338.5406 1580.4,338.1328 Q1580.3578,337.8516 1580.2031,337.6969 Q1579.9219,337.4016 1579.4156,337.2328 Q1578.9094,337.05 1578.4031,337.05 Q1577.7703,337.05 1577.2359,337.3031 Q1576.7156,337.5563 1576.3078,338.1188 Q1575.9,338.6813 1575.9,339.4547 L1575.9,340.2844 Q1575.9,341.2125 1576.6594,341.8313 Q1577.4188,342.45 1578.7688,342.45 Q1579.5703,342.45 1580.1328,342.2672 Q1580.4563,342.1688 1580.8219,341.8453 Q1581.0609,341.6625 1581.1875,341.6063 Q1581.3141,341.55 1581.4688,341.55 Q1581.7641,341.55 1581.975,341.7891 Q1582.2,342.0141 1582.2,342.3375 Q1582.2,342.6469 1581.8906,343.0125 Q1581.4406,343.5469 1580.7234,343.8422 Q1579.7813,344.25 1578.6281,344.25 Q1577.2781,344.25 1576.1953,343.7156 Q1575.3234,343.2938 1574.7047,342.3797 Q1574.1,341.4656 1574.1,340.3828 L1574.1,339.3984 Q1574.1,338.2734 1574.6344,337.2891 Q1575.1828,336.3047 1576.125,335.7844 Q1577.0813,335.25 1578.15,335.25 Q1578.7969,335.25 1579.3594,335.475 Q1579.9219,335.7 1580.4,336.15 Z " fill="#000000"/><text fill="#000000" font-family="sans-serif" font-size="10.8" lengthAdjust="spacing" textLength="38.7" x="1591.2" y="343.7191">Sample</text><line style="stroke:#A80036;stroke-width:1.35;" x1="1566" x2="1631.7" y1="353.7" y2="353.7"/><text fill="#000000" font-family="sans-serif" font-size="9.9" lengthAdjust="spacing" textLength="39.6" x="1570.5" y="367.5771">-barcode</text><!--MD5=[12d76240d3c3c66074d4ec2ea8bf469c]
link Company to Parameter--><path codeLine="29" d="M471.744,668.763 C577.035,654.606 884.259,618.984 1137.6,646.2 C1199.637,652.869 1269.693,671.472 1312.407,684.117 " fill="none" id="Company-Parameter" style="stroke:#A80036;stroke-width:0.9;"/><polygon fill="#000000" points="769.4992,628.4404,761.4083,625.6471,761.3117,630.9363,769.4992,628.4404" style="stroke:#000000;stroke-width:0.9;"/><text fill="#000000" font-family="sans-serif" font-size="11.7" lengthAdjust="spacing" textLength="106.2" x="773.1" y="633.1456">capable of analysing</text><text fill="#000000" font-family="sans-serif" font-size="11.7" lengthAdjust="spacing" textLength="6.3" x="478.8844" y="681.2687">1</text><text fill="#000000" font-family="sans-serif" font-size="11.7" lengthAdjust="spacing" textLength="4.5" x="1301.055" y="695.4811">*</text><!--MD5=[09366576ee87d48d594df10cacc83f45]
link Company to Employee--><path codeLine="31" d="M452.628,649.71 C483.255,609.066 545.346,526.68 585.819,472.968 " fill="none" id="Company-Employee" style="stroke:#A80036;stroke-width:0.9;"/><polygon fill="#000000" points="500.3918,505.952,507.4034,501.0426,503.1786,497.8589,500.3918,505.952" style="stroke:#000000;stroke-width:0.9;"/><text fill="#000000" font-family="sans-serif" font-size="11.7" lengthAdjust="spacing" textLength="46.8" x="511.2" y="507.1456">works for</text><text fill="#000000" font-family="sans-serif" font-size="11.7" lengthAdjust="spacing" textLength="6.3" x="450.0576" y="640.2041">1</text><text fill="#000000" font-family="sans-serif" font-size="11.7" lengthAdjust="spacing" textLength="4.5" x="574.1895" y="495.1327">*</text><!--MD5=[b8a4f1f13c2d56b2385b1bfafed8418f]
link Employee to Administrator--><path codeLine="33" d="M646.353,483.804 C666.396,537.237 701.163,614.16 750.6,667.8 C759.348,677.286 770.697,685.422 781.65,691.947 " fill="none" id="Employee-Administrator" style="stroke:#A80036;stroke-width:0.9;"/><polygon fill="#000000" points="693.2475,575.9852,695.4664,584.2521,699.9018,581.3691,693.2475,575.9852" style="stroke:#000000;stroke-width:0.9;"/><text fill="#000000" font-family="sans-serif" font-size="11.7" lengthAdjust="spacing" textLength="18.9" x="703.8" y="584.5456">is a</text><text fill="#000000" font-family="sans-serif" font-size="11.7" lengthAdjust="spacing" textLength="4.5" x="643.8178" y="503.0785">*</text><text fill="#000000" font-family="sans-serif" font-size="11.7" lengthAdjust="spacing" textLength="6.3" x="763.0566" y="682.2916">1</text><!--MD5=[d0b577d991866bb293f65e18071b6be7]
link Employee to ClinicalChemistryTechnologist--><path codeLine="35" d="M664.569,396.198 C769.914,328.131 1073.106,149.4 1352.25,149.4 C1352.25,149.4 1352.25,149.4 2480.4,149.4 C2625.75,149.4 2778.84,251.829 2835.99,294.246 " fill="none" id="Employee-ClinicalChemistryTechnologist" style="stroke:#A80036;stroke-width:0.9;"/><polygon fill="#000000" points="1697.855,141.6693,1706.1106,143.9296,1705.8625,138.6453,1697.855,141.6693" style="stroke:#000000;stroke-width:0.9;"/><text fill="#000000" font-family="sans-serif" font-size="11.7" lengthAdjust="spacing" textLength="18.9" x="1710.45" y="146.2456">is a</text><text fill="#000000" font-family="sans-serif" font-size="11.7" lengthAdjust="spacing" textLength="4.5" x="671.487" y="405.2834">*</text><text fill="#000000" font-family="sans-serif" font-size="11.7" lengthAdjust="spacing" textLength="4.5" x="2823.7174" y="284.6197">*</text><!--MD5=[1da12df22706e73e1def33b218b7f412]
link Employee to Receptionist--><path codeLine="37" d="M664.452,433.881 C703.215,444.672 764.901,459 819.45,459 C819.45,459 819.45,459 1214.1,459 C1436.535,459 1490.715,421.2 1713.15,421.2 C1713.15,421.2 1713.15,421.2 3093.75,421.2 C3172.995,421.2 3244.32,497.169 3273.408,532.782 " fill="none" id="Employee-Receptionist" style="stroke:#A80036;stroke-width:0.9;"/><polygon fill="#000000" points="1967.8532,413.0877,1975.8878,416.0392,1976.0882,410.753,1967.8532,413.0877" style="stroke:#000000;stroke-width:0.9;"/><text fill="#000000" font-family="sans-serif" font-size="11.7" lengthAdjust="spacing" textLength="18.9" x="1980.45" y="418.0456">is a</text><text fill="#000000" font-family="sans-serif" font-size="11.7" lengthAdjust="spacing" textLength="4.5" x="671.3506" y="449.2076">*</text><text fill="#000000" font-family="sans-serif" font-size="11.7" lengthAdjust="spacing" textLength="18" x="3248.4338" y="523.1663">1..*</text><!--MD5=[3960df5b1ea8ecab6ad2804cc08d8583]
link Employee to MedicalLabTechnician--><path codeLine="39" d="M635.868,360.216 C646.857,299.547 666.36,212.913 691.2,189.9 C777.834,109.629 1094.202,85.5 1212.3,85.5 C1212.3,85.5 1212.3,85.5 1599.75,85.5 C1657.215,85.5 1722.429,84.978 1770.264,84.492 " fill="none" id="Employee-MedicalLabTechnician" style="stroke:#A80036;stroke-width:0.9;"/><polygon fill="#000000" points="1197.1273,78.621,1205.6623,79.2686,1204.4129,74.1282,1197.1273,78.621" style="stroke:#000000;stroke-width:0.9;"/><text fill="#000000" font-family="sans-serif" font-size="11.7" lengthAdjust="spacing" textLength="18.9" x="1209.6" y="82.3456">is a</text><text fill="#000000" font-family="sans-serif" font-size="11.7" lengthAdjust="spacing" textLength="4.5" x="632.2516" y="350.8605">*</text><text fill="#000000" font-family="sans-serif" font-size="11.7" lengthAdjust="spacing" textLength="4.5" x="1758.673" y="97.4399">*</text><!--MD5=[a0184b63db99e4170c08b50ca520f26e]
link Employee to LaboratoryCoordinator--><path codeLine="41" d="M664.407,416.376 C688.986,412.713 721.566,407.871 750.519,403.56 " fill="none" id="Employee-LaboratoryCoordinator" style="stroke:#A80036;stroke-width:0.9;"/><polygon fill="#000000" points="691.249,400.4206,699.6903,401.8385,698.9115,396.6061,691.249,400.4206" style="stroke:#000000;stroke-width:0.9;"/><text fill="#000000" font-family="sans-serif" font-size="11.7" lengthAdjust="spacing" textLength="18.9" x="703.8" y="404.5456">is a</text><text fill="#000000" font-family="sans-serif" font-size="11.7" lengthAdjust="spacing" textLength="4.5" x="671.2982" y="428.8033">*</text><text fill="#000000" font-family="sans-serif" font-size="11.7" lengthAdjust="spacing" textLength="18" x="725.4981" y="417.2747">1..*</text><!--MD5=[c3a86c626b5b742f72786125539e9227]
link ClinicalChemistryTechnologist to ChemicalLaboratory--><path codeLine="43" d="M2770.164,310.23 C2574,305.883 2090.097,296.244 1684.8,297 C1577.997,297.198 1551.231,293.985 1444.5,297.9 C1435.77,298.224 1426.572,298.701 1417.527,299.25 " fill="none" id="ClinicalChemistryTechnologist-ChemicalLaboratory" style="stroke:#A80036;stroke-width:0.9;"/><polygon fill="#000000" points="2086.2001,289.9217,2094.319,292.6327,2094.3619,287.3428,2086.2001,289.9217" style="stroke:#000000;stroke-width:0.9;"/><text fill="#000000" font-family="sans-serif" font-size="11.7" lengthAdjust="spacing" textLength="44.1" x="2098.8" y="294.7456">works at</text><text fill="#000000" font-family="sans-serif" font-size="11.7" lengthAdjust="spacing" textLength="4.5" x="2758.5984" y="307.278">*</text><text fill="#000000" font-family="sans-serif" font-size="11.7" lengthAdjust="spacing" textLength="6.3" x="1424.4907" y="311.628">1</text><!--MD5=[738f0445d4a0804ca0738b44323ae22b]
link MedicalLabTechnician to ClinicalAnalysisLaboratory--><path codeLine="45" d="M1909.989,84.051 C1965.213,84.303 2044.629,84.6 2114.1,84.6 C2114.1,84.6 2114.1,84.6 3289.05,84.6 C3474.162,84.6 3513.42,381.366 3521.727,501.354 " fill="none" id="MedicalLabTechnician-ClinicalAnalysisLaboratory" style="stroke:#A80036;stroke-width:0.9;"/><polygon fill="#000000" points="2669.7064,77.7861,2662.4886,73.1851,2661.1627,78.3063,2669.7064,77.7861" style="stroke:#000000;stroke-width:0.9;"/><text fill="#000000" font-family="sans-serif" font-size="11.7" lengthAdjust="spacing" textLength="44.1" x="2673.45" y="81.4456">works at</text><text fill="#000000" font-family="sans-serif" font-size="11.7" lengthAdjust="spacing" textLength="18" x="1917.0195" y="96.8832">1..*</text><text fill="#000000" font-family="sans-serif" font-size="11.7" lengthAdjust="spacing" textLength="4.5" x="3516.5386" y="491.8517">*</text><!--MD5=[6cd0a3af2322bf46f6c633408da71c74]
link Receptionist to ClinicalAnalysisLaboratory--><path codeLine="47" d="M3333.789,550.8 C3365.199,550.8 3408.057,550.8 3445.137,550.8 " fill="none" id="Receptionist-ClinicalAnalysisLaboratory" style="stroke:#A80036;stroke-width:0.9;"/><polygon fill="#000000" points="3369.6,542.8582,3361.4594,540.2132,3361.4594,545.5032,3369.6,542.8582" style="stroke:#000000;stroke-width:0.9;"/><text fill="#000000" font-family="sans-serif" font-size="11.7" lengthAdjust="spacing" textLength="44.1" x="3373.2" y="547.6456">works at</text><text fill="#000000" font-family="sans-serif" font-size="11.7" lengthAdjust="spacing" textLength="18" x="3340.7896" y="563.8884">1..*</text><text fill="#000000" font-family="sans-serif" font-size="11.7" lengthAdjust="spacing" textLength="4.5" x="3433.5933" y="563.571">*</text><!--MD5=[4d5641458326529fdf5c82259a5ad32d]
link LaboratoryCoordinator to Laboratory--><path codeLine="49" d="M872.424,375.273 C920.205,358.434 990.513,333.666 1034.253,318.258 " fill="none" id="LaboratoryCoordinator-Laboratory" style="stroke:#A80036;stroke-width:0.9;"/><polygon fill="#000000" points="926.2943,325.3629,917.7374,325.5732,919.4952,330.5627,926.2943,325.3629" style="stroke:#000000;stroke-width:0.9;"/><text fill="#000000" font-family="sans-serif" font-size="11.7" lengthAdjust="spacing" textLength="54" x="930.15" y="331.6456">works at a</text><text fill="#000000" font-family="sans-serif" font-size="11.7" lengthAdjust="spacing" textLength="18" x="867.077" y="365.6546">1..*</text><text fill="#000000" font-family="sans-serif" font-size="11.7" lengthAdjust="spacing" textLength="4.5" x="1022.8924" y="333.8168">*</text><!--MD5=[de3aa179ee7f21b344f648244b25a961]
link ChemicalLaboratory to Company--><path codeLine="51" d="M1295.55,261.297 C1175.94,176.436 892.26,5.4 691.2,126 C494.505,243.981 446.436,559.17 436.536,649.557 " fill="none" id="ChemicalLaboratory-Company" style="stroke:#A80036;stroke-width:0.9;"/><polygon fill="#000000" points="808.7006,73.9048,800.1931,74.8474,802.3719,79.6679,808.7006,73.9048" style="stroke:#000000;stroke-width:0.9;"/><text fill="#000000" font-family="sans-serif" font-size="11.7" lengthAdjust="spacing" textLength="27" x="812.7" y="80.5456">owns</text><text fill="#000000" font-family="sans-serif" font-size="11.7" lengthAdjust="spacing" textLength="6.3" x="1280.3273" y="251.6842">1</text><text fill="#000000" font-family="sans-serif" font-size="11.7" lengthAdjust="spacing" textLength="6.3" x="430.2443" y="640.0157">1</text><!--MD5=[47855ee4dabeea37c5949a17ed9e3a41]
link ChemicalLaboratory to Sample--><path codeLine="53" d="M1417.815,315.963 C1464.957,324.666 1527.246,336.159 1564.866,343.098 " fill="none" id="ChemicalLaboratory-Sample" style="stroke:#A80036;stroke-width:0.9;"/><polygon fill="#000000" points="1447.7247,312.5416,1455.2502,316.62,1456.2101,311.4177,1447.7247,312.5416" style="stroke:#000000;stroke-width:0.9;"/><text fill="#000000" font-family="sans-serif" font-size="11.7" lengthAdjust="spacing" textLength="48.6" x="1460.25" y="318.1456">is sent to</text><text fill="#000000" font-family="sans-serif" font-size="11.7" lengthAdjust="spacing" textLength="6.3" x="1424.8084" y="330.0645">1</text><text fill="#000000" font-family="sans-serif" font-size="11.7" lengthAdjust="spacing" textLength="4.5" x="1553.4589" y="355.4971">*</text><!--MD5=[fdfe1f7a1d4f9a6f0814f21c5f7b0d38]
link ClinicalAnalysisLaboratory to Company--><path codeLine="55" d="M3521.691,600.156 C3513.303,719.901 3473.883,1016.1 3289.05,1016.1 C1983.15,1016.1 1983.15,1016.1 1983.15,1016.1 C1904.31,1016.1 661.788,789.084 585.9,767.7 C545.787,756.396 533.916,755.613 498.6,733.5 C483.264,723.897 468.279,710.388 456.642,698.679 " fill="none" id="ClinicalAnalysisLaboratory-Company" style="stroke:#A80036;stroke-width:0.9;"/><polygon fill="#000000" points="1972.7977,1002.6136,1964.5763,1000.2315,1964.7463,1005.5188,1972.7977,1002.6136" style="stroke:#000000;stroke-width:0.9;"/><text fill="#000000" font-family="sans-serif" font-size="11.7" lengthAdjust="spacing" textLength="27" x="1976.4" y="1007.5456">owns</text><text fill="#000000" font-family="sans-serif" font-size="11.7" lengthAdjust="spacing" textLength="4.5" x="3516.5318" y="619.2038">*</text><text fill="#000000" font-family="sans-serif" font-size="11.7" lengthAdjust="spacing" textLength="6.3" x="454.4963" y="717.4269">1</text><!--MD5=[6495f60a88b066bf0994b6815c6a96c6]
link Laboratory to ChemicalLaboratory--><path codeLine="57" d="M1115.829,304.2 C1161.036,304.2 1235.349,304.2 1288.602,304.2 " fill="none" id="Laboratory-ChemicalLaboratory" style="stroke:#A80036;stroke-width:0.9;"/><polygon fill="#000000" points="1197,296.2582,1205.1406,298.9032,1205.1406,293.6132,1197,296.2582" style="stroke:#000000;stroke-width:0.9;"/><text fill="#000000" font-family="sans-serif" font-size="11.7" lengthAdjust="spacing" textLength="18.9" x="1209.6" y="301.0456">is a</text><text fill="#000000" font-family="sans-serif" font-size="11.7" lengthAdjust="spacing" textLength="6.3" x="1122.8302" y="317.5183">1</text><text fill="#000000" font-family="sans-serif" font-size="11.7" lengthAdjust="spacing" textLength="6.3" x="1275.3206" y="317.0885">1</text><!--MD5=[98f82590f5f631bfe55e6520882022d0]
link Laboratory to ClinicalAnalysisLaboratory--><path codeLine="59" d="M1115.775,288.981 C1187.19,263.106 1342.251,213.3 1477.8,213.3 C1477.8,213.3 1477.8,213.3 3289.05,213.3 C3427.902,213.3 3491.361,408.123 3513.834,501.723 " fill="none" id="Laboratory-ClinicalAnalysisLaboratory" style="stroke:#A80036;stroke-width:0.9;"/><polygon fill="#000000" points="2340.9176,204.9606,2348.7926,208.3146,2349.2601,203.0452,2340.9176,204.9606" style="stroke:#000000;stroke-width:0.9;"/><text fill="#000000" font-family="sans-serif" font-size="11.7" lengthAdjust="spacing" textLength="18.9" x="2353.5" y="210.1456">is a</text><text fill="#000000" font-family="sans-serif" font-size="11.7" lengthAdjust="spacing" textLength="6.3" x="1122.7676" y="299.8738">1</text><text fill="#000000" font-family="sans-serif" font-size="11.7" lengthAdjust="spacing" textLength="6.3" x="3505.6304" y="491.9168">1</text><!--MD5=[7144ffdeebbe38808f7fb2ce8ac24f7d]
link Administrator to ParameterCategory--><path codeLine="61" d="M867.636,707.958 C908.28,706.077 967.662,703.323 1012.329,701.262 " fill="none" id="Administrator-ParameterCategory" style="stroke:#A80036;stroke-width:0.9;"/><polygon fill="#000000" points="917.1048,694.2662,925.359,696.5321,925.1144,691.2477,917.1048,694.2662" style="stroke:#000000;stroke-width:0.9;"/><text fill="#000000" font-family="sans-serif" font-size="11.7" lengthAdjust="spacing" textLength="54.9" x="929.7" y="698.8456">created by</text><text fill="#000000" font-family="sans-serif" font-size="11.7" lengthAdjust="spacing" textLength="6.3" x="874.7286" y="720.8371">1</text><text fill="#000000" font-family="sans-serif" font-size="11.7" lengthAdjust="spacing" textLength="4.5" x="1000.7228" y="714.5497">*</text><!--MD5=[49f9c994ab9013da19f25c37bbd596b3]
link SpecialistDoctor to Result--><path codeLine="63" d="M2412.036,641.781 C2420.964,643.995 2430.18,645.894 2439,647.1 C2474.667,651.96 2484.009,647.946 2520,647.1 C2528.838,646.893 2538.441,646.497 2547.198,646.083 " fill="none" id="SpecialistDoctor-Result" style="stroke:#A80036;stroke-width:0.9;"/><polygon fill="#000000" points="2441.2523,639.015,2449.3046,641.9177,2449.4729,636.6303,2441.2523,639.015" style="stroke:#000000;stroke-width:0.9;"/><text fill="#000000" font-family="sans-serif" font-size="11.7" lengthAdjust="spacing" textLength="63" x="2453.85" y="643.9456">analyzed by</text><text fill="#000000" font-family="sans-serif" font-size="11.7" lengthAdjust="spacing" textLength="6.3" x="2419.1152" y="656.9263">1</text><text fill="#000000" font-family="sans-serif" font-size="11.7" lengthAdjust="spacing" textLength="6.3" x="2533.8851" y="660.0934">1</text><!--MD5=[98994e1502641fa381021dffe882d56a]
link ClinicalChemistryTechnologist to Sample--><path codeLine="65" d="M2770.065,314.91 C2515.851,322.362 1795.716,343.458 1632.789,348.228 " fill="none" id="ClinicalChemistryTechnologist-Sample" style="stroke:#A80036;stroke-width:0.9;"/><polygon fill="#000000" points="2207.6981,321.3264,2199.4835,318.9209,2199.6384,324.2087,2207.6981,321.3264" style="stroke:#000000;stroke-width:0.9;"/><text fill="#000000" font-family="sans-serif" font-size="11.7" lengthAdjust="spacing" textLength="63" x="2211.3" y="326.2456">analyzed by</text><text fill="#000000" font-family="sans-serif" font-size="11.7" lengthAdjust="spacing" textLength="4.5" x="2758.4918" y="327.8188">*</text><text fill="#000000" font-family="sans-serif" font-size="11.7" lengthAdjust="spacing" textLength="18" x="1639.9008" y="361.4435">1..*</text><!--MD5=[502b51bc079239060389dab43b7d3470]
link Client to Test--><path codeLine="67" d="M3060.369,813.249 C3051.648,826.299 3041.046,838.701 3028.5,847.8 C2966.517,892.719 2937.645,888.3 2861.1,888.3 C2478.6,888.3 2478.6,888.3 2478.6,888.3 C2260.701,888.3 2017.971,784.368 1905.12,729.558 " fill="none" id="Client-Test" style="stroke:#A80036;stroke-width:0.9;"/><polygon fill="#000000" points="2447.9882,879.7833,2440.0601,876.557,2439.6778,881.8333,2447.9882,879.7833" style="stroke:#000000;stroke-width:0.9;"/><text fill="#000000" font-family="sans-serif" font-size="11.7" lengthAdjust="spacing" textLength="67.5" x="2451.6" y="884.2456">requested by</text><text fill="#000000" font-family="sans-serif" font-size="11.7" lengthAdjust="spacing" textLength="6.3" x="3050.8956" y="832.1231">1</text><text fill="#000000" font-family="sans-serif" font-size="11.7" lengthAdjust="spacing" textLength="4.5" x="1912.0624" y="745.8757">*</text><!--MD5=[7048eb257bae2750d747ca61a113ed73]
link Client to Receptionist--><path codeLine="69" d="M3130.371,708.408 C3171.789,666.801 3237.561,600.723 3269.151,568.989 " fill="none" id="Client-Receptionist" style="stroke:#A80036;stroke-width:0.9;"/><polygon fill="#000000" points="3158.5253,619.8475,3166.143,615.944,3162.3937,612.212,3158.5253,619.8475" style="stroke:#000000;stroke-width:0.9;"/><text fill="#000000" font-family="sans-serif" font-size="11.7" lengthAdjust="spacing" textLength="45" x="3169.8" y="621.4456">registers</text><text fill="#000000" font-family="sans-serif" font-size="11.7" lengthAdjust="spacing" textLength="4.5" x="3137.4552" y="715.3358">*</text><text fill="#000000" font-family="sans-serif" font-size="11.7" lengthAdjust="spacing" textLength="18" x="3243.6263" y="588.0004">1..*</text><!--MD5=[b097d9d314264888b7dbeddc95343863]
link LabOrder to Client--><path codeLine="71" d="M77.661,944.244 C114.804,963.135 177.813,990 235.8,990 C235.8,990 235.8,990 1479.6,990 C1929.663,990 2028.537,824.4 2478.6,824.4 C2478.6,824.4 2478.6,824.4 2861.1,824.4 C2932.92,824.4 3010.833,789.678 3055.293,766.215 " fill="none" id="LabOrder-Client" style="stroke:#A80036;stroke-width:0.9;"/><polygon fill="#000000" points="1453.492,981.7896,1445.2081,979.6352,1445.5238,984.9158,1453.492,981.7896" style="stroke:#000000;stroke-width:0.9;"/><text fill="#000000" font-family="sans-serif" font-size="11.7" lengthAdjust="spacing" textLength="54.9" x="1457.1" y="986.8456">brought by</text><text fill="#000000" font-family="sans-serif" font-size="11.7" lengthAdjust="spacing" textLength="6.3" x="79.9141" y="963.5621">1</text><text fill="#000000" font-family="sans-serif" font-size="11.7" lengthAdjust="spacing" textLength="4.5" x="3043.7024" y="783.4396">*</text><!--MD5=[727b58dfd932e2fbda2a273f174e2308]
link LabOrder to Receptionist--><path codeLine="73" d="M55.791,944.361 C81.423,985.122 150.255,1080 235.8,1080 C235.8,1080 235.8,1080 3003.75,1080 C3240.873,1080 3280.437,662.067 3286.305,569.016 " fill="none" id="LabOrder-Receptionist" style="stroke:#A80036;stroke-width:0.9;"/><polygon fill="#000000" points="1570.9801,1072.5776,1579.3715,1074.2654,1578.761,1069.0107,1570.9801,1072.5776" style="stroke:#000000;stroke-width:0.9;"/><text fill="#000000" font-family="sans-serif" font-size="11.7" lengthAdjust="spacing" textLength="42.3" x="1583.55" y="1076.8456">receives</text><text fill="#000000" font-family="sans-serif" font-size="11.7" lengthAdjust="spacing" textLength="6.3" x="51.7864" y="963.3918">1</text><text fill="#000000" font-family="sans-serif" font-size="11.7" lengthAdjust="spacing" textLength="18" x="3288.2279" y="588.0347">1..*</text><!--MD5=[84a279e28ad6c3248737114c29c49c27]
link LabOrder to Test--><path codeLine="75" d="M45.603,907.956 C49.131,832.806 73.224,549.9 235.8,549.9 C235.8,549.9 235.8,549.9 952.2,549.9 C1264.356,549.9 1630.116,639.441 1775.205,678.609 " fill="none" id="LabOrder-Test" style="stroke:#A80036;stroke-width:0.9;"/><polygon fill="#000000" points="778.989,542.5497,787.4067,544.1017,786.7113,538.8576,778.989,542.5497" style="stroke:#000000;stroke-width:0.9;"/><text fill="#000000" font-family="sans-serif" font-size="11.7" lengthAdjust="spacing" textLength="69.3" x="791.55" y="546.7456">is associated</text><text fill="#000000" font-family="sans-serif" font-size="11.7" lengthAdjust="spacing" textLength="6.3" x="38.8192" y="898.3033">1</text><text fill="#000000" font-family="sans-serif" font-size="11.7" lengthAdjust="spacing" textLength="6.3" x="1761.893" y="689.6726">1</text><!--MD5=[fba3ac294f3c76c431d275cef443fef8]
link LabOrder to TestType--><path codeLine="77" d="M82.017,916.848 C113.877,908.883 159.849,897.39 193.23,889.038 " fill="none" id="LabOrder-TestType" style="stroke:#A80036;stroke-width:0.9;"/><polygon fill="#000000" points="117.7656,887.3665,109.2265,886.7754,110.5098,891.9074,117.7656,887.3665" style="stroke:#000000;stroke-width:0.9;"/><text fill="#000000" font-family="sans-serif" font-size="11.7" lengthAdjust="spacing" textLength="44.1" x="121.5" y="893.2456">contains</text><text fill="#000000" font-family="sans-serif" font-size="11.7" lengthAdjust="spacing" textLength="6.3" x="89.0754" y="928.6681">1</text><text fill="#000000" font-family="sans-serif" font-size="11.7" lengthAdjust="spacing" textLength="6.3" x="180.0827" y="903.8593">1</text><!--MD5=[8a0bab72ab0281f8a9e78a6f98e5652c]
link Result to ClinicalChemistryTechnologist--><path codeLine="79" d="M2594.223,626.31 C2643.012,568.512 2794.788,388.719 2843.838,330.615 " fill="none" id="Result-ClinicalChemistryTechnologist" style="stroke:#A80036;stroke-width:0.9;"/><polygon fill="#000000" points="2661.9972,453.5968,2669.2695,449.0825,2665.2272,445.6701,2661.9972,453.5968" style="stroke:#000000;stroke-width:0.9;"/><text fill="#000000" font-family="sans-serif" font-size="11.7" lengthAdjust="spacing" textLength="45" x="2673" y="454.9456">registers</text><text fill="#000000" font-family="sans-serif" font-size="11.7" lengthAdjust="spacing" textLength="4.5" x="2593.8129" y="616.6731">*</text><text fill="#000000" font-family="sans-serif" font-size="11.7" lengthAdjust="spacing" textLength="18" x="2819.022" y="349.6603">1..*</text><!--MD5=[d14b4c18c397fa0293924715644730ec]
link Result to Notification--><path codeLine="81" d="M2608.686,647.073 C2658.996,651.591 2760.993,660.762 2818.134,665.901 " fill="none" id="Result-Notification" style="stroke:#A80036;stroke-width:0.9;"/><polygon fill="#000000" points="2645.0819,642.2611,2637.2109,638.8978,2636.7372,644.1667,2645.0819,642.2611" style="stroke:#000000;stroke-width:0.9;"/><text fill="#000000" font-family="sans-serif" font-size="11.7" lengthAdjust="spacing" textLength="93.6" x="2648.7" y="646.6456">is associated with</text><text fill="#000000" font-family="sans-serif" font-size="11.7" lengthAdjust="spacing" textLength="4.5" x="2615.8798" y="661.4129">*</text><text fill="#000000" font-family="sans-serif" font-size="11.7" lengthAdjust="spacing" textLength="18" x="2793.272" y="678.5383">1..*</text><!--MD5=[e509fed78cd7f855333fe9c80fc7ea15]
link DiagnosisReport to SpecialistDoctor--><path codeLine="83" d="M2171.934,628.047 C2211.183,627.318 2263.338,626.337 2302.146,625.608 " fill="none" id="DiagnosisReport-SpecialistDoctor" style="stroke:#A80036;stroke-width:0.9;"/><polygon fill="#000000" points="2207.7008,617.6425,2215.8895,620.1346,2215.7904,614.8455,2207.7008,617.6425" style="stroke:#000000;stroke-width:0.9;"/><text fill="#000000" font-family="sans-serif" font-size="11.7" lengthAdjust="spacing" textLength="45" x="2220.3" y="622.3456">registers</text><text fill="#000000" font-family="sans-serif" font-size="11.7" lengthAdjust="spacing" textLength="6.3" x="2178.8812" y="640.9216">1</text><text fill="#000000" font-family="sans-serif" font-size="11.7" lengthAdjust="spacing" textLength="6.3" x="2288.7646" y="638.7822">1</text><!--MD5=[91dc3644f358c08f88b60791b947d3a3]
link DiagnosisReport to Client--><path codeLine="85" d="M2136.015,647.145 C2151.837,660.159 2175.084,676.809 2198.7,684.9 C2515.194,793.377 2930.967,762.066 3055.311,749.349 " fill="none" id="DiagnosisReport-Client" style="stroke:#A80036;stroke-width:0.9;"/><polygon fill="#000000" points="2555.9724,746.7554,2548.174,743.2271,2547.5895,748.4848,2555.9724,746.7554" style="stroke:#000000;stroke-width:0.9;"/><text fill="#000000" font-family="sans-serif" font-size="11.7" lengthAdjust="spacing" textLength="48.6" x="2559.6" y="751.0456">is sent to</text><text fill="#000000" font-family="sans-serif" font-size="11.7" lengthAdjust="spacing" textLength="6.3" x="2134.7395" y="666.4353">1</text><text fill="#000000" font-family="sans-serif" font-size="11.7" lengthAdjust="spacing" textLength="6.3" x="3042.0176" y="763.4966">1</text><!--MD5=[e83232b12920152899b3d956169a0d16]
link DiagnosisReport to LaboratoryCoordinator--><path codeLine="87" d="M2069.847,611.01 C2001.15,583.677 1864.161,532.161 1743.3,504.9 C1429.497,434.124 1044.819,405.882 890.307,396.864 " fill="none" id="DiagnosisReport-LaboratoryCoordinator" style="stroke:#A80036;stroke-width:0.9;"/><polygon fill="#000000" points="1458.3776,444.662,1450.8405,440.6054,1449.8955,445.8104,1458.3776,444.662" style="stroke:#000000;stroke-width:0.9;"/><text fill="#000000" font-family="sans-serif" font-size="11.7" lengthAdjust="spacing" textLength="45" x="1462.05" y="448.6456">validates</text><text fill="#000000" font-family="sans-serif" font-size="11.7" lengthAdjust="spacing" textLength="4.5" x="2051.4224" y="601.3731">*</text><text fill="#000000" font-family="sans-serif" font-size="11.7" lengthAdjust="spacing" textLength="6.3" x="897.275" y="410.0506">1</text><!--MD5=[b25b37dde2866fd853924cb818679535]
link NHSReport to Result--><path codeLine="89" d="M2399.994,568.737 C2443.122,587.16 2509.164,615.366 2547.252,631.629 " fill="none" id="NHSReport-Result" style="stroke:#A80036;stroke-width:0.9;"/><polygon fill="#000000" points="2447.4616,576.1908,2453.9091,581.8206,2455.9869,576.9556,2447.4616,576.1908" style="stroke:#000000;stroke-width:0.9;"/><text fill="#000000" font-family="sans-serif" font-size="11.7" lengthAdjust="spacing" textLength="51.3" x="2459.7" y="582.7456">generates</text><text fill="#000000" font-family="sans-serif" font-size="11.7" lengthAdjust="spacing" textLength="18" x="2406.9673" y="584.2816">1..*</text><text fill="#000000" font-family="sans-serif" font-size="11.7" lengthAdjust="spacing" textLength="6.3" x="2533.9502" y="642.6582">1</text><!--MD5=[5853f8747c18e89b10dd024359cfe8ec]
link NHSReport to NHS--><path codeLine="91" d="M2399.994,553.734 C2444.859,556.866 2514.528,561.726 2551.716,564.327 " fill="none" id="NHSReport-NHS" style="stroke:#A80036;stroke-width:0.9;"/><polygon fill="#000000" points="2457.4391,548.5716,2449.5025,545.366,2449.134,550.6433,2457.4391,548.5716" style="stroke:#000000;stroke-width:0.9;"/><text fill="#000000" font-family="sans-serif" font-size="11.7" lengthAdjust="spacing" textLength="48.6" x="2461.05" y="553.0456">is sent to</text><text fill="#000000" font-family="sans-serif" font-size="11.7" lengthAdjust="spacing" textLength="18" x="2406.9673" y="567.2626">1..*</text><text fill="#000000" font-family="sans-serif" font-size="11.7" lengthAdjust="spacing" textLength="6.3" x="2538.5978" y="577.7642">1</text><!--MD5=[7a9e3e328fb1db48284e23a673c1e60d]
link ParameterCategory to Parameter--><path codeLine="93" d="M1137.609,697.995 C1191.051,697.653 1266.786,697.158 1312.542,696.861 " fill="none" id="ParameterCategory-Parameter" style="stroke:#A80036;stroke-width:0.9;"/><polygon fill="#000000" points="1164.6001,688.6874,1172.7576,691.2796,1172.7234,685.9896,1164.6001,688.6874" style="stroke:#000000;stroke-width:0.9;"/><text fill="#000000" font-family="sans-serif" font-size="11.7" lengthAdjust="spacing" textLength="83.7" x="1177.2" y="693.4456">presented under</text><text fill="#000000" font-family="sans-serif" font-size="11.7" lengthAdjust="spacing" textLength="6.3" x="1144.7959" y="710.9253">1</text><text fill="#000000" font-family="sans-serif" font-size="11.7" lengthAdjust="spacing" textLength="4.5" x="1300.9436" y="710.3052">*</text><!--MD5=[4265453a012991a726928e22789b8a83]
link Parameter to Test--><path codeLine="95" d="M1393.749,696.6 C1477.584,696.6 1673.316,696.6 1775.106,696.6 " fill="none" id="Parameter-Test" style="stroke:#A80036;stroke-width:0.9;"/><polygon fill="#000000" points="1539.9,688.6582,1548.0406,691.3032,1548.0406,686.0132,1539.9,688.6582" style="stroke:#000000;stroke-width:0.9;"/><text fill="#000000" font-family="sans-serif" font-size="11.7" lengthAdjust="spacing" textLength="104.4" x="1552.5" y="693.4456">requests analysis of</text><text fill="#000000" font-family="sans-serif" font-size="11.7" lengthAdjust="spacing" textLength="18" x="1400.7239" y="709.8115">1..*</text><text fill="#000000" font-family="sans-serif" font-size="11.7" lengthAdjust="spacing" textLength="4.5" x="1763.6766" y="709.5189">*</text><!--MD5=[6d9eb9a083ac0654c8b63743033752d3]
link TestType to Company--><path codeLine="97" d="M272.889,841.401 C312.363,800.01 375.21,734.112 409.05,698.634 " fill="none" id="TestType-Company" style="stroke:#A80036;stroke-width:0.9;"/><polygon fill="#000000" points="308.2943,740.5146,315.8267,736.4492,311.9985,732.7982,308.2943,740.5146" style="stroke:#000000;stroke-width:0.9;"/><text fill="#000000" font-family="sans-serif" font-size="11.7" lengthAdjust="spacing" textLength="47.7" x="319.5" y="742.0456">conducts</text><text fill="#000000" font-family="sans-serif" font-size="11.7" lengthAdjust="spacing" textLength="4.5" x="274.2223" y="831.6152">*</text><text fill="#000000" font-family="sans-serif" font-size="11.7" lengthAdjust="spacing" textLength="6.3" x="396.7453" y="717.7722">1</text><!--MD5=[c2c6b28b052a3fe86d789b83a09b2815]
link TestType to Test--><path codeLine="99" d="M280.206,895.086 C319.203,908.838 378.819,926.1 432.45,926.1 C432.45,926.1 432.45,926.1 1214.1,926.1 C1458.711,926.1 1530.9,896.229 1743.3,774.9 C1754.028,768.771 1764.774,761.445 1774.989,753.768 " fill="none" id="TestType-Test" style="stroke:#A80036;stroke-width:0.9;"/><polygon fill="#000000" points="933.77,918.5817,942.1234,920.4488,941.6255,915.1823,933.77,918.5817" style="stroke:#000000;stroke-width:0.9;"/><text fill="#000000" font-family="sans-serif" font-size="11.7" lengthAdjust="spacing" textLength="21.6" x="946.35" y="922.9456">is of</text><text fill="#000000" font-family="sans-serif" font-size="11.7" lengthAdjust="spacing" textLength="6.3" x="287.0586" y="910.7956">1</text><text fill="#000000" font-family="sans-serif" font-size="11.7" lengthAdjust="spacing" textLength="4.5" x="1763.5476" y="772.5824">*</text><!--MD5=[0985ee834cc881275852ed47ce1e01f6]
link TestType to Administrator--><path codeLine="101" d="M279.918,866.16 C385.956,835.488 662.454,755.514 772.893,723.564 " fill="none" id="TestType-Administrator" style="stroke:#A80036;stroke-width:0.9;"/><polygon fill="#000000" points="502.8272,779.0086,511.3822,779.2875,509.9122,774.2057,502.8272,779.0086" style="stroke:#000000;stroke-width:0.9;"/><text fill="#000000" font-family="sans-serif" font-size="11.7" lengthAdjust="spacing" textLength="38.7" x="515.25" y="782.5456">creates</text><text fill="#000000" font-family="sans-serif" font-size="11.7" lengthAdjust="spacing" textLength="4.5" x="287.1645" y="877.5629">*</text><text fill="#000000" font-family="sans-serif" font-size="11.7" lengthAdjust="spacing" textLength="6.3" x="759.4764" y="738.6377">1</text><!--MD5=[9163865a413f55935f47e026f9eaa033]
link Test to Result--><path codeLine="103" d="M1905.219,693.639 C2010.96,688.644 2228.256,677.817 2412,665.1 C2460.051,661.77 2472.318,662.94 2520,656.1 C2528.919,654.822 2538.549,653.013 2547.306,651.204 " fill="none" id="Test-Result" style="stroke:#A80036;stroke-width:0.9;"/><polygon fill="#000000" points="2224.7902,664.9614,2216.4929,662.859,2216.8418,668.1376,2224.7902,664.9614" style="stroke:#000000;stroke-width:0.9;"/><text fill="#000000" font-family="sans-serif" font-size="11.7" lengthAdjust="spacing" textLength="28.8" x="2228.4" y="670.0456">has a</text><text fill="#000000" font-family="sans-serif" font-size="11.7" lengthAdjust="spacing" textLength="6.3" x="1911.9442" y="706.2313">1</text><text fill="#000000" font-family="sans-serif" font-size="11.7" lengthAdjust="spacing" textLength="6.3" x="2534.0154" y="666.2706">1</text><!--MD5=[150ee6e4dbb30ab82336f9e174f6c4ed]
link Test to Company--><path codeLine="105" d="M1775.088,733.365 C1728.117,756.882 1661.94,783 1599.75,783 C819.45,783 819.45,783 819.45,783 C687.582,783 539.568,723.168 471.798,692.208 " fill="none" id="Test-Company" style="stroke:#A80036;stroke-width:0.9;"/><polygon fill="#000000" points="1054.7978,775.2002,1046.7447,772.2996,1046.5778,777.587,1054.7978,775.2002" style="stroke:#000000;stroke-width:0.9;"/><text fill="#000000" font-family="sans-serif" font-size="11.7" lengthAdjust="spacing" textLength="45" x="1058.4" y="779.8456">performs</text><text fill="#000000" font-family="sans-serif" font-size="11.7" lengthAdjust="spacing" textLength="4.5" x="1763.6568" y="750.0753">*</text><text fill="#000000" font-family="sans-serif" font-size="11.7" lengthAdjust="spacing" textLength="6.3" x="478.6877" y="708.5837">1</text><!--MD5=[ca29482912e344ebd5dc9db2d1c2ccab]
link Test to ClinicalAnalysisLaboratory--><path codeLine="107" d="M1898.676,764.757 C1969.641,840.474 2097.783,952.2 2236.05,952.2 C2236.05,952.2 2236.05,952.2 3289.05,952.2 C3450.537,952.2 3503.07,707.202 3518.325,600.021 " fill="none" id="Test-ClinicalAnalysisLaboratory" style="stroke:#A80036;stroke-width:0.9;"/><polygon fill="#000000" points="2660.4231,944.7136,2668.7895,946.5213,2668.2542,941.2584,2660.4231,944.7136" style="stroke:#000000;stroke-width:0.9;"/><text fill="#000000" font-family="sans-serif" font-size="11.7" lengthAdjust="spacing" textLength="45" x="2673" y="949.0456">performs</text><text fill="#000000" font-family="sans-serif" font-size="11.7" lengthAdjust="spacing" textLength="4.5" x="1899.197" y="783.6407">*</text><text fill="#000000" font-family="sans-serif" font-size="11.7" lengthAdjust="spacing" textLength="4.5" x="3512.7007" y="619.4055">*</text><!--MD5=[10af4306acabee641eea198ac06587b8]
link Test to Receptionist--><path codeLine="109" d="M1905.111,645.831 C1915.362,639.018 1926.126,632.574 1936.8,627.3 C2159.991,517.014 2229.642,485.1 2478.6,485.1 C2478.6,485.1 2478.6,485.1 3093.75,485.1 C3153.177,485.1 3217.671,513.225 3255.165,532.674 " fill="none" id="Test-Receptionist" style="stroke:#A80036;stroke-width:0.9;"/><polygon fill="#000000" points="2548.8157,477.5341,2557.1488,479.4899,2556.7069,474.2183,2548.8157,477.5341" style="stroke:#000000;stroke-width:0.9;"/><text fill="#000000" font-family="sans-serif" font-size="11.7" lengthAdjust="spacing" textLength="45" x="2561.4" y="481.9456">registers</text><text fill="#000000" font-family="sans-serif" font-size="11.7" lengthAdjust="spacing" textLength="4.5" x="1912.0524" y="653.5144">*</text><text fill="#000000" font-family="sans-serif" font-size="11.7" lengthAdjust="spacing" textLength="18" x="3224.8319" y="523.0266">1..*</text><!--MD5=[5fda545c79585d17c4a435a79f76ac33]
link Test to DiagnosisReport--><path codeLine="111" d="M1904.994,680.778 C1951.434,669.303 2013.633,653.931 2058.093,642.942 " fill="none" id="Test-DiagnosisReport" style="stroke:#A80036;stroke-width:0.9;"/><polygon fill="#000000" points="1936.9314,643.8378,1945.4688,644.4526,1944.1997,639.317,1936.9314,643.8378" style="stroke:#000000;stroke-width:0.9;"/><text fill="#000000" font-family="sans-serif" font-size="11.7" lengthAdjust="spacing" textLength="81" x="1949.4" y="647.5456">associated with</text><text fill="#000000" font-family="sans-serif" font-size="11.7" lengthAdjust="spacing" textLength="6.3" x="1912.0162" y="676.1803">1</text><text fill="#000000" font-family="sans-serif" font-size="11.7" lengthAdjust="spacing" textLength="6.3" x="2044.8489" y="657.5389">1</text><!--MD5=[1ae83efc6d1967ce5bc17dfe294d00c2]
link Sample to Test--><path codeLine="113" d="M1616.562,373.509 C1643.391,412.308 1697.517,490.635 1743.3,557.1 C1759.302,580.329 1776.78,605.754 1792.377,628.461 " fill="none" id="Sample-Test" style="stroke:#A80036;stroke-width:0.9;"/><polygon fill="#000000" points="1688.9953,465.3537,1691.4393,473.5568,1695.7942,470.5537,1688.9953,465.3537" style="stroke:#000000;stroke-width:0.9;"/><text fill="#000000" font-family="sans-serif" font-size="11.7" lengthAdjust="spacing" textLength="40.5" x="1699.65" y="473.8456">collects</text><text fill="#000000" font-family="sans-serif" font-size="11.7" lengthAdjust="spacing" textLength="4.5" x="1615.4443" y="392.598">*</text><text fill="#000000" font-family="sans-serif" font-size="11.7" lengthAdjust="spacing" textLength="6.3" x="1781.0741" y="618.8198">1</text><!--MD5=[cb5e86f6614a99551e1d9ce6f0ae5849]
link Sample to MedicalLabTechnician--><path codeLine="115" d="M1625.499,324.873 C1654.911,296.712 1704.033,248.517 1743.3,204.3 C1774.377,169.299 1807.758,125.793 1825.767,101.772 " fill="none" id="Sample-MedicalLabTechnician" style="stroke:#A80036;stroke-width:0.9;"/><polygon fill="#000000" points="1686.294,199.7069,1693.7002,195.4159,1689.7636,191.8821,1686.294,199.7069" style="stroke:#000000;stroke-width:0.9;"/><text fill="#000000" font-family="sans-serif" font-size="11.7" lengthAdjust="spacing" textLength="45" x="1697.4" y="201.1456">registers</text><text fill="#000000" font-family="sans-serif" font-size="11.7" lengthAdjust="spacing" textLength="18" x="1611.8009" y="314.9905">1..*</text><text fill="#000000" font-family="sans-serif" font-size="11.7" lengthAdjust="spacing" textLength="18" x="1801.2187" y="121.0699">1..*</text><!--MD5=[c1a9c7f16ec55f9c4038f73c31b8becd]
link Notification to Client--><path codeLine="117" d="M2902.221,681.786 C2936.223,692.01 2985.696,707.247 3028.5,721.8 C3037.284,724.788 3046.689,728.154 3055.491,731.394 " fill="none" id="Notification-Client" style="stroke:#A80036;stroke-width:0.9;"/><polygon fill="#000000" points="2985.9813,698.1439,2979.0508,693.1206,2977.4218,698.1536,2985.9813,698.1439" style="stroke:#000000;stroke-width:0.9;"/><text fill="#000000" font-family="sans-serif" font-size="11.7" lengthAdjust="spacing" textLength="37.8" x="2989.8" y="701.5456">informs</text><text fill="#000000" font-family="sans-serif" font-size="11.7" lengthAdjust="spacing" textLength="18" x="2909.3958" y="696.68">1..*</text><text fill="#000000" font-family="sans-serif" font-size="11.7" lengthAdjust="spacing" textLength="4.5" x="3043.6881" y="742.3767">*</text><!--MD5=[6c7098315b0c19edc22f5063535acd32]
@startuml
hide methods
skinparam classAttributeIconSize 0
left to right direction

class Company
class Laboratory
class ChemicalLaboratory
class ClinicalAnalysisLaboratory
class LaboratoryCoordinator
class Employee
class Administrator
class SpecialistDoctor
class ClinicalChemistryTechnologist
class MedicalLabTechnician
class Receptionist
class Client
class LabOrder
class Result
class DiagnosisReport
class NHSReport
class ParameterCategory
class Parameter
class TestType
class Test
class Notification
class NHS
class Sample

Company "1" - - "*" Parameter : > capable of analysing

Company "1" - - "*" Employee : < works for

Employee "*" - - "1" Administrator : < is a

Employee "*" - - "*" ClinicalChemistryTechnologist : < is a

Employee "*" - - "1..*" Receptionist : < is a

Employee "*" - - "*" MedicalLabTechnician : < is a

Employee "*" - - "1..*" LaboratoryCoordinator: < is a

ClinicalChemistryTechnologist "*" - - "1" ChemicalLaboratory : > works at

MedicalLabTechnician "1..*" - - "*" ClinicalAnalysisLaboratory : > works at

Receptionist "1..*" - - "*" ClinicalAnalysisLaboratory : > works at

LaboratoryCoordinator "1..*" - - "*" Laboratory: > works at a

ChemicalLaboratory "1" - - "1" Company : < owns

ChemicalLaboratory "1" - - "*" Sample : < is sent to

ClinicalAnalysisLaboratory "*" - - "1" Company : < owns

Laboratory "1"  - - "1" ChemicalLaboratory: < is a

Laboratory "1"  - - "1" ClinicalAnalysisLaboratory: < is a

Administrator "1" - - "*" ParameterCategory : < created by

SpecialistDoctor "1" - - "1" Result : < analyzed by

ClinicalChemistryTechnologist "*" - - "1..*" Sample : < analyzed by

Client "1" - - "*" Test : < requested by

Client "*" - - "1..*" Receptionist : < registers

LabOrder "1" - - "*" Client : > brought by

LabOrder "1" - - "1..*" Receptionist : < receives

LabOrder "1" - - "1" Test : < is associated

LabOrder "1" - - "1" TestType : > contains

Result "*" - - "1..*" ClinicalChemistryTechnologist : < registers

Result "*" - - "1..*" Notification : > is associated with

DiagnosisReport "1" - - "1" SpecialistDoctor : < registers

DiagnosisReport "1" - - "1" Client : > is sent to

DiagnosisReport "*" - - "1" LaboratoryCoordinator : < validates

NHSReport "1..*" - - "1" Result : < generates

NHSReport "1..*" - - "1" NHS : > is sent to

ParameterCategory "1" - - "*" Parameter : < presented under

Parameter "1..*" - - "*" Test : < requests analysis of

TestType "*" - - "1" Company : < conducts

TestType "1" - - "*" Test: < is of

TestType "*" - - "1" Administrator : < creates

Test "1" - - "1" Result : > has a

Test "*" - - "1" Company : < performs

Test "*" - - "*" ClinicalAnalysisLaboratory : < performs

Test "*" - - "1..*" Receptionist : < registers

Test "1" - - "1" DiagnosisReport : < associated with

Sample "*" - - "1" Test : < collects

Sample "1..*" - - "1..*" MedicalLabTechnician : < registers

Notification "1..*" - - "*" Client : > informs

class Company{
-designation
}

class ChemicalLaboratory{
-name
-address
-phoneNumber
-TIN
}

class ClinicalAnalysisLaboratory{
-name
-address
-phoneNumber
-labID
-TIN
}

class Employee{
-name
-address
-phoneNumber
-employeeID
-orgRole
-email
-SOCcode
}

class Administrator{
}

class SpecialistDoctor{
-doctorIndex
}

class ClinicalChemistryTechnologist{
}

class MedicalLabTechnician{
}

class Receptionist{
}

class Client{
-citizenID
-nhsID
-birthDate
-sex
-TIN
-phoneNumber
-email
-name
}

class LabOrder{
}

class Result{
}

class DiagnosisReport{
}

class ParameterCategory{
-code
-description
-nhsID
}

class Parameter{
-designation
-description
-code
}

class TestType{
-code
-description
-collectingMethod
}

class Test{
-description
-internalCode
-nhsCode
-collectingMethod
-collectDateTime
-chemicalAnalysisDateTime
-diagnosisDateTime
-validationDateTime
}

class Sample{
-barcode
}

@enduml

PlantUML version 1.2021.4(Sun Apr 04 09:49:39 BST 2021)
(GPL source distribution)
Java Runtime: OpenJDK Runtime Environment
JVM: OpenJDK 64-Bit Server VM
Default Encoding: Cp1252
Language: pt
Country: PT
--></g></svg>