<?xml version="1.0" encoding="UTF-8" standalone="no"?><svg xmlns="http://www.w3.org/2000/svg" xmlns:xlink="http://www.w3.org/1999/xlink" contentScriptType="application/ecmascript" contentStyleType="text/css" height="301px" preserveAspectRatio="none" style="width:946px;height:301px;" version="1.1" viewBox="0 0 946 301" width="946px" zoomAndPan="magnify"><defs><filter height="300%" id="frri5g7hckclx" width="300%" x="-1" y="-1"><feGaussianBlur result="blurOut" stdDeviation="2.0"/><feColorMatrix in="blurOut" result="blurOut2" type="matrix" values="0 0 0 0 0 0 0 0 0 0 0 0 0 0 0 0 0 0 .4 0"/><feOffset dx="4.0" dy="4.0" in="blurOut2" result="blurOut3"/><feBlend in="SourceGraphic" in2="blurOut3" mode="normal"/></filter></defs><g><!--MD5=[da547346deef918ea16944ba046651ef]
class Administrator--><rect codeLine="19" fill="#FEFECE" filter="url(#frri5g7hckclx)" height="129.6328" id="Administrator" style="stroke:#A80036;stroke-width:1.5;" width="116" x="210" y="7"/><ellipse cx="225" cy="23" fill="#ADD1B2" rx="11" ry="11" style="stroke:#A80036;stroke-width:1.0;"/><path d="M227.9688,28.6406 Q227.3906,28.9375 226.75,29.0781 Q226.1094,29.2344 225.4063,29.2344 Q222.9063,29.2344 221.5781,27.5938 Q220.2656,25.9375 220.2656,22.8125 Q220.2656,19.6875 221.5781,18.0313 Q222.9063,16.375 225.4063,16.375 Q226.1094,16.375 226.75,16.5313 Q227.4063,16.6875 227.9688,16.9844 L227.9688,19.7031 Q227.3438,19.125 226.75,18.8594 Q226.1563,18.5781 225.5313,18.5781 Q224.1875,18.5781 223.5,19.6563 Q222.8125,20.7188 222.8125,22.8125 Q222.8125,24.9063 223.5,25.9844 Q224.1875,27.0469 225.5313,27.0469 Q226.1563,27.0469 226.75,26.7813 Q227.3438,26.5 227.9688,25.9219 L227.9688,28.6406 Z " fill="#000000"/><text fill="#000000" font-family="sans-serif" font-size="12" lengthAdjust="spacingAndGlyphs" textLength="84" x="239" y="27.1543">Administrator</text><line style="stroke:#A80036;stroke-width:1.5;" x1="211" x2="325" y1="39" y2="39"/><text fill="#000000" font-family="sans-serif" font-size="11" lengthAdjust="spacingAndGlyphs" textLength="36" x="216" y="53.2104">-name</text><text fill="#000000" font-family="sans-serif" font-size="11" lengthAdjust="spacingAndGlyphs" textLength="44" x="216" y="66.0151">-adress</text><text fill="#000000" font-family="sans-serif" font-size="11" lengthAdjust="spacingAndGlyphs" textLength="84" x="216" y="78.8198">-phoneNumber</text><text fill="#000000" font-family="sans-serif" font-size="11" lengthAdjust="spacingAndGlyphs" textLength="70" x="216" y="91.6245">-employeeID</text><text fill="#000000" font-family="sans-serif" font-size="11" lengthAdjust="spacingAndGlyphs" textLength="47" x="216" y="104.4292">-orgRole</text><text fill="#000000" font-family="sans-serif" font-size="11" lengthAdjust="spacingAndGlyphs" textLength="35" x="216" y="117.2339">-email</text><text fill="#000000" font-family="sans-serif" font-size="11" lengthAdjust="spacingAndGlyphs" textLength="50" x="216" y="130.0386">-SOCode</text><!--MD5=[adfb4dd37d8b60bab588a28dbde9d3a0]
class ChemicalAnalysisLaboratory--><rect codeLine="29" fill="#FEFECE" filter="url(#frri5g7hckclx)" height="104.0234" id="ChemicalAnalysisLaboratory" style="stroke:#A80036;stroke-width:1.5;" width="205" x="485" y="120"/><ellipse cx="500" cy="136" fill="#ADD1B2" rx="11" ry="11" style="stroke:#A80036;stroke-width:1.0;"/><path d="M502.9688,141.6406 Q502.3906,141.9375 501.75,142.0781 Q501.1094,142.2344 500.4063,142.2344 Q497.9063,142.2344 496.5781,140.5938 Q495.2656,138.9375 495.2656,135.8125 Q495.2656,132.6875 496.5781,131.0313 Q497.9063,129.375 500.4063,129.375 Q501.1094,129.375 501.75,129.5313 Q502.4063,129.6875 502.9688,129.9844 L502.9688,132.7031 Q502.3438,132.125 501.75,131.8594 Q501.1563,131.5781 500.5313,131.5781 Q499.1875,131.5781 498.5,132.6563 Q497.8125,133.7188 497.8125,135.8125 Q497.8125,137.9063 498.5,138.9844 Q499.1875,140.0469 500.5313,140.0469 Q501.1563,140.0469 501.75,139.7813 Q502.3438,139.5 502.9688,138.9219 L502.9688,141.6406 Z " fill="#000000"/><text fill="#000000" font-family="sans-serif" font-size="12" lengthAdjust="spacingAndGlyphs" textLength="173" x="514" y="140.1543">ChemicalAnalysisLaboratory</text><line style="stroke:#A80036;stroke-width:1.5;" x1="486" x2="689" y1="152" y2="152"/><text fill="#000000" font-family="sans-serif" font-size="11" lengthAdjust="spacingAndGlyphs" textLength="36" x="491" y="166.2104">-name</text><text fill="#000000" font-family="sans-serif" font-size="11" lengthAdjust="spacingAndGlyphs" textLength="51" x="491" y="179.0151">-address</text><text fill="#000000" font-family="sans-serif" font-size="11" lengthAdjust="spacingAndGlyphs" textLength="84" x="491" y="191.8198">-phoneNumber</text><text fill="#000000" font-family="sans-serif" font-size="11" lengthAdjust="spacingAndGlyphs" textLength="22" x="491" y="204.6245">-TIN</text><text fill="#000000" font-family="sans-serif" font-size="11" lengthAdjust="spacingAndGlyphs" textLength="32" x="491" y="217.4292">-labID</text><!--MD5=[aeb3272166074d8737a70b61b1e71682]
class TestType--><rect codeLine="37" fill="#FEFECE" filter="url(#frri5g7hckclx)" height="78.4141" id="TestType" style="stroke:#A80036;stroke-width:1.5;" width="110" x="822" y="209"/><ellipse cx="846.9" cy="225" fill="#ADD1B2" rx="11" ry="11" style="stroke:#A80036;stroke-width:1.0;"/><path d="M849.8688,230.6406 Q849.2906,230.9375 848.65,231.0781 Q848.0094,231.2344 847.3063,231.2344 Q844.8063,231.2344 843.4781,229.5938 Q842.1656,227.9375 842.1656,224.8125 Q842.1656,221.6875 843.4781,220.0313 Q844.8063,218.375 847.3063,218.375 Q848.0094,218.375 848.65,218.5313 Q849.3063,218.6875 849.8688,218.9844 L849.8688,221.7031 Q849.2438,221.125 848.65,220.8594 Q848.0563,220.5781 847.4313,220.5781 Q846.0875,220.5781 845.4,221.6563 Q844.7125,222.7188 844.7125,224.8125 Q844.7125,226.9063 845.4,227.9844 Q846.0875,229.0469 847.4313,229.0469 Q848.0563,229.0469 848.65,228.7813 Q849.2438,228.5 849.8688,227.9219 L849.8688,230.6406 Z " fill="#000000"/><text fill="#000000" font-family="sans-serif" font-size="12" lengthAdjust="spacingAndGlyphs" textLength="56" x="863.1" y="229.1543">TestType</text><line style="stroke:#A80036;stroke-width:1.5;" x1="823" x2="931" y1="241" y2="241"/><text fill="#000000" font-family="sans-serif" font-size="11" lengthAdjust="spacingAndGlyphs" textLength="31" x="828" y="255.2104">-code</text><text fill="#000000" font-family="sans-serif" font-size="11" lengthAdjust="spacingAndGlyphs" textLength="67" x="828" y="268.0151">-description</text><text fill="#000000" font-family="sans-serif" font-size="11" lengthAdjust="spacingAndGlyphs" textLength="98" x="828" y="280.8198">-collectingMethod</text><!--MD5=[02e4b9b7573f1156f41e60aa5b4e25a4]
class Company--><rect codeLine="14" fill="#FEFECE" filter="url(#frri5g7hckclx)" height="52.8047" id="Company" style="stroke:#A80036;stroke-width:1.5;" width="89" x="7" y="162.5"/><ellipse cx="22" cy="178.5" fill="#ADD1B2" rx="11" ry="11" style="stroke:#A80036;stroke-width:1.0;"/><path d="M24.9688,184.1406 Q24.3906,184.4375 23.75,184.5781 Q23.1094,184.7344 22.4063,184.7344 Q19.9063,184.7344 18.5781,183.0938 Q17.2656,181.4375 17.2656,178.3125 Q17.2656,175.1875 18.5781,173.5313 Q19.9063,171.875 22.4063,171.875 Q23.1094,171.875 23.75,172.0313 Q24.4063,172.1875 24.9688,172.4844 L24.9688,175.2031 Q24.3438,174.625 23.75,174.3594 Q23.1563,174.0781 22.5313,174.0781 Q21.1875,174.0781 20.5,175.1563 Q19.8125,176.2188 19.8125,178.3125 Q19.8125,180.4063 20.5,181.4844 Q21.1875,182.5469 22.5313,182.5469 Q23.1563,182.5469 23.75,182.2813 Q24.3438,182 24.9688,181.4219 L24.9688,184.1406 Z " fill="#000000"/><text fill="#000000" font-family="sans-serif" font-size="12" lengthAdjust="spacingAndGlyphs" textLength="57" x="36" y="182.6543">Company</text><line style="stroke:#A80036;stroke-width:1.5;" x1="8" x2="95" y1="194.5" y2="194.5"/><text fill="#000000" font-family="sans-serif" font-size="11" lengthAdjust="spacingAndGlyphs" textLength="70" x="13" y="208.7104">-designation</text><!--MD5=[23bf5e192d52bfc47aa715997c04da94]
link Administrator to ChemicalAnalysisLaboratory--><path codeLine="5" d="M326.2297,90.2253 C370.4172,104.0555 432.2989,123.4238 484.7472,139.8395 " fill="none" id="Administrator-ChemicalAnalysisLaboratory" style="stroke:#A80036;stroke-width:1.0;"/><polygon fill="#000000" points="356.2283,92.0729,363.9826,97.5794,365.7383,91.9699,356.2283,92.0729" style="stroke:#000000;stroke-width:1.0;"/><text fill="#000000" font-family="sans-serif" font-size="13" lengthAdjust="spacingAndGlyphs" textLength="84" x="370" y="98.0669">registered by</text><text fill="#000000" font-family="sans-serif" font-size="13" lengthAdjust="spacingAndGlyphs" textLength="8" x="333.8139" y="105.4579">1</text><text fill="#000000" font-family="sans-serif" font-size="13" lengthAdjust="spacingAndGlyphs" textLength="7" x="469.9443" y="150.0994">*</text><!--MD5=[32ea2e58b5e4512c9ce7fa55f23a8a9b]
link ChemicalAnalysisLaboratory to TestType--><path codeLine="6" d="M690.382,199.0087 C734.7502,210.6563 784.8604,223.8114 821.9752,233.5548 " fill="none" id="ChemicalAnalysisLaboratory-TestType" style="stroke:#A80036;stroke-width:1.0;"/><polygon fill="#000000" points="729.8361,200.836,721.8337,195.6967,720.3412,201.3819,729.8361,200.836" style="stroke:#000000;stroke-width:1.0;"/><text fill="#000000" font-family="sans-serif" font-size="13" lengthAdjust="spacingAndGlyphs" textLength="57" x="734" y="204.0669">operates</text><text fill="#000000" font-family="sans-serif" font-size="13" lengthAdjust="spacingAndGlyphs" textLength="8" x="697.8971" y="213.5058">1</text><text fill="#000000" font-family="sans-serif" font-size="13" lengthAdjust="spacingAndGlyphs" textLength="7" x="807.1109" y="244.6695">*</text><!--MD5=[eaea43e34e45c5b9d20b595fc78f1f20]
link Company to Administrator--><path codeLine="8" d="M96.0964,164.8994 C129.023,147.1053 174.1358,122.7257 209.8852,103.4061 " fill="none" id="Company-Administrator" style="stroke:#A80036;stroke-width:1.0;"/><polygon fill="#000000" points="135.3988,110.1892,126.0441,111.904,128.8386,117.0751,135.3988,110.1892" style="stroke:#000000;stroke-width:1.0;"/><text fill="#000000" font-family="sans-serif" font-size="13" lengthAdjust="spacingAndGlyphs" textLength="39" x="140" y="117.0669">knows</text><text fill="#000000" font-family="sans-serif" font-size="13" lengthAdjust="spacingAndGlyphs" textLength="8" x="104.1452" y="174.244">1</text><text fill="#000000" font-family="sans-serif" font-size="13" lengthAdjust="spacingAndGlyphs" textLength="8" x="193.9267" y="120.4899">1</text><!--MD5=[cfa558c2fafc10a4bb8b59ae6baefad8]
link Company to ChemicalAnalysisLaboratory--><path codeLine="9" d="M96.2771,187.5798 C181.1941,184.8866 367.6051,178.9743 484.8066,175.2571 " fill="none" id="Company-ChemicalAnalysisLaboratory" style="stroke:#A80036;stroke-width:1.0;"/><polygon fill="#000000" points="254.4975,172.4079,245.3638,169.7572,245.5501,175.6321,254.4975,172.4079" style="stroke:#000000;stroke-width:1.0;"/><text fill="#000000" font-family="sans-serif" font-size="13" lengthAdjust="spacingAndGlyphs" textLength="32" x="258.5" y="177.0669">owns</text><text fill="#000000" font-family="sans-serif" font-size="13" lengthAdjust="spacingAndGlyphs" textLength="8" x="104.051" y="191.9465">1</text><text fill="#000000" font-family="sans-serif" font-size="13" lengthAdjust="spacingAndGlyphs" textLength="7" x="470.008" y="188.118">*</text><!--MD5=[742a261f27a3dcd734c626287d811acd]
link Company to TestType--><path codeLine="10" d="M96.2821,196.0713 C174.7729,208.1072 342.4128,232.2202 485,242 C604.8505,250.2203 745.7739,249.9577 821.7422,249.0018 " fill="none" id="Company-TestType" style="stroke:#A80036;stroke-width:1.0;"/><polygon fill="#000000" points="378.9867,221.9302,370.1795,218.3409,369.7518,224.2032,378.9867,221.9302" style="stroke:#000000;stroke-width:1.0;"/><text fill="#000000" font-family="sans-serif" font-size="13" lengthAdjust="spacingAndGlyphs" textLength="58" x="383" y="226.0669">conducts</text><text fill="#000000" font-family="sans-serif" font-size="13" lengthAdjust="spacingAndGlyphs" textLength="8" x="104.0567" y="210.4866">1</text><text fill="#000000" font-family="sans-serif" font-size="13" lengthAdjust="spacingAndGlyphs" textLength="7" x="806.8466" y="262.1922">*</text><!--MD5=[6a03d905c2eb886fbbe4e27e369aed6f]
@startuml
hide methods
left to right direction


Administrator "1" - - "*" ChemicalAnalysisLaboratory : < registered by
ChemicalAnalysisLaboratory "1" - - "*" TestType : > operates 

Company "1" - - "1" Administrator : > knows
Company "1" - - "*" ChemicalAnalysisLaboratory : > owns
Company "1" - - "*" TestType : > conducts

skinparam classAttributeIconSize 0

class Company{
-designation
}


class Administrator{
-name
-adress
-phoneNumber
-employeeID
-orgRole
-email
-SOCode
}

class ChemicalAnalysisLaboratory{
-name
-address
-phoneNumber
-TIN
-labID
}

class TestType{
-code
-description
-collectingMethod
}
@enduml

PlantUML version 1.2020.22(Sun Dec 06 09:36:27 UTC 2020)
(GPL source distribution)
Java Runtime: OpenJDK Runtime Environment
JVM: OpenJDK 64-Bit Server VM
Default Encoding: UTF-8
Language: en
Country: US
--></g></svg>