<?xml version="1.0" encoding="UTF-8" standalone="no"?><svg xmlns="http://www.w3.org/2000/svg" xmlns:xlink="http://www.w3.org/1999/xlink" contentScriptType="application/ecmascript" contentStyleType="text/css" height="483px" preserveAspectRatio="none" style="width:596px;height:483px;" version="1.1" viewBox="0 0 596 483" width="596px" zoomAndPan="magnify"><defs><filter height="300%" id="fywvwlo151iji" width="300%" x="-1" y="-1"><feGaussianBlur result="blurOut" stdDeviation="2.0"/><feColorMatrix in="blurOut" result="blurOut2" type="matrix" values="0 0 0 0 0 0 0 0 0 0 0 0 0 0 0 0 0 0 .4 0"/><feOffset dx="4.0" dy="4.0" in="blurOut2" result="blurOut3"/><feBlend in="SourceGraphic" in2="blurOut3" mode="normal"/></filter></defs><g><rect fill="#FFFFFF" filter="url(#fywvwlo151iji)" height="283.3281" style="stroke:#A80036;stroke-width:1.0;" width="10" x="48.5" y="98.2969"/><rect fill="#FFFFFF" filter="url(#fywvwlo151iji)" height="29.1328" style="stroke:#A80036;stroke-width:1.0;" width="10" x="544.5" y="119.4297"/><rect fill="#FFFFFF" filter="url(#fywvwlo151iji)" height="29.1328" style="stroke:#A80036;stroke-width:1.0;" width="10" x="544.5" y="177.6953"/><rect fill="#FFFFFF" filter="url(#fywvwlo151iji)" height="29.1328" style="stroke:#A80036;stroke-width:1.0;" width="10" x="544.5" y="235.9609"/><rect fill="#FFFFFF" filter="url(#fywvwlo151iji)" height="29.1328" style="stroke:#A80036;stroke-width:1.0;" width="10" x="544.5" y="294.2266"/><rect fill="#FFFFFF" filter="url(#fywvwlo151iji)" height="29.1328" style="stroke:#A80036;stroke-width:1.0;" width="10" x="544.5" y="352.4922"/><line style="stroke:#A80036;stroke-width:1.0;stroke-dasharray:5.0,5.0;" x1="53" x2="53" y1="88.2969" y2="399.625"/><line style="stroke:#A80036;stroke-width:1.0;stroke-dasharray:5.0,5.0;" x1="549.5" x2="549.5" y1="88.2969" y2="399.625"/><text fill="#000000" font-family="sans-serif" font-size="14" lengthAdjust="spacingAndGlyphs" textLength="91" x="5" y="84.9951">Administrator</text><ellipse cx="53.5" cy="15" fill="#FEFECE" filter="url(#fywvwlo151iji)" rx="8" ry="8" style="stroke:#A80036;stroke-width:2.0;"/><path d="M53.5,23 L53.5,50 M40.5,31 L66.5,31 M53.5,50 L40.5,65 M53.5,50 L66.5,65 " fill="none" filter="url(#fywvwlo151iji)" style="stroke:#A80036;stroke-width:2.0;"/><text fill="#000000" font-family="sans-serif" font-size="14" lengthAdjust="spacingAndGlyphs" textLength="91" x="5" y="411.6201">Administrator</text><ellipse cx="53.5" cy="424.9219" fill="#FEFECE" filter="url(#fywvwlo151iji)" rx="8" ry="8" style="stroke:#A80036;stroke-width:2.0;"/><path d="M53.5,432.9219 L53.5,459.9219 M40.5,440.9219 L66.5,440.9219 M53.5,459.9219 L40.5,474.9219 M53.5,459.9219 L66.5,474.9219 " fill="none" filter="url(#fywvwlo151iji)" style="stroke:#A80036;stroke-width:2.0;"/><rect fill="#FEFECE" filter="url(#fywvwlo151iji)" height="30.2969" style="stroke:#A80036;stroke-width:1.5;" width="70" x="512.5" y="53"/><text fill="#000000" font-family="sans-serif" font-size="14" lengthAdjust="spacingAndGlyphs" textLength="56" x="519.5" y="72.9951">:System</text><rect fill="#FEFECE" filter="url(#fywvwlo151iji)" height="30.2969" style="stroke:#A80036;stroke-width:1.5;" width="70" x="512.5" y="398.625"/><text fill="#000000" font-family="sans-serif" font-size="14" lengthAdjust="spacingAndGlyphs" textLength="56" x="519.5" y="418.6201">:System</text><rect fill="#FFFFFF" filter="url(#fywvwlo151iji)" height="283.3281" style="stroke:#A80036;stroke-width:1.0;" width="10" x="48.5" y="98.2969"/><rect fill="#FFFFFF" filter="url(#fywvwlo151iji)" height="29.1328" style="stroke:#A80036;stroke-width:1.0;" width="10" x="544.5" y="119.4297"/><rect fill="#FFFFFF" filter="url(#fywvwlo151iji)" height="29.1328" style="stroke:#A80036;stroke-width:1.0;" width="10" x="544.5" y="177.6953"/><rect fill="#FFFFFF" filter="url(#fywvwlo151iji)" height="29.1328" style="stroke:#A80036;stroke-width:1.0;" width="10" x="544.5" y="235.9609"/><rect fill="#FFFFFF" filter="url(#fywvwlo151iji)" height="29.1328" style="stroke:#A80036;stroke-width:1.0;" width="10" x="544.5" y="294.2266"/><rect fill="#FFFFFF" filter="url(#fywvwlo151iji)" height="29.1328" style="stroke:#A80036;stroke-width:1.0;" width="10" x="544.5" y="352.4922"/><polygon fill="#A80036" points="532.5,115.4297,542.5,119.4297,532.5,123.4297,536.5,119.4297" style="stroke:#A80036;stroke-width:1.0;"/><line style="stroke:#A80036;stroke-width:1.0;" x1="58.5" x2="538.5" y1="119.4297" y2="119.4297"/><text fill="#000000" font-family="sans-serif" font-size="13" font-weight="bold" lengthAdjust="spacingAndGlyphs" textLength="9" x="65.5" y="114.3638">1</text><text fill="#000000" font-family="sans-serif" font-size="13" lengthAdjust="spacingAndGlyphs" textLength="424" x="78.5" y="114.3638">Starts the proccess of registering a new clinical analysis laboratory</text><polygon fill="#A80036" points="69.5,144.5625,59.5,148.5625,69.5,152.5625,65.5,148.5625" style="stroke:#A80036;stroke-width:1.0;"/><line style="stroke:#A80036;stroke-width:1.0;stroke-dasharray:2.0,2.0;" x1="63.5" x2="548.5" y1="148.5625" y2="148.5625"/><text fill="#000000" font-family="sans-serif" font-size="13" font-weight="bold" lengthAdjust="spacingAndGlyphs" textLength="9" x="75.5" y="143.4966">2</text><text fill="#000000" font-family="sans-serif" font-size="13" lengthAdjust="spacingAndGlyphs" textLength="165" x="88.5" y="143.4966">Requests data (i.e., labID)</text><polygon fill="#A80036" points="532.5,173.6953,542.5,177.6953,532.5,181.6953,536.5,177.6953" style="stroke:#A80036;stroke-width:1.0;"/><line style="stroke:#A80036;stroke-width:1.0;" x1="58.5" x2="538.5" y1="177.6953" y2="177.6953"/><text fill="#000000" font-family="sans-serif" font-size="13" font-weight="bold" lengthAdjust="spacingAndGlyphs" textLength="9" x="65.5" y="172.6294">3</text><text fill="#000000" font-family="sans-serif" font-size="13" lengthAdjust="spacingAndGlyphs" textLength="139" x="78.5" y="172.6294">Types requested data</text><polygon fill="#A80036" points="69.5,202.8281,59.5,206.8281,69.5,210.8281,65.5,206.8281" style="stroke:#A80036;stroke-width:1.0;"/><line style="stroke:#A80036;stroke-width:1.0;stroke-dasharray:2.0,2.0;" x1="63.5" x2="548.5" y1="206.8281" y2="206.8281"/><text fill="#000000" font-family="sans-serif" font-size="13" font-weight="bold" lengthAdjust="spacingAndGlyphs" textLength="9" x="75.5" y="201.7622">4</text><text fill="#000000" font-family="sans-serif" font-size="13" lengthAdjust="spacingAndGlyphs" textLength="309" x="88.5" y="201.7622">Shows requested data and asks for confirmation</text><polygon fill="#A80036" points="532.5,231.9609,542.5,235.9609,532.5,239.9609,536.5,235.9609" style="stroke:#A80036;stroke-width:1.0;"/><line style="stroke:#A80036;stroke-width:1.0;" x1="58.5" x2="538.5" y1="235.9609" y2="235.9609"/><text fill="#000000" font-family="sans-serif" font-size="13" font-weight="bold" lengthAdjust="spacingAndGlyphs" textLength="9" x="65.5" y="230.895">5</text><text fill="#000000" font-family="sans-serif" font-size="13" lengthAdjust="spacingAndGlyphs" textLength="115" x="78.5" y="230.895">Confirms the data</text><polygon fill="#A80036" points="69.5,261.0938,59.5,265.0938,69.5,269.0938,65.5,265.0938" style="stroke:#A80036;stroke-width:1.0;"/><line style="stroke:#A80036;stroke-width:1.0;stroke-dasharray:2.0,2.0;" x1="63.5" x2="548.5" y1="265.0938" y2="265.0938"/><text fill="#000000" font-family="sans-serif" font-size="13" font-weight="bold" lengthAdjust="spacingAndGlyphs" textLength="9" x="75.5" y="260.0278">6</text><text fill="#000000" font-family="sans-serif" font-size="13" lengthAdjust="spacingAndGlyphs" textLength="449" x="88.5" y="260.0278">Shows list with test types and asks to select the ones the lab operates</text><polygon fill="#A80036" points="532.5,290.2266,542.5,294.2266,532.5,298.2266,536.5,294.2266" style="stroke:#A80036;stroke-width:1.0;"/><line style="stroke:#A80036;stroke-width:1.0;" x1="58.5" x2="538.5" y1="294.2266" y2="294.2266"/><text fill="#000000" font-family="sans-serif" font-size="13" font-weight="bold" lengthAdjust="spacingAndGlyphs" textLength="9" x="65.5" y="289.1606">7</text><text fill="#000000" font-family="sans-serif" font-size="13" lengthAdjust="spacingAndGlyphs" textLength="210" x="78.5" y="289.1606">Selects corresponding test types</text><polygon fill="#A80036" points="69.5,319.3594,59.5,323.3594,69.5,327.3594,65.5,323.3594" style="stroke:#A80036;stroke-width:1.0;"/><line style="stroke:#A80036;stroke-width:1.0;stroke-dasharray:2.0,2.0;" x1="63.5" x2="548.5" y1="323.3594" y2="323.3594"/><text fill="#000000" font-family="sans-serif" font-size="13" font-weight="bold" lengthAdjust="spacingAndGlyphs" textLength="9" x="75.5" y="318.2935">8</text><text fill="#000000" font-family="sans-serif" font-size="13" lengthAdjust="spacingAndGlyphs" textLength="333" x="88.5" y="318.2935">Shows selected test types and asks for confirmation</text><polygon fill="#A80036" points="532.5,348.4922,542.5,352.4922,532.5,356.4922,536.5,352.4922" style="stroke:#A80036;stroke-width:1.0;"/><line style="stroke:#A80036;stroke-width:1.0;" x1="58.5" x2="538.5" y1="352.4922" y2="352.4922"/><text fill="#000000" font-family="sans-serif" font-size="13" font-weight="bold" lengthAdjust="spacingAndGlyphs" textLength="9" x="65.5" y="347.4263">9</text><text fill="#000000" font-family="sans-serif" font-size="13" lengthAdjust="spacingAndGlyphs" textLength="57" x="78.5" y="347.4263">Confirms</text><polygon fill="#A80036" points="64.5,377.625,54.5,381.625,64.5,385.625,60.5,381.625" style="stroke:#A80036;stroke-width:1.0;"/><line style="stroke:#A80036;stroke-width:1.0;stroke-dasharray:2.0,2.0;" x1="58.5" x2="548.5" y1="381.625" y2="381.625"/><text fill="#000000" font-family="sans-serif" font-size="13" font-weight="bold" lengthAdjust="spacingAndGlyphs" textLength="18" x="70.5" y="376.5591">10</text><text fill="#000000" font-family="sans-serif" font-size="13" lengthAdjust="spacingAndGlyphs" textLength="234" x="92.5" y="376.5591">Informs the success of the operation</text><!--MD5=[01f66e54b34ba9b78ae8272de51964b3]
@startuml
autonumber


actor "Administrator" as ADMIN

participant ":System" as SYST

activate ADMIN
ADMIN -> SYST : Starts the proccess of registering a new clinical analysis laboratory
activate SYST
SYST - -> ADMIN : Requests data (i.e., labID) 
deactivate SYST


ADMIN -> SYST : Types requested data
activate SYST
SYST - -> ADMIN : Shows requested data and asks for confirmation
deactivate SYST

ADMIN -> SYST : Confirms the data
activate SYST
SYST - -> ADMIN : Shows list with test types and asks to select the ones the lab operates
deactivate SYST

ADMIN -> SYST : Selects corresponding test types
activate SYST
SYST - -> ADMIN : Shows selected test types and asks for confirmation
deactivate SYST

ADMIN -> SYST : Confirms
activate SYST
SYST - -> ADMIN : Informs the success of the operation
deactivate SYST

deactivate ADMIN
@enduml

PlantUML version 1.2020.22(Sun Dec 06 09:36:27 UTC 2020)
(GPL source distribution)
Java Runtime: OpenJDK Runtime Environment
JVM: OpenJDK 64-Bit Server VM
Default Encoding: UTF-8
Language: en
Country: US
--></g></svg>