<?xml version="1.0" encoding="UTF-8" standalone="no"?><svg xmlns="http://www.w3.org/2000/svg" xmlns:xlink="http://www.w3.org/1999/xlink" contentScriptType="application/ecmascript" contentStyleType="text/css" height="329px" preserveAspectRatio="none" style="width:1246px;height:329px;" version="1.1" viewBox="0 0 1246 329" width="1246px" zoomAndPan="magnify"><defs><filter height="300%" id="f1j76ajpu1s8mc" width="300%" x="-1" y="-1"><feGaussianBlur result="blurOut" stdDeviation="2.0"/><feColorMatrix in="blurOut" result="blurOut2" type="matrix" values="0 0 0 0 0 0 0 0 0 0 0 0 0 0 0 0 0 0 .4 0"/><feOffset dx="4.0" dy="4.0" in="blurOut2" result="blurOut3"/><feBlend in="SourceGraphic" in2="blurOut3" mode="normal"/></filter></defs><g><!--MD5=[da547346deef918ea16944ba046651ef]
class Administrator--><rect codeLine="23" fill="#FEFECE" filter="url(#f1j76ajpu1s8mc)" height="129.6328" id="Administrator" style="stroke:#A80036;stroke-width:1.5;" width="116" x="453" y="93.5659"/><ellipse cx="468" cy="109.5659" fill="#ADD1B2" rx="11" ry="11" style="stroke:#A80036;stroke-width:1.0;"/><path d="M470.9688,115.2065 Q470.3906,115.5034 469.75,115.644 Q469.1094,115.8003 468.4063,115.8003 Q465.9063,115.8003 464.5781,114.1597 Q463.2656,112.5034 463.2656,109.3784 Q463.2656,106.2534 464.5781,104.5972 Q465.9063,102.9409 468.4063,102.9409 Q469.1094,102.9409 469.75,103.0972 Q470.4063,103.2534 470.9688,103.5503 L470.9688,106.269 Q470.3438,105.6909 469.75,105.4253 Q469.1563,105.144 468.5313,105.144 Q467.1875,105.144 466.5,106.2222 Q465.8125,107.2847 465.8125,109.3784 Q465.8125,111.4722 466.5,112.5503 Q467.1875,113.6128 468.5313,113.6128 Q469.1563,113.6128 469.75,113.3472 Q470.3438,113.0659 470.9688,112.4878 L470.9688,115.2065 Z " fill="#000000"/><text fill="#000000" font-family="sans-serif" font-size="12" lengthAdjust="spacingAndGlyphs" textLength="84" x="482" y="113.7202">Administrator</text><line style="stroke:#A80036;stroke-width:1.5;" x1="454" x2="568" y1="125.5659" y2="125.5659"/><text fill="#000000" font-family="sans-serif" font-size="11" lengthAdjust="spacingAndGlyphs" textLength="36" x="459" y="139.7764">-name</text><text fill="#000000" font-family="sans-serif" font-size="11" lengthAdjust="spacingAndGlyphs" textLength="44" x="459" y="152.5811">-adress</text><text fill="#000000" font-family="sans-serif" font-size="11" lengthAdjust="spacingAndGlyphs" textLength="84" x="459" y="165.3857">-phoneNumber</text><text fill="#000000" font-family="sans-serif" font-size="11" lengthAdjust="spacingAndGlyphs" textLength="70" x="459" y="178.1904">-employeeID</text><text fill="#000000" font-family="sans-serif" font-size="11" lengthAdjust="spacingAndGlyphs" textLength="47" x="459" y="190.9951">-orgRole</text><text fill="#000000" font-family="sans-serif" font-size="11" lengthAdjust="spacingAndGlyphs" textLength="35" x="459" y="203.7998">-email</text><text fill="#000000" font-family="sans-serif" font-size="11" lengthAdjust="spacingAndGlyphs" textLength="50" x="459" y="216.6045">-SOCode</text><!--MD5=[adfb4dd37d8b60bab588a28dbde9d3a0]
class ChemicalAnalysisLaboratory--><rect codeLine="33" fill="#FEFECE" filter="url(#f1j76ajpu1s8mc)" height="52.8047" id="ChemicalAnalysisLaboratory" style="stroke:#A80036;stroke-width:1.5;" width="205" x="728" y="205.0659"/><ellipse cx="743" cy="221.0659" fill="#ADD1B2" rx="11" ry="11" style="stroke:#A80036;stroke-width:1.0;"/><path d="M745.9688,226.7065 Q745.3906,227.0034 744.75,227.144 Q744.1094,227.3003 743.4063,227.3003 Q740.9063,227.3003 739.5781,225.6597 Q738.2656,224.0034 738.2656,220.8784 Q738.2656,217.7534 739.5781,216.0972 Q740.9063,214.4409 743.4063,214.4409 Q744.1094,214.4409 744.75,214.5972 Q745.4063,214.7534 745.9688,215.0503 L745.9688,217.769 Q745.3438,217.1909 744.75,216.9253 Q744.1563,216.644 743.5313,216.644 Q742.1875,216.644 741.5,217.7222 Q740.8125,218.7847 740.8125,220.8784 Q740.8125,222.9722 741.5,224.0503 Q742.1875,225.1128 743.5313,225.1128 Q744.1563,225.1128 744.75,224.8472 Q745.3438,224.5659 745.9688,223.9878 L745.9688,226.7065 Z " fill="#000000"/><text fill="#000000" font-family="sans-serif" font-size="12" lengthAdjust="spacingAndGlyphs" textLength="173" x="757" y="225.2202">ChemicalAnalysisLaboratory</text><line style="stroke:#A80036;stroke-width:1.5;" x1="729" x2="932" y1="237.0659" y2="237.0659"/><text fill="#000000" font-family="sans-serif" font-size="11" lengthAdjust="spacingAndGlyphs" textLength="32" x="734" y="251.2764">-labID</text><!--MD5=[df38be88ccee13e832d6fafd6288a4ca]
class Test--><rect codeLine="43" fill="#FEFECE" filter="url(#f1j76ajpu1s8mc)" height="142.4375" id="Test" style="stroke:#A80036;stroke-width:1.5;" width="167" x="1065" y="160.5659"/><ellipse cx="1130.75" cy="176.5659" fill="#ADD1B2" rx="11" ry="11" style="stroke:#A80036;stroke-width:1.0;"/><path d="M1133.7188,182.2065 Q1133.1406,182.5034 1132.5,182.644 Q1131.8594,182.8003 1131.1563,182.8003 Q1128.6563,182.8003 1127.3281,181.1597 Q1126.0156,179.5034 1126.0156,176.3784 Q1126.0156,173.2534 1127.3281,171.5972 Q1128.6563,169.9409 1131.1563,169.9409 Q1131.8594,169.9409 1132.5,170.0972 Q1133.1563,170.2534 1133.7188,170.5503 L1133.7188,173.269 Q1133.0938,172.6909 1132.5,172.4253 Q1131.9063,172.144 1131.2813,172.144 Q1129.9375,172.144 1129.25,173.2222 Q1128.5625,174.2847 1128.5625,176.3784 Q1128.5625,178.4722 1129.25,179.5503 Q1129.9375,180.6128 1131.2813,180.6128 Q1131.9063,180.6128 1132.5,180.3472 Q1133.0938,180.0659 1133.7188,179.4878 L1133.7188,182.2065 Z " fill="#000000"/><text fill="#000000" font-family="sans-serif" font-size="12" lengthAdjust="spacingAndGlyphs" textLength="27" x="1151.25" y="180.7202">Test</text><line style="stroke:#A80036;stroke-width:1.5;" x1="1066" x2="1231" y1="192.5659" y2="192.5659"/><text fill="#000000" font-family="sans-serif" font-size="11" lengthAdjust="spacingAndGlyphs" textLength="67" x="1071" y="206.7764">-description</text><text fill="#000000" font-family="sans-serif" font-size="11" lengthAdjust="spacingAndGlyphs" textLength="76" x="1071" y="219.5811">-internalCode</text><text fill="#000000" font-family="sans-serif" font-size="11" lengthAdjust="spacingAndGlyphs" textLength="54" x="1071" y="232.3857">-nhsCode</text><text fill="#000000" font-family="sans-serif" font-size="11" lengthAdjust="spacingAndGlyphs" textLength="81" x="1071" y="245.1904">-collectMethod</text><text fill="#000000" font-family="sans-serif" font-size="11" lengthAdjust="spacingAndGlyphs" textLength="94" x="1071" y="257.9951">-collectDateTime</text><text fill="#000000" font-family="sans-serif" font-size="11" lengthAdjust="spacingAndGlyphs" textLength="155" x="1071" y="270.7998">-chemicalAnalysisDateTime</text><text fill="#000000" font-family="sans-serif" font-size="11" lengthAdjust="spacingAndGlyphs" textLength="113" x="1071" y="283.6045">-diagnosisDateTime</text><text fill="#000000" font-family="sans-serif" font-size="11" lengthAdjust="spacingAndGlyphs" textLength="112" x="1071" y="296.4092">-validationDateTime</text><!--MD5=[02e4b9b7573f1156f41e60aa5b4e25a4]
class Company--><rect codeLine="18" fill="#FEFECE" filter="url(#f1j76ajpu1s8mc)" height="52.8047" id="Company" style="stroke:#A80036;stroke-width:1.5;" width="89" x="250" y="205.0659"/><ellipse cx="265" cy="221.0659" fill="#ADD1B2" rx="11" ry="11" style="stroke:#A80036;stroke-width:1.0;"/><path d="M267.9688,226.7065 Q267.3906,227.0034 266.75,227.144 Q266.1094,227.3003 265.4063,227.3003 Q262.9063,227.3003 261.5781,225.6597 Q260.2656,224.0034 260.2656,220.8784 Q260.2656,217.7534 261.5781,216.0972 Q262.9063,214.4409 265.4063,214.4409 Q266.1094,214.4409 266.75,214.5972 Q267.4063,214.7534 267.9688,215.0503 L267.9688,217.769 Q267.3438,217.1909 266.75,216.9253 Q266.1563,216.644 265.5313,216.644 Q264.1875,216.644 263.5,217.7222 Q262.8125,218.7847 262.8125,220.8784 Q262.8125,222.9722 263.5,224.0503 Q264.1875,225.1128 265.5313,225.1128 Q266.1563,225.1128 266.75,224.8472 Q267.3438,224.5659 267.9688,223.9878 L267.9688,226.7065 Z " fill="#000000"/><text fill="#000000" font-family="sans-serif" font-size="12" lengthAdjust="spacingAndGlyphs" textLength="57" x="279" y="225.2202">Company</text><line style="stroke:#A80036;stroke-width:1.5;" x1="251" x2="338" y1="237.0659" y2="237.0659"/><text fill="#000000" font-family="sans-serif" font-size="11" lengthAdjust="spacingAndGlyphs" textLength="70" x="256" y="251.2764">-designation</text><!--MD5=[aeb3272166074d8737a70b61b1e71682]
class TestType--><rect codeLine="37" fill="#FEFECE" filter="url(#f1j76ajpu1s8mc)" height="78.4141" id="TestType" style="stroke:#A80036;stroke-width:1.5;" width="110" x="7" y="51.5659"/><ellipse cx="31.9" cy="67.5659" fill="#ADD1B2" rx="11" ry="11" style="stroke:#A80036;stroke-width:1.0;"/><path d="M34.8688,73.2065 Q34.2906,73.5034 33.65,73.644 Q33.0094,73.8003 32.3063,73.8003 Q29.8063,73.8003 28.4781,72.1597 Q27.1656,70.5034 27.1656,67.3784 Q27.1656,64.2534 28.4781,62.5972 Q29.8063,60.9409 32.3063,60.9409 Q33.0094,60.9409 33.65,61.0972 Q34.3063,61.2534 34.8688,61.5503 L34.8688,64.269 Q34.2438,63.6909 33.65,63.4253 Q33.0563,63.144 32.4313,63.144 Q31.0875,63.144 30.4,64.2222 Q29.7125,65.2847 29.7125,67.3784 Q29.7125,69.4722 30.4,70.5503 Q31.0875,71.6128 32.4313,71.6128 Q33.0563,71.6128 33.65,71.3472 Q34.2438,71.0659 34.8688,70.4878 L34.8688,73.2065 Z " fill="#000000"/><text fill="#000000" font-family="sans-serif" font-size="12" lengthAdjust="spacingAndGlyphs" textLength="56" x="48.1" y="71.7202">TestType</text><line style="stroke:#A80036;stroke-width:1.5;" x1="8" x2="116" y1="83.5659" y2="83.5659"/><text fill="#000000" font-family="sans-serif" font-size="11" lengthAdjust="spacingAndGlyphs" textLength="31" x="13" y="97.7764">-code</text><text fill="#000000" font-family="sans-serif" font-size="11" lengthAdjust="spacingAndGlyphs" textLength="67" x="13" y="110.5811">-description</text><text fill="#000000" font-family="sans-serif" font-size="11" lengthAdjust="spacingAndGlyphs" textLength="98" x="13" y="123.3857">-collectingMethod</text><!--MD5=[23bf5e192d52bfc47aa715997c04da94]
link Administrator to ChemicalAnalysisLaboratory--><path codeLine="5" d="M569.2297,171.8704 C613.4172,181.9664 675.2989,196.1053 727.7472,208.0888 " fill="none" id="Administrator-ChemicalAnalysisLaboratory" style="stroke:#A80036;stroke-width:1.0;"/><polygon fill="#000000" points="599.1256,170.0186,607.2888,174.8984,608.5981,169.1682,599.1256,170.0186" style="stroke:#000000;stroke-width:1.0;"/><text fill="#000000" font-family="sans-serif" font-size="13" lengthAdjust="spacingAndGlyphs" textLength="84" x="613" y="175.6328">registered by</text><text fill="#000000" font-family="sans-serif" font-size="13" lengthAdjust="spacingAndGlyphs" textLength="8" x="576.8139" y="186.5033">1</text><text fill="#000000" font-family="sans-serif" font-size="13" lengthAdjust="spacingAndGlyphs" textLength="7" x="712.9443" y="218.9944">*</text><!--MD5=[804f915dafc30e0c0f3d580317b93e78]
link ChemicalAnalysisLaboratory to Test--><path codeLine="6" d="M933.3063,231.5659 C975.859,231.5659 1024.5742,231.5659 1064.8806,231.5659 " fill="none" id="ChemicalAnalysisLaboratory-Test" style="stroke:#A80036;stroke-width:1.0;"/><polygon fill="#000000" points="973,223.1323,963.9549,220.1934,963.9549,226.0713,973,223.1323" style="stroke:#000000;stroke-width:1.0;"/><text fill="#000000" font-family="sans-serif" font-size="13" lengthAdjust="spacingAndGlyphs" textLength="57" x="977" y="227.6328">operates</text><text fill="#000000" font-family="sans-serif" font-size="13" lengthAdjust="spacingAndGlyphs" textLength="8" x="941.1499" y="244.1956">1</text><text fill="#000000" font-family="sans-serif" font-size="13" lengthAdjust="spacingAndGlyphs" textLength="7" x="1050.1215" y="244.2872">*</text><!--MD5=[7e4bc624457760b649895ff2ead938fa]
link Company to Test--><path codeLine="8" d="M339.0631,252.6739 C348.7497,256.5317 359.073,260.1084 369,262.5659 C612.3859,322.8191 684.002,305.0138 933,275.5659 C976.8933,270.3749 1025.1505,260.8828 1064.8518,252.0403 " fill="none" id="Company-Test" style="stroke:#A80036;stroke-width:1.0;"/><polygon fill="#000000" points="622,292.128,612.9524,289.1969,612.9575,295.0748,622,292.128" style="stroke:#000000;stroke-width:1.0;"/><text fill="#000000" font-family="sans-serif" font-size="13" lengthAdjust="spacingAndGlyphs" textLength="58" x="626" y="296.6328">performs</text><text fill="#000000" font-family="sans-serif" font-size="13" lengthAdjust="spacingAndGlyphs" textLength="8" x="347.1064" y="269.5062">1</text><text fill="#000000" font-family="sans-serif" font-size="13" lengthAdjust="spacingAndGlyphs" textLength="7" x="1050.0902" y="266.5851">*</text><!--MD5=[cfa558c2fafc10a4bb8b59ae6baefad8]
link Company to ChemicalAnalysisLaboratory--><path codeLine="9" d="M339.3324,241.2812 C370.9322,247.6174 414.3379,255.2965 453,258.5659 C545.9701,266.4279 651.9501,257.2607 727.9021,247.5371 " fill="none" id="Company-ChemicalAnalysisLaboratory" style="stroke:#A80036;stroke-width:1.0;"/><polygon fill="#000000" points="497.4994,250.2128,488.5027,247.1287,488.4081,253.0058,497.4994,250.2128" style="stroke:#000000;stroke-width:1.0;"/><text fill="#000000" font-family="sans-serif" font-size="13" lengthAdjust="spacingAndGlyphs" textLength="32" x="501.5" y="254.6328">owns</text><text fill="#000000" font-family="sans-serif" font-size="13" lengthAdjust="spacingAndGlyphs" textLength="8" x="347.1151" y="256.1179">1</text><text fill="#000000" font-family="sans-serif" font-size="13" lengthAdjust="spacingAndGlyphs" textLength="7" x="713.1105" y="261.3397">*</text><!--MD5=[eaea43e34e45c5b9d20b595fc78f1f20]
link Company to Administrator--><path codeLine="10" d="M339.0964,216.5288 C372.023,205.4265 417.1358,190.2153 452.8852,178.1612 " fill="none" id="Company-Administrator" style="stroke:#A80036;stroke-width:1.0;"/><polygon fill="#000000" points="378.7379,177.5348,369.2279,177.6399,371.106,183.2096,378.7379,177.5348" style="stroke:#000000;stroke-width:1.0;"/><text fill="#000000" font-family="sans-serif" font-size="13" lengthAdjust="spacingAndGlyphs" textLength="39" x="383" y="183.6328">knows</text><text fill="#000000" font-family="sans-serif" font-size="13" lengthAdjust="spacingAndGlyphs" textLength="8" x="347.1452" y="227.3746">1</text><text fill="#000000" font-family="sans-serif" font-size="13" lengthAdjust="spacingAndGlyphs" textLength="8" x="436.9267" y="193.7317">1</text><!--MD5=[6d9eb9a083ac0654c8b63743033752d3]
link TestType to Company--><path codeLine="12" d="M117.0993,123.981 C157.9216,148.7377 212.8081,182.0237 250.6661,204.9828 " fill="none" id="TestType-Company" style="stroke:#A80036;stroke-width:1.0;"/><polygon fill="#000000" points="147.7248,132.5396,153.9348,139.7428,156.9827,134.717,147.7248,132.5396" style="stroke:#000000;stroke-width:1.0;"/><text fill="#000000" font-family="sans-serif" font-size="13" lengthAdjust="spacingAndGlyphs" textLength="58" x="161" y="139.6328">conducts</text><text fill="#000000" font-family="sans-serif" font-size="13" lengthAdjust="spacingAndGlyphs" textLength="7" x="124.9736" y="141.527">*</text><text fill="#000000" font-family="sans-serif" font-size="13" lengthAdjust="spacingAndGlyphs" textLength="8" x="234.1457" y="196.0079">1</text><!--MD5=[c2c6b28b052a3fe86d789b83a09b2815]
link TestType to Test--><path codeLine="13" d="M117.0949,65.2361 C163.4163,46.2629 231.9093,23.5659 294.5,23.5659 C294.5,23.5659 294.5,23.5659 830.5,23.5659 C933.0825,23.5659 1028.373,100.3099 1087.3812,160.5659 " fill="none" id="TestType-Test" style="stroke:#A80036;stroke-width:1.0;"/><polygon fill="#000000" points="490.524,14.6434,499.2383,18.4527,499.8131,12.603,490.524,14.6434" style="stroke:#000000;stroke-width:1.0;"/><text fill="#000000" font-family="sans-serif" font-size="13" lengthAdjust="spacingAndGlyphs" textLength="26" x="504.5" y="19.6328">is of</text><text fill="#000000" font-family="sans-serif" font-size="13" lengthAdjust="spacingAndGlyphs" textLength="8" x="125.0358" y="74.8882">1</text><text fill="#000000" font-family="sans-serif" font-size="13" lengthAdjust="spacingAndGlyphs" textLength="7" x="1073.7174" y="149.5218">*</text><!--MD5=[975fde49cb00fe0752697f5e1ca1d448]
@startuml
hide methods
left to right direction


Administrator "1" - - "*" ChemicalAnalysisLaboratory : < registered by
ChemicalAnalysisLaboratory "1" - - "*" Test : > operates 

Company "1" - - "*" Test : > performs
Company "1" - - "*" ChemicalAnalysisLaboratory : > owns
Company "1" - - "1" Administrator : > knows

TestType "*" - - "1" Company : < conducts
TestType "1" - - "*" Test: < is of


skinparam classAttributeIconSize 0

class Company{
-designation
}


class Administrator{
-name
-adress
-phoneNumber
-employeeID
-orgRole
-email
-SOCode
}

class ChemicalAnalysisLaboratory{
-labID
}

class TestType{
-code
-description
-collectingMethod
}

class Test{
-description
-internalCode
-nhsCode
-collectMethod
-collectDateTime
-chemicalAnalysisDateTime
-diagnosisDateTime
-validationDateTime
}
@enduml

PlantUML version 1.2020.22(Sun Dec 06 09:36:27 UTC 2020)
(GPL source distribution)
Java Runtime: OpenJDK Runtime Environment
JVM: OpenJDK 64-Bit Server VM
Default Encoding: UTF-8
Language: en
Country: US
--></g></svg>