<?xml version="1.0" encoding="UTF-8" standalone="no"?><svg xmlns="http://www.w3.org/2000/svg" xmlns:xlink="http://www.w3.org/1999/xlink" contentScriptType="application/ecmascript" contentStyleType="text/css" height="193px" preserveAspectRatio="none" style="width:1958px;height:193px;" version="1.1" viewBox="0 0 1958 193" width="1958px" zoomAndPan="magnify"><defs><filter height="300%" id="f1h4n7slxho8xc" width="300%" x="-1" y="-1"><feGaussianBlur result="blurOut" stdDeviation="2.0"/><feColorMatrix in="blurOut" result="blurOut2" type="matrix" values="0 0 0 0 0 0 0 0 0 0 0 0 0 0 0 0 0 0 .4 0"/><feOffset dx="4.0" dy="4.0" in="blurOut2" result="blurOut3"/><feBlend in="SourceGraphic" in2="blurOut3" mode="normal"/></filter></defs><g><!--MD5=[378b18254a1b2429f435e93f5e5cc50c]
class C--><rect codeLine="4" fill="#FEFECE" filter="url(#f1h4n7slxho8xc)" height="112.0234" id="C" style="stroke:#A80036;stroke-width:1.5;" width="262" x="716" y="48"/><ellipse cx="814.25" cy="64" fill="#ADD1B2" rx="11" ry="11" style="stroke:#A80036;stroke-width:1.0;"/><path d="M817.2188,69.6406 Q816.6406,69.9375 816,70.0781 Q815.3594,70.2344 814.6563,70.2344 Q812.1563,70.2344 810.8281,68.5938 Q809.5156,66.9375 809.5156,63.8125 Q809.5156,60.6875 810.8281,59.0313 Q812.1563,57.375 814.6563,57.375 Q815.3594,57.375 816,57.5313 Q816.6563,57.6875 817.2188,57.9844 L817.2188,60.7031 Q816.5938,60.125 816,59.8594 Q815.4063,59.5781 814.7813,59.5781 Q813.4375,59.5781 812.75,60.6563 Q812.0625,61.7188 812.0625,63.8125 Q812.0625,65.9063 812.75,66.9844 Q813.4375,68.0469 814.7813,68.0469 Q815.4063,68.0469 816,67.7813 Q816.5938,67.5 817.2188,66.9219 L817.2188,69.6406 Z " fill="#000000"/><text fill="#000000" font-family="sans-serif" font-size="12" lengthAdjust="spacingAndGlyphs" textLength="57" x="834.75" y="68.1543">Company</text><line style="stroke:#A80036;stroke-width:1.5;" x1="717" x2="977" y1="80" y2="80"/><text fill="#000000" font-family="sans-serif" font-size="11" lengthAdjust="spacingAndGlyphs" textLength="70" x="722" y="94.2104">-designation</text><line style="stroke:#A80036;stroke-width:1.5;" x1="717" x2="977" y1="100.8047" y2="100.8047"/><text fill="#000000" font-family="sans-serif" font-size="11" lengthAdjust="spacingAndGlyphs" textLength="250" x="722" y="115.0151">+registerChemicalAnalysisLaboratory(labID)</text><text fill="#000000" font-family="sans-serif" font-size="11" lengthAdjust="spacingAndGlyphs" textLength="237" x="722" y="127.8198">+validateChemicalAnalysisLaboratory(cal)</text><text fill="#000000" font-family="sans-serif" font-size="11" lengthAdjust="spacingAndGlyphs" textLength="220" x="722" y="140.6245">+saveChemicalAnalysisLaboratory(cal)</text><text fill="#000000" font-family="sans-serif" font-size="11" lengthAdjust="spacingAndGlyphs" textLength="209" x="722" y="153.4292">-addChemicalAnalysisLaboratory(cal)</text><!--MD5=[f4f2dbc6fdb443856f07c075b00fcd9d]
class CAL--><rect codeLine="12" fill="#FEFECE" filter="url(#f1h4n7slxho8xc)" height="73.6094" id="CAL" style="stroke:#A80036;stroke-width:1.5;" width="217" x="1072" y="7"/><ellipse cx="1092.4" cy="23" fill="#ADD1B2" rx="11" ry="11" style="stroke:#A80036;stroke-width:1.0;"/><path d="M1095.3688,28.6406 Q1094.7906,28.9375 1094.15,29.0781 Q1093.5094,29.2344 1092.8063,29.2344 Q1090.3063,29.2344 1088.9781,27.5938 Q1087.6656,25.9375 1087.6656,22.8125 Q1087.6656,19.6875 1088.9781,18.0313 Q1090.3063,16.375 1092.8063,16.375 Q1093.5094,16.375 1094.15,16.5313 Q1094.8063,16.6875 1095.3688,16.9844 L1095.3688,19.7031 Q1094.7438,19.125 1094.15,18.8594 Q1093.5563,18.5781 1092.9313,18.5781 Q1091.5875,18.5781 1090.9,19.6563 Q1090.2125,20.7188 1090.2125,22.8125 Q1090.2125,24.9063 1090.9,25.9844 Q1091.5875,27.0469 1092.9313,27.0469 Q1093.5563,27.0469 1094.15,26.7813 Q1094.7438,26.5 1095.3688,25.9219 L1095.3688,28.6406 Z " fill="#000000"/><text fill="#000000" font-family="sans-serif" font-size="12" lengthAdjust="spacingAndGlyphs" textLength="173" x="1107.6" y="27.1543">ChemicalAnalysisLaboratory</text><line style="stroke:#A80036;stroke-width:1.5;" x1="1073" x2="1288" y1="39" y2="39"/><text fill="#000000" font-family="sans-serif" font-size="11" lengthAdjust="spacingAndGlyphs" textLength="32" x="1078" y="53.2104">-labID</text><line style="stroke:#A80036;stroke-width:1.5;" x1="1073" x2="1288" y1="59.8047" y2="59.8047"/><text fill="#000000" font-family="sans-serif" font-size="11" lengthAdjust="spacingAndGlyphs" textLength="205" x="1078" y="74.0151">+ChemicalAnalysisLaboratory(labID)</text><!--MD5=[56e4c9075fa7c9f4c09ef0a20c49f72c]
class T--><rect codeLine="17" fill="#FEFECE" filter="url(#f1h4n7slxho8xc)" height="150.4375" id="T" style="stroke:#A80036;stroke-width:1.5;" width="167" x="1408" y="29"/><ellipse cx="1473.75" cy="45" fill="#ADD1B2" rx="11" ry="11" style="stroke:#A80036;stroke-width:1.0;"/><path d="M1476.7188,50.6406 Q1476.1406,50.9375 1475.5,51.0781 Q1474.8594,51.2344 1474.1563,51.2344 Q1471.6563,51.2344 1470.3281,49.5938 Q1469.0156,47.9375 1469.0156,44.8125 Q1469.0156,41.6875 1470.3281,40.0313 Q1471.6563,38.375 1474.1563,38.375 Q1474.8594,38.375 1475.5,38.5313 Q1476.1563,38.6875 1476.7188,38.9844 L1476.7188,41.7031 Q1476.0938,41.125 1475.5,40.8594 Q1474.9063,40.5781 1474.2813,40.5781 Q1472.9375,40.5781 1472.25,41.6563 Q1471.5625,42.7188 1471.5625,44.8125 Q1471.5625,46.9063 1472.25,47.9844 Q1472.9375,49.0469 1474.2813,49.0469 Q1474.9063,49.0469 1475.5,48.7813 Q1476.0938,48.5 1476.7188,47.9219 L1476.7188,50.6406 Z " fill="#000000"/><text fill="#000000" font-family="sans-serif" font-size="12" lengthAdjust="spacingAndGlyphs" textLength="27" x="1494.25" y="49.1543">Test</text><line style="stroke:#A80036;stroke-width:1.5;" x1="1409" x2="1574" y1="61" y2="61"/><text fill="#000000" font-family="sans-serif" font-size="11" lengthAdjust="spacingAndGlyphs" textLength="67" x="1414" y="75.2104">-description</text><text fill="#000000" font-family="sans-serif" font-size="11" lengthAdjust="spacingAndGlyphs" textLength="76" x="1414" y="88.0151">-internalCode</text><text fill="#000000" font-family="sans-serif" font-size="11" lengthAdjust="spacingAndGlyphs" textLength="54" x="1414" y="100.8198">-nhsCode</text><text fill="#000000" font-family="sans-serif" font-size="11" lengthAdjust="spacingAndGlyphs" textLength="81" x="1414" y="113.6245">-collectMethod</text><text fill="#000000" font-family="sans-serif" font-size="11" lengthAdjust="spacingAndGlyphs" textLength="94" x="1414" y="126.4292">-collectDateTime</text><text fill="#000000" font-family="sans-serif" font-size="11" lengthAdjust="spacingAndGlyphs" textLength="155" x="1414" y="139.2339">-chemicalAnalysisDateTime</text><text fill="#000000" font-family="sans-serif" font-size="11" lengthAdjust="spacingAndGlyphs" textLength="113" x="1414" y="152.0386">-diagnosisDateTime</text><text fill="#000000" font-family="sans-serif" font-size="11" lengthAdjust="spacingAndGlyphs" textLength="112" x="1414" y="164.8433">-validationDateTime</text><line style="stroke:#A80036;stroke-width:1.5;" x1="1409" x2="1574" y1="171.4375" y2="171.4375"/><!--MD5=[f76673142371ead9f091198193c4bd63]
class TT--><rect codeLine="28" fill="#FEFECE" filter="url(#f1h4n7slxho8xc)" height="99.2188" id="TT" style="stroke:#A80036;stroke-width:1.5;" width="281" x="1663" y="54.5"/><ellipse cx="1771.25" cy="70.5" fill="#ADD1B2" rx="11" ry="11" style="stroke:#A80036;stroke-width:1.0;"/><path d="M1774.2188,76.1406 Q1773.6406,76.4375 1773,76.5781 Q1772.3594,76.7344 1771.6563,76.7344 Q1769.1563,76.7344 1767.8281,75.0938 Q1766.5156,73.4375 1766.5156,70.3125 Q1766.5156,67.1875 1767.8281,65.5313 Q1769.1563,63.875 1771.6563,63.875 Q1772.3594,63.875 1773,64.0313 Q1773.6563,64.1875 1774.2188,64.4844 L1774.2188,67.2031 Q1773.5938,66.625 1773,66.3594 Q1772.4063,66.0781 1771.7813,66.0781 Q1770.4375,66.0781 1769.75,67.1563 Q1769.0625,68.2188 1769.0625,70.3125 Q1769.0625,72.4063 1769.75,73.4844 Q1770.4375,74.5469 1771.7813,74.5469 Q1772.4063,74.5469 1773,74.2813 Q1773.5938,74 1774.2188,73.4219 L1774.2188,76.1406 Z " fill="#000000"/><text fill="#000000" font-family="sans-serif" font-size="12" lengthAdjust="spacingAndGlyphs" textLength="56" x="1791.75" y="74.6543">TestType</text><line style="stroke:#A80036;stroke-width:1.5;" x1="1664" x2="1943" y1="86.5" y2="86.5"/><text fill="#000000" font-family="sans-serif" font-size="11" lengthAdjust="spacingAndGlyphs" textLength="31" x="1669" y="100.7104">-code</text><text fill="#000000" font-family="sans-serif" font-size="11" lengthAdjust="spacingAndGlyphs" textLength="67" x="1669" y="113.5151">-description</text><text fill="#000000" font-family="sans-serif" font-size="11" lengthAdjust="spacingAndGlyphs" textLength="98" x="1669" y="126.3198">-collectingMethod</text><line style="stroke:#A80036;stroke-width:1.5;" x1="1664" x2="1943" y1="132.9141" y2="132.9141"/><text fill="#000000" font-family="sans-serif" font-size="11" lengthAdjust="spacingAndGlyphs" textLength="269" x="1669" y="147.1245">+TestType(code, description, collectingMethod)</text><!--MD5=[aa04ca19d9198f6bdfc4770517bcb7e7]
class RCALC--><rect codeLine="35" fill="#FEFECE" filter="url(#f1h4n7slxho8xc)" height="73.6094" id="RCALC" style="stroke:#A80036;stroke-width:1.5;" width="318" x="337" y="67"/><ellipse cx="352" cy="83" fill="#ADD1B2" rx="11" ry="11" style="stroke:#A80036;stroke-width:1.0;"/><path d="M354.9688,88.6406 Q354.3906,88.9375 353.75,89.0781 Q353.1094,89.2344 352.4063,89.2344 Q349.9063,89.2344 348.5781,87.5938 Q347.2656,85.9375 347.2656,82.8125 Q347.2656,79.6875 348.5781,78.0313 Q349.9063,76.375 352.4063,76.375 Q353.1094,76.375 353.75,76.5313 Q354.4063,76.6875 354.9688,76.9844 L354.9688,79.7031 Q354.3438,79.125 353.75,78.8594 Q353.1563,78.5781 352.5313,78.5781 Q351.1875,78.5781 350.5,79.6563 Q349.8125,80.7188 349.8125,82.8125 Q349.8125,84.9063 350.5,85.9844 Q351.1875,87.0469 352.5313,87.0469 Q353.1563,87.0469 353.75,86.7813 Q354.3438,86.5 354.9688,85.9219 L354.9688,88.6406 Z " fill="#000000"/><text fill="#000000" font-family="sans-serif" font-size="12" lengthAdjust="spacingAndGlyphs" textLength="286" x="366" y="87.1543">RegisterChemicalAnalysisLaboratoryController</text><line style="stroke:#A80036;stroke-width:1.5;" x1="338" x2="654" y1="99" y2="99"/><line style="stroke:#A80036;stroke-width:1.5;" x1="338" x2="654" y1="107" y2="107"/><text fill="#000000" font-family="sans-serif" font-size="11" lengthAdjust="spacingAndGlyphs" textLength="250" x="343" y="121.2104">+registerChemicalAnalysisLaboratory(labID)</text><text fill="#000000" font-family="sans-serif" font-size="11" lengthAdjust="spacingAndGlyphs" textLength="220" x="343" y="134.0151">+saveChemicalAnalysisLaboratory(cal)</text><!--MD5=[03d9eacbd3b6d4d158494f2e25c708ca]
class RCALUI--><rect codeLine="40" fill="#FEFECE" filter="url(#f1h4n7slxho8xc)" height="48" id="RCALUI" style="stroke:#A80036;stroke-width:1.5;" width="269" x="7" y="80"/><ellipse cx="22" cy="96" fill="#ADD1B2" rx="11" ry="11" style="stroke:#A80036;stroke-width:1.0;"/><path d="M24.9688,101.6406 Q24.3906,101.9375 23.75,102.0781 Q23.1094,102.2344 22.4063,102.2344 Q19.9063,102.2344 18.5781,100.5938 Q17.2656,98.9375 17.2656,95.8125 Q17.2656,92.6875 18.5781,91.0313 Q19.9063,89.375 22.4063,89.375 Q23.1094,89.375 23.75,89.5313 Q24.4063,89.6875 24.9688,89.9844 L24.9688,92.7031 Q24.3438,92.125 23.75,91.8594 Q23.1563,91.5781 22.5313,91.5781 Q21.1875,91.5781 20.5,92.6563 Q19.8125,93.7188 19.8125,95.8125 Q19.8125,97.9063 20.5,98.9844 Q21.1875,100.0469 22.5313,100.0469 Q23.1563,100.0469 23.75,99.7813 Q24.3438,99.5 24.9688,98.9219 L24.9688,101.6406 Z " fill="#000000"/><text fill="#000000" font-family="sans-serif" font-size="12" lengthAdjust="spacingAndGlyphs" textLength="237" x="36" y="100.1543">RegisterChemicalAnalysisLaboratoryUI</text><line style="stroke:#A80036;stroke-width:1.5;" x1="8" x2="275" y1="112" y2="112"/><line style="stroke:#A80036;stroke-width:1.5;" x1="8" x2="275" y1="120" y2="120"/><!--MD5=[7c31ae876b4dbe4656447a2014d1da11]
link RCALUI to RCALC--><path codeLine="44" d="M276.0267,104 C294.199,104 313.0084,104 331.6273,104 " fill="none" id="RCALUI-to-RCALC" style="stroke:#A80036;stroke-width:1.0;stroke-dasharray:7.0,7.0;"/><polygon fill="#A80036" points="336.873,104,327.873,100,331.873,104,327.873,108,336.873,104" style="stroke:#A80036;stroke-width:1.0;"/><!--MD5=[7cc1be3f1f84e1a6a54b7774afc28078]
link RCALC to C--><path codeLine="45" d="M655.0683,104 C673.6378,104 692.4548,104 710.678,104 " fill="none" id="RCALC-to-C" style="stroke:#A80036;stroke-width:1.0;stroke-dasharray:7.0,7.0;"/><polygon fill="#A80036" points="715.8014,104,706.8014,100,710.8014,104,706.8014,108,715.8014,104" style="stroke:#A80036;stroke-width:1.0;"/><!--MD5=[c85c0370305dd2ba48beb07c7b879e9b]
link C to CAL--><path codeLine="46" d="M978.3293,80.3725 C1007.6218,75.1025 1038.4432,69.5574 1066.9479,64.4292 " fill="none" id="C-to-CAL" style="stroke:#A80036;stroke-width:1.0;"/><polygon fill="#A80036" points="1071.871,63.5435,1062.3049,61.2005,1066.95,64.4289,1063.7216,69.074,1071.871,63.5435" style="stroke:#A80036;stroke-width:1.0;"/><text fill="#000000" font-family="sans-serif" font-size="13" lengthAdjust="spacingAndGlyphs" textLength="32" x="1009" y="67.0669">owns</text><text fill="#000000" font-family="sans-serif" font-size="13" lengthAdjust="spacingAndGlyphs" textLength="8" x="986.153" y="91.5102">1</text><text fill="#000000" font-family="sans-serif" font-size="13" lengthAdjust="spacingAndGlyphs" textLength="7" x="1056.9869" y="77.5303">*</text><!--MD5=[281a59200fe523f79922830c877c9cf1]
link C to T--><path codeLine="47" d="M978.1313,111.4923 C1008.9139,112.9512 1041.6017,114.2574 1072,115 C1168.4157,117.3554 1192.5911,117.6166 1289,115 C1326.2353,113.9894 1367.2795,111.9354 1402.6249,109.873 " fill="none" id="C-to-T" style="stroke:#A80036;stroke-width:1.0;"/><polygon fill="#A80036" points="1407.7973,109.5688,1398.5779,106.1044,1402.8059,109.8625,1399.0478,114.0906,1407.7973,109.5688" style="stroke:#A80036;stroke-width:1.0;"/><text fill="#000000" font-family="sans-serif" font-size="13" lengthAdjust="spacingAndGlyphs" textLength="58" x="1151.5" y="111.0669">performs</text><text fill="#000000" font-family="sans-serif" font-size="13" lengthAdjust="spacingAndGlyphs" textLength="8" x="985.9436" y="124.4291">1</text><text fill="#000000" font-family="sans-serif" font-size="13" lengthAdjust="spacingAndGlyphs" textLength="7" x="1393.0308" y="122.7861">*</text><!--MD5=[89bcd7d15146ee44861ec9b708eac154]
link T to TT--><path codeLine="48" d="M1575.1103,104 C1600.5145,104 1629.2096,104 1657.4669,104 " fill="none" id="T-to-TT" style="stroke:#A80036;stroke-width:1.0;"/><polygon fill="#A80036" points="1662.7371,104,1653.7371,100,1657.7371,104,1653.7371,108,1662.7371,104" style="stroke:#A80036;stroke-width:1.0;"/><text fill="#000000" font-family="sans-serif" font-size="13" lengthAdjust="spacingAndGlyphs" textLength="26" x="1606" y="100.0669">is of</text><text fill="#000000" font-family="sans-serif" font-size="13" lengthAdjust="spacingAndGlyphs" textLength="8" x="1582.9131" y="116.7213">1</text><text fill="#000000" font-family="sans-serif" font-size="13" lengthAdjust="spacingAndGlyphs" textLength="8" x="1646.8204" y="116.4747">1</text><!--MD5=[cc0ffb4c5453bbe2e5b400a2b2e55599]
link CAL to T--><path codeLine="49" d="M1289.2727,64.9851 C1326.3361,72.1356 1367.3038,80.0393 1402.6187,86.8525 " fill="none" id="CAL-to-T" style="stroke:#A80036;stroke-width:1.0;"/><polygon fill="#A80036" points="1407.787,87.8496,1399.7076,82.2172,1402.8775,86.9025,1398.1922,90.0724,1407.787,87.8496" style="stroke:#A80036;stroke-width:1.0;"/><text fill="#000000" font-family="sans-serif" font-size="13" lengthAdjust="spacingAndGlyphs" textLength="57" x="1320" y="69.0669">operates</text><text fill="#000000" font-family="sans-serif" font-size="13" lengthAdjust="spacingAndGlyphs" textLength="8" x="1296.8496" y="78.9834">1</text><text fill="#000000" font-family="sans-serif" font-size="13" lengthAdjust="spacingAndGlyphs" textLength="7" x="1393.0196" y="99.1325">*</text><!--MD5=[2724be129ac14c20a0c1ce772866ef7e]
@startuml
skinparam classAttributeIconSize 0
left to right direction

class "Company" as C {
-designation
+registerChemicalAnalysisLaboratory(labID)
+validateChemicalAnalysisLaboratory(cal)
+saveChemicalAnalysisLaboratory(cal)
-addChemicalAnalysisLaboratory(cal)
}

class "ChemicalAnalysisLaboratory" as CAL {
-labID
+ChemicalAnalysisLaboratory(labID)
}

class "Test" as T {
-description
-internalCode
-nhsCode
-collectMethod
-collectDateTime
-chemicalAnalysisDateTime
-diagnosisDateTime
-validationDateTime  
}

class "TestType" as TT {
-code
-description
-collectingMethod
+TestType(code, description, collectingMethod)
}

class "RegisterChemicalAnalysisLaboratoryController" as RCALC {
+registerChemicalAnalysisLaboratory(labID)
+saveChemicalAnalysisLaboratory(cal)
}

class "RegisterChemicalAnalysisLaboratoryUI" as RCALUI {  
}


RCALUI ..> RCALC
RCALC ..> C
C "1" - -> "*" CAL : owns
C "1" - -> "*" T : performs
T "1" - -> "1" TT : is of
CAL "1" - -> "*" T : operates
@enduml

PlantUML version 1.2020.22(Sun Dec 06 09:36:27 UTC 2020)
(GPL source distribution)
Java Runtime: OpenJDK Runtime Environment
JVM: OpenJDK 64-Bit Server VM
Default Encoding: UTF-8
Language: en
Country: US
--></g></svg>