<?xml version="1.0" encoding="UTF-8" standalone="no"?><svg xmlns="http://www.w3.org/2000/svg" xmlns:xlink="http://www.w3.org/1999/xlink" contentScriptType="application/ecmascript" contentStyleType="text/css" height="1001px" preserveAspectRatio="none" style="width:1568px;height:1001px;" version="1.1" viewBox="0 0 1568 1001" width="1568px" zoomAndPan="magnify"><defs><filter height="300%" id="f1si6wg61ny9vr" width="300%" x="-1" y="-1"><feGaussianBlur result="blurOut" stdDeviation="2.0"/><feColorMatrix in="blurOut" result="blurOut2" type="matrix" values="0 0 0 0 0 0 0 0 0 0 0 0 0 0 0 0 0 0 .4 0"/><feOffset dx="4.0" dy="4.0" in="blurOut2" result="blurOut3"/><feBlend in="SourceGraphic" in2="blurOut3" mode="normal"/></filter></defs><g><rect fill="#FFFFFF" filter="url(#f1si6wg61ny9vr)" height="800.4141" style="stroke:#A80036;stroke-width:1.0;" width="10" x="63.5" y="98.2969"/><rect fill="#FFFFFF" filter="url(#f1si6wg61ny9vr)" height="194.2891" style="stroke:#A80036;stroke-width:1.0;" width="10" x="568.5" y="119.4297"/><rect fill="#FFFFFF" filter="url(#f1si6wg61ny9vr)" height="205.6641" style="stroke:#A80036;stroke-width:1.0;" width="10" x="568.5" y="342.8516"/><rect fill="#FFFFFF" filter="url(#f1si6wg61ny9vr)" height="255.7969" style="stroke:#A80036;stroke-width:1.0;" width="10" x="568.5" y="577.6484"/><rect fill="#FFFFFF" filter="url(#f1si6wg61ny9vr)" height="36.1328" style="stroke:#A80036;stroke-width:1.0;" width="10" x="568.5" y="862.5781"/><rect fill="#FFFFFF" filter="url(#f1si6wg61ny9vr)" height="58.2656" style="stroke:#A80036;stroke-width:1.0;" width="10" x="873.5" y="193.8594"/><rect fill="#FFFFFF" filter="url(#f1si6wg61ny9vr)" height="147.3984" style="stroke:#A80036;stroke-width:1.0;" width="10" x="873.5" y="371.9844"/><rect fill="#FFFFFF" filter="url(#f1si6wg61ny9vr)" height="166.3984" style="stroke:#A80036;stroke-width:1.0;" width="10" x="873.5" y="606.7813"/><rect fill="#FFFFFF" filter="url(#f1si6wg61ny9vr)" height="29.1328" style="stroke:#A80036;stroke-width:1.0;" width="10" x="1176.5" y="222.9922"/><rect fill="#FFFFFF" filter="url(#f1si6wg61ny9vr)" height="59.1328" style="stroke:#A80036;stroke-width:1.0;" width="10" x="1176.5" y="460.25"/><rect fill="#FFFFFF" filter="url(#f1si6wg61ny9vr)" height="137.2656" style="stroke:#A80036;stroke-width:1.0;" width="10" x="1176.5" y="635.9141"/><rect fill="#FFFFFF" filter="url(#f1si6wg61ny9vr)" height="28" style="stroke:#A80036;stroke-width:1.0;" width="10" x="1181.5" y="673.0469"/><rect fill="#FFFFFF" filter="url(#f1si6wg61ny9vr)" height="28" style="stroke:#A80036;stroke-width:1.0;" width="10" x="1181.5" y="745.1797"/><rect fill="#FFFFFF" filter="url(#f1si6wg61ny9vr)" height="30" style="stroke:#A80036;stroke-width:1.0;" width="10" x="1480.5" y="401.1172"/><rect fill="#FFFFFF" filter="url(#f1si6wg61ny9vr)" height="30" style="stroke:#A80036;stroke-width:1.0;" width="10" x="1480.5" y="489.3828"/><rect fill="#FFFFFF" filter="url(#f1si6wg61ny9vr)" height="75.3984" style="stroke:#000000;stroke-width:2.0;" width="707.5" x="10" y="795.1797"/><line style="stroke:#A80036;stroke-width:1.0;stroke-dasharray:5.0,5.0;" x1="68" x2="68" y1="88.2969" y2="916.7109"/><line style="stroke:#A80036;stroke-width:1.0;stroke-dasharray:5.0,5.0;" x1="573.5" x2="573.5" y1="88.2969" y2="916.7109"/><line style="stroke:#A80036;stroke-width:1.0;stroke-dasharray:5.0,5.0;" x1="878.5" x2="878.5" y1="160.0781" y2="916.7109"/><line style="stroke:#A80036;stroke-width:1.0;stroke-dasharray:5.0,5.0;" x1="1181.5" x2="1181.5" y1="88.2969" y2="916.7109"/><line style="stroke:#A80036;stroke-width:1.0;stroke-dasharray:5.0,5.0;" x1="1485" x2="1485" y1="271.7891" y2="916.7109"/><text fill="#000000" font-family="sans-serif" font-size="14" lengthAdjust="spacingAndGlyphs" textLength="91" x="20" y="84.9951">Administrator</text><ellipse cx="68.5" cy="15" fill="#FEFECE" filter="url(#f1si6wg61ny9vr)" rx="8" ry="8" style="stroke:#A80036;stroke-width:2.0;"/><path d="M68.5,23 L68.5,50 M55.5,31 L81.5,31 M68.5,50 L55.5,65 M68.5,50 L81.5,65 " fill="none" filter="url(#f1si6wg61ny9vr)" style="stroke:#A80036;stroke-width:2.0;"/><text fill="#000000" font-family="sans-serif" font-size="14" lengthAdjust="spacingAndGlyphs" textLength="91" x="20" y="928.7061">Administrator</text><ellipse cx="68.5" cy="942.0078" fill="#FEFECE" filter="url(#f1si6wg61ny9vr)" rx="8" ry="8" style="stroke:#A80036;stroke-width:2.0;"/><path d="M68.5,950.0078 L68.5,977.0078 M55.5,958.0078 L81.5,958.0078 M68.5,977.0078 L55.5,992.0078 M68.5,977.0078 L81.5,992.0078 " fill="none" filter="url(#f1si6wg61ny9vr)" style="stroke:#A80036;stroke-width:2.0;"/><rect fill="#FEFECE" filter="url(#f1si6wg61ny9vr)" height="30.2969" style="stroke:#A80036;stroke-width:1.5;" width="264" x="439.5" y="53"/><text fill="#000000" font-family="sans-serif" font-size="14" lengthAdjust="spacingAndGlyphs" textLength="250" x="446.5" y="72.9951">:RegisterClinicalAnalysisLaboratoryUI</text><rect fill="#FEFECE" filter="url(#f1si6wg61ny9vr)" height="30.2969" style="stroke:#A80036;stroke-width:1.5;" width="264" x="439.5" y="915.7109"/><text fill="#000000" font-family="sans-serif" font-size="14" lengthAdjust="spacingAndGlyphs" textLength="250" x="446.5" y="935.7061">:RegisterClinicalAnalysisLaboratoryUI</text><rect fill="#FEFECE" filter="url(#f1si6wg61ny9vr)" height="30.2969" style="stroke:#A80036;stroke-width:1.5;" width="318" x="717.5" y="915.7109"/><text fill="#000000" font-family="sans-serif" font-size="14" lengthAdjust="spacingAndGlyphs" textLength="304" x="724.5" y="935.7061">:RegisterClinicalAnalysisLaboratoryController</text><rect fill="#FEFECE" filter="url(#f1si6wg61ny9vr)" height="30.2969" style="stroke:#A80036;stroke-width:1.5;" width="84" x="1137.5" y="53"/><text fill="#000000" font-family="sans-serif" font-size="14" lengthAdjust="spacingAndGlyphs" textLength="70" x="1144.5" y="72.9951">:Company</text><rect fill="#FEFECE" filter="url(#f1si6wg61ny9vr)" height="30.2969" style="stroke:#A80036;stroke-width:1.5;" width="84" x="1137.5" y="915.7109"/><text fill="#000000" font-family="sans-serif" font-size="14" lengthAdjust="spacingAndGlyphs" textLength="70" x="1144.5" y="935.7061">:Company</text><rect fill="#FEFECE" filter="url(#f1si6wg61ny9vr)" height="46.5938" style="stroke:#A80036;stroke-width:1.5;" width="141" x="1413" y="915.7109"/><text fill="#000000" font-family="sans-serif" font-size="14" lengthAdjust="spacingAndGlyphs" textLength="107" x="1430" y="935.7061">:cal = Chemical</text><text fill="#000000" font-family="sans-serif" font-size="14" lengthAdjust="spacingAndGlyphs" textLength="127" x="1420" y="952.0029">AnalysisLaboratory</text><rect fill="#FFFFFF" filter="url(#f1si6wg61ny9vr)" height="800.4141" style="stroke:#A80036;stroke-width:1.0;" width="10" x="63.5" y="98.2969"/><rect fill="#FFFFFF" filter="url(#f1si6wg61ny9vr)" height="194.2891" style="stroke:#A80036;stroke-width:1.0;" width="10" x="568.5" y="119.4297"/><rect fill="#FFFFFF" filter="url(#f1si6wg61ny9vr)" height="205.6641" style="stroke:#A80036;stroke-width:1.0;" width="10" x="568.5" y="342.8516"/><rect fill="#FFFFFF" filter="url(#f1si6wg61ny9vr)" height="255.7969" style="stroke:#A80036;stroke-width:1.0;" width="10" x="568.5" y="577.6484"/><rect fill="#FFFFFF" filter="url(#f1si6wg61ny9vr)" height="36.1328" style="stroke:#A80036;stroke-width:1.0;" width="10" x="568.5" y="862.5781"/><rect fill="#FFFFFF" filter="url(#f1si6wg61ny9vr)" height="58.2656" style="stroke:#A80036;stroke-width:1.0;" width="10" x="873.5" y="193.8594"/><rect fill="#FFFFFF" filter="url(#f1si6wg61ny9vr)" height="147.3984" style="stroke:#A80036;stroke-width:1.0;" width="10" x="873.5" y="371.9844"/><rect fill="#FFFFFF" filter="url(#f1si6wg61ny9vr)" height="166.3984" style="stroke:#A80036;stroke-width:1.0;" width="10" x="873.5" y="606.7813"/><rect fill="#FFFFFF" filter="url(#f1si6wg61ny9vr)" height="29.1328" style="stroke:#A80036;stroke-width:1.0;" width="10" x="1176.5" y="222.9922"/><rect fill="#FFFFFF" filter="url(#f1si6wg61ny9vr)" height="59.1328" style="stroke:#A80036;stroke-width:1.0;" width="10" x="1176.5" y="460.25"/><rect fill="#FFFFFF" filter="url(#f1si6wg61ny9vr)" height="137.2656" style="stroke:#A80036;stroke-width:1.0;" width="10" x="1176.5" y="635.9141"/><rect fill="#FFFFFF" filter="url(#f1si6wg61ny9vr)" height="28" style="stroke:#A80036;stroke-width:1.0;" width="10" x="1181.5" y="673.0469"/><rect fill="#FFFFFF" filter="url(#f1si6wg61ny9vr)" height="28" style="stroke:#A80036;stroke-width:1.0;" width="10" x="1181.5" y="745.1797"/><rect fill="#FFFFFF" filter="url(#f1si6wg61ny9vr)" height="30" style="stroke:#A80036;stroke-width:1.0;" width="10" x="1480.5" y="401.1172"/><rect fill="#FFFFFF" filter="url(#f1si6wg61ny9vr)" height="30" style="stroke:#A80036;stroke-width:1.0;" width="10" x="1480.5" y="489.3828"/><polygon fill="#A80036" points="556.5,115.4297,566.5,119.4297,556.5,123.4297,560.5,119.4297" style="stroke:#A80036;stroke-width:1.0;"/><line style="stroke:#A80036;stroke-width:1.0;" x1="73.5" x2="562.5" y1="119.4297" y2="119.4297"/><text fill="#000000" font-family="sans-serif" font-size="13" font-weight="bold" lengthAdjust="spacingAndGlyphs" textLength="9" x="80.5" y="114.3638">1</text><text fill="#000000" font-family="sans-serif" font-size="13" lengthAdjust="spacingAndGlyphs" textLength="424" x="93.5" y="114.3638">Starts the proccess of registering a new clinical analysis laboratory</text><polygon fill="#A80036" points="705.5,144.5625,715.5,148.5625,705.5,152.5625,709.5,148.5625" style="stroke:#A80036;stroke-width:1.0;"/><line style="stroke:#A80036;stroke-width:1.0;stroke-dasharray:2.0,2.0;" x1="578.5" x2="711.5" y1="148.5625" y2="148.5625"/><text fill="#000000" font-family="sans-serif" font-size="13" font-weight="bold" lengthAdjust="spacingAndGlyphs" textLength="9" x="585.5" y="143.4966">2</text><text fill="#000000" font-family="sans-serif" font-size="13" lengthAdjust="spacingAndGlyphs" textLength="41" x="598.5" y="143.4966">create</text><rect fill="#FEFECE" filter="url(#f1si6wg61ny9vr)" height="30.2969" style="stroke:#A80036;stroke-width:1.5;" width="318" x="717.5" y="127.4297"/><text fill="#000000" font-family="sans-serif" font-size="14" lengthAdjust="spacingAndGlyphs" textLength="304" x="724.5" y="147.4248">:RegisterClinicalAnalysisLaboratoryController</text><polygon fill="#A80036" points="861.5,189.8594,871.5,193.8594,861.5,197.8594,865.5,193.8594" style="stroke:#A80036;stroke-width:1.0;"/><line style="stroke:#A80036;stroke-width:1.0;" x1="578.5" x2="867.5" y1="193.8594" y2="193.8594"/><text fill="#000000" font-family="sans-serif" font-size="13" font-weight="bold" lengthAdjust="spacingAndGlyphs" textLength="9" x="585.5" y="188.7935">3</text><text fill="#000000" font-family="sans-serif" font-size="13" lengthAdjust="spacingAndGlyphs" textLength="221" x="598.5" y="188.7935">registerClincalAnalysisLaboratory()</text><polygon fill="#A80036" points="1164.5,218.9922,1174.5,222.9922,1164.5,226.9922,1168.5,222.9922" style="stroke:#A80036;stroke-width:1.0;"/><line style="stroke:#A80036;stroke-width:1.0;" x1="883.5" x2="1170.5" y1="222.9922" y2="222.9922"/><text fill="#000000" font-family="sans-serif" font-size="13" font-weight="bold" lengthAdjust="spacingAndGlyphs" textLength="9" x="890.5" y="217.9263">4</text><text fill="#000000" font-family="sans-serif" font-size="13" lengthAdjust="spacingAndGlyphs" textLength="261" x="903.5" y="217.9263">cal = registerClinicalAnalysisLaboratory()</text><polygon fill="#A80036" points="1401,248.125,1411,252.125,1401,256.125,1405,252.125" style="stroke:#A80036;stroke-width:1.0;"/><line style="stroke:#A80036;stroke-width:1.0;stroke-dasharray:2.0,2.0;" x1="1181.5" x2="1407" y1="252.125" y2="252.125"/><text fill="#000000" font-family="sans-serif" font-size="13" font-weight="bold" lengthAdjust="spacingAndGlyphs" textLength="9" x="1188.5" y="247.0591">5</text><text fill="#000000" font-family="sans-serif" font-size="13" lengthAdjust="spacingAndGlyphs" textLength="51" x="1201.5" y="247.0591">create()</text><rect fill="#FEFECE" filter="url(#f1si6wg61ny9vr)" height="46.5938" style="stroke:#A80036;stroke-width:1.5;" width="141" x="1413" y="230.9922"/><text fill="#000000" font-family="sans-serif" font-size="14" lengthAdjust="spacingAndGlyphs" textLength="107" x="1430" y="250.9873">:cal = Chemical</text><text fill="#000000" font-family="sans-serif" font-size="14" lengthAdjust="spacingAndGlyphs" textLength="127" x="1420" y="267.2842">AnalysisLaboratory</text><polygon fill="#A80036" points="84.5,309.7188,74.5,313.7188,84.5,317.7188,80.5,313.7188" style="stroke:#A80036;stroke-width:1.0;"/><line style="stroke:#A80036;stroke-width:1.0;stroke-dasharray:2.0,2.0;" x1="78.5" x2="572.5" y1="313.7188" y2="313.7188"/><text fill="#000000" font-family="sans-serif" font-size="13" font-weight="bold" lengthAdjust="spacingAndGlyphs" textLength="9" x="90.5" y="308.6528">6</text><text fill="#000000" font-family="sans-serif" font-size="13" lengthAdjust="spacingAndGlyphs" textLength="165" x="103.5" y="308.6528">Requests data (i.e., labID)</text><polygon fill="#A80036" points="556.5,338.8516,566.5,342.8516,556.5,346.8516,560.5,342.8516" style="stroke:#A80036;stroke-width:1.0;"/><line style="stroke:#A80036;stroke-width:1.0;" x1="73.5" x2="562.5" y1="342.8516" y2="342.8516"/><text fill="#000000" font-family="sans-serif" font-size="13" font-weight="bold" lengthAdjust="spacingAndGlyphs" textLength="9" x="80.5" y="337.7856">7</text><text fill="#000000" font-family="sans-serif" font-size="13" lengthAdjust="spacingAndGlyphs" textLength="139" x="93.5" y="337.7856">Types requested data</text><polygon fill="#A80036" points="861.5,367.9844,871.5,371.9844,861.5,375.9844,865.5,371.9844" style="stroke:#A80036;stroke-width:1.0;"/><line style="stroke:#A80036;stroke-width:1.0;" x1="578.5" x2="867.5" y1="371.9844" y2="371.9844"/><text fill="#000000" font-family="sans-serif" font-size="13" font-weight="bold" lengthAdjust="spacingAndGlyphs" textLength="9" x="585.5" y="366.9185">8</text><text fill="#000000" font-family="sans-serif" font-size="13" lengthAdjust="spacingAndGlyphs" textLength="93" x="598.5" y="366.9185">setData(labID)</text><polygon fill="#A80036" points="1468.5,397.1172,1478.5,401.1172,1468.5,405.1172,1472.5,401.1172" style="stroke:#A80036;stroke-width:1.0;"/><line style="stroke:#A80036;stroke-width:1.0;" x1="883.5" x2="1474.5" y1="401.1172" y2="401.1172"/><text fill="#000000" font-family="sans-serif" font-size="13" font-weight="bold" lengthAdjust="spacingAndGlyphs" textLength="9" x="890.5" y="396.0513">9</text><text fill="#000000" font-family="sans-serif" font-size="13" lengthAdjust="spacingAndGlyphs" textLength="98" x="903.5" y="396.0513">setLabID(labID)</text><polygon fill="#A80036" points="1164.5,456.25,1174.5,460.25,1164.5,464.25,1168.5,460.25" style="stroke:#A80036;stroke-width:1.0;"/><line style="stroke:#A80036;stroke-width:1.0;" x1="883.5" x2="1170.5" y1="460.25" y2="460.25"/><text fill="#000000" font-family="sans-serif" font-size="13" font-weight="bold" lengthAdjust="spacingAndGlyphs" textLength="18" x="890.5" y="455.1841">10</text><text fill="#000000" font-family="sans-serif" font-size="13" lengthAdjust="spacingAndGlyphs" textLength="243" x="912.5" y="455.1841">validateClinicalAnalysisLaboratory(cal)</text><polygon fill="#A80036" points="1468.5,485.3828,1478.5,489.3828,1468.5,493.3828,1472.5,489.3828" style="stroke:#A80036;stroke-width:1.0;"/><line style="stroke:#A80036;stroke-width:1.0;" x1="1186.5" x2="1474.5" y1="489.3828" y2="489.3828"/><text fill="#000000" font-family="sans-serif" font-size="13" font-weight="bold" lengthAdjust="spacingAndGlyphs" textLength="18" x="1193.5" y="484.3169">11</text><text fill="#000000" font-family="sans-serif" font-size="13" lengthAdjust="spacingAndGlyphs" textLength="60" x="1215.5" y="484.3169">validate()</text><polygon fill="#A80036" points="84.5,544.5156,74.5,548.5156,84.5,552.5156,80.5,548.5156" style="stroke:#A80036;stroke-width:1.0;"/><line style="stroke:#A80036;stroke-width:1.0;stroke-dasharray:2.0,2.0;" x1="78.5" x2="572.5" y1="548.5156" y2="548.5156"/><text fill="#000000" font-family="sans-serif" font-size="13" font-weight="bold" lengthAdjust="spacingAndGlyphs" textLength="18" x="90.5" y="543.4497">12</text><text fill="#000000" font-family="sans-serif" font-size="13" lengthAdjust="spacingAndGlyphs" textLength="283" x="112.5" y="543.4497">Shows the data and requests a confirmation</text><polygon fill="#A80036" points="556.5,573.6484,566.5,577.6484,556.5,581.6484,560.5,577.6484" style="stroke:#A80036;stroke-width:1.0;"/><line style="stroke:#A80036;stroke-width:1.0;" x1="73.5" x2="562.5" y1="577.6484" y2="577.6484"/><text fill="#000000" font-family="sans-serif" font-size="13" font-weight="bold" lengthAdjust="spacingAndGlyphs" textLength="18" x="80.5" y="572.5825">13</text><text fill="#000000" font-family="sans-serif" font-size="13" lengthAdjust="spacingAndGlyphs" textLength="115" x="102.5" y="572.5825">Confirms the data</text><polygon fill="#A80036" points="861.5,602.7813,871.5,606.7813,861.5,610.7813,865.5,606.7813" style="stroke:#A80036;stroke-width:1.0;"/><line style="stroke:#A80036;stroke-width:1.0;" x1="578.5" x2="867.5" y1="606.7813" y2="606.7813"/><text fill="#000000" font-family="sans-serif" font-size="13" font-weight="bold" lengthAdjust="spacingAndGlyphs" textLength="18" x="585.5" y="601.7153">14</text><text fill="#000000" font-family="sans-serif" font-size="13" lengthAdjust="spacingAndGlyphs" textLength="220" x="607.5" y="601.7153">saveChemicalAnalysisLaboratory()</text><polygon fill="#A80036" points="1164.5,631.9141,1174.5,635.9141,1164.5,639.9141,1168.5,635.9141" style="stroke:#A80036;stroke-width:1.0;"/><line style="stroke:#A80036;stroke-width:1.0;" x1="883.5" x2="1170.5" y1="635.9141" y2="635.9141"/><text fill="#000000" font-family="sans-serif" font-size="13" font-weight="bold" lengthAdjust="spacingAndGlyphs" textLength="18" x="890.5" y="630.8481">15</text><text fill="#000000" font-family="sans-serif" font-size="13" lengthAdjust="spacingAndGlyphs" textLength="238" x="912.5" y="630.8481">saveChemicalAnalysisLaboratory(cal)</text><line style="stroke:#A80036;stroke-width:1.0;" x1="1191.5" x2="1233.5" y1="665.0469" y2="665.0469"/><line style="stroke:#A80036;stroke-width:1.0;" x1="1233.5" x2="1233.5" y1="665.0469" y2="678.0469"/><line style="stroke:#A80036;stroke-width:1.0;" x1="1192.5" x2="1233.5" y1="678.0469" y2="678.0469"/><polygon fill="#A80036" points="1202.5,674.0469,1192.5,678.0469,1202.5,682.0469,1198.5,678.0469" style="stroke:#A80036;stroke-width:1.0;"/><text fill="#000000" font-family="sans-serif" font-size="13" font-weight="bold" lengthAdjust="spacingAndGlyphs" textLength="18" x="1198.5" y="659.981">16</text><text fill="#000000" font-family="sans-serif" font-size="13" lengthAdjust="spacingAndGlyphs" textLength="258" x="1220.5" y="659.981">validateChemicalAnalysisLaboratory(cal)</text><line style="stroke:#A80036;stroke-width:1.0;" x1="1191.5" x2="1233.5" y1="737.1797" y2="737.1797"/><line style="stroke:#A80036;stroke-width:1.0;" x1="1233.5" x2="1233.5" y1="737.1797" y2="750.1797"/><line style="stroke:#A80036;stroke-width:1.0;" x1="1192.5" x2="1233.5" y1="750.1797" y2="750.1797"/><polygon fill="#A80036" points="1202.5,746.1797,1192.5,750.1797,1202.5,754.1797,1198.5,750.1797" style="stroke:#A80036;stroke-width:1.0;"/><text fill="#000000" font-family="sans-serif" font-size="13" font-weight="bold" lengthAdjust="spacingAndGlyphs" textLength="18" x="1198.5" y="732.1138">17</text><text fill="#000000" font-family="sans-serif" font-size="13" lengthAdjust="spacingAndGlyphs" textLength="232" x="1220.5" y="732.1138">addChemicalAnalysisLaboratory(cal)</text><path d="M10,795.1797 L87,795.1797 L87,802.1797 L77,812.1797 L10,812.1797 L10,795.1797 " fill="#EEEEEE" style="stroke:#000000;stroke-width:1.0;"/><rect fill="none" height="75.3984" style="stroke:#000000;stroke-width:2.0;" width="707.5" x="10" y="795.1797"/><text fill="#000000" font-family="sans-serif" font-size="13" font-weight="bold" lengthAdjust="spacingAndGlyphs" textLength="32" x="25" y="808.2466">loop</text><text fill="#000000" font-family="sans-serif" font-size="11" font-weight="bold" lengthAdjust="spacingAndGlyphs" textLength="275" x="102" y="807.3901">[for how many test types the lab operates]</text><polygon fill="#A80036" points="84.5,829.4453,74.5,833.4453,84.5,837.4453,80.5,833.4453" style="stroke:#A80036;stroke-width:1.0;"/><line style="stroke:#A80036;stroke-width:1.0;stroke-dasharray:2.0,2.0;" x1="78.5" x2="572.5" y1="833.4453" y2="833.4453"/><text fill="#000000" font-family="sans-serif" font-size="13" font-weight="bold" lengthAdjust="spacingAndGlyphs" textLength="18" x="90.5" y="828.3794">18</text><text fill="#000000" font-family="sans-serif" font-size="13" lengthAdjust="spacingAndGlyphs" textLength="449" x="112.5" y="828.3794">Shows list with test types and asks to select the ones the lab operates</text><polygon fill="#A80036" points="556.5,858.5781,566.5,862.5781,556.5,866.5781,560.5,862.5781" style="stroke:#A80036;stroke-width:1.0;"/><line style="stroke:#A80036;stroke-width:1.0;" x1="73.5" x2="562.5" y1="862.5781" y2="862.5781"/><text fill="#000000" font-family="sans-serif" font-size="13" font-weight="bold" lengthAdjust="spacingAndGlyphs" textLength="18" x="80.5" y="857.5122">19</text><text fill="#000000" font-family="sans-serif" font-size="13" lengthAdjust="spacingAndGlyphs" textLength="210" x="102.5" y="857.5122">Selects corresponding test types</text><polygon fill="#A80036" points="79.5,894.7109,69.5,898.7109,79.5,902.7109,75.5,898.7109" style="stroke:#A80036;stroke-width:1.0;"/><line style="stroke:#A80036;stroke-width:1.0;" x1="73.5" x2="572.5" y1="898.7109" y2="898.7109"/><text fill="#000000" font-family="sans-serif" font-size="13" font-weight="bold" lengthAdjust="spacingAndGlyphs" textLength="18" x="85.5" y="893.645">20</text><text fill="#000000" font-family="sans-serif" font-size="13" lengthAdjust="spacingAndGlyphs" textLength="234" x="107.5" y="893.645">Informs the success of the operation</text><!--MD5=[b0adeb77e5b5c15c293305e31ae124c5]
@startuml
autonumber

actor "Administrator" as ADMIN
participant ":RegisterClinicalAnalysisLaboratoryUI" as UI
participant ":RegisterClinicalAnalysisLaboratoryController" as CTRL
participant ":Company" as CMP
participant ":cal = Chemical\nAnalysisLaboratory" as CAL


activate ADMIN
ADMIN -> UI : Starts the proccess of registering a new clinical analysis laboratory
activate UI
UI - -> CTRL ** : create
UI -> CTRL : registerClincalAnalysisLaboratory()
activate CTRL
CTRL -> CMP : cal = registerClinicalAnalysisLaboratory()
activate CMP
CMP - -> CAL ** : create()
deactivate CMP
deactivate CTRL
UI - -> ADMIN : Requests data (i.e., labID)
deactivate UI

ADMIN -> UI : Types requested data
activate UI
UI -> CTRL : setData(labID)
activate CTRL
CTRL -> CAL: setLabID(labID)
activate CAL
deactivate CAL
CTRL -> CMP : validateClinicalAnalysisLaboratory(cal)
activate CMP
CMP -> CAL : validate()
activate CAL
deactivate CAL
deactivate CMP
deactivate CTRL
UI - -> ADMIN : Shows the data and requests a confirmation
deactivate UI

ADMIN -> UI : Confirms the data
activate UI
UI -> CTRL : saveChemicalAnalysisLaboratory()
activate CTRL
CTRL -> CMP : saveChemicalAnalysisLaboratory(cal)
activate CMP
CMP -> CMP : validateChemicalAnalysisLaboratory(cal)
activate CMP
deactivate CMP
CMP -> CMP :addChemicalAnalysisLaboratory(cal)
activate CMP
deactivate CMP
deactivate CMP
deactivate CTRL

loop for how many test types the lab operates
UI - -> ADMIN : Shows list with test types and asks to select the ones the lab operates
deactivate UI 


ADMIN -> UI : Selects corresponding test types
activate UI 
end

UI -> ADMIN : Informs the success of the operation
deactivate UI

deactivate ADMIN
@enduml

PlantUML version 1.2020.22(Sun Dec 06 09:36:27 UTC 2020)
(GPL source distribution)
Java Runtime: OpenJDK Runtime Environment
JVM: OpenJDK 64-Bit Server VM
Default Encoding: UTF-8
Language: en
Country: US
--></g></svg>