<?xml version="1.0" encoding="UTF-8" standalone="no"?><svg xmlns="http://www.w3.org/2000/svg" xmlns:xlink="http://www.w3.org/1999/xlink" contentScriptType="application/ecmascript" contentStyleType="text/css" height="456px" preserveAspectRatio="none" style="width:625px;height:456px;" version="1.1" viewBox="0 0 625 456" width="625px" zoomAndPan="magnify"><defs><filter height="300%" id="f1gve9n8ln64kt" width="300%" x="-1" y="-1"><feGaussianBlur result="blurOut" stdDeviation="2.0"/><feColorMatrix in="blurOut" result="blurOut2" type="matrix" values="0 0 0 0 0 0 0 0 0 0 0 0 0 0 0 0 0 0 .4 0"/><feOffset dx="4.0" dy="4.0" in="blurOut2" result="blurOut3"/><feBlend in="SourceGraphic" in2="blurOut3" mode="normal"/></filter></defs><g><rect fill="#FFFFFF" filter="url(#f1gve9n8ln64kt)" height="256.1953" style="stroke:#A80036;stroke-width:1.0;" width="10" x="63.5" y="98.2969"/><rect fill="#FFFFFF" filter="url(#f1gve9n8ln64kt)" height="53.2656" style="stroke:#A80036;stroke-width:1.0;" width="10" x="559.5" y="119.4297"/><rect fill="#FFFFFF" filter="url(#f1gve9n8ln64kt)" height="36.1328" style="stroke:#A80036;stroke-width:1.0;" width="10" x="559.5" y="201.8281"/><rect fill="#FFFFFF" filter="url(#f1gve9n8ln64kt)" height="29.1328" style="stroke:#A80036;stroke-width:1.0;" width="10" x="559.5" y="267.0938"/><rect fill="#FFFFFF" filter="url(#f1gve9n8ln64kt)" height="29.1328" style="stroke:#A80036;stroke-width:1.0;" width="10" x="559.5" y="325.3594"/><rect fill="#FFFFFF" filter="url(#f1gve9n8ln64kt)" height="75.3984" style="stroke:#000000;stroke-width:2.0;" width="601.5" x="10" y="134.4297"/><line style="stroke:#A80036;stroke-width:1.0;stroke-dasharray:5.0,5.0;" x1="68" x2="68" y1="88.2969" y2="372.4922"/><line style="stroke:#A80036;stroke-width:1.0;stroke-dasharray:5.0,5.0;" x1="564.5" x2="564.5" y1="88.2969" y2="372.4922"/><text fill="#000000" font-family="sans-serif" font-size="14" lengthAdjust="spacingAndGlyphs" textLength="91" x="20" y="84.9951">Administrator</text><ellipse cx="68.5" cy="15" fill="#FEFECE" filter="url(#f1gve9n8ln64kt)" rx="8" ry="8" style="stroke:#A80036;stroke-width:2.0;"/><path d="M68.5,23 L68.5,50 M55.5,31 L81.5,31 M68.5,50 L55.5,65 M68.5,50 L81.5,65 " fill="none" filter="url(#f1gve9n8ln64kt)" style="stroke:#A80036;stroke-width:2.0;"/><text fill="#000000" font-family="sans-serif" font-size="14" lengthAdjust="spacingAndGlyphs" textLength="91" x="20" y="384.4873">Administrator</text><ellipse cx="68.5" cy="397.7891" fill="#FEFECE" filter="url(#f1gve9n8ln64kt)" rx="8" ry="8" style="stroke:#A80036;stroke-width:2.0;"/><path d="M68.5,405.7891 L68.5,432.7891 M55.5,413.7891 L81.5,413.7891 M68.5,432.7891 L55.5,447.7891 M68.5,432.7891 L81.5,447.7891 " fill="none" filter="url(#f1gve9n8ln64kt)" style="stroke:#A80036;stroke-width:2.0;"/><rect fill="#FEFECE" filter="url(#f1gve9n8ln64kt)" height="30.2969" style="stroke:#A80036;stroke-width:1.5;" width="70" x="527.5" y="53"/><text fill="#000000" font-family="sans-serif" font-size="14" lengthAdjust="spacingAndGlyphs" textLength="56" x="534.5" y="72.9951">:System</text><rect fill="#FEFECE" filter="url(#f1gve9n8ln64kt)" height="30.2969" style="stroke:#A80036;stroke-width:1.5;" width="70" x="527.5" y="371.4922"/><text fill="#000000" font-family="sans-serif" font-size="14" lengthAdjust="spacingAndGlyphs" textLength="56" x="534.5" y="391.4873">:System</text><rect fill="#FFFFFF" filter="url(#f1gve9n8ln64kt)" height="256.1953" style="stroke:#A80036;stroke-width:1.0;" width="10" x="63.5" y="98.2969"/><rect fill="#FFFFFF" filter="url(#f1gve9n8ln64kt)" height="53.2656" style="stroke:#A80036;stroke-width:1.0;" width="10" x="559.5" y="119.4297"/><rect fill="#FFFFFF" filter="url(#f1gve9n8ln64kt)" height="36.1328" style="stroke:#A80036;stroke-width:1.0;" width="10" x="559.5" y="201.8281"/><rect fill="#FFFFFF" filter="url(#f1gve9n8ln64kt)" height="29.1328" style="stroke:#A80036;stroke-width:1.0;" width="10" x="559.5" y="267.0938"/><rect fill="#FFFFFF" filter="url(#f1gve9n8ln64kt)" height="29.1328" style="stroke:#A80036;stroke-width:1.0;" width="10" x="559.5" y="325.3594"/><polygon fill="#A80036" points="547.5,115.4297,557.5,119.4297,547.5,123.4297,551.5,119.4297" style="stroke:#A80036;stroke-width:1.0;"/><line style="stroke:#A80036;stroke-width:1.0;" x1="73.5" x2="553.5" y1="119.4297" y2="119.4297"/><text fill="#000000" font-family="sans-serif" font-size="13" font-weight="bold" lengthAdjust="spacingAndGlyphs" textLength="9" x="80.5" y="114.3638">1</text><text fill="#000000" font-family="sans-serif" font-size="13" lengthAdjust="spacingAndGlyphs" textLength="424" x="93.5" y="114.3638">Starts the proccess of registering a new clinical analysis laboratory</text><path d="M10,134.4297 L87,134.4297 L87,141.4297 L77,151.4297 L10,151.4297 L10,134.4297 " fill="#EEEEEE" style="stroke:#000000;stroke-width:1.0;"/><rect fill="none" height="75.3984" style="stroke:#000000;stroke-width:2.0;" width="601.5" x="10" y="134.4297"/><text fill="#000000" font-family="sans-serif" font-size="13" font-weight="bold" lengthAdjust="spacingAndGlyphs" textLength="32" x="25" y="147.4966">loop</text><polygon fill="#A80036" points="84.5,168.6953,74.5,172.6953,84.5,176.6953,80.5,172.6953" style="stroke:#A80036;stroke-width:1.0;"/><line style="stroke:#A80036;stroke-width:1.0;stroke-dasharray:2.0,2.0;" x1="78.5" x2="563.5" y1="172.6953" y2="172.6953"/><text fill="#000000" font-family="sans-serif" font-size="13" font-weight="bold" lengthAdjust="spacingAndGlyphs" textLength="9" x="90.5" y="167.6294">2</text><text fill="#000000" font-family="sans-serif" font-size="13" lengthAdjust="spacingAndGlyphs" textLength="449" x="103.5" y="167.6294">Shows list with test types and asks to select the ones the lab operates</text><polygon fill="#A80036" points="547.5,197.8281,557.5,201.8281,547.5,205.8281,551.5,201.8281" style="stroke:#A80036;stroke-width:1.0;"/><line style="stroke:#A80036;stroke-width:1.0;" x1="73.5" x2="553.5" y1="201.8281" y2="201.8281"/><text fill="#000000" font-family="sans-serif" font-size="13" font-weight="bold" lengthAdjust="spacingAndGlyphs" textLength="9" x="80.5" y="196.7622">3</text><text fill="#000000" font-family="sans-serif" font-size="13" lengthAdjust="spacingAndGlyphs" textLength="203" x="93.5" y="196.7622">Selects corresponding test type</text><polygon fill="#A80036" points="84.5,233.9609,74.5,237.9609,84.5,241.9609,80.5,237.9609" style="stroke:#A80036;stroke-width:1.0;"/><line style="stroke:#A80036;stroke-width:1.0;stroke-dasharray:2.0,2.0;" x1="78.5" x2="563.5" y1="237.9609" y2="237.9609"/><text fill="#000000" font-family="sans-serif" font-size="13" font-weight="bold" lengthAdjust="spacingAndGlyphs" textLength="9" x="90.5" y="232.895">4</text><text fill="#000000" font-family="sans-serif" font-size="13" lengthAdjust="spacingAndGlyphs" textLength="165" x="103.5" y="232.895">Requests data (i.e., labID)</text><polygon fill="#A80036" points="547.5,263.0938,557.5,267.0938,547.5,271.0938,551.5,267.0938" style="stroke:#A80036;stroke-width:1.0;"/><line style="stroke:#A80036;stroke-width:1.0;" x1="73.5" x2="553.5" y1="267.0938" y2="267.0938"/><text fill="#000000" font-family="sans-serif" font-size="13" font-weight="bold" lengthAdjust="spacingAndGlyphs" textLength="9" x="80.5" y="262.0278">5</text><text fill="#000000" font-family="sans-serif" font-size="13" lengthAdjust="spacingAndGlyphs" textLength="139" x="93.5" y="262.0278">Types requested data</text><polygon fill="#A80036" points="84.5,292.2266,74.5,296.2266,84.5,300.2266,80.5,296.2266" style="stroke:#A80036;stroke-width:1.0;"/><line style="stroke:#A80036;stroke-width:1.0;stroke-dasharray:2.0,2.0;" x1="78.5" x2="563.5" y1="296.2266" y2="296.2266"/><text fill="#000000" font-family="sans-serif" font-size="13" font-weight="bold" lengthAdjust="spacingAndGlyphs" textLength="9" x="90.5" y="291.1606">6</text><text fill="#000000" font-family="sans-serif" font-size="13" lengthAdjust="spacingAndGlyphs" textLength="309" x="103.5" y="291.1606">Shows requested data and asks for confirmation</text><polygon fill="#A80036" points="547.5,321.3594,557.5,325.3594,547.5,329.3594,551.5,325.3594" style="stroke:#A80036;stroke-width:1.0;"/><line style="stroke:#A80036;stroke-width:1.0;" x1="73.5" x2="553.5" y1="325.3594" y2="325.3594"/><text fill="#000000" font-family="sans-serif" font-size="13" font-weight="bold" lengthAdjust="spacingAndGlyphs" textLength="9" x="80.5" y="320.2935">7</text><text fill="#000000" font-family="sans-serif" font-size="13" lengthAdjust="spacingAndGlyphs" textLength="115" x="93.5" y="320.2935">Confirms the data</text><polygon fill="#A80036" points="79.5,350.4922,69.5,354.4922,79.5,358.4922,75.5,354.4922" style="stroke:#A80036;stroke-width:1.0;"/><line style="stroke:#A80036;stroke-width:1.0;stroke-dasharray:2.0,2.0;" x1="73.5" x2="563.5" y1="354.4922" y2="354.4922"/><text fill="#000000" font-family="sans-serif" font-size="13" font-weight="bold" lengthAdjust="spacingAndGlyphs" textLength="9" x="85.5" y="349.4263">8</text><text fill="#000000" font-family="sans-serif" font-size="13" lengthAdjust="spacingAndGlyphs" textLength="234" x="98.5" y="349.4263">Informs the success of the operation</text><!--MD5=[0c460b7e27b7d50d754ec2ceb952a807]
@startuml
autonumber


actor "Administrator" as ADMIN

participant ":System" as SYST

activate ADMIN
ADMIN -> SYST : Starts the proccess of registering a new clinical analysis laboratory
activate SYST

loop
SYST - -> ADMIN : Shows list with test types and asks to select the ones the lab operates
deactivate SYST
ADMIN -> SYST : Selects corresponding test type
activate SYST
end 

SYST - -> ADMIN : Requests data (i.e., labID) 
deactivate SYST

ADMIN -> SYST : Types requested data
activate SYST
SYST - -> ADMIN : Shows requested data and asks for confirmation
deactivate SYST

ADMIN -> SYST : Confirms the data
activate SYST


SYST - -> ADMIN : Informs the success of the operation
deactivate SYST

deactivate ADMIN
@enduml

PlantUML version 1.2020.22(Sun Dec 06 09:36:27 UTC 2020)
(GPL source distribution)
Java Runtime: OpenJDK Runtime Environment
JVM: OpenJDK 64-Bit Server VM
Default Encoding: UTF-8
Language: en
Country: US
--></g></svg>