<?xml version="1.0" encoding="UTF-8" standalone="no"?><svg xmlns="http://www.w3.org/2000/svg" xmlns:xlink="http://www.w3.org/1999/xlink" contentScriptType="application/ecmascript" contentStyleType="text/css" height="456px" preserveAspectRatio="none" style="width:625px;height:456px;" version="1.1" viewBox="0 0 625 456" width="625px" zoomAndPan="magnify"><defs><filter height="300%" id="foixf8bxd2uvj" width="300%" x="-1" y="-1"><feGaussianBlur result="blurOut" stdDeviation="2.0"/><feColorMatrix in="blurOut" result="blurOut2" type="matrix" values="0 0 0 0 0 0 0 0 0 0 0 0 0 0 0 0 0 0 .4 0"/><feOffset dx="4.0" dy="4.0" in="blurOut2" result="blurOut3"/><feBlend in="SourceGraphic" in2="blurOut3" mode="normal"/></filter></defs><g><rect fill="#FFFFFF" filter="url(#foixf8bxd2uvj)" height="256.1953" style="stroke:#A80036;stroke-width:1.0;" width="10" x="63.5" y="98.2969"/><rect fill="#FFFFFF" filter="url(#foixf8bxd2uvj)" height="29.1328" style="stroke:#A80036;stroke-width:1.0;" width="10" x="559.5" y="119.4297"/><rect fill="#FFFFFF" filter="url(#foixf8bxd2uvj)" height="29.1328" style="stroke:#A80036;stroke-width:1.0;" width="10" x="559.5" y="177.6953"/><rect fill="#FFFFFF" filter="url(#foixf8bxd2uvj)" height="53.2656" style="stroke:#A80036;stroke-width:1.0;" width="10" x="559.5" y="235.9609"/><rect fill="#FFFFFF" filter="url(#foixf8bxd2uvj)" height="36.1328" style="stroke:#A80036;stroke-width:1.0;" width="10" x="559.5" y="318.3594"/><rect fill="#FFFFFF" filter="url(#foixf8bxd2uvj)" height="75.3984" style="stroke:#000000;stroke-width:2.0;" width="601.5" x="10" y="250.9609"/><line style="stroke:#A80036;stroke-width:1.0;stroke-dasharray:5.0,5.0;" x1="68" x2="68" y1="88.2969" y2="372.4922"/><line style="stroke:#A80036;stroke-width:1.0;stroke-dasharray:5.0,5.0;" x1="564.5" x2="564.5" y1="88.2969" y2="372.4922"/><text fill="#000000" font-family="sans-serif" font-size="14" lengthAdjust="spacingAndGlyphs" textLength="91" x="20" y="84.9951">Administrator</text><ellipse cx="68.5" cy="15" fill="#FEFECE" filter="url(#foixf8bxd2uvj)" rx="8" ry="8" style="stroke:#A80036;stroke-width:2.0;"/><path d="M68.5,23 L68.5,50 M55.5,31 L81.5,31 M68.5,50 L55.5,65 M68.5,50 L81.5,65 " fill="none" filter="url(#foixf8bxd2uvj)" style="stroke:#A80036;stroke-width:2.0;"/><text fill="#000000" font-family="sans-serif" font-size="14" lengthAdjust="spacingAndGlyphs" textLength="91" x="20" y="384.4873">Administrator</text><ellipse cx="68.5" cy="397.7891" fill="#FEFECE" filter="url(#foixf8bxd2uvj)" rx="8" ry="8" style="stroke:#A80036;stroke-width:2.0;"/><path d="M68.5,405.7891 L68.5,432.7891 M55.5,413.7891 L81.5,413.7891 M68.5,432.7891 L55.5,447.7891 M68.5,432.7891 L81.5,447.7891 " fill="none" filter="url(#foixf8bxd2uvj)" style="stroke:#A80036;stroke-width:2.0;"/><rect fill="#FEFECE" filter="url(#foixf8bxd2uvj)" height="30.2969" style="stroke:#A80036;stroke-width:1.5;" width="70" x="527.5" y="53"/><text fill="#000000" font-family="sans-serif" font-size="14" lengthAdjust="spacingAndGlyphs" textLength="56" x="534.5" y="72.9951">:System</text><rect fill="#FEFECE" filter="url(#foixf8bxd2uvj)" height="30.2969" style="stroke:#A80036;stroke-width:1.5;" width="70" x="527.5" y="371.4922"/><text fill="#000000" font-family="sans-serif" font-size="14" lengthAdjust="spacingAndGlyphs" textLength="56" x="534.5" y="391.4873">:System</text><rect fill="#FFFFFF" filter="url(#foixf8bxd2uvj)" height="256.1953" style="stroke:#A80036;stroke-width:1.0;" width="10" x="63.5" y="98.2969"/><rect fill="#FFFFFF" filter="url(#foixf8bxd2uvj)" height="29.1328" style="stroke:#A80036;stroke-width:1.0;" width="10" x="559.5" y="119.4297"/><rect fill="#FFFFFF" filter="url(#foixf8bxd2uvj)" height="29.1328" style="stroke:#A80036;stroke-width:1.0;" width="10" x="559.5" y="177.6953"/><rect fill="#FFFFFF" filter="url(#foixf8bxd2uvj)" height="53.2656" style="stroke:#A80036;stroke-width:1.0;" width="10" x="559.5" y="235.9609"/><rect fill="#FFFFFF" filter="url(#foixf8bxd2uvj)" height="36.1328" style="stroke:#A80036;stroke-width:1.0;" width="10" x="559.5" y="318.3594"/><polygon fill="#A80036" points="547.5,115.4297,557.5,119.4297,547.5,123.4297,551.5,119.4297" style="stroke:#A80036;stroke-width:1.0;"/><line style="stroke:#A80036;stroke-width:1.0;" x1="73.5" x2="553.5" y1="119.4297" y2="119.4297"/><text fill="#000000" font-family="sans-serif" font-size="13" font-weight="bold" lengthAdjust="spacingAndGlyphs" textLength="9" x="80.5" y="114.3638">1</text><text fill="#000000" font-family="sans-serif" font-size="13" lengthAdjust="spacingAndGlyphs" textLength="424" x="93.5" y="114.3638">Starts the proccess of registering a new clinical analysis laboratory</text><polygon fill="#A80036" points="84.5,144.5625,74.5,148.5625,84.5,152.5625,80.5,148.5625" style="stroke:#A80036;stroke-width:1.0;"/><line style="stroke:#A80036;stroke-width:1.0;stroke-dasharray:2.0,2.0;" x1="78.5" x2="563.5" y1="148.5625" y2="148.5625"/><text fill="#000000" font-family="sans-serif" font-size="13" font-weight="bold" lengthAdjust="spacingAndGlyphs" textLength="9" x="90.5" y="143.4966">2</text><text fill="#000000" font-family="sans-serif" font-size="13" lengthAdjust="spacingAndGlyphs" textLength="165" x="103.5" y="143.4966">Requests data (i.e., labID)</text><polygon fill="#A80036" points="547.5,173.6953,557.5,177.6953,547.5,181.6953,551.5,177.6953" style="stroke:#A80036;stroke-width:1.0;"/><line style="stroke:#A80036;stroke-width:1.0;" x1="73.5" x2="553.5" y1="177.6953" y2="177.6953"/><text fill="#000000" font-family="sans-serif" font-size="13" font-weight="bold" lengthAdjust="spacingAndGlyphs" textLength="9" x="80.5" y="172.6294">3</text><text fill="#000000" font-family="sans-serif" font-size="13" lengthAdjust="spacingAndGlyphs" textLength="139" x="93.5" y="172.6294">Types requested data</text><polygon fill="#A80036" points="84.5,202.8281,74.5,206.8281,84.5,210.8281,80.5,206.8281" style="stroke:#A80036;stroke-width:1.0;"/><line style="stroke:#A80036;stroke-width:1.0;stroke-dasharray:2.0,2.0;" x1="78.5" x2="563.5" y1="206.8281" y2="206.8281"/><text fill="#000000" font-family="sans-serif" font-size="13" font-weight="bold" lengthAdjust="spacingAndGlyphs" textLength="9" x="90.5" y="201.7622">4</text><text fill="#000000" font-family="sans-serif" font-size="13" lengthAdjust="spacingAndGlyphs" textLength="309" x="103.5" y="201.7622">Shows requested data and asks for confirmation</text><polygon fill="#A80036" points="547.5,231.9609,557.5,235.9609,547.5,239.9609,551.5,235.9609" style="stroke:#A80036;stroke-width:1.0;"/><line style="stroke:#A80036;stroke-width:1.0;" x1="73.5" x2="553.5" y1="235.9609" y2="235.9609"/><text fill="#000000" font-family="sans-serif" font-size="13" font-weight="bold" lengthAdjust="spacingAndGlyphs" textLength="9" x="80.5" y="230.895">5</text><text fill="#000000" font-family="sans-serif" font-size="13" lengthAdjust="spacingAndGlyphs" textLength="115" x="93.5" y="230.895">Confirms the data</text><path d="M10,250.9609 L87,250.9609 L87,257.9609 L77,267.9609 L10,267.9609 L10,250.9609 " fill="#EEEEEE" style="stroke:#000000;stroke-width:1.0;"/><rect fill="none" height="75.3984" style="stroke:#000000;stroke-width:2.0;" width="601.5" x="10" y="250.9609"/><text fill="#000000" font-family="sans-serif" font-size="13" font-weight="bold" lengthAdjust="spacingAndGlyphs" textLength="32" x="25" y="264.0278">loop</text><polygon fill="#A80036" points="84.5,285.2266,74.5,289.2266,84.5,293.2266,80.5,289.2266" style="stroke:#A80036;stroke-width:1.0;"/><line style="stroke:#A80036;stroke-width:1.0;stroke-dasharray:2.0,2.0;" x1="78.5" x2="563.5" y1="289.2266" y2="289.2266"/><text fill="#000000" font-family="sans-serif" font-size="13" font-weight="bold" lengthAdjust="spacingAndGlyphs" textLength="9" x="90.5" y="284.1606">6</text><text fill="#000000" font-family="sans-serif" font-size="13" lengthAdjust="spacingAndGlyphs" textLength="449" x="103.5" y="284.1606">Shows list with test types and asks to select the ones the lab operates</text><polygon fill="#A80036" points="547.5,314.3594,557.5,318.3594,547.5,322.3594,551.5,318.3594" style="stroke:#A80036;stroke-width:1.0;"/><line style="stroke:#A80036;stroke-width:1.0;" x1="73.5" x2="553.5" y1="318.3594" y2="318.3594"/><text fill="#000000" font-family="sans-serif" font-size="13" font-weight="bold" lengthAdjust="spacingAndGlyphs" textLength="9" x="80.5" y="313.2935">7</text><text fill="#000000" font-family="sans-serif" font-size="13" lengthAdjust="spacingAndGlyphs" textLength="203" x="93.5" y="313.2935">Selects corresponding test type</text><polygon fill="#A80036" points="79.5,350.4922,69.5,354.4922,79.5,358.4922,75.5,354.4922" style="stroke:#A80036;stroke-width:1.0;"/><line style="stroke:#A80036;stroke-width:1.0;stroke-dasharray:2.0,2.0;" x1="73.5" x2="563.5" y1="354.4922" y2="354.4922"/><text fill="#000000" font-family="sans-serif" font-size="13" font-weight="bold" lengthAdjust="spacingAndGlyphs" textLength="9" x="85.5" y="349.4263">8</text><text fill="#000000" font-family="sans-serif" font-size="13" lengthAdjust="spacingAndGlyphs" textLength="234" x="98.5" y="349.4263">Informs the success of the operation</text><!--MD5=[7735e05cf45abbf37089aec0a8ebac34]
@startuml
autonumber


actor "Administrator" as ADMIN

participant ":System" as SYST

activate ADMIN
ADMIN -> SYST : Starts the proccess of registering a new clinical analysis laboratory
activate SYST
SYST - -> ADMIN : Requests data (i.e., labID) 
deactivate SYST


ADMIN -> SYST : Types requested data
activate SYST
SYST - -> ADMIN : Shows requested data and asks for confirmation
deactivate SYST

ADMIN -> SYST : Confirms the data
activate SYST

loop
SYST - -> ADMIN : Shows list with test types and asks to select the ones the lab operates
deactivate SYST

ADMIN -> SYST : Selects corresponding test type
activate SYST
end 

SYST - -> ADMIN : Informs the success of the operation
deactivate SYST

deactivate ADMIN
@enduml

PlantUML version 1.2020.22(Sun Dec 06 09:36:27 UTC 2020)
(GPL source distribution)
Java Runtime: OpenJDK Runtime Environment
JVM: OpenJDK 64-Bit Server VM
Default Encoding: UTF-8
Language: en
Country: US
--></g></svg>