<?xml version="1.0" encoding="UTF-8" standalone="no"?><svg xmlns="http://www.w3.org/2000/svg" xmlns:xlink="http://www.w3.org/1999/xlink" contentScriptType="application/ecmascript" contentStyleType="text/css" height="859px" preserveAspectRatio="none" style="width:1258px;height:859px;" version="1.1" viewBox="0 0 1258 859" width="1258px" zoomAndPan="magnify"><defs><filter height="300%" id="f1d710yo6al55f" width="300%" x="-1" y="-1"><feGaussianBlur result="blurOut" stdDeviation="2.0"/><feColorMatrix in="blurOut" result="blurOut2" type="matrix" values="0 0 0 0 0 0 0 0 0 0 0 0 0 0 0 0 0 0 .4 0"/><feOffset dx="4.0" dy="4.0" in="blurOut2" result="blurOut3"/><feBlend in="SourceGraphic" in2="blurOut3" mode="normal"/></filter></defs><g><!--MD5=[e97daf9298e09b9cb975d7fc43fc205e]
class RegisterNewEmployeeUI--><rect codeLine="2" fill="#FEFECE" filter="url(#f1d710yo6al55f)" height="48" id="RegisterNewEmployeeUI" style="stroke:#A80036;stroke-width:1.5;" width="182" x="597.5" y="7"/><ellipse cx="612.5" cy="23" fill="#ADD1B2" rx="11" ry="11" style="stroke:#A80036;stroke-width:1.0;"/><path d="M615.4688,28.6406 Q614.8906,28.9375 614.25,29.0781 Q613.6094,29.2344 612.9063,29.2344 Q610.4063,29.2344 609.0781,27.5938 Q607.7656,25.9375 607.7656,22.8125 Q607.7656,19.6875 609.0781,18.0313 Q610.4063,16.375 612.9063,16.375 Q613.6094,16.375 614.25,16.5313 Q614.9063,16.6875 615.4688,16.9844 L615.4688,19.7031 Q614.8438,19.125 614.25,18.8594 Q613.6563,18.5781 613.0313,18.5781 Q611.6875,18.5781 611,19.6563 Q610.3125,20.7188 610.3125,22.8125 Q610.3125,24.9063 611,25.9844 Q611.6875,27.0469 613.0313,27.0469 Q613.6563,27.0469 614.25,26.7813 Q614.8438,26.5 615.4688,25.9219 L615.4688,28.6406 Z " fill="#000000"/><text fill="#000000" font-family="sans-serif" font-size="12" lengthAdjust="spacingAndGlyphs" textLength="150" x="626.5" y="27.1543">RegisterNewEmployeeUI</text><line style="stroke:#A80036;stroke-width:1.5;" x1="598.5" x2="778.5" y1="39" y2="39"/><line style="stroke:#A80036;stroke-width:1.5;" x1="598.5" x2="778.5" y1="47" y2="47"/><!--MD5=[0af8f8019f740f778e383a70d6c8693f]
class RolesMapper--><rect codeLine="3" fill="#FEFECE" filter="url(#f1d710yo6al55f)" height="60.8047" id="RolesMapper" style="stroke:#A80036;stroke-width:1.5;" width="113" x="458" y="275.5"/><ellipse cx="473" cy="291.5" fill="#ADD1B2" rx="11" ry="11" style="stroke:#A80036;stroke-width:1.0;"/><path d="M475.9688,297.1406 Q475.3906,297.4375 474.75,297.5781 Q474.1094,297.7344 473.4063,297.7344 Q470.9063,297.7344 469.5781,296.0938 Q468.2656,294.4375 468.2656,291.3125 Q468.2656,288.1875 469.5781,286.5313 Q470.9063,284.875 473.4063,284.875 Q474.1094,284.875 474.75,285.0313 Q475.4063,285.1875 475.9688,285.4844 L475.9688,288.2031 Q475.3438,287.625 474.75,287.3594 Q474.1563,287.0781 473.5313,287.0781 Q472.1875,287.0781 471.5,288.1563 Q470.8125,289.2188 470.8125,291.3125 Q470.8125,293.4063 471.5,294.4844 Q472.1875,295.5469 473.5313,295.5469 Q474.1563,295.5469 474.75,295.2813 Q475.3438,295 475.9688,294.4219 L475.9688,297.1406 Z " fill="#000000"/><text fill="#000000" font-family="sans-serif" font-size="12" lengthAdjust="spacingAndGlyphs" textLength="81" x="487" y="295.6543">RolesMapper</text><line style="stroke:#A80036;stroke-width:1.5;" x1="459" x2="570" y1="307.5" y2="307.5"/><line style="stroke:#A80036;stroke-width:1.5;" x1="459" x2="570" y1="315.5" y2="315.5"/><text fill="#000000" font-family="sans-serif" font-size="11" lengthAdjust="spacingAndGlyphs" textLength="86" x="464" y="329.7104">+toDTO(lRoles)</text><!--MD5=[4543091c387f147fceabade6c180ba98]
class EmployeeMapper--><rect codeLine="6" fill="#FEFECE" filter="url(#f1d710yo6al55f)" height="60.8047" id="EmployeeMapper" style="stroke:#A80036;stroke-width:1.5;" width="139" x="585" y="410"/><ellipse cx="600" cy="426" fill="#ADD1B2" rx="11" ry="11" style="stroke:#A80036;stroke-width:1.0;"/><path d="M602.9688,431.6406 Q602.3906,431.9375 601.75,432.0781 Q601.1094,432.2344 600.4063,432.2344 Q597.9063,432.2344 596.5781,430.5938 Q595.2656,428.9375 595.2656,425.8125 Q595.2656,422.6875 596.5781,421.0313 Q597.9063,419.375 600.4063,419.375 Q601.1094,419.375 601.75,419.5313 Q602.4063,419.6875 602.9688,419.9844 L602.9688,422.7031 Q602.3438,422.125 601.75,421.8594 Q601.1563,421.5781 600.5313,421.5781 Q599.1875,421.5781 598.5,422.6563 Q597.8125,423.7188 597.8125,425.8125 Q597.8125,427.9063 598.5,428.9844 Q599.1875,430.0469 600.5313,430.0469 Q601.1563,430.0469 601.75,429.7813 Q602.3438,429.5 602.9688,428.9219 L602.9688,431.6406 Z " fill="#000000"/><text fill="#000000" font-family="sans-serif" font-size="12" lengthAdjust="spacingAndGlyphs" textLength="107" x="614" y="430.1543">EmployeeMapper</text><line style="stroke:#A80036;stroke-width:1.5;" x1="586" x2="723" y1="442" y2="442"/><line style="stroke:#A80036;stroke-width:1.5;" x1="586" x2="723" y1="450" y2="450"/><text fill="#000000" font-family="sans-serif" font-size="11" lengthAdjust="spacingAndGlyphs" textLength="105" x="591" y="464.2104">+toModel(empDto)</text><!--MD5=[7d96fd15f3014691d2fcaf89c5791e2a]
class SpecialistDoctor--><rect codeLine="9" fill="#FEFECE" filter="url(#f1d710yo6al55f)" height="73.6094" id="SpecialistDoctor" style="stroke:#A80036;stroke-width:1.5;" width="309" x="7" y="583"/><ellipse cx="106.25" cy="599" fill="#ADD1B2" rx="11" ry="11" style="stroke:#A80036;stroke-width:1.0;"/><path d="M109.2188,604.6406 Q108.6406,604.9375 108,605.0781 Q107.3594,605.2344 106.6563,605.2344 Q104.1563,605.2344 102.8281,603.5938 Q101.5156,601.9375 101.5156,598.8125 Q101.5156,595.6875 102.8281,594.0313 Q104.1563,592.375 106.6563,592.375 Q107.3594,592.375 108,592.5313 Q108.6563,592.6875 109.2188,592.9844 L109.2188,595.7031 Q108.5938,595.125 108,594.8594 Q107.4063,594.5781 106.7813,594.5781 Q105.4375,594.5781 104.75,595.6563 Q104.0625,596.7188 104.0625,598.8125 Q104.0625,600.9063 104.75,601.9844 Q105.4375,603.0469 106.7813,603.0469 Q107.4063,603.0469 108,602.7813 Q108.5938,602.5 109.2188,601.9219 L109.2188,604.6406 Z " fill="#000000"/><text fill="#000000" font-family="sans-serif" font-size="12" lengthAdjust="spacingAndGlyphs" textLength="102" x="126.75" y="603.1543">SpecialistDoctor</text><line style="stroke:#A80036;stroke-width:1.5;" x1="8" x2="315" y1="615" y2="615"/><text fill="#000000" font-family="sans-serif" font-size="11" lengthAdjust="spacingAndGlyphs" textLength="115" x="13" y="629.2104">-doctorIndexNumber</text><line style="stroke:#A80036;stroke-width:1.5;" x1="8" x2="315" y1="635.8047" y2="635.8047"/><text fill="#000000" font-family="sans-serif" font-size="11" lengthAdjust="spacingAndGlyphs" textLength="297" x="13" y="650.0151">+create(name, role, address, email, phoneNumber)</text><!--MD5=[00f5a8d890e3e1ee187254d4d2c6b7cb]
class EmployeeDTO--><rect codeLine="13" fill="#FEFECE" filter="url(#f1d710yo6al55f)" height="137.6328" id="EmployeeDTO" style="stroke:#A80036;stroke-width:1.5;" width="203" x="553" y="551"/><ellipse cx="607.75" cy="567" fill="#ADD1B2" rx="11" ry="11" style="stroke:#A80036;stroke-width:1.0;"/><path d="M610.7188,572.6406 Q610.1406,572.9375 609.5,573.0781 Q608.8594,573.2344 608.1563,573.2344 Q605.6563,573.2344 604.3281,571.5938 Q603.0156,569.9375 603.0156,566.8125 Q603.0156,563.6875 604.3281,562.0313 Q605.6563,560.375 608.1563,560.375 Q608.8594,560.375 609.5,560.5313 Q610.1563,560.6875 610.7188,560.9844 L610.7188,563.7031 Q610.0938,563.125 609.5,562.8594 Q608.9063,562.5781 608.2813,562.5781 Q606.9375,562.5781 606.25,563.6563 Q605.5625,564.7188 605.5625,566.8125 Q605.5625,568.9063 606.25,569.9844 Q606.9375,571.0469 608.2813,571.0469 Q608.9063,571.0469 609.5,570.7813 Q610.0938,570.5 610.7188,569.9219 L610.7188,572.6406 Z " fill="#000000"/><text fill="#000000" font-family="sans-serif" font-size="12" lengthAdjust="spacingAndGlyphs" textLength="85" x="628.25" y="571.1543">EmployeeDTO</text><line style="stroke:#A80036;stroke-width:1.5;" x1="554" x2="755" y1="583" y2="583"/><line style="stroke:#A80036;stroke-width:1.5;" x1="554" x2="755" y1="591" y2="591"/><text fill="#000000" font-family="sans-serif" font-size="11" lengthAdjust="spacingAndGlyphs" textLength="112" x="559" y="605.2104">+getName(empDto)</text><text fill="#000000" font-family="sans-serif" font-size="11" lengthAdjust="spacingAndGlyphs" textLength="126" x="559" y="618.0151">+getAddress(empDto)</text><text fill="#000000" font-family="sans-serif" font-size="11" lengthAdjust="spacingAndGlyphs" textLength="110" x="559" y="630.8198">+getEmail(empDto)</text><text fill="#000000" font-family="sans-serif" font-size="11" lengthAdjust="spacingAndGlyphs" textLength="103" x="559" y="643.6245">+getRole(empDto)</text><text fill="#000000" font-family="sans-serif" font-size="11" lengthAdjust="spacingAndGlyphs" textLength="159" x="559" y="656.4292">+getPhoneNumber(empDto)</text><text fill="#000000" font-family="sans-serif" font-size="11" lengthAdjust="spacingAndGlyphs" textLength="129" x="559" y="669.2339">+getSocCode(empDto)</text><text fill="#000000" font-family="sans-serif" font-size="11" lengthAdjust="spacingAndGlyphs" textLength="191" x="559" y="682.0386">+getDoctorIndexNumber(empDto)</text><!--MD5=[e98dbd2dbb15b74fee5fb51c2f897ceb]
class RegisterNewEmployeeController--><rect codeLine="22" fill="#FEFECE" filter="url(#f1d710yo6al55f)" height="86.4141" id="RegisterNewEmployeeController" style="stroke:#A80036;stroke-width:1.5;" width="231" x="573" y="116"/><ellipse cx="588" cy="132" fill="#ADD1B2" rx="11" ry="11" style="stroke:#A80036;stroke-width:1.0;"/><path d="M590.9688,137.6406 Q590.3906,137.9375 589.75,138.0781 Q589.1094,138.2344 588.4063,138.2344 Q585.9063,138.2344 584.5781,136.5938 Q583.2656,134.9375 583.2656,131.8125 Q583.2656,128.6875 584.5781,127.0313 Q585.9063,125.375 588.4063,125.375 Q589.1094,125.375 589.75,125.5313 Q590.4063,125.6875 590.9688,125.9844 L590.9688,128.7031 Q590.3438,128.125 589.75,127.8594 Q589.1563,127.5781 588.5313,127.5781 Q587.1875,127.5781 586.5,128.6563 Q585.8125,129.7188 585.8125,131.8125 Q585.8125,133.9063 586.5,134.9844 Q587.1875,136.0469 588.5313,136.0469 Q589.1563,136.0469 589.75,135.7813 Q590.3438,135.5 590.9688,134.9219 L590.9688,137.6406 Z " fill="#000000"/><text fill="#000000" font-family="sans-serif" font-size="12" lengthAdjust="spacingAndGlyphs" textLength="199" x="602" y="136.1543">RegisterNewEmployeeController</text><line style="stroke:#A80036;stroke-width:1.5;" x1="574" x2="803" y1="148" y2="148"/><line style="stroke:#A80036;stroke-width:1.5;" x1="574" x2="803" y1="156" y2="156"/><text fill="#000000" font-family="sans-serif" font-size="11" lengthAdjust="spacingAndGlyphs" textLength="66" x="579" y="170.2104">+getRoles()</text><text fill="#000000" font-family="sans-serif" font-size="11" lengthAdjust="spacingAndGlyphs" textLength="152" x="579" y="183.0151">+createEmployee(empDto)</text><text fill="#000000" font-family="sans-serif" font-size="11" lengthAdjust="spacingAndGlyphs" textLength="124" x="579" y="195.8198">+saveEmployee(emp)</text><!--MD5=[7421f545a0d8420c5bec41e74b387d9c]
class Employee--><rect codeLine="28" fill="#FEFECE" filter="url(#f1d710yo6al55f)" height="176.0469" id="Employee" style="stroke:#A80036;stroke-width:1.5;" width="161" x="351" y="532"/><ellipse cx="397.25" cy="548" fill="#ADD1B2" rx="11" ry="11" style="stroke:#A80036;stroke-width:1.0;"/><path d="M400.2188,553.6406 Q399.6406,553.9375 399,554.0781 Q398.3594,554.2344 397.6563,554.2344 Q395.1563,554.2344 393.8281,552.5938 Q392.5156,550.9375 392.5156,547.8125 Q392.5156,544.6875 393.8281,543.0313 Q395.1563,541.375 397.6563,541.375 Q398.3594,541.375 399,541.5313 Q399.6563,541.6875 400.2188,541.9844 L400.2188,544.7031 Q399.5938,544.125 399,543.8594 Q398.4063,543.5781 397.7813,543.5781 Q396.4375,543.5781 395.75,544.6563 Q395.0625,545.7188 395.0625,547.8125 Q395.0625,549.9063 395.75,550.9844 Q396.4375,552.0469 397.7813,552.0469 Q398.4063,552.0469 399,551.7813 Q399.5938,551.5 400.2188,550.9219 L400.2188,553.6406 Z " fill="#000000"/><text fill="#000000" font-family="sans-serif" font-size="12" lengthAdjust="spacingAndGlyphs" textLength="60" x="417.75" y="552.1543">Employee</text><line style="stroke:#A80036;stroke-width:1.5;" x1="352" x2="511" y1="564" y2="564"/><text fill="#000000" font-family="sans-serif" font-size="11" lengthAdjust="spacingAndGlyphs" textLength="14" x="357" y="578.2104">-id</text><text fill="#000000" font-family="sans-serif" font-size="11" lengthAdjust="spacingAndGlyphs" textLength="36" x="357" y="591.0151">-name</text><text fill="#000000" font-family="sans-serif" font-size="11" lengthAdjust="spacingAndGlyphs" textLength="51" x="357" y="603.8198">-address</text><text fill="#000000" font-family="sans-serif" font-size="11" lengthAdjust="spacingAndGlyphs" textLength="84" x="357" y="616.6245">-phoneNumber</text><text fill="#000000" font-family="sans-serif" font-size="11" lengthAdjust="spacingAndGlyphs" textLength="82" x="357" y="629.4292">-emailAddress</text><text fill="#000000" font-family="sans-serif" font-size="11" lengthAdjust="spacingAndGlyphs" textLength="53" x="357" y="642.2339">-socCode</text><text fill="#000000" font-family="sans-serif" font-size="11" lengthAdjust="spacingAndGlyphs" textLength="26" x="357" y="655.0386">-role</text><line style="stroke:#A80036;stroke-width:1.5;" x1="352" x2="511" y1="661.6328" y2="661.6328"/><text fill="#000000" font-family="sans-serif" font-size="11" lengthAdjust="spacingAndGlyphs" textLength="149" x="357" y="675.8433">+create(role, id, name ...)</text><text fill="#000000" font-family="sans-serif" font-size="11" lengthAdjust="spacingAndGlyphs" textLength="111" x="357" y="688.6479">+generateID(name)</text><text fill="#000000" font-family="sans-serif" font-size="11" lengthAdjust="spacingAndGlyphs" textLength="91" x="357" y="701.4526">+generatePwd()</text><!--MD5=[b65e6cec79d32d494d76fa2df2ac0ae9]
class OrgRole--><rect codeLine="40" fill="#FEFECE" filter="url(#f1d710yo6al55f)" height="60.8047" id="OrgRole" style="stroke:#A80036;stroke-width:1.5;" width="82" x="390.5" y="785"/><ellipse cx="405.95" cy="801" fill="#ADD1B2" rx="11" ry="11" style="stroke:#A80036;stroke-width:1.0;"/><path d="M408.9188,806.6406 Q408.3406,806.9375 407.7,807.0781 Q407.0594,807.2344 406.3563,807.2344 Q403.8563,807.2344 402.5281,805.5938 Q401.2156,803.9375 401.2156,800.8125 Q401.2156,797.6875 402.5281,796.0313 Q403.8563,794.375 406.3563,794.375 Q407.0594,794.375 407.7,794.5313 Q408.3563,794.6875 408.9188,794.9844 L408.9188,797.7031 Q408.2938,797.125 407.7,796.8594 Q407.1063,796.5781 406.4813,796.5781 Q405.1375,796.5781 404.45,797.6563 Q403.7625,798.7188 403.7625,800.8125 Q403.7625,802.9063 404.45,803.9844 Q405.1375,805.0469 406.4813,805.0469 Q407.1063,805.0469 407.7,804.7813 Q408.2938,804.5 408.9188,803.9219 L408.9188,806.6406 Z " fill="#000000"/><text fill="#000000" font-family="sans-serif" font-size="12" lengthAdjust="spacingAndGlyphs" textLength="49" x="420.05" y="805.1543">OrgRole</text><line style="stroke:#A80036;stroke-width:1.5;" x1="391.5" x2="471.5" y1="817" y2="817"/><text fill="#000000" font-family="sans-serif" font-size="11" lengthAdjust="spacingAndGlyphs" textLength="70" x="396.5" y="831.2104">-designation</text><line style="stroke:#A80036;stroke-width:1.5;" x1="391.5" x2="471.5" y1="837.8047" y2="837.8047"/><!--MD5=[02e4b9b7573f1156f41e60aa5b4e25a4]
class Company--><rect codeLine="43" fill="#FEFECE" filter="url(#f1d710yo6al55f)" height="86.4141" id="Company" style="stroke:#A80036;stroke-width:1.5;" width="164" x="606.5" y="263"/><ellipse cx="655.75" cy="279" fill="#ADD1B2" rx="11" ry="11" style="stroke:#A80036;stroke-width:1.0;"/><path d="M658.7188,284.6406 Q658.1406,284.9375 657.5,285.0781 Q656.8594,285.2344 656.1563,285.2344 Q653.6563,285.2344 652.3281,283.5938 Q651.0156,281.9375 651.0156,278.8125 Q651.0156,275.6875 652.3281,274.0313 Q653.6563,272.375 656.1563,272.375 Q656.8594,272.375 657.5,272.5313 Q658.1563,272.6875 658.7188,272.9844 L658.7188,275.7031 Q658.0938,275.125 657.5,274.8594 Q656.9063,274.5781 656.2813,274.5781 Q654.9375,274.5781 654.25,275.6563 Q653.5625,276.7188 653.5625,278.8125 Q653.5625,280.9063 654.25,281.9844 Q654.9375,283.0469 656.2813,283.0469 Q656.9063,283.0469 657.5,282.7813 Q658.0938,282.5 658.7188,281.9219 L658.7188,284.6406 Z " fill="#000000"/><text fill="#000000" font-family="sans-serif" font-size="12" lengthAdjust="spacingAndGlyphs" textLength="57" x="676.25" y="283.1543">Company</text><line style="stroke:#A80036;stroke-width:1.5;" x1="607.5" x2="769.5" y1="295" y2="295"/><text fill="#000000" font-family="sans-serif" font-size="11" lengthAdjust="spacingAndGlyphs" textLength="70" x="612.5" y="309.2104">-designation</text><line style="stroke:#A80036;stroke-width:1.5;" x1="607.5" x2="769.5" y1="315.8047" y2="315.8047"/><text fill="#000000" font-family="sans-serif" font-size="11" lengthAdjust="spacingAndGlyphs" textLength="66" x="612.5" y="330.0151">+getRoles()</text><text fill="#000000" font-family="sans-serif" font-size="11" lengthAdjust="spacingAndGlyphs" textLength="152" x="612.5" y="342.8198">+createEmployee(empDto)</text><!--MD5=[a0841b92fb5480233e21967dce85d4fc]
class EmpStore--><rect codeLine="48" fill="#FEFECE" filter="url(#f1d710yo6al55f)" height="86.4141" id="EmpStore" style="stroke:#A80036;stroke-width:1.5;" width="148" x="805.5" y="263"/><ellipse cx="845.25" cy="279" fill="#ADD1B2" rx="11" ry="11" style="stroke:#A80036;stroke-width:1.0;"/><path d="M848.2188,284.6406 Q847.6406,284.9375 847,285.0781 Q846.3594,285.2344 845.6563,285.2344 Q843.1563,285.2344 841.8281,283.5938 Q840.5156,281.9375 840.5156,278.8125 Q840.5156,275.6875 841.8281,274.0313 Q843.1563,272.375 845.6563,272.375 Q846.3594,272.375 847,272.5313 Q847.6563,272.6875 848.2188,272.9844 L848.2188,275.7031 Q847.5938,275.125 847,274.8594 Q846.4063,274.5781 845.7813,274.5781 Q844.4375,274.5781 843.75,275.6563 Q843.0625,276.7188 843.0625,278.8125 Q843.0625,280.9063 843.75,281.9844 Q844.4375,283.0469 845.7813,283.0469 Q846.4063,283.0469 847,282.7813 Q847.5938,282.5 848.2188,281.9219 L848.2188,284.6406 Z " fill="#000000"/><text fill="#000000" font-family="sans-serif" font-size="12" lengthAdjust="spacingAndGlyphs" textLength="61" x="864.75" y="283.1543">EmpStore</text><line style="stroke:#A80036;stroke-width:1.5;" x1="806.5" x2="952.5" y1="295" y2="295"/><line style="stroke:#A80036;stroke-width:1.5;" x1="806.5" x2="952.5" y1="303" y2="303"/><text fill="#000000" font-family="sans-serif" font-size="11" lengthAdjust="spacingAndGlyphs" textLength="124" x="811.5" y="317.2104">+saveEmployee(emp)</text><text fill="#000000" font-family="sans-serif" font-size="11" lengthAdjust="spacingAndGlyphs" textLength="136" x="811.5" y="330.0151">-validateEmployee(emp)</text><text fill="#000000" font-family="sans-serif" font-size="11" lengthAdjust="spacingAndGlyphs" textLength="113" x="811.5" y="342.8198">-addEmployee(emp)</text><!--MD5=[8ae808d068a8995f06b9b3ec51357f0b]
class AuthFacade--><rect codeLine="53" fill="#FEFECE" filter="url(#f1d710yo6al55f)" height="60.8047" id="AuthFacade" style="stroke:#A80036;stroke-width:1.5;" width="256" x="988.5" y="275.5"/><ellipse cx="1074.75" cy="291.5" fill="#ADD1B2" rx="11" ry="11" style="stroke:#A80036;stroke-width:1.0;"/><path d="M1077.7188,297.1406 Q1077.1406,297.4375 1076.5,297.5781 Q1075.8594,297.7344 1075.1563,297.7344 Q1072.6563,297.7344 1071.3281,296.0938 Q1070.0156,294.4375 1070.0156,291.3125 Q1070.0156,288.1875 1071.3281,286.5313 Q1072.6563,284.875 1075.1563,284.875 Q1075.8594,284.875 1076.5,285.0313 Q1077.1563,285.1875 1077.7188,285.4844 L1077.7188,288.2031 Q1077.0938,287.625 1076.5,287.3594 Q1075.9063,287.0781 1075.2813,287.0781 Q1073.9375,287.0781 1073.25,288.1563 Q1072.5625,289.2188 1072.5625,291.3125 Q1072.5625,293.4063 1073.25,294.4844 Q1073.9375,295.5469 1075.2813,295.5469 Q1075.9063,295.5469 1076.5,295.2813 Q1077.0938,295 1077.7188,294.4219 L1077.7188,297.1406 Z " fill="#000000"/><text fill="#000000" font-family="sans-serif" font-size="12" lengthAdjust="spacingAndGlyphs" textLength="75" x="1095.25" y="295.6543">AuthFacade</text><line style="stroke:#A80036;stroke-width:1.5;" x1="989.5" x2="1243.5" y1="307.5" y2="307.5"/><line style="stroke:#A80036;stroke-width:1.5;" x1="989.5" x2="1243.5" y1="315.5" y2="315.5"/><text fill="#000000" font-family="sans-serif" font-size="11" lengthAdjust="spacingAndGlyphs" textLength="244" x="994.5" y="329.7104">+addUserWithRole(name, email, pwd, role)</text><!--MD5=[e66f8c4fa516e197a55cf1b13c3927b3]
link SpecialistDoctor to Employee--><path codeLine="56" d="M316.0117,620 C320.8966,620 325.7814,620 330.6663,620 " fill="none" id="SpecialistDoctor-to-Employee" style="stroke:#A80036;stroke-width:1.0;"/><polygon fill="none" points="330.7485,612.9999,350.7484,620,330.7484,626.9999,330.7485,612.9999" style="stroke:#A80036;stroke-width:1.0;"/><!--MD5=[0be24bb9ea3dfe4b359b2a56d7ef1bac]
link Company to EmployeeMapper--><path codeLine="57" d="M677.555,349.297 C673.0513,367.1132 667.8954,387.5095 663.603,404.4896 " fill="none" id="Company-to-EmployeeMapper" style="stroke:#A80036;stroke-width:1.0;stroke-dasharray:7.0,7.0;"/><polygon fill="#A80036" points="662.3003,409.643,668.3841,401.8978,663.5257,404.7955,660.628,399.9371,662.3003,409.643" style="stroke:#A80036;stroke-width:1.0;"/><!--MD5=[2e39c3bf018ac6b10d6c9e84ca4ab967]
link EmployeeMapper to EmployeeDTO--><path codeLine="58" d="M654.5,471.3572 C654.5,491.8432 654.5,519.6587 654.5,545.688 " fill="none" id="EmployeeMapper-to-EmployeeDTO" style="stroke:#A80036;stroke-width:1.0;stroke-dasharray:7.0,7.0;"/><polygon fill="#A80036" points="654.5,550.8674,658.5,541.8674,654.5,545.8674,650.5,541.8674,654.5,550.8674" style="stroke:#A80036;stroke-width:1.0;"/><!--MD5=[232dddeb8ed1c921ef01022c786a20ff]
link EmployeeMapper to Employee--><path codeLine="59" d="M613.651,471.1627 C590.5151,488.7148 561.1576,511.2994 535.5,532 C529.1738,537.104 522.6718,542.4236 516.1552,547.8089 " fill="none" id="EmployeeMapper-to-Employee" style="stroke:#A80036;stroke-width:1.0;stroke-dasharray:7.0,7.0;"/><polygon fill="#A80036" points="512.0973,551.1691,521.5803,548.5097,515.9483,547.9801,516.4779,542.3481,512.0973,551.1691" style="stroke:#A80036;stroke-width:1.0;"/><!--MD5=[6febec97a3011c6da29f2097abbb874f]
link RegisterNewEmployeeUI to RegisterNewEmployeeController--><path codeLine="60" d="M688.5,55.0758 C688.5,70.6979 688.5,91.6042 688.5,110.5687 " fill="none" id="RegisterNewEmployeeUI-to-RegisterNewEmployeeController" style="stroke:#A80036;stroke-width:1.0;stroke-dasharray:7.0,7.0;"/><polygon fill="#A80036" points="688.5,115.8602,692.5,106.8602,688.5,110.8602,684.5,106.8602,688.5,115.8602" style="stroke:#A80036;stroke-width:1.0;"/><!--MD5=[5fc8e087277250d91dd0288c4602b9fc]
link RegisterNewEmployeeController to Company--><path codeLine="61" d="M688.5,202.3098 C688.5,219.6554 688.5,239.7161 688.5,257.5441 " fill="none" id="RegisterNewEmployeeController-to-Company" style="stroke:#A80036;stroke-width:1.0;stroke-dasharray:7.0,7.0;"/><polygon fill="#A80036" points="688.5,262.9998,692.5,253.9998,688.5,257.9998,684.5,253.9998,688.5,262.9998" style="stroke:#A80036;stroke-width:1.0;"/><!--MD5=[691c36fbe3208ef7ffb0a530c6c9bfce]
link RegisterNewEmployeeController to RolesMapper--><path codeLine="62" d="M637.2354,202.3098 C610.8775,224.5777 579.2229,251.3203 554.663,272.0692 " fill="none" id="RegisterNewEmployeeController-to-RolesMapper" style="stroke:#A80036;stroke-width:1.0;stroke-dasharray:7.0,7.0;"/><polygon fill="#A80036" points="550.7841,275.3462,560.2404,272.5934,554.6035,272.1194,555.0775,266.4824,550.7841,275.3462" style="stroke:#A80036;stroke-width:1.0;"/><!--MD5=[d614d24a2560379c0dc8fbbca134f8d5]
link RegisterNewEmployeeController to EmpStore--><path codeLine="63" d="M744.5157,202.1116 C768.0323,220.2107 795.4259,241.2937 819.3664,259.7192 " fill="none" id="RegisterNewEmployeeController-to-EmpStore" style="stroke:#A80036;stroke-width:1.0;stroke-dasharray:7.0,7.0;"/><polygon fill="#A80036" points="823.4853,262.8892,818.7928,254.2301,819.523,259.8396,813.9135,260.5698,823.4853,262.8892" style="stroke:#A80036;stroke-width:1.0;"/><!--MD5=[98585e0de2f711839463467484a33855]
link RegisterNewEmployeeController to Employee--><path codeLine="64" d="M572.9212,178.6466 C523.684,193.292 470.7267,218.7666 440.5,263 C387.9599,339.8866 393.975,449.4471 407.9203,526.872 " fill="none" id="RegisterNewEmployeeController-to-Employee" style="stroke:#A80036;stroke-width:1.0;stroke-dasharray:7.0,7.0;"/><polygon fill="#A80036" points="408.8497,531.9247,411.1552,522.3495,407.945,527.0072,403.2873,523.797,408.8497,531.9247" style="stroke:#A80036;stroke-width:1.0;"/><!--MD5=[20784ff41273eb1fc90d3feab3c59e11]
link RegisterNewEmployeeController to AuthFacade--><path codeLine="65" d="M804.041,198.6835 C872.5683,222.2197 958.3203,251.6719 1022.6462,273.7652 " fill="none" id="RegisterNewEmployeeController-to-AuthFacade" style="stroke:#A80036;stroke-width:1.0;stroke-dasharray:7.0,7.0;"/><polygon fill="#A80036" points="1027.6293,275.4767,1020.4168,268.77,1022.9005,273.8524,1017.818,276.3361,1027.6293,275.4767" style="stroke:#A80036;stroke-width:1.0;"/><!--MD5=[ab5952cf32e355c88498d25962e6d888]
link Employee to OrgRole--><path codeLine="66" d="M431.5,708.0275 C431.5,733.4408 431.5,759.7394 431.5,779.9607 " fill="none" id="Employee-to-OrgRole" style="stroke:#A80036;stroke-width:1.0;stroke-dasharray:7.0,7.0;"/><polygon fill="#A80036" points="431.5,784.9665,435.5,775.9665,431.5,779.9665,427.5,775.9665,431.5,784.9665" style="stroke:#A80036;stroke-width:1.0;"/><text fill="#000000" font-family="sans-serif" font-size="13" lengthAdjust="spacingAndGlyphs" textLength="23" x="432.5" y="751.0669">has</text><!--MD5=[f8d5284b057af4af63a61de9f4ce31d0]
@startuml
skinparam classAttributeIconSize 0
class RegisterNewEmployeeUI
class RolesMapper {
  +toDTO(lRoles)
  }
class EmployeeMapper {
  +toModel(empDto)
  }
class SpecialistDoctor {
  -doctorIndexNumber
  +create(name, role, address, email, phoneNumber)
  }
class EmployeeDTO {
  +getName(empDto)
  +getAddress(empDto)
  +getEmail(empDto)
  +getRole(empDto)
  +getPhoneNumber(empDto)
  +getSocCode(empDto)
  +getDoctorIndexNumber(empDto)
  }
class RegisterNewEmployeeController {

  +getRoles()
  +createEmployee(empDto)
  +saveEmployee(emp)
  }
class Employee {
  -id
  -name
  -address
  -phoneNumber
  -emailAddress
  -socCode
  -role
  +create(role, id, name ...)
  +generateID(name)
  +generatePwd()
}
class OrgRole {
  -designation
}
class Company {
  -designation
  +getRoles()
  +createEmployee(empDto)
}
class EmpStore {
  +saveEmployee(emp)
  -validateEmployee(emp)
  -addEmployee(emp)
}
class AuthFacade {
  +addUserWithRole(name, email, pwd, role)
}
SpecialistDoctor -|> Employee
Company .-> EmployeeMapper  
EmployeeMapper .-> EmployeeDTO
EmployeeMapper .-> Employee
RegisterNewEmployeeUI .-> RegisterNewEmployeeController
RegisterNewEmployeeController .-> Company
RegisterNewEmployeeController .-> RolesMapper
RegisterNewEmployeeController .-> EmpStore
RegisterNewEmployeeController .-> Employee
RegisterNewEmployeeController .-> AuthFacade
Employee .-> OrgRole : has
@enduml

PlantUML version 1.2020.22(Sun Dec 06 09:36:27 UTC 2020)
(GPL source distribution)
Java Runtime: OpenJDK Runtime Environment
JVM: OpenJDK 64-Bit Server VM
Default Encoding: UTF-8
Language: en
Country: US
--></g></svg>