<?xml version="1.0" encoding="UTF-8" standalone="no"?><svg xmlns="http://www.w3.org/2000/svg" xmlns:xlink="http://www.w3.org/1999/xlink" contentScriptType="application/ecmascript" contentStyleType="text/css" height="498px" preserveAspectRatio="none" style="width:493px;height:498px;" version="1.1" viewBox="0 0 493 498" width="493px" zoomAndPan="magnify"><defs><filter height="300%" id="fn1tuwfirkvr5" width="300%" x="-1" y="-1"><feGaussianBlur result="blurOut" stdDeviation="2.0"/><feColorMatrix in="blurOut" result="blurOut2" type="matrix" values="0 0 0 0 0 0 0 0 0 0 0 0 0 0 0 0 0 0 .4 0"/><feOffset dx="4.0" dy="4.0" in="blurOut2" result="blurOut3"/><feBlend in="SourceGraphic" in2="blurOut3" mode="normal"/></filter></defs><g><rect fill="#FFFFFF" filter="url(#fn1tuwfirkvr5)" height="304.5156" style="stroke:#A80036;stroke-width:1.0;" width="10" x="21" y="99.6094"/><rect fill="#FFFFFF" filter="url(#fn1tuwfirkvr5)" height="30.3516" style="stroke:#A80036;stroke-width:1.0;" width="10" x="446" y="121.9609"/><rect fill="#FFFFFF" filter="url(#fn1tuwfirkvr5)" height="30.3516" style="stroke:#A80036;stroke-width:1.0;" width="10" x="446" y="182.6641"/><rect fill="#FFFFFF" filter="url(#fn1tuwfirkvr5)" height="30.3516" style="stroke:#A80036;stroke-width:1.0;" width="10" x="446" y="243.3672"/><rect fill="#FFFFFF" filter="url(#fn1tuwfirkvr5)" height="30.3516" style="stroke:#A80036;stroke-width:1.0;" width="10" x="446" y="304.0703"/><rect fill="#FFFFFF" filter="url(#fn1tuwfirkvr5)" height="30.3516" style="stroke:#A80036;stroke-width:1.0;" width="10" x="446" y="364.7734"/><line style="stroke:#A80036;stroke-width:1.0;stroke-dasharray:5.0,5.0;" x1="26" x2="26" y1="89.6094" y2="413.125"/><line style="stroke:#A80036;stroke-width:1.0;stroke-dasharray:5.0,5.0;" x1="451" x2="451" y1="89.6094" y2="413.125"/><text fill="#000000" font-family="sans-serif" font-size="14" lengthAdjust="spacing" textLength="36" x="5" y="86.5332">Client</text><ellipse cx="26" cy="15" fill="#FEFECE" filter="url(#fn1tuwfirkvr5)" rx="8" ry="8" style="stroke:#A80036;stroke-width:2.0;"/><path d="M26,23 L26,50 M13,31 L39,31 M26,50 L13,65 M26,50 L39,65 " fill="none" filter="url(#fn1tuwfirkvr5)" style="stroke:#A80036;stroke-width:2.0;"/><text fill="#000000" font-family="sans-serif" font-size="14" lengthAdjust="spacing" textLength="36" x="5" y="426.6582">Client</text><ellipse cx="26" cy="439.7344" fill="#FEFECE" filter="url(#fn1tuwfirkvr5)" rx="8" ry="8" style="stroke:#A80036;stroke-width:2.0;"/><path d="M26,447.7344 L26,474.7344 M13,455.7344 L39,455.7344 M26,474.7344 L13,489.7344 M26,474.7344 L39,489.7344 " fill="none" filter="url(#fn1tuwfirkvr5)" style="stroke:#A80036;stroke-width:2.0;"/><rect fill="#FEFECE" filter="url(#fn1tuwfirkvr5)" height="31.6094" style="stroke:#A80036;stroke-width:1.5;" width="60" x="419" y="53"/><text fill="#000000" font-family="sans-serif" font-size="14" lengthAdjust="spacing" textLength="46" x="426" y="74.5332">System</text><rect fill="#FEFECE" filter="url(#fn1tuwfirkvr5)" height="31.6094" style="stroke:#A80036;stroke-width:1.5;" width="60" x="419" y="412.125"/><text fill="#000000" font-family="sans-serif" font-size="14" lengthAdjust="spacing" textLength="46" x="426" y="433.6582">System</text><rect fill="#FFFFFF" filter="url(#fn1tuwfirkvr5)" height="304.5156" style="stroke:#A80036;stroke-width:1.0;" width="10" x="21" y="99.6094"/><rect fill="#FFFFFF" filter="url(#fn1tuwfirkvr5)" height="30.3516" style="stroke:#A80036;stroke-width:1.0;" width="10" x="446" y="121.9609"/><rect fill="#FFFFFF" filter="url(#fn1tuwfirkvr5)" height="30.3516" style="stroke:#A80036;stroke-width:1.0;" width="10" x="446" y="182.6641"/><rect fill="#FFFFFF" filter="url(#fn1tuwfirkvr5)" height="30.3516" style="stroke:#A80036;stroke-width:1.0;" width="10" x="446" y="243.3672"/><rect fill="#FFFFFF" filter="url(#fn1tuwfirkvr5)" height="30.3516" style="stroke:#A80036;stroke-width:1.0;" width="10" x="446" y="304.0703"/><rect fill="#FFFFFF" filter="url(#fn1tuwfirkvr5)" height="30.3516" style="stroke:#A80036;stroke-width:1.0;" width="10" x="446" y="364.7734"/><polygon fill="#A80036" points="434,117.9609,444,121.9609,434,125.9609,438,121.9609" style="stroke:#A80036;stroke-width:1.0;"/><line style="stroke:#A80036;stroke-width:1.0;" x1="31" x2="440" y1="121.9609" y2="121.9609"/><text fill="#000000" font-family="sans-serif" font-size="13" font-weight="bold" lengthAdjust="spacing" textLength="7" x="38" y="117.1045">1</text><text fill="#000000" font-family="sans-serif" font-size="13" lengthAdjust="spacing" textLength="121" x="49" y="117.1045">update personal data</text><polygon fill="#A80036" points="42,148.3125,32,152.3125,42,156.3125,38,152.3125" style="stroke:#A80036;stroke-width:1.0;"/><line style="stroke:#A80036;stroke-width:1.0;stroke-dasharray:2.0,2.0;" x1="36" x2="450" y1="152.3125" y2="152.3125"/><text fill="#000000" font-family="sans-serif" font-size="13" font-weight="bold" lengthAdjust="spacing" textLength="7" x="48" y="147.4561">2</text><text fill="#000000" font-family="sans-serif" font-size="13" lengthAdjust="spacing" textLength="103" x="59" y="147.4561">request data (TIN)</text><polygon fill="#A80036" points="434,178.6641,444,182.6641,434,186.6641,438,182.6641" style="stroke:#A80036;stroke-width:1.0;"/><line style="stroke:#A80036;stroke-width:1.0;" x1="31" x2="440" y1="182.6641" y2="182.6641"/><text fill="#000000" font-family="sans-serif" font-size="13" font-weight="bold" lengthAdjust="spacing" textLength="7" x="38" y="177.8076">3</text><text fill="#000000" font-family="sans-serif" font-size="13" lengthAdjust="spacing" textLength="122" x="49" y="177.8076">types requested data</text><polygon fill="#A80036" points="42,209.0156,32,213.0156,42,217.0156,38,213.0156" style="stroke:#A80036;stroke-width:1.0;"/><line style="stroke:#A80036;stroke-width:1.0;stroke-dasharray:2.0,2.0;" x1="36" x2="450" y1="213.0156" y2="213.0156"/><text fill="#000000" font-family="sans-serif" font-size="13" font-weight="bold" lengthAdjust="spacing" textLength="7" x="48" y="208.1592">4</text><text fill="#000000" font-family="sans-serif" font-size="13" lengthAdjust="spacing" textLength="327" x="59" y="208.1592">shows the client's information and request a confirmation</text><polygon fill="#A80036" points="434,239.3672,444,243.3672,434,247.3672,438,243.3672" style="stroke:#A80036;stroke-width:1.0;"/><line style="stroke:#A80036;stroke-width:1.0;" x1="31" x2="440" y1="243.3672" y2="243.3672"/><text fill="#000000" font-family="sans-serif" font-size="13" font-weight="bold" lengthAdjust="spacing" textLength="7" x="38" y="238.5107">5</text><text fill="#000000" font-family="sans-serif" font-size="13" lengthAdjust="spacing" textLength="100" x="49" y="238.5107">confirms the data</text><polygon fill="#A80036" points="42,269.7188,32,273.7188,42,277.7188,38,273.7188" style="stroke:#A80036;stroke-width:1.0;"/><line style="stroke:#A80036;stroke-width:1.0;stroke-dasharray:2.0,2.0;" x1="36" x2="450" y1="273.7188" y2="273.7188"/><text fill="#000000" font-family="sans-serif" font-size="13" font-weight="bold" lengthAdjust="spacing" textLength="7" x="48" y="268.8623">6</text><text fill="#000000" font-family="sans-serif" font-size="13" lengthAdjust="spacing" textLength="380" x="59" y="268.8623">shows the data that want to update and ask to select one or more</text><polygon fill="#A80036" points="434,300.0703,444,304.0703,434,308.0703,438,304.0703" style="stroke:#A80036;stroke-width:1.0;"/><line style="stroke:#A80036;stroke-width:1.0;" x1="31" x2="440" y1="304.0703" y2="304.0703"/><text fill="#000000" font-family="sans-serif" font-size="13" font-weight="bold" lengthAdjust="spacing" textLength="7" x="38" y="299.2139">7</text><text fill="#000000" font-family="sans-serif" font-size="13" lengthAdjust="spacing" textLength="93" x="49" y="299.2139">selects the data</text><polygon fill="#A80036" points="42,330.4219,32,334.4219,42,338.4219,38,334.4219" style="stroke:#A80036;stroke-width:1.0;"/><line style="stroke:#A80036;stroke-width:1.0;stroke-dasharray:2.0,2.0;" x1="36" x2="450" y1="334.4219" y2="334.4219"/><text fill="#000000" font-family="sans-serif" font-size="13" font-weight="bold" lengthAdjust="spacing" textLength="7" x="48" y="329.5654">8</text><text fill="#000000" font-family="sans-serif" font-size="13" lengthAdjust="spacing" textLength="252" x="59" y="329.5654">shows the data and requests a confirmation</text><polygon fill="#A80036" points="434,360.7734,444,364.7734,434,368.7734,438,364.7734" style="stroke:#A80036;stroke-width:1.0;"/><line style="stroke:#A80036;stroke-width:1.0;" x1="31" x2="440" y1="364.7734" y2="364.7734"/><text fill="#000000" font-family="sans-serif" font-size="13" font-weight="bold" lengthAdjust="spacing" textLength="7" x="38" y="359.917">9</text><text fill="#000000" font-family="sans-serif" font-size="13" lengthAdjust="spacing" textLength="100" x="49" y="359.917">confirms the data</text><polygon fill="#A80036" points="42,391.125,32,395.125,42,399.125,38,395.125" style="stroke:#A80036;stroke-width:1.0;"/><line style="stroke:#A80036;stroke-width:1.0;stroke-dasharray:2.0,2.0;" x1="36" x2="450" y1="395.125" y2="395.125"/><text fill="#000000" font-family="sans-serif" font-size="13" font-weight="bold" lengthAdjust="spacing" textLength="14" x="48" y="390.2686">10</text><text fill="#000000" font-family="sans-serif" font-size="13" lengthAdjust="spacing" textLength="152" x="66" y="390.2686">informs operation success</text><!--MD5=[b1a029f781a43be8e81957049d8f672d]
@startuml
'https://plantuml.com/sequence-diagram

autonumber

actor "Client" as C
activate C
C -> System ++: update personal data
System - ->  C - -: request data (TIN)
C -> System ++: types requested data
System - -> C - -: shows the client's information and request a confirmation
C -> System ++: confirms the data
System - -> C - -: shows the data that want to update and ask to select one or more
C -> System ++: selects the data
System - -> C - -: shows the data and requests a confirmation
C -> System ++: confirms the data
System - -> C - -: informs operation success
@enduml

@startuml

autonumber

actor "Client" as C
activate C
C -> System ++: update personal data
System - ->  C - -: request data (TIN)
C -> System ++: types requested data
System - -> C - -: shows the client's information and request a confirmation
C -> System ++: confirms the data
System - -> C - -: shows the data that want to update and ask to select one or more
C -> System ++: selects the data
System - -> C - -: shows the data and requests a confirmation
C -> System ++: confirms the data
System - -> C - -: informs operation success
@enduml

PlantUML version 1.2021.4(Sun Apr 04 09:49:39 BST 2021)
(GPL source distribution)
Java Runtime: OpenJDK Runtime Environment
JVM: OpenJDK 64-Bit Server VM
Default Encoding: Cp1252
Language: pt
Country: PT
--></g></svg>