<?xml version="1.0" encoding="UTF-8" standalone="no"?><svg xmlns="http://www.w3.org/2000/svg" xmlns:xlink="http://www.w3.org/1999/xlink" contentScriptType="application/ecmascript" contentStyleType="text/css" height="419px" preserveAspectRatio="none" style="width:1796px;height:419px;" version="1.1" viewBox="0 0 1796 419" width="1796px" zoomAndPan="magnify"><defs><filter height="300%" id="fekjny58nes0" width="300%" x="-1" y="-1"><feGaussianBlur result="blurOut" stdDeviation="2.0"/><feColorMatrix in="blurOut" result="blurOut2" type="matrix" values="0 0 0 0 0 0 0 0 0 0 0 0 0 0 0 0 0 0 .4 0"/><feOffset dx="4.0" dy="4.0" in="blurOut2" result="blurOut3"/><feBlend in="SourceGraphic" in2="blurOut3" mode="normal"/></filter></defs><g><!--MD5=[378b18254a1b2429f435e93f5e5cc50c]
class C--><rect codeLine="4" fill="#FEFECE" filter="url(#fekjny58nes0)" height="89.5078" id="C" style="stroke:#A80036;stroke-width:1.5;" width="160" x="767" y="146"/><ellipse cx="816.25" cy="162" fill="#ADD1B2" rx="11" ry="11" style="stroke:#A80036;stroke-width:1.0;"/><path d="M818.25,158.5 Q818.4531,158 818.6875,157.75 Q818.9219,157.5 819.1875,157.5 Q819.6563,157.5 819.9531,157.7813 Q820.25,158.0625 820.25,158.7188 L820.25,160.2813 Q820.25,160.9375 819.9688,161.2188 Q819.6875,161.5 819.25,161.5 Q818.8594,161.5 818.6094,161.3281 Q818.3594,161.1563 818.25,160.7031 Q818.2031,160.3906 818.0313,160.2188 Q817.7188,159.8906 817.1563,159.7031 Q816.5938,159.5 816.0313,159.5 Q815.3281,159.5 814.7344,159.7813 Q814.1563,160.0625 813.7031,160.6875 Q813.25,161.3125 813.25,162.1719 L813.25,163.0938 Q813.25,164.125 814.0938,164.8125 Q814.9375,165.5 816.4375,165.5 Q817.3281,165.5 817.9531,165.2969 Q818.3125,165.1875 818.7188,164.8281 Q818.9844,164.625 819.125,164.5625 Q819.2656,164.5 819.4375,164.5 Q819.7656,164.5 820,164.7656 Q820.25,165.0156 820.25,165.375 Q820.25,165.7188 819.9063,166.125 Q819.4063,166.7188 818.6094,167.0469 Q817.5625,167.5 816.2813,167.5 Q814.7813,167.5 813.5781,166.9063 Q812.6094,166.4375 811.9219,165.4219 Q811.25,164.4063 811.25,163.2031 L811.25,162.1094 Q811.25,160.8594 811.8438,159.7656 Q812.4531,158.6719 813.5,158.0938 Q814.5625,157.5 815.75,157.5 Q816.4688,157.5 817.0938,157.75 Q817.7188,158 818.25,158.5 Z " fill="#000000"/><text fill="#000000" font-family="sans-serif" font-size="12" lengthAdjust="spacing" textLength="53" x="836.75" y="166.9102">Company</text><line style="stroke:#A80036;stroke-width:1.5;" x1="768" x2="926" y1="178" y2="178"/><text fill="#000000" font-family="sans-serif" font-size="11" lengthAdjust="spacing" textLength="90" x="773" y="193.4189">-String designation</text><line style="stroke:#A80036;stroke-width:1.5;" x1="768" x2="926" y1="199.8359" y2="199.8359"/><text fill="#000000" font-family="sans-serif" font-size="11" lengthAdjust="spacing" textLength="100" x="773" y="215.2549">+getTestTypeStore()</text><text fill="#000000" font-family="sans-serif" font-size="11" lengthAdjust="spacing" textLength="148" x="773" y="229.0908">+getParameterCategoryStore()</text><!--MD5=[606124dbd33b65145bd2d31e230d6615]
class cNM--><rect codeLine="10" fill="#FEFECE" filter="url(#fekjny58nes0)" height="61.8359" id="cNM" style="stroke:#A80036;stroke-width:1.5;" width="288" x="703" y="302"/><ellipse cx="776.25" cy="318" fill="#ADD1B2" rx="11" ry="11" style="stroke:#A80036;stroke-width:1.0;"/><path d="M778.25,314.5 Q778.4531,314 778.6875,313.75 Q778.9219,313.5 779.1875,313.5 Q779.6563,313.5 779.9531,313.7813 Q780.25,314.0625 780.25,314.7188 L780.25,316.2813 Q780.25,316.9375 779.9688,317.2188 Q779.6875,317.5 779.25,317.5 Q778.8594,317.5 778.6094,317.3281 Q778.3594,317.1563 778.25,316.7031 Q778.2031,316.3906 778.0313,316.2188 Q777.7188,315.8906 777.1563,315.7031 Q776.5938,315.5 776.0313,315.5 Q775.3281,315.5 774.7344,315.7813 Q774.1563,316.0625 773.7031,316.6875 Q773.25,317.3125 773.25,318.1719 L773.25,319.0938 Q773.25,320.125 774.0938,320.8125 Q774.9375,321.5 776.4375,321.5 Q777.3281,321.5 777.9531,321.2969 Q778.3125,321.1875 778.7188,320.8281 Q778.9844,320.625 779.125,320.5625 Q779.2656,320.5 779.4375,320.5 Q779.7656,320.5 780,320.7656 Q780.25,321.0156 780.25,321.375 Q780.25,321.7188 779.9063,322.125 Q779.4063,322.7188 778.6094,323.0469 Q777.5625,323.5 776.2813,323.5 Q774.7813,323.5 773.5781,322.9063 Q772.6094,322.4375 771.9219,321.4219 Q771.25,320.4063 771.25,319.2031 L771.25,318.1094 Q771.25,316.8594 771.8438,315.7656 Q772.4531,314.6719 773.5,314.0938 Q774.5625,313.5 775.75,313.5 Q776.4688,313.5 777.0938,313.75 Q777.7188,314 778.25,314.5 Z " fill="#000000"/><text fill="#000000" font-family="sans-serif" font-size="12" lengthAdjust="spacing" textLength="133" x="796.75" y="322.9102">categoriesNameMapper</text><line style="stroke:#A80036;stroke-width:1.5;" x1="704" x2="990" y1="334" y2="334"/><line style="stroke:#A80036;stroke-width:1.5;" x1="704" x2="990" y1="342" y2="342"/><text fill="#000000" font-family="sans-serif" font-size="11" lengthAdjust="spacing" textLength="276" x="709" y="357.4189">+List &lt;ParameterCategoryDto&gt; toDto(parameterCategory)</text><!--MD5=[0c21d7a5a5555e4278001068caacbd33]
class TTS--><rect codeLine="14" fill="#FEFECE" filter="url(#fekjny58nes0)" height="131.0156" id="TTS" style="stroke:#A80036;stroke-width:1.5;" width="443" x="199" y="94.5"/><ellipse cx="376.75" cy="110.5" fill="#ADD1B2" rx="11" ry="11" style="stroke:#A80036;stroke-width:1.0;"/><path d="M378.75,107 Q378.9531,106.5 379.1875,106.25 Q379.4219,106 379.6875,106 Q380.1563,106 380.4531,106.2813 Q380.75,106.5625 380.75,107.2188 L380.75,108.7813 Q380.75,109.4375 380.4688,109.7188 Q380.1875,110 379.75,110 Q379.3594,110 379.1094,109.8281 Q378.8594,109.6563 378.75,109.2031 Q378.7031,108.8906 378.5313,108.7188 Q378.2188,108.3906 377.6563,108.2031 Q377.0938,108 376.5313,108 Q375.8281,108 375.2344,108.2813 Q374.6563,108.5625 374.2031,109.1875 Q373.75,109.8125 373.75,110.6719 L373.75,111.5938 Q373.75,112.625 374.5938,113.3125 Q375.4375,114 376.9375,114 Q377.8281,114 378.4531,113.7969 Q378.8125,113.6875 379.2188,113.3281 Q379.4844,113.125 379.625,113.0625 Q379.7656,113 379.9375,113 Q380.2656,113 380.5,113.2656 Q380.75,113.5156 380.75,113.875 Q380.75,114.2188 380.4063,114.625 Q379.9063,115.2188 379.1094,115.5469 Q378.0625,116 376.7813,116 Q375.2813,116 374.0781,115.4063 Q373.1094,114.9375 372.4219,113.9219 Q371.75,112.9063 371.75,111.7031 L371.75,110.6094 Q371.75,109.3594 372.3438,108.2656 Q372.9531,107.1719 374,106.5938 Q375.0625,106 376.25,106 Q376.9688,106 377.5938,106.25 Q378.2188,106.5 378.75,107 Z " fill="#000000"/><text fill="#000000" font-family="sans-serif" font-size="12" lengthAdjust="spacing" textLength="79" x="397.25" y="115.4102">TestTypeStore</text><line style="stroke:#A80036;stroke-width:1.5;" x1="200" x2="641" y1="126.5" y2="126.5"/><line style="stroke:#A80036;stroke-width:1.5;" x1="200" x2="641" y1="134.5" y2="134.5"/><text fill="#000000" font-family="sans-serif" font-size="11" lengthAdjust="spacing" textLength="406" x="205" y="149.9189">+TestType createTestType(code, description, collectingMethod, parameterCategory)</text><text fill="#000000" font-family="sans-serif" font-size="11" lengthAdjust="spacing" textLength="431" x="205" y="163.7549">+TestType createTestType(code, description, collectingMethod, parameterCategoriesList)</text><text fill="#000000" font-family="sans-serif" font-size="11" lengthAdjust="spacing" textLength="130" x="205" y="177.5908">+boolean saveTestType(tt)</text><text fill="#000000" font-family="sans-serif" font-size="11" lengthAdjust="spacing" textLength="143" x="205" y="191.4268">+boolean validateTestType(tt)</text><text fill="#000000" font-family="sans-serif" font-size="11" lengthAdjust="spacing" textLength="124" x="205" y="205.2627">+boolean addTestType(tt)</text><text fill="#000000" font-family="sans-serif" font-size="11" lengthAdjust="spacing" textLength="172" x="205" y="219.0986">+List &lt;TestType&gt; getAllTestTypes()</text><!--MD5=[2628f93c2b91159b8b11117185f029f9]
class PCS--><rect codeLine="23" fill="#FEFECE" filter="url(#fekjny58nes0)" height="75.6719" id="PCS" style="stroke:#A80036;stroke-width:1.5;" width="292" x="1141" y="7"/><ellipse cx="1214.75" cy="23" fill="#ADD1B2" rx="11" ry="11" style="stroke:#A80036;stroke-width:1.0;"/><path d="M1216.75,19.5 Q1216.9531,19 1217.1875,18.75 Q1217.4219,18.5 1217.6875,18.5 Q1218.1563,18.5 1218.4531,18.7813 Q1218.75,19.0625 1218.75,19.7188 L1218.75,21.2813 Q1218.75,21.9375 1218.4688,22.2188 Q1218.1875,22.5 1217.75,22.5 Q1217.3594,22.5 1217.1094,22.3281 Q1216.8594,22.1563 1216.75,21.7031 Q1216.7031,21.3906 1216.5313,21.2188 Q1216.2188,20.8906 1215.6563,20.7031 Q1215.0938,20.5 1214.5313,20.5 Q1213.8281,20.5 1213.2344,20.7813 Q1212.6563,21.0625 1212.2031,21.6875 Q1211.75,22.3125 1211.75,23.1719 L1211.75,24.0938 Q1211.75,25.125 1212.5938,25.8125 Q1213.4375,26.5 1214.9375,26.5 Q1215.8281,26.5 1216.4531,26.2969 Q1216.8125,26.1875 1217.2188,25.8281 Q1217.4844,25.625 1217.625,25.5625 Q1217.7656,25.5 1217.9375,25.5 Q1218.2656,25.5 1218.5,25.7656 Q1218.75,26.0156 1218.75,26.375 Q1218.75,26.7188 1218.4063,27.125 Q1217.9063,27.7188 1217.1094,28.0469 Q1216.0625,28.5 1214.7813,28.5 Q1213.2813,28.5 1212.0781,27.9063 Q1211.1094,27.4375 1210.4219,26.4219 Q1209.75,25.4063 1209.75,24.2031 L1209.75,23.1094 Q1209.75,21.8594 1210.3438,20.7656 Q1210.9531,19.6719 1212,19.0938 Q1213.0625,18.5 1214.25,18.5 Q1214.9688,18.5 1215.5938,18.75 Q1216.2188,19 1216.75,19.5 Z " fill="#000000"/><text fill="#000000" font-family="sans-serif" font-size="12" lengthAdjust="spacing" textLength="136" x="1235.25" y="27.9102">ParameterCategoryStore</text><line style="stroke:#A80036;stroke-width:1.5;" x1="1142" x2="1432" y1="39" y2="39"/><line style="stroke:#A80036;stroke-width:1.5;" x1="1142" x2="1432" y1="47" y2="47"/><text fill="#000000" font-family="sans-serif" font-size="11" lengthAdjust="spacing" textLength="270" x="1147" y="62.4189">+List &lt;ParameterCategory&gt; getAllParameterCategories()</text><text fill="#000000" font-family="sans-serif" font-size="11" lengthAdjust="spacing" textLength="280" x="1147" y="76.2549">+ParameterCategory getParameterCategoryByCode(code)</text><!--MD5=[f76673142371ead9f091198193c4bd63]
class TT--><rect codeLine="55" fill="#FEFECE" filter="url(#fekjny58nes0)" height="144.8516" id="TT" style="stroke:#A80036;stroke-width:1.5;" width="364" x="1105" y="118.5"/><ellipse cx="1257.75" cy="134.5" fill="#ADD1B2" rx="11" ry="11" style="stroke:#A80036;stroke-width:1.0;"/><path d="M1259.75,131 Q1259.9531,130.5 1260.1875,130.25 Q1260.4219,130 1260.6875,130 Q1261.1563,130 1261.4531,130.2813 Q1261.75,130.5625 1261.75,131.2188 L1261.75,132.7813 Q1261.75,133.4375 1261.4688,133.7188 Q1261.1875,134 1260.75,134 Q1260.3594,134 1260.1094,133.8281 Q1259.8594,133.6563 1259.75,133.2031 Q1259.7031,132.8906 1259.5313,132.7188 Q1259.2188,132.3906 1258.6563,132.2031 Q1258.0938,132 1257.5313,132 Q1256.8281,132 1256.2344,132.2813 Q1255.6563,132.5625 1255.2031,133.1875 Q1254.75,133.8125 1254.75,134.6719 L1254.75,135.5938 Q1254.75,136.625 1255.5938,137.3125 Q1256.4375,138 1257.9375,138 Q1258.8281,138 1259.4531,137.7969 Q1259.8125,137.6875 1260.2188,137.3281 Q1260.4844,137.125 1260.625,137.0625 Q1260.7656,137 1260.9375,137 Q1261.2656,137 1261.5,137.2656 Q1261.75,137.5156 1261.75,137.875 Q1261.75,138.2188 1261.4063,138.625 Q1260.9063,139.2188 1260.1094,139.5469 Q1259.0625,140 1257.7813,140 Q1256.2813,140 1255.0781,139.4063 Q1254.1094,138.9375 1253.4219,137.9219 Q1252.75,136.9063 1252.75,135.7031 L1252.75,134.6094 Q1252.75,133.3594 1253.3438,132.2656 Q1253.9531,131.1719 1255,130.5938 Q1256.0625,130 1257.25,130 Q1257.9688,130 1258.5938,130.25 Q1259.2188,130.5 1259.75,131 Z " fill="#000000"/><text fill="#000000" font-family="sans-serif" font-size="12" lengthAdjust="spacing" textLength="50" x="1278.25" y="139.4102">TestType</text><line style="stroke:#A80036;stroke-width:1.5;" x1="1106" x2="1468" y1="150.5" y2="150.5"/><text fill="#000000" font-family="sans-serif" font-size="11" lengthAdjust="spacing" textLength="59" x="1111" y="165.9189">-String code</text><text fill="#000000" font-family="sans-serif" font-size="11" lengthAdjust="spacing" textLength="88" x="1111" y="179.7549">-String description</text><text fill="#000000" font-family="sans-serif" font-size="11" lengthAdjust="spacing" textLength="115" x="1111" y="193.5908">-String collectingMethod</text><text fill="#000000" font-family="sans-serif" font-size="11" lengthAdjust="spacing" textLength="193" x="1111" y="207.4268">-ParameterCategory parameterCategory</text><text fill="#000000" font-family="sans-serif" font-size="11" lengthAdjust="spacing" textLength="250" x="1111" y="221.2627">-List &lt;ParameterCategory&gt; parameterCategoriesList</text><line style="stroke:#A80036;stroke-width:1.5;" x1="1106" x2="1468" y1="227.6797" y2="227.6797"/><text fill="#000000" font-family="sans-serif" font-size="11" lengthAdjust="spacing" textLength="327" x="1111" y="243.0986">+TestType(code, description, collectingMethod, parameterCategory)</text><text fill="#000000" font-family="sans-serif" font-size="11" lengthAdjust="spacing" textLength="352" x="1111" y="256.9346">+TestType(code, description, collectingMethod, parameterCategoriesList)</text><!--MD5=[0db42b3591f13a48474e506cf6fbc101]
class CTTC--><rect codeLine="56" fill="#FEFECE" filter="url(#fekjny58nes0)" height="144.8516" id="CTTC" style="stroke:#A80036;stroke-width:1.5;" width="436" x="202.5" y="260.5"/><ellipse cx="345.75" cy="276.5" fill="#ADD1B2" rx="11" ry="11" style="stroke:#A80036;stroke-width:1.0;"/><path d="M347.75,273 Q347.9531,272.5 348.1875,272.25 Q348.4219,272 348.6875,272 Q349.1563,272 349.4531,272.2813 Q349.75,272.5625 349.75,273.2188 L349.75,274.7813 Q349.75,275.4375 349.4688,275.7188 Q349.1875,276 348.75,276 Q348.3594,276 348.1094,275.8281 Q347.8594,275.6563 347.75,275.2031 Q347.7031,274.8906 347.5313,274.7188 Q347.2188,274.3906 346.6563,274.2031 Q346.0938,274 345.5313,274 Q344.8281,274 344.2344,274.2813 Q343.6563,274.5625 343.2031,275.1875 Q342.75,275.8125 342.75,276.6719 L342.75,277.5938 Q342.75,278.625 343.5938,279.3125 Q344.4375,280 345.9375,280 Q346.8281,280 347.4531,279.7969 Q347.8125,279.6875 348.2188,279.3281 Q348.4844,279.125 348.625,279.0625 Q348.7656,279 348.9375,279 Q349.2656,279 349.5,279.2656 Q349.75,279.5156 349.75,279.875 Q349.75,280.2188 349.4063,280.625 Q348.9063,281.2188 348.1094,281.5469 Q347.0625,282 345.7813,282 Q344.2813,282 343.0781,281.4063 Q342.1094,280.9375 341.4219,279.9219 Q340.75,278.9063 340.75,277.7031 L340.75,276.6094 Q340.75,275.3594 341.3438,274.2656 Q341.9531,273.1719 343,272.5938 Q344.0625,272 345.25,272 Q345.9688,272 346.5938,272.25 Q347.2188,272.5 347.75,273 Z " fill="#000000"/><text fill="#000000" font-family="sans-serif" font-size="12" lengthAdjust="spacing" textLength="141" x="366.25" y="281.4102">CreateTestTypeController</text><line style="stroke:#A80036;stroke-width:1.5;" x1="203.5" x2="637.5" y1="292.5" y2="292.5"/><line style="stroke:#A80036;stroke-width:1.5;" x1="203.5" x2="637.5" y1="300.5" y2="300.5"/><text fill="#000000" font-family="sans-serif" font-size="11" lengthAdjust="spacing" textLength="137" x="208.5" y="315.9189">+CreateTestTypeController()</text><text fill="#000000" font-family="sans-serif" font-size="11" lengthAdjust="spacing" textLength="279" x="208.5" y="329.7549">+List&lt;ParameterCategoryDto&gt; getParameterCategoryDto()</text><text fill="#000000" font-family="sans-serif" font-size="11" lengthAdjust="spacing" textLength="399" x="208.5" y="343.5908">+boolean createTestType(code, description, collectingMethod, parameterCategory)</text><text fill="#000000" font-family="sans-serif" font-size="11" lengthAdjust="spacing" textLength="424" x="208.5" y="357.4268">+boolean createTestType(code, description, collectingMethod, parameterCategoriesList)</text><text fill="#000000" font-family="sans-serif" font-size="11" lengthAdjust="spacing" textLength="130" x="208.5" y="371.2627">+boolean saveTestType(tt)</text><text fill="#000000" font-family="sans-serif" font-size="11" lengthAdjust="spacing" textLength="280" x="208.5" y="385.0986">+ParameterCategory getParameterCategoryByCode(code)</text><text fill="#000000" font-family="sans-serif" font-size="11" lengthAdjust="spacing" textLength="169" x="208.5" y="398.9346">+List&lt;TestType&gt; getAllTestTypes()</text><!--MD5=[218f71f443b9e0720bb96dd9df1d4749]
class PC--><rect codeLine="48" fill="#FEFECE" filter="url(#fekjny58nes0)" height="89.5078" id="PC" style="stroke:#A80036;stroke-width:1.5;" width="175" x="1607" y="243"/><ellipse cx="1638.2" cy="259" fill="#ADD1B2" rx="11" ry="11" style="stroke:#A80036;stroke-width:1.0;"/><path d="M1640.2,255.5 Q1640.4031,255 1640.6375,254.75 Q1640.8719,254.5 1641.1375,254.5 Q1641.6063,254.5 1641.9031,254.7813 Q1642.2,255.0625 1642.2,255.7188 L1642.2,257.2813 Q1642.2,257.9375 1641.9188,258.2188 Q1641.6375,258.5 1641.2,258.5 Q1640.8094,258.5 1640.5594,258.3281 Q1640.3094,258.1563 1640.2,257.7031 Q1640.1531,257.3906 1639.9813,257.2188 Q1639.6688,256.8906 1639.1063,256.7031 Q1638.5438,256.5 1637.9813,256.5 Q1637.2781,256.5 1636.6844,256.7813 Q1636.1063,257.0625 1635.6531,257.6875 Q1635.2,258.3125 1635.2,259.1719 L1635.2,260.0938 Q1635.2,261.125 1636.0438,261.8125 Q1636.8875,262.5 1638.3875,262.5 Q1639.2781,262.5 1639.9031,262.2969 Q1640.2625,262.1875 1640.6688,261.8281 Q1640.9344,261.625 1641.075,261.5625 Q1641.2156,261.5 1641.3875,261.5 Q1641.7156,261.5 1641.95,261.7656 Q1642.2,262.0156 1642.2,262.375 Q1642.2,262.7188 1641.8563,263.125 Q1641.3563,263.7188 1640.5594,264.0469 Q1639.5125,264.5 1638.2313,264.5 Q1636.7313,264.5 1635.5281,263.9063 Q1634.5594,263.4375 1633.8719,262.4219 Q1633.2,261.4063 1633.2,260.2031 L1633.2,259.1094 Q1633.2,257.8594 1633.7938,256.7656 Q1634.4031,255.6719 1635.45,255.0938 Q1636.5125,254.5 1637.7,254.5 Q1638.4188,254.5 1639.0438,254.75 Q1639.6688,255 1640.2,255.5 Z " fill="#000000"/><text fill="#000000" font-family="sans-serif" font-size="12" lengthAdjust="spacing" textLength="107" x="1655.8" y="263.9102">ParameterCategory</text><line style="stroke:#A80036;stroke-width:1.5;" x1="1608" x2="1781" y1="275" y2="275"/><text fill="#000000" font-family="sans-serif" font-size="11" lengthAdjust="spacing" textLength="61" x="1613" y="290.4189">-String name</text><text fill="#000000" font-family="sans-serif" font-size="11" lengthAdjust="spacing" textLength="59" x="1613" y="304.2549">-String code</text><line style="stroke:#A80036;stroke-width:1.5;" x1="1608" x2="1781" y1="310.6719" y2="310.6719"/><text fill="#000000" font-family="sans-serif" font-size="11" lengthAdjust="spacing" textLength="163" x="1613" y="326.0908">+ParameterCategory(name, code)</text><!--MD5=[6461a74477876ab4a04549c978c1a07a]
class CTTUI--><rect codeLine="54" fill="#FEFECE" filter="url(#fekjny58nes0)" height="48" id="CTTUI" style="stroke:#A80036;stroke-width:1.5;" width="131" x="7" y="309"/><ellipse cx="22" cy="325" fill="#ADD1B2" rx="11" ry="11" style="stroke:#A80036;stroke-width:1.0;"/><path d="M24,321.5 Q24.2031,321 24.4375,320.75 Q24.6719,320.5 24.9375,320.5 Q25.4063,320.5 25.7031,320.7813 Q26,321.0625 26,321.7188 L26,323.2813 Q26,323.9375 25.7188,324.2188 Q25.4375,324.5 25,324.5 Q24.6094,324.5 24.3594,324.3281 Q24.1094,324.1563 24,323.7031 Q23.9531,323.3906 23.7813,323.2188 Q23.4688,322.8906 22.9063,322.7031 Q22.3438,322.5 21.7813,322.5 Q21.0781,322.5 20.4844,322.7813 Q19.9063,323.0625 19.4531,323.6875 Q19,324.3125 19,325.1719 L19,326.0938 Q19,327.125 19.8438,327.8125 Q20.6875,328.5 22.1875,328.5 Q23.0781,328.5 23.7031,328.2969 Q24.0625,328.1875 24.4688,327.8281 Q24.7344,327.625 24.875,327.5625 Q25.0156,327.5 25.1875,327.5 Q25.5156,327.5 25.75,327.7656 Q26,328.0156 26,328.375 Q26,328.7188 25.6563,329.125 Q25.1563,329.7188 24.3594,330.0469 Q23.3125,330.5 22.0313,330.5 Q20.5313,330.5 19.3281,329.9063 Q18.3594,329.4375 17.6719,328.4219 Q17,327.4063 17,326.2031 L17,325.1094 Q17,323.8594 17.5938,322.7656 Q18.2031,321.6719 19.25,321.0938 Q20.3125,320.5 21.5,320.5 Q22.2188,320.5 22.8438,320.75 Q23.4688,321 24,321.5 Z " fill="#000000"/><text fill="#000000" font-family="sans-serif" font-size="12" lengthAdjust="spacing" textLength="99" x="36" y="329.9102">CreateTestTypeUI</text><line style="stroke:#A80036;stroke-width:1.5;" x1="8" x2="137" y1="341" y2="341"/><line style="stroke:#A80036;stroke-width:1.5;" x1="8" x2="137" y1="349" y2="349"/><!--MD5=[320690cba070b8468face0bfd1ce9533]
link CTTUI to CTTC--><path codeLine="58" d="M138.17,333 C155.83,333 176,333 197.26,333 " fill="none" id="CTTUI-to-CTTC" style="stroke:#A80036;stroke-width:1.0;stroke-dasharray:7.0,7.0;"/><polygon fill="#A80036" points="202.39,333,193.39,329,197.39,333,193.39,337,202.39,333" style="stroke:#A80036;stroke-width:1.0;"/><!--MD5=[e1c0f205e01471a87324e4cc03d03bbe]
link C to PCS--><path codeLine="60" d="M927.05,162.47 C977.75,144.39 1045.06,120.76 1105,101 C1121.42,95.59 1138.73,90.04 1155.86,84.63 " fill="none" id="C-to-PCS" style="stroke:#A80036;stroke-width:1.0;stroke-dasharray:7.0,7.0;"/><polygon fill="#A80036" points="1160.69,83.11,1150.9047,81.9932,1155.9201,84.6095,1153.3039,89.625,1160.69,83.11" style="stroke:#A80036;stroke-width:1.0;"/><!--MD5=[694303a06a79f7ae0713de28a4008c97]
link TTS to C--><path codeLine="62" d="M642.14,176.11 C684.81,179.23 727.03,182.31 761.89,184.86 " fill="none" id="TTS-to-C" style="stroke:#A80036;stroke-width:1.0;stroke-dasharray:7.0,7.0;"/><polygon fill="#A80036" points="766.97,185.23,758.2788,180.5972,761.9828,184.8727,757.7072,188.5767,766.97,185.23" style="stroke:#A80036;stroke-width:1.0;"/><!--MD5=[cf05f59dfce81a96099c5f95714bd5af]
link CTTC to C--><path codeLine="65" d="M638.41,260.44 C682.38,245.73 726.09,231.11 761.97,219.11 " fill="none" id="CTTC-to-C" style="stroke:#A80036;stroke-width:1.0;stroke-dasharray:7.0,7.0;"/><polygon fill="#A80036" points="766.75,217.51,756.9452,216.5791,762.0095,219.0997,759.4888,224.1639,766.75,217.51" style="stroke:#A80036;stroke-width:1.0;"/><!--MD5=[1d14db0b97cac770d171bdc7474dae00]
link CTTC to cNM--><path codeLine="66" d="M638.72,333 C658.58,333 678.38,333 697.43,333 " fill="none" id="CTTC-to-cNM" style="stroke:#A80036;stroke-width:1.0;stroke-dasharray:7.0,7.0;"/><polygon fill="#A80036" points="702.78,333,693.78,329,697.78,333,693.78,337,702.78,333" style="stroke:#A80036;stroke-width:1.0;"/><!--MD5=[93286ab8d15dacf230424bab250ab910]
link TT to PC--><path codeLine="68" d="M1469.11,234.32 C1517.01,245.78 1566.55,257.63 1606.85,267.27 " fill="none" id="TT-PC" style="stroke:#A80036;stroke-width:1.0;"/><polygon fill="#000000" points="1508.8628,235.3391,1500.7497,230.3764,1499.3822,236.093,1508.8628,235.3391" style="stroke:#000000;stroke-width:1.0;"/><text fill="#000000" font-family="sans-serif" font-size="13" lengthAdjust="spacing" textLength="63" x="1513" y="239.4951">analyzes a</text><text fill="#000000" font-family="sans-serif" font-size="13" lengthAdjust="spacing" textLength="5" x="1476.8982" y="249.9907">*</text><text fill="#000000" font-family="sans-serif" font-size="13" lengthAdjust="spacing" textLength="7" x="1592.0168" y="279.7074">1</text><!--MD5=[b83cceec495819d0b37daa935a10185d]
link C to TT--><path codeLine="70" d="M927.06,191 C976.72,191 1042.88,191 1104.87,191 " fill="none" id="C-TT" style="stroke:#A80036;stroke-width:1.0;"/><polygon fill="#000000" points="1031,182.1758,1021.9549,179.2369,1021.9549,185.1147,1031,182.1758" style="stroke:#000000;stroke-width:1.0;"/><text fill="#000000" font-family="sans-serif" font-size="13" lengthAdjust="spacing" textLength="39" x="1035" y="187.4951">adopts</text><text fill="#000000" font-family="sans-serif" font-size="13" lengthAdjust="spacing" textLength="7" x="935.0243" y="205.2978">1</text><text fill="#000000" font-family="sans-serif" font-size="13" lengthAdjust="spacing" textLength="5" x="1092.0809" y="204.8432">*</text><!--MD5=[71b3fc4d6ca120e51ce9c04aa77747d8]
link C to PC--><path codeLine="71" d="M927.25,234 C976.76,258.38 1042.73,286.45 1105,299 C1280.3,334.34 1490.94,316.22 1606.68,301.22 " fill="none" id="C-PC" style="stroke:#A80036;stroke-width:1.0;"/><polygon fill="#000000" points="1269.9757,290.6681,1261.2639,286.8529,1260.6852,292.7022,1269.9757,290.6681" style="stroke:#000000;stroke-width:1.0;"/><text fill="#000000" font-family="sans-serif" font-size="13" lengthAdjust="spacing" textLength="39" x="1274" y="295.4951">adopts</text><text fill="#000000" font-family="sans-serif" font-size="13" lengthAdjust="spacing" textLength="7" x="934.9707" y="252.2356">1</text><text fill="#000000" font-family="sans-serif" font-size="13" lengthAdjust="spacing" textLength="5" x="1593.9181" y="316.575">*</text><!--MD5=[0168c2568934d8d46a3154d847ac273d]
@startuml
skinparam classAttributeIconSize 0
left to right direction

class "Company" as C {
-String designation
+getTestTypeStore()
+getParameterCategoryStore()
}

class "categoriesNameMapper" as cNM {
+List <ParameterCategoryDto> toDto(parameterCategory)
}

class "TestTypeStore" as TTS{
+TestType createTestType(code, description, collectingMethod, parameterCategory)
+TestType createTestType(code, description, collectingMethod, parameterCategoriesList)
+boolean saveTestType(tt)
+boolean validateTestType(tt)
+boolean addTestType(tt)
+List <TestType> getAllTestTypes()
}

class "ParameterCategoryStore" as PCS{
+List <ParameterCategory> getAllParameterCategories()
+ParameterCategory getParameterCategoryByCode(code)
}

class "TestType" as TT {
-String code
-String description
-String collectingMethod
-ParameterCategory parameterCategory
-List <ParameterCategory> parameterCategoriesList
+TestType(code, description, collectingMethod, parameterCategory)
+TestType(code, description, collectingMethod, parameterCategoriesList)
}

class "CreateTestTypeController" as CTTC {
+CreateTestTypeController()
+List<ParameterCategoryDto> getParameterCategoryDto()
+boolean createTestType(code, description, collectingMethod, parameterCategory)
+boolean createTestType(code, description, collectingMethod, parameterCategoriesList)
+boolean saveTestType(tt)
+ParameterCategory getParameterCategoryByCode(code)
+List<TestType> getAllTestTypes()
}

class "ParameterCategory" as PC{
-String name
-String code
+ParameterCategory(name, code)
}

class "CreateTestTypeUI" as CTTUI
class "TestType" as TT
class "CreateTestTypeController" as CTTC

CTTUI ..> CTTC

C ..> PCS

TTS ..> C


CTTC ..> C
CTTC ..> cNM

TT "*" - - "1" PC : > analyzes a

C "1" - - "*" TT : > adopts
C "1" - - "*" PC : > adopts

@enduml

PlantUML version 1.2021.5(Sun Apr 25 12:20:28 BST 2021)
(GPL source distribution)
Java Runtime: OpenJDK Runtime Environment
JVM: OpenJDK 64-Bit Server VM
Default Encoding: Cp1252
Language: pt
Country: PT
--></g></svg>