<?xml version="1.0" encoding="UTF-8" standalone="no"?><svg xmlns="http://www.w3.org/2000/svg" xmlns:xlink="http://www.w3.org/1999/xlink" contentScriptType="application/ecmascript" contentStyleType="text/css" height="427px" preserveAspectRatio="none" style="width:2226px;height:427px;" version="1.1" viewBox="0 0 2226 427" width="2226px" zoomAndPan="magnify"><defs><filter height="300%" id="f1m9ybbyky6oi6" width="300%" x="-1" y="-1"><feGaussianBlur result="blurOut" stdDeviation="2.0"/><feColorMatrix in="blurOut" result="blurOut2" type="matrix" values="0 0 0 0 0 0 0 0 0 0 0 0 0 0 0 0 0 0 .4 0"/><feOffset dx="4.0" dy="4.0" in="blurOut2" result="blurOut3"/><feBlend in="SourceGraphic" in2="blurOut3" mode="normal"/></filter></defs><g><!--MD5=[378b18254a1b2429f435e93f5e5cc50c]
class C--><rect codeLine="4" fill="#FEFECE" filter="url(#f1m9ybbyky6oi6)" height="89.5078" id="C" style="stroke:#A80036;stroke-width:1.5;" width="160" x="726.5" y="211.5"/><ellipse cx="775.75" cy="227.5" fill="#ADD1B2" rx="11" ry="11" style="stroke:#A80036;stroke-width:1.0;"/><path d="M777.75,224 Q777.9531,223.5 778.1875,223.25 Q778.4219,223 778.6875,223 Q779.1563,223 779.4531,223.2813 Q779.75,223.5625 779.75,224.2188 L779.75,225.7813 Q779.75,226.4375 779.4688,226.7188 Q779.1875,227 778.75,227 Q778.3594,227 778.1094,226.8281 Q777.8594,226.6563 777.75,226.2031 Q777.7031,225.8906 777.5313,225.7188 Q777.2188,225.3906 776.6563,225.2031 Q776.0938,225 775.5313,225 Q774.8281,225 774.2344,225.2813 Q773.6563,225.5625 773.2031,226.1875 Q772.75,226.8125 772.75,227.6719 L772.75,228.5938 Q772.75,229.625 773.5938,230.3125 Q774.4375,231 775.9375,231 Q776.8281,231 777.4531,230.7969 Q777.8125,230.6875 778.2188,230.3281 Q778.4844,230.125 778.625,230.0625 Q778.7656,230 778.9375,230 Q779.2656,230 779.5,230.2656 Q779.75,230.5156 779.75,230.875 Q779.75,231.2188 779.4063,231.625 Q778.9063,232.2188 778.1094,232.5469 Q777.0625,233 775.7813,233 Q774.2813,233 773.0781,232.4063 Q772.1094,231.9375 771.4219,230.9219 Q770.75,229.9063 770.75,228.7031 L770.75,227.6094 Q770.75,226.3594 771.3438,225.2656 Q771.9531,224.1719 773,223.5938 Q774.0625,223 775.25,223 Q775.9688,223 776.5938,223.25 Q777.2188,223.5 777.75,224 Z " fill="#000000"/><text fill="#000000" font-family="sans-serif" font-size="12" lengthAdjust="spacing" textLength="53" x="796.25" y="232.4102">Company</text><line style="stroke:#A80036;stroke-width:1.5;" x1="727.5" x2="885.5" y1="243.5" y2="243.5"/><text fill="#000000" font-family="sans-serif" font-size="11" lengthAdjust="spacing" textLength="90" x="732.5" y="258.9189">-String designation</text><line style="stroke:#A80036;stroke-width:1.5;" x1="727.5" x2="885.5" y1="265.3359" y2="265.3359"/><text fill="#000000" font-family="sans-serif" font-size="11" lengthAdjust="spacing" textLength="100" x="732.5" y="280.7549">+getTestTypeStore()</text><text fill="#000000" font-family="sans-serif" font-size="11" lengthAdjust="spacing" textLength="148" x="732.5" y="294.5908">+getParameterCategoryStore()</text><!--MD5=[1905ea1c532ab03438cb5177c6784fd5]
class ttM--><rect codeLine="10" fill="#FEFECE" filter="url(#f1m9ybbyky6oi6)" height="61.8359" id="ttM" style="stroke:#A80036;stroke-width:1.5;" width="221" x="696" y="336.5"/><ellipse cx="756.75" cy="352.5" fill="#ADD1B2" rx="11" ry="11" style="stroke:#A80036;stroke-width:1.0;"/><path d="M758.75,349 Q758.9531,348.5 759.1875,348.25 Q759.4219,348 759.6875,348 Q760.1563,348 760.4531,348.2813 Q760.75,348.5625 760.75,349.2188 L760.75,350.7813 Q760.75,351.4375 760.4688,351.7188 Q760.1875,352 759.75,352 Q759.3594,352 759.1094,351.8281 Q758.8594,351.6563 758.75,351.2031 Q758.7031,350.8906 758.5313,350.7188 Q758.2188,350.3906 757.6563,350.2031 Q757.0938,350 756.5313,350 Q755.8281,350 755.2344,350.2813 Q754.6563,350.5625 754.2031,351.1875 Q753.75,351.8125 753.75,352.6719 L753.75,353.5938 Q753.75,354.625 754.5938,355.3125 Q755.4375,356 756.9375,356 Q757.8281,356 758.4531,355.7969 Q758.8125,355.6875 759.2188,355.3281 Q759.4844,355.125 759.625,355.0625 Q759.7656,355 759.9375,355 Q760.2656,355 760.5,355.2656 Q760.75,355.5156 760.75,355.875 Q760.75,356.2188 760.4063,356.625 Q759.9063,357.2188 759.1094,357.5469 Q758.0625,358 756.7813,358 Q755.2813,358 754.0781,357.4063 Q753.1094,356.9375 752.4219,355.9219 Q751.75,354.9063 751.75,353.7031 L751.75,352.6094 Q751.75,351.3594 752.3438,350.2656 Q752.9531,349.1719 754,348.5938 Q755.0625,348 756.25,348 Q756.9688,348 757.5938,348.25 Q758.2188,348.5 758.75,349 Z " fill="#000000"/><text fill="#000000" font-family="sans-serif" font-size="12" lengthAdjust="spacing" textLength="91" x="777.25" y="357.4102">TestTypeMapper</text><line style="stroke:#A80036;stroke-width:1.5;" x1="697" x2="916" y1="368.5" y2="368.5"/><line style="stroke:#A80036;stroke-width:1.5;" x1="697" x2="916" y1="376.5" y2="376.5"/><text fill="#000000" font-family="sans-serif" font-size="11" lengthAdjust="spacing" textLength="209" x="702" y="391.9189">+List &lt;TestTypeDto&gt; toDto(List&lt;TestType&gt;)</text><!--MD5=[0c21d7a5a5555e4278001068caacbd33]
class TTS--><rect codeLine="14" fill="#FEFECE" filter="url(#f1m9ybbyky6oi6)" height="131.0156" id="TTS" style="stroke:#A80036;stroke-width:1.5;" width="443" x="978" y="7"/><ellipse cx="1155.75" cy="23" fill="#ADD1B2" rx="11" ry="11" style="stroke:#A80036;stroke-width:1.0;"/><path d="M1157.75,19.5 Q1157.9531,19 1158.1875,18.75 Q1158.4219,18.5 1158.6875,18.5 Q1159.1563,18.5 1159.4531,18.7813 Q1159.75,19.0625 1159.75,19.7188 L1159.75,21.2813 Q1159.75,21.9375 1159.4688,22.2188 Q1159.1875,22.5 1158.75,22.5 Q1158.3594,22.5 1158.1094,22.3281 Q1157.8594,22.1563 1157.75,21.7031 Q1157.7031,21.3906 1157.5313,21.2188 Q1157.2188,20.8906 1156.6563,20.7031 Q1156.0938,20.5 1155.5313,20.5 Q1154.8281,20.5 1154.2344,20.7813 Q1153.6563,21.0625 1153.2031,21.6875 Q1152.75,22.3125 1152.75,23.1719 L1152.75,24.0938 Q1152.75,25.125 1153.5938,25.8125 Q1154.4375,26.5 1155.9375,26.5 Q1156.8281,26.5 1157.4531,26.2969 Q1157.8125,26.1875 1158.2188,25.8281 Q1158.4844,25.625 1158.625,25.5625 Q1158.7656,25.5 1158.9375,25.5 Q1159.2656,25.5 1159.5,25.7656 Q1159.75,26.0156 1159.75,26.375 Q1159.75,26.7188 1159.4063,27.125 Q1158.9063,27.7188 1158.1094,28.0469 Q1157.0625,28.5 1155.7813,28.5 Q1154.2813,28.5 1153.0781,27.9063 Q1152.1094,27.4375 1151.4219,26.4219 Q1150.75,25.4063 1150.75,24.2031 L1150.75,23.1094 Q1150.75,21.8594 1151.3438,20.7656 Q1151.9531,19.6719 1153,19.0938 Q1154.0625,18.5 1155.25,18.5 Q1155.9688,18.5 1156.5938,18.75 Q1157.2188,19 1157.75,19.5 Z " fill="#000000"/><text fill="#000000" font-family="sans-serif" font-size="12" lengthAdjust="spacing" textLength="79" x="1176.25" y="27.9102">TestTypeStore</text><line style="stroke:#A80036;stroke-width:1.5;" x1="979" x2="1420" y1="39" y2="39"/><line style="stroke:#A80036;stroke-width:1.5;" x1="979" x2="1420" y1="47" y2="47"/><text fill="#000000" font-family="sans-serif" font-size="11" lengthAdjust="spacing" textLength="406" x="984" y="62.4189">+TestType createTestType(code, description, collectingMethod, parameterCategory)</text><text fill="#000000" font-family="sans-serif" font-size="11" lengthAdjust="spacing" textLength="431" x="984" y="76.2549">+TestType createTestType(code, description, collectingMethod, parameterCategoriesList)</text><text fill="#000000" font-family="sans-serif" font-size="11" lengthAdjust="spacing" textLength="130" x="984" y="90.0908">+boolean saveTestType(tt)</text><text fill="#000000" font-family="sans-serif" font-size="11" lengthAdjust="spacing" textLength="143" x="984" y="103.9268">+boolean validateTestType(tt)</text><text fill="#000000" font-family="sans-serif" font-size="11" lengthAdjust="spacing" textLength="124" x="984" y="117.7627">+boolean addTestType(tt)</text><text fill="#000000" font-family="sans-serif" font-size="11" lengthAdjust="spacing" textLength="172" x="984" y="131.5986">+List &lt;TestType&gt; getAllTestTypes()</text><!--MD5=[2628f93c2b91159b8b11117185f029f9]
class PCS--><rect codeLine="23" fill="#FEFECE" filter="url(#f1m9ybbyky6oi6)" height="75.6719" id="PCS" style="stroke:#A80036;stroke-width:1.5;" width="314" x="1042.5" y="173.5"/><ellipse cx="1096.25" cy="189.5" fill="#ADD1B2" rx="11" ry="11" style="stroke:#A80036;stroke-width:1.0;"/><path d="M1098.25,186 Q1098.4531,185.5 1098.6875,185.25 Q1098.9219,185 1099.1875,185 Q1099.6563,185 1099.9531,185.2813 Q1100.25,185.5625 1100.25,186.2188 L1100.25,187.7813 Q1100.25,188.4375 1099.9688,188.7188 Q1099.6875,189 1099.25,189 Q1098.8594,189 1098.6094,188.8281 Q1098.3594,188.6563 1098.25,188.2031 Q1098.2031,187.8906 1098.0313,187.7188 Q1097.7188,187.3906 1097.1563,187.2031 Q1096.5938,187 1096.0313,187 Q1095.3281,187 1094.7344,187.2813 Q1094.1563,187.5625 1093.7031,188.1875 Q1093.25,188.8125 1093.25,189.6719 L1093.25,190.5938 Q1093.25,191.625 1094.0938,192.3125 Q1094.9375,193 1096.4375,193 Q1097.3281,193 1097.9531,192.7969 Q1098.3125,192.6875 1098.7188,192.3281 Q1098.9844,192.125 1099.125,192.0625 Q1099.2656,192 1099.4375,192 Q1099.7656,192 1100,192.2656 Q1100.25,192.5156 1100.25,192.875 Q1100.25,193.2188 1099.9063,193.625 Q1099.4063,194.2188 1098.6094,194.5469 Q1097.5625,195 1096.2813,195 Q1094.7813,195 1093.5781,194.4063 Q1092.6094,193.9375 1091.9219,192.9219 Q1091.25,191.9063 1091.25,190.7031 L1091.25,189.6094 Q1091.25,188.3594 1091.8438,187.2656 Q1092.4531,186.1719 1093.5,185.5938 Q1094.5625,185 1095.75,185 Q1096.4688,185 1097.0938,185.25 Q1097.7188,185.5 1098.25,186 Z " fill="#000000"/><text fill="#000000" font-family="sans-serif" font-size="12" lengthAdjust="spacing" textLength="198" x="1116.75" y="194.4102">CreateParameterCategoryController</text><line style="stroke:#A80036;stroke-width:1.5;" x1="1043.5" x2="1355.5" y1="205.5" y2="205.5"/><line style="stroke:#A80036;stroke-width:1.5;" x1="1043.5" x2="1355.5" y1="213.5" y2="213.5"/><text fill="#000000" font-family="sans-serif" font-size="11" lengthAdjust="spacing" textLength="302" x="1048.5" y="228.9189">+List &lt;ParameterCategoryDto&gt; getAllParameterCategoriesDto()</text><text fill="#000000" font-family="sans-serif" font-size="11" lengthAdjust="spacing" textLength="280" x="1048.5" y="242.7549">+ParameterCategory getParameterCategoryByCode(code)</text><!--MD5=[f76673142371ead9f091198193c4bd63]
class TT--><rect codeLine="54" fill="#FEFECE" filter="url(#f1m9ybbyky6oi6)" height="144.8516" id="TT" style="stroke:#A80036;stroke-width:1.5;" width="364" x="1535" y="192"/><ellipse cx="1687.75" cy="208" fill="#ADD1B2" rx="11" ry="11" style="stroke:#A80036;stroke-width:1.0;"/><path d="M1689.75,204.5 Q1689.9531,204 1690.1875,203.75 Q1690.4219,203.5 1690.6875,203.5 Q1691.1563,203.5 1691.4531,203.7813 Q1691.75,204.0625 1691.75,204.7188 L1691.75,206.2813 Q1691.75,206.9375 1691.4688,207.2188 Q1691.1875,207.5 1690.75,207.5 Q1690.3594,207.5 1690.1094,207.3281 Q1689.8594,207.1563 1689.75,206.7031 Q1689.7031,206.3906 1689.5313,206.2188 Q1689.2188,205.8906 1688.6563,205.7031 Q1688.0938,205.5 1687.5313,205.5 Q1686.8281,205.5 1686.2344,205.7813 Q1685.6563,206.0625 1685.2031,206.6875 Q1684.75,207.3125 1684.75,208.1719 L1684.75,209.0938 Q1684.75,210.125 1685.5938,210.8125 Q1686.4375,211.5 1687.9375,211.5 Q1688.8281,211.5 1689.4531,211.2969 Q1689.8125,211.1875 1690.2188,210.8281 Q1690.4844,210.625 1690.625,210.5625 Q1690.7656,210.5 1690.9375,210.5 Q1691.2656,210.5 1691.5,210.7656 Q1691.75,211.0156 1691.75,211.375 Q1691.75,211.7188 1691.4063,212.125 Q1690.9063,212.7188 1690.1094,213.0469 Q1689.0625,213.5 1687.7813,213.5 Q1686.2813,213.5 1685.0781,212.9063 Q1684.1094,212.4375 1683.4219,211.4219 Q1682.75,210.4063 1682.75,209.2031 L1682.75,208.1094 Q1682.75,206.8594 1683.3438,205.7656 Q1683.9531,204.6719 1685,204.0938 Q1686.0625,203.5 1687.25,203.5 Q1687.9688,203.5 1688.5938,203.75 Q1689.2188,204 1689.75,204.5 Z " fill="#000000"/><text fill="#000000" font-family="sans-serif" font-size="12" lengthAdjust="spacing" textLength="50" x="1708.25" y="212.9102">TestType</text><line style="stroke:#A80036;stroke-width:1.5;" x1="1536" x2="1898" y1="224" y2="224"/><text fill="#000000" font-family="sans-serif" font-size="11" lengthAdjust="spacing" textLength="59" x="1541" y="239.4189">-String code</text><text fill="#000000" font-family="sans-serif" font-size="11" lengthAdjust="spacing" textLength="88" x="1541" y="253.2549">-String description</text><text fill="#000000" font-family="sans-serif" font-size="11" lengthAdjust="spacing" textLength="115" x="1541" y="267.0908">-String collectingMethod</text><text fill="#000000" font-family="sans-serif" font-size="11" lengthAdjust="spacing" textLength="193" x="1541" y="280.9268">-ParameterCategory parameterCategory</text><text fill="#000000" font-family="sans-serif" font-size="11" lengthAdjust="spacing" textLength="250" x="1541" y="294.7627">-List &lt;ParameterCategory&gt; parameterCategoriesList</text><line style="stroke:#A80036;stroke-width:1.5;" x1="1536" x2="1898" y1="301.1797" y2="301.1797"/><text fill="#000000" font-family="sans-serif" font-size="11" lengthAdjust="spacing" textLength="327" x="1541" y="316.5986">+TestType(code, description, collectingMethod, parameterCategory)</text><text fill="#000000" font-family="sans-serif" font-size="11" lengthAdjust="spacing" textLength="352" x="1541" y="330.4346">+TestType(code, description, collectingMethod, parameterCategoriesList)</text><!--MD5=[0db42b3591f13a48474e506cf6fbc101]
class CTTC--><rect codeLine="55" fill="#FEFECE" filter="url(#f1m9ybbyky6oi6)" height="131.0156" id="CTTC" style="stroke:#A80036;stroke-width:1.5;" width="436" x="199" y="282"/><ellipse cx="342.25" cy="298" fill="#ADD1B2" rx="11" ry="11" style="stroke:#A80036;stroke-width:1.0;"/><path d="M344.25,294.5 Q344.4531,294 344.6875,293.75 Q344.9219,293.5 345.1875,293.5 Q345.6563,293.5 345.9531,293.7813 Q346.25,294.0625 346.25,294.7188 L346.25,296.2813 Q346.25,296.9375 345.9688,297.2188 Q345.6875,297.5 345.25,297.5 Q344.8594,297.5 344.6094,297.3281 Q344.3594,297.1563 344.25,296.7031 Q344.2031,296.3906 344.0313,296.2188 Q343.7188,295.8906 343.1563,295.7031 Q342.5938,295.5 342.0313,295.5 Q341.3281,295.5 340.7344,295.7813 Q340.1563,296.0625 339.7031,296.6875 Q339.25,297.3125 339.25,298.1719 L339.25,299.0938 Q339.25,300.125 340.0938,300.8125 Q340.9375,301.5 342.4375,301.5 Q343.3281,301.5 343.9531,301.2969 Q344.3125,301.1875 344.7188,300.8281 Q344.9844,300.625 345.125,300.5625 Q345.2656,300.5 345.4375,300.5 Q345.7656,300.5 346,300.7656 Q346.25,301.0156 346.25,301.375 Q346.25,301.7188 345.9063,302.125 Q345.4063,302.7188 344.6094,303.0469 Q343.5625,303.5 342.2813,303.5 Q340.7813,303.5 339.5781,302.9063 Q338.6094,302.4375 337.9219,301.4219 Q337.25,300.4063 337.25,299.2031 L337.25,298.1094 Q337.25,296.8594 337.8438,295.7656 Q338.4531,294.6719 339.5,294.0938 Q340.5625,293.5 341.75,293.5 Q342.4688,293.5 343.0938,293.75 Q343.7188,294 344.25,294.5 Z " fill="#000000"/><text fill="#000000" font-family="sans-serif" font-size="12" lengthAdjust="spacing" textLength="141" x="362.75" y="302.9102">CreateTestTypeController</text><line style="stroke:#A80036;stroke-width:1.5;" x1="200" x2="634" y1="314" y2="314"/><line style="stroke:#A80036;stroke-width:1.5;" x1="200" x2="634" y1="322" y2="322"/><text fill="#000000" font-family="sans-serif" font-size="11" lengthAdjust="spacing" textLength="137" x="205" y="337.4189">+CreateTestTypeController()</text><text fill="#000000" font-family="sans-serif" font-size="11" lengthAdjust="spacing" textLength="201" x="205" y="351.2549">+List&lt;TestTypeDto&gt; getAllTestTypesDto()</text><text fill="#000000" font-family="sans-serif" font-size="11" lengthAdjust="spacing" textLength="399" x="205" y="365.0908">+boolean createTestType(code, description, collectingMethod, parameterCategory)</text><text fill="#000000" font-family="sans-serif" font-size="11" lengthAdjust="spacing" textLength="424" x="205" y="378.9268">+boolean createTestType(code, description, collectingMethod, parameterCategoriesList)</text><text fill="#000000" font-family="sans-serif" font-size="11" lengthAdjust="spacing" textLength="124" x="205" y="392.7627">+boolean saveTestType()</text><text fill="#000000" font-family="sans-serif" font-size="11" lengthAdjust="spacing" textLength="169" x="205" y="406.5986">+List&lt;TestType&gt; getAllTestTypes()</text><!--MD5=[218f71f443b9e0720bb96dd9df1d4749]
class PC--><rect codeLine="47" fill="#FEFECE" filter="url(#f1m9ybbyky6oi6)" height="89.5078" id="PC" style="stroke:#A80036;stroke-width:1.5;" width="175" x="2037" y="316.5"/><ellipse cx="2068.2" cy="332.5" fill="#ADD1B2" rx="11" ry="11" style="stroke:#A80036;stroke-width:1.0;"/><path d="M2070.2,329 Q2070.4031,328.5 2070.6375,328.25 Q2070.8719,328 2071.1375,328 Q2071.6063,328 2071.9031,328.2813 Q2072.2,328.5625 2072.2,329.2188 L2072.2,330.7813 Q2072.2,331.4375 2071.9188,331.7188 Q2071.6375,332 2071.2,332 Q2070.8094,332 2070.5594,331.8281 Q2070.3094,331.6563 2070.2,331.2031 Q2070.1531,330.8906 2069.9813,330.7188 Q2069.6688,330.3906 2069.1063,330.2031 Q2068.5438,330 2067.9813,330 Q2067.2781,330 2066.6844,330.2813 Q2066.1063,330.5625 2065.6531,331.1875 Q2065.2,331.8125 2065.2,332.6719 L2065.2,333.5938 Q2065.2,334.625 2066.0438,335.3125 Q2066.8875,336 2068.3875,336 Q2069.2781,336 2069.9031,335.7969 Q2070.2625,335.6875 2070.6688,335.3281 Q2070.9344,335.125 2071.075,335.0625 Q2071.2156,335 2071.3875,335 Q2071.7156,335 2071.95,335.2656 Q2072.2,335.5156 2072.2,335.875 Q2072.2,336.2188 2071.8563,336.625 Q2071.3563,337.2188 2070.5594,337.5469 Q2069.5125,338 2068.2313,338 Q2066.7313,338 2065.5281,337.4063 Q2064.5594,336.9375 2063.8719,335.9219 Q2063.2,334.9063 2063.2,333.7031 L2063.2,332.6094 Q2063.2,331.3594 2063.7938,330.2656 Q2064.4031,329.1719 2065.45,328.5938 Q2066.5125,328 2067.7,328 Q2068.4188,328 2069.0438,328.25 Q2069.6688,328.5 2070.2,329 Z " fill="#000000"/><text fill="#000000" font-family="sans-serif" font-size="12" lengthAdjust="spacing" textLength="107" x="2085.8" y="337.4102">ParameterCategory</text><line style="stroke:#A80036;stroke-width:1.5;" x1="2038" x2="2211" y1="348.5" y2="348.5"/><text fill="#000000" font-family="sans-serif" font-size="11" lengthAdjust="spacing" textLength="61" x="2043" y="363.9189">-String name</text><text fill="#000000" font-family="sans-serif" font-size="11" lengthAdjust="spacing" textLength="59" x="2043" y="377.7549">-String code</text><line style="stroke:#A80036;stroke-width:1.5;" x1="2038" x2="2211" y1="384.1719" y2="384.1719"/><text fill="#000000" font-family="sans-serif" font-size="11" lengthAdjust="spacing" textLength="163" x="2043" y="399.5908">+ParameterCategory(name, code)</text><!--MD5=[6461a74477876ab4a04549c978c1a07a]
class CTTUI--><rect codeLine="53" fill="#FEFECE" filter="url(#f1m9ybbyky6oi6)" height="48" id="CTTUI" style="stroke:#A80036;stroke-width:1.5;" width="131" x="7" y="323.5"/><ellipse cx="22" cy="339.5" fill="#ADD1B2" rx="11" ry="11" style="stroke:#A80036;stroke-width:1.0;"/><path d="M24,336 Q24.2031,335.5 24.4375,335.25 Q24.6719,335 24.9375,335 Q25.4063,335 25.7031,335.2813 Q26,335.5625 26,336.2188 L26,337.7813 Q26,338.4375 25.7188,338.7188 Q25.4375,339 25,339 Q24.6094,339 24.3594,338.8281 Q24.1094,338.6563 24,338.2031 Q23.9531,337.8906 23.7813,337.7188 Q23.4688,337.3906 22.9063,337.2031 Q22.3438,337 21.7813,337 Q21.0781,337 20.4844,337.2813 Q19.9063,337.5625 19.4531,338.1875 Q19,338.8125 19,339.6719 L19,340.5938 Q19,341.625 19.8438,342.3125 Q20.6875,343 22.1875,343 Q23.0781,343 23.7031,342.7969 Q24.0625,342.6875 24.4688,342.3281 Q24.7344,342.125 24.875,342.0625 Q25.0156,342 25.1875,342 Q25.5156,342 25.75,342.2656 Q26,342.5156 26,342.875 Q26,343.2188 25.6563,343.625 Q25.1563,344.2188 24.3594,344.5469 Q23.3125,345 22.0313,345 Q20.5313,345 19.3281,344.4063 Q18.3594,343.9375 17.6719,342.9219 Q17,341.9063 17,340.7031 L17,339.6094 Q17,338.3594 17.5938,337.2656 Q18.2031,336.1719 19.25,335.5938 Q20.3125,335 21.5,335 Q22.2188,335 22.8438,335.25 Q23.4688,335.5 24,336 Z " fill="#000000"/><text fill="#000000" font-family="sans-serif" font-size="12" lengthAdjust="spacing" textLength="99" x="36" y="344.4102">CreateTestTypeUI</text><line style="stroke:#A80036;stroke-width:1.5;" x1="8" x2="137" y1="355.5" y2="355.5"/><line style="stroke:#A80036;stroke-width:1.5;" x1="8" x2="137" y1="363.5" y2="363.5"/><!--MD5=[320690cba070b8468face0bfd1ce9533]
link CTTUI to CTTC--><path codeLine="57" d="M138.32,347.5 C154.95,347.5 173.8,347.5 193.65,347.5 " fill="none" id="CTTUI-to-CTTC" style="stroke:#A80036;stroke-width:1.0;stroke-dasharray:7.0,7.0;"/><polygon fill="#A80036" points="198.72,347.5,189.72,343.5,193.72,347.5,189.72,351.5,198.72,347.5" style="stroke:#A80036;stroke-width:1.0;"/><!--MD5=[e1c0f205e01471a87324e4cc03d03bbe]
link C to PCS--><path codeLine="59" d="M886.62,247.39 C929.97,242.41 985.31,236.04 1037.31,230.05 " fill="none" id="C-to-PCS" style="stroke:#A80036;stroke-width:1.0;stroke-dasharray:7.0,7.0;"/><polygon fill="#A80036" points="1042.33,229.47,1032.9311,226.527,1037.3629,230.0426,1033.8473,234.4743,1042.33,229.47" style="stroke:#A80036;stroke-width:1.0;"/><!--MD5=[299cf0460a0b3ffee05ec41c99ce24b7]
link C to TTS--><path codeLine="61" d="M877.32,211.39 C907.6,192.82 943.88,171.87 978,155.5 C988.99,150.23 1000.4,145.06 1012,140.04 " fill="none" id="C-to-TTS" style="stroke:#A80036;stroke-width:1.0;stroke-dasharray:7.0,7.0;"/><polygon fill="#A80036" points="1016.63,138.05,1006.7816,137.9557,1012.0417,140.0368,1009.9605,145.2969,1016.63,138.05" style="stroke:#A80036;stroke-width:1.0;"/><!--MD5=[cf05f59dfce81a96099c5f95714bd5af]
link CTTC to C--><path codeLine="64" d="M635.25,296.48 C665.7,289.33 695.36,282.37 721.16,276.31 " fill="none" id="CTTC-to-C" style="stroke:#A80036;stroke-width:1.0;stroke-dasharray:7.0,7.0;"/><polygon fill="#A80036" points="726.27,275.11,716.5931,273.2777,721.4029,276.2552,718.4254,281.065,726.27,275.11" style="stroke:#A80036;stroke-width:1.0;"/><!--MD5=[e78a6acdd318a27b442e8ff64f8c9353]
link CTTC to ttM--><path codeLine="65" d="M635.25,358.71 C654.2,359.69 672.83,360.65 690.43,361.56 " fill="none" id="CTTC-to-ttM" style="stroke:#A80036;stroke-width:1.0;stroke-dasharray:7.0,7.0;"/><polygon fill="#A80036" points="695.85,361.84,687.068,357.3817,690.8566,361.5825,686.6559,365.3711,695.85,361.84" style="stroke:#A80036;stroke-width:1.0;"/><!--MD5=[93286ab8d15dacf230424bab250ab910]
link TT to PC--><path codeLine="67" d="M1899.11,307.82 C1947.01,319.28 1996.55,331.13 2036.85,340.77 " fill="none" id="TT-PC" style="stroke:#A80036;stroke-width:1.0;"/><polygon fill="#000000" points="1938.8628,307.8391,1930.7497,302.8764,1929.3822,308.593,1938.8628,307.8391" style="stroke:#000000;stroke-width:1.0;"/><text fill="#000000" font-family="sans-serif" font-size="13" lengthAdjust="spacing" textLength="63" x="1943" y="311.9951">analyzes a</text><text fill="#000000" font-family="sans-serif" font-size="13" lengthAdjust="spacing" textLength="5" x="1906.8982" y="323.4907">*</text><text fill="#000000" font-family="sans-serif" font-size="13" lengthAdjust="spacing" textLength="7" x="2022.0168" y="353.2074">1</text><!--MD5=[47773c9c22b384181ea9d3871f1f6c2c]
link TTS to TT--><path codeLine="68" d="M1376.46,138.04 C1425.91,156.46 1479.84,176.54 1529.86,195.17 " fill="none" id="TTS-to-TT" style="stroke:#A80036;stroke-width:1.0;stroke-dasharray:7.0,7.0;"/><polygon fill="#A80036" points="1534.69,196.97,1527.6491,190.0834,1530.0037,195.2269,1524.8601,197.5815,1534.69,196.97" style="stroke:#A80036;stroke-width:1.0;"/><!--MD5=[b83cceec495819d0b37daa935a10185d]
link C to TT--><path codeLine="70" d="M886.54,272.23 C915.22,277.21 947.95,282.05 978,284.5 C1167.55,299.96 1385.29,290.78 1534.87,280.33 " fill="none" id="C-TT" style="stroke:#A80036;stroke-width:1.0;"/><polygon fill="#000000" points="1182.4996,275.7382,1173.4919,272.6866,1173.4185,278.5639,1182.4996,275.7382" style="stroke:#000000;stroke-width:1.0;"/><text fill="#000000" font-family="sans-serif" font-size="13" lengthAdjust="spacing" textLength="39" x="1186.5" y="280.9951">adopts</text><text fill="#000000" font-family="sans-serif" font-size="13" lengthAdjust="spacing" textLength="7" x="894.5024" y="270.5021">1</text><text fill="#000000" font-family="sans-serif" font-size="13" lengthAdjust="spacing" textLength="5" x="1522.0809" y="294.841">*</text><!--MD5=[71b3fc4d6ca120e51ce9c04aa77747d8]
link C to PC--><path codeLine="71" d="M886.7,280.28 C915.25,288.08 947.86,296.13 978,301.5 C1368.39,371.11 1844.52,368.73 2036.81,364.24 " fill="none" id="C-PC" style="stroke:#A80036;stroke-width:1.0;"/><polygon fill="#000000" points="1460.9867,346.0398,1452.1796,342.4501,1451.7517,348.3124,1460.9867,346.0398" style="stroke:#000000;stroke-width:1.0;"/><text fill="#000000" font-family="sans-serif" font-size="13" lengthAdjust="spacing" textLength="39" x="1465" y="350.9951">adopts</text><text fill="#000000" font-family="sans-serif" font-size="13" lengthAdjust="spacing" textLength="7" x="894.4161" y="296.7437">1</text><text fill="#000000" font-family="sans-serif" font-size="13" lengthAdjust="spacing" textLength="5" x="2024.0593" y="378.6943">*</text><!--MD5=[368488ac73df2c5e24ffa762ab85bdec]
@startuml
skinparam classAttributeIconSize 0
left to right direction

class "Company" as C {
-String designation
+getTestTypeStore()
+getParameterCategoryStore()
}

class "TestTypeMapper" as ttM{
+List <TestTypeDto> toDto(List<TestType>)
}

class "TestTypeStore" as TTS{
+TestType createTestType(code, description, collectingMethod, parameterCategory)
+TestType createTestType(code, description, collectingMethod, parameterCategoriesList)
+boolean saveTestType(tt)
+boolean validateTestType(tt)
+boolean addTestType(tt)
+List <TestType> getAllTestTypes()
}

class "CreateParameterCategoryController" as PCS{
+List <ParameterCategoryDto> getAllParameterCategoriesDto()
+ParameterCategory getParameterCategoryByCode(code)
}

class "TestType" as TT {
-String code
-String description
-String collectingMethod
-ParameterCategory parameterCategory
-List <ParameterCategory> parameterCategoriesList
+TestType(code, description, collectingMethod, parameterCategory)
+TestType(code, description, collectingMethod, parameterCategoriesList)
}

class "CreateTestTypeController" as CTTC {
+CreateTestTypeController()
+List<TestTypeDto> getAllTestTypesDto()
+boolean createTestType(code, description, collectingMethod, parameterCategory)
+boolean createTestType(code, description, collectingMethod, parameterCategoriesList)
+boolean saveTestType()
+List<TestType> getAllTestTypes()
}

class "ParameterCategory" as PC{
-String name
-String code
+ParameterCategory(name, code)
}

class "CreateTestTypeUI" as CTTUI
class "TestType" as TT
class "CreateTestTypeController" as CTTC

CTTUI ..> CTTC

C ..> PCS

C ..> TTS


CTTC ..> C
CTTC ..> ttM

TT "*" - - "1" PC : > analyzes a
TTS ..> TT

C "1" - - "*" TT : > adopts
C "1" - - "*" PC : > adopts

@enduml

PlantUML version 1.2021.5(Sun Apr 25 12:20:28 BST 2021)
(GPL source distribution)
Java Runtime: OpenJDK Runtime Environment
JVM: OpenJDK 64-Bit Server VM
Default Encoding: Cp1252
Language: pt
Country: PT
--></g></svg>