<?xml version="1.0" encoding="UTF-8" standalone="no"?><svg xmlns="http://www.w3.org/2000/svg" xmlns:xlink="http://www.w3.org/1999/xlink" contentScriptType="application/ecmascript" contentStyleType="text/css" height="211.5px" preserveAspectRatio="none" style="width:873px;height:211px;" version="1.1" viewBox="0 0 873 211" width="873.9px" zoomAndPan="magnify"><defs><filter height="300%" id="ff31989xpfrcj" width="300%" x="-1" y="-1"><feGaussianBlur result="blurOut" stdDeviation="1.8"/><feColorMatrix in="blurOut" result="blurOut2" type="matrix" values="0 0 0 0 0 0 0 0 0 0 0 0 0 0 0 0 0 0 .4 0"/><feOffset dx="3.6" dy="3.6" in="blurOut2" result="blurOut3"/><feBlend in="SourceGraphic" in2="blurOut3" mode="normal"/></filter></defs><g><!--MD5=[378b18254a1b2429f435e93f5e5cc50c]
class C--><rect codeLine="4" fill="#FEFECE" filter="url(#ff31989xpfrcj)" height="55.6523" id="C" style="stroke:#A80036;stroke-width:1.35;" width="76.5" x="477.9" y="34.2"/><ellipse cx="491.4" cy="48.6" fill="#ADD1B2" rx="9.9" ry="9.9" style="stroke:#A80036;stroke-width:0.9;"/><path d="M493.2,45.45 Q493.3828,45 493.5938,44.775 Q493.8047,44.55 494.0438,44.55 Q494.4656,44.55 494.7328,44.8031 Q495,45.0563 495,45.6469 L495,47.0531 Q495,47.6438 494.7469,47.8969 Q494.4938,48.15 494.1,48.15 Q493.7484,48.15 493.5234,47.9953 Q493.2984,47.8406 493.2,47.4328 Q493.1578,47.1516 493.0031,46.9969 Q492.7219,46.7016 492.2156,46.5328 Q491.7094,46.35 491.2031,46.35 Q490.5703,46.35 490.0359,46.6031 Q489.5156,46.8563 489.1078,47.4188 Q488.7,47.9813 488.7,48.7547 L488.7,49.5844 Q488.7,50.5125 489.4594,51.1313 Q490.2188,51.75 491.5688,51.75 Q492.3703,51.75 492.9328,51.5672 Q493.2563,51.4688 493.6219,51.1453 Q493.8609,50.9625 493.9875,50.9063 Q494.1141,50.85 494.2688,50.85 Q494.5641,50.85 494.775,51.0891 Q495,51.3141 495,51.6375 Q495,51.9469 494.6906,52.3125 Q494.2406,52.8469 493.5234,53.1422 Q492.5813,53.55 491.4281,53.55 Q490.0781,53.55 488.9953,53.0156 Q488.1234,52.5938 487.5047,51.6797 Q486.9,50.7656 486.9,49.6828 L486.9,48.6984 Q486.9,47.5734 487.4344,46.5891 Q487.9828,45.6047 488.925,45.0844 Q489.8813,44.55 490.95,44.55 Q491.5969,44.55 492.1594,44.775 Q492.7219,45 493.2,45.45 Z " fill="#000000"/><text fill="#000000" font-family="sans-serif" font-size="10.8" lengthAdjust="spacing" textLength="47.7" x="504" y="53.0191">Company</text><line style="stroke:#A80036;stroke-width:1.35;" x1="478.8" x2="553.5" y1="63" y2="63"/><text fill="#000000" font-family="sans-serif" font-size="9.9" lengthAdjust="spacing" textLength="53.1" x="483.3" y="76.8771">-designation</text><line style="stroke:#A80036;stroke-width:1.35;" x1="478.8" x2="553.5" y1="82.6523" y2="82.6523"/><!--MD5=[0c21d7a5a5555e4278001068caacbd33]
class TTS--><rect codeLine="8" fill="#FEFECE" filter="url(#ff31989xpfrcj)" height="80.557" id="TTS" style="stroke:#A80036;stroke-width:1.35;" width="243.9" x="179.1" y="6.3"/><ellipse cx="261.675" cy="20.7" fill="#ADD1B2" rx="9.9" ry="9.9" style="stroke:#A80036;stroke-width:0.9;"/><path d="M263.475,17.55 Q263.6578,17.1 263.8688,16.875 Q264.0797,16.65 264.3188,16.65 Q264.7406,16.65 265.0078,16.9031 Q265.275,17.1563 265.275,17.7469 L265.275,19.1531 Q265.275,19.7438 265.0219,19.9969 Q264.7688,20.25 264.375,20.25 Q264.0234,20.25 263.7984,20.0953 Q263.5734,19.9406 263.475,19.5328 Q263.4328,19.2516 263.2781,19.0969 Q262.9969,18.8016 262.4906,18.6328 Q261.9844,18.45 261.4781,18.45 Q260.8453,18.45 260.3109,18.7031 Q259.7906,18.9563 259.3828,19.5188 Q258.975,20.0813 258.975,20.8547 L258.975,21.6844 Q258.975,22.6125 259.7344,23.2313 Q260.4938,23.85 261.8438,23.85 Q262.6453,23.85 263.2078,23.6672 Q263.5313,23.5688 263.8969,23.2453 Q264.1359,23.0625 264.2625,23.0063 Q264.3891,22.95 264.5438,22.95 Q264.8391,22.95 265.05,23.1891 Q265.275,23.4141 265.275,23.7375 Q265.275,24.0469 264.9656,24.4125 Q264.5156,24.9469 263.7984,25.2422 Q262.8563,25.65 261.7031,25.65 Q260.3531,25.65 259.2703,25.1156 Q258.3984,24.6938 257.7797,23.7797 Q257.175,22.8656 257.175,21.7828 L257.175,20.7984 Q257.175,19.6734 257.7094,18.6891 Q258.2578,17.7047 259.2,17.1844 Q260.1563,16.65 261.225,16.65 Q261.8719,16.65 262.4344,16.875 Q262.9969,17.1 263.475,17.55 Z " fill="#000000"/><text fill="#000000" font-family="sans-serif" font-size="10.8" lengthAdjust="spacing" textLength="71.1" x="280.125" y="25.1191">TestTypeStore</text><line style="stroke:#A80036;stroke-width:1.35;" x1="180" x2="422.1" y1="35.1" y2="35.1"/><line style="stroke:#A80036;stroke-width:1.35;" x1="180" x2="422.1" y1="42.3" y2="42.3"/><text fill="#000000" font-family="sans-serif" font-size="9.9" lengthAdjust="spacing" textLength="233.1" x="184.5" y="56.1771">+createTestType(code, description, collectingMethod)</text><text fill="#000000" font-family="sans-serif" font-size="9.9" lengthAdjust="spacing" textLength="91.8" x="184.5" y="68.6294">+validateTestType(tt)</text><text fill="#000000" font-family="sans-serif" font-size="9.9" lengthAdjust="spacing" textLength="74.7" x="184.5" y="81.0817">+addTestType(tt)</text><!--MD5=[2628f93c2b91159b8b11117185f029f9]
class PCS--><rect codeLine="14" fill="#FEFECE" filter="url(#ff31989xpfrcj)" height="55.6523" id="PCS" style="stroke:#A80036;stroke-width:1.35;" width="176.4" x="665.1" y="18.9"/><ellipse cx="689.94" cy="33.3" fill="#ADD1B2" rx="9.9" ry="9.9" style="stroke:#A80036;stroke-width:0.9;"/><path d="M691.74,30.15 Q691.9228,29.7 692.1338,29.475 Q692.3447,29.25 692.5838,29.25 Q693.0056,29.25 693.2728,29.5031 Q693.54,29.7563 693.54,30.3469 L693.54,31.7531 Q693.54,32.3438 693.2869,32.5969 Q693.0338,32.85 692.64,32.85 Q692.2884,32.85 692.0634,32.6953 Q691.8384,32.5406 691.74,32.1328 Q691.6978,31.8516 691.5431,31.6969 Q691.2619,31.4016 690.7556,31.2328 Q690.2494,31.05 689.7431,31.05 Q689.1103,31.05 688.5759,31.3031 Q688.0556,31.5563 687.6478,32.1188 Q687.24,32.6813 687.24,33.4547 L687.24,34.2844 Q687.24,35.2125 687.9994,35.8313 Q688.7588,36.45 690.1088,36.45 Q690.9103,36.45 691.4728,36.2672 Q691.7963,36.1688 692.1619,35.8453 Q692.4009,35.6625 692.5275,35.6063 Q692.6541,35.55 692.8088,35.55 Q693.1041,35.55 693.315,35.7891 Q693.54,36.0141 693.54,36.3375 Q693.54,36.6469 693.2306,37.0125 Q692.7806,37.5469 692.0634,37.8422 Q691.1213,38.25 689.9681,38.25 Q688.6181,38.25 687.5353,37.7156 Q686.6634,37.2938 686.0447,36.3797 Q685.44,35.4656 685.44,34.3828 L685.44,33.3984 Q685.44,32.2734 685.9744,31.2891 Q686.5228,30.3047 687.465,29.7844 Q688.4213,29.25 689.49,29.25 Q690.1369,29.25 690.6994,29.475 Q691.2619,29.7 691.74,30.15 Z " fill="#000000"/><text fill="#000000" font-family="sans-serif" font-size="10.8" lengthAdjust="spacing" textLength="122.4" x="705.06" y="37.7191">ParameterCategoryStore</text><line style="stroke:#A80036;stroke-width:1.35;" x1="666" x2="840.6" y1="47.7" y2="47.7"/><line style="stroke:#A80036;stroke-width:1.35;" x1="666" x2="840.6" y1="54.9" y2="54.9"/><text fill="#000000" font-family="sans-serif" font-size="9.9" lengthAdjust="spacing" textLength="165.6" x="670.5" y="68.7771">+getParameterCategoryByCode(code)</text><!--MD5=[f76673142371ead9f091198193c4bd63]
class TT--><rect codeLine="31" fill="#FEFECE" filter="url(#ff31989xpfrcj)" height="93.0094" id="TT" style="stroke:#A80036;stroke-width:1.35;" width="216" x="645.3" y="106.65"/><ellipse cx="726.975" cy="121.05" fill="#ADD1B2" rx="9.9" ry="9.9" style="stroke:#A80036;stroke-width:0.9;"/><path d="M728.775,117.9 Q728.9578,117.45 729.1688,117.225 Q729.3797,117 729.6188,117 Q730.0406,117 730.3078,117.2531 Q730.575,117.5063 730.575,118.0969 L730.575,119.5031 Q730.575,120.0938 730.3219,120.3469 Q730.0688,120.6 729.675,120.6 Q729.3234,120.6 729.0984,120.4453 Q728.8734,120.2906 728.775,119.8828 Q728.7328,119.6016 728.5781,119.4469 Q728.2969,119.1516 727.7906,118.9828 Q727.2844,118.8 726.7781,118.8 Q726.1453,118.8 725.6109,119.0531 Q725.0906,119.3063 724.6828,119.8688 Q724.275,120.4313 724.275,121.2047 L724.275,122.0344 Q724.275,122.9625 725.0344,123.5813 Q725.7938,124.2 727.1438,124.2 Q727.9453,124.2 728.5078,124.0172 Q728.8313,123.9188 729.1969,123.5953 Q729.4359,123.4125 729.5625,123.3563 Q729.6891,123.3 729.8438,123.3 Q730.1391,123.3 730.35,123.5391 Q730.575,123.7641 730.575,124.0875 Q730.575,124.3969 730.2656,124.7625 Q729.8156,125.2969 729.0984,125.5922 Q728.1563,126 727.0031,126 Q725.6531,126 724.5703,125.4656 Q723.6984,125.0438 723.0797,124.1297 Q722.475,123.2156 722.475,122.1328 L722.475,121.1484 Q722.475,120.0234 723.0094,119.0391 Q723.5578,118.0547 724.5,117.5344 Q725.4563,117 726.525,117 Q727.1719,117 727.7344,117.225 Q728.2969,117.45 728.775,117.9 Z " fill="#000000"/><text fill="#000000" font-family="sans-serif" font-size="10.8" lengthAdjust="spacing" textLength="45" x="745.425" y="125.4691">TestType</text><line style="stroke:#A80036;stroke-width:1.35;" x1="646.2" x2="860.4" y1="135.45" y2="135.45"/><text fill="#000000" font-family="sans-serif" font-size="9.9" lengthAdjust="spacing" textLength="25.2" x="650.7" y="149.3271">-code</text><text fill="#000000" font-family="sans-serif" font-size="9.9" lengthAdjust="spacing" textLength="51.3" x="650.7" y="161.7794">-description</text><text fill="#000000" font-family="sans-serif" font-size="9.9" lengthAdjust="spacing" textLength="75.6" x="650.7" y="174.2317">-collectingMethod</text><line style="stroke:#A80036;stroke-width:1.35;" x1="646.2" x2="860.4" y1="180.007" y2="180.007"/><text fill="#000000" font-family="sans-serif" font-size="9.9" lengthAdjust="spacing" textLength="205.2" x="650.7" y="193.8841">+TestType(code, description, collectingMethod)</text><!--MD5=[0db42b3591f13a48474e506cf6fbc101]
class CTTC--><rect codeLine="32" fill="#FEFECE" filter="url(#ff31989xpfrcj)" height="68.1047" id="CTTC" style="stroke:#A80036;stroke-width:1.35;" width="243.9" x="179.1" y="118.8"/><ellipse cx="233.775" cy="133.2" fill="#ADD1B2" rx="9.9" ry="9.9" style="stroke:#A80036;stroke-width:0.9;"/><path d="M235.575,130.05 Q235.7578,129.6 235.9688,129.375 Q236.1797,129.15 236.4188,129.15 Q236.8406,129.15 237.1078,129.4031 Q237.375,129.6563 237.375,130.2469 L237.375,131.6531 Q237.375,132.2438 237.1219,132.4969 Q236.8688,132.75 236.475,132.75 Q236.1234,132.75 235.8984,132.5953 Q235.6734,132.4406 235.575,132.0328 Q235.5328,131.7516 235.3781,131.5969 Q235.0969,131.3016 234.5906,131.1328 Q234.0844,130.95 233.5781,130.95 Q232.9453,130.95 232.4109,131.2031 Q231.8906,131.4563 231.4828,132.0188 Q231.075,132.5813 231.075,133.3547 L231.075,134.1844 Q231.075,135.1125 231.8344,135.7313 Q232.5938,136.35 233.9438,136.35 Q234.7453,136.35 235.3078,136.1672 Q235.6313,136.0688 235.9969,135.7453 Q236.2359,135.5625 236.3625,135.5063 Q236.4891,135.45 236.6438,135.45 Q236.9391,135.45 237.15,135.6891 Q237.375,135.9141 237.375,136.2375 Q237.375,136.5469 237.0656,136.9125 Q236.6156,137.4469 235.8984,137.7422 Q234.9563,138.15 233.8031,138.15 Q232.4531,138.15 231.3703,137.6156 Q230.4984,137.1938 229.8797,136.2797 Q229.275,135.3656 229.275,134.2828 L229.275,133.2984 Q229.275,132.1734 229.8094,131.1891 Q230.3578,130.2047 231.3,129.6844 Q232.2563,129.15 233.325,129.15 Q233.9719,129.15 234.5344,129.375 Q235.0969,129.6 235.575,130.05 Z " fill="#000000"/><text fill="#000000" font-family="sans-serif" font-size="10.8" lengthAdjust="spacing" textLength="126.9" x="252.225" y="137.6191">CreateTestTypeController</text><line style="stroke:#A80036;stroke-width:1.35;" x1="180" x2="422.1" y1="147.6" y2="147.6"/><line style="stroke:#A80036;stroke-width:1.35;" x1="180" x2="422.1" y1="154.8" y2="154.8"/><text fill="#000000" font-family="sans-serif" font-size="9.9" lengthAdjust="spacing" textLength="233.1" x="184.5" y="168.6771">+createTestType(code, description, collectingMethod)</text><text fill="#000000" font-family="sans-serif" font-size="9.9" lengthAdjust="spacing" textLength="74.7" x="184.5" y="181.1294">+saveTestType()</text><!--MD5=[6461a74477876ab4a04549c978c1a07a]
class CTTUI--><rect codeLine="30" fill="#FEFECE" filter="url(#ff31989xpfrcj)" height="43.2" id="CTTUI" style="stroke:#A80036;stroke-width:1.35;" width="117.9" x="6.3" y="131.4"/><ellipse cx="19.8" cy="145.8" fill="#ADD1B2" rx="9.9" ry="9.9" style="stroke:#A80036;stroke-width:0.9;"/><path d="M21.6,142.65 Q21.7828,142.2 21.9938,141.975 Q22.2047,141.75 22.4438,141.75 Q22.8656,141.75 23.1328,142.0031 Q23.4,142.2563 23.4,142.8469 L23.4,144.2531 Q23.4,144.8438 23.1469,145.0969 Q22.8938,145.35 22.5,145.35 Q22.1484,145.35 21.9234,145.1953 Q21.6984,145.0406 21.6,144.6328 Q21.5578,144.3516 21.4031,144.1969 Q21.1219,143.9016 20.6156,143.7328 Q20.1094,143.55 19.6031,143.55 Q18.9703,143.55 18.4359,143.8031 Q17.9156,144.0563 17.5078,144.6188 Q17.1,145.1813 17.1,145.9547 L17.1,146.7844 Q17.1,147.7125 17.8594,148.3313 Q18.6188,148.95 19.9688,148.95 Q20.7703,148.95 21.3328,148.7672 Q21.6563,148.6688 22.0219,148.3453 Q22.2609,148.1625 22.3875,148.1063 Q22.5141,148.05 22.6688,148.05 Q22.9641,148.05 23.175,148.2891 Q23.4,148.5141 23.4,148.8375 Q23.4,149.1469 23.0906,149.5125 Q22.6406,150.0469 21.9234,150.3422 Q20.9813,150.75 19.8281,150.75 Q18.4781,150.75 17.3953,150.2156 Q16.5234,149.7938 15.9047,148.8797 Q15.3,147.9656 15.3,146.8828 L15.3,145.8984 Q15.3,144.7734 15.8344,143.7891 Q16.3828,142.8047 17.325,142.2844 Q18.2813,141.75 19.35,141.75 Q19.9969,141.75 20.5594,141.975 Q21.1219,142.2 21.6,142.65 Z " fill="#000000"/><text fill="#000000" font-family="sans-serif" font-size="10.8" lengthAdjust="spacing" textLength="89.1" x="32.4" y="150.2191">CreateTestTypeUI</text><line style="stroke:#A80036;stroke-width:1.35;" x1="7.2" x2="123.3" y1="160.2" y2="160.2"/><line style="stroke:#A80036;stroke-width:1.35;" x1="7.2" x2="123.3" y1="167.4" y2="167.4"/><!--MD5=[320690cba070b8468face0bfd1ce9533]
link CTTUI to CTTC--><path codeLine="34" d="M124.29,153 C139.572,153 156.663,153 174.024,153 " fill="none" id="CTTUI-to-CTTC" style="stroke:#A80036;stroke-width:0.9;stroke-dasharray:7.0,7.0;"/><polygon fill="#A80036" points="178.929,153,170.829,149.4,174.429,153,170.829,156.6,178.929,153" style="stroke:#A80036;stroke-width:0.9;"/><!--MD5=[e1c0f205e01471a87324e4cc03d03bbe]
link C to PCS--><path codeLine="35" d="M554.598,59.661 C583.038,57.807 623.367,55.188 660.195,52.794 " fill="none" id="C-to-PCS" style="stroke:#A80036;stroke-width:0.9;stroke-dasharray:7.0,7.0;"/><polygon fill="#A80036" points="664.902,52.488,656.5916,49.4047,660.4109,52.7711,657.0445,56.5905,664.902,52.488" style="stroke:#A80036;stroke-width:0.9;"/><!--MD5=[694303a06a79f7ae0713de28a4008c97]
link TTS to C--><path codeLine="36" d="M423.243,55.503 C440.937,56.772 458.091,57.996 472.689,59.049 " fill="none" id="TTS-to-C" style="stroke:#A80036;stroke-width:0.9;stroke-dasharray:7.0,7.0;"/><polygon fill="#A80036" points="477.54,59.391,469.7179,55.2215,473.0515,59.0695,469.2035,62.4031,477.54,59.391" style="stroke:#A80036;stroke-width:0.9;"/><!--MD5=[4ba949b41f5b4f886781165bf5f9b564]
link CTTC to TT--><path codeLine="37" d="M423.252,153 C490.815,153 574.362,153 640.368,153 " fill="none" id="CTTC-to-TT" style="stroke:#A80036;stroke-width:0.9;stroke-dasharray:7.0,7.0;"/><polygon fill="#A80036" points="645.093,153,636.993,149.4,640.593,153,636.993,156.6,645.093,153" style="stroke:#A80036;stroke-width:0.9;"/><!--MD5=[cf05f59dfce81a96099c5f95714bd5af]
link CTTC to C--><path codeLine="38" d="M386.757,118.746 C398.952,113.697 411.318,108.513 423,103.5 C439.515,96.417 457.578,88.38 473.301,81.279 " fill="none" id="CTTC-to-C" style="stroke:#A80036;stroke-width:0.9;stroke-dasharray:7.0,7.0;"/><polygon fill="#A80036" points="477.675,79.308,468.8112,79.3594,473.5735,81.1595,471.7735,85.9218,477.675,79.308" style="stroke:#A80036;stroke-width:0.9;"/><!--MD5=[b83cceec495819d0b37daa935a10185d]
link C to TT--><path codeLine="39" d="M554.598,76.608 C578.043,85.653 609.561,97.83 640.539,109.791 " fill="none" id="C-to-TT" style="stroke:#A80036;stroke-width:0.9;"/><polygon fill="#A80036" points="645.102,111.555,638.8445,105.2769,640.9046,109.9327,636.2488,111.9928,645.102,111.555" style="stroke:#A80036;stroke-width:0.9;"/><text fill="#000000" font-family="sans-serif" font-size="11.7" lengthAdjust="spacing" textLength="35.1" x="582.3" y="85.0456">adopts</text><text fill="#000000" font-family="sans-serif" font-size="11.7" lengthAdjust="spacing" textLength="6.3" x="561.4877" y="92.3874">1</text><text fill="#000000" font-family="sans-serif" font-size="11.7" lengthAdjust="spacing" textLength="4.5" x="633.5264" y="121.507">*</text><!--MD5=[2f0f6324df5bdb1b0e95aaadabcffab4]
@startuml
skinparam classAttributeIconSize 0
left to right direction

class "Company" as C {
-designation
}

class "TestTypeStore" as TTS{
+createTestType(code, description, collectingMethod)
+validateTestType(tt)
+addTestType(tt)
}

class "ParameterCategoryStore" as PCS{
+getParameterCategoryByCode(code)
}

class "TestType" as TT {
-code
-description
-collectingMethod
+TestType(code, description, collectingMethod)
}

class "CreateTestTypeController" as CTTC {
+createTestType(code, description, collectingMethod)
+saveTestType()
}

class "CreateTestTypeUI" as CTTUI
class "TestType" as TT
class "CreateTestTypeController" as CTTC

CTTUI ..> CTTC
C ..> PCS
TTS ..> C
CTTC ..> TT
CTTC ..> C
C "1" - -> "*" TT : adopts

@enduml

PlantUML version 1.2021.4(Sun Apr 04 09:49:39 BST 2021)
(GPL source distribution)
Java Runtime: OpenJDK Runtime Environment
JVM: OpenJDK 64-Bit Server VM
Default Encoding: Cp1252
Language: pt
Country: PT
--></g></svg>