<?xml version="1.0" encoding="UTF-8" standalone="no"?><svg xmlns="http://www.w3.org/2000/svg" xmlns:xlink="http://www.w3.org/1999/xlink" contentScriptType="application/ecmascript" contentStyleType="text/css" height="235px" preserveAspectRatio="none" style="width:971px;height:235px;" version="1.1" viewBox="0 0 971 235" width="971px" zoomAndPan="magnify"><defs><filter height="300%" id="f1hzuou6q1v64z" width="300%" x="-1" y="-1"><feGaussianBlur result="blurOut" stdDeviation="2.0"/><feColorMatrix in="blurOut" result="blurOut2" type="matrix" values="0 0 0 0 0 0 0 0 0 0 0 0 0 0 0 0 0 0 .4 0"/><feOffset dx="4.0" dy="4.0" in="blurOut2" result="blurOut3"/><feBlend in="SourceGraphic" in2="blurOut3" mode="normal"/></filter></defs><g><!--MD5=[378b18254a1b2429f435e93f5e5cc50c]
class C--><rect codeLine="4" fill="#FEFECE" filter="url(#f1hzuou6q1v64z)" height="61.8359" id="C" style="stroke:#A80036;stroke-width:1.5;" width="85" x="531" y="38"/><ellipse cx="546" cy="54" fill="#ADD1B2" rx="11" ry="11" style="stroke:#A80036;stroke-width:1.0;"/><path d="M548,50.5 Q548.2031,50 548.4375,49.75 Q548.6719,49.5 548.9375,49.5 Q549.4063,49.5 549.7031,49.7813 Q550,50.0625 550,50.7188 L550,52.2813 Q550,52.9375 549.7188,53.2188 Q549.4375,53.5 549,53.5 Q548.6094,53.5 548.3594,53.3281 Q548.1094,53.1563 548,52.7031 Q547.9531,52.3906 547.7813,52.2188 Q547.4688,51.8906 546.9063,51.7031 Q546.3438,51.5 545.7813,51.5 Q545.0781,51.5 544.4844,51.7813 Q543.9063,52.0625 543.4531,52.6875 Q543,53.3125 543,54.1719 L543,55.0938 Q543,56.125 543.8438,56.8125 Q544.6875,57.5 546.1875,57.5 Q547.0781,57.5 547.7031,57.2969 Q548.0625,57.1875 548.4688,56.8281 Q548.7344,56.625 548.875,56.5625 Q549.0156,56.5 549.1875,56.5 Q549.5156,56.5 549.75,56.7656 Q550,57.0156 550,57.375 Q550,57.7188 549.6563,58.125 Q549.1563,58.7188 548.3594,59.0469 Q547.3125,59.5 546.0313,59.5 Q544.5313,59.5 543.3281,58.9063 Q542.3594,58.4375 541.6719,57.4219 Q541,56.4063 541,55.2031 L541,54.1094 Q541,52.8594 541.5938,51.7656 Q542.2031,50.6719 543.25,50.0938 Q544.3125,49.5 545.5,49.5 Q546.2188,49.5 546.8438,49.75 Q547.4688,50 548,50.5 Z " fill="#000000"/><text fill="#000000" font-family="sans-serif" font-size="12" lengthAdjust="spacing" textLength="53" x="560" y="58.9102">Company</text><line style="stroke:#A80036;stroke-width:1.5;" x1="532" x2="615" y1="70" y2="70"/><text fill="#000000" font-family="sans-serif" font-size="11" lengthAdjust="spacing" textLength="59" x="537" y="85.4189">-designation</text><line style="stroke:#A80036;stroke-width:1.5;" x1="532" x2="615" y1="91.8359" y2="91.8359"/><!--MD5=[0c21d7a5a5555e4278001068caacbd33]
class TTS--><rect codeLine="8" fill="#FEFECE" filter="url(#f1hzuou6q1v64z)" height="89.5078" id="TTS" style="stroke:#A80036;stroke-width:1.5;" width="271" x="199" y="7"/><ellipse cx="290.75" cy="23" fill="#ADD1B2" rx="11" ry="11" style="stroke:#A80036;stroke-width:1.0;"/><path d="M292.75,19.5 Q292.9531,19 293.1875,18.75 Q293.4219,18.5 293.6875,18.5 Q294.1563,18.5 294.4531,18.7813 Q294.75,19.0625 294.75,19.7188 L294.75,21.2813 Q294.75,21.9375 294.4688,22.2188 Q294.1875,22.5 293.75,22.5 Q293.3594,22.5 293.1094,22.3281 Q292.8594,22.1563 292.75,21.7031 Q292.7031,21.3906 292.5313,21.2188 Q292.2188,20.8906 291.6563,20.7031 Q291.0938,20.5 290.5313,20.5 Q289.8281,20.5 289.2344,20.7813 Q288.6563,21.0625 288.2031,21.6875 Q287.75,22.3125 287.75,23.1719 L287.75,24.0938 Q287.75,25.125 288.5938,25.8125 Q289.4375,26.5 290.9375,26.5 Q291.8281,26.5 292.4531,26.2969 Q292.8125,26.1875 293.2188,25.8281 Q293.4844,25.625 293.625,25.5625 Q293.7656,25.5 293.9375,25.5 Q294.2656,25.5 294.5,25.7656 Q294.75,26.0156 294.75,26.375 Q294.75,26.7188 294.4063,27.125 Q293.9063,27.7188 293.1094,28.0469 Q292.0625,28.5 290.7813,28.5 Q289.2813,28.5 288.0781,27.9063 Q287.1094,27.4375 286.4219,26.4219 Q285.75,25.4063 285.75,24.2031 L285.75,23.1094 Q285.75,21.8594 286.3438,20.7656 Q286.9531,19.6719 288,19.0938 Q289.0625,18.5 290.25,18.5 Q290.9688,18.5 291.5938,18.75 Q292.2188,19 292.75,19.5 Z " fill="#000000"/><text fill="#000000" font-family="sans-serif" font-size="12" lengthAdjust="spacing" textLength="79" x="311.25" y="27.9102">TestTypeStore</text><line style="stroke:#A80036;stroke-width:1.5;" x1="200" x2="469" y1="39" y2="39"/><line style="stroke:#A80036;stroke-width:1.5;" x1="200" x2="469" y1="47" y2="47"/><text fill="#000000" font-family="sans-serif" font-size="11" lengthAdjust="spacing" textLength="259" x="205" y="62.4189">+createTestType(code, description, collectingMethod)</text><text fill="#000000" font-family="sans-serif" font-size="11" lengthAdjust="spacing" textLength="102" x="205" y="76.2549">+validateTestType(tt)</text><text fill="#000000" font-family="sans-serif" font-size="11" lengthAdjust="spacing" textLength="83" x="205" y="90.0908">+addTestType(tt)</text><!--MD5=[2628f93c2b91159b8b11117185f029f9]
class PCS--><rect codeLine="14" fill="#FEFECE" filter="url(#f1hzuou6q1v64z)" height="75.6719" id="PCS" style="stroke:#A80036;stroke-width:1.5;" width="196" x="739" y="7"/><ellipse cx="766.6" cy="23" fill="#ADD1B2" rx="11" ry="11" style="stroke:#A80036;stroke-width:1.0;"/><path d="M768.6,19.5 Q768.8031,19 769.0375,18.75 Q769.2719,18.5 769.5375,18.5 Q770.0063,18.5 770.3031,18.7813 Q770.6,19.0625 770.6,19.7188 L770.6,21.2813 Q770.6,21.9375 770.3188,22.2188 Q770.0375,22.5 769.6,22.5 Q769.2094,22.5 768.9594,22.3281 Q768.7094,22.1563 768.6,21.7031 Q768.5531,21.3906 768.3813,21.2188 Q768.0688,20.8906 767.5063,20.7031 Q766.9438,20.5 766.3813,20.5 Q765.6781,20.5 765.0844,20.7813 Q764.5063,21.0625 764.0531,21.6875 Q763.6,22.3125 763.6,23.1719 L763.6,24.0938 Q763.6,25.125 764.4438,25.8125 Q765.2875,26.5 766.7875,26.5 Q767.6781,26.5 768.3031,26.2969 Q768.6625,26.1875 769.0688,25.8281 Q769.3344,25.625 769.475,25.5625 Q769.6156,25.5 769.7875,25.5 Q770.1156,25.5 770.35,25.7656 Q770.6,26.0156 770.6,26.375 Q770.6,26.7188 770.2563,27.125 Q769.7563,27.7188 768.9594,28.0469 Q767.9125,28.5 766.6313,28.5 Q765.1313,28.5 763.9281,27.9063 Q762.9594,27.4375 762.2719,26.4219 Q761.6,25.4063 761.6,24.2031 L761.6,23.1094 Q761.6,21.8594 762.1938,20.7656 Q762.8031,19.6719 763.85,19.0938 Q764.9125,18.5 766.1,18.5 Q766.8188,18.5 767.4438,18.75 Q768.0688,19 768.6,19.5 Z " fill="#000000"/><text fill="#000000" font-family="sans-serif" font-size="12" lengthAdjust="spacing" textLength="136" x="783.4" y="27.9102">ParameterCategoryStore</text><line style="stroke:#A80036;stroke-width:1.5;" x1="740" x2="934" y1="39" y2="39"/><line style="stroke:#A80036;stroke-width:1.5;" x1="740" x2="934" y1="47" y2="47"/><text fill="#000000" font-family="sans-serif" font-size="11" lengthAdjust="spacing" textLength="184" x="745" y="62.4189">+getParameterCategoryByCode(code)</text><text fill="#000000" font-family="sans-serif" font-size="11" lengthAdjust="spacing" textLength="85" x="745" y="76.2549">+getDesignation()</text><!--MD5=[f76673142371ead9f091198193c4bd63]
class TT--><rect codeLine="32" fill="#FEFECE" filter="url(#f1hzuou6q1v64z)" height="103.3438" id="TT" style="stroke:#A80036;stroke-width:1.5;" width="240" x="717" y="118.5"/><ellipse cx="807.75" cy="134.5" fill="#ADD1B2" rx="11" ry="11" style="stroke:#A80036;stroke-width:1.0;"/><path d="M809.75,131 Q809.9531,130.5 810.1875,130.25 Q810.4219,130 810.6875,130 Q811.1563,130 811.4531,130.2813 Q811.75,130.5625 811.75,131.2188 L811.75,132.7813 Q811.75,133.4375 811.4688,133.7188 Q811.1875,134 810.75,134 Q810.3594,134 810.1094,133.8281 Q809.8594,133.6563 809.75,133.2031 Q809.7031,132.8906 809.5313,132.7188 Q809.2188,132.3906 808.6563,132.2031 Q808.0938,132 807.5313,132 Q806.8281,132 806.2344,132.2813 Q805.6563,132.5625 805.2031,133.1875 Q804.75,133.8125 804.75,134.6719 L804.75,135.5938 Q804.75,136.625 805.5938,137.3125 Q806.4375,138 807.9375,138 Q808.8281,138 809.4531,137.7969 Q809.8125,137.6875 810.2188,137.3281 Q810.4844,137.125 810.625,137.0625 Q810.7656,137 810.9375,137 Q811.2656,137 811.5,137.2656 Q811.75,137.5156 811.75,137.875 Q811.75,138.2188 811.4063,138.625 Q810.9063,139.2188 810.1094,139.5469 Q809.0625,140 807.7813,140 Q806.2813,140 805.0781,139.4063 Q804.1094,138.9375 803.4219,137.9219 Q802.75,136.9063 802.75,135.7031 L802.75,134.6094 Q802.75,133.3594 803.3438,132.2656 Q803.9531,131.1719 805,130.5938 Q806.0625,130 807.25,130 Q807.9688,130 808.5938,130.25 Q809.2188,130.5 809.75,131 Z " fill="#000000"/><text fill="#000000" font-family="sans-serif" font-size="12" lengthAdjust="spacing" textLength="50" x="828.25" y="139.4102">TestType</text><line style="stroke:#A80036;stroke-width:1.5;" x1="718" x2="956" y1="150.5" y2="150.5"/><text fill="#000000" font-family="sans-serif" font-size="11" lengthAdjust="spacing" textLength="28" x="723" y="165.9189">-code</text><text fill="#000000" font-family="sans-serif" font-size="11" lengthAdjust="spacing" textLength="57" x="723" y="179.7549">-description</text><text fill="#000000" font-family="sans-serif" font-size="11" lengthAdjust="spacing" textLength="84" x="723" y="193.5908">-collectingMethod</text><line style="stroke:#A80036;stroke-width:1.5;" x1="718" x2="956" y1="200.0078" y2="200.0078"/><text fill="#000000" font-family="sans-serif" font-size="11" lengthAdjust="spacing" textLength="228" x="723" y="215.4268">+TestType(code, description, collectingMethod)</text><!--MD5=[0db42b3591f13a48474e506cf6fbc101]
class CTTC--><rect codeLine="33" fill="#FEFECE" filter="url(#f1hzuou6q1v64z)" height="75.6719" id="CTTC" style="stroke:#A80036;stroke-width:1.5;" width="271" x="199" y="132"/><ellipse cx="259.75" cy="148" fill="#ADD1B2" rx="11" ry="11" style="stroke:#A80036;stroke-width:1.0;"/><path d="M261.75,144.5 Q261.9531,144 262.1875,143.75 Q262.4219,143.5 262.6875,143.5 Q263.1563,143.5 263.4531,143.7813 Q263.75,144.0625 263.75,144.7188 L263.75,146.2813 Q263.75,146.9375 263.4688,147.2188 Q263.1875,147.5 262.75,147.5 Q262.3594,147.5 262.1094,147.3281 Q261.8594,147.1563 261.75,146.7031 Q261.7031,146.3906 261.5313,146.2188 Q261.2188,145.8906 260.6563,145.7031 Q260.0938,145.5 259.5313,145.5 Q258.8281,145.5 258.2344,145.7813 Q257.6563,146.0625 257.2031,146.6875 Q256.75,147.3125 256.75,148.1719 L256.75,149.0938 Q256.75,150.125 257.5938,150.8125 Q258.4375,151.5 259.9375,151.5 Q260.8281,151.5 261.4531,151.2969 Q261.8125,151.1875 262.2188,150.8281 Q262.4844,150.625 262.625,150.5625 Q262.7656,150.5 262.9375,150.5 Q263.2656,150.5 263.5,150.7656 Q263.75,151.0156 263.75,151.375 Q263.75,151.7188 263.4063,152.125 Q262.9063,152.7188 262.1094,153.0469 Q261.0625,153.5 259.7813,153.5 Q258.2813,153.5 257.0781,152.9063 Q256.1094,152.4375 255.4219,151.4219 Q254.75,150.4063 254.75,149.2031 L254.75,148.1094 Q254.75,146.8594 255.3438,145.7656 Q255.9531,144.6719 257,144.0938 Q258.0625,143.5 259.25,143.5 Q259.9688,143.5 260.5938,143.75 Q261.2188,144 261.75,144.5 Z " fill="#000000"/><text fill="#000000" font-family="sans-serif" font-size="12" lengthAdjust="spacing" textLength="141" x="280.25" y="152.9102">CreateTestTypeController</text><line style="stroke:#A80036;stroke-width:1.5;" x1="200" x2="469" y1="164" y2="164"/><line style="stroke:#A80036;stroke-width:1.5;" x1="200" x2="469" y1="172" y2="172"/><text fill="#000000" font-family="sans-serif" font-size="11" lengthAdjust="spacing" textLength="259" x="205" y="187.4189">+createTestType(code, description, collectingMethod)</text><text fill="#000000" font-family="sans-serif" font-size="11" lengthAdjust="spacing" textLength="83" x="205" y="201.2549">+saveTestType()</text><!--MD5=[6461a74477876ab4a04549c978c1a07a]
class CTTUI--><rect codeLine="31" fill="#FEFECE" filter="url(#f1hzuou6q1v64z)" height="48" id="CTTUI" style="stroke:#A80036;stroke-width:1.5;" width="131" x="7" y="146"/><ellipse cx="22" cy="162" fill="#ADD1B2" rx="11" ry="11" style="stroke:#A80036;stroke-width:1.0;"/><path d="M24,158.5 Q24.2031,158 24.4375,157.75 Q24.6719,157.5 24.9375,157.5 Q25.4063,157.5 25.7031,157.7813 Q26,158.0625 26,158.7188 L26,160.2813 Q26,160.9375 25.7188,161.2188 Q25.4375,161.5 25,161.5 Q24.6094,161.5 24.3594,161.3281 Q24.1094,161.1563 24,160.7031 Q23.9531,160.3906 23.7813,160.2188 Q23.4688,159.8906 22.9063,159.7031 Q22.3438,159.5 21.7813,159.5 Q21.0781,159.5 20.4844,159.7813 Q19.9063,160.0625 19.4531,160.6875 Q19,161.3125 19,162.1719 L19,163.0938 Q19,164.125 19.8438,164.8125 Q20.6875,165.5 22.1875,165.5 Q23.0781,165.5 23.7031,165.2969 Q24.0625,165.1875 24.4688,164.8281 Q24.7344,164.625 24.875,164.5625 Q25.0156,164.5 25.1875,164.5 Q25.5156,164.5 25.75,164.7656 Q26,165.0156 26,165.375 Q26,165.7188 25.6563,166.125 Q25.1563,166.7188 24.3594,167.0469 Q23.3125,167.5 22.0313,167.5 Q20.5313,167.5 19.3281,166.9063 Q18.3594,166.4375 17.6719,165.4219 Q17,164.4063 17,163.2031 L17,162.1094 Q17,160.8594 17.5938,159.7656 Q18.2031,158.6719 19.25,158.0938 Q20.3125,157.5 21.5,157.5 Q22.2188,157.5 22.8438,157.75 Q23.4688,158 24,158.5 Z " fill="#000000"/><text fill="#000000" font-family="sans-serif" font-size="12" lengthAdjust="spacing" textLength="99" x="36" y="166.9102">CreateTestTypeUI</text><line style="stroke:#A80036;stroke-width:1.5;" x1="8" x2="137" y1="178" y2="178"/><line style="stroke:#A80036;stroke-width:1.5;" x1="8" x2="137" y1="186" y2="186"/><!--MD5=[320690cba070b8468face0bfd1ce9533]
link CTTUI to CTTC--><path codeLine="35" d="M138.1,170 C155.08,170 174.07,170 193.36,170 " fill="none" id="CTTUI-to-CTTC" style="stroke:#A80036;stroke-width:1.0;stroke-dasharray:7.0,7.0;"/><polygon fill="#A80036" points="198.81,170,189.81,166,193.81,170,189.81,174,198.81,170" style="stroke:#A80036;stroke-width:1.0;"/><!--MD5=[e1c0f205e01471a87324e4cc03d03bbe]
link C to PCS--><path codeLine="36" d="M616.22,65.17 C647.82,62.27 692.63,58.16 733.55,54.4 " fill="none" id="C-to-PCS" style="stroke:#A80036;stroke-width:1.0;stroke-dasharray:7.0,7.0;"/><polygon fill="#A80036" points="738.78,53.92,729.4515,50.7609,733.801,54.3778,730.1841,58.7273,738.78,53.92" style="stroke:#A80036;stroke-width:1.0;"/><!--MD5=[694303a06a79f7ae0713de28a4008c97]
link TTS to C--><path codeLine="37" d="M470.27,61.67 C489.93,63.08 508.99,64.44 525.21,65.61 " fill="none" id="TTS-to-C" style="stroke:#A80036;stroke-width:1.0;stroke-dasharray:7.0,7.0;"/><polygon fill="#A80036" points="530.6,65.99,521.9088,61.3572,525.6128,65.6327,521.3372,69.3367,530.6,65.99" style="stroke:#A80036;stroke-width:1.0;"/><!--MD5=[4ba949b41f5b4f886781165bf5f9b564]
link CTTC to TT--><path codeLine="38" d="M470.28,170 C545.35,170 638.18,170 711.52,170 " fill="none" id="CTTC-to-TT" style="stroke:#A80036;stroke-width:1.0;stroke-dasharray:7.0,7.0;"/><polygon fill="#A80036" points="716.77,170,707.77,166,711.77,170,707.77,174,716.77,170" style="stroke:#A80036;stroke-width:1.0;"/><!--MD5=[cf05f59dfce81a96099c5f95714bd5af]
link CTTC to C--><path codeLine="39" d="M429.73,131.94 C443.28,126.33 457.02,120.57 470,115 C488.35,107.13 508.42,98.2 525.89,90.31 " fill="none" id="CTTC-to-C" style="stroke:#A80036;stroke-width:1.0;stroke-dasharray:7.0,7.0;"/><polygon fill="#A80036" points="530.75,88.12,520.9013,88.1771,526.1928,90.1772,524.1928,95.4687,530.75,88.12" style="stroke:#A80036;stroke-width:1.0;"/><!--MD5=[b83cceec495819d0b37daa935a10185d]
link C to TT--><path codeLine="40" d="M616.22,85.12 C642.27,95.17 677.29,108.7 711.71,121.99 " fill="none" id="C-to-TT" style="stroke:#A80036;stroke-width:1.0;"/><polygon fill="#A80036" points="716.78,123.95,709.8273,116.9744,712.1162,122.1474,706.9432,124.4364,716.78,123.95" style="stroke:#A80036;stroke-width:1.0;"/><text fill="#000000" font-family="sans-serif" font-size="13" lengthAdjust="spacing" textLength="39" x="647" y="94.4951">adopts</text><text fill="#000000" font-family="sans-serif" font-size="13" lengthAdjust="spacing" textLength="7" x="623.8752" y="102.6527">1</text><text fill="#000000" font-family="sans-serif" font-size="13" lengthAdjust="spacing" textLength="5" x="703.9183" y="135.0078">*</text><!--MD5=[0307a0e5ab537048a544f82bf1e57a5a]
@startuml
skinparam classAttributeIconSize 0
left to right direction

class "Company" as C {
-designation
}

class "TestTypeStore" as TTS{
+createTestType(code, description, collectingMethod)
+validateTestType(tt)
+addTestType(tt)
}

class "ParameterCategoryStore" as PCS{
+getParameterCategoryByCode(code)
+getDesignation()
}

class "TestType" as TT {
-code
-description
-collectingMethod
+TestType(code, description, collectingMethod)
}

class "CreateTestTypeController" as CTTC {
+createTestType(code, description, collectingMethod)
+saveTestType()
}

class "CreateTestTypeUI" as CTTUI
class "TestType" as TT
class "CreateTestTypeController" as CTTC

CTTUI ..> CTTC
C ..> PCS
TTS ..> C
CTTC ..> TT
CTTC ..> C
C "1" - -> "*" TT : adopts

@enduml

PlantUML version 1.2021.4(Sun Apr 04 09:49:39 BST 2021)
(GPL source distribution)
Java Runtime: OpenJDK Runtime Environment
JVM: OpenJDK 64-Bit Server VM
Default Encoding: Cp1252
Language: pt
Country: PT
--></g></svg>