<?xml version="1.0" encoding="UTF-8" standalone="no"?><svg xmlns="http://www.w3.org/2000/svg" xmlns:xlink="http://www.w3.org/1999/xlink" contentScriptType="application/ecmascript" contentStyleType="text/css" height="523.75px" preserveAspectRatio="none" style="width:2245px;height:523px;" version="1.1" viewBox="0 0 2245 523" width="2245px" zoomAndPan="magnify"><defs><filter height="300%" id="fekjny58nes0" width="300%" x="-1" y="-1"><feGaussianBlur result="blurOut" stdDeviation="2.5"/><feColorMatrix in="blurOut" result="blurOut2" type="matrix" values="0 0 0 0 0 0 0 0 0 0 0 0 0 0 0 0 0 0 .4 0"/><feOffset dx="5.0" dy="5.0" in="blurOut2" result="blurOut3"/><feBlend in="SourceGraphic" in2="blurOut3" mode="normal"/></filter></defs><g><!--MD5=[378b18254a1b2429f435e93f5e5cc50c]
class C--><rect codeLine="4" fill="#FEFECE" filter="url(#fekjny58nes0)" height="111.8848" id="C" style="stroke:#A80036;stroke-width:1.875;" width="200" x="958.75" y="182.5"/><ellipse cx="1020.3125" cy="202.5" fill="#ADD1B2" rx="13.75" ry="13.75" style="stroke:#A80036;stroke-width:1.25;"/><path d="M1022.8125,198.125 Q1023.0664,197.5 1023.3594,197.1875 Q1023.6523,196.875 1023.9844,196.875 Q1024.5703,196.875 1024.9414,197.2266 Q1025.3125,197.5781 1025.3125,198.3984 L1025.3125,200.3516 Q1025.3125,201.1719 1024.9609,201.5234 Q1024.6094,201.875 1024.0625,201.875 Q1023.5742,201.875 1023.2617,201.6602 Q1022.9492,201.4453 1022.8125,200.8789 Q1022.7539,200.4883 1022.5391,200.2734 Q1022.1484,199.8633 1021.4453,199.6289 Q1020.7422,199.375 1020.0391,199.375 Q1019.1602,199.375 1018.418,199.7266 Q1017.6953,200.0781 1017.1289,200.8594 Q1016.5625,201.6406 1016.5625,202.7148 L1016.5625,203.8672 Q1016.5625,205.1563 1017.6172,206.0156 Q1018.6719,206.875 1020.5469,206.875 Q1021.6602,206.875 1022.4414,206.6211 Q1022.8906,206.4844 1023.3984,206.0352 Q1023.7305,205.7813 1023.9063,205.7031 Q1024.082,205.625 1024.2969,205.625 Q1024.707,205.625 1025,205.957 Q1025.3125,206.2695 1025.3125,206.7188 Q1025.3125,207.1484 1024.8828,207.6563 Q1024.2578,208.3984 1023.2617,208.8086 Q1021.9531,209.375 1020.3516,209.375 Q1018.4766,209.375 1016.9727,208.6328 Q1015.7617,208.0469 1014.9023,206.7773 Q1014.0625,205.5078 1014.0625,204.0039 L1014.0625,202.6367 Q1014.0625,201.0742 1014.8047,199.707 Q1015.5664,198.3398 1016.875,197.6172 Q1018.2031,196.875 1019.6875,196.875 Q1020.5859,196.875 1021.3672,197.1875 Q1022.1484,197.5 1022.8125,198.125 Z " fill="#000000"/><text fill="#000000" font-family="sans-serif" font-size="15" lengthAdjust="spacing" textLength="66.25" x="1045.9375" y="208.6377">Company</text><line style="stroke:#A80036;stroke-width:1.875;" x1="960" x2="1157.5" y1="222.5" y2="222.5"/><text fill="#000000" font-family="sans-serif" font-size="13.75" lengthAdjust="spacing" textLength="112.5" x="966.25" y="241.7737">-String designation</text><line style="stroke:#A80036;stroke-width:1.875;" x1="960" x2="1157.5" y1="249.7949" y2="249.7949"/><text fill="#000000" font-family="sans-serif" font-size="13.75" lengthAdjust="spacing" textLength="125" x="966.25" y="269.0686">+getTestTypeStore()</text><text fill="#000000" font-family="sans-serif" font-size="13.75" lengthAdjust="spacing" textLength="185" x="966.25" y="286.3635">+getParameterCategoryStore()</text><!--MD5=[606124dbd33b65145bd2d31e230d6615]
class cNM--><rect codeLine="10" fill="#FEFECE" filter="url(#fekjny58nes0)" height="77.2949" id="cNM" style="stroke:#A80036;stroke-width:1.875;" width="360" x="878.75" y="377.5"/><ellipse cx="970.3125" cy="397.5" fill="#ADD1B2" rx="13.75" ry="13.75" style="stroke:#A80036;stroke-width:1.25;"/><path d="M972.8125,393.125 Q973.0664,392.5 973.3594,392.1875 Q973.6523,391.875 973.9844,391.875 Q974.5703,391.875 974.9414,392.2266 Q975.3125,392.5781 975.3125,393.3984 L975.3125,395.3516 Q975.3125,396.1719 974.9609,396.5234 Q974.6094,396.875 974.0625,396.875 Q973.5742,396.875 973.2617,396.6602 Q972.9492,396.4453 972.8125,395.8789 Q972.7539,395.4883 972.5391,395.2734 Q972.1484,394.8633 971.4453,394.6289 Q970.7422,394.375 970.0391,394.375 Q969.1602,394.375 968.418,394.7266 Q967.6953,395.0781 967.1289,395.8594 Q966.5625,396.6406 966.5625,397.7148 L966.5625,398.8672 Q966.5625,400.1563 967.6172,401.0156 Q968.6719,401.875 970.5469,401.875 Q971.6602,401.875 972.4414,401.6211 Q972.8906,401.4844 973.3984,401.0352 Q973.7305,400.7813 973.9063,400.7031 Q974.082,400.625 974.2969,400.625 Q974.707,400.625 975,400.957 Q975.3125,401.2695 975.3125,401.7188 Q975.3125,402.1484 974.8828,402.6563 Q974.2578,403.3984 973.2617,403.8086 Q971.9531,404.375 970.3516,404.375 Q968.4766,404.375 966.9727,403.6328 Q965.7617,403.0469 964.9023,401.7773 Q964.0625,400.5078 964.0625,399.0039 L964.0625,397.6367 Q964.0625,396.0742 964.8047,394.707 Q965.5664,393.3398 966.875,392.6172 Q968.2031,391.875 969.6875,391.875 Q970.5859,391.875 971.3672,392.1875 Q972.1484,392.5 972.8125,393.125 Z " fill="#000000"/><text fill="#000000" font-family="sans-serif" font-size="15" lengthAdjust="spacing" textLength="166.25" x="995.9375" y="403.6377">categoriesNameMapper</text><line style="stroke:#A80036;stroke-width:1.875;" x1="880" x2="1237.5" y1="417.5" y2="417.5"/><line style="stroke:#A80036;stroke-width:1.875;" x1="880" x2="1237.5" y1="427.5" y2="427.5"/><text fill="#000000" font-family="sans-serif" font-size="13.75" lengthAdjust="spacing" textLength="345" x="886.25" y="446.7737">+List &lt;ParameterCategoryDto&gt; toDto(parameterCategory)</text><!--MD5=[0c21d7a5a5555e4278001068caacbd33]
class TTS--><rect codeLine="14" fill="#FEFECE" filter="url(#fekjny58nes0)" height="163.7695" id="TTS" style="stroke:#A80036;stroke-width:1.875;" width="553.75" x="248.75" y="118.125"/><ellipse cx="470.9375" cy="138.125" fill="#ADD1B2" rx="13.75" ry="13.75" style="stroke:#A80036;stroke-width:1.25;"/><path d="M473.4375,133.75 Q473.6914,133.125 473.9844,132.8125 Q474.2773,132.5 474.6094,132.5 Q475.1953,132.5 475.5664,132.8516 Q475.9375,133.2031 475.9375,134.0234 L475.9375,135.9766 Q475.9375,136.7969 475.5859,137.1484 Q475.2344,137.5 474.6875,137.5 Q474.1992,137.5 473.8867,137.2852 Q473.5742,137.0703 473.4375,136.5039 Q473.3789,136.1133 473.1641,135.8984 Q472.7734,135.4883 472.0703,135.2539 Q471.3672,135 470.6641,135 Q469.7852,135 469.043,135.3516 Q468.3203,135.7031 467.7539,136.4844 Q467.1875,137.2656 467.1875,138.3398 L467.1875,139.4922 Q467.1875,140.7813 468.2422,141.6406 Q469.2969,142.5 471.1719,142.5 Q472.2852,142.5 473.0664,142.2461 Q473.5156,142.1094 474.0234,141.6602 Q474.3555,141.4063 474.5313,141.3281 Q474.707,141.25 474.9219,141.25 Q475.332,141.25 475.625,141.582 Q475.9375,141.8945 475.9375,142.3438 Q475.9375,142.7734 475.5078,143.2813 Q474.8828,144.0234 473.8867,144.4336 Q472.5781,145 470.9766,145 Q469.1016,145 467.5977,144.2578 Q466.3867,143.6719 465.5273,142.4023 Q464.6875,141.1328 464.6875,139.6289 L464.6875,138.2617 Q464.6875,136.6992 465.4297,135.332 Q466.1914,133.9648 467.5,133.2422 Q468.8281,132.5 470.3125,132.5 Q471.2109,132.5 471.9922,132.8125 Q472.7734,133.125 473.4375,133.75 Z " fill="#000000"/><text fill="#000000" font-family="sans-serif" font-size="15" lengthAdjust="spacing" textLength="98.75" x="496.5625" y="144.2627">TestTypeStore</text><line style="stroke:#A80036;stroke-width:1.875;" x1="250" x2="801.25" y1="158.125" y2="158.125"/><line style="stroke:#A80036;stroke-width:1.875;" x1="250" x2="801.25" y1="168.125" y2="168.125"/><text fill="#000000" font-family="sans-serif" font-size="13.75" lengthAdjust="spacing" textLength="507.5" x="256.25" y="187.3987">+TestType createTestType(code, description, collectingMethod, parameterCategory)</text><text fill="#000000" font-family="sans-serif" font-size="13.75" lengthAdjust="spacing" textLength="538.75" x="256.25" y="204.6936">+TestType createTestType(code, description, collectingMethod, parameterCategoriesList)</text><text fill="#000000" font-family="sans-serif" font-size="13.75" lengthAdjust="spacing" textLength="162.5" x="256.25" y="221.9885">+boolean saveTestType(tt)</text><text fill="#000000" font-family="sans-serif" font-size="13.75" lengthAdjust="spacing" textLength="178.75" x="256.25" y="239.2834">+boolean validateTestType(tt)</text><text fill="#000000" font-family="sans-serif" font-size="13.75" lengthAdjust="spacing" textLength="155" x="256.25" y="256.5784">+boolean addTestType(tt)</text><text fill="#000000" font-family="sans-serif" font-size="13.75" lengthAdjust="spacing" textLength="215" x="256.25" y="273.8733">+List &lt;TestType&gt; getAllTestTypes()</text><!--MD5=[2628f93c2b91159b8b11117185f029f9]
class PCS--><rect codeLine="23" fill="#FEFECE" filter="url(#fekjny58nes0)" height="94.5898" id="PCS" style="stroke:#A80036;stroke-width:1.875;" width="365" x="1426.25" y="8.75"/><ellipse cx="1518.4375" cy="28.75" fill="#ADD1B2" rx="13.75" ry="13.75" style="stroke:#A80036;stroke-width:1.25;"/><path d="M1520.9375,24.375 Q1521.1914,23.75 1521.4844,23.4375 Q1521.7773,23.125 1522.1094,23.125 Q1522.6953,23.125 1523.0664,23.4766 Q1523.4375,23.8281 1523.4375,24.6484 L1523.4375,26.6016 Q1523.4375,27.4219 1523.0859,27.7734 Q1522.7344,28.125 1522.1875,28.125 Q1521.6992,28.125 1521.3867,27.9102 Q1521.0742,27.6953 1520.9375,27.1289 Q1520.8789,26.7383 1520.6641,26.5234 Q1520.2734,26.1133 1519.5703,25.8789 Q1518.8672,25.625 1518.1641,25.625 Q1517.2852,25.625 1516.543,25.9766 Q1515.8203,26.3281 1515.2539,27.1094 Q1514.6875,27.8906 1514.6875,28.9648 L1514.6875,30.1172 Q1514.6875,31.4063 1515.7422,32.2656 Q1516.7969,33.125 1518.6719,33.125 Q1519.7852,33.125 1520.5664,32.8711 Q1521.0156,32.7344 1521.5234,32.2852 Q1521.8555,32.0313 1522.0313,31.9531 Q1522.207,31.875 1522.4219,31.875 Q1522.832,31.875 1523.125,32.207 Q1523.4375,32.5195 1523.4375,32.9688 Q1523.4375,33.3984 1523.0078,33.9063 Q1522.3828,34.6484 1521.3867,35.0586 Q1520.0781,35.625 1518.4766,35.625 Q1516.6016,35.625 1515.0977,34.8828 Q1513.8867,34.2969 1513.0273,33.0273 Q1512.1875,31.7578 1512.1875,30.2539 L1512.1875,28.8867 Q1512.1875,27.3242 1512.9297,25.957 Q1513.6914,24.5898 1515,23.8672 Q1516.3281,23.125 1517.8125,23.125 Q1518.7109,23.125 1519.4922,23.4375 Q1520.2734,23.75 1520.9375,24.375 Z " fill="#000000"/><text fill="#000000" font-family="sans-serif" font-size="15" lengthAdjust="spacing" textLength="170" x="1544.0625" y="34.8877">ParameterCategoryStore</text><line style="stroke:#A80036;stroke-width:1.875;" x1="1427.5" x2="1790" y1="48.75" y2="48.75"/><line style="stroke:#A80036;stroke-width:1.875;" x1="1427.5" x2="1790" y1="58.75" y2="58.75"/><text fill="#000000" font-family="sans-serif" font-size="13.75" lengthAdjust="spacing" textLength="337.5" x="1433.75" y="78.0237">+List &lt;ParameterCategory&gt; getAllParameterCategories()</text><text fill="#000000" font-family="sans-serif" font-size="13.75" lengthAdjust="spacing" textLength="350" x="1433.75" y="95.3186">+ParameterCategory getParameterCategoryByCode(code)</text><!--MD5=[f76673142371ead9f091198193c4bd63]
class TT--><rect codeLine="55" fill="#FEFECE" filter="url(#fekjny58nes0)" height="181.0645" id="TT" style="stroke:#A80036;stroke-width:1.875;" width="455" x="1381.25" y="148.125"/><ellipse cx="1572.1875" cy="168.125" fill="#ADD1B2" rx="13.75" ry="13.75" style="stroke:#A80036;stroke-width:1.25;"/><path d="M1574.6875,163.75 Q1574.9414,163.125 1575.2344,162.8125 Q1575.5273,162.5 1575.8594,162.5 Q1576.4453,162.5 1576.8164,162.8516 Q1577.1875,163.2031 1577.1875,164.0234 L1577.1875,165.9766 Q1577.1875,166.7969 1576.8359,167.1484 Q1576.4844,167.5 1575.9375,167.5 Q1575.4492,167.5 1575.1367,167.2852 Q1574.8242,167.0703 1574.6875,166.5039 Q1574.6289,166.1133 1574.4141,165.8984 Q1574.0234,165.4883 1573.3203,165.2539 Q1572.6172,165 1571.9141,165 Q1571.0352,165 1570.293,165.3516 Q1569.5703,165.7031 1569.0039,166.4844 Q1568.4375,167.2656 1568.4375,168.3398 L1568.4375,169.4922 Q1568.4375,170.7813 1569.4922,171.6406 Q1570.5469,172.5 1572.4219,172.5 Q1573.5352,172.5 1574.3164,172.2461 Q1574.7656,172.1094 1575.2734,171.6602 Q1575.6055,171.4063 1575.7813,171.3281 Q1575.957,171.25 1576.1719,171.25 Q1576.582,171.25 1576.875,171.582 Q1577.1875,171.8945 1577.1875,172.3438 Q1577.1875,172.7734 1576.7578,173.2813 Q1576.1328,174.0234 1575.1367,174.4336 Q1573.8281,175 1572.2266,175 Q1570.3516,175 1568.8477,174.2578 Q1567.6367,173.6719 1566.7773,172.4023 Q1565.9375,171.1328 1565.9375,169.6289 L1565.9375,168.2617 Q1565.9375,166.6992 1566.6797,165.332 Q1567.4414,163.9648 1568.75,163.2422 Q1570.0781,162.5 1571.5625,162.5 Q1572.4609,162.5 1573.2422,162.8125 Q1574.0234,163.125 1574.6875,163.75 Z " fill="#000000"/><text fill="#000000" font-family="sans-serif" font-size="15" lengthAdjust="spacing" textLength="62.5" x="1597.8125" y="174.2627">TestType</text><line style="stroke:#A80036;stroke-width:1.875;" x1="1382.5" x2="1835" y1="188.125" y2="188.125"/><text fill="#000000" font-family="sans-serif" font-size="13.75" lengthAdjust="spacing" textLength="73.75" x="1388.75" y="207.3987">-String code</text><text fill="#000000" font-family="sans-serif" font-size="13.75" lengthAdjust="spacing" textLength="110" x="1388.75" y="224.6936">-String description</text><text fill="#000000" font-family="sans-serif" font-size="13.75" lengthAdjust="spacing" textLength="143.75" x="1388.75" y="241.9885">-String collectingMethod</text><text fill="#000000" font-family="sans-serif" font-size="13.75" lengthAdjust="spacing" textLength="241.25" x="1388.75" y="259.2834">-ParameterCategory parameterCategory</text><text fill="#000000" font-family="sans-serif" font-size="13.75" lengthAdjust="spacing" textLength="312.5" x="1388.75" y="276.5784">-List &lt;ParameterCategory&gt; parameterCategoriesList</text><line style="stroke:#A80036;stroke-width:1.875;" x1="1382.5" x2="1835" y1="284.5996" y2="284.5996"/><text fill="#000000" font-family="sans-serif" font-size="13.75" lengthAdjust="spacing" textLength="408.75" x="1388.75" y="303.8733">+TestType(code, description, collectingMethod, parameterCategory)</text><text fill="#000000" font-family="sans-serif" font-size="13.75" lengthAdjust="spacing" textLength="440" x="1388.75" y="321.1682">+TestType(code, description, collectingMethod, parameterCategoriesList)</text><!--MD5=[0db42b3591f13a48474e506cf6fbc101]
class CTTC--><rect codeLine="56" fill="#FEFECE" filter="url(#fekjny58nes0)" height="181.0645" id="CTTC" style="stroke:#A80036;stroke-width:1.875;" width="545" x="253.125" y="325.625"/><ellipse cx="432.1875" cy="345.625" fill="#ADD1B2" rx="13.75" ry="13.75" style="stroke:#A80036;stroke-width:1.25;"/><path d="M434.6875,341.25 Q434.9414,340.625 435.2344,340.3125 Q435.5273,340 435.8594,340 Q436.4453,340 436.8164,340.3516 Q437.1875,340.7031 437.1875,341.5234 L437.1875,343.4766 Q437.1875,344.2969 436.8359,344.6484 Q436.4844,345 435.9375,345 Q435.4492,345 435.1367,344.7852 Q434.8242,344.5703 434.6875,344.0039 Q434.6289,343.6133 434.4141,343.3984 Q434.0234,342.9883 433.3203,342.7539 Q432.6172,342.5 431.9141,342.5 Q431.0352,342.5 430.293,342.8516 Q429.5703,343.2031 429.0039,343.9844 Q428.4375,344.7656 428.4375,345.8398 L428.4375,346.9922 Q428.4375,348.2813 429.4922,349.1406 Q430.5469,350 432.4219,350 Q433.5352,350 434.3164,349.7461 Q434.7656,349.6094 435.2734,349.1602 Q435.6055,348.9063 435.7813,348.8281 Q435.957,348.75 436.1719,348.75 Q436.582,348.75 436.875,349.082 Q437.1875,349.3945 437.1875,349.8438 Q437.1875,350.2734 436.7578,350.7813 Q436.1328,351.5234 435.1367,351.9336 Q433.8281,352.5 432.2266,352.5 Q430.3516,352.5 428.8477,351.7578 Q427.6367,351.1719 426.7773,349.9023 Q425.9375,348.6328 425.9375,347.1289 L425.9375,345.7617 Q425.9375,344.1992 426.6797,342.832 Q427.4414,341.4648 428.75,340.7422 Q430.0781,340 431.5625,340 Q432.4609,340 433.2422,340.3125 Q434.0234,340.625 434.6875,341.25 Z " fill="#000000"/><text fill="#000000" font-family="sans-serif" font-size="15" lengthAdjust="spacing" textLength="176.25" x="457.8125" y="351.7627">CreateTestTypeController</text><line style="stroke:#A80036;stroke-width:1.875;" x1="254.375" x2="796.875" y1="365.625" y2="365.625"/><line style="stroke:#A80036;stroke-width:1.875;" x1="254.375" x2="796.875" y1="375.625" y2="375.625"/><text fill="#000000" font-family="sans-serif" font-size="13.75" lengthAdjust="spacing" textLength="171.25" x="260.625" y="394.8987">+CreateTestTypeController()</text><text fill="#000000" font-family="sans-serif" font-size="13.75" lengthAdjust="spacing" textLength="348.75" x="260.625" y="412.1936">+List&lt;ParameterCategoryDto&gt; getParameterCategoryDto()</text><text fill="#000000" font-family="sans-serif" font-size="13.75" lengthAdjust="spacing" textLength="498.75" x="260.625" y="429.4885">+boolean createTestType(code, description, collectingMethod, parameterCategory)</text><text fill="#000000" font-family="sans-serif" font-size="13.75" lengthAdjust="spacing" textLength="530" x="260.625" y="446.7834">+boolean createTestType(code, description, collectingMethod, parameterCategoriesList)</text><text fill="#000000" font-family="sans-serif" font-size="13.75" lengthAdjust="spacing" textLength="162.5" x="260.625" y="464.0784">+boolean saveTestType(tt)</text><text fill="#000000" font-family="sans-serif" font-size="13.75" lengthAdjust="spacing" textLength="350" x="260.625" y="481.3733">+ParameterCategory getParameterCategoryByCode(code)</text><text fill="#000000" font-family="sans-serif" font-size="13.75" lengthAdjust="spacing" textLength="211.25" x="260.625" y="498.6682">+List&lt;TestType&gt; getAllTestTypes()</text><!--MD5=[218f71f443b9e0720bb96dd9df1d4749]
class PC--><rect codeLine="48" fill="#FEFECE" filter="url(#fekjny58nes0)" height="111.8848" id="PC" style="stroke:#A80036;stroke-width:1.875;" width="218.75" x="2008.75" y="303.75"/><ellipse cx="2047.75" cy="323.75" fill="#ADD1B2" rx="13.75" ry="13.75" style="stroke:#A80036;stroke-width:1.25;"/><path d="M2050.25,319.375 Q2050.5039,318.75 2050.7969,318.4375 Q2051.0898,318.125 2051.4219,318.125 Q2052.0078,318.125 2052.3789,318.4766 Q2052.75,318.8281 2052.75,319.6484 L2052.75,321.6016 Q2052.75,322.4219 2052.3984,322.7734 Q2052.0469,323.125 2051.5,323.125 Q2051.0117,323.125 2050.6992,322.9102 Q2050.3867,322.6953 2050.25,322.1289 Q2050.1914,321.7383 2049.9766,321.5234 Q2049.5859,321.1133 2048.8828,320.8789 Q2048.1797,320.625 2047.4766,320.625 Q2046.5977,320.625 2045.8555,320.9766 Q2045.1328,321.3281 2044.5664,322.1094 Q2044,322.8906 2044,323.9648 L2044,325.1172 Q2044,326.4063 2045.0547,327.2656 Q2046.1094,328.125 2047.9844,328.125 Q2049.0977,328.125 2049.8789,327.8711 Q2050.3281,327.7344 2050.8359,327.2852 Q2051.168,327.0313 2051.3438,326.9531 Q2051.5195,326.875 2051.7344,326.875 Q2052.1445,326.875 2052.4375,327.207 Q2052.75,327.5195 2052.75,327.9688 Q2052.75,328.3984 2052.3203,328.9063 Q2051.6953,329.6484 2050.6992,330.0586 Q2049.3906,330.625 2047.7891,330.625 Q2045.9141,330.625 2044.4102,329.8828 Q2043.1992,329.2969 2042.3398,328.0273 Q2041.5,326.7578 2041.5,325.2539 L2041.5,323.8867 Q2041.5,322.3242 2042.2422,320.957 Q2043.0039,319.5898 2044.3125,318.8672 Q2045.6406,318.125 2047.125,318.125 Q2048.0234,318.125 2048.8047,318.4375 Q2049.5859,318.75 2050.25,319.375 Z " fill="#000000"/><text fill="#000000" font-family="sans-serif" font-size="15" lengthAdjust="spacing" textLength="133.75" x="2069.75" y="329.8877">ParameterCategory</text><line style="stroke:#A80036;stroke-width:1.875;" x1="2010" x2="2226.25" y1="343.75" y2="343.75"/><text fill="#000000" font-family="sans-serif" font-size="13.75" lengthAdjust="spacing" textLength="76.25" x="2016.25" y="363.0237">-String name</text><text fill="#000000" font-family="sans-serif" font-size="13.75" lengthAdjust="spacing" textLength="73.75" x="2016.25" y="380.3186">-String code</text><line style="stroke:#A80036;stroke-width:1.875;" x1="2010" x2="2226.25" y1="388.3398" y2="388.3398"/><text fill="#000000" font-family="sans-serif" font-size="13.75" lengthAdjust="spacing" textLength="203.75" x="2016.25" y="407.6135">+ParameterCategory(name, code)</text><!--MD5=[6461a74477876ab4a04549c978c1a07a]
class CTTUI--><rect codeLine="54" fill="#FEFECE" filter="url(#fekjny58nes0)" height="60" id="CTTUI" style="stroke:#A80036;stroke-width:1.875;" width="163.75" x="8.75" y="386.25"/><ellipse cx="27.5" cy="406.25" fill="#ADD1B2" rx="13.75" ry="13.75" style="stroke:#A80036;stroke-width:1.25;"/><path d="M30,401.875 Q30.2539,401.25 30.5469,400.9375 Q30.8398,400.625 31.1719,400.625 Q31.7578,400.625 32.1289,400.9766 Q32.5,401.3281 32.5,402.1484 L32.5,404.1016 Q32.5,404.9219 32.1484,405.2734 Q31.7969,405.625 31.25,405.625 Q30.7617,405.625 30.4492,405.4102 Q30.1367,405.1953 30,404.6289 Q29.9414,404.2383 29.7266,404.0234 Q29.3359,403.6133 28.6328,403.3789 Q27.9297,403.125 27.2266,403.125 Q26.3477,403.125 25.6055,403.4766 Q24.8828,403.8281 24.3164,404.6094 Q23.75,405.3906 23.75,406.4648 L23.75,407.6172 Q23.75,408.9063 24.8047,409.7656 Q25.8594,410.625 27.7344,410.625 Q28.8477,410.625 29.6289,410.3711 Q30.0781,410.2344 30.5859,409.7852 Q30.918,409.5313 31.0938,409.4531 Q31.2695,409.375 31.4844,409.375 Q31.8945,409.375 32.1875,409.707 Q32.5,410.0195 32.5,410.4688 Q32.5,410.8984 32.0703,411.4063 Q31.4453,412.1484 30.4492,412.5586 Q29.1406,413.125 27.5391,413.125 Q25.6641,413.125 24.1602,412.3828 Q22.9492,411.7969 22.0898,410.5273 Q21.25,409.2578 21.25,407.7539 L21.25,406.3867 Q21.25,404.8242 21.9922,403.457 Q22.7539,402.0898 24.0625,401.3672 Q25.3906,400.625 26.875,400.625 Q27.7734,400.625 28.5547,400.9375 Q29.3359,401.25 30,401.875 Z " fill="#000000"/><text fill="#000000" font-family="sans-serif" font-size="15" lengthAdjust="spacing" textLength="123.75" x="45" y="412.3877">CreateTestTypeUI</text><line style="stroke:#A80036;stroke-width:1.875;" x1="10" x2="171.25" y1="426.25" y2="426.25"/><line style="stroke:#A80036;stroke-width:1.875;" x1="10" x2="171.25" y1="436.25" y2="436.25"/><!--MD5=[320690cba070b8468face0bfd1ce9533]
link CTTUI to CTTC--><path codeLine="58" d="M172.7125,416.25 C194.7875,416.25 220,416.25 246.575,416.25 " fill="none" id="CTTUI-to-CTTC" style="stroke:#A80036;stroke-width:1.25;stroke-dasharray:7.0,7.0;"/><polygon fill="#A80036" points="252.9875,416.25,241.7375,411.25,246.7375,416.25,241.7375,421.25,252.9875,416.25" style="stroke:#A80036;stroke-width:1.25;"/><!--MD5=[e1c0f205e01471a87324e4cc03d03bbe]
link C to PCS--><path codeLine="60" d="M1158.8125,203.0875 C1222.1875,180.4875 1306.325,150.95 1381.25,126.25 C1401.775,119.4875 1423.4125,112.55 1444.825,105.7875 " fill="none" id="C-to-PCS" style="stroke:#A80036;stroke-width:1.25;stroke-dasharray:7.0,7.0;"/><polygon fill="#A80036" points="1450.8625,103.8875,1438.6308,102.4915,1444.9002,105.7619,1441.6298,112.0312,1450.8625,103.8875" style="stroke:#A80036;stroke-width:1.25;"/><!--MD5=[694303a06a79f7ae0713de28a4008c97]
link TTS to C--><path codeLine="62" d="M802.675,220.1375 C856.0125,224.0375 908.7875,227.8875 952.3625,231.075 " fill="none" id="TTS-to-C" style="stroke:#A80036;stroke-width:1.25;stroke-dasharray:7.0,7.0;"/><polygon fill="#A80036" points="958.7125,231.5375,947.8485,225.7465,952.4785,231.0909,947.134,235.7209,958.7125,231.5375" style="stroke:#A80036;stroke-width:1.25;"/><!--MD5=[cf05f59dfce81a96099c5f95714bd5af]
link CTTC to C--><path codeLine="65" d="M798.0125,325.55 C852.975,307.1625 907.6125,288.8875 952.4625,273.8875 " fill="none" id="CTTC-to-C" style="stroke:#A80036;stroke-width:1.25;stroke-dasharray:7.0,7.0;"/><polygon fill="#A80036" points="958.4375,271.8875,946.1815,270.7238,952.5118,273.8747,949.361,280.2049,958.4375,271.8875" style="stroke:#A80036;stroke-width:1.25;"/><!--MD5=[1d14db0b97cac770d171bdc7474dae00]
link CTTC to cNM--><path codeLine="66" d="M798.4,416.25 C823.225,416.25 847.975,416.25 871.7875,416.25 " fill="none" id="CTTC-to-cNM" style="stroke:#A80036;stroke-width:1.25;stroke-dasharray:7.0,7.0;"/><polygon fill="#A80036" points="878.475,416.25,867.225,411.25,872.225,416.25,867.225,421.25,878.475,416.25" style="stroke:#A80036;stroke-width:1.25;"/><!--MD5=[93286ab8d15dacf230424bab250ab910]
link TT to PC--><path codeLine="68" d="M1836.3875,292.9 C1896.2625,307.225 1958.1875,322.0375 2008.5625,334.0875 " fill="none" id="TT-PC" style="stroke:#A80036;stroke-width:1.25;"/><polygon fill="#000000" points="1886.0785,294.1738,1875.9371,287.9705,1874.2277,295.1162,1886.0785,294.1738" style="stroke:#000000;stroke-width:1.25;"/><text fill="#000000" font-family="sans-serif" font-size="16.25" lengthAdjust="spacing" textLength="78.75" x="1891.25" y="299.3689">analyzes a</text><text fill="#000000" font-family="sans-serif" font-size="16.25" lengthAdjust="spacing" textLength="6.25" x="1846.1228" y="312.4884">*</text><text fill="#000000" font-family="sans-serif" font-size="16.25" lengthAdjust="spacing" textLength="8.75" x="1990.021" y="349.6342">1</text><!--MD5=[b83cceec495819d0b37daa935a10185d]
link C to TT--><path codeLine="70" d="M1158.825,238.75 C1220.9,238.75 1303.6,238.75 1381.0875,238.75 " fill="none" id="C-TT" style="stroke:#A80036;stroke-width:1.25;"/><polygon fill="#000000" points="1288.75,227.7197,1277.4436,224.0461,1277.4436,231.3934,1288.75,227.7197" style="stroke:#000000;stroke-width:1.25;"/><text fill="#000000" font-family="sans-serif" font-size="16.25" lengthAdjust="spacing" textLength="48.75" x="1293.75" y="234.3689">adopts</text><text fill="#000000" font-family="sans-serif" font-size="16.25" lengthAdjust="spacing" textLength="8.75" x="1168.7804" y="256.6223">1</text><text fill="#000000" font-family="sans-serif" font-size="16.25" lengthAdjust="spacing" textLength="6.25" x="1365.1012" y="256.054">*</text><!--MD5=[71b3fc4d6ca120e51ce9c04aa77747d8]
link C to PC--><path codeLine="71" d="M1159.0625,292.5 C1220.95,322.975 1303.4125,358.0625 1381.25,373.75 C1600.375,417.925 1863.675,395.275 2008.35,376.525 " fill="none" id="C-PC" style="stroke:#A80036;stroke-width:1.25;"/><polygon fill="#000000" points="1587.4696,363.3351,1576.5799,358.5661,1575.8565,365.8777,1587.4696,363.3351" style="stroke:#000000;stroke-width:1.25;"/><text fill="#000000" font-family="sans-serif" font-size="16.25" lengthAdjust="spacing" textLength="48.75" x="1592.5" y="369.3689">adopts</text><text fill="#000000" font-family="sans-serif" font-size="16.25" lengthAdjust="spacing" textLength="8.75" x="1168.7134" y="315.2945">1</text><text fill="#000000" font-family="sans-serif" font-size="16.25" lengthAdjust="spacing" textLength="6.25" x="1992.3977" y="395.7187">*</text><!--MD5=[0168c2568934d8d46a3154d847ac273d]
@startuml
skinparam classAttributeIconSize 0
left to right direction

class "Company" as C {
-String designation
+getTestTypeStore()
+getParameterCategoryStore()
}

class "categoriesNameMapper" as cNM {
+List <ParameterCategoryDto> toDto(parameterCategory)
}

class "TestTypeStore" as TTS{
+TestType createTestType(code, description, collectingMethod, parameterCategory)
+TestType createTestType(code, description, collectingMethod, parameterCategoriesList)
+boolean saveTestType(tt)
+boolean validateTestType(tt)
+boolean addTestType(tt)
+List <TestType> getAllTestTypes()
}

class "ParameterCategoryStore" as PCS{
+List <ParameterCategory> getAllParameterCategories()
+ParameterCategory getParameterCategoryByCode(code)
}

class "TestType" as TT {
-String code
-String description
-String collectingMethod
-ParameterCategory parameterCategory
-List <ParameterCategory> parameterCategoriesList
+TestType(code, description, collectingMethod, parameterCategory)
+TestType(code, description, collectingMethod, parameterCategoriesList)
}

class "CreateTestTypeController" as CTTC {
+CreateTestTypeController()
+List<ParameterCategoryDto> getParameterCategoryDto()
+boolean createTestType(code, description, collectingMethod, parameterCategory)
+boolean createTestType(code, description, collectingMethod, parameterCategoriesList)
+boolean saveTestType(tt)
+ParameterCategory getParameterCategoryByCode(code)
+List<TestType> getAllTestTypes()
}

class "ParameterCategory" as PC{
-String name
-String code
+ParameterCategory(name, code)
}

class "CreateTestTypeUI" as CTTUI
class "TestType" as TT
class "CreateTestTypeController" as CTTC

CTTUI ..> CTTC

C ..> PCS

TTS ..> C


CTTC ..> C
CTTC ..> cNM

TT "*" - - "1" PC : > analyzes a

C "1" - - "*" TT : > adopts
C "1" - - "*" PC : > adopts

@enduml

PlantUML version 1.2021.5(Sun Apr 25 12:20:28 BST 2021)
(GPL source distribution)
Java Runtime: OpenJDK Runtime Environment
JVM: OpenJDK 64-Bit Server VM
Default Encoding: Cp1252
Language: pt
Country: PT
--></g></svg>