<?xml version="1.0" encoding="UTF-8" standalone="no"?><svg xmlns="http://www.w3.org/2000/svg" xmlns:xlink="http://www.w3.org/1999/xlink" contentScriptType="application/ecmascript" contentStyleType="text/css" height="367px" preserveAspectRatio="none" style="width:1748px;height:367px;" version="1.1" viewBox="0 0 1748 367" width="1748px" zoomAndPan="magnify"><defs><filter height="300%" id="f1sbkz8wsndxw6" width="300%" x="-1" y="-1"><feGaussianBlur result="blurOut" stdDeviation="2.0"/><feColorMatrix in="blurOut" result="blurOut2" type="matrix" values="0 0 0 0 0 0 0 0 0 0 0 0 0 0 0 0 0 0 .4 0"/><feOffset dx="4.0" dy="4.0" in="blurOut2" result="blurOut3"/><feBlend in="SourceGraphic" in2="blurOut3" mode="normal"/></filter></defs><g><!--MD5=[378b18254a1b2429f435e93f5e5cc50c]
class C--><rect codeLine="4" fill="#FEFECE" filter="url(#f1sbkz8wsndxw6)" height="89.5078" id="C" style="stroke:#A80036;stroke-width:1.5;" width="160" x="769.5" y="125"/><ellipse cx="818.75" cy="141" fill="#ADD1B2" rx="11" ry="11" style="stroke:#A80036;stroke-width:1.0;"/><path d="M820.75,137.5 Q820.9531,137 821.1875,136.75 Q821.4219,136.5 821.6875,136.5 Q822.1563,136.5 822.4531,136.7813 Q822.75,137.0625 822.75,137.7188 L822.75,139.2813 Q822.75,139.9375 822.4688,140.2188 Q822.1875,140.5 821.75,140.5 Q821.3594,140.5 821.1094,140.3281 Q820.8594,140.1563 820.75,139.7031 Q820.7031,139.3906 820.5313,139.2188 Q820.2188,138.8906 819.6563,138.7031 Q819.0938,138.5 818.5313,138.5 Q817.8281,138.5 817.2344,138.7813 Q816.6563,139.0625 816.2031,139.6875 Q815.75,140.3125 815.75,141.1719 L815.75,142.0938 Q815.75,143.125 816.5938,143.8125 Q817.4375,144.5 818.9375,144.5 Q819.8281,144.5 820.4531,144.2969 Q820.8125,144.1875 821.2188,143.8281 Q821.4844,143.625 821.625,143.5625 Q821.7656,143.5 821.9375,143.5 Q822.2656,143.5 822.5,143.7656 Q822.75,144.0156 822.75,144.375 Q822.75,144.7188 822.4063,145.125 Q821.9063,145.7188 821.1094,146.0469 Q820.0625,146.5 818.7813,146.5 Q817.2813,146.5 816.0781,145.9063 Q815.1094,145.4375 814.4219,144.4219 Q813.75,143.4063 813.75,142.2031 L813.75,141.1094 Q813.75,139.8594 814.3438,138.7656 Q814.9531,137.6719 816,137.0938 Q817.0625,136.5 818.25,136.5 Q818.9688,136.5 819.5938,136.75 Q820.2188,137 820.75,137.5 Z " fill="#000000"/><text fill="#000000" font-family="sans-serif" font-size="12" lengthAdjust="spacing" textLength="53" x="839.25" y="145.9102">Company</text><line style="stroke:#A80036;stroke-width:1.5;" x1="770.5" x2="928.5" y1="157" y2="157"/><text fill="#000000" font-family="sans-serif" font-size="11" lengthAdjust="spacing" textLength="90" x="775.5" y="172.4189">-String designation</text><line style="stroke:#A80036;stroke-width:1.5;" x1="770.5" x2="928.5" y1="178.8359" y2="178.8359"/><text fill="#000000" font-family="sans-serif" font-size="11" lengthAdjust="spacing" textLength="100" x="775.5" y="194.2549">+getTestTypeStore()</text><text fill="#000000" font-family="sans-serif" font-size="11" lengthAdjust="spacing" textLength="148" x="775.5" y="208.0908">+getParameterCategoryStore()</text><!--MD5=[606124dbd33b65145bd2d31e230d6615]
class cNM--><rect codeLine="10" fill="#FEFECE" filter="url(#f1sbkz8wsndxw6)" height="61.8359" id="cNM" style="stroke:#A80036;stroke-width:1.5;" width="293" x="703" y="271"/><ellipse cx="778.75" cy="287" fill="#ADD1B2" rx="11" ry="11" style="stroke:#A80036;stroke-width:1.0;"/><path d="M780.75,283.5 Q780.9531,283 781.1875,282.75 Q781.4219,282.5 781.6875,282.5 Q782.1563,282.5 782.4531,282.7813 Q782.75,283.0625 782.75,283.7188 L782.75,285.2813 Q782.75,285.9375 782.4688,286.2188 Q782.1875,286.5 781.75,286.5 Q781.3594,286.5 781.1094,286.3281 Q780.8594,286.1563 780.75,285.7031 Q780.7031,285.3906 780.5313,285.2188 Q780.2188,284.8906 779.6563,284.7031 Q779.0938,284.5 778.5313,284.5 Q777.8281,284.5 777.2344,284.7813 Q776.6563,285.0625 776.2031,285.6875 Q775.75,286.3125 775.75,287.1719 L775.75,288.0938 Q775.75,289.125 776.5938,289.8125 Q777.4375,290.5 778.9375,290.5 Q779.8281,290.5 780.4531,290.2969 Q780.8125,290.1875 781.2188,289.8281 Q781.4844,289.625 781.625,289.5625 Q781.7656,289.5 781.9375,289.5 Q782.2656,289.5 782.5,289.7656 Q782.75,290.0156 782.75,290.375 Q782.75,290.7188 782.4063,291.125 Q781.9063,291.7188 781.1094,292.0469 Q780.0625,292.5 778.7813,292.5 Q777.2813,292.5 776.0781,291.9063 Q775.1094,291.4375 774.4219,290.4219 Q773.75,289.4063 773.75,288.2031 L773.75,287.1094 Q773.75,285.8594 774.3438,284.7656 Q774.9531,283.6719 776,283.0938 Q777.0625,282.5 778.25,282.5 Q778.9688,282.5 779.5938,282.75 Q780.2188,283 780.75,283.5 Z " fill="#000000"/><text fill="#000000" font-family="sans-serif" font-size="12" lengthAdjust="spacing" textLength="133" x="799.25" y="291.9102">categoriesNameMapper</text><line style="stroke:#A80036;stroke-width:1.5;" x1="704" x2="995" y1="303" y2="303"/><line style="stroke:#A80036;stroke-width:1.5;" x1="704" x2="995" y1="311" y2="311"/><text fill="#000000" font-family="sans-serif" font-size="11" lengthAdjust="spacing" textLength="281" x="709" y="326.4189">+List &lt;ParameterCategoryDto&gt; toDTO(parameterCategory)</text><!--MD5=[0c21d7a5a5555e4278001068caacbd33]
class TTS--><rect codeLine="14" fill="#FEFECE" filter="url(#f1sbkz8wsndxw6)" height="131.0156" id="TTS" style="stroke:#A80036;stroke-width:1.5;" width="443" x="199" y="84.5"/><ellipse cx="376.75" cy="100.5" fill="#ADD1B2" rx="11" ry="11" style="stroke:#A80036;stroke-width:1.0;"/><path d="M378.75,97 Q378.9531,96.5 379.1875,96.25 Q379.4219,96 379.6875,96 Q380.1563,96 380.4531,96.2813 Q380.75,96.5625 380.75,97.2188 L380.75,98.7813 Q380.75,99.4375 380.4688,99.7188 Q380.1875,100 379.75,100 Q379.3594,100 379.1094,99.8281 Q378.8594,99.6563 378.75,99.2031 Q378.7031,98.8906 378.5313,98.7188 Q378.2188,98.3906 377.6563,98.2031 Q377.0938,98 376.5313,98 Q375.8281,98 375.2344,98.2813 Q374.6563,98.5625 374.2031,99.1875 Q373.75,99.8125 373.75,100.6719 L373.75,101.5938 Q373.75,102.625 374.5938,103.3125 Q375.4375,104 376.9375,104 Q377.8281,104 378.4531,103.7969 Q378.8125,103.6875 379.2188,103.3281 Q379.4844,103.125 379.625,103.0625 Q379.7656,103 379.9375,103 Q380.2656,103 380.5,103.2656 Q380.75,103.5156 380.75,103.875 Q380.75,104.2188 380.4063,104.625 Q379.9063,105.2188 379.1094,105.5469 Q378.0625,106 376.7813,106 Q375.2813,106 374.0781,105.4063 Q373.1094,104.9375 372.4219,103.9219 Q371.75,102.9063 371.75,101.7031 L371.75,100.6094 Q371.75,99.3594 372.3438,98.2656 Q372.9531,97.1719 374,96.5938 Q375.0625,96 376.25,96 Q376.9688,96 377.5938,96.25 Q378.2188,96.5 378.75,97 Z " fill="#000000"/><text fill="#000000" font-family="sans-serif" font-size="12" lengthAdjust="spacing" textLength="79" x="397.25" y="105.4102">TestTypeStore</text><line style="stroke:#A80036;stroke-width:1.5;" x1="200" x2="641" y1="116.5" y2="116.5"/><line style="stroke:#A80036;stroke-width:1.5;" x1="200" x2="641" y1="124.5" y2="124.5"/><text fill="#000000" font-family="sans-serif" font-size="11" lengthAdjust="spacing" textLength="406" x="205" y="139.9189">+TestType createTestType(code, description, collectingMethod, parameterCategory)</text><text fill="#000000" font-family="sans-serif" font-size="11" lengthAdjust="spacing" textLength="431" x="205" y="153.7549">+TestType createTestType(code, description, collectingMethod, parameterCategoriesList)</text><text fill="#000000" font-family="sans-serif" font-size="11" lengthAdjust="spacing" textLength="130" x="205" y="167.5908">+boolean saveTestType(tt)</text><text fill="#000000" font-family="sans-serif" font-size="11" lengthAdjust="spacing" textLength="143" x="205" y="181.4268">+boolean validateTestType(tt)</text><text fill="#000000" font-family="sans-serif" font-size="11" lengthAdjust="spacing" textLength="124" x="205" y="195.2627">+boolean addTestType(tt)</text><text fill="#000000" font-family="sans-serif" font-size="11" lengthAdjust="spacing" textLength="172" x="205" y="209.0986">+List &lt;TestType&gt; getAllTestTypes()</text><!--MD5=[2628f93c2b91159b8b11117185f029f9]
class PCS--><rect codeLine="23" fill="#FEFECE" filter="url(#f1sbkz8wsndxw6)" height="61.8359" id="PCS" style="stroke:#A80036;stroke-width:1.5;" width="282" x="1142.5" y="7"/><ellipse cx="1211.25" cy="23" fill="#ADD1B2" rx="11" ry="11" style="stroke:#A80036;stroke-width:1.0;"/><path d="M1213.25,19.5 Q1213.4531,19 1213.6875,18.75 Q1213.9219,18.5 1214.1875,18.5 Q1214.6563,18.5 1214.9531,18.7813 Q1215.25,19.0625 1215.25,19.7188 L1215.25,21.2813 Q1215.25,21.9375 1214.9688,22.2188 Q1214.6875,22.5 1214.25,22.5 Q1213.8594,22.5 1213.6094,22.3281 Q1213.3594,22.1563 1213.25,21.7031 Q1213.2031,21.3906 1213.0313,21.2188 Q1212.7188,20.8906 1212.1563,20.7031 Q1211.5938,20.5 1211.0313,20.5 Q1210.3281,20.5 1209.7344,20.7813 Q1209.1563,21.0625 1208.7031,21.6875 Q1208.25,22.3125 1208.25,23.1719 L1208.25,24.0938 Q1208.25,25.125 1209.0938,25.8125 Q1209.9375,26.5 1211.4375,26.5 Q1212.3281,26.5 1212.9531,26.2969 Q1213.3125,26.1875 1213.7188,25.8281 Q1213.9844,25.625 1214.125,25.5625 Q1214.2656,25.5 1214.4375,25.5 Q1214.7656,25.5 1215,25.7656 Q1215.25,26.0156 1215.25,26.375 Q1215.25,26.7188 1214.9063,27.125 Q1214.4063,27.7188 1213.6094,28.0469 Q1212.5625,28.5 1211.2813,28.5 Q1209.7813,28.5 1208.5781,27.9063 Q1207.6094,27.4375 1206.9219,26.4219 Q1206.25,25.4063 1206.25,24.2031 L1206.25,23.1094 Q1206.25,21.8594 1206.8438,20.7656 Q1207.4531,19.6719 1208.5,19.0938 Q1209.5625,18.5 1210.75,18.5 Q1211.4688,18.5 1212.0938,18.75 Q1212.7188,19 1213.25,19.5 Z " fill="#000000"/><text fill="#000000" font-family="sans-serif" font-size="12" lengthAdjust="spacing" textLength="136" x="1231.75" y="27.9102">ParameterCategoryStore</text><line style="stroke:#A80036;stroke-width:1.5;" x1="1143.5" x2="1423.5" y1="39" y2="39"/><line style="stroke:#A80036;stroke-width:1.5;" x1="1143.5" x2="1423.5" y1="47" y2="47"/><text fill="#000000" font-family="sans-serif" font-size="11" lengthAdjust="spacing" textLength="270" x="1148.5" y="62.4189">+List &lt;ParameterCategory&gt; getAllParameterCategories()</text><!--MD5=[f76673142371ead9f091198193c4bd63]
class TT--><rect codeLine="55" fill="#FEFECE" filter="url(#f1sbkz8wsndxw6)" height="131.0156" id="TT" style="stroke:#A80036;stroke-width:1.5;" width="347" x="1110" y="104.5"/><ellipse cx="1254.25" cy="120.5" fill="#ADD1B2" rx="11" ry="11" style="stroke:#A80036;stroke-width:1.0;"/><path d="M1256.25,117 Q1256.4531,116.5 1256.6875,116.25 Q1256.9219,116 1257.1875,116 Q1257.6563,116 1257.9531,116.2813 Q1258.25,116.5625 1258.25,117.2188 L1258.25,118.7813 Q1258.25,119.4375 1257.9688,119.7188 Q1257.6875,120 1257.25,120 Q1256.8594,120 1256.6094,119.8281 Q1256.3594,119.6563 1256.25,119.2031 Q1256.2031,118.8906 1256.0313,118.7188 Q1255.7188,118.3906 1255.1563,118.2031 Q1254.5938,118 1254.0313,118 Q1253.3281,118 1252.7344,118.2813 Q1252.1563,118.5625 1251.7031,119.1875 Q1251.25,119.8125 1251.25,120.6719 L1251.25,121.5938 Q1251.25,122.625 1252.0938,123.3125 Q1252.9375,124 1254.4375,124 Q1255.3281,124 1255.9531,123.7969 Q1256.3125,123.6875 1256.7188,123.3281 Q1256.9844,123.125 1257.125,123.0625 Q1257.2656,123 1257.4375,123 Q1257.7656,123 1258,123.2656 Q1258.25,123.5156 1258.25,123.875 Q1258.25,124.2188 1257.9063,124.625 Q1257.4063,125.2188 1256.6094,125.5469 Q1255.5625,126 1254.2813,126 Q1252.7813,126 1251.5781,125.4063 Q1250.6094,124.9375 1249.9219,123.9219 Q1249.25,122.9063 1249.25,121.7031 L1249.25,120.6094 Q1249.25,119.3594 1249.8438,118.2656 Q1250.4531,117.1719 1251.5,116.5938 Q1252.5625,116 1253.75,116 Q1254.4688,116 1255.0938,116.25 Q1255.7188,116.5 1256.25,117 Z " fill="#000000"/><text fill="#000000" font-family="sans-serif" font-size="12" lengthAdjust="spacing" textLength="50" x="1274.75" y="125.4102">TestType</text><line style="stroke:#A80036;stroke-width:1.5;" x1="1111" x2="1456" y1="136.5" y2="136.5"/><text fill="#000000" font-family="sans-serif" font-size="11" lengthAdjust="spacing" textLength="59" x="1116" y="151.9189">-String code</text><text fill="#000000" font-family="sans-serif" font-size="11" lengthAdjust="spacing" textLength="88" x="1116" y="165.7549">-String description</text><text fill="#000000" font-family="sans-serif" font-size="11" lengthAdjust="spacing" textLength="115" x="1116" y="179.5908">-String collectingMethod</text><text fill="#000000" font-family="sans-serif" font-size="11" lengthAdjust="spacing" textLength="193" x="1116" y="193.4268">-ParameterCategory parameterCategory</text><text fill="#000000" font-family="sans-serif" font-size="11" lengthAdjust="spacing" textLength="233" x="1116" y="207.2627">-List &lt;ParameterCategory&gt; ParameterCategories</text><line style="stroke:#A80036;stroke-width:1.5;" x1="1111" x2="1456" y1="213.6797" y2="213.6797"/><text fill="#000000" font-family="sans-serif" font-size="11" lengthAdjust="spacing" textLength="335" x="1116" y="229.0986">+TestType(code, description, collectingMethod, ParameterCategories)</text><!--MD5=[0db42b3591f13a48474e506cf6fbc101]
class CTTC--><rect codeLine="56" fill="#FEFECE" filter="url(#f1sbkz8wsndxw6)" height="103.3438" id="CTTC" style="stroke:#A80036;stroke-width:1.5;" width="395" x="223" y="250.5"/><ellipse cx="345.75" cy="266.5" fill="#ADD1B2" rx="11" ry="11" style="stroke:#A80036;stroke-width:1.0;"/><path d="M347.75,263 Q347.9531,262.5 348.1875,262.25 Q348.4219,262 348.6875,262 Q349.1563,262 349.4531,262.2813 Q349.75,262.5625 349.75,263.2188 L349.75,264.7813 Q349.75,265.4375 349.4688,265.7188 Q349.1875,266 348.75,266 Q348.3594,266 348.1094,265.8281 Q347.8594,265.6563 347.75,265.2031 Q347.7031,264.8906 347.5313,264.7188 Q347.2188,264.3906 346.6563,264.2031 Q346.0938,264 345.5313,264 Q344.8281,264 344.2344,264.2813 Q343.6563,264.5625 343.2031,265.1875 Q342.75,265.8125 342.75,266.6719 L342.75,267.5938 Q342.75,268.625 343.5938,269.3125 Q344.4375,270 345.9375,270 Q346.8281,270 347.4531,269.7969 Q347.8125,269.6875 348.2188,269.3281 Q348.4844,269.125 348.625,269.0625 Q348.7656,269 348.9375,269 Q349.2656,269 349.5,269.2656 Q349.75,269.5156 349.75,269.875 Q349.75,270.2188 349.4063,270.625 Q348.9063,271.2188 348.1094,271.5469 Q347.0625,272 345.7813,272 Q344.2813,272 343.0781,271.4063 Q342.1094,270.9375 341.4219,269.9219 Q340.75,268.9063 340.75,267.7031 L340.75,266.6094 Q340.75,265.3594 341.3438,264.2656 Q341.9531,263.1719 343,262.5938 Q344.0625,262 345.25,262 Q345.9688,262 346.5938,262.25 Q347.2188,262.5 347.75,263 Z " fill="#000000"/><text fill="#000000" font-family="sans-serif" font-size="12" lengthAdjust="spacing" textLength="141" x="366.25" y="271.4102">CreateTestTypeController</text><line style="stroke:#A80036;stroke-width:1.5;" x1="224" x2="617" y1="282.5" y2="282.5"/><line style="stroke:#A80036;stroke-width:1.5;" x1="224" x2="617" y1="290.5" y2="290.5"/><text fill="#000000" font-family="sans-serif" font-size="11" lengthAdjust="spacing" textLength="358" x="229" y="305.9189">+createTestType(code, description, collectingMethod, parameterCategory)</text><text fill="#000000" font-family="sans-serif" font-size="11" lengthAdjust="spacing" textLength="383" x="229" y="319.7549">+createTestType(code, description, collectingMethod, parameterCategoriesList)</text><text fill="#000000" font-family="sans-serif" font-size="11" lengthAdjust="spacing" textLength="89" x="229" y="333.5908">+saveTestType(tt)</text><text fill="#000000" font-family="sans-serif" font-size="11" lengthAdjust="spacing" textLength="137" x="229" y="347.4268">+CreateTestTypeController()</text><!--MD5=[56e4c9075fa7c9f4c09ef0a20c49f72c]
class T--><rect codeLine="43" fill="#FEFECE" filter="url(#f1sbkz8wsndxw6)" height="89.5078" id="T" style="stroke:#A80036;stroke-width:1.5;" width="127" x="1601" y="125"/><ellipse cx="1648.25" cy="141" fill="#ADD1B2" rx="11" ry="11" style="stroke:#A80036;stroke-width:1.0;"/><path d="M1650.25,137.5 Q1650.4531,137 1650.6875,136.75 Q1650.9219,136.5 1651.1875,136.5 Q1651.6563,136.5 1651.9531,136.7813 Q1652.25,137.0625 1652.25,137.7188 L1652.25,139.2813 Q1652.25,139.9375 1651.9688,140.2188 Q1651.6875,140.5 1651.25,140.5 Q1650.8594,140.5 1650.6094,140.3281 Q1650.3594,140.1563 1650.25,139.7031 Q1650.2031,139.3906 1650.0313,139.2188 Q1649.7188,138.8906 1649.1563,138.7031 Q1648.5938,138.5 1648.0313,138.5 Q1647.3281,138.5 1646.7344,138.7813 Q1646.1563,139.0625 1645.7031,139.6875 Q1645.25,140.3125 1645.25,141.1719 L1645.25,142.0938 Q1645.25,143.125 1646.0938,143.8125 Q1646.9375,144.5 1648.4375,144.5 Q1649.3281,144.5 1649.9531,144.2969 Q1650.3125,144.1875 1650.7188,143.8281 Q1650.9844,143.625 1651.125,143.5625 Q1651.2656,143.5 1651.4375,143.5 Q1651.7656,143.5 1652,143.7656 Q1652.25,144.0156 1652.25,144.375 Q1652.25,144.7188 1651.9063,145.125 Q1651.4063,145.7188 1650.6094,146.0469 Q1649.5625,146.5 1648.2813,146.5 Q1646.7813,146.5 1645.5781,145.9063 Q1644.6094,145.4375 1643.9219,144.4219 Q1643.25,143.4063 1643.25,142.2031 L1643.25,141.1094 Q1643.25,139.8594 1643.8438,138.7656 Q1644.4531,137.6719 1645.5,137.0938 Q1646.5625,136.5 1647.75,136.5 Q1648.4688,136.5 1649.0938,136.75 Q1649.7188,137 1650.25,137.5 Z " fill="#000000"/><text fill="#000000" font-family="sans-serif" font-size="12" lengthAdjust="spacing" textLength="24" x="1668.75" y="145.9102">Test</text><line style="stroke:#A80036;stroke-width:1.5;" x1="1602" x2="1727" y1="157" y2="157"/><text fill="#000000" font-family="sans-serif" font-size="11" lengthAdjust="spacing" textLength="59" x="1607" y="172.4189">-String code</text><text fill="#000000" font-family="sans-serif" font-size="11" lengthAdjust="spacing" textLength="88" x="1607" y="186.2549">-String description</text><text fill="#000000" font-family="sans-serif" font-size="11" lengthAdjust="spacing" textLength="115" x="1607" y="200.0908">-String collectingMethod</text><line style="stroke:#A80036;stroke-width:1.5;" x1="1602" x2="1727" y1="206.5078" y2="206.5078"/><!--MD5=[218f71f443b9e0720bb96dd9df1d4749]
class PC--><rect codeLine="49" fill="#FEFECE" filter="url(#f1sbkz8wsndxw6)" height="75.6719" id="PC" style="stroke:#A80036;stroke-width:1.5;" width="139" x="1595" y="250"/><ellipse cx="1610" cy="266" fill="#ADD1B2" rx="11" ry="11" style="stroke:#A80036;stroke-width:1.0;"/><path d="M1612,262.5 Q1612.2031,262 1612.4375,261.75 Q1612.6719,261.5 1612.9375,261.5 Q1613.4063,261.5 1613.7031,261.7813 Q1614,262.0625 1614,262.7188 L1614,264.2813 Q1614,264.9375 1613.7188,265.2188 Q1613.4375,265.5 1613,265.5 Q1612.6094,265.5 1612.3594,265.3281 Q1612.1094,265.1563 1612,264.7031 Q1611.9531,264.3906 1611.7813,264.2188 Q1611.4688,263.8906 1610.9063,263.7031 Q1610.3438,263.5 1609.7813,263.5 Q1609.0781,263.5 1608.4844,263.7813 Q1607.9063,264.0625 1607.4531,264.6875 Q1607,265.3125 1607,266.1719 L1607,267.0938 Q1607,268.125 1607.8438,268.8125 Q1608.6875,269.5 1610.1875,269.5 Q1611.0781,269.5 1611.7031,269.2969 Q1612.0625,269.1875 1612.4688,268.8281 Q1612.7344,268.625 1612.875,268.5625 Q1613.0156,268.5 1613.1875,268.5 Q1613.5156,268.5 1613.75,268.7656 Q1614,269.0156 1614,269.375 Q1614,269.7188 1613.6563,270.125 Q1613.1563,270.7188 1612.3594,271.0469 Q1611.3125,271.5 1610.0313,271.5 Q1608.5313,271.5 1607.3281,270.9063 Q1606.3594,270.4375 1605.6719,269.4219 Q1605,268.4063 1605,267.2031 L1605,266.1094 Q1605,264.8594 1605.5938,263.7656 Q1606.2031,262.6719 1607.25,262.0938 Q1608.3125,261.5 1609.5,261.5 Q1610.2188,261.5 1610.8438,261.75 Q1611.4688,262 1612,262.5 Z " fill="#000000"/><text fill="#000000" font-family="sans-serif" font-size="12" lengthAdjust="spacing" textLength="107" x="1624" y="270.9102">ParameterCategory</text><line style="stroke:#A80036;stroke-width:1.5;" x1="1596" x2="1733" y1="282" y2="282"/><text fill="#000000" font-family="sans-serif" font-size="11" lengthAdjust="spacing" textLength="61" x="1601" y="297.4189">-String name</text><text fill="#000000" font-family="sans-serif" font-size="11" lengthAdjust="spacing" textLength="59" x="1601" y="311.2549">-String code</text><line style="stroke:#A80036;stroke-width:1.5;" x1="1596" x2="1733" y1="317.6719" y2="317.6719"/><!--MD5=[6461a74477876ab4a04549c978c1a07a]
class CTTUI--><rect codeLine="54" fill="#FEFECE" filter="url(#f1sbkz8wsndxw6)" height="48" id="CTTUI" style="stroke:#A80036;stroke-width:1.5;" width="131" x="7" y="278"/><ellipse cx="22" cy="294" fill="#ADD1B2" rx="11" ry="11" style="stroke:#A80036;stroke-width:1.0;"/><path d="M24,290.5 Q24.2031,290 24.4375,289.75 Q24.6719,289.5 24.9375,289.5 Q25.4063,289.5 25.7031,289.7813 Q26,290.0625 26,290.7188 L26,292.2813 Q26,292.9375 25.7188,293.2188 Q25.4375,293.5 25,293.5 Q24.6094,293.5 24.3594,293.3281 Q24.1094,293.1563 24,292.7031 Q23.9531,292.3906 23.7813,292.2188 Q23.4688,291.8906 22.9063,291.7031 Q22.3438,291.5 21.7813,291.5 Q21.0781,291.5 20.4844,291.7813 Q19.9063,292.0625 19.4531,292.6875 Q19,293.3125 19,294.1719 L19,295.0938 Q19,296.125 19.8438,296.8125 Q20.6875,297.5 22.1875,297.5 Q23.0781,297.5 23.7031,297.2969 Q24.0625,297.1875 24.4688,296.8281 Q24.7344,296.625 24.875,296.5625 Q25.0156,296.5 25.1875,296.5 Q25.5156,296.5 25.75,296.7656 Q26,297.0156 26,297.375 Q26,297.7188 25.6563,298.125 Q25.1563,298.7188 24.3594,299.0469 Q23.3125,299.5 22.0313,299.5 Q20.5313,299.5 19.3281,298.9063 Q18.3594,298.4375 17.6719,297.4219 Q17,296.4063 17,295.2031 L17,294.1094 Q17,292.8594 17.5938,291.7656 Q18.2031,290.6719 19.25,290.0938 Q20.3125,289.5 21.5,289.5 Q22.2188,289.5 22.8438,289.75 Q23.4688,290 24,290.5 Z " fill="#000000"/><text fill="#000000" font-family="sans-serif" font-size="12" lengthAdjust="spacing" textLength="99" x="36" y="298.9102">CreateTestTypeUI</text><line style="stroke:#A80036;stroke-width:1.5;" x1="8" x2="137" y1="310" y2="310"/><line style="stroke:#A80036;stroke-width:1.5;" x1="8" x2="137" y1="318" y2="318"/><!--MD5=[320690cba070b8468face0bfd1ce9533]
link CTTUI to CTTC--><path codeLine="58" d="M138.17,302 C161.47,302 189.15,302 217.92,302 " fill="none" id="CTTUI-to-CTTC" style="stroke:#A80036;stroke-width:1.0;stroke-dasharray:7.0,7.0;"/><polygon fill="#A80036" points="222.92,302,213.92,298,217.92,302,213.92,306,222.92,302" style="stroke:#A80036;stroke-width:1.0;"/><!--MD5=[e1c0f205e01471a87324e4cc03d03bbe]
link C to PCS--><path codeLine="60" d="M929.5,143.99 C980.81,127.28 1049.21,105.35 1110,87 C1127.98,81.57 1147.07,75.98 1165.74,70.61 " fill="none" id="C-to-PCS" style="stroke:#A80036;stroke-width:1.0;stroke-dasharray:7.0,7.0;"/><polygon fill="#A80036" points="1170.99,69.1,1161.2337,67.7532,1166.1862,70.4868,1163.4526,75.4393,1170.99,69.1" style="stroke:#A80036;stroke-width:1.0;"/><!--MD5=[694303a06a79f7ae0713de28a4008c97]
link TTS to C--><path codeLine="62" d="M642.19,160.34 C685.68,162.37 728.78,164.39 764.24,166.05 " fill="none" id="TTS-to-C" style="stroke:#A80036;stroke-width:1.0;stroke-dasharray:7.0,7.0;"/><polygon fill="#A80036" points="769.42,166.3,760.6247,161.8681,764.4259,166.0574,760.2365,169.8587,769.42,166.3" style="stroke:#A80036;stroke-width:1.0;"/><!--MD5=[cf05f59dfce81a96099c5f95714bd5af]
link CTTC to C--><path codeLine="65" d="M588.12,250.49 C648.54,231.81 714.23,211.51 764.52,195.96 " fill="none" id="CTTC-to-C" style="stroke:#A80036;stroke-width:1.0;stroke-dasharray:7.0,7.0;"/><polygon fill="#A80036" points="769.33,194.47,759.5509,193.2998,764.552,195.9434,761.9084,200.9446,769.33,194.47" style="stroke:#A80036;stroke-width:1.0;"/><!--MD5=[1d14db0b97cac770d171bdc7474dae00]
link CTTC to cNM--><path codeLine="66" d="M618.13,302 C644.91,302 672.04,302 697.83,302 " fill="none" id="CTTC-to-cNM" style="stroke:#A80036;stroke-width:1.0;stroke-dasharray:7.0,7.0;"/><polygon fill="#A80036" points="702.97,302,693.97,298,697.97,302,693.97,306,702.97,302" style="stroke:#A80036;stroke-width:1.0;"/><!--MD5=[1418b5af1734c0144573e838c99391fc]
link TT to T--><path codeLine="69" d="M1457.09,170 C1508.47,170 1561.53,170 1600.99,170 " fill="none" id="TT-T" style="stroke:#A80036;stroke-width:1.0;"/><polygon fill="#000000" points="1506.5,161.1758,1515.5451,164.1147,1515.5451,158.2369,1506.5,161.1758" style="stroke:#000000;stroke-width:1.0;"/><text fill="#000000" font-family="sans-serif" font-size="13" lengthAdjust="spacing" textLength="24" x="1520.5" y="166.4951">is of</text><text fill="#000000" font-family="sans-serif" font-size="13" lengthAdjust="spacing" textLength="7" x="1465.1144" y="183.8652">1</text><text fill="#000000" font-family="sans-serif" font-size="13" lengthAdjust="spacing" textLength="5" x="1587.945" y="184.5215">*</text><!--MD5=[93286ab8d15dacf230424bab250ab910]
link TT to PC--><path codeLine="70" d="M1457.09,223.73 C1505.74,238.88 1555.89,254.5 1594.57,266.54 " fill="none" id="TT-PC" style="stroke:#A80036;stroke-width:1.0;"/><polygon fill="#000000" points="1496.7739,229.6623,1489.0116,224.1671,1487.2641,229.7792,1496.7739,229.6623" style="stroke:#000000;stroke-width:1.0;"/><text fill="#000000" font-family="sans-serif" font-size="13" lengthAdjust="spacing" textLength="63" x="1501" y="233.4951">analyzes a</text><text fill="#000000" font-family="sans-serif" font-size="13" lengthAdjust="spacing" textLength="5" x="1465.0691" y="240.0299">*</text><text fill="#000000" font-family="sans-serif" font-size="13" lengthAdjust="spacing" textLength="7" x="1579.9975" y="278.6821">1</text><!--MD5=[b83cceec495819d0b37daa935a10185d]
link C to TT--><path codeLine="72" d="M929.74,170 C980.16,170 1047.47,170 1109.77,170 " fill="none" id="C-TT" style="stroke:#A80036;stroke-width:1.0;"/><polygon fill="#000000" points="1036,161.1758,1026.9549,158.2369,1026.9549,164.1147,1036,161.1758" style="stroke:#000000;stroke-width:1.0;"/><text fill="#000000" font-family="sans-serif" font-size="13" lengthAdjust="spacing" textLength="39" x="1040" y="166.4951">adopts</text><text fill="#000000" font-family="sans-serif" font-size="13" lengthAdjust="spacing" textLength="7" x="937.4598" y="184.2715">1</text><text fill="#000000" font-family="sans-serif" font-size="13" lengthAdjust="spacing" textLength="5" x="1096.7846" y="183.8652">*</text><!--MD5=[71b3fc4d6ca120e51ce9c04aa77747d8]
link C to PC--><path codeLine="73" d="M929.59,208.91 C979.92,231.61 1047.23,258.22 1110,271 C1281.69,305.97 1489.45,299.76 1594.9,293.29 " fill="none" id="C-PC" style="stroke:#A80036;stroke-width:1.0;"/><polygon fill="#000000" points="1266.4603,262.8049,1257.8568,258.7513,1257.1173,264.5824,1266.4603,262.8049" style="stroke:#000000;stroke-width:1.0;"/><text fill="#000000" font-family="sans-serif" font-size="13" lengthAdjust="spacing" textLength="39" x="1270.5" y="267.4951">adopts</text><text fill="#000000" font-family="sans-serif" font-size="13" lengthAdjust="spacing" textLength="7" x="937.5572" y="226.9164">1</text><text fill="#000000" font-family="sans-serif" font-size="13" lengthAdjust="spacing" textLength="5" x="1582.0141" y="308.2759">*</text><!--MD5=[e369b84167f5bd5e486a10d2d628ae70]
@startuml
skinparam classAttributeIconSize 0
left to right direction

class "Company" as C {
-String designation
+getTestTypeStore()
+getParameterCategoryStore()
}

class "categoriesNameMapper" as cNM {
+List <ParameterCategoryDto> toDTO(parameterCategory)
}

class "TestTypeStore" as TTS{
+TestType createTestType(code, description, collectingMethod, parameterCategory)
+TestType createTestType(code, description, collectingMethod, parameterCategoriesList)
+boolean saveTestType(tt)
+boolean validateTestType(tt)
+boolean addTestType(tt)
+List <TestType> getAllTestTypes()
}

class "ParameterCategoryStore" as PCS{
+List <ParameterCategory> getAllParameterCategories()
}

class "TestType" as TT {
-String code
-String description
-String collectingMethod
-ParameterCategory parameterCategory
-List <ParameterCategory> ParameterCategories
+TestType(code, description, collectingMethod, ParameterCategories)
}

class "CreateTestTypeController" as CTTC {
+createTestType(code, description, collectingMethod, parameterCategory)
+createTestType(code, description, collectingMethod, parameterCategoriesList)
+saveTestType(tt)
+CreateTestTypeController()
}

class "Test" as T{
-String code
-String description
-String collectingMethod
}

class "ParameterCategory" as PC{
-String name
-String code
}

class "CreateTestTypeUI" as CTTUI
class "TestType" as TT
class "CreateTestTypeController" as CTTC

CTTUI ..> CTTC

C ..> PCS

TTS ..> C


CTTC ..> C
CTTC ..> cNM


TT "1" - - "*" T: < is of
TT "*" - - "1" PC : > analyzes a

C "1" - - "*" TT : > adopts
C "1" - - "*" PC : > adopts

@enduml

PlantUML version 1.2021.5(Sun Apr 25 12:20:28 BST 2021)
(GPL source distribution)
Java Runtime: OpenJDK Runtime Environment
JVM: OpenJDK 64-Bit Server VM
Default Encoding: Cp1252
Language: pt
Country: PT
--></g></svg>