<?xml version="1.0" encoding="UTF-8" standalone="no"?><svg xmlns="http://www.w3.org/2000/svg" xmlns:xlink="http://www.w3.org/1999/xlink" contentScriptType="application/ecmascript" contentStyleType="text/css" height="247px" preserveAspectRatio="none" style="width:625px;height:247px;" version="1.1" viewBox="0 0 625 247" width="625px" zoomAndPan="magnify"><defs><filter height="300%" id="f1bwf6tnkkt8tu" width="300%" x="-1" y="-1"><feGaussianBlur result="blurOut" stdDeviation="2.0"/><feColorMatrix in="blurOut" result="blurOut2" type="matrix" values="0 0 0 0 0 0 0 0 0 0 0 0 0 0 0 0 0 0 .4 0"/><feOffset dx="4.0" dy="4.0" in="blurOut2" result="blurOut3"/><feBlend in="SourceGraphic" in2="blurOut3" mode="normal"/></filter></defs><g><!--MD5=[02e4b9b7573f1156f41e60aa5b4e25a4]
class Company--><rect codeLine="17" fill="#FEFECE" filter="url(#f1bwf6tnkkt8tu)" height="53.8359" id="Company" style="stroke:#A80036;stroke-width:1.5;" width="85" x="241" y="7"/><ellipse cx="256" cy="23" fill="#ADD1B2" rx="11" ry="11" style="stroke:#A80036;stroke-width:1.0;"/><path d="M258,19.5 Q258.2031,19 258.4375,18.75 Q258.6719,18.5 258.9375,18.5 Q259.4063,18.5 259.7031,18.7813 Q260,19.0625 260,19.7188 L260,21.2813 Q260,21.9375 259.7188,22.2188 Q259.4375,22.5 259,22.5 Q258.6094,22.5 258.3594,22.3281 Q258.1094,22.1563 258,21.7031 Q257.9531,21.3906 257.7813,21.2188 Q257.4688,20.8906 256.9063,20.7031 Q256.3438,20.5 255.7813,20.5 Q255.0781,20.5 254.4844,20.7813 Q253.9063,21.0625 253.4531,21.6875 Q253,22.3125 253,23.1719 L253,24.0938 Q253,25.125 253.8438,25.8125 Q254.6875,26.5 256.1875,26.5 Q257.0781,26.5 257.7031,26.2969 Q258.0625,26.1875 258.4688,25.8281 Q258.7344,25.625 258.875,25.5625 Q259.0156,25.5 259.1875,25.5 Q259.5156,25.5 259.75,25.7656 Q260,26.0156 260,26.375 Q260,26.7188 259.6563,27.125 Q259.1563,27.7188 258.3594,28.0469 Q257.3125,28.5 256.0313,28.5 Q254.5313,28.5 253.3281,27.9063 Q252.3594,27.4375 251.6719,26.4219 Q251,25.4063 251,24.2031 L251,23.1094 Q251,21.8594 251.5938,20.7656 Q252.2031,19.6719 253.25,19.0938 Q254.3125,18.5 255.5,18.5 Q256.2188,18.5 256.8438,18.75 Q257.4688,19 258,19.5 Z " fill="#000000"/><text fill="#000000" font-family="sans-serif" font-size="12" lengthAdjust="spacing" textLength="53" x="270" y="27.9102">Company</text><line style="stroke:#A80036;stroke-width:1.5;" x1="242" x2="325" y1="39" y2="39"/><text fill="#000000" font-family="sans-serif" font-size="11" lengthAdjust="spacing" textLength="59" x="247" y="54.4189">-designation</text><!--MD5=[da547346deef918ea16944ba046651ef]
class Administrator--><rect codeLine="21" fill="#FEFECE" filter="url(#f1bwf6tnkkt8tu)" height="136.8516" id="Administrator" style="stroke:#A80036;stroke-width:1.5;" width="105" x="231" y="96.5"/><ellipse cx="246" cy="112.5" fill="#ADD1B2" rx="11" ry="11" style="stroke:#A80036;stroke-width:1.0;"/><path d="M248,109 Q248.2031,108.5 248.4375,108.25 Q248.6719,108 248.9375,108 Q249.4063,108 249.7031,108.2813 Q250,108.5625 250,109.2188 L250,110.7813 Q250,111.4375 249.7188,111.7188 Q249.4375,112 249,112 Q248.6094,112 248.3594,111.8281 Q248.1094,111.6563 248,111.2031 Q247.9531,110.8906 247.7813,110.7188 Q247.4688,110.3906 246.9063,110.2031 Q246.3438,110 245.7813,110 Q245.0781,110 244.4844,110.2813 Q243.9063,110.5625 243.4531,111.1875 Q243,111.8125 243,112.6719 L243,113.5938 Q243,114.625 243.8438,115.3125 Q244.6875,116 246.1875,116 Q247.0781,116 247.7031,115.7969 Q248.0625,115.6875 248.4688,115.3281 Q248.7344,115.125 248.875,115.0625 Q249.0156,115 249.1875,115 Q249.5156,115 249.75,115.2656 Q250,115.5156 250,115.875 Q250,116.2188 249.6563,116.625 Q249.1563,117.2188 248.3594,117.5469 Q247.3125,118 246.0313,118 Q244.5313,118 243.3281,117.4063 Q242.3594,116.9375 241.6719,115.9219 Q241,114.9063 241,113.7031 L241,112.6094 Q241,111.3594 241.5938,110.2656 Q242.2031,109.1719 243.25,108.5938 Q244.3125,108 245.5,108 Q246.2188,108 246.8438,108.25 Q247.4688,108.5 248,109 Z " fill="#000000"/><text fill="#000000" font-family="sans-serif" font-size="12" lengthAdjust="spacing" textLength="73" x="260" y="117.4102">Administrator</text><line style="stroke:#A80036;stroke-width:1.5;" x1="232" x2="335" y1="128.5" y2="128.5"/><text fill="#000000" font-family="sans-serif" font-size="11" lengthAdjust="spacing" textLength="30" x="237" y="143.9189">-name</text><text fill="#000000" font-family="sans-serif" font-size="11" lengthAdjust="spacing" textLength="44" x="237" y="157.7549">-address</text><text fill="#000000" font-family="sans-serif" font-size="11" lengthAdjust="spacing" textLength="71" x="237" y="171.5908">-phoneNumber</text><text fill="#000000" font-family="sans-serif" font-size="11" lengthAdjust="spacing" textLength="59" x="237" y="185.4268">-employeeID</text><text fill="#000000" font-family="sans-serif" font-size="11" lengthAdjust="spacing" textLength="41" x="237" y="199.2627">-orgRole</text><text fill="#000000" font-family="sans-serif" font-size="11" lengthAdjust="spacing" textLength="28" x="237" y="213.0986">-email</text><text fill="#000000" font-family="sans-serif" font-size="11" lengthAdjust="spacing" textLength="50" x="237" y="226.9346">-SOCcode</text><!--MD5=[36afb6bbd95a8ac778c4537c55a683d5]
class ParameterCategory--><rect codeLine="31" fill="#FEFECE" filter="url(#f1bwf6tnkkt8tu)" height="81.5078" id="ParameterCategory" style="stroke:#A80036;stroke-width:1.5;" width="139" x="472" y="124"/><ellipse cx="487" cy="140" fill="#ADD1B2" rx="11" ry="11" style="stroke:#A80036;stroke-width:1.0;"/><path d="M489,136.5 Q489.2031,136 489.4375,135.75 Q489.6719,135.5 489.9375,135.5 Q490.4063,135.5 490.7031,135.7813 Q491,136.0625 491,136.7188 L491,138.2813 Q491,138.9375 490.7188,139.2188 Q490.4375,139.5 490,139.5 Q489.6094,139.5 489.3594,139.3281 Q489.1094,139.1563 489,138.7031 Q488.9531,138.3906 488.7813,138.2188 Q488.4688,137.8906 487.9063,137.7031 Q487.3438,137.5 486.7813,137.5 Q486.0781,137.5 485.4844,137.7813 Q484.9063,138.0625 484.4531,138.6875 Q484,139.3125 484,140.1719 L484,141.0938 Q484,142.125 484.8438,142.8125 Q485.6875,143.5 487.1875,143.5 Q488.0781,143.5 488.7031,143.2969 Q489.0625,143.1875 489.4688,142.8281 Q489.7344,142.625 489.875,142.5625 Q490.0156,142.5 490.1875,142.5 Q490.5156,142.5 490.75,142.7656 Q491,143.0156 491,143.375 Q491,143.7188 490.6563,144.125 Q490.1563,144.7188 489.3594,145.0469 Q488.3125,145.5 487.0313,145.5 Q485.5313,145.5 484.3281,144.9063 Q483.3594,144.4375 482.6719,143.4219 Q482,142.4063 482,141.2031 L482,140.1094 Q482,138.8594 482.5938,137.7656 Q483.2031,136.6719 484.25,136.0938 Q485.3125,135.5 486.5,135.5 Q487.2188,135.5 487.8438,135.75 Q488.4688,136 489,136.5 Z " fill="#000000"/><text fill="#000000" font-family="sans-serif" font-size="12" lengthAdjust="spacing" textLength="107" x="501" y="144.9102">ParameterCategory</text><line style="stroke:#A80036;stroke-width:1.5;" x1="473" x2="610" y1="156" y2="156"/><text fill="#000000" font-family="sans-serif" font-size="11" lengthAdjust="spacing" textLength="28" x="478" y="171.4189">-code</text><text fill="#000000" font-family="sans-serif" font-size="11" lengthAdjust="spacing" textLength="57" x="478" y="185.2549">-description</text><text fill="#000000" font-family="sans-serif" font-size="11" lengthAdjust="spacing" textLength="31" x="478" y="199.0908">-nhsID</text><!--MD5=[aeb3272166074d8737a70b61b1e71682]
class TestType--><rect codeLine="37" fill="#FEFECE" filter="url(#f1bwf6tnkkt8tu)" height="81.5078" id="TestType" style="stroke:#A80036;stroke-width:1.5;" width="96" x="7" y="58"/><ellipse cx="28.3" cy="74" fill="#ADD1B2" rx="11" ry="11" style="stroke:#A80036;stroke-width:1.0;"/><path d="M30.3,70.5 Q30.5031,70 30.7375,69.75 Q30.9719,69.5 31.2375,69.5 Q31.7063,69.5 32.0031,69.7813 Q32.3,70.0625 32.3,70.7188 L32.3,72.2813 Q32.3,72.9375 32.0188,73.2188 Q31.7375,73.5 31.3,73.5 Q30.9094,73.5 30.6594,73.3281 Q30.4094,73.1563 30.3,72.7031 Q30.2531,72.3906 30.0813,72.2188 Q29.7688,71.8906 29.2063,71.7031 Q28.6438,71.5 28.0813,71.5 Q27.3781,71.5 26.7844,71.7813 Q26.2063,72.0625 25.7531,72.6875 Q25.3,73.3125 25.3,74.1719 L25.3,75.0938 Q25.3,76.125 26.1438,76.8125 Q26.9875,77.5 28.4875,77.5 Q29.3781,77.5 30.0031,77.2969 Q30.3625,77.1875 30.7688,76.8281 Q31.0344,76.625 31.175,76.5625 Q31.3156,76.5 31.4875,76.5 Q31.8156,76.5 32.05,76.7656 Q32.3,77.0156 32.3,77.375 Q32.3,77.7188 31.9563,78.125 Q31.4563,78.7188 30.6594,79.0469 Q29.6125,79.5 28.3313,79.5 Q26.8313,79.5 25.6281,78.9063 Q24.6594,78.4375 23.9719,77.4219 Q23.3,76.4063 23.3,75.2031 L23.3,74.1094 Q23.3,72.8594 23.8938,71.7656 Q24.5031,70.6719 25.55,70.0938 Q26.6125,69.5 27.8,69.5 Q28.5188,69.5 29.1438,69.75 Q29.7688,70 30.3,70.5 Z " fill="#000000"/><text fill="#000000" font-family="sans-serif" font-size="12" lengthAdjust="spacing" textLength="50" x="43.7" y="78.9102">TestType</text><line style="stroke:#A80036;stroke-width:1.5;" x1="8" x2="102" y1="90" y2="90"/><text fill="#000000" font-family="sans-serif" font-size="11" lengthAdjust="spacing" textLength="28" x="13" y="105.4189">-code</text><text fill="#000000" font-family="sans-serif" font-size="11" lengthAdjust="spacing" textLength="57" x="13" y="119.2549">-description</text><text fill="#000000" font-family="sans-serif" font-size="11" lengthAdjust="spacing" textLength="84" x="13" y="133.0908">-collectingMethod</text><!--MD5=[6d9eb9a083ac0654c8b63743033752d3]
link TestType to Company--><path codeLine="9" d="M103.21,85.45 C143.79,73.81 201.76,57.17 240.69,46 " fill="none" id="TestType-Company" style="stroke:#A80036;stroke-width:1.0;"/><polygon fill="#000000" points="133.194,51.5549,142.6988,51.885,141.0776,46.2351,133.194,51.5549" style="stroke:#000000;stroke-width:1.0;"/><text fill="#000000" font-family="sans-serif" font-size="13" lengthAdjust="spacing" textLength="53" x="147" y="55.4951">conducts</text><text fill="#000000" font-family="sans-serif" font-size="13" lengthAdjust="spacing" textLength="5" x="110.975" y="98.1599">*</text><text fill="#000000" font-family="sans-serif" font-size="13" lengthAdjust="spacing" textLength="7" x="226.0199" y="62.8503">1</text><!--MD5=[0985ee834cc881275852ed47ce1e01f6]
link TestType to Administrator--><path codeLine="11" d="M103.21,112.76 C140.42,123.6 192.25,138.7 230.61,149.88 " fill="none" id="TestType-Administrator" style="stroke:#A80036;stroke-width:1.0;"/><polygon fill="#000000" points="138.1996,111.7771,146.0615,117.1289,147.7057,111.4857,138.1996,111.7771" style="stroke:#000000;stroke-width:1.0;"/><text fill="#000000" font-family="sans-serif" font-size="13" lengthAdjust="spacing" textLength="43" x="152" y="118.4951">creates</text><text fill="#000000" font-family="sans-serif" font-size="13" lengthAdjust="spacing" textLength="5" x="110.975" y="129.6517">*</text><text fill="#000000" font-family="sans-serif" font-size="13" lengthAdjust="spacing" textLength="7" x="216.0326" y="162.452">1</text><!--MD5=[7144ffdeebbe38808f7fb2ce8ac24f7d]
link Administrator to ParameterCategory--><path codeLine="13" d="M336.31,165 C375.31,165 429.17,165 471.78,165 " fill="none" id="Administrator-ParameterCategory" style="stroke:#A80036;stroke-width:1.0;"/><polygon fill="#000000" points="366,156.1758,375.0451,159.1147,375.0451,153.2369,366,156.1758" style="stroke:#000000;stroke-width:1.0;"/><text fill="#000000" font-family="sans-serif" font-size="13" lengthAdjust="spacing" textLength="61" x="380" y="161.4951">created by</text><text fill="#000000" font-family="sans-serif" font-size="13" lengthAdjust="spacing" textLength="7" x="343.8767" y="179.6037">1</text><text fill="#000000" font-family="sans-serif" font-size="13" lengthAdjust="spacing" textLength="5" x="458.8809" y="179.4163">*</text><!--MD5=[899e21f08ed564255f4907147bef720d]
@startuml
hide methods
left to right direction

class Company
class Administrator
class ParameterCategory
class TestType

TestType "*" - - "1" Company : < conducts

TestType "*" - - "1" Administrator : < creates

Administrator "1" - - "*" ParameterCategory : < created by

skinparam classAttributeIconSize 0

class Company{
-designation
}

class Administrator{
-name
-address
-phoneNumber
-employeeID
-orgRole
-email
-SOCcode
}

class ParameterCategory{
-code
-description
-nhsID
}

class TestType{
-code
-description
-collectingMethod
}

@enduml

PlantUML version 1.2021.4(Sun Apr 04 09:49:39 BST 2021)
(GPL source distribution)
Java Runtime: OpenJDK Runtime Environment
JVM: OpenJDK 64-Bit Server VM
Default Encoding: Cp1252
Language: pt
Country: PT
--></g></svg>