<?xml version="1.0" encoding="UTF-8" standalone="no"?><svg xmlns="http://www.w3.org/2000/svg" xmlns:xlink="http://www.w3.org/1999/xlink" contentScriptType="application/ecmascript" contentStyleType="text/css" height="577.5px" preserveAspectRatio="none" style="width:2027px;height:577px;" version="1.1" viewBox="0 0 2027 577" width="2027.5px" zoomAndPan="magnify"><defs><filter height="300%" id="f1rg3dl4zv3th7" width="300%" x="-1" y="-1"><feGaussianBlur result="blurOut" stdDeviation="2.5"/><feColorMatrix in="blurOut" result="blurOut2" type="matrix" values="0 0 0 0 0 0 0 0 0 0 0 0 0 0 0 0 0 0 .4 0"/><feOffset dx="5.0" dy="5.0" in="blurOut2" result="blurOut3"/><feBlend in="SourceGraphic" in2="blurOut3" mode="normal"/></filter></defs><g><!--MD5=[378b18254a1b2429f435e93f5e5cc50c]
class C--><rect codeLine="4" fill="#FEFECE" filter="url(#f1rg3dl4zv3th7)" height="111.8848" id="C" style="stroke:#A80036;stroke-width:1.875;" width="200" x="787.5" y="96.25"/><ellipse cx="849.0625" cy="116.25" fill="#ADD1B2" rx="13.75" ry="13.75" style="stroke:#A80036;stroke-width:1.25;"/><path d="M851.5625,111.875 Q851.8164,111.25 852.1094,110.9375 Q852.4023,110.625 852.7344,110.625 Q853.3203,110.625 853.6914,110.9766 Q854.0625,111.3281 854.0625,112.1484 L854.0625,114.1016 Q854.0625,114.9219 853.7109,115.2734 Q853.3594,115.625 852.8125,115.625 Q852.3242,115.625 852.0117,115.4102 Q851.6992,115.1953 851.5625,114.6289 Q851.5039,114.2383 851.2891,114.0234 Q850.8984,113.6133 850.1953,113.3789 Q849.4922,113.125 848.7891,113.125 Q847.9102,113.125 847.168,113.4766 Q846.4453,113.8281 845.8789,114.6094 Q845.3125,115.3906 845.3125,116.4648 L845.3125,117.6172 Q845.3125,118.9063 846.3672,119.7656 Q847.4219,120.625 849.2969,120.625 Q850.4102,120.625 851.1914,120.3711 Q851.6406,120.2344 852.1484,119.7852 Q852.4805,119.5313 852.6563,119.4531 Q852.832,119.375 853.0469,119.375 Q853.457,119.375 853.75,119.707 Q854.0625,120.0195 854.0625,120.4688 Q854.0625,120.8984 853.6328,121.4063 Q853.0078,122.1484 852.0117,122.5586 Q850.7031,123.125 849.1016,123.125 Q847.2266,123.125 845.7227,122.3828 Q844.5117,121.7969 843.6523,120.5273 Q842.8125,119.2578 842.8125,117.7539 L842.8125,116.3867 Q842.8125,114.8242 843.5547,113.457 Q844.3164,112.0898 845.625,111.3672 Q846.9531,110.625 848.4375,110.625 Q849.3359,110.625 850.1172,110.9375 Q850.8984,111.25 851.5625,111.875 Z " fill="#000000"/><text fill="#000000" font-family="sans-serif" font-size="15" lengthAdjust="spacing" textLength="66.25" x="874.6875" y="122.3877">Company</text><line style="stroke:#A80036;stroke-width:1.875;" x1="788.75" x2="986.25" y1="136.25" y2="136.25"/><text fill="#000000" font-family="sans-serif" font-size="13.75" lengthAdjust="spacing" textLength="112.5" x="795" y="155.5237">-String designation</text><line style="stroke:#A80036;stroke-width:1.875;" x1="788.75" x2="986.25" y1="163.5449" y2="163.5449"/><text fill="#000000" font-family="sans-serif" font-size="13.75" lengthAdjust="spacing" textLength="125" x="795" y="182.8186">+getTestTypeStore()</text><text fill="#000000" font-family="sans-serif" font-size="13.75" lengthAdjust="spacing" textLength="185" x="795" y="200.1135">+getParameterCategoryStore()</text><!--MD5=[606124dbd33b65145bd2d31e230d6615]
class cNM--><rect codeLine="10" fill="#FEFECE" filter="url(#f1rg3dl4zv3th7)" height="77.2949" id="cNM" style="stroke:#A80036;stroke-width:1.875;" width="345" x="715" y="483.75"/><ellipse cx="799.0625" cy="503.75" fill="#ADD1B2" rx="13.75" ry="13.75" style="stroke:#A80036;stroke-width:1.25;"/><path d="M801.5625,499.375 Q801.8164,498.75 802.1094,498.4375 Q802.4023,498.125 802.7344,498.125 Q803.3203,498.125 803.6914,498.4766 Q804.0625,498.8281 804.0625,499.6484 L804.0625,501.6016 Q804.0625,502.4219 803.7109,502.7734 Q803.3594,503.125 802.8125,503.125 Q802.3242,503.125 802.0117,502.9102 Q801.6992,502.6953 801.5625,502.1289 Q801.5039,501.7383 801.2891,501.5234 Q800.8984,501.1133 800.1953,500.8789 Q799.4922,500.625 798.7891,500.625 Q797.9102,500.625 797.168,500.9766 Q796.4453,501.3281 795.8789,502.1094 Q795.3125,502.8906 795.3125,503.9648 L795.3125,505.1172 Q795.3125,506.4063 796.3672,507.2656 Q797.4219,508.125 799.2969,508.125 Q800.4102,508.125 801.1914,507.8711 Q801.6406,507.7344 802.1484,507.2852 Q802.4805,507.0313 802.6563,506.9531 Q802.832,506.875 803.0469,506.875 Q803.457,506.875 803.75,507.207 Q804.0625,507.5195 804.0625,507.9688 Q804.0625,508.3984 803.6328,508.9063 Q803.0078,509.6484 802.0117,510.0586 Q800.7031,510.625 799.1016,510.625 Q797.2266,510.625 795.7227,509.8828 Q794.5117,509.2969 793.6523,508.0273 Q792.8125,506.7578 792.8125,505.2539 L792.8125,503.8867 Q792.8125,502.3242 793.5547,500.957 Q794.3164,499.5898 795.625,498.8672 Q796.9531,498.125 798.4375,498.125 Q799.3359,498.125 800.1172,498.4375 Q800.8984,498.75 801.5625,499.375 Z " fill="#000000"/><text fill="#000000" font-family="sans-serif" font-size="15" lengthAdjust="spacing" textLength="166.25" x="824.6875" y="509.8877">categoriesNameMapper</text><line style="stroke:#A80036;stroke-width:1.875;" x1="716.25" x2="1058.75" y1="523.75" y2="523.75"/><line style="stroke:#A80036;stroke-width:1.875;" x1="716.25" x2="1058.75" y1="533.75" y2="533.75"/><text fill="#000000" font-family="sans-serif" font-size="13.75" lengthAdjust="spacing" textLength="330" x="722.5" y="553.0237">+List &lt;ParameterCategory&gt; toDTO(listCategoriesName)</text><!--MD5=[0c21d7a5a5555e4278001068caacbd33]
class TTS--><rect codeLine="14" fill="#FEFECE" filter="url(#f1rg3dl4zv3th7)" height="129.1797" id="TTS" style="stroke:#A80036;stroke-width:1.875;" width="333.75" x="276.875" y="86.875"/><ellipse cx="389.0625" cy="106.875" fill="#ADD1B2" rx="13.75" ry="13.75" style="stroke:#A80036;stroke-width:1.25;"/><path d="M391.5625,102.5 Q391.8164,101.875 392.1094,101.5625 Q392.4023,101.25 392.7344,101.25 Q393.3203,101.25 393.6914,101.6016 Q394.0625,101.9531 394.0625,102.7734 L394.0625,104.7266 Q394.0625,105.5469 393.7109,105.8984 Q393.3594,106.25 392.8125,106.25 Q392.3242,106.25 392.0117,106.0352 Q391.6992,105.8203 391.5625,105.2539 Q391.5039,104.8633 391.2891,104.6484 Q390.8984,104.2383 390.1953,104.0039 Q389.4922,103.75 388.7891,103.75 Q387.9102,103.75 387.168,104.1016 Q386.4453,104.4531 385.8789,105.2344 Q385.3125,106.0156 385.3125,107.0898 L385.3125,108.2422 Q385.3125,109.5313 386.3672,110.3906 Q387.4219,111.25 389.2969,111.25 Q390.4102,111.25 391.1914,110.9961 Q391.6406,110.8594 392.1484,110.4102 Q392.4805,110.1563 392.6563,110.0781 Q392.832,110 393.0469,110 Q393.457,110 393.75,110.332 Q394.0625,110.6445 394.0625,111.0938 Q394.0625,111.5234 393.6328,112.0313 Q393.0078,112.7734 392.0117,113.1836 Q390.7031,113.75 389.1016,113.75 Q387.2266,113.75 385.7227,113.0078 Q384.5117,112.4219 383.6523,111.1523 Q382.8125,109.8828 382.8125,108.3789 L382.8125,107.0117 Q382.8125,105.4492 383.5547,104.082 Q384.3164,102.7148 385.625,101.9922 Q386.9531,101.25 388.4375,101.25 Q389.3359,101.25 390.1172,101.5625 Q390.8984,101.875 391.5625,102.5 Z " fill="#000000"/><text fill="#000000" font-family="sans-serif" font-size="15" lengthAdjust="spacing" textLength="98.75" x="414.6875" y="113.0127">TestTypeStore</text><line style="stroke:#A80036;stroke-width:1.875;" x1="278.125" x2="609.375" y1="126.875" y2="126.875"/><line style="stroke:#A80036;stroke-width:1.875;" x1="278.125" x2="609.375" y1="136.875" y2="136.875"/><text fill="#000000" font-family="sans-serif" font-size="13.75" lengthAdjust="spacing" textLength="318.75" x="284.375" y="156.1487">+boolean create(code, description, collectingMethod)</text><text fill="#000000" font-family="sans-serif" font-size="13.75" lengthAdjust="spacing" textLength="122.5" x="284.375" y="173.4436">+boolean validate(tt)</text><text fill="#000000" font-family="sans-serif" font-size="13.75" lengthAdjust="spacing" textLength="93.75" x="284.375" y="190.7385">+bollean add(tt)</text><text fill="#000000" font-family="sans-serif" font-size="13.75" lengthAdjust="spacing" textLength="215" x="284.375" y="208.0334">+List &lt;TestType&gt; getAllTestTypes()</text><!--MD5=[2628f93c2b91159b8b11117185f029f9]
class PCS--><rect codeLine="21" fill="#FEFECE" filter="url(#f1rg3dl4zv3th7)" height="77.2949" id="PCS" style="stroke:#A80036;stroke-width:1.875;" width="352.5" x="1270.625" y="8.75"/><ellipse cx="1356.5625" cy="28.75" fill="#ADD1B2" rx="13.75" ry="13.75" style="stroke:#A80036;stroke-width:1.25;"/><path d="M1359.0625,24.375 Q1359.3164,23.75 1359.6094,23.4375 Q1359.9023,23.125 1360.2344,23.125 Q1360.8203,23.125 1361.1914,23.4766 Q1361.5625,23.8281 1361.5625,24.6484 L1361.5625,26.6016 Q1361.5625,27.4219 1361.2109,27.7734 Q1360.8594,28.125 1360.3125,28.125 Q1359.8242,28.125 1359.5117,27.9102 Q1359.1992,27.6953 1359.0625,27.1289 Q1359.0039,26.7383 1358.7891,26.5234 Q1358.3984,26.1133 1357.6953,25.8789 Q1356.9922,25.625 1356.2891,25.625 Q1355.4102,25.625 1354.668,25.9766 Q1353.9453,26.3281 1353.3789,27.1094 Q1352.8125,27.8906 1352.8125,28.9648 L1352.8125,30.1172 Q1352.8125,31.4063 1353.8672,32.2656 Q1354.9219,33.125 1356.7969,33.125 Q1357.9102,33.125 1358.6914,32.8711 Q1359.1406,32.7344 1359.6484,32.2852 Q1359.9805,32.0313 1360.1563,31.9531 Q1360.332,31.875 1360.5469,31.875 Q1360.957,31.875 1361.25,32.207 Q1361.5625,32.5195 1361.5625,32.9688 Q1361.5625,33.3984 1361.1328,33.9063 Q1360.5078,34.6484 1359.5117,35.0586 Q1358.2031,35.625 1356.6016,35.625 Q1354.7266,35.625 1353.2227,34.8828 Q1352.0117,34.2969 1351.1523,33.0273 Q1350.3125,31.7578 1350.3125,30.2539 L1350.3125,28.8867 Q1350.3125,27.3242 1351.0547,25.957 Q1351.8164,24.5898 1353.125,23.8672 Q1354.4531,23.125 1355.9375,23.125 Q1356.8359,23.125 1357.6172,23.4375 Q1358.3984,23.75 1359.0625,24.375 Z " fill="#000000"/><text fill="#000000" font-family="sans-serif" font-size="15" lengthAdjust="spacing" textLength="170" x="1382.1875" y="34.8877">ParameterCategoryStore</text><line style="stroke:#A80036;stroke-width:1.875;" x1="1271.875" x2="1621.875" y1="48.75" y2="48.75"/><line style="stroke:#A80036;stroke-width:1.875;" x1="1271.875" x2="1621.875" y1="58.75" y2="58.75"/><text fill="#000000" font-family="sans-serif" font-size="13.75" lengthAdjust="spacing" textLength="337.5" x="1278.125" y="78.0237">+List &lt;ParameterCategory&gt; getAllParameterCategories()</text><!--MD5=[f76673142371ead9f091198193c4bd63]
class TT--><rect codeLine="52" fill="#FEFECE" filter="url(#f1rg3dl4zv3th7)" height="146.4746" id="TT" style="stroke:#A80036;stroke-width:1.875;" width="433.75" x="1230" y="240.625"/><ellipse cx="1410.3125" cy="260.625" fill="#ADD1B2" rx="13.75" ry="13.75" style="stroke:#A80036;stroke-width:1.25;"/><path d="M1412.8125,256.25 Q1413.0664,255.625 1413.3594,255.3125 Q1413.6523,255 1413.9844,255 Q1414.5703,255 1414.9414,255.3516 Q1415.3125,255.7031 1415.3125,256.5234 L1415.3125,258.4766 Q1415.3125,259.2969 1414.9609,259.6484 Q1414.6094,260 1414.0625,260 Q1413.5742,260 1413.2617,259.7852 Q1412.9492,259.5703 1412.8125,259.0039 Q1412.7539,258.6133 1412.5391,258.3984 Q1412.1484,257.9883 1411.4453,257.7539 Q1410.7422,257.5 1410.0391,257.5 Q1409.1602,257.5 1408.418,257.8516 Q1407.6953,258.2031 1407.1289,258.9844 Q1406.5625,259.7656 1406.5625,260.8398 L1406.5625,261.9922 Q1406.5625,263.2813 1407.6172,264.1406 Q1408.6719,265 1410.5469,265 Q1411.6602,265 1412.4414,264.7461 Q1412.8906,264.6094 1413.3984,264.1602 Q1413.7305,263.9063 1413.9063,263.8281 Q1414.082,263.75 1414.2969,263.75 Q1414.707,263.75 1415,264.082 Q1415.3125,264.3945 1415.3125,264.8438 Q1415.3125,265.2734 1414.8828,265.7813 Q1414.2578,266.5234 1413.2617,266.9336 Q1411.9531,267.5 1410.3516,267.5 Q1408.4766,267.5 1406.9727,266.7578 Q1405.7617,266.1719 1404.9023,264.9023 Q1404.0625,263.6328 1404.0625,262.1289 L1404.0625,260.7617 Q1404.0625,259.1992 1404.8047,257.832 Q1405.5664,256.4648 1406.875,255.7422 Q1408.2031,255 1409.6875,255 Q1410.5859,255 1411.3672,255.3125 Q1412.1484,255.625 1412.8125,256.25 Z " fill="#000000"/><text fill="#000000" font-family="sans-serif" font-size="15" lengthAdjust="spacing" textLength="62.5" x="1435.9375" y="266.7627">TestType</text><line style="stroke:#A80036;stroke-width:1.875;" x1="1231.25" x2="1662.5" y1="280.625" y2="280.625"/><text fill="#000000" font-family="sans-serif" font-size="13.75" lengthAdjust="spacing" textLength="73.75" x="1237.5" y="299.8987">-String code</text><text fill="#000000" font-family="sans-serif" font-size="13.75" lengthAdjust="spacing" textLength="110" x="1237.5" y="317.1936">-String description</text><text fill="#000000" font-family="sans-serif" font-size="13.75" lengthAdjust="spacing" textLength="143.75" x="1237.5" y="334.4885">-String collectingMethod</text><text fill="#000000" font-family="sans-serif" font-size="13.75" lengthAdjust="spacing" textLength="291.25" x="1237.5" y="351.7834">-List &lt;ParameterCategory&gt; ParameterCategories</text><line style="stroke:#A80036;stroke-width:1.875;" x1="1231.25" x2="1662.5" y1="359.8047" y2="359.8047"/><text fill="#000000" font-family="sans-serif" font-size="13.75" lengthAdjust="spacing" textLength="418.75" x="1237.5" y="379.0784">+TestType(code, description, collectingMethod, ParameterCategories)</text><!--MD5=[0db42b3591f13a48474e506cf6fbc101]
class CTTC--><rect codeLine="53" fill="#FEFECE" filter="url(#f1rg3dl4zv3th7)" height="111.8848" id="CTTC" style="stroke:#A80036;stroke-width:1.875;" width="390" x="248.75" y="260"/><ellipse cx="350.3125" cy="280" fill="#ADD1B2" rx="13.75" ry="13.75" style="stroke:#A80036;stroke-width:1.25;"/><path d="M352.8125,275.625 Q353.0664,275 353.3594,274.6875 Q353.6523,274.375 353.9844,274.375 Q354.5703,274.375 354.9414,274.7266 Q355.3125,275.0781 355.3125,275.8984 L355.3125,277.8516 Q355.3125,278.6719 354.9609,279.0234 Q354.6094,279.375 354.0625,279.375 Q353.5742,279.375 353.2617,279.1602 Q352.9492,278.9453 352.8125,278.3789 Q352.7539,277.9883 352.5391,277.7734 Q352.1484,277.3633 351.4453,277.1289 Q350.7422,276.875 350.0391,276.875 Q349.1602,276.875 348.418,277.2266 Q347.6953,277.5781 347.1289,278.3594 Q346.5625,279.1406 346.5625,280.2148 L346.5625,281.3672 Q346.5625,282.6563 347.6172,283.5156 Q348.6719,284.375 350.5469,284.375 Q351.6602,284.375 352.4414,284.1211 Q352.8906,283.9844 353.3984,283.5352 Q353.7305,283.2813 353.9063,283.2031 Q354.082,283.125 354.2969,283.125 Q354.707,283.125 355,283.457 Q355.3125,283.7695 355.3125,284.2188 Q355.3125,284.6484 354.8828,285.1563 Q354.2578,285.8984 353.2617,286.3086 Q351.9531,286.875 350.3516,286.875 Q348.4766,286.875 346.9727,286.1328 Q345.7617,285.5469 344.9023,284.2773 Q344.0625,283.0078 344.0625,281.5039 L344.0625,280.1367 Q344.0625,278.5742 344.8047,277.207 Q345.5664,275.8398 346.875,275.1172 Q348.2031,274.375 349.6875,274.375 Q350.5859,274.375 351.3672,274.6875 Q352.1484,275 352.8125,275.625 Z " fill="#000000"/><text fill="#000000" font-family="sans-serif" font-size="15" lengthAdjust="spacing" textLength="176.25" x="375.9375" y="286.1377">CreateTestTypeController</text><line style="stroke:#A80036;stroke-width:1.875;" x1="250" x2="637.5" y1="300" y2="300"/><line style="stroke:#A80036;stroke-width:1.875;" x1="250" x2="637.5" y1="310" y2="310"/><text fill="#000000" font-family="sans-serif" font-size="13.75" lengthAdjust="spacing" textLength="375" x="256.25" y="329.2737">+boolean createTestType(code, description, collectingMethod)</text><text fill="#000000" font-family="sans-serif" font-size="13.75" lengthAdjust="spacing" textLength="171.25" x="256.25" y="346.5686">+boolean validateTestType()</text><text fill="#000000" font-family="sans-serif" font-size="13.75" lengthAdjust="spacing" textLength="155" x="256.25" y="363.8635">+boolean saveTestType()</text><!--MD5=[56e4c9075fa7c9f4c09ef0a20c49f72c]
class T--><rect codeLine="39" fill="#FEFECE" filter="url(#f1rg3dl4zv3th7)" height="111.8848" id="T" style="stroke:#A80036;stroke-width:1.875;" width="158.75" x="1843.75" y="448.75"/><ellipse cx="1902.8125" cy="468.75" fill="#ADD1B2" rx="13.75" ry="13.75" style="stroke:#A80036;stroke-width:1.25;"/><path d="M1905.3125,464.375 Q1905.5664,463.75 1905.8594,463.4375 Q1906.1523,463.125 1906.4844,463.125 Q1907.0703,463.125 1907.4414,463.4766 Q1907.8125,463.8281 1907.8125,464.6484 L1907.8125,466.6016 Q1907.8125,467.4219 1907.4609,467.7734 Q1907.1094,468.125 1906.5625,468.125 Q1906.0742,468.125 1905.7617,467.9102 Q1905.4492,467.6953 1905.3125,467.1289 Q1905.2539,466.7383 1905.0391,466.5234 Q1904.6484,466.1133 1903.9453,465.8789 Q1903.2422,465.625 1902.5391,465.625 Q1901.6602,465.625 1900.918,465.9766 Q1900.1953,466.3281 1899.6289,467.1094 Q1899.0625,467.8906 1899.0625,468.9648 L1899.0625,470.1172 Q1899.0625,471.4063 1900.1172,472.2656 Q1901.1719,473.125 1903.0469,473.125 Q1904.1602,473.125 1904.9414,472.8711 Q1905.3906,472.7344 1905.8984,472.2852 Q1906.2305,472.0313 1906.4063,471.9531 Q1906.582,471.875 1906.7969,471.875 Q1907.207,471.875 1907.5,472.207 Q1907.8125,472.5195 1907.8125,472.9688 Q1907.8125,473.3984 1907.3828,473.9063 Q1906.7578,474.6484 1905.7617,475.0586 Q1904.4531,475.625 1902.8516,475.625 Q1900.9766,475.625 1899.4727,474.8828 Q1898.2617,474.2969 1897.4023,473.0273 Q1896.5625,471.7578 1896.5625,470.2539 L1896.5625,468.8867 Q1896.5625,467.3242 1897.3047,465.957 Q1898.0664,464.5898 1899.375,463.8672 Q1900.7031,463.125 1902.1875,463.125 Q1903.0859,463.125 1903.8672,463.4375 Q1904.6484,463.75 1905.3125,464.375 Z " fill="#000000"/><text fill="#000000" font-family="sans-serif" font-size="15" lengthAdjust="spacing" textLength="30" x="1928.4375" y="474.8877">Test</text><line style="stroke:#A80036;stroke-width:1.875;" x1="1845" x2="2001.25" y1="488.75" y2="488.75"/><text fill="#000000" font-family="sans-serif" font-size="13.75" lengthAdjust="spacing" textLength="73.75" x="1851.25" y="508.0237">-String code</text><text fill="#000000" font-family="sans-serif" font-size="13.75" lengthAdjust="spacing" textLength="110" x="1851.25" y="525.3186">-String description</text><text fill="#000000" font-family="sans-serif" font-size="13.75" lengthAdjust="spacing" textLength="143.75" x="1851.25" y="542.6135">-String collectingMethod</text><line style="stroke:#A80036;stroke-width:1.875;" x1="1845" x2="2001.25" y1="550.6348" y2="550.6348"/><!--MD5=[218f71f443b9e0720bb96dd9df1d4749]
class PC--><rect codeLine="45" fill="#FEFECE" filter="url(#f1rg3dl4zv3th7)" height="111.8848" id="PC" style="stroke:#A80036;stroke-width:1.875;" width="173.75" x="1836.25" y="257.5"/><ellipse cx="1855" cy="277.5" fill="#ADD1B2" rx="13.75" ry="13.75" style="stroke:#A80036;stroke-width:1.25;"/><path d="M1857.5,273.125 Q1857.7539,272.5 1858.0469,272.1875 Q1858.3398,271.875 1858.6719,271.875 Q1859.2578,271.875 1859.6289,272.2266 Q1860,272.5781 1860,273.3984 L1860,275.3516 Q1860,276.1719 1859.6484,276.5234 Q1859.2969,276.875 1858.75,276.875 Q1858.2617,276.875 1857.9492,276.6602 Q1857.6367,276.4453 1857.5,275.8789 Q1857.4414,275.4883 1857.2266,275.2734 Q1856.8359,274.8633 1856.1328,274.6289 Q1855.4297,274.375 1854.7266,274.375 Q1853.8477,274.375 1853.1055,274.7266 Q1852.3828,275.0781 1851.8164,275.8594 Q1851.25,276.6406 1851.25,277.7148 L1851.25,278.8672 Q1851.25,280.1563 1852.3047,281.0156 Q1853.3594,281.875 1855.2344,281.875 Q1856.3477,281.875 1857.1289,281.6211 Q1857.5781,281.4844 1858.0859,281.0352 Q1858.418,280.7813 1858.5938,280.7031 Q1858.7695,280.625 1858.9844,280.625 Q1859.3945,280.625 1859.6875,280.957 Q1860,281.2695 1860,281.7188 Q1860,282.1484 1859.5703,282.6563 Q1858.9453,283.3984 1857.9492,283.8086 Q1856.6406,284.375 1855.0391,284.375 Q1853.1641,284.375 1851.6602,283.6328 Q1850.4492,283.0469 1849.5898,281.7773 Q1848.75,280.5078 1848.75,279.0039 L1848.75,277.6367 Q1848.75,276.0742 1849.4922,274.707 Q1850.2539,273.3398 1851.5625,272.6172 Q1852.8906,271.875 1854.375,271.875 Q1855.2734,271.875 1856.0547,272.1875 Q1856.8359,272.5 1857.5,273.125 Z " fill="#000000"/><text fill="#000000" font-family="sans-serif" font-size="15" lengthAdjust="spacing" textLength="133.75" x="1872.5" y="283.6377">ParameterCategory</text><line style="stroke:#A80036;stroke-width:1.875;" x1="1837.5" x2="2008.75" y1="297.5" y2="297.5"/><text fill="#000000" font-family="sans-serif" font-size="13.75" lengthAdjust="spacing" textLength="73.75" x="1843.75" y="316.7737">-String code</text><text fill="#000000" font-family="sans-serif" font-size="13.75" lengthAdjust="spacing" textLength="110" x="1843.75" y="334.0686">-String description</text><text fill="#000000" font-family="sans-serif" font-size="13.75" lengthAdjust="spacing" textLength="77.5" x="1843.75" y="351.3635">-String nhsID</text><line style="stroke:#A80036;stroke-width:1.875;" x1="1837.5" x2="2008.75" y1="359.3848" y2="359.3848"/><!--MD5=[6461a74477876ab4a04549c978c1a07a]
class CTTUI--><rect codeLine="51" fill="#FEFECE" filter="url(#f1rg3dl4zv3th7)" height="60" id="CTTUI" style="stroke:#A80036;stroke-width:1.875;" width="163.75" x="8.75" y="286.25"/><ellipse cx="27.5" cy="306.25" fill="#ADD1B2" rx="13.75" ry="13.75" style="stroke:#A80036;stroke-width:1.25;"/><path d="M30,301.875 Q30.2539,301.25 30.5469,300.9375 Q30.8398,300.625 31.1719,300.625 Q31.7578,300.625 32.1289,300.9766 Q32.5,301.3281 32.5,302.1484 L32.5,304.1016 Q32.5,304.9219 32.1484,305.2734 Q31.7969,305.625 31.25,305.625 Q30.7617,305.625 30.4492,305.4102 Q30.1367,305.1953 30,304.6289 Q29.9414,304.2383 29.7266,304.0234 Q29.3359,303.6133 28.6328,303.3789 Q27.9297,303.125 27.2266,303.125 Q26.3477,303.125 25.6055,303.4766 Q24.8828,303.8281 24.3164,304.6094 Q23.75,305.3906 23.75,306.4648 L23.75,307.6172 Q23.75,308.9063 24.8047,309.7656 Q25.8594,310.625 27.7344,310.625 Q28.8477,310.625 29.6289,310.3711 Q30.0781,310.2344 30.5859,309.7852 Q30.918,309.5313 31.0938,309.4531 Q31.2695,309.375 31.4844,309.375 Q31.8945,309.375 32.1875,309.707 Q32.5,310.0195 32.5,310.4688 Q32.5,310.8984 32.0703,311.4063 Q31.4453,312.1484 30.4492,312.5586 Q29.1406,313.125 27.5391,313.125 Q25.6641,313.125 24.1602,312.3828 Q22.9492,311.7969 22.0898,310.5273 Q21.25,309.2578 21.25,307.7539 L21.25,306.3867 Q21.25,304.8242 21.9922,303.457 Q22.7539,302.0898 24.0625,301.3672 Q25.3906,300.625 26.875,300.625 Q27.7734,300.625 28.5547,300.9375 Q29.3359,301.25 30,301.875 Z " fill="#000000"/><text fill="#000000" font-family="sans-serif" font-size="15" lengthAdjust="spacing" textLength="123.75" x="45" y="312.3877">CreateTestTypeUI</text><line style="stroke:#A80036;stroke-width:1.875;" x1="10" x2="171.25" y1="326.25" y2="326.25"/><line style="stroke:#A80036;stroke-width:1.875;" x1="10" x2="171.25" y1="336.25" y2="336.25"/><!--MD5=[3e435d042affccde68262619adda5b81]
class admin--><rect codeLine="54" fill="#FEFECE" filter="url(#f1rg3dl4zv3th7)" height="60" id="admin" style="stroke:#A80036;stroke-width:1.875;" width="131.25" x="821.875" y="380"/><ellipse cx="840.625" cy="400" fill="#ADD1B2" rx="13.75" ry="13.75" style="stroke:#A80036;stroke-width:1.25;"/><path d="M843.125,395.625 Q843.3789,395 843.6719,394.6875 Q843.9648,394.375 844.2969,394.375 Q844.8828,394.375 845.2539,394.7266 Q845.625,395.0781 845.625,395.8984 L845.625,397.8516 Q845.625,398.6719 845.2734,399.0234 Q844.9219,399.375 844.375,399.375 Q843.8867,399.375 843.5742,399.1602 Q843.2617,398.9453 843.125,398.3789 Q843.0664,397.9883 842.8516,397.7734 Q842.4609,397.3633 841.7578,397.1289 Q841.0547,396.875 840.3516,396.875 Q839.4727,396.875 838.7305,397.2266 Q838.0078,397.5781 837.4414,398.3594 Q836.875,399.1406 836.875,400.2148 L836.875,401.3672 Q836.875,402.6563 837.9297,403.5156 Q838.9844,404.375 840.8594,404.375 Q841.9727,404.375 842.7539,404.1211 Q843.2031,403.9844 843.7109,403.5352 Q844.043,403.2813 844.2188,403.2031 Q844.3945,403.125 844.6094,403.125 Q845.0195,403.125 845.3125,403.457 Q845.625,403.7695 845.625,404.2188 Q845.625,404.6484 845.1953,405.1563 Q844.5703,405.8984 843.5742,406.3086 Q842.2656,406.875 840.6641,406.875 Q838.7891,406.875 837.2852,406.1328 Q836.0742,405.5469 835.2148,404.2773 Q834.375,403.0078 834.375,401.5039 L834.375,400.1367 Q834.375,398.5742 835.1172,397.207 Q835.8789,395.8398 837.1875,395.1172 Q838.5156,394.375 840,394.375 Q840.8984,394.375 841.6797,394.6875 Q842.4609,395 843.125,395.625 Z " fill="#000000"/><text fill="#000000" font-family="sans-serif" font-size="15" lengthAdjust="spacing" textLength="91.25" x="858.125" y="406.1377">Administrator</text><line style="stroke:#A80036;stroke-width:1.875;" x1="823.125" x2="951.875" y1="420" y2="420"/><line style="stroke:#A80036;stroke-width:1.875;" x1="823.125" x2="951.875" y1="430" y2="430"/><!--MD5=[320690cba070b8468face0bfd1ce9533]
link CTTUI to CTTC--><path codeLine="56" d="M172.75,316.25 C194.0125,316.25 217.9,316.25 242.4625,316.25 " fill="none" id="CTTUI-to-CTTC" style="stroke:#A80036;stroke-width:1.25;stroke-dasharray:7.0,7.0;"/><polygon fill="#A80036" points="248.7125,316.25,237.4625,311.25,242.4625,316.25,237.4625,321.25,248.7125,316.25" style="stroke:#A80036;stroke-width:1.25;"/><!--MD5=[e1c0f205e01471a87324e4cc03d03bbe]
link C to PCS--><path codeLine="58" d="M987.6625,133.85 C1064.125,119.4375 1172.0625,99.075 1263.95,81.75 " fill="none" id="C-to-PCS" style="stroke:#A80036;stroke-width:1.25;stroke-dasharray:7.0,7.0;"/><polygon fill="#A80036" points="1270.5375,80.5125,1258.5548,77.6882,1264.3962,81.6729,1260.4114,87.5143,1270.5375,80.5125" style="stroke:#A80036;stroke-width:1.25;"/><!--MD5=[694303a06a79f7ae0713de28a4008c97]
link TTS to C--><path codeLine="60" d="M610.875,151.725 C667.7125,151.875 729.7375,152.0625 780.5,152.2 " fill="none" id="TTS-to-C" style="stroke:#A80036;stroke-width:1.25;stroke-dasharray:7.0,7.0;"/><polygon fill="#A80036" points="787.2625,152.225,776.0268,147.1929,781.0125,152.2071,775.9983,157.1928,787.2625,152.225" style="stroke:#A80036;stroke-width:1.25;"/><!--MD5=[4ba949b41f5b4f886781165bf5f9b564]
link CTTC to TT--><path codeLine="62" d="M639.1125,315.7625 C806.475,315.35 1048.0875,314.7375 1223.2,314.3 " fill="none" id="CTTC-to-TT" style="stroke:#A80036;stroke-width:1.25;stroke-dasharray:7.0,7.0;"/><polygon fill="#A80036" points="1229.925,314.2875,1218.6608,309.3197,1223.675,314.3054,1218.6893,319.3196,1229.925,314.2875" style="stroke:#A80036;stroke-width:1.25;"/><!--MD5=[cf05f59dfce81a96099c5f95714bd5af]
link CTTC to C--><path codeLine="63" d="M596.85,259.9 C657.7125,237.3125 726.3125,211.85 781.45,191.3875 " fill="none" id="CTTC-to-C" style="stroke:#A80036;stroke-width:1.25;stroke-dasharray:7.0,7.0;"/><polygon fill="#A80036" points="787.425,189.175,775.1377,188.4106,781.5671,191.3539,778.6239,197.7833,787.425,189.175" style="stroke:#A80036;stroke-width:1.25;"/><!--MD5=[1d14db0b97cac770d171bdc7474dae00]
link CTTC to cNM--><path codeLine="64" d="M539.975,372.525 C590.9,401.45 655.2875,436.0625 715,462.5 C729.75,469.025 745.45,475.35 761.1375,481.275 " fill="none" id="CTTC-to-cNM" style="stroke:#A80036;stroke-width:1.25;stroke-dasharray:7.0,7.0;"/><polygon fill="#A80036" points="767.375,483.6125,758.5969,474.9807,761.5229,481.418,755.0857,484.344,767.375,483.6125" style="stroke:#A80036;stroke-width:1.25;"/><!--MD5=[1418b5af1734c0144573e838c99391fc]
link TT to T--><path codeLine="67" d="M1629.6,387.0125 C1703.7375,416.9375 1785.5625,449.975 1843.725,473.45 " fill="none" id="TT-T" style="stroke:#A80036;stroke-width:1.25;"/><polygon fill="#000000" points="1726.0794,406.6302,1735.1886,414.269,1737.9389,407.4559,1726.0794,406.6302" style="stroke:#000000;stroke-width:1.25;"/><text fill="#000000" font-family="sans-serif" font-size="16.25" lengthAdjust="spacing" textLength="30" x="1743.125" y="415.6189">is of</text><text fill="#000000" font-family="sans-serif" font-size="16.25" lengthAdjust="spacing" textLength="8.75" x="1642.5864" y="414.0421">1</text><text fill="#000000" font-family="sans-serif" font-size="16.25" lengthAdjust="spacing" textLength="6.25" x="1827.4173" y="487.7568">*</text><!--MD5=[93286ab8d15dacf230424bab250ab910]
link TT to PC--><path codeLine="68" d="M1663.8625,313.75 C1724.675,313.75 1787.3625,313.75 1835.7125,313.75 " fill="none" id="TT-PC" style="stroke:#A80036;stroke-width:1.25;"/><polygon fill="#000000" points="1713.75,302.7197,1702.4436,299.0461,1702.4436,306.3934,1713.75,302.7197" style="stroke:#000000;stroke-width:1.25;"/><text fill="#000000" font-family="sans-serif" font-size="16.25" lengthAdjust="spacing" textLength="78.75" x="1718.75" y="309.3689">analyzes a</text><text fill="#000000" font-family="sans-serif" font-size="16.25" lengthAdjust="spacing" textLength="6.25" x="1673.8363" y="331.0769">*</text><text fill="#000000" font-family="sans-serif" font-size="16.25" lengthAdjust="spacing" textLength="8.75" x="1817.4969" y="331.7045">1</text><!--MD5=[b83cceec495819d0b37daa935a10185d]
link C to TT--><path codeLine="70" d="M987.6625,181.1375 C1054.8625,200.6 1146.375,227.1 1229.9375,251.3 " fill="none" id="C-TT" style="stroke:#A80036;stroke-width:1.25;"/><polygon fill="#000000" points="1123.5033,204.4583,1113.6651,197.7845,1111.6213,204.8419,1123.5033,204.4583" style="stroke:#000000;stroke-width:1.25;"/><text fill="#000000" font-family="sans-serif" font-size="16.25" lengthAdjust="spacing" textLength="48.75" x="1128.75" y="209.3689">adopts</text><text fill="#000000" font-family="sans-serif" font-size="16.25" lengthAdjust="spacing" textLength="8.75" x="997.6262" y="201.7393">1</text><text fill="#000000" font-family="sans-serif" font-size="16.25" lengthAdjust="spacing" textLength="6.25" x="1213.7159" y="265.7971">*</text><!--MD5=[71b3fc4d6ca120e51ce9c04aa77747d8]
link C to PC--><path codeLine="71" d="M987.9,152.55 C1136.5375,154.525 1425.1625,165.6625 1663.75,218.75 C1722.7125,231.875 1786.4375,255.225 1835.8125,275.4875 " fill="none" id="C-PC" style="stroke:#A80036;stroke-width:1.25;"/><polygon fill="#000000" points="1425.5603,151.1165,1414.8981,145.8586,1413.8438,153.1298,1425.5603,151.1165" style="stroke:#000000;stroke-width:1.25;"/><text fill="#000000" font-family="sans-serif" font-size="16.25" lengthAdjust="spacing" textLength="48.75" x="1430.625" y="156.8689">adopts</text><text fill="#000000" font-family="sans-serif" font-size="16.25" lengthAdjust="spacing" textLength="8.75" x="997.5589" y="170.394">1</text><text fill="#000000" font-family="sans-serif" font-size="16.25" lengthAdjust="spacing" textLength="6.25" x="1820.2361" y="289.4962">*</text><!--MD5=[57249f778fa14f2fb516e84676f78adc]
link admin to PC--><path codeLine="73" d="M953.5125,422.0875 C1087.8,444.9 1405.6,487.2375 1663.75,431.25 C1724.1375,418.15 1787.35,389.6625 1836.1125,364.0125 " fill="none" id="admin-PC" style="stroke:#A80036;stroke-width:1.25;"/><polygon fill="#000000" points="1399.3885,420.6301,1410.9117,423.5535,1410.4292,416.222,1399.3885,420.6301" style="stroke:#000000;stroke-width:1.25;"/><text fill="#000000" font-family="sans-serif" font-size="16.25" lengthAdjust="spacing" textLength="76.25" x="1416.875" y="426.8689">created by</text><text fill="#000000" font-family="sans-serif" font-size="16.25" lengthAdjust="spacing" textLength="6.25" x="963.235" y="442.0934">*</text><text fill="#000000" font-family="sans-serif" font-size="16.25" lengthAdjust="spacing" textLength="6.25" x="1820.0037" y="387.5303">*</text><!--MD5=[36a0dc4d37f44e902fda6f209d3cab7b]
link admin to TT--><path codeLine="75" d="M953.5625,402.7 C1015.225,395.4 1110.475,383.2125 1192.5,368.75 C1204.675,366.6 1217.1625,364.2875 1229.75,361.85 " fill="none" id="admin-TT" style="stroke:#A80036;stroke-width:1.25;"/><polygon fill="#000000" points="1097.5673,358.6342,1109.2895,360.614,1108.2144,353.3458,1097.5673,358.6342" style="stroke:#000000;stroke-width:1.25;"/><text fill="#000000" font-family="sans-serif" font-size="16.25" lengthAdjust="spacing" textLength="76.25" x="1115" y="364.3689">created by</text><text fill="#000000" font-family="sans-serif" font-size="16.25" lengthAdjust="spacing" textLength="6.25" x="963.292" y="419.9795">*</text><text fill="#000000" font-family="sans-serif" font-size="16.25" lengthAdjust="spacing" textLength="6.25" x="1213.5199" y="381.3564">*</text><!--MD5=[6041fd9df50ab57191a9e7813f1fb446]
@startuml
skinparam classAttributeIconSize 0
left to right direction

class "Company" as C {
-String designation
+getTestTypeStore()
+getParameterCategoryStore()
}

class "categoriesNameMapper" as cNM {
+List <ParameterCategory> toDTO(listCategoriesName)
}

class "TestTypeStore" as TTS{
+boolean create(code, description, collectingMethod)
+boolean validate(tt)
+bollean add(tt)
+List <TestType> getAllTestTypes()
}

class "ParameterCategoryStore" as PCS{
+List <ParameterCategory> getAllParameterCategories()
}

class "TestType" as TT {
-String code
-String description
-String collectingMethod
-List <ParameterCategory> ParameterCategories
+TestType(code, description, collectingMethod, ParameterCategories)
}

class "CreateTestTypeController" as CTTC {
+boolean createTestType(code, description, collectingMethod)
+boolean validateTestType()
+boolean saveTestType()
}

class "Test" as T{
-String code
-String description
-String collectingMethod
}

class "ParameterCategory" as PC{
-String code
-String description
-String nhsID
}

class "CreateTestTypeUI" as CTTUI
class "TestType" as TT
class "CreateTestTypeController" as CTTC
class "Administrator" as admin

CTTUI ..> CTTC

C ..> PCS

TTS ..> C

CTTC ..> TT
CTTC ..> C
CTTC ..> cNM


TT "1" - - "*" T: < is of
TT "*" - - "1" PC : > analyzes a

C "1" - - "*" TT : > adopts
C "1" - - "*" PC : > adopts

admin "*" - - "*" PC : < created by

admin "*" - - "*" TT : < created by


@enduml

PlantUML version 1.2021.4(Sun Apr 04 09:49:39 BST 2021)
(GPL source distribution)
Java Runtime: OpenJDK Runtime Environment
JVM: OpenJDK 64-Bit Server VM
Default Encoding: Cp1252
Language: pt
Country: PT
--></g></svg>