<?xml version="1.0" encoding="UTF-8" standalone="no"?><svg xmlns="http://www.w3.org/2000/svg" xmlns:xlink="http://www.w3.org/1999/xlink" contentScriptType="application/ecmascript" contentStyleType="text/css" height="214px" preserveAspectRatio="none" style="width:1157px;height:214px;" version="1.1" viewBox="0 0 1157 214" width="1157px" zoomAndPan="magnify"><defs><filter height="300%" id="f12eyka7tgr984" width="300%" x="-1" y="-1"><feGaussianBlur result="blurOut" stdDeviation="2.0"/><feColorMatrix in="blurOut" result="blurOut2" type="matrix" values="0 0 0 0 0 0 0 0 0 0 0 0 0 0 0 0 0 0 .4 0"/><feOffset dx="4.0" dy="4.0" in="blurOut2" result="blurOut3"/><feBlend in="SourceGraphic" in2="blurOut3" mode="normal"/></filter></defs><g><!--MD5=[378b18254a1b2429f435e93f5e5cc50c]
class C--><rect codeLine="4" fill="#FEFECE" filter="url(#f12eyka7tgr984)" height="117.1797" id="C" style="stroke:#A80036;stroke-width:1.5;" width="271" x="531" y="7"/><ellipse cx="635.75" cy="23" fill="#ADD1B2" rx="11" ry="11" style="stroke:#A80036;stroke-width:1.0;"/><path d="M637.75,19.5 Q637.9531,19 638.1875,18.75 Q638.4219,18.5 638.6875,18.5 Q639.1563,18.5 639.4531,18.7813 Q639.75,19.0625 639.75,19.7188 L639.75,21.2813 Q639.75,21.9375 639.4688,22.2188 Q639.1875,22.5 638.75,22.5 Q638.3594,22.5 638.1094,22.3281 Q637.8594,22.1563 637.75,21.7031 Q637.7031,21.3906 637.5313,21.2188 Q637.2188,20.8906 636.6563,20.7031 Q636.0938,20.5 635.5313,20.5 Q634.8281,20.5 634.2344,20.7813 Q633.6563,21.0625 633.2031,21.6875 Q632.75,22.3125 632.75,23.1719 L632.75,24.0938 Q632.75,25.125 633.5938,25.8125 Q634.4375,26.5 635.9375,26.5 Q636.8281,26.5 637.4531,26.2969 Q637.8125,26.1875 638.2188,25.8281 Q638.4844,25.625 638.625,25.5625 Q638.7656,25.5 638.9375,25.5 Q639.2656,25.5 639.5,25.7656 Q639.75,26.0156 639.75,26.375 Q639.75,26.7188 639.4063,27.125 Q638.9063,27.7188 638.1094,28.0469 Q637.0625,28.5 635.7813,28.5 Q634.2813,28.5 633.0781,27.9063 Q632.1094,27.4375 631.4219,26.4219 Q630.75,25.4063 630.75,24.2031 L630.75,23.1094 Q630.75,21.8594 631.3438,20.7656 Q631.9531,19.6719 633,19.0938 Q634.0625,18.5 635.25,18.5 Q635.9688,18.5 636.5938,18.75 Q637.2188,19 637.75,19.5 Z " fill="#000000"/><text fill="#000000" font-family="sans-serif" font-size="12" lengthAdjust="spacing" textLength="53" x="656.25" y="27.9102">Company</text><line style="stroke:#A80036;stroke-width:1.5;" x1="532" x2="801" y1="39" y2="39"/><text fill="#000000" font-family="sans-serif" font-size="11" lengthAdjust="spacing" textLength="59" x="537" y="54.4189">-designation</text><line style="stroke:#A80036;stroke-width:1.5;" x1="532" x2="801" y1="60.8359" y2="60.8359"/><text fill="#000000" font-family="sans-serif" font-size="11" lengthAdjust="spacing" textLength="259" x="537" y="76.2549">+createTestType(code, description, collectingMethod)</text><text fill="#000000" font-family="sans-serif" font-size="11" lengthAdjust="spacing" textLength="102" x="537" y="90.0908">+validateTestType(tt)</text><text fill="#000000" font-family="sans-serif" font-size="11" lengthAdjust="spacing" textLength="89" x="537" y="103.9268">+saveTestType(tt)</text><text fill="#000000" font-family="sans-serif" font-size="11" lengthAdjust="spacing" textLength="81" x="537" y="117.7627">-addTestType(tt)</text><!--MD5=[f76673142371ead9f091198193c4bd63]
class TT--><rect codeLine="25" fill="#FEFECE" filter="url(#f12eyka7tgr984)" height="103.3438" id="TT" style="stroke:#A80036;stroke-width:1.5;" width="240" x="903" y="97"/><ellipse cx="993.75" cy="113" fill="#ADD1B2" rx="11" ry="11" style="stroke:#A80036;stroke-width:1.0;"/><path d="M995.75,109.5 Q995.9531,109 996.1875,108.75 Q996.4219,108.5 996.6875,108.5 Q997.1563,108.5 997.4531,108.7813 Q997.75,109.0625 997.75,109.7188 L997.75,111.2813 Q997.75,111.9375 997.4688,112.2188 Q997.1875,112.5 996.75,112.5 Q996.3594,112.5 996.1094,112.3281 Q995.8594,112.1563 995.75,111.7031 Q995.7031,111.3906 995.5313,111.2188 Q995.2188,110.8906 994.6563,110.7031 Q994.0938,110.5 993.5313,110.5 Q992.8281,110.5 992.2344,110.7813 Q991.6563,111.0625 991.2031,111.6875 Q990.75,112.3125 990.75,113.1719 L990.75,114.0938 Q990.75,115.125 991.5938,115.8125 Q992.4375,116.5 993.9375,116.5 Q994.8281,116.5 995.4531,116.2969 Q995.8125,116.1875 996.2188,115.8281 Q996.4844,115.625 996.625,115.5625 Q996.7656,115.5 996.9375,115.5 Q997.2656,115.5 997.5,115.7656 Q997.75,116.0156 997.75,116.375 Q997.75,116.7188 997.4063,117.125 Q996.9063,117.7188 996.1094,118.0469 Q995.0625,118.5 993.7813,118.5 Q992.2813,118.5 991.0781,117.9063 Q990.1094,117.4375 989.4219,116.4219 Q988.75,115.4063 988.75,114.2031 L988.75,113.1094 Q988.75,111.8594 989.3438,110.7656 Q989.9531,109.6719 991,109.0938 Q992.0625,108.5 993.25,108.5 Q993.9688,108.5 994.5938,108.75 Q995.2188,109 995.75,109.5 Z " fill="#000000"/><text fill="#000000" font-family="sans-serif" font-size="12" lengthAdjust="spacing" textLength="50" x="1014.25" y="117.9102">TestType</text><line style="stroke:#A80036;stroke-width:1.5;" x1="904" x2="1142" y1="129" y2="129"/><text fill="#000000" font-family="sans-serif" font-size="11" lengthAdjust="spacing" textLength="28" x="909" y="144.4189">-code</text><text fill="#000000" font-family="sans-serif" font-size="11" lengthAdjust="spacing" textLength="57" x="909" y="158.2549">-description</text><text fill="#000000" font-family="sans-serif" font-size="11" lengthAdjust="spacing" textLength="84" x="909" y="172.0908">-collectingMethod</text><line style="stroke:#A80036;stroke-width:1.5;" x1="904" x2="1142" y1="178.5078" y2="178.5078"/><text fill="#000000" font-family="sans-serif" font-size="11" lengthAdjust="spacing" textLength="228" x="909" y="193.9268">+TestType(code, description, collectingMethod)</text><!--MD5=[0db42b3591f13a48474e506cf6fbc101]
class CTTC--><rect codeLine="26" fill="#FEFECE" filter="url(#f12eyka7tgr984)" height="75.6719" id="CTTC" style="stroke:#A80036;stroke-width:1.5;" width="271" x="199" y="119.5"/><ellipse cx="259.75" cy="135.5" fill="#ADD1B2" rx="11" ry="11" style="stroke:#A80036;stroke-width:1.0;"/><path d="M261.75,132 Q261.9531,131.5 262.1875,131.25 Q262.4219,131 262.6875,131 Q263.1563,131 263.4531,131.2813 Q263.75,131.5625 263.75,132.2188 L263.75,133.7813 Q263.75,134.4375 263.4688,134.7188 Q263.1875,135 262.75,135 Q262.3594,135 262.1094,134.8281 Q261.8594,134.6563 261.75,134.2031 Q261.7031,133.8906 261.5313,133.7188 Q261.2188,133.3906 260.6563,133.2031 Q260.0938,133 259.5313,133 Q258.8281,133 258.2344,133.2813 Q257.6563,133.5625 257.2031,134.1875 Q256.75,134.8125 256.75,135.6719 L256.75,136.5938 Q256.75,137.625 257.5938,138.3125 Q258.4375,139 259.9375,139 Q260.8281,139 261.4531,138.7969 Q261.8125,138.6875 262.2188,138.3281 Q262.4844,138.125 262.625,138.0625 Q262.7656,138 262.9375,138 Q263.2656,138 263.5,138.2656 Q263.75,138.5156 263.75,138.875 Q263.75,139.2188 263.4063,139.625 Q262.9063,140.2188 262.1094,140.5469 Q261.0625,141 259.7813,141 Q258.2813,141 257.0781,140.4063 Q256.1094,139.9375 255.4219,138.9219 Q254.75,137.9063 254.75,136.7031 L254.75,135.6094 Q254.75,134.3594 255.3438,133.2656 Q255.9531,132.1719 257,131.5938 Q258.0625,131 259.25,131 Q259.9688,131 260.5938,131.25 Q261.2188,131.5 261.75,132 Z " fill="#000000"/><text fill="#000000" font-family="sans-serif" font-size="12" lengthAdjust="spacing" textLength="141" x="280.25" y="140.4102">CreateTestTypeController</text><line style="stroke:#A80036;stroke-width:1.5;" x1="200" x2="469" y1="151.5" y2="151.5"/><line style="stroke:#A80036;stroke-width:1.5;" x1="200" x2="469" y1="159.5" y2="159.5"/><text fill="#000000" font-family="sans-serif" font-size="11" lengthAdjust="spacing" textLength="259" x="205" y="174.9189">+createTestType(code, description, collectingMethod)</text><text fill="#000000" font-family="sans-serif" font-size="11" lengthAdjust="spacing" textLength="83" x="205" y="188.7549">+saveTestType()</text><!--MD5=[6461a74477876ab4a04549c978c1a07a]
class CTTUI--><rect codeLine="24" fill="#FEFECE" filter="url(#f12eyka7tgr984)" height="48" id="CTTUI" style="stroke:#A80036;stroke-width:1.5;" width="131" x="7" y="133.5"/><ellipse cx="22" cy="149.5" fill="#ADD1B2" rx="11" ry="11" style="stroke:#A80036;stroke-width:1.0;"/><path d="M24,146 Q24.2031,145.5 24.4375,145.25 Q24.6719,145 24.9375,145 Q25.4063,145 25.7031,145.2813 Q26,145.5625 26,146.2188 L26,147.7813 Q26,148.4375 25.7188,148.7188 Q25.4375,149 25,149 Q24.6094,149 24.3594,148.8281 Q24.1094,148.6563 24,148.2031 Q23.9531,147.8906 23.7813,147.7188 Q23.4688,147.3906 22.9063,147.2031 Q22.3438,147 21.7813,147 Q21.0781,147 20.4844,147.2813 Q19.9063,147.5625 19.4531,148.1875 Q19,148.8125 19,149.6719 L19,150.5938 Q19,151.625 19.8438,152.3125 Q20.6875,153 22.1875,153 Q23.0781,153 23.7031,152.7969 Q24.0625,152.6875 24.4688,152.3281 Q24.7344,152.125 24.875,152.0625 Q25.0156,152 25.1875,152 Q25.5156,152 25.75,152.2656 Q26,152.5156 26,152.875 Q26,153.2188 25.6563,153.625 Q25.1563,154.2188 24.3594,154.5469 Q23.3125,155 22.0313,155 Q20.5313,155 19.3281,154.4063 Q18.3594,153.9375 17.6719,152.9219 Q17,151.9063 17,150.7031 L17,149.6094 Q17,148.3594 17.5938,147.2656 Q18.2031,146.1719 19.25,145.5938 Q20.3125,145 21.5,145 Q22.2188,145 22.8438,145.25 Q23.4688,145.5 24,146 Z " fill="#000000"/><text fill="#000000" font-family="sans-serif" font-size="12" lengthAdjust="spacing" textLength="99" x="36" y="154.4102">CreateTestTypeUI</text><line style="stroke:#A80036;stroke-width:1.5;" x1="8" x2="137" y1="165.5" y2="165.5"/><line style="stroke:#A80036;stroke-width:1.5;" x1="8" x2="137" y1="173.5" y2="173.5"/><!--MD5=[320690cba070b8468face0bfd1ce9533]
link CTTUI to CTTC--><path codeLine="27" d="M138.1,157.5 C155.08,157.5 174.07,157.5 193.36,157.5 " fill="none" id="CTTUI-to-CTTC" style="stroke:#A80036;stroke-width:1.0;stroke-dasharray:7.0,7.0;"/><polygon fill="#A80036" points="198.81,157.5,189.81,153.5,193.81,157.5,189.81,161.5,198.81,157.5" style="stroke:#A80036;stroke-width:1.0;"/><!--MD5=[4ba949b41f5b4f886781165bf5f9b564]
link CTTC to TT--><path codeLine="28" d="M470.31,155.73 C594.4,154.11 776.97,151.71 897.63,150.13 " fill="none" id="CTTC-to-TT" style="stroke:#A80036;stroke-width:1.0;stroke-dasharray:7.0,7.0;"/><polygon fill="#A80036" points="902.97,150.06,893.9138,146.189,897.9705,150.1314,894.0281,154.1882,902.97,150.06" style="stroke:#A80036;stroke-width:1.0;"/><!--MD5=[cf05f59dfce81a96099c5f95714bd5af]
link CTTC to C--><path codeLine="29" d="M470.2,119.95 C488.53,114.84 507.37,109.58 525.78,104.45 " fill="none" id="CTTC-to-C" style="stroke:#A80036;stroke-width:1.0;stroke-dasharray:7.0,7.0;"/><polygon fill="#A80036" points="530.96,103.01,521.2173,101.5677,526.1428,104.3497,523.3608,109.2752,530.96,103.01" style="stroke:#A80036;stroke-width:1.0;"/><!--MD5=[b83cceec495819d0b37daa935a10185d]
link C to TT--><path codeLine="30" d="M802.03,97 C833.54,104.38 866.97,112.2 898,119.47 " fill="none" id="C-to-TT" style="stroke:#A80036;stroke-width:1.0;"/><polygon fill="#A80036" points="902.96,120.63,895.1115,114.6801,898.0922,119.488,893.2843,122.4686,902.96,120.63" style="stroke:#A80036;stroke-width:1.0;"/><text fill="#000000" font-family="sans-serif" font-size="13" lengthAdjust="spacing" textLength="39" x="833" y="101.9951">adopts</text><text fill="#000000" font-family="sans-serif" font-size="13" lengthAdjust="spacing" textLength="7" x="810.0677" y="112.7837">1</text><text fill="#000000" font-family="sans-serif" font-size="13" lengthAdjust="spacing" textLength="5" x="890.1098" y="132.8524">*</text><!--MD5=[3439540095044cee3d17b40583bf029d]
@startuml
skinparam classAttributeIconSize 0
left to right direction

class "Company" as C {
-designation
+createTestType(code, description, collectingMethod)
+validateTestType(tt)
+saveTestType(tt)
-addTestType(tt)
}

class "TestType" as TT {
-code
-description
-collectingMethod
+TestType(code, description, collectingMethod)
}

class "CreateTestTypeController" as CTTC {
+createTestType(code, description, collectingMethod)
+saveTestType()
}

class "CreateTestTypeUI" as CTTUI
class "TestType" as TT
class "CreateTestTypeController" as CTTC
CTTUI ..> CTTC
CTTC ..> TT
CTTC ..> C
C "1" - -> "*" TT : adopts

@enduml

PlantUML version 1.2021.4(Sun Apr 04 09:49:39 BST 2021)
(GPL source distribution)
Java Runtime: OpenJDK Runtime Environment
JVM: OpenJDK 64-Bit Server VM
Default Encoding: Cp1252
Language: pt
Country: PT
--></g></svg>