<?xml version="1.0" encoding="UTF-8" standalone="no"?><svg xmlns="http://www.w3.org/2000/svg" xmlns:xlink="http://www.w3.org/1999/xlink" contentScriptType="application/ecmascript" contentStyleType="text/css" height="457.5px" preserveAspectRatio="none" style="width:1725px;height:457px;" version="1.1" viewBox="0 0 1725 457" width="1725px" zoomAndPan="magnify"><defs><filter height="300%" id="f78qx5neanmmz" width="300%" x="-1" y="-1"><feGaussianBlur result="blurOut" stdDeviation="3.0"/><feColorMatrix in="blurOut" result="blurOut2" type="matrix" values="0 0 0 0 0 0 0 0 0 0 0 0 0 0 0 0 0 0 .4 0"/><feOffset dx="6.0" dy="6.0" in="blurOut2" result="blurOut3"/><feBlend in="SourceGraphic" in2="blurOut3" mode="normal"/></filter></defs><g><!--MD5=[378b18254a1b2429f435e93f5e5cc50c]
class C--><rect codeLine="4" fill="#FEFECE" filter="url(#f78qx5neanmmz)" height="92.7539" id="C" style="stroke:#A80036;stroke-width:2.25;" width="127.5" x="856.5" y="62.25"/><ellipse cx="879" cy="86.25" fill="#ADD1B2" rx="16.5" ry="16.5" style="stroke:#A80036;stroke-width:1.5;"/><path d="M882,81 Q882.3047,80.25 882.6563,79.875 Q883.0078,79.5 883.4063,79.5 Q884.1094,79.5 884.5547,79.9219 Q885,80.3438 885,81.3281 L885,83.6719 Q885,84.6563 884.5781,85.0781 Q884.1563,85.5 883.5,85.5 Q882.9141,85.5 882.5391,85.2422 Q882.1641,84.9844 882,84.3047 Q881.9297,83.8359 881.6719,83.5781 Q881.2031,83.0859 880.3594,82.8047 Q879.5156,82.5 878.6719,82.5 Q877.6172,82.5 876.7266,82.9219 Q875.8594,83.3438 875.1797,84.2813 Q874.5,85.2188 874.5,86.5078 L874.5,87.8906 Q874.5,89.4375 875.7656,90.4688 Q877.0313,91.5 879.2813,91.5 Q880.6172,91.5 881.5547,91.1953 Q882.0938,91.0313 882.7031,90.4922 Q883.1016,90.1875 883.3125,90.0938 Q883.5234,90 883.7813,90 Q884.2734,90 884.625,90.3984 Q885,90.7734 885,91.3125 Q885,91.8281 884.4844,92.4375 Q883.7344,93.3281 882.5391,93.8203 Q880.9688,94.5 879.0469,94.5 Q876.7969,94.5 874.9922,93.6094 Q873.5391,92.9063 872.5078,91.3828 Q871.5,89.8594 871.5,88.0547 L871.5,86.4141 Q871.5,84.5391 872.3906,82.8984 Q873.3047,81.2578 874.875,80.3906 Q876.4688,79.5 878.25,79.5 Q879.3281,79.5 880.2656,79.875 Q881.2031,80.25 882,81 Z " fill="#000000"/><text fill="#000000" font-family="sans-serif" font-size="18" lengthAdjust="spacing" textLength="79.5" x="900" y="93.6152">Company</text><line style="stroke:#A80036;stroke-width:2.25;" x1="858" x2="982.5" y1="110.25" y2="110.25"/><text fill="#000000" font-family="sans-serif" font-size="16.5" lengthAdjust="spacing" textLength="88.5" x="865.5" y="133.3784">-designation</text><line style="stroke:#A80036;stroke-width:2.25;" x1="858" x2="982.5" y1="143.0039" y2="143.0039"/><!--MD5=[606124dbd33b65145bd2d31e230d6615]
class cNM--><rect codeLine="8" fill="#FEFECE" filter="url(#f78qx5neanmmz)" height="92.7539" id="cNM" style="stroke:#A80036;stroke-width:2.25;" width="247.5" x="796.5" y="344.25"/><ellipse cx="819" cy="368.25" fill="#ADD1B2" rx="16.5" ry="16.5" style="stroke:#A80036;stroke-width:1.5;"/><path d="M822,363 Q822.3047,362.25 822.6563,361.875 Q823.0078,361.5 823.4063,361.5 Q824.1094,361.5 824.5547,361.9219 Q825,362.3438 825,363.3281 L825,365.6719 Q825,366.6563 824.5781,367.0781 Q824.1563,367.5 823.5,367.5 Q822.9141,367.5 822.5391,367.2422 Q822.1641,366.9844 822,366.3047 Q821.9297,365.8359 821.6719,365.5781 Q821.2031,365.0859 820.3594,364.8047 Q819.5156,364.5 818.6719,364.5 Q817.6172,364.5 816.7266,364.9219 Q815.8594,365.3438 815.1797,366.2813 Q814.5,367.2188 814.5,368.5078 L814.5,369.8906 Q814.5,371.4375 815.7656,372.4688 Q817.0313,373.5 819.2813,373.5 Q820.6172,373.5 821.5547,373.1953 Q822.0938,373.0313 822.7031,372.4922 Q823.1016,372.1875 823.3125,372.0938 Q823.5234,372 823.7813,372 Q824.2734,372 824.625,372.3984 Q825,372.7734 825,373.3125 Q825,373.8281 824.4844,374.4375 Q823.7344,375.3281 822.5391,375.8203 Q820.9688,376.5 819.0469,376.5 Q816.7969,376.5 814.9922,375.6094 Q813.5391,374.9063 812.5078,373.3828 Q811.5,371.8594 811.5,370.0547 L811.5,368.4141 Q811.5,366.5391 812.3906,364.8984 Q813.3047,363.2578 814.875,362.3906 Q816.4688,361.5 818.25,361.5 Q819.3281,361.5 820.2656,361.875 Q821.2031,362.25 822,363 Z " fill="#000000"/><text fill="#000000" font-family="sans-serif" font-size="18" lengthAdjust="spacing" textLength="199.5" x="840" y="375.6152">categoriesNameMapper</text><line style="stroke:#A80036;stroke-width:2.25;" x1="798" x2="1042.5" y1="392.25" y2="392.25"/><line style="stroke:#A80036;stroke-width:2.25;" x1="798" x2="1042.5" y1="404.25" y2="404.25"/><text fill="#000000" font-family="sans-serif" font-size="16.5" lengthAdjust="spacing" textLength="204" x="805.5" y="427.3784">+toDTO(listCategoriesName)</text><!--MD5=[0c21d7a5a5555e4278001068caacbd33]
class TTS--><rect codeLine="12" fill="#FEFECE" filter="url(#f78qx5neanmmz)" height="155.0156" id="TTS" style="stroke:#A80036;stroke-width:2.25;" width="339" x="332.25" y="10.5"/><ellipse cx="436.125" cy="34.5" fill="#ADD1B2" rx="16.5" ry="16.5" style="stroke:#A80036;stroke-width:1.5;"/><path d="M439.125,29.25 Q439.4297,28.5 439.7813,28.125 Q440.1328,27.75 440.5313,27.75 Q441.2344,27.75 441.6797,28.1719 Q442.125,28.5938 442.125,29.5781 L442.125,31.9219 Q442.125,32.9063 441.7031,33.3281 Q441.2813,33.75 440.625,33.75 Q440.0391,33.75 439.6641,33.4922 Q439.2891,33.2344 439.125,32.5547 Q439.0547,32.0859 438.7969,31.8281 Q438.3281,31.3359 437.4844,31.0547 Q436.6406,30.75 435.7969,30.75 Q434.7422,30.75 433.8516,31.1719 Q432.9844,31.5938 432.3047,32.5313 Q431.625,33.4688 431.625,34.7578 L431.625,36.1406 Q431.625,37.6875 432.8906,38.7188 Q434.1563,39.75 436.4063,39.75 Q437.7422,39.75 438.6797,39.4453 Q439.2188,39.2813 439.8281,38.7422 Q440.2266,38.4375 440.4375,38.3438 Q440.6484,38.25 440.9063,38.25 Q441.3984,38.25 441.75,38.6484 Q442.125,39.0234 442.125,39.5625 Q442.125,40.0781 441.6094,40.6875 Q440.8594,41.5781 439.6641,42.0703 Q438.0938,42.75 436.1719,42.75 Q433.9219,42.75 432.1172,41.8594 Q430.6641,41.1563 429.6328,39.6328 Q428.625,38.1094 428.625,36.3047 L428.625,34.6641 Q428.625,32.7891 429.5156,31.1484 Q430.4297,29.5078 432,28.6406 Q433.5938,27.75 435.375,27.75 Q436.4531,27.75 437.3906,28.125 Q438.3281,28.5 439.125,29.25 Z " fill="#000000"/><text fill="#000000" font-family="sans-serif" font-size="18" lengthAdjust="spacing" textLength="118.5" x="466.875" y="41.8652">TestTypeStore</text><line style="stroke:#A80036;stroke-width:2.25;" x1="333.75" x2="669.75" y1="58.5" y2="58.5"/><line style="stroke:#A80036;stroke-width:2.25;" x1="333.75" x2="669.75" y1="70.5" y2="70.5"/><text fill="#000000" font-family="sans-serif" font-size="16.5" lengthAdjust="spacing" textLength="321" x="341.25" y="93.6284">+create(code, description, collectingMethod)</text><text fill="#000000" font-family="sans-serif" font-size="16.5" lengthAdjust="spacing" textLength="85.5" x="341.25" y="114.3823">+validate(tt)</text><text fill="#000000" font-family="sans-serif" font-size="16.5" lengthAdjust="spacing" textLength="57" x="341.25" y="135.1362">+add(tt)</text><text fill="#000000" font-family="sans-serif" font-size="16.5" lengthAdjust="spacing" textLength="138" x="341.25" y="155.8901">+getAllTestTypes()</text><!--MD5=[2628f93c2b91159b8b11117185f029f9]
class PCS--><rect codeLine="19" fill="#FEFECE" filter="url(#f78qx5neanmmz)" height="92.7539" id="PCS" style="stroke:#A80036;stroke-width:2.25;" width="252" x="1323.75" y="30.75"/><ellipse cx="1346.25" cy="54.75" fill="#ADD1B2" rx="16.5" ry="16.5" style="stroke:#A80036;stroke-width:1.5;"/><path d="M1349.25,49.5 Q1349.5547,48.75 1349.9063,48.375 Q1350.2578,48 1350.6563,48 Q1351.3594,48 1351.8047,48.4219 Q1352.25,48.8438 1352.25,49.8281 L1352.25,52.1719 Q1352.25,53.1563 1351.8281,53.5781 Q1351.4063,54 1350.75,54 Q1350.1641,54 1349.7891,53.7422 Q1349.4141,53.4844 1349.25,52.8047 Q1349.1797,52.3359 1348.9219,52.0781 Q1348.4531,51.5859 1347.6094,51.3047 Q1346.7656,51 1345.9219,51 Q1344.8672,51 1343.9766,51.4219 Q1343.1094,51.8438 1342.4297,52.7813 Q1341.75,53.7188 1341.75,55.0078 L1341.75,56.3906 Q1341.75,57.9375 1343.0156,58.9688 Q1344.2813,60 1346.5313,60 Q1347.8672,60 1348.8047,59.6953 Q1349.3438,59.5313 1349.9531,58.9922 Q1350.3516,58.6875 1350.5625,58.5938 Q1350.7734,58.5 1351.0313,58.5 Q1351.5234,58.5 1351.875,58.8984 Q1352.25,59.2734 1352.25,59.8125 Q1352.25,60.3281 1351.7344,60.9375 Q1350.9844,61.8281 1349.7891,62.3203 Q1348.2188,63 1346.2969,63 Q1344.0469,63 1342.2422,62.1094 Q1340.7891,61.4063 1339.7578,59.8828 Q1338.75,58.3594 1338.75,56.5547 L1338.75,54.9141 Q1338.75,53.0391 1339.6406,51.3984 Q1340.5547,49.7578 1342.125,48.8906 Q1343.7188,48 1345.5,48 Q1346.5781,48 1347.5156,48.375 Q1348.4531,48.75 1349.25,49.5 Z " fill="#000000"/><text fill="#000000" font-family="sans-serif" font-size="18" lengthAdjust="spacing" textLength="204" x="1367.25" y="62.1152">ParameterCategoryStore</text><line style="stroke:#A80036;stroke-width:2.25;" x1="1325.25" x2="1574.25" y1="78.75" y2="78.75"/><line style="stroke:#A80036;stroke-width:2.25;" x1="1325.25" x2="1574.25" y1="90.75" y2="90.75"/><text fill="#000000" font-family="sans-serif" font-size="16.5" lengthAdjust="spacing" textLength="213" x="1332.75" y="113.8784">+getAllParameterCategories()</text><!--MD5=[f76673142371ead9f091198193c4bd63]
class TT--><rect codeLine="38" fill="#FEFECE" filter="url(#f78qx5neanmmz)" height="175.7695" id="TT" style="stroke:#A80036;stroke-width:2.25;" width="508.5" x="1195.5" y="177"/><ellipse cx="1405.875" cy="201" fill="#ADD1B2" rx="16.5" ry="16.5" style="stroke:#A80036;stroke-width:1.5;"/><path d="M1408.875,195.75 Q1409.1797,195 1409.5313,194.625 Q1409.8828,194.25 1410.2813,194.25 Q1410.9844,194.25 1411.4297,194.6719 Q1411.875,195.0938 1411.875,196.0781 L1411.875,198.4219 Q1411.875,199.4063 1411.4531,199.8281 Q1411.0313,200.25 1410.375,200.25 Q1409.7891,200.25 1409.4141,199.9922 Q1409.0391,199.7344 1408.875,199.0547 Q1408.8047,198.5859 1408.5469,198.3281 Q1408.0781,197.8359 1407.2344,197.5547 Q1406.3906,197.25 1405.5469,197.25 Q1404.4922,197.25 1403.6016,197.6719 Q1402.7344,198.0938 1402.0547,199.0313 Q1401.375,199.9688 1401.375,201.2578 L1401.375,202.6406 Q1401.375,204.1875 1402.6406,205.2188 Q1403.9063,206.25 1406.1563,206.25 Q1407.4922,206.25 1408.4297,205.9453 Q1408.9688,205.7813 1409.5781,205.2422 Q1409.9766,204.9375 1410.1875,204.8438 Q1410.3984,204.75 1410.6563,204.75 Q1411.1484,204.75 1411.5,205.1484 Q1411.875,205.5234 1411.875,206.0625 Q1411.875,206.5781 1411.3594,207.1875 Q1410.6094,208.0781 1409.4141,208.5703 Q1407.8438,209.25 1405.9219,209.25 Q1403.6719,209.25 1401.8672,208.3594 Q1400.4141,207.6563 1399.3828,206.1328 Q1398.375,204.6094 1398.375,202.8047 L1398.375,201.1641 Q1398.375,199.2891 1399.2656,197.6484 Q1400.1797,196.0078 1401.75,195.1406 Q1403.3438,194.25 1405.125,194.25 Q1406.2031,194.25 1407.1406,194.625 Q1408.0781,195 1408.875,195.75 Z " fill="#000000"/><text fill="#000000" font-family="sans-serif" font-size="18" lengthAdjust="spacing" textLength="75" x="1436.625" y="208.3652">TestType</text><line style="stroke:#A80036;stroke-width:2.25;" x1="1197" x2="1702.5" y1="225" y2="225"/><text fill="#000000" font-family="sans-serif" font-size="16.5" lengthAdjust="spacing" textLength="42" x="1204.5" y="248.1284">-code</text><text fill="#000000" font-family="sans-serif" font-size="16.5" lengthAdjust="spacing" textLength="85.5" x="1204.5" y="268.8823">-description</text><text fill="#000000" font-family="sans-serif" font-size="16.5" lengthAdjust="spacing" textLength="126" x="1204.5" y="289.6362">-collectingMethod</text><text fill="#000000" font-family="sans-serif" font-size="16.5" lengthAdjust="spacing" textLength="145.5" x="1204.5" y="310.3901">-ParameterCategory</text><line style="stroke:#A80036;stroke-width:2.25;" x1="1197" x2="1702.5" y1="320.0156" y2="320.0156"/><text fill="#000000" font-family="sans-serif" font-size="16.5" lengthAdjust="spacing" textLength="490.5" x="1204.5" y="343.144">+TestType(code, description, collectingMethod, ParameterCategory)</text><!--MD5=[0db42b3591f13a48474e506cf6fbc101]
class CTTC--><rect codeLine="39" fill="#FEFECE" filter="url(#f78qx5neanmmz)" height="134.2617" id="CTTC" style="stroke:#A80036;stroke-width:2.25;" width="406.5" x="298.5" y="218.25"/><ellipse cx="389.625" cy="242.25" fill="#ADD1B2" rx="16.5" ry="16.5" style="stroke:#A80036;stroke-width:1.5;"/><path d="M392.625,237 Q392.9297,236.25 393.2813,235.875 Q393.6328,235.5 394.0313,235.5 Q394.7344,235.5 395.1797,235.9219 Q395.625,236.3438 395.625,237.3281 L395.625,239.6719 Q395.625,240.6563 395.2031,241.0781 Q394.7813,241.5 394.125,241.5 Q393.5391,241.5 393.1641,241.2422 Q392.7891,240.9844 392.625,240.3047 Q392.5547,239.8359 392.2969,239.5781 Q391.8281,239.0859 390.9844,238.8047 Q390.1406,238.5 389.2969,238.5 Q388.2422,238.5 387.3516,238.9219 Q386.4844,239.3438 385.8047,240.2813 Q385.125,241.2188 385.125,242.5078 L385.125,243.8906 Q385.125,245.4375 386.3906,246.4688 Q387.6563,247.5 389.9063,247.5 Q391.2422,247.5 392.1797,247.1953 Q392.7188,247.0313 393.3281,246.4922 Q393.7266,246.1875 393.9375,246.0938 Q394.1484,246 394.4063,246 Q394.8984,246 395.25,246.3984 Q395.625,246.7734 395.625,247.3125 Q395.625,247.8281 395.1094,248.4375 Q394.3594,249.3281 393.1641,249.8203 Q391.5938,250.5 389.6719,250.5 Q387.4219,250.5 385.6172,249.6094 Q384.1641,248.9063 383.1328,247.3828 Q382.125,245.8594 382.125,244.0547 L382.125,242.4141 Q382.125,240.5391 383.0156,238.8984 Q383.9297,237.2578 385.5,236.3906 Q387.0938,235.5 388.875,235.5 Q389.9531,235.5 390.8906,235.875 Q391.8281,236.25 392.625,237 Z " fill="#000000"/><text fill="#000000" font-family="sans-serif" font-size="18" lengthAdjust="spacing" textLength="211.5" x="420.375" y="249.6152">CreateTestTypeController</text><line style="stroke:#A80036;stroke-width:2.25;" x1="300" x2="703.5" y1="266.25" y2="266.25"/><line style="stroke:#A80036;stroke-width:2.25;" x1="300" x2="703.5" y1="278.25" y2="278.25"/><text fill="#000000" font-family="sans-serif" font-size="16.5" lengthAdjust="spacing" textLength="388.5" x="307.5" y="301.3784">+createTestType(code, description, collectingMethod)</text><text fill="#000000" font-family="sans-serif" font-size="16.5" lengthAdjust="spacing" textLength="144" x="307.5" y="322.1323">+validateTestType()</text><text fill="#000000" font-family="sans-serif" font-size="16.5" lengthAdjust="spacing" textLength="124.5" x="307.5" y="342.8862">+saveTestType()</text><!--MD5=[6461a74477876ab4a04549c978c1a07a]
class CTTUI--><rect codeLine="37" fill="#FEFECE" filter="url(#f78qx5neanmmz)" height="72" id="CTTUI" style="stroke:#A80036;stroke-width:2.25;" width="196.5" x="10.5" y="249.75"/><ellipse cx="33" cy="273.75" fill="#ADD1B2" rx="16.5" ry="16.5" style="stroke:#A80036;stroke-width:1.5;"/><path d="M36,268.5 Q36.3047,267.75 36.6563,267.375 Q37.0078,267 37.4063,267 Q38.1094,267 38.5547,267.4219 Q39,267.8438 39,268.8281 L39,271.1719 Q39,272.1563 38.5781,272.5781 Q38.1563,273 37.5,273 Q36.9141,273 36.5391,272.7422 Q36.1641,272.4844 36,271.8047 Q35.9297,271.3359 35.6719,271.0781 Q35.2031,270.5859 34.3594,270.3047 Q33.5156,270 32.6719,270 Q31.6172,270 30.7266,270.4219 Q29.8594,270.8438 29.1797,271.7813 Q28.5,272.7188 28.5,274.0078 L28.5,275.3906 Q28.5,276.9375 29.7656,277.9688 Q31.0313,279 33.2813,279 Q34.6172,279 35.5547,278.6953 Q36.0938,278.5313 36.7031,277.9922 Q37.1016,277.6875 37.3125,277.5938 Q37.5234,277.5 37.7813,277.5 Q38.2734,277.5 38.625,277.8984 Q39,278.2734 39,278.8125 Q39,279.3281 38.4844,279.9375 Q37.7344,280.8281 36.5391,281.3203 Q34.9688,282 33.0469,282 Q30.7969,282 28.9922,281.1094 Q27.5391,280.4063 26.5078,278.8828 Q25.5,277.3594 25.5,275.5547 L25.5,273.9141 Q25.5,272.0391 26.3906,270.3984 Q27.3047,268.7578 28.875,267.8906 Q30.4688,267 32.25,267 Q33.3281,267 34.2656,267.375 Q35.2031,267.75 36,268.5 Z " fill="#000000"/><text fill="#000000" font-family="sans-serif" font-size="18" lengthAdjust="spacing" textLength="148.5" x="54" y="281.1152">CreateTestTypeUI</text><line style="stroke:#A80036;stroke-width:2.25;" x1="12" x2="205.5" y1="297.75" y2="297.75"/><line style="stroke:#A80036;stroke-width:2.25;" x1="12" x2="205.5" y1="309.75" y2="309.75"/><!--MD5=[320690cba070b8468face0bfd1ce9533]
link CTTUI to CTTC--><path codeLine="41" d="M207.15,285.75 C232.62,285.75 261.105,285.75 290.04,285.75 " fill="none" id="CTTUI-to-CTTC" style="stroke:#A80036;stroke-width:1.5;stroke-dasharray:7.0,7.0;"/><polygon fill="#A80036" points="298.215,285.75,284.715,279.75,290.715,285.75,284.715,291.75,298.215,285.75" style="stroke:#A80036;stroke-width:1.5;"/><!--MD5=[e1c0f205e01471a87324e4cc03d03bbe]
link C to PCS--><path codeLine="43" d="M984.21,105.015 C1065.48,100.155 1209.6,91.53 1315.725,85.185 " fill="none" id="C-to-PCS" style="stroke:#A80036;stroke-width:1.5;stroke-dasharray:7.0,7.0;"/><polygon fill="#A80036" points="1323.3,84.72,1309.464,79.5417,1315.8135,85.1705,1310.1848,91.52,1323.3,84.72" style="stroke:#A80036;stroke-width:1.5;"/><!--MD5=[694303a06a79f7ae0713de28a4008c97]
link TTS to C--><path codeLine="45" d="M671.655,96.255 C733.575,99.39 800.34,102.765 848.835,105.21 " fill="none" id="TTS-to-C" style="stroke:#A80036;stroke-width:1.5;stroke-dasharray:7.0,7.0;"/><polygon fill="#A80036" points="856.47,105.6,843.296,98.9145,848.9799,105.2148,842.6797,110.8987,856.47,105.6" style="stroke:#A80036;stroke-width:1.5;"/><!--MD5=[4ba949b41f5b4f886781165bf5f9b564]
link CTTC to TT--><path codeLine="47" d="M705.39,281.265 C846.3,278.13 1035.525,273.915 1187.73,270.54 " fill="none" id="CTTC-to-TT" style="stroke:#A80036;stroke-width:1.5;stroke-dasharray:7.0,7.0;"/><polygon fill="#A80036" points="1195.41,270.375,1181.7764,264.6851,1187.912,270.5464,1182.0506,276.6819,1195.41,270.375" style="stroke:#A80036;stroke-width:1.5;"/><!--MD5=[cf05f59dfce81a96099c5f95714bd5af]
link CTTC to C--><path codeLine="48" d="M662.115,218.07 C726.75,190.545 798.075,160.155 849.09,138.42 " fill="none" id="CTTC-to-C" style="stroke:#A80036;stroke-width:1.5;stroke-dasharray:7.0,7.0;"/><polygon fill="#A80036" points="856.47,135.285,841.6986,135.0492,849.5687,138.2213,846.3966,146.0914,856.47,135.285" style="stroke:#A80036;stroke-width:1.5;"/><!--MD5=[1d14db0b97cac770d171bdc7474dae00]
link CTTC to cNM--><path codeLine="49" d="M705.525,336.87 C733.815,344.01 762.255,351.195 788.715,357.885 " fill="none" id="CTTC-to-cNM" style="stroke:#A80036;stroke-width:1.5;stroke-dasharray:7.0,7.0;"/><polygon fill="#A80036" points="796.125,359.76,784.4896,350.6568,788.8502,357.9359,781.5711,362.2965,796.125,359.76" style="stroke:#A80036;stroke-width:1.5;"/><!--MD5=[b83cceec495819d0b37daa935a10185d]
link C to TT--><path codeLine="51" d="M984.21,127.26 C1035.54,142.47 1111.935,165.105 1188,187.635 " fill="none" id="C-to-TT" style="stroke:#A80036;stroke-width:1.5;"/><polygon fill="#A80036" points="1195.35,189.81,1184.1039,180.23,1188.1575,187.6845,1180.7031,191.738,1195.35,189.81" style="stroke:#A80036;stroke-width:1.5;"/><text fill="#000000" font-family="sans-serif" font-size="19.5" lengthAdjust="spacing" textLength="58.5" x="1090.5" y="152.9927">adopts</text><text fill="#000000" font-family="sans-serif" font-size="19.5" lengthAdjust="spacing" textLength="10.5" x="996.1055" y="152.813">1</text><text fill="#000000" font-family="sans-serif" font-size="19.5" lengthAdjust="spacing" textLength="7.5" x="1176.1526" y="207.2065">*</text><!--MD5=[df07b5ca1296950f4f7ea64c56a28326]
@startuml
skinparam classAttributeIconSize 0
left to right direction

class "Company" as C {
-designation
}

class "categoriesNameMapper" as cNM {
+toDTO(listCategoriesName)
}

class "TestTypeStore" as TTS{
+create(code, description, collectingMethod)
+validate(tt)
+add(tt)
+getAllTestTypes()
}

class "ParameterCategoryStore" as PCS{
+getAllParameterCategories()
}

class "TestType" as TT {
-code
-description
-collectingMethod
-ParameterCategory
+TestType(code, description, collectingMethod, ParameterCategory)
}

class "CreateTestTypeController" as CTTC {
+createTestType(code, description, collectingMethod)
+validateTestType()
+saveTestType()
}

class "CreateTestTypeUI" as CTTUI
class "TestType" as TT
class "CreateTestTypeController" as CTTC

CTTUI ..> CTTC

C ..> PCS

TTS ..> C

CTTC ..> TT
CTTC ..> C
CTTC ..> cNM

C "1" - -> "*" TT : adopts

@enduml

PlantUML version 1.2021.4(Sun Apr 04 09:49:39 BST 2021)
(GPL source distribution)
Java Runtime: OpenJDK Runtime Environment
JVM: OpenJDK 64-Bit Server VM
Default Encoding: Cp1252
Language: pt
Country: PT
--></g></svg>