<?xml version="1.0" encoding="UTF-8" standalone="no"?><svg xmlns="http://www.w3.org/2000/svg" xmlns:xlink="http://www.w3.org/1999/xlink" contentScriptType="application/ecmascript" contentStyleType="text/css" height="300.6px" preserveAspectRatio="none" style="width:1096px;height:300px;" version="1.1" viewBox="0 0 1096 300" width="1096.2px" zoomAndPan="magnify"><defs><filter height="300%" id="f1oumjpt58fezk" width="300%" x="-1" y="-1"><feGaussianBlur result="blurOut" stdDeviation="1.8"/><feColorMatrix in="blurOut" result="blurOut2" type="matrix" values="0 0 0 0 0 0 0 0 0 0 0 0 0 0 0 0 0 0 .4 0"/><feOffset dx="3.6" dy="3.6" in="blurOut2" result="blurOut3"/><feBlend in="SourceGraphic" in2="blurOut3" mode="normal"/></filter></defs><g><!--MD5=[02e4b9b7573f1156f41e60aa5b4e25a4]
class Company--><rect codeLine="28" fill="#FEFECE" filter="url(#f1oumjpt58fezk)" height="48.4523" id="Company" style="stroke:#A80036;stroke-width:1.35;" width="76.5" x="216.9" y="79.65"/><ellipse cx="230.4" cy="94.05" fill="#ADD1B2" rx="9.9" ry="9.9" style="stroke:#A80036;stroke-width:0.9;"/><path d="M232.2,90.9 Q232.3828,90.45 232.5938,90.225 Q232.8047,90 233.0438,90 Q233.4656,90 233.7328,90.2531 Q234,90.5063 234,91.0969 L234,92.5031 Q234,93.0938 233.7469,93.3469 Q233.4938,93.6 233.1,93.6 Q232.7484,93.6 232.5234,93.4453 Q232.2984,93.2906 232.2,92.8828 Q232.1578,92.6016 232.0031,92.4469 Q231.7219,92.1516 231.2156,91.9828 Q230.7094,91.8 230.2031,91.8 Q229.5703,91.8 229.0359,92.0531 Q228.5156,92.3063 228.1078,92.8688 Q227.7,93.4313 227.7,94.2047 L227.7,95.0344 Q227.7,95.9625 228.4594,96.5813 Q229.2188,97.2 230.5688,97.2 Q231.3703,97.2 231.9328,97.0172 Q232.2563,96.9188 232.6219,96.5953 Q232.8609,96.4125 232.9875,96.3563 Q233.1141,96.3 233.2688,96.3 Q233.5641,96.3 233.775,96.5391 Q234,96.7641 234,97.0875 Q234,97.3969 233.6906,97.7625 Q233.2406,98.2969 232.5234,98.5922 Q231.5813,99 230.4281,99 Q229.0781,99 227.9953,98.4656 Q227.1234,98.0438 226.5047,97.1297 Q225.9,96.2156 225.9,95.1328 L225.9,94.1484 Q225.9,93.0234 226.4344,92.0391 Q226.9828,91.0547 227.925,90.5344 Q228.8813,90 229.95,90 Q230.5969,90 231.1594,90.225 Q231.7219,90.45 232.2,90.9 Z " fill="#000000"/><text fill="#000000" font-family="sans-serif" font-size="10.8" lengthAdjust="spacing" textLength="47.7" x="243" y="98.4691">Company</text><line style="stroke:#A80036;stroke-width:1.35;" x1="217.8" x2="292.5" y1="108.45" y2="108.45"/><text fill="#000000" font-family="sans-serif" font-size="9.9" lengthAdjust="spacing" textLength="53.1" x="222.3" y="122.3271">-designation</text><!--MD5=[7421f545a0d8420c5bec41e74b387d9c]
class Employee--><rect codeLine="32" fill="#FEFECE" filter="url(#f1oumjpt58fezk)" height="123.1664" id="Employee" style="stroke:#A80036;stroke-width:1.35;" width="78.3" x="10.35" y="165.6"/><ellipse cx="23.85" cy="180" fill="#ADD1B2" rx="9.9" ry="9.9" style="stroke:#A80036;stroke-width:0.9;"/><path d="M25.65,176.85 Q25.8328,176.4 26.0438,176.175 Q26.2547,175.95 26.4938,175.95 Q26.9156,175.95 27.1828,176.2031 Q27.45,176.4563 27.45,177.0469 L27.45,178.4531 Q27.45,179.0438 27.1969,179.2969 Q26.9438,179.55 26.55,179.55 Q26.1984,179.55 25.9734,179.3953 Q25.7484,179.2406 25.65,178.8328 Q25.6078,178.5516 25.4531,178.3969 Q25.1719,178.1016 24.6656,177.9328 Q24.1594,177.75 23.6531,177.75 Q23.0203,177.75 22.4859,178.0031 Q21.9656,178.2563 21.5578,178.8188 Q21.15,179.3813 21.15,180.1547 L21.15,180.9844 Q21.15,181.9125 21.9094,182.5313 Q22.6688,183.15 24.0188,183.15 Q24.8203,183.15 25.3828,182.9672 Q25.7063,182.8688 26.0719,182.5453 Q26.3109,182.3625 26.4375,182.3063 Q26.5641,182.25 26.7188,182.25 Q27.0141,182.25 27.225,182.4891 Q27.45,182.7141 27.45,183.0375 Q27.45,183.3469 27.1406,183.7125 Q26.6906,184.2469 25.9734,184.5422 Q25.0313,184.95 23.8781,184.95 Q22.5281,184.95 21.4453,184.4156 Q20.5734,183.9938 19.9547,183.0797 Q19.35,182.1656 19.35,181.0828 L19.35,180.0984 Q19.35,178.9734 19.8844,177.9891 Q20.4328,177.0047 21.375,176.4844 Q22.3313,175.95 23.4,175.95 Q24.0469,175.95 24.6094,176.175 Q25.1719,176.4 25.65,176.85 Z " fill="#000000"/><text fill="#000000" font-family="sans-serif" font-size="10.8" lengthAdjust="spacing" textLength="49.5" x="36.45" y="184.4191">Employee</text><line style="stroke:#A80036;stroke-width:1.35;" x1="11.25" x2="87.75" y1="194.4" y2="194.4"/><text fill="#000000" font-family="sans-serif" font-size="9.9" lengthAdjust="spacing" textLength="27" x="15.75" y="208.2771">-name</text><text fill="#000000" font-family="sans-serif" font-size="9.9" lengthAdjust="spacing" textLength="39.6" x="15.75" y="220.7294">-address</text><text fill="#000000" font-family="sans-serif" font-size="9.9" lengthAdjust="spacing" textLength="63.9" x="15.75" y="233.1817">-phoneNumber</text><text fill="#000000" font-family="sans-serif" font-size="9.9" lengthAdjust="spacing" textLength="53.1" x="15.75" y="245.6341">-employeeID</text><text fill="#000000" font-family="sans-serif" font-size="9.9" lengthAdjust="spacing" textLength="36.9" x="15.75" y="258.0864">-orgRole</text><text fill="#000000" font-family="sans-serif" font-size="9.9" lengthAdjust="spacing" textLength="25.2" x="15.75" y="270.5388">-email</text><text fill="#000000" font-family="sans-serif" font-size="9.9" lengthAdjust="spacing" textLength="45" x="15.75" y="282.9911">-SOCcode</text><!--MD5=[da547346deef918ea16944ba046651ef]
class Administrator--><rect codeLine="42" fill="#FEFECE" filter="url(#f1oumjpt58fezk)" height="36" id="Administrator" style="stroke:#A80036;stroke-width:1.35;" width="94.5" x="207.9" y="159.75"/><ellipse cx="221.4" cy="174.15" fill="#ADD1B2" rx="9.9" ry="9.9" style="stroke:#A80036;stroke-width:0.9;"/><path d="M223.2,171 Q223.3828,170.55 223.5938,170.325 Q223.8047,170.1 224.0438,170.1 Q224.4656,170.1 224.7328,170.3531 Q225,170.6063 225,171.1969 L225,172.6031 Q225,173.1938 224.7469,173.4469 Q224.4938,173.7 224.1,173.7 Q223.7484,173.7 223.5234,173.5453 Q223.2984,173.3906 223.2,172.9828 Q223.1578,172.7016 223.0031,172.5469 Q222.7219,172.2516 222.2156,172.0828 Q221.7094,171.9 221.2031,171.9 Q220.5703,171.9 220.0359,172.1531 Q219.5156,172.4063 219.1078,172.9688 Q218.7,173.5313 218.7,174.3047 L218.7,175.1344 Q218.7,176.0625 219.4594,176.6813 Q220.2188,177.3 221.5688,177.3 Q222.3703,177.3 222.9328,177.1172 Q223.2563,177.0188 223.6219,176.6953 Q223.8609,176.5125 223.9875,176.4563 Q224.1141,176.4 224.2688,176.4 Q224.5641,176.4 224.775,176.6391 Q225,176.8641 225,177.1875 Q225,177.4969 224.6906,177.8625 Q224.2406,178.3969 223.5234,178.6922 Q222.5813,179.1 221.4281,179.1 Q220.0781,179.1 218.9953,178.5656 Q218.1234,178.1438 217.5047,177.2297 Q216.9,176.3156 216.9,175.2328 L216.9,174.2484 Q216.9,173.1234 217.4344,172.1391 Q217.9828,171.1547 218.925,170.6344 Q219.8813,170.1 220.95,170.1 Q221.5969,170.1 222.1594,170.325 Q222.7219,170.55 223.2,171 Z " fill="#000000"/><text fill="#000000" font-family="sans-serif" font-size="10.8" lengthAdjust="spacing" textLength="65.7" x="234" y="178.5691">Administrator</text><line style="stroke:#A80036;stroke-width:1.35;" x1="208.8" x2="301.5" y1="188.55" y2="188.55"/><!--MD5=[36afb6bbd95a8ac778c4537c55a683d5]
class ParameterCategory--><rect codeLine="45" fill="#FEFECE" filter="url(#f1oumjpt58fezk)" height="73.357" id="ParameterCategory" style="stroke:#A80036;stroke-width:1.35;" width="125.1" x="424.8" y="106.65"/><ellipse cx="438.3" cy="121.05" fill="#ADD1B2" rx="9.9" ry="9.9" style="stroke:#A80036;stroke-width:0.9;"/><path d="M440.1,117.9 Q440.2828,117.45 440.4938,117.225 Q440.7047,117 440.9438,117 Q441.3656,117 441.6328,117.2531 Q441.9,117.5063 441.9,118.0969 L441.9,119.5031 Q441.9,120.0938 441.6469,120.3469 Q441.3938,120.6 441,120.6 Q440.6484,120.6 440.4234,120.4453 Q440.1984,120.2906 440.1,119.8828 Q440.0578,119.6016 439.9031,119.4469 Q439.6219,119.1516 439.1156,118.9828 Q438.6094,118.8 438.1031,118.8 Q437.4703,118.8 436.9359,119.0531 Q436.4156,119.3063 436.0078,119.8688 Q435.6,120.4313 435.6,121.2047 L435.6,122.0344 Q435.6,122.9625 436.3594,123.5813 Q437.1188,124.2 438.4688,124.2 Q439.2703,124.2 439.8328,124.0172 Q440.1563,123.9188 440.5219,123.5953 Q440.7609,123.4125 440.8875,123.3563 Q441.0141,123.3 441.1688,123.3 Q441.4641,123.3 441.675,123.5391 Q441.9,123.7641 441.9,124.0875 Q441.9,124.3969 441.5906,124.7625 Q441.1406,125.2969 440.4234,125.5922 Q439.4813,126 438.3281,126 Q436.9781,126 435.8953,125.4656 Q435.0234,125.0438 434.4047,124.1297 Q433.8,123.2156 433.8,122.1328 L433.8,121.1484 Q433.8,120.0234 434.3344,119.0391 Q434.8828,118.0547 435.825,117.5344 Q436.7813,117 437.85,117 Q438.4969,117 439.0594,117.225 Q439.6219,117.45 440.1,117.9 Z " fill="#000000"/><text fill="#000000" font-family="sans-serif" font-size="10.8" lengthAdjust="spacing" textLength="96.3" x="450.9" y="125.4691">ParameterCategory</text><line style="stroke:#A80036;stroke-width:1.35;" x1="425.7" x2="549" y1="135.45" y2="135.45"/><text fill="#000000" font-family="sans-serif" font-size="9.9" lengthAdjust="spacing" textLength="25.2" x="430.2" y="149.3271">-code</text><text fill="#000000" font-family="sans-serif" font-size="9.9" lengthAdjust="spacing" textLength="51.3" x="430.2" y="161.7794">-description</text><text fill="#000000" font-family="sans-serif" font-size="9.9" lengthAdjust="spacing" textLength="27.9" x="430.2" y="174.2317">-nhsID</text><!--MD5=[1f6362a5c8f21d8d6a0fce68f3a92a4e]
class Parameter--><rect codeLine="51" fill="#FEFECE" filter="url(#f1oumjpt58fezk)" height="73.357" id="Parameter" style="stroke:#A80036;stroke-width:1.35;" width="81" x="701.1" y="83.25"/><ellipse cx="714.6" cy="97.65" fill="#ADD1B2" rx="9.9" ry="9.9" style="stroke:#A80036;stroke-width:0.9;"/><path d="M716.4,94.5 Q716.5828,94.05 716.7938,93.825 Q717.0047,93.6 717.2438,93.6 Q717.6656,93.6 717.9328,93.8531 Q718.2,94.1063 718.2,94.6969 L718.2,96.1031 Q718.2,96.6938 717.9469,96.9469 Q717.6938,97.2 717.3,97.2 Q716.9484,97.2 716.7234,97.0453 Q716.4984,96.8906 716.4,96.4828 Q716.3578,96.2016 716.2031,96.0469 Q715.9219,95.7516 715.4156,95.5828 Q714.9094,95.4 714.4031,95.4 Q713.7703,95.4 713.2359,95.6531 Q712.7156,95.9063 712.3078,96.4688 Q711.9,97.0313 711.9,97.8047 L711.9,98.6344 Q711.9,99.5625 712.6594,100.1813 Q713.4188,100.8 714.7688,100.8 Q715.5703,100.8 716.1328,100.6172 Q716.4563,100.5188 716.8219,100.1953 Q717.0609,100.0125 717.1875,99.9563 Q717.3141,99.9 717.4688,99.9 Q717.7641,99.9 717.975,100.1391 Q718.2,100.3641 718.2,100.6875 Q718.2,100.9969 717.8906,101.3625 Q717.4406,101.8969 716.7234,102.1922 Q715.7813,102.6 714.6281,102.6 Q713.2781,102.6 712.1953,102.0656 Q711.3234,101.6438 710.7047,100.7297 Q710.1,99.8156 710.1,98.7328 L710.1,97.7484 Q710.1,96.6234 710.6344,95.6391 Q711.1828,94.6547 712.125,94.1344 Q713.0813,93.6 714.15,93.6 Q714.7969,93.6 715.3594,93.825 Q715.9219,94.05 716.4,94.5 Z " fill="#000000"/><text fill="#000000" font-family="sans-serif" font-size="10.8" lengthAdjust="spacing" textLength="52.2" x="727.2" y="102.0691">Parameter</text><line style="stroke:#A80036;stroke-width:1.35;" x1="702" x2="781.2" y1="112.05" y2="112.05"/><text fill="#000000" font-family="sans-serif" font-size="9.9" lengthAdjust="spacing" textLength="53.1" x="706.5" y="125.9271">-designation</text><text fill="#000000" font-family="sans-serif" font-size="9.9" lengthAdjust="spacing" textLength="51.3" x="706.5" y="138.3794">-description</text><text fill="#000000" font-family="sans-serif" font-size="9.9" lengthAdjust="spacing" textLength="25.2" x="706.5" y="150.8317">-code</text><!--MD5=[aeb3272166074d8737a70b61b1e71682]
class TestType--><rect codeLine="57" fill="#FEFECE" filter="url(#f1oumjpt58fezk)" height="73.357" id="TestType" style="stroke:#A80036;stroke-width:1.35;" width="86.4" x="6.3" y="59.85"/><ellipse cx="25.47" cy="74.25" fill="#ADD1B2" rx="9.9" ry="9.9" style="stroke:#A80036;stroke-width:0.9;"/><path d="M27.27,71.1 Q27.4528,70.65 27.6638,70.425 Q27.8747,70.2 28.1138,70.2 Q28.5356,70.2 28.8028,70.4531 Q29.07,70.7063 29.07,71.2969 L29.07,72.7031 Q29.07,73.2938 28.8169,73.5469 Q28.5638,73.8 28.17,73.8 Q27.8184,73.8 27.5934,73.6453 Q27.3684,73.4906 27.27,73.0828 Q27.2278,72.8016 27.0731,72.6469 Q26.7919,72.3516 26.2856,72.1828 Q25.7794,72 25.2731,72 Q24.6403,72 24.1059,72.2531 Q23.5856,72.5063 23.1778,73.0688 Q22.77,73.6313 22.77,74.4047 L22.77,75.2344 Q22.77,76.1625 23.5294,76.7813 Q24.2888,77.4 25.6388,77.4 Q26.4403,77.4 27.0028,77.2172 Q27.3263,77.1188 27.6919,76.7953 Q27.9309,76.6125 28.0575,76.5563 Q28.1841,76.5 28.3388,76.5 Q28.6341,76.5 28.845,76.7391 Q29.07,76.9641 29.07,77.2875 Q29.07,77.5969 28.7606,77.9625 Q28.3106,78.4969 27.5934,78.7922 Q26.6513,79.2 25.4981,79.2 Q24.1481,79.2 23.0653,78.6656 Q22.1934,78.2438 21.5747,77.3297 Q20.97,76.4156 20.97,75.3328 L20.97,74.3484 Q20.97,73.2234 21.5044,72.2391 Q22.0528,71.2547 22.995,70.7344 Q23.9513,70.2 25.02,70.2 Q25.6669,70.2 26.2294,70.425 Q26.7919,70.65 27.27,71.1 Z " fill="#000000"/><text fill="#000000" font-family="sans-serif" font-size="10.8" lengthAdjust="spacing" textLength="45" x="39.33" y="78.6691">TestType</text><line style="stroke:#A80036;stroke-width:1.35;" x1="7.2" x2="91.8" y1="88.65" y2="88.65"/><text fill="#000000" font-family="sans-serif" font-size="9.9" lengthAdjust="spacing" textLength="25.2" x="11.7" y="102.5271">-code</text><text fill="#000000" font-family="sans-serif" font-size="9.9" lengthAdjust="spacing" textLength="51.3" x="11.7" y="114.9794">-description</text><text fill="#000000" font-family="sans-serif" font-size="9.9" lengthAdjust="spacing" textLength="75.6" x="11.7" y="127.4317">-collectingMethod</text><!--MD5=[df38be88ccee13e832d6fafd6288a4ca]
class Test--><rect codeLine="63" fill="#FEFECE" filter="url(#f1oumjpt58fezk)" height="135.6188" id="Test" style="stroke:#A80036;stroke-width:1.35;" width="129.6" x="954" y="6.3"/><ellipse cx="1004.175" cy="20.7" fill="#ADD1B2" rx="9.9" ry="9.9" style="stroke:#A80036;stroke-width:0.9;"/><path d="M1005.975,17.55 Q1006.1578,17.1 1006.3688,16.875 Q1006.5797,16.65 1006.8188,16.65 Q1007.2406,16.65 1007.5078,16.9031 Q1007.775,17.1563 1007.775,17.7469 L1007.775,19.1531 Q1007.775,19.7438 1007.5219,19.9969 Q1007.2688,20.25 1006.875,20.25 Q1006.5234,20.25 1006.2984,20.0953 Q1006.0734,19.9406 1005.975,19.5328 Q1005.9328,19.2516 1005.7781,19.0969 Q1005.4969,18.8016 1004.9906,18.6328 Q1004.4844,18.45 1003.9781,18.45 Q1003.3453,18.45 1002.8109,18.7031 Q1002.2906,18.9563 1001.8828,19.5188 Q1001.475,20.0813 1001.475,20.8547 L1001.475,21.6844 Q1001.475,22.6125 1002.2344,23.2313 Q1002.9938,23.85 1004.3438,23.85 Q1005.1453,23.85 1005.7078,23.6672 Q1006.0313,23.5688 1006.3969,23.2453 Q1006.6359,23.0625 1006.7625,23.0063 Q1006.8891,22.95 1007.0438,22.95 Q1007.3391,22.95 1007.55,23.1891 Q1007.775,23.4141 1007.775,23.7375 Q1007.775,24.0469 1007.4656,24.4125 Q1007.0156,24.9469 1006.2984,25.2422 Q1005.3563,25.65 1004.2031,25.65 Q1002.8531,25.65 1001.7703,25.1156 Q1000.8984,24.6938 1000.2797,23.7797 Q999.675,22.8656 999.675,21.7828 L999.675,20.7984 Q999.675,19.6734 1000.2094,18.6891 Q1000.7578,17.7047 1001.7,17.1844 Q1002.6563,16.65 1003.725,16.65 Q1004.3719,16.65 1004.9344,16.875 Q1005.4969,17.1 1005.975,17.55 Z " fill="#000000"/><text fill="#000000" font-family="sans-serif" font-size="10.8" lengthAdjust="spacing" textLength="21.6" x="1022.625" y="25.1191">Test</text><line style="stroke:#A80036;stroke-width:1.35;" x1="954.9" x2="1082.7" y1="35.1" y2="35.1"/><text fill="#000000" font-family="sans-serif" font-size="9.9" lengthAdjust="spacing" textLength="51.3" x="959.4" y="48.9771">-description</text><text fill="#000000" font-family="sans-serif" font-size="9.9" lengthAdjust="spacing" textLength="57.6" x="959.4" y="61.4294">-internalCode</text><text fill="#000000" font-family="sans-serif" font-size="9.9" lengthAdjust="spacing" textLength="42.3" x="959.4" y="73.8817">-nhsCode</text><text fill="#000000" font-family="sans-serif" font-size="9.9" lengthAdjust="spacing" textLength="63" x="959.4" y="86.3341">-collectMethod</text><text fill="#000000" font-family="sans-serif" font-size="9.9" lengthAdjust="spacing" textLength="71.1" x="959.4" y="98.7864">-collectDateTime</text><text fill="#000000" font-family="sans-serif" font-size="9.9" lengthAdjust="spacing" textLength="118.8" x="959.4" y="111.2388">-chemicalAnalysisDateTime</text><text fill="#000000" font-family="sans-serif" font-size="9.9" lengthAdjust="spacing" textLength="84.6" x="959.4" y="123.6911">-diagnosisDateTime</text><text fill="#000000" font-family="sans-serif" font-size="9.9" lengthAdjust="spacing" textLength="83.7" x="959.4" y="136.1435">-validationDateTime</text><!--MD5=[b8a4f1f13c2d56b2385b1bfafed8418f]
link Employee to Administrator--><path codeLine="12" d="M88.839,228.501 C115.245,228.366 150.813,226.179 180.9,217.35 C197.145,212.58 213.867,203.904 227.232,195.876 " fill="none" id="Employee-Administrator" style="stroke:#A80036;stroke-width:0.9;"/><polygon fill="#000000" points="134.2201,210.4407,142.7504,211.1473,141.5365,205.9984,134.2201,210.4407" style="stroke:#000000;stroke-width:0.9;"/><text fill="#000000" font-family="sans-serif" font-size="11.7" lengthAdjust="spacing" textLength="18.9" x="146.7" y="214.1956">is a</text><text fill="#000000" font-family="sans-serif" font-size="11.7" lengthAdjust="spacing" textLength="4.5" x="95.7272" y="242.0836">*</text><text fill="#000000" font-family="sans-serif" font-size="11.7" lengthAdjust="spacing" textLength="6.3" x="212.1941" y="215.189">1</text><!--MD5=[7a9e3e328fb1db48284e23a673c1e60d]
link ParameterCategory to Parameter--><path codeLine="14" d="M550.008,137.826 C597.006,133.47 660.312,127.602 700.83,123.849 " fill="none" id="ParameterCategory-Parameter" style="stroke:#A80036;stroke-width:0.9;"/><polygon fill="#000000" points="576.9192,118.0234,585.2691,119.906,584.781,114.6385,576.9192,118.0234" style="stroke:#000000;stroke-width:0.9;"/><text fill="#000000" font-family="sans-serif" font-size="11.7" lengthAdjust="spacing" textLength="83.7" x="589.5" y="122.3956">presented under</text><text fill="#000000" font-family="sans-serif" font-size="11.7" lengthAdjust="spacing" textLength="6.3" x="557.2058" y="150.1746">1</text><text fill="#000000" font-family="sans-serif" font-size="11.7" lengthAdjust="spacing" textLength="4.5" x="689.4737" y="137.7921">*</text><!--MD5=[4265453a012991a726928e22789b8a83]
link Parameter to Test--><path codeLine="16" d="M782.253,113.526 C827.163,106.038 900.891,93.753 953.928,84.915 " fill="none" id="Parameter-Test" style="stroke:#A80036;stroke-width:0.9;"/><polygon fill="#000000" points="809.1612,82.348,817.6259,83.6188,816.7562,78.4007,809.1612,82.348" style="stroke:#000000;stroke-width:0.9;"/><text fill="#000000" font-family="sans-serif" font-size="11.7" lengthAdjust="spacing" textLength="104.4" x="821.7" y="86.3956">requests analysis of</text><text fill="#000000" font-family="sans-serif" font-size="11.7" lengthAdjust="spacing" textLength="18" x="789.2355" y="125.806">1..*</text><text fill="#000000" font-family="sans-serif" font-size="11.7" lengthAdjust="spacing" textLength="4.5" x="942.506" y="98.9338">*</text><!--MD5=[6d9eb9a083ac0654c8b63743033752d3]
link TestType to Company--><path codeLine="18" d="M92.889,98.253 C129.411,99.54 181.584,101.385 216.621,102.618 " fill="none" id="TestType-Company" style="stroke:#A80036;stroke-width:0.9;"/><polygon fill="#000000" points="119.7028,90.4496,127.7451,93.3799,127.9316,88.0932,119.7028,90.4496" style="stroke:#000000;stroke-width:0.9;"/><text fill="#000000" font-family="sans-serif" font-size="11.7" lengthAdjust="spacing" textLength="47.7" x="132.3" y="95.3956">conducts</text><text fill="#000000" font-family="sans-serif" font-size="11.7" lengthAdjust="spacing" textLength="4.5" x="99.8775" y="111.7894">*</text><text fill="#000000" font-family="sans-serif" font-size="11.7" lengthAdjust="spacing" textLength="6.3" x="203.4179" y="115.7739">1</text><!--MD5=[c2c6b28b052a3fe86d789b83a09b2815]
link TestType to Test--><path codeLine="20" d="M92.898,74.808 C133.29,56.016 196.317,31.95 254.25,31.95 C254.25,31.95 254.25,31.95 742.5,31.95 C815.544,31.95 898.236,46.665 953.775,58.743 " fill="none" id="TestType-Test" style="stroke:#A80036;stroke-width:0.9;"/><polygon fill="#000000" points="469.8008,24.0922,477.9893,26.5849,477.8906,21.2957,469.8008,24.0922" style="stroke:#000000;stroke-width:0.9;"/><text fill="#000000" font-family="sans-serif" font-size="11.7" lengthAdjust="spacing" textLength="21.6" x="482.4" y="28.7956">is of</text><text fill="#000000" font-family="sans-serif" font-size="11.7" lengthAdjust="spacing" textLength="6.3" x="100.0257" y="84.7544">1</text><text fill="#000000" font-family="sans-serif" font-size="11.7" lengthAdjust="spacing" textLength="4.5" x="942.3373" y="70.0628">*</text><!--MD5=[0985ee834cc881275852ed47ce1e01f6]
link TestType to Administrator--><path codeLine="22" d="M92.889,113.634 C126.72,127.08 173.997,145.863 208.629,159.624 " fill="none" id="TestType-Administrator" style="stroke:#A80036;stroke-width:0.9;"/><polygon fill="#000000" points="124.5181,115.0465,131.1065,120.5107,133.06,115.5945,124.5181,115.0465" style="stroke:#000000;stroke-width:0.9;"/><text fill="#000000" font-family="sans-serif" font-size="11.7" lengthAdjust="spacing" textLength="38.7" x="136.8" y="121.4956">creates</text><text fill="#000000" font-family="sans-serif" font-size="11.7" lengthAdjust="spacing" textLength="4.5" x="99.8775" y="129.5256">*</text><text fill="#000000" font-family="sans-serif" font-size="11.7" lengthAdjust="spacing" textLength="6.3" x="194.4127" y="153.3585">1</text><!--MD5=[7144ffdeebbe38808f7fb2ce8ac24f7d]
link Administrator to ParameterCategory--><path codeLine="24" d="M302.679,170.829 C337.779,165.618 386.253,158.427 424.602,152.73 " fill="none" id="Administrator-ParameterCategory" style="stroke:#A80036;stroke-width:0.9;"/><polygon fill="#000000" points="329.4488,149.769,337.8895,151.19,337.1127,145.9573,329.4488,149.769" style="stroke:#000000;stroke-width:0.9;"/><text fill="#000000" font-family="sans-serif" font-size="11.7" lengthAdjust="spacing" textLength="54.9" x="342" y="153.8956">created by</text><text fill="#000000" font-family="sans-serif" font-size="11.7" lengthAdjust="spacing" textLength="6.3" x="309.489" y="183.0334">1</text><text fill="#000000" font-family="sans-serif" font-size="11.7" lengthAdjust="spacing" textLength="4.5" x="412.9928" y="166.7087">*</text><!--MD5=[c3197231ae4bb16e74c5bb6350d7f152]
@startuml
hide methods
left to right direction

class Company
class Employee
class Administrator
class ParameterCategory
class Parameter
class TestType
class Test

Employee "*" - - "1" Administrator : < is a

ParameterCategory "1" - - "*" Parameter : < presented under

Parameter "1..*" - - "*" Test : < requests analysis of

TestType "*" - - "1" Company : < conducts

TestType "1" - - "*" Test: < is of

TestType "*" - - "1" Administrator : < creates

Administrator "1" - - "*" ParameterCategory : < created by

skinparam classAttributeIconSize 0

class Company{
-designation
}

class Employee{
-name
-address
-phoneNumber
-employeeID
-orgRole
-email
-SOCcode
}

class Administrator{
}

class ParameterCategory{
-code
-description
-nhsID
}

class Parameter{
-designation
-description
-code
}

class TestType{
-code
-description
-collectingMethod
}

class Test{
-description
-internalCode
-nhsCode
-collectMethod
-collectDateTime
-chemicalAnalysisDateTime
-diagnosisDateTime
-validationDateTime
}

@enduml

PlantUML version 1.2021.4(Sun Apr 04 09:49:39 BST 2021)
(GPL source distribution)
Java Runtime: OpenJDK Runtime Environment
JVM: OpenJDK 64-Bit Server VM
Default Encoding: Cp1252
Language: pt
Country: PT
--></g></svg>