<?xml version="1.0" encoding="UTF-8" standalone="no"?><svg xmlns="http://www.w3.org/2000/svg" xmlns:xlink="http://www.w3.org/1999/xlink" contentScriptType="application/ecmascript" contentStyleType="text/css" height="347px" preserveAspectRatio="none" style="width:1607px;height:347px;" version="1.1" viewBox="0 0 1607 347" width="1607px" zoomAndPan="magnify"><defs><filter height="300%" id="f1pdjdt7vc4zck" width="300%" x="-1" y="-1"><feGaussianBlur result="blurOut" stdDeviation="2.0"/><feColorMatrix in="blurOut" result="blurOut2" type="matrix" values="0 0 0 0 0 0 0 0 0 0 0 0 0 0 0 0 0 0 .4 0"/><feOffset dx="4.0" dy="4.0" in="blurOut2" result="blurOut3"/><feBlend in="SourceGraphic" in2="blurOut3" mode="normal"/></filter></defs><g><!--MD5=[378b18254a1b2429f435e93f5e5cc50c]
class C--><rect codeLine="4" fill="#FEFECE" filter="url(#f1pdjdt7vc4zck)" height="89.5078" id="C" style="stroke:#A80036;stroke-width:1.5;" width="160" x="637" y="202"/><ellipse cx="686.25" cy="218" fill="#ADD1B2" rx="11" ry="11" style="stroke:#A80036;stroke-width:1.0;"/><path d="M688.25,214.5 Q688.4531,214 688.6875,213.75 Q688.9219,213.5 689.1875,213.5 Q689.6563,213.5 689.9531,213.7813 Q690.25,214.0625 690.25,214.7188 L690.25,216.2813 Q690.25,216.9375 689.9688,217.2188 Q689.6875,217.5 689.25,217.5 Q688.8594,217.5 688.6094,217.3281 Q688.3594,217.1563 688.25,216.7031 Q688.2031,216.3906 688.0313,216.2188 Q687.7188,215.8906 687.1563,215.7031 Q686.5938,215.5 686.0313,215.5 Q685.3281,215.5 684.7344,215.7813 Q684.1563,216.0625 683.7031,216.6875 Q683.25,217.3125 683.25,218.1719 L683.25,219.0938 Q683.25,220.125 684.0938,220.8125 Q684.9375,221.5 686.4375,221.5 Q687.3281,221.5 687.9531,221.2969 Q688.3125,221.1875 688.7188,220.8281 Q688.9844,220.625 689.125,220.5625 Q689.2656,220.5 689.4375,220.5 Q689.7656,220.5 690,220.7656 Q690.25,221.0156 690.25,221.375 Q690.25,221.7188 689.9063,222.125 Q689.4063,222.7188 688.6094,223.0469 Q687.5625,223.5 686.2813,223.5 Q684.7813,223.5 683.5781,222.9063 Q682.6094,222.4375 681.9219,221.4219 Q681.25,220.4063 681.25,219.2031 L681.25,218.1094 Q681.25,216.8594 681.8438,215.7656 Q682.4531,214.6719 683.5,214.0938 Q684.5625,213.5 685.75,213.5 Q686.4688,213.5 687.0938,213.75 Q687.7188,214 688.25,214.5 Z " fill="#000000"/><text fill="#000000" font-family="sans-serif" font-size="12" lengthAdjust="spacing" textLength="53" x="706.75" y="222.9102">Company</text><line style="stroke:#A80036;stroke-width:1.5;" x1="638" x2="796" y1="234" y2="234"/><text fill="#000000" font-family="sans-serif" font-size="11" lengthAdjust="spacing" textLength="90" x="643" y="249.4189">-String designation</text><line style="stroke:#A80036;stroke-width:1.5;" x1="638" x2="796" y1="255.8359" y2="255.8359"/><text fill="#000000" font-family="sans-serif" font-size="11" lengthAdjust="spacing" textLength="100" x="643" y="271.2549">+getTestTypeStore()</text><text fill="#000000" font-family="sans-serif" font-size="11" lengthAdjust="spacing" textLength="148" x="643" y="285.0908">+getParameterCategoryStore()</text><!--MD5=[606124dbd33b65145bd2d31e230d6615]
class cNM--><rect codeLine="10" fill="#FEFECE" filter="url(#f1pdjdt7vc4zck)" height="61.8359" id="cNM" style="stroke:#A80036;stroke-width:1.5;" width="276" x="579" y="7"/><ellipse cx="646.25" cy="23" fill="#ADD1B2" rx="11" ry="11" style="stroke:#A80036;stroke-width:1.0;"/><path d="M648.25,19.5 Q648.4531,19 648.6875,18.75 Q648.9219,18.5 649.1875,18.5 Q649.6563,18.5 649.9531,18.7813 Q650.25,19.0625 650.25,19.7188 L650.25,21.2813 Q650.25,21.9375 649.9688,22.2188 Q649.6875,22.5 649.25,22.5 Q648.8594,22.5 648.6094,22.3281 Q648.3594,22.1563 648.25,21.7031 Q648.2031,21.3906 648.0313,21.2188 Q647.7188,20.8906 647.1563,20.7031 Q646.5938,20.5 646.0313,20.5 Q645.3281,20.5 644.7344,20.7813 Q644.1563,21.0625 643.7031,21.6875 Q643.25,22.3125 643.25,23.1719 L643.25,24.0938 Q643.25,25.125 644.0938,25.8125 Q644.9375,26.5 646.4375,26.5 Q647.3281,26.5 647.9531,26.2969 Q648.3125,26.1875 648.7188,25.8281 Q648.9844,25.625 649.125,25.5625 Q649.2656,25.5 649.4375,25.5 Q649.7656,25.5 650,25.7656 Q650.25,26.0156 650.25,26.375 Q650.25,26.7188 649.9063,27.125 Q649.4063,27.7188 648.6094,28.0469 Q647.5625,28.5 646.2813,28.5 Q644.7813,28.5 643.5781,27.9063 Q642.6094,27.4375 641.9219,26.4219 Q641.25,25.4063 641.25,24.2031 L641.25,23.1094 Q641.25,21.8594 641.8438,20.7656 Q642.4531,19.6719 643.5,19.0938 Q644.5625,18.5 645.75,18.5 Q646.4688,18.5 647.0938,18.75 Q647.7188,19 648.25,19.5 Z " fill="#000000"/><text fill="#000000" font-family="sans-serif" font-size="12" lengthAdjust="spacing" textLength="133" x="666.75" y="27.9102">categoriesNameMapper</text><line style="stroke:#A80036;stroke-width:1.5;" x1="580" x2="854" y1="39" y2="39"/><line style="stroke:#A80036;stroke-width:1.5;" x1="580" x2="854" y1="47" y2="47"/><text fill="#000000" font-family="sans-serif" font-size="11" lengthAdjust="spacing" textLength="264" x="585" y="62.4189">+List &lt;ParameterCategory&gt; toDTO(listCategoriesName)</text><!--MD5=[0c21d7a5a5555e4278001068caacbd33]
class TTS--><rect codeLine="14" fill="#FEFECE" filter="url(#f1pdjdt7vc4zck)" height="103.3438" id="TTS" style="stroke:#A80036;stroke-width:1.5;" width="274" x="221.5" y="198.5"/><ellipse cx="314.75" cy="214.5" fill="#ADD1B2" rx="11" ry="11" style="stroke:#A80036;stroke-width:1.0;"/><path d="M316.75,211 Q316.9531,210.5 317.1875,210.25 Q317.4219,210 317.6875,210 Q318.1563,210 318.4531,210.2813 Q318.75,210.5625 318.75,211.2188 L318.75,212.7813 Q318.75,213.4375 318.4688,213.7188 Q318.1875,214 317.75,214 Q317.3594,214 317.1094,213.8281 Q316.8594,213.6563 316.75,213.2031 Q316.7031,212.8906 316.5313,212.7188 Q316.2188,212.3906 315.6563,212.2031 Q315.0938,212 314.5313,212 Q313.8281,212 313.2344,212.2813 Q312.6563,212.5625 312.2031,213.1875 Q311.75,213.8125 311.75,214.6719 L311.75,215.5938 Q311.75,216.625 312.5938,217.3125 Q313.4375,218 314.9375,218 Q315.8281,218 316.4531,217.7969 Q316.8125,217.6875 317.2188,217.3281 Q317.4844,217.125 317.625,217.0625 Q317.7656,217 317.9375,217 Q318.2656,217 318.5,217.2656 Q318.75,217.5156 318.75,217.875 Q318.75,218.2188 318.4063,218.625 Q317.9063,219.2188 317.1094,219.5469 Q316.0625,220 314.7813,220 Q313.2813,220 312.0781,219.4063 Q311.1094,218.9375 310.4219,217.9219 Q309.75,216.9063 309.75,215.7031 L309.75,214.6094 Q309.75,213.3594 310.3438,212.2656 Q310.9531,211.1719 312,210.5938 Q313.0625,210 314.25,210 Q314.9688,210 315.5938,210.25 Q316.2188,210.5 316.75,211 Z " fill="#000000"/><text fill="#000000" font-family="sans-serif" font-size="12" lengthAdjust="spacing" textLength="79" x="335.25" y="219.4102">TestTypeStore</text><line style="stroke:#A80036;stroke-width:1.5;" x1="222.5" x2="494.5" y1="230.5" y2="230.5"/><line style="stroke:#A80036;stroke-width:1.5;" x1="222.5" x2="494.5" y1="238.5" y2="238.5"/><text fill="#000000" font-family="sans-serif" font-size="11" lengthAdjust="spacing" textLength="262" x="227.5" y="253.9189">+TestType create(code, description, collectingMethod)</text><text fill="#000000" font-family="sans-serif" font-size="11" lengthAdjust="spacing" textLength="98" x="227.5" y="267.7549">+boolean validate(tt)</text><text fill="#000000" font-family="sans-serif" font-size="11" lengthAdjust="spacing" textLength="79" x="227.5" y="281.5908">+boolean add(tt)</text><text fill="#000000" font-family="sans-serif" font-size="11" lengthAdjust="spacing" textLength="172" x="227.5" y="295.4268">+List &lt;TestType&gt; getAllTestTypes()</text><!--MD5=[2628f93c2b91159b8b11117185f029f9]
class PCS--><rect codeLine="21" fill="#FEFECE" filter="url(#f1pdjdt7vc4zck)" height="61.8359" id="PCS" style="stroke:#A80036;stroke-width:1.5;" width="282" x="1001.5" y="216"/><ellipse cx="1070.25" cy="232" fill="#ADD1B2" rx="11" ry="11" style="stroke:#A80036;stroke-width:1.0;"/><path d="M1072.25,228.5 Q1072.4531,228 1072.6875,227.75 Q1072.9219,227.5 1073.1875,227.5 Q1073.6563,227.5 1073.9531,227.7813 Q1074.25,228.0625 1074.25,228.7188 L1074.25,230.2813 Q1074.25,230.9375 1073.9688,231.2188 Q1073.6875,231.5 1073.25,231.5 Q1072.8594,231.5 1072.6094,231.3281 Q1072.3594,231.1563 1072.25,230.7031 Q1072.2031,230.3906 1072.0313,230.2188 Q1071.7188,229.8906 1071.1563,229.7031 Q1070.5938,229.5 1070.0313,229.5 Q1069.3281,229.5 1068.7344,229.7813 Q1068.1563,230.0625 1067.7031,230.6875 Q1067.25,231.3125 1067.25,232.1719 L1067.25,233.0938 Q1067.25,234.125 1068.0938,234.8125 Q1068.9375,235.5 1070.4375,235.5 Q1071.3281,235.5 1071.9531,235.2969 Q1072.3125,235.1875 1072.7188,234.8281 Q1072.9844,234.625 1073.125,234.5625 Q1073.2656,234.5 1073.4375,234.5 Q1073.7656,234.5 1074,234.7656 Q1074.25,235.0156 1074.25,235.375 Q1074.25,235.7188 1073.9063,236.125 Q1073.4063,236.7188 1072.6094,237.0469 Q1071.5625,237.5 1070.2813,237.5 Q1068.7813,237.5 1067.5781,236.9063 Q1066.6094,236.4375 1065.9219,235.4219 Q1065.25,234.4063 1065.25,233.2031 L1065.25,232.1094 Q1065.25,230.8594 1065.8438,229.7656 Q1066.4531,228.6719 1067.5,228.0938 Q1068.5625,227.5 1069.75,227.5 Q1070.4688,227.5 1071.0938,227.75 Q1071.7188,228 1072.25,228.5 Z " fill="#000000"/><text fill="#000000" font-family="sans-serif" font-size="12" lengthAdjust="spacing" textLength="136" x="1090.75" y="236.9102">ParameterCategoryStore</text><line style="stroke:#A80036;stroke-width:1.5;" x1="1002.5" x2="1282.5" y1="248" y2="248"/><line style="stroke:#A80036;stroke-width:1.5;" x1="1002.5" x2="1282.5" y1="256" y2="256"/><text fill="#000000" font-family="sans-serif" font-size="11" lengthAdjust="spacing" textLength="270" x="1007.5" y="271.4189">+List &lt;ParameterCategory&gt; getAllParameterCategories()</text><!--MD5=[f76673142371ead9f091198193c4bd63]
class TT--><rect codeLine="52" fill="#FEFECE" filter="url(#f1pdjdt7vc4zck)" height="117.1797" id="TT" style="stroke:#A80036;stroke-width:1.5;" width="347" x="969" y="63.5"/><ellipse cx="1113.25" cy="79.5" fill="#ADD1B2" rx="11" ry="11" style="stroke:#A80036;stroke-width:1.0;"/><path d="M1115.25,76 Q1115.4531,75.5 1115.6875,75.25 Q1115.9219,75 1116.1875,75 Q1116.6563,75 1116.9531,75.2813 Q1117.25,75.5625 1117.25,76.2188 L1117.25,77.7813 Q1117.25,78.4375 1116.9688,78.7188 Q1116.6875,79 1116.25,79 Q1115.8594,79 1115.6094,78.8281 Q1115.3594,78.6563 1115.25,78.2031 Q1115.2031,77.8906 1115.0313,77.7188 Q1114.7188,77.3906 1114.1563,77.2031 Q1113.5938,77 1113.0313,77 Q1112.3281,77 1111.7344,77.2813 Q1111.1563,77.5625 1110.7031,78.1875 Q1110.25,78.8125 1110.25,79.6719 L1110.25,80.5938 Q1110.25,81.625 1111.0938,82.3125 Q1111.9375,83 1113.4375,83 Q1114.3281,83 1114.9531,82.7969 Q1115.3125,82.6875 1115.7188,82.3281 Q1115.9844,82.125 1116.125,82.0625 Q1116.2656,82 1116.4375,82 Q1116.7656,82 1117,82.2656 Q1117.25,82.5156 1117.25,82.875 Q1117.25,83.2188 1116.9063,83.625 Q1116.4063,84.2188 1115.6094,84.5469 Q1114.5625,85 1113.2813,85 Q1111.7813,85 1110.5781,84.4063 Q1109.6094,83.9375 1108.9219,82.9219 Q1108.25,81.9063 1108.25,80.7031 L1108.25,79.6094 Q1108.25,78.3594 1108.8438,77.2656 Q1109.4531,76.1719 1110.5,75.5938 Q1111.5625,75 1112.75,75 Q1113.4688,75 1114.0938,75.25 Q1114.7188,75.5 1115.25,76 Z " fill="#000000"/><text fill="#000000" font-family="sans-serif" font-size="12" lengthAdjust="spacing" textLength="50" x="1133.75" y="84.4102">TestType</text><line style="stroke:#A80036;stroke-width:1.5;" x1="970" x2="1315" y1="95.5" y2="95.5"/><text fill="#000000" font-family="sans-serif" font-size="11" lengthAdjust="spacing" textLength="59" x="975" y="110.9189">-String code</text><text fill="#000000" font-family="sans-serif" font-size="11" lengthAdjust="spacing" textLength="88" x="975" y="124.7549">-String description</text><text fill="#000000" font-family="sans-serif" font-size="11" lengthAdjust="spacing" textLength="115" x="975" y="138.5908">-String collectingMethod</text><text fill="#000000" font-family="sans-serif" font-size="11" lengthAdjust="spacing" textLength="233" x="975" y="152.4268">-List &lt;ParameterCategory&gt; ParameterCategories</text><line style="stroke:#A80036;stroke-width:1.5;" x1="970" x2="1315" y1="158.8438" y2="158.8438"/><text fill="#000000" font-family="sans-serif" font-size="11" lengthAdjust="spacing" textLength="335" x="975" y="174.2627">+TestType(code, description, collectingMethod, ParameterCategories)</text><!--MD5=[0db42b3591f13a48474e506cf6fbc101]
class CTTC--><rect codeLine="33" fill="#FEFECE" filter="url(#f1pdjdt7vc4zck)" height="89.5078" id="CTTC" style="stroke:#A80036;stroke-width:1.5;" width="319" x="199" y="73"/><ellipse cx="283.75" cy="89" fill="#ADD1B2" rx="11" ry="11" style="stroke:#A80036;stroke-width:1.0;"/><path d="M285.75,85.5 Q285.9531,85 286.1875,84.75 Q286.4219,84.5 286.6875,84.5 Q287.1563,84.5 287.4531,84.7813 Q287.75,85.0625 287.75,85.7188 L287.75,87.2813 Q287.75,87.9375 287.4688,88.2188 Q287.1875,88.5 286.75,88.5 Q286.3594,88.5 286.1094,88.3281 Q285.8594,88.1563 285.75,87.7031 Q285.7031,87.3906 285.5313,87.2188 Q285.2188,86.8906 284.6563,86.7031 Q284.0938,86.5 283.5313,86.5 Q282.8281,86.5 282.2344,86.7813 Q281.6563,87.0625 281.2031,87.6875 Q280.75,88.3125 280.75,89.1719 L280.75,90.0938 Q280.75,91.125 281.5938,91.8125 Q282.4375,92.5 283.9375,92.5 Q284.8281,92.5 285.4531,92.2969 Q285.8125,92.1875 286.2188,91.8281 Q286.4844,91.625 286.625,91.5625 Q286.7656,91.5 286.9375,91.5 Q287.2656,91.5 287.5,91.7656 Q287.75,92.0156 287.75,92.375 Q287.75,92.7188 287.4063,93.125 Q286.9063,93.7188 286.1094,94.0469 Q285.0625,94.5 283.7813,94.5 Q282.2813,94.5 281.0781,93.9063 Q280.1094,93.4375 279.4219,92.4219 Q278.75,91.4063 278.75,90.2031 L278.75,89.1094 Q278.75,87.8594 279.3438,86.7656 Q279.9531,85.6719 281,85.0938 Q282.0625,84.5 283.25,84.5 Q283.9688,84.5 284.5938,84.75 Q285.2188,85 285.75,85.5 Z " fill="#000000"/><text fill="#000000" font-family="sans-serif" font-size="12" lengthAdjust="spacing" textLength="141" x="304.25" y="93.9102">CreateTestTypeController</text><line style="stroke:#A80036;stroke-width:1.5;" x1="200" x2="517" y1="105" y2="105"/><line style="stroke:#A80036;stroke-width:1.5;" x1="200" x2="517" y1="113" y2="113"/><text fill="#000000" font-family="sans-serif" font-size="11" lengthAdjust="spacing" textLength="307" x="205" y="128.4189">+TestType createTestType(code, description, collectingMethod)</text><text fill="#000000" font-family="sans-serif" font-size="11" lengthAdjust="spacing" textLength="143" x="205" y="142.2549">+boolean validateTestType(tt)</text><text fill="#000000" font-family="sans-serif" font-size="11" lengthAdjust="spacing" textLength="130" x="205" y="156.0908">+boolean saveTestType(tt)</text><!--MD5=[56e4c9075fa7c9f4c09ef0a20c49f72c]
class T--><rect codeLine="39" fill="#FEFECE" filter="url(#f1pdjdt7vc4zck)" height="89.5078" id="T" style="stroke:#A80036;stroke-width:1.5;" width="127" x="1460" y="77"/><ellipse cx="1507.25" cy="93" fill="#ADD1B2" rx="11" ry="11" style="stroke:#A80036;stroke-width:1.0;"/><path d="M1509.25,89.5 Q1509.4531,89 1509.6875,88.75 Q1509.9219,88.5 1510.1875,88.5 Q1510.6563,88.5 1510.9531,88.7813 Q1511.25,89.0625 1511.25,89.7188 L1511.25,91.2813 Q1511.25,91.9375 1510.9688,92.2188 Q1510.6875,92.5 1510.25,92.5 Q1509.8594,92.5 1509.6094,92.3281 Q1509.3594,92.1563 1509.25,91.7031 Q1509.2031,91.3906 1509.0313,91.2188 Q1508.7188,90.8906 1508.1563,90.7031 Q1507.5938,90.5 1507.0313,90.5 Q1506.3281,90.5 1505.7344,90.7813 Q1505.1563,91.0625 1504.7031,91.6875 Q1504.25,92.3125 1504.25,93.1719 L1504.25,94.0938 Q1504.25,95.125 1505.0938,95.8125 Q1505.9375,96.5 1507.4375,96.5 Q1508.3281,96.5 1508.9531,96.2969 Q1509.3125,96.1875 1509.7188,95.8281 Q1509.9844,95.625 1510.125,95.5625 Q1510.2656,95.5 1510.4375,95.5 Q1510.7656,95.5 1511,95.7656 Q1511.25,96.0156 1511.25,96.375 Q1511.25,96.7188 1510.9063,97.125 Q1510.4063,97.7188 1509.6094,98.0469 Q1508.5625,98.5 1507.2813,98.5 Q1505.7813,98.5 1504.5781,97.9063 Q1503.6094,97.4375 1502.9219,96.4219 Q1502.25,95.4063 1502.25,94.2031 L1502.25,93.1094 Q1502.25,91.8594 1502.8438,90.7656 Q1503.4531,89.6719 1504.5,89.0938 Q1505.5625,88.5 1506.75,88.5 Q1507.4688,88.5 1508.0938,88.75 Q1508.7188,89 1509.25,89.5 Z " fill="#000000"/><text fill="#000000" font-family="sans-serif" font-size="12" lengthAdjust="spacing" textLength="24" x="1527.75" y="97.9102">Test</text><line style="stroke:#A80036;stroke-width:1.5;" x1="1461" x2="1586" y1="109" y2="109"/><text fill="#000000" font-family="sans-serif" font-size="11" lengthAdjust="spacing" textLength="59" x="1466" y="124.4189">-String code</text><text fill="#000000" font-family="sans-serif" font-size="11" lengthAdjust="spacing" textLength="88" x="1466" y="138.2549">-String description</text><text fill="#000000" font-family="sans-serif" font-size="11" lengthAdjust="spacing" textLength="115" x="1466" y="152.0908">-String collectingMethod</text><line style="stroke:#A80036;stroke-width:1.5;" x1="1461" x2="1586" y1="158.5078" y2="158.5078"/><!--MD5=[218f71f443b9e0720bb96dd9df1d4749]
class PC--><rect codeLine="45" fill="#FEFECE" filter="url(#f1pdjdt7vc4zck)" height="89.5078" id="PC" style="stroke:#A80036;stroke-width:1.5;" width="139" x="1454" y="244"/><ellipse cx="1469" cy="260" fill="#ADD1B2" rx="11" ry="11" style="stroke:#A80036;stroke-width:1.0;"/><path d="M1471,256.5 Q1471.2031,256 1471.4375,255.75 Q1471.6719,255.5 1471.9375,255.5 Q1472.4063,255.5 1472.7031,255.7813 Q1473,256.0625 1473,256.7188 L1473,258.2813 Q1473,258.9375 1472.7188,259.2188 Q1472.4375,259.5 1472,259.5 Q1471.6094,259.5 1471.3594,259.3281 Q1471.1094,259.1563 1471,258.7031 Q1470.9531,258.3906 1470.7813,258.2188 Q1470.4688,257.8906 1469.9063,257.7031 Q1469.3438,257.5 1468.7813,257.5 Q1468.0781,257.5 1467.4844,257.7813 Q1466.9063,258.0625 1466.4531,258.6875 Q1466,259.3125 1466,260.1719 L1466,261.0938 Q1466,262.125 1466.8438,262.8125 Q1467.6875,263.5 1469.1875,263.5 Q1470.0781,263.5 1470.7031,263.2969 Q1471.0625,263.1875 1471.4688,262.8281 Q1471.7344,262.625 1471.875,262.5625 Q1472.0156,262.5 1472.1875,262.5 Q1472.5156,262.5 1472.75,262.7656 Q1473,263.0156 1473,263.375 Q1473,263.7188 1472.6563,264.125 Q1472.1563,264.7188 1471.3594,265.0469 Q1470.3125,265.5 1469.0313,265.5 Q1467.5313,265.5 1466.3281,264.9063 Q1465.3594,264.4375 1464.6719,263.4219 Q1464,262.4063 1464,261.2031 L1464,260.1094 Q1464,258.8594 1464.5938,257.7656 Q1465.2031,256.6719 1466.25,256.0938 Q1467.3125,255.5 1468.5,255.5 Q1469.2188,255.5 1469.8438,255.75 Q1470.4688,256 1471,256.5 Z " fill="#000000"/><text fill="#000000" font-family="sans-serif" font-size="12" lengthAdjust="spacing" textLength="107" x="1483" y="264.9102">ParameterCategory</text><line style="stroke:#A80036;stroke-width:1.5;" x1="1455" x2="1592" y1="276" y2="276"/><text fill="#000000" font-family="sans-serif" font-size="11" lengthAdjust="spacing" textLength="59" x="1460" y="291.4189">-String code</text><text fill="#000000" font-family="sans-serif" font-size="11" lengthAdjust="spacing" textLength="88" x="1460" y="305.2549">-String description</text><text fill="#000000" font-family="sans-serif" font-size="11" lengthAdjust="spacing" textLength="62" x="1460" y="319.0908">-String nhsID</text><line style="stroke:#A80036;stroke-width:1.5;" x1="1455" x2="1592" y1="325.5078" y2="325.5078"/><!--MD5=[6461a74477876ab4a04549c978c1a07a]
class CTTUI--><rect codeLine="51" fill="#FEFECE" filter="url(#f1pdjdt7vc4zck)" height="48" id="CTTUI" style="stroke:#A80036;stroke-width:1.5;" width="131" x="7" y="94"/><ellipse cx="22" cy="110" fill="#ADD1B2" rx="11" ry="11" style="stroke:#A80036;stroke-width:1.0;"/><path d="M24,106.5 Q24.2031,106 24.4375,105.75 Q24.6719,105.5 24.9375,105.5 Q25.4063,105.5 25.7031,105.7813 Q26,106.0625 26,106.7188 L26,108.2813 Q26,108.9375 25.7188,109.2188 Q25.4375,109.5 25,109.5 Q24.6094,109.5 24.3594,109.3281 Q24.1094,109.1563 24,108.7031 Q23.9531,108.3906 23.7813,108.2188 Q23.4688,107.8906 22.9063,107.7031 Q22.3438,107.5 21.7813,107.5 Q21.0781,107.5 20.4844,107.7813 Q19.9063,108.0625 19.4531,108.6875 Q19,109.3125 19,110.1719 L19,111.0938 Q19,112.125 19.8438,112.8125 Q20.6875,113.5 22.1875,113.5 Q23.0781,113.5 23.7031,113.2969 Q24.0625,113.1875 24.4688,112.8281 Q24.7344,112.625 24.875,112.5625 Q25.0156,112.5 25.1875,112.5 Q25.5156,112.5 25.75,112.7656 Q26,113.0156 26,113.375 Q26,113.7188 25.6563,114.125 Q25.1563,114.7188 24.3594,115.0469 Q23.3125,115.5 22.0313,115.5 Q20.5313,115.5 19.3281,114.9063 Q18.3594,114.4375 17.6719,113.4219 Q17,112.4063 17,111.2031 L17,110.1094 Q17,108.8594 17.5938,107.7656 Q18.2031,106.6719 19.25,106.0938 Q20.3125,105.5 21.5,105.5 Q22.2188,105.5 22.8438,105.75 Q23.4688,106 24,106.5 Z " fill="#000000"/><text fill="#000000" font-family="sans-serif" font-size="12" lengthAdjust="spacing" textLength="99" x="36" y="114.9102">CreateTestTypeUI</text><line style="stroke:#A80036;stroke-width:1.5;" x1="8" x2="137" y1="126" y2="126"/><line style="stroke:#A80036;stroke-width:1.5;" x1="8" x2="137" y1="134" y2="134"/><!--MD5=[320690cba070b8468face0bfd1ce9533]
link CTTUI to CTTC--><path codeLine="54" d="M138.3,118 C155.06,118 173.88,118 193.27,118 " fill="none" id="CTTUI-to-CTTC" style="stroke:#A80036;stroke-width:1.0;stroke-dasharray:7.0,7.0;"/><polygon fill="#A80036" points="198.75,118,189.75,114,193.75,118,189.75,122,198.75,118" style="stroke:#A80036;stroke-width:1.0;"/><!--MD5=[e1c0f205e01471a87324e4cc03d03bbe]
link C to PCS--><path codeLine="56" d="M797.16,247 C853.04,247 929.54,247 996.24,247 " fill="none" id="C-to-PCS" style="stroke:#A80036;stroke-width:1.0;stroke-dasharray:7.0,7.0;"/><polygon fill="#A80036" points="1001.43,247,992.43,243,996.43,247,992.43,251,1001.43,247" style="stroke:#A80036;stroke-width:1.0;"/><!--MD5=[694303a06a79f7ae0713de28a4008c97]
link TTS to C--><path codeLine="58" d="M495.55,248.86 C541.29,248.47 590.96,248.05 631.55,247.71 " fill="none" id="TTS-to-C" style="stroke:#A80036;stroke-width:1.0;stroke-dasharray:7.0,7.0;"/><polygon fill="#A80036" points="636.96,247.67,627.926,243.7473,631.9602,247.7129,627.9946,251.747,636.96,247.67" style="stroke:#A80036;stroke-width:1.0;"/><!--MD5=[4ba949b41f5b4f886781165bf5f9b564]
link CTTC to TT--><path codeLine="60" d="M518.22,118.81 C647.37,119.47 829.54,120.4 963.6,121.09 " fill="none" id="CTTC-to-TT" style="stroke:#A80036;stroke-width:1.0;stroke-dasharray:7.0,7.0;"/><polygon fill="#A80036" points="968.75,121.12,959.773,117.0686,963.7501,121.0914,959.7273,125.0685,968.75,121.12" style="stroke:#A80036;stroke-width:1.0;"/><!--MD5=[cf05f59dfce81a96099c5f95714bd5af]
link CTTC to C--><path codeLine="61" d="M483.94,163.03 C532.97,180.77 588,200.68 632.16,216.66 " fill="none" id="CTTC-to-C" style="stroke:#A80036;stroke-width:1.0;stroke-dasharray:7.0,7.0;"/><polygon fill="#A80036" points="636.94,218.39,629.8555,211.5482,632.2427,216.6767,627.1142,219.0639,636.94,218.39" style="stroke:#A80036;stroke-width:1.0;"/><!--MD5=[1d14db0b97cac770d171bdc7474dae00]
link CTTC to cNM--><path codeLine="62" d="M518.2,82.39 C536.72,78.23 555.51,74.01 573.79,69.91 " fill="none" id="CTTC-to-cNM" style="stroke:#A80036;stroke-width:1.0;stroke-dasharray:7.0,7.0;"/><polygon fill="#A80036" points="578.92,68.76,569.26,66.8406,574.0428,69.8613,571.0221,74.6441,578.92,68.76" style="stroke:#A80036;stroke-width:1.0;"/><!--MD5=[1418b5af1734c0144573e838c99391fc]
link TT to T--><path codeLine="65" d="M1316.09,122 C1367.47,122 1420.53,122 1459.99,122 " fill="none" id="TT-T" style="stroke:#A80036;stroke-width:1.0;"/><polygon fill="#000000" points="1365.5,113.1758,1374.5451,116.1147,1374.5451,110.2369,1365.5,113.1758" style="stroke:#000000;stroke-width:1.0;"/><text fill="#000000" font-family="sans-serif" font-size="13" lengthAdjust="spacing" textLength="24" x="1379.5" y="118.4951">is of</text><text fill="#000000" font-family="sans-serif" font-size="13" lengthAdjust="spacing" textLength="7" x="1324.1144" y="135.8615">1</text><text fill="#000000" font-family="sans-serif" font-size="13" lengthAdjust="spacing" textLength="5" x="1446.945" y="136.5215">*</text><!--MD5=[93286ab8d15dacf230424bab250ab910]
link TT to PC--><path codeLine="66" d="M1276.32,180.53 C1336.28,206.95 1404.58,237.04 1454,258.82 " fill="none" id="TT-PC" style="stroke:#A80036;stroke-width:1.0;"/><polygon fill="#000000" points="1355.5755,208.1919,1348.4833,201.8553,1346.1133,207.2342,1355.5755,208.1919" style="stroke:#000000;stroke-width:1.0;"/><text fill="#000000" font-family="sans-serif" font-size="13" lengthAdjust="spacing" textLength="63" x="1360" y="211.4951">analyzes a</text><text fill="#000000" font-family="sans-serif" font-size="13" lengthAdjust="spacing" textLength="5" x="1287.3246" y="202.1439">*</text><text fill="#000000" font-family="sans-serif" font-size="13" lengthAdjust="spacing" textLength="7" x="1439.0156" y="269.9353">1</text><!--MD5=[b83cceec495819d0b37daa935a10185d]
link C to TT--><path codeLine="68" d="M797.16,223.64 C845.52,209.36 909.32,190.53 968.85,172.96 " fill="none" id="C-TT" style="stroke:#A80036;stroke-width:1.0;"/><polygon fill="#000000" points="894.7954,173.7602,885.2884,173.5023,886.9524,179.1397,894.7954,173.7602" style="stroke:#000000;stroke-width:1.0;"/><text fill="#000000" font-family="sans-serif" font-size="13" lengthAdjust="spacing" textLength="39" x="899" y="180.4951">adopts</text><text fill="#000000" font-family="sans-serif" font-size="13" lengthAdjust="spacing" textLength="7" x="804.8724" y="235.758">1</text><text fill="#000000" font-family="sans-serif" font-size="13" lengthAdjust="spacing" textLength="5" x="955.8682" y="189.1306">*</text><!--MD5=[71b3fc4d6ca120e51ce9c04aa77747d8]
link C to PC--><path codeLine="69" d="M797.19,273.83 C846.07,288.95 910.42,306.32 969,314 C1121.91,334.06 1162.06,323.28 1316,314 C1362.14,311.22 1413.77,304.97 1453.86,299.41 " fill="none" id="C-PC" style="stroke:#A80036;stroke-width:1.0;"/><polygon fill="#000000" points="1125.4962,305.3704,1116.5724,302.0816,1116.3436,307.955,1125.4962,305.3704" style="stroke:#000000;stroke-width:1.0;"/><text fill="#000000" font-family="sans-serif" font-size="13" lengthAdjust="spacing" textLength="39" x="1129.5" y="310.4951">adopts</text><text fill="#000000" font-family="sans-serif" font-size="13" lengthAdjust="spacing" textLength="7" x="804.9052" y="290.5749">1</text><text fill="#000000" font-family="sans-serif" font-size="13" lengthAdjust="spacing" textLength="5" x="1440.9697" y="314.9649">*</text><!--MD5=[edd9de78097f78082e17dbb9ed69cb46]
@startuml
skinparam classAttributeIconSize 0
left to right direction

class "Company" as C {
-String designation
+getTestTypeStore()
+getParameterCategoryStore()
}

class "categoriesNameMapper" as cNM {
+List <ParameterCategory> toDTO(listCategoriesName)
}

class "TestTypeStore" as TTS{
+TestType create(code, description, collectingMethod)
+boolean validate(tt)
+boolean add(tt)
+List <TestType> getAllTestTypes()
}

class "ParameterCategoryStore" as PCS{
+List <ParameterCategory> getAllParameterCategories()
}

class "TestType" as TT {
-String code
-String description
-String collectingMethod
-List <ParameterCategory> ParameterCategories
+TestType(code, description, collectingMethod, ParameterCategories)
}

class "CreateTestTypeController" as CTTC {
+TestType createTestType(code, description, collectingMethod)
+boolean validateTestType(tt)
+boolean saveTestType(tt)
}

class "Test" as T{
-String code
-String description
-String collectingMethod
}

class "ParameterCategory" as PC{
-String code
-String description
-String nhsID
}

class "CreateTestTypeUI" as CTTUI
class "TestType" as TT

CTTUI ..> CTTC

C ..> PCS

TTS ..> C

CTTC ..> TT
CTTC ..> C
CTTC ..> cNM


TT "1" - - "*" T: < is of
TT "*" - - "1" PC : > analyzes a

C "1" - - "*" TT : > adopts
C "1" - - "*" PC : > adopts

@enduml

PlantUML version 1.2021.5(Sun Apr 25 12:20:28 BST 2021)
(GPL source distribution)
Java Runtime: OpenJDK Runtime Environment
JVM: OpenJDK 64-Bit Server VM
Default Encoding: Cp1252
Language: pt
Country: PT
--></g></svg>