<?xml version="1.0" encoding="UTF-8" standalone="no"?><svg xmlns="http://www.w3.org/2000/svg" xmlns:xlink="http://www.w3.org/1999/xlink" contentScriptType="application/ecmascript" contentStyleType="text/css" height="367px" preserveAspectRatio="none" style="width:1731px;height:367px;" version="1.1" viewBox="0 0 1731 367" width="1731px" zoomAndPan="magnify"><defs><filter height="300%" id="f10a45km5udtpd" width="300%" x="-1" y="-1"><feGaussianBlur result="blurOut" stdDeviation="2.0"/><feColorMatrix in="blurOut" result="blurOut2" type="matrix" values="0 0 0 0 0 0 0 0 0 0 0 0 0 0 0 0 0 0 .4 0"/><feOffset dx="4.0" dy="4.0" in="blurOut2" result="blurOut3"/><feBlend in="SourceGraphic" in2="blurOut3" mode="normal"/></filter></defs><g><!--MD5=[378b18254a1b2429f435e93f5e5cc50c]
class C--><rect codeLine="4" fill="#FEFECE" filter="url(#f10a45km5udtpd)" height="89.5078" id="C" style="stroke:#A80036;stroke-width:1.5;" width="160" x="761" y="125"/><ellipse cx="810.25" cy="141" fill="#ADD1B2" rx="11" ry="11" style="stroke:#A80036;stroke-width:1.0;"/><path d="M812.25,137.5 Q812.4531,137 812.6875,136.75 Q812.9219,136.5 813.1875,136.5 Q813.6563,136.5 813.9531,136.7813 Q814.25,137.0625 814.25,137.7188 L814.25,139.2813 Q814.25,139.9375 813.9688,140.2188 Q813.6875,140.5 813.25,140.5 Q812.8594,140.5 812.6094,140.3281 Q812.3594,140.1563 812.25,139.7031 Q812.2031,139.3906 812.0313,139.2188 Q811.7188,138.8906 811.1563,138.7031 Q810.5938,138.5 810.0313,138.5 Q809.3281,138.5 808.7344,138.7813 Q808.1563,139.0625 807.7031,139.6875 Q807.25,140.3125 807.25,141.1719 L807.25,142.0938 Q807.25,143.125 808.0938,143.8125 Q808.9375,144.5 810.4375,144.5 Q811.3281,144.5 811.9531,144.2969 Q812.3125,144.1875 812.7188,143.8281 Q812.9844,143.625 813.125,143.5625 Q813.2656,143.5 813.4375,143.5 Q813.7656,143.5 814,143.7656 Q814.25,144.0156 814.25,144.375 Q814.25,144.7188 813.9063,145.125 Q813.4063,145.7188 812.6094,146.0469 Q811.5625,146.5 810.2813,146.5 Q808.7813,146.5 807.5781,145.9063 Q806.6094,145.4375 805.9219,144.4219 Q805.25,143.4063 805.25,142.2031 L805.25,141.1094 Q805.25,139.8594 805.8438,138.7656 Q806.4531,137.6719 807.5,137.0938 Q808.5625,136.5 809.75,136.5 Q810.4688,136.5 811.0938,136.75 Q811.7188,137 812.25,137.5 Z " fill="#000000"/><text fill="#000000" font-family="sans-serif" font-size="12" lengthAdjust="spacing" textLength="53" x="830.75" y="145.9102">Company</text><line style="stroke:#A80036;stroke-width:1.5;" x1="762" x2="920" y1="157" y2="157"/><text fill="#000000" font-family="sans-serif" font-size="11" lengthAdjust="spacing" textLength="90" x="767" y="172.4189">-String designation</text><line style="stroke:#A80036;stroke-width:1.5;" x1="762" x2="920" y1="178.8359" y2="178.8359"/><text fill="#000000" font-family="sans-serif" font-size="11" lengthAdjust="spacing" textLength="100" x="767" y="194.2549">+getTestTypeStore()</text><text fill="#000000" font-family="sans-serif" font-size="11" lengthAdjust="spacing" textLength="148" x="767" y="208.0908">+getParameterCategoryStore()</text><!--MD5=[606124dbd33b65145bd2d31e230d6615]
class cNM--><rect codeLine="10" fill="#FEFECE" filter="url(#f10a45km5udtpd)" height="61.8359" id="cNM" style="stroke:#A80036;stroke-width:1.5;" width="276" x="703" y="271"/><ellipse cx="770.25" cy="287" fill="#ADD1B2" rx="11" ry="11" style="stroke:#A80036;stroke-width:1.0;"/><path d="M772.25,283.5 Q772.4531,283 772.6875,282.75 Q772.9219,282.5 773.1875,282.5 Q773.6563,282.5 773.9531,282.7813 Q774.25,283.0625 774.25,283.7188 L774.25,285.2813 Q774.25,285.9375 773.9688,286.2188 Q773.6875,286.5 773.25,286.5 Q772.8594,286.5 772.6094,286.3281 Q772.3594,286.1563 772.25,285.7031 Q772.2031,285.3906 772.0313,285.2188 Q771.7188,284.8906 771.1563,284.7031 Q770.5938,284.5 770.0313,284.5 Q769.3281,284.5 768.7344,284.7813 Q768.1563,285.0625 767.7031,285.6875 Q767.25,286.3125 767.25,287.1719 L767.25,288.0938 Q767.25,289.125 768.0938,289.8125 Q768.9375,290.5 770.4375,290.5 Q771.3281,290.5 771.9531,290.2969 Q772.3125,290.1875 772.7188,289.8281 Q772.9844,289.625 773.125,289.5625 Q773.2656,289.5 773.4375,289.5 Q773.7656,289.5 774,289.7656 Q774.25,290.0156 774.25,290.375 Q774.25,290.7188 773.9063,291.125 Q773.4063,291.7188 772.6094,292.0469 Q771.5625,292.5 770.2813,292.5 Q768.7813,292.5 767.5781,291.9063 Q766.6094,291.4375 765.9219,290.4219 Q765.25,289.4063 765.25,288.2031 L765.25,287.1094 Q765.25,285.8594 765.8438,284.7656 Q766.4531,283.6719 767.5,283.0938 Q768.5625,282.5 769.75,282.5 Q770.4688,282.5 771.0938,282.75 Q771.7188,283 772.25,283.5 Z " fill="#000000"/><text fill="#000000" font-family="sans-serif" font-size="12" lengthAdjust="spacing" textLength="133" x="790.75" y="291.9102">categoriesNameMapper</text><line style="stroke:#A80036;stroke-width:1.5;" x1="704" x2="978" y1="303" y2="303"/><line style="stroke:#A80036;stroke-width:1.5;" x1="704" x2="978" y1="311" y2="311"/><text fill="#000000" font-family="sans-serif" font-size="11" lengthAdjust="spacing" textLength="264" x="709" y="326.4189">+List &lt;ParameterCategory&gt; toDTO(listCategoriesName)</text><!--MD5=[0c21d7a5a5555e4278001068caacbd33]
class TTS--><rect codeLine="14" fill="#FEFECE" filter="url(#f10a45km5udtpd)" height="131.0156" id="TTS" style="stroke:#A80036;stroke-width:1.5;" width="443" x="199" y="84.5"/><ellipse cx="376.75" cy="100.5" fill="#ADD1B2" rx="11" ry="11" style="stroke:#A80036;stroke-width:1.0;"/><path d="M378.75,97 Q378.9531,96.5 379.1875,96.25 Q379.4219,96 379.6875,96 Q380.1563,96 380.4531,96.2813 Q380.75,96.5625 380.75,97.2188 L380.75,98.7813 Q380.75,99.4375 380.4688,99.7188 Q380.1875,100 379.75,100 Q379.3594,100 379.1094,99.8281 Q378.8594,99.6563 378.75,99.2031 Q378.7031,98.8906 378.5313,98.7188 Q378.2188,98.3906 377.6563,98.2031 Q377.0938,98 376.5313,98 Q375.8281,98 375.2344,98.2813 Q374.6563,98.5625 374.2031,99.1875 Q373.75,99.8125 373.75,100.6719 L373.75,101.5938 Q373.75,102.625 374.5938,103.3125 Q375.4375,104 376.9375,104 Q377.8281,104 378.4531,103.7969 Q378.8125,103.6875 379.2188,103.3281 Q379.4844,103.125 379.625,103.0625 Q379.7656,103 379.9375,103 Q380.2656,103 380.5,103.2656 Q380.75,103.5156 380.75,103.875 Q380.75,104.2188 380.4063,104.625 Q379.9063,105.2188 379.1094,105.5469 Q378.0625,106 376.7813,106 Q375.2813,106 374.0781,105.4063 Q373.1094,104.9375 372.4219,103.9219 Q371.75,102.9063 371.75,101.7031 L371.75,100.6094 Q371.75,99.3594 372.3438,98.2656 Q372.9531,97.1719 374,96.5938 Q375.0625,96 376.25,96 Q376.9688,96 377.5938,96.25 Q378.2188,96.5 378.75,97 Z " fill="#000000"/><text fill="#000000" font-family="sans-serif" font-size="12" lengthAdjust="spacing" textLength="79" x="397.25" y="105.4102">TestTypeStore</text><line style="stroke:#A80036;stroke-width:1.5;" x1="200" x2="641" y1="116.5" y2="116.5"/><line style="stroke:#A80036;stroke-width:1.5;" x1="200" x2="641" y1="124.5" y2="124.5"/><text fill="#000000" font-family="sans-serif" font-size="11" lengthAdjust="spacing" textLength="406" x="205" y="139.9189">+TestType createTestType(code, description, collectingMethod, parameterCategory)</text><text fill="#000000" font-family="sans-serif" font-size="11" lengthAdjust="spacing" textLength="431" x="205" y="153.7549">+TestType createTestType(code, description, collectingMethod, parameterCategoriesList)</text><text fill="#000000" font-family="sans-serif" font-size="11" lengthAdjust="spacing" textLength="130" x="205" y="167.5908">+boolean saveTestType(tt)</text><text fill="#000000" font-family="sans-serif" font-size="11" lengthAdjust="spacing" textLength="143" x="205" y="181.4268">+boolean validateTestType(tt)</text><text fill="#000000" font-family="sans-serif" font-size="11" lengthAdjust="spacing" textLength="124" x="205" y="195.2627">+boolean addTestType(tt)</text><text fill="#000000" font-family="sans-serif" font-size="11" lengthAdjust="spacing" textLength="172" x="205" y="209.0986">+List &lt;TestType&gt; getAllTestTypes()</text><!--MD5=[2628f93c2b91159b8b11117185f029f9]
class PCS--><rect codeLine="23" fill="#FEFECE" filter="url(#f10a45km5udtpd)" height="61.8359" id="PCS" style="stroke:#A80036;stroke-width:1.5;" width="282" x="1125.5" y="7"/><ellipse cx="1194.25" cy="23" fill="#ADD1B2" rx="11" ry="11" style="stroke:#A80036;stroke-width:1.0;"/><path d="M1196.25,19.5 Q1196.4531,19 1196.6875,18.75 Q1196.9219,18.5 1197.1875,18.5 Q1197.6563,18.5 1197.9531,18.7813 Q1198.25,19.0625 1198.25,19.7188 L1198.25,21.2813 Q1198.25,21.9375 1197.9688,22.2188 Q1197.6875,22.5 1197.25,22.5 Q1196.8594,22.5 1196.6094,22.3281 Q1196.3594,22.1563 1196.25,21.7031 Q1196.2031,21.3906 1196.0313,21.2188 Q1195.7188,20.8906 1195.1563,20.7031 Q1194.5938,20.5 1194.0313,20.5 Q1193.3281,20.5 1192.7344,20.7813 Q1192.1563,21.0625 1191.7031,21.6875 Q1191.25,22.3125 1191.25,23.1719 L1191.25,24.0938 Q1191.25,25.125 1192.0938,25.8125 Q1192.9375,26.5 1194.4375,26.5 Q1195.3281,26.5 1195.9531,26.2969 Q1196.3125,26.1875 1196.7188,25.8281 Q1196.9844,25.625 1197.125,25.5625 Q1197.2656,25.5 1197.4375,25.5 Q1197.7656,25.5 1198,25.7656 Q1198.25,26.0156 1198.25,26.375 Q1198.25,26.7188 1197.9063,27.125 Q1197.4063,27.7188 1196.6094,28.0469 Q1195.5625,28.5 1194.2813,28.5 Q1192.7813,28.5 1191.5781,27.9063 Q1190.6094,27.4375 1189.9219,26.4219 Q1189.25,25.4063 1189.25,24.2031 L1189.25,23.1094 Q1189.25,21.8594 1189.8438,20.7656 Q1190.4531,19.6719 1191.5,19.0938 Q1192.5625,18.5 1193.75,18.5 Q1194.4688,18.5 1195.0938,18.75 Q1195.7188,19 1196.25,19.5 Z " fill="#000000"/><text fill="#000000" font-family="sans-serif" font-size="12" lengthAdjust="spacing" textLength="136" x="1214.75" y="27.9102">ParameterCategoryStore</text><line style="stroke:#A80036;stroke-width:1.5;" x1="1126.5" x2="1406.5" y1="39" y2="39"/><line style="stroke:#A80036;stroke-width:1.5;" x1="1126.5" x2="1406.5" y1="47" y2="47"/><text fill="#000000" font-family="sans-serif" font-size="11" lengthAdjust="spacing" textLength="270" x="1131.5" y="62.4189">+List &lt;ParameterCategory&gt; getAllParameterCategories()</text><!--MD5=[f76673142371ead9f091198193c4bd63]
class TT--><rect codeLine="55" fill="#FEFECE" filter="url(#f10a45km5udtpd)" height="131.0156" id="TT" style="stroke:#A80036;stroke-width:1.5;" width="347" x="1093" y="104.5"/><ellipse cx="1237.25" cy="120.5" fill="#ADD1B2" rx="11" ry="11" style="stroke:#A80036;stroke-width:1.0;"/><path d="M1239.25,117 Q1239.4531,116.5 1239.6875,116.25 Q1239.9219,116 1240.1875,116 Q1240.6563,116 1240.9531,116.2813 Q1241.25,116.5625 1241.25,117.2188 L1241.25,118.7813 Q1241.25,119.4375 1240.9688,119.7188 Q1240.6875,120 1240.25,120 Q1239.8594,120 1239.6094,119.8281 Q1239.3594,119.6563 1239.25,119.2031 Q1239.2031,118.8906 1239.0313,118.7188 Q1238.7188,118.3906 1238.1563,118.2031 Q1237.5938,118 1237.0313,118 Q1236.3281,118 1235.7344,118.2813 Q1235.1563,118.5625 1234.7031,119.1875 Q1234.25,119.8125 1234.25,120.6719 L1234.25,121.5938 Q1234.25,122.625 1235.0938,123.3125 Q1235.9375,124 1237.4375,124 Q1238.3281,124 1238.9531,123.7969 Q1239.3125,123.6875 1239.7188,123.3281 Q1239.9844,123.125 1240.125,123.0625 Q1240.2656,123 1240.4375,123 Q1240.7656,123 1241,123.2656 Q1241.25,123.5156 1241.25,123.875 Q1241.25,124.2188 1240.9063,124.625 Q1240.4063,125.2188 1239.6094,125.5469 Q1238.5625,126 1237.2813,126 Q1235.7813,126 1234.5781,125.4063 Q1233.6094,124.9375 1232.9219,123.9219 Q1232.25,122.9063 1232.25,121.7031 L1232.25,120.6094 Q1232.25,119.3594 1232.8438,118.2656 Q1233.4531,117.1719 1234.5,116.5938 Q1235.5625,116 1236.75,116 Q1237.4688,116 1238.0938,116.25 Q1238.7188,116.5 1239.25,117 Z " fill="#000000"/><text fill="#000000" font-family="sans-serif" font-size="12" lengthAdjust="spacing" textLength="50" x="1257.75" y="125.4102">TestType</text><line style="stroke:#A80036;stroke-width:1.5;" x1="1094" x2="1439" y1="136.5" y2="136.5"/><text fill="#000000" font-family="sans-serif" font-size="11" lengthAdjust="spacing" textLength="59" x="1099" y="151.9189">-String code</text><text fill="#000000" font-family="sans-serif" font-size="11" lengthAdjust="spacing" textLength="88" x="1099" y="165.7549">-String description</text><text fill="#000000" font-family="sans-serif" font-size="11" lengthAdjust="spacing" textLength="115" x="1099" y="179.5908">-String collectingMethod</text><text fill="#000000" font-family="sans-serif" font-size="11" lengthAdjust="spacing" textLength="193" x="1099" y="193.4268">-ParameterCategory parameterCategory</text><text fill="#000000" font-family="sans-serif" font-size="11" lengthAdjust="spacing" textLength="233" x="1099" y="207.2627">-List &lt;ParameterCategory&gt; ParameterCategories</text><line style="stroke:#A80036;stroke-width:1.5;" x1="1094" x2="1439" y1="213.6797" y2="213.6797"/><text fill="#000000" font-family="sans-serif" font-size="11" lengthAdjust="spacing" textLength="335" x="1099" y="229.0986">+TestType(code, description, collectingMethod, ParameterCategories)</text><!--MD5=[0db42b3591f13a48474e506cf6fbc101]
class CTTC--><rect codeLine="56" fill="#FEFECE" filter="url(#f10a45km5udtpd)" height="103.3438" id="CTTC" style="stroke:#A80036;stroke-width:1.5;" width="395" x="223" y="250.5"/><ellipse cx="345.75" cy="266.5" fill="#ADD1B2" rx="11" ry="11" style="stroke:#A80036;stroke-width:1.0;"/><path d="M347.75,263 Q347.9531,262.5 348.1875,262.25 Q348.4219,262 348.6875,262 Q349.1563,262 349.4531,262.2813 Q349.75,262.5625 349.75,263.2188 L349.75,264.7813 Q349.75,265.4375 349.4688,265.7188 Q349.1875,266 348.75,266 Q348.3594,266 348.1094,265.8281 Q347.8594,265.6563 347.75,265.2031 Q347.7031,264.8906 347.5313,264.7188 Q347.2188,264.3906 346.6563,264.2031 Q346.0938,264 345.5313,264 Q344.8281,264 344.2344,264.2813 Q343.6563,264.5625 343.2031,265.1875 Q342.75,265.8125 342.75,266.6719 L342.75,267.5938 Q342.75,268.625 343.5938,269.3125 Q344.4375,270 345.9375,270 Q346.8281,270 347.4531,269.7969 Q347.8125,269.6875 348.2188,269.3281 Q348.4844,269.125 348.625,269.0625 Q348.7656,269 348.9375,269 Q349.2656,269 349.5,269.2656 Q349.75,269.5156 349.75,269.875 Q349.75,270.2188 349.4063,270.625 Q348.9063,271.2188 348.1094,271.5469 Q347.0625,272 345.7813,272 Q344.2813,272 343.0781,271.4063 Q342.1094,270.9375 341.4219,269.9219 Q340.75,268.9063 340.75,267.7031 L340.75,266.6094 Q340.75,265.3594 341.3438,264.2656 Q341.9531,263.1719 343,262.5938 Q344.0625,262 345.25,262 Q345.9688,262 346.5938,262.25 Q347.2188,262.5 347.75,263 Z " fill="#000000"/><text fill="#000000" font-family="sans-serif" font-size="12" lengthAdjust="spacing" textLength="141" x="366.25" y="271.4102">CreateTestTypeController</text><line style="stroke:#A80036;stroke-width:1.5;" x1="224" x2="617" y1="282.5" y2="282.5"/><line style="stroke:#A80036;stroke-width:1.5;" x1="224" x2="617" y1="290.5" y2="290.5"/><text fill="#000000" font-family="sans-serif" font-size="11" lengthAdjust="spacing" textLength="358" x="229" y="305.9189">+createTestType(code, description, collectingMethod, parameterCategory)</text><text fill="#000000" font-family="sans-serif" font-size="11" lengthAdjust="spacing" textLength="383" x="229" y="319.7549">+createTestType(code, description, collectingMethod, parameterCategoriesList)</text><text fill="#000000" font-family="sans-serif" font-size="11" lengthAdjust="spacing" textLength="89" x="229" y="333.5908">+saveTestType(tt)</text><text fill="#000000" font-family="sans-serif" font-size="11" lengthAdjust="spacing" textLength="137" x="229" y="347.4268">+CreateTestTypeController()</text><!--MD5=[56e4c9075fa7c9f4c09ef0a20c49f72c]
class T--><rect codeLine="43" fill="#FEFECE" filter="url(#f10a45km5udtpd)" height="89.5078" id="T" style="stroke:#A80036;stroke-width:1.5;" width="127" x="1584" y="125"/><ellipse cx="1631.25" cy="141" fill="#ADD1B2" rx="11" ry="11" style="stroke:#A80036;stroke-width:1.0;"/><path d="M1633.25,137.5 Q1633.4531,137 1633.6875,136.75 Q1633.9219,136.5 1634.1875,136.5 Q1634.6563,136.5 1634.9531,136.7813 Q1635.25,137.0625 1635.25,137.7188 L1635.25,139.2813 Q1635.25,139.9375 1634.9688,140.2188 Q1634.6875,140.5 1634.25,140.5 Q1633.8594,140.5 1633.6094,140.3281 Q1633.3594,140.1563 1633.25,139.7031 Q1633.2031,139.3906 1633.0313,139.2188 Q1632.7188,138.8906 1632.1563,138.7031 Q1631.5938,138.5 1631.0313,138.5 Q1630.3281,138.5 1629.7344,138.7813 Q1629.1563,139.0625 1628.7031,139.6875 Q1628.25,140.3125 1628.25,141.1719 L1628.25,142.0938 Q1628.25,143.125 1629.0938,143.8125 Q1629.9375,144.5 1631.4375,144.5 Q1632.3281,144.5 1632.9531,144.2969 Q1633.3125,144.1875 1633.7188,143.8281 Q1633.9844,143.625 1634.125,143.5625 Q1634.2656,143.5 1634.4375,143.5 Q1634.7656,143.5 1635,143.7656 Q1635.25,144.0156 1635.25,144.375 Q1635.25,144.7188 1634.9063,145.125 Q1634.4063,145.7188 1633.6094,146.0469 Q1632.5625,146.5 1631.2813,146.5 Q1629.7813,146.5 1628.5781,145.9063 Q1627.6094,145.4375 1626.9219,144.4219 Q1626.25,143.4063 1626.25,142.2031 L1626.25,141.1094 Q1626.25,139.8594 1626.8438,138.7656 Q1627.4531,137.6719 1628.5,137.0938 Q1629.5625,136.5 1630.75,136.5 Q1631.4688,136.5 1632.0938,136.75 Q1632.7188,137 1633.25,137.5 Z " fill="#000000"/><text fill="#000000" font-family="sans-serif" font-size="12" lengthAdjust="spacing" textLength="24" x="1651.75" y="145.9102">Test</text><line style="stroke:#A80036;stroke-width:1.5;" x1="1585" x2="1710" y1="157" y2="157"/><text fill="#000000" font-family="sans-serif" font-size="11" lengthAdjust="spacing" textLength="59" x="1590" y="172.4189">-String code</text><text fill="#000000" font-family="sans-serif" font-size="11" lengthAdjust="spacing" textLength="88" x="1590" y="186.2549">-String description</text><text fill="#000000" font-family="sans-serif" font-size="11" lengthAdjust="spacing" textLength="115" x="1590" y="200.0908">-String collectingMethod</text><line style="stroke:#A80036;stroke-width:1.5;" x1="1585" x2="1710" y1="206.5078" y2="206.5078"/><!--MD5=[218f71f443b9e0720bb96dd9df1d4749]
class PC--><rect codeLine="49" fill="#FEFECE" filter="url(#f10a45km5udtpd)" height="75.6719" id="PC" style="stroke:#A80036;stroke-width:1.5;" width="139" x="1578" y="250"/><ellipse cx="1593" cy="266" fill="#ADD1B2" rx="11" ry="11" style="stroke:#A80036;stroke-width:1.0;"/><path d="M1595,262.5 Q1595.2031,262 1595.4375,261.75 Q1595.6719,261.5 1595.9375,261.5 Q1596.4063,261.5 1596.7031,261.7813 Q1597,262.0625 1597,262.7188 L1597,264.2813 Q1597,264.9375 1596.7188,265.2188 Q1596.4375,265.5 1596,265.5 Q1595.6094,265.5 1595.3594,265.3281 Q1595.1094,265.1563 1595,264.7031 Q1594.9531,264.3906 1594.7813,264.2188 Q1594.4688,263.8906 1593.9063,263.7031 Q1593.3438,263.5 1592.7813,263.5 Q1592.0781,263.5 1591.4844,263.7813 Q1590.9063,264.0625 1590.4531,264.6875 Q1590,265.3125 1590,266.1719 L1590,267.0938 Q1590,268.125 1590.8438,268.8125 Q1591.6875,269.5 1593.1875,269.5 Q1594.0781,269.5 1594.7031,269.2969 Q1595.0625,269.1875 1595.4688,268.8281 Q1595.7344,268.625 1595.875,268.5625 Q1596.0156,268.5 1596.1875,268.5 Q1596.5156,268.5 1596.75,268.7656 Q1597,269.0156 1597,269.375 Q1597,269.7188 1596.6563,270.125 Q1596.1563,270.7188 1595.3594,271.0469 Q1594.3125,271.5 1593.0313,271.5 Q1591.5313,271.5 1590.3281,270.9063 Q1589.3594,270.4375 1588.6719,269.4219 Q1588,268.4063 1588,267.2031 L1588,266.1094 Q1588,264.8594 1588.5938,263.7656 Q1589.2031,262.6719 1590.25,262.0938 Q1591.3125,261.5 1592.5,261.5 Q1593.2188,261.5 1593.8438,261.75 Q1594.4688,262 1595,262.5 Z " fill="#000000"/><text fill="#000000" font-family="sans-serif" font-size="12" lengthAdjust="spacing" textLength="107" x="1607" y="270.9102">ParameterCategory</text><line style="stroke:#A80036;stroke-width:1.5;" x1="1579" x2="1716" y1="282" y2="282"/><text fill="#000000" font-family="sans-serif" font-size="11" lengthAdjust="spacing" textLength="61" x="1584" y="297.4189">-String name</text><text fill="#000000" font-family="sans-serif" font-size="11" lengthAdjust="spacing" textLength="59" x="1584" y="311.2549">-String code</text><line style="stroke:#A80036;stroke-width:1.5;" x1="1579" x2="1716" y1="317.6719" y2="317.6719"/><!--MD5=[6461a74477876ab4a04549c978c1a07a]
class CTTUI--><rect codeLine="54" fill="#FEFECE" filter="url(#f10a45km5udtpd)" height="48" id="CTTUI" style="stroke:#A80036;stroke-width:1.5;" width="131" x="7" y="278"/><ellipse cx="22" cy="294" fill="#ADD1B2" rx="11" ry="11" style="stroke:#A80036;stroke-width:1.0;"/><path d="M24,290.5 Q24.2031,290 24.4375,289.75 Q24.6719,289.5 24.9375,289.5 Q25.4063,289.5 25.7031,289.7813 Q26,290.0625 26,290.7188 L26,292.2813 Q26,292.9375 25.7188,293.2188 Q25.4375,293.5 25,293.5 Q24.6094,293.5 24.3594,293.3281 Q24.1094,293.1563 24,292.7031 Q23.9531,292.3906 23.7813,292.2188 Q23.4688,291.8906 22.9063,291.7031 Q22.3438,291.5 21.7813,291.5 Q21.0781,291.5 20.4844,291.7813 Q19.9063,292.0625 19.4531,292.6875 Q19,293.3125 19,294.1719 L19,295.0938 Q19,296.125 19.8438,296.8125 Q20.6875,297.5 22.1875,297.5 Q23.0781,297.5 23.7031,297.2969 Q24.0625,297.1875 24.4688,296.8281 Q24.7344,296.625 24.875,296.5625 Q25.0156,296.5 25.1875,296.5 Q25.5156,296.5 25.75,296.7656 Q26,297.0156 26,297.375 Q26,297.7188 25.6563,298.125 Q25.1563,298.7188 24.3594,299.0469 Q23.3125,299.5 22.0313,299.5 Q20.5313,299.5 19.3281,298.9063 Q18.3594,298.4375 17.6719,297.4219 Q17,296.4063 17,295.2031 L17,294.1094 Q17,292.8594 17.5938,291.7656 Q18.2031,290.6719 19.25,290.0938 Q20.3125,289.5 21.5,289.5 Q22.2188,289.5 22.8438,289.75 Q23.4688,290 24,290.5 Z " fill="#000000"/><text fill="#000000" font-family="sans-serif" font-size="12" lengthAdjust="spacing" textLength="99" x="36" y="298.9102">CreateTestTypeUI</text><line style="stroke:#A80036;stroke-width:1.5;" x1="8" x2="137" y1="310" y2="310"/><line style="stroke:#A80036;stroke-width:1.5;" x1="8" x2="137" y1="318" y2="318"/><!--MD5=[320690cba070b8468face0bfd1ce9533]
link CTTUI to CTTC--><path codeLine="58" d="M138.17,302 C161.47,302 189.15,302 217.92,302 " fill="none" id="CTTUI-to-CTTC" style="stroke:#A80036;stroke-width:1.0;stroke-dasharray:7.0,7.0;"/><polygon fill="#A80036" points="222.92,302,213.92,298,217.92,302,213.92,306,222.92,302" style="stroke:#A80036;stroke-width:1.0;"/><!--MD5=[e1c0f205e01471a87324e4cc03d03bbe]
link C to PCS--><path codeLine="60" d="M921.14,142.87 C970.41,126.22 1035.2,104.76 1093,87 C1110.82,81.53 1129.74,75.93 1148.27,70.57 " fill="none" id="C-to-PCS" style="stroke:#A80036;stroke-width:1.0;stroke-dasharray:7.0,7.0;"/><polygon fill="#A80036" points="1153.48,69.07,1143.7247,67.7155,1148.6751,70.453,1145.9376,75.4034,1153.48,69.07" style="stroke:#A80036;stroke-width:1.0;"/><!--MD5=[694303a06a79f7ae0713de28a4008c97]
link TTS to C--><path codeLine="62" d="M642.09,160.54 C682.42,162.47 722.18,164.37 755.37,165.96 " fill="none" id="TTS-to-C" style="stroke:#A80036;stroke-width:1.0;stroke-dasharray:7.0,7.0;"/><polygon fill="#A80036" points="760.64,166.21,751.8447,161.7781,755.6459,165.9674,751.4565,169.7687,760.64,166.21" style="stroke:#A80036;stroke-width:1.0;"/><!--MD5=[cf05f59dfce81a96099c5f95714bd5af]
link CTTC to C--><path codeLine="65" d="M586.48,250.47 C605.21,244.59 624.02,238.67 642,233 C679.21,221.26 720.33,208.19 755.41,197.01 " fill="none" id="CTTC-to-C" style="stroke:#A80036;stroke-width:1.0;stroke-dasharray:7.0,7.0;"/><polygon fill="#A80036" points="760.54,195.38,750.7507,194.2983,755.7756,196.8966,753.1773,201.9214,760.54,195.38" style="stroke:#A80036;stroke-width:1.0;"/><!--MD5=[1d14db0b97cac770d171bdc7474dae00]
link CTTC to cNM--><path codeLine="66" d="M618.19,302 C645.04,302 672.18,302 697.81,302 " fill="none" id="CTTC-to-cNM" style="stroke:#A80036;stroke-width:1.0;stroke-dasharray:7.0,7.0;"/><polygon fill="#A80036" points="702.91,302,693.91,298,697.91,302,693.91,306,702.91,302" style="stroke:#A80036;stroke-width:1.0;"/><!--MD5=[1418b5af1734c0144573e838c99391fc]
link TT to T--><path codeLine="69" d="M1440.09,170 C1491.47,170 1544.53,170 1583.99,170 " fill="none" id="TT-T" style="stroke:#A80036;stroke-width:1.0;"/><polygon fill="#000000" points="1489.5,161.1758,1498.5451,164.1147,1498.5451,158.2369,1489.5,161.1758" style="stroke:#000000;stroke-width:1.0;"/><text fill="#000000" font-family="sans-serif" font-size="13" lengthAdjust="spacing" textLength="24" x="1503.5" y="166.4951">is of</text><text fill="#000000" font-family="sans-serif" font-size="13" lengthAdjust="spacing" textLength="7" x="1448.1144" y="183.8652">1</text><text fill="#000000" font-family="sans-serif" font-size="13" lengthAdjust="spacing" textLength="5" x="1570.945" y="184.5215">*</text><!--MD5=[93286ab8d15dacf230424bab250ab910]
link TT to PC--><path codeLine="70" d="M1440.09,223.73 C1488.74,238.88 1538.89,254.5 1577.57,266.54 " fill="none" id="TT-PC" style="stroke:#A80036;stroke-width:1.0;"/><polygon fill="#000000" points="1479.7739,229.6623,1472.0116,224.1671,1470.2641,229.7792,1479.7739,229.6623" style="stroke:#000000;stroke-width:1.0;"/><text fill="#000000" font-family="sans-serif" font-size="13" lengthAdjust="spacing" textLength="63" x="1484" y="233.4951">analyzes a</text><text fill="#000000" font-family="sans-serif" font-size="13" lengthAdjust="spacing" textLength="5" x="1448.0691" y="240.0299">*</text><text fill="#000000" font-family="sans-serif" font-size="13" lengthAdjust="spacing" textLength="7" x="1562.9975" y="278.6821">1</text><!--MD5=[b83cceec495819d0b37daa935a10185d]
link C to TT--><path codeLine="72" d="M921.16,170 C969.52,170 1033.32,170 1092.85,170 " fill="none" id="C-TT" style="stroke:#A80036;stroke-width:1.0;"/><polygon fill="#000000" points="1019,161.1758,1009.9549,158.2369,1009.9549,164.1147,1019,161.1758" style="stroke:#000000;stroke-width:1.0;"/><text fill="#000000" font-family="sans-serif" font-size="13" lengthAdjust="spacing" textLength="39" x="1023" y="166.4951">adopts</text><text fill="#000000" font-family="sans-serif" font-size="13" lengthAdjust="spacing" textLength="7" x="928.8724" y="184.2715">1</text><text fill="#000000" font-family="sans-serif" font-size="13" lengthAdjust="spacing" textLength="5" x="1079.8682" y="183.8652">*</text><!--MD5=[71b3fc4d6ca120e51ce9c04aa77747d8]
link C to PC--><path codeLine="73" d="M921.13,210.21 C969.44,232.62 1033.24,258.47 1093,271 C1264.49,306.95 1472.33,300.33 1577.85,293.53 " fill="none" id="C-PC" style="stroke:#A80036;stroke-width:1.0;"/><polygon fill="#000000" points="1249.4602,262.8051,1240.857,258.7511,1240.1172,264.5822,1249.4602,262.8051" style="stroke:#000000;stroke-width:1.0;"/><text fill="#000000" font-family="sans-serif" font-size="13" lengthAdjust="spacing" textLength="39" x="1253.5" y="267.4951">adopts</text><text fill="#000000" font-family="sans-serif" font-size="13" lengthAdjust="spacing" textLength="7" x="929.101" y="228.3403">1</text><text fill="#000000" font-family="sans-serif" font-size="13" lengthAdjust="spacing" textLength="5" x="1564.9586" y="308.5421">*</text><!--MD5=[09a9fe818c10c733b09c40ab4fccc57a]
@startuml
skinparam classAttributeIconSize 0
left to right direction

class "Company" as C {
-String designation
+getTestTypeStore()
+getParameterCategoryStore()
}

class "categoriesNameMapper" as cNM {
+List <ParameterCategory> toDTO(listCategoriesName)
}

class "TestTypeStore" as TTS{
+TestType createTestType(code, description, collectingMethod, parameterCategory)
+TestType createTestType(code, description, collectingMethod, parameterCategoriesList)
+boolean saveTestType(tt)
+boolean validateTestType(tt)
+boolean addTestType(tt)
+List <TestType> getAllTestTypes()
}

class "ParameterCategoryStore" as PCS{
+List <ParameterCategory> getAllParameterCategories()
}

class "TestType" as TT {
-String code
-String description
-String collectingMethod
-ParameterCategory parameterCategory
-List <ParameterCategory> ParameterCategories
+TestType(code, description, collectingMethod, ParameterCategories)
}

class "CreateTestTypeController" as CTTC {
+createTestType(code, description, collectingMethod, parameterCategory)
+createTestType(code, description, collectingMethod, parameterCategoriesList)
+saveTestType(tt)
+CreateTestTypeController()
}

class "Test" as T{
-String code
-String description
-String collectingMethod
}

class "ParameterCategory" as PC{
-String name
-String code
}

class "CreateTestTypeUI" as CTTUI
class "TestType" as TT
class "CreateTestTypeController" as CTTC

CTTUI ..> CTTC

C ..> PCS

TTS ..> C


CTTC ..> C
CTTC ..> cNM


TT "1" - - "*" T: < is of
TT "*" - - "1" PC : > analyzes a

C "1" - - "*" TT : > adopts
C "1" - - "*" PC : > adopts

@enduml

PlantUML version 1.2021.5(Sun Apr 25 12:20:28 BST 2021)
(GPL source distribution)
Java Runtime: OpenJDK Runtime Environment
JVM: OpenJDK 64-Bit Server VM
Default Encoding: Cp1252
Language: pt
Country: PT
--></g></svg>