<?xml version="1.0" encoding="UTF-8" standalone="no"?><svg xmlns="http://www.w3.org/2000/svg" xmlns:xlink="http://www.w3.org/1999/xlink" contentScriptType="application/ecmascript" contentStyleType="text/css" height="612px" preserveAspectRatio="none" style="width:2140px;height:612px;" version="1.1" viewBox="0 0 2140 612" width="2140.5px" zoomAndPan="magnify"><defs><filter height="300%" id="fejr4y3x5zgeb" width="300%" x="-1" y="-1"><feGaussianBlur result="blurOut" stdDeviation="3.0"/><feColorMatrix in="blurOut" result="blurOut2" type="matrix" values="0 0 0 0 0 0 0 0 0 0 0 0 0 0 0 0 0 0 .4 0"/><feOffset dx="6.0" dy="6.0" in="blurOut2" result="blurOut3"/><feBlend in="SourceGraphic" in2="blurOut3" mode="normal"/></filter></defs><g><!--MD5=[378b18254a1b2429f435e93f5e5cc50c]
class C--><rect codeLine="4" fill="#FEFECE" filter="url(#fejr4y3x5zgeb)" height="134.2617" id="C" style="stroke:#A80036;stroke-width:2.25;" width="240" x="800.25" y="111.5347"/><ellipse cx="874.125" cy="135.5347" fill="#ADD1B2" rx="16.5" ry="16.5" style="stroke:#A80036;stroke-width:1.5;"/><path d="M877.125,130.2847 Q877.4297,129.5347 877.7813,129.1597 Q878.1328,128.7847 878.5313,128.7847 Q879.2344,128.7847 879.6797,129.2065 Q880.125,129.6284 880.125,130.6128 L880.125,132.9565 Q880.125,133.9409 879.7031,134.3628 Q879.2813,134.7847 878.625,134.7847 Q878.0391,134.7847 877.6641,134.5269 Q877.2891,134.269 877.125,133.5894 Q877.0547,133.1206 876.7969,132.8628 Q876.3281,132.3706 875.4844,132.0894 Q874.6406,131.7847 873.7969,131.7847 Q872.7422,131.7847 871.8516,132.2065 Q870.9844,132.6284 870.3047,133.5659 Q869.625,134.5034 869.625,135.7925 L869.625,137.1753 Q869.625,138.7222 870.8906,139.7534 Q872.1563,140.7847 874.4063,140.7847 Q875.7422,140.7847 876.6797,140.48 Q877.2188,140.3159 877.8281,139.7769 Q878.2266,139.4722 878.4375,139.3784 Q878.6484,139.2847 878.9063,139.2847 Q879.3984,139.2847 879.75,139.6831 Q880.125,140.0581 880.125,140.5972 Q880.125,141.1128 879.6094,141.7222 Q878.8594,142.6128 877.6641,143.105 Q876.0938,143.7847 874.1719,143.7847 Q871.9219,143.7847 870.1172,142.894 Q868.6641,142.1909 867.6328,140.6675 Q866.625,139.144 866.625,137.3394 L866.625,135.6987 Q866.625,133.8237 867.5156,132.1831 Q868.4297,130.5425 870,129.6753 Q871.5938,128.7847 873.375,128.7847 Q874.4531,128.7847 875.3906,129.1597 Q876.3281,129.5347 877.125,130.2847 Z " fill="#000000"/><text fill="#000000" font-family="sans-serif" font-size="18" lengthAdjust="spacing" textLength="79.5" x="904.875" y="142.8999">Company</text><line style="stroke:#A80036;stroke-width:2.25;" x1="801.75" x2="1038.75" y1="159.5347" y2="159.5347"/><text fill="#000000" font-family="sans-serif" font-size="16.5" lengthAdjust="spacing" textLength="88.5" x="809.25" y="182.6631">-designation</text><line style="stroke:#A80036;stroke-width:2.25;" x1="801.75" x2="1038.75" y1="192.2886" y2="192.2886"/><text fill="#000000" font-family="sans-serif" font-size="16.5" lengthAdjust="spacing" textLength="150" x="809.25" y="215.417">+getTestTypeStore()</text><text fill="#000000" font-family="sans-serif" font-size="16.5" lengthAdjust="spacing" textLength="222" x="809.25" y="236.1709">+getParameterCategoryStore()</text><!--MD5=[606124dbd33b65145bd2d31e230d6615]
class cNM--><rect codeLine="10" fill="#FEFECE" filter="url(#fejr4y3x5zgeb)" height="92.7539" id="cNM" style="stroke:#A80036;stroke-width:2.25;" width="247.5" x="796.5" y="498.5347"/><ellipse cx="819" cy="522.5347" fill="#ADD1B2" rx="16.5" ry="16.5" style="stroke:#A80036;stroke-width:1.5;"/><path d="M822,517.2847 Q822.3047,516.5347 822.6563,516.1597 Q823.0078,515.7847 823.4063,515.7847 Q824.1094,515.7847 824.5547,516.2065 Q825,516.6284 825,517.6128 L825,519.9565 Q825,520.9409 824.5781,521.3628 Q824.1563,521.7847 823.5,521.7847 Q822.9141,521.7847 822.5391,521.5269 Q822.1641,521.269 822,520.5894 Q821.9297,520.1206 821.6719,519.8628 Q821.2031,519.3706 820.3594,519.0894 Q819.5156,518.7847 818.6719,518.7847 Q817.6172,518.7847 816.7266,519.2065 Q815.8594,519.6284 815.1797,520.5659 Q814.5,521.5034 814.5,522.7925 L814.5,524.1753 Q814.5,525.7222 815.7656,526.7534 Q817.0313,527.7847 819.2813,527.7847 Q820.6172,527.7847 821.5547,527.48 Q822.0938,527.3159 822.7031,526.7769 Q823.1016,526.4722 823.3125,526.3784 Q823.5234,526.2847 823.7813,526.2847 Q824.2734,526.2847 824.625,526.6831 Q825,527.0581 825,527.5972 Q825,528.1128 824.4844,528.7222 Q823.7344,529.6128 822.5391,530.105 Q820.9688,530.7847 819.0469,530.7847 Q816.7969,530.7847 814.9922,529.894 Q813.5391,529.1909 812.5078,527.6675 Q811.5,526.144 811.5,524.3394 L811.5,522.6987 Q811.5,520.8237 812.3906,519.1831 Q813.3047,517.5425 814.875,516.6753 Q816.4688,515.7847 818.25,515.7847 Q819.3281,515.7847 820.2656,516.1597 Q821.2031,516.5347 822,517.2847 Z " fill="#000000"/><text fill="#000000" font-family="sans-serif" font-size="18" lengthAdjust="spacing" textLength="199.5" x="840" y="529.8999">categoriesNameMapper</text><line style="stroke:#A80036;stroke-width:2.25;" x1="798" x2="1042.5" y1="546.5347" y2="546.5347"/><line style="stroke:#A80036;stroke-width:2.25;" x1="798" x2="1042.5" y1="558.5347" y2="558.5347"/><text fill="#000000" font-family="sans-serif" font-size="16.5" lengthAdjust="spacing" textLength="204" x="805.5" y="581.6631">+toDTO(listCategoriesName)</text><!--MD5=[0c21d7a5a5555e4278001068caacbd33]
class TTS--><rect codeLine="14" fill="#FEFECE" filter="url(#fejr4y3x5zgeb)" height="155.0156" id="TTS" style="stroke:#A80036;stroke-width:2.25;" width="339" x="332.25" y="101.7847"/><ellipse cx="436.125" cy="125.7847" fill="#ADD1B2" rx="16.5" ry="16.5" style="stroke:#A80036;stroke-width:1.5;"/><path d="M439.125,120.5347 Q439.4297,119.7847 439.7813,119.4097 Q440.1328,119.0347 440.5313,119.0347 Q441.2344,119.0347 441.6797,119.4565 Q442.125,119.8784 442.125,120.8628 L442.125,123.2065 Q442.125,124.1909 441.7031,124.6128 Q441.2813,125.0347 440.625,125.0347 Q440.0391,125.0347 439.6641,124.7769 Q439.2891,124.519 439.125,123.8394 Q439.0547,123.3706 438.7969,123.1128 Q438.3281,122.6206 437.4844,122.3394 Q436.6406,122.0347 435.7969,122.0347 Q434.7422,122.0347 433.8516,122.4565 Q432.9844,122.8784 432.3047,123.8159 Q431.625,124.7534 431.625,126.0425 L431.625,127.4253 Q431.625,128.9722 432.8906,130.0034 Q434.1563,131.0347 436.4063,131.0347 Q437.7422,131.0347 438.6797,130.73 Q439.2188,130.5659 439.8281,130.0269 Q440.2266,129.7222 440.4375,129.6284 Q440.6484,129.5347 440.9063,129.5347 Q441.3984,129.5347 441.75,129.9331 Q442.125,130.3081 442.125,130.8472 Q442.125,131.3628 441.6094,131.9722 Q440.8594,132.8628 439.6641,133.355 Q438.0938,134.0347 436.1719,134.0347 Q433.9219,134.0347 432.1172,133.144 Q430.6641,132.4409 429.6328,130.9175 Q428.625,129.394 428.625,127.5894 L428.625,125.9487 Q428.625,124.0737 429.5156,122.4331 Q430.4297,120.7925 432,119.9253 Q433.5938,119.0347 435.375,119.0347 Q436.4531,119.0347 437.3906,119.4097 Q438.3281,119.7847 439.125,120.5347 Z " fill="#000000"/><text fill="#000000" font-family="sans-serif" font-size="18" lengthAdjust="spacing" textLength="118.5" x="466.875" y="133.1499">TestTypeStore</text><line style="stroke:#A80036;stroke-width:2.25;" x1="333.75" x2="669.75" y1="149.7847" y2="149.7847"/><line style="stroke:#A80036;stroke-width:2.25;" x1="333.75" x2="669.75" y1="161.7847" y2="161.7847"/><text fill="#000000" font-family="sans-serif" font-size="16.5" lengthAdjust="spacing" textLength="321" x="341.25" y="184.9131">+create(code, description, collectingMethod)</text><text fill="#000000" font-family="sans-serif" font-size="16.5" lengthAdjust="spacing" textLength="85.5" x="341.25" y="205.667">+validate(tt)</text><text fill="#000000" font-family="sans-serif" font-size="16.5" lengthAdjust="spacing" textLength="57" x="341.25" y="226.4209">+add(tt)</text><text fill="#000000" font-family="sans-serif" font-size="16.5" lengthAdjust="spacing" textLength="138" x="341.25" y="247.1748">+getAllTestTypes()</text><!--MD5=[2628f93c2b91159b8b11117185f029f9]
class PCS--><rect codeLine="21" fill="#FEFECE" filter="url(#fejr4y3x5zgeb)" height="92.7539" id="PCS" style="stroke:#A80036;stroke-width:2.25;" width="252" x="1323.75" y="102.5347"/><ellipse cx="1346.25" cy="126.5347" fill="#ADD1B2" rx="16.5" ry="16.5" style="stroke:#A80036;stroke-width:1.5;"/><path d="M1349.25,121.2847 Q1349.5547,120.5347 1349.9063,120.1597 Q1350.2578,119.7847 1350.6563,119.7847 Q1351.3594,119.7847 1351.8047,120.2065 Q1352.25,120.6284 1352.25,121.6128 L1352.25,123.9565 Q1352.25,124.9409 1351.8281,125.3628 Q1351.4063,125.7847 1350.75,125.7847 Q1350.1641,125.7847 1349.7891,125.5269 Q1349.4141,125.269 1349.25,124.5894 Q1349.1797,124.1206 1348.9219,123.8628 Q1348.4531,123.3706 1347.6094,123.0894 Q1346.7656,122.7847 1345.9219,122.7847 Q1344.8672,122.7847 1343.9766,123.2065 Q1343.1094,123.6284 1342.4297,124.5659 Q1341.75,125.5034 1341.75,126.7925 L1341.75,128.1753 Q1341.75,129.7222 1343.0156,130.7534 Q1344.2813,131.7847 1346.5313,131.7847 Q1347.8672,131.7847 1348.8047,131.48 Q1349.3438,131.3159 1349.9531,130.7769 Q1350.3516,130.4722 1350.5625,130.3784 Q1350.7734,130.2847 1351.0313,130.2847 Q1351.5234,130.2847 1351.875,130.6831 Q1352.25,131.0581 1352.25,131.5972 Q1352.25,132.1128 1351.7344,132.7222 Q1350.9844,133.6128 1349.7891,134.105 Q1348.2188,134.7847 1346.2969,134.7847 Q1344.0469,134.7847 1342.2422,133.894 Q1340.7891,133.1909 1339.7578,131.6675 Q1338.75,130.144 1338.75,128.3394 L1338.75,126.6987 Q1338.75,124.8237 1339.6406,123.1831 Q1340.5547,121.5425 1342.125,120.6753 Q1343.7188,119.7847 1345.5,119.7847 Q1346.5781,119.7847 1347.5156,120.1597 Q1348.4531,120.5347 1349.25,121.2847 Z " fill="#000000"/><text fill="#000000" font-family="sans-serif" font-size="18" lengthAdjust="spacing" textLength="204" x="1367.25" y="133.8999">ParameterCategoryStore</text><line style="stroke:#A80036;stroke-width:2.25;" x1="1325.25" x2="1574.25" y1="150.5347" y2="150.5347"/><line style="stroke:#A80036;stroke-width:2.25;" x1="1325.25" x2="1574.25" y1="162.5347" y2="162.5347"/><text fill="#000000" font-family="sans-serif" font-size="16.5" lengthAdjust="spacing" textLength="213" x="1332.75" y="185.6631">+getAllParameterCategories()</text><!--MD5=[f76673142371ead9f091198193c4bd63]
class TT--><rect codeLine="52" fill="#FEFECE" filter="url(#fejr4y3x5zgeb)" height="175.7695" id="TT" style="stroke:#A80036;stroke-width:2.25;" width="508.5" x="1195.5" y="373.2847"/><ellipse cx="1405.875" cy="397.2847" fill="#ADD1B2" rx="16.5" ry="16.5" style="stroke:#A80036;stroke-width:1.5;"/><path d="M1408.875,392.0347 Q1409.1797,391.2847 1409.5313,390.9097 Q1409.8828,390.5347 1410.2813,390.5347 Q1410.9844,390.5347 1411.4297,390.9565 Q1411.875,391.3784 1411.875,392.3628 L1411.875,394.7065 Q1411.875,395.6909 1411.4531,396.1128 Q1411.0313,396.5347 1410.375,396.5347 Q1409.7891,396.5347 1409.4141,396.2769 Q1409.0391,396.019 1408.875,395.3394 Q1408.8047,394.8706 1408.5469,394.6128 Q1408.0781,394.1206 1407.2344,393.8394 Q1406.3906,393.5347 1405.5469,393.5347 Q1404.4922,393.5347 1403.6016,393.9565 Q1402.7344,394.3784 1402.0547,395.3159 Q1401.375,396.2534 1401.375,397.5425 L1401.375,398.9253 Q1401.375,400.4722 1402.6406,401.5034 Q1403.9063,402.5347 1406.1563,402.5347 Q1407.4922,402.5347 1408.4297,402.23 Q1408.9688,402.0659 1409.5781,401.5269 Q1409.9766,401.2222 1410.1875,401.1284 Q1410.3984,401.0347 1410.6563,401.0347 Q1411.1484,401.0347 1411.5,401.4331 Q1411.875,401.8081 1411.875,402.3472 Q1411.875,402.8628 1411.3594,403.4722 Q1410.6094,404.3628 1409.4141,404.855 Q1407.8438,405.5347 1405.9219,405.5347 Q1403.6719,405.5347 1401.8672,404.644 Q1400.4141,403.9409 1399.3828,402.4175 Q1398.375,400.894 1398.375,399.0894 L1398.375,397.4487 Q1398.375,395.5737 1399.2656,393.9331 Q1400.1797,392.2925 1401.75,391.4253 Q1403.3438,390.5347 1405.125,390.5347 Q1406.2031,390.5347 1407.1406,390.9097 Q1408.0781,391.2847 1408.875,392.0347 Z " fill="#000000"/><text fill="#000000" font-family="sans-serif" font-size="18" lengthAdjust="spacing" textLength="75" x="1436.625" y="404.6499">TestType</text><line style="stroke:#A80036;stroke-width:2.25;" x1="1197" x2="1702.5" y1="421.2847" y2="421.2847"/><text fill="#000000" font-family="sans-serif" font-size="16.5" lengthAdjust="spacing" textLength="42" x="1204.5" y="444.4131">-code</text><text fill="#000000" font-family="sans-serif" font-size="16.5" lengthAdjust="spacing" textLength="85.5" x="1204.5" y="465.167">-description</text><text fill="#000000" font-family="sans-serif" font-size="16.5" lengthAdjust="spacing" textLength="126" x="1204.5" y="485.9209">-collectingMethod</text><text fill="#000000" font-family="sans-serif" font-size="16.5" lengthAdjust="spacing" textLength="145.5" x="1204.5" y="506.6748">-ParameterCategory</text><line style="stroke:#A80036;stroke-width:2.25;" x1="1197" x2="1702.5" y1="516.3003" y2="516.3003"/><text fill="#000000" font-family="sans-serif" font-size="16.5" lengthAdjust="spacing" textLength="490.5" x="1204.5" y="539.4287">+TestType(code, description, collectingMethod, ParameterCategory)</text><!--MD5=[0db42b3591f13a48474e506cf6fbc101]
class CTTC--><rect codeLine="53" fill="#FEFECE" filter="url(#fejr4y3x5zgeb)" height="134.2617" id="CTTC" style="stroke:#A80036;stroke-width:2.25;" width="406.5" x="298.5" y="351.5347"/><ellipse cx="389.625" cy="375.5347" fill="#ADD1B2" rx="16.5" ry="16.5" style="stroke:#A80036;stroke-width:1.5;"/><path d="M392.625,370.2847 Q392.9297,369.5347 393.2813,369.1597 Q393.6328,368.7847 394.0313,368.7847 Q394.7344,368.7847 395.1797,369.2065 Q395.625,369.6284 395.625,370.6128 L395.625,372.9565 Q395.625,373.9409 395.2031,374.3628 Q394.7813,374.7847 394.125,374.7847 Q393.5391,374.7847 393.1641,374.5269 Q392.7891,374.269 392.625,373.5894 Q392.5547,373.1206 392.2969,372.8628 Q391.8281,372.3706 390.9844,372.0894 Q390.1406,371.7847 389.2969,371.7847 Q388.2422,371.7847 387.3516,372.2065 Q386.4844,372.6284 385.8047,373.5659 Q385.125,374.5034 385.125,375.7925 L385.125,377.1753 Q385.125,378.7222 386.3906,379.7534 Q387.6563,380.7847 389.9063,380.7847 Q391.2422,380.7847 392.1797,380.48 Q392.7188,380.3159 393.3281,379.7769 Q393.7266,379.4722 393.9375,379.3784 Q394.1484,379.2847 394.4063,379.2847 Q394.8984,379.2847 395.25,379.6831 Q395.625,380.0581 395.625,380.5972 Q395.625,381.1128 395.1094,381.7222 Q394.3594,382.6128 393.1641,383.105 Q391.5938,383.7847 389.6719,383.7847 Q387.4219,383.7847 385.6172,382.894 Q384.1641,382.1909 383.1328,380.6675 Q382.125,379.144 382.125,377.3394 L382.125,375.6987 Q382.125,373.8237 383.0156,372.1831 Q383.9297,370.5425 385.5,369.6753 Q387.0938,368.7847 388.875,368.7847 Q389.9531,368.7847 390.8906,369.1597 Q391.8281,369.5347 392.625,370.2847 Z " fill="#000000"/><text fill="#000000" font-family="sans-serif" font-size="18" lengthAdjust="spacing" textLength="211.5" x="420.375" y="382.8999">CreateTestTypeController</text><line style="stroke:#A80036;stroke-width:2.25;" x1="300" x2="703.5" y1="399.5347" y2="399.5347"/><line style="stroke:#A80036;stroke-width:2.25;" x1="300" x2="703.5" y1="411.5347" y2="411.5347"/><text fill="#000000" font-family="sans-serif" font-size="16.5" lengthAdjust="spacing" textLength="388.5" x="307.5" y="434.6631">+createTestType(code, description, collectingMethod)</text><text fill="#000000" font-family="sans-serif" font-size="16.5" lengthAdjust="spacing" textLength="144" x="307.5" y="455.417">+validateTestType()</text><text fill="#000000" font-family="sans-serif" font-size="16.5" lengthAdjust="spacing" textLength="124.5" x="307.5" y="476.1709">+saveTestType()</text><!--MD5=[56e4c9075fa7c9f4c09ef0a20c49f72c]
class T--><rect codeLine="39" fill="#FEFECE" filter="url(#fejr4y3x5zgeb)" height="134.2617" id="T" style="stroke:#A80036;stroke-width:2.25;" width="144" x="1943.25" y="398.0347"/><ellipse cx="1992.75" cy="422.0347" fill="#ADD1B2" rx="16.5" ry="16.5" style="stroke:#A80036;stroke-width:1.5;"/><path d="M1995.75,416.7847 Q1996.0547,416.0347 1996.4063,415.6597 Q1996.7578,415.2847 1997.1563,415.2847 Q1997.8594,415.2847 1998.3047,415.7065 Q1998.75,416.1284 1998.75,417.1128 L1998.75,419.4565 Q1998.75,420.4409 1998.3281,420.8628 Q1997.9063,421.2847 1997.25,421.2847 Q1996.6641,421.2847 1996.2891,421.0269 Q1995.9141,420.769 1995.75,420.0894 Q1995.6797,419.6206 1995.4219,419.3628 Q1994.9531,418.8706 1994.1094,418.5894 Q1993.2656,418.2847 1992.4219,418.2847 Q1991.3672,418.2847 1990.4766,418.7065 Q1989.6094,419.1284 1988.9297,420.0659 Q1988.25,421.0034 1988.25,422.2925 L1988.25,423.6753 Q1988.25,425.2222 1989.5156,426.2534 Q1990.7813,427.2847 1993.0313,427.2847 Q1994.3672,427.2847 1995.3047,426.98 Q1995.8438,426.8159 1996.4531,426.2769 Q1996.8516,425.9722 1997.0625,425.8784 Q1997.2734,425.7847 1997.5313,425.7847 Q1998.0234,425.7847 1998.375,426.1831 Q1998.75,426.5581 1998.75,427.0972 Q1998.75,427.6128 1998.2344,428.2222 Q1997.4844,429.1128 1996.2891,429.605 Q1994.7188,430.2847 1992.7969,430.2847 Q1990.5469,430.2847 1988.7422,429.394 Q1987.2891,428.6909 1986.2578,427.1675 Q1985.25,425.644 1985.25,423.8394 L1985.25,422.1987 Q1985.25,420.3237 1986.1406,418.6831 Q1987.0547,417.0425 1988.625,416.1753 Q1990.2188,415.2847 1992,415.2847 Q1993.0781,415.2847 1994.0156,415.6597 Q1994.9531,416.0347 1995.75,416.7847 Z " fill="#000000"/><text fill="#000000" font-family="sans-serif" font-size="18" lengthAdjust="spacing" textLength="36" x="2019.75" y="429.3999">Test</text><line style="stroke:#A80036;stroke-width:2.25;" x1="1944.75" x2="2085.75" y1="446.0347" y2="446.0347"/><text fill="#000000" font-family="sans-serif" font-size="16.5" lengthAdjust="spacing" textLength="42" x="1952.25" y="469.1631">-code</text><text fill="#000000" font-family="sans-serif" font-size="16.5" lengthAdjust="spacing" textLength="85.5" x="1952.25" y="489.917">-description</text><text fill="#000000" font-family="sans-serif" font-size="16.5" lengthAdjust="spacing" textLength="126" x="1952.25" y="510.6709">-collectingMethod</text><line style="stroke:#A80036;stroke-width:2.25;" x1="1944.75" x2="2085.75" y1="520.2964" y2="520.2964"/><!--MD5=[218f71f443b9e0720bb96dd9df1d4749]
class PC--><rect codeLine="45" fill="#FEFECE" filter="url(#fejr4y3x5zgeb)" height="134.2617" id="PC" style="stroke:#A80036;stroke-width:2.25;" width="208.5" x="1911" y="210.5347"/><ellipse cx="1933.5" cy="234.5347" fill="#ADD1B2" rx="16.5" ry="16.5" style="stroke:#A80036;stroke-width:1.5;"/><path d="M1936.5,229.2847 Q1936.8047,228.5347 1937.1563,228.1597 Q1937.5078,227.7847 1937.9063,227.7847 Q1938.6094,227.7847 1939.0547,228.2065 Q1939.5,228.6284 1939.5,229.6128 L1939.5,231.9565 Q1939.5,232.9409 1939.0781,233.3628 Q1938.6563,233.7847 1938,233.7847 Q1937.4141,233.7847 1937.0391,233.5269 Q1936.6641,233.269 1936.5,232.5894 Q1936.4297,232.1206 1936.1719,231.8628 Q1935.7031,231.3706 1934.8594,231.0894 Q1934.0156,230.7847 1933.1719,230.7847 Q1932.1172,230.7847 1931.2266,231.2065 Q1930.3594,231.6284 1929.6797,232.5659 Q1929,233.5034 1929,234.7925 L1929,236.1753 Q1929,237.7222 1930.2656,238.7534 Q1931.5313,239.7847 1933.7813,239.7847 Q1935.1172,239.7847 1936.0547,239.48 Q1936.5938,239.3159 1937.2031,238.7769 Q1937.6016,238.4722 1937.8125,238.3784 Q1938.0234,238.2847 1938.2813,238.2847 Q1938.7734,238.2847 1939.125,238.6831 Q1939.5,239.0581 1939.5,239.5972 Q1939.5,240.1128 1938.9844,240.7222 Q1938.2344,241.6128 1937.0391,242.105 Q1935.4688,242.7847 1933.5469,242.7847 Q1931.2969,242.7847 1929.4922,241.894 Q1928.0391,241.1909 1927.0078,239.6675 Q1926,238.144 1926,236.3394 L1926,234.6987 Q1926,232.8237 1926.8906,231.1831 Q1927.8047,229.5425 1929.375,228.6753 Q1930.9688,227.7847 1932.75,227.7847 Q1933.8281,227.7847 1934.7656,228.1597 Q1935.7031,228.5347 1936.5,229.2847 Z " fill="#000000"/><text fill="#000000" font-family="sans-serif" font-size="18" lengthAdjust="spacing" textLength="160.5" x="1954.5" y="241.8999">ParameterCategory</text><line style="stroke:#A80036;stroke-width:2.25;" x1="1912.5" x2="2118" y1="258.5347" y2="258.5347"/><text fill="#000000" font-family="sans-serif" font-size="16.5" lengthAdjust="spacing" textLength="42" x="1920" y="281.6631">-code</text><text fill="#000000" font-family="sans-serif" font-size="16.5" lengthAdjust="spacing" textLength="85.5" x="1920" y="302.417">-description</text><text fill="#000000" font-family="sans-serif" font-size="16.5" lengthAdjust="spacing" textLength="46.5" x="1920" y="323.1709">-nhsID</text><line style="stroke:#A80036;stroke-width:2.25;" x1="1912.5" x2="2118" y1="332.7964" y2="332.7964"/><!--MD5=[6461a74477876ab4a04549c978c1a07a]
class CTTUI--><rect codeLine="51" fill="#FEFECE" filter="url(#fejr4y3x5zgeb)" height="72" id="CTTUI" style="stroke:#A80036;stroke-width:2.25;" width="196.5" x="10.5" y="383.0347"/><ellipse cx="33" cy="407.0347" fill="#ADD1B2" rx="16.5" ry="16.5" style="stroke:#A80036;stroke-width:1.5;"/><path d="M36,401.7847 Q36.3047,401.0347 36.6563,400.6597 Q37.0078,400.2847 37.4063,400.2847 Q38.1094,400.2847 38.5547,400.7065 Q39,401.1284 39,402.1128 L39,404.4565 Q39,405.4409 38.5781,405.8628 Q38.1563,406.2847 37.5,406.2847 Q36.9141,406.2847 36.5391,406.0269 Q36.1641,405.769 36,405.0894 Q35.9297,404.6206 35.6719,404.3628 Q35.2031,403.8706 34.3594,403.5894 Q33.5156,403.2847 32.6719,403.2847 Q31.6172,403.2847 30.7266,403.7065 Q29.8594,404.1284 29.1797,405.0659 Q28.5,406.0034 28.5,407.2925 L28.5,408.6753 Q28.5,410.2222 29.7656,411.2534 Q31.0313,412.2847 33.2813,412.2847 Q34.6172,412.2847 35.5547,411.98 Q36.0938,411.8159 36.7031,411.2769 Q37.1016,410.9722 37.3125,410.8784 Q37.5234,410.7847 37.7813,410.7847 Q38.2734,410.7847 38.625,411.1831 Q39,411.5581 39,412.0972 Q39,412.6128 38.4844,413.2222 Q37.7344,414.1128 36.5391,414.605 Q34.9688,415.2847 33.0469,415.2847 Q30.7969,415.2847 28.9922,414.394 Q27.5391,413.6909 26.5078,412.1675 Q25.5,410.644 25.5,408.8394 L25.5,407.1987 Q25.5,405.3237 26.3906,403.6831 Q27.3047,402.0425 28.875,401.1753 Q30.4688,400.2847 32.25,400.2847 Q33.3281,400.2847 34.2656,400.6597 Q35.2031,401.0347 36,401.7847 Z " fill="#000000"/><text fill="#000000" font-family="sans-serif" font-size="18" lengthAdjust="spacing" textLength="148.5" x="54" y="414.3999">CreateTestTypeUI</text><line style="stroke:#A80036;stroke-width:2.25;" x1="12" x2="205.5" y1="431.0347" y2="431.0347"/><line style="stroke:#A80036;stroke-width:2.25;" x1="12" x2="205.5" y1="443.0347" y2="443.0347"/><!--MD5=[da547346deef918ea16944ba046651ef]
class Administrator--><rect fill="#FEFECE" filter="url(#fejr4y3x5zgeb)" height="72" id="Administrator" style="stroke:#A80036;stroke-width:2.25;" width="157.5" x="1371" y="248.0347"/><ellipse cx="1393.5" cy="272.0347" fill="#ADD1B2" rx="16.5" ry="16.5" style="stroke:#A80036;stroke-width:1.5;"/><path d="M1396.5,266.7847 Q1396.8047,266.0347 1397.1563,265.6597 Q1397.5078,265.2847 1397.9063,265.2847 Q1398.6094,265.2847 1399.0547,265.7065 Q1399.5,266.1284 1399.5,267.1128 L1399.5,269.4565 Q1399.5,270.4409 1399.0781,270.8628 Q1398.6563,271.2847 1398,271.2847 Q1397.4141,271.2847 1397.0391,271.0269 Q1396.6641,270.769 1396.5,270.0894 Q1396.4297,269.6206 1396.1719,269.3628 Q1395.7031,268.8706 1394.8594,268.5894 Q1394.0156,268.2847 1393.1719,268.2847 Q1392.1172,268.2847 1391.2266,268.7065 Q1390.3594,269.1284 1389.6797,270.0659 Q1389,271.0034 1389,272.2925 L1389,273.6753 Q1389,275.2222 1390.2656,276.2534 Q1391.5313,277.2847 1393.7813,277.2847 Q1395.1172,277.2847 1396.0547,276.98 Q1396.5938,276.8159 1397.2031,276.2769 Q1397.6016,275.9722 1397.8125,275.8784 Q1398.0234,275.7847 1398.2813,275.7847 Q1398.7734,275.7847 1399.125,276.1831 Q1399.5,276.5581 1399.5,277.0972 Q1399.5,277.6128 1398.9844,278.2222 Q1398.2344,279.1128 1397.0391,279.605 Q1395.4688,280.2847 1393.5469,280.2847 Q1391.2969,280.2847 1389.4922,279.394 Q1388.0391,278.6909 1387.0078,277.1675 Q1386,275.644 1386,273.8394 L1386,272.1987 Q1386,270.3237 1386.8906,268.6831 Q1387.8047,267.0425 1389.375,266.1753 Q1390.9688,265.2847 1392.75,265.2847 Q1393.8281,265.2847 1394.7656,265.6597 Q1395.7031,266.0347 1396.5,266.7847 Z " fill="#000000"/><text fill="#000000" font-family="sans-serif" font-size="18" lengthAdjust="spacing" textLength="109.5" x="1414.5" y="279.3999">Administrator</text><line style="stroke:#A80036;stroke-width:2.25;" x1="1372.5" x2="1527" y1="296.0347" y2="296.0347"/><line style="stroke:#A80036;stroke-width:2.25;" x1="1372.5" x2="1527" y1="308.0347" y2="308.0347"/><!--MD5=[320690cba070b8468face0bfd1ce9533]
link CTTUI to CTTC--><path codeLine="55" d="M207.15,419.0347 C232.62,419.0347 261.105,419.0347 290.04,419.0347 " fill="none" id="CTTUI-to-CTTC" style="stroke:#A80036;stroke-width:1.5;stroke-dasharray:7.0,7.0;"/><polygon fill="#A80036" points="298.215,419.0347,284.715,413.0347,290.715,419.0347,284.715,425.0347,298.215,419.0347" style="stroke:#A80036;stroke-width:1.5;"/><!--MD5=[e1c0f205e01471a87324e4cc03d03bbe]
link C to PCS--><path codeLine="57" d="M1040.565,172.2697 C1122.405,167.6047 1231.23,161.3947 1315.86,156.5797 " fill="none" id="C-to-PCS" style="stroke:#A80036;stroke-width:1.5;stroke-dasharray:7.0,7.0;"/><polygon fill="#A80036" points="1323.45,156.1447,1309.6288,150.9269,1315.9623,156.5738,1310.3154,162.9072,1323.45,156.1447" style="stroke:#A80036;stroke-width:1.5;"/><!--MD5=[694303a06a79f7ae0713de28a4008c97]
link TTS to C--><path codeLine="59" d="M671.655,179.0347 C711.93,179.0347 754.26,179.0347 792.285,179.0347 " fill="none" id="TTS-to-C" style="stroke:#A80036;stroke-width:1.5;stroke-dasharray:7.0,7.0;"/><polygon fill="#A80036" points="799.815,179.0347,786.315,173.0347,792.315,179.0347,786.315,185.0347,799.815,179.0347" style="stroke:#A80036;stroke-width:1.5;"/><!--MD5=[4ba949b41f5b4f886781165bf5f9b564]
link CTTC to TT--><path codeLine="61" d="M705.39,428.0197 C846.3,434.2747 1035.525,442.6897 1187.73,449.4547 " fill="none" id="CTTC-to-TT" style="stroke:#A80036;stroke-width:1.5;stroke-dasharray:7.0,7.0;"/><polygon fill="#A80036" points="1195.41,449.7997,1182.1989,443.1877,1187.9179,449.4562,1181.6494,455.1751,1195.41,449.7997" style="stroke:#A80036;stroke-width:1.5;"/><!--MD5=[cf05f59dfce81a96099c5f95714bd5af]
link CTTC to C--><path codeLine="62" d="M620.655,351.2197 C675.075,319.7947 739.77,282.4147 794.955,250.5397 " fill="none" id="CTTC-to-C" style="stroke:#A80036;stroke-width:1.5;stroke-dasharray:7.0,7.0;"/><polygon fill="#A80036" points="801.645,246.6847,786.9539,248.2408,795.1504,250.4357,792.9555,258.6322,801.645,246.6847" style="stroke:#A80036;stroke-width:1.5;"/><!--MD5=[1d14db0b97cac770d171bdc7474dae00]
link CTTC to cNM--><path codeLine="63" d="M705.525,480.3697 C733.815,488.9497 762.255,497.5747 788.715,505.5997 " fill="none" id="CTTC-to-cNM" style="stroke:#A80036;stroke-width:1.5;stroke-dasharray:7.0,7.0;"/><polygon fill="#A80036" points="796.125,507.8497,784.958,498.1776,788.9502,505.6651,781.4627,509.6573,796.125,507.8497" style="stroke:#A80036;stroke-width:1.5;"/><!--MD5=[1418b5af1734c0144573e838c99391fc]
link TT to T--><path codeLine="65" d="M1704.24,465.1147 C1719.39,465.2797 1734.39,465.4297 1749,465.5347 C1814.73,466.0297 1889.64,465.9697 1942.95,465.8197 " fill="none" id="TT-T" style="stroke:#A80036;stroke-width:1.5;"/><polygon fill="#000000" points="1778.25,452.2762,1791.8046,456.7246,1791.8306,447.9079,1778.25,452.2762" style="stroke:#000000;stroke-width:1.5;"/><text fill="#000000" font-family="sans-serif" font-size="19.5" lengthAdjust="spacing" textLength="36" x="1799.25" y="460.2773">is of</text><text fill="#000000" font-family="sans-serif" font-size="19.5" lengthAdjust="spacing" textLength="10.5" x="1716.0095" y="486.0918">1</text><text fill="#000000" font-family="sans-serif" font-size="19.5" lengthAdjust="spacing" textLength="7.5" x="1923.8048" y="488.0404">*</text><!--MD5=[b83cceec495819d0b37daa935a10185d]
link C to TT--><path codeLine="67" d="M1025.235,246.8347 C1075.71,278.7847 1137.84,316.4947 1195.5,347.0347 C1209.885,354.6547 1224.885,362.2447 1240.08,369.6997 " fill="none" id="C-to-TT" style="stroke:#A80036;stroke-width:1.5;"/><polygon fill="#A80036" points="1247.07,373.1047,1237.5622,361.7975,1240.3278,369.8195,1232.3059,372.585,1247.07,373.1047" style="stroke:#A80036;stroke-width:1.5;"/><text fill="#000000" font-family="sans-serif" font-size="19.5" lengthAdjust="spacing" textLength="58.5" x="1090.5" y="284.7773">adopts</text><text fill="#000000" font-family="sans-serif" font-size="19.5" lengthAdjust="spacing" textLength="10.5" x="1028.1369" y="277.8855">1</text><text fill="#000000" font-family="sans-serif" font-size="19.5" lengthAdjust="spacing" textLength="7.5" x="1214.4113" y="357.1841">*</text><!--MD5=[74115fe693d342874f19c378f5f8ad7f]
link Administrator to PC--><path codeLine="69" d="M1528.875,283.2097 C1628.175,282.1447 1800.48,280.3147 1910.7,279.1297 " fill="none" id="Administrator-PC" style="stroke:#A80036;stroke-width:1.5;"/><polygon fill="#000000" points="1750.5004,266.3785,1764.1144,270.6416,1764.0202,261.8254,1750.5004,266.3785" style="stroke:#000000;stroke-width:1.5;"/><text fill="#000000" font-family="sans-serif" font-size="19.5" lengthAdjust="spacing" textLength="91.5" x="1771.5" y="274.2773">created by</text><text fill="#000000" font-family="sans-serif" font-size="19.5" lengthAdjust="spacing" textLength="7.5" x="1540.5293" y="305.0609">*</text><text fill="#000000" font-family="sans-serif" font-size="19.5" lengthAdjust="spacing" textLength="7.5" x="1891.3547" y="300.8738">*</text><!--MD5=[93286ab8d15dacf230424bab250ab910]
link TT to PC--><path codeLine="70" d="M1704.12,378.7747 C1777.08,355.0297 1852.605,330.4597 1910.805,311.5297 " fill="none" id="TT-PC" style="stroke:#A80036;stroke-width:1.5;"/><polygon fill="#000000" points="1763.632,310.4779,1749.3662,310.4835,1752.094,318.8677,1763.632,310.4779" style="stroke:#000000;stroke-width:1.5;"/><text fill="#000000" font-family="sans-serif" font-size="19.5" lengthAdjust="spacing" textLength="94.5" x="1770" y="320.7773">analyzes a</text><text fill="#000000" font-family="sans-serif" font-size="19.5" lengthAdjust="spacing" textLength="7.5" x="1715.8161" y="395.8395">*</text><text fill="#000000" font-family="sans-serif" font-size="19.5" lengthAdjust="spacing" textLength="10.5" x="1888.3071" y="336.8176">1</text><!--MD5=[71b3fc4d6ca120e51ce9c04aa77747d8]
link C to PC--><path codeLine="71" d="M1040.34,123.4897 C1087.53,104.2597 1143.015,85.1197 1195.5,75.5347 C1417.815,34.9147 1487.4,11.0197 1704,75.5347 C1792.365,101.8597 1878.99,162.2947 1938.06,210.3397 " fill="none" id="C-PC" style="stroke:#A80036;stroke-width:1.5;"/><polygon fill="#000000" points="1424.2151,24.0206,1411.1351,18.3262,1410.2861,27.102,1424.2151,24.0206" style="stroke:#000000;stroke-width:1.5;"/><text fill="#000000" font-family="sans-serif" font-size="19.5" lengthAdjust="spacing" textLength="58.5" x="1430.25" y="31.2773">adopts</text><text fill="#000000" font-family="sans-serif" font-size="19.5" lengthAdjust="spacing" textLength="10.5" x="1052.2865" y="139.6423">1</text><text fill="#000000" font-family="sans-serif" font-size="19.5" lengthAdjust="spacing" textLength="7.5" x="1918.1661" y="194.4759">*</text><!--MD5=[6ece3127209a5a266325cd91a990b3a0]
@startuml
skinparam classAttributeIconSize 0
left to right direction

class "Company" as C {
-designation
+getTestTypeStore()
+getParameterCategoryStore()
}

class "categoriesNameMapper" as cNM {
+toDTO(listCategoriesName)
}

class "TestTypeStore" as TTS{
+create(code, description, collectingMethod)
+validate(tt)
+add(tt)
+getAllTestTypes()
}

class "ParameterCategoryStore" as PCS{
+getAllParameterCategories()
}

class "TestType" as TT {
-code
-description
-collectingMethod
-ParameterCategory
+TestType(code, description, collectingMethod, ParameterCategory)
}

class "CreateTestTypeController" as CTTC {
+createTestType(code, description, collectingMethod)
+validateTestType()
+saveTestType()
}

class "Test" as T{
-code
-description
-collectingMethod
}

class "ParameterCategory" as PC{
-code
-description
-nhsID
}

class "CreateTestTypeUI" as CTTUI
class "TestType" as TT
class "CreateTestTypeController" as CTTC

CTTUI ..> CTTC

C ..> PCS

TTS ..> C

CTTC ..> TT
CTTC ..> C
CTTC ..> cNM

TT "1" - - "*" T: < is of

C "1" - -> "*" TT : adopts

Administrator "*" - - "*" PC : < created by
TT "*" - - "1" PC : > analyzes a
C "1" - - "*" PC : > adopts
@enduml

PlantUML version 1.2021.4(Sun Apr 04 09:49:39 BST 2021)
(GPL source distribution)
Java Runtime: OpenJDK Runtime Environment
JVM: OpenJDK 64-Bit Server VM
Default Encoding: Cp1252
Language: pt
Country: PT
--></g></svg>