<?xml version="1.0" encoding="UTF-8" standalone="no"?><svg xmlns="http://www.w3.org/2000/svg" xmlns:xlink="http://www.w3.org/1999/xlink" contentScriptType="application/ecmascript" contentStyleType="text/css" height="409px" preserveAspectRatio="none" style="width:1729px;height:409px;" version="1.1" viewBox="0 0 1729 409" width="1729px" zoomAndPan="magnify"><defs><filter height="300%" id="f53uwip7tvvvm" width="300%" x="-1" y="-1"><feGaussianBlur result="blurOut" stdDeviation="2.0"/><feColorMatrix in="blurOut" result="blurOut2" type="matrix" values="0 0 0 0 0 0 0 0 0 0 0 0 0 0 0 0 0 0 .4 0"/><feOffset dx="4.0" dy="4.0" in="blurOut2" result="blurOut3"/><feBlend in="SourceGraphic" in2="blurOut3" mode="normal"/></filter></defs><g><!--MD5=[378b18254a1b2429f435e93f5e5cc50c]
class C--><rect codeLine="4" fill="#FEFECE" filter="url(#f53uwip7tvvvm)" height="89.5078" id="C" style="stroke:#A80036;stroke-width:1.5;" width="160" x="733.5" y="146"/><ellipse cx="782.75" cy="162" fill="#ADD1B2" rx="11" ry="11" style="stroke:#A80036;stroke-width:1.0;"/><path d="M784.75,158.5 Q784.9531,158 785.1875,157.75 Q785.4219,157.5 785.6875,157.5 Q786.1563,157.5 786.4531,157.7813 Q786.75,158.0625 786.75,158.7188 L786.75,160.2813 Q786.75,160.9375 786.4688,161.2188 Q786.1875,161.5 785.75,161.5 Q785.3594,161.5 785.1094,161.3281 Q784.8594,161.1563 784.75,160.7031 Q784.7031,160.3906 784.5313,160.2188 Q784.2188,159.8906 783.6563,159.7031 Q783.0938,159.5 782.5313,159.5 Q781.8281,159.5 781.2344,159.7813 Q780.6563,160.0625 780.2031,160.6875 Q779.75,161.3125 779.75,162.1719 L779.75,163.0938 Q779.75,164.125 780.5938,164.8125 Q781.4375,165.5 782.9375,165.5 Q783.8281,165.5 784.4531,165.2969 Q784.8125,165.1875 785.2188,164.8281 Q785.4844,164.625 785.625,164.5625 Q785.7656,164.5 785.9375,164.5 Q786.2656,164.5 786.5,164.7656 Q786.75,165.0156 786.75,165.375 Q786.75,165.7188 786.4063,166.125 Q785.9063,166.7188 785.1094,167.0469 Q784.0625,167.5 782.7813,167.5 Q781.2813,167.5 780.0781,166.9063 Q779.1094,166.4375 778.4219,165.4219 Q777.75,164.4063 777.75,163.2031 L777.75,162.1094 Q777.75,160.8594 778.3438,159.7656 Q778.9531,158.6719 780,158.0938 Q781.0625,157.5 782.25,157.5 Q782.9688,157.5 783.5938,157.75 Q784.2188,158 784.75,158.5 Z " fill="#000000"/><text fill="#000000" font-family="sans-serif" font-size="12" lengthAdjust="spacing" textLength="53" x="803.25" y="166.9102">Company</text><line style="stroke:#A80036;stroke-width:1.5;" x1="734.5" x2="892.5" y1="178" y2="178"/><text fill="#000000" font-family="sans-serif" font-size="11" lengthAdjust="spacing" textLength="90" x="739.5" y="193.4189">-String designation</text><line style="stroke:#A80036;stroke-width:1.5;" x1="734.5" x2="892.5" y1="199.8359" y2="199.8359"/><text fill="#000000" font-family="sans-serif" font-size="11" lengthAdjust="spacing" textLength="100" x="739.5" y="215.2549">+getTestTypeStore()</text><text fill="#000000" font-family="sans-serif" font-size="11" lengthAdjust="spacing" textLength="148" x="739.5" y="229.0908">+getParameterCategoryStore()</text><!--MD5=[1905ea1c532ab03438cb5177c6784fd5]
class ttM--><rect codeLine="10" fill="#FEFECE" filter="url(#f53uwip7tvvvm)" height="61.8359" id="ttM" style="stroke:#A80036;stroke-width:1.5;" width="221" x="703" y="299"/><ellipse cx="763.75" cy="315" fill="#ADD1B2" rx="11" ry="11" style="stroke:#A80036;stroke-width:1.0;"/><path d="M765.75,311.5 Q765.9531,311 766.1875,310.75 Q766.4219,310.5 766.6875,310.5 Q767.1563,310.5 767.4531,310.7813 Q767.75,311.0625 767.75,311.7188 L767.75,313.2813 Q767.75,313.9375 767.4688,314.2188 Q767.1875,314.5 766.75,314.5 Q766.3594,314.5 766.1094,314.3281 Q765.8594,314.1563 765.75,313.7031 Q765.7031,313.3906 765.5313,313.2188 Q765.2188,312.8906 764.6563,312.7031 Q764.0938,312.5 763.5313,312.5 Q762.8281,312.5 762.2344,312.7813 Q761.6563,313.0625 761.2031,313.6875 Q760.75,314.3125 760.75,315.1719 L760.75,316.0938 Q760.75,317.125 761.5938,317.8125 Q762.4375,318.5 763.9375,318.5 Q764.8281,318.5 765.4531,318.2969 Q765.8125,318.1875 766.2188,317.8281 Q766.4844,317.625 766.625,317.5625 Q766.7656,317.5 766.9375,317.5 Q767.2656,317.5 767.5,317.7656 Q767.75,318.0156 767.75,318.375 Q767.75,318.7188 767.4063,319.125 Q766.9063,319.7188 766.1094,320.0469 Q765.0625,320.5 763.7813,320.5 Q762.2813,320.5 761.0781,319.9063 Q760.1094,319.4375 759.4219,318.4219 Q758.75,317.4063 758.75,316.2031 L758.75,315.1094 Q758.75,313.8594 759.3438,312.7656 Q759.9531,311.6719 761,311.0938 Q762.0625,310.5 763.25,310.5 Q763.9688,310.5 764.5938,310.75 Q765.2188,311 765.75,311.5 Z " fill="#000000"/><text fill="#000000" font-family="sans-serif" font-size="12" lengthAdjust="spacing" textLength="91" x="784.25" y="319.9102">TestTypeMapper</text><line style="stroke:#A80036;stroke-width:1.5;" x1="704" x2="923" y1="331" y2="331"/><line style="stroke:#A80036;stroke-width:1.5;" x1="704" x2="923" y1="339" y2="339"/><text fill="#000000" font-family="sans-serif" font-size="11" lengthAdjust="spacing" textLength="209" x="709" y="354.4189">+List &lt;TestTypeDto&gt; toDto(List&lt;TestType&gt;)</text><!--MD5=[0c21d7a5a5555e4278001068caacbd33]
class TTS--><rect codeLine="14" fill="#FEFECE" filter="url(#f53uwip7tvvvm)" height="131.0156" id="TTS" style="stroke:#A80036;stroke-width:1.5;" width="443" x="199" y="98.5"/><ellipse cx="376.75" cy="114.5" fill="#ADD1B2" rx="11" ry="11" style="stroke:#A80036;stroke-width:1.0;"/><path d="M378.75,111 Q378.9531,110.5 379.1875,110.25 Q379.4219,110 379.6875,110 Q380.1563,110 380.4531,110.2813 Q380.75,110.5625 380.75,111.2188 L380.75,112.7813 Q380.75,113.4375 380.4688,113.7188 Q380.1875,114 379.75,114 Q379.3594,114 379.1094,113.8281 Q378.8594,113.6563 378.75,113.2031 Q378.7031,112.8906 378.5313,112.7188 Q378.2188,112.3906 377.6563,112.2031 Q377.0938,112 376.5313,112 Q375.8281,112 375.2344,112.2813 Q374.6563,112.5625 374.2031,113.1875 Q373.75,113.8125 373.75,114.6719 L373.75,115.5938 Q373.75,116.625 374.5938,117.3125 Q375.4375,118 376.9375,118 Q377.8281,118 378.4531,117.7969 Q378.8125,117.6875 379.2188,117.3281 Q379.4844,117.125 379.625,117.0625 Q379.7656,117 379.9375,117 Q380.2656,117 380.5,117.2656 Q380.75,117.5156 380.75,117.875 Q380.75,118.2188 380.4063,118.625 Q379.9063,119.2188 379.1094,119.5469 Q378.0625,120 376.7813,120 Q375.2813,120 374.0781,119.4063 Q373.1094,118.9375 372.4219,117.9219 Q371.75,116.9063 371.75,115.7031 L371.75,114.6094 Q371.75,113.3594 372.3438,112.2656 Q372.9531,111.1719 374,110.5938 Q375.0625,110 376.25,110 Q376.9688,110 377.5938,110.25 Q378.2188,110.5 378.75,111 Z " fill="#000000"/><text fill="#000000" font-family="sans-serif" font-size="12" lengthAdjust="spacing" textLength="79" x="397.25" y="119.4102">TestTypeStore</text><line style="stroke:#A80036;stroke-width:1.5;" x1="200" x2="641" y1="130.5" y2="130.5"/><line style="stroke:#A80036;stroke-width:1.5;" x1="200" x2="641" y1="138.5" y2="138.5"/><text fill="#000000" font-family="sans-serif" font-size="11" lengthAdjust="spacing" textLength="406" x="205" y="153.9189">+TestType createTestType(code, description, collectingMethod, parameterCategory)</text><text fill="#000000" font-family="sans-serif" font-size="11" lengthAdjust="spacing" textLength="431" x="205" y="167.7549">+TestType createTestType(code, description, collectingMethod, parameterCategoriesList)</text><text fill="#000000" font-family="sans-serif" font-size="11" lengthAdjust="spacing" textLength="130" x="205" y="181.5908">+boolean saveTestType(tt)</text><text fill="#000000" font-family="sans-serif" font-size="11" lengthAdjust="spacing" textLength="143" x="205" y="195.4268">+boolean validateTestType(tt)</text><text fill="#000000" font-family="sans-serif" font-size="11" lengthAdjust="spacing" textLength="124" x="205" y="209.2627">+boolean addTestType(tt)</text><text fill="#000000" font-family="sans-serif" font-size="11" lengthAdjust="spacing" textLength="172" x="205" y="223.0986">+List &lt;TestType&gt; getAllTestTypes()</text><!--MD5=[2628f93c2b91159b8b11117185f029f9]
class PCS--><rect codeLine="23" fill="#FEFECE" filter="url(#f53uwip7tvvvm)" height="75.6719" id="PCS" style="stroke:#A80036;stroke-width:1.5;" width="314" x="1063" y="7"/><ellipse cx="1116.75" cy="23" fill="#ADD1B2" rx="11" ry="11" style="stroke:#A80036;stroke-width:1.0;"/><path d="M1118.75,19.5 Q1118.9531,19 1119.1875,18.75 Q1119.4219,18.5 1119.6875,18.5 Q1120.1563,18.5 1120.4531,18.7813 Q1120.75,19.0625 1120.75,19.7188 L1120.75,21.2813 Q1120.75,21.9375 1120.4688,22.2188 Q1120.1875,22.5 1119.75,22.5 Q1119.3594,22.5 1119.1094,22.3281 Q1118.8594,22.1563 1118.75,21.7031 Q1118.7031,21.3906 1118.5313,21.2188 Q1118.2188,20.8906 1117.6563,20.7031 Q1117.0938,20.5 1116.5313,20.5 Q1115.8281,20.5 1115.2344,20.7813 Q1114.6563,21.0625 1114.2031,21.6875 Q1113.75,22.3125 1113.75,23.1719 L1113.75,24.0938 Q1113.75,25.125 1114.5938,25.8125 Q1115.4375,26.5 1116.9375,26.5 Q1117.8281,26.5 1118.4531,26.2969 Q1118.8125,26.1875 1119.2188,25.8281 Q1119.4844,25.625 1119.625,25.5625 Q1119.7656,25.5 1119.9375,25.5 Q1120.2656,25.5 1120.5,25.7656 Q1120.75,26.0156 1120.75,26.375 Q1120.75,26.7188 1120.4063,27.125 Q1119.9063,27.7188 1119.1094,28.0469 Q1118.0625,28.5 1116.7813,28.5 Q1115.2813,28.5 1114.0781,27.9063 Q1113.1094,27.4375 1112.4219,26.4219 Q1111.75,25.4063 1111.75,24.2031 L1111.75,23.1094 Q1111.75,21.8594 1112.3438,20.7656 Q1112.9531,19.6719 1114,19.0938 Q1115.0625,18.5 1116.25,18.5 Q1116.9688,18.5 1117.5938,18.75 Q1118.2188,19 1118.75,19.5 Z " fill="#000000"/><text fill="#000000" font-family="sans-serif" font-size="12" lengthAdjust="spacing" textLength="198" x="1137.25" y="27.9102">CreateParameterCategoryController</text><line style="stroke:#A80036;stroke-width:1.5;" x1="1064" x2="1376" y1="39" y2="39"/><line style="stroke:#A80036;stroke-width:1.5;" x1="1064" x2="1376" y1="47" y2="47"/><text fill="#000000" font-family="sans-serif" font-size="11" lengthAdjust="spacing" textLength="302" x="1069" y="62.4189">+List &lt;ParameterCategoryDto&gt; getAllParameterCategoriesDto()</text><text fill="#000000" font-family="sans-serif" font-size="11" lengthAdjust="spacing" textLength="280" x="1069" y="76.2549">+ParameterCategory getParameterCategoryByCode(code)</text><!--MD5=[f76673142371ead9f091198193c4bd63]
class TT--><rect codeLine="54" fill="#FEFECE" filter="url(#f53uwip7tvvvm)" height="144.8516" id="TT" style="stroke:#A80036;stroke-width:1.5;" width="364" x="1038" y="118.5"/><ellipse cx="1190.75" cy="134.5" fill="#ADD1B2" rx="11" ry="11" style="stroke:#A80036;stroke-width:1.0;"/><path d="M1192.75,131 Q1192.9531,130.5 1193.1875,130.25 Q1193.4219,130 1193.6875,130 Q1194.1563,130 1194.4531,130.2813 Q1194.75,130.5625 1194.75,131.2188 L1194.75,132.7813 Q1194.75,133.4375 1194.4688,133.7188 Q1194.1875,134 1193.75,134 Q1193.3594,134 1193.1094,133.8281 Q1192.8594,133.6563 1192.75,133.2031 Q1192.7031,132.8906 1192.5313,132.7188 Q1192.2188,132.3906 1191.6563,132.2031 Q1191.0938,132 1190.5313,132 Q1189.8281,132 1189.2344,132.2813 Q1188.6563,132.5625 1188.2031,133.1875 Q1187.75,133.8125 1187.75,134.6719 L1187.75,135.5938 Q1187.75,136.625 1188.5938,137.3125 Q1189.4375,138 1190.9375,138 Q1191.8281,138 1192.4531,137.7969 Q1192.8125,137.6875 1193.2188,137.3281 Q1193.4844,137.125 1193.625,137.0625 Q1193.7656,137 1193.9375,137 Q1194.2656,137 1194.5,137.2656 Q1194.75,137.5156 1194.75,137.875 Q1194.75,138.2188 1194.4063,138.625 Q1193.9063,139.2188 1193.1094,139.5469 Q1192.0625,140 1190.7813,140 Q1189.2813,140 1188.0781,139.4063 Q1187.1094,138.9375 1186.4219,137.9219 Q1185.75,136.9063 1185.75,135.7031 L1185.75,134.6094 Q1185.75,133.3594 1186.3438,132.2656 Q1186.9531,131.1719 1188,130.5938 Q1189.0625,130 1190.25,130 Q1190.9688,130 1191.5938,130.25 Q1192.2188,130.5 1192.75,131 Z " fill="#000000"/><text fill="#000000" font-family="sans-serif" font-size="12" lengthAdjust="spacing" textLength="50" x="1211.25" y="139.4102">TestType</text><line style="stroke:#A80036;stroke-width:1.5;" x1="1039" x2="1401" y1="150.5" y2="150.5"/><text fill="#000000" font-family="sans-serif" font-size="11" lengthAdjust="spacing" textLength="59" x="1044" y="165.9189">-String code</text><text fill="#000000" font-family="sans-serif" font-size="11" lengthAdjust="spacing" textLength="88" x="1044" y="179.7549">-String description</text><text fill="#000000" font-family="sans-serif" font-size="11" lengthAdjust="spacing" textLength="115" x="1044" y="193.5908">-String collectingMethod</text><text fill="#000000" font-family="sans-serif" font-size="11" lengthAdjust="spacing" textLength="193" x="1044" y="207.4268">-ParameterCategory parameterCategory</text><text fill="#000000" font-family="sans-serif" font-size="11" lengthAdjust="spacing" textLength="250" x="1044" y="221.2627">-List &lt;ParameterCategory&gt; parameterCategoriesList</text><line style="stroke:#A80036;stroke-width:1.5;" x1="1039" x2="1401" y1="227.6797" y2="227.6797"/><text fill="#000000" font-family="sans-serif" font-size="11" lengthAdjust="spacing" textLength="327" x="1044" y="243.0986">+TestType(code, description, collectingMethod, parameterCategory)</text><text fill="#000000" font-family="sans-serif" font-size="11" lengthAdjust="spacing" textLength="352" x="1044" y="256.9346">+TestType(code, description, collectingMethod, parameterCategoriesList)</text><!--MD5=[0db42b3591f13a48474e506cf6fbc101]
class CTTC--><rect codeLine="55" fill="#FEFECE" filter="url(#f53uwip7tvvvm)" height="131.0156" id="CTTC" style="stroke:#A80036;stroke-width:1.5;" width="436" x="202.5" y="264.5"/><ellipse cx="345.75" cy="280.5" fill="#ADD1B2" rx="11" ry="11" style="stroke:#A80036;stroke-width:1.0;"/><path d="M347.75,277 Q347.9531,276.5 348.1875,276.25 Q348.4219,276 348.6875,276 Q349.1563,276 349.4531,276.2813 Q349.75,276.5625 349.75,277.2188 L349.75,278.7813 Q349.75,279.4375 349.4688,279.7188 Q349.1875,280 348.75,280 Q348.3594,280 348.1094,279.8281 Q347.8594,279.6563 347.75,279.2031 Q347.7031,278.8906 347.5313,278.7188 Q347.2188,278.3906 346.6563,278.2031 Q346.0938,278 345.5313,278 Q344.8281,278 344.2344,278.2813 Q343.6563,278.5625 343.2031,279.1875 Q342.75,279.8125 342.75,280.6719 L342.75,281.5938 Q342.75,282.625 343.5938,283.3125 Q344.4375,284 345.9375,284 Q346.8281,284 347.4531,283.7969 Q347.8125,283.6875 348.2188,283.3281 Q348.4844,283.125 348.625,283.0625 Q348.7656,283 348.9375,283 Q349.2656,283 349.5,283.2656 Q349.75,283.5156 349.75,283.875 Q349.75,284.2188 349.4063,284.625 Q348.9063,285.2188 348.1094,285.5469 Q347.0625,286 345.7813,286 Q344.2813,286 343.0781,285.4063 Q342.1094,284.9375 341.4219,283.9219 Q340.75,282.9063 340.75,281.7031 L340.75,280.6094 Q340.75,279.3594 341.3438,278.2656 Q341.9531,277.1719 343,276.5938 Q344.0625,276 345.25,276 Q345.9688,276 346.5938,276.25 Q347.2188,276.5 347.75,277 Z " fill="#000000"/><text fill="#000000" font-family="sans-serif" font-size="12" lengthAdjust="spacing" textLength="141" x="366.25" y="285.4102">CreateTestTypeController</text><line style="stroke:#A80036;stroke-width:1.5;" x1="203.5" x2="637.5" y1="296.5" y2="296.5"/><line style="stroke:#A80036;stroke-width:1.5;" x1="203.5" x2="637.5" y1="304.5" y2="304.5"/><text fill="#000000" font-family="sans-serif" font-size="11" lengthAdjust="spacing" textLength="137" x="208.5" y="319.9189">+CreateTestTypeController()</text><text fill="#000000" font-family="sans-serif" font-size="11" lengthAdjust="spacing" textLength="201" x="208.5" y="333.7549">+List&lt;TestTypeDto&gt; getAllTestTypesDto()</text><text fill="#000000" font-family="sans-serif" font-size="11" lengthAdjust="spacing" textLength="399" x="208.5" y="347.5908">+boolean createTestType(code, description, collectingMethod, parameterCategory)</text><text fill="#000000" font-family="sans-serif" font-size="11" lengthAdjust="spacing" textLength="424" x="208.5" y="361.4268">+boolean createTestType(code, description, collectingMethod, parameterCategoriesList)</text><text fill="#000000" font-family="sans-serif" font-size="11" lengthAdjust="spacing" textLength="124" x="208.5" y="375.2627">+boolean saveTestType()</text><text fill="#000000" font-family="sans-serif" font-size="11" lengthAdjust="spacing" textLength="169" x="208.5" y="389.0986">+List&lt;TestType&gt; getAllTestTypes()</text><!--MD5=[218f71f443b9e0720bb96dd9df1d4749]
class PC--><rect codeLine="47" fill="#FEFECE" filter="url(#f53uwip7tvvvm)" height="89.5078" id="PC" style="stroke:#A80036;stroke-width:1.5;" width="175" x="1540" y="243"/><ellipse cx="1571.2" cy="259" fill="#ADD1B2" rx="11" ry="11" style="stroke:#A80036;stroke-width:1.0;"/><path d="M1573.2,255.5 Q1573.4031,255 1573.6375,254.75 Q1573.8719,254.5 1574.1375,254.5 Q1574.6063,254.5 1574.9031,254.7813 Q1575.2,255.0625 1575.2,255.7188 L1575.2,257.2813 Q1575.2,257.9375 1574.9188,258.2188 Q1574.6375,258.5 1574.2,258.5 Q1573.8094,258.5 1573.5594,258.3281 Q1573.3094,258.1563 1573.2,257.7031 Q1573.1531,257.3906 1572.9813,257.2188 Q1572.6688,256.8906 1572.1063,256.7031 Q1571.5438,256.5 1570.9813,256.5 Q1570.2781,256.5 1569.6844,256.7813 Q1569.1063,257.0625 1568.6531,257.6875 Q1568.2,258.3125 1568.2,259.1719 L1568.2,260.0938 Q1568.2,261.125 1569.0438,261.8125 Q1569.8875,262.5 1571.3875,262.5 Q1572.2781,262.5 1572.9031,262.2969 Q1573.2625,262.1875 1573.6688,261.8281 Q1573.9344,261.625 1574.075,261.5625 Q1574.2156,261.5 1574.3875,261.5 Q1574.7156,261.5 1574.95,261.7656 Q1575.2,262.0156 1575.2,262.375 Q1575.2,262.7188 1574.8563,263.125 Q1574.3563,263.7188 1573.5594,264.0469 Q1572.5125,264.5 1571.2313,264.5 Q1569.7313,264.5 1568.5281,263.9063 Q1567.5594,263.4375 1566.8719,262.4219 Q1566.2,261.4063 1566.2,260.2031 L1566.2,259.1094 Q1566.2,257.8594 1566.7938,256.7656 Q1567.4031,255.6719 1568.45,255.0938 Q1569.5125,254.5 1570.7,254.5 Q1571.4188,254.5 1572.0438,254.75 Q1572.6688,255 1573.2,255.5 Z " fill="#000000"/><text fill="#000000" font-family="sans-serif" font-size="12" lengthAdjust="spacing" textLength="107" x="1588.8" y="263.9102">ParameterCategory</text><line style="stroke:#A80036;stroke-width:1.5;" x1="1541" x2="1714" y1="275" y2="275"/><text fill="#000000" font-family="sans-serif" font-size="11" lengthAdjust="spacing" textLength="61" x="1546" y="290.4189">-String name</text><text fill="#000000" font-family="sans-serif" font-size="11" lengthAdjust="spacing" textLength="59" x="1546" y="304.2549">-String code</text><line style="stroke:#A80036;stroke-width:1.5;" x1="1541" x2="1714" y1="310.6719" y2="310.6719"/><text fill="#000000" font-family="sans-serif" font-size="11" lengthAdjust="spacing" textLength="163" x="1546" y="326.0908">+ParameterCategory(name, code)</text><!--MD5=[6461a74477876ab4a04549c978c1a07a]
class CTTUI--><rect codeLine="53" fill="#FEFECE" filter="url(#f53uwip7tvvvm)" height="48" id="CTTUI" style="stroke:#A80036;stroke-width:1.5;" width="131" x="7" y="306"/><ellipse cx="22" cy="322" fill="#ADD1B2" rx="11" ry="11" style="stroke:#A80036;stroke-width:1.0;"/><path d="M24,318.5 Q24.2031,318 24.4375,317.75 Q24.6719,317.5 24.9375,317.5 Q25.4063,317.5 25.7031,317.7813 Q26,318.0625 26,318.7188 L26,320.2813 Q26,320.9375 25.7188,321.2188 Q25.4375,321.5 25,321.5 Q24.6094,321.5 24.3594,321.3281 Q24.1094,321.1563 24,320.7031 Q23.9531,320.3906 23.7813,320.2188 Q23.4688,319.8906 22.9063,319.7031 Q22.3438,319.5 21.7813,319.5 Q21.0781,319.5 20.4844,319.7813 Q19.9063,320.0625 19.4531,320.6875 Q19,321.3125 19,322.1719 L19,323.0938 Q19,324.125 19.8438,324.8125 Q20.6875,325.5 22.1875,325.5 Q23.0781,325.5 23.7031,325.2969 Q24.0625,325.1875 24.4688,324.8281 Q24.7344,324.625 24.875,324.5625 Q25.0156,324.5 25.1875,324.5 Q25.5156,324.5 25.75,324.7656 Q26,325.0156 26,325.375 Q26,325.7188 25.6563,326.125 Q25.1563,326.7188 24.3594,327.0469 Q23.3125,327.5 22.0313,327.5 Q20.5313,327.5 19.3281,326.9063 Q18.3594,326.4375 17.6719,325.4219 Q17,324.4063 17,323.2031 L17,322.1094 Q17,320.8594 17.5938,319.7656 Q18.2031,318.6719 19.25,318.0938 Q20.3125,317.5 21.5,317.5 Q22.2188,317.5 22.8438,317.75 Q23.4688,318 24,318.5 Z " fill="#000000"/><text fill="#000000" font-family="sans-serif" font-size="12" lengthAdjust="spacing" textLength="99" x="36" y="326.9102">CreateTestTypeUI</text><line style="stroke:#A80036;stroke-width:1.5;" x1="8" x2="137" y1="338" y2="338"/><line style="stroke:#A80036;stroke-width:1.5;" x1="8" x2="137" y1="346" y2="346"/><!--MD5=[320690cba070b8468face0bfd1ce9533]
link CTTUI to CTTC--><path codeLine="57" d="M138.17,330 C155.83,330 176,330 197.26,330 " fill="none" id="CTTUI-to-CTTC" style="stroke:#A80036;stroke-width:1.0;stroke-dasharray:7.0,7.0;"/><polygon fill="#A80036" points="202.39,330,193.39,326,197.39,330,193.39,334,202.39,330" style="stroke:#A80036;stroke-width:1.0;"/><!--MD5=[e1c0f205e01471a87324e4cc03d03bbe]
link C to PCS--><path codeLine="59" d="M893.54,157.31 C936.03,139.68 989.52,118.23 1038,101 C1053.45,95.51 1069.74,90.04 1085.97,84.78 " fill="none" id="C-to-PCS" style="stroke:#A80036;stroke-width:1.0;stroke-dasharray:7.0,7.0;"/><polygon fill="#A80036" points="1091,83.15,1081.205,82.1217,1086.2439,84.6925,1083.673,89.7314,1091,83.15" style="stroke:#A80036;stroke-width:1.0;"/><!--MD5=[694303a06a79f7ae0713de28a4008c97]
link TTS to C--><path codeLine="61" d="M642.14,179.24 C672.67,181.34 702.37,183.39 728.19,185.18 " fill="none" id="TTS-to-C" style="stroke:#A80036;stroke-width:1.0;stroke-dasharray:7.0,7.0;"/><polygon fill="#A80036" points="733.3,185.53,724.5956,180.922,728.3118,185.187,724.0468,188.9031,733.3,185.53" style="stroke:#A80036;stroke-width:1.0;"/><!--MD5=[cf05f59dfce81a96099c5f95714bd5af]
link CTTC to C--><path codeLine="64" d="M605.84,264.47 C648.83,249.18 692.55,233.64 728.63,220.82 " fill="none" id="CTTC-to-C" style="stroke:#A80036;stroke-width:1.0;stroke-dasharray:7.0,7.0;"/><polygon fill="#A80036" points="733.44,219.1,723.6207,218.3374,728.7274,220.7708,726.294,225.8775,733.44,219.1" style="stroke:#A80036;stroke-width:1.0;"/><!--MD5=[e78a6acdd318a27b442e8ff64f8c9353]
link CTTC to ttM--><path codeLine="65" d="M638.72,330 C658.97,330 678.9,330 697.63,330 " fill="none" id="CTTC-to-ttM" style="stroke:#A80036;stroke-width:1.0;stroke-dasharray:7.0,7.0;"/><polygon fill="#A80036" points="702.88,330,693.88,326,697.88,330,693.88,334,702.88,330" style="stroke:#A80036;stroke-width:1.0;"/><!--MD5=[93286ab8d15dacf230424bab250ab910]
link TT to PC--><path codeLine="67" d="M1402.11,234.32 C1450.01,245.78 1499.55,257.63 1539.85,267.27 " fill="none" id="TT-PC" style="stroke:#A80036;stroke-width:1.0;"/><polygon fill="#000000" points="1441.8628,235.3391,1433.7497,230.3764,1432.3822,236.093,1441.8628,235.3391" style="stroke:#000000;stroke-width:1.0;"/><text fill="#000000" font-family="sans-serif" font-size="13" lengthAdjust="spacing" textLength="63" x="1446" y="239.4951">analyzes a</text><text fill="#000000" font-family="sans-serif" font-size="13" lengthAdjust="spacing" textLength="5" x="1409.8982" y="249.9907">*</text><text fill="#000000" font-family="sans-serif" font-size="13" lengthAdjust="spacing" textLength="7" x="1525.0168" y="279.7074">1</text><!--MD5=[b83cceec495819d0b37daa935a10185d]
link C to TT--><path codeLine="69" d="M893.93,191 C935.12,191 987.24,191 1037.61,191 " fill="none" id="C-TT" style="stroke:#A80036;stroke-width:1.0;"/><polygon fill="#000000" points="964,182.1758,954.9549,179.2369,954.9549,185.1147,964,182.1758" style="stroke:#000000;stroke-width:1.0;"/><text fill="#000000" font-family="sans-serif" font-size="13" lengthAdjust="spacing" textLength="39" x="968" y="187.4951">adopts</text><text fill="#000000" font-family="sans-serif" font-size="13" lengthAdjust="spacing" textLength="7" x="901.405" y="205.2452">1</text><text fill="#000000" font-family="sans-serif" font-size="13" lengthAdjust="spacing" textLength="5" x="1024.81" y="204.8432">*</text><!--MD5=[71b3fc4d6ca120e51ce9c04aa77747d8]
link C to PC--><path codeLine="70" d="M886.42,236.05 C928.79,259.9 984.44,286.74 1038,299 C1212.57,338.97 1423.92,319.06 1539.89,302.52 " fill="none" id="C-PC" style="stroke:#A80036;stroke-width:1.0;"/><polygon fill="#000000" points="1202.9743,290.6818,1194.2731,286.8426,1193.6783,292.6903,1202.9743,290.6818" style="stroke:#000000;stroke-width:1.0;"/><text fill="#000000" font-family="sans-serif" font-size="13" lengthAdjust="spacing" textLength="39" x="1207" y="295.4951">adopts</text><text fill="#000000" font-family="sans-serif" font-size="13" lengthAdjust="spacing" textLength="7" x="889.1822" y="257.0646">1</text><text fill="#000000" font-family="sans-serif" font-size="13" lengthAdjust="spacing" textLength="5" x="1526.8646" y="318.0584">*</text><!--MD5=[9cdb3e25e96b7eb17c0186a9697d91e3]
@startuml
skinparam classAttributeIconSize 0
left to right direction

class "Company" as C {
-String designation
+getTestTypeStore()
+getParameterCategoryStore()
}

class "TestTypeMapper" as ttM{
+List <TestTypeDto> toDto(List<TestType>)
}

class "TestTypeStore" as TTS{
+TestType createTestType(code, description, collectingMethod, parameterCategory)
+TestType createTestType(code, description, collectingMethod, parameterCategoriesList)
+boolean saveTestType(tt)
+boolean validateTestType(tt)
+boolean addTestType(tt)
+List <TestType> getAllTestTypes()
}

class "CreateParameterCategoryController" as PCS{
+List <ParameterCategoryDto> getAllParameterCategoriesDto()
+ParameterCategory getParameterCategoryByCode(code)
}

class "TestType" as TT {
-String code
-String description
-String collectingMethod
-ParameterCategory parameterCategory
-List <ParameterCategory> parameterCategoriesList
+TestType(code, description, collectingMethod, parameterCategory)
+TestType(code, description, collectingMethod, parameterCategoriesList)
}

class "CreateTestTypeController" as CTTC {
+CreateTestTypeController()
+List<TestTypeDto> getAllTestTypesDto()
+boolean createTestType(code, description, collectingMethod, parameterCategory)
+boolean createTestType(code, description, collectingMethod, parameterCategoriesList)
+boolean saveTestType()
+List<TestType> getAllTestTypes()
}

class "ParameterCategory" as PC{
-String name
-String code
+ParameterCategory(name, code)
}

class "CreateTestTypeUI" as CTTUI
class "TestType" as TT
class "CreateTestTypeController" as CTTC

CTTUI ..> CTTC

C ..> PCS

TTS ..> C


CTTC ..> C
CTTC ..> ttM

TT "*" - - "1" PC : > analyzes a

C "1" - - "*" TT : > adopts
C "1" - - "*" PC : > adopts

@enduml

PlantUML version 1.2021.5(Sun Apr 25 12:20:28 BST 2021)
(GPL source distribution)
Java Runtime: OpenJDK Runtime Environment
JVM: OpenJDK 64-Bit Server VM
Default Encoding: Cp1252
Language: pt
Country: PT
--></g></svg>