<?xml version="1.0" encoding="UTF-8" standalone="no"?><svg xmlns="http://www.w3.org/2000/svg" xmlns:xlink="http://www.w3.org/1999/xlink" contentScriptType="application/ecmascript" contentStyleType="text/css" height="462px" preserveAspectRatio="none" style="width:1629px;height:462px;" version="1.1" viewBox="0 0 1629 462" width="1629px" zoomAndPan="magnify"><defs><filter height="300%" id="feya90eh6y6zg" width="300%" x="-1" y="-1"><feGaussianBlur result="blurOut" stdDeviation="2.0"/><feColorMatrix in="blurOut" result="blurOut2" type="matrix" values="0 0 0 0 0 0 0 0 0 0 0 0 0 0 0 0 0 0 .4 0"/><feOffset dx="4.0" dy="4.0" in="blurOut2" result="blurOut3"/><feBlend in="SourceGraphic" in2="blurOut3" mode="normal"/></filter></defs><g><!--MD5=[378b18254a1b2429f435e93f5e5cc50c]
class C--><rect codeLine="4" fill="#FEFECE" filter="url(#feya90eh6y6zg)" height="89.5078" id="C" style="stroke:#A80036;stroke-width:1.5;" width="160" x="637" y="77"/><ellipse cx="686.25" cy="93" fill="#ADD1B2" rx="11" ry="11" style="stroke:#A80036;stroke-width:1.0;"/><path d="M688.25,89.5 Q688.4531,89 688.6875,88.75 Q688.9219,88.5 689.1875,88.5 Q689.6563,88.5 689.9531,88.7813 Q690.25,89.0625 690.25,89.7188 L690.25,91.2813 Q690.25,91.9375 689.9688,92.2188 Q689.6875,92.5 689.25,92.5 Q688.8594,92.5 688.6094,92.3281 Q688.3594,92.1563 688.25,91.7031 Q688.2031,91.3906 688.0313,91.2188 Q687.7188,90.8906 687.1563,90.7031 Q686.5938,90.5 686.0313,90.5 Q685.3281,90.5 684.7344,90.7813 Q684.1563,91.0625 683.7031,91.6875 Q683.25,92.3125 683.25,93.1719 L683.25,94.0938 Q683.25,95.125 684.0938,95.8125 Q684.9375,96.5 686.4375,96.5 Q687.3281,96.5 687.9531,96.2969 Q688.3125,96.1875 688.7188,95.8281 Q688.9844,95.625 689.125,95.5625 Q689.2656,95.5 689.4375,95.5 Q689.7656,95.5 690,95.7656 Q690.25,96.0156 690.25,96.375 Q690.25,96.7188 689.9063,97.125 Q689.4063,97.7188 688.6094,98.0469 Q687.5625,98.5 686.2813,98.5 Q684.7813,98.5 683.5781,97.9063 Q682.6094,97.4375 681.9219,96.4219 Q681.25,95.4063 681.25,94.2031 L681.25,93.1094 Q681.25,91.8594 681.8438,90.7656 Q682.4531,89.6719 683.5,89.0938 Q684.5625,88.5 685.75,88.5 Q686.4688,88.5 687.0938,88.75 Q687.7188,89 688.25,89.5 Z " fill="#000000"/><text fill="#000000" font-family="sans-serif" font-size="12" lengthAdjust="spacing" textLength="53" x="706.75" y="97.9102">Company</text><line style="stroke:#A80036;stroke-width:1.5;" x1="638" x2="796" y1="109" y2="109"/><text fill="#000000" font-family="sans-serif" font-size="11" lengthAdjust="spacing" textLength="90" x="643" y="124.4189">-String designation</text><line style="stroke:#A80036;stroke-width:1.5;" x1="638" x2="796" y1="130.8359" y2="130.8359"/><text fill="#000000" font-family="sans-serif" font-size="11" lengthAdjust="spacing" textLength="100" x="643" y="146.2549">+getTestTypeStore()</text><text fill="#000000" font-family="sans-serif" font-size="11" lengthAdjust="spacing" textLength="148" x="643" y="160.0908">+getParameterCategoryStore()</text><!--MD5=[606124dbd33b65145bd2d31e230d6615]
class cNM--><rect codeLine="10" fill="#FEFECE" filter="url(#feya90eh6y6zg)" height="61.8359" id="cNM" style="stroke:#A80036;stroke-width:1.5;" width="276" x="579" y="387"/><ellipse cx="646.25" cy="403" fill="#ADD1B2" rx="11" ry="11" style="stroke:#A80036;stroke-width:1.0;"/><path d="M648.25,399.5 Q648.4531,399 648.6875,398.75 Q648.9219,398.5 649.1875,398.5 Q649.6563,398.5 649.9531,398.7813 Q650.25,399.0625 650.25,399.7188 L650.25,401.2813 Q650.25,401.9375 649.9688,402.2188 Q649.6875,402.5 649.25,402.5 Q648.8594,402.5 648.6094,402.3281 Q648.3594,402.1563 648.25,401.7031 Q648.2031,401.3906 648.0313,401.2188 Q647.7188,400.8906 647.1563,400.7031 Q646.5938,400.5 646.0313,400.5 Q645.3281,400.5 644.7344,400.7813 Q644.1563,401.0625 643.7031,401.6875 Q643.25,402.3125 643.25,403.1719 L643.25,404.0938 Q643.25,405.125 644.0938,405.8125 Q644.9375,406.5 646.4375,406.5 Q647.3281,406.5 647.9531,406.2969 Q648.3125,406.1875 648.7188,405.8281 Q648.9844,405.625 649.125,405.5625 Q649.2656,405.5 649.4375,405.5 Q649.7656,405.5 650,405.7656 Q650.25,406.0156 650.25,406.375 Q650.25,406.7188 649.9063,407.125 Q649.4063,407.7188 648.6094,408.0469 Q647.5625,408.5 646.2813,408.5 Q644.7813,408.5 643.5781,407.9063 Q642.6094,407.4375 641.9219,406.4219 Q641.25,405.4063 641.25,404.2031 L641.25,403.1094 Q641.25,401.8594 641.8438,400.7656 Q642.4531,399.6719 643.5,399.0938 Q644.5625,398.5 645.75,398.5 Q646.4688,398.5 647.0938,398.75 Q647.7188,399 648.25,399.5 Z " fill="#000000"/><text fill="#000000" font-family="sans-serif" font-size="12" lengthAdjust="spacing" textLength="133" x="666.75" y="407.9102">categoriesNameMapper</text><line style="stroke:#A80036;stroke-width:1.5;" x1="580" x2="854" y1="419" y2="419"/><line style="stroke:#A80036;stroke-width:1.5;" x1="580" x2="854" y1="427" y2="427"/><text fill="#000000" font-family="sans-serif" font-size="11" lengthAdjust="spacing" textLength="264" x="585" y="442.4189">+List &lt;ParameterCategory&gt; toDTO(listCategoriesName)</text><!--MD5=[0c21d7a5a5555e4278001068caacbd33]
class TTS--><rect codeLine="14" fill="#FEFECE" filter="url(#feya90eh6y6zg)" height="103.3438" id="TTS" style="stroke:#A80036;stroke-width:1.5;" width="274" x="221.5" y="69.5"/><ellipse cx="314.75" cy="85.5" fill="#ADD1B2" rx="11" ry="11" style="stroke:#A80036;stroke-width:1.0;"/><path d="M316.75,82 Q316.9531,81.5 317.1875,81.25 Q317.4219,81 317.6875,81 Q318.1563,81 318.4531,81.2813 Q318.75,81.5625 318.75,82.2188 L318.75,83.7813 Q318.75,84.4375 318.4688,84.7188 Q318.1875,85 317.75,85 Q317.3594,85 317.1094,84.8281 Q316.8594,84.6563 316.75,84.2031 Q316.7031,83.8906 316.5313,83.7188 Q316.2188,83.3906 315.6563,83.2031 Q315.0938,83 314.5313,83 Q313.8281,83 313.2344,83.2813 Q312.6563,83.5625 312.2031,84.1875 Q311.75,84.8125 311.75,85.6719 L311.75,86.5938 Q311.75,87.625 312.5938,88.3125 Q313.4375,89 314.9375,89 Q315.8281,89 316.4531,88.7969 Q316.8125,88.6875 317.2188,88.3281 Q317.4844,88.125 317.625,88.0625 Q317.7656,88 317.9375,88 Q318.2656,88 318.5,88.2656 Q318.75,88.5156 318.75,88.875 Q318.75,89.2188 318.4063,89.625 Q317.9063,90.2188 317.1094,90.5469 Q316.0625,91 314.7813,91 Q313.2813,91 312.0781,90.4063 Q311.1094,89.9375 310.4219,88.9219 Q309.75,87.9063 309.75,86.7031 L309.75,85.6094 Q309.75,84.3594 310.3438,83.2656 Q310.9531,82.1719 312,81.5938 Q313.0625,81 314.25,81 Q314.9688,81 315.5938,81.25 Q316.2188,81.5 316.75,82 Z " fill="#000000"/><text fill="#000000" font-family="sans-serif" font-size="12" lengthAdjust="spacing" textLength="79" x="335.25" y="90.4102">TestTypeStore</text><line style="stroke:#A80036;stroke-width:1.5;" x1="222.5" x2="494.5" y1="101.5" y2="101.5"/><line style="stroke:#A80036;stroke-width:1.5;" x1="222.5" x2="494.5" y1="109.5" y2="109.5"/><text fill="#000000" font-family="sans-serif" font-size="11" lengthAdjust="spacing" textLength="262" x="227.5" y="124.9189">+TestType create(code, description, collectingMethod)</text><text fill="#000000" font-family="sans-serif" font-size="11" lengthAdjust="spacing" textLength="98" x="227.5" y="138.7549">+boolean validate(tt)</text><text fill="#000000" font-family="sans-serif" font-size="11" lengthAdjust="spacing" textLength="79" x="227.5" y="152.5908">+boolean add(tt)</text><text fill="#000000" font-family="sans-serif" font-size="11" lengthAdjust="spacing" textLength="172" x="227.5" y="166.4268">+List &lt;TestType&gt; getAllTestTypes()</text><!--MD5=[2628f93c2b91159b8b11117185f029f9]
class PCS--><rect codeLine="21" fill="#FEFECE" filter="url(#feya90eh6y6zg)" height="61.8359" id="PCS" style="stroke:#A80036;stroke-width:1.5;" width="282" x="1023.5" y="7"/><ellipse cx="1092.25" cy="23" fill="#ADD1B2" rx="11" ry="11" style="stroke:#A80036;stroke-width:1.0;"/><path d="M1094.25,19.5 Q1094.4531,19 1094.6875,18.75 Q1094.9219,18.5 1095.1875,18.5 Q1095.6563,18.5 1095.9531,18.7813 Q1096.25,19.0625 1096.25,19.7188 L1096.25,21.2813 Q1096.25,21.9375 1095.9688,22.2188 Q1095.6875,22.5 1095.25,22.5 Q1094.8594,22.5 1094.6094,22.3281 Q1094.3594,22.1563 1094.25,21.7031 Q1094.2031,21.3906 1094.0313,21.2188 Q1093.7188,20.8906 1093.1563,20.7031 Q1092.5938,20.5 1092.0313,20.5 Q1091.3281,20.5 1090.7344,20.7813 Q1090.1563,21.0625 1089.7031,21.6875 Q1089.25,22.3125 1089.25,23.1719 L1089.25,24.0938 Q1089.25,25.125 1090.0938,25.8125 Q1090.9375,26.5 1092.4375,26.5 Q1093.3281,26.5 1093.9531,26.2969 Q1094.3125,26.1875 1094.7188,25.8281 Q1094.9844,25.625 1095.125,25.5625 Q1095.2656,25.5 1095.4375,25.5 Q1095.7656,25.5 1096,25.7656 Q1096.25,26.0156 1096.25,26.375 Q1096.25,26.7188 1095.9063,27.125 Q1095.4063,27.7188 1094.6094,28.0469 Q1093.5625,28.5 1092.2813,28.5 Q1090.7813,28.5 1089.5781,27.9063 Q1088.6094,27.4375 1087.9219,26.4219 Q1087.25,25.4063 1087.25,24.2031 L1087.25,23.1094 Q1087.25,21.8594 1087.8438,20.7656 Q1088.4531,19.6719 1089.5,19.0938 Q1090.5625,18.5 1091.75,18.5 Q1092.4688,18.5 1093.0938,18.75 Q1093.7188,19 1094.25,19.5 Z " fill="#000000"/><text fill="#000000" font-family="sans-serif" font-size="12" lengthAdjust="spacing" textLength="136" x="1112.75" y="27.9102">ParameterCategoryStore</text><line style="stroke:#A80036;stroke-width:1.5;" x1="1024.5" x2="1304.5" y1="39" y2="39"/><line style="stroke:#A80036;stroke-width:1.5;" x1="1024.5" x2="1304.5" y1="47" y2="47"/><text fill="#000000" font-family="sans-serif" font-size="11" lengthAdjust="spacing" textLength="270" x="1029.5" y="62.4189">+List &lt;ParameterCategory&gt; getAllParameterCategories()</text><!--MD5=[f76673142371ead9f091198193c4bd63]
class TT--><rect codeLine="52" fill="#FEFECE" filter="url(#feya90eh6y6zg)" height="117.1797" id="TT" style="stroke:#A80036;stroke-width:1.5;" width="347" x="991" y="192.5"/><ellipse cx="1135.25" cy="208.5" fill="#ADD1B2" rx="11" ry="11" style="stroke:#A80036;stroke-width:1.0;"/><path d="M1137.25,205 Q1137.4531,204.5 1137.6875,204.25 Q1137.9219,204 1138.1875,204 Q1138.6563,204 1138.9531,204.2813 Q1139.25,204.5625 1139.25,205.2188 L1139.25,206.7813 Q1139.25,207.4375 1138.9688,207.7188 Q1138.6875,208 1138.25,208 Q1137.8594,208 1137.6094,207.8281 Q1137.3594,207.6563 1137.25,207.2031 Q1137.2031,206.8906 1137.0313,206.7188 Q1136.7188,206.3906 1136.1563,206.2031 Q1135.5938,206 1135.0313,206 Q1134.3281,206 1133.7344,206.2813 Q1133.1563,206.5625 1132.7031,207.1875 Q1132.25,207.8125 1132.25,208.6719 L1132.25,209.5938 Q1132.25,210.625 1133.0938,211.3125 Q1133.9375,212 1135.4375,212 Q1136.3281,212 1136.9531,211.7969 Q1137.3125,211.6875 1137.7188,211.3281 Q1137.9844,211.125 1138.125,211.0625 Q1138.2656,211 1138.4375,211 Q1138.7656,211 1139,211.2656 Q1139.25,211.5156 1139.25,211.875 Q1139.25,212.2188 1138.9063,212.625 Q1138.4063,213.2188 1137.6094,213.5469 Q1136.5625,214 1135.2813,214 Q1133.7813,214 1132.5781,213.4063 Q1131.6094,212.9375 1130.9219,211.9219 Q1130.25,210.9063 1130.25,209.7031 L1130.25,208.6094 Q1130.25,207.3594 1130.8438,206.2656 Q1131.4531,205.1719 1132.5,204.5938 Q1133.5625,204 1134.75,204 Q1135.4688,204 1136.0938,204.25 Q1136.7188,204.5 1137.25,205 Z " fill="#000000"/><text fill="#000000" font-family="sans-serif" font-size="12" lengthAdjust="spacing" textLength="50" x="1155.75" y="213.4102">TestType</text><line style="stroke:#A80036;stroke-width:1.5;" x1="992" x2="1337" y1="224.5" y2="224.5"/><text fill="#000000" font-family="sans-serif" font-size="11" lengthAdjust="spacing" textLength="59" x="997" y="239.9189">-String code</text><text fill="#000000" font-family="sans-serif" font-size="11" lengthAdjust="spacing" textLength="88" x="997" y="253.7549">-String description</text><text fill="#000000" font-family="sans-serif" font-size="11" lengthAdjust="spacing" textLength="115" x="997" y="267.5908">-String collectingMethod</text><text fill="#000000" font-family="sans-serif" font-size="11" lengthAdjust="spacing" textLength="233" x="997" y="281.4268">-List &lt;ParameterCategory&gt; ParameterCategories</text><line style="stroke:#A80036;stroke-width:1.5;" x1="992" x2="1337" y1="287.8438" y2="287.8438"/><text fill="#000000" font-family="sans-serif" font-size="11" lengthAdjust="spacing" textLength="335" x="997" y="303.2627">+TestType(code, description, collectingMethod, ParameterCategories)</text><!--MD5=[0db42b3591f13a48474e506cf6fbc101]
class CTTC--><rect codeLine="53" fill="#FEFECE" filter="url(#feya90eh6y6zg)" height="89.5078" id="CTTC" style="stroke:#A80036;stroke-width:1.5;" width="319" x="199" y="208"/><ellipse cx="283.75" cy="224" fill="#ADD1B2" rx="11" ry="11" style="stroke:#A80036;stroke-width:1.0;"/><path d="M285.75,220.5 Q285.9531,220 286.1875,219.75 Q286.4219,219.5 286.6875,219.5 Q287.1563,219.5 287.4531,219.7813 Q287.75,220.0625 287.75,220.7188 L287.75,222.2813 Q287.75,222.9375 287.4688,223.2188 Q287.1875,223.5 286.75,223.5 Q286.3594,223.5 286.1094,223.3281 Q285.8594,223.1563 285.75,222.7031 Q285.7031,222.3906 285.5313,222.2188 Q285.2188,221.8906 284.6563,221.7031 Q284.0938,221.5 283.5313,221.5 Q282.8281,221.5 282.2344,221.7813 Q281.6563,222.0625 281.2031,222.6875 Q280.75,223.3125 280.75,224.1719 L280.75,225.0938 Q280.75,226.125 281.5938,226.8125 Q282.4375,227.5 283.9375,227.5 Q284.8281,227.5 285.4531,227.2969 Q285.8125,227.1875 286.2188,226.8281 Q286.4844,226.625 286.625,226.5625 Q286.7656,226.5 286.9375,226.5 Q287.2656,226.5 287.5,226.7656 Q287.75,227.0156 287.75,227.375 Q287.75,227.7188 287.4063,228.125 Q286.9063,228.7188 286.1094,229.0469 Q285.0625,229.5 283.7813,229.5 Q282.2813,229.5 281.0781,228.9063 Q280.1094,228.4375 279.4219,227.4219 Q278.75,226.4063 278.75,225.2031 L278.75,224.1094 Q278.75,222.8594 279.3438,221.7656 Q279.9531,220.6719 281,220.0938 Q282.0625,219.5 283.25,219.5 Q283.9688,219.5 284.5938,219.75 Q285.2188,220 285.75,220.5 Z " fill="#000000"/><text fill="#000000" font-family="sans-serif" font-size="12" lengthAdjust="spacing" textLength="141" x="304.25" y="228.9102">CreateTestTypeController</text><line style="stroke:#A80036;stroke-width:1.5;" x1="200" x2="517" y1="240" y2="240"/><line style="stroke:#A80036;stroke-width:1.5;" x1="200" x2="517" y1="248" y2="248"/><text fill="#000000" font-family="sans-serif" font-size="11" lengthAdjust="spacing" textLength="307" x="205" y="263.4189">+TestType createTestType(code, description, collectingMethod)</text><text fill="#000000" font-family="sans-serif" font-size="11" lengthAdjust="spacing" textLength="137" x="205" y="277.2549">+boolean validateTestType()</text><text fill="#000000" font-family="sans-serif" font-size="11" lengthAdjust="spacing" textLength="124" x="205" y="291.0908">+boolean saveTestType()</text><!--MD5=[56e4c9075fa7c9f4c09ef0a20c49f72c]
class T--><rect codeLine="39" fill="#FEFECE" filter="url(#feya90eh6y6zg)" height="89.5078" id="T" style="stroke:#A80036;stroke-width:1.5;" width="127" x="1482" y="359"/><ellipse cx="1529.25" cy="375" fill="#ADD1B2" rx="11" ry="11" style="stroke:#A80036;stroke-width:1.0;"/><path d="M1531.25,371.5 Q1531.4531,371 1531.6875,370.75 Q1531.9219,370.5 1532.1875,370.5 Q1532.6563,370.5 1532.9531,370.7813 Q1533.25,371.0625 1533.25,371.7188 L1533.25,373.2813 Q1533.25,373.9375 1532.9688,374.2188 Q1532.6875,374.5 1532.25,374.5 Q1531.8594,374.5 1531.6094,374.3281 Q1531.3594,374.1563 1531.25,373.7031 Q1531.2031,373.3906 1531.0313,373.2188 Q1530.7188,372.8906 1530.1563,372.7031 Q1529.5938,372.5 1529.0313,372.5 Q1528.3281,372.5 1527.7344,372.7813 Q1527.1563,373.0625 1526.7031,373.6875 Q1526.25,374.3125 1526.25,375.1719 L1526.25,376.0938 Q1526.25,377.125 1527.0938,377.8125 Q1527.9375,378.5 1529.4375,378.5 Q1530.3281,378.5 1530.9531,378.2969 Q1531.3125,378.1875 1531.7188,377.8281 Q1531.9844,377.625 1532.125,377.5625 Q1532.2656,377.5 1532.4375,377.5 Q1532.7656,377.5 1533,377.7656 Q1533.25,378.0156 1533.25,378.375 Q1533.25,378.7188 1532.9063,379.125 Q1532.4063,379.7188 1531.6094,380.0469 Q1530.5625,380.5 1529.2813,380.5 Q1527.7813,380.5 1526.5781,379.9063 Q1525.6094,379.4375 1524.9219,378.4219 Q1524.25,377.4063 1524.25,376.2031 L1524.25,375.1094 Q1524.25,373.8594 1524.8438,372.7656 Q1525.4531,371.6719 1526.5,371.0938 Q1527.5625,370.5 1528.75,370.5 Q1529.4688,370.5 1530.0938,370.75 Q1530.7188,371 1531.25,371.5 Z " fill="#000000"/><text fill="#000000" font-family="sans-serif" font-size="12" lengthAdjust="spacing" textLength="24" x="1549.75" y="379.9102">Test</text><line style="stroke:#A80036;stroke-width:1.5;" x1="1483" x2="1608" y1="391" y2="391"/><text fill="#000000" font-family="sans-serif" font-size="11" lengthAdjust="spacing" textLength="59" x="1488" y="406.4189">-String code</text><text fill="#000000" font-family="sans-serif" font-size="11" lengthAdjust="spacing" textLength="88" x="1488" y="420.2549">-String description</text><text fill="#000000" font-family="sans-serif" font-size="11" lengthAdjust="spacing" textLength="115" x="1488" y="434.0908">-String collectingMethod</text><line style="stroke:#A80036;stroke-width:1.5;" x1="1483" x2="1608" y1="440.5078" y2="440.5078"/><!--MD5=[218f71f443b9e0720bb96dd9df1d4749]
class PC--><rect codeLine="45" fill="#FEFECE" filter="url(#feya90eh6y6zg)" height="89.5078" id="PC" style="stroke:#A80036;stroke-width:1.5;" width="139" x="1476" y="206"/><ellipse cx="1491" cy="222" fill="#ADD1B2" rx="11" ry="11" style="stroke:#A80036;stroke-width:1.0;"/><path d="M1493,218.5 Q1493.2031,218 1493.4375,217.75 Q1493.6719,217.5 1493.9375,217.5 Q1494.4063,217.5 1494.7031,217.7813 Q1495,218.0625 1495,218.7188 L1495,220.2813 Q1495,220.9375 1494.7188,221.2188 Q1494.4375,221.5 1494,221.5 Q1493.6094,221.5 1493.3594,221.3281 Q1493.1094,221.1563 1493,220.7031 Q1492.9531,220.3906 1492.7813,220.2188 Q1492.4688,219.8906 1491.9063,219.7031 Q1491.3438,219.5 1490.7813,219.5 Q1490.0781,219.5 1489.4844,219.7813 Q1488.9063,220.0625 1488.4531,220.6875 Q1488,221.3125 1488,222.1719 L1488,223.0938 Q1488,224.125 1488.8438,224.8125 Q1489.6875,225.5 1491.1875,225.5 Q1492.0781,225.5 1492.7031,225.2969 Q1493.0625,225.1875 1493.4688,224.8281 Q1493.7344,224.625 1493.875,224.5625 Q1494.0156,224.5 1494.1875,224.5 Q1494.5156,224.5 1494.75,224.7656 Q1495,225.0156 1495,225.375 Q1495,225.7188 1494.6563,226.125 Q1494.1563,226.7188 1493.3594,227.0469 Q1492.3125,227.5 1491.0313,227.5 Q1489.5313,227.5 1488.3281,226.9063 Q1487.3594,226.4375 1486.6719,225.4219 Q1486,224.4063 1486,223.2031 L1486,222.1094 Q1486,220.8594 1486.5938,219.7656 Q1487.2031,218.6719 1488.25,218.0938 Q1489.3125,217.5 1490.5,217.5 Q1491.2188,217.5 1491.8438,217.75 Q1492.4688,218 1493,218.5 Z " fill="#000000"/><text fill="#000000" font-family="sans-serif" font-size="12" lengthAdjust="spacing" textLength="107" x="1505" y="226.9102">ParameterCategory</text><line style="stroke:#A80036;stroke-width:1.5;" x1="1477" x2="1614" y1="238" y2="238"/><text fill="#000000" font-family="sans-serif" font-size="11" lengthAdjust="spacing" textLength="59" x="1482" y="253.4189">-String code</text><text fill="#000000" font-family="sans-serif" font-size="11" lengthAdjust="spacing" textLength="88" x="1482" y="267.2549">-String description</text><text fill="#000000" font-family="sans-serif" font-size="11" lengthAdjust="spacing" textLength="62" x="1482" y="281.0908">-String nhsID</text><line style="stroke:#A80036;stroke-width:1.5;" x1="1477" x2="1614" y1="287.5078" y2="287.5078"/><!--MD5=[6461a74477876ab4a04549c978c1a07a]
class CTTUI--><rect codeLine="51" fill="#FEFECE" filter="url(#feya90eh6y6zg)" height="48" id="CTTUI" style="stroke:#A80036;stroke-width:1.5;" width="131" x="7" y="229"/><ellipse cx="22" cy="245" fill="#ADD1B2" rx="11" ry="11" style="stroke:#A80036;stroke-width:1.0;"/><path d="M24,241.5 Q24.2031,241 24.4375,240.75 Q24.6719,240.5 24.9375,240.5 Q25.4063,240.5 25.7031,240.7813 Q26,241.0625 26,241.7188 L26,243.2813 Q26,243.9375 25.7188,244.2188 Q25.4375,244.5 25,244.5 Q24.6094,244.5 24.3594,244.3281 Q24.1094,244.1563 24,243.7031 Q23.9531,243.3906 23.7813,243.2188 Q23.4688,242.8906 22.9063,242.7031 Q22.3438,242.5 21.7813,242.5 Q21.0781,242.5 20.4844,242.7813 Q19.9063,243.0625 19.4531,243.6875 Q19,244.3125 19,245.1719 L19,246.0938 Q19,247.125 19.8438,247.8125 Q20.6875,248.5 22.1875,248.5 Q23.0781,248.5 23.7031,248.2969 Q24.0625,248.1875 24.4688,247.8281 Q24.7344,247.625 24.875,247.5625 Q25.0156,247.5 25.1875,247.5 Q25.5156,247.5 25.75,247.7656 Q26,248.0156 26,248.375 Q26,248.7188 25.6563,249.125 Q25.1563,249.7188 24.3594,250.0469 Q23.3125,250.5 22.0313,250.5 Q20.5313,250.5 19.3281,249.9063 Q18.3594,249.4375 17.6719,248.4219 Q17,247.4063 17,246.2031 L17,245.1094 Q17,243.8594 17.5938,242.7656 Q18.2031,241.6719 19.25,241.0938 Q20.3125,240.5 21.5,240.5 Q22.2188,240.5 22.8438,240.75 Q23.4688,241 24,241.5 Z " fill="#000000"/><text fill="#000000" font-family="sans-serif" font-size="12" lengthAdjust="spacing" textLength="99" x="36" y="249.9102">CreateTestTypeUI</text><line style="stroke:#A80036;stroke-width:1.5;" x1="8" x2="137" y1="261" y2="261"/><line style="stroke:#A80036;stroke-width:1.5;" x1="8" x2="137" y1="269" y2="269"/><!--MD5=[3e435d042affccde68262619adda5b81]
class admin--><rect codeLine="54" fill="#FEFECE" filter="url(#feya90eh6y6zg)" height="48" id="admin" style="stroke:#A80036;stroke-width:1.5;" width="105" x="664.5" y="304"/><ellipse cx="679.5" cy="320" fill="#ADD1B2" rx="11" ry="11" style="stroke:#A80036;stroke-width:1.0;"/><path d="M681.5,316.5 Q681.7031,316 681.9375,315.75 Q682.1719,315.5 682.4375,315.5 Q682.9063,315.5 683.2031,315.7813 Q683.5,316.0625 683.5,316.7188 L683.5,318.2813 Q683.5,318.9375 683.2188,319.2188 Q682.9375,319.5 682.5,319.5 Q682.1094,319.5 681.8594,319.3281 Q681.6094,319.1563 681.5,318.7031 Q681.4531,318.3906 681.2813,318.2188 Q680.9688,317.8906 680.4063,317.7031 Q679.8438,317.5 679.2813,317.5 Q678.5781,317.5 677.9844,317.7813 Q677.4063,318.0625 676.9531,318.6875 Q676.5,319.3125 676.5,320.1719 L676.5,321.0938 Q676.5,322.125 677.3438,322.8125 Q678.1875,323.5 679.6875,323.5 Q680.5781,323.5 681.2031,323.2969 Q681.5625,323.1875 681.9688,322.8281 Q682.2344,322.625 682.375,322.5625 Q682.5156,322.5 682.6875,322.5 Q683.0156,322.5 683.25,322.7656 Q683.5,323.0156 683.5,323.375 Q683.5,323.7188 683.1563,324.125 Q682.6563,324.7188 681.8594,325.0469 Q680.8125,325.5 679.5313,325.5 Q678.0313,325.5 676.8281,324.9063 Q675.8594,324.4375 675.1719,323.4219 Q674.5,322.4063 674.5,321.2031 L674.5,320.1094 Q674.5,318.8594 675.0938,317.7656 Q675.7031,316.6719 676.75,316.0938 Q677.8125,315.5 679,315.5 Q679.7188,315.5 680.3438,315.75 Q680.9688,316 681.5,316.5 Z " fill="#000000"/><text fill="#000000" font-family="sans-serif" font-size="12" lengthAdjust="spacing" textLength="73" x="693.5" y="324.9102">Administrator</text><line style="stroke:#A80036;stroke-width:1.5;" x1="665.5" x2="768.5" y1="336" y2="336"/><line style="stroke:#A80036;stroke-width:1.5;" x1="665.5" x2="768.5" y1="344" y2="344"/><!--MD5=[320690cba070b8468face0bfd1ce9533]
link CTTUI to CTTC--><path codeLine="56" d="M138.3,253 C155.06,253 173.88,253 193.27,253 " fill="none" id="CTTUI-to-CTTC" style="stroke:#A80036;stroke-width:1.0;stroke-dasharray:7.0,7.0;"/><polygon fill="#A80036" points="198.75,253,189.75,249,193.75,253,189.75,257,198.75,253" style="stroke:#A80036;stroke-width:1.0;"/><!--MD5=[e1c0f205e01471a87324e4cc03d03bbe]
link C to PCS--><path codeLine="58" d="M797.13,107.08 C858.3,95.55 944.65,79.26 1018.16,65.4 " fill="none" id="C-to-PCS" style="stroke:#A80036;stroke-width:1.0;stroke-dasharray:7.0,7.0;"/><polygon fill="#A80036" points="1023.43,64.41,1013.8438,62.1506,1018.5169,65.3383,1015.3292,70.0115,1023.43,64.41" style="stroke:#A80036;stroke-width:1.0;"/><!--MD5=[694303a06a79f7ae0713de28a4008c97]
link TTS to C--><path codeLine="60" d="M495.55,121.38 C541.29,121.51 590.96,121.65 631.55,121.76 " fill="none" id="TTS-to-C" style="stroke:#A80036;stroke-width:1.0;stroke-dasharray:7.0,7.0;"/><polygon fill="#A80036" points="636.96,121.78,627.9715,117.7543,631.96,121.7657,627.9486,125.7543,636.96,121.78" style="stroke:#A80036;stroke-width:1.0;"/><!--MD5=[4ba949b41f5b4f886781165bf5f9b564]
link CTTC to TT--><path codeLine="62" d="M518.34,252.6 C652.88,252.27 845.6,251.79 985.35,251.44 " fill="none" id="CTTC-to-TT" style="stroke:#A80036;stroke-width:1.0;stroke-dasharray:7.0,7.0;"/><polygon fill="#A80036" points="990.72,251.43,981.7086,247.4557,985.72,251.4443,981.7315,255.4557,990.72,251.43" style="stroke:#A80036;stroke-width:1.0;"/><!--MD5=[cf05f59dfce81a96099c5f95714bd5af]
link CTTC to C--><path codeLine="63" d="M482.19,207.92 C531.64,189.74 587.44,169.24 632.12,152.82 " fill="none" id="CTTC-to-C" style="stroke:#A80036;stroke-width:1.0;stroke-dasharray:7.0,7.0;"/><polygon fill="#A80036" points="636.96,151.04,627.1336,150.3757,632.2644,152.7579,629.8822,157.8887,636.96,151.04" style="stroke:#A80036;stroke-width:1.0;"/><!--MD5=[1d14db0b97cac770d171bdc7474dae00]
link CTTC to cNM--><path codeLine="64" d="M437.05,298.07 C478.43,321.16 530.65,348.79 579,370 C591.02,375.27 603.83,380.39 616.6,385.19 " fill="none" id="CTTC-to-cNM" style="stroke:#A80036;stroke-width:1.0;stroke-dasharray:7.0,7.0;"/><polygon fill="#A80036" points="621.3,386.95,614.2775,380.0446,616.6184,385.1944,611.4685,387.5352,621.3,386.95" style="stroke:#A80036;stroke-width:1.0;"/><!--MD5=[1418b5af1734c0144573e838c99391fc]
link TT to T--><path codeLine="67" d="M1310.68,309.61 C1369.99,333.55 1435.45,359.98 1481.98,378.76 " fill="none" id="TT-T" style="stroke:#A80036;stroke-width:1.0;"/><polygon fill="#000000" points="1387.8635,325.3041,1395.1509,331.4152,1397.3511,325.9647,1387.8635,325.3041" style="stroke:#000000;stroke-width:1.0;"/><text fill="#000000" font-family="sans-serif" font-size="13" lengthAdjust="spacing" textLength="24" x="1401.5" y="332.4951">is of</text><text fill="#000000" font-family="sans-serif" font-size="13" lengthAdjust="spacing" textLength="7" x="1321.0691" y="331.2337">1</text><text fill="#000000" font-family="sans-serif" font-size="13" lengthAdjust="spacing" textLength="5" x="1468.9338" y="390.2054">*</text><!--MD5=[93286ab8d15dacf230424bab250ab910]
link TT to PC--><path codeLine="68" d="M1338.09,251 C1386.74,251 1436.89,251 1475.57,251 " fill="none" id="TT-PC" style="stroke:#A80036;stroke-width:1.0;"/><polygon fill="#000000" points="1378,242.1758,1368.9549,239.2369,1368.9549,245.1147,1378,242.1758" style="stroke:#000000;stroke-width:1.0;"/><text fill="#000000" font-family="sans-serif" font-size="13" lengthAdjust="spacing" textLength="63" x="1382" y="247.4951">analyzes a</text><text fill="#000000" font-family="sans-serif" font-size="13" lengthAdjust="spacing" textLength="5" x="1346.0691" y="264.8615">*</text><text fill="#000000" font-family="sans-serif" font-size="13" lengthAdjust="spacing" textLength="7" x="1460.9975" y="265.3636">1</text><!--MD5=[b83cceec495819d0b37daa935a10185d]
link C to TT--><path codeLine="70" d="M797.13,144.91 C850.89,160.48 924.1,181.68 990.95,201.04 " fill="none" id="C-TT" style="stroke:#A80036;stroke-width:1.0;"/><polygon fill="#000000" points="905.8027,163.5666,897.9321,158.2276,896.297,163.8735,905.8027,163.5666" style="stroke:#000000;stroke-width:1.0;"/><text fill="#000000" font-family="sans-serif" font-size="13" lengthAdjust="spacing" textLength="39" x="910" y="167.4951">adopts</text><text fill="#000000" font-family="sans-serif" font-size="13" lengthAdjust="spacing" textLength="7" x="805.101" y="161.3914">1</text><text fill="#000000" font-family="sans-serif" font-size="13" lengthAdjust="spacing" textLength="5" x="977.9727" y="212.6377">*</text><!--MD5=[71b3fc4d6ca120e51ce9c04aa77747d8]
link C to PC--><path codeLine="71" d="M797.32,122.04 C916.23,123.62 1147.13,132.53 1338,175 C1385.17,185.5 1436.15,204.18 1475.65,220.39 " fill="none" id="C-PC" style="stroke:#A80036;stroke-width:1.0;"/><polygon fill="#000000" points="1147.4483,120.8932,1138.9185,116.6868,1138.0751,122.5039,1147.4483,120.8932" style="stroke:#000000;stroke-width:1.0;"/><text fill="#000000" font-family="sans-serif" font-size="13" lengthAdjust="spacing" textLength="39" x="1151.5" y="125.4951">adopts</text><text fill="#000000" font-family="sans-serif" font-size="13" lengthAdjust="spacing" textLength="7" x="805.0472" y="136.3152">1</text><text fill="#000000" font-family="sans-serif" font-size="13" lengthAdjust="spacing" textLength="5" x="1463.1889" y="231.597">*</text><!--MD5=[57249f778fa14f2fb516e84676f78adc]
link admin to PC--><path codeLine="73" d="M769.81,337.67 C877.24,355.92 1131.48,389.79 1338,345 C1386.31,334.52 1436.88,311.73 1475.89,291.21 " fill="none" id="admin-PC" style="stroke:#A80036;stroke-width:1.0;"/><polygon fill="#000000" points="1126.5108,336.5041,1135.7293,338.8428,1135.3434,332.9776,1126.5108,336.5041" style="stroke:#000000;stroke-width:1.0;"/><text fill="#000000" font-family="sans-serif" font-size="13" lengthAdjust="spacing" textLength="61" x="1140.5" y="341.4951">created by</text><text fill="#000000" font-family="sans-serif" font-size="13" lengthAdjust="spacing" textLength="5" x="777.588" y="353.6747">*</text><text fill="#000000" font-family="sans-serif" font-size="13" lengthAdjust="spacing" textLength="5" x="1463.003" y="310.0242">*</text><!--MD5=[36a0dc4d37f44e902fda6f209d3cab7b]
link admin to TT--><path codeLine="75" d="M769.85,322.16 C819.18,316.32 895.38,306.57 961,295 C970.74,293.28 980.73,291.43 990.8,289.48 " fill="none" id="admin-TT" style="stroke:#A80036;stroke-width:1.0;"/><polygon fill="#000000" points="885.0538,286.9074,894.4316,288.4912,893.5715,282.6766,885.0538,286.9074" style="stroke:#000000;stroke-width:1.0;"/><text fill="#000000" font-family="sans-serif" font-size="13" lengthAdjust="spacing" textLength="61" x="899" y="291.4951">created by</text><text fill="#000000" font-family="sans-serif" font-size="13" lengthAdjust="spacing" textLength="5" x="777.6336" y="335.9836">*</text><text fill="#000000" font-family="sans-serif" font-size="13" lengthAdjust="spacing" textLength="5" x="977.8159" y="305.0851">*</text><!--MD5=[9c10d607292acd9c6dbdc6a1948d9d63]
@startuml
skinparam classAttributeIconSize 0
left to right direction

class "Company" as C {
-String designation
+getTestTypeStore()
+getParameterCategoryStore()
}

class "categoriesNameMapper" as cNM {
+List <ParameterCategory> toDTO(listCategoriesName)
}

class "TestTypeStore" as TTS{
+TestType create(code, description, collectingMethod)
+boolean validate(tt)
+boolean add(tt)
+List <TestType> getAllTestTypes()
}

class "ParameterCategoryStore" as PCS{
+List <ParameterCategory> getAllParameterCategories()
}

class "TestType" as TT {
-String code
-String description
-String collectingMethod
-List <ParameterCategory> ParameterCategories
+TestType(code, description, collectingMethod, ParameterCategories)
}

class "CreateTestTypeController" as CTTC {
+TestType createTestType(code, description, collectingMethod)
+boolean validateTestType()
+boolean saveTestType()
}

class "Test" as T{
-String code
-String description
-String collectingMethod
}

class "ParameterCategory" as PC{
-String code
-String description
-String nhsID
}

class "CreateTestTypeUI" as CTTUI
class "TestType" as TT
class "CreateTestTypeController" as CTTC
class "Administrator" as admin

CTTUI ..> CTTC

C ..> PCS

TTS ..> C

CTTC ..> TT
CTTC ..> C
CTTC ..> cNM


TT "1" - - "*" T: < is of
TT "*" - - "1" PC : > analyzes a

C "1" - - "*" TT : > adopts
C "1" - - "*" PC : > adopts

admin "*" - - "*" PC : < created by

admin "*" - - "*" TT : < created by


@enduml

PlantUML version 1.2021.5(Sun Apr 25 12:20:28 BST 2021)
(GPL source distribution)
Java Runtime: OpenJDK Runtime Environment
JVM: OpenJDK 64-Bit Server VM
Default Encoding: Cp1252
Language: pt
Country: PT
--></g></svg>