<?xml version="1.0" encoding="UTF-8" standalone="no"?><svg xmlns="http://www.w3.org/2000/svg" xmlns:xlink="http://www.w3.org/1999/xlink" contentScriptType="application/ecmascript" contentStyleType="text/css" height="377px" preserveAspectRatio="none" style="width:588px;height:377px;" version="1.1" viewBox="0 0 588 377" width="588px" zoomAndPan="magnify"><defs><filter height="300%" id="f1n3429ri1cits" width="300%" x="-1" y="-1"><feGaussianBlur result="blurOut" stdDeviation="2.0"/><feColorMatrix in="blurOut" result="blurOut2" type="matrix" values="0 0 0 0 0 0 0 0 0 0 0 0 0 0 0 0 0 0 .4 0"/><feOffset dx="4.0" dy="4.0" in="blurOut2" result="blurOut3"/><feBlend in="SourceGraphic" in2="blurOut3" mode="normal"/></filter></defs><g><rect fill="#FFFFFF" filter="url(#f1n3429ri1cits)" height="183.1094" style="stroke:#A80036;stroke-width:1.0;" width="10" x="42" y="99.6094"/><rect fill="#FFFFFF" filter="url(#f1n3429ri1cits)" height="30.3516" style="stroke:#A80036;stroke-width:1.0;" width="10" x="541" y="121.9609"/><rect fill="#FFFFFF" filter="url(#f1n3429ri1cits)" height="30.3516" style="stroke:#A80036;stroke-width:1.0;" width="10" x="541" y="182.6641"/><rect fill="#FFFFFF" filter="url(#f1n3429ri1cits)" height="30.3516" style="stroke:#A80036;stroke-width:1.0;" width="10" x="541" y="243.3672"/><line style="stroke:#A80036;stroke-width:1.0;stroke-dasharray:5.0,5.0;" x1="47" x2="47" y1="89.6094" y2="291.7188"/><line style="stroke:#A80036;stroke-width:1.0;stroke-dasharray:5.0,5.0;" x1="546" x2="546" y1="89.6094" y2="291.7188"/><text fill="#000000" font-family="sans-serif" font-size="14" lengthAdjust="spacing" textLength="78" x="5" y="86.5332">Receptionist</text><ellipse cx="47" cy="15" fill="#FEFECE" filter="url(#f1n3429ri1cits)" rx="8" ry="8" style="stroke:#A80036;stroke-width:2.0;"/><path d="M47,23 L47,50 M34,31 L60,31 M47,50 L34,65 M47,50 L60,65 " fill="none" filter="url(#f1n3429ri1cits)" style="stroke:#A80036;stroke-width:2.0;"/><text fill="#000000" font-family="sans-serif" font-size="14" lengthAdjust="spacing" textLength="78" x="5" y="305.252">Receptionist</text><ellipse cx="47" cy="318.3281" fill="#FEFECE" filter="url(#f1n3429ri1cits)" rx="8" ry="8" style="stroke:#A80036;stroke-width:2.0;"/><path d="M47,326.3281 L47,353.3281 M34,334.3281 L60,334.3281 M47,353.3281 L34,368.3281 M47,353.3281 L60,368.3281 " fill="none" filter="url(#f1n3429ri1cits)" style="stroke:#A80036;stroke-width:2.0;"/><rect fill="#FEFECE" filter="url(#f1n3429ri1cits)" height="31.6094" style="stroke:#A80036;stroke-width:1.5;" width="60" x="514" y="53"/><text fill="#000000" font-family="sans-serif" font-size="14" lengthAdjust="spacing" textLength="46" x="521" y="74.5332">System</text><rect fill="#FEFECE" filter="url(#f1n3429ri1cits)" height="31.6094" style="stroke:#A80036;stroke-width:1.5;" width="60" x="514" y="290.7188"/><text fill="#000000" font-family="sans-serif" font-size="14" lengthAdjust="spacing" textLength="46" x="521" y="312.252">System</text><rect fill="#FFFFFF" filter="url(#f1n3429ri1cits)" height="183.1094" style="stroke:#A80036;stroke-width:1.0;" width="10" x="42" y="99.6094"/><rect fill="#FFFFFF" filter="url(#f1n3429ri1cits)" height="30.3516" style="stroke:#A80036;stroke-width:1.0;" width="10" x="541" y="121.9609"/><rect fill="#FFFFFF" filter="url(#f1n3429ri1cits)" height="30.3516" style="stroke:#A80036;stroke-width:1.0;" width="10" x="541" y="182.6641"/><rect fill="#FFFFFF" filter="url(#f1n3429ri1cits)" height="30.3516" style="stroke:#A80036;stroke-width:1.0;" width="10" x="541" y="243.3672"/><polygon fill="#A80036" points="529,117.9609,539,121.9609,529,125.9609,533,121.9609" style="stroke:#A80036;stroke-width:1.0;"/><line style="stroke:#A80036;stroke-width:1.0;" x1="52" x2="535" y1="121.9609" y2="121.9609"/><text fill="#000000" font-family="sans-serif" font-size="13" font-weight="bold" lengthAdjust="spacing" textLength="7" x="59" y="117.1045">1</text><text fill="#000000" font-family="sans-serif" font-size="13" lengthAdjust="spacing" textLength="89" x="70" y="117.1045">register a client</text><polygon fill="#A80036" points="63,148.3125,53,152.3125,63,156.3125,59,152.3125" style="stroke:#A80036;stroke-width:1.0;"/><line style="stroke:#A80036;stroke-width:1.0;stroke-dasharray:2.0,2.0;" x1="57" x2="545" y1="152.3125" y2="152.3125"/><text fill="#000000" font-family="sans-serif" font-size="13" font-weight="bold" lengthAdjust="spacing" textLength="7" x="69" y="147.4561">2</text><text fill="#000000" font-family="sans-serif" font-size="13" lengthAdjust="spacing" textLength="454" x="80" y="147.4561">request data (citizenID, nhsID, birthDate, sex,TIN, phoneNumber, email, name)</text><polygon fill="#A80036" points="529,178.6641,539,182.6641,529,186.6641,533,182.6641" style="stroke:#A80036;stroke-width:1.0;"/><line style="stroke:#A80036;stroke-width:1.0;" x1="52" x2="535" y1="182.6641" y2="182.6641"/><text fill="#000000" font-family="sans-serif" font-size="13" font-weight="bold" lengthAdjust="spacing" textLength="7" x="59" y="177.8076">3</text><text fill="#000000" font-family="sans-serif" font-size="13" lengthAdjust="spacing" textLength="122" x="70" y="177.8076">types requested data</text><polygon fill="#A80036" points="63,209.0156,53,213.0156,63,217.0156,59,213.0156" style="stroke:#A80036;stroke-width:1.0;"/><line style="stroke:#A80036;stroke-width:1.0;stroke-dasharray:2.0,2.0;" x1="57" x2="545" y1="213.0156" y2="213.0156"/><text fill="#000000" font-family="sans-serif" font-size="13" font-weight="bold" lengthAdjust="spacing" textLength="7" x="69" y="208.1592">4</text><text fill="#000000" font-family="sans-serif" font-size="13" lengthAdjust="spacing" textLength="252" x="80" y="208.1592">shows the data and requests a confirmation</text><polygon fill="#A80036" points="529,239.3672,539,243.3672,529,247.3672,533,243.3672" style="stroke:#A80036;stroke-width:1.0;"/><line style="stroke:#A80036;stroke-width:1.0;" x1="52" x2="535" y1="243.3672" y2="243.3672"/><text fill="#000000" font-family="sans-serif" font-size="13" font-weight="bold" lengthAdjust="spacing" textLength="7" x="59" y="238.5107">5</text><text fill="#000000" font-family="sans-serif" font-size="13" lengthAdjust="spacing" textLength="100" x="70" y="238.5107">confirms the data</text><polygon fill="#A80036" points="63,269.7188,53,273.7188,63,277.7188,59,273.7188" style="stroke:#A80036;stroke-width:1.0;"/><line style="stroke:#A80036;stroke-width:1.0;stroke-dasharray:2.0,2.0;" x1="57" x2="545" y1="273.7188" y2="273.7188"/><text fill="#000000" font-family="sans-serif" font-size="13" font-weight="bold" lengthAdjust="spacing" textLength="7" x="69" y="268.8623">6</text><text fill="#000000" font-family="sans-serif" font-size="13" lengthAdjust="spacing" textLength="152" x="80" y="268.8623">informs operation success</text><!--MD5=[6c1a56dc61894ce4ffbad8ecd5951221]
@startuml
'https://plantuml.com/sequence-diagram

autonumber

actor "Receptionist" as R
activate R
R -> System ++: register a client
System - ->  R - -: request data (citizenID, nhsID, birthDate, sex,TIN, phoneNumber, email, name)
R -> System ++: types requested data
System - -> R - -: shows the data and requests a confirmation
R -> System ++: confirms the data
System - -> R - -: informs operation success
@enduml

@startuml

autonumber

actor "Receptionist" as R
activate R
R -> System ++: register a client
System - ->  R - -: request data (citizenID, nhsID, birthDate, sex,TIN, phoneNumber, email, name)
R -> System ++: types requested data
System - -> R - -: shows the data and requests a confirmation
R -> System ++: confirms the data
System - -> R - -: informs operation success
@enduml

PlantUML version 1.2021.4(Sun Apr 04 09:49:39 BST 2021)
(GPL source distribution)
Java Runtime: OpenJDK Runtime Environment
JVM: OpenJDK 64-Bit Server VM
Default Encoding: Cp1252
Language: pt
Country: PT
--></g></svg>