<?xml version="1.0" encoding="UTF-8" standalone="no"?><svg xmlns="http://www.w3.org/2000/svg" xmlns:xlink="http://www.w3.org/1999/xlink" contentScriptType="application/ecmascript" contentStyleType="text/css" height="808px" preserveAspectRatio="none" style="width:338px;height:808px;" version="1.1" viewBox="0 0 338 808" width="338px" zoomAndPan="magnify"><defs><filter height="300%" id="fpmnvmzmjyuvp" width="300%" x="-1" y="-1"><feGaussianBlur result="blurOut" stdDeviation="2.0"/><feColorMatrix in="blurOut" result="blurOut2" type="matrix" values="0 0 0 0 0 0 0 0 0 0 0 0 0 0 0 0 0 0 .4 0"/><feOffset dx="4.0" dy="4.0" in="blurOut2" result="blurOut3"/><feBlend in="SourceGraphic" in2="blurOut3" mode="normal"/></filter></defs><g><!--MD5=[02e4b9b7573f1156f41e60aa5b4e25a4]
class Company--><rect codeLine="23" fill="#FEFECE" filter="url(#fpmnvmzmjyuvp)" height="48" id="Company" style="stroke:#A80036;stroke-width:1.5;" width="85" x="7" y="181.5"/><ellipse cx="22" cy="197.5" fill="#ADD1B2" rx="11" ry="11" style="stroke:#A80036;stroke-width:1.0;"/><path d="M24,194 Q24.2031,193.5 24.4375,193.25 Q24.6719,193 24.9375,193 Q25.4063,193 25.7031,193.2813 Q26,193.5625 26,194.2188 L26,195.7813 Q26,196.4375 25.7188,196.7188 Q25.4375,197 25,197 Q24.6094,197 24.3594,196.8281 Q24.1094,196.6563 24,196.2031 Q23.9531,195.8906 23.7813,195.7188 Q23.4688,195.3906 22.9063,195.2031 Q22.3438,195 21.7813,195 Q21.0781,195 20.4844,195.2813 Q19.9063,195.5625 19.4531,196.1875 Q19,196.8125 19,197.6719 L19,198.5938 Q19,199.625 19.8438,200.3125 Q20.6875,201 22.1875,201 Q23.0781,201 23.7031,200.7969 Q24.0625,200.6875 24.4688,200.3281 Q24.7344,200.125 24.875,200.0625 Q25.0156,200 25.1875,200 Q25.5156,200 25.75,200.2656 Q26,200.5156 26,200.875 Q26,201.2188 25.6563,201.625 Q25.1563,202.2188 24.3594,202.5469 Q23.3125,203 22.0313,203 Q20.5313,203 19.3281,202.4063 Q18.3594,201.9375 17.6719,200.9219 Q17,199.9063 17,198.7031 L17,197.6094 Q17,196.3594 17.5938,195.2656 Q18.2031,194.1719 19.25,193.5938 Q20.3125,193 21.5,193 Q22.2188,193 22.8438,193.25 Q23.4688,193.5 24,194 Z " fill="#000000"/><text fill="#000000" font-family="sans-serif" font-size="12" lengthAdjust="spacing" textLength="53" x="36" y="202.4102">Company</text><line style="stroke:#A80036;stroke-width:1.5;" x1="8" x2="91" y1="213.5" y2="213.5"/><line style="stroke:#A80036;stroke-width:1.5;" x1="8" x2="91" y1="221.5" y2="221.5"/><!--MD5=[da547346deef918ea16944ba046651ef]
class Administrator--><rect codeLine="26" fill="#FEFECE" filter="url(#fpmnvmzmjyuvp)" height="144.8516" id="Administrator" style="stroke:#A80036;stroke-width:1.5;" width="105" x="127" y="133"/><ellipse cx="142" cy="149" fill="#ADD1B2" rx="11" ry="11" style="stroke:#A80036;stroke-width:1.0;"/><path d="M144,145.5 Q144.2031,145 144.4375,144.75 Q144.6719,144.5 144.9375,144.5 Q145.4063,144.5 145.7031,144.7813 Q146,145.0625 146,145.7188 L146,147.2813 Q146,147.9375 145.7188,148.2188 Q145.4375,148.5 145,148.5 Q144.6094,148.5 144.3594,148.3281 Q144.1094,148.1563 144,147.7031 Q143.9531,147.3906 143.7813,147.2188 Q143.4688,146.8906 142.9063,146.7031 Q142.3438,146.5 141.7813,146.5 Q141.0781,146.5 140.4844,146.7813 Q139.9063,147.0625 139.4531,147.6875 Q139,148.3125 139,149.1719 L139,150.0938 Q139,151.125 139.8438,151.8125 Q140.6875,152.5 142.1875,152.5 Q143.0781,152.5 143.7031,152.2969 Q144.0625,152.1875 144.4688,151.8281 Q144.7344,151.625 144.875,151.5625 Q145.0156,151.5 145.1875,151.5 Q145.5156,151.5 145.75,151.7656 Q146,152.0156 146,152.375 Q146,152.7188 145.6563,153.125 Q145.1563,153.7188 144.3594,154.0469 Q143.3125,154.5 142.0313,154.5 Q140.5313,154.5 139.3281,153.9063 Q138.3594,153.4375 137.6719,152.4219 Q137,151.4063 137,150.2031 L137,149.1094 Q137,147.8594 137.5938,146.7656 Q138.2031,145.6719 139.25,145.0938 Q140.3125,144.5 141.5,144.5 Q142.2188,144.5 142.8438,144.75 Q143.4688,145 144,145.5 Z " fill="#000000"/><text fill="#000000" font-family="sans-serif" font-size="12" lengthAdjust="spacing" textLength="73" x="156" y="153.9102">Administrator</text><line style="stroke:#A80036;stroke-width:1.5;" x1="128" x2="231" y1="165" y2="165"/><text fill="#000000" font-family="sans-serif" font-size="11" lengthAdjust="spacing" textLength="30" x="133" y="180.4189">-name</text><text fill="#000000" font-family="sans-serif" font-size="11" lengthAdjust="spacing" textLength="44" x="133" y="194.2549">-address</text><text fill="#000000" font-family="sans-serif" font-size="11" lengthAdjust="spacing" textLength="71" x="133" y="208.0908">-phoneNumber</text><text fill="#000000" font-family="sans-serif" font-size="11" lengthAdjust="spacing" textLength="59" x="133" y="221.9268">-employeeID</text><text fill="#000000" font-family="sans-serif" font-size="11" lengthAdjust="spacing" textLength="41" x="133" y="235.7627">-orgRole</text><text fill="#000000" font-family="sans-serif" font-size="11" lengthAdjust="spacing" textLength="28" x="133" y="249.5986">-email</text><text fill="#000000" font-family="sans-serif" font-size="11" lengthAdjust="spacing" textLength="50" x="133" y="263.4346">-SOCcode</text><line style="stroke:#A80036;stroke-width:1.5;" x1="128" x2="231" y1="269.8516" y2="269.8516"/><!--MD5=[a96594a83e2ecdc78cbf17c2ddf01934]
class Category--><rect codeLine="36" fill="#FEFECE" filter="url(#fpmnvmzmjyuvp)" height="89.5078" id="Category" style="stroke:#A80036;stroke-width:1.5;" width="81" x="131" y="356"/><ellipse cx="146" cy="372" fill="#ADD1B2" rx="11" ry="11" style="stroke:#A80036;stroke-width:1.0;"/><path d="M148,368.5 Q148.2031,368 148.4375,367.75 Q148.6719,367.5 148.9375,367.5 Q149.4063,367.5 149.7031,367.7813 Q150,368.0625 150,368.7188 L150,370.2813 Q150,370.9375 149.7188,371.2188 Q149.4375,371.5 149,371.5 Q148.6094,371.5 148.3594,371.3281 Q148.1094,371.1563 148,370.7031 Q147.9531,370.3906 147.7813,370.2188 Q147.4688,369.8906 146.9063,369.7031 Q146.3438,369.5 145.7813,369.5 Q145.0781,369.5 144.4844,369.7813 Q143.9063,370.0625 143.4531,370.6875 Q143,371.3125 143,372.1719 L143,373.0938 Q143,374.125 143.8438,374.8125 Q144.6875,375.5 146.1875,375.5 Q147.0781,375.5 147.7031,375.2969 Q148.0625,375.1875 148.4688,374.8281 Q148.7344,374.625 148.875,374.5625 Q149.0156,374.5 149.1875,374.5 Q149.5156,374.5 149.75,374.7656 Q150,375.0156 150,375.375 Q150,375.7188 149.6563,376.125 Q149.1563,376.7188 148.3594,377.0469 Q147.3125,377.5 146.0313,377.5 Q144.5313,377.5 143.3281,376.9063 Q142.3594,376.4375 141.6719,375.4219 Q141,374.4063 141,373.2031 L141,372.1094 Q141,370.8594 141.5938,369.7656 Q142.2031,368.6719 143.25,368.0938 Q144.3125,367.5 145.5,367.5 Q146.2188,367.5 146.8438,367.75 Q147.4688,368 148,368.5 Z " fill="#000000"/><text fill="#000000" font-family="sans-serif" font-size="12" lengthAdjust="spacing" textLength="49" x="160" y="376.9102">Category</text><line style="stroke:#A80036;stroke-width:1.5;" x1="132" x2="211" y1="388" y2="388"/><text fill="#000000" font-family="sans-serif" font-size="11" lengthAdjust="spacing" textLength="28" x="137" y="403.4189">-code</text><text fill="#000000" font-family="sans-serif" font-size="11" lengthAdjust="spacing" textLength="57" x="137" y="417.2549">-description</text><text fill="#000000" font-family="sans-serif" font-size="11" lengthAdjust="spacing" textLength="31" x="137" y="431.0908">-nhsID</text><line style="stroke:#A80036;stroke-width:1.5;" x1="132" x2="211" y1="437.5078" y2="437.5078"/><!--MD5=[1f6362a5c8f21d8d6a0fce68f3a92a4e]
class Parameter--><rect codeLine="42" fill="#FEFECE" filter="url(#fpmnvmzmjyuvp)" height="48" id="Parameter" style="stroke:#A80036;stroke-width:1.5;" width="90" x="99.5" y="524"/><ellipse cx="114.5" cy="540" fill="#ADD1B2" rx="11" ry="11" style="stroke:#A80036;stroke-width:1.0;"/><path d="M116.5,536.5 Q116.7031,536 116.9375,535.75 Q117.1719,535.5 117.4375,535.5 Q117.9063,535.5 118.2031,535.7813 Q118.5,536.0625 118.5,536.7188 L118.5,538.2813 Q118.5,538.9375 118.2188,539.2188 Q117.9375,539.5 117.5,539.5 Q117.1094,539.5 116.8594,539.3281 Q116.6094,539.1563 116.5,538.7031 Q116.4531,538.3906 116.2813,538.2188 Q115.9688,537.8906 115.4063,537.7031 Q114.8438,537.5 114.2813,537.5 Q113.5781,537.5 112.9844,537.7813 Q112.4063,538.0625 111.9531,538.6875 Q111.5,539.3125 111.5,540.1719 L111.5,541.0938 Q111.5,542.125 112.3438,542.8125 Q113.1875,543.5 114.6875,543.5 Q115.5781,543.5 116.2031,543.2969 Q116.5625,543.1875 116.9688,542.8281 Q117.2344,542.625 117.375,542.5625 Q117.5156,542.5 117.6875,542.5 Q118.0156,542.5 118.25,542.7656 Q118.5,543.0156 118.5,543.375 Q118.5,543.7188 118.1563,544.125 Q117.6563,544.7188 116.8594,545.0469 Q115.8125,545.5 114.5313,545.5 Q113.0313,545.5 111.8281,544.9063 Q110.8594,544.4375 110.1719,543.4219 Q109.5,542.4063 109.5,541.2031 L109.5,540.1094 Q109.5,538.8594 110.0938,537.7656 Q110.7031,536.6719 111.75,536.0938 Q112.8125,535.5 114,535.5 Q114.7188,535.5 115.3438,535.75 Q115.9688,536 116.5,536.5 Z " fill="#000000"/><text fill="#000000" font-family="sans-serif" font-size="12" lengthAdjust="spacing" textLength="58" x="128.5" y="544.9102">Parameter</text><line style="stroke:#A80036;stroke-width:1.5;" x1="100.5" x2="188.5" y1="556" y2="556"/><line style="stroke:#A80036;stroke-width:1.5;" x1="100.5" x2="188.5" y1="564" y2="564"/><!--MD5=[aeb3272166074d8737a70b61b1e71682]
class TestType--><rect codeLine="45" fill="#FEFECE" filter="url(#fpmnvmzmjyuvp)" height="48" id="TestType" style="stroke:#A80036;stroke-width:1.5;" width="82" x="138.5" y="7"/><ellipse cx="153.5" cy="23" fill="#ADD1B2" rx="11" ry="11" style="stroke:#A80036;stroke-width:1.0;"/><path d="M155.5,19.5 Q155.7031,19 155.9375,18.75 Q156.1719,18.5 156.4375,18.5 Q156.9063,18.5 157.2031,18.7813 Q157.5,19.0625 157.5,19.7188 L157.5,21.2813 Q157.5,21.9375 157.2188,22.2188 Q156.9375,22.5 156.5,22.5 Q156.1094,22.5 155.8594,22.3281 Q155.6094,22.1563 155.5,21.7031 Q155.4531,21.3906 155.2813,21.2188 Q154.9688,20.8906 154.4063,20.7031 Q153.8438,20.5 153.2813,20.5 Q152.5781,20.5 151.9844,20.7813 Q151.4063,21.0625 150.9531,21.6875 Q150.5,22.3125 150.5,23.1719 L150.5,24.0938 Q150.5,25.125 151.3438,25.8125 Q152.1875,26.5 153.6875,26.5 Q154.5781,26.5 155.2031,26.2969 Q155.5625,26.1875 155.9688,25.8281 Q156.2344,25.625 156.375,25.5625 Q156.5156,25.5 156.6875,25.5 Q157.0156,25.5 157.25,25.7656 Q157.5,26.0156 157.5,26.375 Q157.5,26.7188 157.1563,27.125 Q156.6563,27.7188 155.8594,28.0469 Q154.8125,28.5 153.5313,28.5 Q152.0313,28.5 150.8281,27.9063 Q149.8594,27.4375 149.1719,26.4219 Q148.5,25.4063 148.5,24.2031 L148.5,23.1094 Q148.5,21.8594 149.0938,20.7656 Q149.7031,19.6719 150.75,19.0938 Q151.8125,18.5 153,18.5 Q153.7188,18.5 154.3438,18.75 Q154.9688,19 155.5,19.5 Z " fill="#000000"/><text fill="#000000" font-family="sans-serif" font-size="12" lengthAdjust="spacing" textLength="50" x="167.5" y="27.9102">TestType</text><line style="stroke:#A80036;stroke-width:1.5;" x1="139.5" x2="219.5" y1="39" y2="39"/><line style="stroke:#A80036;stroke-width:1.5;" x1="139.5" x2="219.5" y1="47" y2="47"/><!--MD5=[df38be88ccee13e832d6fafd6288a4ca]
class Test--><rect codeLine="48" fill="#FEFECE" filter="url(#fpmnvmzmjyuvp)" height="144.8516" id="Test" style="stroke:#A80036;stroke-width:1.5;" width="144" x="143.5" y="650"/><ellipse cx="199.25" cy="666" fill="#ADD1B2" rx="11" ry="11" style="stroke:#A80036;stroke-width:1.0;"/><path d="M201.25,662.5 Q201.4531,662 201.6875,661.75 Q201.9219,661.5 202.1875,661.5 Q202.6563,661.5 202.9531,661.7813 Q203.25,662.0625 203.25,662.7188 L203.25,664.2813 Q203.25,664.9375 202.9688,665.2188 Q202.6875,665.5 202.25,665.5 Q201.8594,665.5 201.6094,665.3281 Q201.3594,665.1563 201.25,664.7031 Q201.2031,664.3906 201.0313,664.2188 Q200.7188,663.8906 200.1563,663.7031 Q199.5938,663.5 199.0313,663.5 Q198.3281,663.5 197.7344,663.7813 Q197.1563,664.0625 196.7031,664.6875 Q196.25,665.3125 196.25,666.1719 L196.25,667.0938 Q196.25,668.125 197.0938,668.8125 Q197.9375,669.5 199.4375,669.5 Q200.3281,669.5 200.9531,669.2969 Q201.3125,669.1875 201.7188,668.8281 Q201.9844,668.625 202.125,668.5625 Q202.2656,668.5 202.4375,668.5 Q202.7656,668.5 203,668.7656 Q203.25,669.0156 203.25,669.375 Q203.25,669.7188 202.9063,670.125 Q202.4063,670.7188 201.6094,671.0469 Q200.5625,671.5 199.2813,671.5 Q197.7813,671.5 196.5781,670.9063 Q195.6094,670.4375 194.9219,669.4219 Q194.25,668.4063 194.25,667.2031 L194.25,666.1094 Q194.25,664.8594 194.8438,663.7656 Q195.4531,662.6719 196.5,662.0938 Q197.5625,661.5 198.75,661.5 Q199.4688,661.5 200.0938,661.75 Q200.7188,662 201.25,662.5 Z " fill="#000000"/><text fill="#000000" font-family="sans-serif" font-size="12" lengthAdjust="spacing" textLength="24" x="219.75" y="670.9102">Test</text><line style="stroke:#A80036;stroke-width:1.5;" x1="144.5" x2="286.5" y1="682" y2="682"/><text fill="#000000" font-family="sans-serif" font-size="11" lengthAdjust="spacing" textLength="64" x="149.5" y="697.4189">-internalCode</text><text fill="#000000" font-family="sans-serif" font-size="11" lengthAdjust="spacing" textLength="47" x="149.5" y="711.2549">-nhsCode</text><text fill="#000000" font-family="sans-serif" font-size="11" lengthAdjust="spacing" textLength="70" x="149.5" y="725.0908">-collectMethod</text><text fill="#000000" font-family="sans-serif" font-size="11" lengthAdjust="spacing" textLength="79" x="149.5" y="738.9268">-collectDateTime</text><text fill="#000000" font-family="sans-serif" font-size="11" lengthAdjust="spacing" textLength="132" x="149.5" y="752.7627">-chemicalAnalysisDateTime</text><text fill="#000000" font-family="sans-serif" font-size="11" lengthAdjust="spacing" textLength="94" x="149.5" y="766.5986">-diagnosisDateTime</text><text fill="#000000" font-family="sans-serif" font-size="11" lengthAdjust="spacing" textLength="93" x="149.5" y="780.4346">-validationDateTime</text><line style="stroke:#A80036;stroke-width:1.5;" x1="144.5" x2="286.5" y1="786.8516" y2="786.8516"/><!--MD5=[7d17329589c8a1a28e6f8826215bde21]
link Administrator to Category--><path codeLine="9" d="M176.54,278 C175.47,304.06 174.28,332.74 173.33,355.74 " fill="none" id="Administrator-Category" style="stroke:#A80036;stroke-width:1.0;"/><polygon fill="#000000" points="180.7063,312.18,177.3967,321.0962,183.2695,321.3387,180.7063,312.18" style="stroke:#000000;stroke-width:1.0;"/><text fill="#000000" font-family="sans-serif" font-size="13" lengthAdjust="spacing" textLength="61" x="189.5" y="322.4951">created by</text><text fill="#000000" font-family="sans-serif" font-size="13" lengthAdjust="spacing" textLength="7" x="168.9041" y="299.4439">1</text><text fill="#000000" font-family="sans-serif" font-size="13" lengthAdjust="spacing" textLength="5" x="168.2274" y="345.1443">*</text><!--MD5=[9e2b536d5f14dafa66c4d5113ebdcad2]
link Category to Parameter--><path codeLine="11" d="M163.25,446.29 C158.48,471.94 152.66,503.18 148.78,523.99 " fill="none" id="Category-Parameter" style="stroke:#A80036;stroke-width:1.0;"/><polygon fill="#000000" points="163.4154,480.2603,158.8702,488.6144,164.6487,489.6906,163.4154,480.2603" style="stroke:#000000;stroke-width:1.0;"/><text fill="#000000" font-family="sans-serif" font-size="13" lengthAdjust="spacing" textLength="93" x="171.5" y="490.4951">presented under</text><text fill="#000000" font-family="sans-serif" font-size="13" lengthAdjust="spacing" textLength="7" x="154.6711" y="467.0027">1</text><text fill="#000000" font-family="sans-serif" font-size="13" lengthAdjust="spacing" textLength="5" x="144.2361" y="513.3276">*</text><!--MD5=[4265453a012991a726928e22789b8a83]
link Parameter to Test--><path codeLine="13" d="M136.34,572.25 C132.65,586.39 130.17,604.62 135.5,620 C139.06,630.28 144.15,640.31 150.05,649.81 " fill="none" id="Parameter-Test" style="stroke:#A80036;stroke-width:1.0;"/><polygon fill="#000000" points="139.6297,606.2521,138.3101,615.6707,144.0982,614.6475,139.6297,606.2521" style="stroke:#000000;stroke-width:1.0;"/><text fill="#000000" font-family="sans-serif" font-size="13" lengthAdjust="spacing" textLength="116" x="149.5" y="616.4951">requests analysis of</text><text fill="#000000" font-family="sans-serif" font-size="13" lengthAdjust="spacing" textLength="20" x="111.9135" y="593.6489">1..*</text><text fill="#000000" font-family="sans-serif" font-size="13" lengthAdjust="spacing" textLength="5" x="138.0427" y="639.0097">*</text><!--MD5=[6d9eb9a083ac0654c8b63743033752d3]
link TestType to Company--><path codeLine="15" d="M138.32,54.84 C125.97,63.13 113.16,73.37 103.5,85 C79.35,114.07 63.82,155.69 55.88,181.36 " fill="none" id="TestType-Company" style="stroke:#A80036;stroke-width:1.0;"/><polygon fill="#000000" points="111.2296,89.9866,103.8293,95.9604,108.754,99.1693,111.2296,89.9866" style="stroke:#000000;stroke-width:1.0;"/><text fill="#000000" font-family="sans-serif" font-size="13" lengthAdjust="spacing" textLength="53" x="117.5" y="99.4951">conducts</text><text fill="#000000" font-family="sans-serif" font-size="13" lengthAdjust="spacing" textLength="5" x="125.5395" y="55.1879">*</text><text fill="#000000" font-family="sans-serif" font-size="13" lengthAdjust="spacing" textLength="7" x="49.618" y="170.6643">1</text><!--MD5=[c2c6b28b052a3fe86d789b83a09b2815]
link TestType to Test--><path codeLine="17" d="M215.16,55.18 C226,63.56 237.22,73.76 245.5,85 C279.33,130.96 292.5,147.43 292.5,204.5 C292.5,204.5 292.5,204.5 292.5,549 C292.5,584.09 279.05,619.98 263.39,649.88 " fill="none" id="TestType-Test" style="stroke:#A80036;stroke-width:1.0;"/><polygon fill="#000000" points="297.0958,396.1921,294.8977,405.4452,300.7563,404.9701,297.0958,396.1921" style="stroke:#000000;stroke-width:1.0;"/><text fill="#000000" font-family="sans-serif" font-size="13" lengthAdjust="spacing" textLength="24" x="306.5" y="406.4951">is of</text><text fill="#000000" font-family="sans-serif" font-size="13" lengthAdjust="spacing" textLength="7" x="215.999" y="76.5618">1</text><text fill="#000000" font-family="sans-serif" font-size="13" lengthAdjust="spacing" textLength="5" x="263.0708" y="639.087">*</text><!--MD5=[0985ee834cc881275852ed47ce1e01f6]
link TestType to Administrator--><path codeLine="19" d="M179.5,55.26 C179.5,75.22 179.5,105.07 179.5,132.84 " fill="none" id="TestType-Administrator" style="stroke:#A80036;stroke-width:1.0;"/><polygon fill="#000000" points="184.5,89.1758,181.5611,98.2209,187.4389,98.2209,184.5,89.1758" style="stroke:#000000;stroke-width:1.0;"/><text fill="#000000" font-family="sans-serif" font-size="13" lengthAdjust="spacing" textLength="43" x="193.5" y="99.4951">creates</text><text fill="#000000" font-family="sans-serif" font-size="13" lengthAdjust="spacing" textLength="5" x="173.8906" y="76.6613">*</text><text fill="#000000" font-family="sans-serif" font-size="13" lengthAdjust="spacing" textLength="7" x="172.1391" y="122.0428">1</text><!--MD5=[b9a7f80acf3af4c8a5a365cbe69aaec5]
@startuml

class Company
class Administrator
class Category
class Parameter
class TestType
class Test

Administrator "1" - - "*" Category : < created by

Category "1" - - "*" Parameter : < presented under

Parameter "1..*" - - "*" Test : < requests analysis of

TestType "*" - - "1" Company : < conducts

TestType "1" - - "*" Test: < is of

TestType "*" - - "1" Administrator : < creates

skinparam classAttributeIconSize 0

class Company{
}

class Administrator{
-name
-address
-phoneNumber
-employeeID
-orgRole
-email
-SOCcode
}

class Category{
-code
-description
-nhsID
}

class Parameter{
}

class TestType{
}

class Test{
-internalCode
-nhsCode
-collectMethod
-collectDateTime
-chemicalAnalysisDateTime
-diagnosisDateTime
-validationDateTime
}

@enduml

PlantUML version 1.2021.4(Sun Apr 04 09:49:39 BST 2021)
(GPL source distribution)
Java Runtime: OpenJDK Runtime Environment
JVM: OpenJDK 64-Bit Server VM
Default Encoding: Cp1252
Language: pt
Country: PT
--></g></svg>