<?xml version="1.0" encoding="UTF-8" standalone="no"?><svg xmlns="http://www.w3.org/2000/svg" xmlns:xlink="http://www.w3.org/1999/xlink" contentScriptType="application/ecmascript" contentStyleType="text/css" height="689px" preserveAspectRatio="none" style="width:1436px;height:689px;" version="1.1" viewBox="0 0 1436 689" width="1436px" zoomAndPan="magnify"><defs><filter height="300%" id="f1d1n74anvupgg" width="300%" x="-1" y="-1"><feGaussianBlur result="blurOut" stdDeviation="2.0"/><feColorMatrix in="blurOut" result="blurOut2" type="matrix" values="0 0 0 0 0 0 0 0 0 0 0 0 0 0 0 0 0 0 .4 0"/><feOffset dx="4.0" dy="4.0" in="blurOut2" result="blurOut3"/><feBlend in="SourceGraphic" in2="blurOut3" mode="normal"/></filter></defs><g><rect fill="#FFFFFF" filter="url(#f1d1n74anvupgg)" height="497.3477" style="stroke:#A80036;stroke-width:1.0;" width="10" x="50.5" y="98.4883"/><rect fill="#FFFFFF" filter="url(#f1d1n74anvupgg)" height="58.6211" style="stroke:#A80036;stroke-width:1.0;" width="10" x="1107.5" y="237.041"/><rect fill="#FFFFFF" filter="url(#f1d1n74anvupgg)" height="182.9316" style="stroke:#A80036;stroke-width:1.0;" width="10" x="1107.5" y="412.9043"/><rect fill="#FFFFFF" filter="url(#f1d1n74anvupgg)" height="28" style="stroke:#A80036;stroke-width:1.0;" width="10" x="1112.5" y="450.2148"/><rect fill="#FFFFFF" filter="url(#f1d1n74anvupgg)" height="28" style="stroke:#A80036;stroke-width:1.0;" width="10" x="1112.5" y="522.5254"/><line style="stroke:#A80036;stroke-width:1.0;stroke-dasharray:5.0,5.0;" x1="55" x2="55" y1="88.4883" y2="604.8359"/><line style="stroke:#A80036;stroke-width:1.0;stroke-dasharray:5.0,5.0;" x1="373" x2="373" y1="88.4883" y2="604.8359"/><line style="stroke:#A80036;stroke-width:1.0;stroke-dasharray:5.0,5.0;" x1="726" x2="726" y1="88.4883" y2="604.8359"/><line style="stroke:#A80036;stroke-width:1.0;stroke-dasharray:5.0,5.0;" x1="1112" x2="1112" y1="88.4883" y2="604.8359"/><line style="stroke:#A80036;stroke-width:1.0;stroke-dasharray:5.0,5.0;" x1="1352.5" x2="1352.5" y1="88.4883" y2="604.8359"/><text fill="#000000" font-family="sans-serif" font-size="14" lengthAdjust="spacing" textLength="95" x="5" y="85.5352">Administrator</text><ellipse cx="55.5" cy="15" fill="#FEFECE" filter="url(#f1d1n74anvupgg)" rx="8" ry="8" style="stroke:#A80036;stroke-width:2.0;"/><path d="M55.5,23 L55.5,50 M42.5,31 L68.5,31 M55.5,50 L42.5,65 M55.5,50 L68.5,65 " fill="none" filter="url(#f1d1n74anvupgg)" style="stroke:#A80036;stroke-width:2.0;"/><text fill="#000000" font-family="sans-serif" font-size="14" lengthAdjust="spacing" textLength="95" x="5" y="617.3711">Administrator</text><ellipse cx="55.5" cy="630.3242" fill="#FEFECE" filter="url(#f1d1n74anvupgg)" rx="8" ry="8" style="stroke:#A80036;stroke-width:2.0;"/><path d="M55.5,638.3242 L55.5,665.3242 M42.5,646.3242 L68.5,646.3242 M55.5,665.3242 L42.5,680.3242 M55.5,665.3242 L68.5,680.3242 " fill="none" filter="url(#f1d1n74anvupgg)" style="stroke:#A80036;stroke-width:2.0;"/><text fill="#000000" font-family="sans-serif" font-size="14" lengthAdjust="spacing" textLength="195" x="273" y="85.5352">:CreateParemeterCategoryUI</text><ellipse cx="373.5" cy="15" fill="#FEFECE" filter="url(#f1d1n74anvupgg)" rx="8" ry="8" style="stroke:#A80036;stroke-width:2.0;"/><path d="M373.5,23 L373.5,50 M360.5,31 L386.5,31 M373.5,50 L360.5,65 M373.5,50 L386.5,65 " fill="none" filter="url(#f1d1n74anvupgg)" style="stroke:#A80036;stroke-width:2.0;"/><text fill="#000000" font-family="sans-serif" font-size="14" lengthAdjust="spacing" textLength="195" x="273" y="617.3711">:CreateParemeterCategoryUI</text><ellipse cx="373.5" cy="630.3242" fill="#FEFECE" filter="url(#f1d1n74anvupgg)" rx="8" ry="8" style="stroke:#A80036;stroke-width:2.0;"/><path d="M373.5,638.3242 L373.5,665.3242 M360.5,646.3242 L386.5,646.3242 M373.5,665.3242 L360.5,680.3242 M373.5,665.3242 L386.5,680.3242 " fill="none" filter="url(#f1d1n74anvupgg)" style="stroke:#A80036;stroke-width:2.0;"/><text fill="#000000" font-family="sans-serif" font-size="14" lengthAdjust="spacing" textLength="251" x="598" y="85.5352">:CreateParemeterCategoryController</text><ellipse cx="726.5" cy="15" fill="#FEFECE" filter="url(#f1d1n74anvupgg)" rx="8" ry="8" style="stroke:#A80036;stroke-width:2.0;"/><path d="M726.5,23 L726.5,50 M713.5,31 L739.5,31 M726.5,50 L713.5,65 M726.5,50 L739.5,65 " fill="none" filter="url(#f1d1n74anvupgg)" style="stroke:#A80036;stroke-width:2.0;"/><text fill="#000000" font-family="sans-serif" font-size="14" lengthAdjust="spacing" textLength="251" x="598" y="617.3711">:CreateParemeterCategoryController</text><ellipse cx="726.5" cy="630.3242" fill="#FEFECE" filter="url(#f1d1n74anvupgg)" rx="8" ry="8" style="stroke:#A80036;stroke-width:2.0;"/><path d="M726.5,638.3242 L726.5,665.3242 M713.5,646.3242 L739.5,646.3242 M726.5,665.3242 L713.5,680.3242 M726.5,665.3242 L739.5,680.3242 " fill="none" filter="url(#f1d1n74anvupgg)" style="stroke:#A80036;stroke-width:2.0;"/><text fill="#000000" font-family="sans-serif" font-size="14" lengthAdjust="spacing" textLength="69" x="1075" y="85.5352">:Company</text><ellipse cx="1112.5" cy="15" fill="#FEFECE" filter="url(#f1d1n74anvupgg)" rx="8" ry="8" style="stroke:#A80036;stroke-width:2.0;"/><path d="M1112.5,23 L1112.5,50 M1099.5,31 L1125.5,31 M1112.5,50 L1099.5,65 M1112.5,50 L1125.5,65 " fill="none" filter="url(#f1d1n74anvupgg)" style="stroke:#A80036;stroke-width:2.0;"/><text fill="#000000" font-family="sans-serif" font-size="14" lengthAdjust="spacing" textLength="69" x="1075" y="617.3711">:Company</text><ellipse cx="1112.5" cy="630.3242" fill="#FEFECE" filter="url(#f1d1n74anvupgg)" rx="8" ry="8" style="stroke:#A80036;stroke-width:2.0;"/><path d="M1112.5,638.3242 L1112.5,665.3242 M1099.5,646.3242 L1125.5,646.3242 M1112.5,665.3242 L1099.5,680.3242 M1112.5,665.3242 L1125.5,680.3242 " fill="none" filter="url(#f1d1n74anvupgg)" style="stroke:#A80036;stroke-width:2.0;"/><text fill="#000000" font-family="sans-serif" font-size="14" lengthAdjust="spacing" textLength="160" x="1269.5" y="85.5352">pc: Paremeter Category</text><ellipse cx="1352.5" cy="15" fill="#FEFECE" filter="url(#f1d1n74anvupgg)" rx="8" ry="8" style="stroke:#A80036;stroke-width:2.0;"/><path d="M1352.5,23 L1352.5,50 M1339.5,31 L1365.5,31 M1352.5,50 L1339.5,65 M1352.5,50 L1365.5,65 " fill="none" filter="url(#f1d1n74anvupgg)" style="stroke:#A80036;stroke-width:2.0;"/><text fill="#000000" font-family="sans-serif" font-size="14" lengthAdjust="spacing" textLength="160" x="1269.5" y="617.3711">pc: Paremeter Category</text><ellipse cx="1352.5" cy="630.3242" fill="#FEFECE" filter="url(#f1d1n74anvupgg)" rx="8" ry="8" style="stroke:#A80036;stroke-width:2.0;"/><path d="M1352.5,638.3242 L1352.5,665.3242 M1339.5,646.3242 L1365.5,646.3242 M1352.5,665.3242 L1339.5,680.3242 M1352.5,665.3242 L1365.5,680.3242 " fill="none" filter="url(#f1d1n74anvupgg)" style="stroke:#A80036;stroke-width:2.0;"/><rect fill="#FFFFFF" filter="url(#f1d1n74anvupgg)" height="497.3477" style="stroke:#A80036;stroke-width:1.0;" width="10" x="50.5" y="98.4883"/><rect fill="#FFFFFF" filter="url(#f1d1n74anvupgg)" height="58.6211" style="stroke:#A80036;stroke-width:1.0;" width="10" x="1107.5" y="237.041"/><rect fill="#FFFFFF" filter="url(#f1d1n74anvupgg)" height="182.9316" style="stroke:#A80036;stroke-width:1.0;" width="10" x="1107.5" y="412.9043"/><rect fill="#FFFFFF" filter="url(#f1d1n74anvupgg)" height="28" style="stroke:#A80036;stroke-width:1.0;" width="10" x="1112.5" y="450.2148"/><rect fill="#FFFFFF" filter="url(#f1d1n74anvupgg)" height="28" style="stroke:#A80036;stroke-width:1.0;" width="10" x="1112.5" y="522.5254"/><polygon fill="#A80036" points="361.5,115.7988,371.5,119.7988,361.5,123.7988,365.5,119.7988" style="stroke:#A80036;stroke-width:1.0;"/><line style="stroke:#A80036;stroke-width:1.0;" x1="60.5" x2="367.5" y1="119.7988" y2="119.7988"/><text fill="#000000" font-family="sans-serif" font-size="13" font-weight="bold" lengthAdjust="spacing" textLength="9" x="67.5" y="115.0566">1</text><text fill="#000000" font-family="sans-serif" font-size="13" lengthAdjust="spacing" textLength="190" x="80.5" y="115.0566">starts new paremeter category</text><polygon fill="#A80036" points="71.5,145.1094,61.5,149.1094,71.5,153.1094,67.5,149.1094" style="stroke:#A80036;stroke-width:1.0;"/><line style="stroke:#A80036;stroke-width:1.0;stroke-dasharray:2.0,2.0;" x1="65.5" x2="372.5" y1="149.1094" y2="149.1094"/><text fill="#000000" font-family="sans-serif" font-size="13" font-weight="bold" lengthAdjust="spacing" textLength="9" x="77.5" y="144.3672">2</text><text fill="#000000" font-family="sans-serif" font-size="13" lengthAdjust="spacing" textLength="269" x="90.5" y="144.3672">request data (i.e., code, description, nhsId)</text><polygon fill="#A80036" points="361.5,174.4199,371.5,178.4199,361.5,182.4199,365.5,178.4199" style="stroke:#A80036;stroke-width:1.0;"/><line style="stroke:#A80036;stroke-width:1.0;" x1="60.5" x2="367.5" y1="178.4199" y2="178.4199"/><text fill="#000000" font-family="sans-serif" font-size="13" font-weight="bold" lengthAdjust="spacing" textLength="9" x="67.5" y="173.6777">3</text><text fill="#000000" font-family="sans-serif" font-size="13" lengthAdjust="spacing" textLength="131" x="80.5" y="173.6777">types requested data</text><polygon fill="#A80036" points="714.5,203.7305,724.5,207.7305,714.5,211.7305,718.5,207.7305" style="stroke:#A80036;stroke-width:1.0;"/><line style="stroke:#A80036;stroke-width:1.0;" x1="373.5" x2="720.5" y1="207.7305" y2="207.7305"/><text fill="#000000" font-family="sans-serif" font-size="13" font-weight="bold" lengthAdjust="spacing" textLength="9" x="380.5" y="202.9883">4</text><text fill="#000000" font-family="sans-serif" font-size="13" lengthAdjust="spacing" textLength="316" x="393.5" y="202.9883">createParemeterCategory(code, description, nhsId)</text><polygon fill="#A80036" points="1095.5,233.041,1105.5,237.041,1095.5,241.041,1099.5,237.041" style="stroke:#A80036;stroke-width:1.0;"/><line style="stroke:#A80036;stroke-width:1.0;" x1="726.5" x2="1101.5" y1="237.041" y2="237.041"/><text fill="#000000" font-family="sans-serif" font-size="13" font-weight="bold" lengthAdjust="spacing" textLength="9" x="733.5" y="232.2988">5</text><text fill="#000000" font-family="sans-serif" font-size="13" lengthAdjust="spacing" textLength="349" x="746.5" y="232.2988">pc = createParemeterCategory(code, description, nhsId)</text><polygon fill="#A80036" points="1340.5,262.3516,1350.5,266.3516,1340.5,270.3516,1344.5,266.3516" style="stroke:#A80036;stroke-width:1.0;"/><line style="stroke:#A80036;stroke-width:1.0;stroke-dasharray:2.0,2.0;" x1="1117.5" x2="1346.5" y1="266.3516" y2="266.3516"/><text fill="#000000" font-family="sans-serif" font-size="13" font-weight="bold" lengthAdjust="spacing" textLength="9" x="1124.5" y="261.6094">6</text><text fill="#000000" font-family="sans-serif" font-size="13" lengthAdjust="spacing" textLength="198" x="1137.5" y="261.6094">create(code, description, nhsId)</text><polygon fill="#A80036" points="1100.5,291.6621,1110.5,295.6621,1100.5,299.6621,1104.5,295.6621" style="stroke:#A80036;stroke-width:1.0;"/><line style="stroke:#A80036;stroke-width:1.0;" x1="726.5" x2="1106.5" y1="295.6621" y2="295.6621"/><text fill="#000000" font-family="sans-serif" font-size="13" font-weight="bold" lengthAdjust="spacing" textLength="9" x="733.5" y="290.9199">7</text><text fill="#000000" font-family="sans-serif" font-size="13" lengthAdjust="spacing" textLength="190" x="746.5" y="290.9199">validateParemeterCategory(pc)</text><polygon fill="#A80036" points="71.5,320.9727,61.5,324.9727,71.5,328.9727,67.5,324.9727" style="stroke:#A80036;stroke-width:1.0;"/><line style="stroke:#A80036;stroke-width:1.0;stroke-dasharray:2.0,2.0;" x1="65.5" x2="372.5" y1="324.9727" y2="324.9727"/><text fill="#000000" font-family="sans-serif" font-size="13" font-weight="bold" lengthAdjust="spacing" textLength="9" x="77.5" y="320.2305">8</text><text fill="#000000" font-family="sans-serif" font-size="13" lengthAdjust="spacing" textLength="276" x="90.5" y="320.2305">shows the data and requests a confirmation</text><polygon fill="#A80036" points="361.5,350.2832,371.5,354.2832,361.5,358.2832,365.5,354.2832" style="stroke:#A80036;stroke-width:1.0;"/><line style="stroke:#A80036;stroke-width:1.0;" x1="60.5" x2="367.5" y1="354.2832" y2="354.2832"/><text fill="#000000" font-family="sans-serif" font-size="13" font-weight="bold" lengthAdjust="spacing" textLength="9" x="67.5" y="349.541">9</text><text fill="#000000" font-family="sans-serif" font-size="13" lengthAdjust="spacing" textLength="111" x="80.5" y="349.541">confirms the data</text><polygon fill="#A80036" points="714.5,379.5938,724.5,383.5938,714.5,387.5938,718.5,383.5938" style="stroke:#A80036;stroke-width:1.0;"/><line style="stroke:#A80036;stroke-width:1.0;" x1="373.5" x2="720.5" y1="383.5938" y2="383.5938"/><text fill="#000000" font-family="sans-serif" font-size="13" font-weight="bold" lengthAdjust="spacing" textLength="18" x="380.5" y="378.8516">10</text><text fill="#000000" font-family="sans-serif" font-size="13" lengthAdjust="spacing" textLength="154" x="402.5" y="378.8516">saveParemeterCategory()</text><polygon fill="#A80036" points="1095.5,408.9043,1105.5,412.9043,1095.5,416.9043,1099.5,412.9043" style="stroke:#A80036;stroke-width:1.0;"/><line style="stroke:#A80036;stroke-width:1.0;" x1="726.5" x2="1101.5" y1="412.9043" y2="412.9043"/><text fill="#000000" font-family="sans-serif" font-size="13" font-weight="bold" lengthAdjust="spacing" textLength="18" x="733.5" y="408.1621">11</text><text fill="#000000" font-family="sans-serif" font-size="13" lengthAdjust="spacing" textLength="169" x="755.5" y="408.1621">saveParemeterCategory(pc)</text><line style="stroke:#A80036;stroke-width:1.0;" x1="1122.5" x2="1164.5" y1="442.2148" y2="442.2148"/><line style="stroke:#A80036;stroke-width:1.0;" x1="1164.5" x2="1164.5" y1="442.2148" y2="455.2148"/><line style="stroke:#A80036;stroke-width:1.0;" x1="1123.5" x2="1164.5" y1="455.2148" y2="455.2148"/><polygon fill="#A80036" points="1133.5,451.2148,1123.5,455.2148,1133.5,459.2148,1129.5,455.2148" style="stroke:#A80036;stroke-width:1.0;"/><text fill="#000000" font-family="sans-serif" font-size="13" font-weight="bold" lengthAdjust="spacing" textLength="18" x="1129.5" y="437.4727">12</text><text fill="#000000" font-family="sans-serif" font-size="13" lengthAdjust="spacing" textLength="190" x="1151.5" y="437.4727">validateParemeterCategory(pc)</text><line style="stroke:#A80036;stroke-width:1.0;" x1="1122.5" x2="1164.5" y1="514.5254" y2="514.5254"/><line style="stroke:#A80036;stroke-width:1.0;" x1="1164.5" x2="1164.5" y1="514.5254" y2="527.5254"/><line style="stroke:#A80036;stroke-width:1.0;" x1="1123.5" x2="1164.5" y1="527.5254" y2="527.5254"/><polygon fill="#A80036" points="1133.5,523.5254,1123.5,527.5254,1133.5,531.5254,1129.5,527.5254" style="stroke:#A80036;stroke-width:1.0;"/><text fill="#000000" font-family="sans-serif" font-size="13" font-weight="bold" lengthAdjust="spacing" textLength="18" x="1129.5" y="509.7832">13</text><text fill="#000000" font-family="sans-serif" font-size="13" lengthAdjust="spacing" textLength="164" x="1151.5" y="509.7832">addParemeterCategory(pc)</text><polygon fill="#A80036" points="71.5,582.8359,61.5,586.8359,71.5,590.8359,67.5,586.8359" style="stroke:#A80036;stroke-width:1.0;"/><line style="stroke:#A80036;stroke-width:1.0;stroke-dasharray:2.0,2.0;" x1="65.5" x2="372.5" y1="586.8359" y2="586.8359"/><text fill="#000000" font-family="sans-serif" font-size="13" font-weight="bold" lengthAdjust="spacing" textLength="18" x="77.5" y="582.0938">14</text><text fill="#000000" font-family="sans-serif" font-size="13" lengthAdjust="spacing" textLength="167" x="99.5" y="582.0938">informs operation success</text><!--MD5=[182d1b6aabb3fdd4406fdb8f36fffc4b]
@startuml
'https://plantuml.com/sequence-diagram

autonumber
actor "Administrator" as A
activate A
actor ":CreateParemeterCategoryUI" as CPCUI
actor ":CreateParemeterCategoryController" as CPCC
actor ":Company" as COMP
actor "pc: Paremeter Category" as PC

A -> CPCUI : starts new paremeter category
CPCUI - -> A: request data (i.e., code, description, nhsId)
A -> CPCUI : types requested data
CPCUI -> CPCC: createParemeterCategory(code, description, nhsId)
CPCC -> COMP : pc = createParemeterCategory(code, description, nhsId)
activate COMP
COMP - -> PC: create(code, description, nhsId)
CPCC -> COMP : validateParemeterCategory(pc)
deactivate COMP
CPCUI - -> A: shows the data and requests a confirmation
A -> CPCUI: confirms the data
CPCUI -> CPCC: saveParemeterCategory()
CPCC -> COMP ++: saveParemeterCategory(pc)

COMP -> COMP: validateParemeterCategory(pc)
activate COMP
deactivate COMP
COMP -> COMP: addParemeterCategory(pc)
activate COMP
deactivate COMP
CPCUI - -> A: informs operation success

@enduml

@startuml

autonumber
actor "Administrator" as A
activate A
actor ":CreateParemeterCategoryUI" as CPCUI
actor ":CreateParemeterCategoryController" as CPCC
actor ":Company" as COMP
actor "pc: Paremeter Category" as PC

A -> CPCUI : starts new paremeter category
CPCUI - -> A: request data (i.e., code, description, nhsId)
A -> CPCUI : types requested data
CPCUI -> CPCC: createParemeterCategory(code, description, nhsId)
CPCC -> COMP : pc = createParemeterCategory(code, description, nhsId)
activate COMP
COMP - -> PC: create(code, description, nhsId)
CPCC -> COMP : validateParemeterCategory(pc)
deactivate COMP
CPCUI - -> A: shows the data and requests a confirmation
A -> CPCUI: confirms the data
CPCUI -> CPCC: saveParemeterCategory()
CPCC -> COMP ++: saveParemeterCategory(pc)

COMP -> COMP: validateParemeterCategory(pc)
activate COMP
deactivate COMP
COMP -> COMP: addParemeterCategory(pc)
activate COMP
deactivate COMP
CPCUI - -> A: informs operation success

@enduml

PlantUML version 1.2021.4(Sun Apr 04 09:49:39 WEST 2021)
(GPL source distribution)
Java Runtime: OpenJDK Runtime Environment
JVM: OpenJDK 64-Bit Server VM
Default Encoding: UTF-8
Language: pt
Country: PT
--></g></svg>