<?xml version="1.0" encoding="UTF-8" standalone="no"?><svg xmlns="http://www.w3.org/2000/svg" xmlns:xlink="http://www.w3.org/1999/xlink" contentScriptType="application/ecmascript" contentStyleType="text/css" height="1452px" preserveAspectRatio="none" style="width:603px;height:1452px;" version="1.1" viewBox="0 0 603 1452" width="603px" zoomAndPan="magnify"><defs><filter height="300%" id="f5t1p8uzumjbu" width="300%" x="-1" y="-1"><feGaussianBlur result="blurOut" stdDeviation="2.0"/><feColorMatrix in="blurOut" result="blurOut2" type="matrix" values="0 0 0 0 0 0 0 0 0 0 0 0 0 0 0 0 0 0 .4 0"/><feOffset dx="4.0" dy="4.0" in="blurOut2" result="blurOut3"/><feBlend in="SourceGraphic" in2="blurOut3" mode="normal"/></filter></defs><g><ellipse cx="403.3167" cy="1331.8633" fill="#FEFECE" filter="url(#f5t1p8uzumjbu)" rx="117.3167" ry="25.8633" style="stroke:#A80036;stroke-width:1.5;"/><text fill="#000000" font-family="sans-serif" font-size="14" lengthAdjust="spacing" textLength="199" x="303.8167" y="1335.5919">UC1 - Get registered as a client</text><ellipse cx="403.7046" cy="1416.9409" fill="#FEFECE" filter="url(#f5t1p8uzumjbu)" rx="107.7046" ry="23.9409" style="stroke:#A80036;stroke-width:1.5;"/><text fill="#000000" font-family="sans-serif" font-size="14" lengthAdjust="spacing" textLength="178" x="314.7046" y="1420.6694">UC2 - Quick blood/swab test</text><ellipse cx="403.5397" cy="1114.8079" fill="#FEFECE" filter="url(#f5t1p8uzumjbu)" rx="104.5397" ry="23.3079" style="stroke:#A80036;stroke-width:1.5;"/><text fill="#000000" font-family="sans-serif" font-size="14" lengthAdjust="spacing" textLength="171" x="318.0397" y="1118.5365">UC3 - Register a new client</text><ellipse cx="403.5554" cy="1209.1111" fill="#FEFECE" filter="url(#f5t1p8uzumjbu)" rx="166.0554" ry="35.6111" style="stroke:#A80036;stroke-width:1.5;"/><text fill="#000000" font-family="sans-serif" font-size="14" lengthAdjust="spacing" textLength="302" x="252.5554" y="1212.8396">UC4 - Register a test to be performed to a client</text><ellipse cx="403.29" cy="940.158" fill="#FEFECE" filter="url(#f5t1p8uzumjbu)" rx="131.29" ry="28.658" style="stroke:#A80036;stroke-width:1.5;"/><text fill="#000000" font-family="sans-serif" font-size="14" lengthAdjust="spacing" textLength="229" x="288.79" y="943.8865">UC5 - Record collected test samples</text><ellipse cx="403.665" cy="1030.233" fill="#FEFECE" filter="url(#f5t1p8uzumjbu)" rx="119.165" ry="26.233" style="stroke:#A80036;stroke-width:1.5;"/><text fill="#000000" font-family="sans-serif" font-size="14" lengthAdjust="spacing" textLength="203" x="302.165" y="1033.9615">UC6 - Associate sample to client</text><ellipse cx="403.3753" cy="743.1751" fill="#FEFECE" filter="url(#f5t1p8uzumjbu)" rx="93.8753" ry="21.1751" style="stroke:#A80036;stroke-width:1.5;"/><text fill="#000000" font-family="sans-serif" font-size="14" lengthAdjust="spacing" textLength="147" x="329.8753" y="746.9036">UC7 - Receive samples</text><ellipse cx="403.5759" cy="837.8152" fill="#FEFECE" filter="url(#f5t1p8uzumjbu)" rx="179.5759" ry="38.3152" style="stroke:#A80036;stroke-width:1.5;"/><text fill="#000000" font-family="sans-serif" font-size="14" lengthAdjust="spacing" textLength="330" x="238.5759" y="841.5437">UC8 - Perform chemical analysis and register results</text><ellipse cx="403.3053" cy="441.0611" fill="#FEFECE" filter="url(#f5t1p8uzumjbu)" rx="188.3053" ry="40.0611" style="stroke:#A80036;stroke-width:1.5;"/><text fill="#000000" font-family="sans-serif" font-size="14" lengthAdjust="spacing" textLength="348" x="229.3053" y="444.7896">UC9 - Specify new type of test (and collecting methods)</text><ellipse cx="403.306" cy="552.9612" fill="#FEFECE" filter="url(#f5t1p8uzumjbu)" rx="172.806" ry="36.9612" style="stroke:#A80036;stroke-width:1.5;"/><text fill="#000000" font-family="sans-serif" font-size="14" lengthAdjust="spacing" textLength="316" x="245.306" y="556.6897">UC10 - Specify and categorize new test parameter</text><ellipse cx="403.6734" cy="656.2347" fill="#FEFECE" filter="url(#f5t1p8uzumjbu)" rx="141.6734" ry="30.7347" style="stroke:#A80036;stroke-width:1.5;"/><text fill="#000000" font-family="sans-serif" font-size="14" lengthAdjust="spacing" textLength="251" x="278.1734" y="659.9632">UC11 - Specify new parameter category</text><ellipse cx="403.4235" cy="254.1847" fill="#FEFECE" filter="url(#f5t1p8uzumjbu)" rx="146.4235" ry="31.6847" style="stroke:#A80036;stroke-width:1.5;"/><text fill="#000000" font-family="sans-serif" font-size="14" lengthAdjust="spacing" textLength="261" x="272.9235" y="257.9132">UC12 - Make diagnosis and write a report</text><ellipse cx="403.5583" cy="342.9117" fill="#FEFECE" filter="url(#f5t1p8uzumjbu)" rx="100.0583" ry="22.4117" style="stroke:#A80036;stroke-width:1.5;"/><text fill="#000000" font-family="sans-serif" font-size="14" lengthAdjust="spacing" textLength="161" x="323.0583" y="346.6402">UC13 - Check test results</text><ellipse cx="403.4905" cy="163.8981" fill="#FEFECE" filter="url(#f5t1p8uzumjbu)" rx="104.9905" ry="23.3981" style="stroke:#A80036;stroke-width:1.5;"/><text fill="#000000" font-family="sans-serif" font-size="14" lengthAdjust="spacing" textLength="172" x="317.4905" y="167.6266">UC14 - Validate test results</text><ellipse cx="403.6774" cy="46.0355" fill="#FEFECE" filter="url(#f5t1p8uzumjbu)" rx="113.1774" ry="25.0355" style="stroke:#A80036;stroke-width:1.5;"/><text fill="#000000" font-family="sans-serif" font-size="14" lengthAdjust="spacing" textLength="190" x="308.6774" y="49.764">UC15 - Generate daily reports</text><!--MD5=[16fab723be418f7eaf2ea4bd895a8e51]
entity C--><ellipse cx="80.5" cy="1314" fill="#FEFECE" filter="url(#f5t1p8uzumjbu)" rx="8" ry="8" style="stroke:#A80036;stroke-width:1.5;"/><path d="M80.5,1322 L80.5,1349 M67.5,1330 L93.5,1330 M80.5,1349 L67.5,1364 M80.5,1349 L93.5,1364 " fill="none" filter="url(#f5t1p8uzumjbu)" style="stroke:#A80036;stroke-width:1.5;"/><text fill="#000000" font-family="sans-serif" font-size="14" lengthAdjust="spacing" textLength="36" x="62.5" y="1384.0332">Client</text><!--MD5=[e6f50d5c7be293f9ad4811f22e771899]
entity RCP--><ellipse cx="80.5" cy="1164" fill="#FEFECE" filter="url(#f5t1p8uzumjbu)" rx="8" ry="8" style="stroke:#A80036;stroke-width:1.5;"/><path d="M80.5,1172 L80.5,1199 M67.5,1180 L93.5,1180 M80.5,1199 L67.5,1214 M80.5,1199 L93.5,1214 " fill="none" filter="url(#f5t1p8uzumjbu)" style="stroke:#A80036;stroke-width:1.5;"/><text fill="#000000" font-family="sans-serif" font-size="14" lengthAdjust="spacing" textLength="78" x="41.5" y="1234.0332">Receptionist</text><!--MD5=[e7d38603a700bedb049d1f5e1789c8aa]
entity MLT--><ellipse cx="80.5" cy="961" fill="#FEFECE" filter="url(#f5t1p8uzumjbu)" rx="8" ry="8" style="stroke:#A80036;stroke-width:1.5;"/><path d="M80.5,969 L80.5,996 M67.5,977 L93.5,977 M80.5,996 L67.5,1011 M80.5,996 L93.5,1011 " fill="none" filter="url(#f5t1p8uzumjbu)" style="stroke:#A80036;stroke-width:1.5;"/><text fill="#000000" font-family="sans-serif" font-size="14" lengthAdjust="spacing" textLength="149" x="6" y="1031.0332">Medical Lab Technician</text><!--MD5=[87439e3fb2bd72484276c19727d934ee]
entity CT--><ellipse cx="80.5" cy="759" fill="#FEFECE" filter="url(#f5t1p8uzumjbu)" rx="8" ry="8" style="stroke:#A80036;stroke-width:1.5;"/><path d="M80.5,767 L80.5,794 M67.5,775 L93.5,775 M80.5,794 L67.5,809 M80.5,794 L93.5,809 " fill="none" filter="url(#f5t1p8uzumjbu)" style="stroke:#A80036;stroke-width:1.5;"/><text fill="#000000" font-family="sans-serif" font-size="14" lengthAdjust="spacing" textLength="148" x="6.5" y="829.0332">Chemistry Technologist</text><!--MD5=[f0e91d5aa74c2411969e7ef072c6f268]
entity SD--><ellipse cx="80.5" cy="281" fill="#FEFECE" filter="url(#f5t1p8uzumjbu)" rx="8" ry="8" style="stroke:#A80036;stroke-width:1.5;"/><path d="M80.5,289 L80.5,316 M67.5,297 L93.5,297 M80.5,316 L67.5,331 M80.5,316 L93.5,331 " fill="none" filter="url(#f5t1p8uzumjbu)" style="stroke:#A80036;stroke-width:1.5;"/><text fill="#000000" font-family="sans-serif" font-size="14" lengthAdjust="spacing" textLength="106" x="27.5" y="351.0332">Specialist Doctor</text><!--MD5=[b0100dfa164aec77c855c16afe11d7ec]
entity LC--><ellipse cx="80.5" cy="132" fill="#FEFECE" filter="url(#f5t1p8uzumjbu)" rx="8" ry="8" style="stroke:#A80036;stroke-width:1.5;"/><path d="M80.5,140 L80.5,167 M67.5,148 L93.5,148 M80.5,167 L67.5,182 M80.5,167 L93.5,182 " fill="none" filter="url(#f5t1p8uzumjbu)" style="stroke:#A80036;stroke-width:1.5;"/><text fill="#000000" font-family="sans-serif" font-size="14" lengthAdjust="spacing" textLength="148" x="6.5" y="202.0332">Laboratory Coordinator</text><!--MD5=[5bb58f447e60c14e9d23282c6a4405f4]
entity ADM--><ellipse cx="80.5" cy="521" fill="#FEFECE" filter="url(#f5t1p8uzumjbu)" rx="8" ry="8" style="stroke:#A80036;stroke-width:1.5;"/><path d="M80.5,529 L80.5,556 M67.5,537 L93.5,537 M80.5,556 L67.5,571 M80.5,556 L93.5,571 " fill="none" filter="url(#f5t1p8uzumjbu)" style="stroke:#A80036;stroke-width:1.5;"/><text fill="#000000" font-family="sans-serif" font-size="14" lengthAdjust="spacing" textLength="83" x="39" y="591.0332">Administrator</text><!--MD5=[c6ddddda358f072e4f19aa798de5fbe9]
entity TM--><ellipse cx="80.5" cy="14" fill="#FEFECE" filter="url(#f5t1p8uzumjbu)" rx="8" ry="8" style="stroke:#A80036;stroke-width:1.5;"/><path d="M80.5,22 L80.5,49 M67.5,30 L93.5,30 M80.5,49 L67.5,64 M80.5,49 L93.5,64 " fill="none" filter="url(#f5t1p8uzumjbu)" style="stroke:#A80036;stroke-width:1.5;"/><text fill="#000000" font-family="sans-serif" font-size="14" lengthAdjust="spacing" textLength="36" x="62.5" y="84.0332">Timer</text><!--MD5=[9030d6887516f535981585d735d1cddc]
link C to UC1--><path d="M98.76,1345.25 C133.22,1343.74 213.19,1340.26 282.42,1337.24 " fill="none" id="C-to-UC1" style="stroke:#A80036;stroke-width:1.0;"/><polygon fill="#A80036" points="287.81,1337,278.647,1333.389,282.8146,1337.2141,278.9895,1341.3817,287.81,1337" style="stroke:#A80036;stroke-width:1.0;"/><!--MD5=[b5354e77eeaec3a5c0a143f734fe5382]
link C to UC2--><path d="M98.77,1349.92 C124.21,1355.67 173.25,1366.75 215,1376 C249.58,1383.67 287.78,1392.04 320.62,1399.2 " fill="none" id="C-to-UC2" style="stroke:#A80036;stroke-width:1.0;"/><polygon fill="#A80036" points="325.85,1400.34,317.9157,1394.505,320.9661,1399.269,316.2021,1402.3193,325.85,1400.34" style="stroke:#A80036;stroke-width:1.0;"/><!--MD5=[94236bf45e65b545fd636a3fed1d335b]
link RCP to UC3--><path d="M119.55,1183.76 C146.14,1175.41 182.56,1164.39 215,1156 C249.14,1147.17 287.1,1138.63 319.89,1131.65 " fill="none" id="RCP-to-UC3" style="stroke:#A80036;stroke-width:1.0;"/><polygon fill="#A80036" points="325.1,1130.55,315.4702,1128.4842,320.2066,1131.5772,317.1137,1136.3136,325.1,1130.55" style="stroke:#A80036;stroke-width:1.0;"/><!--MD5=[ebe511c10220804a2c21382879e85e27]
link RCP to UC4--><path d="M119.58,1197.54 C148.93,1198.73 191.71,1200.46 235.16,1202.22 " fill="none" id="RCP-to-UC4" style="stroke:#A80036;stroke-width:1.0;"/><polygon fill="#A80036" points="240.19,1202.43,231.3701,1198.0472,235.1946,1202.2153,231.0265,1206.0398,240.19,1202.43" style="stroke:#A80036;stroke-width:1.0;"/><!--MD5=[2ed272b7ba05c8a563a77b8cf4dc3c7b]
link MLT to UC5--><path d="M155.14,980.84 C196.13,974.07 247.93,965.52 293.53,957.99 " fill="none" id="MLT-to-UC5" style="stroke:#A80036;stroke-width:1.0;"/><polygon fill="#A80036" points="298.48,957.17,288.9495,954.6861,293.5465,957.9827,290.2499,962.5797,298.48,957.17" style="stroke:#A80036;stroke-width:1.0;"/><!--MD5=[f50825f9f8e4609eaac7d5f35ca4d631]
link MLT to UC6--><path d="M155.14,1001.49 C195.87,1006.18 247.27,1012.11 292.65,1017.34 " fill="none" id="MLT-to-UC6" style="stroke:#A80036;stroke-width:1.0;"/><polygon fill="#A80036" points="297.87,1017.94,289.3998,1012.9144,292.9043,1017.355,288.4638,1020.8595,297.87,1017.94" style="stroke:#A80036;stroke-width:1.0;"/><!--MD5=[1f43a6894f19c1355b6a2606dda9eddc]
link CT to UC7--><path d="M154.74,780.05 C203.85,772.7 268.61,763.02 319.61,755.39 " fill="none" id="CT-to-UC7" style="stroke:#A80036;stroke-width:1.0;"/><polygon fill="#A80036" points="324.81,754.62,315.3155,752.002,319.8655,755.3631,316.5044,759.9132,324.81,754.62" style="stroke:#A80036;stroke-width:1.0;"/><!--MD5=[f1634b4d1e58b863690c36f4318e9556]
link CT to UC8--><path d="M154.74,801.72 C183.02,805.86 216.49,810.76 249.53,815.6 " fill="none" id="CT-to-UC8" style="stroke:#A80036;stroke-width:1.0;"/><polygon fill="#A80036" points="254.83,816.38,246.5073,811.1138,249.8831,815.6529,245.344,819.0288,254.83,816.38" style="stroke:#A80036;stroke-width:1.0;"/><!--MD5=[b228c7a7ebb1dc8ed63dbccd84ede524]
link ADM to UC9--><path d="M122.06,535.56 C148.34,524.51 183.44,510.24 215,499 C238.32,490.69 263.51,482.43 287.62,474.85 " fill="none" id="ADM-to-UC9" style="stroke:#A80036;stroke-width:1.0;"/><polygon fill="#A80036" points="292.43,473.35,282.6477,472.2065,287.6561,474.8365,285.0261,479.8448,292.43,473.35" style="stroke:#A80036;stroke-width:1.0;"/><!--MD5=[f2aeeef0e7f82e4bd55d88af897bea0b]
link ADM to UC10--><path d="M122.15,553 C149.04,553 186.34,553 224.98,553 " fill="none" id="ADM-to-UC10" style="stroke:#A80036;stroke-width:1.0;"/><polygon fill="#A80036" points="230.19,553,221.19,549,225.19,553,221.19,557,230.19,553" style="stroke:#A80036;stroke-width:1.0;"/><!--MD5=[09c8f0596f04e0f1f852d912de51c40d]
link ADM to UC11--><path d="M122.13,571.48 C148.3,582.95 183.24,597.45 215,608 C242.32,617.07 272.35,625.45 300.22,632.58 " fill="none" id="ADM-to-UC11" style="stroke:#A80036;stroke-width:1.0;"/><polygon fill="#A80036" points="305.4,633.9,297.6599,627.8097,300.5535,632.6705,295.6927,635.5641,305.4,633.9" style="stroke:#A80036;stroke-width:1.0;"/><!--MD5=[6ca0ef08659782dcef224c552a8dba3b]
link SD to UC12--><path d="M133.79,303.39 C175.09,295.8 234.3,284.92 286.62,275.3 " fill="none" id="SD-to-UC12" style="stroke:#A80036;stroke-width:1.0;"/><polygon fill="#A80036" points="291.66,274.37,282.0879,272.0518,286.7413,275.2682,283.525,279.9217,291.66,274.37" style="stroke:#A80036;stroke-width:1.0;"/><!--MD5=[c0fa65b284683212cbcc65c980a35f0c]
link SD to UC13--><path d="M133.79,317.89 C180.26,322.23 249.4,328.69 305.9,333.97 " fill="none" id="SD-to-UC13" style="stroke:#A80036;stroke-width:1.0;"/><polygon fill="#A80036" points="310.98,334.45,302.3978,329.6182,306.0023,333.978,301.6426,337.5825,310.98,334.45" style="stroke:#A80036;stroke-width:1.0;"/><!--MD5=[33e5d6a9e88c3c015deddac573632067]
link LC to UC14--><path d="M154.74,164 C195.63,164 247.38,164 292.99,164 " fill="none" id="LC-to-UC14" style="stroke:#A80036;stroke-width:1.0;"/><polygon fill="#A80036" points="298.24,164,289.24,160,293.24,164,289.24,168,298.24,164" style="stroke:#A80036;stroke-width:1.0;"/><!--MD5=[f8301637d47fb171a7555e6d42fbb80f]
link TM to UC15--><path d="M98.76,46 C133.67,46 215.28,46 285.13,46 " fill="none" id="TM-to-UC15" style="stroke:#A80036;stroke-width:1.0;"/><polygon fill="#A80036" points="290.14,46,281.14,42,285.14,46,281.14,50,290.14,46" style="stroke:#A80036;stroke-width:1.0;"/><!--MD5=[ac39d0bc00ef43a9b8aa8ae2139c8cf8]
@startuml

usecase UC1 as "UC1 - Get registered as a client"
usecase UC2 as "UC2 - Quick blood/swab test"
usecase UC3 as "UC3 - Register a new client"
usecase UC4 as "UC4 - Register a test to be performed to a client"
usecase UC5 as "UC5 - Record collected test samples"
usecase UC6 as "UC6 - Associate sample to client"
usecase UC7 as "UC7 - Receive samples"
usecase UC8 as "UC8 - Perform chemical analysis and register results"
usecase UC9 as "UC9 - Specify new type of test (and collecting methods)"
usecase UC10 as "UC10 - Specify and categorize new test parameter"
usecase UC11 as "UC11 - Specify new parameter category"
usecase UC12 as "UC12 - Make diagnosis and write a report"
usecase UC13 as "UC13 - Check test results"
usecase UC14 as "UC14 - Validate test results"
usecase UC15 as "UC15 - Generate daily reports"


actor "Client" as C
actor "Receptionist" as RCP
actor "Medical Lab Technician" as MLT
actor "Chemistry Technologist" as CT
actor "Specialist Doctor" as SD
actor "Laboratory Coordinator" as LC
actor "Administrator" as ADM
actor "Timer" as TM


left to right direction

C - ->(UC1)
C - ->(UC2)

RCP - ->(UC3)
RCP - ->(UC4)

MLT - ->(UC5)
MLT - ->(UC6)

CT - ->(UC7)
CT - ->(UC8)

ADM - ->(UC9)
ADM - ->(UC10)
ADM - ->(UC11)

SD - ->(UC12)
SD - ->(UC13)

LC- -> (UC14)

TM - -> (UC15)

@enduml

PlantUML version 1.2021.4(Sun Apr 04 09:49:39 BST 2021)
(GPL source distribution)
Java Runtime: OpenJDK Runtime Environment
JVM: OpenJDK 64-Bit Server VM
Default Encoding: Cp1252
Language: pt
Country: PT
--></g></svg>