<?xml version="1.0" encoding="UTF-8" standalone="no"?><svg xmlns="http://www.w3.org/2000/svg" xmlns:xlink="http://www.w3.org/1999/xlink" contentScriptType="application/ecmascript" contentStyleType="text/css" height="158px" preserveAspectRatio="none" style="width:1028px;height:158px;" version="1.1" viewBox="0 0 1028 158" width="1028px" zoomAndPan="magnify"><defs><filter height="300%" id="f10maxzn2p6knv" width="300%" x="-1" y="-1"><feGaussianBlur result="blurOut" stdDeviation="2.0"/><feColorMatrix in="blurOut" result="blurOut2" type="matrix" values="0 0 0 0 0 0 0 0 0 0 0 0 0 0 0 0 0 0 .4 0"/><feOffset dx="4.0" dy="4.0" in="blurOut2" result="blurOut3"/><feBlend in="SourceGraphic" in2="blurOut3" mode="normal"/></filter></defs><g><!--MD5=[02e4b9b7573f1156f41e60aa5b4e25a4]
class Company--><rect codeLine="2" fill="#FEFECE" filter="url(#f10maxzn2p6knv)" height="60.8047" id="Company" style="stroke:#A80036;stroke-width:1.5;" width="89" x="7" y="45.5"/><ellipse cx="22" cy="61.5" fill="#ADD1B2" rx="11" ry="11" style="stroke:#A80036;stroke-width:1.0;"/><path d="M24.9688,67.1406 Q24.3906,67.4375 23.75,67.5781 Q23.1094,67.7344 22.4063,67.7344 Q19.9063,67.7344 18.5781,66.0938 Q17.2656,64.4375 17.2656,61.3125 Q17.2656,58.1875 18.5781,56.5313 Q19.9063,54.875 22.4063,54.875 Q23.1094,54.875 23.75,55.0313 Q24.4063,55.1875 24.9688,55.4844 L24.9688,58.2031 Q24.3438,57.625 23.75,57.3594 Q23.1563,57.0781 22.5313,57.0781 Q21.1875,57.0781 20.5,58.1563 Q19.8125,59.2188 19.8125,61.3125 Q19.8125,63.4063 20.5,64.4844 Q21.1875,65.5469 22.5313,65.5469 Q23.1563,65.5469 23.75,65.2813 Q24.3438,65 24.9688,64.4219 L24.9688,67.1406 Z " fill="#000000"/><text fill="#000000" font-family="sans-serif" font-size="12" lengthAdjust="spacingAndGlyphs" textLength="57" x="36" y="65.6543">Company</text><line style="stroke:#A80036;stroke-width:1.5;" x1="8" x2="95" y1="77.5" y2="77.5"/><text fill="#000000" font-family="sans-serif" font-size="11" lengthAdjust="spacingAndGlyphs" textLength="70" x="13" y="91.7104">-designation</text><line style="stroke:#A80036;stroke-width:1.5;" x1="8" x2="95" y1="98.3047" y2="98.3047"/><!--MD5=[df38be88ccee13e832d6fafd6288a4ca]
class Test--><rect codeLine="5" fill="#FEFECE" filter="url(#f10maxzn2p6knv)" height="137.6328" id="Test" style="stroke:#A80036;stroke-width:1.5;" width="167" x="203" y="7"/><ellipse cx="268.75" cy="23" fill="#ADD1B2" rx="11" ry="11" style="stroke:#A80036;stroke-width:1.0;"/><path d="M271.7188,28.6406 Q271.1406,28.9375 270.5,29.0781 Q269.8594,29.2344 269.1563,29.2344 Q266.6563,29.2344 265.3281,27.5938 Q264.0156,25.9375 264.0156,22.8125 Q264.0156,19.6875 265.3281,18.0313 Q266.6563,16.375 269.1563,16.375 Q269.8594,16.375 270.5,16.5313 Q271.1563,16.6875 271.7188,16.9844 L271.7188,19.7031 Q271.0938,19.125 270.5,18.8594 Q269.9063,18.5781 269.2813,18.5781 Q267.9375,18.5781 267.25,19.6563 Q266.5625,20.7188 266.5625,22.8125 Q266.5625,24.9063 267.25,25.9844 Q267.9375,27.0469 269.2813,27.0469 Q269.9063,27.0469 270.5,26.7813 Q271.0938,26.5 271.7188,25.9219 L271.7188,28.6406 Z " fill="#000000"/><text fill="#000000" font-family="sans-serif" font-size="12" lengthAdjust="spacingAndGlyphs" textLength="27" x="289.25" y="27.1543">Test</text><line style="stroke:#A80036;stroke-width:1.5;" x1="204" x2="369" y1="39" y2="39"/><text fill="#000000" font-family="sans-serif" font-size="11" lengthAdjust="spacingAndGlyphs" textLength="67" x="209" y="53.2104">-description</text><text fill="#000000" font-family="sans-serif" font-size="11" lengthAdjust="spacingAndGlyphs" textLength="53" x="209" y="66.0151">-testcode</text><text fill="#000000" font-family="sans-serif" font-size="11" lengthAdjust="spacingAndGlyphs" textLength="54" x="209" y="78.8198">-nhsCode</text><text fill="#000000" font-family="sans-serif" font-size="11" lengthAdjust="spacingAndGlyphs" textLength="94" x="209" y="91.6245">-collectDateTime</text><text fill="#000000" font-family="sans-serif" font-size="11" lengthAdjust="spacingAndGlyphs" textLength="155" x="209" y="104.4292">-chemicalAnalysisDateTime</text><text fill="#000000" font-family="sans-serif" font-size="11" lengthAdjust="spacingAndGlyphs" textLength="106" x="209" y="117.2339">-dianosisDateTime</text><text fill="#000000" font-family="sans-serif" font-size="11" lengthAdjust="spacingAndGlyphs" textLength="112" x="209" y="130.0386">-validationDateTime</text><line style="stroke:#A80036;stroke-width:1.5;" x1="204" x2="369" y1="136.6328" y2="136.6328"/><!--MD5=[2741598bdf59a7d7e0d5c97658fd3022]
class Result--><rect codeLine="14" fill="#FEFECE" filter="url(#f10maxzn2p6knv)" height="48" id="Result" style="stroke:#A80036;stroke-width:1.5;" width="71" x="443" y="52"/><ellipse cx="458" cy="68" fill="#ADD1B2" rx="11" ry="11" style="stroke:#A80036;stroke-width:1.0;"/><path d="M460.9688,73.6406 Q460.3906,73.9375 459.75,74.0781 Q459.1094,74.2344 458.4063,74.2344 Q455.9063,74.2344 454.5781,72.5938 Q453.2656,70.9375 453.2656,67.8125 Q453.2656,64.6875 454.5781,63.0313 Q455.9063,61.375 458.4063,61.375 Q459.1094,61.375 459.75,61.5313 Q460.4063,61.6875 460.9688,61.9844 L460.9688,64.7031 Q460.3438,64.125 459.75,63.8594 Q459.1563,63.5781 458.5313,63.5781 Q457.1875,63.5781 456.5,64.6563 Q455.8125,65.7188 455.8125,67.8125 Q455.8125,69.9063 456.5,70.9844 Q457.1875,72.0469 458.5313,72.0469 Q459.1563,72.0469 459.75,71.7813 Q460.3438,71.5 460.9688,70.9219 L460.9688,73.6406 Z " fill="#000000"/><text fill="#000000" font-family="sans-serif" font-size="12" lengthAdjust="spacingAndGlyphs" textLength="39" x="472" y="72.1543">Result</text><line style="stroke:#A80036;stroke-width:1.5;" x1="444" x2="513" y1="84" y2="84"/><line style="stroke:#A80036;stroke-width:1.5;" x1="444" x2="513" y1="92" y2="92"/><!--MD5=[7d96fd15f3014691d2fcaf89c5791e2a]
class SpecialistDoctor--><rect codeLine="15" fill="#FEFECE" filter="url(#f10maxzn2p6knv)" height="60.8047" id="SpecialistDoctor" style="stroke:#A80036;stroke-width:1.5;" width="134" x="639.5" y="45.5"/><ellipse cx="654.5" cy="61.5" fill="#ADD1B2" rx="11" ry="11" style="stroke:#A80036;stroke-width:1.0;"/><path d="M657.4688,67.1406 Q656.8906,67.4375 656.25,67.5781 Q655.6094,67.7344 654.9063,67.7344 Q652.4063,67.7344 651.0781,66.0938 Q649.7656,64.4375 649.7656,61.3125 Q649.7656,58.1875 651.0781,56.5313 Q652.4063,54.875 654.9063,54.875 Q655.6094,54.875 656.25,55.0313 Q656.9063,55.1875 657.4688,55.4844 L657.4688,58.2031 Q656.8438,57.625 656.25,57.3594 Q655.6563,57.0781 655.0313,57.0781 Q653.6875,57.0781 653,58.1563 Q652.3125,59.2188 652.3125,61.3125 Q652.3125,63.4063 653,64.4844 Q653.6875,65.5469 655.0313,65.5469 Q655.6563,65.5469 656.25,65.2813 Q656.8438,65 657.4688,64.4219 L657.4688,67.1406 Z " fill="#000000"/><text fill="#000000" font-family="sans-serif" font-size="12" lengthAdjust="spacingAndGlyphs" textLength="102" x="668.5" y="65.6543">SpecialistDoctor</text><line style="stroke:#A80036;stroke-width:1.5;" x1="640.5" x2="772.5" y1="77.5" y2="77.5"/><text fill="#000000" font-family="sans-serif" font-size="11" lengthAdjust="spacingAndGlyphs" textLength="115" x="645.5" y="91.7104">-doctorIndexNumber</text><line style="stroke:#A80036;stroke-width:1.5;" x1="640.5" x2="772.5" y1="98.3047" y2="98.3047"/><!--MD5=[f61f25a4c924aea49782a3614f4b4835]
class DiagnosisReport--><rect codeLine="18" fill="#FEFECE" filter="url(#f10maxzn2p6knv)" height="73.6094" id="DiagnosisReport" style="stroke:#A80036;stroke-width:1.5;" width="135" x="879" y="39"/><ellipse cx="894" cy="55" fill="#ADD1B2" rx="11" ry="11" style="stroke:#A80036;stroke-width:1.0;"/><path d="M896.9688,60.6406 Q896.3906,60.9375 895.75,61.0781 Q895.1094,61.2344 894.4063,61.2344 Q891.9063,61.2344 890.5781,59.5938 Q889.2656,57.9375 889.2656,54.8125 Q889.2656,51.6875 890.5781,50.0313 Q891.9063,48.375 894.4063,48.375 Q895.1094,48.375 895.75,48.5313 Q896.4063,48.6875 896.9688,48.9844 L896.9688,51.7031 Q896.3438,51.125 895.75,50.8594 Q895.1563,50.5781 894.5313,50.5781 Q893.1875,50.5781 892.5,51.6563 Q891.8125,52.7188 891.8125,54.8125 Q891.8125,56.9063 892.5,57.9844 Q893.1875,59.0469 894.5313,59.0469 Q895.1563,59.0469 895.75,58.7813 Q896.3438,58.5 896.9688,57.9219 L896.9688,60.6406 Z " fill="#000000"/><text fill="#000000" font-family="sans-serif" font-size="12" lengthAdjust="spacingAndGlyphs" textLength="103" x="908" y="59.1543">DiagnosisReport</text><line style="stroke:#A80036;stroke-width:1.5;" x1="880" x2="1013" y1="71" y2="71"/><text fill="#000000" font-family="sans-serif" font-size="11" lengthAdjust="spacingAndGlyphs" textLength="56" x="885" y="85.2104">-reportTxt</text><text fill="#000000" font-family="sans-serif" font-size="11" lengthAdjust="spacingAndGlyphs" textLength="53" x="885" y="98.0151">-testcode</text><line style="stroke:#A80036;stroke-width:1.5;" x1="880" x2="1013" y1="104.6094" y2="104.6094"/><!--MD5=[7e4bc624457760b649895ff2ead938fa]
link Company to Test--><path codeLine="22" d="M96.2548,76 C124.9405,76 163.1628,76 197.82,76 " fill="none" id="Company-to-Test" style="stroke:#A80036;stroke-width:1.0;"/><polygon fill="#A80036" points="202.9059,76,193.9059,72,197.9059,76,193.9059,80,202.9059,76" style="stroke:#A80036;stroke-width:1.0;"/><polygon fill="#000000" points="123,64.5664,113.9549,61.6275,113.9549,67.5053,123,64.5664" style="stroke:#000000;stroke-width:1.0;"/><text fill="#000000" font-family="sans-serif" font-size="13" lengthAdjust="spacingAndGlyphs" textLength="58" x="127" y="69.0669">performs</text><text fill="#000000" font-family="sans-serif" font-size="13" lengthAdjust="spacingAndGlyphs" textLength="8" x="104.0251" y="71.8977">1</text><text fill="#000000" font-family="sans-serif" font-size="13" lengthAdjust="spacingAndGlyphs" textLength="7" x="187.8769" y="72.3985">*</text><!--MD5=[9163865a413f55935f47e026f9eaa033]
link Test to Result--><path codeLine="23" d="M370.1555,76 C393.5323,76 417.9021,76 437.5956,76 " fill="none" id="Test-to-Result" style="stroke:#A80036;stroke-width:1.0;"/><polygon fill="#A80036" points="442.759,76,433.759,72,437.759,76,433.759,80,442.759,76" style="stroke:#A80036;stroke-width:1.0;"/><polygon fill="#000000" points="397.5,64.5664,388.4549,61.6275,388.4549,67.5053,397.5,64.5664" style="stroke:#000000;stroke-width:1.0;"/><text fill="#000000" font-family="sans-serif" font-size="13" lengthAdjust="spacingAndGlyphs" textLength="23" x="401.5" y="69.0669">has</text><text fill="#000000" font-family="sans-serif" font-size="13" lengthAdjust="spacingAndGlyphs" textLength="8" x="377.9623" y="72.4212">1</text><text fill="#000000" font-family="sans-serif" font-size="13" lengthAdjust="spacingAndGlyphs" textLength="8" x="426.935" y="71.6034">1</text><!--MD5=[572e1dbcb3b14d0f86bd4ff523e1b168]
link Result to SpecialistDoctor--><path codeLine="24" d="M514.125,76 C546.1283,76 594.1037,76 634.1373,76 " fill="none" id="Result-to-SpecialistDoctor" style="stroke:#A80036;stroke-width:1.0;"/><polygon fill="#A80036" points="639.4794,76,630.4794,72,634.4794,76,630.4794,80,639.4794,76" style="stroke:#A80036;stroke-width:1.0;"/><polygon fill="#000000" points="541.25,64.5664,532.2049,61.6275,532.2049,67.5053,541.25,64.5664" style="stroke:#000000;stroke-width:1.0;"/><text fill="#000000" font-family="sans-serif" font-size="13" lengthAdjust="spacingAndGlyphs" textLength="76" x="545.25" y="69.0669">analyzed by</text><text fill="#000000" font-family="sans-serif" font-size="13" lengthAdjust="spacingAndGlyphs" textLength="23" x="521.9301" y="89.3201">1..*</text><text fill="#000000" font-family="sans-serif" font-size="13" lengthAdjust="spacingAndGlyphs" textLength="23" x="608.382" y="88.8573">1..*</text><!--MD5=[901cb31b8fb218f069ad8080056c43f5]
link SpecialistDoctor to DiagnosisReport--><path codeLine="25" d="M773.6725,76 C804.869,76 842.0169,76 873.8634,76 " fill="none" id="SpecialistDoctor-to-DiagnosisReport" style="stroke:#A80036;stroke-width:1.0;"/><polygon fill="#A80036" points="878.9274,76,869.9274,72,873.9274,76,869.9274,80,878.9274,76" style="stroke:#A80036;stroke-width:1.0;"/><polygon fill="#000000" points="800.75,64.5664,791.7049,61.6275,791.7049,67.5053,800.75,64.5664" style="stroke:#000000;stroke-width:1.0;"/><text fill="#000000" font-family="sans-serif" font-size="13" lengthAdjust="spacingAndGlyphs" textLength="56" x="804.75" y="69.0669">registers</text><text fill="#000000" font-family="sans-serif" font-size="13" lengthAdjust="spacingAndGlyphs" textLength="23" x="781.4168" y="88.8213">1..*</text><text fill="#000000" font-family="sans-serif" font-size="13" lengthAdjust="spacingAndGlyphs" textLength="23" x="847.773" y="88.8673">1..*</text><!--MD5=[ae3a260ba3bd527d8b244bed4d0d81e0]
@startuml
skinparam classAttributeIconSize 0
class "Company" {
  -designation
  }
class "Test" {
  -description
  -testcode
  -nhsCode
  -collectDateTime
  -chemicalAnalysisDateTime
  -dianosisDateTime
  -validationDateTime
  }
class "Result"
class "SpecialistDoctor" {
  -doctorIndexNumber
  }
class "DiagnosisReport" {
 -reportTxt
 -testcode
  }
"Company" "1" -> "*" "Test" : > performs
"Test" "1" -> "1" "Result" : > has
"Result" "1..*" -> "1..*" "SpecialistDoctor" : > analyzed by
"SpecialistDoctor" "1..*" -> "1..*" "DiagnosisReport"  : > registers
@enduml

PlantUML version 1.2020.22(Sun Dec 06 09:36:27 UTC 2020)
(GPL source distribution)
Java Runtime: OpenJDK Runtime Environment
JVM: OpenJDK 64-Bit Server VM
Default Encoding: UTF-8
Language: en
Country: US
--></g></svg>