<?xml version="1.0" encoding="UTF-8" standalone="no"?><svg xmlns="http://www.w3.org/2000/svg" xmlns:xlink="http://www.w3.org/1999/xlink" contentScriptType="application/ecmascript" contentStyleType="text/css" height="205px" preserveAspectRatio="none" style="width:1028px;height:205px;" version="1.1" viewBox="0 0 1028 205" width="1028px" zoomAndPan="magnify"><defs><filter height="300%" id="fqf4az6cq2bsd" width="300%" x="-1" y="-1"><feGaussianBlur result="blurOut" stdDeviation="2.0"/><feColorMatrix in="blurOut" result="blurOut2" type="matrix" values="0 0 0 0 0 0 0 0 0 0 0 0 0 0 0 0 0 0 .4 0"/><feOffset dx="4.0" dy="4.0" in="blurOut2" result="blurOut3"/><feBlend in="SourceGraphic" in2="blurOut3" mode="normal"/></filter></defs><g><!--MD5=[02e4b9b7573f1156f41e60aa5b4e25a4]
class Company--><rect codeLine="2" fill="#FEFECE" filter="url(#fqf4az6cq2bsd)" height="60.8047" id="Company" style="stroke:#A80036;stroke-width:1.5;" width="89" x="7" y="92.0659"/><ellipse cx="22" cy="108.0659" fill="#ADD1B2" rx="11" ry="11" style="stroke:#A80036;stroke-width:1.0;"/><path d="M24.9688,113.7065 Q24.3906,114.0034 23.75,114.144 Q23.1094,114.3003 22.4063,114.3003 Q19.9063,114.3003 18.5781,112.6597 Q17.2656,111.0034 17.2656,107.8784 Q17.2656,104.7534 18.5781,103.0972 Q19.9063,101.4409 22.4063,101.4409 Q23.1094,101.4409 23.75,101.5972 Q24.4063,101.7534 24.9688,102.0503 L24.9688,104.769 Q24.3438,104.1909 23.75,103.9253 Q23.1563,103.644 22.5313,103.644 Q21.1875,103.644 20.5,104.7222 Q19.8125,105.7847 19.8125,107.8784 Q19.8125,109.9722 20.5,111.0503 Q21.1875,112.1128 22.5313,112.1128 Q23.1563,112.1128 23.75,111.8472 Q24.3438,111.5659 24.9688,110.9878 L24.9688,113.7065 Z " fill="#000000"/><text fill="#000000" font-family="sans-serif" font-size="12" lengthAdjust="spacingAndGlyphs" textLength="57" x="36" y="112.2202">Company</text><line style="stroke:#A80036;stroke-width:1.5;" x1="8" x2="95" y1="124.0659" y2="124.0659"/><text fill="#000000" font-family="sans-serif" font-size="11" lengthAdjust="spacingAndGlyphs" textLength="70" x="13" y="138.2764">-designation</text><line style="stroke:#A80036;stroke-width:1.5;" x1="8" x2="95" y1="144.8706" y2="144.8706"/><!--MD5=[df38be88ccee13e832d6fafd6288a4ca]
class Test--><rect codeLine="5" fill="#FEFECE" filter="url(#fqf4az6cq2bsd)" height="137.6328" id="Test" style="stroke:#A80036;stroke-width:1.5;" width="167" x="203" y="53.5659"/><ellipse cx="268.75" cy="69.5659" fill="#ADD1B2" rx="11" ry="11" style="stroke:#A80036;stroke-width:1.0;"/><path d="M271.7188,75.2065 Q271.1406,75.5034 270.5,75.644 Q269.8594,75.8003 269.1563,75.8003 Q266.6563,75.8003 265.3281,74.1597 Q264.0156,72.5034 264.0156,69.3784 Q264.0156,66.2534 265.3281,64.5972 Q266.6563,62.9409 269.1563,62.9409 Q269.8594,62.9409 270.5,63.0972 Q271.1563,63.2534 271.7188,63.5503 L271.7188,66.269 Q271.0938,65.6909 270.5,65.4253 Q269.9063,65.144 269.2813,65.144 Q267.9375,65.144 267.25,66.2222 Q266.5625,67.2847 266.5625,69.3784 Q266.5625,71.4722 267.25,72.5503 Q267.9375,73.6128 269.2813,73.6128 Q269.9063,73.6128 270.5,73.3472 Q271.0938,73.0659 271.7188,72.4878 L271.7188,75.2065 Z " fill="#000000"/><text fill="#000000" font-family="sans-serif" font-size="12" lengthAdjust="spacingAndGlyphs" textLength="27" x="289.25" y="73.7202">Test</text><line style="stroke:#A80036;stroke-width:1.5;" x1="204" x2="369" y1="85.5659" y2="85.5659"/><text fill="#000000" font-family="sans-serif" font-size="11" lengthAdjust="spacingAndGlyphs" textLength="67" x="209" y="99.7764">-description</text><text fill="#000000" font-family="sans-serif" font-size="11" lengthAdjust="spacingAndGlyphs" textLength="31" x="209" y="112.5811">-code</text><text fill="#000000" font-family="sans-serif" font-size="11" lengthAdjust="spacingAndGlyphs" textLength="54" x="209" y="125.3857">-nhsCode</text><text fill="#000000" font-family="sans-serif" font-size="11" lengthAdjust="spacingAndGlyphs" textLength="94" x="209" y="138.1904">-collectDateTime</text><text fill="#000000" font-family="sans-serif" font-size="11" lengthAdjust="spacingAndGlyphs" textLength="155" x="209" y="150.9951">-chemicalAnalysisDateTime</text><text fill="#000000" font-family="sans-serif" font-size="11" lengthAdjust="spacingAndGlyphs" textLength="106" x="209" y="163.7998">-dianosisDateTime</text><text fill="#000000" font-family="sans-serif" font-size="11" lengthAdjust="spacingAndGlyphs" textLength="112" x="209" y="176.6045">-validationDateTime</text><line style="stroke:#A80036;stroke-width:1.5;" x1="204" x2="369" y1="183.1987" y2="183.1987"/><!--MD5=[2741598bdf59a7d7e0d5c97658fd3022]
class Result--><rect codeLine="14" fill="#FEFECE" filter="url(#fqf4az6cq2bsd)" height="48" id="Result" style="stroke:#A80036;stroke-width:1.5;" width="71" x="443" y="98.5659"/><ellipse cx="458" cy="114.5659" fill="#ADD1B2" rx="11" ry="11" style="stroke:#A80036;stroke-width:1.0;"/><path d="M460.9688,120.2065 Q460.3906,120.5034 459.75,120.644 Q459.1094,120.8003 458.4063,120.8003 Q455.9063,120.8003 454.5781,119.1597 Q453.2656,117.5034 453.2656,114.3784 Q453.2656,111.2534 454.5781,109.5972 Q455.9063,107.9409 458.4063,107.9409 Q459.1094,107.9409 459.75,108.0972 Q460.4063,108.2534 460.9688,108.5503 L460.9688,111.269 Q460.3438,110.6909 459.75,110.4253 Q459.1563,110.144 458.5313,110.144 Q457.1875,110.144 456.5,111.2222 Q455.8125,112.2847 455.8125,114.3784 Q455.8125,116.4722 456.5,117.5503 Q457.1875,118.6128 458.5313,118.6128 Q459.1563,118.6128 459.75,118.3472 Q460.3438,118.0659 460.9688,117.4878 L460.9688,120.2065 Z " fill="#000000"/><text fill="#000000" font-family="sans-serif" font-size="12" lengthAdjust="spacingAndGlyphs" textLength="39" x="472" y="118.7202">Result</text><line style="stroke:#A80036;stroke-width:1.5;" x1="444" x2="513" y1="130.5659" y2="130.5659"/><line style="stroke:#A80036;stroke-width:1.5;" x1="444" x2="513" y1="138.5659" y2="138.5659"/><!--MD5=[7d96fd15f3014691d2fcaf89c5791e2a]
class SpecialistDoctor--><rect codeLine="15" fill="#FEFECE" filter="url(#fqf4az6cq2bsd)" height="60.8047" id="SpecialistDoctor" style="stroke:#A80036;stroke-width:1.5;" width="134" x="639.5" y="92.0659"/><ellipse cx="654.5" cy="108.0659" fill="#ADD1B2" rx="11" ry="11" style="stroke:#A80036;stroke-width:1.0;"/><path d="M657.4688,113.7065 Q656.8906,114.0034 656.25,114.144 Q655.6094,114.3003 654.9063,114.3003 Q652.4063,114.3003 651.0781,112.6597 Q649.7656,111.0034 649.7656,107.8784 Q649.7656,104.7534 651.0781,103.0972 Q652.4063,101.4409 654.9063,101.4409 Q655.6094,101.4409 656.25,101.5972 Q656.9063,101.7534 657.4688,102.0503 L657.4688,104.769 Q656.8438,104.1909 656.25,103.9253 Q655.6563,103.644 655.0313,103.644 Q653.6875,103.644 653,104.7222 Q652.3125,105.7847 652.3125,107.8784 Q652.3125,109.9722 653,111.0503 Q653.6875,112.1128 655.0313,112.1128 Q655.6563,112.1128 656.25,111.8472 Q656.8438,111.5659 657.4688,110.9878 L657.4688,113.7065 Z " fill="#000000"/><text fill="#000000" font-family="sans-serif" font-size="12" lengthAdjust="spacingAndGlyphs" textLength="102" x="668.5" y="112.2202">SpecialistDoctor</text><line style="stroke:#A80036;stroke-width:1.5;" x1="640.5" x2="772.5" y1="124.0659" y2="124.0659"/><text fill="#000000" font-family="sans-serif" font-size="11" lengthAdjust="spacingAndGlyphs" textLength="115" x="645.5" y="138.2764">-doctorIndexNumber</text><line style="stroke:#A80036;stroke-width:1.5;" x1="640.5" x2="772.5" y1="144.8706" y2="144.8706"/><!--MD5=[f61f25a4c924aea49782a3614f4b4835]
class DiagnosisReport--><rect codeLine="18" fill="#FEFECE" filter="url(#fqf4az6cq2bsd)" height="48" id="DiagnosisReport" style="stroke:#A80036;stroke-width:1.5;" width="135" x="879" y="98.5659"/><ellipse cx="894" cy="114.5659" fill="#ADD1B2" rx="11" ry="11" style="stroke:#A80036;stroke-width:1.0;"/><path d="M896.9688,120.2065 Q896.3906,120.5034 895.75,120.644 Q895.1094,120.8003 894.4063,120.8003 Q891.9063,120.8003 890.5781,119.1597 Q889.2656,117.5034 889.2656,114.3784 Q889.2656,111.2534 890.5781,109.5972 Q891.9063,107.9409 894.4063,107.9409 Q895.1094,107.9409 895.75,108.0972 Q896.4063,108.2534 896.9688,108.5503 L896.9688,111.269 Q896.3438,110.6909 895.75,110.4253 Q895.1563,110.144 894.5313,110.144 Q893.1875,110.144 892.5,111.2222 Q891.8125,112.2847 891.8125,114.3784 Q891.8125,116.4722 892.5,117.5503 Q893.1875,118.6128 894.5313,118.6128 Q895.1563,118.6128 895.75,118.3472 Q896.3438,118.0659 896.9688,117.4878 L896.9688,120.2065 Z " fill="#000000"/><text fill="#000000" font-family="sans-serif" font-size="12" lengthAdjust="spacingAndGlyphs" textLength="103" x="908" y="118.7202">DiagnosisReport</text><line style="stroke:#A80036;stroke-width:1.5;" x1="880" x2="1013" y1="130.5659" y2="130.5659"/><line style="stroke:#A80036;stroke-width:1.5;" x1="880" x2="1013" y1="138.5659" y2="138.5659"/><!--MD5=[7e4bc624457760b649895ff2ead938fa]
link Company to Test--><path codeLine="22" d="M96.2548,122.5659 C124.9405,122.5659 163.1628,122.5659 197.82,122.5659 " fill="none" id="Company-to-Test" style="stroke:#A80036;stroke-width:1.0;"/><polygon fill="#A80036" points="202.9059,122.5659,193.9059,118.5659,197.9059,122.5659,193.9059,126.5659,202.9059,122.5659" style="stroke:#A80036;stroke-width:1.0;"/><polygon fill="#000000" points="123,111.1323,113.9549,108.1934,113.9549,114.0713,123,111.1323" style="stroke:#000000;stroke-width:1.0;"/><text fill="#000000" font-family="sans-serif" font-size="13" lengthAdjust="spacingAndGlyphs" textLength="58" x="127" y="115.6328">performs</text><text fill="#000000" font-family="sans-serif" font-size="13" lengthAdjust="spacingAndGlyphs" textLength="8" x="104.0251" y="118.4636">1</text><text fill="#000000" font-family="sans-serif" font-size="13" lengthAdjust="spacingAndGlyphs" textLength="7" x="187.8769" y="118.9645">*</text><!--MD5=[9163865a413f55935f47e026f9eaa033]
link Test to Result--><path codeLine="23" d="M370.1555,122.5659 C393.5323,122.5659 417.9021,122.5659 437.5956,122.5659 " fill="none" id="Test-to-Result" style="stroke:#A80036;stroke-width:1.0;"/><polygon fill="#A80036" points="442.759,122.5659,433.759,118.5659,437.759,122.5659,433.759,126.5659,442.759,122.5659" style="stroke:#A80036;stroke-width:1.0;"/><polygon fill="#000000" points="397.5,111.1323,388.4549,108.1934,388.4549,114.0713,397.5,111.1323" style="stroke:#000000;stroke-width:1.0;"/><text fill="#000000" font-family="sans-serif" font-size="13" lengthAdjust="spacingAndGlyphs" textLength="23" x="401.5" y="115.6328">has</text><text fill="#000000" font-family="sans-serif" font-size="13" lengthAdjust="spacingAndGlyphs" textLength="8" x="377.9623" y="118.9871">1</text><text fill="#000000" font-family="sans-serif" font-size="13" lengthAdjust="spacingAndGlyphs" textLength="8" x="426.935" y="118.1693">1</text><!--MD5=[572e1dbcb3b14d0f86bd4ff523e1b168]
link Result to SpecialistDoctor--><path codeLine="24" d="M514.125,122.5659 C546.1283,122.5659 594.1037,122.5659 634.1373,122.5659 " fill="none" id="Result-to-SpecialistDoctor" style="stroke:#A80036;stroke-width:1.0;"/><polygon fill="#A80036" points="639.4794,122.5659,630.4794,118.5659,634.4794,122.5659,630.4794,126.5659,639.4794,122.5659" style="stroke:#A80036;stroke-width:1.0;"/><polygon fill="#000000" points="541.25,111.1323,532.2049,108.1934,532.2049,114.0713,541.25,111.1323" style="stroke:#000000;stroke-width:1.0;"/><text fill="#000000" font-family="sans-serif" font-size="13" lengthAdjust="spacingAndGlyphs" textLength="76" x="545.25" y="115.6328">analyzed by</text><text fill="#000000" font-family="sans-serif" font-size="13" lengthAdjust="spacingAndGlyphs" textLength="23" x="521.9301" y="135.886">1..*</text><text fill="#000000" font-family="sans-serif" font-size="13" lengthAdjust="spacingAndGlyphs" textLength="23" x="608.382" y="135.4232">1..*</text><!--MD5=[901cb31b8fb218f069ad8080056c43f5]
link SpecialistDoctor to DiagnosisReport--><path codeLine="25" d="M773.6725,122.5659 C804.869,122.5659 842.0169,122.5659 873.8634,122.5659 " fill="none" id="SpecialistDoctor-to-DiagnosisReport" style="stroke:#A80036;stroke-width:1.0;"/><polygon fill="#A80036" points="878.9274,122.5659,869.9274,118.5659,873.9274,122.5659,869.9274,126.5659,878.9274,122.5659" style="stroke:#A80036;stroke-width:1.0;"/><polygon fill="#000000" points="800.75,111.1323,791.7049,108.1934,791.7049,114.0713,800.75,111.1323" style="stroke:#000000;stroke-width:1.0;"/><text fill="#000000" font-family="sans-serif" font-size="13" lengthAdjust="spacingAndGlyphs" textLength="56" x="804.75" y="115.6328">registers</text><text fill="#000000" font-family="sans-serif" font-size="13" lengthAdjust="spacingAndGlyphs" textLength="23" x="781.4168" y="135.3872">1..*</text><text fill="#000000" font-family="sans-serif" font-size="13" lengthAdjust="spacingAndGlyphs" textLength="23" x="847.773" y="135.4131">1..*</text><!--MD5=[8b55b505d6423a18c59127d3585029ae]
link DiagnosisReport to Test--><path codeLine="26" d="M901.9472,98.3889 C851.7129,72.8483 766.7445,34.748 688,23.5659 C571.7403,7.0564 536.2303,14.4804 425.5,53.5659 C408.7801,59.4677 391.4703,66.8952 374.9791,74.674 " fill="none" id="DiagnosisReport-to-Test" style="stroke:#A80036;stroke-width:1.0;"/><polygon fill="#A80036" points="370.3506,76.8763,380.1962,76.6214,374.8656,74.728,376.7589,69.3975,370.3506,76.8763" style="stroke:#A80036;stroke-width:1.0;"/><polygon fill="#000000" points="561.0051,14.9075,569.9089,18.2501,570.1731,12.3782,561.0051,14.9075" style="stroke:#000000;stroke-width:1.0;"/><text fill="#000000" font-family="sans-serif" font-size="13" lengthAdjust="spacingAndGlyphs" textLength="112" x="575" y="19.6328">is associated with</text><text fill="#000000" font-family="sans-serif" font-size="13" lengthAdjust="spacingAndGlyphs" textLength="8" x="881.5055" y="87.3556">1</text><text fill="#000000" font-family="sans-serif" font-size="13" lengthAdjust="spacingAndGlyphs" textLength="8" x="377.9003" y="69.3937">1</text><!--MD5=[15cb7a484fe9ee66b054389152ec4bfc]
@startuml
skinparam classAttributeIconSize 0
class "Company" {
  -designation
  }
class "Test" {
  -description
  -code
  -nhsCode
  -collectDateTime
  -chemicalAnalysisDateTime
  -dianosisDateTime
  -validationDateTime
  }
class "Result"
class "SpecialistDoctor" {
  -doctorIndexNumber
  }
class "DiagnosisReport"



"Company" "1" -> "*" "Test" : > performs
"Test" "1" -> "1" "Result" : > has
"Result" "1..*" -> "1..*" "SpecialistDoctor" : > analyzed by
"SpecialistDoctor" "1..*" -> "1..*" "DiagnosisReport"  : > registers
"DiagnosisReport" "1" -> "1" "Test" : > is associated with
@enduml

PlantUML version 1.2020.22(Sun Dec 06 09:36:27 UTC 2020)
(GPL source distribution)
Java Runtime: OpenJDK Runtime Environment
JVM: OpenJDK 64-Bit Server VM
Default Encoding: UTF-8
Language: en
Country: US
--></g></svg>