<?xml version="1.0" encoding="UTF-8" standalone="no"?><svg xmlns="http://www.w3.org/2000/svg" xmlns:xlink="http://www.w3.org/1999/xlink" contentScriptType="application/ecmascript" contentStyleType="text/css" height="343px" preserveAspectRatio="none" style="width:546px;height:343px;" version="1.1" viewBox="0 0 546 343" width="546px" zoomAndPan="magnify"><defs><filter height="300%" id="fks5ahalos6nu" width="300%" x="-1" y="-1"><feGaussianBlur result="blurOut" stdDeviation="2.0"/><feColorMatrix in="blurOut" result="blurOut2" type="matrix" values="0 0 0 0 0 0 0 0 0 0 0 0 0 0 0 0 0 0 .4 0"/><feOffset dx="4.0" dy="4.0" in="blurOut2" result="blurOut3"/><feBlend in="SourceGraphic" in2="blurOut3" mode="normal"/></filter></defs><g><!--MD5=[03960189e81aa2c066c762ffabbee709]
class Receptionist--><rect codeLine="22" fill="#FEFECE" filter="url(#fks5ahalos6nu)" height="40" id="Receptionist" style="stroke:#A80036;stroke-width:1.5;" width="101" x="431" y="168.5"/><ellipse cx="446" cy="184.5" fill="#ADD1B2" rx="11" ry="11" style="stroke:#A80036;stroke-width:1.0;"/><path d="M448,181 Q448.2031,180.5 448.4375,180.25 Q448.6719,180 448.9375,180 Q449.4063,180 449.7031,180.2813 Q450,180.5625 450,181.2188 L450,182.7813 Q450,183.4375 449.7188,183.7188 Q449.4375,184 449,184 Q448.6094,184 448.3594,183.8281 Q448.1094,183.6563 448,183.2031 Q447.9531,182.8906 447.7813,182.7188 Q447.4688,182.3906 446.9063,182.2031 Q446.3438,182 445.7813,182 Q445.0781,182 444.4844,182.2813 Q443.9063,182.5625 443.4531,183.1875 Q443,183.8125 443,184.6719 L443,185.5938 Q443,186.625 443.8438,187.3125 Q444.6875,188 446.1875,188 Q447.0781,188 447.7031,187.7969 Q448.0625,187.6875 448.4688,187.3281 Q448.7344,187.125 448.875,187.0625 Q449.0156,187 449.1875,187 Q449.5156,187 449.75,187.2656 Q450,187.5156 450,187.875 Q450,188.2188 449.6563,188.625 Q449.1563,189.2188 448.3594,189.5469 Q447.3125,190 446.0313,190 Q444.5313,190 443.3281,189.4063 Q442.3594,188.9375 441.6719,187.9219 Q441,186.9063 441,185.7031 L441,184.6094 Q441,183.3594 441.5938,182.2656 Q442.2031,181.1719 443.25,180.5938 Q444.3125,180 445.5,180 Q446.2188,180 446.8438,180.25 Q447.4688,180.5 448,181 Z " fill="#000000"/><text fill="#000000" font-family="sans-serif" font-size="12" lengthAdjust="spacing" textLength="69" x="460" y="189.4102">Receptionist</text><line style="stroke:#A80036;stroke-width:1.5;" x1="432" x2="531" y1="200.5" y2="200.5"/><!--MD5=[ed6624c6556d5e7b1bd23032162d20b7]
class Client--><rect codeLine="25" fill="#FEFECE" filter="url(#fks5ahalos6nu)" height="150.6875" id="Client" style="stroke:#A80036;stroke-width:1.5;" width="83" x="221" y="7"/><ellipse cx="244.55" cy="23" fill="#ADD1B2" rx="11" ry="11" style="stroke:#A80036;stroke-width:1.0;"/><path d="M246.55,19.5 Q246.7531,19 246.9875,18.75 Q247.2219,18.5 247.4875,18.5 Q247.9563,18.5 248.2531,18.7813 Q248.55,19.0625 248.55,19.7188 L248.55,21.2813 Q248.55,21.9375 248.2688,22.2188 Q247.9875,22.5 247.55,22.5 Q247.1594,22.5 246.9094,22.3281 Q246.6594,22.1563 246.55,21.7031 Q246.5031,21.3906 246.3313,21.2188 Q246.0188,20.8906 245.4563,20.7031 Q244.8938,20.5 244.3313,20.5 Q243.6281,20.5 243.0344,20.7813 Q242.4563,21.0625 242.0031,21.6875 Q241.55,22.3125 241.55,23.1719 L241.55,24.0938 Q241.55,25.125 242.3938,25.8125 Q243.2375,26.5 244.7375,26.5 Q245.6281,26.5 246.2531,26.2969 Q246.6125,26.1875 247.0188,25.8281 Q247.2844,25.625 247.425,25.5625 Q247.5656,25.5 247.7375,25.5 Q248.0656,25.5 248.3,25.7656 Q248.55,26.0156 248.55,26.375 Q248.55,26.7188 248.2063,27.125 Q247.7063,27.7188 246.9094,28.0469 Q245.8625,28.5 244.5813,28.5 Q243.0813,28.5 241.8781,27.9063 Q240.9094,27.4375 240.2219,26.4219 Q239.55,25.4063 239.55,24.2031 L239.55,23.1094 Q239.55,21.8594 240.1438,20.7656 Q240.7531,19.6719 241.8,19.0938 Q242.8625,18.5 244.05,18.5 Q244.7688,18.5 245.3938,18.75 Q246.0188,19 246.55,19.5 Z " fill="#000000"/><text fill="#000000" font-family="sans-serif" font-size="12" lengthAdjust="spacing" textLength="32" x="260.45" y="27.9102">Client</text><line style="stroke:#A80036;stroke-width:1.5;" x1="222" x2="303" y1="39" y2="39"/><text fill="#000000" font-family="sans-serif" font-size="11" lengthAdjust="spacing" textLength="44" x="227" y="54.4189">-citizenID</text><text fill="#000000" font-family="sans-serif" font-size="11" lengthAdjust="spacing" textLength="31" x="227" y="68.2549">-nhsID</text><text fill="#000000" font-family="sans-serif" font-size="11" lengthAdjust="spacing" textLength="47" x="227" y="82.0908">-birthDate</text><text fill="#000000" font-family="sans-serif" font-size="11" lengthAdjust="spacing" textLength="22" x="227" y="95.9268">-sex</text><text fill="#000000" font-family="sans-serif" font-size="11" lengthAdjust="spacing" textLength="19" x="227" y="109.7627">-TIN</text><text fill="#000000" font-family="sans-serif" font-size="11" lengthAdjust="spacing" textLength="71" x="227" y="123.5986">-phoneNumber</text><text fill="#000000" font-family="sans-serif" font-size="11" lengthAdjust="spacing" textLength="28" x="227" y="137.4346">-email</text><text fill="#000000" font-family="sans-serif" font-size="11" lengthAdjust="spacing" textLength="30" x="227" y="151.2705">-name</text><!--MD5=[7421f545a0d8420c5bec41e74b387d9c]
class Employee--><rect codeLine="36" fill="#FEFECE" filter="url(#fks5ahalos6nu)" height="136.8516" id="Employee" style="stroke:#A80036;stroke-width:1.5;" width="87" x="219" y="193"/><ellipse cx="234" cy="209" fill="#ADD1B2" rx="11" ry="11" style="stroke:#A80036;stroke-width:1.0;"/><path d="M236,205.5 Q236.2031,205 236.4375,204.75 Q236.6719,204.5 236.9375,204.5 Q237.4063,204.5 237.7031,204.7813 Q238,205.0625 238,205.7188 L238,207.2813 Q238,207.9375 237.7188,208.2188 Q237.4375,208.5 237,208.5 Q236.6094,208.5 236.3594,208.3281 Q236.1094,208.1563 236,207.7031 Q235.9531,207.3906 235.7813,207.2188 Q235.4688,206.8906 234.9063,206.7031 Q234.3438,206.5 233.7813,206.5 Q233.0781,206.5 232.4844,206.7813 Q231.9063,207.0625 231.4531,207.6875 Q231,208.3125 231,209.1719 L231,210.0938 Q231,211.125 231.8438,211.8125 Q232.6875,212.5 234.1875,212.5 Q235.0781,212.5 235.7031,212.2969 Q236.0625,212.1875 236.4688,211.8281 Q236.7344,211.625 236.875,211.5625 Q237.0156,211.5 237.1875,211.5 Q237.5156,211.5 237.75,211.7656 Q238,212.0156 238,212.375 Q238,212.7188 237.6563,213.125 Q237.1563,213.7188 236.3594,214.0469 Q235.3125,214.5 234.0313,214.5 Q232.5313,214.5 231.3281,213.9063 Q230.3594,213.4375 229.6719,212.4219 Q229,211.4063 229,210.2031 L229,209.1094 Q229,207.8594 229.5938,206.7656 Q230.2031,205.6719 231.25,205.0938 Q232.3125,204.5 233.5,204.5 Q234.2188,204.5 234.8438,204.75 Q235.4688,205 236,205.5 Z " fill="#000000"/><text fill="#000000" font-family="sans-serif" font-size="12" lengthAdjust="spacing" textLength="55" x="248" y="213.9102">Employee</text><line style="stroke:#A80036;stroke-width:1.5;" x1="220" x2="305" y1="225" y2="225"/><text fill="#000000" font-family="sans-serif" font-size="11" lengthAdjust="spacing" textLength="30" x="225" y="240.4189">-name</text><text fill="#000000" font-family="sans-serif" font-size="11" lengthAdjust="spacing" textLength="44" x="225" y="254.2549">-address</text><text fill="#000000" font-family="sans-serif" font-size="11" lengthAdjust="spacing" textLength="71" x="225" y="268.0908">-phoneNumber</text><text fill="#000000" font-family="sans-serif" font-size="11" lengthAdjust="spacing" textLength="59" x="225" y="281.9268">-employeeID</text><text fill="#000000" font-family="sans-serif" font-size="11" lengthAdjust="spacing" textLength="41" x="225" y="295.7627">-orgRole</text><text fill="#000000" font-family="sans-serif" font-size="11" lengthAdjust="spacing" textLength="28" x="225" y="309.5986">-email</text><text fill="#000000" font-family="sans-serif" font-size="11" lengthAdjust="spacing" textLength="50" x="225" y="323.4346">-SOCcode</text><!--MD5=[02e4b9b7573f1156f41e60aa5b4e25a4]
class Company--><rect codeLine="18" fill="#FEFECE" filter="url(#fks5ahalos6nu)" height="53.8359" id="Company" style="stroke:#A80036;stroke-width:1.5;" width="85" x="7" y="234.5"/><ellipse cx="22" cy="250.5" fill="#ADD1B2" rx="11" ry="11" style="stroke:#A80036;stroke-width:1.0;"/><path d="M24,247 Q24.2031,246.5 24.4375,246.25 Q24.6719,246 24.9375,246 Q25.4063,246 25.7031,246.2813 Q26,246.5625 26,247.2188 L26,248.7813 Q26,249.4375 25.7188,249.7188 Q25.4375,250 25,250 Q24.6094,250 24.3594,249.8281 Q24.1094,249.6563 24,249.2031 Q23.9531,248.8906 23.7813,248.7188 Q23.4688,248.3906 22.9063,248.2031 Q22.3438,248 21.7813,248 Q21.0781,248 20.4844,248.2813 Q19.9063,248.5625 19.4531,249.1875 Q19,249.8125 19,250.6719 L19,251.5938 Q19,252.625 19.8438,253.3125 Q20.6875,254 22.1875,254 Q23.0781,254 23.7031,253.7969 Q24.0625,253.6875 24.4688,253.3281 Q24.7344,253.125 24.875,253.0625 Q25.0156,253 25.1875,253 Q25.5156,253 25.75,253.2656 Q26,253.5156 26,253.875 Q26,254.2188 25.6563,254.625 Q25.1563,255.2188 24.3594,255.5469 Q23.3125,256 22.0313,256 Q20.5313,256 19.3281,255.4063 Q18.3594,254.9375 17.6719,253.9219 Q17,252.9063 17,251.7031 L17,250.6094 Q17,249.3594 17.5938,248.2656 Q18.2031,247.1719 19.25,246.5938 Q20.3125,246 21.5,246 Q22.2188,246 22.8438,246.25 Q23.4688,246.5 24,247 Z " fill="#000000"/><text fill="#000000" font-family="sans-serif" font-size="12" lengthAdjust="spacing" textLength="53" x="36" y="255.4102">Company</text><line style="stroke:#A80036;stroke-width:1.5;" x1="8" x2="91" y1="266.5" y2="266.5"/><text fill="#000000" font-family="sans-serif" font-size="11" lengthAdjust="spacing" textLength="59" x="13" y="281.9189">-designation</text><!--MD5=[3fd616f346a44cd59a91eb10b19e157c]
class User--><rect codeLine="46" fill="#FEFECE" filter="url(#fks5ahalos6nu)" height="81.5078" id="User" style="stroke:#A80036;stroke-width:1.5;" width="66" x="448.5" y="41.5"/><ellipse cx="466.65" cy="57.5" fill="#ADD1B2" rx="11" ry="11" style="stroke:#A80036;stroke-width:1.0;"/><path d="M468.65,54 Q468.8531,53.5 469.0875,53.25 Q469.3219,53 469.5875,53 Q470.0563,53 470.3531,53.2813 Q470.65,53.5625 470.65,54.2188 L470.65,55.7813 Q470.65,56.4375 470.3688,56.7188 Q470.0875,57 469.65,57 Q469.2594,57 469.0094,56.8281 Q468.7594,56.6563 468.65,56.2031 Q468.6031,55.8906 468.4313,55.7188 Q468.1188,55.3906 467.5563,55.2031 Q466.9938,55 466.4313,55 Q465.7281,55 465.1344,55.2813 Q464.5563,55.5625 464.1031,56.1875 Q463.65,56.8125 463.65,57.6719 L463.65,58.5938 Q463.65,59.625 464.4938,60.3125 Q465.3375,61 466.8375,61 Q467.7281,61 468.3531,60.7969 Q468.7125,60.6875 469.1188,60.3281 Q469.3844,60.125 469.525,60.0625 Q469.6656,60 469.8375,60 Q470.1656,60 470.4,60.2656 Q470.65,60.5156 470.65,60.875 Q470.65,61.2188 470.3063,61.625 Q469.8063,62.2188 469.0094,62.5469 Q467.9625,63 466.6813,63 Q465.1813,63 463.9781,62.4063 Q463.0094,61.9375 462.3219,60.9219 Q461.65,59.9063 461.65,58.7031 L461.65,57.6094 Q461.65,56.3594 462.2438,55.2656 Q462.8531,54.1719 463.9,53.5938 Q464.9625,53 466.15,53 Q466.8688,53 467.4938,53.25 Q468.1188,53.5 468.65,54 Z " fill="#000000"/><text fill="#000000" font-family="sans-serif" font-size="12" lengthAdjust="spacing" textLength="27" x="481.35" y="62.4102">User</text><line style="stroke:#A80036;stroke-width:1.5;" x1="449.5" x2="513.5" y1="73.5" y2="73.5"/><text fill="#000000" font-family="sans-serif" font-size="11" lengthAdjust="spacing" textLength="30" x="454.5" y="88.9189">-name</text><text fill="#000000" font-family="sans-serif" font-size="11" lengthAdjust="spacing" textLength="28" x="454.5" y="102.7549">-email</text><text fill="#000000" font-family="sans-serif" font-size="11" lengthAdjust="spacing" textLength="54" x="454.5" y="116.5908">-password</text><!--MD5=[7048eb257bae2750d747ca61a113ed73]
link Client to Receptionist--><path codeLine="11" d="M304.06,102.31 C342.7,121.19 400.58,149.46 439.4,168.42 " fill="none" id="Client-Receptionist" style="stroke:#A80036;stroke-width:1.0;"/><polygon fill="#000000" points="336.5073,109.4812,343.3447,116.0919,345.9246,110.8105,336.5073,109.4812" style="stroke:#000000;stroke-width:1.0;"/><text fill="#000000" font-family="sans-serif" font-size="13" lengthAdjust="spacing" textLength="50" x="350" y="116.9951">registers</text><text fill="#000000" font-family="sans-serif" font-size="13" lengthAdjust="spacing" textLength="5" x="311.9082" y="120.8179">*</text><text fill="#000000" font-family="sans-serif" font-size="13" lengthAdjust="spacing" textLength="20" x="404.0956" y="157.7183">1..*</text><!--MD5=[bfff716514ca687b645fe473c6e098a4]
reverse link Employee to Receptionist--><path codeLine="12" d="M325.32,240.7 C358.72,229.47 399.43,215.77 430.76,205.23 " fill="none" id="Employee-backto-Receptionist" style="stroke:#A80036;stroke-width:1.0;"/><polygon fill="none" points="327.3,247.42,306.11,247.16,322.84,234.15,327.3,247.42" style="stroke:#A80036;stroke-width:1.0;"/><text fill="#000000" font-family="sans-serif" font-size="13" lengthAdjust="spacing" textLength="5" x="314.0352" y="259.6084">*</text><text fill="#000000" font-family="sans-serif" font-size="13" lengthAdjust="spacing" textLength="20" x="402.9777" y="221.9162">1..*</text><!--MD5=[09366576ee87d48d594df10cacc83f45]
link Company to Employee--><path codeLine="13" d="M92.19,261.5 C128.82,261.5 181.89,261.5 218.81,261.5 " fill="none" id="Company-Employee" style="stroke:#A80036;stroke-width:1.0;"/><polygon fill="#000000" points="122,252.6758,131.0451,255.6147,131.0451,249.7369,122,252.6758" style="stroke:#000000;stroke-width:1.0;"/><text fill="#000000" font-family="sans-serif" font-size="13" lengthAdjust="spacing" textLength="52" x="136" y="257.9951">works for</text><text fill="#000000" font-family="sans-serif" font-size="13" lengthAdjust="spacing" textLength="7" x="100.1289" y="276.4144">1</text><text fill="#000000" font-family="sans-serif" font-size="13" lengthAdjust="spacing" textLength="5" x="205.8711" y="276.4131">*</text><!--MD5=[9a8dc34b38f85b9f3fcdb440f4bffc6a]
link Client to User--><path codeLine="14" d="M304.06,82.5 C345.77,82.5 409.89,82.5 448.26,82.5 " fill="none" id="Client-User" style="stroke:#A80036;stroke-width:1.0;"/><polygon fill="#000000" points="360.5,73.6758,351.4549,70.7369,351.4549,76.6147,360.5,73.6758" style="stroke:#000000;stroke-width:1.0;"/><text fill="#000000" font-family="sans-serif" font-size="13" lengthAdjust="spacing" textLength="21" x="364.5" y="78.9951">is a</text><text fill="#000000" font-family="sans-serif" font-size="13" lengthAdjust="spacing" textLength="7" x="312.0863" y="97.4793">1</text><text fill="#000000" font-family="sans-serif" font-size="13" lengthAdjust="spacing" textLength="7" x="433.6824" y="97.7321">1</text><!--MD5=[b85d52ef523e0a6621bc16fb6ec464e2]
@startuml
'https://plantuml.com/class-diagram
hide methods

class Receptionist
class Client
class Employee
class Company
class User
left to right direction

Client "*" - - "1..*" Receptionist : < registers
Employee "*" <|- - "1..*" Receptionist
Company "1" - - "*" Employee : < works for
Client "1" - - "1" User : > is a

skinparam classAttributeIconSize 0

class Company{
-designation
}

class Receptionist{
}

class Client{
-citizenID
-nhsID
-birthDate
-sex
-TIN
-phoneNumber
-email
-name
}

class Employee{
-name
-address
-phoneNumber
-employeeID
-orgRole
-email
-SOCcode
}

class User {
-name
-email
-password
}

@enduml

@startuml
hide methods

class Receptionist
class Client
class Employee
class Company
class User
left to right direction

Client "*" - - "1..*" Receptionist : < registers
Employee "*" <|- - "1..*" Receptionist
Company "1" - - "*" Employee : < works for
Client "1" - - "1" User : > is a

skinparam classAttributeIconSize 0

class Company{
-designation
}

class Receptionist{
}

class Client{
-citizenID
-nhsID
-birthDate
-sex
-TIN
-phoneNumber
-email
-name
}

class Employee{
-name
-address
-phoneNumber
-employeeID
-orgRole
-email
-SOCcode
}

class User {
-name
-email
-password
}

@enduml

PlantUML version 1.2021.4(Sun Apr 04 09:49:39 BST 2021)
(GPL source distribution)
Java Runtime: OpenJDK Runtime Environment
JVM: OpenJDK 64-Bit Server VM
Default Encoding: Cp1252
Language: pt
Country: PT
--></g></svg>