<?xml version="1.0" encoding="UTF-8" standalone="no"?><svg xmlns="http://www.w3.org/2000/svg" xmlns:xlink="http://www.w3.org/1999/xlink" contentScriptType="application/ecmascript" contentStyleType="text/css" height="454.86px" preserveAspectRatio="none" style="width:434px;height:454px;" version="1.1" viewBox="0 0 434 454" width="434.7px" zoomAndPan="magnify"><defs><filter height="300%" id="f14hcouokqoi0r" width="300%" x="-1" y="-1"><feGaussianBlur result="blurOut" stdDeviation="1.26"/><feColorMatrix in="blurOut" result="blurOut2" type="matrix" values="0 0 0 0 0 0 0 0 0 0 0 0 0 0 0 0 0 0 .4 0"/><feOffset dx="2.52" dy="2.52" in="blurOut2" result="blurOut3"/><feBlend in="SourceGraphic" in2="blurOut3" mode="normal"/></filter></defs><g><!--MD5=[dc548cf8b8a921e529ef6dffc75baca7]
class RecordSamplesUI--><rect codeLine="4" fill="#FEFECE" filter="url(#f14hcouokqoi0r)" height="30.24" id="RecordSamplesUI" style="stroke:#A80036;stroke-width:0.9450000000000001;" width="84.42" x="169.785" y="4.41"/><ellipse cx="179.235" cy="14.49" fill="#ADD1B2" rx="6.93" ry="6.93" style="stroke:#A80036;stroke-width:0.63;"/><path d="M180.495,12.285 Q180.623,11.97 180.7706,11.8125 Q180.9183,11.655 181.0856,11.655 Q181.3809,11.655 181.568,11.8322 Q181.755,12.0094 181.755,12.4228 L181.755,13.4072 Q181.755,13.8206 181.5778,13.9978 Q181.4006,14.175 181.125,14.175 Q180.8789,14.175 180.7214,14.0667 Q180.5639,13.9584 180.495,13.673 Q180.4655,13.4761 180.3572,13.3678 Q180.1603,13.1611 179.8059,13.043 Q179.4516,12.915 179.0972,12.915 Q178.6542,12.915 178.2802,13.0922 Q177.9159,13.2694 177.6305,13.6631 Q177.345,14.0569 177.345,14.5983 L177.345,15.1791 Q177.345,15.8288 177.8766,16.2619 Q178.4081,16.695 179.3531,16.695 Q179.9142,16.695 180.308,16.567 Q180.5344,16.4981 180.7903,16.2717 Q180.9577,16.1438 181.0463,16.1044 Q181.1348,16.065 181.2431,16.065 Q181.4498,16.065 181.5975,16.2323 Q181.755,16.3898 181.755,16.6163 Q181.755,16.8328 181.5384,17.0888 Q181.2234,17.4628 180.7214,17.6695 Q180.0619,17.955 179.2547,17.955 Q178.3097,17.955 177.5517,17.5809 Q176.9414,17.2856 176.5083,16.6458 Q176.085,16.0059 176.085,15.248 L176.085,14.5589 Q176.085,13.7714 176.4591,13.0823 Q176.843,12.3933 177.5025,12.0291 Q178.1719,11.655 178.92,11.655 Q179.3728,11.655 179.7666,11.8125 Q180.1603,11.97 180.495,12.285 Z " fill="#000000"/><text fill="#000000" font-family="sans-serif" font-size="7.56" lengthAdjust="spacing" textLength="64.26" x="188.055" y="17.5834">RecordSamplesUI</text><line style="stroke:#A80036;stroke-width:0.9450000000000001;" x1="170.415" x2="253.575" y1="24.57" y2="24.57"/><line style="stroke:#A80036;stroke-width:0.9450000000000001;" x1="170.415" x2="253.575" y1="29.61" y2="29.61"/><!--MD5=[a1e7b5096c55c847fdbd76277a7fd41a]
class RecordSamplesController--><rect codeLine="7" fill="#FEFECE" filter="url(#f14hcouokqoi0r)" height="30.24" id="RecordSamplesController" style="stroke:#A80036;stroke-width:0.9450000000000001;" width="110.88" x="156.555" y="72.45"/><ellipse cx="166.005" cy="82.53" fill="#ADD1B2" rx="6.93" ry="6.93" style="stroke:#A80036;stroke-width:0.63;"/><path d="M167.265,80.325 Q167.393,80.01 167.5406,79.8525 Q167.6883,79.695 167.8556,79.695 Q168.1509,79.695 168.338,79.8722 Q168.525,80.0494 168.525,80.4628 L168.525,81.4472 Q168.525,81.8606 168.3478,82.0378 Q168.1706,82.215 167.895,82.215 Q167.6489,82.215 167.4914,82.1067 Q167.3339,81.9984 167.265,81.713 Q167.2355,81.5161 167.1272,81.4078 Q166.9303,81.2011 166.5759,81.083 Q166.2216,80.955 165.8672,80.955 Q165.4242,80.955 165.0502,81.1322 Q164.6859,81.3094 164.4005,81.7031 Q164.115,82.0969 164.115,82.6383 L164.115,83.2191 Q164.115,83.8688 164.6466,84.3019 Q165.1781,84.735 166.1231,84.735 Q166.6842,84.735 167.078,84.607 Q167.3044,84.5381 167.5603,84.3117 Q167.7277,84.1838 167.8163,84.1444 Q167.9048,84.105 168.0131,84.105 Q168.2198,84.105 168.3675,84.2723 Q168.525,84.4298 168.525,84.6563 Q168.525,84.8728 168.3084,85.1288 Q167.9934,85.5028 167.4914,85.7095 Q166.8319,85.995 166.0247,85.995 Q165.0797,85.995 164.3217,85.6209 Q163.7114,85.3256 163.2783,84.6858 Q162.855,84.0459 162.855,83.288 L162.855,82.5989 Q162.855,81.8114 163.2291,81.1223 Q163.613,80.4333 164.2725,80.0691 Q164.9419,79.695 165.69,79.695 Q166.1428,79.695 166.5366,79.8525 Q166.9303,80.01 167.265,80.325 Z " fill="#000000"/><text fill="#000000" font-family="sans-serif" font-size="7.56" lengthAdjust="spacing" textLength="90.72" x="174.825" y="85.6234">RecordSamplesController</text><line style="stroke:#A80036;stroke-width:0.9450000000000001;" x1="157.185" x2="266.805" y1="92.61" y2="92.61"/><line style="stroke:#A80036;stroke-width:0.9450000000000001;" x1="157.185" x2="266.805" y1="97.65" y2="97.65"/><!--MD5=[144698ec4d0188f6929a3b58a3eeb1f6]
class TestMapper--><rect codeLine="10" fill="#FEFECE" filter="url(#f14hcouokqoi0r)" height="56.3899" id="TestMapper" style="stroke:#A80036;stroke-width:0.9450000000000001;" width="61.11" x="4.41" y="140.49"/><ellipse cx="13.86" cy="150.57" fill="#ADD1B2" rx="6.93" ry="6.93" style="stroke:#A80036;stroke-width:0.63;"/><path d="M15.12,148.365 Q15.248,148.05 15.3956,147.8925 Q15.5433,147.735 15.7106,147.735 Q16.0059,147.735 16.193,147.9122 Q16.38,148.0894 16.38,148.5028 L16.38,149.4872 Q16.38,149.9006 16.2028,150.0778 Q16.0256,150.255 15.75,150.255 Q15.5039,150.255 15.3464,150.1467 Q15.1889,150.0384 15.12,149.753 Q15.0905,149.5561 14.9822,149.4478 Q14.7853,149.2411 14.4309,149.123 Q14.0766,148.995 13.7222,148.995 Q13.2792,148.995 12.9052,149.1722 Q12.5409,149.3494 12.2555,149.7431 Q11.97,150.1369 11.97,150.6783 L11.97,151.2591 Q11.97,151.9088 12.5016,152.3419 Q13.0331,152.775 13.9781,152.775 Q14.5392,152.775 14.933,152.647 Q15.1594,152.5781 15.4153,152.3517 Q15.5827,152.2238 15.6713,152.1844 Q15.7598,152.145 15.8681,152.145 Q16.0748,152.145 16.2225,152.3123 Q16.38,152.4698 16.38,152.6963 Q16.38,152.9128 16.1634,153.1688 Q15.8484,153.5428 15.3464,153.7495 Q14.6869,154.035 13.8797,154.035 Q12.9347,154.035 12.1767,153.6609 Q11.5664,153.3656 11.1333,152.7258 Q10.71,152.0859 10.71,151.328 L10.71,150.6389 Q10.71,149.8514 11.0841,149.1623 Q11.468,148.4733 12.1275,148.1091 Q12.7969,147.735 13.545,147.735 Q13.9978,147.735 14.3916,147.8925 Q14.7853,148.05 15.12,148.365 Z " fill="#000000"/><text fill="#000000" font-family="sans-serif" font-size="7.56" lengthAdjust="spacing" textLength="40.95" x="22.68" y="153.6634">TestMapper</text><line style="stroke:#A80036;stroke-width:0.9450000000000001;" x1="5.04" x2="64.89" y1="160.65" y2="160.65"/><line style="stroke:#A80036;stroke-width:0.9450000000000001;" x1="5.04" x2="64.89" y1="165.69" y2="165.69"/><text fill="#000000" font-family="sans-serif" font-size="6.93" lengthAdjust="spacing" textLength="34.02" x="8.19" y="175.4039">+toDto(lRT)</text><text fill="#000000" font-family="sans-serif" font-size="6.93" lengthAdjust="spacing" textLength="51.66" x="8.19" y="184.1206">+toModel(lRTDto)</text><text fill="#000000" font-family="sans-serif" font-size="6.93" lengthAdjust="spacing" textLength="26.46" x="8.19" y="192.8372">+toDto(t)</text><!--MD5=[02e4b9b7573f1156f41e60aa5b4e25a4]
class Company--><rect codeLine="16" fill="#FEFECE" filter="url(#f14hcouokqoi0r)" height="47.6733" id="Company" style="stroke:#A80036;stroke-width:0.9450000000000001;" width="64.26" x="87.885" y="144.9"/><ellipse cx="102.1545" cy="154.98" fill="#ADD1B2" rx="6.93" ry="6.93" style="stroke:#A80036;stroke-width:0.63;"/><path d="M103.4145,152.775 Q103.5425,152.46 103.6901,152.3025 Q103.8378,152.145 104.0051,152.145 Q104.3004,152.145 104.4875,152.3222 Q104.6745,152.4994 104.6745,152.9128 L104.6745,153.8972 Q104.6745,154.3106 104.4973,154.4878 Q104.3201,154.665 104.0445,154.665 Q103.7984,154.665 103.6409,154.5567 Q103.4834,154.4484 103.4145,154.163 Q103.385,153.9661 103.2767,153.8578 Q103.0798,153.6511 102.7254,153.533 Q102.3711,153.405 102.0167,153.405 Q101.5737,153.405 101.1997,153.5822 Q100.8354,153.7594 100.55,154.1531 Q100.2645,154.5469 100.2645,155.0883 L100.2645,155.6691 Q100.2645,156.3188 100.7961,156.7519 Q101.3276,157.185 102.2726,157.185 Q102.8337,157.185 103.2275,157.057 Q103.4539,156.9881 103.7098,156.7617 Q103.8772,156.6338 103.9658,156.5944 Q104.0543,156.555 104.1626,156.555 Q104.3693,156.555 104.517,156.7223 Q104.6745,156.8798 104.6745,157.1063 Q104.6745,157.3228 104.4579,157.5788 Q104.1429,157.9528 103.6409,158.1595 Q102.9814,158.445 102.1742,158.445 Q101.2292,158.445 100.4712,158.0709 Q99.8609,157.7756 99.4278,157.1358 Q99.0045,156.4959 99.0045,155.738 L99.0045,155.0489 Q99.0045,154.2614 99.3786,153.5723 Q99.7625,152.8833 100.422,152.5191 Q101.0914,152.145 101.8395,152.145 Q102.2923,152.145 102.6861,152.3025 Q103.0798,152.46 103.4145,152.775 Z " fill="#000000"/><text fill="#000000" font-family="sans-serif" font-size="7.56" lengthAdjust="spacing" textLength="33.39" x="112.0455" y="158.0734">Company</text><line style="stroke:#A80036;stroke-width:0.9450000000000001;" x1="88.515" x2="151.515" y1="165.06" y2="165.06"/><text fill="#000000" font-family="sans-serif" font-size="6.93" lengthAdjust="spacing" textLength="56.7" x="91.665" y="174.7739">-String designation</text><line style="stroke:#A80036;stroke-width:0.9450000000000001;" x1="88.515" x2="151.515" y1="178.8166" y2="178.8166"/><text fill="#000000" font-family="sans-serif" font-size="6.93" lengthAdjust="spacing" textLength="47.88" x="91.665" y="188.5306">+getTestStore()</text><!--MD5=[0f6f7964b844a64b0496af0dda7914bd]
class TestStore--><rect codeLine="21" fill="#FEFECE" filter="url(#f14hcouokqoi0r)" height="56.3899" id="TestStore" style="stroke:#A80036;stroke-width:0.9450000000000001;" width="75.6" x="174.195" y="140.49"/><ellipse cx="193.5675" cy="150.57" fill="#ADD1B2" rx="6.93" ry="6.93" style="stroke:#A80036;stroke-width:0.63;"/><path d="M194.8275,148.365 Q194.9555,148.05 195.1031,147.8925 Q195.2508,147.735 195.4181,147.735 Q195.7134,147.735 195.9005,147.9122 Q196.0875,148.0894 196.0875,148.5028 L196.0875,149.4872 Q196.0875,149.9006 195.9103,150.0778 Q195.7331,150.255 195.4575,150.255 Q195.2114,150.255 195.0539,150.1467 Q194.8964,150.0384 194.8275,149.753 Q194.798,149.5561 194.6897,149.4478 Q194.4928,149.2411 194.1384,149.123 Q193.7841,148.995 193.4297,148.995 Q192.9867,148.995 192.6127,149.1722 Q192.2484,149.3494 191.963,149.7431 Q191.6775,150.1369 191.6775,150.6783 L191.6775,151.2591 Q191.6775,151.9088 192.2091,152.3419 Q192.7406,152.775 193.6856,152.775 Q194.2467,152.775 194.6405,152.647 Q194.8669,152.5781 195.1228,152.3517 Q195.2902,152.2238 195.3788,152.1844 Q195.4673,152.145 195.5756,152.145 Q195.7823,152.145 195.93,152.3123 Q196.0875,152.4698 196.0875,152.6963 Q196.0875,152.9128 195.8709,153.1688 Q195.5559,153.5428 195.0539,153.7495 Q194.3944,154.035 193.5872,154.035 Q192.6422,154.035 191.8842,153.6609 Q191.2739,153.3656 190.8408,152.7258 Q190.4175,152.0859 190.4175,151.328 L190.4175,150.6389 Q190.4175,149.8514 190.7916,149.1623 Q191.1755,148.4733 191.835,148.1091 Q192.5044,147.735 193.2525,147.735 Q193.7053,147.735 194.0991,147.8925 Q194.4928,148.05 194.8275,148.365 Z " fill="#000000"/><text fill="#000000" font-family="sans-serif" font-size="7.56" lengthAdjust="spacing" textLength="33.39" x="204.5925" y="153.6634">TestStore</text><line style="stroke:#A80036;stroke-width:0.9450000000000001;" x1="174.825" x2="249.165" y1="160.65" y2="160.65"/><line style="stroke:#A80036;stroke-width:0.9450000000000001;" x1="174.825" x2="249.165" y1="165.69" y2="165.69"/><text fill="#000000" font-family="sans-serif" font-size="6.93" lengthAdjust="spacing" textLength="68.04" x="177.975" y="175.4039">+getRegisteredTests()</text><text fill="#000000" font-family="sans-serif" font-size="6.93" lengthAdjust="spacing" textLength="59.85" x="177.975" y="184.1206">+isUnique(barcode)</text><text fill="#000000" font-family="sans-serif" font-size="6.93" lengthAdjust="spacing" textLength="25.83" x="177.975" y="192.8372">+save(t)</text><!--MD5=[df38be88ccee13e832d6fafd6288a4ca]
class Test--><rect codeLine="27" fill="#FEFECE" filter="url(#f14hcouokqoi0r)" height="126.123" id="Test" style="stroke:#A80036;stroke-width:0.9450000000000001;" width="112.14" x="166.005" y="234.99"/><ellipse cx="211.8375" cy="245.07" fill="#ADD1B2" rx="6.93" ry="6.93" style="stroke:#A80036;stroke-width:0.63;"/><path d="M213.0975,242.865 Q213.2255,242.55 213.3731,242.3925 Q213.5208,242.235 213.6881,242.235 Q213.9834,242.235 214.1705,242.4122 Q214.3575,242.5894 214.3575,243.0028 L214.3575,243.9872 Q214.3575,244.4006 214.1803,244.5778 Q214.0031,244.755 213.7275,244.755 Q213.4814,244.755 213.3239,244.6467 Q213.1664,244.5384 213.0975,244.253 Q213.068,244.0561 212.9597,243.9478 Q212.7628,243.7411 212.4084,243.623 Q212.0541,243.495 211.6997,243.495 Q211.2567,243.495 210.8827,243.6722 Q210.5184,243.8494 210.233,244.2431 Q209.9475,244.6369 209.9475,245.1783 L209.9475,245.7591 Q209.9475,246.4088 210.4791,246.8419 Q211.0106,247.275 211.9556,247.275 Q212.5167,247.275 212.9105,247.147 Q213.1369,247.0781 213.3928,246.8517 Q213.5602,246.7238 213.6488,246.6844 Q213.7373,246.645 213.8456,246.645 Q214.0523,246.645 214.2,246.8123 Q214.3575,246.9698 214.3575,247.1963 Q214.3575,247.4128 214.1409,247.6688 Q213.8259,248.0428 213.3239,248.2495 Q212.6644,248.535 211.8572,248.535 Q210.9122,248.535 210.1542,248.1609 Q209.5439,247.8656 209.1108,247.2258 Q208.6875,246.5859 208.6875,245.828 L208.6875,245.1389 Q208.6875,244.3514 209.0616,243.6623 Q209.4455,242.9733 210.105,242.6091 Q210.7744,242.235 211.5225,242.235 Q211.9753,242.235 212.3691,242.3925 Q212.7628,242.55 213.0975,242.865 Z " fill="#000000"/><text fill="#000000" font-family="sans-serif" font-size="7.56" lengthAdjust="spacing" textLength="15.12" x="224.7525" y="248.1634">Test</text><line style="stroke:#A80036;stroke-width:0.9450000000000001;" x1="166.635" x2="277.515" y1="255.15" y2="255.15"/><text fill="#000000" font-family="sans-serif" font-size="6.93" lengthAdjust="spacing" textLength="35.91" x="169.785" y="264.8639">-description</text><text fill="#000000" font-family="sans-serif" font-size="6.93" lengthAdjust="spacing" textLength="17.64" x="169.785" y="273.5806">-code</text><text fill="#000000" font-family="sans-serif" font-size="6.93" lengthAdjust="spacing" textLength="29.61" x="169.785" y="282.2972">-nhsCode</text><text fill="#000000" font-family="sans-serif" font-size="6.93" lengthAdjust="spacing" textLength="49.77" x="169.785" y="291.0139">-collectDateTime</text><text fill="#000000" font-family="sans-serif" font-size="6.93" lengthAdjust="spacing" textLength="83.16" x="169.785" y="299.7305">-chemicalAnalysisDateTime</text><text fill="#000000" font-family="sans-serif" font-size="6.93" lengthAdjust="spacing" textLength="59.22" x="169.785" y="308.4471">-diagnosisDateTime</text><text fill="#000000" font-family="sans-serif" font-size="6.93" lengthAdjust="spacing" textLength="58.59" x="169.785" y="317.1638">-validationDateTime</text><line style="stroke:#A80036;stroke-width:0.9450000000000001;" x1="166.635" x2="277.515" y1="321.2065" y2="321.2065"/><text fill="#000000" font-family="sans-serif" font-size="6.93" lengthAdjust="spacing" textLength="60.48" x="169.785" y="330.9204">+containsSamples()</text><text fill="#000000" font-family="sans-serif" font-size="6.93" lengthAdjust="spacing" textLength="104.58" x="169.785" y="339.6371">+addAll(listBarcodesNotRepested)</text><text fill="#000000" font-family="sans-serif" font-size="6.93" lengthAdjust="spacing" textLength="77.49" x="169.785" y="348.3537">+updateCollectDateTime()</text><text fill="#000000" font-family="sans-serif" font-size="6.93" lengthAdjust="spacing" textLength="32.13" x="169.785" y="357.0703">+validate()</text><!--MD5=[837547de269260f334c6cb8943c04a2c]
class APIBarcodeAdapter--><rect codeLine="41" fill="#FEFECE" filter="url(#f14hcouokqoi0r)" height="38.9566" id="APIBarcodeAdapter" style="stroke:#A80036;stroke-width:0.9450000000000001;" width="102.69" x="316.89" y="149.31"/><ellipse cx="333.4275" cy="159.39" fill="#ADD1B2" rx="6.93" ry="6.93" style="stroke:#A80036;stroke-width:0.63;"/><path d="M334.6875,157.185 Q334.8155,156.87 334.9631,156.7125 Q335.1108,156.555 335.2781,156.555 Q335.5734,156.555 335.7605,156.7322 Q335.9475,156.9094 335.9475,157.3228 L335.9475,158.3072 Q335.9475,158.7206 335.7703,158.8978 Q335.5931,159.075 335.3175,159.075 Q335.0714,159.075 334.9139,158.9667 Q334.7564,158.8584 334.6875,158.573 Q334.658,158.3761 334.5497,158.2678 Q334.3528,158.0611 333.9984,157.943 Q333.6441,157.815 333.2897,157.815 Q332.8467,157.815 332.4727,157.9922 Q332.1084,158.1694 331.823,158.5631 Q331.5375,158.9569 331.5375,159.4983 L331.5375,160.0791 Q331.5375,160.7288 332.0691,161.1619 Q332.6006,161.595 333.5456,161.595 Q334.1067,161.595 334.5005,161.467 Q334.7269,161.3981 334.9828,161.1717 Q335.1502,161.0438 335.2388,161.0044 Q335.3273,160.965 335.4356,160.965 Q335.6423,160.965 335.79,161.1323 Q335.9475,161.2898 335.9475,161.5163 Q335.9475,161.7328 335.7309,161.9888 Q335.4159,162.3628 334.9139,162.5695 Q334.2544,162.855 333.4472,162.855 Q332.5022,162.855 331.7442,162.4809 Q331.1339,162.1856 330.7008,161.5458 Q330.2775,160.9059 330.2775,160.148 L330.2775,159.4589 Q330.2775,158.6714 330.6516,157.9823 Q331.0355,157.2933 331.695,156.9291 Q332.3644,156.555 333.1125,156.555 Q333.5653,156.555 333.9591,156.7125 Q334.3528,156.87 334.6875,157.185 Z " fill="#000000"/><text fill="#000000" font-family="sans-serif" font-size="7.56" lengthAdjust="spacing" textLength="66.78" x="343.8225" y="162.4834">APIBarcodeAdapter</text><line style="stroke:#A80036;stroke-width:0.9450000000000001;" x1="317.52" x2="418.95" y1="169.47" y2="169.47"/><line style="stroke:#A80036;stroke-width:0.9450000000000001;" x1="317.52" x2="418.95" y1="174.51" y2="174.51"/><text fill="#000000" font-family="sans-serif" font-size="6.93" lengthAdjust="spacing" textLength="95.13" x="320.67" y="184.2239">+generateBarcodes(nSamples)</text><!--MD5=[ea9db495254b65e9320d91ab6d521049]
class ExternalModuleAPIBarcode--><rect codeLine="45" fill="#FEFECE" filter="url(#f14hcouokqoi0r)" height="38.9566" id="ExternalModuleAPIBarcode" style="stroke:#A80036;stroke-width:0.9450000000000001;" width="115.29" x="310.59" y="278.46"/><ellipse cx="320.04" cy="288.54" fill="#B4A7E5" rx="6.93" ry="6.93" style="stroke:#A80036;stroke-width:0.63;"/><path d="M320.67,286.65 L320.67,290.43 L321.93,290.43 L322.2352,290.43 L322.56,290.8238 L322.56,291.06 L322.56,291.2963 L322.2352,291.69 L321.93,291.69 L318.15,291.69 L317.8448,291.69 L317.52,291.2963 L317.52,291.06 L317.52,290.8238 L317.8448,290.43 L318.15,290.43 L319.41,290.43 L319.41,286.65 L318.15,286.65 L317.8448,286.65 L317.52,286.2563 L317.52,286.02 L317.52,285.7838 L317.8448,285.39 L318.15,285.39 L321.93,285.39 L322.2352,285.39 L322.56,285.7838 L322.56,286.02 L322.56,286.2563 L322.2352,286.65 L321.93,286.65 L320.67,286.65 Z " fill="#000000"/><text fill="#000000" font-family="sans-serif" font-size="7.56" font-style="italic" lengthAdjust="spacing" textLength="95.13" x="328.86" y="291.6334">ExternalModuleAPIBarcode</text><line style="stroke:#A80036;stroke-width:0.9450000000000001;" x1="311.22" x2="425.25" y1="298.62" y2="298.62"/><line style="stroke:#A80036;stroke-width:0.9450000000000001;" x1="311.22" x2="425.25" y1="303.66" y2="303.66"/><text fill="#000000" font-family="sans-serif" font-size="6.93" lengthAdjust="spacing" textLength="61.74" x="314.37" y="313.3739">generate(nSamples)</text><!--MD5=[9681492165142af2a4a3a169d90ee8d4]
class Sample--><rect codeLine="49" fill="#FEFECE" filter="url(#f14hcouokqoi0r)" height="47.6733" id="Sample" style="stroke:#A80036;stroke-width:0.9450000000000001;" width="63.63" x="190.26" y="398.79"/><ellipse cx="207.081" cy="408.87" fill="#ADD1B2" rx="6.93" ry="6.93" style="stroke:#A80036;stroke-width:0.63;"/><path d="M208.341,406.665 Q208.469,406.35 208.6166,406.1925 Q208.7643,406.035 208.9316,406.035 Q209.2269,406.035 209.414,406.2122 Q209.601,406.3894 209.601,406.8028 L209.601,407.7872 Q209.601,408.2006 209.4238,408.3778 Q209.2466,408.555 208.971,408.555 Q208.7249,408.555 208.5674,408.4467 Q208.4099,408.3384 208.341,408.053 Q208.3115,407.8561 208.2032,407.7478 Q208.0063,407.5411 207.6519,407.423 Q207.2976,407.295 206.9432,407.295 Q206.5002,407.295 206.1262,407.4722 Q205.7619,407.6494 205.4765,408.0431 Q205.191,408.4369 205.191,408.9783 L205.191,409.5591 Q205.191,410.2088 205.7226,410.6419 Q206.2541,411.075 207.1991,411.075 Q207.7602,411.075 208.154,410.947 Q208.3804,410.8781 208.6363,410.6517 Q208.8037,410.5238 208.8923,410.4844 Q208.9808,410.445 209.0891,410.445 Q209.2958,410.445 209.4435,410.6123 Q209.601,410.7698 209.601,410.9963 Q209.601,411.2128 209.3844,411.4688 Q209.0694,411.8428 208.5674,412.0495 Q207.9079,412.335 207.1007,412.335 Q206.1557,412.335 205.3977,411.9609 Q204.7874,411.6656 204.3543,411.0258 Q203.931,410.3859 203.931,409.628 L203.931,408.9389 Q203.931,408.1514 204.3051,407.4623 Q204.689,406.7733 205.3485,406.4091 Q206.0179,406.035 206.766,406.035 Q207.2188,406.035 207.6126,406.1925 Q208.0063,406.35 208.341,406.665 Z " fill="#000000"/><text fill="#000000" font-family="sans-serif" font-size="7.56" lengthAdjust="spacing" textLength="27.09" x="217.539" y="411.9634">Sample</text><line style="stroke:#A80036;stroke-width:0.9450000000000001;" x1="190.89" x2="253.26" y1="418.95" y2="418.95"/><text fill="#000000" font-family="sans-serif" font-size="6.93" lengthAdjust="spacing" textLength="27.72" x="194.04" y="428.6639">-barcode</text><line style="stroke:#A80036;stroke-width:0.9450000000000001;" x1="190.89" x2="253.26" y1="432.7066" y2="432.7066"/><text fill="#000000" font-family="sans-serif" font-size="6.93" lengthAdjust="spacing" textLength="56.07" x="194.04" y="442.4206">+Sample(barcode)</text><!--MD5=[2b8f4f220c107d5b0c7e594325c75009]
link RecordSamplesUI to RecordSamplesController--><path codeLine="54" d="M211.995,34.65 C211.995,44.73 211.995,58.2435 211.995,69.0039 " fill="none" id="RecordSamplesUI-to-RecordSamplesController" style="stroke:#A80036;stroke-width:0.63;stroke-dasharray:7.0,7.0;"/><polygon fill="#A80036" points="211.995,72.2484,214.515,66.5784,211.995,69.0984,209.475,66.5784,211.995,72.2484" style="stroke:#A80036;stroke-width:0.63;"/><!--MD5=[6ed32d73deab35a78f7e857c49af6d4e]
link RecordSamplesController to TestMapper--><path codeLine="55" d="M167.0004,102.7719 C140.112,112.1589 105.6384,125.4078 76.545,140.49 C73.8297,141.8949 71.0766,143.4447 68.3424,145.0638 " fill="none" id="RecordSamplesController-to-TestMapper" style="stroke:#A80036;stroke-width:0.63;stroke-dasharray:7.0,7.0;"/><polygon fill="#A80036" points="65.6145,146.7018,71.7711,145.9304,68.3116,145.0745,69.1675,141.615,65.6145,146.7018" style="stroke:#A80036;stroke-width:0.63;"/><!--MD5=[cb39fcb634a9bd76468eff3a82f2ba7e]
link RecordSamplesController to Company--><path codeLine="56" d="M195.1236,102.8727 C182.322,114.0111 164.4111,129.591 149.2911,142.7454 " fill="none" id="RecordSamplesController-to-Company" style="stroke:#A80036;stroke-width:0.63;stroke-dasharray:7.0,7.0;"/><polygon fill="#A80036" points="146.8908,144.8307,152.8213,143.0062,149.2659,142.7615,149.5106,139.2061,146.8908,144.8307" style="stroke:#A80036;stroke-width:0.63;"/><!--MD5=[56748807f3dbfcb383b4f7a7d0d85bb1]
link RecordSamplesController to TestStore--><path codeLine="57" d="M211.995,102.8727 C211.995,112.4424 211.995,125.2944 211.995,137.0628 " fill="none" id="RecordSamplesController-to-TestStore" style="stroke:#A80036;stroke-width:0.63;stroke-dasharray:7.0,7.0;"/><polygon fill="#A80036" points="211.995,140.3514,214.515,134.6814,211.995,137.2014,209.475,134.6814,211.995,140.3514" style="stroke:#A80036;stroke-width:0.63;"/><!--MD5=[3ee54d312014e77ab3a5177ff886dee1]
link RecordSamplesController to Test--><path codeLine="58" d="M231.6573,102.7908 C242.5941,112.1841 255.1689,125.433 261.135,140.49 C272.6766,169.6338 266.7168,203.2002 256.3281,231.7896 " fill="none" id="RecordSamplesController-to-Test" style="stroke:#A80036;stroke-width:0.63;stroke-dasharray:7.0,7.0;"/><polygon fill="#A80036" points="255.1752,234.8955,259.5138,230.4597,256.2733,231.9431,254.7899,228.7027,255.1752,234.8955" style="stroke:#A80036;stroke-width:0.63;"/><!--MD5=[14540e0853ac55f776ac107dcbbde416]
link RecordSamplesController to APIBarcodeAdapter--><path codeLine="59" d="M240.471,102.7845 C265.0158,115.353 300.7179,133.6356 328.1481,147.6846 " fill="none" id="RecordSamplesController-to-APIBarcodeAdapter" style="stroke:#A80036;stroke-width:0.63;stroke-dasharray:7.0,7.0;"/><polygon fill="#A80036" points="331.1154,149.2029,327.2141,144.3781,328.3107,147.769,324.9198,148.8656,331.1154,149.2029" style="stroke:#A80036;stroke-width:0.63;"/><!--MD5=[19aa18508572e0a5d7873965d2e6d2ca]
link APIBarcodeAdapter to ExternalModuleAPIBarcode--><path codeLine="60" d="M368.235,188.6157 C368.235,211.7556 368.235,250.6266 368.235,275.0895 " fill="none" id="APIBarcodeAdapter-to-ExternalModuleAPIBarcode" style="stroke:#A80036;stroke-width:0.63;stroke-dasharray:7.0,7.0;"/><polygon fill="#A80036" points="368.235,278.2899,370.755,272.6199,368.235,275.1399,365.715,272.6199,368.235,278.2899" style="stroke:#A80036;stroke-width:0.63;"/><!--MD5=[b0f4f6db8206580012ef9cd998ed01c5]
link TestStore to Test--><path codeLine="61" d="M214.1811,197.2215 C214.9812,207.3582 215.9262,219.3093 216.8712,231.3549 " fill="none" id="TestStore-to-Test" style="stroke:#A80036;stroke-width:0.63;stroke-dasharray:7.0,7.0;"/><polygon fill="#A80036" points="217.1421,234.7569,219.2172,228.9094,216.8991,231.6163,214.1923,229.2982,217.1421,234.7569" style="stroke:#A80036;stroke-width:0.63;"/><!--MD5=[b72ac8ab7fb5921fceb5036a3902baea]
link Test to Sample--><path codeLine="62" d="M222.075,361.0845 C222.075,373.1238 222.075,385.1253 222.075,395.2557 " fill="none" id="Test-to-Sample" style="stroke:#A80036;stroke-width:0.63;stroke-dasharray:7.0,7.0;"/><polygon fill="#A80036" points="222.075,398.6199,224.595,392.9499,222.075,395.4699,219.555,392.9499,222.075,398.6199" style="stroke:#A80036;stroke-width:0.63;"/><!--MD5=[4e5a173648010020e43ff3ab9d1280a3]
@startuml
'https://plantuml.com/class-diagram
skinparam classAttributeIconSize 0

class RecordSamplesUI{
}

class RecordSamplesController{
}

class TestMapper{
  +toDto(lRT)
  +toModel(lRTDto)
  +toDto(t)
}

class Company{
  -String designation
  +getTestStore()
}

class TestStore{
  +getRegisteredTests()
  +isUnique(barcode)
  +save(t)
}

class Test{
  -description
  -code
  -nhsCode
  -collectDateTime
  -chemicalAnalysisDateTime
  -diagnosisDateTime
  -validationDateTime
  +containsSamples()
  +addAll(listBarcodesNotRepested)
  +updateCollectDateTime()
  +validate()
}

class APIBarcodeAdapter{
  +generateBarcodes(nSamples)
}

interface ExternalModuleAPIBarcode{
  generate(nSamples)
}

class Sample{
  -barcode
  +Sample(barcode)
}

RecordSamplesUI ..> RecordSamplesController
RecordSamplesController ..> TestMapper
RecordSamplesController ..> Company
RecordSamplesController ..> TestStore
RecordSamplesController ..> Test
RecordSamplesController ..> APIBarcodeAdapter
APIBarcodeAdapter ..> ExternalModuleAPIBarcode
TestStore ..> Test
Test ..> Sample




@enduml

@startuml
skinparam classAttributeIconSize 0

class RecordSamplesUI{
}

class RecordSamplesController{
}

class TestMapper{
  +toDto(lRT)
  +toModel(lRTDto)
  +toDto(t)
}

class Company{
  -String designation
  +getTestStore()
}

class TestStore{
  +getRegisteredTests()
  +isUnique(barcode)
  +save(t)
}

class Test{
  -description
  -code
  -nhsCode
  -collectDateTime
  -chemicalAnalysisDateTime
  -diagnosisDateTime
  -validationDateTime
  +containsSamples()
  +addAll(listBarcodesNotRepested)
  +updateCollectDateTime()
  +validate()
}

class APIBarcodeAdapter{
  +generateBarcodes(nSamples)
}

interface ExternalModuleAPIBarcode{
  generate(nSamples)
}

class Sample{
  -barcode
  +Sample(barcode)
}

RecordSamplesUI ..> RecordSamplesController
RecordSamplesController ..> TestMapper
RecordSamplesController ..> Company
RecordSamplesController ..> TestStore
RecordSamplesController ..> Test
RecordSamplesController ..> APIBarcodeAdapter
APIBarcodeAdapter ..> ExternalModuleAPIBarcode
TestStore ..> Test
Test ..> Sample




@enduml

PlantUML version 1.2021.2(Sun Mar 07 11:10:27 GMT 2021)
(GPL source distribution)
Java Runtime: OpenJDK Runtime Environment
JVM: OpenJDK 64-Bit Server VM
Default Encoding: Cp1252
Language: pt
Country: PT
--></g></svg>