<?xml version="1.0" encoding="UTF-8" standalone="no"?><svg xmlns="http://www.w3.org/2000/svg" xmlns:xlink="http://www.w3.org/1999/xlink" contentScriptType="application/ecmascript" contentStyleType="text/css" height="1020.32px" preserveAspectRatio="none" style="width:664px;height:1020px;" version="1.1" viewBox="0 0 664 1020" width="664.16px" zoomAndPan="magnify"><defs><filter height="300%" id="f9ltrzpxczjny" width="300%" x="-1" y="-1"><feGaussianBlur result="blurOut" stdDeviation="2.24"/><feColorMatrix in="blurOut" result="blurOut2" type="matrix" values="0 0 0 0 0 0 0 0 0 0 0 0 0 0 0 0 0 0 .4 0"/><feOffset dx="4.48" dy="4.48" in="blurOut2" result="blurOut3"/><feBlend in="SourceGraphic" in2="blurOut3" mode="normal"/></filter></defs><g><!--MD5=[9681dc6e01e10c6b4fe06895ae94f592]
cluster UI--><polygon fill="#FFFFFF" filter="url(#f9ltrzpxczjny)" points="361.76,6.72,384.16,6.72,392,33.1625,547.68,33.1625,547.68,118.72,361.76,118.72,361.76,6.72" style="stroke:#000000;stroke-width:1.6800000000000002;"/><line style="stroke:#000000;stroke-width:1.6800000000000002;" x1="361.76" x2="392" y1="33.1625" y2="33.1625"/><text fill="#000000" font-family="sans-serif" font-size="15.68" font-weight="bold" lengthAdjust="spacing" textLength="15.68" x="366.24" y="25.2372">UI</text><!--MD5=[2c2e2644034c00788261e03c85b06837]
cluster Core--><polygon fill="#FFFFFF" filter="url(#f9ltrzpxczjny)" points="17.92,145.6,62.72,145.6,70.56,172.0425,645.12,172.0425,645.12,1012.48,17.92,1012.48,17.92,145.6" style="stroke:#000000;stroke-width:1.6800000000000002;"/><line style="stroke:#000000;stroke-width:1.6800000000000002;" x1="17.92" x2="70.56" y1="172.0425" y2="172.0425"/><text fill="#000000" font-family="sans-serif" font-size="15.68" font-weight="bold" lengthAdjust="spacing" textLength="38.08" x="22.4" y="164.1172">Core</text><!--MD5=[ed1d20ea533a2a0e7df5ba3c35e56ced]
cluster Controllers--><polygon fill="#FFFFFF" filter="url(#f9ltrzpxczjny)" points="338.24,194.88,433.44,194.88,441.28,221.3225,571.2,221.3225,571.2,306.88,338.24,306.88,338.24,194.88" style="stroke:#000000;stroke-width:1.6800000000000002;"/><line style="stroke:#000000;stroke-width:1.6800000000000002;" x1="338.24" x2="441.28" y1="221.3225" y2="221.3225"/><text fill="#000000" font-family="sans-serif" font-size="15.68" font-weight="bold" lengthAdjust="spacing" textLength="88.48" x="342.72" y="213.3972">Controllers</text><!--MD5=[701152d03fbf85133a1de050cfdbc7fd]
cluster Mappers--><polygon fill="#FFFFFF" filter="url(#f9ltrzpxczjny)" points="44.8,333.76,120.96,333.76,128.8,360.2025,194.88,360.2025,194.88,492.8,44.8,492.8,44.8,333.76" style="stroke:#000000;stroke-width:1.6800000000000002;"/><line style="stroke:#000000;stroke-width:1.6800000000000002;" x1="44.8" x2="128.8" y1="360.2025" y2="360.2025"/><text fill="#000000" font-family="sans-serif" font-size="15.68" font-weight="bold" lengthAdjust="spacing" textLength="69.44" x="49.28" y="352.2772">Mappers</text><!--MD5=[8dd535d56cd4cf7faf64fdd082ba836e]
cluster Stores--><polygon fill="#FFFFFF" filter="url(#f9ltrzpxczjny)" points="221.76,333.76,280,333.76,287.84,360.2025,432.32,360.2025,432.32,492.8,221.76,492.8,221.76,333.76" style="stroke:#000000;stroke-width:1.6800000000000002;"/><line style="stroke:#000000;stroke-width:1.6800000000000002;" x1="221.76" x2="287.84" y1="360.2025" y2="360.2025"/><text fill="#000000" font-family="sans-serif" font-size="15.68" font-weight="bold" lengthAdjust="spacing" textLength="51.52" x="226.24" y="352.2772">Stores</text><!--MD5=[15636c1ca4a123c16a2a1a8e90aca7a9]
cluster Model--><polygon fill="#FFFFFF" filter="url(#f9ltrzpxczjny)" points="44.8,519.68,100.8,519.68,108.64,546.1225,618.24,546.1225,618.24,985.6,44.8,985.6,44.8,519.68" style="stroke:#000000;stroke-width:1.6800000000000002;"/><line style="stroke:#000000;stroke-width:1.6800000000000002;" x1="44.8" x2="108.64" y1="546.1225" y2="546.1225"/><text fill="#000000" font-family="sans-serif" font-size="15.68" font-weight="bold" lengthAdjust="spacing" textLength="49.28" x="49.28" y="538.1972">Model</text><!--MD5=[dc548cf8b8a921e529ef6dffc75baca7]
class RecordSamplesUI--><rect codeLine="6" fill="#FEFECE" filter="url(#f9ltrzpxczjny)" height="53.76" id="RecordSamplesUI" style="stroke:#A80036;stroke-width:1.6800000000000002;" width="150.08" x="379.68" y="47.04"/><ellipse cx="396.48" cy="64.96" fill="#ADD1B2" rx="12.32" ry="12.32" style="stroke:#A80036;stroke-width:1.12;"/><path d="M398.72,61.04 Q398.9475,60.48 399.21,60.2 Q399.4725,59.92 399.77,59.92 Q400.295,59.92 400.6275,60.235 Q400.96,60.55 400.96,61.285 L400.96,63.035 Q400.96,63.77 400.645,64.085 Q400.33,64.4 399.84,64.4 Q399.4025,64.4 399.1225,64.2075 Q398.8425,64.015 398.72,63.5075 Q398.6675,63.1575 398.475,62.965 Q398.125,62.5975 397.495,62.3875 Q396.865,62.16 396.235,62.16 Q395.4475,62.16 394.7825,62.475 Q394.135,62.79 393.6275,63.49 Q393.12,64.19 393.12,65.1525 L393.12,66.185 Q393.12,67.34 394.065,68.11 Q395.01,68.88 396.69,68.88 Q397.6875,68.88 398.3875,68.6525 Q398.79,68.53 399.245,68.1275 Q399.5425,67.9 399.7,67.83 Q399.8575,67.76 400.05,67.76 Q400.4175,67.76 400.68,68.0575 Q400.96,68.3375 400.96,68.74 Q400.96,69.125 400.575,69.58 Q400.015,70.245 399.1225,70.6125 Q397.95,71.12 396.515,71.12 Q394.835,71.12 393.4875,70.455 Q392.4025,69.93 391.6325,68.7925 Q390.88,67.655 390.88,66.3075 L390.88,65.0825 Q390.88,63.6825 391.545,62.4575 Q392.2275,61.2325 393.4,60.585 Q394.59,59.92 395.92,59.92 Q396.725,59.92 397.425,60.2 Q398.125,60.48 398.72,61.04 Z " fill="#000000"/><text fill="#000000" font-family="sans-serif" font-size="13.44" lengthAdjust="spacing" textLength="114.24" x="412.16" y="70.4594">RecordSamplesUI</text><line style="stroke:#A80036;stroke-width:1.6800000000000002;" x1="380.8" x2="528.64" y1="82.88" y2="82.88"/><line style="stroke:#A80036;stroke-width:1.6800000000000002;" x1="380.8" x2="528.64" y1="91.84" y2="91.84"/><!--MD5=[a1e7b5096c55c847fdbd76277a7fd41a]
class RecordSamplesController--><rect codeLine="12" fill="#FEFECE" filter="url(#f9ltrzpxczjny)" height="53.76" id="RecordSamplesController" style="stroke:#A80036;stroke-width:1.6800000000000002;" width="197.12" x="356.16" y="235.2"/><ellipse cx="372.96" cy="253.12" fill="#ADD1B2" rx="12.32" ry="12.32" style="stroke:#A80036;stroke-width:1.12;"/><path d="M375.2,249.2 Q375.4275,248.64 375.69,248.36 Q375.9525,248.08 376.25,248.08 Q376.775,248.08 377.1075,248.395 Q377.44,248.71 377.44,249.445 L377.44,251.195 Q377.44,251.93 377.125,252.245 Q376.81,252.56 376.32,252.56 Q375.8825,252.56 375.6025,252.3675 Q375.3225,252.175 375.2,251.6675 Q375.1475,251.3175 374.955,251.125 Q374.605,250.7575 373.975,250.5475 Q373.345,250.32 372.715,250.32 Q371.9275,250.32 371.2625,250.635 Q370.615,250.95 370.1075,251.65 Q369.6,252.35 369.6,253.3125 L369.6,254.345 Q369.6,255.5 370.545,256.27 Q371.49,257.04 373.17,257.04 Q374.1675,257.04 374.8675,256.8125 Q375.27,256.69 375.725,256.2875 Q376.0225,256.06 376.18,255.99 Q376.3375,255.92 376.53,255.92 Q376.8975,255.92 377.16,256.2175 Q377.44,256.4975 377.44,256.9 Q377.44,257.285 377.055,257.74 Q376.495,258.405 375.6025,258.7725 Q374.43,259.28 372.995,259.28 Q371.315,259.28 369.9675,258.615 Q368.8825,258.09 368.1125,256.9525 Q367.36,255.815 367.36,254.4675 L367.36,253.2425 Q367.36,251.8425 368.025,250.6175 Q368.7075,249.3925 369.88,248.745 Q371.07,248.08 372.4,248.08 Q373.205,248.08 373.905,248.36 Q374.605,248.64 375.2,249.2 Z " fill="#000000"/><text fill="#000000" font-family="sans-serif" font-size="13.44" lengthAdjust="spacing" textLength="161.28" x="388.64" y="258.6194">RecordSamplesController</text><line style="stroke:#A80036;stroke-width:1.6800000000000002;" x1="357.28" x2="552.16" y1="271.04" y2="271.04"/><line style="stroke:#A80036;stroke-width:1.6800000000000002;" x1="357.28" x2="552.16" y1="280" y2="280"/><!--MD5=[144698ec4d0188f6929a3b58a3eeb1f6]
class TestMapper--><rect codeLine="17" fill="#FEFECE" filter="url(#f9ltrzpxczjny)" height="100.2488" id="TestMapper" style="stroke:#A80036;stroke-width:1.6800000000000002;" width="113.12" x="63.28" y="374.08"/><ellipse cx="82.096" cy="392" fill="#ADD1B2" rx="12.32" ry="12.32" style="stroke:#A80036;stroke-width:1.12;"/><path d="M84.336,388.08 Q84.5635,387.52 84.826,387.24 Q85.0885,386.96 85.386,386.96 Q85.911,386.96 86.2435,387.275 Q86.576,387.59 86.576,388.325 L86.576,390.075 Q86.576,390.81 86.261,391.125 Q85.946,391.44 85.456,391.44 Q85.0185,391.44 84.7385,391.2475 Q84.4585,391.055 84.336,390.5475 Q84.2835,390.1975 84.091,390.005 Q83.741,389.6375 83.111,389.4275 Q82.481,389.2 81.851,389.2 Q81.0635,389.2 80.3985,389.515 Q79.751,389.83 79.2435,390.53 Q78.736,391.23 78.736,392.1925 L78.736,393.225 Q78.736,394.38 79.681,395.15 Q80.626,395.92 82.306,395.92 Q83.3035,395.92 84.0035,395.6925 Q84.406,395.57 84.861,395.1675 Q85.1585,394.94 85.316,394.87 Q85.4735,394.8 85.666,394.8 Q86.0335,394.8 86.296,395.0975 Q86.576,395.3775 86.576,395.78 Q86.576,396.165 86.191,396.62 Q85.631,397.285 84.7385,397.6525 Q83.566,398.16 82.131,398.16 Q80.451,398.16 79.1035,397.495 Q78.0185,396.97 77.2485,395.8325 Q76.496,394.695 76.496,393.3475 L76.496,392.1225 Q76.496,390.7225 77.161,389.4975 Q77.8435,388.2725 79.016,387.625 Q80.206,386.96 81.536,386.96 Q82.341,386.96 83.041,387.24 Q83.741,387.52 84.336,388.08 Z " fill="#000000"/><text fill="#000000" font-family="sans-serif" font-size="13.44" lengthAdjust="spacing" textLength="72.8" x="98.224" y="397.4994">TestMapper</text><line style="stroke:#A80036;stroke-width:1.6800000000000002;" x1="64.4" x2="175.28" y1="409.92" y2="409.92"/><line style="stroke:#A80036;stroke-width:1.6800000000000002;" x1="64.4" x2="175.28" y1="418.88" y2="418.88"/><text fill="#000000" font-family="sans-serif" font-size="12.32" lengthAdjust="spacing" textLength="95.2" x="70" y="436.1492">+ModelToDto(lRT)</text><text fill="#000000" font-family="sans-serif" font-size="12.32" lengthAdjust="spacing" textLength="99.68" x="70" y="451.6455">+DtoToModel(tDto)</text><text fill="#000000" font-family="sans-serif" font-size="12.32" lengthAdjust="spacing" textLength="81.76" x="70" y="467.1417">+ModelToDto(t)</text><!--MD5=[0f6f7964b844a64b0496af0dda7914bd]
class TestStore--><rect codeLine="26" fill="#FEFECE" filter="url(#f9ltrzpxczjny)" height="100.2488" id="TestStore" style="stroke:#A80036;stroke-width:1.6800000000000002;" width="173.6" x="240.24" y="374.08"/><ellipse cx="292.6" cy="392" fill="#ADD1B2" rx="12.32" ry="12.32" style="stroke:#A80036;stroke-width:1.12;"/><path d="M294.84,388.08 Q295.0675,387.52 295.33,387.24 Q295.5925,386.96 295.89,386.96 Q296.415,386.96 296.7475,387.275 Q297.08,387.59 297.08,388.325 L297.08,390.075 Q297.08,390.81 296.765,391.125 Q296.45,391.44 295.96,391.44 Q295.5225,391.44 295.2425,391.2475 Q294.9625,391.055 294.84,390.5475 Q294.7875,390.1975 294.595,390.005 Q294.245,389.6375 293.615,389.4275 Q292.985,389.2 292.355,389.2 Q291.5675,389.2 290.9025,389.515 Q290.255,389.83 289.7475,390.53 Q289.24,391.23 289.24,392.1925 L289.24,393.225 Q289.24,394.38 290.185,395.15 Q291.13,395.92 292.81,395.92 Q293.8075,395.92 294.5075,395.6925 Q294.91,395.57 295.365,395.1675 Q295.6625,394.94 295.82,394.87 Q295.9775,394.8 296.17,394.8 Q296.5375,394.8 296.8,395.0975 Q297.08,395.3775 297.08,395.78 Q297.08,396.165 296.695,396.62 Q296.135,397.285 295.2425,397.6525 Q294.07,398.16 292.635,398.16 Q290.955,398.16 289.6075,397.495 Q288.5225,396.97 287.7525,395.8325 Q287,394.695 287,393.3475 L287,392.1225 Q287,390.7225 287.665,389.4975 Q288.3475,388.2725 289.52,387.625 Q290.71,386.96 292.04,386.96 Q292.845,386.96 293.545,387.24 Q294.245,387.52 294.84,388.08 Z " fill="#000000"/><text fill="#000000" font-family="sans-serif" font-size="13.44" lengthAdjust="spacing" textLength="59.36" x="315.56" y="397.4994">TestStore</text><line style="stroke:#A80036;stroke-width:1.6800000000000002;" x1="241.36" x2="412.72" y1="409.92" y2="409.92"/><line style="stroke:#A80036;stroke-width:1.6800000000000002;" x1="241.36" x2="412.72" y1="418.88" y2="418.88"/><text fill="#000000" font-family="sans-serif" font-size="12.32" lengthAdjust="spacing" textLength="120.96" x="246.96" y="436.1492">+getRegisteredTests()</text><text fill="#000000" font-family="sans-serif" font-size="12.32" lengthAdjust="spacing" textLength="87.36" x="246.96" y="451.6455">+getTest(tCode)</text><text fill="#000000" font-family="sans-serif" font-size="12.32" lengthAdjust="spacing" textLength="160.16" x="246.96" y="467.1417">+globallyUnique(listBarcodes)</text><!--MD5=[02e4b9b7573f1156f41e60aa5b4e25a4]
class Company--><rect codeLine="34" fill="#FEFECE" filter="url(#f9ltrzpxczjny)" height="84.7525" id="Company" style="stroke:#A80036;stroke-width:1.6800000000000002;" width="114.24" x="263.2" y="645.12"/><ellipse cx="288.568" cy="663.04" fill="#ADD1B2" rx="12.32" ry="12.32" style="stroke:#A80036;stroke-width:1.12;"/><path d="M290.808,659.12 Q291.0355,658.56 291.298,658.28 Q291.5605,658 291.858,658 Q292.383,658 292.7155,658.315 Q293.048,658.63 293.048,659.365 L293.048,661.115 Q293.048,661.85 292.733,662.165 Q292.418,662.48 291.928,662.48 Q291.4905,662.48 291.2105,662.2875 Q290.9305,662.095 290.808,661.5875 Q290.7555,661.2375 290.563,661.045 Q290.213,660.6775 289.583,660.4675 Q288.953,660.24 288.323,660.24 Q287.5355,660.24 286.8705,660.555 Q286.223,660.87 285.7155,661.57 Q285.208,662.27 285.208,663.2325 L285.208,664.265 Q285.208,665.42 286.153,666.19 Q287.098,666.96 288.778,666.96 Q289.7755,666.96 290.4755,666.7325 Q290.878,666.61 291.333,666.2075 Q291.6305,665.98 291.788,665.91 Q291.9455,665.84 292.138,665.84 Q292.5055,665.84 292.768,666.1375 Q293.048,666.4175 293.048,666.82 Q293.048,667.205 292.663,667.66 Q292.103,668.325 291.2105,668.6925 Q290.038,669.2 288.603,669.2 Q286.923,669.2 285.5755,668.535 Q284.4905,668.01 283.7205,666.8725 Q282.968,665.735 282.968,664.3875 L282.968,663.1625 Q282.968,661.7625 283.633,660.5375 Q284.3155,659.3125 285.488,658.665 Q286.678,658 288.008,658 Q288.813,658 289.513,658.28 Q290.213,658.56 290.808,659.12 Z " fill="#000000"/><text fill="#000000" font-family="sans-serif" font-size="13.44" lengthAdjust="spacing" textLength="59.36" x="306.152" y="668.5394">Company</text><line style="stroke:#A80036;stroke-width:1.6800000000000002;" x1="264.32" x2="376.32" y1="680.96" y2="680.96"/><text fill="#000000" font-family="sans-serif" font-size="12.32" lengthAdjust="spacing" textLength="100.8" x="269.92" y="698.2292">-String designation</text><line style="stroke:#A80036;stroke-width:1.6800000000000002;" x1="264.32" x2="376.32" y1="705.4163" y2="705.4163"/><text fill="#000000" font-family="sans-serif" font-size="12.32" lengthAdjust="spacing" textLength="85.12" x="269.92" y="722.6855">+getTestStore()</text><!--MD5=[df38be88ccee13e832d6fafd6288a4ca]
class Test--><rect codeLine="39" fill="#FEFECE" filter="url(#f9ltrzpxczjny)" height="255.2113" id="Test" style="stroke:#A80036;stroke-width:1.6800000000000002;" width="161.28" x="62.72" y="560"/><ellipse cx="125.16" cy="577.92" fill="#ADD1B2" rx="12.32" ry="12.32" style="stroke:#A80036;stroke-width:1.12;"/><path d="M127.4,574 Q127.6275,573.44 127.89,573.16 Q128.1525,572.88 128.45,572.88 Q128.975,572.88 129.3075,573.195 Q129.64,573.51 129.64,574.245 L129.64,575.995 Q129.64,576.73 129.325,577.045 Q129.01,577.36 128.52,577.36 Q128.0825,577.36 127.8025,577.1675 Q127.5225,576.975 127.4,576.4675 Q127.3475,576.1175 127.155,575.925 Q126.805,575.5575 126.175,575.3475 Q125.545,575.12 124.915,575.12 Q124.1275,575.12 123.4625,575.435 Q122.815,575.75 122.3075,576.45 Q121.8,577.15 121.8,578.1125 L121.8,579.145 Q121.8,580.3 122.745,581.07 Q123.69,581.84 125.37,581.84 Q126.3675,581.84 127.0675,581.6125 Q127.47,581.49 127.925,581.0875 Q128.2225,580.86 128.38,580.79 Q128.5375,580.72 128.73,580.72 Q129.0975,580.72 129.36,581.0175 Q129.64,581.2975 129.64,581.7 Q129.64,582.085 129.255,582.54 Q128.695,583.205 127.8025,583.5725 Q126.63,584.08 125.195,584.08 Q123.515,584.08 122.1675,583.415 Q121.0825,582.89 120.3125,581.7525 Q119.56,580.615 119.56,579.2675 L119.56,578.0425 Q119.56,576.6425 120.225,575.4175 Q120.9075,574.1925 122.08,573.545 Q123.27,572.88 124.6,572.88 Q125.405,572.88 126.105,573.16 Q126.805,573.44 127.4,574 Z " fill="#000000"/><text fill="#000000" font-family="sans-serif" font-size="13.44" lengthAdjust="spacing" textLength="26.88" x="148.12" y="583.4194">Test</text><line style="stroke:#A80036;stroke-width:1.6800000000000002;" x1="63.84" x2="222.88" y1="595.84" y2="595.84"/><text fill="#000000" font-family="sans-serif" font-size="12.32" lengthAdjust="spacing" textLength="63.84" x="69.44" y="613.1092">-description</text><text fill="#000000" font-family="sans-serif" font-size="12.32" lengthAdjust="spacing" textLength="31.36" x="69.44" y="628.6055">-code</text><text fill="#000000" font-family="sans-serif" font-size="12.32" lengthAdjust="spacing" textLength="52.64" x="69.44" y="644.1017">-nhsCode</text><text fill="#000000" font-family="sans-serif" font-size="12.32" lengthAdjust="spacing" textLength="88.48" x="69.44" y="659.598">-collectDateTime</text><text fill="#000000" font-family="sans-serif" font-size="12.32" lengthAdjust="spacing" textLength="147.84" x="69.44" y="675.0942">-chemicalAnalysisDateTime</text><text fill="#000000" font-family="sans-serif" font-size="12.32" lengthAdjust="spacing" textLength="105.28" x="69.44" y="690.5905">-diagnosisDateTime</text><text fill="#000000" font-family="sans-serif" font-size="12.32" lengthAdjust="spacing" textLength="104.16" x="69.44" y="706.0867">-validationDateTime</text><line style="stroke:#A80036;stroke-width:1.6800000000000002;" x1="63.84" x2="222.88" y1="713.2738" y2="713.2738"/><text fill="#000000" font-family="sans-serif" font-size="12.32" lengthAdjust="spacing" textLength="110.88" x="69.44" y="730.543">+updateTestStatus()</text><text fill="#000000" font-family="sans-serif" font-size="12.32" lengthAdjust="spacing" textLength="147.84" x="69.44" y="746.0392">+isListUnique(listBarcodes)</text><text fill="#000000" font-family="sans-serif" font-size="12.32" lengthAdjust="spacing" textLength="116.48" x="69.44" y="761.5355">+addAll(listBarcodes)</text><text fill="#000000" font-family="sans-serif" font-size="12.32" lengthAdjust="spacing" textLength="89.6" x="69.44" y="777.0317">+createSample()</text><text fill="#000000" font-family="sans-serif" font-size="12.32" lengthAdjust="spacing" textLength="137.76" x="69.44" y="792.528">+updateCollectDateTime()</text><text fill="#000000" font-family="sans-serif" font-size="12.32" lengthAdjust="spacing" textLength="57.12" x="69.44" y="808.0242">+validate()</text><!--MD5=[837547de269260f334c6cb8943c04a2c]
class APIBarcodeAdapter--><rect codeLine="55" fill="#FEFECE" filter="url(#f9ltrzpxczjny)" height="69.2563" id="APIBarcodeAdapter" style="stroke:#A80036;stroke-width:1.6800000000000002;" width="182.56" x="417.2" y="652.96"/><ellipse cx="446.6" cy="670.88" fill="#ADD1B2" rx="12.32" ry="12.32" style="stroke:#A80036;stroke-width:1.12;"/><path d="M448.84,666.96 Q449.0675,666.4 449.33,666.12 Q449.5925,665.84 449.89,665.84 Q450.415,665.84 450.7475,666.155 Q451.08,666.47 451.08,667.205 L451.08,668.955 Q451.08,669.69 450.765,670.005 Q450.45,670.32 449.96,670.32 Q449.5225,670.32 449.2425,670.1275 Q448.9625,669.935 448.84,669.4275 Q448.7875,669.0775 448.595,668.885 Q448.245,668.5175 447.615,668.3075 Q446.985,668.08 446.355,668.08 Q445.5675,668.08 444.9025,668.395 Q444.255,668.71 443.7475,669.41 Q443.24,670.11 443.24,671.0725 L443.24,672.105 Q443.24,673.26 444.185,674.03 Q445.13,674.8 446.81,674.8 Q447.8075,674.8 448.5075,674.5725 Q448.91,674.45 449.365,674.0475 Q449.6625,673.82 449.82,673.75 Q449.9775,673.68 450.17,673.68 Q450.5375,673.68 450.8,673.9775 Q451.08,674.2575 451.08,674.66 Q451.08,675.045 450.695,675.5 Q450.135,676.165 449.2425,676.5325 Q448.07,677.04 446.635,677.04 Q444.955,677.04 443.6075,676.375 Q442.5225,675.85 441.7525,674.7125 Q441,673.575 441,672.2275 L441,671.0025 Q441,669.6025 441.665,668.3775 Q442.3475,667.1525 443.52,666.505 Q444.71,665.84 446.04,665.84 Q446.845,665.84 447.545,666.12 Q448.245,666.4 448.84,666.96 Z " fill="#000000"/><text fill="#000000" font-family="sans-serif" font-size="13.44" lengthAdjust="spacing" textLength="118.72" x="465.08" y="676.3794">APIBarcodeAdapter</text><line style="stroke:#A80036;stroke-width:1.6800000000000002;" x1="418.32" x2="598.64" y1="688.8" y2="688.8"/><line style="stroke:#A80036;stroke-width:1.6800000000000002;" x1="418.32" x2="598.64" y1="697.76" y2="697.76"/><text fill="#000000" font-family="sans-serif" font-size="12.32" lengthAdjust="spacing" textLength="169.12" x="423.92" y="715.0292">+generateBarcodes(nSamples)</text><!--MD5=[ea9db495254b65e9320d91ab6d521049]
class ExternalModuleAPIBarcode--><rect codeLine="59" fill="#FEFECE" filter="url(#f9ltrzpxczjny)" height="69.2563" id="ExternalModuleAPIBarcode" style="stroke:#A80036;stroke-width:1.6800000000000002;" width="204.96" x="394.8" y="890.4"/><ellipse cx="411.6" cy="908.32" fill="#B4A7E5" rx="12.32" ry="12.32" style="stroke:#A80036;stroke-width:1.12;"/><path d="M412.72,904.96 L412.72,911.68 L414.96,911.68 L415.5025,911.68 L416.08,912.38 L416.08,912.8 L416.08,913.22 L415.5025,913.92 L414.96,913.92 L408.24,913.92 L407.6975,913.92 L407.12,913.22 L407.12,912.8 L407.12,912.38 L407.6975,911.68 L408.24,911.68 L410.48,911.68 L410.48,904.96 L408.24,904.96 L407.6975,904.96 L407.12,904.26 L407.12,903.84 L407.12,903.42 L407.6975,902.72 L408.24,902.72 L414.96,902.72 L415.5025,902.72 L416.08,903.42 L416.08,903.84 L416.08,904.26 L415.5025,904.96 L414.96,904.96 L412.72,904.96 Z " fill="#000000"/><text fill="#000000" font-family="sans-serif" font-size="13.44" font-style="italic" lengthAdjust="spacing" textLength="169.12" x="427.28" y="913.8194">ExternalModuleAPIBarcode</text><line style="stroke:#A80036;stroke-width:1.6800000000000002;" x1="395.92" x2="598.64" y1="926.24" y2="926.24"/><line style="stroke:#A80036;stroke-width:1.6800000000000002;" x1="395.92" x2="598.64" y1="935.2" y2="935.2"/><text fill="#000000" font-family="sans-serif" font-size="12.32" lengthAdjust="spacing" textLength="116.48" x="401.52" y="952.4692">+generate(nSamples)</text><!--MD5=[9681492165142af2a4a3a169d90ee8d4]
class Sample--><rect codeLine="63" fill="#FEFECE" filter="url(#f9ltrzpxczjny)" height="84.7525" id="Sample" style="stroke:#A80036;stroke-width:1.6800000000000002;" width="113.12" x="86.8" y="882.56"/><ellipse cx="116.704" cy="900.48" fill="#ADD1B2" rx="12.32" ry="12.32" style="stroke:#A80036;stroke-width:1.12;"/><path d="M118.944,896.56 Q119.1715,896 119.434,895.72 Q119.6965,895.44 119.994,895.44 Q120.519,895.44 120.8515,895.755 Q121.184,896.07 121.184,896.805 L121.184,898.555 Q121.184,899.29 120.869,899.605 Q120.554,899.92 120.064,899.92 Q119.6265,899.92 119.3465,899.7275 Q119.0665,899.535 118.944,899.0275 Q118.8915,898.6775 118.699,898.485 Q118.349,898.1175 117.719,897.9075 Q117.089,897.68 116.459,897.68 Q115.6715,897.68 115.0065,897.995 Q114.359,898.31 113.8515,899.01 Q113.344,899.71 113.344,900.6725 L113.344,901.705 Q113.344,902.86 114.289,903.63 Q115.234,904.4 116.914,904.4 Q117.9115,904.4 118.6115,904.1725 Q119.014,904.05 119.469,903.6475 Q119.7665,903.42 119.924,903.35 Q120.0815,903.28 120.274,903.28 Q120.6415,903.28 120.904,903.5775 Q121.184,903.8575 121.184,904.26 Q121.184,904.645 120.799,905.1 Q120.239,905.765 119.3465,906.1325 Q118.174,906.64 116.739,906.64 Q115.059,906.64 113.7115,905.975 Q112.6265,905.45 111.8565,904.3125 Q111.104,903.175 111.104,901.8275 L111.104,900.6025 Q111.104,899.2025 111.769,897.9775 Q112.4515,896.7525 113.624,896.105 Q114.814,895.44 116.144,895.44 Q116.949,895.44 117.649,895.72 Q118.349,896 118.944,896.56 Z " fill="#000000"/><text fill="#000000" font-family="sans-serif" font-size="13.44" lengthAdjust="spacing" textLength="48.16" x="135.296" y="905.9794">Sample</text><line style="stroke:#A80036;stroke-width:1.6800000000000002;" x1="87.92" x2="198.8" y1="918.4" y2="918.4"/><text fill="#000000" font-family="sans-serif" font-size="12.32" lengthAdjust="spacing" textLength="49.28" x="93.52" y="935.6692">-barcode</text><line style="stroke:#A80036;stroke-width:1.6800000000000002;" x1="87.92" x2="198.8" y1="942.8563" y2="942.8563"/><text fill="#000000" font-family="sans-serif" font-size="12.32" lengthAdjust="spacing" textLength="99.68" x="93.52" y="960.1255">+Sample(barcode)</text><!--MD5=[2b8f4f220c107d5b0c7e594325c75009]
link RecordSamplesUI to RecordSamplesController--><path codeLine="71" d="M454.72,100.8896 C454.72,134.512 454.72,193.2112 454.72,229.4208 " fill="none" id="RecordSamplesUI-to-RecordSamplesController" style="stroke:#A80036;stroke-width:1.12;stroke-dasharray:7.0,7.0;"/><polygon fill="#A80036" points="454.72,235.032,459.2,224.952,454.72,229.432,450.24,224.952,454.72,235.032" style="stroke:#A80036;stroke-width:1.12;"/><!--MD5=[6ed32d73deab35a78f7e857c49af6d4e]
link RecordSamplesController to TestMapper--><path codeLine="72" d="M356.1152,277.7152 C312.928,286.9216 262.8416,301.6272 221.76,324.8 C201.208,336.392 181.7536,353.1248 165.4576,369.5216 " fill="none" id="RecordSamplesController-to-TestMapper" style="stroke:#A80036;stroke-width:1.12;stroke-dasharray:7.0,7.0;"/><polygon fill="#A80036" points="161.3808,373.688,171.6358,369.6244,165.3004,369.6884,165.2364,363.3531,161.3808,373.688" style="stroke:#A80036;stroke-width:1.12;"/><!--MD5=[cb39fcb634a9bd76468eff3a82f2ba7e]
link RecordSamplesController to Company--><path codeLine="73" d="M466.1216,289.2512 C485.3408,337.624 517.2272,441.8736 464.8,501.76 C444.9536,524.4288 421.68,492.6096 397.6,510.72 C356.8208,541.3744 337.1872,598.1808 327.9808,638.9376 " fill="none" id="RecordSamplesController-to-Company" style="stroke:#A80036;stroke-width:1.12;stroke-dasharray:7.0,7.0;"/><polygon fill="#A80036" points="326.704,644.8288,333.2144,635.9242,327.8883,639.3555,324.457,634.0294,326.704,644.8288" style="stroke:#A80036;stroke-width:1.12;"/><!--MD5=[56748807f3dbfcb383b4f7a7d0d85bb1]
link RecordSamplesController to TestStore--><path codeLine="74" d="M433.9216,289.2848 C416.6848,310.912 391.6192,342.3504 370.0928,369.3536 " fill="none" id="RecordSamplesController-to-TestStore" style="stroke:#A80036;stroke-width:1.12;stroke-dasharray:7.0,7.0;"/><polygon fill="#A80036" points="366.3968,373.9904,376.1988,368.931,369.9009,369.6222,369.2097,363.3244,366.3968,373.9904" style="stroke:#A80036;stroke-width:1.12;"/><!--MD5=[3ee54d312014e77ab3a5177ff886dee1]
link RecordSamplesController to Test--><path codeLine="75" d="M456.3328,289.1616 C459.1888,344.8816 462.2576,473.1776 432.32,501.76 C417.1888,516.2192 262.0128,499.8 244.16,510.72 C226.0496,521.7968 210.8736,537.4208 198.2624,554.8256 " fill="none" id="RecordSamplesController-to-Test" style="stroke:#A80036;stroke-width:1.12;stroke-dasharray:7.0,7.0;"/><polygon fill="#A80036" points="194.7792,559.776,204.2312,554.0895,197.9917,555.1891,196.8921,548.9495,194.7792,559.776" style="stroke:#A80036;stroke-width:1.12;"/><!--MD5=[14540e0853ac55f776ac107dcbbde416]
link RecordSamplesController to APIBarcodeAdapter--><path codeLine="76" d="M483.1792,289.0608 C492.352,299.1968 501.3904,311.584 506.24,324.8 C546.9296,435.7808 528.9984,579.1184 516.656,647.2368 " fill="none" id="RecordSamplesController-to-APIBarcodeAdapter" style="stroke:#A80036;stroke-width:1.12;stroke-dasharray:7.0,7.0;"/><polygon fill="#A80036" points="515.6256,652.8032,521.8435,643.692,516.6316,647.2943,513.0292,642.0824,515.6256,652.8032" style="stroke:#A80036;stroke-width:1.12;"/><!--MD5=[19aa18508572e0a5d7873965d2e6d2ca]
link APIBarcodeAdapter to ExternalModuleAPIBarcode--><path codeLine="77" d="M506.8784,722.5008 C504.84,765.2848 501.3232,839.0032 499.1616,884.4192 " fill="none" id="APIBarcodeAdapter-to-ExternalModuleAPIBarcode" style="stroke:#A80036;stroke-width:1.12;stroke-dasharray:7.0,7.0;"/><polygon fill="#A80036" points="498.8816,890.3664,503.8453,880.5156,499.1533,884.773,494.8959,880.0809,498.8816,890.3664" style="stroke:#A80036;stroke-width:1.12;"/><!--MD5=[b0f4f6db8206580012ef9cd998ed01c5]
link TestStore to Test--><path codeLine="78" d="M274.8704,475.0144 C264.152,486.2816 253.3552,498.5344 244.16,510.72 C233.7888,524.4736 223.6864,539.4032 214.144,554.5456 " fill="none" id="TestStore-to-Test" style="stroke:#A80036;stroke-width:1.12;stroke-dasharray:7.0,7.0;"/><polygon fill="#A80036" points="210.9296,559.6864,220.0617,553.4991,213.8904,554.9331,212.4564,548.7619,210.9296,559.6864" style="stroke:#A80036;stroke-width:1.12;"/><!--MD5=[b72ac8ab7fb5921fceb5036a3902baea]
link Test to Sample--><path codeLine="79" d="M143.36,815.696 C143.36,837.3344 143.36,858.5472 143.36,876.3888 " fill="none" id="Test-to-Sample" style="stroke:#A80036;stroke-width:1.12;stroke-dasharray:7.0,7.0;"/><polygon fill="#A80036" points="143.36,882.3024,147.84,872.2224,143.36,876.7024,138.88,872.2224,143.36,882.3024" style="stroke:#A80036;stroke-width:1.12;"/><!--MD5=[40e41c41f7ff7d4f73418e00624963e6]
@startuml
'https://plantuml.com/class-diagram

skinparam classAttributeIconSize 0

package "UI" {
class RecordSamplesUI{
}
}

package "Core" {
package "Controllers"{
class RecordSamplesController{
}
}

package "Mappers"{
class TestMapper{
  +ModelToDto(lRT)
  +DtoToModel(tDto)
  +ModelToDto(t)
}
}


package "Stores"{
class TestStore{
  +getRegisteredTests()
  +getTest(tCode)
  +globallyUnique(listBarcodes)
}
}

package "Model"{
class Company{
  -String designation
  +getTestStore()
}

class Test{
  -description
  -code
  -nhsCode
  -collectDateTime
  -chemicalAnalysisDateTime
  -diagnosisDateTime
  -validationDateTime
  +updateTestStatus()
  +isListUnique(listBarcodes)
  +addAll(listBarcodes)
  +createSample()
  +updateCollectDateTime()
  +validate()
}

class APIBarcodeAdapter{
  +generateBarcodes(nSamples)
}

interface ExternalModuleAPIBarcode{
  +generate(nSamples)
}

class Sample{
  -barcode
  +Sample(barcode)
}
}


}
RecordSamplesUI ..> RecordSamplesController
RecordSamplesController ..> TestMapper
RecordSamplesController ..> Company
RecordSamplesController ..> TestStore
RecordSamplesController ..> Test
RecordSamplesController ..> APIBarcodeAdapter
APIBarcodeAdapter ..> ExternalModuleAPIBarcode
TestStore ..> Test
Test ..> Sample




@enduml

@startuml

skinparam classAttributeIconSize 0

package "UI" {
class RecordSamplesUI{
}
}

package "Core" {
package "Controllers"{
class RecordSamplesController{
}
}

package "Mappers"{
class TestMapper{
  +ModelToDto(lRT)
  +DtoToModel(tDto)
  +ModelToDto(t)
}
}


package "Stores"{
class TestStore{
  +getRegisteredTests()
  +getTest(tCode)
  +globallyUnique(listBarcodes)
}
}

package "Model"{
class Company{
  -String designation
  +getTestStore()
}

class Test{
  -description
  -code
  -nhsCode
  -collectDateTime
  -chemicalAnalysisDateTime
  -diagnosisDateTime
  -validationDateTime
  +updateTestStatus()
  +isListUnique(listBarcodes)
  +addAll(listBarcodes)
  +createSample()
  +updateCollectDateTime()
  +validate()
}

class APIBarcodeAdapter{
  +generateBarcodes(nSamples)
}

interface ExternalModuleAPIBarcode{
  +generate(nSamples)
}

class Sample{
  -barcode
  +Sample(barcode)
}
}


}
RecordSamplesUI ..> RecordSamplesController
RecordSamplesController ..> TestMapper
RecordSamplesController ..> Company
RecordSamplesController ..> TestStore
RecordSamplesController ..> Test
RecordSamplesController ..> APIBarcodeAdapter
APIBarcodeAdapter ..> ExternalModuleAPIBarcode
TestStore ..> Test
Test ..> Sample




@enduml

PlantUML version 1.2021.2(Sun Mar 07 11:10:27 GMT 2021)
(GPL source distribution)
Java Runtime: OpenJDK Runtime Environment
JVM: OpenJDK 64-Bit Server VM
Default Encoding: Cp1252
Language: pt
Country: PT
--></g></svg>