<?xml version="1.0" encoding="UTF-8" standalone="no"?><svg xmlns="http://www.w3.org/2000/svg" xmlns:xlink="http://www.w3.org/1999/xlink" contentScriptType="application/ecmascript" contentStyleType="text/css" height="360px" preserveAspectRatio="none" style="width:861px;height:360px;" version="1.1" viewBox="0 0 861 360" width="861.25px" zoomAndPan="magnify"><defs><filter height="300%" id="flkyxeo4p9qlg" width="300%" x="-1" y="-1"><feGaussianBlur result="blurOut" stdDeviation="2.5"/><feColorMatrix in="blurOut" result="blurOut2" type="matrix" values="0 0 0 0 0 0 0 0 0 0 0 0 0 0 0 0 0 0 .4 0"/><feOffset dx="5.0" dy="5.0" in="blurOut2" result="blurOut3"/><feBlend in="SourceGraphic" in2="blurOut3" mode="normal"/></filter></defs><g><!--MD5=[01931d41e78f8996acd44f6f0fd8de28]
class MedicalLabTechnician--><rect codeLine="6" fill="#FEFECE" filter="url(#flkyxeo4p9qlg)" height="50" id="MedicalLabTechnician" style="stroke:#A80036;stroke-width:1.875;" width="193.75" x="273.75" y="73.125"/><ellipse cx="292.5" cy="93.125" fill="#ADD1B2" rx="13.75" ry="13.75" style="stroke:#A80036;stroke-width:1.25;"/><path d="M295,88.75 Q295.2539,88.125 295.5469,87.8125 Q295.8398,87.5 296.1719,87.5 Q296.7578,87.5 297.1289,87.8516 Q297.5,88.2031 297.5,89.0234 L297.5,90.9766 Q297.5,91.7969 297.1484,92.1484 Q296.7969,92.5 296.25,92.5 Q295.7617,92.5 295.4492,92.2852 Q295.1367,92.0703 295,91.5039 Q294.9414,91.1133 294.7266,90.8984 Q294.3359,90.4883 293.6328,90.2539 Q292.9297,90 292.2266,90 Q291.3477,90 290.6055,90.3516 Q289.8828,90.7031 289.3164,91.4844 Q288.75,92.2656 288.75,93.3398 L288.75,94.4922 Q288.75,95.7813 289.8047,96.6406 Q290.8594,97.5 292.7344,97.5 Q293.8477,97.5 294.6289,97.2461 Q295.0781,97.1094 295.5859,96.6602 Q295.918,96.4063 296.0938,96.3281 Q296.2695,96.25 296.4844,96.25 Q296.8945,96.25 297.1875,96.582 Q297.5,96.8945 297.5,97.3438 Q297.5,97.7734 297.0703,98.2813 Q296.4453,99.0234 295.4492,99.4336 Q294.1406,100 292.5391,100 Q290.6641,100 289.1602,99.2578 Q287.9492,98.6719 287.0898,97.4023 Q286.25,96.1328 286.25,94.6289 L286.25,93.2617 Q286.25,91.6992 286.9922,90.332 Q287.7539,88.9648 289.0625,88.2422 Q290.3906,87.5 291.875,87.5 Q292.7734,87.5 293.5547,87.8125 Q294.3359,88.125 295,88.75 Z " fill="#000000"/><text fill="#000000" font-family="sans-serif" font-size="15" lengthAdjust="spacing" textLength="153.75" x="310" y="99.2627">MedicalLabTechnician</text><line style="stroke:#A80036;stroke-width:1.875;" x1="275" x2="466.25" y1="113.125" y2="113.125"/><!--MD5=[df38be88ccee13e832d6fafd6288a4ca]
class Test--><rect codeLine="36" fill="#FEFECE" filter="url(#flkyxeo4p9qlg)" height="171.0645" id="Test" style="stroke:#A80036;stroke-width:1.875;" width="180" x="280.625" y="172.5"/><ellipse cx="350.3125" cy="192.5" fill="#ADD1B2" rx="13.75" ry="13.75" style="stroke:#A80036;stroke-width:1.25;"/><path d="M352.8125,188.125 Q353.0664,187.5 353.3594,187.1875 Q353.6523,186.875 353.9844,186.875 Q354.5703,186.875 354.9414,187.2266 Q355.3125,187.5781 355.3125,188.3984 L355.3125,190.3516 Q355.3125,191.1719 354.9609,191.5234 Q354.6094,191.875 354.0625,191.875 Q353.5742,191.875 353.2617,191.6602 Q352.9492,191.4453 352.8125,190.8789 Q352.7539,190.4883 352.5391,190.2734 Q352.1484,189.8633 351.4453,189.6289 Q350.7422,189.375 350.0391,189.375 Q349.1602,189.375 348.418,189.7266 Q347.6953,190.0781 347.1289,190.8594 Q346.5625,191.6406 346.5625,192.7148 L346.5625,193.8672 Q346.5625,195.1563 347.6172,196.0156 Q348.6719,196.875 350.5469,196.875 Q351.6602,196.875 352.4414,196.6211 Q352.8906,196.4844 353.3984,196.0352 Q353.7305,195.7813 353.9063,195.7031 Q354.082,195.625 354.2969,195.625 Q354.707,195.625 355,195.957 Q355.3125,196.2695 355.3125,196.7188 Q355.3125,197.1484 354.8828,197.6563 Q354.2578,198.3984 353.2617,198.8086 Q351.9531,199.375 350.3516,199.375 Q348.4766,199.375 346.9727,198.6328 Q345.7617,198.0469 344.9023,196.7773 Q344.0625,195.5078 344.0625,194.0039 L344.0625,192.6367 Q344.0625,191.0742 344.8047,189.707 Q345.5664,188.3398 346.875,187.6172 Q348.2031,186.875 349.6875,186.875 Q350.5859,186.875 351.3672,187.1875 Q352.1484,187.5 352.8125,188.125 Z " fill="#000000"/><text fill="#000000" font-family="sans-serif" font-size="15" lengthAdjust="spacing" textLength="30" x="375.9375" y="198.6377">Test</text><line style="stroke:#A80036;stroke-width:1.875;" x1="281.875" x2="459.375" y1="212.5" y2="212.5"/><text fill="#000000" font-family="sans-serif" font-size="13.75" lengthAdjust="spacing" textLength="71.25" x="288.125" y="231.7737">-description</text><text fill="#000000" font-family="sans-serif" font-size="13.75" lengthAdjust="spacing" textLength="35" x="288.125" y="249.0686">-code</text><text fill="#000000" font-family="sans-serif" font-size="13.75" lengthAdjust="spacing" textLength="58.75" x="288.125" y="266.3635">-nhsCode</text><text fill="#000000" font-family="sans-serif" font-size="13.75" lengthAdjust="spacing" textLength="98.75" x="288.125" y="283.6584">-collectDateTime</text><text fill="#000000" font-family="sans-serif" font-size="13.75" lengthAdjust="spacing" textLength="165" x="288.125" y="300.9534">-chemicalAnalysisDateTime</text><text fill="#000000" font-family="sans-serif" font-size="13.75" lengthAdjust="spacing" textLength="117.5" x="288.125" y="318.2483">-diagnosisDateTime</text><text fill="#000000" font-family="sans-serif" font-size="13.75" lengthAdjust="spacing" textLength="116.25" x="288.125" y="335.5432">-validationDateTime</text><!--MD5=[7421f545a0d8420c5bec41e74b387d9c]
class Employee--><rect codeLine="22" fill="#FEFECE" filter="url(#flkyxeo4p9qlg)" height="171.0645" id="Employee" style="stroke:#A80036;stroke-width:1.875;" width="108.75" x="8.75" y="8.75"/><ellipse cx="27.5" cy="28.75" fill="#ADD1B2" rx="13.75" ry="13.75" style="stroke:#A80036;stroke-width:1.25;"/><path d="M30,24.375 Q30.2539,23.75 30.5469,23.4375 Q30.8398,23.125 31.1719,23.125 Q31.7578,23.125 32.1289,23.4766 Q32.5,23.8281 32.5,24.6484 L32.5,26.6016 Q32.5,27.4219 32.1484,27.7734 Q31.7969,28.125 31.25,28.125 Q30.7617,28.125 30.4492,27.9102 Q30.1367,27.6953 30,27.1289 Q29.9414,26.7383 29.7266,26.5234 Q29.3359,26.1133 28.6328,25.8789 Q27.9297,25.625 27.2266,25.625 Q26.3477,25.625 25.6055,25.9766 Q24.8828,26.3281 24.3164,27.1094 Q23.75,27.8906 23.75,28.9648 L23.75,30.1172 Q23.75,31.4063 24.8047,32.2656 Q25.8594,33.125 27.7344,33.125 Q28.8477,33.125 29.6289,32.8711 Q30.0781,32.7344 30.5859,32.2852 Q30.918,32.0313 31.0938,31.9531 Q31.2695,31.875 31.4844,31.875 Q31.8945,31.875 32.1875,32.207 Q32.5,32.5195 32.5,32.9688 Q32.5,33.3984 32.0703,33.9063 Q31.4453,34.6484 30.4492,35.0586 Q29.1406,35.625 27.5391,35.625 Q25.6641,35.625 24.1602,34.8828 Q22.9492,34.2969 22.0898,33.0273 Q21.25,31.7578 21.25,30.2539 L21.25,28.8867 Q21.25,27.3242 21.9922,25.957 Q22.7539,24.5898 24.0625,23.8672 Q25.3906,23.125 26.875,23.125 Q27.7734,23.125 28.5547,23.4375 Q29.3359,23.75 30,24.375 Z " fill="#000000"/><text fill="#000000" font-family="sans-serif" font-size="15" lengthAdjust="spacing" textLength="68.75" x="45" y="34.8877">Employee</text><line style="stroke:#A80036;stroke-width:1.875;" x1="10" x2="116.25" y1="48.75" y2="48.75"/><text fill="#000000" font-family="sans-serif" font-size="13.75" lengthAdjust="spacing" textLength="37.5" x="16.25" y="68.0237">-name</text><text fill="#000000" font-family="sans-serif" font-size="13.75" lengthAdjust="spacing" textLength="55" x="16.25" y="85.3186">-address</text><text fill="#000000" font-family="sans-serif" font-size="13.75" lengthAdjust="spacing" textLength="88.75" x="16.25" y="102.6135">-phoneNumber</text><text fill="#000000" font-family="sans-serif" font-size="13.75" lengthAdjust="spacing" textLength="73.75" x="16.25" y="119.9084">-employeeID</text><text fill="#000000" font-family="sans-serif" font-size="13.75" lengthAdjust="spacing" textLength="51.25" x="16.25" y="137.2034">-orgRole</text><text fill="#000000" font-family="sans-serif" font-size="13.75" lengthAdjust="spacing" textLength="35" x="16.25" y="154.4983">-email</text><text fill="#000000" font-family="sans-serif" font-size="13.75" lengthAdjust="spacing" textLength="62.5" x="16.25" y="171.7932">-SOCcode</text><!--MD5=[9681492165142af2a4a3a169d90ee8d4]
class Sample--><rect codeLine="32" fill="#FEFECE" filter="url(#flkyxeo4p9qlg)" height="67.2949" id="Sample" style="stroke:#A80036;stroke-width:1.875;" width="93.75" x="16.25" y="224.375"/><ellipse cx="35" cy="244.375" fill="#ADD1B2" rx="13.75" ry="13.75" style="stroke:#A80036;stroke-width:1.25;"/><path d="M37.5,240 Q37.7539,239.375 38.0469,239.0625 Q38.3398,238.75 38.6719,238.75 Q39.2578,238.75 39.6289,239.1016 Q40,239.4531 40,240.2734 L40,242.2266 Q40,243.0469 39.6484,243.3984 Q39.2969,243.75 38.75,243.75 Q38.2617,243.75 37.9492,243.5352 Q37.6367,243.3203 37.5,242.7539 Q37.4414,242.3633 37.2266,242.1484 Q36.8359,241.7383 36.1328,241.5039 Q35.4297,241.25 34.7266,241.25 Q33.8477,241.25 33.1055,241.6016 Q32.3828,241.9531 31.8164,242.7344 Q31.25,243.5156 31.25,244.5898 L31.25,245.7422 Q31.25,247.0313 32.3047,247.8906 Q33.3594,248.75 35.2344,248.75 Q36.3477,248.75 37.1289,248.4961 Q37.5781,248.3594 38.0859,247.9102 Q38.418,247.6563 38.5938,247.5781 Q38.7695,247.5 38.9844,247.5 Q39.3945,247.5 39.6875,247.832 Q40,248.1445 40,248.5938 Q40,249.0234 39.5703,249.5313 Q38.9453,250.2734 37.9492,250.6836 Q36.6406,251.25 35.0391,251.25 Q33.1641,251.25 31.6602,250.5078 Q30.4492,249.9219 29.5898,248.6523 Q28.75,247.3828 28.75,245.8789 L28.75,244.5117 Q28.75,242.9492 29.4922,241.582 Q30.2539,240.2148 31.5625,239.4922 Q32.8906,238.75 34.375,238.75 Q35.2734,238.75 36.0547,239.0625 Q36.8359,239.375 37.5,240 Z " fill="#000000"/><text fill="#000000" font-family="sans-serif" font-size="15" lengthAdjust="spacing" textLength="53.75" x="52.5" y="250.5127">Sample</text><line style="stroke:#A80036;stroke-width:1.875;" x1="17.5" x2="108.75" y1="264.375" y2="264.375"/><text fill="#000000" font-family="sans-serif" font-size="13.75" lengthAdjust="spacing" textLength="55" x="23.75" y="283.6487">-barcode</text><!--MD5=[1934a092c0e7d4da7dc7075b6f4b6b03]
class ClinicalAnalysisLaboratory--><rect codeLine="18" fill="#FEFECE" filter="url(#flkyxeo4p9qlg)" height="67.2949" id="ClinicalAnalysisLaboratory" style="stroke:#A80036;stroke-width:1.875;" width="221.25" x="622.5" y="64.375"/><ellipse cx="641.25" cy="84.375" fill="#ADD1B2" rx="13.75" ry="13.75" style="stroke:#A80036;stroke-width:1.25;"/><path d="M643.75,80 Q644.0039,79.375 644.2969,79.0625 Q644.5898,78.75 644.9219,78.75 Q645.5078,78.75 645.8789,79.1016 Q646.25,79.4531 646.25,80.2734 L646.25,82.2266 Q646.25,83.0469 645.8984,83.3984 Q645.5469,83.75 645,83.75 Q644.5117,83.75 644.1992,83.5352 Q643.8867,83.3203 643.75,82.7539 Q643.6914,82.3633 643.4766,82.1484 Q643.0859,81.7383 642.3828,81.5039 Q641.6797,81.25 640.9766,81.25 Q640.0977,81.25 639.3555,81.6016 Q638.6328,81.9531 638.0664,82.7344 Q637.5,83.5156 637.5,84.5898 L637.5,85.7422 Q637.5,87.0313 638.5547,87.8906 Q639.6094,88.75 641.4844,88.75 Q642.5977,88.75 643.3789,88.4961 Q643.8281,88.3594 644.3359,87.9102 Q644.668,87.6563 644.8438,87.5781 Q645.0195,87.5 645.2344,87.5 Q645.6445,87.5 645.9375,87.832 Q646.25,88.1445 646.25,88.5938 Q646.25,89.0234 645.8203,89.5313 Q645.1953,90.2734 644.1992,90.6836 Q642.8906,91.25 641.2891,91.25 Q639.4141,91.25 637.9102,90.5078 Q636.6992,89.9219 635.8398,88.6523 Q635,87.3828 635,85.8789 L635,84.5117 Q635,82.9492 635.7422,81.582 Q636.5039,80.2148 637.8125,79.4922 Q639.1406,78.75 640.625,78.75 Q641.5234,78.75 642.3047,79.0625 Q643.0859,79.375 643.75,80 Z " fill="#000000"/><text fill="#000000" font-family="sans-serif" font-size="15" lengthAdjust="spacing" textLength="181.25" x="658.75" y="90.5127">ClinicalAnalysisLaboratory</text><line style="stroke:#A80036;stroke-width:1.875;" x1="623.75" x2="842.5" y1="104.375" y2="104.375"/><text fill="#000000" font-family="sans-serif" font-size="13.75" lengthAdjust="spacing" textLength="33.75" x="630" y="123.6487">-labID</text><!--MD5=[8c76900db13228c02bafda6909b4bb57]
reverse link Employee to MedicalLabTechnician--><path codeLine="12" d="M142.8,95.3375 C182.5375,95.825 231.15,96.425 273.15,96.9375 " fill="none" id="Employee-backto-MedicalLabTechnician" style="stroke:#A80036;stroke-width:1.25;"/><polygon fill="none" points="142.3875,104.0875,117.5,95.025,142.6125,86.5875,142.3875,104.0875" style="stroke:#A80036;stroke-width:1.25;"/><text fill="#000000" font-family="sans-serif" font-size="16.25" lengthAdjust="spacing" textLength="6.25" x="127.3828" y="113.7781">*</text><text fill="#000000" font-family="sans-serif" font-size="16.25" lengthAdjust="spacing" textLength="6.25" x="257.6259" y="114.6391">*</text><!--MD5=[738f0445d4a0804ca0738b44323ae22b]
link MedicalLabTechnician to ClinicalAnalysisLaboratory--><path codeLine="13" d="M467.875,98.125 C515.475,98.125 573.1625,98.125 622.4625,98.125 " fill="none" id="MedicalLabTechnician-ClinicalAnalysisLaboratory" style="stroke:#A80036;stroke-width:1.25;"/><polygon fill="#000000" points="517.5,87.0947,506.1936,83.4211,506.1936,90.7684,517.5,87.0947" style="stroke:#000000;stroke-width:1.25;"/><text fill="#000000" font-family="sans-serif" font-size="16.25" lengthAdjust="spacing" textLength="61.25" x="522.5" y="93.7439">works at</text><text fill="#000000" font-family="sans-serif" font-size="16.25" lengthAdjust="spacing" textLength="25" x="477.6496" y="115.9041">1..*</text><text fill="#000000" font-family="sans-serif" font-size="16.25" lengthAdjust="spacing" textLength="6.25" x="606.0783" y="115.9132">*</text><!--MD5=[cb5e86f6614a99551e1d9ce6f0ae5849]
link Sample to MedicalLabTechnician--><path codeLine="14" d="M110.0375,234.175 C166.875,204.3625 263.4875,153.675 321.3875,123.3 " fill="none" id="Sample-MedicalLabTechnician" style="stroke:#A80036;stroke-width:1.25;"/><polygon fill="#000000" points="155.7154,161.2482,167.4342,159.2489,164.021,152.7426,155.7154,161.2482" style="stroke:#000000;stroke-width:1.25;"/><text fill="#000000" font-family="sans-serif" font-size="16.25" lengthAdjust="spacing" textLength="62.5" x="172.5" y="164.9939">registers</text><text fill="#000000" font-family="sans-serif" font-size="16.25" lengthAdjust="spacing" textLength="25" x="119.8777" y="248.7868">1..*</text><text fill="#000000" font-family="sans-serif" font-size="16.25" lengthAdjust="spacing" textLength="25" x="279.0238" y="150.1237">1..*</text><!--MD5=[1ae83efc6d1967ce5bc17dfe294d00c2]
link Sample to Test--><path codeLine="15" d="M110.0375,258.125 C154.9,258.125 224.575,258.125 280.4,258.125 " fill="none" id="Sample-Test" style="stroke:#A80036;stroke-width:1.25;"/><polygon fill="#000000" points="158.125,247.0947,169.4314,250.7684,169.4314,243.4211,158.125,247.0947" style="stroke:#000000;stroke-width:1.25;"/><text fill="#000000" font-family="sans-serif" font-size="16.25" lengthAdjust="spacing" textLength="56.25" x="175.625" y="253.7439">collects</text><text fill="#000000" font-family="sans-serif" font-size="16.25" lengthAdjust="spacing" textLength="6.25" x="119.8886" y="277.0261">*</text><text fill="#000000" font-family="sans-serif" font-size="16.25" lengthAdjust="spacing" textLength="8.75" x="261.8944" y="276.0574">1</text><!--MD5=[e8bdc3fed18174f16dee54a0d5664af8]
@startuml
'https://plantuml.com/class-diagram
hide methods
skinparam classAttributeIconSize 0
left to right direction

class MedicalLabTechnician
class Test
class Employee
class Sample
class ClinicalAnalysisLaboratory

Employee "*" <|- - "*" MedicalLabTechnician
MedicalLabTechnician "1..*" - - "*" ClinicalAnalysisLaboratory : > works at
Sample "1..*" - - "1..*" MedicalLabTechnician : < registers
Sample "*" - - "1" Test : < collects


class ClinicalAnalysisLaboratory{
-labID
}

class Employee{
-name
-address
-phoneNumber
-employeeID
-orgRole
-email
-SOCcode
}

class Sample{
-barcode
}

class Test{
-description
-code
-nhsCode
-collectDateTime
-chemicalAnalysisDateTime
-diagnosisDateTime
-validationDateTime
}


@enduml

@startuml
hide methods
skinparam classAttributeIconSize 0
left to right direction

class MedicalLabTechnician
class Test
class Employee
class Sample
class ClinicalAnalysisLaboratory

Employee "*" <|- - "*" MedicalLabTechnician
MedicalLabTechnician "1..*" - - "*" ClinicalAnalysisLaboratory : > works at
Sample "1..*" - - "1..*" MedicalLabTechnician : < registers
Sample "*" - - "1" Test : < collects


class ClinicalAnalysisLaboratory{
-labID
}

class Employee{
-name
-address
-phoneNumber
-employeeID
-orgRole
-email
-SOCcode
}

class Sample{
-barcode
}

class Test{
-description
-code
-nhsCode
-collectDateTime
-chemicalAnalysisDateTime
-diagnosisDateTime
-validationDateTime
}


@enduml

PlantUML version 1.2021.2(Sun Mar 07 11:10:27 GMT 2021)
(GPL source distribution)
Java Runtime: OpenJDK Runtime Environment
JVM: OpenJDK 64-Bit Server VM
Default Encoding: Cp1252
Language: pt
Country: PT
--></g></svg>