<?xml version="1.0" encoding="UTF-8" standalone="no"?><svg xmlns="http://www.w3.org/2000/svg" xmlns:xlink="http://www.w3.org/1999/xlink" contentScriptType="application/ecmascript" contentStyleType="text/css" height="750px" preserveAspectRatio="none" style="width:730px;height:750px;" version="1.1" viewBox="0 0 730 750" width="730px" zoomAndPan="magnify"><defs><filter height="300%" id="f189fnk9v8swf1" width="300%" x="-1" y="-1"><feGaussianBlur result="blurOut" stdDeviation="2.0"/><feColorMatrix in="blurOut" result="blurOut2" type="matrix" values="0 0 0 0 0 0 0 0 0 0 0 0 0 0 0 0 0 0 .4 0"/><feOffset dx="4.0" dy="4.0" in="blurOut2" result="blurOut3"/><feBlend in="SourceGraphic" in2="blurOut3" mode="normal"/></filter></defs><g><!--MD5=[dc548cf8b8a921e529ef6dffc75baca7]
class RecordSamplesUI--><rect codeLine="5" fill="#FEFECE" filter="url(#f189fnk9v8swf1)" height="48" id="RecordSamplesUI" style="stroke:#A80036;stroke-width:1.5;" width="134" x="291.5" y="7"/><ellipse cx="306.5" cy="23" fill="#ADD1B2" rx="11" ry="11" style="stroke:#A80036;stroke-width:1.0;"/><path d="M308.5,19.5 Q308.7031,19 308.9375,18.75 Q309.1719,18.5 309.4375,18.5 Q309.9063,18.5 310.2031,18.7813 Q310.5,19.0625 310.5,19.7188 L310.5,21.2813 Q310.5,21.9375 310.2188,22.2188 Q309.9375,22.5 309.5,22.5 Q309.1094,22.5 308.8594,22.3281 Q308.6094,22.1563 308.5,21.7031 Q308.4531,21.3906 308.2813,21.2188 Q307.9688,20.8906 307.4063,20.7031 Q306.8438,20.5 306.2813,20.5 Q305.5781,20.5 304.9844,20.7813 Q304.4063,21.0625 303.9531,21.6875 Q303.5,22.3125 303.5,23.1719 L303.5,24.0938 Q303.5,25.125 304.3438,25.8125 Q305.1875,26.5 306.6875,26.5 Q307.5781,26.5 308.2031,26.2969 Q308.5625,26.1875 308.9688,25.8281 Q309.2344,25.625 309.375,25.5625 Q309.5156,25.5 309.6875,25.5 Q310.0156,25.5 310.25,25.7656 Q310.5,26.0156 310.5,26.375 Q310.5,26.7188 310.1563,27.125 Q309.6563,27.7188 308.8594,28.0469 Q307.8125,28.5 306.5313,28.5 Q305.0313,28.5 303.8281,27.9063 Q302.8594,27.4375 302.1719,26.4219 Q301.5,25.4063 301.5,24.2031 L301.5,23.1094 Q301.5,21.8594 302.0938,20.7656 Q302.7031,19.6719 303.75,19.0938 Q304.8125,18.5 306,18.5 Q306.7188,18.5 307.3438,18.75 Q307.9688,19 308.5,19.5 Z " fill="#000000"/><text fill="#000000" font-family="sans-serif" font-size="12" lengthAdjust="spacing" textLength="102" x="320.5" y="27.9102">RecordSamplesUI</text><line style="stroke:#A80036;stroke-width:1.5;" x1="292.5" x2="424.5" y1="39" y2="39"/><line style="stroke:#A80036;stroke-width:1.5;" x1="292.5" x2="424.5" y1="47" y2="47"/><!--MD5=[a1e7b5096c55c847fdbd76277a7fd41a]
class RecordSamplesController--><rect codeLine="8" fill="#FEFECE" filter="url(#f189fnk9v8swf1)" height="48" id="RecordSamplesController" style="stroke:#A80036;stroke-width:1.5;" width="176" x="270.5" y="115"/><ellipse cx="285.5" cy="131" fill="#ADD1B2" rx="11" ry="11" style="stroke:#A80036;stroke-width:1.0;"/><path d="M287.5,127.5 Q287.7031,127 287.9375,126.75 Q288.1719,126.5 288.4375,126.5 Q288.9063,126.5 289.2031,126.7813 Q289.5,127.0625 289.5,127.7188 L289.5,129.2813 Q289.5,129.9375 289.2188,130.2188 Q288.9375,130.5 288.5,130.5 Q288.1094,130.5 287.8594,130.3281 Q287.6094,130.1563 287.5,129.7031 Q287.4531,129.3906 287.2813,129.2188 Q286.9688,128.8906 286.4063,128.7031 Q285.8438,128.5 285.2813,128.5 Q284.5781,128.5 283.9844,128.7813 Q283.4063,129.0625 282.9531,129.6875 Q282.5,130.3125 282.5,131.1719 L282.5,132.0938 Q282.5,133.125 283.3438,133.8125 Q284.1875,134.5 285.6875,134.5 Q286.5781,134.5 287.2031,134.2969 Q287.5625,134.1875 287.9688,133.8281 Q288.2344,133.625 288.375,133.5625 Q288.5156,133.5 288.6875,133.5 Q289.0156,133.5 289.25,133.7656 Q289.5,134.0156 289.5,134.375 Q289.5,134.7188 289.1563,135.125 Q288.6563,135.7188 287.8594,136.0469 Q286.8125,136.5 285.5313,136.5 Q284.0313,136.5 282.8281,135.9063 Q281.8594,135.4375 281.1719,134.4219 Q280.5,133.4063 280.5,132.2031 L280.5,131.1094 Q280.5,129.8594 281.0938,128.7656 Q281.7031,127.6719 282.75,127.0938 Q283.8125,126.5 285,126.5 Q285.7188,126.5 286.3438,126.75 Q286.9688,127 287.5,127.5 Z " fill="#000000"/><text fill="#000000" font-family="sans-serif" font-size="12" lengthAdjust="spacing" textLength="144" x="299.5" y="135.9102">RecordSamplesController</text><line style="stroke:#A80036;stroke-width:1.5;" x1="271.5" x2="445.5" y1="147" y2="147"/><line style="stroke:#A80036;stroke-width:1.5;" x1="271.5" x2="445.5" y1="155" y2="155"/><!--MD5=[144698ec4d0188f6929a3b58a3eeb1f6]
class TestMapper--><rect codeLine="11" fill="#FEFECE" filter="url(#f189fnk9v8swf1)" height="89.5078" id="TestMapper" style="stroke:#A80036;stroke-width:1.5;" width="101" x="7" y="223"/><ellipse cx="23.8" cy="239" fill="#ADD1B2" rx="11" ry="11" style="stroke:#A80036;stroke-width:1.0;"/><path d="M25.8,235.5 Q26.0031,235 26.2375,234.75 Q26.4719,234.5 26.7375,234.5 Q27.2063,234.5 27.5031,234.7813 Q27.8,235.0625 27.8,235.7188 L27.8,237.2813 Q27.8,237.9375 27.5188,238.2188 Q27.2375,238.5 26.8,238.5 Q26.4094,238.5 26.1594,238.3281 Q25.9094,238.1563 25.8,237.7031 Q25.7531,237.3906 25.5813,237.2188 Q25.2688,236.8906 24.7063,236.7031 Q24.1438,236.5 23.5813,236.5 Q22.8781,236.5 22.2844,236.7813 Q21.7063,237.0625 21.2531,237.6875 Q20.8,238.3125 20.8,239.1719 L20.8,240.0938 Q20.8,241.125 21.6438,241.8125 Q22.4875,242.5 23.9875,242.5 Q24.8781,242.5 25.5031,242.2969 Q25.8625,242.1875 26.2688,241.8281 Q26.5344,241.625 26.675,241.5625 Q26.8156,241.5 26.9875,241.5 Q27.3156,241.5 27.55,241.7656 Q27.8,242.0156 27.8,242.375 Q27.8,242.7188 27.4563,243.125 Q26.9563,243.7188 26.1594,244.0469 Q25.1125,244.5 23.8313,244.5 Q22.3313,244.5 21.1281,243.9063 Q20.1594,243.4375 19.4719,242.4219 Q18.8,241.4063 18.8,240.2031 L18.8,239.1094 Q18.8,237.8594 19.3938,236.7656 Q20.0031,235.6719 21.05,235.0938 Q22.1125,234.5 23.3,234.5 Q24.0188,234.5 24.6438,234.75 Q25.2688,235 25.8,235.5 Z " fill="#000000"/><text fill="#000000" font-family="sans-serif" font-size="12" lengthAdjust="spacing" textLength="65" x="38.2" y="243.9102">TestMapper</text><line style="stroke:#A80036;stroke-width:1.5;" x1="8" x2="107" y1="255" y2="255"/><line style="stroke:#A80036;stroke-width:1.5;" x1="8" x2="107" y1="263" y2="263"/><text fill="#000000" font-family="sans-serif" font-size="11" lengthAdjust="spacing" textLength="85" x="13" y="278.4189">+ModelToDto(lRT)</text><text fill="#000000" font-family="sans-serif" font-size="11" lengthAdjust="spacing" textLength="89" x="13" y="292.2549">+DtoToModel(tDto)</text><text fill="#000000" font-family="sans-serif" font-size="11" lengthAdjust="spacing" textLength="73" x="13" y="306.0908">+ModelToDto(t)</text><!--MD5=[02e4b9b7573f1156f41e60aa5b4e25a4]
class Company--><rect codeLine="17" fill="#FEFECE" filter="url(#f189fnk9v8swf1)" height="75.6719" id="Company" style="stroke:#A80036;stroke-width:1.5;" width="102" x="143.5" y="230"/><ellipse cx="166.15" cy="246" fill="#ADD1B2" rx="11" ry="11" style="stroke:#A80036;stroke-width:1.0;"/><path d="M168.15,242.5 Q168.3531,242 168.5875,241.75 Q168.8219,241.5 169.0875,241.5 Q169.5563,241.5 169.8531,241.7813 Q170.15,242.0625 170.15,242.7188 L170.15,244.2813 Q170.15,244.9375 169.8688,245.2188 Q169.5875,245.5 169.15,245.5 Q168.7594,245.5 168.5094,245.3281 Q168.2594,245.1563 168.15,244.7031 Q168.1031,244.3906 167.9313,244.2188 Q167.6188,243.8906 167.0563,243.7031 Q166.4938,243.5 165.9313,243.5 Q165.2281,243.5 164.6344,243.7813 Q164.0563,244.0625 163.6031,244.6875 Q163.15,245.3125 163.15,246.1719 L163.15,247.0938 Q163.15,248.125 163.9938,248.8125 Q164.8375,249.5 166.3375,249.5 Q167.2281,249.5 167.8531,249.2969 Q168.2125,249.1875 168.6188,248.8281 Q168.8844,248.625 169.025,248.5625 Q169.1656,248.5 169.3375,248.5 Q169.6656,248.5 169.9,248.7656 Q170.15,249.0156 170.15,249.375 Q170.15,249.7188 169.8063,250.125 Q169.3063,250.7188 168.5094,251.0469 Q167.4625,251.5 166.1813,251.5 Q164.6813,251.5 163.4781,250.9063 Q162.5094,250.4375 161.8219,249.4219 Q161.15,248.4063 161.15,247.2031 L161.15,246.1094 Q161.15,244.8594 161.7438,243.7656 Q162.3531,242.6719 163.4,242.0938 Q164.4625,241.5 165.65,241.5 Q166.3688,241.5 166.9938,241.75 Q167.6188,242 168.15,242.5 Z " fill="#000000"/><text fill="#000000" font-family="sans-serif" font-size="12" lengthAdjust="spacing" textLength="53" x="181.85" y="250.9102">Company</text><line style="stroke:#A80036;stroke-width:1.5;" x1="144.5" x2="244.5" y1="262" y2="262"/><text fill="#000000" font-family="sans-serif" font-size="11" lengthAdjust="spacing" textLength="90" x="149.5" y="277.4189">-String designation</text><line style="stroke:#A80036;stroke-width:1.5;" x1="144.5" x2="244.5" y1="283.8359" y2="283.8359"/><text fill="#000000" font-family="sans-serif" font-size="11" lengthAdjust="spacing" textLength="76" x="149.5" y="299.2549">+getTestStore()</text><!--MD5=[0f6f7964b844a64b0496af0dda7914bd]
class TestStore--><rect codeLine="22" fill="#FEFECE" filter="url(#f189fnk9v8swf1)" height="89.5078" id="TestStore" style="stroke:#A80036;stroke-width:1.5;" width="155" x="281" y="223"/><ellipse cx="327.75" cy="239" fill="#ADD1B2" rx="11" ry="11" style="stroke:#A80036;stroke-width:1.0;"/><path d="M329.75,235.5 Q329.9531,235 330.1875,234.75 Q330.4219,234.5 330.6875,234.5 Q331.1563,234.5 331.4531,234.7813 Q331.75,235.0625 331.75,235.7188 L331.75,237.2813 Q331.75,237.9375 331.4688,238.2188 Q331.1875,238.5 330.75,238.5 Q330.3594,238.5 330.1094,238.3281 Q329.8594,238.1563 329.75,237.7031 Q329.7031,237.3906 329.5313,237.2188 Q329.2188,236.8906 328.6563,236.7031 Q328.0938,236.5 327.5313,236.5 Q326.8281,236.5 326.2344,236.7813 Q325.6563,237.0625 325.2031,237.6875 Q324.75,238.3125 324.75,239.1719 L324.75,240.0938 Q324.75,241.125 325.5938,241.8125 Q326.4375,242.5 327.9375,242.5 Q328.8281,242.5 329.4531,242.2969 Q329.8125,242.1875 330.2188,241.8281 Q330.4844,241.625 330.625,241.5625 Q330.7656,241.5 330.9375,241.5 Q331.2656,241.5 331.5,241.7656 Q331.75,242.0156 331.75,242.375 Q331.75,242.7188 331.4063,243.125 Q330.9063,243.7188 330.1094,244.0469 Q329.0625,244.5 327.7813,244.5 Q326.2813,244.5 325.0781,243.9063 Q324.1094,243.4375 323.4219,242.4219 Q322.75,241.4063 322.75,240.2031 L322.75,239.1094 Q322.75,237.8594 323.3438,236.7656 Q323.9531,235.6719 325,235.0938 Q326.0625,234.5 327.25,234.5 Q327.9688,234.5 328.5938,234.75 Q329.2188,235 329.75,235.5 Z " fill="#000000"/><text fill="#000000" font-family="sans-serif" font-size="12" lengthAdjust="spacing" textLength="53" x="348.25" y="243.9102">TestStore</text><line style="stroke:#A80036;stroke-width:1.5;" x1="282" x2="435" y1="255" y2="255"/><line style="stroke:#A80036;stroke-width:1.5;" x1="282" x2="435" y1="263" y2="263"/><text fill="#000000" font-family="sans-serif" font-size="11" lengthAdjust="spacing" textLength="108" x="287" y="278.4189">+getRegisteredTests()</text><text fill="#000000" font-family="sans-serif" font-size="11" lengthAdjust="spacing" textLength="78" x="287" y="292.2549">+getTest(tCode)</text><text fill="#000000" font-family="sans-serif" font-size="11" lengthAdjust="spacing" textLength="143" x="287" y="306.0908">+globallyUnique(listBarcodes)</text><!--MD5=[df38be88ccee13e832d6fafd6288a4ca]
class Test--><rect codeLine="28" fill="#FEFECE" filter="url(#f189fnk9v8swf1)" height="227.8672" id="Test" style="stroke:#A80036;stroke-width:1.5;" width="144" x="320.5" y="373"/><ellipse cx="376.25" cy="389" fill="#ADD1B2" rx="11" ry="11" style="stroke:#A80036;stroke-width:1.0;"/><path d="M378.25,385.5 Q378.4531,385 378.6875,384.75 Q378.9219,384.5 379.1875,384.5 Q379.6563,384.5 379.9531,384.7813 Q380.25,385.0625 380.25,385.7188 L380.25,387.2813 Q380.25,387.9375 379.9688,388.2188 Q379.6875,388.5 379.25,388.5 Q378.8594,388.5 378.6094,388.3281 Q378.3594,388.1563 378.25,387.7031 Q378.2031,387.3906 378.0313,387.2188 Q377.7188,386.8906 377.1563,386.7031 Q376.5938,386.5 376.0313,386.5 Q375.3281,386.5 374.7344,386.7813 Q374.1563,387.0625 373.7031,387.6875 Q373.25,388.3125 373.25,389.1719 L373.25,390.0938 Q373.25,391.125 374.0938,391.8125 Q374.9375,392.5 376.4375,392.5 Q377.3281,392.5 377.9531,392.2969 Q378.3125,392.1875 378.7188,391.8281 Q378.9844,391.625 379.125,391.5625 Q379.2656,391.5 379.4375,391.5 Q379.7656,391.5 380,391.7656 Q380.25,392.0156 380.25,392.375 Q380.25,392.7188 379.9063,393.125 Q379.4063,393.7188 378.6094,394.0469 Q377.5625,394.5 376.2813,394.5 Q374.7813,394.5 373.5781,393.9063 Q372.6094,393.4375 371.9219,392.4219 Q371.25,391.4063 371.25,390.2031 L371.25,389.1094 Q371.25,387.8594 371.8438,386.7656 Q372.4531,385.6719 373.5,385.0938 Q374.5625,384.5 375.75,384.5 Q376.4688,384.5 377.0938,384.75 Q377.7188,385 378.25,385.5 Z " fill="#000000"/><text fill="#000000" font-family="sans-serif" font-size="12" lengthAdjust="spacing" textLength="24" x="396.75" y="393.9102">Test</text><line style="stroke:#A80036;stroke-width:1.5;" x1="321.5" x2="463.5" y1="405" y2="405"/><text fill="#000000" font-family="sans-serif" font-size="11" lengthAdjust="spacing" textLength="57" x="326.5" y="420.4189">-description</text><text fill="#000000" font-family="sans-serif" font-size="11" lengthAdjust="spacing" textLength="28" x="326.5" y="434.2549">-code</text><text fill="#000000" font-family="sans-serif" font-size="11" lengthAdjust="spacing" textLength="47" x="326.5" y="448.0908">-nhsCode</text><text fill="#000000" font-family="sans-serif" font-size="11" lengthAdjust="spacing" textLength="79" x="326.5" y="461.9268">-collectDateTime</text><text fill="#000000" font-family="sans-serif" font-size="11" lengthAdjust="spacing" textLength="132" x="326.5" y="475.7627">-chemicalAnalysisDateTime</text><text fill="#000000" font-family="sans-serif" font-size="11" lengthAdjust="spacing" textLength="94" x="326.5" y="489.5986">-diagnosisDateTime</text><text fill="#000000" font-family="sans-serif" font-size="11" lengthAdjust="spacing" textLength="93" x="326.5" y="503.4346">-validationDateTime</text><line style="stroke:#A80036;stroke-width:1.5;" x1="321.5" x2="463.5" y1="509.8516" y2="509.8516"/><text fill="#000000" font-family="sans-serif" font-size="11" lengthAdjust="spacing" textLength="99" x="326.5" y="525.2705">+updateTestStatus()</text><text fill="#000000" font-family="sans-serif" font-size="11" lengthAdjust="spacing" textLength="132" x="326.5" y="539.1064">+isListUnique(listBarcodes)</text><text fill="#000000" font-family="sans-serif" font-size="11" lengthAdjust="spacing" textLength="104" x="326.5" y="552.9424">+addAll(listBarcodes)</text><text fill="#000000" font-family="sans-serif" font-size="11" lengthAdjust="spacing" textLength="80" x="326.5" y="566.7783">+createSample()</text><text fill="#000000" font-family="sans-serif" font-size="11" lengthAdjust="spacing" textLength="123" x="326.5" y="580.6143">+updateCollectDateTime()</text><text fill="#000000" font-family="sans-serif" font-size="11" lengthAdjust="spacing" textLength="51" x="326.5" y="594.4502">+validate()</text><!--MD5=[837547de269260f334c6cb8943c04a2c]
class APIBarcodeAdapter--><rect codeLine="44" fill="#FEFECE" filter="url(#f189fnk9v8swf1)" height="61.8359" id="APIBarcodeAdapter" style="stroke:#A80036;stroke-width:1.5;" width="163" x="543" y="237"/><ellipse cx="569.25" cy="253" fill="#ADD1B2" rx="11" ry="11" style="stroke:#A80036;stroke-width:1.0;"/><path d="M571.25,249.5 Q571.4531,249 571.6875,248.75 Q571.9219,248.5 572.1875,248.5 Q572.6563,248.5 572.9531,248.7813 Q573.25,249.0625 573.25,249.7188 L573.25,251.2813 Q573.25,251.9375 572.9688,252.2188 Q572.6875,252.5 572.25,252.5 Q571.8594,252.5 571.6094,252.3281 Q571.3594,252.1563 571.25,251.7031 Q571.2031,251.3906 571.0313,251.2188 Q570.7188,250.8906 570.1563,250.7031 Q569.5938,250.5 569.0313,250.5 Q568.3281,250.5 567.7344,250.7813 Q567.1563,251.0625 566.7031,251.6875 Q566.25,252.3125 566.25,253.1719 L566.25,254.0938 Q566.25,255.125 567.0938,255.8125 Q567.9375,256.5 569.4375,256.5 Q570.3281,256.5 570.9531,256.2969 Q571.3125,256.1875 571.7188,255.8281 Q571.9844,255.625 572.125,255.5625 Q572.2656,255.5 572.4375,255.5 Q572.7656,255.5 573,255.7656 Q573.25,256.0156 573.25,256.375 Q573.25,256.7188 572.9063,257.125 Q572.4063,257.7188 571.6094,258.0469 Q570.5625,258.5 569.2813,258.5 Q567.7813,258.5 566.5781,257.9063 Q565.6094,257.4375 564.9219,256.4219 Q564.25,255.4063 564.25,254.2031 L564.25,253.1094 Q564.25,251.8594 564.8438,250.7656 Q565.4531,249.6719 566.5,249.0938 Q567.5625,248.5 568.75,248.5 Q569.4688,248.5 570.0938,248.75 Q570.7188,249 571.25,249.5 Z " fill="#000000"/><text fill="#000000" font-family="sans-serif" font-size="12" lengthAdjust="spacing" textLength="106" x="585.75" y="257.9102">APIBarcodeAdapter</text><line style="stroke:#A80036;stroke-width:1.5;" x1="544" x2="705" y1="269" y2="269"/><line style="stroke:#A80036;stroke-width:1.5;" x1="544" x2="705" y1="277" y2="277"/><text fill="#000000" font-family="sans-serif" font-size="11" lengthAdjust="spacing" textLength="151" x="549" y="292.4189">+generateBarcodes(nSamples)</text><!--MD5=[ea9db495254b65e9320d91ab6d521049]
class ExternalModuleAPIBarcode--><rect codeLine="48" fill="#FEFECE" filter="url(#f189fnk9v8swf1)" height="61.8359" id="ExternalModuleAPIBarcode" style="stroke:#A80036;stroke-width:1.5;" width="183" x="533" y="456"/><ellipse cx="548" cy="472" fill="#B4A7E5" rx="11" ry="11" style="stroke:#A80036;stroke-width:1.0;"/><path d="M549,469 L549,475 L551,475 L551.4844,475 L552,475.625 L552,476 L552,476.375 L551.4844,477 L551,477 L545,477 L544.5156,477 L544,476.375 L544,476 L544,475.625 L544.5156,475 L545,475 L547,475 L547,469 L545,469 L544.5156,469 L544,468.375 L544,468 L544,467.625 L544.5156,467 L545,467 L551,467 L551.4844,467 L552,467.625 L552,468 L552,468.375 L551.4844,469 L551,469 L549,469 Z " fill="#000000"/><text fill="#000000" font-family="sans-serif" font-size="12" font-style="italic" lengthAdjust="spacing" textLength="151" x="562" y="476.9102">ExternalModuleAPIBarcode</text><line style="stroke:#A80036;stroke-width:1.5;" x1="534" x2="715" y1="488" y2="488"/><line style="stroke:#A80036;stroke-width:1.5;" x1="534" x2="715" y1="496" y2="496"/><text fill="#000000" font-family="sans-serif" font-size="11" lengthAdjust="spacing" textLength="104" x="539" y="511.4189">+generate(nSamples)</text><!--MD5=[9681492165142af2a4a3a169d90ee8d4]
class Sample--><rect codeLine="52" fill="#FEFECE" filter="url(#f189fnk9v8swf1)" height="75.6719" id="Sample" style="stroke:#A80036;stroke-width:1.5;" width="101" x="342" y="661"/><ellipse cx="368.7" cy="677" fill="#ADD1B2" rx="11" ry="11" style="stroke:#A80036;stroke-width:1.0;"/><path d="M370.7,673.5 Q370.9031,673 371.1375,672.75 Q371.3719,672.5 371.6375,672.5 Q372.1063,672.5 372.4031,672.7813 Q372.7,673.0625 372.7,673.7188 L372.7,675.2813 Q372.7,675.9375 372.4188,676.2188 Q372.1375,676.5 371.7,676.5 Q371.3094,676.5 371.0594,676.3281 Q370.8094,676.1563 370.7,675.7031 Q370.6531,675.3906 370.4813,675.2188 Q370.1688,674.8906 369.6063,674.7031 Q369.0438,674.5 368.4813,674.5 Q367.7781,674.5 367.1844,674.7813 Q366.6063,675.0625 366.1531,675.6875 Q365.7,676.3125 365.7,677.1719 L365.7,678.0938 Q365.7,679.125 366.5438,679.8125 Q367.3875,680.5 368.8875,680.5 Q369.7781,680.5 370.4031,680.2969 Q370.7625,680.1875 371.1688,679.8281 Q371.4344,679.625 371.575,679.5625 Q371.7156,679.5 371.8875,679.5 Q372.2156,679.5 372.45,679.7656 Q372.7,680.0156 372.7,680.375 Q372.7,680.7188 372.3563,681.125 Q371.8563,681.7188 371.0594,682.0469 Q370.0125,682.5 368.7313,682.5 Q367.2313,682.5 366.0281,681.9063 Q365.0594,681.4375 364.3719,680.4219 Q363.7,679.4063 363.7,678.2031 L363.7,677.1094 Q363.7,675.8594 364.2938,674.7656 Q364.9031,673.6719 365.95,673.0938 Q367.0125,672.5 368.2,672.5 Q368.9188,672.5 369.5438,672.75 Q370.1688,673 370.7,673.5 Z " fill="#000000"/><text fill="#000000" font-family="sans-serif" font-size="12" lengthAdjust="spacing" textLength="43" x="385.3" y="681.9102">Sample</text><line style="stroke:#A80036;stroke-width:1.5;" x1="343" x2="442" y1="693" y2="693"/><text fill="#000000" font-family="sans-serif" font-size="11" lengthAdjust="spacing" textLength="44" x="348" y="708.4189">-barcode</text><line style="stroke:#A80036;stroke-width:1.5;" x1="343" x2="442" y1="714.8359" y2="714.8359"/><text fill="#000000" font-family="sans-serif" font-size="11" lengthAdjust="spacing" textLength="89" x="348" y="730.2549">+Sample(barcode)</text><!--MD5=[2b8f4f220c107d5b0c7e594325c75009]
link RecordSamplesUI to RecordSamplesController--><path codeLine="57" d="M358.5,55 C358.5,71 358.5,92.45 358.5,109.53 " fill="none" id="RecordSamplesUI-to-RecordSamplesController" style="stroke:#A80036;stroke-width:1.0;stroke-dasharray:7.0,7.0;"/><polygon fill="#A80036" points="358.5,114.68,362.5,105.68,358.5,109.68,354.5,105.68,358.5,114.68" style="stroke:#A80036;stroke-width:1.0;"/><!--MD5=[6ed32d73deab35a78f7e857c49af6d4e]
link RecordSamplesController to TestMapper--><path codeLine="58" d="M279.78,163.01 C233.73,177.69 175.08,198.54 125.5,223 C121.33,225.06 117.11,227.31 112.91,229.69 " fill="none" id="RecordSamplesController-to-TestMapper" style="stroke:#A80036;stroke-width:1.0;stroke-dasharray:7.0,7.0;"/><polygon fill="#A80036" points="108.37,232.31,118.1641,231.2726,112.6997,229.8093,114.163,224.345,108.37,232.31" style="stroke:#A80036;stroke-width:1.0;"/><!--MD5=[cb39fcb634a9bd76468eff3a82f2ba7e]
link RecordSamplesController to Company--><path codeLine="59" d="M328.42,163.29 C305.6,180.97 273.66,205.7 246.7,226.58 " fill="none" id="RecordSamplesController-to-Company" style="stroke:#A80036;stroke-width:1.0;stroke-dasharray:7.0,7.0;"/><polygon fill="#A80036" points="242.42,229.89,251.9876,227.5531,246.3767,226.8332,247.0967,221.2223,242.42,229.89" style="stroke:#A80036;stroke-width:1.0;"/><!--MD5=[56748807f3dbfcb383b4f7a7d0d85bb1]
link RecordSamplesController to TestStore--><path codeLine="60" d="M358.5,163.29 C358.5,178.48 358.5,198.88 358.5,217.56 " fill="none" id="RecordSamplesController-to-TestStore" style="stroke:#A80036;stroke-width:1.0;stroke-dasharray:7.0,7.0;"/><polygon fill="#A80036" points="358.5,222.78,362.5,213.78,358.5,217.78,354.5,213.78,358.5,222.78" style="stroke:#A80036;stroke-width:1.0;"/><!--MD5=[3ee54d312014e77ab3a5177ff886dee1]
link RecordSamplesController to Test--><path codeLine="61" d="M398.28,163.04 C418.9,177.38 442.09,197.87 453.5,223 C474.11,268.38 467.07,321.45 451.8,367.98 " fill="none" id="RecordSamplesController-to-Test" style="stroke:#A80036;stroke-width:1.0;stroke-dasharray:7.0,7.0;"/><polygon fill="#A80036" points="450.2,372.75,456.867,365.5008,451.7983,368.0123,449.2867,362.9436,450.2,372.75" style="stroke:#A80036;stroke-width:1.0;"/><!--MD5=[14540e0853ac55f776ac107dcbbde416]
link RecordSamplesController to APIBarcodeAdapter--><path codeLine="62" d="M406.98,163.15 C448.85,183.14 509.8,212.24 556.54,234.55 " fill="none" id="RecordSamplesController-to-APIBarcodeAdapter" style="stroke:#A80036;stroke-width:1.0;stroke-dasharray:7.0,7.0;"/><polygon fill="#A80036" points="561.3,236.83,554.9041,229.3405,556.7886,234.6742,551.4549,236.5587,561.3,236.83" style="stroke:#A80036;stroke-width:1.0;"/><!--MD5=[19aa18508572e0a5d7873965d2e6d2ca]
link APIBarcodeAdapter to ExternalModuleAPIBarcode--><path codeLine="63" d="M624.5,299.17 C624.5,338.82 624.5,408.34 624.5,450.48 " fill="none" id="APIBarcodeAdapter-to-ExternalModuleAPIBarcode" style="stroke:#A80036;stroke-width:1.0;stroke-dasharray:7.0,7.0;"/><polygon fill="#A80036" points="624.5,455.73,628.5,446.73,624.5,450.73,620.5,446.73,624.5,455.73" style="stroke:#A80036;stroke-width:1.0;"/><!--MD5=[b0f4f6db8206580012ef9cd998ed01c5]
link TestStore to Test--><path codeLine="64" d="M365.42,313.17 C367.95,329.28 370.93,348.35 373.99,367.84 " fill="none" id="TestStore-to-Test" style="stroke:#A80036;stroke-width:1.0;stroke-dasharray:7.0,7.0;"/><polygon fill="#A80036" points="374.76,372.8,377.3243,363.2908,373.989,367.8598,369.42,364.5245,374.76,372.8" style="stroke:#A80036;stroke-width:1.0;"/><!--MD5=[b72ac8ab7fb5921fceb5036a3902baea]
link Test to Sample--><path codeLine="65" d="M392.5,601.3 C392.5,620.62 392.5,639.56 392.5,655.49 " fill="none" id="Test-to-Sample" style="stroke:#A80036;stroke-width:1.0;stroke-dasharray:7.0,7.0;"/><polygon fill="#A80036" points="392.5,660.77,396.5,651.77,392.5,655.77,388.5,651.77,392.5,660.77" style="stroke:#A80036;stroke-width:1.0;"/><!--MD5=[5a7a64b368f6cd2e22eaef83f733029b]
@startuml
'https://plantuml.com/class-diagram

skinparam classAttributeIconSize 0

class RecordSamplesUI{
}

class RecordSamplesController{
}

class TestMapper{
  +ModelToDto(lRT)
  +DtoToModel(tDto)
  +ModelToDto(t)
}

class Company{
  -String designation
  +getTestStore()
}

class TestStore{
  +getRegisteredTests()
  +getTest(tCode)
  +globallyUnique(listBarcodes)
}

class Test{
  -description
  -code
  -nhsCode
  -collectDateTime
  -chemicalAnalysisDateTime
  -diagnosisDateTime
  -validationDateTime
  +updateTestStatus()
  +isListUnique(listBarcodes)
  +addAll(listBarcodes)
  +createSample()
  +updateCollectDateTime()
  +validate()
}

class APIBarcodeAdapter{
  +generateBarcodes(nSamples)
}

interface ExternalModuleAPIBarcode{
  +generate(nSamples)
}

class Sample{
  -barcode
  +Sample(barcode)
}

RecordSamplesUI ..> RecordSamplesController
RecordSamplesController ..> TestMapper
RecordSamplesController ..> Company
RecordSamplesController ..> TestStore
RecordSamplesController ..> Test
RecordSamplesController ..> APIBarcodeAdapter
APIBarcodeAdapter ..> ExternalModuleAPIBarcode
TestStore ..> Test
Test ..> Sample




@enduml

@startuml

skinparam classAttributeIconSize 0

class RecordSamplesUI{
}

class RecordSamplesController{
}

class TestMapper{
  +ModelToDto(lRT)
  +DtoToModel(tDto)
  +ModelToDto(t)
}

class Company{
  -String designation
  +getTestStore()
}

class TestStore{
  +getRegisteredTests()
  +getTest(tCode)
  +globallyUnique(listBarcodes)
}

class Test{
  -description
  -code
  -nhsCode
  -collectDateTime
  -chemicalAnalysisDateTime
  -diagnosisDateTime
  -validationDateTime
  +updateTestStatus()
  +isListUnique(listBarcodes)
  +addAll(listBarcodes)
  +createSample()
  +updateCollectDateTime()
  +validate()
}

class APIBarcodeAdapter{
  +generateBarcodes(nSamples)
}

interface ExternalModuleAPIBarcode{
  +generate(nSamples)
}

class Sample{
  -barcode
  +Sample(barcode)
}

RecordSamplesUI ..> RecordSamplesController
RecordSamplesController ..> TestMapper
RecordSamplesController ..> Company
RecordSamplesController ..> TestStore
RecordSamplesController ..> Test
RecordSamplesController ..> APIBarcodeAdapter
APIBarcodeAdapter ..> ExternalModuleAPIBarcode
TestStore ..> Test
Test ..> Sample




@enduml

PlantUML version 1.2021.2(Sun Mar 07 11:10:27 GMT 2021)
(GPL source distribution)
Java Runtime: OpenJDK Runtime Environment
JVM: OpenJDK 64-Bit Server VM
Default Encoding: Cp1252
Language: pt
Country: PT
--></g></svg>