<?xml version="1.0" encoding="UTF-8" standalone="no"?><svg xmlns="http://www.w3.org/2000/svg" xmlns:xlink="http://www.w3.org/1999/xlink" contentScriptType="application/ecmascript" contentStyleType="text/css" height="600px" preserveAspectRatio="none" style="width:580px;height:600px;" version="1.1" viewBox="0 0 580 600" width="580.8px" zoomAndPan="magnify"><defs><filter height="300%" id="fqz8r855bndqv" width="300%" x="-1" y="-1"><feGaussianBlur result="blurOut" stdDeviation="1.6"/><feColorMatrix in="blurOut" result="blurOut2" type="matrix" values="0 0 0 0 0 0 0 0 0 0 0 0 0 0 0 0 0 0 .4 0"/><feOffset dx="3.2" dy="3.2" in="blurOut2" result="blurOut3"/><feBlend in="SourceGraphic" in2="blurOut3" mode="normal"/></filter></defs><g><!--MD5=[dc548cf8b8a921e529ef6dffc75baca7]
class RecordSamplesUI--><rect codeLine="4" fill="#FEFECE" filter="url(#fqz8r855bndqv)" height="38.4" id="RecordSamplesUI" style="stroke:#A80036;stroke-width:1.2000000000000002;" width="107.2" x="230" y="5.6"/><ellipse cx="242" cy="18.4" fill="#ADD1B2" rx="8.8" ry="8.8" style="stroke:#A80036;stroke-width:0.8;"/><path d="M243.6,15.6 Q243.7625,15.2 243.95,15 Q244.1375,14.8 244.35,14.8 Q244.725,14.8 244.9625,15.025 Q245.2,15.25 245.2,15.775 L245.2,17.025 Q245.2,17.55 244.975,17.775 Q244.75,18 244.4,18 Q244.0875,18 243.8875,17.8625 Q243.6875,17.725 243.6,17.3625 Q243.5625,17.1125 243.425,16.975 Q243.175,16.7125 242.725,16.5625 Q242.275,16.4 241.825,16.4 Q241.2625,16.4 240.7875,16.625 Q240.325,16.85 239.9625,17.35 Q239.6,17.85 239.6,18.5375 L239.6,19.275 Q239.6,20.1 240.275,20.65 Q240.95,21.2 242.15,21.2 Q242.8625,21.2 243.3625,21.0375 Q243.65,20.95 243.975,20.6625 Q244.1875,20.5 244.3,20.45 Q244.4125,20.4 244.55,20.4 Q244.8125,20.4 245,20.6125 Q245.2,20.8125 245.2,21.1 Q245.2,21.375 244.925,21.7 Q244.525,22.175 243.8875,22.4375 Q243.05,22.8 242.025,22.8 Q240.825,22.8 239.8625,22.325 Q239.0875,21.95 238.5375,21.1375 Q238,20.325 238,19.3625 L238,18.4875 Q238,17.4875 238.475,16.6125 Q238.9625,15.7375 239.8,15.275 Q240.65,14.8 241.6,14.8 Q242.175,14.8 242.675,15 Q243.175,15.2 243.6,15.6 Z " fill="#000000"/><text fill="#000000" font-family="sans-serif" font-size="9.6" lengthAdjust="spacing" textLength="81.6" x="253.2" y="22.3281">RecordSamplesUI</text><line style="stroke:#A80036;stroke-width:1.2000000000000002;" x1="230.8" x2="336.4" y1="31.2" y2="31.2"/><line style="stroke:#A80036;stroke-width:1.2000000000000002;" x1="230.8" x2="336.4" y1="37.6" y2="37.6"/><!--MD5=[a1e7b5096c55c847fdbd76277a7fd41a]
class RecordSamplesController--><rect codeLine="7" fill="#FEFECE" filter="url(#fqz8r855bndqv)" height="38.4" id="RecordSamplesController" style="stroke:#A80036;stroke-width:1.2000000000000002;" width="140.8" x="213.2" y="92"/><ellipse cx="225.2" cy="104.8" fill="#ADD1B2" rx="8.8" ry="8.8" style="stroke:#A80036;stroke-width:0.8;"/><path d="M226.8,102 Q226.9625,101.6 227.15,101.4 Q227.3375,101.2 227.55,101.2 Q227.925,101.2 228.1625,101.425 Q228.4,101.65 228.4,102.175 L228.4,103.425 Q228.4,103.95 228.175,104.175 Q227.95,104.4 227.6,104.4 Q227.2875,104.4 227.0875,104.2625 Q226.8875,104.125 226.8,103.7625 Q226.7625,103.5125 226.625,103.375 Q226.375,103.1125 225.925,102.9625 Q225.475,102.8 225.025,102.8 Q224.4625,102.8 223.9875,103.025 Q223.525,103.25 223.1625,103.75 Q222.8,104.25 222.8,104.9375 L222.8,105.675 Q222.8,106.5 223.475,107.05 Q224.15,107.6 225.35,107.6 Q226.0625,107.6 226.5625,107.4375 Q226.85,107.35 227.175,107.0625 Q227.3875,106.9 227.5,106.85 Q227.6125,106.8 227.75,106.8 Q228.0125,106.8 228.2,107.0125 Q228.4,107.2125 228.4,107.5 Q228.4,107.775 228.125,108.1 Q227.725,108.575 227.0875,108.8375 Q226.25,109.2 225.225,109.2 Q224.025,109.2 223.0625,108.725 Q222.2875,108.35 221.7375,107.5375 Q221.2,106.725 221.2,105.7625 L221.2,104.8875 Q221.2,103.8875 221.675,103.0125 Q222.1625,102.1375 223,101.675 Q223.85,101.2 224.8,101.2 Q225.375,101.2 225.875,101.4 Q226.375,101.6 226.8,102 Z " fill="#000000"/><text fill="#000000" font-family="sans-serif" font-size="9.6" lengthAdjust="spacing" textLength="115.2" x="236.4" y="108.7281">RecordSamplesController</text><line style="stroke:#A80036;stroke-width:1.2000000000000002;" x1="214" x2="353.2" y1="117.6" y2="117.6"/><line style="stroke:#A80036;stroke-width:1.2000000000000002;" x1="214" x2="353.2" y1="124" y2="124"/><!--MD5=[144698ec4d0188f6929a3b58a3eeb1f6]
class TestMapper--><rect codeLine="10" fill="#FEFECE" filter="url(#fqz8r855bndqv)" height="71.6063" id="TestMapper" style="stroke:#A80036;stroke-width:1.2000000000000002;" width="77.6" x="5.6" y="178.4"/><ellipse cx="17.6" cy="191.2" fill="#ADD1B2" rx="8.8" ry="8.8" style="stroke:#A80036;stroke-width:0.8;"/><path d="M19.2,188.4 Q19.3625,188 19.55,187.8 Q19.7375,187.6 19.95,187.6 Q20.325,187.6 20.5625,187.825 Q20.8,188.05 20.8,188.575 L20.8,189.825 Q20.8,190.35 20.575,190.575 Q20.35,190.8 20,190.8 Q19.6875,190.8 19.4875,190.6625 Q19.2875,190.525 19.2,190.1625 Q19.1625,189.9125 19.025,189.775 Q18.775,189.5125 18.325,189.3625 Q17.875,189.2 17.425,189.2 Q16.8625,189.2 16.3875,189.425 Q15.925,189.65 15.5625,190.15 Q15.2,190.65 15.2,191.3375 L15.2,192.075 Q15.2,192.9 15.875,193.45 Q16.55,194 17.75,194 Q18.4625,194 18.9625,193.8375 Q19.25,193.75 19.575,193.4625 Q19.7875,193.3 19.9,193.25 Q20.0125,193.2 20.15,193.2 Q20.4125,193.2 20.6,193.4125 Q20.8,193.6125 20.8,193.9 Q20.8,194.175 20.525,194.5 Q20.125,194.975 19.4875,195.2375 Q18.65,195.6 17.625,195.6 Q16.425,195.6 15.4625,195.125 Q14.6875,194.75 14.1375,193.9375 Q13.6,193.125 13.6,192.1625 L13.6,191.2875 Q13.6,190.2875 14.075,189.4125 Q14.5625,188.5375 15.4,188.075 Q16.25,187.6 17.2,187.6 Q17.775,187.6 18.275,187.8 Q18.775,188 19.2,188.4 Z " fill="#000000"/><text fill="#000000" font-family="sans-serif" font-size="9.6" lengthAdjust="spacing" textLength="52" x="28.8" y="195.1281">TestMapper</text><line style="stroke:#A80036;stroke-width:1.2000000000000002;" x1="6.4" x2="82.4" y1="204" y2="204"/><line style="stroke:#A80036;stroke-width:1.2000000000000002;" x1="6.4" x2="82.4" y1="210.4" y2="210.4"/><text fill="#000000" font-family="sans-serif" font-size="8.8" lengthAdjust="spacing" textLength="43.2" x="10.4" y="222.7352">+toDto(lRT)</text><text fill="#000000" font-family="sans-serif" font-size="8.8" lengthAdjust="spacing" textLength="56" x="10.4" y="233.8039">+toModel(tDto)</text><text fill="#000000" font-family="sans-serif" font-size="8.8" lengthAdjust="spacing" textLength="33.6" x="10.4" y="244.8727">+toDto(t)</text><!--MD5=[02e4b9b7573f1156f41e60aa5b4e25a4]
class Company--><rect codeLine="16" fill="#FEFECE" filter="url(#fqz8r855bndqv)" height="60.5375" id="Company" style="stroke:#A80036;stroke-width:1.2000000000000002;" width="81.6" x="111.6" y="184"/><ellipse cx="129.72" cy="196.8" fill="#ADD1B2" rx="8.8" ry="8.8" style="stroke:#A80036;stroke-width:0.8;"/><path d="M131.32,194 Q131.4825,193.6 131.67,193.4 Q131.8575,193.2 132.07,193.2 Q132.445,193.2 132.6825,193.425 Q132.92,193.65 132.92,194.175 L132.92,195.425 Q132.92,195.95 132.695,196.175 Q132.47,196.4 132.12,196.4 Q131.8075,196.4 131.6075,196.2625 Q131.4075,196.125 131.32,195.7625 Q131.2825,195.5125 131.145,195.375 Q130.895,195.1125 130.445,194.9625 Q129.995,194.8 129.545,194.8 Q128.9825,194.8 128.5075,195.025 Q128.045,195.25 127.6825,195.75 Q127.32,196.25 127.32,196.9375 L127.32,197.675 Q127.32,198.5 127.995,199.05 Q128.67,199.6 129.87,199.6 Q130.5825,199.6 131.0825,199.4375 Q131.37,199.35 131.695,199.0625 Q131.9075,198.9 132.02,198.85 Q132.1325,198.8 132.27,198.8 Q132.5325,198.8 132.72,199.0125 Q132.92,199.2125 132.92,199.5 Q132.92,199.775 132.645,200.1 Q132.245,200.575 131.6075,200.8375 Q130.77,201.2 129.745,201.2 Q128.545,201.2 127.5825,200.725 Q126.8075,200.35 126.2575,199.5375 Q125.72,198.725 125.72,197.7625 L125.72,196.8875 Q125.72,195.8875 126.195,195.0125 Q126.6825,194.1375 127.52,193.675 Q128.37,193.2 129.32,193.2 Q129.895,193.2 130.395,193.4 Q130.895,193.6 131.32,194 Z " fill="#000000"/><text fill="#000000" font-family="sans-serif" font-size="9.6" lengthAdjust="spacing" textLength="42.4" x="142.28" y="200.7281">Company</text><line style="stroke:#A80036;stroke-width:1.2000000000000002;" x1="112.4" x2="192.4" y1="209.6" y2="209.6"/><text fill="#000000" font-family="sans-serif" font-size="8.8" lengthAdjust="spacing" textLength="72" x="116.4" y="221.9352">-String designation</text><line style="stroke:#A80036;stroke-width:1.2000000000000002;" x1="112.4" x2="192.4" y1="227.0688" y2="227.0688"/><text fill="#000000" font-family="sans-serif" font-size="8.8" lengthAdjust="spacing" textLength="60.8" x="116.4" y="239.4039">+getTestStore()</text><!--MD5=[0f6f7964b844a64b0496af0dda7914bd]
class TestStore--><rect codeLine="21" fill="#FEFECE" filter="url(#fqz8r855bndqv)" height="71.6063" id="TestStore" style="stroke:#A80036;stroke-width:1.2000000000000002;" width="124" x="221.6" y="178.4"/><ellipse cx="259" cy="191.2" fill="#ADD1B2" rx="8.8" ry="8.8" style="stroke:#A80036;stroke-width:0.8;"/><path d="M260.6,188.4 Q260.7625,188 260.95,187.8 Q261.1375,187.6 261.35,187.6 Q261.725,187.6 261.9625,187.825 Q262.2,188.05 262.2,188.575 L262.2,189.825 Q262.2,190.35 261.975,190.575 Q261.75,190.8 261.4,190.8 Q261.0875,190.8 260.8875,190.6625 Q260.6875,190.525 260.6,190.1625 Q260.5625,189.9125 260.425,189.775 Q260.175,189.5125 259.725,189.3625 Q259.275,189.2 258.825,189.2 Q258.2625,189.2 257.7875,189.425 Q257.325,189.65 256.9625,190.15 Q256.6,190.65 256.6,191.3375 L256.6,192.075 Q256.6,192.9 257.275,193.45 Q257.95,194 259.15,194 Q259.8625,194 260.3625,193.8375 Q260.65,193.75 260.975,193.4625 Q261.1875,193.3 261.3,193.25 Q261.4125,193.2 261.55,193.2 Q261.8125,193.2 262,193.4125 Q262.2,193.6125 262.2,193.9 Q262.2,194.175 261.925,194.5 Q261.525,194.975 260.8875,195.2375 Q260.05,195.6 259.025,195.6 Q257.825,195.6 256.8625,195.125 Q256.0875,194.75 255.5375,193.9375 Q255,193.125 255,192.1625 L255,191.2875 Q255,190.2875 255.475,189.4125 Q255.9625,188.5375 256.8,188.075 Q257.65,187.6 258.6,187.6 Q259.175,187.6 259.675,187.8 Q260.175,188 260.6,188.4 Z " fill="#000000"/><text fill="#000000" font-family="sans-serif" font-size="9.6" lengthAdjust="spacing" textLength="42.4" x="275.4" y="195.1281">TestStore</text><line style="stroke:#A80036;stroke-width:1.2000000000000002;" x1="222.4" x2="344.8" y1="204" y2="204"/><line style="stroke:#A80036;stroke-width:1.2000000000000002;" x1="222.4" x2="344.8" y1="210.4" y2="210.4"/><text fill="#000000" font-family="sans-serif" font-size="8.8" lengthAdjust="spacing" textLength="86.4" x="226.4" y="222.7352">+getRegisteredTests()</text><text fill="#000000" font-family="sans-serif" font-size="8.8" lengthAdjust="spacing" textLength="114.4" x="226.4" y="233.8039">+globallyUnique(listBarcodes)</text><text fill="#000000" font-family="sans-serif" font-size="8.8" lengthAdjust="spacing" textLength="32.8" x="226.4" y="244.8727">+save(t)</text><!--MD5=[df38be88ccee13e832d6fafd6288a4ca]
class Test--><rect codeLine="27" fill="#FEFECE" filter="url(#fqz8r855bndqv)" height="182.2938" id="Test" style="stroke:#A80036;stroke-width:1.2000000000000002;" width="115.2" x="253.2" y="298.4"/><ellipse cx="297.8" cy="311.2" fill="#ADD1B2" rx="8.8" ry="8.8" style="stroke:#A80036;stroke-width:0.8;"/><path d="M299.4,308.4 Q299.5625,308 299.75,307.8 Q299.9375,307.6 300.15,307.6 Q300.525,307.6 300.7625,307.825 Q301,308.05 301,308.575 L301,309.825 Q301,310.35 300.775,310.575 Q300.55,310.8 300.2,310.8 Q299.8875,310.8 299.6875,310.6625 Q299.4875,310.525 299.4,310.1625 Q299.3625,309.9125 299.225,309.775 Q298.975,309.5125 298.525,309.3625 Q298.075,309.2 297.625,309.2 Q297.0625,309.2 296.5875,309.425 Q296.125,309.65 295.7625,310.15 Q295.4,310.65 295.4,311.3375 L295.4,312.075 Q295.4,312.9 296.075,313.45 Q296.75,314 297.95,314 Q298.6625,314 299.1625,313.8375 Q299.45,313.75 299.775,313.4625 Q299.9875,313.3 300.1,313.25 Q300.2125,313.2 300.35,313.2 Q300.6125,313.2 300.8,313.4125 Q301,313.6125 301,313.9 Q301,314.175 300.725,314.5 Q300.325,314.975 299.6875,315.2375 Q298.85,315.6 297.825,315.6 Q296.625,315.6 295.6625,315.125 Q294.8875,314.75 294.3375,313.9375 Q293.8,313.125 293.8,312.1625 L293.8,311.2875 Q293.8,310.2875 294.275,309.4125 Q294.7625,308.5375 295.6,308.075 Q296.45,307.6 297.4,307.6 Q297.975,307.6 298.475,307.8 Q298.975,308 299.4,308.4 Z " fill="#000000"/><text fill="#000000" font-family="sans-serif" font-size="9.6" lengthAdjust="spacing" textLength="19.2" x="314.2" y="315.1281">Test</text><line style="stroke:#A80036;stroke-width:1.2000000000000002;" x1="254" x2="367.6" y1="324" y2="324"/><text fill="#000000" font-family="sans-serif" font-size="8.8" lengthAdjust="spacing" textLength="45.6" x="258" y="336.3352">-description</text><text fill="#000000" font-family="sans-serif" font-size="8.8" lengthAdjust="spacing" textLength="22.4" x="258" y="347.4039">-code</text><text fill="#000000" font-family="sans-serif" font-size="8.8" lengthAdjust="spacing" textLength="37.6" x="258" y="358.4727">-nhsCode</text><text fill="#000000" font-family="sans-serif" font-size="8.8" lengthAdjust="spacing" textLength="63.2" x="258" y="369.5414">-collectDateTime</text><text fill="#000000" font-family="sans-serif" font-size="8.8" lengthAdjust="spacing" textLength="105.6" x="258" y="380.6102">-chemicalAnalysisDateTime</text><text fill="#000000" font-family="sans-serif" font-size="8.8" lengthAdjust="spacing" textLength="75.2" x="258" y="391.6789">-diagnosisDateTime</text><text fill="#000000" font-family="sans-serif" font-size="8.8" lengthAdjust="spacing" textLength="74.4" x="258" y="402.7477">-validationDateTime</text><line style="stroke:#A80036;stroke-width:1.2000000000000002;" x1="254" x2="367.6" y1="407.8813" y2="407.8813"/><text fill="#000000" font-family="sans-serif" font-size="8.8" lengthAdjust="spacing" textLength="79.2" x="258" y="420.2164">+updateTestStatus()</text><text fill="#000000" font-family="sans-serif" font-size="8.8" lengthAdjust="spacing" textLength="105.6" x="258" y="431.2852">+isListUnique(listBarcodes)</text><text fill="#000000" font-family="sans-serif" font-size="8.8" lengthAdjust="spacing" textLength="83.2" x="258" y="442.3539">+addAll(listBarcodes)</text><text fill="#000000" font-family="sans-serif" font-size="8.8" lengthAdjust="spacing" textLength="96" x="258" y="453.4227">+createSample(barcode)</text><text fill="#000000" font-family="sans-serif" font-size="8.8" lengthAdjust="spacing" textLength="98.4" x="258" y="464.4914">+updateCollectDateTime()</text><text fill="#000000" font-family="sans-serif" font-size="8.8" lengthAdjust="spacing" textLength="40.8" x="258" y="475.5602">+validate()</text><!--MD5=[837547de269260f334c6cb8943c04a2c]
class APIBarcodeAdapter--><rect codeLine="43" fill="#FEFECE" filter="url(#fqz8r855bndqv)" height="49.4688" id="APIBarcodeAdapter" style="stroke:#A80036;stroke-width:1.2000000000000002;" width="130.4" x="431.2" y="189.6"/><ellipse cx="452.2" cy="202.4" fill="#ADD1B2" rx="8.8" ry="8.8" style="stroke:#A80036;stroke-width:0.8;"/><path d="M453.8,199.6 Q453.9625,199.2 454.15,199 Q454.3375,198.8 454.55,198.8 Q454.925,198.8 455.1625,199.025 Q455.4,199.25 455.4,199.775 L455.4,201.025 Q455.4,201.55 455.175,201.775 Q454.95,202 454.6,202 Q454.2875,202 454.0875,201.8625 Q453.8875,201.725 453.8,201.3625 Q453.7625,201.1125 453.625,200.975 Q453.375,200.7125 452.925,200.5625 Q452.475,200.4 452.025,200.4 Q451.4625,200.4 450.9875,200.625 Q450.525,200.85 450.1625,201.35 Q449.8,201.85 449.8,202.5375 L449.8,203.275 Q449.8,204.1 450.475,204.65 Q451.15,205.2 452.35,205.2 Q453.0625,205.2 453.5625,205.0375 Q453.85,204.95 454.175,204.6625 Q454.3875,204.5 454.5,204.45 Q454.6125,204.4 454.75,204.4 Q455.0125,204.4 455.2,204.6125 Q455.4,204.8125 455.4,205.1 Q455.4,205.375 455.125,205.7 Q454.725,206.175 454.0875,206.4375 Q453.25,206.8 452.225,206.8 Q451.025,206.8 450.0625,206.325 Q449.2875,205.95 448.7375,205.1375 Q448.2,204.325 448.2,203.3625 L448.2,202.4875 Q448.2,201.4875 448.675,200.6125 Q449.1625,199.7375 450,199.275 Q450.85,198.8 451.8,198.8 Q452.375,198.8 452.875,199 Q453.375,199.2 453.8,199.6 Z " fill="#000000"/><text fill="#000000" font-family="sans-serif" font-size="9.6" lengthAdjust="spacing" textLength="84.8" x="465.4" y="206.3281">APIBarcodeAdapter</text><line style="stroke:#A80036;stroke-width:1.2000000000000002;" x1="432" x2="560.8" y1="215.2" y2="215.2"/><line style="stroke:#A80036;stroke-width:1.2000000000000002;" x1="432" x2="560.8" y1="221.6" y2="221.6"/><text fill="#000000" font-family="sans-serif" font-size="8.8" lengthAdjust="spacing" textLength="120.8" x="436" y="233.9352">+generateBarcodes(nSamples)</text><!--MD5=[ea9db495254b65e9320d91ab6d521049]
class ExternalModuleAPIBarcode--><rect codeLine="47" fill="#FEFECE" filter="url(#fqz8r855bndqv)" height="49.4688" id="ExternalModuleAPIBarcode" style="stroke:#A80036;stroke-width:1.2000000000000002;" width="146.4" x="423.2" y="364.8"/><ellipse cx="435.2" cy="377.6" fill="#B4A7E5" rx="8.8" ry="8.8" style="stroke:#A80036;stroke-width:0.8;"/><path d="M436,375.2 L436,380 L437.6,380 L437.9875,380 L438.4,380.5 L438.4,380.8 L438.4,381.1 L437.9875,381.6 L437.6,381.6 L432.8,381.6 L432.4125,381.6 L432,381.1 L432,380.8 L432,380.5 L432.4125,380 L432.8,380 L434.4,380 L434.4,375.2 L432.8,375.2 L432.4125,375.2 L432,374.7 L432,374.4 L432,374.1 L432.4125,373.6 L432.8,373.6 L437.6,373.6 L437.9875,373.6 L438.4,374.1 L438.4,374.4 L438.4,374.7 L437.9875,375.2 L437.6,375.2 L436,375.2 Z " fill="#000000"/><text fill="#000000" font-family="sans-serif" font-size="9.6" font-style="italic" lengthAdjust="spacing" textLength="120.8" x="446.4" y="381.5281">ExternalModuleAPIBarcode</text><line style="stroke:#A80036;stroke-width:1.2000000000000002;" x1="424" x2="568.8" y1="390.4" y2="390.4"/><line style="stroke:#A80036;stroke-width:1.2000000000000002;" x1="424" x2="568.8" y1="396.8" y2="396.8"/><text fill="#000000" font-family="sans-serif" font-size="8.8" lengthAdjust="spacing" textLength="83.2" x="428" y="409.1352">+generate(nSamples)</text><!--MD5=[9681492165142af2a4a3a169d90ee8d4]
class Sample--><rect codeLine="51" fill="#FEFECE" filter="url(#fqz8r855bndqv)" height="60.5375" id="Sample" style="stroke:#A80036;stroke-width:1.2000000000000002;" width="80.8" x="270.4" y="528.8"/><ellipse cx="291.76" cy="541.6" fill="#ADD1B2" rx="8.8" ry="8.8" style="stroke:#A80036;stroke-width:0.8;"/><path d="M293.36,538.8 Q293.5225,538.4 293.71,538.2 Q293.8975,538 294.11,538 Q294.485,538 294.7225,538.225 Q294.96,538.45 294.96,538.975 L294.96,540.225 Q294.96,540.75 294.735,540.975 Q294.51,541.2 294.16,541.2 Q293.8475,541.2 293.6475,541.0625 Q293.4475,540.925 293.36,540.5625 Q293.3225,540.3125 293.185,540.175 Q292.935,539.9125 292.485,539.7625 Q292.035,539.6 291.585,539.6 Q291.0225,539.6 290.5475,539.825 Q290.085,540.05 289.7225,540.55 Q289.36,541.05 289.36,541.7375 L289.36,542.475 Q289.36,543.3 290.035,543.85 Q290.71,544.4 291.91,544.4 Q292.6225,544.4 293.1225,544.2375 Q293.41,544.15 293.735,543.8625 Q293.9475,543.7 294.06,543.65 Q294.1725,543.6 294.31,543.6 Q294.5725,543.6 294.76,543.8125 Q294.96,544.0125 294.96,544.3 Q294.96,544.575 294.685,544.9 Q294.285,545.375 293.6475,545.6375 Q292.81,546 291.785,546 Q290.585,546 289.6225,545.525 Q288.8475,545.15 288.2975,544.3375 Q287.76,543.525 287.76,542.5625 L287.76,541.6875 Q287.76,540.6875 288.235,539.8125 Q288.7225,538.9375 289.56,538.475 Q290.41,538 291.36,538 Q291.935,538 292.435,538.2 Q292.935,538.4 293.36,538.8 Z " fill="#000000"/><text fill="#000000" font-family="sans-serif" font-size="9.6" lengthAdjust="spacing" textLength="34.4" x="305.04" y="545.5281">Sample</text><line style="stroke:#A80036;stroke-width:1.2000000000000002;" x1="271.2" x2="350.4" y1="554.4" y2="554.4"/><text fill="#000000" font-family="sans-serif" font-size="8.8" lengthAdjust="spacing" textLength="35.2" x="275.2" y="566.7352">-barcode</text><line style="stroke:#A80036;stroke-width:1.2000000000000002;" x1="271.2" x2="350.4" y1="571.8688" y2="571.8688"/><text fill="#000000" font-family="sans-serif" font-size="8.8" lengthAdjust="spacing" textLength="71.2" x="275.2" y="584.2039">+Sample(barcode)</text><!--MD5=[2b8f4f220c107d5b0c7e594325c75009]
link RecordSamplesUI to RecordSamplesController--><path codeLine="56" d="M283.6,44 C283.6,56.8 283.6,73.96 283.6,87.624 " fill="none" id="RecordSamplesUI-to-RecordSamplesController" style="stroke:#A80036;stroke-width:0.8;stroke-dasharray:7.0,7.0;"/><polygon fill="#A80036" points="283.6,91.744,286.8,84.544,283.6,87.744,280.4,84.544,283.6,91.744" style="stroke:#A80036;stroke-width:0.8;"/><!--MD5=[6ed32d73deab35a78f7e857c49af6d4e]
link RecordSamplesController to TestMapper--><path codeLine="57" d="M219.872,130.408 C183.104,142.08 136.504,158.68 97.2,178.4 C93.728,180.144 90.216,182.072 86.728,184.104 " fill="none" id="RecordSamplesController-to-TestMapper" style="stroke:#A80036;stroke-width:0.8;stroke-dasharray:7.0,7.0;"/><polygon fill="#A80036" points="83.264,186.168,91.088,185.2383,86.702,184.1235,87.8168,179.7374,83.264,186.168" style="stroke:#A80036;stroke-width:0.8;"/><!--MD5=[cb39fcb634a9bd76468eff3a82f2ba7e]
link RecordSamplesController to Company--><path codeLine="58" d="M259.536,130.632 C241.28,144.776 215.728,164.56 194.16,181.264 " fill="none" id="RecordSamplesController-to-Company" style="stroke:#A80036;stroke-width:0.8;stroke-dasharray:7.0,7.0;"/><polygon fill="#A80036" points="190.736,183.912,198.3901,182.0425,193.9014,181.4665,194.4773,176.9779,190.736,183.912" style="stroke:#A80036;stroke-width:0.8;"/><!--MD5=[56748807f3dbfcb383b4f7a7d0d85bb1]
link RecordSamplesController to TestStore--><path codeLine="59" d="M283.6,130.632 C283.6,142.784 283.6,159.104 283.6,174.048 " fill="none" id="RecordSamplesController-to-TestStore" style="stroke:#A80036;stroke-width:0.8;stroke-dasharray:7.0,7.0;"/><polygon fill="#A80036" points="283.6,178.224,286.8,171.024,283.6,174.224,280.4,171.024,283.6,178.224" style="stroke:#A80036;stroke-width:0.8;"/><!--MD5=[3ee54d312014e77ab3a5177ff886dee1]
link RecordSamplesController to Test--><path codeLine="60" d="M315.424,130.432 C331.92,141.904 350.472,158.296 359.6,178.4 C376.088,214.704 370.456,257.16 358.24,294.384 " fill="none" id="RecordSamplesController-to-Test" style="stroke:#A80036;stroke-width:0.8;stroke-dasharray:7.0,7.0;"/><polygon fill="#A80036" points="356.96,298.2,362.2936,292.4006,358.2386,294.4099,356.2294,290.3549,356.96,298.2" style="stroke:#A80036;stroke-width:0.8;"/><!--MD5=[14540e0853ac55f776ac107dcbbde416]
link RecordSamplesController to APIBarcodeAdapter--><path codeLine="61" d="M322.384,130.52 C355.88,146.512 404.64,169.792 442.032,187.64 " fill="none" id="RecordSamplesController-to-APIBarcodeAdapter" style="stroke:#A80036;stroke-width:0.8;stroke-dasharray:7.0,7.0;"/><polygon fill="#A80036" points="445.84,189.464,440.7233,183.4724,442.2309,187.7394,437.9639,189.247,445.84,189.464" style="stroke:#A80036;stroke-width:0.8;"/><!--MD5=[19aa18508572e0a5d7873965d2e6d2ca]
link APIBarcodeAdapter to ExternalModuleAPIBarcode--><path codeLine="62" d="M496.4,239.336 C496.4,271.056 496.4,326.672 496.4,360.384 " fill="none" id="APIBarcodeAdapter-to-ExternalModuleAPIBarcode" style="stroke:#A80036;stroke-width:0.8;stroke-dasharray:7.0,7.0;"/><polygon fill="#A80036" points="496.4,364.584,499.6,357.384,496.4,360.584,493.2,357.384,496.4,364.584" style="stroke:#A80036;stroke-width:0.8;"/><!--MD5=[b0f4f6db8206580012ef9cd998ed01c5]
link TestStore to Test--><path codeLine="63" d="M289.136,250.536 C291.16,263.424 293.544,278.68 295.992,294.272 " fill="none" id="TestStore-to-Test" style="stroke:#A80036;stroke-width:0.8;stroke-dasharray:7.0,7.0;"/><polygon fill="#A80036" points="296.608,298.24,298.6595,290.6327,295.9912,294.2878,292.336,291.6196,296.608,298.24" style="stroke:#A80036;stroke-width:0.8;"/><!--MD5=[b72ac8ab7fb5921fceb5036a3902baea]
link Test to Sample--><path codeLine="64" d="M310.8,481.04 C310.8,496.496 310.8,511.648 310.8,524.392 " fill="none" id="Test-to-Sample" style="stroke:#A80036;stroke-width:0.8;stroke-dasharray:7.0,7.0;"/><polygon fill="#A80036" points="310.8,528.616,314,521.416,310.8,524.616,307.6,521.416,310.8,528.616" style="stroke:#A80036;stroke-width:0.8;"/><!--MD5=[1eec410023d10a823ce4140928788179]
@startuml
'https://plantuml.com/class-diagram
skinparam classAttributeIconSize 0

class RecordSamplesUI{
}

class RecordSamplesController{
}

class TestMapper{
  +toDto(lRT)
  +toModel(tDto)
  +toDto(t)
}

class Company{
  -String designation
  +getTestStore()
}

class TestStore{
  +getRegisteredTests()
  +globallyUnique(listBarcodes)
  +save(t)
}

class Test{
  -description
  -code
  -nhsCode
  -collectDateTime
  -chemicalAnalysisDateTime
  -diagnosisDateTime
  -validationDateTime
  +updateTestStatus()
  +isListUnique(listBarcodes)
  +addAll(listBarcodes)
  +createSample(barcode)
  +updateCollectDateTime()
  +validate()
}

class APIBarcodeAdapter{
  +generateBarcodes(nSamples)
}

interface ExternalModuleAPIBarcode{
  +generate(nSamples)
}

class Sample{
  -barcode
  +Sample(barcode)
}

RecordSamplesUI ..> RecordSamplesController
RecordSamplesController ..> TestMapper
RecordSamplesController ..> Company
RecordSamplesController ..> TestStore
RecordSamplesController ..> Test
RecordSamplesController ..> APIBarcodeAdapter
APIBarcodeAdapter ..> ExternalModuleAPIBarcode
TestStore ..> Test
Test ..> Sample




@enduml

@startuml
skinparam classAttributeIconSize 0

class RecordSamplesUI{
}

class RecordSamplesController{
}

class TestMapper{
  +toDto(lRT)
  +toModel(tDto)
  +toDto(t)
}

class Company{
  -String designation
  +getTestStore()
}

class TestStore{
  +getRegisteredTests()
  +globallyUnique(listBarcodes)
  +save(t)
}

class Test{
  -description
  -code
  -nhsCode
  -collectDateTime
  -chemicalAnalysisDateTime
  -diagnosisDateTime
  -validationDateTime
  +updateTestStatus()
  +isListUnique(listBarcodes)
  +addAll(listBarcodes)
  +createSample(barcode)
  +updateCollectDateTime()
  +validate()
}

class APIBarcodeAdapter{
  +generateBarcodes(nSamples)
}

interface ExternalModuleAPIBarcode{
  +generate(nSamples)
}

class Sample{
  -barcode
  +Sample(barcode)
}

RecordSamplesUI ..> RecordSamplesController
RecordSamplesController ..> TestMapper
RecordSamplesController ..> Company
RecordSamplesController ..> TestStore
RecordSamplesController ..> Test
RecordSamplesController ..> APIBarcodeAdapter
APIBarcodeAdapter ..> ExternalModuleAPIBarcode
TestStore ..> Test
Test ..> Sample




@enduml

PlantUML version 1.2021.2(Sun Mar 07 11:10:27 GMT 2021)
(GPL source distribution)
Java Runtime: OpenJDK Runtime Environment
JVM: OpenJDK 64-Bit Server VM
Default Encoding: Cp1252
Language: pt
Country: PT
--></g></svg>