<?xml version="1.0" encoding="UTF-8" standalone="no"?><svg xmlns="http://www.w3.org/2000/svg" xmlns:xlink="http://www.w3.org/1999/xlink" contentScriptType="application/ecmascript" contentStyleType="text/css" height="339px" preserveAspectRatio="none" style="width:2447px;height:339px;" version="1.1" viewBox="0 0 2447 339" width="2447px" zoomAndPan="magnify"><defs><filter height="300%" id="f1p3pcxmlorq52" width="300%" x="-1" y="-1"><feGaussianBlur result="blurOut" stdDeviation="2.0"/><feColorMatrix in="blurOut" result="blurOut2" type="matrix" values="0 0 0 0 0 0 0 0 0 0 0 0 0 0 0 0 0 0 .4 0"/><feOffset dx="4.0" dy="4.0" in="blurOut2" result="blurOut3"/><feBlend in="SourceGraphic" in2="blurOut3" mode="normal"/></filter></defs><g><!--MD5=[378b18254a1b2429f435e93f5e5cc50c]
class C--><rect codeLine="4" fill="#FEFECE" filter="url(#f1p3pcxmlorq52)" height="86.4141" id="C" style="stroke:#A80036;stroke-width:1.5;" width="226" x="1181" y="98.5"/><ellipse cx="1261.25" cy="114.5" fill="#ADD1B2" rx="11" ry="11" style="stroke:#A80036;stroke-width:1.0;"/><path d="M1264.2188,120.1406 Q1263.6406,120.4375 1263,120.5781 Q1262.3594,120.7344 1261.6563,120.7344 Q1259.1563,120.7344 1257.8281,119.0938 Q1256.5156,117.4375 1256.5156,114.3125 Q1256.5156,111.1875 1257.8281,109.5313 Q1259.1563,107.875 1261.6563,107.875 Q1262.3594,107.875 1263,108.0313 Q1263.6563,108.1875 1264.2188,108.4844 L1264.2188,111.2031 Q1263.5938,110.625 1263,110.3594 Q1262.4063,110.0781 1261.7813,110.0781 Q1260.4375,110.0781 1259.75,111.1563 Q1259.0625,112.2188 1259.0625,114.3125 Q1259.0625,116.4063 1259.75,117.4844 Q1260.4375,118.5469 1261.7813,118.5469 Q1262.4063,118.5469 1263,118.2813 Q1263.5938,118 1264.2188,117.4219 L1264.2188,120.1406 Z " fill="#000000"/><text fill="#000000" font-family="sans-serif" font-size="12" lengthAdjust="spacingAndGlyphs" textLength="57" x="1281.75" y="118.6543">Company</text><line style="stroke:#A80036;stroke-width:1.5;" x1="1182" x2="1406" y1="130.5" y2="130.5"/><text fill="#000000" font-family="sans-serif" font-size="11" lengthAdjust="spacingAndGlyphs" textLength="70" x="1187" y="144.7104">-designation</text><line style="stroke:#A80036;stroke-width:1.5;" x1="1182" x2="1406" y1="151.3047" y2="151.3047"/><text fill="#000000" font-family="sans-serif" font-size="11" lengthAdjust="spacingAndGlyphs" textLength="214" x="1187" y="165.5151">+getClinicalAnalysisLaboratoryStore()</text><text fill="#000000" font-family="sans-serif" font-size="11" lengthAdjust="spacingAndGlyphs" textLength="118" x="1187" y="178.3198">+getTestTypeStore()</text><!--MD5=[f4f2dbc6fdb443856f07c075b00fcd9d]
class CAL--><rect codeLine="10" fill="#FEFECE" filter="url(#f1p3pcxmlorq52)" height="124.8281" id="CAL" style="stroke:#A80036;stroke-width:1.5;" width="414" x="1619" y="7"/><ellipse cx="1741.75" cy="23" fill="#ADD1B2" rx="11" ry="11" style="stroke:#A80036;stroke-width:1.0;"/><path d="M1744.7188,28.6406 Q1744.1406,28.9375 1743.5,29.0781 Q1742.8594,29.2344 1742.1563,29.2344 Q1739.6563,29.2344 1738.3281,27.5938 Q1737.0156,25.9375 1737.0156,22.8125 Q1737.0156,19.6875 1738.3281,18.0313 Q1739.6563,16.375 1742.1563,16.375 Q1742.8594,16.375 1743.5,16.5313 Q1744.1563,16.6875 1744.7188,16.9844 L1744.7188,19.7031 Q1744.0938,19.125 1743.5,18.8594 Q1742.9063,18.5781 1742.2813,18.5781 Q1740.9375,18.5781 1740.25,19.6563 Q1739.5625,20.7188 1739.5625,22.8125 Q1739.5625,24.9063 1740.25,25.9844 Q1740.9375,27.0469 1742.2813,27.0469 Q1742.9063,27.0469 1743.5,26.7813 Q1744.0938,26.5 1744.7188,25.9219 L1744.7188,28.6406 Z " fill="#000000"/><text fill="#000000" font-family="sans-serif" font-size="12" lengthAdjust="spacingAndGlyphs" textLength="160" x="1762.25" y="27.1543">ClinicalAnalysisLaboratory</text><line style="stroke:#A80036;stroke-width:1.5;" x1="1620" x2="2032" y1="39" y2="39"/><text fill="#000000" font-family="sans-serif" font-size="11" lengthAdjust="spacingAndGlyphs" textLength="36" x="1625" y="53.2104">-name</text><text fill="#000000" font-family="sans-serif" font-size="11" lengthAdjust="spacingAndGlyphs" textLength="51" x="1625" y="66.0151">-address</text><text fill="#000000" font-family="sans-serif" font-size="11" lengthAdjust="spacingAndGlyphs" textLength="84" x="1625" y="78.8198">-phoneNumber</text><text fill="#000000" font-family="sans-serif" font-size="11" lengthAdjust="spacingAndGlyphs" textLength="22" x="1625" y="91.6245">-TIN</text><text fill="#000000" font-family="sans-serif" font-size="11" lengthAdjust="spacingAndGlyphs" textLength="32" x="1625" y="104.4292">-labID</text><line style="stroke:#A80036;stroke-width:1.5;" x1="1620" x2="2032" y1="111.0234" y2="111.0234"/><text fill="#000000" font-family="sans-serif" font-size="11" lengthAdjust="spacingAndGlyphs" textLength="402" x="1625" y="125.2339">+ClinicalAnalysisLaboratory(name, address, phoneNumber, TIN, labID)</text><!--MD5=[e40f4f9fcf5b1324aa4d03a964288ad4]
class CALS--><rect codeLine="20" fill="#FEFECE" filter="url(#f1p3pcxmlorq52)" height="112.0234" id="CALS" style="stroke:#A80036;stroke-width:1.5;" width="678" x="324" y="66.5"/><ellipse cx="561.75" cy="82.5" fill="#ADD1B2" rx="11" ry="11" style="stroke:#A80036;stroke-width:1.0;"/><path d="M564.7188,88.1406 Q564.1406,88.4375 563.5,88.5781 Q562.8594,88.7344 562.1563,88.7344 Q559.6563,88.7344 558.3281,87.0938 Q557.0156,85.4375 557.0156,82.3125 Q557.0156,79.1875 558.3281,77.5313 Q559.6563,75.875 562.1563,75.875 Q562.8594,75.875 563.5,76.0313 Q564.1563,76.1875 564.7188,76.4844 L564.7188,79.2031 Q564.0938,78.625 563.5,78.3594 Q562.9063,78.0781 562.2813,78.0781 Q560.9375,78.0781 560.25,79.1563 Q559.5625,80.2188 559.5625,82.3125 Q559.5625,84.4063 560.25,85.4844 Q560.9375,86.5469 562.2813,86.5469 Q562.9063,86.5469 563.5,86.2813 Q564.0938,86 564.7188,85.4219 L564.7188,88.1406 Z " fill="#000000"/><text fill="#000000" font-family="sans-serif" font-size="12" lengthAdjust="spacingAndGlyphs" textLength="194" x="582.25" y="86.6543">ClinicalAnalysisLaboratoryStore</text><line style="stroke:#A80036;stroke-width:1.5;" x1="325" x2="1001" y1="98.5" y2="98.5"/><line style="stroke:#A80036;stroke-width:1.5;" x1="325" x2="1001" y1="106.5" y2="106.5"/><text fill="#000000" font-family="sans-serif" font-size="11" lengthAdjust="spacingAndGlyphs" textLength="666" x="330" y="120.7104">+ClinicalAnalysisLaboratory registerClinicalAnalysisLaboratory(name, address, phoneNumber, TIN, labID, TestTypes)</text><text fill="#000000" font-family="sans-serif" font-size="11" lengthAdjust="spacingAndGlyphs" textLength="257" x="330" y="133.5151">+boolean saveClinicalAnalysisLaboratory(cal)</text><text fill="#000000" font-family="sans-serif" font-size="11" lengthAdjust="spacingAndGlyphs" textLength="274" x="330" y="146.3198">+boolean validateClinicalAnalysisLaboratory(cal)</text><text fill="#000000" font-family="sans-serif" font-size="11" lengthAdjust="spacingAndGlyphs" textLength="251" x="330" y="159.1245">+boolean addClinicalAnalysisLaboratory(cal)</text><text fill="#000000" font-family="sans-serif" font-size="11" lengthAdjust="spacingAndGlyphs" textLength="397" x="330" y="171.9292">+List&lt;ClinicalAnalysisLaboratory&gt; getAllClinicalAnalysisLaboratories()</text><!--MD5=[f76673142371ead9f091198193c4bd63]
class TT--><rect codeLine="29" fill="#FEFECE" filter="url(#f1p3pcxmlorq52)" height="99.2188" id="TT" style="stroke:#A80036;stroke-width:1.5;" width="281" x="2152" y="106"/><ellipse cx="2260.25" cy="122" fill="#ADD1B2" rx="11" ry="11" style="stroke:#A80036;stroke-width:1.0;"/><path d="M2263.2188,127.6406 Q2262.6406,127.9375 2262,128.0781 Q2261.3594,128.2344 2260.6563,128.2344 Q2258.1563,128.2344 2256.8281,126.5938 Q2255.5156,124.9375 2255.5156,121.8125 Q2255.5156,118.6875 2256.8281,117.0313 Q2258.1563,115.375 2260.6563,115.375 Q2261.3594,115.375 2262,115.5313 Q2262.6563,115.6875 2263.2188,115.9844 L2263.2188,118.7031 Q2262.5938,118.125 2262,117.8594 Q2261.4063,117.5781 2260.7813,117.5781 Q2259.4375,117.5781 2258.75,118.6563 Q2258.0625,119.7188 2258.0625,121.8125 Q2258.0625,123.9063 2258.75,124.9844 Q2259.4375,126.0469 2260.7813,126.0469 Q2261.4063,126.0469 2262,125.7813 Q2262.5938,125.5 2263.2188,124.9219 L2263.2188,127.6406 Z " fill="#000000"/><text fill="#000000" font-family="sans-serif" font-size="12" lengthAdjust="spacingAndGlyphs" textLength="56" x="2280.75" y="126.1543">TestType</text><line style="stroke:#A80036;stroke-width:1.5;" x1="2153" x2="2432" y1="138" y2="138"/><text fill="#000000" font-family="sans-serif" font-size="11" lengthAdjust="spacingAndGlyphs" textLength="31" x="2158" y="152.2104">-code</text><text fill="#000000" font-family="sans-serif" font-size="11" lengthAdjust="spacingAndGlyphs" textLength="67" x="2158" y="165.0151">-description</text><text fill="#000000" font-family="sans-serif" font-size="11" lengthAdjust="spacingAndGlyphs" textLength="98" x="2158" y="177.8198">-collectingMethod</text><line style="stroke:#A80036;stroke-width:1.5;" x1="2153" x2="2432" y1="184.4141" y2="184.4141"/><text fill="#000000" font-family="sans-serif" font-size="11" lengthAdjust="spacingAndGlyphs" textLength="269" x="2158" y="198.6245">+TestType(code, description, collectingMethod)</text><!--MD5=[aa04ca19d9198f6bdfc4770517bcb7e7]
class RCALC--><rect codeLine="36" fill="#FEFECE" filter="url(#f1p3pcxmlorq52)" height="112.0234" id="RCALC" style="stroke:#A80036;stroke-width:1.5;" width="595" x="365.5" y="213.5"/><ellipse cx="522.25" cy="229.5" fill="#ADD1B2" rx="11" ry="11" style="stroke:#A80036;stroke-width:1.0;"/><path d="M525.2188,235.1406 Q524.6406,235.4375 524,235.5781 Q523.3594,235.7344 522.6563,235.7344 Q520.1563,235.7344 518.8281,234.0938 Q517.5156,232.4375 517.5156,229.3125 Q517.5156,226.1875 518.8281,224.5313 Q520.1563,222.875 522.6563,222.875 Q523.3594,222.875 524,223.0313 Q524.6563,223.1875 525.2188,223.4844 L525.2188,226.2031 Q524.5938,225.625 524,225.3594 Q523.4063,225.0781 522.7813,225.0781 Q521.4375,225.0781 520.75,226.1563 Q520.0625,227.2188 520.0625,229.3125 Q520.0625,231.4063 520.75,232.4844 Q521.4375,233.5469 522.7813,233.5469 Q523.4063,233.5469 524,233.2813 Q524.5938,233 525.2188,232.4219 L525.2188,235.1406 Z " fill="#000000"/><text fill="#000000" font-family="sans-serif" font-size="12" lengthAdjust="spacingAndGlyphs" textLength="273" x="542.75" y="233.6543">RegisterClinicalAnalysisLaboratoryController</text><line style="stroke:#A80036;stroke-width:1.5;" x1="366.5" x2="959.5" y1="245.5" y2="245.5"/><line style="stroke:#A80036;stroke-width:1.5;" x1="366.5" x2="959.5" y1="253.5" y2="253.5"/><text fill="#000000" font-family="sans-serif" font-size="11" lengthAdjust="spacingAndGlyphs" textLength="268" x="371.5" y="267.7104">+RegisterClinicalAnalysisLaboratoryController()</text><text fill="#000000" font-family="sans-serif" font-size="11" lengthAdjust="spacingAndGlyphs" textLength="431" x="371.5" y="280.5151">+List&lt;ClinicalAnalysisLaboratoryDto&gt;getAllClinicalAnalysisLaboratoriesDto()</text><text fill="#000000" font-family="sans-serif" font-size="11" lengthAdjust="spacingAndGlyphs" textLength="583" x="371.5" y="293.3198">+boolean registerClinicalAnalysisLaboratory(name, address, phoneNumber, TIN, labID, TestTypesList)</text><text fill="#000000" font-family="sans-serif" font-size="11" lengthAdjust="spacingAndGlyphs" textLength="241" x="371.5" y="306.1245">+boolean saveClinicalAnalysisLaboratory()</text><text fill="#000000" font-family="sans-serif" font-size="11" lengthAdjust="spacingAndGlyphs" textLength="384" x="371.5" y="318.9292">+List&lt;ClinicalAnalysisLaboratory&gt; getClinicalAnalysisLaboratories()</text><!--MD5=[03d9eacbd3b6d4d158494f2e25c708ca]
class RCALUI--><rect codeLine="44" fill="#FEFECE" filter="url(#f1p3pcxmlorq52)" height="48" id="RCALUI" style="stroke:#A80036;stroke-width:1.5;" width="256" x="7" y="245.5"/><ellipse cx="22" cy="261.5" fill="#ADD1B2" rx="11" ry="11" style="stroke:#A80036;stroke-width:1.0;"/><path d="M24.9688,267.1406 Q24.3906,267.4375 23.75,267.5781 Q23.1094,267.7344 22.4063,267.7344 Q19.9063,267.7344 18.5781,266.0938 Q17.2656,264.4375 17.2656,261.3125 Q17.2656,258.1875 18.5781,256.5313 Q19.9063,254.875 22.4063,254.875 Q23.1094,254.875 23.75,255.0313 Q24.4063,255.1875 24.9688,255.4844 L24.9688,258.2031 Q24.3438,257.625 23.75,257.3594 Q23.1563,257.0781 22.5313,257.0781 Q21.1875,257.0781 20.5,258.1563 Q19.8125,259.2188 19.8125,261.3125 Q19.8125,263.4063 20.5,264.4844 Q21.1875,265.5469 22.5313,265.5469 Q23.1563,265.5469 23.75,265.2813 Q24.3438,265 24.9688,264.4219 L24.9688,267.1406 Z " fill="#000000"/><text fill="#000000" font-family="sans-serif" font-size="12" lengthAdjust="spacingAndGlyphs" textLength="224" x="36" y="265.6543">RegisterClinicalAnalysisLaboratoryUI</text><line style="stroke:#A80036;stroke-width:1.5;" x1="8" x2="262" y1="277.5" y2="277.5"/><line style="stroke:#A80036;stroke-width:1.5;" x1="8" x2="262" y1="285.5" y2="285.5"/><!--MD5=[17ca50e20e280496254bb739fd8a771e]
class CALM--><rect codeLine="47" fill="#FEFECE" filter="url(#f1p3pcxmlorq52)" height="60.8047" id="CALM" style="stroke:#A80036;stroke-width:1.5;" width="462" x="1063" y="239"/><ellipse cx="1186.25" cy="255" fill="#ADD1B2" rx="11" ry="11" style="stroke:#A80036;stroke-width:1.0;"/><path d="M1189.2188,260.6406 Q1188.6406,260.9375 1188,261.0781 Q1187.3594,261.2344 1186.6563,261.2344 Q1184.1563,261.2344 1182.8281,259.5938 Q1181.5156,257.9375 1181.5156,254.8125 Q1181.5156,251.6875 1182.8281,250.0313 Q1184.1563,248.375 1186.6563,248.375 Q1187.3594,248.375 1188,248.5313 Q1188.6563,248.6875 1189.2188,248.9844 L1189.2188,251.7031 Q1188.5938,251.125 1188,250.8594 Q1187.4063,250.5781 1186.7813,250.5781 Q1185.4375,250.5781 1184.75,251.6563 Q1184.0625,252.7188 1184.0625,254.8125 Q1184.0625,256.9063 1184.75,257.9844 Q1185.4375,259.0469 1186.7813,259.0469 Q1187.4063,259.0469 1188,258.7813 Q1188.5938,258.5 1189.2188,257.9219 L1189.2188,260.6406 Z " fill="#000000"/><text fill="#000000" font-family="sans-serif" font-size="12" lengthAdjust="spacingAndGlyphs" textLength="207" x="1206.75" y="259.1543">ClinicalAnalysisLaboratoryMapper</text><line style="stroke:#A80036;stroke-width:1.5;" x1="1064" x2="1524" y1="271" y2="271"/><line style="stroke:#A80036;stroke-width:1.5;" x1="1064" x2="1524" y1="279" y2="279"/><text fill="#000000" font-family="sans-serif" font-size="11" lengthAdjust="spacingAndGlyphs" textLength="450" x="1069" y="293.2104">+List&lt;ClinicalAnalysisLaboratoryDto&gt;toDto(List&lt;ChemicalAnalysisLaboratory&gt;)</text><!--MD5=[7c31ae876b4dbe4656447a2014d1da11]
link RCALUI to RCALC--><path codeLine="52" d="M263.151,269.5 C293.1157,269.5 326.2899,269.5 360.3411,269.5 " fill="none" id="RCALUI-to-RCALC" style="stroke:#A80036;stroke-width:1.0;stroke-dasharray:7.0,7.0;"/><polygon fill="#A80036" points="365.3712,269.5,356.3712,265.5,360.3712,269.5,356.3712,273.5,365.3712,269.5" style="stroke:#A80036;stroke-width:1.0;"/><!--MD5=[7cc1be3f1f84e1a6a54b7774afc28078]
link RCALC to C--><path codeLine="53" d="M939.3068,213.4504 C1022.1479,196.6459 1108.6505,179.0986 1175.4902,165.54 " fill="none" id="RCALC-to-C" style="stroke:#A80036;stroke-width:1.0;stroke-dasharray:7.0,7.0;"/><polygon fill="#A80036" points="1180.6737,164.4885,1171.0581,162.3576,1175.7735,165.4825,1172.6486,170.1979,1180.6737,164.4885" style="stroke:#A80036;stroke-width:1.0;"/><!--MD5=[2f52c01d086ecd1004b24b31c74b38b7]
link RCALC to CALM--><path codeLine="54" d="M960.946,269.5 C993.3558,269.5 1026.0133,269.5 1057.5449,269.5 " fill="none" id="RCALC-to-CALM" style="stroke:#A80036;stroke-width:1.0;stroke-dasharray:7.0,7.0;"/><polygon fill="#A80036" points="1062.5957,269.5,1053.5957,265.5,1057.5957,269.5,1053.5957,273.5,1062.5957,269.5" style="stroke:#A80036;stroke-width:1.0;"/><!--MD5=[f14f24805c930a6b8f1913f1f7d3f73a]
link CALS to C--><path codeLine="55" d="M1002.0506,132.7091 C1064.4472,134.588 1125.6085,136.4296 1175.6994,137.9379 " fill="none" id="CALS-to-C" style="stroke:#A80036;stroke-width:1.0;stroke-dasharray:7.0,7.0;"/><polygon fill="#A80036" points="1180.8207,138.0921,1171.9452,133.8229,1175.823,137.9415,1171.7043,141.8193,1180.8207,138.0921" style="stroke:#A80036;stroke-width:1.0;"/><!--MD5=[c85c0370305dd2ba48beb07c7b879e9b]
link C to CAL--><path codeLine="56" d="M1407.149,126.1866 C1467.2573,118.0516 1543.1275,107.7835 1613.7283,98.2285 " fill="none" id="C-to-CAL" style="stroke:#A80036;stroke-width:1.0;"/><polygon fill="#A80036" points="1618.8022,97.5418,1609.347,94.7852,1613.8474,98.2125,1610.4201,102.7129,1618.8022,97.5418" style="stroke:#A80036;stroke-width:1.0;"/><text fill="#000000" font-family="sans-serif" font-size="13" lengthAdjust="spacingAndGlyphs" textLength="32" x="1556" y="99.5669">owns</text><text fill="#000000" font-family="sans-serif" font-size="13" lengthAdjust="spacingAndGlyphs" textLength="8" x="1415.0199" y="137.7191">1</text><text fill="#000000" font-family="sans-serif" font-size="13" lengthAdjust="spacingAndGlyphs" textLength="7" x="1604.2302" y="110.8915">*</text><!--MD5=[b83cceec495819d0b37daa935a10185d]
link C to TT--><path codeLine="57" d="M1407.0585,152.3395 C1469.488,157.7853 1548.4556,163.7908 1619,166.5 C1802.8645,173.5613 1849.0413,170.3972 2033,166.5 C2069.7387,165.7217 2109.3833,164.3242 2146.3611,162.7807 " fill="none" id="C-to-TT" style="stroke:#A80036;stroke-width:1.0;"/><polygon fill="#A80036" points="2151.7968,162.5519,2142.6365,158.934,2146.8012,162.7622,2142.973,166.9269,2151.7968,162.5519" style="stroke:#A80036;stroke-width:1.0;"/><text fill="#000000" font-family="sans-serif" font-size="13" lengthAdjust="spacingAndGlyphs" textLength="58" x="1797" y="162.5669">performs</text><text fill="#000000" font-family="sans-serif" font-size="13" lengthAdjust="spacingAndGlyphs" textLength="8" x="1414.9234" y="165.6291">1</text><text fill="#000000" font-family="sans-serif" font-size="13" lengthAdjust="spacingAndGlyphs" textLength="7" x="2136.9107" y="175.4123">*</text><!--MD5=[d1a771eecb071d01e1163e00c455bd53]
link CAL to TT--><path codeLine="58" d="M2033.3304,107.7217 C2071.4836,114.7553 2110.5735,121.9616 2146.4485,128.5752 " fill="none" id="CAL-to-TT" style="stroke:#A80036;stroke-width:1.0;"/><polygon fill="#A80036" points="2151.7178,129.5466,2143.5922,123.9811,2146.8007,128.64,2142.1417,131.8485,2151.7178,129.5466" style="stroke:#A80036;stroke-width:1.0;"/><text fill="#000000" font-family="sans-serif" font-size="13" lengthAdjust="spacingAndGlyphs" textLength="57" x="2064" y="111.5669">operates</text><text fill="#000000" font-family="sans-serif" font-size="13" lengthAdjust="spacingAndGlyphs" textLength="8" x="2040.9251" y="121.4372">1</text><text fill="#000000" font-family="sans-serif" font-size="13" lengthAdjust="spacingAndGlyphs" textLength="7" x="2136.8274" y="140.602">*</text><!--MD5=[7b9e909336a08708d8732b52f718a9b0]
@startuml
skinparam classAttributeIconSize 0
left to right direction

class "Company" as C {
-designation
+getClinicalAnalysisLaboratoryStore()
+getTestTypeStore()
}

class "ClinicalAnalysisLaboratory" as CAL {
-name
-address
-phoneNumber
-TIN
-labID
+ClinicalAnalysisLaboratory(name, address, phoneNumber, TIN, labID)
}


class "ClinicalAnalysisLaboratoryStore" as CALS {
+ClinicalAnalysisLaboratory registerClinicalAnalysisLaboratory(name, address, phoneNumber, TIN, labID, TestTypes)
+boolean saveClinicalAnalysisLaboratory(cal)
+boolean validateClinicalAnalysisLaboratory(cal)
+boolean addClinicalAnalysisLaboratory(cal)
+List<ClinicalAnalysisLaboratory> getAllClinicalAnalysisLaboratories()
}
  

class "TestType" as TT {
-code
-description
-collectingMethod
+TestType(code, description, collectingMethod)
}

class "RegisterClinicalAnalysisLaboratoryController" as RCALC {
+RegisterClinicalAnalysisLaboratoryController()
+List<ClinicalAnalysisLaboratoryDto>getAllClinicalAnalysisLaboratoriesDto()
+boolean registerClinicalAnalysisLaboratory(name, address, phoneNumber, TIN, labID, TestTypesList)
+boolean saveClinicalAnalysisLaboratory()  
+List<ClinicalAnalysisLaboratory> getClinicalAnalysisLaboratories()
}

class "RegisterClinicalAnalysisLaboratoryUI" as RCALUI {  
}

class "ClinicalAnalysisLaboratoryMapper" as CALM {
+List<ClinicalAnalysisLaboratoryDto>toDto(List<ChemicalAnalysisLaboratory>)  
}


RCALUI ..> RCALC
RCALC ..> C
RCALC ..> CALM
CALS ..> C
C "1" - -> "*" CAL : owns
C "1" - -> "*" TT : performs
CAL "1" - -> "*" TT : operates
@enduml

PlantUML version 1.2020.22(Sun Dec 06 09:36:27 UTC 2020)
(GPL source distribution)
Java Runtime: OpenJDK Runtime Environment
JVM: OpenJDK 64-Bit Server VM
Default Encoding: UTF-8
Language: en
Country: US
--></g></svg>