<?xml version="1.0" encoding="UTF-8" standalone="no"?><svg xmlns="http://www.w3.org/2000/svg" xmlns:xlink="http://www.w3.org/1999/xlink" contentScriptType="application/ecmascript" contentStyleType="text/css" height="1524px" preserveAspectRatio="none" style="width:4037px;height:1524px;" version="1.1" viewBox="0 0 4037 1524" width="4037px" zoomAndPan="magnify"><defs><filter height="300%" id="fun94e9it043q" width="300%" x="-1" y="-1"><feGaussianBlur result="blurOut" stdDeviation="2.0"/><feColorMatrix in="blurOut" result="blurOut2" type="matrix" values="0 0 0 0 0 0 0 0 0 0 0 0 0 0 0 0 0 0 .4 0"/><feOffset dx="4.0" dy="4.0" in="blurOut2" result="blurOut3"/><feBlend in="SourceGraphic" in2="blurOut3" mode="normal"/></filter></defs><g><!--MD5=[02e4b9b7573f1156f41e60aa5b4e25a4]
class Company--><rect codeLine="135" fill="#FEFECE" filter="url(#fun94e9it043q)" height="53.8359" id="Company" style="stroke:#A80036;stroke-width:1.5;" width="85" x="439" y="1030"/><ellipse cx="454" cy="1046" fill="#ADD1B2" rx="11" ry="11" style="stroke:#A80036;stroke-width:1.0;"/><path d="M456,1042.5 Q456.2031,1042 456.4375,1041.75 Q456.6719,1041.5 456.9375,1041.5 Q457.4063,1041.5 457.7031,1041.7813 Q458,1042.0625 458,1042.7188 L458,1044.2813 Q458,1044.9375 457.7188,1045.2188 Q457.4375,1045.5 457,1045.5 Q456.6094,1045.5 456.3594,1045.3281 Q456.1094,1045.1563 456,1044.7031 Q455.9531,1044.3906 455.7813,1044.2188 Q455.4688,1043.8906 454.9063,1043.7031 Q454.3438,1043.5 453.7813,1043.5 Q453.0781,1043.5 452.4844,1043.7813 Q451.9063,1044.0625 451.4531,1044.6875 Q451,1045.3125 451,1046.1719 L451,1047.0938 Q451,1048.125 451.8438,1048.8125 Q452.6875,1049.5 454.1875,1049.5 Q455.0781,1049.5 455.7031,1049.2969 Q456.0625,1049.1875 456.4688,1048.8281 Q456.7344,1048.625 456.875,1048.5625 Q457.0156,1048.5 457.1875,1048.5 Q457.5156,1048.5 457.75,1048.7656 Q458,1049.0156 458,1049.375 Q458,1049.7188 457.6563,1050.125 Q457.1563,1050.7188 456.3594,1051.0469 Q455.3125,1051.5 454.0313,1051.5 Q452.5313,1051.5 451.3281,1050.9063 Q450.3594,1050.4375 449.6719,1049.4219 Q449,1048.4063 449,1047.2031 L449,1046.1094 Q449,1044.8594 449.5938,1043.7656 Q450.2031,1042.6719 451.25,1042.0938 Q452.3125,1041.5 453.5,1041.5 Q454.2188,1041.5 454.8438,1041.75 Q455.4688,1042 456,1042.5 Z " fill="#000000"/><text fill="#000000" font-family="sans-serif" font-size="12" lengthAdjust="spacing" textLength="53" x="468" y="1050.9102">Company</text><line style="stroke:#A80036;stroke-width:1.5;" x1="440" x2="523" y1="1062" y2="1062"/><text fill="#000000" font-family="sans-serif" font-size="11" lengthAdjust="spacing" textLength="59" x="445" y="1077.4189">-designation</text><!--MD5=[0caf3a413731a0de34fc6162fe213ed9]
class Laboratory--><rect codeLine="139" fill="#FEFECE" filter="url(#fun94e9it043q)" height="95.3438" id="Laboratory" style="stroke:#A80036;stroke-width:1.5;" width="90" x="1167.5" y="357.5"/><ellipse cx="1182.5" cy="373.5" fill="#ADD1B2" rx="11" ry="11" style="stroke:#A80036;stroke-width:1.0;"/><path d="M1184.5,370 Q1184.7031,369.5 1184.9375,369.25 Q1185.1719,369 1185.4375,369 Q1185.9063,369 1186.2031,369.2813 Q1186.5,369.5625 1186.5,370.2188 L1186.5,371.7813 Q1186.5,372.4375 1186.2188,372.7188 Q1185.9375,373 1185.5,373 Q1185.1094,373 1184.8594,372.8281 Q1184.6094,372.6563 1184.5,372.2031 Q1184.4531,371.8906 1184.2813,371.7188 Q1183.9688,371.3906 1183.4063,371.2031 Q1182.8438,371 1182.2813,371 Q1181.5781,371 1180.9844,371.2813 Q1180.4063,371.5625 1179.9531,372.1875 Q1179.5,372.8125 1179.5,373.6719 L1179.5,374.5938 Q1179.5,375.625 1180.3438,376.3125 Q1181.1875,377 1182.6875,377 Q1183.5781,377 1184.2031,376.7969 Q1184.5625,376.6875 1184.9688,376.3281 Q1185.2344,376.125 1185.375,376.0625 Q1185.5156,376 1185.6875,376 Q1186.0156,376 1186.25,376.2656 Q1186.5,376.5156 1186.5,376.875 Q1186.5,377.2188 1186.1563,377.625 Q1185.6563,378.2188 1184.8594,378.5469 Q1183.8125,379 1182.5313,379 Q1181.0313,379 1179.8281,378.4063 Q1178.8594,377.9375 1178.1719,376.9219 Q1177.5,375.9063 1177.5,374.7031 L1177.5,373.6094 Q1177.5,372.3594 1178.0938,371.2656 Q1178.7031,370.1719 1179.75,369.5938 Q1180.8125,369 1182,369 Q1182.7188,369 1183.3438,369.25 Q1183.9688,369.5 1184.5,370 Z " fill="#000000"/><text fill="#000000" font-family="sans-serif" font-size="12" lengthAdjust="spacing" textLength="58" x="1196.5" y="378.4102">Laboratory</text><line style="stroke:#A80036;stroke-width:1.5;" x1="1168.5" x2="1256.5" y1="389.5" y2="389.5"/><text fill="#000000" font-family="sans-serif" font-size="11" lengthAdjust="spacing" textLength="30" x="1173.5" y="404.9189">-name</text><text fill="#000000" font-family="sans-serif" font-size="11" lengthAdjust="spacing" textLength="44" x="1173.5" y="418.7549">-address</text><text fill="#000000" font-family="sans-serif" font-size="11" lengthAdjust="spacing" textLength="71" x="1173.5" y="432.5908">-phoneNumber</text><text fill="#000000" font-family="sans-serif" font-size="11" lengthAdjust="spacing" textLength="19" x="1173.5" y="446.4268">-TIN</text><!--MD5=[a64badb107d3691f2dc6af242cdbeb21]
class ChemicalLaboratory--><rect codeLine="146" fill="#FEFECE" filter="url(#fun94e9it043q)" height="40" id="ChemicalLaboratory" style="stroke:#A80036;stroke-width:1.5;" width="143" x="1450" y="555"/><ellipse cx="1465" cy="571" fill="#ADD1B2" rx="11" ry="11" style="stroke:#A80036;stroke-width:1.0;"/><path d="M1467,567.5 Q1467.2031,567 1467.4375,566.75 Q1467.6719,566.5 1467.9375,566.5 Q1468.4063,566.5 1468.7031,566.7813 Q1469,567.0625 1469,567.7188 L1469,569.2813 Q1469,569.9375 1468.7188,570.2188 Q1468.4375,570.5 1468,570.5 Q1467.6094,570.5 1467.3594,570.3281 Q1467.1094,570.1563 1467,569.7031 Q1466.9531,569.3906 1466.7813,569.2188 Q1466.4688,568.8906 1465.9063,568.7031 Q1465.3438,568.5 1464.7813,568.5 Q1464.0781,568.5 1463.4844,568.7813 Q1462.9063,569.0625 1462.4531,569.6875 Q1462,570.3125 1462,571.1719 L1462,572.0938 Q1462,573.125 1462.8438,573.8125 Q1463.6875,574.5 1465.1875,574.5 Q1466.0781,574.5 1466.7031,574.2969 Q1467.0625,574.1875 1467.4688,573.8281 Q1467.7344,573.625 1467.875,573.5625 Q1468.0156,573.5 1468.1875,573.5 Q1468.5156,573.5 1468.75,573.7656 Q1469,574.0156 1469,574.375 Q1469,574.7188 1468.6563,575.125 Q1468.1563,575.7188 1467.3594,576.0469 Q1466.3125,576.5 1465.0313,576.5 Q1463.5313,576.5 1462.3281,575.9063 Q1461.3594,575.4375 1460.6719,574.4219 Q1460,573.4063 1460,572.2031 L1460,571.1094 Q1460,569.8594 1460.5938,568.7656 Q1461.2031,567.6719 1462.25,567.0938 Q1463.3125,566.5 1464.5,566.5 Q1465.2188,566.5 1465.8438,566.75 Q1466.4688,567 1467,567.5 Z " fill="#000000"/><text fill="#000000" font-family="sans-serif" font-size="12" lengthAdjust="spacing" textLength="111" x="1479" y="575.9102">ChemicalLaboratory</text><line style="stroke:#A80036;stroke-width:1.5;" x1="1451" x2="1592" y1="587" y2="587"/><!--MD5=[1934a092c0e7d4da7dc7075b6f4b6b03]
class ClinicalAnalysisLaboratory--><rect codeLine="149" fill="#FEFECE" filter="url(#fun94e9it043q)" height="53.8359" id="ClinicalAnalysisLaboratory" style="stroke:#A80036;stroke-width:1.5;" width="177" x="3846" y="912"/><ellipse cx="3861" cy="928" fill="#ADD1B2" rx="11" ry="11" style="stroke:#A80036;stroke-width:1.0;"/><path d="M3863,924.5 Q3863.2031,924 3863.4375,923.75 Q3863.6719,923.5 3863.9375,923.5 Q3864.4063,923.5 3864.7031,923.7813 Q3865,924.0625 3865,924.7188 L3865,926.2813 Q3865,926.9375 3864.7188,927.2188 Q3864.4375,927.5 3864,927.5 Q3863.6094,927.5 3863.3594,927.3281 Q3863.1094,927.1563 3863,926.7031 Q3862.9531,926.3906 3862.7813,926.2188 Q3862.4688,925.8906 3861.9063,925.7031 Q3861.3438,925.5 3860.7813,925.5 Q3860.0781,925.5 3859.4844,925.7813 Q3858.9063,926.0625 3858.4531,926.6875 Q3858,927.3125 3858,928.1719 L3858,929.0938 Q3858,930.125 3858.8438,930.8125 Q3859.6875,931.5 3861.1875,931.5 Q3862.0781,931.5 3862.7031,931.2969 Q3863.0625,931.1875 3863.4688,930.8281 Q3863.7344,930.625 3863.875,930.5625 Q3864.0156,930.5 3864.1875,930.5 Q3864.5156,930.5 3864.75,930.7656 Q3865,931.0156 3865,931.375 Q3865,931.7188 3864.6563,932.125 Q3864.1563,932.7188 3863.3594,933.0469 Q3862.3125,933.5 3861.0313,933.5 Q3859.5313,933.5 3858.3281,932.9063 Q3857.3594,932.4375 3856.6719,931.4219 Q3856,930.4063 3856,929.2031 L3856,928.1094 Q3856,926.8594 3856.5938,925.7656 Q3857.2031,924.6719 3858.25,924.0938 Q3859.3125,923.5 3860.5,923.5 Q3861.2188,923.5 3861.8438,923.75 Q3862.4688,924 3863,924.5 Z " fill="#000000"/><text fill="#000000" font-family="sans-serif" font-size="12" lengthAdjust="spacing" textLength="145" x="3875" y="932.9102">ClinicalAnalysisLaboratory</text><line style="stroke:#A80036;stroke-width:1.5;" x1="3847" x2="4022" y1="944" y2="944"/><text fill="#000000" font-family="sans-serif" font-size="11" lengthAdjust="spacing" textLength="27" x="3852" y="959.4189">-labID</text><!--MD5=[052425de1c0eb6cc1c1b48342b0bb88f]
class LaboratoryCoordinator--><rect codeLine="9" fill="#FEFECE" filter="url(#fun94e9it043q)" height="40" id="LaboratoryCoordinator" style="stroke:#A80036;stroke-width:1.5;" width="155" x="852" y="484"/><ellipse cx="867" cy="500" fill="#ADD1B2" rx="11" ry="11" style="stroke:#A80036;stroke-width:1.0;"/><path d="M869,496.5 Q869.2031,496 869.4375,495.75 Q869.6719,495.5 869.9375,495.5 Q870.4063,495.5 870.7031,495.7813 Q871,496.0625 871,496.7188 L871,498.2813 Q871,498.9375 870.7188,499.2188 Q870.4375,499.5 870,499.5 Q869.6094,499.5 869.3594,499.3281 Q869.1094,499.1563 869,498.7031 Q868.9531,498.3906 868.7813,498.2188 Q868.4688,497.8906 867.9063,497.7031 Q867.3438,497.5 866.7813,497.5 Q866.0781,497.5 865.4844,497.7813 Q864.9063,498.0625 864.4531,498.6875 Q864,499.3125 864,500.1719 L864,501.0938 Q864,502.125 864.8438,502.8125 Q865.6875,503.5 867.1875,503.5 Q868.0781,503.5 868.7031,503.2969 Q869.0625,503.1875 869.4688,502.8281 Q869.7344,502.625 869.875,502.5625 Q870.0156,502.5 870.1875,502.5 Q870.5156,502.5 870.75,502.7656 Q871,503.0156 871,503.375 Q871,503.7188 870.6563,504.125 Q870.1563,504.7188 869.3594,505.0469 Q868.3125,505.5 867.0313,505.5 Q865.5313,505.5 864.3281,504.9063 Q863.3594,504.4375 862.6719,503.4219 Q862,502.4063 862,501.2031 L862,500.1094 Q862,498.8594 862.5938,497.7656 Q863.2031,496.6719 864.25,496.0938 Q865.3125,495.5 866.5,495.5 Q867.2188,495.5 867.8438,495.75 Q868.4688,496 869,496.5 Z " fill="#000000"/><text fill="#000000" font-family="sans-serif" font-size="12" lengthAdjust="spacing" textLength="123" x="881" y="504.9102">LaboratoryCoordinator</text><line style="stroke:#A80036;stroke-width:1.5;" x1="853" x2="1006" y1="516" y2="516"/><!--MD5=[3fd616f346a44cd59a91eb10b19e157c]
class User--><rect codeLine="153" fill="#FEFECE" filter="url(#fun94e9it043q)" height="81.5078" id="User" style="stroke:#A80036;stroke-width:1.5;" width="66" x="3638.5" y="200"/><ellipse cx="3656.65" cy="216" fill="#ADD1B2" rx="11" ry="11" style="stroke:#A80036;stroke-width:1.0;"/><path d="M3658.65,212.5 Q3658.8531,212 3659.0875,211.75 Q3659.3219,211.5 3659.5875,211.5 Q3660.0563,211.5 3660.3531,211.7813 Q3660.65,212.0625 3660.65,212.7188 L3660.65,214.2813 Q3660.65,214.9375 3660.3688,215.2188 Q3660.0875,215.5 3659.65,215.5 Q3659.2594,215.5 3659.0094,215.3281 Q3658.7594,215.1563 3658.65,214.7031 Q3658.6031,214.3906 3658.4313,214.2188 Q3658.1188,213.8906 3657.5563,213.7031 Q3656.9938,213.5 3656.4313,213.5 Q3655.7281,213.5 3655.1344,213.7813 Q3654.5563,214.0625 3654.1031,214.6875 Q3653.65,215.3125 3653.65,216.1719 L3653.65,217.0938 Q3653.65,218.125 3654.4938,218.8125 Q3655.3375,219.5 3656.8375,219.5 Q3657.7281,219.5 3658.3531,219.2969 Q3658.7125,219.1875 3659.1188,218.8281 Q3659.3844,218.625 3659.525,218.5625 Q3659.6656,218.5 3659.8375,218.5 Q3660.1656,218.5 3660.4,218.7656 Q3660.65,219.0156 3660.65,219.375 Q3660.65,219.7188 3660.3063,220.125 Q3659.8063,220.7188 3659.0094,221.0469 Q3657.9625,221.5 3656.6813,221.5 Q3655.1813,221.5 3653.9781,220.9063 Q3653.0094,220.4375 3652.3219,219.4219 Q3651.65,218.4063 3651.65,217.2031 L3651.65,216.1094 Q3651.65,214.8594 3652.2438,213.7656 Q3652.8531,212.6719 3653.9,212.0938 Q3654.9625,211.5 3656.15,211.5 Q3656.8688,211.5 3657.4938,211.75 Q3658.1188,212 3658.65,212.5 Z " fill="#000000"/><text fill="#000000" font-family="sans-serif" font-size="12" lengthAdjust="spacing" textLength="27" x="3671.35" y="220.9102">User</text><line style="stroke:#A80036;stroke-width:1.5;" x1="3639.5" x2="3703.5" y1="232" y2="232"/><text fill="#000000" font-family="sans-serif" font-size="11" lengthAdjust="spacing" textLength="30" x="3644.5" y="247.4189">-name</text><text fill="#000000" font-family="sans-serif" font-size="11" lengthAdjust="spacing" textLength="28" x="3644.5" y="261.2549">-email</text><text fill="#000000" font-family="sans-serif" font-size="11" lengthAdjust="spacing" textLength="54" x="3644.5" y="275.0908">-password</text><!--MD5=[a3638c1e5b65d287ecad7f06f5c0f212]
class Role--><rect codeLine="159" fill="#FEFECE" filter="url(#fun94e9it043q)" height="67.6719" id="Role" style="stroke:#A80036;stroke-width:1.5;" width="69" x="3900" y="7"/><ellipse cx="3919.95" cy="23" fill="#ADD1B2" rx="11" ry="11" style="stroke:#A80036;stroke-width:1.0;"/><path d="M3921.95,19.5 Q3922.1531,19 3922.3875,18.75 Q3922.6219,18.5 3922.8875,18.5 Q3923.3563,18.5 3923.6531,18.7813 Q3923.95,19.0625 3923.95,19.7188 L3923.95,21.2813 Q3923.95,21.9375 3923.6688,22.2188 Q3923.3875,22.5 3922.95,22.5 Q3922.5594,22.5 3922.3094,22.3281 Q3922.0594,22.1563 3921.95,21.7031 Q3921.9031,21.3906 3921.7313,21.2188 Q3921.4188,20.8906 3920.8563,20.7031 Q3920.2938,20.5 3919.7313,20.5 Q3919.0281,20.5 3918.4344,20.7813 Q3917.8563,21.0625 3917.4031,21.6875 Q3916.95,22.3125 3916.95,23.1719 L3916.95,24.0938 Q3916.95,25.125 3917.7938,25.8125 Q3918.6375,26.5 3920.1375,26.5 Q3921.0281,26.5 3921.6531,26.2969 Q3922.0125,26.1875 3922.4188,25.8281 Q3922.6844,25.625 3922.825,25.5625 Q3922.9656,25.5 3923.1375,25.5 Q3923.4656,25.5 3923.7,25.7656 Q3923.95,26.0156 3923.95,26.375 Q3923.95,26.7188 3923.6063,27.125 Q3923.1063,27.7188 3922.3094,28.0469 Q3921.2625,28.5 3919.9813,28.5 Q3918.4813,28.5 3917.2781,27.9063 Q3916.3094,27.4375 3915.6219,26.4219 Q3914.95,25.4063 3914.95,24.2031 L3914.95,23.1094 Q3914.95,21.8594 3915.5438,20.7656 Q3916.1531,19.6719 3917.2,19.0938 Q3918.2625,18.5 3919.45,18.5 Q3920.1688,18.5 3920.7938,18.75 Q3921.4188,19 3921.95,19.5 Z " fill="#000000"/><text fill="#000000" font-family="sans-serif" font-size="12" lengthAdjust="spacing" textLength="26" x="3935.05" y="27.9102">Role</text><line style="stroke:#A80036;stroke-width:1.5;" x1="3901" x2="3968" y1="39" y2="39"/><text fill="#000000" font-family="sans-serif" font-size="11" lengthAdjust="spacing" textLength="12" x="3906" y="54.4189">-id</text><text fill="#000000" font-family="sans-serif" font-size="11" lengthAdjust="spacing" textLength="57" x="3906" y="68.2549">-description</text><!--MD5=[7421f545a0d8420c5bec41e74b387d9c]
class Employee--><rect codeLine="167" fill="#FEFECE" filter="url(#fun94e9it043q)" height="136.8516" id="Employee" style="stroke:#A80036;stroke-width:1.5;" width="87" x="651" y="662.5"/><ellipse cx="666" cy="678.5" fill="#ADD1B2" rx="11" ry="11" style="stroke:#A80036;stroke-width:1.0;"/><path d="M668,675 Q668.2031,674.5 668.4375,674.25 Q668.6719,674 668.9375,674 Q669.4063,674 669.7031,674.2813 Q670,674.5625 670,675.2188 L670,676.7813 Q670,677.4375 669.7188,677.7188 Q669.4375,678 669,678 Q668.6094,678 668.3594,677.8281 Q668.1094,677.6563 668,677.2031 Q667.9531,676.8906 667.7813,676.7188 Q667.4688,676.3906 666.9063,676.2031 Q666.3438,676 665.7813,676 Q665.0781,676 664.4844,676.2813 Q663.9063,676.5625 663.4531,677.1875 Q663,677.8125 663,678.6719 L663,679.5938 Q663,680.625 663.8438,681.3125 Q664.6875,682 666.1875,682 Q667.0781,682 667.7031,681.7969 Q668.0625,681.6875 668.4688,681.3281 Q668.7344,681.125 668.875,681.0625 Q669.0156,681 669.1875,681 Q669.5156,681 669.75,681.2656 Q670,681.5156 670,681.875 Q670,682.2188 669.6563,682.625 Q669.1563,683.2188 668.3594,683.5469 Q667.3125,684 666.0313,684 Q664.5313,684 663.3281,683.4063 Q662.3594,682.9375 661.6719,681.9219 Q661,680.9063 661,679.7031 L661,678.6094 Q661,677.3594 661.5938,676.2656 Q662.2031,675.1719 663.25,674.5938 Q664.3125,674 665.5,674 Q666.2188,674 666.8438,674.25 Q667.4688,674.5 668,675 Z " fill="#000000"/><text fill="#000000" font-family="sans-serif" font-size="12" lengthAdjust="spacing" textLength="55" x="680" y="683.4102">Employee</text><line style="stroke:#A80036;stroke-width:1.5;" x1="652" x2="737" y1="694.5" y2="694.5"/><text fill="#000000" font-family="sans-serif" font-size="11" lengthAdjust="spacing" textLength="30" x="657" y="709.9189">-name</text><text fill="#000000" font-family="sans-serif" font-size="11" lengthAdjust="spacing" textLength="44" x="657" y="723.7549">-address</text><text fill="#000000" font-family="sans-serif" font-size="11" lengthAdjust="spacing" textLength="71" x="657" y="737.5908">-phoneNumber</text><text fill="#000000" font-family="sans-serif" font-size="11" lengthAdjust="spacing" textLength="59" x="657" y="751.4268">-employeeID</text><text fill="#000000" font-family="sans-serif" font-size="11" lengthAdjust="spacing" textLength="41" x="657" y="765.2627">-orgRole</text><text fill="#000000" font-family="sans-serif" font-size="11" lengthAdjust="spacing" textLength="28" x="657" y="779.0986">-email</text><text fill="#000000" font-family="sans-serif" font-size="11" lengthAdjust="spacing" textLength="50" x="657" y="792.9346">-SOCcode</text><!--MD5=[da547346deef918ea16944ba046651ef]
class Administrator--><rect codeLine="164" fill="#FEFECE" filter="url(#fun94e9it043q)" height="40" id="Administrator" style="stroke:#A80036;stroke-width:1.5;" width="105" x="877" y="1280"/><ellipse cx="892" cy="1296" fill="#ADD1B2" rx="11" ry="11" style="stroke:#A80036;stroke-width:1.0;"/><path d="M894,1292.5 Q894.2031,1292 894.4375,1291.75 Q894.6719,1291.5 894.9375,1291.5 Q895.4063,1291.5 895.7031,1291.7813 Q896,1292.0625 896,1292.7188 L896,1294.2813 Q896,1294.9375 895.7188,1295.2188 Q895.4375,1295.5 895,1295.5 Q894.6094,1295.5 894.3594,1295.3281 Q894.1094,1295.1563 894,1294.7031 Q893.9531,1294.3906 893.7813,1294.2188 Q893.4688,1293.8906 892.9063,1293.7031 Q892.3438,1293.5 891.7813,1293.5 Q891.0781,1293.5 890.4844,1293.7813 Q889.9063,1294.0625 889.4531,1294.6875 Q889,1295.3125 889,1296.1719 L889,1297.0938 Q889,1298.125 889.8438,1298.8125 Q890.6875,1299.5 892.1875,1299.5 Q893.0781,1299.5 893.7031,1299.2969 Q894.0625,1299.1875 894.4688,1298.8281 Q894.7344,1298.625 894.875,1298.5625 Q895.0156,1298.5 895.1875,1298.5 Q895.5156,1298.5 895.75,1298.7656 Q896,1299.0156 896,1299.375 Q896,1299.7188 895.6563,1300.125 Q895.1563,1300.7188 894.3594,1301.0469 Q893.3125,1301.5 892.0313,1301.5 Q890.5313,1301.5 889.3281,1300.9063 Q888.3594,1300.4375 887.6719,1299.4219 Q887,1298.4063 887,1297.2031 L887,1296.1094 Q887,1294.8594 887.5938,1293.7656 Q888.2031,1292.6719 889.25,1292.0938 Q890.3125,1291.5 891.5,1291.5 Q892.2188,1291.5 892.8438,1291.75 Q893.4688,1292 894,1292.5 Z " fill="#000000"/><text fill="#000000" font-family="sans-serif" font-size="12" lengthAdjust="spacing" textLength="73" x="906" y="1300.9102">Administrator</text><line style="stroke:#A80036;stroke-width:1.5;" x1="878" x2="981" y1="1312" y2="1312"/><!--MD5=[7d96fd15f3014691d2fcaf89c5791e2a]
class SpecialistDoctor--><rect codeLine="177" fill="#FEFECE" filter="url(#fun94e9it043q)" height="53.8359" id="SpecialistDoctor" style="stroke:#A80036;stroke-width:1.5;" width="122" x="2576" y="609"/><ellipse cx="2591" cy="625" fill="#ADD1B2" rx="11" ry="11" style="stroke:#A80036;stroke-width:1.0;"/><path d="M2593,621.5 Q2593.2031,621 2593.4375,620.75 Q2593.6719,620.5 2593.9375,620.5 Q2594.4063,620.5 2594.7031,620.7813 Q2595,621.0625 2595,621.7188 L2595,623.2813 Q2595,623.9375 2594.7188,624.2188 Q2594.4375,624.5 2594,624.5 Q2593.6094,624.5 2593.3594,624.3281 Q2593.1094,624.1563 2593,623.7031 Q2592.9531,623.3906 2592.7813,623.2188 Q2592.4688,622.8906 2591.9063,622.7031 Q2591.3438,622.5 2590.7813,622.5 Q2590.0781,622.5 2589.4844,622.7813 Q2588.9063,623.0625 2588.4531,623.6875 Q2588,624.3125 2588,625.1719 L2588,626.0938 Q2588,627.125 2588.8438,627.8125 Q2589.6875,628.5 2591.1875,628.5 Q2592.0781,628.5 2592.7031,628.2969 Q2593.0625,628.1875 2593.4688,627.8281 Q2593.7344,627.625 2593.875,627.5625 Q2594.0156,627.5 2594.1875,627.5 Q2594.5156,627.5 2594.75,627.7656 Q2595,628.0156 2595,628.375 Q2595,628.7188 2594.6563,629.125 Q2594.1563,629.7188 2593.3594,630.0469 Q2592.3125,630.5 2591.0313,630.5 Q2589.5313,630.5 2588.3281,629.9063 Q2587.3594,629.4375 2586.6719,628.4219 Q2586,627.4063 2586,626.2031 L2586,625.1094 Q2586,623.8594 2586.5938,622.7656 Q2587.2031,621.6719 2588.25,621.0938 Q2589.3125,620.5 2590.5,620.5 Q2591.2188,620.5 2591.8438,620.75 Q2592.4688,621 2593,621.5 Z " fill="#000000"/><text fill="#000000" font-family="sans-serif" font-size="12" lengthAdjust="spacing" textLength="90" x="2605" y="629.9102">SpecialistDoctor</text><line style="stroke:#A80036;stroke-width:1.5;" x1="2577" x2="2697" y1="641" y2="641"/><text fill="#000000" font-family="sans-serif" font-size="11" lengthAdjust="spacing" textLength="61" x="2582" y="656.4189">-doctorIndex</text><!--MD5=[012ee2a8bf3ae2b319009b06f951c2e5]
class ClinicalChemistryTechnologist--><rect codeLine="181" fill="#FEFECE" filter="url(#fun94e9it043q)" height="40" id="ClinicalChemistryTechnologist" style="stroke:#A80036;stroke-width:1.5;" width="200" x="3096" y="637"/><ellipse cx="3111" cy="653" fill="#ADD1B2" rx="11" ry="11" style="stroke:#A80036;stroke-width:1.0;"/><path d="M3113,649.5 Q3113.2031,649 3113.4375,648.75 Q3113.6719,648.5 3113.9375,648.5 Q3114.4063,648.5 3114.7031,648.7813 Q3115,649.0625 3115,649.7188 L3115,651.2813 Q3115,651.9375 3114.7188,652.2188 Q3114.4375,652.5 3114,652.5 Q3113.6094,652.5 3113.3594,652.3281 Q3113.1094,652.1563 3113,651.7031 Q3112.9531,651.3906 3112.7813,651.2188 Q3112.4688,650.8906 3111.9063,650.7031 Q3111.3438,650.5 3110.7813,650.5 Q3110.0781,650.5 3109.4844,650.7813 Q3108.9063,651.0625 3108.4531,651.6875 Q3108,652.3125 3108,653.1719 L3108,654.0938 Q3108,655.125 3108.8438,655.8125 Q3109.6875,656.5 3111.1875,656.5 Q3112.0781,656.5 3112.7031,656.2969 Q3113.0625,656.1875 3113.4688,655.8281 Q3113.7344,655.625 3113.875,655.5625 Q3114.0156,655.5 3114.1875,655.5 Q3114.5156,655.5 3114.75,655.7656 Q3115,656.0156 3115,656.375 Q3115,656.7188 3114.6563,657.125 Q3114.1563,657.7188 3113.3594,658.0469 Q3112.3125,658.5 3111.0313,658.5 Q3109.5313,658.5 3108.3281,657.9063 Q3107.3594,657.4375 3106.6719,656.4219 Q3106,655.4063 3106,654.2031 L3106,653.1094 Q3106,651.8594 3106.5938,650.7656 Q3107.2031,649.6719 3108.25,649.0938 Q3109.3125,648.5 3110.5,648.5 Q3111.2188,648.5 3111.8438,648.75 Q3112.4688,649 3113,649.5 Z " fill="#000000"/><text fill="#000000" font-family="sans-serif" font-size="12" lengthAdjust="spacing" textLength="168" x="3125" y="657.9102">ClinicalChemistryTechnologist</text><line style="stroke:#A80036;stroke-width:1.5;" x1="3097" x2="3295" y1="669" y2="669"/><!--MD5=[01931d41e78f8996acd44f6f0fd8de28]
class MedicalLabTechnician--><rect codeLine="184" fill="#FEFECE" filter="url(#fun94e9it043q)" height="40" id="MedicalLabTechnician" style="stroke:#A80036;stroke-width:1.5;" width="155" x="1985" y="971"/><ellipse cx="2000" cy="987" fill="#ADD1B2" rx="11" ry="11" style="stroke:#A80036;stroke-width:1.0;"/><path d="M2002,983.5 Q2002.2031,983 2002.4375,982.75 Q2002.6719,982.5 2002.9375,982.5 Q2003.4063,982.5 2003.7031,982.7813 Q2004,983.0625 2004,983.7188 L2004,985.2813 Q2004,985.9375 2003.7188,986.2188 Q2003.4375,986.5 2003,986.5 Q2002.6094,986.5 2002.3594,986.3281 Q2002.1094,986.1563 2002,985.7031 Q2001.9531,985.3906 2001.7813,985.2188 Q2001.4688,984.8906 2000.9063,984.7031 Q2000.3438,984.5 1999.7813,984.5 Q1999.0781,984.5 1998.4844,984.7813 Q1997.9063,985.0625 1997.4531,985.6875 Q1997,986.3125 1997,987.1719 L1997,988.0938 Q1997,989.125 1997.8438,989.8125 Q1998.6875,990.5 2000.1875,990.5 Q2001.0781,990.5 2001.7031,990.2969 Q2002.0625,990.1875 2002.4688,989.8281 Q2002.7344,989.625 2002.875,989.5625 Q2003.0156,989.5 2003.1875,989.5 Q2003.5156,989.5 2003.75,989.7656 Q2004,990.0156 2004,990.375 Q2004,990.7188 2003.6563,991.125 Q2003.1563,991.7188 2002.3594,992.0469 Q2001.3125,992.5 2000.0313,992.5 Q1998.5313,992.5 1997.3281,991.9063 Q1996.3594,991.4375 1995.6719,990.4219 Q1995,989.4063 1995,988.2031 L1995,987.1094 Q1995,985.8594 1995.5938,984.7656 Q1996.2031,983.6719 1997.25,983.0938 Q1998.3125,982.5 1999.5,982.5 Q2000.2188,982.5 2000.8438,982.75 Q2001.4688,983 2002,983.5 Z " fill="#000000"/><text fill="#000000" font-family="sans-serif" font-size="12" lengthAdjust="spacing" textLength="123" x="2014" y="991.9102">MedicalLabTechnician</text><line style="stroke:#A80036;stroke-width:1.5;" x1="1986" x2="2139" y1="1003" y2="1003"/><!--MD5=[03960189e81aa2c066c762ffabbee709]
class Receptionist--><rect codeLine="187" fill="#FEFECE" filter="url(#fun94e9it043q)" height="40" id="Receptionist" style="stroke:#A80036;stroke-width:1.5;" width="101" x="3621" y="1018"/><ellipse cx="3636" cy="1034" fill="#ADD1B2" rx="11" ry="11" style="stroke:#A80036;stroke-width:1.0;"/><path d="M3638,1030.5 Q3638.2031,1030 3638.4375,1029.75 Q3638.6719,1029.5 3638.9375,1029.5 Q3639.4063,1029.5 3639.7031,1029.7813 Q3640,1030.0625 3640,1030.7188 L3640,1032.2813 Q3640,1032.9375 3639.7188,1033.2188 Q3639.4375,1033.5 3639,1033.5 Q3638.6094,1033.5 3638.3594,1033.3281 Q3638.1094,1033.1563 3638,1032.7031 Q3637.9531,1032.3906 3637.7813,1032.2188 Q3637.4688,1031.8906 3636.9063,1031.7031 Q3636.3438,1031.5 3635.7813,1031.5 Q3635.0781,1031.5 3634.4844,1031.7813 Q3633.9063,1032.0625 3633.4531,1032.6875 Q3633,1033.3125 3633,1034.1719 L3633,1035.0938 Q3633,1036.125 3633.8438,1036.8125 Q3634.6875,1037.5 3636.1875,1037.5 Q3637.0781,1037.5 3637.7031,1037.2969 Q3638.0625,1037.1875 3638.4688,1036.8281 Q3638.7344,1036.625 3638.875,1036.5625 Q3639.0156,1036.5 3639.1875,1036.5 Q3639.5156,1036.5 3639.75,1036.7656 Q3640,1037.0156 3640,1037.375 Q3640,1037.7188 3639.6563,1038.125 Q3639.1563,1038.7188 3638.3594,1039.0469 Q3637.3125,1039.5 3636.0313,1039.5 Q3634.5313,1039.5 3633.3281,1038.9063 Q3632.3594,1038.4375 3631.6719,1037.4219 Q3631,1036.4063 3631,1035.2031 L3631,1034.1094 Q3631,1032.8594 3631.5938,1031.7656 Q3632.2031,1030.6719 3633.25,1030.0938 Q3634.3125,1029.5 3635.5,1029.5 Q3636.2188,1029.5 3636.8438,1029.75 Q3637.4688,1030 3638,1030.5 Z " fill="#000000"/><text fill="#000000" font-family="sans-serif" font-size="12" lengthAdjust="spacing" textLength="69" x="3650" y="1038.9102">Receptionist</text><line style="stroke:#A80036;stroke-width:1.5;" x1="3622" x2="3721" y1="1050" y2="1050"/><!--MD5=[ed6624c6556d5e7b1bd23032162d20b7]
class Client--><rect codeLine="190" fill="#FEFECE" filter="url(#fun94e9it043q)" height="150.6875" id="Client" style="stroke:#A80036;stroke-width:1.5;" width="83" x="3413" y="587.5"/><ellipse cx="3436.55" cy="603.5" fill="#ADD1B2" rx="11" ry="11" style="stroke:#A80036;stroke-width:1.0;"/><path d="M3438.55,600 Q3438.7531,599.5 3438.9875,599.25 Q3439.2219,599 3439.4875,599 Q3439.9563,599 3440.2531,599.2813 Q3440.55,599.5625 3440.55,600.2188 L3440.55,601.7813 Q3440.55,602.4375 3440.2688,602.7188 Q3439.9875,603 3439.55,603 Q3439.1594,603 3438.9094,602.8281 Q3438.6594,602.6563 3438.55,602.2031 Q3438.5031,601.8906 3438.3313,601.7188 Q3438.0188,601.3906 3437.4563,601.2031 Q3436.8938,601 3436.3313,601 Q3435.6281,601 3435.0344,601.2813 Q3434.4563,601.5625 3434.0031,602.1875 Q3433.55,602.8125 3433.55,603.6719 L3433.55,604.5938 Q3433.55,605.625 3434.3938,606.3125 Q3435.2375,607 3436.7375,607 Q3437.6281,607 3438.2531,606.7969 Q3438.6125,606.6875 3439.0188,606.3281 Q3439.2844,606.125 3439.425,606.0625 Q3439.5656,606 3439.7375,606 Q3440.0656,606 3440.3,606.2656 Q3440.55,606.5156 3440.55,606.875 Q3440.55,607.2188 3440.2063,607.625 Q3439.7063,608.2188 3438.9094,608.5469 Q3437.8625,609 3436.5813,609 Q3435.0813,609 3433.8781,608.4063 Q3432.9094,607.9375 3432.2219,606.9219 Q3431.55,605.9063 3431.55,604.7031 L3431.55,603.6094 Q3431.55,602.3594 3432.1438,601.2656 Q3432.7531,600.1719 3433.8,599.5938 Q3434.8625,599 3436.05,599 Q3436.7688,599 3437.3938,599.25 Q3438.0188,599.5 3438.55,600 Z " fill="#000000"/><text fill="#000000" font-family="sans-serif" font-size="12" lengthAdjust="spacing" textLength="32" x="3452.45" y="608.4102">Client</text><line style="stroke:#A80036;stroke-width:1.5;" x1="3414" x2="3495" y1="619.5" y2="619.5"/><text fill="#000000" font-family="sans-serif" font-size="11" lengthAdjust="spacing" textLength="44" x="3419" y="634.9189">-citizenID</text><text fill="#000000" font-family="sans-serif" font-size="11" lengthAdjust="spacing" textLength="31" x="3419" y="648.7549">-nhsID</text><text fill="#000000" font-family="sans-serif" font-size="11" lengthAdjust="spacing" textLength="47" x="3419" y="662.5908">-birthDate</text><text fill="#000000" font-family="sans-serif" font-size="11" lengthAdjust="spacing" textLength="22" x="3419" y="676.4268">-sex</text><text fill="#000000" font-family="sans-serif" font-size="11" lengthAdjust="spacing" textLength="19" x="3419" y="690.2627">-TIN</text><text fill="#000000" font-family="sans-serif" font-size="11" lengthAdjust="spacing" textLength="71" x="3419" y="704.0986">-phoneNumber</text><text fill="#000000" font-family="sans-serif" font-size="11" lengthAdjust="spacing" textLength="28" x="3419" y="717.9346">-email</text><text fill="#000000" font-family="sans-serif" font-size="11" lengthAdjust="spacing" textLength="30" x="3419" y="731.7705">-name</text><!--MD5=[a999c1570c205a2156b04a15307bc1ff]
class LabOrder--><rect codeLine="201" fill="#FEFECE" filter="url(#fun94e9it043q)" height="40" id="LabOrder" style="stroke:#A80036;stroke-width:1.5;" width="84" x="7" y="450"/><ellipse cx="22" cy="466" fill="#ADD1B2" rx="11" ry="11" style="stroke:#A80036;stroke-width:1.0;"/><path d="M24,462.5 Q24.2031,462 24.4375,461.75 Q24.6719,461.5 24.9375,461.5 Q25.4063,461.5 25.7031,461.7813 Q26,462.0625 26,462.7188 L26,464.2813 Q26,464.9375 25.7188,465.2188 Q25.4375,465.5 25,465.5 Q24.6094,465.5 24.3594,465.3281 Q24.1094,465.1563 24,464.7031 Q23.9531,464.3906 23.7813,464.2188 Q23.4688,463.8906 22.9063,463.7031 Q22.3438,463.5 21.7813,463.5 Q21.0781,463.5 20.4844,463.7813 Q19.9063,464.0625 19.4531,464.6875 Q19,465.3125 19,466.1719 L19,467.0938 Q19,468.125 19.8438,468.8125 Q20.6875,469.5 22.1875,469.5 Q23.0781,469.5 23.7031,469.2969 Q24.0625,469.1875 24.4688,468.8281 Q24.7344,468.625 24.875,468.5625 Q25.0156,468.5 25.1875,468.5 Q25.5156,468.5 25.75,468.7656 Q26,469.0156 26,469.375 Q26,469.7188 25.6563,470.125 Q25.1563,470.7188 24.3594,471.0469 Q23.3125,471.5 22.0313,471.5 Q20.5313,471.5 19.3281,470.9063 Q18.3594,470.4375 17.6719,469.4219 Q17,468.4063 17,467.2031 L17,466.1094 Q17,464.8594 17.5938,463.7656 Q18.2031,462.6719 19.25,462.0938 Q20.3125,461.5 21.5,461.5 Q22.2188,461.5 22.8438,461.75 Q23.4688,462 24,462.5 Z " fill="#000000"/><text fill="#000000" font-family="sans-serif" font-size="12" lengthAdjust="spacing" textLength="52" x="36" y="470.9102">LabOrder</text><line style="stroke:#A80036;stroke-width:1.5;" x1="8" x2="90" y1="482" y2="482"/><!--MD5=[2741598bdf59a7d7e0d5c97658fd3022]
class Result--><rect codeLine="204" fill="#FEFECE" filter="url(#fun94e9it043q)" height="40" id="Result" style="stroke:#A80036;stroke-width:1.5;" width="68" x="2848.5" y="831"/><ellipse cx="2863.5" cy="847" fill="#ADD1B2" rx="11" ry="11" style="stroke:#A80036;stroke-width:1.0;"/><path d="M2865.5,843.5 Q2865.7031,843 2865.9375,842.75 Q2866.1719,842.5 2866.4375,842.5 Q2866.9063,842.5 2867.2031,842.7813 Q2867.5,843.0625 2867.5,843.7188 L2867.5,845.2813 Q2867.5,845.9375 2867.2188,846.2188 Q2866.9375,846.5 2866.5,846.5 Q2866.1094,846.5 2865.8594,846.3281 Q2865.6094,846.1563 2865.5,845.7031 Q2865.4531,845.3906 2865.2813,845.2188 Q2864.9688,844.8906 2864.4063,844.7031 Q2863.8438,844.5 2863.2813,844.5 Q2862.5781,844.5 2861.9844,844.7813 Q2861.4063,845.0625 2860.9531,845.6875 Q2860.5,846.3125 2860.5,847.1719 L2860.5,848.0938 Q2860.5,849.125 2861.3438,849.8125 Q2862.1875,850.5 2863.6875,850.5 Q2864.5781,850.5 2865.2031,850.2969 Q2865.5625,850.1875 2865.9688,849.8281 Q2866.2344,849.625 2866.375,849.5625 Q2866.5156,849.5 2866.6875,849.5 Q2867.0156,849.5 2867.25,849.7656 Q2867.5,850.0156 2867.5,850.375 Q2867.5,850.7188 2867.1563,851.125 Q2866.6563,851.7188 2865.8594,852.0469 Q2864.8125,852.5 2863.5313,852.5 Q2862.0313,852.5 2860.8281,851.9063 Q2859.8594,851.4375 2859.1719,850.4219 Q2858.5,849.4063 2858.5,848.2031 L2858.5,847.1094 Q2858.5,845.8594 2859.0938,844.7656 Q2859.7031,843.6719 2860.75,843.0938 Q2861.8125,842.5 2863,842.5 Q2863.7188,842.5 2864.3438,842.75 Q2864.9688,843 2865.5,843.5 Z " fill="#000000"/><text fill="#000000" font-family="sans-serif" font-size="12" lengthAdjust="spacing" textLength="36" x="2877.5" y="851.9102">Result</text><line style="stroke:#A80036;stroke-width:1.5;" x1="2849.5" x2="2915.5" y1="863" y2="863"/><!--MD5=[f61f25a4c924aea49782a3614f4b4835]
class DiagnosisReport--><rect codeLine="207" fill="#FEFECE" filter="url(#fun94e9it043q)" height="40" id="DiagnosisReport" style="stroke:#A80036;stroke-width:1.5;" width="126" x="2305" y="552"/><ellipse cx="2320" cy="568" fill="#ADD1B2" rx="11" ry="11" style="stroke:#A80036;stroke-width:1.0;"/><path d="M2322,564.5 Q2322.2031,564 2322.4375,563.75 Q2322.6719,563.5 2322.9375,563.5 Q2323.4063,563.5 2323.7031,563.7813 Q2324,564.0625 2324,564.7188 L2324,566.2813 Q2324,566.9375 2323.7188,567.2188 Q2323.4375,567.5 2323,567.5 Q2322.6094,567.5 2322.3594,567.3281 Q2322.1094,567.1563 2322,566.7031 Q2321.9531,566.3906 2321.7813,566.2188 Q2321.4688,565.8906 2320.9063,565.7031 Q2320.3438,565.5 2319.7813,565.5 Q2319.0781,565.5 2318.4844,565.7813 Q2317.9063,566.0625 2317.4531,566.6875 Q2317,567.3125 2317,568.1719 L2317,569.0938 Q2317,570.125 2317.8438,570.8125 Q2318.6875,571.5 2320.1875,571.5 Q2321.0781,571.5 2321.7031,571.2969 Q2322.0625,571.1875 2322.4688,570.8281 Q2322.7344,570.625 2322.875,570.5625 Q2323.0156,570.5 2323.1875,570.5 Q2323.5156,570.5 2323.75,570.7656 Q2324,571.0156 2324,571.375 Q2324,571.7188 2323.6563,572.125 Q2323.1563,572.7188 2322.3594,573.0469 Q2321.3125,573.5 2320.0313,573.5 Q2318.5313,573.5 2317.3281,572.9063 Q2316.3594,572.4375 2315.6719,571.4219 Q2315,570.4063 2315,569.2031 L2315,568.1094 Q2315,566.8594 2315.5938,565.7656 Q2316.2031,564.6719 2317.25,564.0938 Q2318.3125,563.5 2319.5,563.5 Q2320.2188,563.5 2320.8438,563.75 Q2321.4688,564 2322,564.5 Z " fill="#000000"/><text fill="#000000" font-family="sans-serif" font-size="12" lengthAdjust="spacing" textLength="94" x="2334" y="572.9102">DiagnosisReport</text><line style="stroke:#A80036;stroke-width:1.5;" x1="2306" x2="2430" y1="584" y2="584"/><!--MD5=[74783ec010d186752c4ffd5c6de5633a]
class NHSReport--><rect codeLine="22" fill="#FEFECE" filter="url(#fun94e9it043q)" height="40" id="NHSReport" style="stroke:#A80036;stroke-width:1.5;" width="95" x="2589.5" y="911"/><ellipse cx="2604.5" cy="927" fill="#ADD1B2" rx="11" ry="11" style="stroke:#A80036;stroke-width:1.0;"/><path d="M2606.5,923.5 Q2606.7031,923 2606.9375,922.75 Q2607.1719,922.5 2607.4375,922.5 Q2607.9063,922.5 2608.2031,922.7813 Q2608.5,923.0625 2608.5,923.7188 L2608.5,925.2813 Q2608.5,925.9375 2608.2188,926.2188 Q2607.9375,926.5 2607.5,926.5 Q2607.1094,926.5 2606.8594,926.3281 Q2606.6094,926.1563 2606.5,925.7031 Q2606.4531,925.3906 2606.2813,925.2188 Q2605.9688,924.8906 2605.4063,924.7031 Q2604.8438,924.5 2604.2813,924.5 Q2603.5781,924.5 2602.9844,924.7813 Q2602.4063,925.0625 2601.9531,925.6875 Q2601.5,926.3125 2601.5,927.1719 L2601.5,928.0938 Q2601.5,929.125 2602.3438,929.8125 Q2603.1875,930.5 2604.6875,930.5 Q2605.5781,930.5 2606.2031,930.2969 Q2606.5625,930.1875 2606.9688,929.8281 Q2607.2344,929.625 2607.375,929.5625 Q2607.5156,929.5 2607.6875,929.5 Q2608.0156,929.5 2608.25,929.7656 Q2608.5,930.0156 2608.5,930.375 Q2608.5,930.7188 2608.1563,931.125 Q2607.6563,931.7188 2606.8594,932.0469 Q2605.8125,932.5 2604.5313,932.5 Q2603.0313,932.5 2601.8281,931.9063 Q2600.8594,931.4375 2600.1719,930.4219 Q2599.5,929.4063 2599.5,928.2031 L2599.5,927.1094 Q2599.5,925.8594 2600.0938,924.7656 Q2600.7031,923.6719 2601.75,923.0938 Q2602.8125,922.5 2604,922.5 Q2604.7188,922.5 2605.3438,922.75 Q2605.9688,923 2606.5,923.5 Z " fill="#000000"/><text fill="#000000" font-family="sans-serif" font-size="12" lengthAdjust="spacing" textLength="63" x="2618.5" y="931.9102">NHSReport</text><line style="stroke:#A80036;stroke-width:1.5;" x1="2590.5" x2="2683.5" y1="943" y2="943"/><!--MD5=[36afb6bbd95a8ac778c4537c55a683d5]
class ParameterCategory--><rect codeLine="210" fill="#FEFECE" filter="url(#fun94e9it043q)" height="81.5078" id="ParameterCategory" style="stroke:#A80036;stroke-width:1.5;" width="139" x="1143" y="1218"/><ellipse cx="1158" cy="1234" fill="#ADD1B2" rx="11" ry="11" style="stroke:#A80036;stroke-width:1.0;"/><path d="M1160,1230.5 Q1160.2031,1230 1160.4375,1229.75 Q1160.6719,1229.5 1160.9375,1229.5 Q1161.4063,1229.5 1161.7031,1229.7813 Q1162,1230.0625 1162,1230.7188 L1162,1232.2813 Q1162,1232.9375 1161.7188,1233.2188 Q1161.4375,1233.5 1161,1233.5 Q1160.6094,1233.5 1160.3594,1233.3281 Q1160.1094,1233.1563 1160,1232.7031 Q1159.9531,1232.3906 1159.7813,1232.2188 Q1159.4688,1231.8906 1158.9063,1231.7031 Q1158.3438,1231.5 1157.7813,1231.5 Q1157.0781,1231.5 1156.4844,1231.7813 Q1155.9063,1232.0625 1155.4531,1232.6875 Q1155,1233.3125 1155,1234.1719 L1155,1235.0938 Q1155,1236.125 1155.8438,1236.8125 Q1156.6875,1237.5 1158.1875,1237.5 Q1159.0781,1237.5 1159.7031,1237.2969 Q1160.0625,1237.1875 1160.4688,1236.8281 Q1160.7344,1236.625 1160.875,1236.5625 Q1161.0156,1236.5 1161.1875,1236.5 Q1161.5156,1236.5 1161.75,1236.7656 Q1162,1237.0156 1162,1237.375 Q1162,1237.7188 1161.6563,1238.125 Q1161.1563,1238.7188 1160.3594,1239.0469 Q1159.3125,1239.5 1158.0313,1239.5 Q1156.5313,1239.5 1155.3281,1238.9063 Q1154.3594,1238.4375 1153.6719,1237.4219 Q1153,1236.4063 1153,1235.2031 L1153,1234.1094 Q1153,1232.8594 1153.5938,1231.7656 Q1154.2031,1230.6719 1155.25,1230.0938 Q1156.3125,1229.5 1157.5,1229.5 Q1158.2188,1229.5 1158.8438,1229.75 Q1159.4688,1230 1160,1230.5 Z " fill="#000000"/><text fill="#000000" font-family="sans-serif" font-size="12" lengthAdjust="spacing" textLength="107" x="1172" y="1238.9102">ParameterCategory</text><line style="stroke:#A80036;stroke-width:1.5;" x1="1144" x2="1281" y1="1250" y2="1250"/><text fill="#000000" font-family="sans-serif" font-size="11" lengthAdjust="spacing" textLength="28" x="1149" y="1265.4189">-code</text><text fill="#000000" font-family="sans-serif" font-size="11" lengthAdjust="spacing" textLength="57" x="1149" y="1279.2549">-description</text><text fill="#000000" font-family="sans-serif" font-size="11" lengthAdjust="spacing" textLength="31" x="1149" y="1293.0908">-nhsID</text><!--MD5=[1f6362a5c8f21d8d6a0fce68f3a92a4e]
class Parameter--><rect codeLine="216" fill="#FEFECE" filter="url(#fun94e9it043q)" height="81.5078" id="Parameter" style="stroke:#A80036;stroke-width:1.5;" width="90" x="1476.5" y="1152"/><ellipse cx="1491.5" cy="1168" fill="#ADD1B2" rx="11" ry="11" style="stroke:#A80036;stroke-width:1.0;"/><path d="M1493.5,1164.5 Q1493.7031,1164 1493.9375,1163.75 Q1494.1719,1163.5 1494.4375,1163.5 Q1494.9063,1163.5 1495.2031,1163.7813 Q1495.5,1164.0625 1495.5,1164.7188 L1495.5,1166.2813 Q1495.5,1166.9375 1495.2188,1167.2188 Q1494.9375,1167.5 1494.5,1167.5 Q1494.1094,1167.5 1493.8594,1167.3281 Q1493.6094,1167.1563 1493.5,1166.7031 Q1493.4531,1166.3906 1493.2813,1166.2188 Q1492.9688,1165.8906 1492.4063,1165.7031 Q1491.8438,1165.5 1491.2813,1165.5 Q1490.5781,1165.5 1489.9844,1165.7813 Q1489.4063,1166.0625 1488.9531,1166.6875 Q1488.5,1167.3125 1488.5,1168.1719 L1488.5,1169.0938 Q1488.5,1170.125 1489.3438,1170.8125 Q1490.1875,1171.5 1491.6875,1171.5 Q1492.5781,1171.5 1493.2031,1171.2969 Q1493.5625,1171.1875 1493.9688,1170.8281 Q1494.2344,1170.625 1494.375,1170.5625 Q1494.5156,1170.5 1494.6875,1170.5 Q1495.0156,1170.5 1495.25,1170.7656 Q1495.5,1171.0156 1495.5,1171.375 Q1495.5,1171.7188 1495.1563,1172.125 Q1494.6563,1172.7188 1493.8594,1173.0469 Q1492.8125,1173.5 1491.5313,1173.5 Q1490.0313,1173.5 1488.8281,1172.9063 Q1487.8594,1172.4375 1487.1719,1171.4219 Q1486.5,1170.4063 1486.5,1169.2031 L1486.5,1168.1094 Q1486.5,1166.8594 1487.0938,1165.7656 Q1487.7031,1164.6719 1488.75,1164.0938 Q1489.8125,1163.5 1491,1163.5 Q1491.7188,1163.5 1492.3438,1163.75 Q1492.9688,1164 1493.5,1164.5 Z " fill="#000000"/><text fill="#000000" font-family="sans-serif" font-size="12" lengthAdjust="spacing" textLength="58" x="1505.5" y="1172.9102">Parameter</text><line style="stroke:#A80036;stroke-width:1.5;" x1="1477.5" x2="1565.5" y1="1184" y2="1184"/><text fill="#000000" font-family="sans-serif" font-size="11" lengthAdjust="spacing" textLength="59" x="1482.5" y="1199.4189">-designation</text><text fill="#000000" font-family="sans-serif" font-size="11" lengthAdjust="spacing" textLength="57" x="1482.5" y="1213.2549">-description</text><text fill="#000000" font-family="sans-serif" font-size="11" lengthAdjust="spacing" textLength="28" x="1482.5" y="1227.0908">-code</text><!--MD5=[aeb3272166074d8737a70b61b1e71682]
class TestType--><rect codeLine="222" fill="#FEFECE" filter="url(#fun94e9it043q)" height="81.5078" id="TestType" style="stroke:#A80036;stroke-width:1.5;" width="96" x="215" y="1016"/><ellipse cx="236.3" cy="1032" fill="#ADD1B2" rx="11" ry="11" style="stroke:#A80036;stroke-width:1.0;"/><path d="M238.3,1028.5 Q238.5031,1028 238.7375,1027.75 Q238.9719,1027.5 239.2375,1027.5 Q239.7063,1027.5 240.0031,1027.7813 Q240.3,1028.0625 240.3,1028.7188 L240.3,1030.2813 Q240.3,1030.9375 240.0188,1031.2188 Q239.7375,1031.5 239.3,1031.5 Q238.9094,1031.5 238.6594,1031.3281 Q238.4094,1031.1563 238.3,1030.7031 Q238.2531,1030.3906 238.0813,1030.2188 Q237.7688,1029.8906 237.2063,1029.7031 Q236.6438,1029.5 236.0813,1029.5 Q235.3781,1029.5 234.7844,1029.7813 Q234.2063,1030.0625 233.7531,1030.6875 Q233.3,1031.3125 233.3,1032.1719 L233.3,1033.0938 Q233.3,1034.125 234.1438,1034.8125 Q234.9875,1035.5 236.4875,1035.5 Q237.3781,1035.5 238.0031,1035.2969 Q238.3625,1035.1875 238.7688,1034.8281 Q239.0344,1034.625 239.175,1034.5625 Q239.3156,1034.5 239.4875,1034.5 Q239.8156,1034.5 240.05,1034.7656 Q240.3,1035.0156 240.3,1035.375 Q240.3,1035.7188 239.9563,1036.125 Q239.4563,1036.7188 238.6594,1037.0469 Q237.6125,1037.5 236.3313,1037.5 Q234.8313,1037.5 233.6281,1036.9063 Q232.6594,1036.4375 231.9719,1035.4219 Q231.3,1034.4063 231.3,1033.2031 L231.3,1032.1094 Q231.3,1030.8594 231.8938,1029.7656 Q232.5031,1028.6719 233.55,1028.0938 Q234.6125,1027.5 235.8,1027.5 Q236.5188,1027.5 237.1438,1027.75 Q237.7688,1028 238.3,1028.5 Z " fill="#000000"/><text fill="#000000" font-family="sans-serif" font-size="12" lengthAdjust="spacing" textLength="50" x="251.7" y="1036.9102">TestType</text><line style="stroke:#A80036;stroke-width:1.5;" x1="216" x2="310" y1="1048" y2="1048"/><text fill="#000000" font-family="sans-serif" font-size="11" lengthAdjust="spacing" textLength="28" x="221" y="1063.4189">-code</text><text fill="#000000" font-family="sans-serif" font-size="11" lengthAdjust="spacing" textLength="57" x="221" y="1077.2549">-description</text><text fill="#000000" font-family="sans-serif" font-size="11" lengthAdjust="spacing" textLength="84" x="221" y="1091.0908">-collectingMethod</text><!--MD5=[df38be88ccee13e832d6fafd6288a4ca]
class Test--><rect codeLine="228" fill="#FEFECE" filter="url(#fun94e9it043q)" height="136.8516" id="Test" style="stroke:#A80036;stroke-width:1.5;" width="144" x="1990.5" y="793.5"/><ellipse cx="2046.25" cy="809.5" fill="#ADD1B2" rx="11" ry="11" style="stroke:#A80036;stroke-width:1.0;"/><path d="M2048.25,806 Q2048.4531,805.5 2048.6875,805.25 Q2048.9219,805 2049.1875,805 Q2049.6563,805 2049.9531,805.2813 Q2050.25,805.5625 2050.25,806.2188 L2050.25,807.7813 Q2050.25,808.4375 2049.9688,808.7188 Q2049.6875,809 2049.25,809 Q2048.8594,809 2048.6094,808.8281 Q2048.3594,808.6563 2048.25,808.2031 Q2048.2031,807.8906 2048.0313,807.7188 Q2047.7188,807.3906 2047.1563,807.2031 Q2046.5938,807 2046.0313,807 Q2045.3281,807 2044.7344,807.2813 Q2044.1563,807.5625 2043.7031,808.1875 Q2043.25,808.8125 2043.25,809.6719 L2043.25,810.5938 Q2043.25,811.625 2044.0938,812.3125 Q2044.9375,813 2046.4375,813 Q2047.3281,813 2047.9531,812.7969 Q2048.3125,812.6875 2048.7188,812.3281 Q2048.9844,812.125 2049.125,812.0625 Q2049.2656,812 2049.4375,812 Q2049.7656,812 2050,812.2656 Q2050.25,812.5156 2050.25,812.875 Q2050.25,813.2188 2049.9063,813.625 Q2049.4063,814.2188 2048.6094,814.5469 Q2047.5625,815 2046.2813,815 Q2044.7813,815 2043.5781,814.4063 Q2042.6094,813.9375 2041.9219,812.9219 Q2041.25,811.9063 2041.25,810.7031 L2041.25,809.6094 Q2041.25,808.3594 2041.8438,807.2656 Q2042.4531,806.1719 2043.5,805.5938 Q2044.5625,805 2045.75,805 Q2046.4688,805 2047.0938,805.25 Q2047.7188,805.5 2048.25,806 Z " fill="#000000"/><text fill="#000000" font-family="sans-serif" font-size="12" lengthAdjust="spacing" textLength="24" x="2066.75" y="814.4102">Test</text><line style="stroke:#A80036;stroke-width:1.5;" x1="1991.5" x2="2133.5" y1="825.5" y2="825.5"/><text fill="#000000" font-family="sans-serif" font-size="11" lengthAdjust="spacing" textLength="57" x="1996.5" y="840.9189">-description</text><text fill="#000000" font-family="sans-serif" font-size="11" lengthAdjust="spacing" textLength="28" x="1996.5" y="854.7549">-code</text><text fill="#000000" font-family="sans-serif" font-size="11" lengthAdjust="spacing" textLength="47" x="1996.5" y="868.5908">-nhsCode</text><text fill="#000000" font-family="sans-serif" font-size="11" lengthAdjust="spacing" textLength="79" x="1996.5" y="882.4268">-collectDateTime</text><text fill="#000000" font-family="sans-serif" font-size="11" lengthAdjust="spacing" textLength="132" x="1996.5" y="896.2627">-chemicalAnalysisDateTime</text><text fill="#000000" font-family="sans-serif" font-size="11" lengthAdjust="spacing" textLength="94" x="1996.5" y="910.0986">-diagnosisDateTime</text><text fill="#000000" font-family="sans-serif" font-size="11" lengthAdjust="spacing" textLength="93" x="1996.5" y="923.9346">-validationDateTime</text><!--MD5=[76b5e19c9337179d2d7ae334371d68c8]
class Notification--><rect codeLine="27" fill="#FEFECE" filter="url(#fun94e9it043q)" height="40" id="Notification" style="stroke:#A80036;stroke-width:1.5;" width="93" x="3149.5" y="853"/><ellipse cx="3164.5" cy="869" fill="#ADD1B2" rx="11" ry="11" style="stroke:#A80036;stroke-width:1.0;"/><path d="M3166.5,865.5 Q3166.7031,865 3166.9375,864.75 Q3167.1719,864.5 3167.4375,864.5 Q3167.9063,864.5 3168.2031,864.7813 Q3168.5,865.0625 3168.5,865.7188 L3168.5,867.2813 Q3168.5,867.9375 3168.2188,868.2188 Q3167.9375,868.5 3167.5,868.5 Q3167.1094,868.5 3166.8594,868.3281 Q3166.6094,868.1563 3166.5,867.7031 Q3166.4531,867.3906 3166.2813,867.2188 Q3165.9688,866.8906 3165.4063,866.7031 Q3164.8438,866.5 3164.2813,866.5 Q3163.5781,866.5 3162.9844,866.7813 Q3162.4063,867.0625 3161.9531,867.6875 Q3161.5,868.3125 3161.5,869.1719 L3161.5,870.0938 Q3161.5,871.125 3162.3438,871.8125 Q3163.1875,872.5 3164.6875,872.5 Q3165.5781,872.5 3166.2031,872.2969 Q3166.5625,872.1875 3166.9688,871.8281 Q3167.2344,871.625 3167.375,871.5625 Q3167.5156,871.5 3167.6875,871.5 Q3168.0156,871.5 3168.25,871.7656 Q3168.5,872.0156 3168.5,872.375 Q3168.5,872.7188 3168.1563,873.125 Q3167.6563,873.7188 3166.8594,874.0469 Q3165.8125,874.5 3164.5313,874.5 Q3163.0313,874.5 3161.8281,873.9063 Q3160.8594,873.4375 3160.1719,872.4219 Q3159.5,871.4063 3159.5,870.2031 L3159.5,869.1094 Q3159.5,867.8594 3160.0938,866.7656 Q3160.7031,865.6719 3161.75,865.0938 Q3162.8125,864.5 3164,864.5 Q3164.7188,864.5 3165.3438,864.75 Q3165.9688,865 3166.5,865.5 Z " fill="#000000"/><text fill="#000000" font-family="sans-serif" font-size="12" lengthAdjust="spacing" textLength="61" x="3178.5" y="873.9102">Notification</text><line style="stroke:#A80036;stroke-width:1.5;" x1="3150.5" x2="3241.5" y1="885" y2="885"/><!--MD5=[0a105ea8d9af02dadec02d3e239f1d60]
class NHS--><rect codeLine="28" fill="#FEFECE" filter="url(#fun94e9it043q)" height="40" id="NHS" style="stroke:#A80036;stroke-width:1.5;" width="58" x="2853.5" y="911"/><ellipse cx="2868.5" cy="927" fill="#ADD1B2" rx="11" ry="11" style="stroke:#A80036;stroke-width:1.0;"/><path d="M2870.5,923.5 Q2870.7031,923 2870.9375,922.75 Q2871.1719,922.5 2871.4375,922.5 Q2871.9063,922.5 2872.2031,922.7813 Q2872.5,923.0625 2872.5,923.7188 L2872.5,925.2813 Q2872.5,925.9375 2872.2188,926.2188 Q2871.9375,926.5 2871.5,926.5 Q2871.1094,926.5 2870.8594,926.3281 Q2870.6094,926.1563 2870.5,925.7031 Q2870.4531,925.3906 2870.2813,925.2188 Q2869.9688,924.8906 2869.4063,924.7031 Q2868.8438,924.5 2868.2813,924.5 Q2867.5781,924.5 2866.9844,924.7813 Q2866.4063,925.0625 2865.9531,925.6875 Q2865.5,926.3125 2865.5,927.1719 L2865.5,928.0938 Q2865.5,929.125 2866.3438,929.8125 Q2867.1875,930.5 2868.6875,930.5 Q2869.5781,930.5 2870.2031,930.2969 Q2870.5625,930.1875 2870.9688,929.8281 Q2871.2344,929.625 2871.375,929.5625 Q2871.5156,929.5 2871.6875,929.5 Q2872.0156,929.5 2872.25,929.7656 Q2872.5,930.0156 2872.5,930.375 Q2872.5,930.7188 2872.1563,931.125 Q2871.6563,931.7188 2870.8594,932.0469 Q2869.8125,932.5 2868.5313,932.5 Q2867.0313,932.5 2865.8281,931.9063 Q2864.8594,931.4375 2864.1719,930.4219 Q2863.5,929.4063 2863.5,928.2031 L2863.5,927.1094 Q2863.5,925.8594 2864.0938,924.7656 Q2864.7031,923.6719 2865.75,923.0938 Q2866.8125,922.5 2868,922.5 Q2868.7188,922.5 2869.3438,922.75 Q2869.9688,923 2870.5,923.5 Z " fill="#000000"/><text fill="#000000" font-family="sans-serif" font-size="12" lengthAdjust="spacing" textLength="26" x="2882.5" y="931.9102">NHS</text><line style="stroke:#A80036;stroke-width:1.5;" x1="2854.5" x2="2910.5" y1="943" y2="943"/><!--MD5=[9681492165142af2a4a3a169d90ee8d4]
class Sample--><rect codeLine="238" fill="#FEFECE" filter="url(#fun94e9it043q)" height="53.8359" id="Sample" style="stroke:#A80036;stroke-width:1.5;" width="75" x="1757" y="700"/><ellipse cx="1772" cy="716" fill="#ADD1B2" rx="11" ry="11" style="stroke:#A80036;stroke-width:1.0;"/><path d="M1774,712.5 Q1774.2031,712 1774.4375,711.75 Q1774.6719,711.5 1774.9375,711.5 Q1775.4063,711.5 1775.7031,711.7813 Q1776,712.0625 1776,712.7188 L1776,714.2813 Q1776,714.9375 1775.7188,715.2188 Q1775.4375,715.5 1775,715.5 Q1774.6094,715.5 1774.3594,715.3281 Q1774.1094,715.1563 1774,714.7031 Q1773.9531,714.3906 1773.7813,714.2188 Q1773.4688,713.8906 1772.9063,713.7031 Q1772.3438,713.5 1771.7813,713.5 Q1771.0781,713.5 1770.4844,713.7813 Q1769.9063,714.0625 1769.4531,714.6875 Q1769,715.3125 1769,716.1719 L1769,717.0938 Q1769,718.125 1769.8438,718.8125 Q1770.6875,719.5 1772.1875,719.5 Q1773.0781,719.5 1773.7031,719.2969 Q1774.0625,719.1875 1774.4688,718.8281 Q1774.7344,718.625 1774.875,718.5625 Q1775.0156,718.5 1775.1875,718.5 Q1775.5156,718.5 1775.75,718.7656 Q1776,719.0156 1776,719.375 Q1776,719.7188 1775.6563,720.125 Q1775.1563,720.7188 1774.3594,721.0469 Q1773.3125,721.5 1772.0313,721.5 Q1770.5313,721.5 1769.3281,720.9063 Q1768.3594,720.4375 1767.6719,719.4219 Q1767,718.4063 1767,717.2031 L1767,716.1094 Q1767,714.8594 1767.5938,713.7656 Q1768.2031,712.6719 1769.25,712.0938 Q1770.3125,711.5 1771.5,711.5 Q1772.2188,711.5 1772.8438,711.75 Q1773.4688,712 1774,712.5 Z " fill="#000000"/><text fill="#000000" font-family="sans-serif" font-size="12" lengthAdjust="spacing" textLength="43" x="1786" y="720.9102">Sample</text><line style="stroke:#A80036;stroke-width:1.5;" x1="1758" x2="1831" y1="732" y2="732"/><text fill="#000000" font-family="sans-serif" font-size="11" lengthAdjust="spacing" textLength="44" x="1763" y="747.4189">-barcode</text><!--MD5=[12d76240d3c3c66074d4ec2ea8bf469c]
link Company to Parameter--><path codeLine="31" d="M524.34,1074.08 C533.96,1077.48 544.23,1080.7 554,1083 C902.92,1165.08 1337.64,1186.67 1476.04,1191.65 " fill="none" id="Company-Parameter" style="stroke:#A80036;stroke-width:1.0;"/><polygon fill="#000000" points="872.9623,1129.7888,864.3458,1125.7631,863.6251,1131.5966,872.9623,1129.7888" style="stroke:#000000;stroke-width:1.0;"/><text fill="#000000" font-family="sans-serif" font-size="13" lengthAdjust="spacing" textLength="118" x="877" y="1134.4951">capable of analysing</text><text fill="#000000" font-family="sans-serif" font-size="13" lengthAdjust="spacing" textLength="7" x="532.0151" y="1091.7717">1</text><text fill="#000000" font-family="sans-serif" font-size="13" lengthAdjust="spacing" textLength="5" x="1463.3964" y="1206.2722">*</text><!--MD5=[09366576ee87d48d594df10cacc83f45]
link Company to Employee--><path codeLine="33" d="M500.13,1029.77 C533.01,978.96 604.56,868.42 650.8,796.98 " fill="none" id="Company-Employee" style="stroke:#A80036;stroke-width:1.0;"/><polygon fill="#000000" points="556.2832,841.3733,563.6652,835.3768,558.7307,832.183,556.2832,841.3733" style="stroke:#000000;stroke-width:1.0;"/><text fill="#000000" font-family="sans-serif" font-size="13" lengthAdjust="spacing" textLength="52" x="568" y="842.4951">works for</text><text fill="#000000" font-family="sans-serif" font-size="13" lengthAdjust="spacing" textLength="7" x="496.6288" y="1019.1778">1</text><text fill="#000000" font-family="sans-serif" font-size="13" lengthAdjust="spacing" textLength="5" x="639.3031" y="820.9137">*</text><!--MD5=[93b4f25fb503a8e0e9a46b1d30ff3f44]
link Company to ParameterCategory--><path codeLine="35" d="M495.1,1084.28 C506.99,1106.77 527.02,1137.57 554,1154 C603.86,1184.36 984.41,1232.18 1142.73,1251.01 " fill="none" id="Company-ParameterCategory" style="stroke:#A80036;stroke-width:1.0;"/><polygon fill="#000000" points="777.8421,1193.4224,769.8154,1188.3212,768.3499,1194.0134,777.8421,1193.4224" style="stroke:#000000;stroke-width:1.0;"/><text fill="#000000" font-family="sans-serif" font-size="13" lengthAdjust="spacing" textLength="39" x="782" y="1197.4951">adopts</text><text fill="#000000" font-family="sans-serif" font-size="13" lengthAdjust="spacing" textLength="7" x="490.3094" y="1105.549">1</text><text fill="#000000" font-family="sans-serif" font-size="13" lengthAdjust="spacing" textLength="5" x="1129.8255" y="1264.5524">*</text><!--MD5=[eaea43e34e45c5b9d20b595fc78f1f20]
link Company to Administrator--><path codeLine="37" d="M486.12,1084.05 C492.67,1121.7 510.11,1189.29 554,1225 C647.86,1301.38 798.22,1306.97 876.83,1303.89 " fill="none" id="Company-Administrator" style="stroke:#A80036;stroke-width:1.0;"/><polygon fill="#000000" points="677.8576,1270.6276,671.4158,1263.6309,668.5335,1268.7535,677.8576,1270.6276" style="stroke:#000000;stroke-width:1.0;"/><text fill="#000000" font-family="sans-serif" font-size="13" lengthAdjust="spacing" textLength="37" x="682.5" y="1273.4951">knows</text><text fill="#000000" font-family="sans-serif" font-size="13" lengthAdjust="spacing" textLength="7" x="479.365" y="1105.2687">1</text><text fill="#000000" font-family="sans-serif" font-size="13" lengthAdjust="spacing" textLength="5" x="864.0717" y="1300.8319">*</text><!--MD5=[70c37dc9bfbc8656942103c36f1181e4]
link User to Role--><path codeLine="39" d="M3704.5,216.48 C3754.19,178.4 3849.41,105.43 3900,66.67 " fill="none" id="User-Role" style="stroke:#A80036;stroke-width:1.0;"/><polygon fill="#000000" points="3764.4688,124.1346,3755.5016,127.3034,3759.0768,131.969,3764.4688,124.1346" style="stroke:#000000;stroke-width:1.0;"/><text fill="#000000" font-family="sans-serif" font-size="13" lengthAdjust="spacing" textLength="42" x="3769.5" y="132.4951">plays a</text><text fill="#000000" font-family="sans-serif" font-size="13" lengthAdjust="spacing" textLength="7" x="3712.4844" y="226.4537">1</text><text fill="#000000" font-family="sans-serif" font-size="13" lengthAdjust="spacing" textLength="7" x="3885.1625" y="87.1796">1</text><!--MD5=[22fb9506fac029fc1d2ae00f0eb8d606]
link Employee to User--><path codeLine="41" d="M697.04,662.28 C704.13,525.66 741.17,233 928.5,233 C928.5,233 928.5,233 2223.5,233 C2571.07,233 2657.93,241 3005.5,241 C3005.5,241 3005.5,241 3455.5,241 C3520.45,241 3596.43,241 3638.45,241 " fill="none" id="Employee-User" style="stroke:#A80036;stroke-width:1.0;"/><polygon fill="#000000" points="2214.4495,223.4669,2205.0791,221.84,2205.9124,227.6585,2214.4495,223.4669" style="stroke:#000000;stroke-width:1.0;"/><text fill="#000000" font-family="sans-serif" font-size="13" lengthAdjust="spacing" textLength="21" x="2218.5" y="229.4951">is a</text><text fill="#000000" font-family="sans-serif" font-size="13" lengthAdjust="spacing" textLength="7" x="689.935" y="651.4112">1</text><text fill="#000000" font-family="sans-serif" font-size="13" lengthAdjust="spacing" textLength="7" x="3623.4547" y="256.3374">1</text><!--MD5=[9a8dc34b38f85b9f3fcdb440f4bffc6a]
link Client to User--><path codeLine="43" d="M3494.19,587.07 C3539.7,497.72 3613.62,352.65 3649.55,282.11 " fill="none" id="Client-User" style="stroke:#A80036;stroke-width:1.0;"/><polygon fill="#000000" points="3547.7697,388.7206,3541.0451,395.446,3546.2825,398.1142,3547.7697,388.7206" style="stroke:#000000;stroke-width:1.0;"/><text fill="#000000" font-family="sans-serif" font-size="13" lengthAdjust="spacing" textLength="21" x="3554.5" y="398.4951">is a</text><text fill="#000000" font-family="sans-serif" font-size="13" lengthAdjust="spacing" textLength="7" x="3490.6394" y="576.5972">1</text><text fill="#000000" font-family="sans-serif" font-size="13" lengthAdjust="spacing" textLength="7" x="3638.812" y="302.8801">1</text><!--MD5=[4c7c52c4bf7e982cdae6fb6daeda4b43]
reverse link Employee to ClinicalChemistryTechnologist--><path codeLine="45" d="M727.89,643.75 C753.47,585.88 794.5,512.34 852,466 C1038.16,315.96 1125.9,304 1365,304 C1365,304 1365,304 2223.5,304 C2611.53,304 2728.4,341.71 3066,533 C3113.84,560.11 3157.19,609.01 3179.39,636.61 " fill="none" id="Employee-backto-ClinicalChemistryTechnologist" style="stroke:#A80036;stroke-width:1.0;"/><polygon fill="none" points="734.25,646.68,719.96,662.32,721.38,641.18,734.25,646.68" style="stroke:#A80036;stroke-width:1.0;"/><text fill="#000000" font-family="sans-serif" font-size="13" lengthAdjust="spacing" textLength="5" x="717.4713" y="651.4556">*</text><text fill="#000000" font-family="sans-serif" font-size="13" lengthAdjust="spacing" textLength="5" x="3169.0153" y="626.1699">*</text><!--MD5=[f7fb1bbd8b4f4021e9754ae6fe2871a0]
reverse link Employee to Administrator--><path codeLine="47" d="M719.18,818.99 C745.7,911.76 792.84,1060.95 852,1182 C869.69,1218.19 896.36,1256.75 913.08,1279.59 " fill="none" id="Employee-backto-Administrator" style="stroke:#A80036;stroke-width:1.0;"/><polygon fill="none" points="712.38,820.67,713.68,799.52,725.85,816.86,712.38,820.67" style="stroke:#A80036;stroke-width:1.0;"/><text fill="#000000" font-family="sans-serif" font-size="13" lengthAdjust="spacing" textLength="7" x="708.297" y="820.932">1</text><text fill="#000000" font-family="sans-serif" font-size="13" lengthAdjust="spacing" textLength="20" x="885.6494" y="1269.1442">1..*</text><!--MD5=[bfff716514ca687b645fe473c6e098a4]
reverse link Employee to Receptionist--><path codeLine="49" d="M757.76,744.98 C865.86,769.95 1094.66,825.83 1282,892 C1546.24,985.33 1603.61,1030.85 1860,1144 C1949.73,1183.6 1963.42,1234 2061.5,1234 C2061.5,1234 2061.5,1234 3455.5,1234 C3559.04,1234 3634.62,1108.31 3660.63,1058.24 " fill="none" id="Employee-backto-Receptionist" style="stroke:#A80036;stroke-width:1.0;"/><polygon fill="none" points="756.03,751.77,738.1,740.48,759.16,738.12,756.03,751.77" style="stroke:#A80036;stroke-width:1.0;"/><text fill="#000000" font-family="sans-serif" font-size="13" lengthAdjust="spacing" textLength="5" x="746.0234" y="757.0225">*</text><text fill="#000000" font-family="sans-serif" font-size="13" lengthAdjust="spacing" textLength="20" x="3635.0212" y="1079.3719">1..*</text><!--MD5=[8c76900db13228c02bafda6909b4bb57]
reverse link Employee to MedicalLabTechnician--><path codeLine="51" d="M758.07,733.81 C905.26,741.39 1284.31,766.49 1593,835 C1673.97,852.97 1900.2,932.9 2005.84,970.86 " fill="none" id="Employee-backto-MedicalLabTechnician" style="stroke:#A80036;stroke-width:1.0;"/><polygon fill="none" points="757.7,740.8,738.07,732.82,758.39,726.82,757.7,740.8" style="stroke:#A80036;stroke-width:1.0;"/><text fill="#000000" font-family="sans-serif" font-size="13" lengthAdjust="spacing" textLength="5" x="745.9883" y="748.0459">*</text><text fill="#000000" font-family="sans-serif" font-size="13" lengthAdjust="spacing" textLength="5" x="1983.4618" y="960.1406">*</text><!--MD5=[7dae17bb55c59b06af656d7c83a51371]
reverse link Employee to LaboratoryCoordinator--><path codeLine="53" d="M750.83,657.49 C778.92,622.89 814.91,582.43 852,551 C863.77,541.02 877.88,531.73 890.76,524.09 " fill="none" id="Employee-backto-LaboratoryCoordinator" style="stroke:#A80036;stroke-width:1.0;"/><polygon fill="none" points="756.05,662.17,738.1,673.43,745.11,653.43,756.05,662.17" style="stroke:#A80036;stroke-width:1.0;"/><text fill="#000000" font-family="sans-serif" font-size="13" lengthAdjust="spacing" textLength="5" x="746.0234" y="678.4482">*</text><text fill="#000000" font-family="sans-serif" font-size="13" lengthAdjust="spacing" textLength="20" x="857.0519" y="545.5349">1..*</text><!--MD5=[c3a86c626b5b742f72786125539e9227]
link ClinicalChemistryTechnologist to ChemicalLaboratory--><path codeLine="55" d="M3164.11,636.98 C3114.45,606.12 3012.7,548.27 2917,527 C2887.06,520.35 2878.67,526.8 2848,527 C2606.65,528.56 2546.22,526.13 2305,534 C2042.25,542.57 1730.28,561.57 1593.14,570.36 " fill="none" id="ClinicalChemistryTechnologist-ChemicalLaboratory" style="stroke:#A80036;stroke-width:1.0;"/><polygon fill="#000000" points="2336.0045,521.9639,2344.9169,525.2835,2345.166,519.4109,2336.0045,521.9639" style="stroke:#000000;stroke-width:1.0;"/><text fill="#000000" font-family="sans-serif" font-size="13" lengthAdjust="spacing" textLength="49" x="2350" y="527.4951">works at</text><text fill="#000000" font-family="sans-serif" font-size="13" lengthAdjust="spacing" textLength="5" x="3149.0079" y="626.2959">*</text><text fill="#000000" font-family="sans-serif" font-size="13" lengthAdjust="spacing" textLength="7" x="1600.8888" y="584.2197">1</text><!--MD5=[738f0445d4a0804ca0738b44323ae22b]
link MedicalLabTechnician to ClinicalAnalysisLaboratory--><path codeLine="57" d="M2099.13,1011.2 C2154.56,1040.67 2265.65,1092 2367,1092 C2367,1092 2367,1092 2774,1092 C3113.26,1092 3188.92,999.32 3526,961 C3635.82,948.51 3763.12,943.08 3845.81,940.73 " fill="none" id="MedicalLabTechnician-ClinicalAnalysisLaboratory" style="stroke:#A80036;stroke-width:1.0;"/><polygon fill="#000000" points="2984.4959,1052.9742,2975.3397,1050.4023,2975.5767,1056.2754,2984.4959,1052.9742" style="stroke:#000000;stroke-width:1.0;"/><text fill="#000000" font-family="sans-serif" font-size="13" lengthAdjust="spacing" textLength="49" x="2988.5" y="1058.4951">works at</text><text fill="#000000" font-family="sans-serif" font-size="13" lengthAdjust="spacing" textLength="20" x="2086.2868" y="1032.3211">1..*</text><text fill="#000000" font-family="sans-serif" font-size="13" lengthAdjust="spacing" textLength="5" x="3832.9734" y="955.0834">*</text><!--MD5=[6cd0a3af2322bf46f6c633408da71c74]
link Receptionist to ClinicalAnalysisLaboratory--><path codeLine="59" d="M3722.21,1019.15 C3761.84,1004.11 3817.88,982.86 3862.28,966.01 " fill="none" id="Receptionist-ClinicalAnalysisLaboratory" style="stroke:#A80036;stroke-width:1.0;"/><polygon fill="#000000" points="3761.6749,974.4022,3752.1755,974.8628,3754.2604,980.3584,3761.6749,974.4022" style="stroke:#000000;stroke-width:1.0;"/><text fill="#000000" font-family="sans-serif" font-size="13" lengthAdjust="spacing" textLength="49" x="3766" y="981.4951">works at</text><text fill="#000000" font-family="sans-serif" font-size="13" lengthAdjust="spacing" textLength="20" x="3729.9885" y="1031.2775">1..*</text><text fill="#000000" font-family="sans-serif" font-size="13" lengthAdjust="spacing" textLength="5" x="3840.935" y="987.22">*</text><!--MD5=[4d5641458326529fdf5c82259a5ad32d]
link LaboratoryCoordinator to Laboratory--><path codeLine="61" d="M987.36,483.97 C1040.45,465.26 1118.57,437.74 1167.17,420.62 " fill="none" id="LaboratoryCoordinator-Laboratory" style="stroke:#A80036;stroke-width:1.0;"/><polygon fill="#000000" points="1047.2159,429.5143,1037.7082,429.748,1039.6614,435.2919,1047.2159,429.5143" style="stroke:#000000;stroke-width:1.0;"/><text fill="#000000" font-family="sans-serif" font-size="13" lengthAdjust="spacing" textLength="60" x="1051.5" y="436.4951">works at a</text><text fill="#000000" font-family="sans-serif" font-size="13" lengthAdjust="spacing" textLength="20" x="981.4189" y="473.2829">1..*</text><text fill="#000000" font-family="sans-serif" font-size="13" lengthAdjust="spacing" textLength="5" x="1154.5471" y="437.8802">*</text><!--MD5=[de3aa179ee7f21b344f648244b25a961]
link ChemicalLaboratory to Company--><path codeLine="63" d="M1506.3,595.17 C1459.13,660.35 1300.04,866.3 1113,955 C886.45,1062.43 797.43,970.93 554,1031 C544.13,1033.44 533.72,1036.76 524,1040.22 " fill="none" id="ChemicalLaboratory-Company" style="stroke:#A80036;stroke-width:1.0;"/><polygon fill="#000000" points="916.5544,984.1123,907.1026,985.1682,909.5283,990.5221,916.5544,984.1123" style="stroke:#000000;stroke-width:1.0;"/><text fill="#000000" font-family="sans-serif" font-size="13" lengthAdjust="spacing" textLength="30" x="921" y="991.4951">owns</text><text fill="#000000" font-family="sans-serif" font-size="13" lengthAdjust="spacing" textLength="7" x="1494.0406" y="616.6374">1</text><text fill="#000000" font-family="sans-serif" font-size="13" lengthAdjust="spacing" textLength="7" x="531.9063" y="1052.2504">1</text><!--MD5=[47855ee4dabeea37c5949a17ed9e3a41]
link ChemicalLaboratory to Sample--><path codeLine="65" d="M1570.71,595.06 C1614.74,613.65 1676.31,640.42 1699,654 C1721.24,667.31 1744.29,685.02 1762.06,699.67 " fill="none" id="ChemicalLaboratory-Sample" style="stroke:#A80036;stroke-width:1.0;"/><polygon fill="#000000" points="1627.1128,607.7773,1633.6395,614.6949,1636.4591,609.5374,1627.1128,607.7773" style="stroke:#000000;stroke-width:1.0;"/><text fill="#000000" font-family="sans-serif" font-size="13" lengthAdjust="spacing" textLength="54" x="1640.5" y="615.4951">is sent to</text><text fill="#000000" font-family="sans-serif" font-size="13" lengthAdjust="spacing" textLength="7" x="1576.5659" y="616.4964">1</text><text fill="#000000" font-family="sans-serif" font-size="13" lengthAdjust="spacing" textLength="5" x="1748.9801" y="689.0547">*</text><!--MD5=[fdfe1f7a1d4f9a6f0814f21c5f7b0d38]
link ClinicalAnalysisLaboratory to Company--><path codeLine="67" d="M3931.11,911.53 C3917.77,766.76 3846.78,99 3672.5,99 C3005.5,99 3005.5,99 3005.5,99 C2781.08,99 2728.92,162 2504.5,162 C1074,162 1074,162 1074,162 C927.75,162 854.3,164.93 768,283 C582.49,536.81 505.21,924.4 486.94,1029.76 " fill="none" id="ClinicalAnalysisLaboratory-Company" style="stroke:#A80036;stroke-width:1.0;"/><polygon fill="#000000" points="2209.9971,153.0042,2200.8565,150.3774,2201.0581,156.2518,2209.9971,153.0042" style="stroke:#000000;stroke-width:1.0;"/><text fill="#000000" font-family="sans-serif" font-size="13" lengthAdjust="spacing" textLength="30" x="2214" y="158.4951">owns</text><text fill="#000000" font-family="sans-serif" font-size="13" lengthAdjust="spacing" textLength="5" x="3924.8216" y="901.3225">*</text><text fill="#000000" font-family="sans-serif" font-size="13" lengthAdjust="spacing" textLength="7" x="480.3886" y="1019.1655">1</text><!--MD5=[38773adfcb560b2ecbe80133f36e08b9]
reverse link Laboratory to ChemicalLaboratory--><path codeLine="69" d="M1275.37,439.26 C1338.08,473.98 1432.96,526.53 1484.35,554.98 " fill="none" id="Laboratory-backto-ChemicalLaboratory" style="stroke:#A80036;stroke-width:1.0;"/><polygon fill="none" points="1271.92,445.35,1257.81,429.54,1278.7,433.1,1271.92,445.35" style="stroke:#A80036;stroke-width:1.0;"/><text fill="#000000" font-family="sans-serif" font-size="13" lengthAdjust="spacing" textLength="7" x="1265.5891" y="448.2218">1</text><text fill="#000000" font-family="sans-serif" font-size="13" lengthAdjust="spacing" textLength="7" x="1465.4091" y="544.2959">1</text><!--MD5=[e284e91db30362f23fd6ce34ffcc83e7]
reverse link Laboratory to ClinicalAnalysisLaboratory--><path codeLine="71" d="M1277.61,395.07 C1339.6,386.33 1436.24,375 1520.5,375 C1520.5,375 1520.5,375 2223.5,375 C2467.77,375 2527.73,340 2772,340 C2772,340 2772,340 3672.5,340 C3925.46,340 3935.76,794.52 3934.22,911.71 " fill="none" id="Laboratory-backto-ClinicalAnalysisLaboratory" style="stroke:#A80036;stroke-width:1.0;"/><polygon fill="none" points="1278.4,402.03,1257.6,397.97,1276.39,388.17,1278.4,402.03" style="stroke:#A80036;stroke-width:1.0;"/><text fill="#000000" font-family="sans-serif" font-size="13" lengthAdjust="spacing" textLength="7" x="1265.6494" y="411.6264">1</text><text fill="#000000" font-family="sans-serif" font-size="13" lengthAdjust="spacing" textLength="7" x="3934.9646" y="901.1039">1</text><!--MD5=[7144ffdeebbe38808f7fb2ce8ac24f7d]
link Administrator to ParameterCategory--><path codeLine="73" d="M982.04,1292.48 C1027.2,1285.89 1093.18,1276.26 1142.81,1269.02 " fill="none" id="Administrator-ParameterCategory" style="stroke:#A80036;stroke-width:1.0;"/><polygon fill="#000000" points="1037.0524,1264.8977,1046.4271,1266.4998,1045.5783,1260.6836,1037.0524,1264.8977" style="stroke:#000000;stroke-width:1.0;"/><text fill="#000000" font-family="sans-serif" font-size="13" lengthAdjust="spacing" textLength="61" x="1051" y="1269.4951">created by</text><text fill="#000000" font-family="sans-serif" font-size="13" lengthAdjust="spacing" textLength="5" x="990.124" y="1306.0714">*</text><text fill="#000000" font-family="sans-serif" font-size="13" lengthAdjust="spacing" textLength="5" x="1129.9142" y="1284.5322">*</text><!--MD5=[49f9c994ab9013da19f25c37bbd596b3]
link SpecialistDoctor to Result--><path codeLine="75" d="M2682.15,663.24 C2720.36,687.97 2775.93,726.77 2818,768 C2837.83,787.43 2856.64,813.28 2868.56,830.94 " fill="none" id="SpecialistDoctor-Result" style="stroke:#A80036;stroke-width:1.0;"/><polygon fill="#000000" points="2731.7828,682.8317,2736.5417,691.0661,2740.4728,686.6963,2731.7828,682.8317" style="stroke:#000000;stroke-width:1.0;"/><text fill="#000000" font-family="sans-serif" font-size="13" lengthAdjust="spacing" textLength="70" x="2744.5" y="691.4951">analyzed by</text><text fill="#000000" font-family="sans-serif" font-size="13" lengthAdjust="spacing" textLength="7" x="2684.2609" y="684.5003">1</text><text fill="#000000" font-family="sans-serif" font-size="13" lengthAdjust="spacing" textLength="7" x="2856.437" y="820.2441">1</text><!--MD5=[372bd27a178b4208a6d241b4516ac7e6]
reverse link Employee to SpecialistDoctor--><path codeLine="77" d="M758.32,719.21 C761.59,718.76 764.83,718.35 768,718 C1130.76,677.7 2297.59,644.93 2575.96,637.55 " fill="none" id="Employee-backto-SpecialistDoctor" style="stroke:#A80036;stroke-width:1.0;"/><polygon fill="none" points="759.14,726.16,738.3,722.35,756.97,712.33,759.14,726.16" style="stroke:#A80036;stroke-width:1.0;"/><text fill="#000000" font-family="sans-serif" font-size="13" lengthAdjust="spacing" textLength="5" x="745.9684" y="735.7789">*</text><text fill="#000000" font-family="sans-serif" font-size="13" lengthAdjust="spacing" textLength="20" x="2548.19" y="652.1178">1..*</text><!--MD5=[98994e1502641fa381021dffe882d56a]
link ClinicalChemistryTechnologist to Sample--><path codeLine="79" d="M3095.71,665.56 C2927.14,679.69 2574.12,707.58 2275,720 C2109.88,726.85 1912.54,727.29 1832.21,727.14 " fill="none" id="ClinicalChemistryTechnologist-Sample" style="stroke:#A80036;stroke-width:1.0;"/><polygon fill="#000000" points="2470.9941,697.9324,2461.8166,695.4373,2462.1028,701.3081,2470.9941,697.9324" style="stroke:#000000;stroke-width:1.0;"/><text fill="#000000" font-family="sans-serif" font-size="13" lengthAdjust="spacing" textLength="70" x="2475" y="703.4951">analyzed by</text><text fill="#000000" font-family="sans-serif" font-size="13" lengthAdjust="spacing" textLength="5" x="3082.8401" y="680.3365">*</text><text fill="#000000" font-family="sans-serif" font-size="13" lengthAdjust="spacing" textLength="20" x="1840.112" y="723.376">1..*</text><!--MD5=[502b51bc079239060389dab43b7d3470]
link Client to Test--><path codeLine="81" d="M3412.95,673.45 C3312.77,698.8 3045.23,763.72 2818,794 C2531.98,832.11 2454.89,788.21 2170,834 C2158.49,835.85 2146.41,838.41 2134.7,841.23 " fill="none" id="Client-Test" style="stroke:#A80036;stroke-width:1.0;"/><polygon fill="#000000" points="2737.9575,784.5251,2728.6068,782.7883,2729.3718,788.6161,2737.9575,784.5251" style="stroke:#000000;stroke-width:1.0;"/><text fill="#000000" font-family="sans-serif" font-size="13" lengthAdjust="spacing" textLength="75" x="2742" y="790.4951">requested by</text><text fill="#000000" font-family="sans-serif" font-size="13" lengthAdjust="spacing" textLength="7" x="3397.9255" y="690.2907">1</text><text fill="#000000" font-family="sans-serif" font-size="13" lengthAdjust="spacing" textLength="5" x="2142.4034" y="853.434">*</text><!--MD5=[7048eb257bae2750d747ca61a113ed73]
link Client to Receptionist--><path codeLine="83" d="M3496.19,733.98 C3546.35,821.46 3628.65,965.01 3658.89,1017.75 " fill="none" id="Client-Receptionist" style="stroke:#A80036;stroke-width:1.0;"/><polygon fill="#000000" points="3528.513,781.8382,3530.4624,791.1468,3535.5616,788.2232,3528.513,781.8382" style="stroke:#000000;stroke-width:1.0;"/><text fill="#000000" font-family="sans-serif" font-size="13" lengthAdjust="spacing" textLength="50" x="3540" y="791.4951">registers</text><text fill="#000000" font-family="sans-serif" font-size="13" lengthAdjust="spacing" textLength="5" x="3502.9566" y="759.6198">*</text><text fill="#000000" font-family="sans-serif" font-size="13" lengthAdjust="spacing" textLength="20" x="3632.2483" y="1006.9983">1..*</text><!--MD5=[b097d9d314264888b7dbeddc95343863]
link LabOrder to Client--><path codeLine="85" d="M51.53,449.89 C58.7,371.54 95.95,91 262,91 C262,91 262,91 2504.5,91 C2949.85,91 3043.54,284.72 3383,573 C3393.59,581.99 3403.66,592.8 3412.7,603.75 " fill="none" id="LabOrder-Client" style="stroke:#A80036;stroke-width:1.0;"/><polygon fill="#000000" points="1632.9948,82.4044,1624.0935,79.055,1623.8248,84.9267,1632.9948,82.4044" style="stroke:#000000;stroke-width:1.0;"/><text fill="#000000" font-family="sans-serif" font-size="13" lengthAdjust="spacing" textLength="61" x="1637" y="87.4951">brought by</text><text fill="#000000" font-family="sans-serif" font-size="13" lengthAdjust="spacing" textLength="7" x="44.2451" y="439.1794">1</text><text fill="#000000" font-family="sans-serif" font-size="13" lengthAdjust="spacing" textLength="5" x="3400.0859" y="608.4936">*</text><!--MD5=[727b58dfd932e2fbda2a273f174e2308]
link LabOrder to Receptionist--><path codeLine="87" d="M49.64,490.44 C47.6,636.6 44.32,1517 262,1517 C262,1517 262,1517 1923.5,1517 C2631.66,1517 2814.6,1452.83 3496,1260 C3539.92,1247.57 3558.4,1252.94 3591,1221 C3638.38,1174.57 3659.36,1095.2 3666.93,1058.16 " fill="none" id="LabOrder-Receptionist" style="stroke:#A80036;stroke-width:1.0;"/><polygon fill="#000000" points="1763.5605,1507.4005,1772.0405,1511.7064,1772.9518,1505.8996,1763.5605,1507.4005" style="stroke:#000000;stroke-width:1.0;"/><text fill="#000000" font-family="sans-serif" font-size="13" lengthAdjust="spacing" textLength="47" x="1777.5" y="1513.4951">receives</text><text fill="#000000" font-family="sans-serif" font-size="13" lengthAdjust="spacing" textLength="7" x="41.8714" y="511.6256">1</text><text fill="#000000" font-family="sans-serif" font-size="13" lengthAdjust="spacing" textLength="20" x="3668.4572" y="1079.6246">1..*</text><!--MD5=[84a279e28ad6c3248737114c29c49c27]
link LabOrder to Test--><path codeLine="89" d="M59.65,449.76 C85.11,399.69 159.24,274 262,274 C262,274 262,274 695.5,274 C840.01,274 734.15,475.37 852,559 C1060.73,707.13 1172.91,587.25 1420,654 C1561.77,692.3 1589.36,725.57 1729,771 C1735.35,773.07 1894.5,816.49 1990.28,842.6 " fill="none" id="LabOrder-Test" style="stroke:#A80036;stroke-width:1.0;"/><polygon fill="#000000" points="883.6004,549.1788,891.8779,553.8623,893.0499,548.1024,883.6004,549.1788" style="stroke:#000000;stroke-width:1.0;"/><text fill="#000000" font-family="sans-serif" font-size="13" lengthAdjust="spacing" textLength="77" x="897.5" y="555.4951">is associated</text><text fill="#000000" font-family="sans-serif" font-size="13" lengthAdjust="spacing" textLength="7" x="54.7503" y="439.0113">1</text><text fill="#000000" font-family="sans-serif" font-size="13" lengthAdjust="spacing" textLength="7" x="1975.4714" y="854.9453">1</text><!--MD5=[fba3ac294f3c76c431d275cef443fef8]
link LabOrder to TestType--><path codeLine="91" d="M57.3,490.21 C87.77,574.57 205.19,899.7 247.06,1015.64 " fill="none" id="LabOrder-TestType" style="stroke:#A80036;stroke-width:1.0;"/><polygon fill="#000000" points="127.6984,672.8785,127.3902,663.3729,121.8618,665.3695,127.6984,672.8785" style="stroke:#000000;stroke-width:1.0;"/><text fill="#000000" font-family="sans-serif" font-size="13" lengthAdjust="spacing" textLength="49" x="135" y="673.4951">contains</text><text fill="#000000" font-family="sans-serif" font-size="13" lengthAdjust="spacing" textLength="7" x="51.59" y="511.3338">1</text><text fill="#000000" font-family="sans-serif" font-size="13" lengthAdjust="spacing" textLength="7" x="236.8403" y="1005.0297">1</text><!--MD5=[8a0bab72ab0281f8a9e78a6f98e5652c]
link Result to ClinicalChemistryTechnologist--><path codeLine="93" d="M2915.66,830.97 C2975.35,793.79 3102.64,714.52 3162.55,677.21 " fill="none" id="Result-ClinicalChemistryTechnologist" style="stroke:#A80036;stroke-width:1.0;"/><polygon fill="#000000" points="2974.7558,736.819,2983.9873,734.532,2980.88,729.5427,2974.7558,736.819" style="stroke:#000000;stroke-width:1.0;"/><text fill="#000000" font-family="sans-serif" font-size="13" lengthAdjust="spacing" textLength="50" x="2988" y="739.4951">registers</text><text fill="#000000" font-family="sans-serif" font-size="13" lengthAdjust="spacing" textLength="5" x="2919.6664" y="820.2829">*</text><text fill="#000000" font-family="sans-serif" font-size="13" lengthAdjust="spacing" textLength="20" x="3130.8728" y="698.3338">1..*</text><!--MD5=[d14b4c18c397fa0293924715644730ec]
link Result to Notification--><path codeLine="95" d="M2916.51,869.3 C2926.06,873.69 2936.7,877.76 2947,880 C3016.24,895.06 3098.89,887.88 3149.14,880.82 " fill="none" id="Result-Notification" style="stroke:#A80036;stroke-width:1.0;"/><polygon fill="#000000" points="2956.9939,871.4231,2948.1052,868.0404,2947.8145,873.911,2956.9939,871.4231" style="stroke:#000000;stroke-width:1.0;"/><text fill="#000000" font-family="sans-serif" font-size="13" lengthAdjust="spacing" textLength="104" x="2961" y="876.4951">is associated with</text><text fill="#000000" font-family="sans-serif" font-size="13" lengthAdjust="spacing" textLength="5" x="2924.4966" y="888.5867">*</text><text fill="#000000" font-family="sans-serif" font-size="13" lengthAdjust="spacing" textLength="20" x="3121.4994" y="896.4646">1..*</text><!--MD5=[e509fed78cd7f855333fe9c80fc7ea15]
link DiagnosisReport to SpecialistDoctor--><path codeLine="97" d="M2431.26,586.92 C2474.87,597.38 2532.82,611.27 2575.94,621.6 " fill="none" id="DiagnosisReport-SpecialistDoctor" style="stroke:#A80036;stroke-width:1.0;"/><polygon fill="#000000" points="2471.1377,585.0103,2479.2486,589.9767,2480.6187,584.2607,2471.1377,585.0103" style="stroke:#000000;stroke-width:1.0;"/><text fill="#000000" font-family="sans-serif" font-size="13" lengthAdjust="spacing" textLength="50" x="2485" y="591.4951">registers</text><text fill="#000000" font-family="sans-serif" font-size="13" lengthAdjust="spacing" textLength="7" x="2438.9791" y="603.0856">1</text><text fill="#000000" font-family="sans-serif" font-size="13" lengthAdjust="spacing" textLength="7" x="2561.0718" y="634.3465">1</text><!--MD5=[91dc3644f358c08f88b60791b947d3a3]
link DiagnosisReport to Client--><path codeLine="99" d="M2431.09,567.25 C2510.2,561.63 2651.18,553 2772,553 C2772,553 2772,553 3197,553 C3278.64,553 3363.94,600.66 3412.7,633.23 " fill="none" id="DiagnosisReport-Client" style="stroke:#A80036;stroke-width:1.0;"/><polygon fill="#000000" points="2857.9887,544.5111,2849.1611,540.9722,2848.7669,546.8368,2857.9887,544.5111" style="stroke:#000000;stroke-width:1.0;"/><text fill="#000000" font-family="sans-serif" font-size="13" lengthAdjust="spacing" textLength="54" x="2862" y="549.4951">is sent to</text><text fill="#000000" font-family="sans-serif" font-size="13" lengthAdjust="spacing" textLength="7" x="2439.2057" y="581.1626">1</text><text fill="#000000" font-family="sans-serif" font-size="13" lengthAdjust="spacing" textLength="7" x="3397.9141" y="643.0405">1</text><!--MD5=[e83232b12920152899b3d956169a0d16]
link DiagnosisReport to LaboratoryCoordinator--><path codeLine="101" d="M2313.58,551.94 C2253.62,531.26 2152.99,502 2063.5,502 C1660,502 1660,502 1660,502 C1421.9,502 1140.08,503.08 1007.17,503.65 " fill="none" id="DiagnosisReport-LaboratoryCoordinator" style="stroke:#A80036;stroke-width:1.0;"/><polygon fill="#000000" points="1638.4966,493.3605,1629.5662,490.0894,1629.3491,495.9633,1638.4966,493.3605" style="stroke:#000000;stroke-width:1.0;"/><text fill="#000000" font-family="sans-serif" font-size="13" lengthAdjust="spacing" textLength="50" x="1642.5" y="498.4951">validates</text><text fill="#000000" font-family="sans-serif" font-size="13" lengthAdjust="spacing" textLength="5" x="2291.8598" y="541.2441">*</text><text fill="#000000" font-family="sans-serif" font-size="13" lengthAdjust="spacing" textLength="7" x="1014.9065" y="517.891">1</text><!--MD5=[b25b37dde2866fd853924cb818679535]
link NHSReport to Result--><path codeLine="103" d="M2684.82,925.1 C2721.95,919.37 2774.63,908.85 2818,891 C2830.53,885.84 2843.36,878.27 2854.18,871.11 " fill="none" id="NHSReport-Result" style="stroke:#A80036;stroke-width:1.0;"/><polygon fill="#000000" points="2737.2362,883.6944,2746.7466,883.7473,2744.9614,878.1471,2737.2362,883.6944" style="stroke:#000000;stroke-width:1.0;"/><text fill="#000000" font-family="sans-serif" font-size="13" lengthAdjust="spacing" textLength="57" x="2751" y="887.4951">generates</text><text fill="#000000" font-family="sans-serif" font-size="13" lengthAdjust="spacing" textLength="20" x="2692.5896" y="938.9009">1..*</text><text fill="#000000" font-family="sans-serif" font-size="13" lengthAdjust="spacing" textLength="7" x="2838.2306" y="892.5605">1</text><!--MD5=[5853f8747c18e89b10dd024359cfe8ec]
link NHSReport to NHS--><path codeLine="105" d="M2684.91,942.2 C2698.71,945 2713.89,947.6 2728,949 C2767.81,952.94 2778.38,954.51 2818,949 C2829.8,947.36 2842.5,944.08 2853.41,940.77 " fill="none" id="NHSReport-NHS" style="stroke:#A80036;stroke-width:1.0;"/><polygon fill="#000000" points="2748.4998,940.1333,2739.4301,937.2713,2739.48,943.1489,2748.4998,940.1333" style="stroke:#000000;stroke-width:1.0;"/><text fill="#000000" font-family="sans-serif" font-size="13" lengthAdjust="spacing" textLength="54" x="2752.5" y="945.4951">is sent to</text><text fill="#000000" font-family="sans-serif" font-size="13" lengthAdjust="spacing" textLength="20" x="2692.3297" y="958.1776">1..*</text><text fill="#000000" font-family="sans-serif" font-size="13" lengthAdjust="spacing" textLength="7" x="2838.4662" y="958.6394">1</text><!--MD5=[7a9e3e328fb1db48284e23a673c1e60d]
link ParameterCategory to Parameter--><path codeLine="107" d="M1282.01,1244.27 C1341.39,1231.51 1425.54,1213.41 1476.38,1202.48 " fill="none" id="ParameterCategory-Parameter" style="stroke:#A80036;stroke-width:1.0;"/><polygon fill="#000000" points="1312.1117,1208.2268,1321.5725,1209.1988,1320.337,1203.4522,1312.1117,1208.2268" style="stroke:#000000;stroke-width:1.0;"/><text fill="#000000" font-family="sans-serif" font-size="13" lengthAdjust="spacing" textLength="93" x="1326" y="1212.4951">presented under</text><text fill="#000000" font-family="sans-serif" font-size="13" lengthAdjust="spacing" textLength="7" x="1289.9955" y="1257.0752">1</text><text fill="#000000" font-family="sans-serif" font-size="13" lengthAdjust="spacing" textLength="5" x="1463.4929" y="1218.9401">*</text><!--MD5=[4265453a012991a726928e22789b8a83]
link Parameter to Test--><path codeLine="109" d="M1566.53,1188.3 C1634.29,1179.38 1766.14,1155.19 1860,1095 C1869.13,1089.15 1947.63,997.12 2003.9,930.5 " fill="none" id="Parameter-Test" style="stroke:#A80036;stroke-width:1.0;"/><polygon fill="#000000" points="1729.6926,1088.7147,1738.9771,1086.6536,1735.9924,1081.5899,1729.6926,1088.7147" style="stroke:#000000;stroke-width:1.0;"/><text fill="#000000" font-family="sans-serif" font-size="13" lengthAdjust="spacing" textLength="116" x="1743" y="1091.4951">requests analysis of</text><text fill="#000000" font-family="sans-serif" font-size="13" lengthAdjust="spacing" textLength="20" x="1574.6125" y="1202.3418">1..*</text><text fill="#000000" font-family="sans-serif" font-size="13" lengthAdjust="spacing" textLength="5" x="1992.5991" y="951.91">*</text><!--MD5=[8aaf0efd5e2f3824be7ea3e488dcc283]
link TestType to ParameterCategory--><path codeLine="111" d="M268.49,1098.23 C281.56,1195.09 328.81,1429 480.5,1429 C480.5,1429 480.5,1429 930.5,1429 C1029.71,1429 1123.87,1350.46 1174.01,1300.15 " fill="none" id="TestType-ParameterCategory" style="stroke:#A80036;stroke-width:1.0;"/><polygon fill="#000000" points="665.3801,1421.264,657.1915,1416.4269,655.9122,1422.1639,665.3801,1421.264" style="stroke:#000000;stroke-width:1.0;"/><text fill="#000000" font-family="sans-serif" font-size="13" lengthAdjust="spacing" textLength="63" x="669.5" y="1425.4951">analyzes a</text><text fill="#000000" font-family="sans-serif" font-size="13" lengthAdjust="spacing" textLength="5" x="263.9292" y="1119.0177">*</text><text fill="#000000" font-family="sans-serif" font-size="13" lengthAdjust="spacing" textLength="7" x="1160.8427" y="1320.926">1</text><!--MD5=[6d9eb9a083ac0654c8b63743033752d3]
link TestType to Company--><path codeLine="113" d="M311.24,1057 C349.32,1057 402.34,1057 438.84,1057 " fill="none" id="TestType-Company" style="stroke:#A80036;stroke-width:1.0;"/><polygon fill="#000000" points="341,1048.1758,350.0451,1051.1147,350.0451,1045.2369,341,1048.1758" style="stroke:#000000;stroke-width:1.0;"/><text fill="#000000" font-family="sans-serif" font-size="13" lengthAdjust="spacing" textLength="53" x="355" y="1053.4951">conducts</text><text fill="#000000" font-family="sans-serif" font-size="13" lengthAdjust="spacing" textLength="5" x="319.0096" y="1071.7847">*</text><text fill="#000000" font-family="sans-serif" font-size="13" lengthAdjust="spacing" textLength="7" x="423.9062" y="1071.9144">1</text><!--MD5=[c2c6b28b052a3fe86d789b83a09b2815]
link TestType to Test--><path codeLine="115" d="M296.74,1015.77 C335.5,971.98 404.47,909 480.5,909 C480.5,909 480.5,909 796,909 C1311.2,909 1443.8,951.12 1955,887 C1966.5,885.56 1978.56,883.38 1990.27,880.91 " fill="none" id="TestType-Test" style="stroke:#A80036;stroke-width:1.0;"/><polygon fill="#000000" points="1055.5158,904.5727,1064.7656,906.7843,1064.299,900.925,1055.5158,904.5727" style="stroke:#000000;stroke-width:1.0;"/><text fill="#000000" font-family="sans-serif" font-size="13" lengthAdjust="spacing" textLength="24" x="1069.5" y="909.4951">is of</text><text fill="#000000" font-family="sans-serif" font-size="13" lengthAdjust="spacing" textLength="7" x="294.7485" y="1005.1813">1</text><text fill="#000000" font-family="sans-serif" font-size="13" lengthAdjust="spacing" textLength="5" x="1977.5635" y="897.206">*</text><!--MD5=[0985ee834cc881275852ed47ce1e01f6]
link TestType to Administrator--><path codeLine="117" d="M301.7,1098.35 C353.12,1151.86 450.7,1243.6 554,1289 C660.89,1335.98 802,1322.48 876.8,1310.23 " fill="none" id="TestType-Administrator" style="stroke:#A80036;stroke-width:1.0;"/><polygon fill="#000000" points="558.8083,1278.4472,566.2797,1284.3319,568.3117,1278.8165,558.8083,1278.4472" style="stroke:#000000;stroke-width:1.0;"/><text fill="#000000" font-family="sans-serif" font-size="13" lengthAdjust="spacing" textLength="43" x="572.5" y="1285.4951">creates</text><text fill="#000000" font-family="sans-serif" font-size="13" lengthAdjust="spacing" textLength="5" x="302.0169" y="1119.1554">*</text><text fill="#000000" font-family="sans-serif" font-size="13" lengthAdjust="spacing" textLength="7" x="861.8969" y="1326.3134">1</text><!--MD5=[9163865a413f55935f47e026f9eaa033]
link Test to Result--><path codeLine="119" d="M2134.66,861.04 C2304.13,858.76 2726.55,853.08 2848.22,851.45 " fill="none" id="Test-Result" style="stroke:#A80036;stroke-width:1.0;"/><polygon fill="#000000" points="2489.9995,847.1086,2480.9158,844.2915,2480.9948,850.1688,2489.9995,847.1086" style="stroke:#000000;stroke-width:1.0;"/><text fill="#000000" font-family="sans-serif" font-size="13" lengthAdjust="spacing" textLength="32" x="2494" y="852.4951">has a</text><text fill="#000000" font-family="sans-serif" font-size="13" lengthAdjust="spacing" textLength="7" x="2142.4624" y="875.2869">1</text><text fill="#000000" font-family="sans-serif" font-size="13" lengthAdjust="spacing" textLength="7" x="2833.4279" y="866.7242">1</text><!--MD5=[150ee6e4dbb30ab82336f9e174f6c4ed]
link Test to Company--><path codeLine="121" d="M1990.38,912.14 C1978.96,918.38 1966.95,923.97 1955,928 C1553.92,1063.25 1428.78,983.48 1007,1019 C827.32,1034.13 612.71,1048.53 524,1054.32 " fill="none" id="Test-Company" style="stroke:#A80036;stroke-width:1.0;"/><polygon fill="#000000" points="1189.9767,998.6932,1180.6902,996.641,1181.2574,1002.4914,1189.9767,998.6932" style="stroke:#000000;stroke-width:1.0;"/><text fill="#000000" font-family="sans-serif" font-size="13" lengthAdjust="spacing" textLength="50" x="1194" y="1004.4951">performs</text><text fill="#000000" font-family="sans-serif" font-size="13" lengthAdjust="spacing" textLength="5" x="1977.6848" y="931.6566">*</text><text fill="#000000" font-family="sans-serif" font-size="13" lengthAdjust="spacing" textLength="7" x="531.9063" y="1068.7738">1</text><!--MD5=[ca29482912e344ebd5dc9db2d1c2ccab]
link Test to ClinicalAnalysisLaboratory--><path codeLine="123" d="M2122.05,930.66 C2128.18,938.14 2134.27,945.69 2140,953 C2224.85,1061.12 2229.56,1163 2367,1163 C2367,1163 2367,1163 2774,1163 C3144.71,1163 3253.48,1484.3 3591,1331 C3762.77,1252.98 3882.14,1041.55 3920.36,966.16 " fill="none" id="Test-ClinicalAnalysisLaboratory" style="stroke:#A80036;stroke-width:1.0;"/><polygon fill="#000000" points="2974.001,1180.0771,2982.9863,1183.194,2983.1023,1177.3173,2974.001,1180.0771" style="stroke:#000000;stroke-width:1.0;"/><text fill="#000000" font-family="sans-serif" font-size="13" lengthAdjust="spacing" textLength="50" x="2988" y="1185.4951">performs</text><text fill="#000000" font-family="sans-serif" font-size="13" lengthAdjust="spacing" textLength="5" x="2122.9333" y="952.0865">*</text><text fill="#000000" font-family="sans-serif" font-size="13" lengthAdjust="spacing" textLength="5" x="3911.72" y="987.4028">*</text><!--MD5=[10af4306acabee641eea198ac06587b8]
link Test to Receptionist--><path codeLine="125" d="M2134.6,916.9 C2193.51,956.86 2281.19,1004 2367,1004 C2367,1004 2367,1004 2774,1004 C3097.19,1004 3485.45,1026.34 3620.96,1034.8 " fill="none" id="Test-Receptionist" style="stroke:#A80036;stroke-width:1.0;"/><polygon fill="#000000" points="2850.0157,994.7804,2858.8,998.4254,2859.2648,992.5659,2850.0157,994.7804" style="stroke:#000000;stroke-width:1.0;"/><text fill="#000000" font-family="sans-serif" font-size="13" lengthAdjust="spacing" textLength="50" x="2864" y="1000.4951">registers</text><text fill="#000000" font-family="sans-serif" font-size="13" lengthAdjust="spacing" textLength="5" x="2142.2931" y="936.9075">*</text><text fill="#000000" font-family="sans-serif" font-size="13" lengthAdjust="spacing" textLength="20" x="3592.8249" y="1048.9637">1..*</text><!--MD5=[5fda545c79585d17c4a435a79f76ac33]
link Test to DiagnosisReport--><path codeLine="127" d="M2134.66,794.01 C2203.34,728.38 2303.05,633.11 2346.01,592.05 " fill="none" id="Test-DiagnosisReport" style="stroke:#A80036;stroke-width:1.0;"/><polygon fill="#000000" points="2171.3851,660.6301,2179.9549,656.506,2175.8941,652.2564,2171.3851,660.6301" style="stroke:#000000;stroke-width:1.0;"/><text fill="#000000" font-family="sans-serif" font-size="13" lengthAdjust="spacing" textLength="90" x="2184" y="662.4951">associated with</text><text fill="#000000" font-family="sans-serif" font-size="13" lengthAdjust="spacing" textLength="7" x="2142.4624" y="801.3444">1</text><text fill="#000000" font-family="sans-serif" font-size="13" lengthAdjust="spacing" textLength="7" x="2331.8409" y="613.4836">1</text><!--MD5=[1ae83efc6d1967ce5bc17dfe294d00c2]
link Sample to Test--><path codeLine="129" d="M1832.25,739.3 C1865.21,750.9 1914.48,769.66 1955,791 C1966.7,797.16 1978.71,804.29 1990.26,811.61 " fill="none" id="Sample-Test" style="stroke:#A80036;stroke-width:1.0;"/><polygon fill="#000000" points="1892.9535,751.0952,1899.9553,757.5314,1902.4012,752.1867,1892.9535,751.0952" style="stroke:#000000;stroke-width:1.0;"/><text fill="#000000" font-family="sans-serif" font-size="13" lengthAdjust="spacing" textLength="45" x="1906.5" y="758.4951">collects</text><text fill="#000000" font-family="sans-serif" font-size="13" lengthAdjust="spacing" textLength="5" x="1839.9227" y="756.714">*</text><text fill="#000000" font-family="sans-serif" font-size="13" lengthAdjust="spacing" textLength="7" x="1975.4493" y="820.7594">1</text><!--MD5=[cb5e86f6614a99551e1d9ce6f0ae5849]
link Sample to MedicalLabTechnician--><path codeLine="131" d="M1813.95,754.16 C1845.22,798.73 1912.32,888.38 1985,948 C1995.48,956.6 2007.92,964.42 2019.69,970.96 " fill="none" id="Sample-MedicalLabTechnician" style="stroke:#A80036;stroke-width:1.0;"/><polygon fill="#000000" points="1891.5582,846.5489,1895.6527,855.133,1899.9163,851.0869,1891.5582,846.5489" style="stroke:#000000;stroke-width:1.0;"/><text fill="#000000" font-family="sans-serif" font-size="13" lengthAdjust="spacing" textLength="50" x="1904" y="855.4951">registers</text><text fill="#000000" font-family="sans-serif" font-size="13" lengthAdjust="spacing" textLength="20" x="1796.0172" y="775.4028">1..*</text><text fill="#000000" font-family="sans-serif" font-size="13" lengthAdjust="spacing" textLength="20" x="2010.0521" y="960.27">1..*</text><!--MD5=[c1a9c7f16ec55f9c4038f73c31b8becd]
link Notification to Client--><path codeLine="133" d="M3242.64,871.26 C3283.77,867.41 3343.66,855.85 3383,822 C3407.95,800.53 3424.43,768.52 3435.14,738.84 " fill="none" id="Notification-Client" style="stroke:#A80036;stroke-width:1.0;"/><polygon fill="#000000" points="3335.1194,810.342,3326.0017,813.047,3329.3329,817.8897,3335.1194,810.342" style="stroke:#000000;stroke-width:1.0;"/><text fill="#000000" font-family="sans-serif" font-size="13" lengthAdjust="spacing" textLength="42" x="3340" y="818.4951">informs</text><text fill="#000000" font-family="sans-serif" font-size="13" lengthAdjust="spacing" textLength="20" x="3250.605" y="885.6601">1..*</text><text fill="#000000" font-family="sans-serif" font-size="13" lengthAdjust="spacing" textLength="5" x="3428.2614" y="759.5687">*</text><!--MD5=[4bbad4e7ea05ba4097f65aa254be0d9a]
@startuml
hide methods
skinparam classAttributeIconSize 0
left to right direction

class Company
class Laboratory
class ChemicalLaboratory
class ClinicalAnalysisLaboratory
class LaboratoryCoordinator
class User
class Role
class Employee
class Administrator
class SpecialistDoctor
class ClinicalChemistryTechnologist
class MedicalLabTechnician
class Receptionist
class Client
class LabOrder
class Result
class DiagnosisReport
class NHSReport
class ParameterCategory
class Parameter
class TestType
class Test
class Notification
class NHS
class Sample

Company "1" - - "*" Parameter : > capable of analysing

Company "1" - - "*" Employee : < works for

Company "1" - - "*" ParameterCategory : > adopts

Company "1" - - "*" Administrator : > knows

User "1" - - "1" Role : > plays a

Employee "1" - - "1" User : > is a

Client "1" - - "1" User : > is a

Employee "*" <|- - "*" ClinicalChemistryTechnologist

Employee "1" <|- - "1..*" Administrator

Employee "*" <|- - "1..*" Receptionist

Employee "*" <|- - "*" MedicalLabTechnician

Employee "*" <|- - "1..*" LaboratoryCoordinator

ClinicalChemistryTechnologist "*" - - "1" ChemicalLaboratory : > works at

MedicalLabTechnician "1..*" - - "*" ClinicalAnalysisLaboratory : > works at

Receptionist "1..*" - - "*" ClinicalAnalysisLaboratory : > works at

LaboratoryCoordinator "1..*" - - "*" Laboratory: > works at a

ChemicalLaboratory "1" - - "1" Company : < owns

ChemicalLaboratory "1" - - "*" Sample : < is sent to

ClinicalAnalysisLaboratory "*" - - "1" Company : < owns

Laboratory "1"  <|- - "1" ChemicalLaboratory

Laboratory "1"  <|- - "1" ClinicalAnalysisLaboratory

Administrator "*" - - "*" ParameterCategory : < created by

SpecialistDoctor "1" - - "1" Result : < analyzed by

Employee "*" <|- - "1..*" SpecialistDoctor

ClinicalChemistryTechnologist "*" - - "1..*" Sample : < analyzed by

Client "1" - - "*" Test : < requested by

Client "*" - - "1..*" Receptionist : < registers

LabOrder "1" - - "*" Client : > brought by

LabOrder "1" - - "1..*" Receptionist : < receives

LabOrder "1" - - "1" Test : < is associated

LabOrder "1" - - "1" TestType : > contains

Result "*" - - "1..*" ClinicalChemistryTechnologist : < registers

Result "*" - - "1..*" Notification : > is associated with

DiagnosisReport "1" - - "1" SpecialistDoctor : < registers

DiagnosisReport "1" - - "1" Client : > is sent to

DiagnosisReport "*" - - "1" LaboratoryCoordinator : < validates

NHSReport "1..*" - - "1" Result : < generates

NHSReport "1..*" - - "1" NHS : > is sent to

ParameterCategory "1" - - "*" Parameter : < presented under

Parameter "1..*" - - "*" Test : < requests analysis of

TestType "*" - - "1" ParameterCategory : > analyzes a

TestType "*" - - "1" Company : < conducts

TestType "1" - - "*" Test: < is of

TestType "*" - - "1" Administrator : < creates

Test "1" - - "1" Result : > has a

Test "*" - - "1" Company : < performs

Test "*" - - "*" ClinicalAnalysisLaboratory : < performs

Test "*" - - "1..*" Receptionist : < registers

Test "1" - - "1" DiagnosisReport : < associated with

Sample "*" - - "1" Test : < collects

Sample "1..*" - - "1..*" MedicalLabTechnician : < registers

Notification "1..*" - - "*" Client : > informs

class Company{
-designation
}

class Laboratory{
-name
-address
-phoneNumber
-TIN
}

class ChemicalLaboratory{
}

class ClinicalAnalysisLaboratory{
-labID
}

class User{
-name
-email
-password
}

class Role{
-id
-description
}

class Administrator{
}

class Employee{
-name
-address
-phoneNumber
-employeeID
-orgRole
-email
-SOCcode
}

class SpecialistDoctor{
-doctorIndex
}

class ClinicalChemistryTechnologist{
}

class MedicalLabTechnician{
}

class Receptionist{
}

class Client{
-citizenID
-nhsID
-birthDate
-sex
-TIN
-phoneNumber
-email
-name
}

class LabOrder{
}

class Result{
}

class DiagnosisReport{
}

class ParameterCategory{
-code
-description
-nhsID
}

class Parameter{
-designation
-description
-code
}

class TestType{
-code
-description
-collectingMethod
}

class Test{
-description
-code
-nhsCode
-collectDateTime
-chemicalAnalysisDateTime
-diagnosisDateTime
-validationDateTime
}

class Sample{
-barcode
}

@enduml

PlantUML version 1.2021.4(Sun Apr 04 09:49:39 BST 2021)
(GPL source distribution)
Java Runtime: OpenJDK Runtime Environment
JVM: OpenJDK 64-Bit Server VM
Default Encoding: Cp1252
Language: pt
Country: PT
--></g></svg>