<?xml version="1.0" encoding="UTF-8" standalone="no"?><svg xmlns="http://www.w3.org/2000/svg" xmlns:xlink="http://www.w3.org/1999/xlink" contentScriptType="application/ecmascript" contentStyleType="text/css" height="305px" preserveAspectRatio="none" style="width:1052px;height:305px;" version="1.1" viewBox="0 0 1052 305" width="1052px" zoomAndPan="magnify"><defs><filter height="300%" id="fq658pbn3eh0f" width="300%" x="-1" y="-1"><feGaussianBlur result="blurOut" stdDeviation="2.0"/><feColorMatrix in="blurOut" result="blurOut2" type="matrix" values="0 0 0 0 0 0 0 0 0 0 0 0 0 0 0 0 0 0 .4 0"/><feOffset dx="4.0" dy="4.0" in="blurOut2" result="blurOut3"/><feBlend in="SourceGraphic" in2="blurOut3" mode="normal"/></filter></defs><g><!--MD5=[cbb6e395fe1328be1868f7592a654c4f]
class WriteTestReportController--><rect codeLine="3" fill="#FEFECE" filter="url(#fq658pbn3eh0f)" height="86.4141" id="WriteTestReportController" style="stroke:#A80036;stroke-width:1.5;" width="194" x="7" y="205"/><ellipse cx="22" cy="221" fill="#ADD1B2" rx="11" ry="11" style="stroke:#A80036;stroke-width:1.0;"/><path d="M24.9688,226.6406 Q24.3906,226.9375 23.75,227.0781 Q23.1094,227.2344 22.4063,227.2344 Q19.9063,227.2344 18.5781,225.5938 Q17.2656,223.9375 17.2656,220.8125 Q17.2656,217.6875 18.5781,216.0313 Q19.9063,214.375 22.4063,214.375 Q23.1094,214.375 23.75,214.5313 Q24.4063,214.6875 24.9688,214.9844 L24.9688,217.7031 Q24.3438,217.125 23.75,216.8594 Q23.1563,216.5781 22.5313,216.5781 Q21.1875,216.5781 20.5,217.6563 Q19.8125,218.7188 19.8125,220.8125 Q19.8125,222.9063 20.5,223.9844 Q21.1875,225.0469 22.5313,225.0469 Q23.1563,225.0469 23.75,224.7813 Q24.3438,224.5 24.9688,223.9219 L24.9688,226.6406 Z " fill="#000000"/><text fill="#000000" font-family="sans-serif" font-size="12" lengthAdjust="spacingAndGlyphs" textLength="162" x="36" y="225.1543">WriteTestReportController</text><line style="stroke:#A80036;stroke-width:1.5;" x1="8" x2="200" y1="237" y2="237"/><line style="stroke:#A80036;stroke-width:1.5;" x1="8" x2="200" y1="245" y2="245"/><text fill="#000000" font-family="sans-serif" font-size="11" lengthAdjust="spacingAndGlyphs" textLength="116" x="13" y="259.2104">+getAnalyzedTests()</text><text fill="#000000" font-family="sans-serif" font-size="11" lengthAdjust="spacingAndGlyphs" textLength="130" x="13" y="272.0151">+getReferenceValues()</text><text fill="#000000" font-family="sans-serif" font-size="11" lengthAdjust="spacingAndGlyphs" textLength="81" x="13" y="284.8198">+saveReport()</text><!--MD5=[66cba5a661a234b4ca20a9aa472d539b]
class WriteTestReportUI--><rect codeLine="8" fill="#FEFECE" filter="url(#fq658pbn3eh0f)" height="48" id="WriteTestReportUI" style="stroke:#A80036;stroke-width:1.5;" width="145" x="31.5" y="52"/><ellipse cx="46.5" cy="68" fill="#ADD1B2" rx="11" ry="11" style="stroke:#A80036;stroke-width:1.0;"/><path d="M49.4688,73.6406 Q48.8906,73.9375 48.25,74.0781 Q47.6094,74.2344 46.9063,74.2344 Q44.4063,74.2344 43.0781,72.5938 Q41.7656,70.9375 41.7656,67.8125 Q41.7656,64.6875 43.0781,63.0313 Q44.4063,61.375 46.9063,61.375 Q47.6094,61.375 48.25,61.5313 Q48.9063,61.6875 49.4688,61.9844 L49.4688,64.7031 Q48.8438,64.125 48.25,63.8594 Q47.6563,63.5781 47.0313,63.5781 Q45.6875,63.5781 45,64.6563 Q44.3125,65.7188 44.3125,67.8125 Q44.3125,69.9063 45,70.9844 Q45.6875,72.0469 47.0313,72.0469 Q47.6563,72.0469 48.25,71.7813 Q48.8438,71.5 49.4688,70.9219 L49.4688,73.6406 Z " fill="#000000"/><text fill="#000000" font-family="sans-serif" font-size="12" lengthAdjust="spacingAndGlyphs" textLength="113" x="60.5" y="72.1543">WriteTestReportUI</text><line style="stroke:#A80036;stroke-width:1.5;" x1="32.5" x2="175.5" y1="84" y2="84"/><line style="stroke:#A80036;stroke-width:1.5;" x1="32.5" x2="175.5" y1="92" y2="92"/><!--MD5=[02e4b9b7573f1156f41e60aa5b4e25a4]
class Company--><rect codeLine="9" fill="#FEFECE" filter="url(#fq658pbn3eh0f)" height="60.8047" id="Company" style="stroke:#A80036;stroke-width:1.5;" width="103" x="377.5" y="217.5"/><ellipse cx="398.8" cy="233.5" fill="#ADD1B2" rx="11" ry="11" style="stroke:#A80036;stroke-width:1.0;"/><path d="M401.7688,239.1406 Q401.1906,239.4375 400.55,239.5781 Q399.9094,239.7344 399.2063,239.7344 Q396.7063,239.7344 395.3781,238.0938 Q394.0656,236.4375 394.0656,233.3125 Q394.0656,230.1875 395.3781,228.5313 Q396.7063,226.875 399.2063,226.875 Q399.9094,226.875 400.55,227.0313 Q401.2063,227.1875 401.7688,227.4844 L401.7688,230.2031 Q401.1438,229.625 400.55,229.3594 Q399.9563,229.0781 399.3313,229.0781 Q397.9875,229.0781 397.3,230.1563 Q396.6125,231.2188 396.6125,233.3125 Q396.6125,235.4063 397.3,236.4844 Q397.9875,237.5469 399.3313,237.5469 Q399.9563,237.5469 400.55,237.2813 Q401.1438,237 401.7688,236.4219 L401.7688,239.1406 Z " fill="#000000"/><text fill="#000000" font-family="sans-serif" font-size="12" lengthAdjust="spacingAndGlyphs" textLength="57" x="414.2" y="237.6543">Company</text><line style="stroke:#A80036;stroke-width:1.5;" x1="378.5" x2="479.5" y1="249.5" y2="249.5"/><line style="stroke:#A80036;stroke-width:1.5;" x1="378.5" x2="479.5" y1="257.5" y2="257.5"/><text fill="#000000" font-family="sans-serif" font-size="11" lengthAdjust="spacingAndGlyphs" textLength="91" x="383.5" y="271.7104">+getTestStore()</text><!--MD5=[1c38f6084f2098752e2974895ca67f4c]
class TestDto--><rect codeLine="22" fill="#FEFECE" filter="url(#fq658pbn3eh0f)" height="73.6094" id="TestDto" style="stroke:#A80036;stroke-width:1.5;" width="142" x="768" y="211"/><ellipse cx="810.45" cy="227" fill="#ADD1B2" rx="11" ry="11" style="stroke:#A80036;stroke-width:1.0;"/><path d="M813.4188,232.6406 Q812.8406,232.9375 812.2,233.0781 Q811.5594,233.2344 810.8563,233.2344 Q808.3563,233.2344 807.0281,231.5938 Q805.7156,229.9375 805.7156,226.8125 Q805.7156,223.6875 807.0281,222.0313 Q808.3563,220.375 810.8563,220.375 Q811.5594,220.375 812.2,220.5313 Q812.8563,220.6875 813.4188,220.9844 L813.4188,223.7031 Q812.7938,223.125 812.2,222.8594 Q811.6063,222.5781 810.9813,222.5781 Q809.6375,222.5781 808.95,223.6563 Q808.2625,224.7188 808.2625,226.8125 Q808.2625,228.9063 808.95,229.9844 Q809.6375,231.0469 810.9813,231.0469 Q811.6063,231.0469 812.2,230.7813 Q812.7938,230.5 813.4188,229.9219 L813.4188,232.6406 Z " fill="#000000"/><text fill="#000000" font-family="sans-serif" font-size="12" lengthAdjust="spacingAndGlyphs" textLength="49" x="830.55" y="231.1543">TestDto</text><line style="stroke:#A80036;stroke-width:1.5;" x1="769" x2="909" y1="243" y2="243"/><line style="stroke:#A80036;stroke-width:1.5;" x1="769" x2="909" y1="251" y2="251"/><text fill="#000000" font-family="sans-serif" font-size="11" lengthAdjust="spacingAndGlyphs" textLength="130" x="774" y="265.2104">+getReferenceValues()</text><text fill="#000000" font-family="sans-serif" font-size="11" lengthAdjust="spacingAndGlyphs" textLength="116" x="774" y="278.0151">+getAnalyzedTests()</text><!--MD5=[144698ec4d0188f6929a3b58a3eeb1f6]
class TestMapper--><rect codeLine="15" fill="#FEFECE" filter="url(#fq658pbn3eh0f)" height="60.8047" id="TestMapper" style="stroke:#A80036;stroke-width:1.5;" width="106" x="236" y="217.5"/><ellipse cx="251" cy="233.5" fill="#ADD1B2" rx="11" ry="11" style="stroke:#A80036;stroke-width:1.0;"/><path d="M253.9688,239.1406 Q253.3906,239.4375 252.75,239.5781 Q252.1094,239.7344 251.4063,239.7344 Q248.9063,239.7344 247.5781,238.0938 Q246.2656,236.4375 246.2656,233.3125 Q246.2656,230.1875 247.5781,228.5313 Q248.9063,226.875 251.4063,226.875 Q252.1094,226.875 252.75,227.0313 Q253.4063,227.1875 253.9688,227.4844 L253.9688,230.2031 Q253.3438,229.625 252.75,229.3594 Q252.1563,229.0781 251.5313,229.0781 Q250.1875,229.0781 249.5,230.1563 Q248.8125,231.2188 248.8125,233.3125 Q248.8125,235.4063 249.5,236.4844 Q250.1875,237.5469 251.5313,237.5469 Q252.1563,237.5469 252.75,237.2813 Q253.3438,237 253.9688,236.4219 L253.9688,239.1406 Z " fill="#000000"/><text fill="#000000" font-family="sans-serif" font-size="12" lengthAdjust="spacingAndGlyphs" textLength="74" x="265" y="237.6543">TestMapper</text><line style="stroke:#A80036;stroke-width:1.5;" x1="237" x2="341" y1="249.5" y2="249.5"/><line style="stroke:#A80036;stroke-width:1.5;" x1="237" x2="341" y1="257.5" y2="257.5"/><text fill="#000000" font-family="sans-serif" font-size="11" lengthAdjust="spacingAndGlyphs" textLength="47" x="242" y="271.7104">+toDto()</text><!--MD5=[ce0f71fbf4d9f9eefe0e2007e85cc947]
class ReportStore--><rect codeLine="18" fill="#FEFECE" filter="url(#fq658pbn3eh0f)" height="60.8047" id="ReportStore" style="stroke:#A80036;stroke-width:1.5;" width="108" x="516" y="217.5"/><ellipse cx="531" cy="233.5" fill="#ADD1B2" rx="11" ry="11" style="stroke:#A80036;stroke-width:1.0;"/><path d="M533.9688,239.1406 Q533.3906,239.4375 532.75,239.5781 Q532.1094,239.7344 531.4063,239.7344 Q528.9063,239.7344 527.5781,238.0938 Q526.2656,236.4375 526.2656,233.3125 Q526.2656,230.1875 527.5781,228.5313 Q528.9063,226.875 531.4063,226.875 Q532.1094,226.875 532.75,227.0313 Q533.4063,227.1875 533.9688,227.4844 L533.9688,230.2031 Q533.3438,229.625 532.75,229.3594 Q532.1563,229.0781 531.5313,229.0781 Q530.1875,229.0781 529.5,230.1563 Q528.8125,231.2188 528.8125,233.3125 Q528.8125,235.4063 529.5,236.4844 Q530.1875,237.5469 531.5313,237.5469 Q532.1563,237.5469 532.75,237.2813 Q533.3438,237 533.9688,236.4219 L533.9688,239.1406 Z " fill="#000000"/><text fill="#000000" font-family="sans-serif" font-size="12" lengthAdjust="spacingAndGlyphs" textLength="76" x="545" y="237.6543">ReportStore</text><line style="stroke:#A80036;stroke-width:1.5;" x1="517" x2="623" y1="249.5" y2="249.5"/><line style="stroke:#A80036;stroke-width:1.5;" x1="517" x2="623" y1="257.5" y2="257.5"/><text fill="#000000" font-family="sans-serif" font-size="11" lengthAdjust="spacingAndGlyphs" textLength="81" x="522" y="271.7104">+saveReport()</text><!--MD5=[df38be88ccee13e832d6fafd6288a4ca]
class Test--><rect codeLine="25" fill="#FEFECE" filter="url(#fq658pbn3eh0f)" height="137.6328" id="Test" style="stroke:#A80036;stroke-width:1.5;" width="167" x="211.5" y="7"/><ellipse cx="277.25" cy="23" fill="#ADD1B2" rx="11" ry="11" style="stroke:#A80036;stroke-width:1.0;"/><path d="M280.2188,28.6406 Q279.6406,28.9375 279,29.0781 Q278.3594,29.2344 277.6563,29.2344 Q275.1563,29.2344 273.8281,27.5938 Q272.5156,25.9375 272.5156,22.8125 Q272.5156,19.6875 273.8281,18.0313 Q275.1563,16.375 277.6563,16.375 Q278.3594,16.375 279,16.5313 Q279.6563,16.6875 280.2188,16.9844 L280.2188,19.7031 Q279.5938,19.125 279,18.8594 Q278.4063,18.5781 277.7813,18.5781 Q276.4375,18.5781 275.75,19.6563 Q275.0625,20.7188 275.0625,22.8125 Q275.0625,24.9063 275.75,25.9844 Q276.4375,27.0469 277.7813,27.0469 Q278.4063,27.0469 279,26.7813 Q279.5938,26.5 280.2188,25.9219 L280.2188,28.6406 Z " fill="#000000"/><text fill="#000000" font-family="sans-serif" font-size="12" lengthAdjust="spacingAndGlyphs" textLength="27" x="297.75" y="27.1543">Test</text><line style="stroke:#A80036;stroke-width:1.5;" x1="212.5" x2="377.5" y1="39" y2="39"/><text fill="#000000" font-family="sans-serif" font-size="11" lengthAdjust="spacingAndGlyphs" textLength="67" x="217.5" y="53.2104">-description</text><text fill="#000000" font-family="sans-serif" font-size="11" lengthAdjust="spacingAndGlyphs" textLength="53" x="217.5" y="66.0151">-testcode</text><text fill="#000000" font-family="sans-serif" font-size="11" lengthAdjust="spacingAndGlyphs" textLength="54" x="217.5" y="78.8198">-nhsCode</text><text fill="#000000" font-family="sans-serif" font-size="11" lengthAdjust="spacingAndGlyphs" textLength="94" x="217.5" y="91.6245">-collectDateTime</text><text fill="#000000" font-family="sans-serif" font-size="11" lengthAdjust="spacingAndGlyphs" textLength="155" x="217.5" y="104.4292">-chemicalAnalysisDateTime</text><text fill="#000000" font-family="sans-serif" font-size="11" lengthAdjust="spacingAndGlyphs" textLength="106" x="217.5" y="117.2339">-dianosisDateTime</text><text fill="#000000" font-family="sans-serif" font-size="11" lengthAdjust="spacingAndGlyphs" textLength="112" x="217.5" y="130.0386">-validationDateTime</text><line style="stroke:#A80036;stroke-width:1.5;" x1="212.5" x2="377.5" y1="136.6328" y2="136.6328"/><!--MD5=[f00dbe8c0302c6aec2cb26b3c659c8fc]
class Report--><rect codeLine="35" fill="#FEFECE" filter="url(#fq658pbn3eh0f)" height="73.6094" id="Report" style="stroke:#A80036;stroke-width:1.5;" width="74" x="659" y="211"/><ellipse cx="674" cy="227" fill="#ADD1B2" rx="11" ry="11" style="stroke:#A80036;stroke-width:1.0;"/><path d="M676.9688,232.6406 Q676.3906,232.9375 675.75,233.0781 Q675.1094,233.2344 674.4063,233.2344 Q671.9063,233.2344 670.5781,231.5938 Q669.2656,229.9375 669.2656,226.8125 Q669.2656,223.6875 670.5781,222.0313 Q671.9063,220.375 674.4063,220.375 Q675.1094,220.375 675.75,220.5313 Q676.4063,220.6875 676.9688,220.9844 L676.9688,223.7031 Q676.3438,223.125 675.75,222.8594 Q675.1563,222.5781 674.5313,222.5781 Q673.1875,222.5781 672.5,223.6563 Q671.8125,224.7188 671.8125,226.8125 Q671.8125,228.9063 672.5,229.9844 Q673.1875,231.0469 674.5313,231.0469 Q675.1563,231.0469 675.75,230.7813 Q676.3438,230.5 676.9688,229.9219 L676.9688,232.6406 Z " fill="#000000"/><text fill="#000000" font-family="sans-serif" font-size="12" lengthAdjust="spacingAndGlyphs" textLength="42" x="688" y="231.1543">Report</text><line style="stroke:#A80036;stroke-width:1.5;" x1="660" x2="732" y1="243" y2="243"/><text fill="#000000" font-family="sans-serif" font-size="11" lengthAdjust="spacingAndGlyphs" textLength="56" x="665" y="257.2104">-reportTxt</text><text fill="#000000" font-family="sans-serif" font-size="11" lengthAdjust="spacingAndGlyphs" textLength="53" x="665" y="270.0151">-testcode</text><line style="stroke:#A80036;stroke-width:1.5;" x1="660" x2="732" y1="276.6094" y2="276.6094"/><!--MD5=[0f6f7964b844a64b0496af0dda7914bd]
class TestStore--><rect fill="#FEFECE" filter="url(#fq658pbn3eh0f)" height="48" id="TestStore" style="stroke:#A80036;stroke-width:1.5;" width="93" x="945.5" y="224"/><ellipse cx="960.5" cy="240" fill="#ADD1B2" rx="11" ry="11" style="stroke:#A80036;stroke-width:1.0;"/><path d="M963.4688,245.6406 Q962.8906,245.9375 962.25,246.0781 Q961.6094,246.2344 960.9063,246.2344 Q958.4063,246.2344 957.0781,244.5938 Q955.7656,242.9375 955.7656,239.8125 Q955.7656,236.6875 957.0781,235.0313 Q958.4063,233.375 960.9063,233.375 Q961.6094,233.375 962.25,233.5313 Q962.9063,233.6875 963.4688,233.9844 L963.4688,236.7031 Q962.8438,236.125 962.25,235.8594 Q961.6563,235.5781 961.0313,235.5781 Q959.6875,235.5781 959,236.6563 Q958.3125,237.7188 958.3125,239.8125 Q958.3125,241.9063 959,242.9844 Q959.6875,244.0469 961.0313,244.0469 Q961.6563,244.0469 962.25,243.7813 Q962.8438,243.5 963.4688,242.9219 L963.4688,245.6406 Z " fill="#000000"/><text fill="#000000" font-family="sans-serif" font-size="12" lengthAdjust="spacingAndGlyphs" textLength="61" x="974.5" y="244.1543">TestStore</text><line style="stroke:#A80036;stroke-width:1.5;" x1="946.5" x2="1037.5" y1="256" y2="256"/><line style="stroke:#A80036;stroke-width:1.5;" x1="946.5" x2="1037.5" y1="264" y2="264"/><!--MD5=[6c124ca5731b77611e6f2f3ea191804e]
link WriteTestReportUI to WriteTestReportController--><path codeLine="40" d="M104,100.2786 C104,126.033 104,167.396 104,199.8108 " fill="none" id="WriteTestReportUI-to-WriteTestReportController" style="stroke:#A80036;stroke-width:1.0;stroke-dasharray:7.0,7.0;"/><polygon fill="#A80036" points="104,204.9326,108,195.9326,104,199.9326,100,195.9326,104,204.9326" style="stroke:#A80036;stroke-width:1.0;"/><!--MD5=[5cda0e2795b20d77d39814ba52ddeffa]
link WriteTestReportController to TestStore--><path codeLine="41" d="M166.966,204.8805 C188.1175,192.7488 212.4634,181.1832 236.5,175 C309.0276,156.3428 840.5504,148.2532 910.5,175 C934.0532,184.0061 955.0944,203.3015 969.8954,219.7934 " fill="none" id="WriteTestReportController-to-TestStore" style="stroke:#A80036;stroke-width:1.0;"/><polygon fill="#A80036" points="973.5217,223.9178,970.5831,214.5176,970.2202,220.1628,964.575,219.7999,973.5217,223.9178" style="stroke:#A80036;stroke-width:1.0;"/><!--MD5=[89d5cfcd342dbc3d1fb2b9f49a8defff]
link WriteTestReportController to TestDto--><path codeLine="42" d="M166.966,204.8805 C188.1175,192.7488 212.4634,181.1832 236.5,175 C343.4621,147.4848 628.0752,142.082 733.5,175 C755.0599,181.7319 776.0932,194.5849 793.6342,207.6534 " fill="none" id="WriteTestReportController-to-TestDto" style="stroke:#A80036;stroke-width:1.0;"/><polygon fill="#A80036" points="798.0167,210.977,793.2627,202.3515,794.0328,207.9557,788.4286,208.7257,798.0167,210.977" style="stroke:#A80036;stroke-width:1.0;"/><!--MD5=[b05f0f6d03c3ab79587fbbab7dfa0835]
link WriteTestReportController to Company--><path codeLine="43" d="M166.966,204.8805 C188.1175,192.7488 212.4634,181.1832 236.5,175 C282.1257,163.2631 298.2529,158.8245 342.5,175 C363.9377,182.837 383.7295,198.5911 398.9556,213.4643 " fill="none" id="WriteTestReportController-to-Company" style="stroke:#A80036;stroke-width:1.0;"/><polygon fill="#A80036" points="402.7265,217.2213,399.1739,208.0355,399.1844,213.6923,393.5276,213.7029,402.7265,217.2213" style="stroke:#A80036;stroke-width:1.0;"/><!--MD5=[d5e53d1179495fc428fb67084287e110]
link WriteTestReportController to ReportStore--><path codeLine="44" d="M166.966,204.8805 C188.1175,192.7488 212.4634,181.1832 236.5,175 C341.5251,147.983 378.3398,138.6202 480.5,175 C502.4412,182.8134 522.8973,198.5653 538.6988,213.4431 " fill="none" id="WriteTestReportController-to-ReportStore" style="stroke:#A80036;stroke-width:1.0;"/><polygon fill="#A80036" points="542.6139,217.2014,538.8915,208.0831,539.007,213.7387,533.3513,213.8542,542.6139,217.2014" style="stroke:#A80036;stroke-width:1.0;"/><!--MD5=[4e45f6a9d9061b96fd813da2c9cbef00]
link WriteTestReportController to TestMapper--><path codeLine="45" d="M201.1973,248 C211.0302,248 220.8632,248 230.6962,248 " fill="none" id="WriteTestReportController-to-TestMapper" style="stroke:#A80036;stroke-width:1.0;"/><polygon fill="#A80036" points="235.8382,248,226.8382,244,230.8382,248,226.8382,252,235.8382,248" style="stroke:#A80036;stroke-width:1.0;"/><!--MD5=[7f6cf7f175eae0af66201860de5de971]
link Company to TestStore--><path codeLine="48" d="M455.6448,217.2145 C471.5011,201.3093 493.0641,183.4924 516.5,175 C598.8176,145.1708 828.7191,143.7292 910.5,175 C934.0532,184.0061 955.0944,203.3015 969.8954,219.7934 " fill="none" id="Company-to-TestStore" style="stroke:#A80036;stroke-width:1.0;"/><polygon fill="#A80036" points="973.5217,223.9178,970.5831,214.5176,970.2202,220.1628,964.575,219.7999,973.5217,223.9178" style="stroke:#A80036;stroke-width:1.0;"/><!--MD5=[b4f89d3e2517c5a3530ae423bd30fbb1]
link Company to ReportStore--><path codeLine="49" d="M480.7734,248 C490.7659,248 500.7583,248 510.7507,248 " fill="none" id="Company-to-ReportStore" style="stroke:#A80036;stroke-width:1.0;"/><polygon fill="#A80036" points="515.9761,248,506.9761,244,510.9761,248,506.9761,252,515.9761,248" style="stroke:#A80036;stroke-width:1.0;"/><!--MD5=[7fbcfdf360a6c7ad60791099063bc3b1]
link ReportStore to Report--><path codeLine="51" d="M624.1406,248 C634.0207,248 643.9008,248 653.7809,248 " fill="none" id="ReportStore-to-Report" style="stroke:#A80036;stroke-width:1.0;"/><polygon fill="#A80036" points="658.9475,248,649.9475,244,653.9475,248,649.9475,252,658.9475,248" style="stroke:#A80036;stroke-width:1.0;"/><!--MD5=[76746c9be5e8cb8a12a685e569f2ce55]
@startuml
skinparam classAttributeIconSize 0

class "WriteTestReportController" {
  +getAnalyzedTests()
  +getReferenceValues()
  +saveReport()
  }
class "WriteTestReportUI"
class "Company" {
  +getTestStore()
  }
class "TestDto" {
  +getReferenceValues()
  }
class "TestMapper" {
  +toDto()
  }
class "ReportStore" {
  +saveReport()
  }

  class "TestDto"  {
    +getAnalyzedTests()
  }
class Test { 
  -description
  -testcode
  -nhsCode
  -collectDateTime
  -chemicalAnalysisDateTime
  -dianosisDateTime
  -validationDateTime
}
  
class Report {
  -reportTxt
  -testcode
}

"WriteTestReportUI" .-> "WriteTestReportController"
"WriteTestReportController" -> "TestStore"
"WriteTestReportController" -> "TestDto"
"WriteTestReportController" -> "Company"
"WriteTestReportController" -> "ReportStore"
"WriteTestReportController" -> "TestMapper"


"Company" -> "TestStore"
"Company" -> "ReportStore"

"ReportStore" -> "Report"
@enduml

PlantUML version 1.2020.22(Sun Dec 06 09:36:27 UTC 2020)
(GPL source distribution)
Java Runtime: OpenJDK Runtime Environment
JVM: OpenJDK 64-Bit Server VM
Default Encoding: UTF-8
Language: en
Country: US
--></g></svg>