<?xml version="1.0" encoding="UTF-8" standalone="no"?><svg xmlns="http://www.w3.org/2000/svg" xmlns:xlink="http://www.w3.org/1999/xlink" contentScriptType="application/ecmascript" contentStyleType="text/css" height="427px" preserveAspectRatio="none" style="width:431px;height:427px;" version="1.1" viewBox="0 0 431 427" width="431px" zoomAndPan="magnify"><defs><filter height="300%" id="fhrzcjq5ex9dc" width="300%" x="-1" y="-1"><feGaussianBlur result="blurOut" stdDeviation="2.0"/><feColorMatrix in="blurOut" result="blurOut2" type="matrix" values="0 0 0 0 0 0 0 0 0 0 0 0 0 0 0 0 0 0 .4 0"/><feOffset dx="4.0" dy="4.0" in="blurOut2" result="blurOut3"/><feBlend in="SourceGraphic" in2="blurOut3" mode="normal"/></filter></defs><g><rect fill="#FFFFFF" filter="url(#fhrzcjq5ex9dc)" height="235.4844" style="stroke:#A80036;stroke-width:1.0;" width="10" x="60" y="98.4883"/><rect fill="#FFFFFF" filter="url(#fhrzcjq5ex9dc)" height="29.3105" style="stroke:#A80036;stroke-width:1.0;" width="10" x="383" y="119.7988"/><rect fill="#FFFFFF" filter="url(#fhrzcjq5ex9dc)" height="29.3105" style="stroke:#A80036;stroke-width:1.0;" width="10" x="383" y="178.4199"/><rect fill="#FFFFFF" filter="url(#fhrzcjq5ex9dc)" height="29.3105" style="stroke:#A80036;stroke-width:1.0;" width="10" x="383" y="237.041"/><rect fill="#FFFFFF" filter="url(#fhrzcjq5ex9dc)" height="29.3105" style="stroke:#A80036;stroke-width:1.0;" width="10" x="383" y="295.6621"/><line style="stroke:#A80036;stroke-width:1.0;stroke-dasharray:5.0,5.0;" x1="65" x2="65" y1="88.4883" y2="342.9727"/><line style="stroke:#A80036;stroke-width:1.0;stroke-dasharray:5.0,5.0;" x1="388" x2="388" y1="88.4883" y2="342.9727"/><text fill="#000000" font-family="sans-serif" font-size="14" lengthAdjust="spacing" textLength="114" x="5" y="85.5352">Specialist Doctor</text><ellipse cx="65" cy="15" fill="#FEFECE" filter="url(#fhrzcjq5ex9dc)" rx="8" ry="8" style="stroke:#A80036;stroke-width:2.0;"/><path d="M65,23 L65,50 M52,31 L78,31 M65,50 L52,65 M65,50 L78,65 " fill="none" filter="url(#fhrzcjq5ex9dc)" style="stroke:#A80036;stroke-width:2.0;"/><text fill="#000000" font-family="sans-serif" font-size="14" lengthAdjust="spacing" textLength="114" x="5" y="355.5078">Specialist Doctor</text><ellipse cx="65" cy="368.4609" fill="#FEFECE" filter="url(#fhrzcjq5ex9dc)" rx="8" ry="8" style="stroke:#A80036;stroke-width:2.0;"/><path d="M65,376.4609 L65,403.4609 M52,384.4609 L78,384.4609 M65,403.4609 L52,418.4609 M65,403.4609 L78,418.4609 " fill="none" filter="url(#fhrzcjq5ex9dc)" style="stroke:#A80036;stroke-width:2.0;"/><rect fill="#FEFECE" filter="url(#fhrzcjq5ex9dc)" height="30.4883" style="stroke:#A80036;stroke-width:1.5;" width="62" x="355" y="53"/><text fill="#000000" font-family="sans-serif" font-size="14" lengthAdjust="spacing" textLength="48" x="362" y="73.5352">System</text><rect fill="#FEFECE" filter="url(#fhrzcjq5ex9dc)" height="30.4883" style="stroke:#A80036;stroke-width:1.5;" width="62" x="355" y="341.9727"/><text fill="#000000" font-family="sans-serif" font-size="14" lengthAdjust="spacing" textLength="48" x="362" y="362.5078">System</text><rect fill="#FFFFFF" filter="url(#fhrzcjq5ex9dc)" height="235.4844" style="stroke:#A80036;stroke-width:1.0;" width="10" x="60" y="98.4883"/><rect fill="#FFFFFF" filter="url(#fhrzcjq5ex9dc)" height="29.3105" style="stroke:#A80036;stroke-width:1.0;" width="10" x="383" y="119.7988"/><rect fill="#FFFFFF" filter="url(#fhrzcjq5ex9dc)" height="29.3105" style="stroke:#A80036;stroke-width:1.0;" width="10" x="383" y="178.4199"/><rect fill="#FFFFFF" filter="url(#fhrzcjq5ex9dc)" height="29.3105" style="stroke:#A80036;stroke-width:1.0;" width="10" x="383" y="237.041"/><rect fill="#FFFFFF" filter="url(#fhrzcjq5ex9dc)" height="29.3105" style="stroke:#A80036;stroke-width:1.0;" width="10" x="383" y="295.6621"/><polygon fill="#A80036" points="371,115.7988,381,119.7988,371,123.7988,375,119.7988" style="stroke:#A80036;stroke-width:1.0;"/><line style="stroke:#A80036;stroke-width:1.0;" x1="70" x2="377" y1="119.7988" y2="119.7988"/><text fill="#000000" font-family="sans-serif" font-size="13" font-weight="bold" lengthAdjust="spacing" textLength="9" x="77" y="115.0566">1</text><text fill="#000000" font-family="sans-serif" font-size="13" lengthAdjust="spacing" textLength="203" x="90" y="115.0566">write a report about a test result</text><polygon fill="#A80036" points="81,145.1094,71,149.1094,81,153.1094,77,149.1094" style="stroke:#A80036;stroke-width:1.0;"/><line style="stroke:#A80036;stroke-width:1.0;stroke-dasharray:2.0,2.0;" x1="75" x2="387" y1="149.1094" y2="149.1094"/><text fill="#000000" font-family="sans-serif" font-size="13" font-weight="bold" lengthAdjust="spacing" textLength="9" x="87" y="144.3672">2</text><text fill="#000000" font-family="sans-serif" font-size="13" lengthAdjust="spacing" textLength="199" x="100" y="144.3672">shows the list of analyzed tests</text><polygon fill="#A80036" points="371,174.4199,381,178.4199,371,182.4199,375,178.4199" style="stroke:#A80036;stroke-width:1.0;"/><line style="stroke:#A80036;stroke-width:1.0;" x1="70" x2="377" y1="178.4199" y2="178.4199"/><text fill="#000000" font-family="sans-serif" font-size="13" font-weight="bold" lengthAdjust="spacing" textLength="9" x="77" y="173.6777">3</text><text fill="#000000" font-family="sans-serif" font-size="13" lengthAdjust="spacing" textLength="150" x="90" y="173.6777">selects an analyzed test</text><polygon fill="#A80036" points="81,203.7305,71,207.7305,81,211.7305,77,207.7305" style="stroke:#A80036;stroke-width:1.0;"/><line style="stroke:#A80036;stroke-width:1.0;stroke-dasharray:2.0,2.0;" x1="75" x2="387" y1="207.7305" y2="207.7305"/><text fill="#000000" font-family="sans-serif" font-size="13" font-weight="bold" lengthAdjust="spacing" textLength="9" x="87" y="202.9883">4</text><text fill="#000000" font-family="sans-serif" font-size="13" lengthAdjust="spacing" textLength="78" x="100" y="202.9883">request data</text><polygon fill="#A80036" points="371,233.041,381,237.041,371,241.041,375,237.041" style="stroke:#A80036;stroke-width:1.0;"/><line style="stroke:#A80036;stroke-width:1.0;" x1="70" x2="377" y1="237.041" y2="237.041"/><text fill="#000000" font-family="sans-serif" font-size="13" font-weight="bold" lengthAdjust="spacing" textLength="9" x="77" y="232.2988">5</text><text fill="#000000" font-family="sans-serif" font-size="13" lengthAdjust="spacing" textLength="131" x="90" y="232.2988">types requested data</text><polygon fill="#A80036" points="81,262.3516,71,266.3516,81,270.3516,77,266.3516" style="stroke:#A80036;stroke-width:1.0;"/><line style="stroke:#A80036;stroke-width:1.0;stroke-dasharray:2.0,2.0;" x1="75" x2="387" y1="266.3516" y2="266.3516"/><text fill="#000000" font-family="sans-serif" font-size="13" font-weight="bold" lengthAdjust="spacing" textLength="9" x="87" y="261.6094">6</text><text fill="#000000" font-family="sans-serif" font-size="13" lengthAdjust="spacing" textLength="276" x="100" y="261.6094">shows the data and requests a confirmation</text><polygon fill="#A80036" points="371,291.6621,381,295.6621,371,299.6621,375,295.6621" style="stroke:#A80036;stroke-width:1.0;"/><line style="stroke:#A80036;stroke-width:1.0;" x1="70" x2="377" y1="295.6621" y2="295.6621"/><text fill="#000000" font-family="sans-serif" font-size="13" font-weight="bold" lengthAdjust="spacing" textLength="9" x="77" y="290.9199">7</text><text fill="#000000" font-family="sans-serif" font-size="13" lengthAdjust="spacing" textLength="111" x="90" y="290.9199">confirms the data</text><polygon fill="#A80036" points="81,320.9727,71,324.9727,81,328.9727,77,324.9727" style="stroke:#A80036;stroke-width:1.0;"/><line style="stroke:#A80036;stroke-width:1.0;stroke-dasharray:2.0,2.0;" x1="75" x2="387" y1="324.9727" y2="324.9727"/><text fill="#000000" font-family="sans-serif" font-size="13" font-weight="bold" lengthAdjust="spacing" textLength="9" x="87" y="320.2305">8</text><text fill="#000000" font-family="sans-serif" font-size="13" lengthAdjust="spacing" textLength="167" x="100" y="320.2305">informs operation success</text><!--MD5=[f97b498a93ea990e17015d6a5bfe9254]
@startuml
'https://plantuml.com/sequence-diagram

autonumber
actor "Specialist Doctor" as A
activate A
A -> System ++: write a report about a test result
System - -> A - -: shows the list of analyzed tests
A -> System ++: selects an analyzed test
System - ->  A - -: request data
A -> System ++: types requested data
System - -> A - -: shows the data and requests a confirmation
A -> System ++: confirms the data
System - -> A - -: informs operation success
@enduml

@startuml

autonumber
actor "Specialist Doctor" as A
activate A
A -> System ++: write a report about a test result
System - -> A - -: shows the list of analyzed tests
A -> System ++: selects an analyzed test
System - ->  A - -: request data
A -> System ++: types requested data
System - -> A - -: shows the data and requests a confirmation
A -> System ++: confirms the data
System - -> A - -: informs operation success
@enduml

PlantUML version 1.2021.4(Sun Apr 04 09:49:39 WEST 2021)
(GPL source distribution)
Java Runtime: OpenJDK Runtime Environment
JVM: OpenJDK 64-Bit Server VM
Default Encoding: UTF-8
Language: pt
Country: PT
--></g></svg>