<?xml version="1.0" encoding="UTF-8" standalone="no"?><svg xmlns="http://www.w3.org/2000/svg" xmlns:xlink="http://www.w3.org/1999/xlink" contentScriptType="application/ecmascript" contentStyleType="text/css" height="270px" preserveAspectRatio="none" style="width:382px;height:270px;" version="1.1" viewBox="0 0 382 270" width="382px" zoomAndPan="magnify"><defs><filter height="300%" id="folk6hgh6rxxa" width="300%" x="-1" y="-1"><feGaussianBlur result="blurOut" stdDeviation="2.0"/><feColorMatrix in="blurOut" result="blurOut2" type="matrix" values="0 0 0 0 0 0 0 0 0 0 0 0 0 0 0 0 0 0 .4 0"/><feOffset dx="4.0" dy="4.0" in="blurOut2" result="blurOut3"/><feBlend in="SourceGraphic" in2="blurOut3" mode="normal"/></filter></defs><g><!--MD5=[df38be88ccee13e832d6fafd6288a4ca]
class Test--><rect codeLine="19" fill="#FEFECE" filter="url(#folk6hgh6rxxa)" height="136.8516" id="Test" style="stroke:#A80036;stroke-width:1.5;" width="144" x="7" y="7"/><ellipse cx="62.75" cy="23" fill="#ADD1B2" rx="11" ry="11" style="stroke:#A80036;stroke-width:1.0;"/><path d="M64.75,19.5 Q64.9531,19 65.1875,18.75 Q65.4219,18.5 65.6875,18.5 Q66.1563,18.5 66.4531,18.7813 Q66.75,19.0625 66.75,19.7188 L66.75,21.2813 Q66.75,21.9375 66.4688,22.2188 Q66.1875,22.5 65.75,22.5 Q65.3594,22.5 65.1094,22.3281 Q64.8594,22.1563 64.75,21.7031 Q64.7031,21.3906 64.5313,21.2188 Q64.2188,20.8906 63.6563,20.7031 Q63.0938,20.5 62.5313,20.5 Q61.8281,20.5 61.2344,20.7813 Q60.6563,21.0625 60.2031,21.6875 Q59.75,22.3125 59.75,23.1719 L59.75,24.0938 Q59.75,25.125 60.5938,25.8125 Q61.4375,26.5 62.9375,26.5 Q63.8281,26.5 64.4531,26.2969 Q64.8125,26.1875 65.2188,25.8281 Q65.4844,25.625 65.625,25.5625 Q65.7656,25.5 65.9375,25.5 Q66.2656,25.5 66.5,25.7656 Q66.75,26.0156 66.75,26.375 Q66.75,26.7188 66.4063,27.125 Q65.9063,27.7188 65.1094,28.0469 Q64.0625,28.5 62.7813,28.5 Q61.2813,28.5 60.0781,27.9063 Q59.1094,27.4375 58.4219,26.4219 Q57.75,25.4063 57.75,24.2031 L57.75,23.1094 Q57.75,21.8594 58.3438,20.7656 Q58.9531,19.6719 60,19.0938 Q61.0625,18.5 62.25,18.5 Q62.9688,18.5 63.5938,18.75 Q64.2188,19 64.75,19.5 Z " fill="#000000"/><text fill="#000000" font-family="sans-serif" font-size="12" lengthAdjust="spacing" textLength="24" x="83.25" y="27.9102">Test</text><line style="stroke:#A80036;stroke-width:1.5;" x1="8" x2="150" y1="39" y2="39"/><text fill="#000000" font-family="sans-serif" font-size="11" lengthAdjust="spacing" textLength="57" x="13" y="54.4189">-description</text><text fill="#000000" font-family="sans-serif" font-size="11" lengthAdjust="spacing" textLength="28" x="13" y="68.2549">-code</text><text fill="#000000" font-family="sans-serif" font-size="11" lengthAdjust="spacing" textLength="47" x="13" y="82.0908">-nhsCode</text><text fill="#000000" font-family="sans-serif" font-size="11" lengthAdjust="spacing" textLength="79" x="13" y="95.9268">-collectDateTime</text><text fill="#000000" font-family="sans-serif" font-size="11" lengthAdjust="spacing" textLength="132" x="13" y="109.7627">-chemicalAnalysisDateTime</text><text fill="#000000" font-family="sans-serif" font-size="11" lengthAdjust="spacing" textLength="94" x="13" y="123.5986">-diagnosisDateTime</text><text fill="#000000" font-family="sans-serif" font-size="11" lengthAdjust="spacing" textLength="93" x="13" y="137.4346">-validationDateTime</text><!--MD5=[2741598bdf59a7d7e0d5c97658fd3022]
class Result--><rect codeLine="29" fill="#FEFECE" filter="url(#folk6hgh6rxxa)" height="40" id="Result" style="stroke:#A80036;stroke-width:1.5;" width="68" x="291.5" y="42.5"/><ellipse cx="306.5" cy="58.5" fill="#ADD1B2" rx="11" ry="11" style="stroke:#A80036;stroke-width:1.0;"/><path d="M308.5,55 Q308.7031,54.5 308.9375,54.25 Q309.1719,54 309.4375,54 Q309.9063,54 310.2031,54.2813 Q310.5,54.5625 310.5,55.2188 L310.5,56.7813 Q310.5,57.4375 310.2188,57.7188 Q309.9375,58 309.5,58 Q309.1094,58 308.8594,57.8281 Q308.6094,57.6563 308.5,57.2031 Q308.4531,56.8906 308.2813,56.7188 Q307.9688,56.3906 307.4063,56.2031 Q306.8438,56 306.2813,56 Q305.5781,56 304.9844,56.2813 Q304.4063,56.5625 303.9531,57.1875 Q303.5,57.8125 303.5,58.6719 L303.5,59.5938 Q303.5,60.625 304.3438,61.3125 Q305.1875,62 306.6875,62 Q307.5781,62 308.2031,61.7969 Q308.5625,61.6875 308.9688,61.3281 Q309.2344,61.125 309.375,61.0625 Q309.5156,61 309.6875,61 Q310.0156,61 310.25,61.2656 Q310.5,61.5156 310.5,61.875 Q310.5,62.2188 310.1563,62.625 Q309.6563,63.2188 308.8594,63.5469 Q307.8125,64 306.5313,64 Q305.0313,64 303.8281,63.4063 Q302.8594,62.9375 302.1719,61.9219 Q301.5,60.9063 301.5,59.7031 L301.5,58.6094 Q301.5,57.3594 302.0938,56.2656 Q302.7031,55.1719 303.75,54.5938 Q304.8125,54 306,54 Q306.7188,54 307.3438,54.25 Q307.9688,54.5 308.5,55 Z " fill="#000000"/><text fill="#000000" font-family="sans-serif" font-size="12" lengthAdjust="spacing" textLength="36" x="320.5" y="63.4102">Result</text><line style="stroke:#A80036;stroke-width:1.5;" x1="292.5" x2="358.5" y1="74.5" y2="74.5"/><!--MD5=[74783ec010d186752c4ffd5c6de5633a]
class NHSReport--><rect codeLine="32" fill="#FEFECE" filter="url(#folk6hgh6rxxa)" height="40" id="NHSReport" style="stroke:#A80036;stroke-width:1.5;" width="95" x="31.5" y="191.5"/><ellipse cx="46.5" cy="207.5" fill="#ADD1B2" rx="11" ry="11" style="stroke:#A80036;stroke-width:1.0;"/><path d="M48.5,204 Q48.7031,203.5 48.9375,203.25 Q49.1719,203 49.4375,203 Q49.9063,203 50.2031,203.2813 Q50.5,203.5625 50.5,204.2188 L50.5,205.7813 Q50.5,206.4375 50.2188,206.7188 Q49.9375,207 49.5,207 Q49.1094,207 48.8594,206.8281 Q48.6094,206.6563 48.5,206.2031 Q48.4531,205.8906 48.2813,205.7188 Q47.9688,205.3906 47.4063,205.2031 Q46.8438,205 46.2813,205 Q45.5781,205 44.9844,205.2813 Q44.4063,205.5625 43.9531,206.1875 Q43.5,206.8125 43.5,207.6719 L43.5,208.5938 Q43.5,209.625 44.3438,210.3125 Q45.1875,211 46.6875,211 Q47.5781,211 48.2031,210.7969 Q48.5625,210.6875 48.9688,210.3281 Q49.2344,210.125 49.375,210.0625 Q49.5156,210 49.6875,210 Q50.0156,210 50.25,210.2656 Q50.5,210.5156 50.5,210.875 Q50.5,211.2188 50.1563,211.625 Q49.6563,212.2188 48.8594,212.5469 Q47.8125,213 46.5313,213 Q45.0313,213 43.8281,212.4063 Q42.8594,211.9375 42.1719,210.9219 Q41.5,209.9063 41.5,208.7031 L41.5,207.6094 Q41.5,206.3594 42.0938,205.2656 Q42.7031,204.1719 43.75,203.5938 Q44.8125,203 46,203 Q46.7188,203 47.3438,203.25 Q47.9688,203.5 48.5,204 Z " fill="#000000"/><text fill="#000000" font-family="sans-serif" font-size="12" lengthAdjust="spacing" textLength="63" x="60.5" y="212.4102">NHSReport</text><line style="stroke:#A80036;stroke-width:1.5;" x1="32.5" x2="125.5" y1="223.5" y2="223.5"/><!--MD5=[0a105ea8d9af02dadec02d3e239f1d60]
class NHS--><rect codeLine="35" fill="#FEFECE" filter="url(#folk6hgh6rxxa)" height="40" id="NHS" style="stroke:#A80036;stroke-width:1.5;" width="58" x="296.5" y="216.5"/><ellipse cx="311.5" cy="232.5" fill="#ADD1B2" rx="11" ry="11" style="stroke:#A80036;stroke-width:1.0;"/><path d="M313.5,229 Q313.7031,228.5 313.9375,228.25 Q314.1719,228 314.4375,228 Q314.9063,228 315.2031,228.2813 Q315.5,228.5625 315.5,229.2188 L315.5,230.7813 Q315.5,231.4375 315.2188,231.7188 Q314.9375,232 314.5,232 Q314.1094,232 313.8594,231.8281 Q313.6094,231.6563 313.5,231.2031 Q313.4531,230.8906 313.2813,230.7188 Q312.9688,230.3906 312.4063,230.2031 Q311.8438,230 311.2813,230 Q310.5781,230 309.9844,230.2813 Q309.4063,230.5625 308.9531,231.1875 Q308.5,231.8125 308.5,232.6719 L308.5,233.5938 Q308.5,234.625 309.3438,235.3125 Q310.1875,236 311.6875,236 Q312.5781,236 313.2031,235.7969 Q313.5625,235.6875 313.9688,235.3281 Q314.2344,235.125 314.375,235.0625 Q314.5156,235 314.6875,235 Q315.0156,235 315.25,235.2656 Q315.5,235.5156 315.5,235.875 Q315.5,236.2188 315.1563,236.625 Q314.6563,237.2188 313.8594,237.5469 Q312.8125,238 311.5313,238 Q310.0313,238 308.8281,237.4063 Q307.8594,236.9375 307.1719,235.9219 Q306.5,234.9063 306.5,233.7031 L306.5,232.6094 Q306.5,231.3594 307.0938,230.2656 Q307.7031,229.1719 308.75,228.5938 Q309.8125,228 311,228 Q311.7188,228 312.3438,228.25 Q312.9688,228.5 313.5,229 Z " fill="#000000"/><text fill="#000000" font-family="sans-serif" font-size="12" lengthAdjust="spacing" textLength="26" x="325.5" y="237.4102">NHS</text><line style="stroke:#A80036;stroke-width:1.5;" x1="297.5" x2="353.5" y1="248.5" y2="248.5"/><!--MD5=[02e4b9b7573f1156f41e60aa5b4e25a4]
class Company--><rect codeLine="38" fill="#FEFECE" filter="url(#folk6hgh6rxxa)" height="53.8359" id="Company" style="stroke:#A80036;stroke-width:1.5;" width="85" x="283" y="122.5"/><ellipse cx="298" cy="138.5" fill="#ADD1B2" rx="11" ry="11" style="stroke:#A80036;stroke-width:1.0;"/><path d="M300,135 Q300.2031,134.5 300.4375,134.25 Q300.6719,134 300.9375,134 Q301.4063,134 301.7031,134.2813 Q302,134.5625 302,135.2188 L302,136.7813 Q302,137.4375 301.7188,137.7188 Q301.4375,138 301,138 Q300.6094,138 300.3594,137.8281 Q300.1094,137.6563 300,137.2031 Q299.9531,136.8906 299.7813,136.7188 Q299.4688,136.3906 298.9063,136.2031 Q298.3438,136 297.7813,136 Q297.0781,136 296.4844,136.2813 Q295.9063,136.5625 295.4531,137.1875 Q295,137.8125 295,138.6719 L295,139.5938 Q295,140.625 295.8438,141.3125 Q296.6875,142 298.1875,142 Q299.0781,142 299.7031,141.7969 Q300.0625,141.6875 300.4688,141.3281 Q300.7344,141.125 300.875,141.0625 Q301.0156,141 301.1875,141 Q301.5156,141 301.75,141.2656 Q302,141.5156 302,141.875 Q302,142.2188 301.6563,142.625 Q301.1563,143.2188 300.3594,143.5469 Q299.3125,144 298.0313,144 Q296.5313,144 295.3281,143.4063 Q294.3594,142.9375 293.6719,141.9219 Q293,140.9063 293,139.7031 L293,138.6094 Q293,137.3594 293.5938,136.2656 Q294.2031,135.1719 295.25,134.5938 Q296.3125,134 297.5,134 Q298.2188,134 298.8438,134.25 Q299.4688,134.5 300,135 Z " fill="#000000"/><text fill="#000000" font-family="sans-serif" font-size="12" lengthAdjust="spacing" textLength="53" x="312" y="143.4102">Company</text><line style="stroke:#A80036;stroke-width:1.5;" x1="284" x2="367" y1="154.5" y2="154.5"/><text fill="#000000" font-family="sans-serif" font-size="11" lengthAdjust="spacing" textLength="59" x="289" y="169.9189">-designation</text><!--MD5=[9163865a413f55935f47e026f9eaa033]
link Test to Result--><path codeLine="14" d="M151.05,71.72 C197.29,69.26 255.47,66.17 291.31,64.26 " fill="none" id="Test-Result" style="stroke:#A80036;stroke-width:1.0;"/><polygon fill="#000000" points="203.4929,57.4102,194.3045,54.9558,194.6167,60.8254,203.4929,57.4102" style="stroke:#000000;stroke-width:1.0;"/><text fill="#000000" font-family="sans-serif" font-size="13" lengthAdjust="spacing" textLength="32" x="207.5" y="62.9951">has a</text><text fill="#000000" font-family="sans-serif" font-size="13" lengthAdjust="spacing" textLength="7" x="158.8411" y="85.6761">1</text><text fill="#000000" font-family="sans-serif" font-size="13" lengthAdjust="spacing" textLength="7" x="276.5364" y="79.8044">1</text><!--MD5=[75b6a0b712d69d485259300c9058710b]
link NHSReport to Company--><path codeLine="15" d="M126.63,206.61 C161.87,202.15 211.16,194.27 253,181.5 C262.89,178.48 273.2,174.44 282.83,170.24 " fill="none" id="NHSReport-Company" style="stroke:#A80036;stroke-width:1.0;"/><polygon fill="#000000" points="181.1303,173.8097,190.6062,174.6208,189.2732,168.8961,181.1303,173.8097" style="stroke:#000000;stroke-width:1.0;"/><text fill="#000000" font-family="sans-serif" font-size="13" lengthAdjust="spacing" textLength="57" x="195" y="177.9951">generates</text><text fill="#000000" font-family="sans-serif" font-size="13" lengthAdjust="spacing" textLength="20" x="134.374" y="220.5466">1..*</text><text fill="#000000" font-family="sans-serif" font-size="13" lengthAdjust="spacing" textLength="7" x="267.8945" y="188.7191">1</text><!--MD5=[5853f8747c18e89b10dd024359cfe8ec]
link NHSReport to NHS--><path codeLine="16" d="M126.72,227.29 C143.61,232.24 162.97,237.05 181,239.5 C212.71,243.81 221.01,240.17 253,239.5 C267.28,239.2 283.16,238.56 296.32,237.96 " fill="none" id="NHSReport-NHS" style="stroke:#A80036;stroke-width:1.0;"/><polygon fill="#000000" points="192.4901,230.9897,183.6474,227.4887,183.2784,233.3549,192.4901,230.9897" style="stroke:#000000;stroke-width:1.0;"/><text fill="#000000" font-family="sans-serif" font-size="13" lengthAdjust="spacing" textLength="54" x="196.5" y="235.9951">is sent to</text><text fill="#000000" font-family="sans-serif" font-size="13" lengthAdjust="spacing" textLength="20" x="134.4761" y="244.0055">1..*</text><text fill="#000000" font-family="sans-serif" font-size="13" lengthAdjust="spacing" textLength="7" x="281.3543" y="253.8038">1</text><!--MD5=[150ee6e4dbb30ab82336f9e174f6c4ed]
link Test to Company--><path codeLine="17" d="M151.05,97 C193.77,109.93 246.67,125.94 282.75,136.86 " fill="none" id="Test-Company" style="stroke:#A80036;stroke-width:1.0;"/><polygon fill="#000000" points="184.7144,98.2274,192.5203,103.6605,194.223,98.0346,184.7144,98.2274" style="stroke:#000000;stroke-width:1.0;"/><text fill="#000000" font-family="sans-serif" font-size="13" lengthAdjust="spacing" textLength="50" x="198.5" y="104.9951">performs</text><text fill="#000000" font-family="sans-serif" font-size="13" lengthAdjust="spacing" textLength="5" x="159.2039" y="113.749">*</text><text fill="#000000" font-family="sans-serif" font-size="13" lengthAdjust="spacing" textLength="7" x="268.0898" y="149.6293">1</text><!--MD5=[9cf2043b096dc2a6c96f6e4135dac26b]
@startuml
'https://plantuml.com/class-diagram

hide methods
skinparam classAttributeIconSize 0
left to right direction


class Test
class Result
class NHSReport
class NHS
class Company

Test "1" - - "1" Result : > has a
NHSReport "1..*" - - "1" Company : < generates
NHSReport "1..*" - - "1" NHS : > is sent to
Test "*" - - "1" Company : < performs

class Test{
-description
-code
-nhsCode
-collectDateTime
-chemicalAnalysisDateTime
-diagnosisDateTime
-validationDateTime
}

class Result {
}

class NHSReport {
}

class NHS {
}

class Company{
-designation
}

@enduml

@startuml

hide methods
skinparam classAttributeIconSize 0
left to right direction


class Test
class Result
class NHSReport
class NHS
class Company

Test "1" - - "1" Result : > has a
NHSReport "1..*" - - "1" Company : < generates
NHSReport "1..*" - - "1" NHS : > is sent to
Test "*" - - "1" Company : < performs

class Test{
-description
-code
-nhsCode
-collectDateTime
-chemicalAnalysisDateTime
-diagnosisDateTime
-validationDateTime
}

class Result {
}

class NHSReport {
}

class NHS {
}

class Company{
-designation
}

@enduml

PlantUML version 1.2021.4(Sun Apr 04 09:49:39 BST 2021)
(GPL source distribution)
Java Runtime: OpenJDK Runtime Environment
JVM: OpenJDK 64-Bit Server VM
Default Encoding: Cp1252
Language: pt
Country: PT
--></g></svg>