<?xml version="1.0" encoding="UTF-8" standalone="no"?><svg xmlns="http://www.w3.org/2000/svg" xmlns:xlink="http://www.w3.org/1999/xlink" contentScriptType="application/ecmascript" contentStyleType="text/css" height="860px" preserveAspectRatio="none" style="width:1316px;height:860px;" version="1.1" viewBox="0 0 1316 860" width="1316px" zoomAndPan="magnify"><defs><filter height="300%" id="f161rvffrr6pq4" width="300%" x="-1" y="-1"><feGaussianBlur result="blurOut" stdDeviation="2.0"/><feColorMatrix in="blurOut" result="blurOut2" type="matrix" values="0 0 0 0 0 0 0 0 0 0 0 0 0 0 0 0 0 0 .4 0"/><feOffset dx="4.0" dy="4.0" in="blurOut2" result="blurOut3"/><feBlend in="SourceGraphic" in2="blurOut3" mode="normal"/></filter></defs><g><!--MD5=[2c2e2644034c00788261e03c85b06837]
cluster Core--><polygon fill="#FFFFFF" filter="url(#f161rvffrr6pq4)" points="16,6,56,6,63,29.6094,1299,29.6094,1299,632,16,632,16,6" style="stroke:#000000;stroke-width:1.5;"/><line style="stroke:#000000;stroke-width:1.5;" x1="16" x2="63" y1="29.6094" y2="29.6094"/><text fill="#000000" font-family="sans-serif" font-size="14" font-weight="bold" lengthAdjust="spacing" textLength="34" x="20" y="22.5332">Core</text><!--MD5=[ed1d20ea533a2a0e7df5ba3c35e56ced]
cluster Controllers--><polygon fill="#FFFFFF" filter="url(#f161rvffrr6pq4)" points="40,428,125,428,132,451.6094,431,451.6094,431,584,40,584,40,428" style="stroke:#000000;stroke-width:1.5;"/><line style="stroke:#000000;stroke-width:1.5;" x1="40" x2="132" y1="451.6094" y2="451.6094"/><text fill="#000000" font-family="sans-serif" font-size="14" font-weight="bold" lengthAdjust="spacing" textLength="79" x="44" y="444.5332">Controllers</text><!--MD5=[121a8bf1197281ab89ed693fab589f94]
cluster Domain--><polygon fill="#FFFFFF" filter="url(#f161rvffrr6pq4)" points="468.5,258,526.5,258,533.5,281.6094,1275,281.6094,1275,608,468.5,608,468.5,258" style="stroke:#000000;stroke-width:1.5;"/><line style="stroke:#000000;stroke-width:1.5;" x1="468.5" x2="533.5" y1="281.6094" y2="281.6094"/><text fill="#000000" font-family="sans-serif" font-size="14" font-weight="bold" lengthAdjust="spacing" textLength="52" x="472.5" y="274.5332">Domain</text><!--MD5=[8dd535d56cd4cf7faf64fdd082ba836e]
cluster Stores--><polygon fill="#FFFFFF" filter="url(#f161rvffrr6pq4)" points="464,50,516,50,523,73.6094,824,73.6094,824,234,464,234,464,50" style="stroke:#000000;stroke-width:1.5;"/><line style="stroke:#000000;stroke-width:1.5;" x1="464" x2="523" y1="73.6094" y2="73.6094"/><text fill="#000000" font-family="sans-serif" font-size="14" font-weight="bold" lengthAdjust="spacing" textLength="46" x="468" y="66.5332">Stores</text><!--MD5=[9681dc6e01e10c6b4fe06895ae94f592]
cluster UI--><polygon fill="#FFFFFF" filter="url(#f161rvffrr6pq4)" points="476.5,656,496.5,656,503.5,679.6094,811.5,679.6094,811.5,853,476.5,853,476.5,656" style="stroke:#000000;stroke-width:1.5;"/><line style="stroke:#000000;stroke-width:1.5;" x1="476.5" x2="503.5" y1="679.6094" y2="679.6094"/><text fill="#000000" font-family="sans-serif" font-size="14" font-weight="bold" lengthAdjust="spacing" textLength="14" x="480.5" y="672.5332">UI</text><!--MD5=[12a27d0038ea5202f326a742a9f1c12f]
class SRC--><rect codeLine="9" fill="#FEFECE" filter="url(#f161rvffrr6pq4)" height="103.3438" id="SRC" style="stroke:#A80036;stroke-width:1.5;" width="359" x="56" y="464.5"/><ellipse cx="171.25" cy="480.5" fill="#ADD1B2" rx="11" ry="11" style="stroke:#A80036;stroke-width:1.0;"/><path d="M173.25,477 Q173.4531,476.5 173.6875,476.25 Q173.9219,476 174.1875,476 Q174.6563,476 174.9531,476.2813 Q175.25,476.5625 175.25,477.2188 L175.25,478.7813 Q175.25,479.4375 174.9688,479.7188 Q174.6875,480 174.25,480 Q173.8594,480 173.6094,479.8281 Q173.3594,479.6563 173.25,479.2031 Q173.2031,478.8906 173.0313,478.7188 Q172.7188,478.3906 172.1563,478.2031 Q171.5938,478 171.0313,478 Q170.3281,478 169.7344,478.2813 Q169.1563,478.5625 168.7031,479.1875 Q168.25,479.8125 168.25,480.6719 L168.25,481.5938 Q168.25,482.625 169.0938,483.3125 Q169.9375,484 171.4375,484 Q172.3281,484 172.9531,483.7969 Q173.3125,483.6875 173.7188,483.3281 Q173.9844,483.125 174.125,483.0625 Q174.2656,483 174.4375,483 Q174.7656,483 175,483.2656 Q175.25,483.5156 175.25,483.875 Q175.25,484.2188 174.9063,484.625 Q174.4063,485.2188 173.6094,485.5469 Q172.5625,486 171.2813,486 Q169.7813,486 168.5781,485.4063 Q167.6094,484.9375 166.9219,483.9219 Q166.25,482.9063 166.25,481.7031 L166.25,480.6094 Q166.25,479.3594 166.8438,478.2656 Q167.4531,477.1719 168.5,476.5938 Q169.5625,476 170.75,476 Q171.4688,476 172.0938,476.25 Q172.7188,476.5 173.25,477 Z " fill="#000000"/><text fill="#000000" font-family="sans-serif" font-size="12" lengthAdjust="spacing" textLength="120" x="191.75" y="485.4102">SendReportController</text><line style="stroke:#A80036;stroke-width:1.5;" x1="57" x2="414" y1="496.5" y2="496.5"/><line style="stroke:#A80036;stroke-width:1.5;" x1="57" x2="414" y1="504.5" y2="504.5"/><text fill="#000000" font-family="sans-serif" font-size="11" lengthAdjust="spacing" textLength="281" x="62" y="519.9189">+getAllTestWithResultCovidPositive(dateToSee, histPoints)</text><text fill="#000000" font-family="sans-serif" font-size="11" lengthAdjust="spacing" textLength="347" x="62" y="533.7549">+SimpleLinearRegression(userInteraction, sigLevel, confLevel, hypTest)</text><text fill="#000000" font-family="sans-serif" font-size="11" lengthAdjust="spacing" textLength="210" x="62" y="547.5908">+MultilinearRegression(sigLevel, confLevel)</text><text fill="#000000" font-family="sans-serif" font-size="11" lengthAdjust="spacing" textLength="91" x="62" y="561.4268">+sendNHSReport()</text><!--MD5=[378b18254a1b2429f435e93f5e5cc50c]
class C--><rect codeLine="18" fill="#FEFECE" filter="url(#f161rvffrr6pq4)" height="103.3438" id="C" style="stroke:#A80036;stroke-width:1.5;" width="317" x="942" y="488.5"/><ellipse cx="1069.75" cy="504.5" fill="#ADD1B2" rx="11" ry="11" style="stroke:#A80036;stroke-width:1.0;"/><path d="M1071.75,501 Q1071.9531,500.5 1072.1875,500.25 Q1072.4219,500 1072.6875,500 Q1073.1563,500 1073.4531,500.2813 Q1073.75,500.5625 1073.75,501.2188 L1073.75,502.7813 Q1073.75,503.4375 1073.4688,503.7188 Q1073.1875,504 1072.75,504 Q1072.3594,504 1072.1094,503.8281 Q1071.8594,503.6563 1071.75,503.2031 Q1071.7031,502.8906 1071.5313,502.7188 Q1071.2188,502.3906 1070.6563,502.2031 Q1070.0938,502 1069.5313,502 Q1068.8281,502 1068.2344,502.2813 Q1067.6563,502.5625 1067.2031,503.1875 Q1066.75,503.8125 1066.75,504.6719 L1066.75,505.5938 Q1066.75,506.625 1067.5938,507.3125 Q1068.4375,508 1069.9375,508 Q1070.8281,508 1071.4531,507.7969 Q1071.8125,507.6875 1072.2188,507.3281 Q1072.4844,507.125 1072.625,507.0625 Q1072.7656,507 1072.9375,507 Q1073.2656,507 1073.5,507.2656 Q1073.75,507.5156 1073.75,507.875 Q1073.75,508.2188 1073.4063,508.625 Q1072.9063,509.2188 1072.1094,509.5469 Q1071.0625,510 1069.7813,510 Q1068.2813,510 1067.0781,509.4063 Q1066.1094,508.9375 1065.4219,507.9219 Q1064.75,506.9063 1064.75,505.7031 L1064.75,504.6094 Q1064.75,503.3594 1065.3438,502.2656 Q1065.9531,501.1719 1067,500.5938 Q1068.0625,500 1069.25,500 Q1069.9688,500 1070.5938,500.25 Q1071.2188,500.5 1071.75,501 Z " fill="#000000"/><text fill="#000000" font-family="sans-serif" font-size="12" lengthAdjust="spacing" textLength="53" x="1090.25" y="509.4102">Company</text><line style="stroke:#A80036;stroke-width:1.5;" x1="943" x2="1258" y1="520.5" y2="520.5"/><text fill="#000000" font-family="sans-serif" font-size="11" lengthAdjust="spacing" textLength="59" x="948" y="535.9189">-designation</text><line style="stroke:#A80036;stroke-width:1.5;" x1="943" x2="1258" y1="542.3359" y2="542.3359"/><text fill="#000000" font-family="sans-serif" font-size="11" lengthAdjust="spacing" textLength="126" x="948" y="557.7549">+TestStore getTestStore()</text><text fill="#000000" font-family="sans-serif" font-size="11" lengthAdjust="spacing" textLength="305" x="948" y="571.5908">+NHSReport generateNHSReport(sigLevel, confLevel, hypTest)</text><text fill="#000000" font-family="sans-serif" font-size="11" lengthAdjust="spacing" textLength="260" x="948" y="585.4268">+NHSReport generateNHSReport(sigLevel, confLevel)</text><!--MD5=[725d0b6fa2b9f0532ac875c0aa24e1eb]
class NHSR--><rect codeLine="25" fill="#FEFECE" filter="url(#f161rvffrr6pq4)" height="103.3438" id="NHSR" style="stroke:#A80036;stroke-width:1.5;" width="319" x="484.5" y="400.5"/><ellipse cx="608.25" cy="416.5" fill="#ADD1B2" rx="11" ry="11" style="stroke:#A80036;stroke-width:1.0;"/><path d="M610.25,413 Q610.4531,412.5 610.6875,412.25 Q610.9219,412 611.1875,412 Q611.6563,412 611.9531,412.2813 Q612.25,412.5625 612.25,413.2188 L612.25,414.7813 Q612.25,415.4375 611.9688,415.7188 Q611.6875,416 611.25,416 Q610.8594,416 610.6094,415.8281 Q610.3594,415.6563 610.25,415.2031 Q610.2031,414.8906 610.0313,414.7188 Q609.7188,414.3906 609.1563,414.2031 Q608.5938,414 608.0313,414 Q607.3281,414 606.7344,414.2813 Q606.1563,414.5625 605.7031,415.1875 Q605.25,415.8125 605.25,416.6719 L605.25,417.5938 Q605.25,418.625 606.0938,419.3125 Q606.9375,420 608.4375,420 Q609.3281,420 609.9531,419.7969 Q610.3125,419.6875 610.7188,419.3281 Q610.9844,419.125 611.125,419.0625 Q611.2656,419 611.4375,419 Q611.7656,419 612,419.2656 Q612.25,419.5156 612.25,419.875 Q612.25,420.2188 611.9063,420.625 Q611.4063,421.2188 610.6094,421.5469 Q609.5625,422 608.2813,422 Q606.7813,422 605.5781,421.4063 Q604.6094,420.9375 603.9219,419.9219 Q603.25,418.9063 603.25,417.7031 L603.25,416.6094 Q603.25,415.3594 603.8438,414.2656 Q604.4531,413.1719 605.5,412.5938 Q606.5625,412 607.75,412 Q608.4688,412 609.0938,412.25 Q609.7188,412.5 610.25,413 Z " fill="#000000"/><text fill="#000000" font-family="sans-serif" font-size="12" lengthAdjust="spacing" textLength="63" x="628.75" y="421.4102">NHSReport</text><line style="stroke:#A80036;stroke-width:1.5;" x1="485.5" x2="802.5" y1="432.5" y2="432.5"/><line style="stroke:#A80036;stroke-width:1.5;" x1="485.5" x2="802.5" y1="440.5" y2="440.5"/><text fill="#000000" font-family="sans-serif" font-size="11" lengthAdjust="spacing" textLength="206" x="490.5" y="455.9189">+NHSReport(sigLevel, confLevel, hypTest)</text><text fill="#000000" font-family="sans-serif" font-size="11" lengthAdjust="spacing" textLength="161" x="490.5" y="469.7549">+NHSReport(sigLevel, confLevel)</text><text fill="#000000" font-family="sans-serif" font-size="11" lengthAdjust="spacing" textLength="298" x="490.5" y="483.5908">+String calculateData(arrayX, arrayY, lstDateExceptSundays)</text><text fill="#000000" font-family="sans-serif" font-size="11" lengthAdjust="spacing" textLength="307" x="490.5" y="497.4268">+String calculateData(BiarrayX, arrayY, lstDateExceptSundays)</text><!--MD5=[18800f080df943e7e38d3435375abf1d]
class R2NHS--><rect codeLine="32" fill="#FEFECE" filter="url(#f161rvffrr6pq4)" height="61.8359" id="R2NHS" style="stroke:#A80036;stroke-width:1.5;" width="144" x="572" y="303"/><ellipse cx="605.9" cy="319" fill="#ADD1B2" rx="11" ry="11" style="stroke:#A80036;stroke-width:1.0;"/><path d="M607.9,315.5 Q608.1031,315 608.3375,314.75 Q608.5719,314.5 608.8375,314.5 Q609.3063,314.5 609.6031,314.7813 Q609.9,315.0625 609.9,315.7188 L609.9,317.2813 Q609.9,317.9375 609.6188,318.2188 Q609.3375,318.5 608.9,318.5 Q608.5094,318.5 608.2594,318.3281 Q608.0094,318.1563 607.9,317.7031 Q607.8531,317.3906 607.6813,317.2188 Q607.3688,316.8906 606.8063,316.7031 Q606.2438,316.5 605.6813,316.5 Q604.9781,316.5 604.3844,316.7813 Q603.8063,317.0625 603.3531,317.6875 Q602.9,318.3125 602.9,319.1719 L602.9,320.0938 Q602.9,321.125 603.7438,321.8125 Q604.5875,322.5 606.0875,322.5 Q606.9781,322.5 607.6031,322.2969 Q607.9625,322.1875 608.3688,321.8281 Q608.6344,321.625 608.775,321.5625 Q608.9156,321.5 609.0875,321.5 Q609.4156,321.5 609.65,321.7656 Q609.9,322.0156 609.9,322.375 Q609.9,322.7188 609.5563,323.125 Q609.0563,323.7188 608.2594,324.0469 Q607.2125,324.5 605.9313,324.5 Q604.4313,324.5 603.2281,323.9063 Q602.2594,323.4375 601.5719,322.4219 Q600.9,321.4063 600.9,320.2031 L600.9,319.1094 Q600.9,317.8594 601.4938,316.7656 Q602.1031,315.6719 603.15,315.0938 Q604.2125,314.5 605.4,314.5 Q606.1188,314.5 606.7438,314.75 Q607.3688,315 607.9,315.5 Z " fill="#000000"/><text fill="#000000" font-family="sans-serif" font-size="12" lengthAdjust="spacing" textLength="70" x="624.1" y="323.9102">Report2NHS</text><line style="stroke:#A80036;stroke-width:1.5;" x1="573" x2="715" y1="335" y2="335"/><line style="stroke:#A80036;stroke-width:1.5;" x1="573" x2="715" y1="343" y2="343"/><text fill="#000000" font-family="sans-serif" font-size="11" lengthAdjust="spacing" textLength="132" x="578" y="358.4189">+writeUsingFileWriter(data)</text><!--MD5=[78b7d86d14bdec4920922b93cca5613d]
class LR--><rect codeLine="36" fill="#FEFECE" filter="url(#f161rvffrr6pq4)" height="61.8359" id="LR" style="stroke:#A80036;stroke-width:1.5;" width="187" x="1007" y="391"/><ellipse cx="1046.75" cy="407" fill="#ADD1B2" rx="11" ry="11" style="stroke:#A80036;stroke-width:1.0;"/><path d="M1048.75,403.5 Q1048.9531,403 1049.1875,402.75 Q1049.4219,402.5 1049.6875,402.5 Q1050.1563,402.5 1050.4531,402.7813 Q1050.75,403.0625 1050.75,403.7188 L1050.75,405.2813 Q1050.75,405.9375 1050.4688,406.2188 Q1050.1875,406.5 1049.75,406.5 Q1049.3594,406.5 1049.1094,406.3281 Q1048.8594,406.1563 1048.75,405.7031 Q1048.7031,405.3906 1048.5313,405.2188 Q1048.2188,404.8906 1047.6563,404.7031 Q1047.0938,404.5 1046.5313,404.5 Q1045.8281,404.5 1045.2344,404.7813 Q1044.6563,405.0625 1044.2031,405.6875 Q1043.75,406.3125 1043.75,407.1719 L1043.75,408.0938 Q1043.75,409.125 1044.5938,409.8125 Q1045.4375,410.5 1046.9375,410.5 Q1047.8281,410.5 1048.4531,410.2969 Q1048.8125,410.1875 1049.2188,409.8281 Q1049.4844,409.625 1049.625,409.5625 Q1049.7656,409.5 1049.9375,409.5 Q1050.2656,409.5 1050.5,409.7656 Q1050.75,410.0156 1050.75,410.375 Q1050.75,410.7188 1050.4063,411.125 Q1049.9063,411.7188 1049.1094,412.0469 Q1048.0625,412.5 1046.7813,412.5 Q1045.2813,412.5 1044.0781,411.9063 Q1043.1094,411.4375 1042.4219,410.4219 Q1041.75,409.4063 1041.75,408.2031 L1041.75,407.1094 Q1041.75,405.8594 1042.3438,404.7656 Q1042.9531,403.6719 1044,403.0938 Q1045.0625,402.5 1046.25,402.5 Q1046.9688,402.5 1047.5938,402.75 Q1048.2188,403 1048.75,403.5 Z " fill="#000000"/><text fill="#000000" font-family="sans-serif" font-size="12" lengthAdjust="spacing" textLength="100" x="1066.25" y="411.9102">LinearRegression</text><line style="stroke:#A80036;stroke-width:1.5;" x1="1008" x2="1193" y1="423" y2="423"/><line style="stroke:#A80036;stroke-width:1.5;" x1="1008" x2="1193" y1="431" y2="431"/><text fill="#000000" font-family="sans-serif" font-size="11" lengthAdjust="spacing" textLength="175" x="1013" y="446.4189">+LinearRegression (arrayX, arrayY)</text><!--MD5=[252b6e21c7fb5e8880e6ea61aefc6d2e]
class MLR--><rect codeLine="40" fill="#FEFECE" filter="url(#f161rvffrr6pq4)" height="61.8359" id="MLR" style="stroke:#A80036;stroke-width:1.5;" width="213" x="994" y="294"/><ellipse cx="1036" cy="310" fill="#ADD1B2" rx="11" ry="11" style="stroke:#A80036;stroke-width:1.0;"/><path d="M1038,306.5 Q1038.2031,306 1038.4375,305.75 Q1038.6719,305.5 1038.9375,305.5 Q1039.4063,305.5 1039.7031,305.7813 Q1040,306.0625 1040,306.7188 L1040,308.2813 Q1040,308.9375 1039.7188,309.2188 Q1039.4375,309.5 1039,309.5 Q1038.6094,309.5 1038.3594,309.3281 Q1038.1094,309.1563 1038,308.7031 Q1037.9531,308.3906 1037.7813,308.2188 Q1037.4688,307.8906 1036.9063,307.7031 Q1036.3438,307.5 1035.7813,307.5 Q1035.0781,307.5 1034.4844,307.7813 Q1033.9063,308.0625 1033.4531,308.6875 Q1033,309.3125 1033,310.1719 L1033,311.0938 Q1033,312.125 1033.8438,312.8125 Q1034.6875,313.5 1036.1875,313.5 Q1037.0781,313.5 1037.7031,313.2969 Q1038.0625,313.1875 1038.4688,312.8281 Q1038.7344,312.625 1038.875,312.5625 Q1039.0156,312.5 1039.1875,312.5 Q1039.5156,312.5 1039.75,312.7656 Q1040,313.0156 1040,313.375 Q1040,313.7188 1039.6563,314.125 Q1039.1563,314.7188 1038.3594,315.0469 Q1037.3125,315.5 1036.0313,315.5 Q1034.5313,315.5 1033.3281,314.9063 Q1032.3594,314.4375 1031.6719,313.4219 Q1031,312.4063 1031,311.2031 L1031,310.1094 Q1031,308.8594 1031.5938,307.7656 Q1032.2031,306.6719 1033.25,306.0938 Q1034.3125,305.5 1035.5,305.5 Q1036.2188,305.5 1036.8438,305.75 Q1037.4688,306 1038,306.5 Z " fill="#000000"/><text fill="#000000" font-family="sans-serif" font-size="12" lengthAdjust="spacing" textLength="121" x="1056" y="314.9102">MultilinearRegression</text><line style="stroke:#A80036;stroke-width:1.5;" x1="995" x2="1206" y1="326" y2="326"/><line style="stroke:#A80036;stroke-width:1.5;" x1="995" x2="1206" y1="334" y2="334"/><text fill="#000000" font-family="sans-serif" font-size="11" lengthAdjust="spacing" textLength="201" x="1000" y="349.4189">+MultilinearRegression (BiarrayX, arrayY)</text><!--MD5=[b0a1b9137b50b50b320b426f68562434]
class TS--><rect codeLine="48" fill="#FEFECE" filter="url(#f161rvffrr6pq4)" height="131.0156" id="TS" style="stroke:#A80036;stroke-width:1.5;" width="328" x="480" y="86.5"/><ellipse cx="613.25" cy="102.5" fill="#ADD1B2" rx="11" ry="11" style="stroke:#A80036;stroke-width:1.0;"/><path d="M615.25,99 Q615.4531,98.5 615.6875,98.25 Q615.9219,98 616.1875,98 Q616.6563,98 616.9531,98.2813 Q617.25,98.5625 617.25,99.2188 L617.25,100.7813 Q617.25,101.4375 616.9688,101.7188 Q616.6875,102 616.25,102 Q615.8594,102 615.6094,101.8281 Q615.3594,101.6563 615.25,101.2031 Q615.2031,100.8906 615.0313,100.7188 Q614.7188,100.3906 614.1563,100.2031 Q613.5938,100 613.0313,100 Q612.3281,100 611.7344,100.2813 Q611.1563,100.5625 610.7031,101.1875 Q610.25,101.8125 610.25,102.6719 L610.25,103.5938 Q610.25,104.625 611.0938,105.3125 Q611.9375,106 613.4375,106 Q614.3281,106 614.9531,105.7969 Q615.3125,105.6875 615.7188,105.3281 Q615.9844,105.125 616.125,105.0625 Q616.2656,105 616.4375,105 Q616.7656,105 617,105.2656 Q617.25,105.5156 617.25,105.875 Q617.25,106.2188 616.9063,106.625 Q616.4063,107.2188 615.6094,107.5469 Q614.5625,108 613.2813,108 Q611.7813,108 610.5781,107.4063 Q609.6094,106.9375 608.9219,105.9219 Q608.25,104.9063 608.25,103.7031 L608.25,102.6094 Q608.25,101.3594 608.8438,100.2656 Q609.4531,99.1719 610.5,98.5938 Q611.5625,98 612.75,98 Q613.4688,98 614.0938,98.25 Q614.7188,98.5 615.25,99 Z " fill="#000000"/><text fill="#000000" font-family="sans-serif" font-size="12" lengthAdjust="spacing" textLength="53" x="633.75" y="107.4102">TestStore</text><line style="stroke:#A80036;stroke-width:1.5;" x1="481" x2="807" y1="118.5" y2="118.5"/><line style="stroke:#A80036;stroke-width:1.5;" x1="481" x2="807" y1="126.5" y2="126.5"/><text fill="#000000" font-family="sans-serif" font-size="11" lengthAdjust="spacing" textLength="251" x="486" y="141.9189">+List&lt;Test&gt; getAllTestWithResultCovidPositive(date)</text><text fill="#000000" font-family="sans-serif" font-size="11" lengthAdjust="spacing" textLength="316" x="486" y="155.7549">+double[] getDailyPositiveTests(lstAllTestWithResultCovidPositive)</text><text fill="#000000" font-family="sans-serif" font-size="11" lengthAdjust="spacing" textLength="158" x="486" y="169.5908">+int getDailyPerformedTest(date)</text><text fill="#000000" font-family="sans-serif" font-size="11" lengthAdjust="spacing" textLength="217" x="486" y="183.4268">+List &lt;Test&gt; getAllTestWithResultCovid(date)</text><text fill="#000000" font-family="sans-serif" font-size="11" lengthAdjust="spacing" textLength="279" x="486" y="197.2627">+double[] getMeanAgeFromList(lstAllTestWithResultCovid)</text><text fill="#000000" font-family="sans-serif" font-size="11" lengthAdjust="spacing" textLength="275" x="486" y="211.0986">+double[][] createBiarrayX (dailyNumberTests, meanAge)</text><!--MD5=[aa192b0d584dc87a249dd2e4466a01f6]
class SRUI--><rect codeLine="60" fill="#FEFECE" filter="url(#f161rvffrr6pq4)" height="48" id="SRUI" style="stroke:#A80036;stroke-width:1.5;" width="110" x="589" y="789"/><ellipse cx="604" cy="805" fill="#ADD1B2" rx="11" ry="11" style="stroke:#A80036;stroke-width:1.0;"/><path d="M606,801.5 Q606.2031,801 606.4375,800.75 Q606.6719,800.5 606.9375,800.5 Q607.4063,800.5 607.7031,800.7813 Q608,801.0625 608,801.7188 L608,803.2813 Q608,803.9375 607.7188,804.2188 Q607.4375,804.5 607,804.5 Q606.6094,804.5 606.3594,804.3281 Q606.1094,804.1563 606,803.7031 Q605.9531,803.3906 605.7813,803.2188 Q605.4688,802.8906 604.9063,802.7031 Q604.3438,802.5 603.7813,802.5 Q603.0781,802.5 602.4844,802.7813 Q601.9063,803.0625 601.4531,803.6875 Q601,804.3125 601,805.1719 L601,806.0938 Q601,807.125 601.8438,807.8125 Q602.6875,808.5 604.1875,808.5 Q605.0781,808.5 605.7031,808.2969 Q606.0625,808.1875 606.4688,807.8281 Q606.7344,807.625 606.875,807.5625 Q607.0156,807.5 607.1875,807.5 Q607.5156,807.5 607.75,807.7656 Q608,808.0156 608,808.375 Q608,808.7188 607.6563,809.125 Q607.1563,809.7188 606.3594,810.0469 Q605.3125,810.5 604.0313,810.5 Q602.5313,810.5 601.3281,809.9063 Q600.3594,809.4375 599.6719,808.4219 Q599,807.4063 599,806.2031 L599,805.1094 Q599,803.8594 599.5938,802.7656 Q600.2031,801.6719 601.25,801.0938 Q602.3125,800.5 603.5,800.5 Q604.2188,800.5 604.8438,800.75 Q605.4688,801 606,801.5 Z " fill="#000000"/><text fill="#000000" font-family="sans-serif" font-size="12" lengthAdjust="spacing" textLength="78" x="618" y="809.9102">SendReportUI</text><line style="stroke:#A80036;stroke-width:1.5;" x1="590" x2="698" y1="821" y2="821"/><line style="stroke:#A80036;stroke-width:1.5;" x1="590" x2="698" y1="829" y2="829"/><!--MD5=[64dca1f8d25645e316b7620b91da6f13]
class U--><rect codeLine="62" fill="#FEFECE" filter="url(#f161rvffrr6pq4)" height="61.8359" id="U" style="stroke:#A80036;stroke-width:1.5;" width="303" x="492.5" y="692"/><ellipse cx="627.25" cy="708" fill="#ADD1B2" rx="11" ry="11" style="stroke:#A80036;stroke-width:1.0;"/><path d="M629.25,704.5 Q629.4531,704 629.6875,703.75 Q629.9219,703.5 630.1875,703.5 Q630.6563,703.5 630.9531,703.7813 Q631.25,704.0625 631.25,704.7188 L631.25,706.2813 Q631.25,706.9375 630.9688,707.2188 Q630.6875,707.5 630.25,707.5 Q629.8594,707.5 629.6094,707.3281 Q629.3594,707.1563 629.25,706.7031 Q629.2031,706.3906 629.0313,706.2188 Q628.7188,705.8906 628.1563,705.7031 Q627.5938,705.5 627.0313,705.5 Q626.3281,705.5 625.7344,705.7813 Q625.1563,706.0625 624.7031,706.6875 Q624.25,707.3125 624.25,708.1719 L624.25,709.0938 Q624.25,710.125 625.0938,710.8125 Q625.9375,711.5 627.4375,711.5 Q628.3281,711.5 628.9531,711.2969 Q629.3125,711.1875 629.7188,710.8281 Q629.9844,710.625 630.125,710.5625 Q630.2656,710.5 630.4375,710.5 Q630.7656,710.5 631,710.7656 Q631.25,711.0156 631.25,711.375 Q631.25,711.7188 630.9063,712.125 Q630.4063,712.7188 629.6094,713.0469 Q628.5625,713.5 627.2813,713.5 Q625.7813,713.5 624.5781,712.9063 Q623.6094,712.4375 622.9219,711.4219 Q622.25,710.4063 622.25,709.2031 L622.25,708.1094 Q622.25,706.8594 622.8438,705.7656 Q623.4531,704.6719 624.5,704.0938 Q625.5625,703.5 626.75,703.5 Q627.4688,703.5 628.0938,703.75 Q628.7188,704 629.25,704.5 Z " fill="#000000"/><text fill="#000000" font-family="sans-serif" font-size="12" lengthAdjust="spacing" textLength="25" x="647.75" y="712.9102">Utils</text><line style="stroke:#A80036;stroke-width:1.5;" x1="493.5" x2="794.5" y1="724" y2="724"/><line style="stroke:#A80036;stroke-width:1.5;" x1="493.5" x2="794.5" y1="732" y2="732"/><text fill="#000000" font-family="sans-serif" font-size="11" lengthAdjust="spacing" textLength="291" x="498.5" y="747.4189">+List&lt;Date&gt; getDaysWithoutSundays(dateToSee, histPoints)</text><!--MD5=[03c301f484fa6fc0e1bfdfbe7ae85b42]
link SRUI to SRC--><path codeLine="67" d="M588.88,809.9 C549.62,805.58 496.51,795.31 456,771 C373.87,721.71 306.9,630.94 269.36,572.05 " fill="none" id="SRUI-to-SRC" style="stroke:#A80036;stroke-width:1.0;stroke-dasharray:7.0,7.0;"/><polygon fill="#A80036" points="266.49,567.52,267.9387,577.2617,269.1707,571.7407,274.6918,572.9726,266.49,567.52" style="stroke:#A80036;stroke-width:1.0;"/><!--MD5=[ec55081fb5b35db79e7516c3a603bf1e]
link SRC to U--><path codeLine="68" d="M337.77,567.57 C412.74,605.75 512.71,656.65 577.47,689.63 " fill="none" id="SRC-to-U" style="stroke:#A80036;stroke-width:1.0;stroke-dasharray:7.0,7.0;"/><polygon fill="#A80036" points="582.07,691.97,575.8674,684.3196,577.6151,689.6997,572.235,691.4474,582.07,691.97" style="stroke:#A80036;stroke-width:1.0;"/><!--MD5=[7284bde8bf849338038054d0ec765b65]
link SRC to C--><path codeLine="69" d="M415.05,520.97 C568.48,525.23 787.86,531.33 936.58,535.47 " fill="none" id="SRC-to-C" style="stroke:#A80036;stroke-width:1.0;stroke-dasharray:7.0,7.0;"/><polygon fill="#A80036" points="941.84,535.62,932.9579,531.3646,936.842,535.4772,932.7294,539.3613,941.84,535.62" style="stroke:#A80036;stroke-width:1.0;"/><!--MD5=[5a071d0dcd7d4ee99dede58994775496]
link SRC to TS--><path codeLine="70" d="M277.95,464.46 C319.94,413.93 388.19,336.21 456,278 C479.54,257.79 506.43,238.02 532.34,220.35 " fill="none" id="SRC-to-TS" style="stroke:#A80036;stroke-width:1.0;stroke-dasharray:7.0,7.0;"/><polygon fill="#A80036" points="536.49,217.53,526.8004,219.2941,532.3586,220.3462,531.3064,225.9044,536.49,217.53" style="stroke:#A80036;stroke-width:1.0;"/><!--MD5=[93d7b6405a475211da8dd1f480a92c45]
link SRC to NHSR--><path codeLine="71" d="M415.09,487.88 C436.41,484.53 458.09,481.11 479.18,477.79 " fill="none" id="SRC-to-NHSR" style="stroke:#A80036;stroke-width:1.0;stroke-dasharray:7.0,7.0;"/><polygon fill="#A80036" points="484.24,477,474.7308,474.4357,479.2998,477.771,475.9645,482.34,484.24,477" style="stroke:#A80036;stroke-width:1.0;"/><!--MD5=[440067a220176d5d68e3a36c834b5b80]
link NHSR to LR--><path codeLine="72" d="M803.64,441.53 C869.52,437.18 943.88,432.27 1001.57,428.46 " fill="none" id="NHSR-to-LR" style="stroke:#A80036;stroke-width:1.0;stroke-dasharray:7.0,7.0;"/><polygon fill="#A80036" points="1006.75,428.12,997.5064,424.7205,1001.7608,428.4488,998.0325,432.7032,1006.75,428.12" style="stroke:#A80036;stroke-width:1.0;"/><!--MD5=[3d20bcd0a7fa2317eda8383254ed4bd0]
link NHSR to MLR--><path codeLine="73" d="M803.64,407.67 C864.79,390.58 933.26,371.45 988.92,355.9 " fill="none" id="NHSR-to-MLR" style="stroke:#A80036;stroke-width:1.0;stroke-dasharray:7.0,7.0;"/><polygon fill="#A80036" points="993.92,354.5,984.1723,353.092,989.1076,355.8566,986.3429,360.7919,993.92,354.5" style="stroke:#A80036;stroke-width:1.0;"/><!--MD5=[7e19d43d5753a043528dc12cb4903f81]
link SRC to R2NHS--><path codeLine="74" d="M309.82,464.22 C351.18,436.93 404.71,404.72 456,383 C491.2,368.1 532.1,356.75 566.65,348.76 " fill="none" id="SRC-to-R2NHS" style="stroke:#A80036;stroke-width:1.0;stroke-dasharray:7.0,7.0;"/><polygon fill="#A80036" points="571.7,347.6,562.0347,345.7075,566.8259,348.7149,563.8185,353.5061,571.7,347.6" style="stroke:#A80036;stroke-width:1.0;"/><!--MD5=[e2c72a59ea5b5a2e70f014290bec7f3c]
link NHSR to C--><path codeLine="75" d="M803.64,482.72 C848.46,491.39 897.2,500.83 941.95,509.5 " fill="none" id="NHSR-C" style="stroke:#A80036;stroke-width:1.0;"/><polygon fill="#000000" points="840.0912,481.2253,848.4127,485.8301,849.53,480.0594,840.0912,481.2253" style="stroke:#000000;stroke-width:1.0;"/><text fill="#000000" font-family="sans-serif" font-size="13" lengthAdjust="spacing" textLength="57" x="854" y="487.4951">generates</text><text fill="#000000" font-family="sans-serif" font-size="13" lengthAdjust="spacing" textLength="20" x="811.3268" y="497.9698">1..*</text><text fill="#000000" font-family="sans-serif" font-size="13" lengthAdjust="spacing" textLength="7" x="927.1007" y="521.9055">1</text><!--MD5=[f6145c43dde3d33540b2541a15403d3e]
@startuml
'https://plantuml.com/class-diagram

skinparam classAttributeIconSize 0
left to right direction

package Core{

package Controllers{
class "SendReportController" as SRC {
+getAllTestWithResultCovidPositive(dateToSee, histPoints)
+SimpleLinearRegression(userInteraction, sigLevel, confLevel, hypTest)
+MultilinearRegression(sigLevel, confLevel)
+sendNHSReport()
}
}

package Domain{
class "Company" as C {
-designation
+TestStore getTestStore()
+NHSReport generateNHSReport(sigLevel, confLevel, hypTest)
+NHSReport generateNHSReport(sigLevel, confLevel)
}

class "NHSReport" as NHSR {
+NHSReport(sigLevel, confLevel, hypTest)
+NHSReport(sigLevel, confLevel)
+String calculateData(arrayX, arrayY, lstDateExceptSundays)
+String calculateData(BiarrayX, arrayY, lstDateExceptSundays)
}

class "Report2NHS" as R2NHS {
+writeUsingFileWriter(data)
}

class "LinearRegression" as LR {
+LinearRegression (arrayX, arrayY)
}

class "MultilinearRegression" as MLR {
+MultilinearRegression (BiarrayX, arrayY)
}

}

package Stores{

class "TestStore" as TS {
+List<Test> getAllTestWithResultCovidPositive(date)
+double[] getDailyPositiveTests(lstAllTestWithResultCovidPositive)
+int getDailyPerformedTest(date)
+List <Test> getAllTestWithResultCovid(date)
+double[] getMeanAgeFromList(lstAllTestWithResultCovid)
+double[][] createBiarrayX (dailyNumberTests, meanAge)
}
}
}

package UI{
class "SendReportUI" as SRUI

class "Utils" as U {
+List<Date> getDaysWithoutSundays(dateToSee, histPoints)
}
}

SRUI ..> SRC
SRC ..> U
SRC ..> C
SRC ..> TS
SRC ..> NHSR
NHSR ..> LR
NHSR ..> MLR
SRC ..> R2NHS
NHSR "1..*" - - "1" C : < generates

@enduml

@startuml

skinparam classAttributeIconSize 0
left to right direction

package Core{

package Controllers{
class "SendReportController" as SRC {
+getAllTestWithResultCovidPositive(dateToSee, histPoints)
+SimpleLinearRegression(userInteraction, sigLevel, confLevel, hypTest)
+MultilinearRegression(sigLevel, confLevel)
+sendNHSReport()
}
}

package Domain{
class "Company" as C {
-designation
+TestStore getTestStore()
+NHSReport generateNHSReport(sigLevel, confLevel, hypTest)
+NHSReport generateNHSReport(sigLevel, confLevel)
}

class "NHSReport" as NHSR {
+NHSReport(sigLevel, confLevel, hypTest)
+NHSReport(sigLevel, confLevel)
+String calculateData(arrayX, arrayY, lstDateExceptSundays)
+String calculateData(BiarrayX, arrayY, lstDateExceptSundays)
}

class "Report2NHS" as R2NHS {
+writeUsingFileWriter(data)
}

class "LinearRegression" as LR {
+LinearRegression (arrayX, arrayY)
}

class "MultilinearRegression" as MLR {
+MultilinearRegression (BiarrayX, arrayY)
}

}

package Stores{

class "TestStore" as TS {
+List<Test> getAllTestWithResultCovidPositive(date)
+double[] getDailyPositiveTests(lstAllTestWithResultCovidPositive)
+int getDailyPerformedTest(date)
+List <Test> getAllTestWithResultCovid(date)
+double[] getMeanAgeFromList(lstAllTestWithResultCovid)
+double[][] createBiarrayX (dailyNumberTests, meanAge)
}
}
}

package UI{
class "SendReportUI" as SRUI

class "Utils" as U {
+List<Date> getDaysWithoutSundays(dateToSee, histPoints)
}
}

SRUI ..> SRC
SRC ..> U
SRC ..> C
SRC ..> TS
SRC ..> NHSR
NHSR ..> LR
NHSR ..> MLR
SRC ..> R2NHS
NHSR "1..*" - - "1" C : < generates

@enduml

PlantUML version 1.2021.4(Sun Apr 04 09:49:39 BST 2021)
(GPL source distribution)
Java Runtime: OpenJDK Runtime Environment
JVM: OpenJDK 64-Bit Server VM
Default Encoding: Cp1252
Language: pt
Country: PT
--></g></svg>