<?xml version="1.0" encoding="UTF-8" standalone="no"?><svg xmlns="http://www.w3.org/2000/svg" xmlns:xlink="http://www.w3.org/1999/xlink" contentScriptType="application/ecmascript" contentStyleType="text/css" height="583px" preserveAspectRatio="none" style="width:1085px;height:583px;" version="1.1" viewBox="0 0 1085 583" width="1085px" zoomAndPan="magnify"><defs><filter height="300%" id="fc5m6vtop5d3a" width="300%" x="-1" y="-1"><feGaussianBlur result="blurOut" stdDeviation="2.0"/><feColorMatrix in="blurOut" result="blurOut2" type="matrix" values="0 0 0 0 0 0 0 0 0 0 0 0 0 0 0 0 0 0 .4 0"/><feOffset dx="4.0" dy="4.0" in="blurOut2" result="blurOut3"/><feBlend in="SourceGraphic" in2="blurOut3" mode="normal"/></filter></defs><g><!--MD5=[2c2e2644034c00788261e03c85b06837]
cluster Core--><polygon fill="#FFFFFF" filter="url(#fc5m6vtop5d3a)" points="182,6,222,6,229,29.6094,1068,29.6094,1068,576,182,576,182,6" style="stroke:#000000;stroke-width:1.5;"/><line style="stroke:#000000;stroke-width:1.5;" x1="182" x2="229" y1="29.6094" y2="29.6094"/><text fill="#000000" font-family="sans-serif" font-size="14" font-weight="bold" lengthAdjust="spacing" textLength="34" x="186" y="22.5332">Core</text><!--MD5=[ed1d20ea533a2a0e7df5ba3c35e56ced]
cluster Controllers--><polygon fill="#FFFFFF" filter="url(#fc5m6vtop5d3a)" points="206,251,291,251,298,274.6094,509,274.6094,509,393,206,393,206,251" style="stroke:#000000;stroke-width:1.5;"/><line style="stroke:#000000;stroke-width:1.5;" x1="206" x2="298" y1="274.6094" y2="274.6094"/><text fill="#000000" font-family="sans-serif" font-size="14" font-weight="bold" lengthAdjust="spacing" textLength="79" x="210" y="267.5332">Controllers</text><!--MD5=[121a8bf1197281ab89ed693fab589f94]
cluster Domain--><polygon fill="#FFFFFF" filter="url(#fc5m6vtop5d3a)" points="537,188,595,188,602,211.6094,1044,211.6094,1044,552,537,552,537,188" style="stroke:#000000;stroke-width:1.5;"/><line style="stroke:#000000;stroke-width:1.5;" x1="537" x2="602" y1="211.6094" y2="211.6094"/><text fill="#000000" font-family="sans-serif" font-size="14" font-weight="bold" lengthAdjust="spacing" textLength="52" x="541" y="204.5332">Domain</text><!--MD5=[8dd535d56cd4cf7faf64fdd082ba836e]
cluster Stores--><polygon fill="#FFFFFF" filter="url(#fc5m6vtop5d3a)" points="578,50,630,50,637,73.6094,799,73.6094,799,164,578,164,578,50" style="stroke:#000000;stroke-width:1.5;"/><line style="stroke:#000000;stroke-width:1.5;" x1="578" x2="637" y1="73.6094" y2="73.6094"/><text fill="#000000" font-family="sans-serif" font-size="14" font-weight="bold" lengthAdjust="spacing" textLength="46" x="582" y="66.5332">Stores</text><!--MD5=[9681dc6e01e10c6b4fe06895ae94f592]
cluster UI--><polygon fill="#FFFFFF" filter="url(#fc5m6vtop5d3a)" points="16,272,36,272,43,295.6094,158,295.6094,158,372,16,372,16,272" style="stroke:#000000;stroke-width:1.5;"/><line style="stroke:#000000;stroke-width:1.5;" x1="16" x2="43" y1="295.6094" y2="295.6094"/><text fill="#000000" font-family="sans-serif" font-size="14" font-weight="bold" lengthAdjust="spacing" textLength="14" x="20" y="288.5332">UI</text><!--MD5=[12a27d0038ea5202f326a742a9f1c12f]
class SRC--><rect codeLine="9" fill="#FEFECE" filter="url(#fc5m6vtop5d3a)" height="89.5078" id="SRC" style="stroke:#A80036;stroke-width:1.5;" width="271" x="222" y="287"/><ellipse cx="293.25" cy="303" fill="#ADD1B2" rx="11" ry="11" style="stroke:#A80036;stroke-width:1.0;"/><path d="M295.25,299.5 Q295.4531,299 295.6875,298.75 Q295.9219,298.5 296.1875,298.5 Q296.6563,298.5 296.9531,298.7813 Q297.25,299.0625 297.25,299.7188 L297.25,301.2813 Q297.25,301.9375 296.9688,302.2188 Q296.6875,302.5 296.25,302.5 Q295.8594,302.5 295.6094,302.3281 Q295.3594,302.1563 295.25,301.7031 Q295.2031,301.3906 295.0313,301.2188 Q294.7188,300.8906 294.1563,300.7031 Q293.5938,300.5 293.0313,300.5 Q292.3281,300.5 291.7344,300.7813 Q291.1563,301.0625 290.7031,301.6875 Q290.25,302.3125 290.25,303.1719 L290.25,304.0938 Q290.25,305.125 291.0938,305.8125 Q291.9375,306.5 293.4375,306.5 Q294.3281,306.5 294.9531,306.2969 Q295.3125,306.1875 295.7188,305.8281 Q295.9844,305.625 296.125,305.5625 Q296.2656,305.5 296.4375,305.5 Q296.7656,305.5 297,305.7656 Q297.25,306.0156 297.25,306.375 Q297.25,306.7188 296.9063,307.125 Q296.4063,307.7188 295.6094,308.0469 Q294.5625,308.5 293.2813,308.5 Q291.7813,308.5 290.5781,307.9063 Q289.6094,307.4375 288.9219,306.4219 Q288.25,305.4063 288.25,304.2031 L288.25,303.1094 Q288.25,301.8594 288.8438,300.7656 Q289.4531,299.6719 290.5,299.0938 Q291.5625,298.5 292.75,298.5 Q293.4688,298.5 294.0938,298.75 Q294.7188,299 295.25,299.5 Z " fill="#000000"/><text fill="#000000" font-family="sans-serif" font-size="12" lengthAdjust="spacing" textLength="120" x="313.75" y="307.9102">SendReportController</text><line style="stroke:#A80036;stroke-width:1.5;" x1="223" x2="492" y1="319" y2="319"/><line style="stroke:#A80036;stroke-width:1.5;" x1="223" x2="492" y1="327" y2="327"/><text fill="#000000" font-family="sans-serif" font-size="11" lengthAdjust="spacing" textLength="177" x="228" y="342.4189">+getAllTestWithResultCovidPositive()</text><text fill="#000000" font-family="sans-serif" font-size="11" lengthAdjust="spacing" textLength="259" x="228" y="356.2549">+generateNHSReport(listTestWithResultCovidPositive)</text><text fill="#000000" font-family="sans-serif" font-size="11" lengthAdjust="spacing" textLength="91" x="228" y="370.0908">+saveNHSReport()</text><!--MD5=[378b18254a1b2429f435e93f5e5cc50c]
class C--><rect codeLine="17" fill="#FEFECE" filter="url(#fc5m6vtop5d3a)" height="89.5078" id="C" style="stroke:#A80036;stroke-width:1.5;" width="271" x="553" y="224"/><ellipse cx="657.75" cy="240" fill="#ADD1B2" rx="11" ry="11" style="stroke:#A80036;stroke-width:1.0;"/><path d="M659.75,236.5 Q659.9531,236 660.1875,235.75 Q660.4219,235.5 660.6875,235.5 Q661.1563,235.5 661.4531,235.7813 Q661.75,236.0625 661.75,236.7188 L661.75,238.2813 Q661.75,238.9375 661.4688,239.2188 Q661.1875,239.5 660.75,239.5 Q660.3594,239.5 660.1094,239.3281 Q659.8594,239.1563 659.75,238.7031 Q659.7031,238.3906 659.5313,238.2188 Q659.2188,237.8906 658.6563,237.7031 Q658.0938,237.5 657.5313,237.5 Q656.8281,237.5 656.2344,237.7813 Q655.6563,238.0625 655.2031,238.6875 Q654.75,239.3125 654.75,240.1719 L654.75,241.0938 Q654.75,242.125 655.5938,242.8125 Q656.4375,243.5 657.9375,243.5 Q658.8281,243.5 659.4531,243.2969 Q659.8125,243.1875 660.2188,242.8281 Q660.4844,242.625 660.625,242.5625 Q660.7656,242.5 660.9375,242.5 Q661.2656,242.5 661.5,242.7656 Q661.75,243.0156 661.75,243.375 Q661.75,243.7188 661.4063,244.125 Q660.9063,244.7188 660.1094,245.0469 Q659.0625,245.5 657.7813,245.5 Q656.2813,245.5 655.0781,244.9063 Q654.1094,244.4375 653.4219,243.4219 Q652.75,242.4063 652.75,241.2031 L652.75,240.1094 Q652.75,238.8594 653.3438,237.7656 Q653.9531,236.6719 655,236.0938 Q656.0625,235.5 657.25,235.5 Q657.9688,235.5 658.5938,235.75 Q659.2188,236 659.75,236.5 Z " fill="#000000"/><text fill="#000000" font-family="sans-serif" font-size="12" lengthAdjust="spacing" textLength="53" x="678.25" y="244.9102">Company</text><line style="stroke:#A80036;stroke-width:1.5;" x1="554" x2="823" y1="256" y2="256"/><text fill="#000000" font-family="sans-serif" font-size="11" lengthAdjust="spacing" textLength="59" x="559" y="271.4189">-designation</text><line style="stroke:#A80036;stroke-width:1.5;" x1="554" x2="823" y1="277.8359" y2="277.8359"/><text fill="#000000" font-family="sans-serif" font-size="11" lengthAdjust="spacing" textLength="76" x="559" y="293.2549">+getTestStore()</text><text fill="#000000" font-family="sans-serif" font-size="11" lengthAdjust="spacing" textLength="259" x="559" y="307.0908">+generateNHSReport(listTestWithResultCovidPositive)</text><!--MD5=[725d0b6fa2b9f0532ac875c0aa24e1eb]
class NHSR--><rect codeLine="23" fill="#FEFECE" filter="url(#fc5m6vtop5d3a)" height="89.5078" id="NHSR" style="stroke:#A80036;stroke-width:1.5;" width="116" x="630.5" y="349"/><ellipse cx="654.95" cy="365" fill="#ADD1B2" rx="11" ry="11" style="stroke:#A80036;stroke-width:1.0;"/><path d="M656.95,361.5 Q657.1531,361 657.3875,360.75 Q657.6219,360.5 657.8875,360.5 Q658.3563,360.5 658.6531,360.7813 Q658.95,361.0625 658.95,361.7188 L658.95,363.2813 Q658.95,363.9375 658.6688,364.2188 Q658.3875,364.5 657.95,364.5 Q657.5594,364.5 657.3094,364.3281 Q657.0594,364.1563 656.95,363.7031 Q656.9031,363.3906 656.7313,363.2188 Q656.4188,362.8906 655.8563,362.7031 Q655.2938,362.5 654.7313,362.5 Q654.0281,362.5 653.4344,362.7813 Q652.8563,363.0625 652.4031,363.6875 Q651.95,364.3125 651.95,365.1719 L651.95,366.0938 Q651.95,367.125 652.7938,367.8125 Q653.6375,368.5 655.1375,368.5 Q656.0281,368.5 656.6531,368.2969 Q657.0125,368.1875 657.4188,367.8281 Q657.6844,367.625 657.825,367.5625 Q657.9656,367.5 658.1375,367.5 Q658.4656,367.5 658.7,367.7656 Q658.95,368.0156 658.95,368.375 Q658.95,368.7188 658.6063,369.125 Q658.1063,369.7188 657.3094,370.0469 Q656.2625,370.5 654.9813,370.5 Q653.4813,370.5 652.2781,369.9063 Q651.3094,369.4375 650.6219,368.4219 Q649.95,367.4063 649.95,366.2031 L649.95,365.1094 Q649.95,363.8594 650.5438,362.7656 Q651.1531,361.6719 652.2,361.0938 Q653.2625,360.5 654.45,360.5 Q655.1688,360.5 655.7938,360.75 Q656.4188,361 656.95,361.5 Z " fill="#000000"/><text fill="#000000" font-family="sans-serif" font-size="12" lengthAdjust="spacing" textLength="63" x="671.05" y="369.9102">NHSReport</text><line style="stroke:#A80036;stroke-width:1.5;" x1="631.5" x2="745.5" y1="381" y2="381"/><line style="stroke:#A80036;stroke-width:1.5;" x1="631.5" x2="745.5" y1="389" y2="389"/><text fill="#000000" font-family="sans-serif" font-size="11" lengthAdjust="spacing" textLength="67" x="636.5" y="404.4189">+NHSReport()</text><text fill="#000000" font-family="sans-serif" font-size="11" lengthAdjust="spacing" textLength="51" x="636.5" y="418.2549">+getData()</text><text fill="#000000" font-family="sans-serif" font-size="11" lengthAdjust="spacing" textLength="104" x="636.5" y="432.0908">+validateNHSReport()</text><!--MD5=[8d822ddc52ad7c5c65c4266cef810510]
class SRAPIA--><rect codeLine="29" fill="#FEFECE" filter="url(#fc5m6vtop5d3a)" height="61.8359" id="SRAPIA" style="stroke:#A80036;stroke-width:1.5;" width="158" x="609.5" y="474"/><ellipse cx="624.5" cy="490" fill="#ADD1B2" rx="11" ry="11" style="stroke:#A80036;stroke-width:1.0;"/><path d="M626.5,486.5 Q626.7031,486 626.9375,485.75 Q627.1719,485.5 627.4375,485.5 Q627.9063,485.5 628.2031,485.7813 Q628.5,486.0625 628.5,486.7188 L628.5,488.2813 Q628.5,488.9375 628.2188,489.2188 Q627.9375,489.5 627.5,489.5 Q627.1094,489.5 626.8594,489.3281 Q626.6094,489.1563 626.5,488.7031 Q626.4531,488.3906 626.2813,488.2188 Q625.9688,487.8906 625.4063,487.7031 Q624.8438,487.5 624.2813,487.5 Q623.5781,487.5 622.9844,487.7813 Q622.4063,488.0625 621.9531,488.6875 Q621.5,489.3125 621.5,490.1719 L621.5,491.0938 Q621.5,492.125 622.3438,492.8125 Q623.1875,493.5 624.6875,493.5 Q625.5781,493.5 626.2031,493.2969 Q626.5625,493.1875 626.9688,492.8281 Q627.2344,492.625 627.375,492.5625 Q627.5156,492.5 627.6875,492.5 Q628.0156,492.5 628.25,492.7656 Q628.5,493.0156 628.5,493.375 Q628.5,493.7188 628.1563,494.125 Q627.6563,494.7188 626.8594,495.0469 Q625.8125,495.5 624.5313,495.5 Q623.0313,495.5 621.8281,494.9063 Q620.8594,494.4375 620.1719,493.4219 Q619.5,492.4063 619.5,491.2031 L619.5,490.1094 Q619.5,488.8594 620.0938,487.7656 Q620.7031,486.6719 621.75,486.0938 Q622.8125,485.5 624,485.5 Q624.7188,485.5 625.3438,485.75 Q625.9688,486 626.5,486.5 Z " fill="#000000"/><text fill="#000000" font-family="sans-serif" font-size="12" lengthAdjust="spacing" textLength="126" x="638.5" y="494.9102">SendReportAPIAdapter</text><line style="stroke:#A80036;stroke-width:1.5;" x1="610.5" x2="766.5" y1="506" y2="506"/><line style="stroke:#A80036;stroke-width:1.5;" x1="610.5" x2="766.5" y1="514" y2="514"/><text fill="#000000" font-family="sans-serif" font-size="11" lengthAdjust="spacing" textLength="132" x="615.5" y="529.4189">+writeUsingFileWriter(data)</text><!--MD5=[7e9f12d6af46009d4fa648dd274c5974]
class SRAPI--><rect codeLine="33" fill="#FEFECE" filter="url(#fc5m6vtop5d3a)" height="61.8359" id="SRAPI" style="stroke:#A80036;stroke-width:1.5;" width="144" x="884" y="474"/><ellipse cx="910.7" cy="490" fill="#B4A7E5" rx="11" ry="11" style="stroke:#A80036;stroke-width:1.0;"/><path d="M911.7,487 L911.7,493 L913.7,493 L914.1844,493 L914.7,493.625 L914.7,494 L914.7,494.375 L914.1844,495 L913.7,495 L907.7,495 L907.2156,495 L906.7,494.375 L906.7,494 L906.7,493.625 L907.2156,493 L907.7,493 L909.7,493 L909.7,487 L907.7,487 L907.2156,487 L906.7,486.375 L906.7,486 L906.7,485.625 L907.2156,485 L907.7,485 L913.7,485 L914.1844,485 L914.7,485.625 L914.7,486 L914.7,486.375 L914.1844,487 L913.7,487 L911.7,487 Z " fill="#000000"/><text fill="#000000" font-family="sans-serif" font-size="12" font-style="italic" lengthAdjust="spacing" textLength="86" x="927.3" y="494.9102">SendReportAPI</text><line style="stroke:#A80036;stroke-width:1.5;" x1="885" x2="1027" y1="506" y2="506"/><line style="stroke:#A80036;stroke-width:1.5;" x1="885" x2="1027" y1="514" y2="514"/><text fill="#000000" font-family="sans-serif" font-size="11" lengthAdjust="spacing" textLength="132" x="890" y="529.4189">+writeUsingFileWriter(data)</text><!--MD5=[b0a1b9137b50b50b320b426f68562434]
class TS--><rect codeLine="40" fill="#FEFECE" filter="url(#fc5m6vtop5d3a)" height="61.8359" id="TS" style="stroke:#A80036;stroke-width:1.5;" width="189" x="594" y="86"/><ellipse cx="657.75" cy="102" fill="#ADD1B2" rx="11" ry="11" style="stroke:#A80036;stroke-width:1.0;"/><path d="M659.75,98.5 Q659.9531,98 660.1875,97.75 Q660.4219,97.5 660.6875,97.5 Q661.1563,97.5 661.4531,97.7813 Q661.75,98.0625 661.75,98.7188 L661.75,100.2813 Q661.75,100.9375 661.4688,101.2188 Q661.1875,101.5 660.75,101.5 Q660.3594,101.5 660.1094,101.3281 Q659.8594,101.1563 659.75,100.7031 Q659.7031,100.3906 659.5313,100.2188 Q659.2188,99.8906 658.6563,99.7031 Q658.0938,99.5 657.5313,99.5 Q656.8281,99.5 656.2344,99.7813 Q655.6563,100.0625 655.2031,100.6875 Q654.75,101.3125 654.75,102.1719 L654.75,103.0938 Q654.75,104.125 655.5938,104.8125 Q656.4375,105.5 657.9375,105.5 Q658.8281,105.5 659.4531,105.2969 Q659.8125,105.1875 660.2188,104.8281 Q660.4844,104.625 660.625,104.5625 Q660.7656,104.5 660.9375,104.5 Q661.2656,104.5 661.5,104.7656 Q661.75,105.0156 661.75,105.375 Q661.75,105.7188 661.4063,106.125 Q660.9063,106.7188 660.1094,107.0469 Q659.0625,107.5 657.7813,107.5 Q656.2813,107.5 655.0781,106.9063 Q654.1094,106.4375 653.4219,105.4219 Q652.75,104.4063 652.75,103.2031 L652.75,102.1094 Q652.75,100.8594 653.3438,99.7656 Q653.9531,98.6719 655,98.0938 Q656.0625,97.5 657.25,97.5 Q657.9688,97.5 658.5938,97.75 Q659.2188,98 659.75,98.5 Z " fill="#000000"/><text fill="#000000" font-family="sans-serif" font-size="12" lengthAdjust="spacing" textLength="53" x="678.25" y="106.9102">TestStore</text><line style="stroke:#A80036;stroke-width:1.5;" x1="595" x2="782" y1="118" y2="118"/><line style="stroke:#A80036;stroke-width:1.5;" x1="595" x2="782" y1="126" y2="126"/><text fill="#000000" font-family="sans-serif" font-size="11" lengthAdjust="spacing" textLength="177" x="600" y="141.4189">+getAllTestWithResultCovidPositive()</text><!--MD5=[aa192b0d584dc87a249dd2e4466a01f6]
class SRUI--><rect codeLine="47" fill="#FEFECE" filter="url(#fc5m6vtop5d3a)" height="48" id="SRUI" style="stroke:#A80036;stroke-width:1.5;" width="110" x="32" y="308"/><ellipse cx="47" cy="324" fill="#ADD1B2" rx="11" ry="11" style="stroke:#A80036;stroke-width:1.0;"/><path d="M49,320.5 Q49.2031,320 49.4375,319.75 Q49.6719,319.5 49.9375,319.5 Q50.4063,319.5 50.7031,319.7813 Q51,320.0625 51,320.7188 L51,322.2813 Q51,322.9375 50.7188,323.2188 Q50.4375,323.5 50,323.5 Q49.6094,323.5 49.3594,323.3281 Q49.1094,323.1563 49,322.7031 Q48.9531,322.3906 48.7813,322.2188 Q48.4688,321.8906 47.9063,321.7031 Q47.3438,321.5 46.7813,321.5 Q46.0781,321.5 45.4844,321.7813 Q44.9063,322.0625 44.4531,322.6875 Q44,323.3125 44,324.1719 L44,325.0938 Q44,326.125 44.8438,326.8125 Q45.6875,327.5 47.1875,327.5 Q48.0781,327.5 48.7031,327.2969 Q49.0625,327.1875 49.4688,326.8281 Q49.7344,326.625 49.875,326.5625 Q50.0156,326.5 50.1875,326.5 Q50.5156,326.5 50.75,326.7656 Q51,327.0156 51,327.375 Q51,327.7188 50.6563,328.125 Q50.1563,328.7188 49.3594,329.0469 Q48.3125,329.5 47.0313,329.5 Q45.5313,329.5 44.3281,328.9063 Q43.3594,328.4375 42.6719,327.4219 Q42,326.4063 42,325.2031 L42,324.1094 Q42,322.8594 42.5938,321.7656 Q43.2031,320.6719 44.25,320.0938 Q45.3125,319.5 46.5,319.5 Q47.2188,319.5 47.8438,319.75 Q48.4688,320 49,320.5 Z " fill="#000000"/><text fill="#000000" font-family="sans-serif" font-size="12" lengthAdjust="spacing" textLength="78" x="61" y="328.9102">SendReportUI</text><line style="stroke:#A80036;stroke-width:1.5;" x1="33" x2="141" y1="340" y2="340"/><line style="stroke:#A80036;stroke-width:1.5;" x1="33" x2="141" y1="348" y2="348"/><!--MD5=[03c301f484fa6fc0e1bfdfbe7ae85b42]
link SRUI to SRC--><path codeLine="50" d="M142.01,332 C163.76,332 189.95,332 216.44,332 " fill="none" id="SRUI-to-SRC" style="stroke:#A80036;stroke-width:1.0;stroke-dasharray:7.0,7.0;"/><polygon fill="#A80036" points="221.74,332,212.74,328,216.74,332,212.74,336,221.74,332" style="stroke:#A80036;stroke-width:1.0;"/><!--MD5=[7284bde8bf849338038054d0ec765b65]
link SRC to C--><path codeLine="51" d="M493.27,306.19 C511.27,302.75 529.77,299.2 547.85,295.74 " fill="none" id="SRC-to-C" style="stroke:#A80036;stroke-width:1.0;stroke-dasharray:7.0,7.0;"/><polygon fill="#A80036" points="552.94,294.77,543.3475,292.5375,548.0296,295.7121,544.8549,300.3942,552.94,294.77" style="stroke:#A80036;stroke-width:1.0;"/><!--MD5=[5a071d0dcd7d4ee99dede58994775496]
link SRC to TS--><path codeLine="52" d="M417.37,286.78 C449.72,262.55 490.91,232.68 529,208 C559.96,187.94 595.5,167.32 625.06,150.8 " fill="none" id="SRC-to-TS" style="stroke:#A80036;stroke-width:1.0;stroke-dasharray:7.0,7.0;"/><polygon fill="#A80036" points="629.76,148.19,619.95,149.0642,625.3892,150.6182,623.8352,156.0574,629.76,148.19" style="stroke:#A80036;stroke-width:1.0;"/><!--MD5=[93d7b6405a475211da8dd1f480a92c45]
link SRC to NHSR--><path codeLine="53" d="M493.27,357.4 C539.12,366.04 588.16,375.28 625.5,382.32 " fill="none" id="SRC-to-NHSR" style="stroke:#A80036;stroke-width:1.0;stroke-dasharray:7.0,7.0;"/><polygon fill="#A80036" points="630.45,383.25,622.3335,377.6713,625.5343,382.3355,620.8702,385.5363,630.45,383.25" style="stroke:#A80036;stroke-width:1.0;"/><!--MD5=[636e8b59492cfe517cc724d04d2fc350]
link SRC to SRAPIA--><path codeLine="54" d="M410.83,377.06 C443.15,403.05 486.46,434.69 529,456 C552.54,467.79 579.48,477.41 604.38,484.9 " fill="none" id="SRC-to-SRAPIA" style="stroke:#A80036;stroke-width:1.0;stroke-dasharray:7.0,7.0;"/><polygon fill="#A80036" points="609.34,486.37,601.8549,479.9689,604.5477,484.9437,599.5729,487.6365,609.34,486.37" style="stroke:#A80036;stroke-width:1.0;"/><!--MD5=[86ee9ec198264567511700cde4453a66]
link SRAPIA to SRAPI--><path codeLine="55" d="M767.72,505 C802.71,505 843.82,505 878.59,505 " fill="none" id="SRAPIA-to-SRAPI" style="stroke:#A80036;stroke-width:1.0;stroke-dasharray:7.0,7.0;"/><polygon fill="#A80036" points="883.68,505,874.68,501,878.68,505,874.68,509,883.68,505" style="stroke:#A80036;stroke-width:1.0;"/><!--MD5=[ea82372108d7b8b7af8d1ac14cd237f0]
@startuml
'https://plantuml.com/class-diagram

skinparam classAttributeIconSize 0
left to right direction

package Core{

package Controllers{
class "SendReportController" as SRC {
+getAllTestWithResultCovidPositive()
+generateNHSReport(listTestWithResultCovidPositive)
+saveNHSReport()
}
}

package Domain{
class "Company" as C {
-designation
+getTestStore()
+generateNHSReport(listTestWithResultCovidPositive)
}

class "NHSReport" as NHSR {
+NHSReport()
+getData()
+validateNHSReport()
}

class "SendReportAPIAdapter" as SRAPIA {
+writeUsingFileWriter(data)
}

interface "SendReportAPI" as SRAPI {
+writeUsingFileWriter(data)
}
}

package Stores{

class "TestStore" as TS {
+getAllTestWithResultCovidPositive()
}
}
}

package UI{
class "SendReportUI" as SRUI
}

SRUI ..> SRC
SRC ..> C
SRC ..> TS
SRC ..> NHSR
SRC ..> SRAPIA
SRAPIA ..> SRAPI

@enduml

@startuml

skinparam classAttributeIconSize 0
left to right direction

package Core{

package Controllers{
class "SendReportController" as SRC {
+getAllTestWithResultCovidPositive()
+generateNHSReport(listTestWithResultCovidPositive)
+saveNHSReport()
}
}

package Domain{
class "Company" as C {
-designation
+getTestStore()
+generateNHSReport(listTestWithResultCovidPositive)
}

class "NHSReport" as NHSR {
+NHSReport()
+getData()
+validateNHSReport()
}

class "SendReportAPIAdapter" as SRAPIA {
+writeUsingFileWriter(data)
}

interface "SendReportAPI" as SRAPI {
+writeUsingFileWriter(data)
}
}

package Stores{

class "TestStore" as TS {
+getAllTestWithResultCovidPositive()
}
}
}

package UI{
class "SendReportUI" as SRUI
}

SRUI ..> SRC
SRC ..> C
SRC ..> TS
SRC ..> NHSR
SRC ..> SRAPIA
SRAPIA ..> SRAPI

@enduml

PlantUML version 1.2021.4(Sun Apr 04 09:49:39 BST 2021)
(GPL source distribution)
Java Runtime: OpenJDK Runtime Environment
JVM: OpenJDK 64-Bit Server VM
Default Encoding: Cp1252
Language: pt
Country: PT
--></g></svg>