<?xml version="1.0" encoding="UTF-8" standalone="no"?><svg xmlns="http://www.w3.org/2000/svg" xmlns:xlink="http://www.w3.org/1999/xlink" contentScriptType="application/ecmascript" contentStyleType="text/css" height="846px" preserveAspectRatio="none" style="width:1316px;height:846px;" version="1.1" viewBox="0 0 1316 846" width="1316px" zoomAndPan="magnify"><defs><filter height="300%" id="fmguwzbl2is5n" width="300%" x="-1" y="-1"><feGaussianBlur result="blurOut" stdDeviation="2.0"/><feColorMatrix in="blurOut" result="blurOut2" type="matrix" values="0 0 0 0 0 0 0 0 0 0 0 0 0 0 0 0 0 0 .4 0"/><feOffset dx="4.0" dy="4.0" in="blurOut2" result="blurOut3"/><feBlend in="SourceGraphic" in2="blurOut3" mode="normal"/></filter></defs><g><!--MD5=[2c2e2644034c00788261e03c85b06837]
cluster Core--><polygon fill="#FFFFFF" filter="url(#fmguwzbl2is5n)" points="16,6,56,6,63,29.6094,1299,29.6094,1299,618,16,618,16,6" style="stroke:#000000;stroke-width:1.5;"/><line style="stroke:#000000;stroke-width:1.5;" x1="16" x2="63" y1="29.6094" y2="29.6094"/><text fill="#000000" font-family="sans-serif" font-size="14" font-weight="bold" lengthAdjust="spacing" textLength="34" x="20" y="22.5332">Core</text><!--MD5=[ed1d20ea533a2a0e7df5ba3c35e56ced]
cluster Controllers--><polygon fill="#FFFFFF" filter="url(#fmguwzbl2is5n)" points="40,401,125,401,132,424.6094,431,424.6094,431,557,40,557,40,401" style="stroke:#000000;stroke-width:1.5;"/><line style="stroke:#000000;stroke-width:1.5;" x1="40" x2="132" y1="424.6094" y2="424.6094"/><text fill="#000000" font-family="sans-serif" font-size="14" font-weight="bold" lengthAdjust="spacing" textLength="79" x="44" y="417.5332">Controllers</text><!--MD5=[121a8bf1197281ab89ed693fab589f94]
cluster Domain--><polygon fill="#FFFFFF" filter="url(#fmguwzbl2is5n)" points="468.5,258,526.5,258,533.5,281.6094,1275,281.6094,1275,594,468.5,594,468.5,258" style="stroke:#000000;stroke-width:1.5;"/><line style="stroke:#000000;stroke-width:1.5;" x1="468.5" x2="533.5" y1="281.6094" y2="281.6094"/><text fill="#000000" font-family="sans-serif" font-size="14" font-weight="bold" lengthAdjust="spacing" textLength="52" x="472.5" y="274.5332">Domain</text><!--MD5=[8dd535d56cd4cf7faf64fdd082ba836e]
cluster Stores--><polygon fill="#FFFFFF" filter="url(#fmguwzbl2is5n)" points="464,50,516,50,523,73.6094,824,73.6094,824,234,464,234,464,50" style="stroke:#000000;stroke-width:1.5;"/><line style="stroke:#000000;stroke-width:1.5;" x1="464" x2="523" y1="73.6094" y2="73.6094"/><text fill="#000000" font-family="sans-serif" font-size="14" font-weight="bold" lengthAdjust="spacing" textLength="46" x="468" y="66.5332">Stores</text><!--MD5=[9681dc6e01e10c6b4fe06895ae94f592]
cluster UI--><polygon fill="#FFFFFF" filter="url(#fmguwzbl2is5n)" points="476.5,642,496.5,642,503.5,665.6094,811.5,665.6094,811.5,839,476.5,839,476.5,642" style="stroke:#000000;stroke-width:1.5;"/><line style="stroke:#000000;stroke-width:1.5;" x1="476.5" x2="503.5" y1="665.6094" y2="665.6094"/><text fill="#000000" font-family="sans-serif" font-size="14" font-weight="bold" lengthAdjust="spacing" textLength="14" x="480.5" y="658.5332">UI</text><!--MD5=[12a27d0038ea5202f326a742a9f1c12f]
class SRC--><rect codeLine="9" fill="#FEFECE" filter="url(#fmguwzbl2is5n)" height="103.3438" id="SRC" style="stroke:#A80036;stroke-width:1.5;" width="359" x="56" y="437.5"/><ellipse cx="171.25" cy="453.5" fill="#ADD1B2" rx="11" ry="11" style="stroke:#A80036;stroke-width:1.0;"/><path d="M173.25,450 Q173.4531,449.5 173.6875,449.25 Q173.9219,449 174.1875,449 Q174.6563,449 174.9531,449.2813 Q175.25,449.5625 175.25,450.2188 L175.25,451.7813 Q175.25,452.4375 174.9688,452.7188 Q174.6875,453 174.25,453 Q173.8594,453 173.6094,452.8281 Q173.3594,452.6563 173.25,452.2031 Q173.2031,451.8906 173.0313,451.7188 Q172.7188,451.3906 172.1563,451.2031 Q171.5938,451 171.0313,451 Q170.3281,451 169.7344,451.2813 Q169.1563,451.5625 168.7031,452.1875 Q168.25,452.8125 168.25,453.6719 L168.25,454.5938 Q168.25,455.625 169.0938,456.3125 Q169.9375,457 171.4375,457 Q172.3281,457 172.9531,456.7969 Q173.3125,456.6875 173.7188,456.3281 Q173.9844,456.125 174.125,456.0625 Q174.2656,456 174.4375,456 Q174.7656,456 175,456.2656 Q175.25,456.5156 175.25,456.875 Q175.25,457.2188 174.9063,457.625 Q174.4063,458.2188 173.6094,458.5469 Q172.5625,459 171.2813,459 Q169.7813,459 168.5781,458.4063 Q167.6094,457.9375 166.9219,456.9219 Q166.25,455.9063 166.25,454.7031 L166.25,453.6094 Q166.25,452.3594 166.8438,451.2656 Q167.4531,450.1719 168.5,449.5938 Q169.5625,449 170.75,449 Q171.4688,449 172.0938,449.25 Q172.7188,449.5 173.25,450 Z " fill="#000000"/><text fill="#000000" font-family="sans-serif" font-size="12" lengthAdjust="spacing" textLength="120" x="191.75" y="458.4102">SendReportController</text><line style="stroke:#A80036;stroke-width:1.5;" x1="57" x2="414" y1="469.5" y2="469.5"/><line style="stroke:#A80036;stroke-width:1.5;" x1="57" x2="414" y1="477.5" y2="477.5"/><text fill="#000000" font-family="sans-serif" font-size="11" lengthAdjust="spacing" textLength="281" x="62" y="492.9189">+getAllTestWithResultCovidPositive(dateToSee, histPoints)</text><text fill="#000000" font-family="sans-serif" font-size="11" lengthAdjust="spacing" textLength="347" x="62" y="506.7549">+SimpleLinearRegression(userInteraction, sigLevel, confLevel, hypTest)</text><text fill="#000000" font-family="sans-serif" font-size="11" lengthAdjust="spacing" textLength="255" x="62" y="520.5908">+MultilinearRegression(sigLevel, confLevel, hypTest)</text><text fill="#000000" font-family="sans-serif" font-size="11" lengthAdjust="spacing" textLength="91" x="62" y="534.4268">+sendNHSReport()</text><!--MD5=[378b18254a1b2429f435e93f5e5cc50c]
class C--><rect codeLine="18" fill="#FEFECE" filter="url(#fmguwzbl2is5n)" height="89.5078" id="C" style="stroke:#A80036;stroke-width:1.5;" width="317" x="942" y="488"/><ellipse cx="1069.75" cy="504" fill="#ADD1B2" rx="11" ry="11" style="stroke:#A80036;stroke-width:1.0;"/><path d="M1071.75,500.5 Q1071.9531,500 1072.1875,499.75 Q1072.4219,499.5 1072.6875,499.5 Q1073.1563,499.5 1073.4531,499.7813 Q1073.75,500.0625 1073.75,500.7188 L1073.75,502.2813 Q1073.75,502.9375 1073.4688,503.2188 Q1073.1875,503.5 1072.75,503.5 Q1072.3594,503.5 1072.1094,503.3281 Q1071.8594,503.1563 1071.75,502.7031 Q1071.7031,502.3906 1071.5313,502.2188 Q1071.2188,501.8906 1070.6563,501.7031 Q1070.0938,501.5 1069.5313,501.5 Q1068.8281,501.5 1068.2344,501.7813 Q1067.6563,502.0625 1067.2031,502.6875 Q1066.75,503.3125 1066.75,504.1719 L1066.75,505.0938 Q1066.75,506.125 1067.5938,506.8125 Q1068.4375,507.5 1069.9375,507.5 Q1070.8281,507.5 1071.4531,507.2969 Q1071.8125,507.1875 1072.2188,506.8281 Q1072.4844,506.625 1072.625,506.5625 Q1072.7656,506.5 1072.9375,506.5 Q1073.2656,506.5 1073.5,506.7656 Q1073.75,507.0156 1073.75,507.375 Q1073.75,507.7188 1073.4063,508.125 Q1072.9063,508.7188 1072.1094,509.0469 Q1071.0625,509.5 1069.7813,509.5 Q1068.2813,509.5 1067.0781,508.9063 Q1066.1094,508.4375 1065.4219,507.4219 Q1064.75,506.4063 1064.75,505.2031 L1064.75,504.1094 Q1064.75,502.8594 1065.3438,501.7656 Q1065.9531,500.6719 1067,500.0938 Q1068.0625,499.5 1069.25,499.5 Q1069.9688,499.5 1070.5938,499.75 Q1071.2188,500 1071.75,500.5 Z " fill="#000000"/><text fill="#000000" font-family="sans-serif" font-size="12" lengthAdjust="spacing" textLength="53" x="1090.25" y="508.9102">Company</text><line style="stroke:#A80036;stroke-width:1.5;" x1="943" x2="1258" y1="520" y2="520"/><text fill="#000000" font-family="sans-serif" font-size="11" lengthAdjust="spacing" textLength="59" x="948" y="535.4189">-designation</text><line style="stroke:#A80036;stroke-width:1.5;" x1="943" x2="1258" y1="541.8359" y2="541.8359"/><text fill="#000000" font-family="sans-serif" font-size="11" lengthAdjust="spacing" textLength="126" x="948" y="557.2549">+TestStore getTestStore()</text><text fill="#000000" font-family="sans-serif" font-size="11" lengthAdjust="spacing" textLength="305" x="948" y="571.0908">+NHSReport generateNHSReport(sigLevel, confLevel, hypTest)</text><!--MD5=[725d0b6fa2b9f0532ac875c0aa24e1eb]
class NHSR--><rect codeLine="24" fill="#FEFECE" filter="url(#fmguwzbl2is5n)" height="89.5078" id="NHSR" style="stroke:#A80036;stroke-width:1.5;" width="319" x="484.5" y="407"/><ellipse cx="608.25" cy="423" fill="#ADD1B2" rx="11" ry="11" style="stroke:#A80036;stroke-width:1.0;"/><path d="M610.25,419.5 Q610.4531,419 610.6875,418.75 Q610.9219,418.5 611.1875,418.5 Q611.6563,418.5 611.9531,418.7813 Q612.25,419.0625 612.25,419.7188 L612.25,421.2813 Q612.25,421.9375 611.9688,422.2188 Q611.6875,422.5 611.25,422.5 Q610.8594,422.5 610.6094,422.3281 Q610.3594,422.1563 610.25,421.7031 Q610.2031,421.3906 610.0313,421.2188 Q609.7188,420.8906 609.1563,420.7031 Q608.5938,420.5 608.0313,420.5 Q607.3281,420.5 606.7344,420.7813 Q606.1563,421.0625 605.7031,421.6875 Q605.25,422.3125 605.25,423.1719 L605.25,424.0938 Q605.25,425.125 606.0938,425.8125 Q606.9375,426.5 608.4375,426.5 Q609.3281,426.5 609.9531,426.2969 Q610.3125,426.1875 610.7188,425.8281 Q610.9844,425.625 611.125,425.5625 Q611.2656,425.5 611.4375,425.5 Q611.7656,425.5 612,425.7656 Q612.25,426.0156 612.25,426.375 Q612.25,426.7188 611.9063,427.125 Q611.4063,427.7188 610.6094,428.0469 Q609.5625,428.5 608.2813,428.5 Q606.7813,428.5 605.5781,427.9063 Q604.6094,427.4375 603.9219,426.4219 Q603.25,425.4063 603.25,424.2031 L603.25,423.1094 Q603.25,421.8594 603.8438,420.7656 Q604.4531,419.6719 605.5,419.0938 Q606.5625,418.5 607.75,418.5 Q608.4688,418.5 609.0938,418.75 Q609.7188,419 610.25,419.5 Z " fill="#000000"/><text fill="#000000" font-family="sans-serif" font-size="12" lengthAdjust="spacing" textLength="63" x="628.75" y="427.9102">NHSReport</text><line style="stroke:#A80036;stroke-width:1.5;" x1="485.5" x2="802.5" y1="439" y2="439"/><line style="stroke:#A80036;stroke-width:1.5;" x1="485.5" x2="802.5" y1="447" y2="447"/><text fill="#000000" font-family="sans-serif" font-size="11" lengthAdjust="spacing" textLength="206" x="490.5" y="462.4189">+NHSReport(sigLevel, confLevel, hypTest)</text><text fill="#000000" font-family="sans-serif" font-size="11" lengthAdjust="spacing" textLength="298" x="490.5" y="476.2549">+String calculateData(arrayX, arrayY, lstDateExceptSundays)</text><text fill="#000000" font-family="sans-serif" font-size="11" lengthAdjust="spacing" textLength="307" x="490.5" y="490.0908">+String calculateData(BiarrayX, arrayY, lstDateExceptSundays)</text><!--MD5=[18800f080df943e7e38d3435375abf1d]
class R2NHS--><rect codeLine="30" fill="#FEFECE" filter="url(#fmguwzbl2is5n)" height="61.8359" id="R2NHS" style="stroke:#A80036;stroke-width:1.5;" width="144" x="572" y="310"/><ellipse cx="605.9" cy="326" fill="#ADD1B2" rx="11" ry="11" style="stroke:#A80036;stroke-width:1.0;"/><path d="M607.9,322.5 Q608.1031,322 608.3375,321.75 Q608.5719,321.5 608.8375,321.5 Q609.3063,321.5 609.6031,321.7813 Q609.9,322.0625 609.9,322.7188 L609.9,324.2813 Q609.9,324.9375 609.6188,325.2188 Q609.3375,325.5 608.9,325.5 Q608.5094,325.5 608.2594,325.3281 Q608.0094,325.1563 607.9,324.7031 Q607.8531,324.3906 607.6813,324.2188 Q607.3688,323.8906 606.8063,323.7031 Q606.2438,323.5 605.6813,323.5 Q604.9781,323.5 604.3844,323.7813 Q603.8063,324.0625 603.3531,324.6875 Q602.9,325.3125 602.9,326.1719 L602.9,327.0938 Q602.9,328.125 603.7438,328.8125 Q604.5875,329.5 606.0875,329.5 Q606.9781,329.5 607.6031,329.2969 Q607.9625,329.1875 608.3688,328.8281 Q608.6344,328.625 608.775,328.5625 Q608.9156,328.5 609.0875,328.5 Q609.4156,328.5 609.65,328.7656 Q609.9,329.0156 609.9,329.375 Q609.9,329.7188 609.5563,330.125 Q609.0563,330.7188 608.2594,331.0469 Q607.2125,331.5 605.9313,331.5 Q604.4313,331.5 603.2281,330.9063 Q602.2594,330.4375 601.5719,329.4219 Q600.9,328.4063 600.9,327.2031 L600.9,326.1094 Q600.9,324.8594 601.4938,323.7656 Q602.1031,322.6719 603.15,322.0938 Q604.2125,321.5 605.4,321.5 Q606.1188,321.5 606.7438,321.75 Q607.3688,322 607.9,322.5 Z " fill="#000000"/><text fill="#000000" font-family="sans-serif" font-size="12" lengthAdjust="spacing" textLength="70" x="624.1" y="330.9102">Report2NHS</text><line style="stroke:#A80036;stroke-width:1.5;" x1="573" x2="715" y1="342" y2="342"/><line style="stroke:#A80036;stroke-width:1.5;" x1="573" x2="715" y1="350" y2="350"/><text fill="#000000" font-family="sans-serif" font-size="11" lengthAdjust="spacing" textLength="132" x="578" y="365.4189">+writeUsingFileWriter(data)</text><!--MD5=[78b7d86d14bdec4920922b93cca5613d]
class LR--><rect codeLine="34" fill="#FEFECE" filter="url(#fmguwzbl2is5n)" height="61.8359" id="LR" style="stroke:#A80036;stroke-width:1.5;" width="187" x="1007" y="391"/><ellipse cx="1046.75" cy="407" fill="#ADD1B2" rx="11" ry="11" style="stroke:#A80036;stroke-width:1.0;"/><path d="M1048.75,403.5 Q1048.9531,403 1049.1875,402.75 Q1049.4219,402.5 1049.6875,402.5 Q1050.1563,402.5 1050.4531,402.7813 Q1050.75,403.0625 1050.75,403.7188 L1050.75,405.2813 Q1050.75,405.9375 1050.4688,406.2188 Q1050.1875,406.5 1049.75,406.5 Q1049.3594,406.5 1049.1094,406.3281 Q1048.8594,406.1563 1048.75,405.7031 Q1048.7031,405.3906 1048.5313,405.2188 Q1048.2188,404.8906 1047.6563,404.7031 Q1047.0938,404.5 1046.5313,404.5 Q1045.8281,404.5 1045.2344,404.7813 Q1044.6563,405.0625 1044.2031,405.6875 Q1043.75,406.3125 1043.75,407.1719 L1043.75,408.0938 Q1043.75,409.125 1044.5938,409.8125 Q1045.4375,410.5 1046.9375,410.5 Q1047.8281,410.5 1048.4531,410.2969 Q1048.8125,410.1875 1049.2188,409.8281 Q1049.4844,409.625 1049.625,409.5625 Q1049.7656,409.5 1049.9375,409.5 Q1050.2656,409.5 1050.5,409.7656 Q1050.75,410.0156 1050.75,410.375 Q1050.75,410.7188 1050.4063,411.125 Q1049.9063,411.7188 1049.1094,412.0469 Q1048.0625,412.5 1046.7813,412.5 Q1045.2813,412.5 1044.0781,411.9063 Q1043.1094,411.4375 1042.4219,410.4219 Q1041.75,409.4063 1041.75,408.2031 L1041.75,407.1094 Q1041.75,405.8594 1042.3438,404.7656 Q1042.9531,403.6719 1044,403.0938 Q1045.0625,402.5 1046.25,402.5 Q1046.9688,402.5 1047.5938,402.75 Q1048.2188,403 1048.75,403.5 Z " fill="#000000"/><text fill="#000000" font-family="sans-serif" font-size="12" lengthAdjust="spacing" textLength="100" x="1066.25" y="411.9102">LinearRegression</text><line style="stroke:#A80036;stroke-width:1.5;" x1="1008" x2="1193" y1="423" y2="423"/><line style="stroke:#A80036;stroke-width:1.5;" x1="1008" x2="1193" y1="431" y2="431"/><text fill="#000000" font-family="sans-serif" font-size="11" lengthAdjust="spacing" textLength="175" x="1013" y="446.4189">+LinearRegression (arrayX, arrayY)</text><!--MD5=[252b6e21c7fb5e8880e6ea61aefc6d2e]
class MLR--><rect codeLine="38" fill="#FEFECE" filter="url(#fmguwzbl2is5n)" height="61.8359" id="MLR" style="stroke:#A80036;stroke-width:1.5;" width="213" x="994" y="294"/><ellipse cx="1036" cy="310" fill="#ADD1B2" rx="11" ry="11" style="stroke:#A80036;stroke-width:1.0;"/><path d="M1038,306.5 Q1038.2031,306 1038.4375,305.75 Q1038.6719,305.5 1038.9375,305.5 Q1039.4063,305.5 1039.7031,305.7813 Q1040,306.0625 1040,306.7188 L1040,308.2813 Q1040,308.9375 1039.7188,309.2188 Q1039.4375,309.5 1039,309.5 Q1038.6094,309.5 1038.3594,309.3281 Q1038.1094,309.1563 1038,308.7031 Q1037.9531,308.3906 1037.7813,308.2188 Q1037.4688,307.8906 1036.9063,307.7031 Q1036.3438,307.5 1035.7813,307.5 Q1035.0781,307.5 1034.4844,307.7813 Q1033.9063,308.0625 1033.4531,308.6875 Q1033,309.3125 1033,310.1719 L1033,311.0938 Q1033,312.125 1033.8438,312.8125 Q1034.6875,313.5 1036.1875,313.5 Q1037.0781,313.5 1037.7031,313.2969 Q1038.0625,313.1875 1038.4688,312.8281 Q1038.7344,312.625 1038.875,312.5625 Q1039.0156,312.5 1039.1875,312.5 Q1039.5156,312.5 1039.75,312.7656 Q1040,313.0156 1040,313.375 Q1040,313.7188 1039.6563,314.125 Q1039.1563,314.7188 1038.3594,315.0469 Q1037.3125,315.5 1036.0313,315.5 Q1034.5313,315.5 1033.3281,314.9063 Q1032.3594,314.4375 1031.6719,313.4219 Q1031,312.4063 1031,311.2031 L1031,310.1094 Q1031,308.8594 1031.5938,307.7656 Q1032.2031,306.6719 1033.25,306.0938 Q1034.3125,305.5 1035.5,305.5 Q1036.2188,305.5 1036.8438,305.75 Q1037.4688,306 1038,306.5 Z " fill="#000000"/><text fill="#000000" font-family="sans-serif" font-size="12" lengthAdjust="spacing" textLength="121" x="1056" y="314.9102">MultilinearRegression</text><line style="stroke:#A80036;stroke-width:1.5;" x1="995" x2="1206" y1="326" y2="326"/><line style="stroke:#A80036;stroke-width:1.5;" x1="995" x2="1206" y1="334" y2="334"/><text fill="#000000" font-family="sans-serif" font-size="11" lengthAdjust="spacing" textLength="201" x="1000" y="349.4189">+MultilinearRegression (BiarrayX, arrayY)</text><!--MD5=[b0a1b9137b50b50b320b426f68562434]
class TS--><rect codeLine="46" fill="#FEFECE" filter="url(#fmguwzbl2is5n)" height="131.0156" id="TS" style="stroke:#A80036;stroke-width:1.5;" width="328" x="480" y="86.5"/><ellipse cx="613.25" cy="102.5" fill="#ADD1B2" rx="11" ry="11" style="stroke:#A80036;stroke-width:1.0;"/><path d="M615.25,99 Q615.4531,98.5 615.6875,98.25 Q615.9219,98 616.1875,98 Q616.6563,98 616.9531,98.2813 Q617.25,98.5625 617.25,99.2188 L617.25,100.7813 Q617.25,101.4375 616.9688,101.7188 Q616.6875,102 616.25,102 Q615.8594,102 615.6094,101.8281 Q615.3594,101.6563 615.25,101.2031 Q615.2031,100.8906 615.0313,100.7188 Q614.7188,100.3906 614.1563,100.2031 Q613.5938,100 613.0313,100 Q612.3281,100 611.7344,100.2813 Q611.1563,100.5625 610.7031,101.1875 Q610.25,101.8125 610.25,102.6719 L610.25,103.5938 Q610.25,104.625 611.0938,105.3125 Q611.9375,106 613.4375,106 Q614.3281,106 614.9531,105.7969 Q615.3125,105.6875 615.7188,105.3281 Q615.9844,105.125 616.125,105.0625 Q616.2656,105 616.4375,105 Q616.7656,105 617,105.2656 Q617.25,105.5156 617.25,105.875 Q617.25,106.2188 616.9063,106.625 Q616.4063,107.2188 615.6094,107.5469 Q614.5625,108 613.2813,108 Q611.7813,108 610.5781,107.4063 Q609.6094,106.9375 608.9219,105.9219 Q608.25,104.9063 608.25,103.7031 L608.25,102.6094 Q608.25,101.3594 608.8438,100.2656 Q609.4531,99.1719 610.5,98.5938 Q611.5625,98 612.75,98 Q613.4688,98 614.0938,98.25 Q614.7188,98.5 615.25,99 Z " fill="#000000"/><text fill="#000000" font-family="sans-serif" font-size="12" lengthAdjust="spacing" textLength="53" x="633.75" y="107.4102">TestStore</text><line style="stroke:#A80036;stroke-width:1.5;" x1="481" x2="807" y1="118.5" y2="118.5"/><line style="stroke:#A80036;stroke-width:1.5;" x1="481" x2="807" y1="126.5" y2="126.5"/><text fill="#000000" font-family="sans-serif" font-size="11" lengthAdjust="spacing" textLength="251" x="486" y="141.9189">+List&lt;Test&gt; getAllTestWithResultCovidPositive(date)</text><text fill="#000000" font-family="sans-serif" font-size="11" lengthAdjust="spacing" textLength="316" x="486" y="155.7549">+double[] getDailyPositiveTests(lstAllTestWithResultCovidPositive)</text><text fill="#000000" font-family="sans-serif" font-size="11" lengthAdjust="spacing" textLength="158" x="486" y="169.5908">+int getDailyPerformedTest(date)</text><text fill="#000000" font-family="sans-serif" font-size="11" lengthAdjust="spacing" textLength="217" x="486" y="183.4268">+List &lt;Test&gt; getAllTestWithResultCovid(date)</text><text fill="#000000" font-family="sans-serif" font-size="11" lengthAdjust="spacing" textLength="279" x="486" y="197.2627">+double[] getMeanAgeFromList(lstAllTestWithResultCovid)</text><text fill="#000000" font-family="sans-serif" font-size="11" lengthAdjust="spacing" textLength="275" x="486" y="211.0986">+double[][] createBiarrayX (dailyNumberTests, meanAge)</text><!--MD5=[aa192b0d584dc87a249dd2e4466a01f6]
class SRUI--><rect codeLine="58" fill="#FEFECE" filter="url(#fmguwzbl2is5n)" height="48" id="SRUI" style="stroke:#A80036;stroke-width:1.5;" width="110" x="589" y="775"/><ellipse cx="604" cy="791" fill="#ADD1B2" rx="11" ry="11" style="stroke:#A80036;stroke-width:1.0;"/><path d="M606,787.5 Q606.2031,787 606.4375,786.75 Q606.6719,786.5 606.9375,786.5 Q607.4063,786.5 607.7031,786.7813 Q608,787.0625 608,787.7188 L608,789.2813 Q608,789.9375 607.7188,790.2188 Q607.4375,790.5 607,790.5 Q606.6094,790.5 606.3594,790.3281 Q606.1094,790.1563 606,789.7031 Q605.9531,789.3906 605.7813,789.2188 Q605.4688,788.8906 604.9063,788.7031 Q604.3438,788.5 603.7813,788.5 Q603.0781,788.5 602.4844,788.7813 Q601.9063,789.0625 601.4531,789.6875 Q601,790.3125 601,791.1719 L601,792.0938 Q601,793.125 601.8438,793.8125 Q602.6875,794.5 604.1875,794.5 Q605.0781,794.5 605.7031,794.2969 Q606.0625,794.1875 606.4688,793.8281 Q606.7344,793.625 606.875,793.5625 Q607.0156,793.5 607.1875,793.5 Q607.5156,793.5 607.75,793.7656 Q608,794.0156 608,794.375 Q608,794.7188 607.6563,795.125 Q607.1563,795.7188 606.3594,796.0469 Q605.3125,796.5 604.0313,796.5 Q602.5313,796.5 601.3281,795.9063 Q600.3594,795.4375 599.6719,794.4219 Q599,793.4063 599,792.2031 L599,791.1094 Q599,789.8594 599.5938,788.7656 Q600.2031,787.6719 601.25,787.0938 Q602.3125,786.5 603.5,786.5 Q604.2188,786.5 604.8438,786.75 Q605.4688,787 606,787.5 Z " fill="#000000"/><text fill="#000000" font-family="sans-serif" font-size="12" lengthAdjust="spacing" textLength="78" x="618" y="795.9102">SendReportUI</text><line style="stroke:#A80036;stroke-width:1.5;" x1="590" x2="698" y1="807" y2="807"/><line style="stroke:#A80036;stroke-width:1.5;" x1="590" x2="698" y1="815" y2="815"/><!--MD5=[64dca1f8d25645e316b7620b91da6f13]
class U--><rect codeLine="60" fill="#FEFECE" filter="url(#fmguwzbl2is5n)" height="61.8359" id="U" style="stroke:#A80036;stroke-width:1.5;" width="303" x="492.5" y="678"/><ellipse cx="627.25" cy="694" fill="#ADD1B2" rx="11" ry="11" style="stroke:#A80036;stroke-width:1.0;"/><path d="M629.25,690.5 Q629.4531,690 629.6875,689.75 Q629.9219,689.5 630.1875,689.5 Q630.6563,689.5 630.9531,689.7813 Q631.25,690.0625 631.25,690.7188 L631.25,692.2813 Q631.25,692.9375 630.9688,693.2188 Q630.6875,693.5 630.25,693.5 Q629.8594,693.5 629.6094,693.3281 Q629.3594,693.1563 629.25,692.7031 Q629.2031,692.3906 629.0313,692.2188 Q628.7188,691.8906 628.1563,691.7031 Q627.5938,691.5 627.0313,691.5 Q626.3281,691.5 625.7344,691.7813 Q625.1563,692.0625 624.7031,692.6875 Q624.25,693.3125 624.25,694.1719 L624.25,695.0938 Q624.25,696.125 625.0938,696.8125 Q625.9375,697.5 627.4375,697.5 Q628.3281,697.5 628.9531,697.2969 Q629.3125,697.1875 629.7188,696.8281 Q629.9844,696.625 630.125,696.5625 Q630.2656,696.5 630.4375,696.5 Q630.7656,696.5 631,696.7656 Q631.25,697.0156 631.25,697.375 Q631.25,697.7188 630.9063,698.125 Q630.4063,698.7188 629.6094,699.0469 Q628.5625,699.5 627.2813,699.5 Q625.7813,699.5 624.5781,698.9063 Q623.6094,698.4375 622.9219,697.4219 Q622.25,696.4063 622.25,695.2031 L622.25,694.1094 Q622.25,692.8594 622.8438,691.7656 Q623.4531,690.6719 624.5,690.0938 Q625.5625,689.5 626.75,689.5 Q627.4688,689.5 628.0938,689.75 Q628.7188,690 629.25,690.5 Z " fill="#000000"/><text fill="#000000" font-family="sans-serif" font-size="12" lengthAdjust="spacing" textLength="25" x="647.75" y="698.9102">Utils</text><line style="stroke:#A80036;stroke-width:1.5;" x1="493.5" x2="794.5" y1="710" y2="710"/><line style="stroke:#A80036;stroke-width:1.5;" x1="493.5" x2="794.5" y1="718" y2="718"/><text fill="#000000" font-family="sans-serif" font-size="11" lengthAdjust="spacing" textLength="291" x="498.5" y="733.4189">+List&lt;Date&gt; getDaysWithoutSundays(dateToSee, histPoints)</text><!--MD5=[03c301f484fa6fc0e1bfdfbe7ae85b42]
link SRUI to SRC--><path codeLine="65" d="M588.7,796.19 C549.35,792.02 496.21,781.81 456,757 C370.77,704.42 303.56,606.87 266.97,545.08 " fill="none" id="SRUI-to-SRC" style="stroke:#A80036;stroke-width:1.0;stroke-dasharray:7.0,7.0;"/><polygon fill="#A80036" points="264.39,540.7,265.5139,550.4845,266.9288,545.0075,272.4059,546.4224,264.39,540.7" style="stroke:#A80036;stroke-width:1.0;"/><!--MD5=[ec55081fb5b35db79e7516c3a603bf1e]
link SRC to U--><path codeLine="66" d="M331.81,540.58 C408.69,582.19 514.61,639.51 580.92,675.4 " fill="none" id="SRC-to-U" style="stroke:#A80036;stroke-width:1.0;stroke-dasharray:7.0,7.0;"/><polygon fill="#A80036" points="585.62,677.95,579.6148,670.1438,581.2245,675.5667,575.8016,677.1765,585.62,677.95" style="stroke:#A80036;stroke-width:1.0;"/><!--MD5=[7284bde8bf849338038054d0ec765b65]
link SRC to C--><path codeLine="67" d="M415.18,510.61 C428.98,511.89 442.71,513.05 456,514 C619.29,525.69 806.38,530.22 936.58,531.96 " fill="none" id="SRC-to-C" style="stroke:#A80036;stroke-width:1.0;stroke-dasharray:7.0,7.0;"/><polygon fill="#A80036" points="941.96,532.03,933.0181,527.9018,936.9605,531.9586,932.9038,535.901,941.96,532.03" style="stroke:#A80036;stroke-width:1.0;"/><!--MD5=[5a071d0dcd7d4ee99dede58994775496]
link SRC to TS--><path codeLine="68" d="M285.22,437.38 C328.26,392.97 393.69,328.31 456,278 C480.57,258.16 508.23,238.31 534.59,220.42 " fill="none" id="SRC-to-TS" style="stroke:#A80036;stroke-width:1.0;stroke-dasharray:7.0,7.0;"/><polygon fill="#A80036" points="538.81,217.57,529.1135,219.2956,534.6674,220.3698,533.5932,225.9237,538.81,217.57" style="stroke:#A80036;stroke-width:1.0;"/><!--MD5=[93d7b6405a475211da8dd1f480a92c45]
link SRC to NHSR--><path codeLine="69" d="M415.09,472.74 C436.41,470.8 458.09,468.83 479.18,466.91 " fill="none" id="SRC-to-NHSR" style="stroke:#A80036;stroke-width:1.0;stroke-dasharray:7.0,7.0;"/><polygon fill="#A80036" points="484.24,466.45,474.9124,463.2885,479.2609,466.9065,475.6428,471.2551,484.24,466.45" style="stroke:#A80036;stroke-width:1.0;"/><!--MD5=[440067a220176d5d68e3a36c834b5b80]
link NHSR to LR--><path codeLine="70" d="M803.64,441.53 C869.52,437.18 943.88,432.27 1001.57,428.46 " fill="none" id="NHSR-to-LR" style="stroke:#A80036;stroke-width:1.0;stroke-dasharray:7.0,7.0;"/><polygon fill="#A80036" points="1006.75,428.12,997.5064,424.7205,1001.7608,428.4488,998.0325,432.7032,1006.75,428.12" style="stroke:#A80036;stroke-width:1.0;"/><!--MD5=[3d20bcd0a7fa2317eda8383254ed4bd0]
link NHSR to MLR--><path codeLine="71" d="M803.64,407.67 C864.79,390.58 933.26,371.45 988.92,355.9 " fill="none" id="NHSR-to-MLR" style="stroke:#A80036;stroke-width:1.0;stroke-dasharray:7.0,7.0;"/><polygon fill="#A80036" points="993.92,354.5,984.1723,353.092,989.1076,355.8566,986.3429,360.7919,993.92,354.5" style="stroke:#A80036;stroke-width:1.0;"/><!--MD5=[7e19d43d5753a043528dc12cb4903f81]
link SRC to R2NHS--><path codeLine="72" d="M339.63,437.48 C375.86,420.61 417.2,402.7 456,389 C491.85,376.34 532.64,365.48 566.95,357.31 " fill="none" id="SRC-to-R2NHS" style="stroke:#A80036;stroke-width:1.0;stroke-dasharray:7.0,7.0;"/><polygon fill="#A80036" points="571.97,356.12,562.288,354.3146,567.1061,357.2787,564.142,362.0968,571.97,356.12" style="stroke:#A80036;stroke-width:1.0;"/><!--MD5=[e2c72a59ea5b5a2e70f014290bec7f3c]
link NHSR to C--><path codeLine="73" d="M803.64,480.27 C848.46,488.26 897.2,496.95 941.95,504.92 " fill="none" id="NHSR-C" style="stroke:#A80036;stroke-width:1.0;"/><polygon fill="#000000" points="840.0776,478.2985,848.4667,482.7789,849.498,476.9922,840.0776,478.2985" style="stroke:#000000;stroke-width:1.0;"/><text fill="#000000" font-family="sans-serif" font-size="13" lengthAdjust="spacing" textLength="57" x="854" y="484.4951">generates</text><text fill="#000000" font-family="sans-serif" font-size="13" lengthAdjust="spacing" textLength="20" x="811.3268" y="495.4277">1..*</text><text fill="#000000" font-family="sans-serif" font-size="13" lengthAdjust="spacing" textLength="7" x="927.1007" y="517.4629">1</text><!--MD5=[bb9a8dbcbf37cb8369ae45c8f2366d25]
@startuml
'https://plantuml.com/class-diagram

skinparam classAttributeIconSize 0
left to right direction

package Core{

package Controllers{
class "SendReportController" as SRC {
+getAllTestWithResultCovidPositive(dateToSee, histPoints)
+SimpleLinearRegression(userInteraction, sigLevel, confLevel, hypTest)
+MultilinearRegression(sigLevel, confLevel, hypTest)
+sendNHSReport()
}
}

package Domain{
class "Company" as C {
-designation
+TestStore getTestStore()
+NHSReport generateNHSReport(sigLevel, confLevel, hypTest)
}

class "NHSReport" as NHSR {
+NHSReport(sigLevel, confLevel, hypTest)
+String calculateData(arrayX, arrayY, lstDateExceptSundays)
+String calculateData(BiarrayX, arrayY, lstDateExceptSundays)
}

class "Report2NHS" as R2NHS {
+writeUsingFileWriter(data)
}

class "LinearRegression" as LR {
+LinearRegression (arrayX, arrayY)
}

class "MultilinearRegression" as MLR {
+MultilinearRegression (BiarrayX, arrayY)
}

}

package Stores{

class "TestStore" as TS {
+List<Test> getAllTestWithResultCovidPositive(date)
+double[] getDailyPositiveTests(lstAllTestWithResultCovidPositive)
+int getDailyPerformedTest(date)
+List <Test> getAllTestWithResultCovid(date)
+double[] getMeanAgeFromList(lstAllTestWithResultCovid)
+double[][] createBiarrayX (dailyNumberTests, meanAge)
}
}
}

package UI{
class "SendReportUI" as SRUI

class "Utils" as U {
+List<Date> getDaysWithoutSundays(dateToSee, histPoints)
}
}

SRUI ..> SRC
SRC ..> U
SRC ..> C
SRC ..> TS
SRC ..> NHSR
NHSR ..> LR
NHSR ..> MLR
SRC ..> R2NHS
NHSR "1..*" - - "1" C : < generates

@enduml

@startuml

skinparam classAttributeIconSize 0
left to right direction

package Core{

package Controllers{
class "SendReportController" as SRC {
+getAllTestWithResultCovidPositive(dateToSee, histPoints)
+SimpleLinearRegression(userInteraction, sigLevel, confLevel, hypTest)
+MultilinearRegression(sigLevel, confLevel, hypTest)
+sendNHSReport()
}
}

package Domain{
class "Company" as C {
-designation
+TestStore getTestStore()
+NHSReport generateNHSReport(sigLevel, confLevel, hypTest)
}

class "NHSReport" as NHSR {
+NHSReport(sigLevel, confLevel, hypTest)
+String calculateData(arrayX, arrayY, lstDateExceptSundays)
+String calculateData(BiarrayX, arrayY, lstDateExceptSundays)
}

class "Report2NHS" as R2NHS {
+writeUsingFileWriter(data)
}

class "LinearRegression" as LR {
+LinearRegression (arrayX, arrayY)
}

class "MultilinearRegression" as MLR {
+MultilinearRegression (BiarrayX, arrayY)
}

}

package Stores{

class "TestStore" as TS {
+List<Test> getAllTestWithResultCovidPositive(date)
+double[] getDailyPositiveTests(lstAllTestWithResultCovidPositive)
+int getDailyPerformedTest(date)
+List <Test> getAllTestWithResultCovid(date)
+double[] getMeanAgeFromList(lstAllTestWithResultCovid)
+double[][] createBiarrayX (dailyNumberTests, meanAge)
}
}
}

package UI{
class "SendReportUI" as SRUI

class "Utils" as U {
+List<Date> getDaysWithoutSundays(dateToSee, histPoints)
}
}

SRUI ..> SRC
SRC ..> U
SRC ..> C
SRC ..> TS
SRC ..> NHSR
NHSR ..> LR
NHSR ..> MLR
SRC ..> R2NHS
NHSR "1..*" - - "1" C : < generates

@enduml

PlantUML version 1.2021.4(Sun Apr 04 09:49:39 BST 2021)
(GPL source distribution)
Java Runtime: OpenJDK Runtime Environment
JVM: OpenJDK 64-Bit Server VM
Default Encoding: Cp1252
Language: pt
Country: PT
--></g></svg>