<?xml version="1.0" encoding="UTF-8" standalone="no"?><svg xmlns="http://www.w3.org/2000/svg" xmlns:xlink="http://www.w3.org/1999/xlink" contentScriptType="application/ecmascript" contentStyleType="text/css" height="1143px" preserveAspectRatio="none" style="width:1419px;height:1143px;" version="1.1" viewBox="0 0 1419 1143" width="1419px" zoomAndPan="magnify"><defs><filter height="300%" id="f1vqvkpizxtjix" width="300%" x="-1" y="-1"><feGaussianBlur result="blurOut" stdDeviation="2.0"/><feColorMatrix in="blurOut" result="blurOut2" type="matrix" values="0 0 0 0 0 0 0 0 0 0 0 0 0 0 0 0 0 0 .4 0"/><feOffset dx="4.0" dy="4.0" in="blurOut2" result="blurOut3"/><feBlend in="SourceGraphic" in2="blurOut3" mode="normal"/></filter></defs><g><!--MD5=[43142ed302a6cc9ae965019424b4d408]
class RTUI--><rect codeLine="6" fill="#FEFECE" filter="url(#f1vqvkpizxtjix)" height="48" id="RTUI" style="stroke:#A80036;stroke-width:1.5;" width="115" x="7" y="530.5"/><ellipse cx="22" cy="546.5" fill="#ADD1B2" rx="11" ry="11" style="stroke:#A80036;stroke-width:1.0;"/><path d="M24,543 Q24.2031,542.5 24.4375,542.25 Q24.6719,542 24.9375,542 Q25.4063,542 25.7031,542.2813 Q26,542.5625 26,543.2188 L26,544.7813 Q26,545.4375 25.7188,545.7188 Q25.4375,546 25,546 Q24.6094,546 24.3594,545.8281 Q24.1094,545.6563 24,545.2031 Q23.9531,544.8906 23.7813,544.7188 Q23.4688,544.3906 22.9063,544.2031 Q22.3438,544 21.7813,544 Q21.0781,544 20.4844,544.2813 Q19.9063,544.5625 19.4531,545.1875 Q19,545.8125 19,546.6719 L19,547.5938 Q19,548.625 19.8438,549.3125 Q20.6875,550 22.1875,550 Q23.0781,550 23.7031,549.7969 Q24.0625,549.6875 24.4688,549.3281 Q24.7344,549.125 24.875,549.0625 Q25.0156,549 25.1875,549 Q25.5156,549 25.75,549.2656 Q26,549.5156 26,549.875 Q26,550.2188 25.6563,550.625 Q25.1563,551.2188 24.3594,551.5469 Q23.3125,552 22.0313,552 Q20.5313,552 19.3281,551.4063 Q18.3594,550.9375 17.6719,549.9219 Q17,548.9063 17,547.7031 L17,546.6094 Q17,545.3594 17.5938,544.2656 Q18.2031,543.1719 19.25,542.5938 Q20.3125,542 21.5,542 Q22.2188,542 22.8438,542.25 Q23.4688,542.5 24,543 Z " fill="#000000"/><text fill="#000000" font-family="sans-serif" font-size="12" lengthAdjust="spacing" textLength="83" x="36" y="551.4102">RegisterTestUI</text><line style="stroke:#A80036;stroke-width:1.5;" x1="8" x2="121" y1="562.5" y2="562.5"/><line style="stroke:#A80036;stroke-width:1.5;" x1="8" x2="121" y1="570.5" y2="570.5"/><!--MD5=[fc745cbb6189e890294da62cd777863a]
class RTC--><rect codeLine="8" fill="#FEFECE" filter="url(#f1vqvkpizxtjix)" height="131.0156" id="RTC" style="stroke:#A80036;stroke-width:1.5;" width="459" x="182" y="489"/><ellipse cx="344.75" cy="505" fill="#ADD1B2" rx="11" ry="11" style="stroke:#A80036;stroke-width:1.0;"/><path d="M346.75,501.5 Q346.9531,501 347.1875,500.75 Q347.4219,500.5 347.6875,500.5 Q348.1563,500.5 348.4531,500.7813 Q348.75,501.0625 348.75,501.7188 L348.75,503.2813 Q348.75,503.9375 348.4688,504.2188 Q348.1875,504.5 347.75,504.5 Q347.3594,504.5 347.1094,504.3281 Q346.8594,504.1563 346.75,503.7031 Q346.7031,503.3906 346.5313,503.2188 Q346.2188,502.8906 345.6563,502.7031 Q345.0938,502.5 344.5313,502.5 Q343.8281,502.5 343.2344,502.7813 Q342.6563,503.0625 342.2031,503.6875 Q341.75,504.3125 341.75,505.1719 L341.75,506.0938 Q341.75,507.125 342.5938,507.8125 Q343.4375,508.5 344.9375,508.5 Q345.8281,508.5 346.4531,508.2969 Q346.8125,508.1875 347.2188,507.8281 Q347.4844,507.625 347.625,507.5625 Q347.7656,507.5 347.9375,507.5 Q348.2656,507.5 348.5,507.7656 Q348.75,508.0156 348.75,508.375 Q348.75,508.7188 348.4063,509.125 Q347.9063,509.7188 347.1094,510.0469 Q346.0625,510.5 344.7813,510.5 Q343.2813,510.5 342.0781,509.9063 Q341.1094,509.4375 340.4219,508.4219 Q339.75,507.4063 339.75,506.2031 L339.75,505.1094 Q339.75,503.8594 340.3438,502.7656 Q340.9531,501.6719 342,501.0938 Q343.0625,500.5 344.25,500.5 Q344.9688,500.5 345.5938,500.75 Q346.2188,501 346.75,501.5 Z " fill="#000000"/><text fill="#000000" font-family="sans-serif" font-size="12" lengthAdjust="spacing" textLength="125" x="365.25" y="509.9102">RegisterTestController</text><line style="stroke:#A80036;stroke-width:1.5;" x1="183" x2="640" y1="521" y2="521"/><line style="stroke:#A80036;stroke-width:1.5;" x1="183" x2="640" y1="529" y2="529"/><text fill="#000000" font-family="sans-serif" font-size="11" lengthAdjust="spacing" textLength="70" x="188" y="544.4189">+getClient(TIN)</text><text fill="#000000" font-family="sans-serif" font-size="11" lengthAdjust="spacing" textLength="86" x="188" y="558.2549">+getAllTestType()</text><text fill="#000000" font-family="sans-serif" font-size="11" lengthAdjust="spacing" textLength="258" x="188" y="572.0908">+getAllParameterCategoriesByTestType(testTypeDto)</text><text fill="#000000" font-family="sans-serif" font-size="11" lengthAdjust="spacing" textLength="347" x="188" y="585.9268">+getAllParametersByParameterCategory(list &lt;parameterCategoriesDto&gt;)</text><text fill="#000000" font-family="sans-serif" font-size="11" lengthAdjust="spacing" textLength="447" x="188" y="599.7627">+createTest(list &lt;parametersDto&gt;, tesTypeDto, list &lt;parameterCategoriesDto&gt;, TIN, nhsCode)</text><text fill="#000000" font-family="sans-serif" font-size="11" lengthAdjust="spacing" textLength="77" x="188" y="613.5986">+saveTest(test)</text><!--MD5=[378b18254a1b2429f435e93f5e5cc50c]
class C--><rect codeLine="17" fill="#FEFECE" filter="url(#f1vqvkpizxtjix)" height="131.0156" id="C" style="stroke:#A80036;stroke-width:1.5;" width="160" x="797.5" y="7"/><ellipse cx="846.75" cy="23" fill="#ADD1B2" rx="11" ry="11" style="stroke:#A80036;stroke-width:1.0;"/><path d="M848.75,19.5 Q848.9531,19 849.1875,18.75 Q849.4219,18.5 849.6875,18.5 Q850.1563,18.5 850.4531,18.7813 Q850.75,19.0625 850.75,19.7188 L850.75,21.2813 Q850.75,21.9375 850.4688,22.2188 Q850.1875,22.5 849.75,22.5 Q849.3594,22.5 849.1094,22.3281 Q848.8594,22.1563 848.75,21.7031 Q848.7031,21.3906 848.5313,21.2188 Q848.2188,20.8906 847.6563,20.7031 Q847.0938,20.5 846.5313,20.5 Q845.8281,20.5 845.2344,20.7813 Q844.6563,21.0625 844.2031,21.6875 Q843.75,22.3125 843.75,23.1719 L843.75,24.0938 Q843.75,25.125 844.5938,25.8125 Q845.4375,26.5 846.9375,26.5 Q847.8281,26.5 848.4531,26.2969 Q848.8125,26.1875 849.2188,25.8281 Q849.4844,25.625 849.625,25.5625 Q849.7656,25.5 849.9375,25.5 Q850.2656,25.5 850.5,25.7656 Q850.75,26.0156 850.75,26.375 Q850.75,26.7188 850.4063,27.125 Q849.9063,27.7188 849.1094,28.0469 Q848.0625,28.5 846.7813,28.5 Q845.2813,28.5 844.0781,27.9063 Q843.1094,27.4375 842.4219,26.4219 Q841.75,25.4063 841.75,24.2031 L841.75,23.1094 Q841.75,21.8594 842.3438,20.7656 Q842.9531,19.6719 844,19.0938 Q845.0625,18.5 846.25,18.5 Q846.9688,18.5 847.5938,18.75 Q848.2188,19 848.75,19.5 Z " fill="#000000"/><text fill="#000000" font-family="sans-serif" font-size="12" lengthAdjust="spacing" textLength="53" x="867.25" y="27.9102">Company</text><line style="stroke:#A80036;stroke-width:1.5;" x1="798.5" x2="956.5" y1="39" y2="39"/><text fill="#000000" font-family="sans-serif" font-size="11" lengthAdjust="spacing" textLength="59" x="803.5" y="54.4189">-designation</text><line style="stroke:#A80036;stroke-width:1.5;" x1="798.5" x2="956.5" y1="60.8359" y2="60.8359"/><text fill="#000000" font-family="sans-serif" font-size="11" lengthAdjust="spacing" textLength="81" x="803.5" y="76.2549">+getClientStore()</text><text fill="#000000" font-family="sans-serif" font-size="11" lengthAdjust="spacing" textLength="100" x="803.5" y="90.0908">+getTestTypeStore()</text><text fill="#000000" font-family="sans-serif" font-size="11" lengthAdjust="spacing" textLength="148" x="803.5" y="103.9268">+getParameterCategoryStore()</text><text fill="#000000" font-family="sans-serif" font-size="11" lengthAdjust="spacing" textLength="110" x="803.5" y="117.7627">+getParametersStore()</text><text fill="#000000" font-family="sans-serif" font-size="11" lengthAdjust="spacing" textLength="76" x="803.5" y="131.5986">+getTestStore()</text><!--MD5=[d68c9369472fd2c8081ca2424f4233ba]
class CS--><rect codeLine="26" fill="#FEFECE" filter="url(#f1vqvkpizxtjix)" height="61.8359" id="CS" style="stroke:#A80036;stroke-width:1.5;" width="93" x="831" y="173.5"/><ellipse cx="846" cy="189.5" fill="#ADD1B2" rx="11" ry="11" style="stroke:#A80036;stroke-width:1.0;"/><path d="M848,186 Q848.2031,185.5 848.4375,185.25 Q848.6719,185 848.9375,185 Q849.4063,185 849.7031,185.2813 Q850,185.5625 850,186.2188 L850,187.7813 Q850,188.4375 849.7188,188.7188 Q849.4375,189 849,189 Q848.6094,189 848.3594,188.8281 Q848.1094,188.6563 848,188.2031 Q847.9531,187.8906 847.7813,187.7188 Q847.4688,187.3906 846.9063,187.2031 Q846.3438,187 845.7813,187 Q845.0781,187 844.4844,187.2813 Q843.9063,187.5625 843.4531,188.1875 Q843,188.8125 843,189.6719 L843,190.5938 Q843,191.625 843.8438,192.3125 Q844.6875,193 846.1875,193 Q847.0781,193 847.7031,192.7969 Q848.0625,192.6875 848.4688,192.3281 Q848.7344,192.125 848.875,192.0625 Q849.0156,192 849.1875,192 Q849.5156,192 849.75,192.2656 Q850,192.5156 850,192.875 Q850,193.2188 849.6563,193.625 Q849.1563,194.2188 848.3594,194.5469 Q847.3125,195 846.0313,195 Q844.5313,195 843.3281,194.4063 Q842.3594,193.9375 841.6719,192.9219 Q841,191.9063 841,190.7031 L841,189.6094 Q841,188.3594 841.5938,187.2656 Q842.2031,186.1719 843.25,185.5938 Q844.3125,185 845.5,185 Q846.2188,185 846.8438,185.25 Q847.4688,185.5 848,186 Z " fill="#000000"/><text fill="#000000" font-family="sans-serif" font-size="12" lengthAdjust="spacing" textLength="61" x="860" y="194.4102">ClientStore</text><line style="stroke:#A80036;stroke-width:1.5;" x1="832" x2="923" y1="205.5" y2="205.5"/><line style="stroke:#A80036;stroke-width:1.5;" x1="832" x2="923" y1="213.5" y2="213.5"/><text fill="#000000" font-family="sans-serif" font-size="11" lengthAdjust="spacing" textLength="70" x="837" y="228.9189">+getClient(TIN)</text><!--MD5=[922d291f43d024f1166d0eae9b0ee0bb]
class CM--><rect codeLine="30" fill="#FEFECE" filter="url(#f1vqvkpizxtjix)" height="61.8359" id="CM" style="stroke:#A80036;stroke-width:1.5;" width="105" x="825" y="270.5"/><ellipse cx="840" cy="286.5" fill="#ADD1B2" rx="11" ry="11" style="stroke:#A80036;stroke-width:1.0;"/><path d="M842,283 Q842.2031,282.5 842.4375,282.25 Q842.6719,282 842.9375,282 Q843.4063,282 843.7031,282.2813 Q844,282.5625 844,283.2188 L844,284.7813 Q844,285.4375 843.7188,285.7188 Q843.4375,286 843,286 Q842.6094,286 842.3594,285.8281 Q842.1094,285.6563 842,285.2031 Q841.9531,284.8906 841.7813,284.7188 Q841.4688,284.3906 840.9063,284.2031 Q840.3438,284 839.7813,284 Q839.0781,284 838.4844,284.2813 Q837.9063,284.5625 837.4531,285.1875 Q837,285.8125 837,286.6719 L837,287.5938 Q837,288.625 837.8438,289.3125 Q838.6875,290 840.1875,290 Q841.0781,290 841.7031,289.7969 Q842.0625,289.6875 842.4688,289.3281 Q842.7344,289.125 842.875,289.0625 Q843.0156,289 843.1875,289 Q843.5156,289 843.75,289.2656 Q844,289.5156 844,289.875 Q844,290.2188 843.6563,290.625 Q843.1563,291.2188 842.3594,291.5469 Q841.3125,292 840.0313,292 Q838.5313,292 837.3281,291.4063 Q836.3594,290.9375 835.6719,289.9219 Q835,288.9063 835,287.7031 L835,286.6094 Q835,285.3594 835.5938,284.2656 Q836.2031,283.1719 837.25,282.5938 Q838.3125,282 839.5,282 Q840.2188,282 840.8438,282.25 Q841.4688,282.5 842,283 Z " fill="#000000"/><text fill="#000000" font-family="sans-serif" font-size="12" lengthAdjust="spacing" textLength="73" x="854" y="291.4102">ClientMapper</text><line style="stroke:#A80036;stroke-width:1.5;" x1="826" x2="929" y1="302.5" y2="302.5"/><line style="stroke:#A80036;stroke-width:1.5;" x1="826" x2="929" y1="310.5" y2="310.5"/><text fill="#000000" font-family="sans-serif" font-size="11" lengthAdjust="spacing" textLength="47" x="831" y="325.9189">+toDto(cl)</text><!--MD5=[0c21d7a5a5555e4278001068caacbd33]
class TTS--><rect codeLine="34" fill="#FEFECE" filter="url(#f1vqvkpizxtjix)" height="61.8359" id="TTS" style="stroke:#A80036;stroke-width:1.5;" width="111" x="822" y="367.5"/><ellipse cx="837" cy="383.5" fill="#ADD1B2" rx="11" ry="11" style="stroke:#A80036;stroke-width:1.0;"/><path d="M839,380 Q839.2031,379.5 839.4375,379.25 Q839.6719,379 839.9375,379 Q840.4063,379 840.7031,379.2813 Q841,379.5625 841,380.2188 L841,381.7813 Q841,382.4375 840.7188,382.7188 Q840.4375,383 840,383 Q839.6094,383 839.3594,382.8281 Q839.1094,382.6563 839,382.2031 Q838.9531,381.8906 838.7813,381.7188 Q838.4688,381.3906 837.9063,381.2031 Q837.3438,381 836.7813,381 Q836.0781,381 835.4844,381.2813 Q834.9063,381.5625 834.4531,382.1875 Q834,382.8125 834,383.6719 L834,384.5938 Q834,385.625 834.8438,386.3125 Q835.6875,387 837.1875,387 Q838.0781,387 838.7031,386.7969 Q839.0625,386.6875 839.4688,386.3281 Q839.7344,386.125 839.875,386.0625 Q840.0156,386 840.1875,386 Q840.5156,386 840.75,386.2656 Q841,386.5156 841,386.875 Q841,387.2188 840.6563,387.625 Q840.1563,388.2188 839.3594,388.5469 Q838.3125,389 837.0313,389 Q835.5313,389 834.3281,388.4063 Q833.3594,387.9375 832.6719,386.9219 Q832,385.9063 832,384.7031 L832,383.6094 Q832,382.3594 832.5938,381.2656 Q833.2031,380.1719 834.25,379.5938 Q835.3125,379 836.5,379 Q837.2188,379 837.8438,379.25 Q838.4688,379.5 839,380 Z " fill="#000000"/><text fill="#000000" font-family="sans-serif" font-size="12" lengthAdjust="spacing" textLength="79" x="851" y="388.4102">TestTypeStore</text><line style="stroke:#A80036;stroke-width:1.5;" x1="823" x2="932" y1="399.5" y2="399.5"/><line style="stroke:#A80036;stroke-width:1.5;" x1="823" x2="932" y1="407.5" y2="407.5"/><text fill="#000000" font-family="sans-serif" font-size="11" lengthAdjust="spacing" textLength="86" x="828" y="422.9189">+getAllTestType()</text><!--MD5=[827c14b304fb6bf676224a1fb38ec02f]
class TTM--><rect codeLine="38" fill="#FEFECE" filter="url(#f1vqvkpizxtjix)" height="75.6719" id="TTM" style="stroke:#A80036;stroke-width:1.5;" width="123" x="816" y="464.5"/><ellipse cx="831" cy="480.5" fill="#ADD1B2" rx="11" ry="11" style="stroke:#A80036;stroke-width:1.0;"/><path d="M833,477 Q833.2031,476.5 833.4375,476.25 Q833.6719,476 833.9375,476 Q834.4063,476 834.7031,476.2813 Q835,476.5625 835,477.2188 L835,478.7813 Q835,479.4375 834.7188,479.7188 Q834.4375,480 834,480 Q833.6094,480 833.3594,479.8281 Q833.1094,479.6563 833,479.2031 Q832.9531,478.8906 832.7813,478.7188 Q832.4688,478.3906 831.9063,478.2031 Q831.3438,478 830.7813,478 Q830.0781,478 829.4844,478.2813 Q828.9063,478.5625 828.4531,479.1875 Q828,479.8125 828,480.6719 L828,481.5938 Q828,482.625 828.8438,483.3125 Q829.6875,484 831.1875,484 Q832.0781,484 832.7031,483.7969 Q833.0625,483.6875 833.4688,483.3281 Q833.7344,483.125 833.875,483.0625 Q834.0156,483 834.1875,483 Q834.5156,483 834.75,483.2656 Q835,483.5156 835,483.875 Q835,484.2188 834.6563,484.625 Q834.1563,485.2188 833.3594,485.5469 Q832.3125,486 831.0313,486 Q829.5313,486 828.3281,485.4063 Q827.3594,484.9375 826.6719,483.9219 Q826,482.9063 826,481.7031 L826,480.6094 Q826,479.3594 826.5938,478.2656 Q827.2031,477.1719 828.25,476.5938 Q829.3125,476 830.5,476 Q831.2188,476 831.8438,476.25 Q832.4688,476.5 833,477 Z " fill="#000000"/><text fill="#000000" font-family="sans-serif" font-size="12" lengthAdjust="spacing" textLength="91" x="845" y="485.4102">TestTypeMapper</text><line style="stroke:#A80036;stroke-width:1.5;" x1="817" x2="938" y1="496.5" y2="496.5"/><line style="stroke:#A80036;stroke-width:1.5;" x1="817" x2="938" y1="504.5" y2="504.5"/><text fill="#000000" font-family="sans-serif" font-size="11" lengthAdjust="spacing" textLength="97" x="822" y="519.9189">+toDto(listTestType)</text><text fill="#000000" font-family="sans-serif" font-size="11" lengthAdjust="spacing" textLength="109" x="822" y="533.7549">+toModel(testTypeDto)</text><!--MD5=[2628f93c2b91159b8b11117185f029f9]
class PCS--><rect codeLine="43" fill="#FEFECE" filter="url(#f1vqvkpizxtjix)" height="61.8359" id="PCS" style="stroke:#A80036;stroke-width:1.5;" width="270" x="742.5" y="575.5"/><ellipse cx="805.25" cy="591.5" fill="#ADD1B2" rx="11" ry="11" style="stroke:#A80036;stroke-width:1.0;"/><path d="M807.25,588 Q807.4531,587.5 807.6875,587.25 Q807.9219,587 808.1875,587 Q808.6563,587 808.9531,587.2813 Q809.25,587.5625 809.25,588.2188 L809.25,589.7813 Q809.25,590.4375 808.9688,590.7188 Q808.6875,591 808.25,591 Q807.8594,591 807.6094,590.8281 Q807.3594,590.6563 807.25,590.2031 Q807.2031,589.8906 807.0313,589.7188 Q806.7188,589.3906 806.1563,589.2031 Q805.5938,589 805.0313,589 Q804.3281,589 803.7344,589.2813 Q803.1563,589.5625 802.7031,590.1875 Q802.25,590.8125 802.25,591.6719 L802.25,592.5938 Q802.25,593.625 803.0938,594.3125 Q803.9375,595 805.4375,595 Q806.3281,595 806.9531,594.7969 Q807.3125,594.6875 807.7188,594.3281 Q807.9844,594.125 808.125,594.0625 Q808.2656,594 808.4375,594 Q808.7656,594 809,594.2656 Q809.25,594.5156 809.25,594.875 Q809.25,595.2188 808.9063,595.625 Q808.4063,596.2188 807.6094,596.5469 Q806.5625,597 805.2813,597 Q803.7813,597 802.5781,596.4063 Q801.6094,595.9375 800.9219,594.9219 Q800.25,593.9063 800.25,592.7031 L800.25,591.6094 Q800.25,590.3594 800.8438,589.2656 Q801.4531,588.1719 802.5,587.5938 Q803.5625,587 804.75,587 Q805.4688,587 806.0938,587.25 Q806.7188,587.5 807.25,588 Z " fill="#000000"/><text fill="#000000" font-family="sans-serif" font-size="12" lengthAdjust="spacing" textLength="136" x="825.75" y="596.4102">ParameterCategoryStore</text><line style="stroke:#A80036;stroke-width:1.5;" x1="743.5" x2="1011.5" y1="607.5" y2="607.5"/><line style="stroke:#A80036;stroke-width:1.5;" x1="743.5" x2="1011.5" y1="615.5" y2="615.5"/><text fill="#000000" font-family="sans-serif" font-size="11" lengthAdjust="spacing" textLength="258" x="748.5" y="630.9189">+getAllParameterCategoriesByTestType(testTypeDto)</text><!--MD5=[35eb6e59b8d066eb49939b94ef530849]
class PCM--><rect codeLine="47" fill="#FEFECE" filter="url(#f1vqvkpizxtjix)" height="75.6719" id="PCM" style="stroke:#A80036;stroke-width:1.5;" width="208" x="773.5" y="672.5"/><ellipse cx="801.1" cy="688.5" fill="#ADD1B2" rx="11" ry="11" style="stroke:#A80036;stroke-width:1.0;"/><path d="M803.1,685 Q803.3031,684.5 803.5375,684.25 Q803.7719,684 804.0375,684 Q804.5063,684 804.8031,684.2813 Q805.1,684.5625 805.1,685.2188 L805.1,686.7813 Q805.1,687.4375 804.8188,687.7188 Q804.5375,688 804.1,688 Q803.7094,688 803.4594,687.8281 Q803.2094,687.6563 803.1,687.2031 Q803.0531,686.8906 802.8813,686.7188 Q802.5688,686.3906 802.0063,686.2031 Q801.4438,686 800.8813,686 Q800.1781,686 799.5844,686.2813 Q799.0063,686.5625 798.5531,687.1875 Q798.1,687.8125 798.1,688.6719 L798.1,689.5938 Q798.1,690.625 798.9438,691.3125 Q799.7875,692 801.2875,692 Q802.1781,692 802.8031,691.7969 Q803.1625,691.6875 803.5688,691.3281 Q803.8344,691.125 803.975,691.0625 Q804.1156,691 804.2875,691 Q804.6156,691 804.85,691.2656 Q805.1,691.5156 805.1,691.875 Q805.1,692.2188 804.7563,692.625 Q804.2563,693.2188 803.4594,693.5469 Q802.4125,694 801.1313,694 Q799.6313,694 798.4281,693.4063 Q797.4594,692.9375 796.7719,691.9219 Q796.1,690.9063 796.1,689.7031 L796.1,688.6094 Q796.1,687.3594 796.6938,686.2656 Q797.3031,685.1719 798.35,684.5938 Q799.4125,684 800.6,684 Q801.3188,684 801.9438,684.25 Q802.5688,684.5 803.1,685 Z " fill="#000000"/><text fill="#000000" font-family="sans-serif" font-size="12" lengthAdjust="spacing" textLength="148" x="817.9" y="693.4102">ParameterCategoryMapper</text><line style="stroke:#A80036;stroke-width:1.5;" x1="774.5" x2="980.5" y1="704.5" y2="704.5"/><line style="stroke:#A80036;stroke-width:1.5;" x1="774.5" x2="980.5" y1="712.5" y2="712.5"/><text fill="#000000" font-family="sans-serif" font-size="11" lengthAdjust="spacing" textLength="153" x="779.5" y="727.9189">+toDto(listParameterCategories)</text><text fill="#000000" font-family="sans-serif" font-size="11" lengthAdjust="spacing" textLength="196" x="779.5" y="741.7549">+toModel(list &lt;parameterCategoriesDto&gt;)</text><!--MD5=[7372bbf51d55cfb0901280a97d9d0909]
class PS--><rect codeLine="52" fill="#FEFECE" filter="url(#f1vqvkpizxtjix)" height="61.8359" id="PS" style="stroke:#A80036;stroke-width:1.5;" width="353" x="701" y="783.5"/><ellipse cx="826.25" cy="799.5" fill="#ADD1B2" rx="11" ry="11" style="stroke:#A80036;stroke-width:1.0;"/><path d="M828.25,796 Q828.4531,795.5 828.6875,795.25 Q828.9219,795 829.1875,795 Q829.6563,795 829.9531,795.2813 Q830.25,795.5625 830.25,796.2188 L830.25,797.7813 Q830.25,798.4375 829.9688,798.7188 Q829.6875,799 829.25,799 Q828.8594,799 828.6094,798.8281 Q828.3594,798.6563 828.25,798.2031 Q828.2031,797.8906 828.0313,797.7188 Q827.7188,797.3906 827.1563,797.2031 Q826.5938,797 826.0313,797 Q825.3281,797 824.7344,797.2813 Q824.1563,797.5625 823.7031,798.1875 Q823.25,798.8125 823.25,799.6719 L823.25,800.5938 Q823.25,801.625 824.0938,802.3125 Q824.9375,803 826.4375,803 Q827.3281,803 827.9531,802.7969 Q828.3125,802.6875 828.7188,802.3281 Q828.9844,802.125 829.125,802.0625 Q829.2656,802 829.4375,802 Q829.7656,802 830,802.2656 Q830.25,802.5156 830.25,802.875 Q830.25,803.2188 829.9063,803.625 Q829.4063,804.2188 828.6094,804.5469 Q827.5625,805 826.2813,805 Q824.7813,805 823.5781,804.4063 Q822.6094,803.9375 821.9219,802.9219 Q821.25,801.9063 821.25,800.7031 L821.25,799.6094 Q821.25,798.3594 821.8438,797.2656 Q822.4531,796.1719 823.5,795.5938 Q824.5625,795 825.75,795 Q826.4688,795 827.0938,795.25 Q827.7188,795.5 828.25,796 Z " fill="#000000"/><text fill="#000000" font-family="sans-serif" font-size="12" lengthAdjust="spacing" textLength="94" x="846.75" y="804.4102">ParametersStore</text><line style="stroke:#A80036;stroke-width:1.5;" x1="702" x2="1053" y1="815.5" y2="815.5"/><line style="stroke:#A80036;stroke-width:1.5;" x1="702" x2="1053" y1="823.5" y2="823.5"/><text fill="#000000" font-family="sans-serif" font-size="11" lengthAdjust="spacing" textLength="341" x="707" y="838.9189">getAllParametersByParameterCategory(list &lt;parameterCategoriesDto&gt;)</text><!--MD5=[ce26f7d1346c61756d71df2e3432b601]
class PM--><rect codeLine="56" fill="#FEFECE" filter="url(#f1vqvkpizxtjix)" height="75.6719" id="PM" style="stroke:#A80036;stroke-width:1.5;" width="165" x="795" y="880.5"/><ellipse cx="822.15" cy="896.5" fill="#ADD1B2" rx="11" ry="11" style="stroke:#A80036;stroke-width:1.0;"/><path d="M824.15,893 Q824.3531,892.5 824.5875,892.25 Q824.8219,892 825.0875,892 Q825.5563,892 825.8531,892.2813 Q826.15,892.5625 826.15,893.2188 L826.15,894.7813 Q826.15,895.4375 825.8688,895.7188 Q825.5875,896 825.15,896 Q824.7594,896 824.5094,895.8281 Q824.2594,895.6563 824.15,895.2031 Q824.1031,894.8906 823.9313,894.7188 Q823.6188,894.3906 823.0563,894.2031 Q822.4938,894 821.9313,894 Q821.2281,894 820.6344,894.2813 Q820.0563,894.5625 819.6031,895.1875 Q819.15,895.8125 819.15,896.6719 L819.15,897.5938 Q819.15,898.625 819.9938,899.3125 Q820.8375,900 822.3375,900 Q823.2281,900 823.8531,899.7969 Q824.2125,899.6875 824.6188,899.3281 Q824.8844,899.125 825.025,899.0625 Q825.1656,899 825.3375,899 Q825.6656,899 825.9,899.2656 Q826.15,899.5156 826.15,899.875 Q826.15,900.2188 825.8063,900.625 Q825.3063,901.2188 824.5094,901.5469 Q823.4625,902 822.1813,902 Q820.6813,902 819.4781,901.4063 Q818.5094,900.9375 817.8219,899.9219 Q817.15,898.9063 817.15,897.7031 L817.15,896.6094 Q817.15,895.3594 817.7438,894.2656 Q818.3531,893.1719 819.4,892.5938 Q820.4625,892 821.65,892 Q822.3688,892 822.9938,892.25 Q823.6188,892.5 824.15,893 Z " fill="#000000"/><text fill="#000000" font-family="sans-serif" font-size="12" lengthAdjust="spacing" textLength="106" x="838.85" y="901.4102">ParametersMapper</text><line style="stroke:#A80036;stroke-width:1.5;" x1="796" x2="959" y1="912.5" y2="912.5"/><line style="stroke:#A80036;stroke-width:1.5;" x1="796" x2="959" y1="920.5" y2="920.5"/><text fill="#000000" font-family="sans-serif" font-size="11" lengthAdjust="spacing" textLength="107" x="801" y="935.9189">+toDto(listParameters)</text><text fill="#000000" font-family="sans-serif" font-size="11" lengthAdjust="spacing" textLength="153" x="801" y="949.7549">+toModel (list &lt;parametersDto&gt;)</text><!--MD5=[b0a1b9137b50b50b320b426f68562434]
class TS--><rect codeLine="61" fill="#FEFECE" filter="url(#f1vqvkpizxtjix)" height="103.3438" id="TS" style="stroke:#A80036;stroke-width:1.5;" width="319" x="718" y="992"/><ellipse cx="846.75" cy="1008" fill="#ADD1B2" rx="11" ry="11" style="stroke:#A80036;stroke-width:1.0;"/><path d="M848.75,1004.5 Q848.9531,1004 849.1875,1003.75 Q849.4219,1003.5 849.6875,1003.5 Q850.1563,1003.5 850.4531,1003.7813 Q850.75,1004.0625 850.75,1004.7188 L850.75,1006.2813 Q850.75,1006.9375 850.4688,1007.2188 Q850.1875,1007.5 849.75,1007.5 Q849.3594,1007.5 849.1094,1007.3281 Q848.8594,1007.1563 848.75,1006.7031 Q848.7031,1006.3906 848.5313,1006.2188 Q848.2188,1005.8906 847.6563,1005.7031 Q847.0938,1005.5 846.5313,1005.5 Q845.8281,1005.5 845.2344,1005.7813 Q844.6563,1006.0625 844.2031,1006.6875 Q843.75,1007.3125 843.75,1008.1719 L843.75,1009.0938 Q843.75,1010.125 844.5938,1010.8125 Q845.4375,1011.5 846.9375,1011.5 Q847.8281,1011.5 848.4531,1011.2969 Q848.8125,1011.1875 849.2188,1010.8281 Q849.4844,1010.625 849.625,1010.5625 Q849.7656,1010.5 849.9375,1010.5 Q850.2656,1010.5 850.5,1010.7656 Q850.75,1011.0156 850.75,1011.375 Q850.75,1011.7188 850.4063,1012.125 Q849.9063,1012.7188 849.1094,1013.0469 Q848.0625,1013.5 846.7813,1013.5 Q845.2813,1013.5 844.0781,1012.9063 Q843.1094,1012.4375 842.4219,1011.4219 Q841.75,1010.4063 841.75,1009.2031 L841.75,1008.1094 Q841.75,1006.8594 842.3438,1005.7656 Q842.9531,1004.6719 844,1004.0938 Q845.0625,1003.5 846.25,1003.5 Q846.9688,1003.5 847.5938,1003.75 Q848.2188,1004 848.75,1004.5 Z " fill="#000000"/><text fill="#000000" font-family="sans-serif" font-size="12" lengthAdjust="spacing" textLength="53" x="867.25" y="1012.9102">TestStore</text><line style="stroke:#A80036;stroke-width:1.5;" x1="719" x2="1036" y1="1024" y2="1024"/><line style="stroke:#A80036;stroke-width:1.5;" x1="719" x2="1036" y1="1032" y2="1032"/><text fill="#000000" font-family="sans-serif" font-size="11" lengthAdjust="spacing" textLength="307" x="724" y="1047.4189">createTest (tt, parameters, parameterCategories, TIN, nhsCode)</text><text fill="#000000" font-family="sans-serif" font-size="11" lengthAdjust="spacing" textLength="77" x="724" y="1061.2549">+saveTest(test)</text><text fill="#000000" font-family="sans-serif" font-size="11" lengthAdjust="spacing" textLength="71" x="724" y="1075.0908">+hasTest(test)</text><text fill="#000000" font-family="sans-serif" font-size="11" lengthAdjust="spacing" textLength="71" x="724" y="1088.9268">+addTest(test)</text><!--MD5=[56e4c9075fa7c9f4c09ef0a20c49f72c]
class T--><rect codeLine="68" fill="#FEFECE" filter="url(#f1vqvkpizxtjix)" height="172.5234" id="T" style="stroke:#A80036;stroke-width:1.5;" width="291" x="1114" y="957"/><ellipse cx="1243.25" cy="973" fill="#ADD1B2" rx="11" ry="11" style="stroke:#A80036;stroke-width:1.0;"/><path d="M1245.25,969.5 Q1245.4531,969 1245.6875,968.75 Q1245.9219,968.5 1246.1875,968.5 Q1246.6563,968.5 1246.9531,968.7813 Q1247.25,969.0625 1247.25,969.7188 L1247.25,971.2813 Q1247.25,971.9375 1246.9688,972.2188 Q1246.6875,972.5 1246.25,972.5 Q1245.8594,972.5 1245.6094,972.3281 Q1245.3594,972.1563 1245.25,971.7031 Q1245.2031,971.3906 1245.0313,971.2188 Q1244.7188,970.8906 1244.1563,970.7031 Q1243.5938,970.5 1243.0313,970.5 Q1242.3281,970.5 1241.7344,970.7813 Q1241.1563,971.0625 1240.7031,971.6875 Q1240.25,972.3125 1240.25,973.1719 L1240.25,974.0938 Q1240.25,975.125 1241.0938,975.8125 Q1241.9375,976.5 1243.4375,976.5 Q1244.3281,976.5 1244.9531,976.2969 Q1245.3125,976.1875 1245.7188,975.8281 Q1245.9844,975.625 1246.125,975.5625 Q1246.2656,975.5 1246.4375,975.5 Q1246.7656,975.5 1247,975.7656 Q1247.25,976.0156 1247.25,976.375 Q1247.25,976.7188 1246.9063,977.125 Q1246.4063,977.7188 1245.6094,978.0469 Q1244.5625,978.5 1243.2813,978.5 Q1241.7813,978.5 1240.5781,977.9063 Q1239.6094,977.4375 1238.9219,976.4219 Q1238.25,975.4063 1238.25,974.2031 L1238.25,973.1094 Q1238.25,971.8594 1238.8438,970.7656 Q1239.4531,969.6719 1240.5,969.0938 Q1241.5625,968.5 1242.75,968.5 Q1243.4688,968.5 1244.0938,968.75 Q1244.7188,969 1245.25,969.5 Z " fill="#000000"/><text fill="#000000" font-family="sans-serif" font-size="12" lengthAdjust="spacing" textLength="24" x="1263.75" y="977.9102">Test</text><line style="stroke:#A80036;stroke-width:1.5;" x1="1115" x2="1404" y1="989" y2="989"/><text fill="#000000" font-family="sans-serif" font-size="11" lengthAdjust="spacing" textLength="57" x="1120" y="1004.4189">-description</text><text fill="#000000" font-family="sans-serif" font-size="11" lengthAdjust="spacing" textLength="28" x="1120" y="1018.2549">-code</text><text fill="#000000" font-family="sans-serif" font-size="11" lengthAdjust="spacing" textLength="47" x="1120" y="1032.0908">-nhsCode</text><text fill="#000000" font-family="sans-serif" font-size="11" lengthAdjust="spacing" textLength="79" x="1120" y="1045.9268">-collectDateTime</text><text fill="#000000" font-family="sans-serif" font-size="11" lengthAdjust="spacing" textLength="132" x="1120" y="1059.7627">-chemicalAnalysisDateTime</text><text fill="#000000" font-family="sans-serif" font-size="11" lengthAdjust="spacing" textLength="94" x="1120" y="1073.5986">-diagnosisDateTime</text><text fill="#000000" font-family="sans-serif" font-size="11" lengthAdjust="spacing" textLength="93" x="1120" y="1087.4346">-validationDateTime</text><line style="stroke:#A80036;stroke-width:1.5;" x1="1115" x2="1404" y1="1093.8516" y2="1093.8516"/><text fill="#000000" font-family="sans-serif" font-size="11" lengthAdjust="spacing" textLength="279" x="1120" y="1109.2705">+Test(tt, parameters, parameterCategories, TIN, nhsCode)</text><text fill="#000000" font-family="sans-serif" font-size="11" lengthAdjust="spacing" textLength="82" x="1120" y="1123.1064">+generateCode()</text><!--MD5=[dd017b5786dc0eb98822586dade57035]
link RTUI to RTC--><path codeLine="80" d="M122.08,554.5 C138.21,554.5 156.85,554.5 176.74,554.5 " fill="none" id="RTUI-to-RTC" style="stroke:#A80036;stroke-width:1.0;stroke-dasharray:7.0,7.0;"/><polygon fill="#A80036" points="181.82,554.5,172.82,550.5,176.82,554.5,172.82,558.5,181.82,554.5" style="stroke:#A80036;stroke-width:1.0;"/><!--MD5=[73ffdb354b1fe2459a9ac1f820e25281]
link RTC to CS--><path codeLine="81" d="M458.16,488.8 C509.46,419.88 599.02,313.3 701,252.5 C739.4,229.6 788.99,217.35 825.65,210.98 " fill="none" id="RTC-to-CS" style="stroke:#A80036;stroke-width:1.0;stroke-dasharray:7.0,7.0;"/><polygon fill="#A80036" points="830.96,210.08,821.4145,207.6543,826.0315,210.9228,822.7631,215.5399,830.96,210.08" style="stroke:#A80036;stroke-width:1.0;"/><!--MD5=[b1f25aab2c8cf6c0c810a50e101e7b90]
link RTC to CM--><path codeLine="82" d="M488.94,488.81 C544.55,443.98 623.4,386.26 701,349.5 C738.82,331.58 784.5,319.36 819.77,311.73 " fill="none" id="RTC-to-CM" style="stroke:#A80036;stroke-width:1.0;stroke-dasharray:7.0,7.0;"/><polygon fill="#A80036" points="824.9,310.64,815.2633,308.6069,820.0102,311.6837,816.9333,316.4306,824.9,310.64" style="stroke:#A80036;stroke-width:1.0;"/><!--MD5=[92569abc02196c21c46e6d49c0fdf73f]
link RTC to C--><path codeLine="83" d="M446.31,488.65 C493.37,402.45 585.94,251.1 701,155.5 C727.82,133.21 761.63,115.39 792.4,102.05 " fill="none" id="RTC-to-C" style="stroke:#A80036;stroke-width:1.0;stroke-dasharray:7.0,7.0;"/><polygon fill="#A80036" points="797.31,99.95,787.462,99.8187,792.7143,101.9196,790.6134,107.1719,797.31,99.95" style="stroke:#A80036;stroke-width:1.0;"/><!--MD5=[b3a4147220c3f63b352828c1b1ed0293]
link RTC to TTS--><path codeLine="84" d="M579.78,488.93 C619.29,474.27 661.43,459.29 701,446.5 C739.25,434.14 782.83,422.21 817,413.33 " fill="none" id="RTC-to-TTS" style="stroke:#A80036;stroke-width:1.0;stroke-dasharray:7.0,7.0;"/><polygon fill="#A80036" points="821.97,412.05,812.257,410.4197,817.1278,413.2964,814.2512,418.1672,821.97,412.05" style="stroke:#A80036;stroke-width:1.0;"/><!--MD5=[4d8b153a7b605fd6ac41ea413c086e67]
link RTC to TTM--><path codeLine="85" d="M641.1,528.88 C703.22,521.92 765.66,514.92 810.6,509.88 " fill="none" id="RTC-to-TTM" style="stroke:#A80036;stroke-width:1.0;stroke-dasharray:7.0,7.0;"/><polygon fill="#A80036" points="815.72,509.31,806.3305,506.3372,810.7511,509.8669,807.2215,514.2875,815.72,509.31" style="stroke:#A80036;stroke-width:1.0;"/><!--MD5=[cb6d3a72df2deeb2db2aca591df9444a]
link RTC to PCS--><path codeLine="86" d="M641.1,580.12 C673.86,583.79 706.71,587.47 737.04,590.87 " fill="none" id="RTC-to-PCS" style="stroke:#A80036;stroke-width:1.0;stroke-dasharray:7.0,7.0;"/><polygon fill="#A80036" points="742.28,591.46,733.7815,586.4825,737.3111,590.9031,732.8905,594.4328,742.28,591.46" style="stroke:#A80036;stroke-width:1.0;"/><!--MD5=[e804d6badd04a947ec0304eef7a15b2c]
link RTC to PCM--><path codeLine="87" d="M599.66,620.13 C633.35,631.73 668.18,643.58 701,654.5 C722.72,661.73 746.02,669.29 768.31,676.44 " fill="none" id="RTC-to-PCM" style="stroke:#A80036;stroke-width:1.0;stroke-dasharray:7.0,7.0;"/><polygon fill="#A80036" points="773.35,678.06,765.9994,671.5049,768.5884,676.5346,763.5587,679.1235,773.35,678.06" style="stroke:#A80036;stroke-width:1.0;"/><!--MD5=[fe07df3723ce1e7554b8338206e6a440]
link RTC to PS--><path codeLine="88" d="M486.31,620.12 C541.92,666.53 621.87,727.09 701,765.5 C713.42,771.53 726.71,776.92 740.2,781.73 " fill="none" id="RTC-to-PS" style="stroke:#A80036;stroke-width:1.0;stroke-dasharray:7.0,7.0;"/><polygon fill="#A80036" points="745.18,783.47,738.0158,776.7117,740.4629,781.8119,735.3628,784.259,745.18,783.47" style="stroke:#A80036;stroke-width:1.0;"/><!--MD5=[53ad67196b9718d138e4f8e9634b55e0]
link RTC to PM--><path codeLine="89" d="M457.91,620.06 C509.31,689.64 599.26,798.22 701,862.5 C727.84,879.46 760.25,891.68 789.87,900.3 " fill="none" id="RTC-to-PM" style="stroke:#A80036;stroke-width:1.0;stroke-dasharray:7.0,7.0;"/><polygon fill="#A80036" points="794.98,901.76,787.4202,895.4473,790.1713,900.3902,785.2285,903.1413,794.98,901.76" style="stroke:#A80036;stroke-width:1.0;"/><!--MD5=[8fb19c63ab7f2a290721248e38e8af22]
link RTC to TS--><path codeLine="90" d="M442.31,620.18 C486.65,711.17 578.14,875.43 701,973.5 C708.03,979.11 715.57,984.32 723.42,989.16 " fill="none" id="RTC-to-TS" style="stroke:#A80036;stroke-width:1.0;stroke-dasharray:7.0,7.0;"/><polygon fill="#A80036" points="727.82,991.81,722.1803,983.7357,723.5388,989.227,718.0475,990.5856,727.82,991.81" style="stroke:#A80036;stroke-width:1.0;"/><!--MD5=[0b037e5f89e300193b3080f69ffc7684]
link TS to T--><path codeLine="91" d="M1037.18,1043.5 C1060.93,1043.5 1085.35,1043.5 1108.9,1043.5 " fill="none" id="TS-to-T" style="stroke:#A80036;stroke-width:1.0;stroke-dasharray:7.0,7.0;"/><polygon fill="#A80036" points="1113.91,1043.5,1104.91,1039.5,1108.91,1043.5,1104.91,1047.5,1113.91,1043.5" style="stroke:#A80036;stroke-width:1.0;"/><!--MD5=[71787bb57ba45fa6bd0da4e0508579e9]
@startuml
'https://plantuml.com/class-diagram

skinparam classAttributeIconSize 0
left to right direction

class "RegisterTestUI" as RTUI

class "RegisterTestController" as RTC {
+getClient(TIN)
+getAllTestType()
+getAllParameterCategoriesByTestType(testTypeDto)
+getAllParametersByParameterCategory(list <parameterCategoriesDto>)
+createTest(list <parametersDto>, tesTypeDto, list <parameterCategoriesDto>, TIN, nhsCode)
+saveTest(test)
}

class "Company" as C {
-designation
+getClientStore()
+getTestTypeStore()
+getParameterCategoryStore()
+getParametersStore()
+getTestStore()
}

class "ClientStore" as CS {
+getClient(TIN)
}

class "ClientMapper" as CM {
+toDto(cl)
}

class "TestTypeStore" as TTS {
+getAllTestType()
}

class "TestTypeMapper" as TTM {
+toDto(listTestType)
+toModel(testTypeDto)
}

class "ParameterCategoryStore" as PCS {
+getAllParameterCategoriesByTestType(testTypeDto)
}

class "ParameterCategoryMapper" as PCM {
+toDto(listParameterCategories)
+toModel(list <parameterCategoriesDto>)
}

class "ParametersStore" as PS {
getAllParametersByParameterCategory(list <parameterCategoriesDto>)
}

class "ParametersMapper" as PM {
+toDto(listParameters)
+toModel (list <parametersDto>)
}

class "TestStore" as TS {
createTest (tt, parameters, parameterCategories, TIN, nhsCode)
+saveTest(test)
+hasTest(test)
+addTest(test)
}

class "Test" as T {
-description
-code
-nhsCode
-collectDateTime
-chemicalAnalysisDateTime
-diagnosisDateTime
-validationDateTime
+Test(tt, parameters, parameterCategories, TIN, nhsCode)
+generateCode()
}

RTUI ..> RTC
RTC ..> CS
RTC ..> CM
RTC ..> C
RTC ..> TTS
RTC ..> TTM
RTC ..> PCS
RTC ..> PCM
RTC ..> PS
RTC ..> PM
RTC ..> TS
TS ..> T


@enduml

@startuml

skinparam classAttributeIconSize 0
left to right direction

class "RegisterTestUI" as RTUI

class "RegisterTestController" as RTC {
+getClient(TIN)
+getAllTestType()
+getAllParameterCategoriesByTestType(testTypeDto)
+getAllParametersByParameterCategory(list <parameterCategoriesDto>)
+createTest(list <parametersDto>, tesTypeDto, list <parameterCategoriesDto>, TIN, nhsCode)
+saveTest(test)
}

class "Company" as C {
-designation
+getClientStore()
+getTestTypeStore()
+getParameterCategoryStore()
+getParametersStore()
+getTestStore()
}

class "ClientStore" as CS {
+getClient(TIN)
}

class "ClientMapper" as CM {
+toDto(cl)
}

class "TestTypeStore" as TTS {
+getAllTestType()
}

class "TestTypeMapper" as TTM {
+toDto(listTestType)
+toModel(testTypeDto)
}

class "ParameterCategoryStore" as PCS {
+getAllParameterCategoriesByTestType(testTypeDto)
}

class "ParameterCategoryMapper" as PCM {
+toDto(listParameterCategories)
+toModel(list <parameterCategoriesDto>)
}

class "ParametersStore" as PS {
getAllParametersByParameterCategory(list <parameterCategoriesDto>)
}

class "ParametersMapper" as PM {
+toDto(listParameters)
+toModel (list <parametersDto>)
}

class "TestStore" as TS {
createTest (tt, parameters, parameterCategories, TIN, nhsCode)
+saveTest(test)
+hasTest(test)
+addTest(test)
}

class "Test" as T {
-description
-code
-nhsCode
-collectDateTime
-chemicalAnalysisDateTime
-diagnosisDateTime
-validationDateTime
+Test(tt, parameters, parameterCategories, TIN, nhsCode)
+generateCode()
}

RTUI ..> RTC
RTC ..> CS
RTC ..> CM
RTC ..> C
RTC ..> TTS
RTC ..> TTM
RTC ..> PCS
RTC ..> PCM
RTC ..> PS
RTC ..> PM
RTC ..> TS
TS ..> T


@enduml

PlantUML version 1.2021.4(Sun Apr 04 09:49:39 BST 2021)
(GPL source distribution)
Java Runtime: OpenJDK Runtime Environment
JVM: OpenJDK 64-Bit Server VM
Default Encoding: Cp1252
Language: pt
Country: PT
--></g></svg>