<?xml version="1.0" encoding="UTF-8" standalone="no"?><svg xmlns="http://www.w3.org/2000/svg" xmlns:xlink="http://www.w3.org/1999/xlink" contentScriptType="application/ecmascript" contentStyleType="text/css" height="498px" preserveAspectRatio="none" style="width:579px;height:498px;" version="1.1" viewBox="0 0 579 498" width="579px" zoomAndPan="magnify"><defs><filter height="300%" id="f5sx3li3koegy" width="300%" x="-1" y="-1"><feGaussianBlur result="blurOut" stdDeviation="2.0"/><feColorMatrix in="blurOut" result="blurOut2" type="matrix" values="0 0 0 0 0 0 0 0 0 0 0 0 0 0 0 0 0 0 .4 0"/><feOffset dx="4.0" dy="4.0" in="blurOut2" result="blurOut3"/><feBlend in="SourceGraphic" in2="blurOut3" mode="normal"/></filter></defs><g><rect fill="#FFFFFF" filter="url(#f5sx3li3koegy)" height="304.5156" style="stroke:#A80036;stroke-width:1.0;" width="10" x="42" y="99.6094"/><rect fill="#FFFFFF" filter="url(#f5sx3li3koegy)" height="30.3516" style="stroke:#A80036;stroke-width:1.0;" width="10" x="532" y="121.9609"/><rect fill="#FFFFFF" filter="url(#f5sx3li3koegy)" height="30.3516" style="stroke:#A80036;stroke-width:1.0;" width="10" x="532" y="182.6641"/><rect fill="#FFFFFF" filter="url(#f5sx3li3koegy)" height="30.3516" style="stroke:#A80036;stroke-width:1.0;" width="10" x="532" y="243.3672"/><rect fill="#FFFFFF" filter="url(#f5sx3li3koegy)" height="30.3516" style="stroke:#A80036;stroke-width:1.0;" width="10" x="532" y="304.0703"/><rect fill="#FFFFFF" filter="url(#f5sx3li3koegy)" height="30.3516" style="stroke:#A80036;stroke-width:1.0;" width="10" x="532" y="364.7734"/><line style="stroke:#A80036;stroke-width:1.0;stroke-dasharray:5.0,5.0;" x1="47" x2="47" y1="89.6094" y2="413.125"/><line style="stroke:#A80036;stroke-width:1.0;stroke-dasharray:5.0,5.0;" x1="537" x2="537" y1="89.6094" y2="413.125"/><text fill="#000000" font-family="sans-serif" font-size="14" lengthAdjust="spacing" textLength="78" x="5" y="86.5332">Receptionist</text><ellipse cx="47" cy="15" fill="#FEFECE" filter="url(#f5sx3li3koegy)" rx="8" ry="8" style="stroke:#A80036;stroke-width:2.0;"/><path d="M47,23 L47,50 M34,31 L60,31 M47,50 L34,65 M47,50 L60,65 " fill="none" filter="url(#f5sx3li3koegy)" style="stroke:#A80036;stroke-width:2.0;"/><text fill="#000000" font-family="sans-serif" font-size="14" lengthAdjust="spacing" textLength="78" x="5" y="426.6582">Receptionist</text><ellipse cx="47" cy="439.7344" fill="#FEFECE" filter="url(#f5sx3li3koegy)" rx="8" ry="8" style="stroke:#A80036;stroke-width:2.0;"/><path d="M47,447.7344 L47,474.7344 M34,455.7344 L60,455.7344 M47,474.7344 L34,489.7344 M47,474.7344 L60,489.7344 " fill="none" filter="url(#f5sx3li3koegy)" style="stroke:#A80036;stroke-width:2.0;"/><rect fill="#FEFECE" filter="url(#f5sx3li3koegy)" height="31.6094" style="stroke:#A80036;stroke-width:1.5;" width="60" x="505" y="53"/><text fill="#000000" font-family="sans-serif" font-size="14" lengthAdjust="spacing" textLength="46" x="512" y="74.5332">System</text><rect fill="#FEFECE" filter="url(#f5sx3li3koegy)" height="31.6094" style="stroke:#A80036;stroke-width:1.5;" width="60" x="505" y="412.125"/><text fill="#000000" font-family="sans-serif" font-size="14" lengthAdjust="spacing" textLength="46" x="512" y="433.6582">System</text><rect fill="#FFFFFF" filter="url(#f5sx3li3koegy)" height="304.5156" style="stroke:#A80036;stroke-width:1.0;" width="10" x="42" y="99.6094"/><rect fill="#FFFFFF" filter="url(#f5sx3li3koegy)" height="30.3516" style="stroke:#A80036;stroke-width:1.0;" width="10" x="532" y="121.9609"/><rect fill="#FFFFFF" filter="url(#f5sx3li3koegy)" height="30.3516" style="stroke:#A80036;stroke-width:1.0;" width="10" x="532" y="182.6641"/><rect fill="#FFFFFF" filter="url(#f5sx3li3koegy)" height="30.3516" style="stroke:#A80036;stroke-width:1.0;" width="10" x="532" y="243.3672"/><rect fill="#FFFFFF" filter="url(#f5sx3li3koegy)" height="30.3516" style="stroke:#A80036;stroke-width:1.0;" width="10" x="532" y="304.0703"/><rect fill="#FFFFFF" filter="url(#f5sx3li3koegy)" height="30.3516" style="stroke:#A80036;stroke-width:1.0;" width="10" x="532" y="364.7734"/><polygon fill="#A80036" points="520,117.9609,530,121.9609,520,125.9609,524,121.9609" style="stroke:#A80036;stroke-width:1.0;"/><line style="stroke:#A80036;stroke-width:1.0;" x1="52" x2="526" y1="121.9609" y2="121.9609"/><text fill="#000000" font-family="sans-serif" font-size="13" font-weight="bold" lengthAdjust="spacing" textLength="7" x="59" y="117.1045">1</text><text fill="#000000" font-family="sans-serif" font-size="13" lengthAdjust="spacing" textLength="296" x="70" y="117.1045">register a test to be performed to a registered client</text><polygon fill="#A80036" points="63,148.3125,53,152.3125,63,156.3125,59,152.3125" style="stroke:#A80036;stroke-width:1.0;"/><line style="stroke:#A80036;stroke-width:1.0;stroke-dasharray:2.0,2.0;" x1="57" x2="536" y1="152.3125" y2="152.3125"/><text fill="#000000" font-family="sans-serif" font-size="13" font-weight="bold" lengthAdjust="spacing" textLength="7" x="69" y="147.4561">2</text><text fill="#000000" font-family="sans-serif" font-size="13" lengthAdjust="spacing" textLength="134" x="80" y="147.4561">request data (citizenID)</text><polygon fill="#A80036" points="520,178.6641,530,182.6641,520,186.6641,524,182.6641" style="stroke:#A80036;stroke-width:1.0;"/><line style="stroke:#A80036;stroke-width:1.0;" x1="52" x2="526" y1="182.6641" y2="182.6641"/><text fill="#000000" font-family="sans-serif" font-size="13" font-weight="bold" lengthAdjust="spacing" textLength="7" x="59" y="177.8076">3</text><text fill="#000000" font-family="sans-serif" font-size="13" lengthAdjust="spacing" textLength="122" x="70" y="177.8076">types requested data</text><polygon fill="#A80036" points="63,209.0156,53,213.0156,63,217.0156,59,213.0156" style="stroke:#A80036;stroke-width:1.0;"/><line style="stroke:#A80036;stroke-width:1.0;stroke-dasharray:2.0,2.0;" x1="57" x2="536" y1="213.0156" y2="213.0156"/><text fill="#000000" font-family="sans-serif" font-size="13" font-weight="bold" lengthAdjust="spacing" textLength="7" x="69" y="208.1592">4</text><text fill="#000000" font-family="sans-serif" font-size="13" lengthAdjust="spacing" textLength="250" x="80" y="208.1592">shows the test types and ask to select one</text><polygon fill="#A80036" points="520,239.3672,530,243.3672,520,247.3672,524,243.3672" style="stroke:#A80036;stroke-width:1.0;"/><line style="stroke:#A80036;stroke-width:1.0;" x1="52" x2="526" y1="243.3672" y2="243.3672"/><text fill="#000000" font-family="sans-serif" font-size="13" font-weight="bold" lengthAdjust="spacing" textLength="7" x="59" y="238.5107">5</text><text fill="#000000" font-family="sans-serif" font-size="13" lengthAdjust="spacing" textLength="119" x="70" y="238.5107">selects the test type</text><polygon fill="#A80036" points="63,269.7188,53,273.7188,63,277.7188,59,273.7188" style="stroke:#A80036;stroke-width:1.0;"/><line style="stroke:#A80036;stroke-width:1.0;stroke-dasharray:2.0,2.0;" x1="57" x2="536" y1="273.7188" y2="273.7188"/><text fill="#000000" font-family="sans-serif" font-size="13" font-weight="bold" lengthAdjust="spacing" textLength="7" x="69" y="268.8623">6</text><text fill="#000000" font-family="sans-serif" font-size="13" lengthAdjust="spacing" textLength="445" x="80" y="268.8623">show all parameters according to the test type and ask to select one or more</text><polygon fill="#A80036" points="520,300.0703,530,304.0703,520,308.0703,524,304.0703" style="stroke:#A80036;stroke-width:1.0;"/><line style="stroke:#A80036;stroke-width:1.0;" x1="52" x2="526" y1="304.0703" y2="304.0703"/><text fill="#000000" font-family="sans-serif" font-size="13" font-weight="bold" lengthAdjust="spacing" textLength="7" x="59" y="299.2139">7</text><text fill="#000000" font-family="sans-serif" font-size="13" lengthAdjust="spacing" textLength="230" x="70" y="299.2139">selects the parameter(s) to be analysed</text><polygon fill="#A80036" points="63,330.4219,53,334.4219,63,338.4219,59,334.4219" style="stroke:#A80036;stroke-width:1.0;"/><line style="stroke:#A80036;stroke-width:1.0;stroke-dasharray:2.0,2.0;" x1="57" x2="536" y1="334.4219" y2="334.4219"/><text fill="#000000" font-family="sans-serif" font-size="13" font-weight="bold" lengthAdjust="spacing" textLength="7" x="69" y="329.5654">8</text><text fill="#000000" font-family="sans-serif" font-size="13" lengthAdjust="spacing" textLength="233" x="80" y="329.5654">show all data and request a confirmation</text><polygon fill="#A80036" points="520,360.7734,530,364.7734,520,368.7734,524,364.7734" style="stroke:#A80036;stroke-width:1.0;"/><line style="stroke:#A80036;stroke-width:1.0;" x1="52" x2="526" y1="364.7734" y2="364.7734"/><text fill="#000000" font-family="sans-serif" font-size="13" font-weight="bold" lengthAdjust="spacing" textLength="7" x="59" y="359.917">9</text><text fill="#000000" font-family="sans-serif" font-size="13" lengthAdjust="spacing" textLength="100" x="70" y="359.917">confirms the data</text><polygon fill="#A80036" points="63,391.125,53,395.125,63,399.125,59,395.125" style="stroke:#A80036;stroke-width:1.0;"/><line style="stroke:#A80036;stroke-width:1.0;stroke-dasharray:2.0,2.0;" x1="57" x2="536" y1="395.125" y2="395.125"/><text fill="#000000" font-family="sans-serif" font-size="13" font-weight="bold" lengthAdjust="spacing" textLength="14" x="69" y="390.2686">10</text><text fill="#000000" font-family="sans-serif" font-size="13" lengthAdjust="spacing" textLength="250" x="87" y="390.2686">register test and informs operation success</text><!--MD5=[0e15a236d9ec2b86ebb297f09a676ce5]
@startuml
'https://plantuml.com/sequence-diagram

autonumber

actor "Receptionist" as R
activate R
R -> System ++: register a test to be performed to a registered client
System - ->  R - -: request data (citizenID)
R -> System ++: types requested data
System - -> R - -: shows the test types and ask to select one
R -> System ++: selects the test type
System - -> R - -: show all parameters according to the test type and ask to select one or more
R -> System ++: selects the parameter(s) to be analysed
System - -> R - -: show all data and request a confirmation
R -> System ++: confirms the data
System - -> R - -: register test and informs operation success
@enduml

@startuml

autonumber

actor "Receptionist" as R
activate R
R -> System ++: register a test to be performed to a registered client
System - ->  R - -: request data (citizenID)
R -> System ++: types requested data
System - -> R - -: shows the test types and ask to select one
R -> System ++: selects the test type
System - -> R - -: show all parameters according to the test type and ask to select one or more
R -> System ++: selects the parameter(s) to be analysed
System - -> R - -: show all data and request a confirmation
R -> System ++: confirms the data
System - -> R - -: register test and informs operation success
@enduml

PlantUML version 1.2021.4(Sun Apr 04 09:49:39 BST 2021)
(GPL source distribution)
Java Runtime: OpenJDK Runtime Environment
JVM: OpenJDK 64-Bit Server VM
Default Encoding: Cp1252
Language: pt
Country: PT
--></g></svg>