<?xml version="1.0" encoding="UTF-8" standalone="no"?><svg xmlns="http://www.w3.org/2000/svg" xmlns:xlink="http://www.w3.org/1999/xlink" contentScriptType="application/ecmascript" contentStyleType="text/css" height="907px" preserveAspectRatio="none" style="width:908px;height:907px;" version="1.1" viewBox="0 0 908 907" width="908px" zoomAndPan="magnify"><defs><filter height="300%" id="f18j9vq9pca6rl" width="300%" x="-1" y="-1"><feGaussianBlur result="blurOut" stdDeviation="2.0"/><feColorMatrix in="blurOut" result="blurOut2" type="matrix" values="0 0 0 0 0 0 0 0 0 0 0 0 0 0 0 0 0 0 .4 0"/><feOffset dx="4.0" dy="4.0" in="blurOut2" result="blurOut3"/><feBlend in="SourceGraphic" in2="blurOut3" mode="normal"/></filter></defs><g><!--MD5=[43142ed302a6cc9ae965019424b4d408]
class RTUI--><rect codeLine="6" fill="#FEFECE" filter="url(#f18j9vq9pca6rl)" height="48" id="RTUI" style="stroke:#A80036;stroke-width:1.5;" width="115" x="7" y="409.5"/><ellipse cx="22" cy="425.5" fill="#ADD1B2" rx="11" ry="11" style="stroke:#A80036;stroke-width:1.0;"/><path d="M24,422 Q24.2031,421.5 24.4375,421.25 Q24.6719,421 24.9375,421 Q25.4063,421 25.7031,421.2813 Q26,421.5625 26,422.2188 L26,423.7813 Q26,424.4375 25.7188,424.7188 Q25.4375,425 25,425 Q24.6094,425 24.3594,424.8281 Q24.1094,424.6563 24,424.2031 Q23.9531,423.8906 23.7813,423.7188 Q23.4688,423.3906 22.9063,423.2031 Q22.3438,423 21.7813,423 Q21.0781,423 20.4844,423.2813 Q19.9063,423.5625 19.4531,424.1875 Q19,424.8125 19,425.6719 L19,426.5938 Q19,427.625 19.8438,428.3125 Q20.6875,429 22.1875,429 Q23.0781,429 23.7031,428.7969 Q24.0625,428.6875 24.4688,428.3281 Q24.7344,428.125 24.875,428.0625 Q25.0156,428 25.1875,428 Q25.5156,428 25.75,428.2656 Q26,428.5156 26,428.875 Q26,429.2188 25.6563,429.625 Q25.1563,430.2188 24.3594,430.5469 Q23.3125,431 22.0313,431 Q20.5313,431 19.3281,430.4063 Q18.3594,429.9375 17.6719,428.9219 Q17,427.9063 17,426.7031 L17,425.6094 Q17,424.3594 17.5938,423.2656 Q18.2031,422.1719 19.25,421.5938 Q20.3125,421 21.5,421 Q22.2188,421 22.8438,421.25 Q23.4688,421.5 24,422 Z " fill="#000000"/><text fill="#000000" font-family="sans-serif" font-size="12" lengthAdjust="spacing" textLength="83" x="36" y="430.4102">RegisterTestUI</text><line style="stroke:#A80036;stroke-width:1.5;" x1="8" x2="121" y1="441.5" y2="441.5"/><line style="stroke:#A80036;stroke-width:1.5;" x1="8" x2="121" y1="449.5" y2="449.5"/><!--MD5=[fc745cbb6189e890294da62cd777863a]
class RTC--><rect codeLine="8" fill="#FEFECE" filter="url(#f18j9vq9pca6rl)" height="117.1797" id="RTC" style="stroke:#A80036;stroke-width:1.5;" width="224" x="182" y="375"/><ellipse cx="227.25" cy="391" fill="#ADD1B2" rx="11" ry="11" style="stroke:#A80036;stroke-width:1.0;"/><path d="M229.25,387.5 Q229.4531,387 229.6875,386.75 Q229.9219,386.5 230.1875,386.5 Q230.6563,386.5 230.9531,386.7813 Q231.25,387.0625 231.25,387.7188 L231.25,389.2813 Q231.25,389.9375 230.9688,390.2188 Q230.6875,390.5 230.25,390.5 Q229.8594,390.5 229.6094,390.3281 Q229.3594,390.1563 229.25,389.7031 Q229.2031,389.3906 229.0313,389.2188 Q228.7188,388.8906 228.1563,388.7031 Q227.5938,388.5 227.0313,388.5 Q226.3281,388.5 225.7344,388.7813 Q225.1563,389.0625 224.7031,389.6875 Q224.25,390.3125 224.25,391.1719 L224.25,392.0938 Q224.25,393.125 225.0938,393.8125 Q225.9375,394.5 227.4375,394.5 Q228.3281,394.5 228.9531,394.2969 Q229.3125,394.1875 229.7188,393.8281 Q229.9844,393.625 230.125,393.5625 Q230.2656,393.5 230.4375,393.5 Q230.7656,393.5 231,393.7656 Q231.25,394.0156 231.25,394.375 Q231.25,394.7188 230.9063,395.125 Q230.4063,395.7188 229.6094,396.0469 Q228.5625,396.5 227.2813,396.5 Q225.7813,396.5 224.5781,395.9063 Q223.6094,395.4375 222.9219,394.4219 Q222.25,393.4063 222.25,392.2031 L222.25,391.1094 Q222.25,389.8594 222.8438,388.7656 Q223.4531,387.6719 224.5,387.0938 Q225.5625,386.5 226.75,386.5 Q227.4688,386.5 228.0938,386.75 Q228.7188,387 229.25,387.5 Z " fill="#000000"/><text fill="#000000" font-family="sans-serif" font-size="12" lengthAdjust="spacing" textLength="125" x="247.75" y="395.9102">RegisterTestController</text><line style="stroke:#A80036;stroke-width:1.5;" x1="183" x2="405" y1="407" y2="407"/><line style="stroke:#A80036;stroke-width:1.5;" x1="183" x2="405" y1="415" y2="415"/><text fill="#000000" font-family="sans-serif" font-size="11" lengthAdjust="spacing" textLength="95" x="188" y="430.4189">+getClient(citizenID)</text><text fill="#000000" font-family="sans-serif" font-size="11" lengthAdjust="spacing" textLength="86" x="188" y="444.2549">+getAllTestType()</text><text fill="#000000" font-family="sans-serif" font-size="11" lengthAdjust="spacing" textLength="212" x="188" y="458.0908">+getAllParametersByTestType(testTypeDto)</text><text fill="#000000" font-family="sans-serif" font-size="11" lengthAdjust="spacing" textLength="165" x="188" y="471.9268">+createTest(list &lt;parametersDto&gt;)</text><text fill="#000000" font-family="sans-serif" font-size="11" lengthAdjust="spacing" textLength="77" x="188" y="485.7627">+saveTest(test)</text><!--MD5=[378b18254a1b2429f435e93f5e5cc50c]
class C--><rect codeLine="16" fill="#FEFECE" filter="url(#f18j9vq9pca6rl)" height="117.1797" id="C" style="stroke:#A80036;stroke-width:1.5;" width="122" x="517" y="7"/><ellipse cx="548.65" cy="23" fill="#ADD1B2" rx="11" ry="11" style="stroke:#A80036;stroke-width:1.0;"/><path d="M550.65,19.5 Q550.8531,19 551.0875,18.75 Q551.3219,18.5 551.5875,18.5 Q552.0563,18.5 552.3531,18.7813 Q552.65,19.0625 552.65,19.7188 L552.65,21.2813 Q552.65,21.9375 552.3688,22.2188 Q552.0875,22.5 551.65,22.5 Q551.2594,22.5 551.0094,22.3281 Q550.7594,22.1563 550.65,21.7031 Q550.6031,21.3906 550.4313,21.2188 Q550.1188,20.8906 549.5563,20.7031 Q548.9938,20.5 548.4313,20.5 Q547.7281,20.5 547.1344,20.7813 Q546.5563,21.0625 546.1031,21.6875 Q545.65,22.3125 545.65,23.1719 L545.65,24.0938 Q545.65,25.125 546.4938,25.8125 Q547.3375,26.5 548.8375,26.5 Q549.7281,26.5 550.3531,26.2969 Q550.7125,26.1875 551.1188,25.8281 Q551.3844,25.625 551.525,25.5625 Q551.6656,25.5 551.8375,25.5 Q552.1656,25.5 552.4,25.7656 Q552.65,26.0156 552.65,26.375 Q552.65,26.7188 552.3063,27.125 Q551.8063,27.7188 551.0094,28.0469 Q549.9625,28.5 548.6813,28.5 Q547.1813,28.5 545.9781,27.9063 Q545.0094,27.4375 544.3219,26.4219 Q543.65,25.4063 543.65,24.2031 L543.65,23.1094 Q543.65,21.8594 544.2438,20.7656 Q544.8531,19.6719 545.9,19.0938 Q546.9625,18.5 548.15,18.5 Q548.8688,18.5 549.4938,18.75 Q550.1188,19 550.65,19.5 Z " fill="#000000"/><text fill="#000000" font-family="sans-serif" font-size="12" lengthAdjust="spacing" textLength="53" x="566.35" y="27.9102">Company</text><line style="stroke:#A80036;stroke-width:1.5;" x1="518" x2="638" y1="39" y2="39"/><text fill="#000000" font-family="sans-serif" font-size="11" lengthAdjust="spacing" textLength="59" x="523" y="54.4189">-designation</text><line style="stroke:#A80036;stroke-width:1.5;" x1="518" x2="638" y1="60.8359" y2="60.8359"/><text fill="#000000" font-family="sans-serif" font-size="11" lengthAdjust="spacing" textLength="81" x="523" y="76.2549">+getClientStore()</text><text fill="#000000" font-family="sans-serif" font-size="11" lengthAdjust="spacing" textLength="100" x="523" y="90.0908">+getTestTypeStore()</text><text fill="#000000" font-family="sans-serif" font-size="11" lengthAdjust="spacing" textLength="110" x="523" y="103.9268">+getParametersStore()</text><text fill="#000000" font-family="sans-serif" font-size="11" lengthAdjust="spacing" textLength="76" x="523" y="117.7627">+getTestStore()</text><!--MD5=[d68c9369472fd2c8081ca2424f4233ba]
class CS--><rect codeLine="24" fill="#FEFECE" filter="url(#f18j9vq9pca6rl)" height="61.8359" id="CS" style="stroke:#A80036;stroke-width:1.5;" width="107" x="524.5" y="159.5"/><ellipse cx="545.8" cy="175.5" fill="#ADD1B2" rx="11" ry="11" style="stroke:#A80036;stroke-width:1.0;"/><path d="M547.8,172 Q548.0031,171.5 548.2375,171.25 Q548.4719,171 548.7375,171 Q549.2063,171 549.5031,171.2813 Q549.8,171.5625 549.8,172.2188 L549.8,173.7813 Q549.8,174.4375 549.5188,174.7188 Q549.2375,175 548.8,175 Q548.4094,175 548.1594,174.8281 Q547.9094,174.6563 547.8,174.2031 Q547.7531,173.8906 547.5813,173.7188 Q547.2688,173.3906 546.7063,173.2031 Q546.1438,173 545.5813,173 Q544.8781,173 544.2844,173.2813 Q543.7063,173.5625 543.2531,174.1875 Q542.8,174.8125 542.8,175.6719 L542.8,176.5938 Q542.8,177.625 543.6438,178.3125 Q544.4875,179 545.9875,179 Q546.8781,179 547.5031,178.7969 Q547.8625,178.6875 548.2688,178.3281 Q548.5344,178.125 548.675,178.0625 Q548.8156,178 548.9875,178 Q549.3156,178 549.55,178.2656 Q549.8,178.5156 549.8,178.875 Q549.8,179.2188 549.4563,179.625 Q548.9563,180.2188 548.1594,180.5469 Q547.1125,181 545.8313,181 Q544.3313,181 543.1281,180.4063 Q542.1594,179.9375 541.4719,178.9219 Q540.8,177.9063 540.8,176.7031 L540.8,175.6094 Q540.8,174.3594 541.3938,173.2656 Q542.0031,172.1719 543.05,171.5938 Q544.1125,171 545.3,171 Q546.0188,171 546.6438,171.25 Q547.2688,171.5 547.8,172 Z " fill="#000000"/><text fill="#000000" font-family="sans-serif" font-size="12" lengthAdjust="spacing" textLength="61" x="561.2" y="180.4102">ClientStore</text><line style="stroke:#A80036;stroke-width:1.5;" x1="525.5" x2="630.5" y1="191.5" y2="191.5"/><line style="stroke:#A80036;stroke-width:1.5;" x1="525.5" x2="630.5" y1="199.5" y2="199.5"/><text fill="#000000" font-family="sans-serif" font-size="11" lengthAdjust="spacing" textLength="95" x="530.5" y="214.9189">+getClient(citizenID)</text><!--MD5=[922d291f43d024f1166d0eae9b0ee0bb]
class CM--><rect codeLine="28" fill="#FEFECE" filter="url(#f18j9vq9pca6rl)" height="61.8359" id="CM" style="stroke:#A80036;stroke-width:1.5;" width="105" x="525.5" y="256.5"/><ellipse cx="540.5" cy="272.5" fill="#ADD1B2" rx="11" ry="11" style="stroke:#A80036;stroke-width:1.0;"/><path d="M542.5,269 Q542.7031,268.5 542.9375,268.25 Q543.1719,268 543.4375,268 Q543.9063,268 544.2031,268.2813 Q544.5,268.5625 544.5,269.2188 L544.5,270.7813 Q544.5,271.4375 544.2188,271.7188 Q543.9375,272 543.5,272 Q543.1094,272 542.8594,271.8281 Q542.6094,271.6563 542.5,271.2031 Q542.4531,270.8906 542.2813,270.7188 Q541.9688,270.3906 541.4063,270.2031 Q540.8438,270 540.2813,270 Q539.5781,270 538.9844,270.2813 Q538.4063,270.5625 537.9531,271.1875 Q537.5,271.8125 537.5,272.6719 L537.5,273.5938 Q537.5,274.625 538.3438,275.3125 Q539.1875,276 540.6875,276 Q541.5781,276 542.2031,275.7969 Q542.5625,275.6875 542.9688,275.3281 Q543.2344,275.125 543.375,275.0625 Q543.5156,275 543.6875,275 Q544.0156,275 544.25,275.2656 Q544.5,275.5156 544.5,275.875 Q544.5,276.2188 544.1563,276.625 Q543.6563,277.2188 542.8594,277.5469 Q541.8125,278 540.5313,278 Q539.0313,278 537.8281,277.4063 Q536.8594,276.9375 536.1719,275.9219 Q535.5,274.9063 535.5,273.7031 L535.5,272.6094 Q535.5,271.3594 536.0938,270.2656 Q536.7031,269.1719 537.75,268.5938 Q538.8125,268 540,268 Q540.7188,268 541.3438,268.25 Q541.9688,268.5 542.5,269 Z " fill="#000000"/><text fill="#000000" font-family="sans-serif" font-size="12" lengthAdjust="spacing" textLength="73" x="554.5" y="277.4102">ClientMapper</text><line style="stroke:#A80036;stroke-width:1.5;" x1="526.5" x2="629.5" y1="288.5" y2="288.5"/><line style="stroke:#A80036;stroke-width:1.5;" x1="526.5" x2="629.5" y1="296.5" y2="296.5"/><text fill="#000000" font-family="sans-serif" font-size="11" lengthAdjust="spacing" textLength="47" x="531.5" y="311.9189">+toDto(cl)</text><!--MD5=[0c21d7a5a5555e4278001068caacbd33]
class TTS--><rect codeLine="32" fill="#FEFECE" filter="url(#f18j9vq9pca6rl)" height="61.8359" id="TTS" style="stroke:#A80036;stroke-width:1.5;" width="111" x="522.5" y="353.5"/><ellipse cx="537.5" cy="369.5" fill="#ADD1B2" rx="11" ry="11" style="stroke:#A80036;stroke-width:1.0;"/><path d="M539.5,366 Q539.7031,365.5 539.9375,365.25 Q540.1719,365 540.4375,365 Q540.9063,365 541.2031,365.2813 Q541.5,365.5625 541.5,366.2188 L541.5,367.7813 Q541.5,368.4375 541.2188,368.7188 Q540.9375,369 540.5,369 Q540.1094,369 539.8594,368.8281 Q539.6094,368.6563 539.5,368.2031 Q539.4531,367.8906 539.2813,367.7188 Q538.9688,367.3906 538.4063,367.2031 Q537.8438,367 537.2813,367 Q536.5781,367 535.9844,367.2813 Q535.4063,367.5625 534.9531,368.1875 Q534.5,368.8125 534.5,369.6719 L534.5,370.5938 Q534.5,371.625 535.3438,372.3125 Q536.1875,373 537.6875,373 Q538.5781,373 539.2031,372.7969 Q539.5625,372.6875 539.9688,372.3281 Q540.2344,372.125 540.375,372.0625 Q540.5156,372 540.6875,372 Q541.0156,372 541.25,372.2656 Q541.5,372.5156 541.5,372.875 Q541.5,373.2188 541.1563,373.625 Q540.6563,374.2188 539.8594,374.5469 Q538.8125,375 537.5313,375 Q536.0313,375 534.8281,374.4063 Q533.8594,373.9375 533.1719,372.9219 Q532.5,371.9063 532.5,370.7031 L532.5,369.6094 Q532.5,368.3594 533.0938,367.2656 Q533.7031,366.1719 534.75,365.5938 Q535.8125,365 537,365 Q537.7188,365 538.3438,365.25 Q538.9688,365.5 539.5,366 Z " fill="#000000"/><text fill="#000000" font-family="sans-serif" font-size="12" lengthAdjust="spacing" textLength="79" x="551.5" y="374.4102">TestTypeStore</text><line style="stroke:#A80036;stroke-width:1.5;" x1="523.5" x2="632.5" y1="385.5" y2="385.5"/><line style="stroke:#A80036;stroke-width:1.5;" x1="523.5" x2="632.5" y1="393.5" y2="393.5"/><text fill="#000000" font-family="sans-serif" font-size="11" lengthAdjust="spacing" textLength="86" x="528.5" y="408.9189">+getAllTestType()</text><!--MD5=[827c14b304fb6bf676224a1fb38ec02f]
class TTM--><rect codeLine="36" fill="#FEFECE" filter="url(#f18j9vq9pca6rl)" height="61.8359" id="TTM" style="stroke:#A80036;stroke-width:1.5;" width="123" x="516.5" y="450.5"/><ellipse cx="531.5" cy="466.5" fill="#ADD1B2" rx="11" ry="11" style="stroke:#A80036;stroke-width:1.0;"/><path d="M533.5,463 Q533.7031,462.5 533.9375,462.25 Q534.1719,462 534.4375,462 Q534.9063,462 535.2031,462.2813 Q535.5,462.5625 535.5,463.2188 L535.5,464.7813 Q535.5,465.4375 535.2188,465.7188 Q534.9375,466 534.5,466 Q534.1094,466 533.8594,465.8281 Q533.6094,465.6563 533.5,465.2031 Q533.4531,464.8906 533.2813,464.7188 Q532.9688,464.3906 532.4063,464.2031 Q531.8438,464 531.2813,464 Q530.5781,464 529.9844,464.2813 Q529.4063,464.5625 528.9531,465.1875 Q528.5,465.8125 528.5,466.6719 L528.5,467.5938 Q528.5,468.625 529.3438,469.3125 Q530.1875,470 531.6875,470 Q532.5781,470 533.2031,469.7969 Q533.5625,469.6875 533.9688,469.3281 Q534.2344,469.125 534.375,469.0625 Q534.5156,469 534.6875,469 Q535.0156,469 535.25,469.2656 Q535.5,469.5156 535.5,469.875 Q535.5,470.2188 535.1563,470.625 Q534.6563,471.2188 533.8594,471.5469 Q532.8125,472 531.5313,472 Q530.0313,472 528.8281,471.4063 Q527.8594,470.9375 527.1719,469.9219 Q526.5,468.9063 526.5,467.7031 L526.5,466.6094 Q526.5,465.3594 527.0938,464.2656 Q527.7031,463.1719 528.75,462.5938 Q529.8125,462 531,462 Q531.7188,462 532.3438,462.25 Q532.9688,462.5 533.5,463 Z " fill="#000000"/><text fill="#000000" font-family="sans-serif" font-size="12" lengthAdjust="spacing" textLength="91" x="545.5" y="471.4102">TestTypeMapper</text><line style="stroke:#A80036;stroke-width:1.5;" x1="517.5" x2="638.5" y1="482.5" y2="482.5"/><line style="stroke:#A80036;stroke-width:1.5;" x1="517.5" x2="638.5" y1="490.5" y2="490.5"/><text fill="#000000" font-family="sans-serif" font-size="11" lengthAdjust="spacing" textLength="97" x="522.5" y="505.9189">+toDto(listTestType)</text><!--MD5=[7372bbf51d55cfb0901280a97d9d0909]
class PS--><rect codeLine="40" fill="#FEFECE" filter="url(#f18j9vq9pca6rl)" height="61.8359" id="PS" style="stroke:#A80036;stroke-width:1.5;" width="224" x="466" y="547.5"/><ellipse cx="526.75" cy="563.5" fill="#ADD1B2" rx="11" ry="11" style="stroke:#A80036;stroke-width:1.0;"/><path d="M528.75,560 Q528.9531,559.5 529.1875,559.25 Q529.4219,559 529.6875,559 Q530.1563,559 530.4531,559.2813 Q530.75,559.5625 530.75,560.2188 L530.75,561.7813 Q530.75,562.4375 530.4688,562.7188 Q530.1875,563 529.75,563 Q529.3594,563 529.1094,562.8281 Q528.8594,562.6563 528.75,562.2031 Q528.7031,561.8906 528.5313,561.7188 Q528.2188,561.3906 527.6563,561.2031 Q527.0938,561 526.5313,561 Q525.8281,561 525.2344,561.2813 Q524.6563,561.5625 524.2031,562.1875 Q523.75,562.8125 523.75,563.6719 L523.75,564.5938 Q523.75,565.625 524.5938,566.3125 Q525.4375,567 526.9375,567 Q527.8281,567 528.4531,566.7969 Q528.8125,566.6875 529.2188,566.3281 Q529.4844,566.125 529.625,566.0625 Q529.7656,566 529.9375,566 Q530.2656,566 530.5,566.2656 Q530.75,566.5156 530.75,566.875 Q530.75,567.2188 530.4063,567.625 Q529.9063,568.2188 529.1094,568.5469 Q528.0625,569 526.7813,569 Q525.2813,569 524.0781,568.4063 Q523.1094,567.9375 522.4219,566.9219 Q521.75,565.9063 521.75,564.7031 L521.75,563.6094 Q521.75,562.3594 522.3438,561.2656 Q522.9531,560.1719 524,559.5938 Q525.0625,559 526.25,559 Q526.9688,559 527.5938,559.25 Q528.2188,559.5 528.75,560 Z " fill="#000000"/><text fill="#000000" font-family="sans-serif" font-size="12" lengthAdjust="spacing" textLength="94" x="547.25" y="568.4102">ParametersStore</text><line style="stroke:#A80036;stroke-width:1.5;" x1="467" x2="689" y1="579.5" y2="579.5"/><line style="stroke:#A80036;stroke-width:1.5;" x1="467" x2="689" y1="587.5" y2="587.5"/><text fill="#000000" font-family="sans-serif" font-size="11" lengthAdjust="spacing" textLength="212" x="472" y="602.9189">+getAllParametersByTestType(testTypeDto)</text><!--MD5=[ce26f7d1346c61756d71df2e3432b601]
class PM--><rect codeLine="44" fill="#FEFECE" filter="url(#f18j9vq9pca6rl)" height="75.6719" id="PM" style="stroke:#A80036;stroke-width:1.5;" width="165" x="495.5" y="644.5"/><ellipse cx="522.65" cy="660.5" fill="#ADD1B2" rx="11" ry="11" style="stroke:#A80036;stroke-width:1.0;"/><path d="M524.65,657 Q524.8531,656.5 525.0875,656.25 Q525.3219,656 525.5875,656 Q526.0563,656 526.3531,656.2813 Q526.65,656.5625 526.65,657.2188 L526.65,658.7813 Q526.65,659.4375 526.3688,659.7188 Q526.0875,660 525.65,660 Q525.2594,660 525.0094,659.8281 Q524.7594,659.6563 524.65,659.2031 Q524.6031,658.8906 524.4313,658.7188 Q524.1188,658.3906 523.5563,658.2031 Q522.9938,658 522.4313,658 Q521.7281,658 521.1344,658.2813 Q520.5563,658.5625 520.1031,659.1875 Q519.65,659.8125 519.65,660.6719 L519.65,661.5938 Q519.65,662.625 520.4938,663.3125 Q521.3375,664 522.8375,664 Q523.7281,664 524.3531,663.7969 Q524.7125,663.6875 525.1188,663.3281 Q525.3844,663.125 525.525,663.0625 Q525.6656,663 525.8375,663 Q526.1656,663 526.4,663.2656 Q526.65,663.5156 526.65,663.875 Q526.65,664.2188 526.3063,664.625 Q525.8063,665.2188 525.0094,665.5469 Q523.9625,666 522.6813,666 Q521.1813,666 519.9781,665.4063 Q519.0094,664.9375 518.3219,663.9219 Q517.65,662.9063 517.65,661.7031 L517.65,660.6094 Q517.65,659.3594 518.2438,658.2656 Q518.8531,657.1719 519.9,656.5938 Q520.9625,656 522.15,656 Q522.8688,656 523.4938,656.25 Q524.1188,656.5 524.65,657 Z " fill="#000000"/><text fill="#000000" font-family="sans-serif" font-size="12" lengthAdjust="spacing" textLength="106" x="539.35" y="665.4102">ParametersMapper</text><line style="stroke:#A80036;stroke-width:1.5;" x1="496.5" x2="659.5" y1="676.5" y2="676.5"/><line style="stroke:#A80036;stroke-width:1.5;" x1="496.5" x2="659.5" y1="684.5" y2="684.5"/><text fill="#000000" font-family="sans-serif" font-size="11" lengthAdjust="spacing" textLength="107" x="501.5" y="699.9189">+toDto(listParameters)</text><text fill="#000000" font-family="sans-serif" font-size="11" lengthAdjust="spacing" textLength="153" x="501.5" y="713.7549">+toModel (list &lt;parametersDto&gt;)</text><!--MD5=[b0a1b9137b50b50b320b426f68562434]
class TS--><rect codeLine="49" fill="#FEFECE" filter="url(#f18j9vq9pca6rl)" height="103.3438" id="TS" style="stroke:#A80036;stroke-width:1.5;" width="145" x="505.5" y="756"/><ellipse cx="547.5" cy="772" fill="#ADD1B2" rx="11" ry="11" style="stroke:#A80036;stroke-width:1.0;"/><path d="M549.5,768.5 Q549.7031,768 549.9375,767.75 Q550.1719,767.5 550.4375,767.5 Q550.9063,767.5 551.2031,767.7813 Q551.5,768.0625 551.5,768.7188 L551.5,770.2813 Q551.5,770.9375 551.2188,771.2188 Q550.9375,771.5 550.5,771.5 Q550.1094,771.5 549.8594,771.3281 Q549.6094,771.1563 549.5,770.7031 Q549.4531,770.3906 549.2813,770.2188 Q548.9688,769.8906 548.4063,769.7031 Q547.8438,769.5 547.2813,769.5 Q546.5781,769.5 545.9844,769.7813 Q545.4063,770.0625 544.9531,770.6875 Q544.5,771.3125 544.5,772.1719 L544.5,773.0938 Q544.5,774.125 545.3438,774.8125 Q546.1875,775.5 547.6875,775.5 Q548.5781,775.5 549.2031,775.2969 Q549.5625,775.1875 549.9688,774.8281 Q550.2344,774.625 550.375,774.5625 Q550.5156,774.5 550.6875,774.5 Q551.0156,774.5 551.25,774.7656 Q551.5,775.0156 551.5,775.375 Q551.5,775.7188 551.1563,776.125 Q550.6563,776.7188 549.8594,777.0469 Q548.8125,777.5 547.5313,777.5 Q546.0313,777.5 544.8281,776.9063 Q543.8594,776.4375 543.1719,775.4219 Q542.5,774.4063 542.5,773.2031 L542.5,772.1094 Q542.5,770.8594 543.0938,769.7656 Q543.7031,768.6719 544.75,768.0938 Q545.8125,767.5 547,767.5 Q547.7188,767.5 548.3438,767.75 Q548.9688,768 549.5,768.5 Z " fill="#000000"/><text fill="#000000" font-family="sans-serif" font-size="12" lengthAdjust="spacing" textLength="53" x="567.5" y="776.9102">TestStore</text><line style="stroke:#A80036;stroke-width:1.5;" x1="506.5" x2="649.5" y1="788" y2="788"/><line style="stroke:#A80036;stroke-width:1.5;" x1="506.5" x2="649.5" y1="796" y2="796"/><text fill="#000000" font-family="sans-serif" font-size="11" lengthAdjust="spacing" textLength="133" x="511.5" y="811.4189">+createTest(tt, parameters)</text><text fill="#000000" font-family="sans-serif" font-size="11" lengthAdjust="spacing" textLength="77" x="511.5" y="825.2549">+saveTest(test)</text><text fill="#000000" font-family="sans-serif" font-size="11" lengthAdjust="spacing" textLength="90" x="511.5" y="839.0908">+validateTest(test)</text><text fill="#000000" font-family="sans-serif" font-size="11" lengthAdjust="spacing" textLength="71" x="511.5" y="852.9268">+addTest(test)</text><!--MD5=[56e4c9075fa7c9f4c09ef0a20c49f72c]
class T--><rect codeLine="56" fill="#FEFECE" filter="url(#f18j9vq9pca6rl)" height="172.5234" id="T" style="stroke:#A80036;stroke-width:1.5;" width="144" x="750" y="721"/><ellipse cx="805.75" cy="737" fill="#ADD1B2" rx="11" ry="11" style="stroke:#A80036;stroke-width:1.0;"/><path d="M807.75,733.5 Q807.9531,733 808.1875,732.75 Q808.4219,732.5 808.6875,732.5 Q809.1563,732.5 809.4531,732.7813 Q809.75,733.0625 809.75,733.7188 L809.75,735.2813 Q809.75,735.9375 809.4688,736.2188 Q809.1875,736.5 808.75,736.5 Q808.3594,736.5 808.1094,736.3281 Q807.8594,736.1563 807.75,735.7031 Q807.7031,735.3906 807.5313,735.2188 Q807.2188,734.8906 806.6563,734.7031 Q806.0938,734.5 805.5313,734.5 Q804.8281,734.5 804.2344,734.7813 Q803.6563,735.0625 803.2031,735.6875 Q802.75,736.3125 802.75,737.1719 L802.75,738.0938 Q802.75,739.125 803.5938,739.8125 Q804.4375,740.5 805.9375,740.5 Q806.8281,740.5 807.4531,740.2969 Q807.8125,740.1875 808.2188,739.8281 Q808.4844,739.625 808.625,739.5625 Q808.7656,739.5 808.9375,739.5 Q809.2656,739.5 809.5,739.7656 Q809.75,740.0156 809.75,740.375 Q809.75,740.7188 809.4063,741.125 Q808.9063,741.7188 808.1094,742.0469 Q807.0625,742.5 805.7813,742.5 Q804.2813,742.5 803.0781,741.9063 Q802.1094,741.4375 801.4219,740.4219 Q800.75,739.4063 800.75,738.2031 L800.75,737.1094 Q800.75,735.8594 801.3438,734.7656 Q801.9531,733.6719 803,733.0938 Q804.0625,732.5 805.25,732.5 Q805.9688,732.5 806.5938,732.75 Q807.2188,733 807.75,733.5 Z " fill="#000000"/><text fill="#000000" font-family="sans-serif" font-size="12" lengthAdjust="spacing" textLength="24" x="826.25" y="741.9102">Test</text><line style="stroke:#A80036;stroke-width:1.5;" x1="751" x2="893" y1="753" y2="753"/><text fill="#000000" font-family="sans-serif" font-size="11" lengthAdjust="spacing" textLength="57" x="756" y="768.4189">-description</text><text fill="#000000" font-family="sans-serif" font-size="11" lengthAdjust="spacing" textLength="28" x="756" y="782.2549">-code</text><text fill="#000000" font-family="sans-serif" font-size="11" lengthAdjust="spacing" textLength="47" x="756" y="796.0908">-nhsCode</text><text fill="#000000" font-family="sans-serif" font-size="11" lengthAdjust="spacing" textLength="79" x="756" y="809.9268">-collectDateTime</text><text fill="#000000" font-family="sans-serif" font-size="11" lengthAdjust="spacing" textLength="132" x="756" y="823.7627">-chemicalAnalysisDateTime</text><text fill="#000000" font-family="sans-serif" font-size="11" lengthAdjust="spacing" textLength="94" x="756" y="837.5986">-diagnosisDateTime</text><text fill="#000000" font-family="sans-serif" font-size="11" lengthAdjust="spacing" textLength="93" x="756" y="851.4346">-validationDateTime</text><line style="stroke:#A80036;stroke-width:1.5;" x1="751" x2="893" y1="857.8516" y2="857.8516"/><text fill="#000000" font-family="sans-serif" font-size="11" lengthAdjust="spacing" textLength="102" x="756" y="873.2705">+Test(tt, parameters)</text><text fill="#000000" font-family="sans-serif" font-size="11" lengthAdjust="spacing" textLength="82" x="756" y="887.1064">+generateCode()</text><!--MD5=[dd017b5786dc0eb98822586dade57035]
link RTUI to RTC--><path codeLine="68" d="M122.03,433.5 C138.63,433.5 157.43,433.5 176.33,433.5 " fill="none" id="RTUI-to-RTC" style="stroke:#A80036;stroke-width:1.0;stroke-dasharray:7.0,7.0;"/><polygon fill="#A80036" points="181.66,433.5,172.66,429.5,176.66,433.5,172.66,437.5,181.66,433.5" style="stroke:#A80036;stroke-width:1.0;"/><!--MD5=[73ffdb354b1fe2459a9ac1f820e25281]
link RTC to CS--><path codeLine="69" d="M335.45,374.77 C367.03,332.42 414.14,276.28 466,238.5 C482.06,226.81 501.4,217.2 519.42,209.73 " fill="none" id="RTC-to-CS" style="stroke:#A80036;stroke-width:1.0;stroke-dasharray:7.0,7.0;"/><polygon fill="#A80036" points="524.46,207.69,514.616,207.3813,519.8295,209.5765,517.6344,214.79,524.46,207.69" style="stroke:#A80036;stroke-width:1.0;"/><!--MD5=[b1f25aab2c8cf6c0c810a50e101e7b90]
link RTC to CM--><path codeLine="70" d="M392.99,374.84 C416.62,361.39 441.98,347.53 466,335.5 C483.42,326.78 502.79,318.07 520.41,310.52 " fill="none" id="RTC-to-CM" style="stroke:#A80036;stroke-width:1.0;stroke-dasharray:7.0,7.0;"/><polygon fill="#A80036" points="525.33,308.42,515.4824,308.2628,520.7291,310.3775,518.6144,315.6242,525.33,308.42" style="stroke:#A80036;stroke-width:1.0;"/><!--MD5=[92569abc02196c21c46e6d49c0fdf73f]
link RTC to C--><path codeLine="71" d="M319.93,374.78 C348.61,312 400.32,211.99 466,141.5 C479.5,127.01 496.24,113.78 512.59,102.56 " fill="none" id="RTC-to-C" style="stroke:#A80036;stroke-width:1.0;stroke-dasharray:7.0,7.0;"/><polygon fill="#A80036" points="516.74,99.75,507.0435,101.4756,512.5974,102.5498,511.5232,108.1037,516.74,99.75" style="stroke:#A80036;stroke-width:1.0;"/><!--MD5=[b3a4147220c3f63b352828c1b1ed0293]
link RTC to TTS--><path codeLine="72" d="M406.05,414.2 C443.94,407.62 484.86,400.51 517.16,394.9 " fill="none" id="RTC-to-TTS" style="stroke:#A80036;stroke-width:1.0;stroke-dasharray:7.0,7.0;"/><polygon fill="#A80036" points="522.27,394.01,512.7177,391.6112,517.3439,394.8667,514.0885,399.4929,522.27,394.01" style="stroke:#A80036;stroke-width:1.0;"/><!--MD5=[4d8b153a7b605fd6ac41ea413c086e67]
link RTC to TTM--><path codeLine="73" d="M406.05,452.4 C441.75,458.48 480.13,465.01 511.46,470.34 " fill="none" id="RTC-to-TTM" style="stroke:#A80036;stroke-width:1.0;stroke-dasharray:7.0,7.0;"/><polygon fill="#A80036" points="516.43,471.19,508.2331,465.7301,511.5015,470.3472,506.8845,473.6157,516.43,471.19" style="stroke:#A80036;stroke-width:1.0;"/><!--MD5=[fe07df3723ce1e7554b8338206e6a440]
link RTC to PS--><path codeLine="74" d="M395.86,492.23 C418.71,504.94 443.01,518 466,529.5 C476.63,534.82 487.97,540.17 499.19,545.29 " fill="none" id="RTC-to-PS" style="stroke:#A80036;stroke-width:1.0;stroke-dasharray:7.0,7.0;"/><polygon fill="#A80036" points="503.99,547.46,497.4519,540.0943,499.4382,545.391,494.1415,547.3772,503.99,547.46" style="stroke:#A80036;stroke-width:1.0;"/><!--MD5=[53ad67196b9718d138e4f8e9634b55e0]
link RTC to PM--><path codeLine="75" d="M337.25,492.03 C369.2,533.34 416,587.97 466,626.5 C473.79,632.5 482.32,638.14 491.08,643.35 " fill="none" id="RTC-to-PM" style="stroke:#A80036;stroke-width:1.0;stroke-dasharray:7.0,7.0;"/><polygon fill="#A80036" points="495.4,645.88,489.6382,637.8924,491.0801,643.3624,485.6101,644.8043,495.4,645.88" style="stroke:#A80036;stroke-width:1.0;"/><!--MD5=[8fb19c63ab7f2a290721248e38e8af22]
link RTC to TS--><path codeLine="76" d="M317.61,492.2 C345.08,557.82 396.52,664.44 466,737.5 C476.3,748.33 488.6,758.2 501.21,766.9 " fill="none" id="RTC-to-TS" style="stroke:#A80036;stroke-width:1.0;stroke-dasharray:7.0,7.0;"/><polygon fill="#A80036" points="505.5,769.81,500.2832,761.4563,501.3574,767.0102,495.8035,768.0844,505.5,769.81" style="stroke:#A80036;stroke-width:1.0;"/><!--MD5=[0b037e5f89e300193b3080f69ffc7684]
link TS to T--><path codeLine="77" d="M650.63,807.5 C680.27,807.5 714.69,807.5 744.8,807.5 " fill="none" id="TS-to-T" style="stroke:#A80036;stroke-width:1.0;stroke-dasharray:7.0,7.0;"/><polygon fill="#A80036" points="749.98,807.5,740.98,803.5,744.98,807.5,740.98,811.5,749.98,807.5" style="stroke:#A80036;stroke-width:1.0;"/><!--MD5=[95fca57138d82aef8739f69f79265d3d]
@startuml
'https://plantuml.com/class-diagram

skinparam classAttributeIconSize 0
left to right direction

class "RegisterTestUI" as RTUI

class "RegisterTestController" as RTC {
+getClient(citizenID)
+getAllTestType()
+getAllParametersByTestType(testTypeDto)
+createTest(list <parametersDto>)
+saveTest(test)
}

class "Company" as C {
-designation
+getClientStore()
+getTestTypeStore()
+getParametersStore()
+getTestStore()
}

class "ClientStore" as CS {
+getClient(citizenID)
}

class "ClientMapper" as CM {
+toDto(cl)
}

class "TestTypeStore" as TTS {
+getAllTestType()
}

class "TestTypeMapper" as TTM {
+toDto(listTestType)
}

class "ParametersStore" as PS {
+getAllParametersByTestType(testTypeDto)
}

class "ParametersMapper" as PM {
+toDto(listParameters)
+toModel (list <parametersDto>)
}

class "TestStore" as TS {
+createTest(tt, parameters)
+saveTest(test)
+validateTest(test)
+addTest(test)
}

class "Test" as T {
-description
-code
-nhsCode
-collectDateTime
-chemicalAnalysisDateTime
-diagnosisDateTime
-validationDateTime
+Test(tt, parameters)
+generateCode()
}

RTUI ..> RTC
RTC ..> CS
RTC ..> CM
RTC ..> C
RTC ..> TTS
RTC ..> TTM
RTC ..> PS
RTC ..> PM
RTC ..> TS
TS ..> T


@enduml

@startuml

skinparam classAttributeIconSize 0
left to right direction

class "RegisterTestUI" as RTUI

class "RegisterTestController" as RTC {
+getClient(citizenID)
+getAllTestType()
+getAllParametersByTestType(testTypeDto)
+createTest(list <parametersDto>)
+saveTest(test)
}

class "Company" as C {
-designation
+getClientStore()
+getTestTypeStore()
+getParametersStore()
+getTestStore()
}

class "ClientStore" as CS {
+getClient(citizenID)
}

class "ClientMapper" as CM {
+toDto(cl)
}

class "TestTypeStore" as TTS {
+getAllTestType()
}

class "TestTypeMapper" as TTM {
+toDto(listTestType)
}

class "ParametersStore" as PS {
+getAllParametersByTestType(testTypeDto)
}

class "ParametersMapper" as PM {
+toDto(listParameters)
+toModel (list <parametersDto>)
}

class "TestStore" as TS {
+createTest(tt, parameters)
+saveTest(test)
+validateTest(test)
+addTest(test)
}

class "Test" as T {
-description
-code
-nhsCode
-collectDateTime
-chemicalAnalysisDateTime
-diagnosisDateTime
-validationDateTime
+Test(tt, parameters)
+generateCode()
}

RTUI ..> RTC
RTC ..> CS
RTC ..> CM
RTC ..> C
RTC ..> TTS
RTC ..> TTM
RTC ..> PS
RTC ..> PM
RTC ..> TS
TS ..> T


@enduml

PlantUML version 1.2021.4(Sun Apr 04 09:49:39 BST 2021)
(GPL source distribution)
Java Runtime: OpenJDK Runtime Environment
JVM: OpenJDK 64-Bit Server VM
Default Encoding: Cp1252
Language: pt
Country: PT
--></g></svg>