<?xml version="1.0" encoding="UTF-8" standalone="no"?><svg xmlns="http://www.w3.org/2000/svg" xmlns:xlink="http://www.w3.org/1999/xlink" contentScriptType="application/ecmascript" contentStyleType="text/css" height="907px" preserveAspectRatio="none" style="width:1035px;height:907px;" version="1.1" viewBox="0 0 1035 907" width="1035px" zoomAndPan="magnify"><defs><filter height="300%" id="f1bl8q3c8pzh45" width="300%" x="-1" y="-1"><feGaussianBlur result="blurOut" stdDeviation="2.0"/><feColorMatrix in="blurOut" result="blurOut2" type="matrix" values="0 0 0 0 0 0 0 0 0 0 0 0 0 0 0 0 0 0 .4 0"/><feOffset dx="4.0" dy="4.0" in="blurOut2" result="blurOut3"/><feBlend in="SourceGraphic" in2="blurOut3" mode="normal"/></filter></defs><g><!--MD5=[43142ed302a6cc9ae965019424b4d408]
class RTUI--><rect codeLine="6" fill="#FEFECE" filter="url(#f1bl8q3c8pzh45)" height="48" id="RTUI" style="stroke:#A80036;stroke-width:1.5;" width="115" x="7" y="409.5"/><ellipse cx="22" cy="425.5" fill="#ADD1B2" rx="11" ry="11" style="stroke:#A80036;stroke-width:1.0;"/><path d="M24,422 Q24.2031,421.5 24.4375,421.25 Q24.6719,421 24.9375,421 Q25.4063,421 25.7031,421.2813 Q26,421.5625 26,422.2188 L26,423.7813 Q26,424.4375 25.7188,424.7188 Q25.4375,425 25,425 Q24.6094,425 24.3594,424.8281 Q24.1094,424.6563 24,424.2031 Q23.9531,423.8906 23.7813,423.7188 Q23.4688,423.3906 22.9063,423.2031 Q22.3438,423 21.7813,423 Q21.0781,423 20.4844,423.2813 Q19.9063,423.5625 19.4531,424.1875 Q19,424.8125 19,425.6719 L19,426.5938 Q19,427.625 19.8438,428.3125 Q20.6875,429 22.1875,429 Q23.0781,429 23.7031,428.7969 Q24.0625,428.6875 24.4688,428.3281 Q24.7344,428.125 24.875,428.0625 Q25.0156,428 25.1875,428 Q25.5156,428 25.75,428.2656 Q26,428.5156 26,428.875 Q26,429.2188 25.6563,429.625 Q25.1563,430.2188 24.3594,430.5469 Q23.3125,431 22.0313,431 Q20.5313,431 19.3281,430.4063 Q18.3594,429.9375 17.6719,428.9219 Q17,427.9063 17,426.7031 L17,425.6094 Q17,424.3594 17.5938,423.2656 Q18.2031,422.1719 19.25,421.5938 Q20.3125,421 21.5,421 Q22.2188,421 22.8438,421.25 Q23.4688,421.5 24,422 Z " fill="#000000"/><text fill="#000000" font-family="sans-serif" font-size="12" lengthAdjust="spacing" textLength="83" x="36" y="430.4102">RegisterTestUI</text><line style="stroke:#A80036;stroke-width:1.5;" x1="8" x2="121" y1="441.5" y2="441.5"/><line style="stroke:#A80036;stroke-width:1.5;" x1="8" x2="121" y1="449.5" y2="449.5"/><!--MD5=[fc745cbb6189e890294da62cd777863a]
class RTC--><rect codeLine="8" fill="#FEFECE" filter="url(#f1bl8q3c8pzh45)" height="117.1797" id="RTC" style="stroke:#A80036;stroke-width:1.5;" width="311" x="182" y="375"/><ellipse cx="270.75" cy="391" fill="#ADD1B2" rx="11" ry="11" style="stroke:#A80036;stroke-width:1.0;"/><path d="M272.75,387.5 Q272.9531,387 273.1875,386.75 Q273.4219,386.5 273.6875,386.5 Q274.1563,386.5 274.4531,386.7813 Q274.75,387.0625 274.75,387.7188 L274.75,389.2813 Q274.75,389.9375 274.4688,390.2188 Q274.1875,390.5 273.75,390.5 Q273.3594,390.5 273.1094,390.3281 Q272.8594,390.1563 272.75,389.7031 Q272.7031,389.3906 272.5313,389.2188 Q272.2188,388.8906 271.6563,388.7031 Q271.0938,388.5 270.5313,388.5 Q269.8281,388.5 269.2344,388.7813 Q268.6563,389.0625 268.2031,389.6875 Q267.75,390.3125 267.75,391.1719 L267.75,392.0938 Q267.75,393.125 268.5938,393.8125 Q269.4375,394.5 270.9375,394.5 Q271.8281,394.5 272.4531,394.2969 Q272.8125,394.1875 273.2188,393.8281 Q273.4844,393.625 273.625,393.5625 Q273.7656,393.5 273.9375,393.5 Q274.2656,393.5 274.5,393.7656 Q274.75,394.0156 274.75,394.375 Q274.75,394.7188 274.4063,395.125 Q273.9063,395.7188 273.1094,396.0469 Q272.0625,396.5 270.7813,396.5 Q269.2813,396.5 268.0781,395.9063 Q267.1094,395.4375 266.4219,394.4219 Q265.75,393.4063 265.75,392.2031 L265.75,391.1094 Q265.75,389.8594 266.3438,388.7656 Q266.9531,387.6719 268,387.0938 Q269.0625,386.5 270.25,386.5 Q270.9688,386.5 271.5938,386.75 Q272.2188,387 272.75,387.5 Z " fill="#000000"/><text fill="#000000" font-family="sans-serif" font-size="12" lengthAdjust="spacing" textLength="125" x="291.25" y="395.9102">RegisterTestController</text><line style="stroke:#A80036;stroke-width:1.5;" x1="183" x2="492" y1="407" y2="407"/><line style="stroke:#A80036;stroke-width:1.5;" x1="183" x2="492" y1="415" y2="415"/><text fill="#000000" font-family="sans-serif" font-size="11" lengthAdjust="spacing" textLength="70" x="188" y="430.4189">+getClient(TIN)</text><text fill="#000000" font-family="sans-serif" font-size="11" lengthAdjust="spacing" textLength="86" x="188" y="444.2549">+getAllTestType()</text><text fill="#000000" font-family="sans-serif" font-size="11" lengthAdjust="spacing" textLength="212" x="188" y="458.0908">+getAllParametersByTestType(testTypeDto)</text><text fill="#000000" font-family="sans-serif" font-size="11" lengthAdjust="spacing" textLength="299" x="188" y="471.9268">+createTest(list &lt;parametersDto&gt;, testTypeDto, TIN, nhsCode)</text><text fill="#000000" font-family="sans-serif" font-size="11" lengthAdjust="spacing" textLength="77" x="188" y="485.7627">+saveTest(test)</text><!--MD5=[378b18254a1b2429f435e93f5e5cc50c]
class C--><rect codeLine="16" fill="#FEFECE" filter="url(#f1bl8q3c8pzh45)" height="117.1797" id="C" style="stroke:#A80036;stroke-width:1.5;" width="122" x="604" y="7"/><ellipse cx="635.65" cy="23" fill="#ADD1B2" rx="11" ry="11" style="stroke:#A80036;stroke-width:1.0;"/><path d="M637.65,19.5 Q637.8531,19 638.0875,18.75 Q638.3219,18.5 638.5875,18.5 Q639.0563,18.5 639.3531,18.7813 Q639.65,19.0625 639.65,19.7188 L639.65,21.2813 Q639.65,21.9375 639.3688,22.2188 Q639.0875,22.5 638.65,22.5 Q638.2594,22.5 638.0094,22.3281 Q637.7594,22.1563 637.65,21.7031 Q637.6031,21.3906 637.4313,21.2188 Q637.1188,20.8906 636.5563,20.7031 Q635.9938,20.5 635.4313,20.5 Q634.7281,20.5 634.1344,20.7813 Q633.5563,21.0625 633.1031,21.6875 Q632.65,22.3125 632.65,23.1719 L632.65,24.0938 Q632.65,25.125 633.4938,25.8125 Q634.3375,26.5 635.8375,26.5 Q636.7281,26.5 637.3531,26.2969 Q637.7125,26.1875 638.1188,25.8281 Q638.3844,25.625 638.525,25.5625 Q638.6656,25.5 638.8375,25.5 Q639.1656,25.5 639.4,25.7656 Q639.65,26.0156 639.65,26.375 Q639.65,26.7188 639.3063,27.125 Q638.8063,27.7188 638.0094,28.0469 Q636.9625,28.5 635.6813,28.5 Q634.1813,28.5 632.9781,27.9063 Q632.0094,27.4375 631.3219,26.4219 Q630.65,25.4063 630.65,24.2031 L630.65,23.1094 Q630.65,21.8594 631.2438,20.7656 Q631.8531,19.6719 632.9,19.0938 Q633.9625,18.5 635.15,18.5 Q635.8688,18.5 636.4938,18.75 Q637.1188,19 637.65,19.5 Z " fill="#000000"/><text fill="#000000" font-family="sans-serif" font-size="12" lengthAdjust="spacing" textLength="53" x="653.35" y="27.9102">Company</text><line style="stroke:#A80036;stroke-width:1.5;" x1="605" x2="725" y1="39" y2="39"/><text fill="#000000" font-family="sans-serif" font-size="11" lengthAdjust="spacing" textLength="59" x="610" y="54.4189">-designation</text><line style="stroke:#A80036;stroke-width:1.5;" x1="605" x2="725" y1="60.8359" y2="60.8359"/><text fill="#000000" font-family="sans-serif" font-size="11" lengthAdjust="spacing" textLength="81" x="610" y="76.2549">+getClientStore()</text><text fill="#000000" font-family="sans-serif" font-size="11" lengthAdjust="spacing" textLength="100" x="610" y="90.0908">+getTestTypeStore()</text><text fill="#000000" font-family="sans-serif" font-size="11" lengthAdjust="spacing" textLength="110" x="610" y="103.9268">+getParametersStore()</text><text fill="#000000" font-family="sans-serif" font-size="11" lengthAdjust="spacing" textLength="76" x="610" y="117.7627">+getTestStore()</text><!--MD5=[d68c9369472fd2c8081ca2424f4233ba]
class CS--><rect codeLine="24" fill="#FEFECE" filter="url(#f1bl8q3c8pzh45)" height="61.8359" id="CS" style="stroke:#A80036;stroke-width:1.5;" width="93" x="618.5" y="159.5"/><ellipse cx="633.5" cy="175.5" fill="#ADD1B2" rx="11" ry="11" style="stroke:#A80036;stroke-width:1.0;"/><path d="M635.5,172 Q635.7031,171.5 635.9375,171.25 Q636.1719,171 636.4375,171 Q636.9063,171 637.2031,171.2813 Q637.5,171.5625 637.5,172.2188 L637.5,173.7813 Q637.5,174.4375 637.2188,174.7188 Q636.9375,175 636.5,175 Q636.1094,175 635.8594,174.8281 Q635.6094,174.6563 635.5,174.2031 Q635.4531,173.8906 635.2813,173.7188 Q634.9688,173.3906 634.4063,173.2031 Q633.8438,173 633.2813,173 Q632.5781,173 631.9844,173.2813 Q631.4063,173.5625 630.9531,174.1875 Q630.5,174.8125 630.5,175.6719 L630.5,176.5938 Q630.5,177.625 631.3438,178.3125 Q632.1875,179 633.6875,179 Q634.5781,179 635.2031,178.7969 Q635.5625,178.6875 635.9688,178.3281 Q636.2344,178.125 636.375,178.0625 Q636.5156,178 636.6875,178 Q637.0156,178 637.25,178.2656 Q637.5,178.5156 637.5,178.875 Q637.5,179.2188 637.1563,179.625 Q636.6563,180.2188 635.8594,180.5469 Q634.8125,181 633.5313,181 Q632.0313,181 630.8281,180.4063 Q629.8594,179.9375 629.1719,178.9219 Q628.5,177.9063 628.5,176.7031 L628.5,175.6094 Q628.5,174.3594 629.0938,173.2656 Q629.7031,172.1719 630.75,171.5938 Q631.8125,171 633,171 Q633.7188,171 634.3438,171.25 Q634.9688,171.5 635.5,172 Z " fill="#000000"/><text fill="#000000" font-family="sans-serif" font-size="12" lengthAdjust="spacing" textLength="61" x="647.5" y="180.4102">ClientStore</text><line style="stroke:#A80036;stroke-width:1.5;" x1="619.5" x2="710.5" y1="191.5" y2="191.5"/><line style="stroke:#A80036;stroke-width:1.5;" x1="619.5" x2="710.5" y1="199.5" y2="199.5"/><text fill="#000000" font-family="sans-serif" font-size="11" lengthAdjust="spacing" textLength="70" x="624.5" y="214.9189">+getClient(TIN)</text><!--MD5=[922d291f43d024f1166d0eae9b0ee0bb]
class CM--><rect codeLine="28" fill="#FEFECE" filter="url(#f1bl8q3c8pzh45)" height="61.8359" id="CM" style="stroke:#A80036;stroke-width:1.5;" width="105" x="612.5" y="256.5"/><ellipse cx="627.5" cy="272.5" fill="#ADD1B2" rx="11" ry="11" style="stroke:#A80036;stroke-width:1.0;"/><path d="M629.5,269 Q629.7031,268.5 629.9375,268.25 Q630.1719,268 630.4375,268 Q630.9063,268 631.2031,268.2813 Q631.5,268.5625 631.5,269.2188 L631.5,270.7813 Q631.5,271.4375 631.2188,271.7188 Q630.9375,272 630.5,272 Q630.1094,272 629.8594,271.8281 Q629.6094,271.6563 629.5,271.2031 Q629.4531,270.8906 629.2813,270.7188 Q628.9688,270.3906 628.4063,270.2031 Q627.8438,270 627.2813,270 Q626.5781,270 625.9844,270.2813 Q625.4063,270.5625 624.9531,271.1875 Q624.5,271.8125 624.5,272.6719 L624.5,273.5938 Q624.5,274.625 625.3438,275.3125 Q626.1875,276 627.6875,276 Q628.5781,276 629.2031,275.7969 Q629.5625,275.6875 629.9688,275.3281 Q630.2344,275.125 630.375,275.0625 Q630.5156,275 630.6875,275 Q631.0156,275 631.25,275.2656 Q631.5,275.5156 631.5,275.875 Q631.5,276.2188 631.1563,276.625 Q630.6563,277.2188 629.8594,277.5469 Q628.8125,278 627.5313,278 Q626.0313,278 624.8281,277.4063 Q623.8594,276.9375 623.1719,275.9219 Q622.5,274.9063 622.5,273.7031 L622.5,272.6094 Q622.5,271.3594 623.0938,270.2656 Q623.7031,269.1719 624.75,268.5938 Q625.8125,268 627,268 Q627.7188,268 628.3438,268.25 Q628.9688,268.5 629.5,269 Z " fill="#000000"/><text fill="#000000" font-family="sans-serif" font-size="12" lengthAdjust="spacing" textLength="73" x="641.5" y="277.4102">ClientMapper</text><line style="stroke:#A80036;stroke-width:1.5;" x1="613.5" x2="716.5" y1="288.5" y2="288.5"/><line style="stroke:#A80036;stroke-width:1.5;" x1="613.5" x2="716.5" y1="296.5" y2="296.5"/><text fill="#000000" font-family="sans-serif" font-size="11" lengthAdjust="spacing" textLength="47" x="618.5" y="311.9189">+toDto(cl)</text><!--MD5=[0c21d7a5a5555e4278001068caacbd33]
class TTS--><rect codeLine="32" fill="#FEFECE" filter="url(#f1bl8q3c8pzh45)" height="61.8359" id="TTS" style="stroke:#A80036;stroke-width:1.5;" width="111" x="609.5" y="353.5"/><ellipse cx="624.5" cy="369.5" fill="#ADD1B2" rx="11" ry="11" style="stroke:#A80036;stroke-width:1.0;"/><path d="M626.5,366 Q626.7031,365.5 626.9375,365.25 Q627.1719,365 627.4375,365 Q627.9063,365 628.2031,365.2813 Q628.5,365.5625 628.5,366.2188 L628.5,367.7813 Q628.5,368.4375 628.2188,368.7188 Q627.9375,369 627.5,369 Q627.1094,369 626.8594,368.8281 Q626.6094,368.6563 626.5,368.2031 Q626.4531,367.8906 626.2813,367.7188 Q625.9688,367.3906 625.4063,367.2031 Q624.8438,367 624.2813,367 Q623.5781,367 622.9844,367.2813 Q622.4063,367.5625 621.9531,368.1875 Q621.5,368.8125 621.5,369.6719 L621.5,370.5938 Q621.5,371.625 622.3438,372.3125 Q623.1875,373 624.6875,373 Q625.5781,373 626.2031,372.7969 Q626.5625,372.6875 626.9688,372.3281 Q627.2344,372.125 627.375,372.0625 Q627.5156,372 627.6875,372 Q628.0156,372 628.25,372.2656 Q628.5,372.5156 628.5,372.875 Q628.5,373.2188 628.1563,373.625 Q627.6563,374.2188 626.8594,374.5469 Q625.8125,375 624.5313,375 Q623.0313,375 621.8281,374.4063 Q620.8594,373.9375 620.1719,372.9219 Q619.5,371.9063 619.5,370.7031 L619.5,369.6094 Q619.5,368.3594 620.0938,367.2656 Q620.7031,366.1719 621.75,365.5938 Q622.8125,365 624,365 Q624.7188,365 625.3438,365.25 Q625.9688,365.5 626.5,366 Z " fill="#000000"/><text fill="#000000" font-family="sans-serif" font-size="12" lengthAdjust="spacing" textLength="79" x="638.5" y="374.4102">TestTypeStore</text><line style="stroke:#A80036;stroke-width:1.5;" x1="610.5" x2="719.5" y1="385.5" y2="385.5"/><line style="stroke:#A80036;stroke-width:1.5;" x1="610.5" x2="719.5" y1="393.5" y2="393.5"/><text fill="#000000" font-family="sans-serif" font-size="11" lengthAdjust="spacing" textLength="86" x="615.5" y="408.9189">+getAllTestType()</text><!--MD5=[827c14b304fb6bf676224a1fb38ec02f]
class TTM--><rect codeLine="36" fill="#FEFECE" filter="url(#f1bl8q3c8pzh45)" height="61.8359" id="TTM" style="stroke:#A80036;stroke-width:1.5;" width="123" x="603.5" y="450.5"/><ellipse cx="618.5" cy="466.5" fill="#ADD1B2" rx="11" ry="11" style="stroke:#A80036;stroke-width:1.0;"/><path d="M620.5,463 Q620.7031,462.5 620.9375,462.25 Q621.1719,462 621.4375,462 Q621.9063,462 622.2031,462.2813 Q622.5,462.5625 622.5,463.2188 L622.5,464.7813 Q622.5,465.4375 622.2188,465.7188 Q621.9375,466 621.5,466 Q621.1094,466 620.8594,465.8281 Q620.6094,465.6563 620.5,465.2031 Q620.4531,464.8906 620.2813,464.7188 Q619.9688,464.3906 619.4063,464.2031 Q618.8438,464 618.2813,464 Q617.5781,464 616.9844,464.2813 Q616.4063,464.5625 615.9531,465.1875 Q615.5,465.8125 615.5,466.6719 L615.5,467.5938 Q615.5,468.625 616.3438,469.3125 Q617.1875,470 618.6875,470 Q619.5781,470 620.2031,469.7969 Q620.5625,469.6875 620.9688,469.3281 Q621.2344,469.125 621.375,469.0625 Q621.5156,469 621.6875,469 Q622.0156,469 622.25,469.2656 Q622.5,469.5156 622.5,469.875 Q622.5,470.2188 622.1563,470.625 Q621.6563,471.2188 620.8594,471.5469 Q619.8125,472 618.5313,472 Q617.0313,472 615.8281,471.4063 Q614.8594,470.9375 614.1719,469.9219 Q613.5,468.9063 613.5,467.7031 L613.5,466.6094 Q613.5,465.3594 614.0938,464.2656 Q614.7031,463.1719 615.75,462.5938 Q616.8125,462 618,462 Q618.7188,462 619.3438,462.25 Q619.9688,462.5 620.5,463 Z " fill="#000000"/><text fill="#000000" font-family="sans-serif" font-size="12" lengthAdjust="spacing" textLength="91" x="632.5" y="471.4102">TestTypeMapper</text><line style="stroke:#A80036;stroke-width:1.5;" x1="604.5" x2="725.5" y1="482.5" y2="482.5"/><line style="stroke:#A80036;stroke-width:1.5;" x1="604.5" x2="725.5" y1="490.5" y2="490.5"/><text fill="#000000" font-family="sans-serif" font-size="11" lengthAdjust="spacing" textLength="97" x="609.5" y="505.9189">+toDto(listTestType)</text><!--MD5=[7372bbf51d55cfb0901280a97d9d0909]
class PS--><rect codeLine="40" fill="#FEFECE" filter="url(#f1bl8q3c8pzh45)" height="61.8359" id="PS" style="stroke:#A80036;stroke-width:1.5;" width="224" x="553" y="547.5"/><ellipse cx="613.75" cy="563.5" fill="#ADD1B2" rx="11" ry="11" style="stroke:#A80036;stroke-width:1.0;"/><path d="M615.75,560 Q615.9531,559.5 616.1875,559.25 Q616.4219,559 616.6875,559 Q617.1563,559 617.4531,559.2813 Q617.75,559.5625 617.75,560.2188 L617.75,561.7813 Q617.75,562.4375 617.4688,562.7188 Q617.1875,563 616.75,563 Q616.3594,563 616.1094,562.8281 Q615.8594,562.6563 615.75,562.2031 Q615.7031,561.8906 615.5313,561.7188 Q615.2188,561.3906 614.6563,561.2031 Q614.0938,561 613.5313,561 Q612.8281,561 612.2344,561.2813 Q611.6563,561.5625 611.2031,562.1875 Q610.75,562.8125 610.75,563.6719 L610.75,564.5938 Q610.75,565.625 611.5938,566.3125 Q612.4375,567 613.9375,567 Q614.8281,567 615.4531,566.7969 Q615.8125,566.6875 616.2188,566.3281 Q616.4844,566.125 616.625,566.0625 Q616.7656,566 616.9375,566 Q617.2656,566 617.5,566.2656 Q617.75,566.5156 617.75,566.875 Q617.75,567.2188 617.4063,567.625 Q616.9063,568.2188 616.1094,568.5469 Q615.0625,569 613.7813,569 Q612.2813,569 611.0781,568.4063 Q610.1094,567.9375 609.4219,566.9219 Q608.75,565.9063 608.75,564.7031 L608.75,563.6094 Q608.75,562.3594 609.3438,561.2656 Q609.9531,560.1719 611,559.5938 Q612.0625,559 613.25,559 Q613.9688,559 614.5938,559.25 Q615.2188,559.5 615.75,560 Z " fill="#000000"/><text fill="#000000" font-family="sans-serif" font-size="12" lengthAdjust="spacing" textLength="94" x="634.25" y="568.4102">ParametersStore</text><line style="stroke:#A80036;stroke-width:1.5;" x1="554" x2="776" y1="579.5" y2="579.5"/><line style="stroke:#A80036;stroke-width:1.5;" x1="554" x2="776" y1="587.5" y2="587.5"/><text fill="#000000" font-family="sans-serif" font-size="11" lengthAdjust="spacing" textLength="212" x="559" y="602.9189">+getAllParametersByTestType(testTypeDto)</text><!--MD5=[ce26f7d1346c61756d71df2e3432b601]
class PM--><rect codeLine="44" fill="#FEFECE" filter="url(#f1bl8q3c8pzh45)" height="75.6719" id="PM" style="stroke:#A80036;stroke-width:1.5;" width="165" x="582.5" y="644.5"/><ellipse cx="609.65" cy="660.5" fill="#ADD1B2" rx="11" ry="11" style="stroke:#A80036;stroke-width:1.0;"/><path d="M611.65,657 Q611.8531,656.5 612.0875,656.25 Q612.3219,656 612.5875,656 Q613.0563,656 613.3531,656.2813 Q613.65,656.5625 613.65,657.2188 L613.65,658.7813 Q613.65,659.4375 613.3688,659.7188 Q613.0875,660 612.65,660 Q612.2594,660 612.0094,659.8281 Q611.7594,659.6563 611.65,659.2031 Q611.6031,658.8906 611.4313,658.7188 Q611.1188,658.3906 610.5563,658.2031 Q609.9938,658 609.4313,658 Q608.7281,658 608.1344,658.2813 Q607.5563,658.5625 607.1031,659.1875 Q606.65,659.8125 606.65,660.6719 L606.65,661.5938 Q606.65,662.625 607.4938,663.3125 Q608.3375,664 609.8375,664 Q610.7281,664 611.3531,663.7969 Q611.7125,663.6875 612.1188,663.3281 Q612.3844,663.125 612.525,663.0625 Q612.6656,663 612.8375,663 Q613.1656,663 613.4,663.2656 Q613.65,663.5156 613.65,663.875 Q613.65,664.2188 613.3063,664.625 Q612.8063,665.2188 612.0094,665.5469 Q610.9625,666 609.6813,666 Q608.1813,666 606.9781,665.4063 Q606.0094,664.9375 605.3219,663.9219 Q604.65,662.9063 604.65,661.7031 L604.65,660.6094 Q604.65,659.3594 605.2438,658.2656 Q605.8531,657.1719 606.9,656.5938 Q607.9625,656 609.15,656 Q609.8688,656 610.4938,656.25 Q611.1188,656.5 611.65,657 Z " fill="#000000"/><text fill="#000000" font-family="sans-serif" font-size="12" lengthAdjust="spacing" textLength="106" x="626.35" y="665.4102">ParametersMapper</text><line style="stroke:#A80036;stroke-width:1.5;" x1="583.5" x2="746.5" y1="676.5" y2="676.5"/><line style="stroke:#A80036;stroke-width:1.5;" x1="583.5" x2="746.5" y1="684.5" y2="684.5"/><text fill="#000000" font-family="sans-serif" font-size="11" lengthAdjust="spacing" textLength="107" x="588.5" y="699.9189">+toDto(listParameters)</text><text fill="#000000" font-family="sans-serif" font-size="11" lengthAdjust="spacing" textLength="153" x="588.5" y="713.7549">+toModel (list &lt;parametersDto&gt;)</text><!--MD5=[b0a1b9137b50b50b320b426f68562434]
class TS--><rect codeLine="49" fill="#FEFECE" filter="url(#f1bl8q3c8pzh45)" height="103.3438" id="TS" style="stroke:#A80036;stroke-width:1.5;" width="212" x="559" y="756"/><ellipse cx="634.25" cy="772" fill="#ADD1B2" rx="11" ry="11" style="stroke:#A80036;stroke-width:1.0;"/><path d="M636.25,768.5 Q636.4531,768 636.6875,767.75 Q636.9219,767.5 637.1875,767.5 Q637.6563,767.5 637.9531,767.7813 Q638.25,768.0625 638.25,768.7188 L638.25,770.2813 Q638.25,770.9375 637.9688,771.2188 Q637.6875,771.5 637.25,771.5 Q636.8594,771.5 636.6094,771.3281 Q636.3594,771.1563 636.25,770.7031 Q636.2031,770.3906 636.0313,770.2188 Q635.7188,769.8906 635.1563,769.7031 Q634.5938,769.5 634.0313,769.5 Q633.3281,769.5 632.7344,769.7813 Q632.1563,770.0625 631.7031,770.6875 Q631.25,771.3125 631.25,772.1719 L631.25,773.0938 Q631.25,774.125 632.0938,774.8125 Q632.9375,775.5 634.4375,775.5 Q635.3281,775.5 635.9531,775.2969 Q636.3125,775.1875 636.7188,774.8281 Q636.9844,774.625 637.125,774.5625 Q637.2656,774.5 637.4375,774.5 Q637.7656,774.5 638,774.7656 Q638.25,775.0156 638.25,775.375 Q638.25,775.7188 637.9063,776.125 Q637.4063,776.7188 636.6094,777.0469 Q635.5625,777.5 634.2813,777.5 Q632.7813,777.5 631.5781,776.9063 Q630.6094,776.4375 629.9219,775.4219 Q629.25,774.4063 629.25,773.2031 L629.25,772.1094 Q629.25,770.8594 629.8438,769.7656 Q630.4531,768.6719 631.5,768.0938 Q632.5625,767.5 633.75,767.5 Q634.4688,767.5 635.0938,767.75 Q635.7188,768 636.25,768.5 Z " fill="#000000"/><text fill="#000000" font-family="sans-serif" font-size="12" lengthAdjust="spacing" textLength="53" x="654.75" y="776.9102">TestStore</text><line style="stroke:#A80036;stroke-width:1.5;" x1="560" x2="770" y1="788" y2="788"/><line style="stroke:#A80036;stroke-width:1.5;" x1="560" x2="770" y1="796" y2="796"/><text fill="#000000" font-family="sans-serif" font-size="11" lengthAdjust="spacing" textLength="200" x="565" y="811.4189">+createTest(tt, parameters,TIN, nhsCode)</text><text fill="#000000" font-family="sans-serif" font-size="11" lengthAdjust="spacing" textLength="77" x="565" y="825.2549">+saveTest(test)</text><text fill="#000000" font-family="sans-serif" font-size="11" lengthAdjust="spacing" textLength="71" x="565" y="839.0908">+hasTest(test)</text><text fill="#000000" font-family="sans-serif" font-size="11" lengthAdjust="spacing" textLength="71" x="565" y="852.9268">+addTest(test)</text><!--MD5=[56e4c9075fa7c9f4c09ef0a20c49f72c]
class T--><rect codeLine="56" fill="#FEFECE" filter="url(#f1bl8q3c8pzh45)" height="172.5234" id="T" style="stroke:#A80036;stroke-width:1.5;" width="184" x="837" y="721"/><ellipse cx="912.75" cy="737" fill="#ADD1B2" rx="11" ry="11" style="stroke:#A80036;stroke-width:1.0;"/><path d="M914.75,733.5 Q914.9531,733 915.1875,732.75 Q915.4219,732.5 915.6875,732.5 Q916.1563,732.5 916.4531,732.7813 Q916.75,733.0625 916.75,733.7188 L916.75,735.2813 Q916.75,735.9375 916.4688,736.2188 Q916.1875,736.5 915.75,736.5 Q915.3594,736.5 915.1094,736.3281 Q914.8594,736.1563 914.75,735.7031 Q914.7031,735.3906 914.5313,735.2188 Q914.2188,734.8906 913.6563,734.7031 Q913.0938,734.5 912.5313,734.5 Q911.8281,734.5 911.2344,734.7813 Q910.6563,735.0625 910.2031,735.6875 Q909.75,736.3125 909.75,737.1719 L909.75,738.0938 Q909.75,739.125 910.5938,739.8125 Q911.4375,740.5 912.9375,740.5 Q913.8281,740.5 914.4531,740.2969 Q914.8125,740.1875 915.2188,739.8281 Q915.4844,739.625 915.625,739.5625 Q915.7656,739.5 915.9375,739.5 Q916.2656,739.5 916.5,739.7656 Q916.75,740.0156 916.75,740.375 Q916.75,740.7188 916.4063,741.125 Q915.9063,741.7188 915.1094,742.0469 Q914.0625,742.5 912.7813,742.5 Q911.2813,742.5 910.0781,741.9063 Q909.1094,741.4375 908.4219,740.4219 Q907.75,739.4063 907.75,738.2031 L907.75,737.1094 Q907.75,735.8594 908.3438,734.7656 Q908.9531,733.6719 910,733.0938 Q911.0625,732.5 912.25,732.5 Q912.9688,732.5 913.5938,732.75 Q914.2188,733 914.75,733.5 Z " fill="#000000"/><text fill="#000000" font-family="sans-serif" font-size="12" lengthAdjust="spacing" textLength="24" x="933.25" y="741.9102">Test</text><line style="stroke:#A80036;stroke-width:1.5;" x1="838" x2="1020" y1="753" y2="753"/><text fill="#000000" font-family="sans-serif" font-size="11" lengthAdjust="spacing" textLength="57" x="843" y="768.4189">-description</text><text fill="#000000" font-family="sans-serif" font-size="11" lengthAdjust="spacing" textLength="28" x="843" y="782.2549">-code</text><text fill="#000000" font-family="sans-serif" font-size="11" lengthAdjust="spacing" textLength="47" x="843" y="796.0908">-nhsCode</text><text fill="#000000" font-family="sans-serif" font-size="11" lengthAdjust="spacing" textLength="79" x="843" y="809.9268">-collectDateTime</text><text fill="#000000" font-family="sans-serif" font-size="11" lengthAdjust="spacing" textLength="132" x="843" y="823.7627">-chemicalAnalysisDateTime</text><text fill="#000000" font-family="sans-serif" font-size="11" lengthAdjust="spacing" textLength="94" x="843" y="837.5986">-diagnosisDateTime</text><text fill="#000000" font-family="sans-serif" font-size="11" lengthAdjust="spacing" textLength="93" x="843" y="851.4346">-validationDateTime</text><line style="stroke:#A80036;stroke-width:1.5;" x1="838" x2="1020" y1="857.8516" y2="857.8516"/><text fill="#000000" font-family="sans-serif" font-size="11" lengthAdjust="spacing" textLength="172" x="843" y="873.2705">+Test(tt, parameters, TIN, nhsCode)</text><text fill="#000000" font-family="sans-serif" font-size="11" lengthAdjust="spacing" textLength="82" x="843" y="887.1064">+generateCode()</text><!--MD5=[dd017b5786dc0eb98822586dade57035]
link RTUI to RTC--><path codeLine="68" d="M122.31,433.5 C138.55,433.5 157.11,433.5 176.35,433.5 " fill="none" id="RTUI-to-RTC" style="stroke:#A80036;stroke-width:1.0;stroke-dasharray:7.0,7.0;"/><polygon fill="#A80036" points="181.79,433.5,172.79,429.5,176.79,433.5,172.79,437.5,181.79,433.5" style="stroke:#A80036;stroke-width:1.0;"/><!--MD5=[73ffdb354b1fe2459a9ac1f820e25281]
link RTC to CS--><path codeLine="69" d="M392.5,374.98 C433.52,333 492.95,277.24 553,238.5 C571.62,226.49 593.76,216.22 613.35,208.3 " fill="none" id="RTC-to-CS" style="stroke:#A80036;stroke-width:1.0;stroke-dasharray:7.0,7.0;"/><polygon fill="#A80036" points="618.27,206.34,608.4281,205.9686,613.6276,208.197,611.3993,213.3964,618.27,206.34" style="stroke:#A80036;stroke-width:1.0;"/><!--MD5=[b1f25aab2c8cf6c0c810a50e101e7b90]
link RTC to CM--><path codeLine="70" d="M465.62,374.9 C494.31,361.82 524.66,348.1 553,335.5 C570.62,327.66 589.89,319.27 607.36,311.73 " fill="none" id="RTC-to-CM" style="stroke:#A80036;stroke-width:1.0;stroke-dasharray:7.0,7.0;"/><polygon fill="#A80036" points="612.23,309.63,602.3819,309.5098,607.6365,311.6048,605.5415,316.8594,612.23,309.63" style="stroke:#A80036;stroke-width:1.0;"/><!--MD5=[92569abc02196c21c46e6d49c0fdf73f]
link RTC to C--><path codeLine="71" d="M373.15,374.97 C411.88,312.59 478.97,213.12 553,141.5 C566.89,128.07 583.39,115.38 599.37,104.36 " fill="none" id="RTC-to-C" style="stroke:#A80036;stroke-width:1.0;stroke-dasharray:7.0,7.0;"/><polygon fill="#A80036" points="603.86,101.3,594.1704,103.0641,599.7286,104.1162,598.6764,109.6744,603.86,101.3" style="stroke:#A80036;stroke-width:1.0;"/><!--MD5=[b3a4147220c3f63b352828c1b1ed0293]
link RTC to TTS--><path codeLine="72" d="M493.15,410.22 C532.7,404.27 572.88,398.22 604.34,393.48 " fill="none" id="RTC-to-TTS" style="stroke:#A80036;stroke-width:1.0;stroke-dasharray:7.0,7.0;"/><polygon fill="#A80036" points="609.31,392.73,599.8155,390.112,604.3655,393.4731,601.0044,398.0232,609.31,392.73" style="stroke:#A80036;stroke-width:1.0;"/><!--MD5=[4d8b153a7b605fd6ac41ea413c086e67]
link RTC to TTM--><path codeLine="73" d="M493.15,456.31 C530.05,461.75 567.51,467.27 597.92,471.75 " fill="none" id="RTC-to-TTM" style="stroke:#A80036;stroke-width:1.0;stroke-dasharray:7.0,7.0;"/><polygon fill="#A80036" points="603.12,472.52,594.7995,467.2503,598.1734,471.7909,593.6329,475.1648,603.12,472.52" style="stroke:#A80036;stroke-width:1.0;"/><!--MD5=[fe07df3723ce1e7554b8338206e6a440]
link RTC to PS--><path codeLine="74" d="M469.18,492.12 C496.85,504.49 525.88,517.44 553,529.5 C564.56,534.64 576.8,540.06 588.76,545.35 " fill="none" id="RTC-to-PS" style="stroke:#A80036;stroke-width:1.0;stroke-dasharray:7.0,7.0;"/><polygon fill="#A80036" points="593.51,547.45,586.906,540.1433,588.9398,545.422,583.6611,547.4557,593.51,547.45" style="stroke:#A80036;stroke-width:1.0;"/><!--MD5=[53ad67196b9718d138e4f8e9634b55e0]
link RTC to PM--><path codeLine="75" d="M395.06,492.08 C436.39,532.89 495.12,586.9 553,626.5 C560.74,631.8 569.05,636.91 577.52,641.74 " fill="none" id="RTC-to-PM" style="stroke:#A80036;stroke-width:1.0;stroke-dasharray:7.0,7.0;"/><polygon fill="#A80036" points="582.23,644.4,576.3555,636.4949,577.8748,641.9439,572.4258,643.4633,582.23,644.4" style="stroke:#A80036;stroke-width:1.0;"/><!--MD5=[8fb19c63ab7f2a290721248e38e8af22]
link RTC to TS--><path codeLine="76" d="M370.39,492.13 C407.93,557.45 475.12,663.56 553,737.5 C558.5,742.73 564.45,747.78 570.64,752.61 " fill="none" id="RTC-to-TS" style="stroke:#A80036;stroke-width:1.0;stroke-dasharray:7.0,7.0;"/><polygon fill="#A80036" points="574.96,755.92,570.2487,747.2711,570.991,752.879,565.3831,753.6214,574.96,755.92" style="stroke:#A80036;stroke-width:1.0;"/><!--MD5=[0b037e5f89e300193b3080f69ffc7684]
link TS to T--><path codeLine="77" d="M771.06,807.5 C791.14,807.5 812.06,807.5 831.85,807.5 " fill="none" id="TS-to-T" style="stroke:#A80036;stroke-width:1.0;stroke-dasharray:7.0,7.0;"/><polygon fill="#A80036" points="836.85,807.5,827.85,803.5,831.85,807.5,827.85,811.5,836.85,807.5" style="stroke:#A80036;stroke-width:1.0;"/><!--MD5=[2f4a9cf23ce6c7d1ad9a94734ee11100]
@startuml
'https://plantuml.com/class-diagram

skinparam classAttributeIconSize 0
left to right direction

class "RegisterTestUI" as RTUI

class "RegisterTestController" as RTC {
+getClient(TIN)
+getAllTestType()
+getAllParametersByTestType(testTypeDto)
+createTest(list <parametersDto>, testTypeDto, TIN, nhsCode)
+saveTest(test)
}

class "Company" as C {
-designation
+getClientStore()
+getTestTypeStore()
+getParametersStore()
+getTestStore()
}

class "ClientStore" as CS {
+getClient(TIN)
}

class "ClientMapper" as CM {
+toDto(cl)
}

class "TestTypeStore" as TTS {
+getAllTestType()
}

class "TestTypeMapper" as TTM {
+toDto(listTestType)
}

class "ParametersStore" as PS {
+getAllParametersByTestType(testTypeDto)
}

class "ParametersMapper" as PM {
+toDto(listParameters)
+toModel (list <parametersDto>)
}

class "TestStore" as TS {
+createTest(tt, parameters,TIN, nhsCode)
+saveTest(test)
+hasTest(test)
+addTest(test)
}

class "Test" as T {
-description
-code
-nhsCode
-collectDateTime
-chemicalAnalysisDateTime
-diagnosisDateTime
-validationDateTime
+Test(tt, parameters, TIN, nhsCode)
+generateCode()
}

RTUI ..> RTC
RTC ..> CS
RTC ..> CM
RTC ..> C
RTC ..> TTS
RTC ..> TTM
RTC ..> PS
RTC ..> PM
RTC ..> TS
TS ..> T


@enduml

@startuml

skinparam classAttributeIconSize 0
left to right direction

class "RegisterTestUI" as RTUI

class "RegisterTestController" as RTC {
+getClient(TIN)
+getAllTestType()
+getAllParametersByTestType(testTypeDto)
+createTest(list <parametersDto>, testTypeDto, TIN, nhsCode)
+saveTest(test)
}

class "Company" as C {
-designation
+getClientStore()
+getTestTypeStore()
+getParametersStore()
+getTestStore()
}

class "ClientStore" as CS {
+getClient(TIN)
}

class "ClientMapper" as CM {
+toDto(cl)
}

class "TestTypeStore" as TTS {
+getAllTestType()
}

class "TestTypeMapper" as TTM {
+toDto(listTestType)
}

class "ParametersStore" as PS {
+getAllParametersByTestType(testTypeDto)
}

class "ParametersMapper" as PM {
+toDto(listParameters)
+toModel (list <parametersDto>)
}

class "TestStore" as TS {
+createTest(tt, parameters,TIN, nhsCode)
+saveTest(test)
+hasTest(test)
+addTest(test)
}

class "Test" as T {
-description
-code
-nhsCode
-collectDateTime
-chemicalAnalysisDateTime
-diagnosisDateTime
-validationDateTime
+Test(tt, parameters, TIN, nhsCode)
+generateCode()
}

RTUI ..> RTC
RTC ..> CS
RTC ..> CM
RTC ..> C
RTC ..> TTS
RTC ..> TTM
RTC ..> PS
RTC ..> PM
RTC ..> TS
TS ..> T


@enduml

PlantUML version 1.2021.4(Sun Apr 04 09:49:39 BST 2021)
(GPL source distribution)
Java Runtime: OpenJDK Runtime Environment
JVM: OpenJDK 64-Bit Server VM
Default Encoding: Cp1252
Language: pt
Country: PT
--></g></svg>