<?xml version="1.0" encoding="UTF-8" standalone="no"?><svg xmlns="http://www.w3.org/2000/svg" xmlns:xlink="http://www.w3.org/1999/xlink" contentScriptType="application/ecmascript" contentStyleType="text/css" height="907px" preserveAspectRatio="none" style="width:1098px;height:907px;" version="1.1" viewBox="0 0 1098 907" width="1098px" zoomAndPan="magnify"><defs><filter height="300%" id="fzz84oatjsh2b" width="300%" x="-1" y="-1"><feGaussianBlur result="blurOut" stdDeviation="2.0"/><feColorMatrix in="blurOut" result="blurOut2" type="matrix" values="0 0 0 0 0 0 0 0 0 0 0 0 0 0 0 0 0 0 .4 0"/><feOffset dx="4.0" dy="4.0" in="blurOut2" result="blurOut3"/><feBlend in="SourceGraphic" in2="blurOut3" mode="normal"/></filter></defs><g><!--MD5=[43142ed302a6cc9ae965019424b4d408]
class RTUI--><rect codeLine="6" fill="#FEFECE" filter="url(#fzz84oatjsh2b)" height="48" id="RTUI" style="stroke:#A80036;stroke-width:1.5;" width="115" x="7" y="409.5"/><ellipse cx="22" cy="425.5" fill="#ADD1B2" rx="11" ry="11" style="stroke:#A80036;stroke-width:1.0;"/><path d="M24,422 Q24.2031,421.5 24.4375,421.25 Q24.6719,421 24.9375,421 Q25.4063,421 25.7031,421.2813 Q26,421.5625 26,422.2188 L26,423.7813 Q26,424.4375 25.7188,424.7188 Q25.4375,425 25,425 Q24.6094,425 24.3594,424.8281 Q24.1094,424.6563 24,424.2031 Q23.9531,423.8906 23.7813,423.7188 Q23.4688,423.3906 22.9063,423.2031 Q22.3438,423 21.7813,423 Q21.0781,423 20.4844,423.2813 Q19.9063,423.5625 19.4531,424.1875 Q19,424.8125 19,425.6719 L19,426.5938 Q19,427.625 19.8438,428.3125 Q20.6875,429 22.1875,429 Q23.0781,429 23.7031,428.7969 Q24.0625,428.6875 24.4688,428.3281 Q24.7344,428.125 24.875,428.0625 Q25.0156,428 25.1875,428 Q25.5156,428 25.75,428.2656 Q26,428.5156 26,428.875 Q26,429.2188 25.6563,429.625 Q25.1563,430.2188 24.3594,430.5469 Q23.3125,431 22.0313,431 Q20.5313,431 19.3281,430.4063 Q18.3594,429.9375 17.6719,428.9219 Q17,427.9063 17,426.7031 L17,425.6094 Q17,424.3594 17.5938,423.2656 Q18.2031,422.1719 19.25,421.5938 Q20.3125,421 21.5,421 Q22.2188,421 22.8438,421.25 Q23.4688,421.5 24,422 Z " fill="#000000"/><text fill="#000000" font-family="sans-serif" font-size="12" lengthAdjust="spacing" textLength="83" x="36" y="430.4102">RegisterTestUI</text><line style="stroke:#A80036;stroke-width:1.5;" x1="8" x2="121" y1="441.5" y2="441.5"/><line style="stroke:#A80036;stroke-width:1.5;" x1="8" x2="121" y1="449.5" y2="449.5"/><!--MD5=[fc745cbb6189e890294da62cd777863a]
class RTC--><rect codeLine="8" fill="#FEFECE" filter="url(#fzz84oatjsh2b)" height="117.1797" id="RTC" style="stroke:#A80036;stroke-width:1.5;" width="336" x="182" y="375"/><ellipse cx="283.25" cy="391" fill="#ADD1B2" rx="11" ry="11" style="stroke:#A80036;stroke-width:1.0;"/><path d="M285.25,387.5 Q285.4531,387 285.6875,386.75 Q285.9219,386.5 286.1875,386.5 Q286.6563,386.5 286.9531,386.7813 Q287.25,387.0625 287.25,387.7188 L287.25,389.2813 Q287.25,389.9375 286.9688,390.2188 Q286.6875,390.5 286.25,390.5 Q285.8594,390.5 285.6094,390.3281 Q285.3594,390.1563 285.25,389.7031 Q285.2031,389.3906 285.0313,389.2188 Q284.7188,388.8906 284.1563,388.7031 Q283.5938,388.5 283.0313,388.5 Q282.3281,388.5 281.7344,388.7813 Q281.1563,389.0625 280.7031,389.6875 Q280.25,390.3125 280.25,391.1719 L280.25,392.0938 Q280.25,393.125 281.0938,393.8125 Q281.9375,394.5 283.4375,394.5 Q284.3281,394.5 284.9531,394.2969 Q285.3125,394.1875 285.7188,393.8281 Q285.9844,393.625 286.125,393.5625 Q286.2656,393.5 286.4375,393.5 Q286.7656,393.5 287,393.7656 Q287.25,394.0156 287.25,394.375 Q287.25,394.7188 286.9063,395.125 Q286.4063,395.7188 285.6094,396.0469 Q284.5625,396.5 283.2813,396.5 Q281.7813,396.5 280.5781,395.9063 Q279.6094,395.4375 278.9219,394.4219 Q278.25,393.4063 278.25,392.2031 L278.25,391.1094 Q278.25,389.8594 278.8438,388.7656 Q279.4531,387.6719 280.5,387.0938 Q281.5625,386.5 282.75,386.5 Q283.4688,386.5 284.0938,386.75 Q284.7188,387 285.25,387.5 Z " fill="#000000"/><text fill="#000000" font-family="sans-serif" font-size="12" lengthAdjust="spacing" textLength="125" x="303.75" y="395.9102">RegisterTestController</text><line style="stroke:#A80036;stroke-width:1.5;" x1="183" x2="517" y1="407" y2="407"/><line style="stroke:#A80036;stroke-width:1.5;" x1="183" x2="517" y1="415" y2="415"/><text fill="#000000" font-family="sans-serif" font-size="11" lengthAdjust="spacing" textLength="95" x="188" y="430.4189">+getClient(citizenID)</text><text fill="#000000" font-family="sans-serif" font-size="11" lengthAdjust="spacing" textLength="86" x="188" y="444.2549">+getAllTestType()</text><text fill="#000000" font-family="sans-serif" font-size="11" lengthAdjust="spacing" textLength="212" x="188" y="458.0908">+getAllParametersByTestType(testTypeDto)</text><text fill="#000000" font-family="sans-serif" font-size="11" lengthAdjust="spacing" textLength="324" x="188" y="471.9268">+createTest(list &lt;parametersDto&gt;, testTypeDto, citizenID, nhsCode)</text><text fill="#000000" font-family="sans-serif" font-size="11" lengthAdjust="spacing" textLength="77" x="188" y="485.7627">+saveTest(test)</text><!--MD5=[378b18254a1b2429f435e93f5e5cc50c]
class C--><rect codeLine="16" fill="#FEFECE" filter="url(#fzz84oatjsh2b)" height="117.1797" id="C" style="stroke:#A80036;stroke-width:1.5;" width="122" x="635.5" y="7"/><ellipse cx="667.15" cy="23" fill="#ADD1B2" rx="11" ry="11" style="stroke:#A80036;stroke-width:1.0;"/><path d="M669.15,19.5 Q669.3531,19 669.5875,18.75 Q669.8219,18.5 670.0875,18.5 Q670.5563,18.5 670.8531,18.7813 Q671.15,19.0625 671.15,19.7188 L671.15,21.2813 Q671.15,21.9375 670.8688,22.2188 Q670.5875,22.5 670.15,22.5 Q669.7594,22.5 669.5094,22.3281 Q669.2594,22.1563 669.15,21.7031 Q669.1031,21.3906 668.9313,21.2188 Q668.6188,20.8906 668.0563,20.7031 Q667.4938,20.5 666.9313,20.5 Q666.2281,20.5 665.6344,20.7813 Q665.0563,21.0625 664.6031,21.6875 Q664.15,22.3125 664.15,23.1719 L664.15,24.0938 Q664.15,25.125 664.9938,25.8125 Q665.8375,26.5 667.3375,26.5 Q668.2281,26.5 668.8531,26.2969 Q669.2125,26.1875 669.6188,25.8281 Q669.8844,25.625 670.025,25.5625 Q670.1656,25.5 670.3375,25.5 Q670.6656,25.5 670.9,25.7656 Q671.15,26.0156 671.15,26.375 Q671.15,26.7188 670.8063,27.125 Q670.3063,27.7188 669.5094,28.0469 Q668.4625,28.5 667.1813,28.5 Q665.6813,28.5 664.4781,27.9063 Q663.5094,27.4375 662.8219,26.4219 Q662.15,25.4063 662.15,24.2031 L662.15,23.1094 Q662.15,21.8594 662.7438,20.7656 Q663.3531,19.6719 664.4,19.0938 Q665.4625,18.5 666.65,18.5 Q667.3688,18.5 667.9938,18.75 Q668.6188,19 669.15,19.5 Z " fill="#000000"/><text fill="#000000" font-family="sans-serif" font-size="12" lengthAdjust="spacing" textLength="53" x="684.85" y="27.9102">Company</text><line style="stroke:#A80036;stroke-width:1.5;" x1="636.5" x2="756.5" y1="39" y2="39"/><text fill="#000000" font-family="sans-serif" font-size="11" lengthAdjust="spacing" textLength="59" x="641.5" y="54.4189">-designation</text><line style="stroke:#A80036;stroke-width:1.5;" x1="636.5" x2="756.5" y1="60.8359" y2="60.8359"/><text fill="#000000" font-family="sans-serif" font-size="11" lengthAdjust="spacing" textLength="81" x="641.5" y="76.2549">+getClientStore()</text><text fill="#000000" font-family="sans-serif" font-size="11" lengthAdjust="spacing" textLength="100" x="641.5" y="90.0908">+getTestTypeStore()</text><text fill="#000000" font-family="sans-serif" font-size="11" lengthAdjust="spacing" textLength="110" x="641.5" y="103.9268">+getParametersStore()</text><text fill="#000000" font-family="sans-serif" font-size="11" lengthAdjust="spacing" textLength="76" x="641.5" y="117.7627">+getTestStore()</text><!--MD5=[d68c9369472fd2c8081ca2424f4233ba]
class CS--><rect codeLine="24" fill="#FEFECE" filter="url(#fzz84oatjsh2b)" height="61.8359" id="CS" style="stroke:#A80036;stroke-width:1.5;" width="107" x="643" y="159.5"/><ellipse cx="664.3" cy="175.5" fill="#ADD1B2" rx="11" ry="11" style="stroke:#A80036;stroke-width:1.0;"/><path d="M666.3,172 Q666.5031,171.5 666.7375,171.25 Q666.9719,171 667.2375,171 Q667.7063,171 668.0031,171.2813 Q668.3,171.5625 668.3,172.2188 L668.3,173.7813 Q668.3,174.4375 668.0188,174.7188 Q667.7375,175 667.3,175 Q666.9094,175 666.6594,174.8281 Q666.4094,174.6563 666.3,174.2031 Q666.2531,173.8906 666.0813,173.7188 Q665.7688,173.3906 665.2063,173.2031 Q664.6438,173 664.0813,173 Q663.3781,173 662.7844,173.2813 Q662.2063,173.5625 661.7531,174.1875 Q661.3,174.8125 661.3,175.6719 L661.3,176.5938 Q661.3,177.625 662.1438,178.3125 Q662.9875,179 664.4875,179 Q665.3781,179 666.0031,178.7969 Q666.3625,178.6875 666.7688,178.3281 Q667.0344,178.125 667.175,178.0625 Q667.3156,178 667.4875,178 Q667.8156,178 668.05,178.2656 Q668.3,178.5156 668.3,178.875 Q668.3,179.2188 667.9563,179.625 Q667.4563,180.2188 666.6594,180.5469 Q665.6125,181 664.3313,181 Q662.8313,181 661.6281,180.4063 Q660.6594,179.9375 659.9719,178.9219 Q659.3,177.9063 659.3,176.7031 L659.3,175.6094 Q659.3,174.3594 659.8938,173.2656 Q660.5031,172.1719 661.55,171.5938 Q662.6125,171 663.8,171 Q664.5188,171 665.1438,171.25 Q665.7688,171.5 666.3,172 Z " fill="#000000"/><text fill="#000000" font-family="sans-serif" font-size="12" lengthAdjust="spacing" textLength="61" x="679.7" y="180.4102">ClientStore</text><line style="stroke:#A80036;stroke-width:1.5;" x1="644" x2="749" y1="191.5" y2="191.5"/><line style="stroke:#A80036;stroke-width:1.5;" x1="644" x2="749" y1="199.5" y2="199.5"/><text fill="#000000" font-family="sans-serif" font-size="11" lengthAdjust="spacing" textLength="95" x="649" y="214.9189">+getClient(citizenID)</text><!--MD5=[922d291f43d024f1166d0eae9b0ee0bb]
class CM--><rect codeLine="28" fill="#FEFECE" filter="url(#fzz84oatjsh2b)" height="61.8359" id="CM" style="stroke:#A80036;stroke-width:1.5;" width="105" x="644" y="256.5"/><ellipse cx="659" cy="272.5" fill="#ADD1B2" rx="11" ry="11" style="stroke:#A80036;stroke-width:1.0;"/><path d="M661,269 Q661.2031,268.5 661.4375,268.25 Q661.6719,268 661.9375,268 Q662.4063,268 662.7031,268.2813 Q663,268.5625 663,269.2188 L663,270.7813 Q663,271.4375 662.7188,271.7188 Q662.4375,272 662,272 Q661.6094,272 661.3594,271.8281 Q661.1094,271.6563 661,271.2031 Q660.9531,270.8906 660.7813,270.7188 Q660.4688,270.3906 659.9063,270.2031 Q659.3438,270 658.7813,270 Q658.0781,270 657.4844,270.2813 Q656.9063,270.5625 656.4531,271.1875 Q656,271.8125 656,272.6719 L656,273.5938 Q656,274.625 656.8438,275.3125 Q657.6875,276 659.1875,276 Q660.0781,276 660.7031,275.7969 Q661.0625,275.6875 661.4688,275.3281 Q661.7344,275.125 661.875,275.0625 Q662.0156,275 662.1875,275 Q662.5156,275 662.75,275.2656 Q663,275.5156 663,275.875 Q663,276.2188 662.6563,276.625 Q662.1563,277.2188 661.3594,277.5469 Q660.3125,278 659.0313,278 Q657.5313,278 656.3281,277.4063 Q655.3594,276.9375 654.6719,275.9219 Q654,274.9063 654,273.7031 L654,272.6094 Q654,271.3594 654.5938,270.2656 Q655.2031,269.1719 656.25,268.5938 Q657.3125,268 658.5,268 Q659.2188,268 659.8438,268.25 Q660.4688,268.5 661,269 Z " fill="#000000"/><text fill="#000000" font-family="sans-serif" font-size="12" lengthAdjust="spacing" textLength="73" x="673" y="277.4102">ClientMapper</text><line style="stroke:#A80036;stroke-width:1.5;" x1="645" x2="748" y1="288.5" y2="288.5"/><line style="stroke:#A80036;stroke-width:1.5;" x1="645" x2="748" y1="296.5" y2="296.5"/><text fill="#000000" font-family="sans-serif" font-size="11" lengthAdjust="spacing" textLength="47" x="650" y="311.9189">+toDto(cl)</text><!--MD5=[0c21d7a5a5555e4278001068caacbd33]
class TTS--><rect codeLine="32" fill="#FEFECE" filter="url(#fzz84oatjsh2b)" height="61.8359" id="TTS" style="stroke:#A80036;stroke-width:1.5;" width="111" x="641" y="353.5"/><ellipse cx="656" cy="369.5" fill="#ADD1B2" rx="11" ry="11" style="stroke:#A80036;stroke-width:1.0;"/><path d="M658,366 Q658.2031,365.5 658.4375,365.25 Q658.6719,365 658.9375,365 Q659.4063,365 659.7031,365.2813 Q660,365.5625 660,366.2188 L660,367.7813 Q660,368.4375 659.7188,368.7188 Q659.4375,369 659,369 Q658.6094,369 658.3594,368.8281 Q658.1094,368.6563 658,368.2031 Q657.9531,367.8906 657.7813,367.7188 Q657.4688,367.3906 656.9063,367.2031 Q656.3438,367 655.7813,367 Q655.0781,367 654.4844,367.2813 Q653.9063,367.5625 653.4531,368.1875 Q653,368.8125 653,369.6719 L653,370.5938 Q653,371.625 653.8438,372.3125 Q654.6875,373 656.1875,373 Q657.0781,373 657.7031,372.7969 Q658.0625,372.6875 658.4688,372.3281 Q658.7344,372.125 658.875,372.0625 Q659.0156,372 659.1875,372 Q659.5156,372 659.75,372.2656 Q660,372.5156 660,372.875 Q660,373.2188 659.6563,373.625 Q659.1563,374.2188 658.3594,374.5469 Q657.3125,375 656.0313,375 Q654.5313,375 653.3281,374.4063 Q652.3594,373.9375 651.6719,372.9219 Q651,371.9063 651,370.7031 L651,369.6094 Q651,368.3594 651.5938,367.2656 Q652.2031,366.1719 653.25,365.5938 Q654.3125,365 655.5,365 Q656.2188,365 656.8438,365.25 Q657.4688,365.5 658,366 Z " fill="#000000"/><text fill="#000000" font-family="sans-serif" font-size="12" lengthAdjust="spacing" textLength="79" x="670" y="374.4102">TestTypeStore</text><line style="stroke:#A80036;stroke-width:1.5;" x1="642" x2="751" y1="385.5" y2="385.5"/><line style="stroke:#A80036;stroke-width:1.5;" x1="642" x2="751" y1="393.5" y2="393.5"/><text fill="#000000" font-family="sans-serif" font-size="11" lengthAdjust="spacing" textLength="86" x="647" y="408.9189">+getAllTestType()</text><!--MD5=[827c14b304fb6bf676224a1fb38ec02f]
class TTM--><rect codeLine="36" fill="#FEFECE" filter="url(#fzz84oatjsh2b)" height="61.8359" id="TTM" style="stroke:#A80036;stroke-width:1.5;" width="123" x="635" y="450.5"/><ellipse cx="650" cy="466.5" fill="#ADD1B2" rx="11" ry="11" style="stroke:#A80036;stroke-width:1.0;"/><path d="M652,463 Q652.2031,462.5 652.4375,462.25 Q652.6719,462 652.9375,462 Q653.4063,462 653.7031,462.2813 Q654,462.5625 654,463.2188 L654,464.7813 Q654,465.4375 653.7188,465.7188 Q653.4375,466 653,466 Q652.6094,466 652.3594,465.8281 Q652.1094,465.6563 652,465.2031 Q651.9531,464.8906 651.7813,464.7188 Q651.4688,464.3906 650.9063,464.2031 Q650.3438,464 649.7813,464 Q649.0781,464 648.4844,464.2813 Q647.9063,464.5625 647.4531,465.1875 Q647,465.8125 647,466.6719 L647,467.5938 Q647,468.625 647.8438,469.3125 Q648.6875,470 650.1875,470 Q651.0781,470 651.7031,469.7969 Q652.0625,469.6875 652.4688,469.3281 Q652.7344,469.125 652.875,469.0625 Q653.0156,469 653.1875,469 Q653.5156,469 653.75,469.2656 Q654,469.5156 654,469.875 Q654,470.2188 653.6563,470.625 Q653.1563,471.2188 652.3594,471.5469 Q651.3125,472 650.0313,472 Q648.5313,472 647.3281,471.4063 Q646.3594,470.9375 645.6719,469.9219 Q645,468.9063 645,467.7031 L645,466.6094 Q645,465.3594 645.5938,464.2656 Q646.2031,463.1719 647.25,462.5938 Q648.3125,462 649.5,462 Q650.2188,462 650.8438,462.25 Q651.4688,462.5 652,463 Z " fill="#000000"/><text fill="#000000" font-family="sans-serif" font-size="12" lengthAdjust="spacing" textLength="91" x="664" y="471.4102">TestTypeMapper</text><line style="stroke:#A80036;stroke-width:1.5;" x1="636" x2="757" y1="482.5" y2="482.5"/><line style="stroke:#A80036;stroke-width:1.5;" x1="636" x2="757" y1="490.5" y2="490.5"/><text fill="#000000" font-family="sans-serif" font-size="11" lengthAdjust="spacing" textLength="97" x="641" y="505.9189">+toDto(listTestType)</text><!--MD5=[7372bbf51d55cfb0901280a97d9d0909]
class PS--><rect codeLine="40" fill="#FEFECE" filter="url(#fzz84oatjsh2b)" height="61.8359" id="PS" style="stroke:#A80036;stroke-width:1.5;" width="224" x="584.5" y="547.5"/><ellipse cx="645.25" cy="563.5" fill="#ADD1B2" rx="11" ry="11" style="stroke:#A80036;stroke-width:1.0;"/><path d="M647.25,560 Q647.4531,559.5 647.6875,559.25 Q647.9219,559 648.1875,559 Q648.6563,559 648.9531,559.2813 Q649.25,559.5625 649.25,560.2188 L649.25,561.7813 Q649.25,562.4375 648.9688,562.7188 Q648.6875,563 648.25,563 Q647.8594,563 647.6094,562.8281 Q647.3594,562.6563 647.25,562.2031 Q647.2031,561.8906 647.0313,561.7188 Q646.7188,561.3906 646.1563,561.2031 Q645.5938,561 645.0313,561 Q644.3281,561 643.7344,561.2813 Q643.1563,561.5625 642.7031,562.1875 Q642.25,562.8125 642.25,563.6719 L642.25,564.5938 Q642.25,565.625 643.0938,566.3125 Q643.9375,567 645.4375,567 Q646.3281,567 646.9531,566.7969 Q647.3125,566.6875 647.7188,566.3281 Q647.9844,566.125 648.125,566.0625 Q648.2656,566 648.4375,566 Q648.7656,566 649,566.2656 Q649.25,566.5156 649.25,566.875 Q649.25,567.2188 648.9063,567.625 Q648.4063,568.2188 647.6094,568.5469 Q646.5625,569 645.2813,569 Q643.7813,569 642.5781,568.4063 Q641.6094,567.9375 640.9219,566.9219 Q640.25,565.9063 640.25,564.7031 L640.25,563.6094 Q640.25,562.3594 640.8438,561.2656 Q641.4531,560.1719 642.5,559.5938 Q643.5625,559 644.75,559 Q645.4688,559 646.0938,559.25 Q646.7188,559.5 647.25,560 Z " fill="#000000"/><text fill="#000000" font-family="sans-serif" font-size="12" lengthAdjust="spacing" textLength="94" x="665.75" y="568.4102">ParametersStore</text><line style="stroke:#A80036;stroke-width:1.5;" x1="585.5" x2="807.5" y1="579.5" y2="579.5"/><line style="stroke:#A80036;stroke-width:1.5;" x1="585.5" x2="807.5" y1="587.5" y2="587.5"/><text fill="#000000" font-family="sans-serif" font-size="11" lengthAdjust="spacing" textLength="212" x="590.5" y="602.9189">+getAllParametersByTestType(testTypeDto)</text><!--MD5=[ce26f7d1346c61756d71df2e3432b601]
class PM--><rect codeLine="44" fill="#FEFECE" filter="url(#fzz84oatjsh2b)" height="75.6719" id="PM" style="stroke:#A80036;stroke-width:1.5;" width="165" x="614" y="644.5"/><ellipse cx="641.15" cy="660.5" fill="#ADD1B2" rx="11" ry="11" style="stroke:#A80036;stroke-width:1.0;"/><path d="M643.15,657 Q643.3531,656.5 643.5875,656.25 Q643.8219,656 644.0875,656 Q644.5563,656 644.8531,656.2813 Q645.15,656.5625 645.15,657.2188 L645.15,658.7813 Q645.15,659.4375 644.8688,659.7188 Q644.5875,660 644.15,660 Q643.7594,660 643.5094,659.8281 Q643.2594,659.6563 643.15,659.2031 Q643.1031,658.8906 642.9313,658.7188 Q642.6188,658.3906 642.0563,658.2031 Q641.4938,658 640.9313,658 Q640.2281,658 639.6344,658.2813 Q639.0563,658.5625 638.6031,659.1875 Q638.15,659.8125 638.15,660.6719 L638.15,661.5938 Q638.15,662.625 638.9938,663.3125 Q639.8375,664 641.3375,664 Q642.2281,664 642.8531,663.7969 Q643.2125,663.6875 643.6188,663.3281 Q643.8844,663.125 644.025,663.0625 Q644.1656,663 644.3375,663 Q644.6656,663 644.9,663.2656 Q645.15,663.5156 645.15,663.875 Q645.15,664.2188 644.8063,664.625 Q644.3063,665.2188 643.5094,665.5469 Q642.4625,666 641.1813,666 Q639.6813,666 638.4781,665.4063 Q637.5094,664.9375 636.8219,663.9219 Q636.15,662.9063 636.15,661.7031 L636.15,660.6094 Q636.15,659.3594 636.7438,658.2656 Q637.3531,657.1719 638.4,656.5938 Q639.4625,656 640.65,656 Q641.3688,656 641.9938,656.25 Q642.6188,656.5 643.15,657 Z " fill="#000000"/><text fill="#000000" font-family="sans-serif" font-size="12" lengthAdjust="spacing" textLength="106" x="657.85" y="665.4102">ParametersMapper</text><line style="stroke:#A80036;stroke-width:1.5;" x1="615" x2="778" y1="676.5" y2="676.5"/><line style="stroke:#A80036;stroke-width:1.5;" x1="615" x2="778" y1="684.5" y2="684.5"/><text fill="#000000" font-family="sans-serif" font-size="11" lengthAdjust="spacing" textLength="107" x="620" y="699.9189">+toDto(listParameters)</text><text fill="#000000" font-family="sans-serif" font-size="11" lengthAdjust="spacing" textLength="153" x="620" y="713.7549">+toModel (list &lt;parametersDto&gt;)</text><!--MD5=[b0a1b9137b50b50b320b426f68562434]
class TS--><rect codeLine="49" fill="#FEFECE" filter="url(#fzz84oatjsh2b)" height="103.3438" id="TS" style="stroke:#A80036;stroke-width:1.5;" width="237" x="578" y="756"/><ellipse cx="665.75" cy="772" fill="#ADD1B2" rx="11" ry="11" style="stroke:#A80036;stroke-width:1.0;"/><path d="M667.75,768.5 Q667.9531,768 668.1875,767.75 Q668.4219,767.5 668.6875,767.5 Q669.1563,767.5 669.4531,767.7813 Q669.75,768.0625 669.75,768.7188 L669.75,770.2813 Q669.75,770.9375 669.4688,771.2188 Q669.1875,771.5 668.75,771.5 Q668.3594,771.5 668.1094,771.3281 Q667.8594,771.1563 667.75,770.7031 Q667.7031,770.3906 667.5313,770.2188 Q667.2188,769.8906 666.6563,769.7031 Q666.0938,769.5 665.5313,769.5 Q664.8281,769.5 664.2344,769.7813 Q663.6563,770.0625 663.2031,770.6875 Q662.75,771.3125 662.75,772.1719 L662.75,773.0938 Q662.75,774.125 663.5938,774.8125 Q664.4375,775.5 665.9375,775.5 Q666.8281,775.5 667.4531,775.2969 Q667.8125,775.1875 668.2188,774.8281 Q668.4844,774.625 668.625,774.5625 Q668.7656,774.5 668.9375,774.5 Q669.2656,774.5 669.5,774.7656 Q669.75,775.0156 669.75,775.375 Q669.75,775.7188 669.4063,776.125 Q668.9063,776.7188 668.1094,777.0469 Q667.0625,777.5 665.7813,777.5 Q664.2813,777.5 663.0781,776.9063 Q662.1094,776.4375 661.4219,775.4219 Q660.75,774.4063 660.75,773.2031 L660.75,772.1094 Q660.75,770.8594 661.3438,769.7656 Q661.9531,768.6719 663,768.0938 Q664.0625,767.5 665.25,767.5 Q665.9688,767.5 666.5938,767.75 Q667.2188,768 667.75,768.5 Z " fill="#000000"/><text fill="#000000" font-family="sans-serif" font-size="12" lengthAdjust="spacing" textLength="53" x="686.25" y="776.9102">TestStore</text><line style="stroke:#A80036;stroke-width:1.5;" x1="579" x2="814" y1="788" y2="788"/><line style="stroke:#A80036;stroke-width:1.5;" x1="579" x2="814" y1="796" y2="796"/><text fill="#000000" font-family="sans-serif" font-size="11" lengthAdjust="spacing" textLength="225" x="584" y="811.4189">+createTest(tt, parameters,citizenID, nhsCode)</text><text fill="#000000" font-family="sans-serif" font-size="11" lengthAdjust="spacing" textLength="77" x="584" y="825.2549">+saveTest(test)</text><text fill="#000000" font-family="sans-serif" font-size="11" lengthAdjust="spacing" textLength="90" x="584" y="839.0908">+validateTest(test)</text><text fill="#000000" font-family="sans-serif" font-size="11" lengthAdjust="spacing" textLength="71" x="584" y="852.9268">+addTest(test)</text><!--MD5=[56e4c9075fa7c9f4c09ef0a20c49f72c]
class T--><rect codeLine="56" fill="#FEFECE" filter="url(#fzz84oatjsh2b)" height="172.5234" id="T" style="stroke:#A80036;stroke-width:1.5;" width="209" x="875" y="721"/><ellipse cx="963.25" cy="737" fill="#ADD1B2" rx="11" ry="11" style="stroke:#A80036;stroke-width:1.0;"/><path d="M965.25,733.5 Q965.4531,733 965.6875,732.75 Q965.9219,732.5 966.1875,732.5 Q966.6563,732.5 966.9531,732.7813 Q967.25,733.0625 967.25,733.7188 L967.25,735.2813 Q967.25,735.9375 966.9688,736.2188 Q966.6875,736.5 966.25,736.5 Q965.8594,736.5 965.6094,736.3281 Q965.3594,736.1563 965.25,735.7031 Q965.2031,735.3906 965.0313,735.2188 Q964.7188,734.8906 964.1563,734.7031 Q963.5938,734.5 963.0313,734.5 Q962.3281,734.5 961.7344,734.7813 Q961.1563,735.0625 960.7031,735.6875 Q960.25,736.3125 960.25,737.1719 L960.25,738.0938 Q960.25,739.125 961.0938,739.8125 Q961.9375,740.5 963.4375,740.5 Q964.3281,740.5 964.9531,740.2969 Q965.3125,740.1875 965.7188,739.8281 Q965.9844,739.625 966.125,739.5625 Q966.2656,739.5 966.4375,739.5 Q966.7656,739.5 967,739.7656 Q967.25,740.0156 967.25,740.375 Q967.25,740.7188 966.9063,741.125 Q966.4063,741.7188 965.6094,742.0469 Q964.5625,742.5 963.2813,742.5 Q961.7813,742.5 960.5781,741.9063 Q959.6094,741.4375 958.9219,740.4219 Q958.25,739.4063 958.25,738.2031 L958.25,737.1094 Q958.25,735.8594 958.8438,734.7656 Q959.4531,733.6719 960.5,733.0938 Q961.5625,732.5 962.75,732.5 Q963.4688,732.5 964.0938,732.75 Q964.7188,733 965.25,733.5 Z " fill="#000000"/><text fill="#000000" font-family="sans-serif" font-size="12" lengthAdjust="spacing" textLength="24" x="983.75" y="741.9102">Test</text><line style="stroke:#A80036;stroke-width:1.5;" x1="876" x2="1083" y1="753" y2="753"/><text fill="#000000" font-family="sans-serif" font-size="11" lengthAdjust="spacing" textLength="57" x="881" y="768.4189">-description</text><text fill="#000000" font-family="sans-serif" font-size="11" lengthAdjust="spacing" textLength="28" x="881" y="782.2549">-code</text><text fill="#000000" font-family="sans-serif" font-size="11" lengthAdjust="spacing" textLength="47" x="881" y="796.0908">-nhsCode</text><text fill="#000000" font-family="sans-serif" font-size="11" lengthAdjust="spacing" textLength="79" x="881" y="809.9268">-collectDateTime</text><text fill="#000000" font-family="sans-serif" font-size="11" lengthAdjust="spacing" textLength="132" x="881" y="823.7627">-chemicalAnalysisDateTime</text><text fill="#000000" font-family="sans-serif" font-size="11" lengthAdjust="spacing" textLength="94" x="881" y="837.5986">-diagnosisDateTime</text><text fill="#000000" font-family="sans-serif" font-size="11" lengthAdjust="spacing" textLength="93" x="881" y="851.4346">-validationDateTime</text><line style="stroke:#A80036;stroke-width:1.5;" x1="876" x2="1083" y1="857.8516" y2="857.8516"/><text fill="#000000" font-family="sans-serif" font-size="11" lengthAdjust="spacing" textLength="197" x="881" y="873.2705">+Test(tt, parameters, citizenID, nhsCode)</text><text fill="#000000" font-family="sans-serif" font-size="11" lengthAdjust="spacing" textLength="82" x="881" y="887.1064">+generateCode()</text><!--MD5=[dd017b5786dc0eb98822586dade57035]
link RTUI to RTC--><path codeLine="68" d="M122.19,433.5 C138.58,433.5 157.37,433.5 176.97,433.5 " fill="none" id="RTUI-to-RTC" style="stroke:#A80036;stroke-width:1.0;stroke-dasharray:7.0,7.0;"/><polygon fill="#A80036" points="181.97,433.5,172.97,429.5,176.97,433.5,172.97,437.5,181.97,433.5" style="stroke:#A80036;stroke-width:1.0;"/><!--MD5=[73ffdb354b1fe2459a9ac1f820e25281]
link RTC to CS--><path codeLine="69" d="M408.51,374.83 C452.1,332.77 515.06,276.98 578,238.5 C596.54,227.16 618.24,217.43 637.91,209.76 " fill="none" id="RTC-to-CS" style="stroke:#A80036;stroke-width:1.0;stroke-dasharray:7.0,7.0;"/><polygon fill="#A80036" points="642.87,207.85,633.0332,207.3636,638.2062,209.6526,635.9173,214.8256,642.87,207.85" style="stroke:#A80036;stroke-width:1.0;"/><!--MD5=[b1f25aab2c8cf6c0c810a50e101e7b90]
link RTC to CM--><path codeLine="70" d="M485.55,374.89 C515.91,361.81 548.02,348.09 578,335.5 C597.85,327.16 619.67,318.19 639.06,310.29 " fill="none" id="RTC-to-CM" style="stroke:#A80036;stroke-width:1.0;stroke-dasharray:7.0,7.0;"/><polygon fill="#A80036" points="643.93,308.31,634.0863,307.9907,639.2975,310.1915,637.0967,315.4027,643.93,308.31" style="stroke:#A80036;stroke-width:1.0;"/><!--MD5=[92569abc02196c21c46e6d49c0fdf73f]
link RTC to C--><path codeLine="71" d="M388,374.76 C429.27,312.18 500.5,212.56 578,141.5 C593.85,126.97 612.78,113.4 630.77,101.87 " fill="none" id="RTC-to-C" style="stroke:#A80036;stroke-width:1.0;stroke-dasharray:7.0,7.0;"/><polygon fill="#A80036" points="635.32,98.98,625.5783,100.4287,631.0993,101.6607,629.8674,107.1818,635.32,98.98" style="stroke:#A80036;stroke-width:1.0;"/><!--MD5=[b3a4147220c3f63b352828c1b1ed0293]
link RTC to TTS--><path codeLine="72" d="M518.2,409.72 C560.35,403.72 602.9,397.67 635.75,393 " fill="none" id="RTC-to-TTS" style="stroke:#A80036;stroke-width:1.0;stroke-dasharray:7.0,7.0;"/><polygon fill="#A80036" points="640.94,392.26,631.4691,389.5577,635.9891,392.9591,632.5877,397.4791,640.94,392.26" style="stroke:#A80036;stroke-width:1.0;"/><!--MD5=[4d8b153a7b605fd6ac41ea413c086e67]
link RTC to TTM--><path codeLine="73" d="M518.2,456.8 C557.75,462.31 597.64,467.87 629.55,472.31 " fill="none" id="RTC-to-TTM" style="stroke:#A80036;stroke-width:1.0;stroke-dasharray:7.0,7.0;"/><polygon fill="#A80036" points="634.6,473.02,626.233,467.8245,629.6472,472.3349,625.1368,475.7491,634.6,473.02" style="stroke:#A80036;stroke-width:1.0;"/><!--MD5=[fe07df3723ce1e7554b8338206e6a440]
link RTC to PS--><path codeLine="74" d="M489.3,492.12 C518.58,504.49 549.3,517.45 578,529.5 C590.34,534.68 603.42,540.16 616.2,545.49 " fill="none" id="RTC-to-PS" style="stroke:#A80036;stroke-width:1.0;stroke-dasharray:7.0,7.0;"/><polygon fill="#A80036" points="620.89,547.45,614.1286,540.2887,616.2767,545.5219,611.0436,547.67,620.89,547.45" style="stroke:#A80036;stroke-width:1.0;"/><!--MD5=[53ad67196b9718d138e4f8e9634b55e0]
link RTC to PM--><path codeLine="75" d="M411.14,492.22 C455.02,533.1 517.21,587.13 578,626.5 C587.79,632.84 598.41,638.9 609.13,644.54 " fill="none" id="RTC-to-PM" style="stroke:#A80036;stroke-width:1.0;stroke-dasharray:7.0,7.0;"/><polygon fill="#A80036" points="613.73,646.93,607.6061,639.2165,609.2986,644.6142,603.9009,646.3067,613.73,646.93" style="stroke:#A80036;stroke-width:1.0;"/><!--MD5=[8fb19c63ab7f2a290721248e38e8af22]
link RTC to TS--><path codeLine="76" d="M384.96,492.07 C425.01,557.58 496.52,664.09 578,737.5 C583.92,742.83 590.3,747.97 596.93,752.87 " fill="none" id="RTC-to-TS" style="stroke:#A80036;stroke-width:1.0;stroke-dasharray:7.0,7.0;"/><polygon fill="#A80036" points="601.08,755.89,596.1379,747.3709,597.0308,752.9568,591.4448,753.8496,601.08,755.89" style="stroke:#A80036;stroke-width:1.0;"/><!--MD5=[0b037e5f89e300193b3080f69ffc7684]
link TS to T--><path codeLine="77" d="M815.04,807.5 C833.19,807.5 851.86,807.5 869.8,807.5 " fill="none" id="TS-to-T" style="stroke:#A80036;stroke-width:1.0;stroke-dasharray:7.0,7.0;"/><polygon fill="#A80036" points="874.84,807.5,865.84,803.5,869.84,807.5,865.84,811.5,874.84,807.5" style="stroke:#A80036;stroke-width:1.0;"/><!--MD5=[41c2b18cd12d8e939d438420cbb26197]
@startuml
'https://plantuml.com/class-diagram

skinparam classAttributeIconSize 0
left to right direction

class "RegisterTestUI" as RTUI

class "RegisterTestController" as RTC {
+getClient(citizenID)
+getAllTestType()
+getAllParametersByTestType(testTypeDto)
+createTest(list <parametersDto>, testTypeDto, citizenID, nhsCode)
+saveTest(test)
}

class "Company" as C {
-designation
+getClientStore()
+getTestTypeStore()
+getParametersStore()
+getTestStore()
}

class "ClientStore" as CS {
+getClient(citizenID)
}

class "ClientMapper" as CM {
+toDto(cl)
}

class "TestTypeStore" as TTS {
+getAllTestType()
}

class "TestTypeMapper" as TTM {
+toDto(listTestType)
}

class "ParametersStore" as PS {
+getAllParametersByTestType(testTypeDto)
}

class "ParametersMapper" as PM {
+toDto(listParameters)
+toModel (list <parametersDto>)
}

class "TestStore" as TS {
+createTest(tt, parameters,citizenID, nhsCode)
+saveTest(test)
+validateTest(test)
+addTest(test)
}

class "Test" as T {
-description
-code
-nhsCode
-collectDateTime
-chemicalAnalysisDateTime
-diagnosisDateTime
-validationDateTime
+Test(tt, parameters, citizenID, nhsCode)
+generateCode()
}

RTUI ..> RTC
RTC ..> CS
RTC ..> CM
RTC ..> C
RTC ..> TTS
RTC ..> TTM
RTC ..> PS
RTC ..> PM
RTC ..> TS
TS ..> T


@enduml

@startuml

skinparam classAttributeIconSize 0
left to right direction

class "RegisterTestUI" as RTUI

class "RegisterTestController" as RTC {
+getClient(citizenID)
+getAllTestType()
+getAllParametersByTestType(testTypeDto)
+createTest(list <parametersDto>, testTypeDto, citizenID, nhsCode)
+saveTest(test)
}

class "Company" as C {
-designation
+getClientStore()
+getTestTypeStore()
+getParametersStore()
+getTestStore()
}

class "ClientStore" as CS {
+getClient(citizenID)
}

class "ClientMapper" as CM {
+toDto(cl)
}

class "TestTypeStore" as TTS {
+getAllTestType()
}

class "TestTypeMapper" as TTM {
+toDto(listTestType)
}

class "ParametersStore" as PS {
+getAllParametersByTestType(testTypeDto)
}

class "ParametersMapper" as PM {
+toDto(listParameters)
+toModel (list <parametersDto>)
}

class "TestStore" as TS {
+createTest(tt, parameters,citizenID, nhsCode)
+saveTest(test)
+validateTest(test)
+addTest(test)
}

class "Test" as T {
-description
-code
-nhsCode
-collectDateTime
-chemicalAnalysisDateTime
-diagnosisDateTime
-validationDateTime
+Test(tt, parameters, citizenID, nhsCode)
+generateCode()
}

RTUI ..> RTC
RTC ..> CS
RTC ..> CM
RTC ..> C
RTC ..> TTS
RTC ..> TTM
RTC ..> PS
RTC ..> PM
RTC ..> TS
TS ..> T


@enduml

PlantUML version 1.2021.4(Sun Apr 04 09:49:39 BST 2021)
(GPL source distribution)
Java Runtime: OpenJDK Runtime Environment
JVM: OpenJDK 64-Bit Server VM
Default Encoding: Cp1252
Language: pt
Country: PT
--></g></svg>