<?xml version="1.0" encoding="UTF-8" standalone="no"?><svg xmlns="http://www.w3.org/2000/svg" xmlns:xlink="http://www.w3.org/1999/xlink" contentScriptType="application/ecmascript" contentStyleType="text/css" height="1150px" preserveAspectRatio="none" style="width:1374px;height:1150px;" version="1.1" viewBox="0 0 1374 1150" width="1374px" zoomAndPan="magnify"><defs><filter height="300%" id="f19g87l6yysc9p" width="300%" x="-1" y="-1"><feGaussianBlur result="blurOut" stdDeviation="2.0"/><feColorMatrix in="blurOut" result="blurOut2" type="matrix" values="0 0 0 0 0 0 0 0 0 0 0 0 0 0 0 0 0 0 .4 0"/><feOffset dx="4.0" dy="4.0" in="blurOut2" result="blurOut3"/><feBlend in="SourceGraphic" in2="blurOut3" mode="normal"/></filter></defs><g><!--MD5=[43142ed302a6cc9ae965019424b4d408]
class RTUI--><rect codeLine="6" fill="#FEFECE" filter="url(#f19g87l6yysc9p)" height="48" id="RTUI" style="stroke:#A80036;stroke-width:1.5;" width="115" x="7" y="530.5"/><ellipse cx="22" cy="546.5" fill="#ADD1B2" rx="11" ry="11" style="stroke:#A80036;stroke-width:1.0;"/><path d="M24,543 Q24.2031,542.5 24.4375,542.25 Q24.6719,542 24.9375,542 Q25.4063,542 25.7031,542.2813 Q26,542.5625 26,543.2188 L26,544.7813 Q26,545.4375 25.7188,545.7188 Q25.4375,546 25,546 Q24.6094,546 24.3594,545.8281 Q24.1094,545.6563 24,545.2031 Q23.9531,544.8906 23.7813,544.7188 Q23.4688,544.3906 22.9063,544.2031 Q22.3438,544 21.7813,544 Q21.0781,544 20.4844,544.2813 Q19.9063,544.5625 19.4531,545.1875 Q19,545.8125 19,546.6719 L19,547.5938 Q19,548.625 19.8438,549.3125 Q20.6875,550 22.1875,550 Q23.0781,550 23.7031,549.7969 Q24.0625,549.6875 24.4688,549.3281 Q24.7344,549.125 24.875,549.0625 Q25.0156,549 25.1875,549 Q25.5156,549 25.75,549.2656 Q26,549.5156 26,549.875 Q26,550.2188 25.6563,550.625 Q25.1563,551.2188 24.3594,551.5469 Q23.3125,552 22.0313,552 Q20.5313,552 19.3281,551.4063 Q18.3594,550.9375 17.6719,549.9219 Q17,548.9063 17,547.7031 L17,546.6094 Q17,545.3594 17.5938,544.2656 Q18.2031,543.1719 19.25,542.5938 Q20.3125,542 21.5,542 Q22.2188,542 22.8438,542.25 Q23.4688,542.5 24,543 Z " fill="#000000"/><text fill="#000000" font-family="sans-serif" font-size="12" lengthAdjust="spacing" textLength="83" x="36" y="551.4102">RegisterTestUI</text><line style="stroke:#A80036;stroke-width:1.5;" x1="8" x2="121" y1="562.5" y2="562.5"/><line style="stroke:#A80036;stroke-width:1.5;" x1="8" x2="121" y1="570.5" y2="570.5"/><!--MD5=[fc745cbb6189e890294da62cd777863a]
class RTC--><rect codeLine="8" fill="#FEFECE" filter="url(#f19g87l6yysc9p)" height="131.0156" id="RTC" style="stroke:#A80036;stroke-width:1.5;" width="429" x="182" y="489"/><ellipse cx="329.75" cy="505" fill="#ADD1B2" rx="11" ry="11" style="stroke:#A80036;stroke-width:1.0;"/><path d="M331.75,501.5 Q331.9531,501 332.1875,500.75 Q332.4219,500.5 332.6875,500.5 Q333.1563,500.5 333.4531,500.7813 Q333.75,501.0625 333.75,501.7188 L333.75,503.2813 Q333.75,503.9375 333.4688,504.2188 Q333.1875,504.5 332.75,504.5 Q332.3594,504.5 332.1094,504.3281 Q331.8594,504.1563 331.75,503.7031 Q331.7031,503.3906 331.5313,503.2188 Q331.2188,502.8906 330.6563,502.7031 Q330.0938,502.5 329.5313,502.5 Q328.8281,502.5 328.2344,502.7813 Q327.6563,503.0625 327.2031,503.6875 Q326.75,504.3125 326.75,505.1719 L326.75,506.0938 Q326.75,507.125 327.5938,507.8125 Q328.4375,508.5 329.9375,508.5 Q330.8281,508.5 331.4531,508.2969 Q331.8125,508.1875 332.2188,507.8281 Q332.4844,507.625 332.625,507.5625 Q332.7656,507.5 332.9375,507.5 Q333.2656,507.5 333.5,507.7656 Q333.75,508.0156 333.75,508.375 Q333.75,508.7188 333.4063,509.125 Q332.9063,509.7188 332.1094,510.0469 Q331.0625,510.5 329.7813,510.5 Q328.2813,510.5 327.0781,509.9063 Q326.1094,509.4375 325.4219,508.4219 Q324.75,507.4063 324.75,506.2031 L324.75,505.1094 Q324.75,503.8594 325.3438,502.7656 Q325.9531,501.6719 327,501.0938 Q328.0625,500.5 329.25,500.5 Q329.9688,500.5 330.5938,500.75 Q331.2188,501 331.75,501.5 Z " fill="#000000"/><text fill="#000000" font-family="sans-serif" font-size="12" lengthAdjust="spacing" textLength="125" x="350.25" y="509.9102">RegisterTestController</text><line style="stroke:#A80036;stroke-width:1.5;" x1="183" x2="610" y1="521" y2="521"/><line style="stroke:#A80036;stroke-width:1.5;" x1="183" x2="610" y1="529" y2="529"/><text fill="#000000" font-family="sans-serif" font-size="11" lengthAdjust="spacing" textLength="70" x="188" y="544.4189">+getClient(TIN)</text><text fill="#000000" font-family="sans-serif" font-size="11" lengthAdjust="spacing" textLength="86" x="188" y="558.2549">+getAllTestType()</text><text fill="#000000" font-family="sans-serif" font-size="11" lengthAdjust="spacing" textLength="258" x="188" y="572.0908">+getAllParameterCategoriesByTestType(testTypeDto)</text><text fill="#000000" font-family="sans-serif" font-size="11" lengthAdjust="spacing" textLength="332" x="188" y="585.9268">+getAllParametersByParameterCategory(listParameterCategoriesDto)</text><text fill="#000000" font-family="sans-serif" font-size="11" lengthAdjust="spacing" textLength="417" x="188" y="599.7627">+createTest(listParametersDto, tesTypeDto, listParameterCategoriesDto, TIN, nhsCode)</text><text fill="#000000" font-family="sans-serif" font-size="11" lengthAdjust="spacing" textLength="77" x="188" y="613.5986">+saveTest(test)</text><!--MD5=[378b18254a1b2429f435e93f5e5cc50c]
class C--><rect codeLine="17" fill="#FEFECE" filter="url(#f19g87l6yysc9p)" height="131.0156" id="C" style="stroke:#A80036;stroke-width:1.5;" width="160" x="760" y="7"/><ellipse cx="809.25" cy="23" fill="#ADD1B2" rx="11" ry="11" style="stroke:#A80036;stroke-width:1.0;"/><path d="M811.25,19.5 Q811.4531,19 811.6875,18.75 Q811.9219,18.5 812.1875,18.5 Q812.6563,18.5 812.9531,18.7813 Q813.25,19.0625 813.25,19.7188 L813.25,21.2813 Q813.25,21.9375 812.9688,22.2188 Q812.6875,22.5 812.25,22.5 Q811.8594,22.5 811.6094,22.3281 Q811.3594,22.1563 811.25,21.7031 Q811.2031,21.3906 811.0313,21.2188 Q810.7188,20.8906 810.1563,20.7031 Q809.5938,20.5 809.0313,20.5 Q808.3281,20.5 807.7344,20.7813 Q807.1563,21.0625 806.7031,21.6875 Q806.25,22.3125 806.25,23.1719 L806.25,24.0938 Q806.25,25.125 807.0938,25.8125 Q807.9375,26.5 809.4375,26.5 Q810.3281,26.5 810.9531,26.2969 Q811.3125,26.1875 811.7188,25.8281 Q811.9844,25.625 812.125,25.5625 Q812.2656,25.5 812.4375,25.5 Q812.7656,25.5 813,25.7656 Q813.25,26.0156 813.25,26.375 Q813.25,26.7188 812.9063,27.125 Q812.4063,27.7188 811.6094,28.0469 Q810.5625,28.5 809.2813,28.5 Q807.7813,28.5 806.5781,27.9063 Q805.6094,27.4375 804.9219,26.4219 Q804.25,25.4063 804.25,24.2031 L804.25,23.1094 Q804.25,21.8594 804.8438,20.7656 Q805.4531,19.6719 806.5,19.0938 Q807.5625,18.5 808.75,18.5 Q809.4688,18.5 810.0938,18.75 Q810.7188,19 811.25,19.5 Z " fill="#000000"/><text fill="#000000" font-family="sans-serif" font-size="12" lengthAdjust="spacing" textLength="53" x="829.75" y="27.9102">Company</text><line style="stroke:#A80036;stroke-width:1.5;" x1="761" x2="919" y1="39" y2="39"/><text fill="#000000" font-family="sans-serif" font-size="11" lengthAdjust="spacing" textLength="59" x="766" y="54.4189">-designation</text><line style="stroke:#A80036;stroke-width:1.5;" x1="761" x2="919" y1="60.8359" y2="60.8359"/><text fill="#000000" font-family="sans-serif" font-size="11" lengthAdjust="spacing" textLength="81" x="766" y="76.2549">+getClientStore()</text><text fill="#000000" font-family="sans-serif" font-size="11" lengthAdjust="spacing" textLength="100" x="766" y="90.0908">+getTestTypeStore()</text><text fill="#000000" font-family="sans-serif" font-size="11" lengthAdjust="spacing" textLength="148" x="766" y="103.9268">+getParameterCategoryStore()</text><text fill="#000000" font-family="sans-serif" font-size="11" lengthAdjust="spacing" textLength="110" x="766" y="117.7627">+getParametersStore()</text><text fill="#000000" font-family="sans-serif" font-size="11" lengthAdjust="spacing" textLength="76" x="766" y="131.5986">+getTestStore()</text><!--MD5=[d68c9369472fd2c8081ca2424f4233ba]
class CS--><rect codeLine="26" fill="#FEFECE" filter="url(#f19g87l6yysc9p)" height="61.8359" id="CS" style="stroke:#A80036;stroke-width:1.5;" width="93" x="793.5" y="173.5"/><ellipse cx="808.5" cy="189.5" fill="#ADD1B2" rx="11" ry="11" style="stroke:#A80036;stroke-width:1.0;"/><path d="M810.5,186 Q810.7031,185.5 810.9375,185.25 Q811.1719,185 811.4375,185 Q811.9063,185 812.2031,185.2813 Q812.5,185.5625 812.5,186.2188 L812.5,187.7813 Q812.5,188.4375 812.2188,188.7188 Q811.9375,189 811.5,189 Q811.1094,189 810.8594,188.8281 Q810.6094,188.6563 810.5,188.2031 Q810.4531,187.8906 810.2813,187.7188 Q809.9688,187.3906 809.4063,187.2031 Q808.8438,187 808.2813,187 Q807.5781,187 806.9844,187.2813 Q806.4063,187.5625 805.9531,188.1875 Q805.5,188.8125 805.5,189.6719 L805.5,190.5938 Q805.5,191.625 806.3438,192.3125 Q807.1875,193 808.6875,193 Q809.5781,193 810.2031,192.7969 Q810.5625,192.6875 810.9688,192.3281 Q811.2344,192.125 811.375,192.0625 Q811.5156,192 811.6875,192 Q812.0156,192 812.25,192.2656 Q812.5,192.5156 812.5,192.875 Q812.5,193.2188 812.1563,193.625 Q811.6563,194.2188 810.8594,194.5469 Q809.8125,195 808.5313,195 Q807.0313,195 805.8281,194.4063 Q804.8594,193.9375 804.1719,192.9219 Q803.5,191.9063 803.5,190.7031 L803.5,189.6094 Q803.5,188.3594 804.0938,187.2656 Q804.7031,186.1719 805.75,185.5938 Q806.8125,185 808,185 Q808.7188,185 809.3438,185.25 Q809.9688,185.5 810.5,186 Z " fill="#000000"/><text fill="#000000" font-family="sans-serif" font-size="12" lengthAdjust="spacing" textLength="61" x="822.5" y="194.4102">ClientStore</text><line style="stroke:#A80036;stroke-width:1.5;" x1="794.5" x2="885.5" y1="205.5" y2="205.5"/><line style="stroke:#A80036;stroke-width:1.5;" x1="794.5" x2="885.5" y1="213.5" y2="213.5"/><text fill="#000000" font-family="sans-serif" font-size="11" lengthAdjust="spacing" textLength="70" x="799.5" y="228.9189">+getClient(TIN)</text><!--MD5=[922d291f43d024f1166d0eae9b0ee0bb]
class CM--><rect codeLine="30" fill="#FEFECE" filter="url(#f19g87l6yysc9p)" height="61.8359" id="CM" style="stroke:#A80036;stroke-width:1.5;" width="105" x="787.5" y="270.5"/><ellipse cx="802.5" cy="286.5" fill="#ADD1B2" rx="11" ry="11" style="stroke:#A80036;stroke-width:1.0;"/><path d="M804.5,283 Q804.7031,282.5 804.9375,282.25 Q805.1719,282 805.4375,282 Q805.9063,282 806.2031,282.2813 Q806.5,282.5625 806.5,283.2188 L806.5,284.7813 Q806.5,285.4375 806.2188,285.7188 Q805.9375,286 805.5,286 Q805.1094,286 804.8594,285.8281 Q804.6094,285.6563 804.5,285.2031 Q804.4531,284.8906 804.2813,284.7188 Q803.9688,284.3906 803.4063,284.2031 Q802.8438,284 802.2813,284 Q801.5781,284 800.9844,284.2813 Q800.4063,284.5625 799.9531,285.1875 Q799.5,285.8125 799.5,286.6719 L799.5,287.5938 Q799.5,288.625 800.3438,289.3125 Q801.1875,290 802.6875,290 Q803.5781,290 804.2031,289.7969 Q804.5625,289.6875 804.9688,289.3281 Q805.2344,289.125 805.375,289.0625 Q805.5156,289 805.6875,289 Q806.0156,289 806.25,289.2656 Q806.5,289.5156 806.5,289.875 Q806.5,290.2188 806.1563,290.625 Q805.6563,291.2188 804.8594,291.5469 Q803.8125,292 802.5313,292 Q801.0313,292 799.8281,291.4063 Q798.8594,290.9375 798.1719,289.9219 Q797.5,288.9063 797.5,287.7031 L797.5,286.6094 Q797.5,285.3594 798.0938,284.2656 Q798.7031,283.1719 799.75,282.5938 Q800.8125,282 802,282 Q802.7188,282 803.3438,282.25 Q803.9688,282.5 804.5,283 Z " fill="#000000"/><text fill="#000000" font-family="sans-serif" font-size="12" lengthAdjust="spacing" textLength="73" x="816.5" y="291.4102">ClientMapper</text><line style="stroke:#A80036;stroke-width:1.5;" x1="788.5" x2="891.5" y1="302.5" y2="302.5"/><line style="stroke:#A80036;stroke-width:1.5;" x1="788.5" x2="891.5" y1="310.5" y2="310.5"/><text fill="#000000" font-family="sans-serif" font-size="11" lengthAdjust="spacing" textLength="47" x="793.5" y="325.9189">+toDto(cl)</text><!--MD5=[0c21d7a5a5555e4278001068caacbd33]
class TTS--><rect codeLine="34" fill="#FEFECE" filter="url(#f19g87l6yysc9p)" height="61.8359" id="TTS" style="stroke:#A80036;stroke-width:1.5;" width="111" x="784.5" y="367.5"/><ellipse cx="799.5" cy="383.5" fill="#ADD1B2" rx="11" ry="11" style="stroke:#A80036;stroke-width:1.0;"/><path d="M801.5,380 Q801.7031,379.5 801.9375,379.25 Q802.1719,379 802.4375,379 Q802.9063,379 803.2031,379.2813 Q803.5,379.5625 803.5,380.2188 L803.5,381.7813 Q803.5,382.4375 803.2188,382.7188 Q802.9375,383 802.5,383 Q802.1094,383 801.8594,382.8281 Q801.6094,382.6563 801.5,382.2031 Q801.4531,381.8906 801.2813,381.7188 Q800.9688,381.3906 800.4063,381.2031 Q799.8438,381 799.2813,381 Q798.5781,381 797.9844,381.2813 Q797.4063,381.5625 796.9531,382.1875 Q796.5,382.8125 796.5,383.6719 L796.5,384.5938 Q796.5,385.625 797.3438,386.3125 Q798.1875,387 799.6875,387 Q800.5781,387 801.2031,386.7969 Q801.5625,386.6875 801.9688,386.3281 Q802.2344,386.125 802.375,386.0625 Q802.5156,386 802.6875,386 Q803.0156,386 803.25,386.2656 Q803.5,386.5156 803.5,386.875 Q803.5,387.2188 803.1563,387.625 Q802.6563,388.2188 801.8594,388.5469 Q800.8125,389 799.5313,389 Q798.0313,389 796.8281,388.4063 Q795.8594,387.9375 795.1719,386.9219 Q794.5,385.9063 794.5,384.7031 L794.5,383.6094 Q794.5,382.3594 795.0938,381.2656 Q795.7031,380.1719 796.75,379.5938 Q797.8125,379 799,379 Q799.7188,379 800.3438,379.25 Q800.9688,379.5 801.5,380 Z " fill="#000000"/><text fill="#000000" font-family="sans-serif" font-size="12" lengthAdjust="spacing" textLength="79" x="813.5" y="388.4102">TestTypeStore</text><line style="stroke:#A80036;stroke-width:1.5;" x1="785.5" x2="894.5" y1="399.5" y2="399.5"/><line style="stroke:#A80036;stroke-width:1.5;" x1="785.5" x2="894.5" y1="407.5" y2="407.5"/><text fill="#000000" font-family="sans-serif" font-size="11" lengthAdjust="spacing" textLength="86" x="790.5" y="422.9189">+getAllTestType()</text><!--MD5=[827c14b304fb6bf676224a1fb38ec02f]
class TTM--><rect codeLine="38" fill="#FEFECE" filter="url(#f19g87l6yysc9p)" height="75.6719" id="TTM" style="stroke:#A80036;stroke-width:1.5;" width="123" x="778.5" y="464.5"/><ellipse cx="793.5" cy="480.5" fill="#ADD1B2" rx="11" ry="11" style="stroke:#A80036;stroke-width:1.0;"/><path d="M795.5,477 Q795.7031,476.5 795.9375,476.25 Q796.1719,476 796.4375,476 Q796.9063,476 797.2031,476.2813 Q797.5,476.5625 797.5,477.2188 L797.5,478.7813 Q797.5,479.4375 797.2188,479.7188 Q796.9375,480 796.5,480 Q796.1094,480 795.8594,479.8281 Q795.6094,479.6563 795.5,479.2031 Q795.4531,478.8906 795.2813,478.7188 Q794.9688,478.3906 794.4063,478.2031 Q793.8438,478 793.2813,478 Q792.5781,478 791.9844,478.2813 Q791.4063,478.5625 790.9531,479.1875 Q790.5,479.8125 790.5,480.6719 L790.5,481.5938 Q790.5,482.625 791.3438,483.3125 Q792.1875,484 793.6875,484 Q794.5781,484 795.2031,483.7969 Q795.5625,483.6875 795.9688,483.3281 Q796.2344,483.125 796.375,483.0625 Q796.5156,483 796.6875,483 Q797.0156,483 797.25,483.2656 Q797.5,483.5156 797.5,483.875 Q797.5,484.2188 797.1563,484.625 Q796.6563,485.2188 795.8594,485.5469 Q794.8125,486 793.5313,486 Q792.0313,486 790.8281,485.4063 Q789.8594,484.9375 789.1719,483.9219 Q788.5,482.9063 788.5,481.7031 L788.5,480.6094 Q788.5,479.3594 789.0938,478.2656 Q789.7031,477.1719 790.75,476.5938 Q791.8125,476 793,476 Q793.7188,476 794.3438,476.25 Q794.9688,476.5 795.5,477 Z " fill="#000000"/><text fill="#000000" font-family="sans-serif" font-size="12" lengthAdjust="spacing" textLength="91" x="807.5" y="485.4102">TestTypeMapper</text><line style="stroke:#A80036;stroke-width:1.5;" x1="779.5" x2="900.5" y1="496.5" y2="496.5"/><line style="stroke:#A80036;stroke-width:1.5;" x1="779.5" x2="900.5" y1="504.5" y2="504.5"/><text fill="#000000" font-family="sans-serif" font-size="11" lengthAdjust="spacing" textLength="97" x="784.5" y="519.9189">+toDto(listTestType)</text><text fill="#000000" font-family="sans-serif" font-size="11" lengthAdjust="spacing" textLength="109" x="784.5" y="533.7549">+toModel(testTypeDto)</text><!--MD5=[2628f93c2b91159b8b11117185f029f9]
class PCS--><rect codeLine="43" fill="#FEFECE" filter="url(#f19g87l6yysc9p)" height="61.8359" id="PCS" style="stroke:#A80036;stroke-width:1.5;" width="270" x="705" y="575.5"/><ellipse cx="767.75" cy="591.5" fill="#ADD1B2" rx="11" ry="11" style="stroke:#A80036;stroke-width:1.0;"/><path d="M769.75,588 Q769.9531,587.5 770.1875,587.25 Q770.4219,587 770.6875,587 Q771.1563,587 771.4531,587.2813 Q771.75,587.5625 771.75,588.2188 L771.75,589.7813 Q771.75,590.4375 771.4688,590.7188 Q771.1875,591 770.75,591 Q770.3594,591 770.1094,590.8281 Q769.8594,590.6563 769.75,590.2031 Q769.7031,589.8906 769.5313,589.7188 Q769.2188,589.3906 768.6563,589.2031 Q768.0938,589 767.5313,589 Q766.8281,589 766.2344,589.2813 Q765.6563,589.5625 765.2031,590.1875 Q764.75,590.8125 764.75,591.6719 L764.75,592.5938 Q764.75,593.625 765.5938,594.3125 Q766.4375,595 767.9375,595 Q768.8281,595 769.4531,594.7969 Q769.8125,594.6875 770.2188,594.3281 Q770.4844,594.125 770.625,594.0625 Q770.7656,594 770.9375,594 Q771.2656,594 771.5,594.2656 Q771.75,594.5156 771.75,594.875 Q771.75,595.2188 771.4063,595.625 Q770.9063,596.2188 770.1094,596.5469 Q769.0625,597 767.7813,597 Q766.2813,597 765.0781,596.4063 Q764.1094,595.9375 763.4219,594.9219 Q762.75,593.9063 762.75,592.7031 L762.75,591.6094 Q762.75,590.3594 763.3438,589.2656 Q763.9531,588.1719 765,587.5938 Q766.0625,587 767.25,587 Q767.9688,587 768.5938,587.25 Q769.2188,587.5 769.75,588 Z " fill="#000000"/><text fill="#000000" font-family="sans-serif" font-size="12" lengthAdjust="spacing" textLength="136" x="788.25" y="596.4102">ParameterCategoryStore</text><line style="stroke:#A80036;stroke-width:1.5;" x1="706" x2="974" y1="607.5" y2="607.5"/><line style="stroke:#A80036;stroke-width:1.5;" x1="706" x2="974" y1="615.5" y2="615.5"/><text fill="#000000" font-family="sans-serif" font-size="11" lengthAdjust="spacing" textLength="258" x="711" y="630.9189">+getAllParameterCategoriesByTestType(testTypeDto)</text><!--MD5=[35eb6e59b8d066eb49939b94ef530849]
class PCM--><rect codeLine="47" fill="#FEFECE" filter="url(#f19g87l6yysc9p)" height="75.6719" id="PCM" style="stroke:#A80036;stroke-width:1.5;" width="193" x="743.5" y="672.5"/><ellipse cx="764.35" cy="688.5" fill="#ADD1B2" rx="11" ry="11" style="stroke:#A80036;stroke-width:1.0;"/><path d="M766.35,685 Q766.5531,684.5 766.7875,684.25 Q767.0219,684 767.2875,684 Q767.7563,684 768.0531,684.2813 Q768.35,684.5625 768.35,685.2188 L768.35,686.7813 Q768.35,687.4375 768.0688,687.7188 Q767.7875,688 767.35,688 Q766.9594,688 766.7094,687.8281 Q766.4594,687.6563 766.35,687.2031 Q766.3031,686.8906 766.1313,686.7188 Q765.8188,686.3906 765.2563,686.2031 Q764.6938,686 764.1313,686 Q763.4281,686 762.8344,686.2813 Q762.2563,686.5625 761.8031,687.1875 Q761.35,687.8125 761.35,688.6719 L761.35,689.5938 Q761.35,690.625 762.1938,691.3125 Q763.0375,692 764.5375,692 Q765.4281,692 766.0531,691.7969 Q766.4125,691.6875 766.8188,691.3281 Q767.0844,691.125 767.225,691.0625 Q767.3656,691 767.5375,691 Q767.8656,691 768.1,691.2656 Q768.35,691.5156 768.35,691.875 Q768.35,692.2188 768.0063,692.625 Q767.5063,693.2188 766.7094,693.5469 Q765.6625,694 764.3813,694 Q762.8813,694 761.6781,693.4063 Q760.7094,692.9375 760.0219,691.9219 Q759.35,690.9063 759.35,689.7031 L759.35,688.6094 Q759.35,687.3594 759.9438,686.2656 Q760.5531,685.1719 761.6,684.5938 Q762.6625,684 763.85,684 Q764.5688,684 765.1938,684.25 Q765.8188,684.5 766.35,685 Z " fill="#000000"/><text fill="#000000" font-family="sans-serif" font-size="12" lengthAdjust="spacing" textLength="148" x="779.65" y="693.4102">ParameterCategoryMapper</text><line style="stroke:#A80036;stroke-width:1.5;" x1="744.5" x2="935.5" y1="704.5" y2="704.5"/><line style="stroke:#A80036;stroke-width:1.5;" x1="744.5" x2="935.5" y1="712.5" y2="712.5"/><text fill="#000000" font-family="sans-serif" font-size="11" lengthAdjust="spacing" textLength="153" x="749.5" y="727.9189">+toDto(listParameterCategories)</text><text fill="#000000" font-family="sans-serif" font-size="11" lengthAdjust="spacing" textLength="181" x="749.5" y="741.7549">+toModel(listParameterCategoriesDto)</text><!--MD5=[7372bbf51d55cfb0901280a97d9d0909]
class PS--><rect codeLine="52" fill="#FEFECE" filter="url(#f19g87l6yysc9p)" height="61.8359" id="PS" style="stroke:#A80036;stroke-width:1.5;" width="338" x="671" y="783.5"/><ellipse cx="788.75" cy="799.5" fill="#ADD1B2" rx="11" ry="11" style="stroke:#A80036;stroke-width:1.0;"/><path d="M790.75,796 Q790.9531,795.5 791.1875,795.25 Q791.4219,795 791.6875,795 Q792.1563,795 792.4531,795.2813 Q792.75,795.5625 792.75,796.2188 L792.75,797.7813 Q792.75,798.4375 792.4688,798.7188 Q792.1875,799 791.75,799 Q791.3594,799 791.1094,798.8281 Q790.8594,798.6563 790.75,798.2031 Q790.7031,797.8906 790.5313,797.7188 Q790.2188,797.3906 789.6563,797.2031 Q789.0938,797 788.5313,797 Q787.8281,797 787.2344,797.2813 Q786.6563,797.5625 786.2031,798.1875 Q785.75,798.8125 785.75,799.6719 L785.75,800.5938 Q785.75,801.625 786.5938,802.3125 Q787.4375,803 788.9375,803 Q789.8281,803 790.4531,802.7969 Q790.8125,802.6875 791.2188,802.3281 Q791.4844,802.125 791.625,802.0625 Q791.7656,802 791.9375,802 Q792.2656,802 792.5,802.2656 Q792.75,802.5156 792.75,802.875 Q792.75,803.2188 792.4063,803.625 Q791.9063,804.2188 791.1094,804.5469 Q790.0625,805 788.7813,805 Q787.2813,805 786.0781,804.4063 Q785.1094,803.9375 784.4219,802.9219 Q783.75,801.9063 783.75,800.7031 L783.75,799.6094 Q783.75,798.3594 784.3438,797.2656 Q784.9531,796.1719 786,795.5938 Q787.0625,795 788.25,795 Q788.9688,795 789.5938,795.25 Q790.2188,795.5 790.75,796 Z " fill="#000000"/><text fill="#000000" font-family="sans-serif" font-size="12" lengthAdjust="spacing" textLength="94" x="809.25" y="804.4102">ParametersStore</text><line style="stroke:#A80036;stroke-width:1.5;" x1="672" x2="1008" y1="815.5" y2="815.5"/><line style="stroke:#A80036;stroke-width:1.5;" x1="672" x2="1008" y1="823.5" y2="823.5"/><text fill="#000000" font-family="sans-serif" font-size="11" lengthAdjust="spacing" textLength="326" x="677" y="838.9189">getAllParametersByParameterCategory(listParameterCategoriesDto)</text><!--MD5=[ce26f7d1346c61756d71df2e3432b601]
class PM--><rect codeLine="56" fill="#FEFECE" filter="url(#f19g87l6yysc9p)" height="75.6719" id="PM" style="stroke:#A80036;stroke-width:1.5;" width="147" x="766.5" y="880.5"/><ellipse cx="785.55" cy="896.5" fill="#ADD1B2" rx="11" ry="11" style="stroke:#A80036;stroke-width:1.0;"/><path d="M787.55,893 Q787.7531,892.5 787.9875,892.25 Q788.2219,892 788.4875,892 Q788.9563,892 789.2531,892.2813 Q789.55,892.5625 789.55,893.2188 L789.55,894.7813 Q789.55,895.4375 789.2688,895.7188 Q788.9875,896 788.55,896 Q788.1594,896 787.9094,895.8281 Q787.6594,895.6563 787.55,895.2031 Q787.5031,894.8906 787.3313,894.7188 Q787.0188,894.3906 786.4563,894.2031 Q785.8938,894 785.3313,894 Q784.6281,894 784.0344,894.2813 Q783.4563,894.5625 783.0031,895.1875 Q782.55,895.8125 782.55,896.6719 L782.55,897.5938 Q782.55,898.625 783.3938,899.3125 Q784.2375,900 785.7375,900 Q786.6281,900 787.2531,899.7969 Q787.6125,899.6875 788.0188,899.3281 Q788.2844,899.125 788.425,899.0625 Q788.5656,899 788.7375,899 Q789.0656,899 789.3,899.2656 Q789.55,899.5156 789.55,899.875 Q789.55,900.2188 789.2063,900.625 Q788.7063,901.2188 787.9094,901.5469 Q786.8625,902 785.5813,902 Q784.0813,902 782.8781,901.4063 Q781.9094,900.9375 781.2219,899.9219 Q780.55,898.9063 780.55,897.7031 L780.55,896.6094 Q780.55,895.3594 781.1438,894.2656 Q781.7531,893.1719 782.8,892.5938 Q783.8625,892 785.05,892 Q785.7688,892 786.3938,892.25 Q787.0188,892.5 787.55,893 Z " fill="#000000"/><text fill="#000000" font-family="sans-serif" font-size="12" lengthAdjust="spacing" textLength="106" x="800.45" y="901.4102">ParametersMapper</text><line style="stroke:#A80036;stroke-width:1.5;" x1="767.5" x2="912.5" y1="912.5" y2="912.5"/><line style="stroke:#A80036;stroke-width:1.5;" x1="767.5" x2="912.5" y1="920.5" y2="920.5"/><text fill="#000000" font-family="sans-serif" font-size="11" lengthAdjust="spacing" textLength="107" x="772.5" y="935.9189">+toDto(listParameters)</text><text fill="#000000" font-family="sans-serif" font-size="11" lengthAdjust="spacing" textLength="135" x="772.5" y="949.7549">+toModel(listParametersDto)</text><!--MD5=[b0a1b9137b50b50b320b426f68562434]
class TS--><rect codeLine="61" fill="#FEFECE" filter="url(#f19g87l6yysc9p)" height="103.3438" id="TS" style="stroke:#A80036;stroke-width:1.5;" width="319" x="680.5" y="992"/><ellipse cx="809.25" cy="1008" fill="#ADD1B2" rx="11" ry="11" style="stroke:#A80036;stroke-width:1.0;"/><path d="M811.25,1004.5 Q811.4531,1004 811.6875,1003.75 Q811.9219,1003.5 812.1875,1003.5 Q812.6563,1003.5 812.9531,1003.7813 Q813.25,1004.0625 813.25,1004.7188 L813.25,1006.2813 Q813.25,1006.9375 812.9688,1007.2188 Q812.6875,1007.5 812.25,1007.5 Q811.8594,1007.5 811.6094,1007.3281 Q811.3594,1007.1563 811.25,1006.7031 Q811.2031,1006.3906 811.0313,1006.2188 Q810.7188,1005.8906 810.1563,1005.7031 Q809.5938,1005.5 809.0313,1005.5 Q808.3281,1005.5 807.7344,1005.7813 Q807.1563,1006.0625 806.7031,1006.6875 Q806.25,1007.3125 806.25,1008.1719 L806.25,1009.0938 Q806.25,1010.125 807.0938,1010.8125 Q807.9375,1011.5 809.4375,1011.5 Q810.3281,1011.5 810.9531,1011.2969 Q811.3125,1011.1875 811.7188,1010.8281 Q811.9844,1010.625 812.125,1010.5625 Q812.2656,1010.5 812.4375,1010.5 Q812.7656,1010.5 813,1010.7656 Q813.25,1011.0156 813.25,1011.375 Q813.25,1011.7188 812.9063,1012.125 Q812.4063,1012.7188 811.6094,1013.0469 Q810.5625,1013.5 809.2813,1013.5 Q807.7813,1013.5 806.5781,1012.9063 Q805.6094,1012.4375 804.9219,1011.4219 Q804.25,1010.4063 804.25,1009.2031 L804.25,1008.1094 Q804.25,1006.8594 804.8438,1005.7656 Q805.4531,1004.6719 806.5,1004.0938 Q807.5625,1003.5 808.75,1003.5 Q809.4688,1003.5 810.0938,1003.75 Q810.7188,1004 811.25,1004.5 Z " fill="#000000"/><text fill="#000000" font-family="sans-serif" font-size="12" lengthAdjust="spacing" textLength="53" x="829.75" y="1012.9102">TestStore</text><line style="stroke:#A80036;stroke-width:1.5;" x1="681.5" x2="998.5" y1="1024" y2="1024"/><line style="stroke:#A80036;stroke-width:1.5;" x1="681.5" x2="998.5" y1="1032" y2="1032"/><text fill="#000000" font-family="sans-serif" font-size="11" lengthAdjust="spacing" textLength="307" x="686.5" y="1047.4189">createTest (tt, parameters, parameterCategories, TIN, nhsCode)</text><text fill="#000000" font-family="sans-serif" font-size="11" lengthAdjust="spacing" textLength="77" x="686.5" y="1061.2549">+saveTest(test)</text><text fill="#000000" font-family="sans-serif" font-size="11" lengthAdjust="spacing" textLength="71" x="686.5" y="1075.0908">+hasTest(test)</text><text fill="#000000" font-family="sans-serif" font-size="11" lengthAdjust="spacing" textLength="71" x="686.5" y="1088.9268">+addTest(test)</text><!--MD5=[56e4c9075fa7c9f4c09ef0a20c49f72c]
class T--><rect codeLine="68" fill="#FEFECE" filter="url(#f19g87l6yysc9p)" height="186.3594" id="T" style="stroke:#A80036;stroke-width:1.5;" width="291" x="1069" y="950.5"/><ellipse cx="1198.25" cy="966.5" fill="#ADD1B2" rx="11" ry="11" style="stroke:#A80036;stroke-width:1.0;"/><path d="M1200.25,963 Q1200.4531,962.5 1200.6875,962.25 Q1200.9219,962 1201.1875,962 Q1201.6563,962 1201.9531,962.2813 Q1202.25,962.5625 1202.25,963.2188 L1202.25,964.7813 Q1202.25,965.4375 1201.9688,965.7188 Q1201.6875,966 1201.25,966 Q1200.8594,966 1200.6094,965.8281 Q1200.3594,965.6563 1200.25,965.2031 Q1200.2031,964.8906 1200.0313,964.7188 Q1199.7188,964.3906 1199.1563,964.2031 Q1198.5938,964 1198.0313,964 Q1197.3281,964 1196.7344,964.2813 Q1196.1563,964.5625 1195.7031,965.1875 Q1195.25,965.8125 1195.25,966.6719 L1195.25,967.5938 Q1195.25,968.625 1196.0938,969.3125 Q1196.9375,970 1198.4375,970 Q1199.3281,970 1199.9531,969.7969 Q1200.3125,969.6875 1200.7188,969.3281 Q1200.9844,969.125 1201.125,969.0625 Q1201.2656,969 1201.4375,969 Q1201.7656,969 1202,969.2656 Q1202.25,969.5156 1202.25,969.875 Q1202.25,970.2188 1201.9063,970.625 Q1201.4063,971.2188 1200.6094,971.5469 Q1199.5625,972 1198.2813,972 Q1196.7813,972 1195.5781,971.4063 Q1194.6094,970.9375 1193.9219,969.9219 Q1193.25,968.9063 1193.25,967.7031 L1193.25,966.6094 Q1193.25,965.3594 1193.8438,964.2656 Q1194.4531,963.1719 1195.5,962.5938 Q1196.5625,962 1197.75,962 Q1198.4688,962 1199.0938,962.25 Q1199.7188,962.5 1200.25,963 Z " fill="#000000"/><text fill="#000000" font-family="sans-serif" font-size="12" lengthAdjust="spacing" textLength="24" x="1218.75" y="971.4102">Test</text><line style="stroke:#A80036;stroke-width:1.5;" x1="1070" x2="1359" y1="982.5" y2="982.5"/><text fill="#000000" font-family="sans-serif" font-size="11" lengthAdjust="spacing" textLength="57" x="1075" y="997.9189">-description</text><text fill="#000000" font-family="sans-serif" font-size="11" lengthAdjust="spacing" textLength="28" x="1075" y="1011.7549">-code</text><text fill="#000000" font-family="sans-serif" font-size="11" lengthAdjust="spacing" textLength="47" x="1075" y="1025.5908">-nhsCode</text><text fill="#000000" font-family="sans-serif" font-size="11" lengthAdjust="spacing" textLength="79" x="1075" y="1039.4268">-collectDateTime</text><text fill="#000000" font-family="sans-serif" font-size="11" lengthAdjust="spacing" textLength="132" x="1075" y="1053.2627">-chemicalAnalysisDateTime</text><text fill="#000000" font-family="sans-serif" font-size="11" lengthAdjust="spacing" textLength="94" x="1075" y="1067.0986">-diagnosisDateTime</text><text fill="#000000" font-family="sans-serif" font-size="11" lengthAdjust="spacing" textLength="93" x="1075" y="1080.9346">-validationDateTime</text><line style="stroke:#A80036;stroke-width:1.5;" x1="1070" x2="1359" y1="1087.3516" y2="1087.3516"/><text fill="#000000" font-family="sans-serif" font-size="11" lengthAdjust="spacing" textLength="279" x="1075" y="1102.7705">+Test(tt, parameters, parameterCategories, TIN, nhsCode)</text><text fill="#000000" font-family="sans-serif" font-size="11" lengthAdjust="spacing" textLength="82" x="1075" y="1116.6064">+generateCode()</text><text fill="#000000" font-family="sans-serif" font-size="11" lengthAdjust="spacing" textLength="99" x="1075" y="1130.4424">+updateTestStatus()</text><!--MD5=[dd017b5786dc0eb98822586dade57035]
link RTUI to RTC--><path codeLine="81" d="M122.23,554.5 C138.37,554.5 156.98,554.5 176.75,554.5 " fill="none" id="RTUI-to-RTC" style="stroke:#A80036;stroke-width:1.0;stroke-dasharray:7.0,7.0;"/><polygon fill="#A80036" points="181.8,554.5,172.8,550.5,176.8,554.5,172.8,558.5,181.8,554.5" style="stroke:#A80036;stroke-width:1.0;"/><!--MD5=[73ffdb354b1fe2459a9ac1f820e25281]
link RTC to CS--><path codeLine="82" d="M440.14,488.95 C488.22,420.16 572.65,313.69 671,252.5 C706.84,230.2 753.36,217.96 788.35,211.43 " fill="none" id="RTC-to-CS" style="stroke:#A80036;stroke-width:1.0;stroke-dasharray:7.0,7.0;"/><polygon fill="#A80036" points="793.43,210.51,783.8644,208.165,788.5088,211.3944,785.2794,216.0388,793.43,210.51" style="stroke:#A80036;stroke-width:1.0;"/><!--MD5=[b1f25aab2c8cf6c0c810a50e101e7b90]
link RTC to CM--><path codeLine="83" d="M469.52,488.88 C522.03,444.08 596.72,386.37 671,349.5 C706.08,332.09 748.5,320.03 781.94,312.36 " fill="none" id="RTC-to-CM" style="stroke:#A80036;stroke-width:1.0;stroke-dasharray:7.0,7.0;"/><polygon fill="#A80036" points="787.22,311.16,777.56,309.2406,782.3428,312.2613,779.3221,317.0441,787.22,311.16" style="stroke:#A80036;stroke-width:1.0;"/><!--MD5=[92569abc02196c21c46e6d49c0fdf73f]
link RTC to C--><path codeLine="84" d="M428.97,488.86 C472.93,402.88 559.97,251.79 671,155.5 C695.61,134.16 726.68,116.81 755.38,103.6 " fill="none" id="RTC-to-C" style="stroke:#A80036;stroke-width:1.0;stroke-dasharray:7.0,7.0;"/><polygon fill="#A80036" points="759.96,101.52,750.1115,101.6028,755.4082,103.589,753.4219,108.8857,759.96,101.52" style="stroke:#A80036;stroke-width:1.0;"/><!--MD5=[b3a4147220c3f63b352828c1b1ed0293]
link RTC to TTS--><path codeLine="85" d="M555.97,488.89 C593.43,474.23 633.41,459.26 671,446.5 C706.58,434.42 747.06,422.8 779.37,414.01 " fill="none" id="RTC-to-TTS" style="stroke:#A80036;stroke-width:1.0;stroke-dasharray:7.0,7.0;"/><polygon fill="#A80036" points="784.49,412.62,774.7554,411.1241,779.6655,413.9332,776.8565,418.8433,784.49,412.62" style="stroke:#A80036;stroke-width:1.0;"/><!--MD5=[4d8b153a7b605fd6ac41ea413c086e67]
link RTC to TTM--><path codeLine="86" d="M611.14,529.34 C669.94,522.41 729.41,515.41 772.85,510.29 " fill="none" id="RTC-to-TTM" style="stroke:#A80036;stroke-width:1.0;stroke-dasharray:7.0,7.0;"/><polygon fill="#A80036" points="778.06,509.68,768.6538,506.7605,773.0943,510.265,769.5898,514.7056,778.06,509.68" style="stroke:#A80036;stroke-width:1.0;"/><!--MD5=[cb6d3a72df2deeb2db2aca591df9444a]
link RTC to PCS--><path codeLine="87" d="M611.14,579.66 C641.18,583.2 671.4,586.76 699.57,590.08 " fill="none" id="RTC-to-PCS" style="stroke:#A80036;stroke-width:1.0;stroke-dasharray:7.0,7.0;"/><polygon fill="#A80036" points="704.81,590.69,696.3398,585.6644,699.8443,590.105,695.4038,593.6095,704.81,590.69" style="stroke:#A80036;stroke-width:1.0;"/><!--MD5=[e804d6badd04a947ec0304eef7a15b2c]
link RTC to PCM--><path codeLine="88" d="M574.52,620.07 C606.57,631.7 639.74,643.58 671,654.5 C692.72,662.09 716.1,670.03 738.31,677.46 " fill="none" id="RTC-to-PCM" style="stroke:#A80036;stroke-width:1.0;stroke-dasharray:7.0,7.0;"/><polygon fill="#A80036" points="743.33,679.14,736.0628,672.4926,738.588,677.5546,733.5261,680.0798,743.33,679.14" style="stroke:#A80036;stroke-width:1.0;"/><!--MD5=[fe07df3723ce1e7554b8338206e6a440]
link RTC to PS--><path codeLine="89" d="M467.02,620.04 C519.51,666.41 595.23,726.97 671,765.5 C682.82,771.51 695.49,776.9 708.38,781.69 " fill="none" id="RTC-to-PS" style="stroke:#A80036;stroke-width:1.0;stroke-dasharray:7.0,7.0;"/><polygon fill="#A80036" points="713.14,783.43,706.0555,776.5882,708.4427,781.7167,703.3142,784.1039,713.14,783.43" style="stroke:#A80036;stroke-width:1.0;"/><!--MD5=[53ad67196b9718d138e4f8e9634b55e0]
link RTC to PM--><path codeLine="90" d="M440.15,620.22 C488.4,689.68 573.11,797.91 671,862.5 C698.05,880.35 731.3,892.99 761.07,901.69 " fill="none" id="RTC-to-PM" style="stroke:#A80036;stroke-width:1.0;stroke-dasharray:7.0,7.0;"/><polygon fill="#A80036" points="766.2,903.16,758.6452,896.8414,761.3924,901.7864,756.4474,904.5336,766.2,903.16" style="stroke:#A80036;stroke-width:1.0;"/><!--MD5=[8fb19c63ab7f2a290721248e38e8af22]
link RTC to TS--><path codeLine="91" d="M425.26,620.34 C466.56,711.15 552.27,874.78 671,973.5 C677.76,979.12 685.05,984.35 692.65,989.21 " fill="none" id="RTC-to-TS" style="stroke:#A80036;stroke-width:1.0;stroke-dasharray:7.0,7.0;"/><polygon fill="#A80036" points="696.91,991.87,691.3857,983.7164,692.666,989.2264,687.1559,990.5068,696.91,991.87" style="stroke:#A80036;stroke-width:1.0;"/><!--MD5=[0b037e5f89e300193b3080f69ffc7684]
link TS to T--><path codeLine="92" d="M999.51,1043.5 C1020.78,1043.5 1042.54,1043.5 1063.65,1043.5 " fill="none" id="TS-to-T" style="stroke:#A80036;stroke-width:1.0;stroke-dasharray:7.0,7.0;"/><polygon fill="#A80036" points="1068.71,1043.5,1059.71,1039.5,1063.71,1043.5,1059.71,1047.5,1068.71,1043.5" style="stroke:#A80036;stroke-width:1.0;"/><!--MD5=[4a970514ff15717f3fb580475f5a7fd5]
@startuml
'https://plantuml.com/class-diagram

skinparam classAttributeIconSize 0
left to right direction

class "RegisterTestUI" as RTUI

class "RegisterTestController" as RTC {
+getClient(TIN)
+getAllTestType()
+getAllParameterCategoriesByTestType(testTypeDto)
+getAllParametersByParameterCategory(listParameterCategoriesDto)
+createTest(listParametersDto, tesTypeDto, listParameterCategoriesDto, TIN, nhsCode)
+saveTest(test)
}

class "Company" as C {
-designation
+getClientStore()
+getTestTypeStore()
+getParameterCategoryStore()
+getParametersStore()
+getTestStore()
}

class "ClientStore" as CS {
+getClient(TIN)
}

class "ClientMapper" as CM {
+toDto(cl)
}

class "TestTypeStore" as TTS {
+getAllTestType()
}

class "TestTypeMapper" as TTM {
+toDto(listTestType)
+toModel(testTypeDto)
}

class "ParameterCategoryStore" as PCS {
+getAllParameterCategoriesByTestType(testTypeDto)
}

class "ParameterCategoryMapper" as PCM {
+toDto(listParameterCategories)
+toModel(listParameterCategoriesDto)
}

class "ParametersStore" as PS {
getAllParametersByParameterCategory(listParameterCategoriesDto)
}

class "ParametersMapper" as PM {
+toDto(listParameters)
+toModel(listParametersDto)
}

class "TestStore" as TS {
createTest (tt, parameters, parameterCategories, TIN, nhsCode)
+saveTest(test)
+hasTest(test)
+addTest(test)
}

class "Test" as T {
-description
-code
-nhsCode
-collectDateTime
-chemicalAnalysisDateTime
-diagnosisDateTime
-validationDateTime
+Test(tt, parameters, parameterCategories, TIN, nhsCode)
+generateCode()
+updateTestStatus()
}

RTUI ..> RTC
RTC ..> CS
RTC ..> CM
RTC ..> C
RTC ..> TTS
RTC ..> TTM
RTC ..> PCS
RTC ..> PCM
RTC ..> PS
RTC ..> PM
RTC ..> TS
TS ..> T


@enduml

@startuml

skinparam classAttributeIconSize 0
left to right direction

class "RegisterTestUI" as RTUI

class "RegisterTestController" as RTC {
+getClient(TIN)
+getAllTestType()
+getAllParameterCategoriesByTestType(testTypeDto)
+getAllParametersByParameterCategory(listParameterCategoriesDto)
+createTest(listParametersDto, tesTypeDto, listParameterCategoriesDto, TIN, nhsCode)
+saveTest(test)
}

class "Company" as C {
-designation
+getClientStore()
+getTestTypeStore()
+getParameterCategoryStore()
+getParametersStore()
+getTestStore()
}

class "ClientStore" as CS {
+getClient(TIN)
}

class "ClientMapper" as CM {
+toDto(cl)
}

class "TestTypeStore" as TTS {
+getAllTestType()
}

class "TestTypeMapper" as TTM {
+toDto(listTestType)
+toModel(testTypeDto)
}

class "ParameterCategoryStore" as PCS {
+getAllParameterCategoriesByTestType(testTypeDto)
}

class "ParameterCategoryMapper" as PCM {
+toDto(listParameterCategories)
+toModel(listParameterCategoriesDto)
}

class "ParametersStore" as PS {
getAllParametersByParameterCategory(listParameterCategoriesDto)
}

class "ParametersMapper" as PM {
+toDto(listParameters)
+toModel(listParametersDto)
}

class "TestStore" as TS {
createTest (tt, parameters, parameterCategories, TIN, nhsCode)
+saveTest(test)
+hasTest(test)
+addTest(test)
}

class "Test" as T {
-description
-code
-nhsCode
-collectDateTime
-chemicalAnalysisDateTime
-diagnosisDateTime
-validationDateTime
+Test(tt, parameters, parameterCategories, TIN, nhsCode)
+generateCode()
+updateTestStatus()
}

RTUI ..> RTC
RTC ..> CS
RTC ..> CM
RTC ..> C
RTC ..> TTS
RTC ..> TTM
RTC ..> PCS
RTC ..> PCM
RTC ..> PS
RTC ..> PM
RTC ..> TS
TS ..> T


@enduml

PlantUML version 1.2021.4(Sun Apr 04 09:49:39 BST 2021)
(GPL source distribution)
Java Runtime: OpenJDK Runtime Environment
JVM: OpenJDK 64-Bit Server VM
Default Encoding: Cp1252
Language: pt
Country: PT
--></g></svg>