<?xml version="1.0" encoding="UTF-8" standalone="no"?><svg xmlns="http://www.w3.org/2000/svg" xmlns:xlink="http://www.w3.org/1999/xlink" contentScriptType="application/ecmascript" contentStyleType="text/css" height="907px" preserveAspectRatio="none" style="width:1039px;height:907px;" version="1.1" viewBox="0 0 1039 907" width="1039px" zoomAndPan="magnify"><defs><filter height="300%" id="f1a8f685887npx" width="300%" x="-1" y="-1"><feGaussianBlur result="blurOut" stdDeviation="2.0"/><feColorMatrix in="blurOut" result="blurOut2" type="matrix" values="0 0 0 0 0 0 0 0 0 0 0 0 0 0 0 0 0 0 .4 0"/><feOffset dx="4.0" dy="4.0" in="blurOut2" result="blurOut3"/><feBlend in="SourceGraphic" in2="blurOut3" mode="normal"/></filter></defs><g><!--MD5=[43142ed302a6cc9ae965019424b4d408]
class RTUI--><rect codeLine="6" fill="#FEFECE" filter="url(#f1a8f685887npx)" height="48" id="RTUI" style="stroke:#A80036;stroke-width:1.5;" width="115" x="7" y="409.5"/><ellipse cx="22" cy="425.5" fill="#ADD1B2" rx="11" ry="11" style="stroke:#A80036;stroke-width:1.0;"/><path d="M24,422 Q24.2031,421.5 24.4375,421.25 Q24.6719,421 24.9375,421 Q25.4063,421 25.7031,421.2813 Q26,421.5625 26,422.2188 L26,423.7813 Q26,424.4375 25.7188,424.7188 Q25.4375,425 25,425 Q24.6094,425 24.3594,424.8281 Q24.1094,424.6563 24,424.2031 Q23.9531,423.8906 23.7813,423.7188 Q23.4688,423.3906 22.9063,423.2031 Q22.3438,423 21.7813,423 Q21.0781,423 20.4844,423.2813 Q19.9063,423.5625 19.4531,424.1875 Q19,424.8125 19,425.6719 L19,426.5938 Q19,427.625 19.8438,428.3125 Q20.6875,429 22.1875,429 Q23.0781,429 23.7031,428.7969 Q24.0625,428.6875 24.4688,428.3281 Q24.7344,428.125 24.875,428.0625 Q25.0156,428 25.1875,428 Q25.5156,428 25.75,428.2656 Q26,428.5156 26,428.875 Q26,429.2188 25.6563,429.625 Q25.1563,430.2188 24.3594,430.5469 Q23.3125,431 22.0313,431 Q20.5313,431 19.3281,430.4063 Q18.3594,429.9375 17.6719,428.9219 Q17,427.9063 17,426.7031 L17,425.6094 Q17,424.3594 17.5938,423.2656 Q18.2031,422.1719 19.25,421.5938 Q20.3125,421 21.5,421 Q22.2188,421 22.8438,421.25 Q23.4688,421.5 24,422 Z " fill="#000000"/><text fill="#000000" font-family="sans-serif" font-size="12" lengthAdjust="spacing" textLength="83" x="36" y="430.4102">RegisterTestUI</text><line style="stroke:#A80036;stroke-width:1.5;" x1="8" x2="121" y1="441.5" y2="441.5"/><line style="stroke:#A80036;stroke-width:1.5;" x1="8" x2="121" y1="449.5" y2="449.5"/><!--MD5=[fc745cbb6189e890294da62cd777863a]
class RTC--><rect codeLine="8" fill="#FEFECE" filter="url(#f1a8f685887npx)" height="117.1797" id="RTC" style="stroke:#A80036;stroke-width:1.5;" width="336" x="182" y="375"/><ellipse cx="283.25" cy="391" fill="#ADD1B2" rx="11" ry="11" style="stroke:#A80036;stroke-width:1.0;"/><path d="M285.25,387.5 Q285.4531,387 285.6875,386.75 Q285.9219,386.5 286.1875,386.5 Q286.6563,386.5 286.9531,386.7813 Q287.25,387.0625 287.25,387.7188 L287.25,389.2813 Q287.25,389.9375 286.9688,390.2188 Q286.6875,390.5 286.25,390.5 Q285.8594,390.5 285.6094,390.3281 Q285.3594,390.1563 285.25,389.7031 Q285.2031,389.3906 285.0313,389.2188 Q284.7188,388.8906 284.1563,388.7031 Q283.5938,388.5 283.0313,388.5 Q282.3281,388.5 281.7344,388.7813 Q281.1563,389.0625 280.7031,389.6875 Q280.25,390.3125 280.25,391.1719 L280.25,392.0938 Q280.25,393.125 281.0938,393.8125 Q281.9375,394.5 283.4375,394.5 Q284.3281,394.5 284.9531,394.2969 Q285.3125,394.1875 285.7188,393.8281 Q285.9844,393.625 286.125,393.5625 Q286.2656,393.5 286.4375,393.5 Q286.7656,393.5 287,393.7656 Q287.25,394.0156 287.25,394.375 Q287.25,394.7188 286.9063,395.125 Q286.4063,395.7188 285.6094,396.0469 Q284.5625,396.5 283.2813,396.5 Q281.7813,396.5 280.5781,395.9063 Q279.6094,395.4375 278.9219,394.4219 Q278.25,393.4063 278.25,392.2031 L278.25,391.1094 Q278.25,389.8594 278.8438,388.7656 Q279.4531,387.6719 280.5,387.0938 Q281.5625,386.5 282.75,386.5 Q283.4688,386.5 284.0938,386.75 Q284.7188,387 285.25,387.5 Z " fill="#000000"/><text fill="#000000" font-family="sans-serif" font-size="12" lengthAdjust="spacing" textLength="125" x="303.75" y="395.9102">RegisterTestController</text><line style="stroke:#A80036;stroke-width:1.5;" x1="183" x2="517" y1="407" y2="407"/><line style="stroke:#A80036;stroke-width:1.5;" x1="183" x2="517" y1="415" y2="415"/><text fill="#000000" font-family="sans-serif" font-size="11" lengthAdjust="spacing" textLength="95" x="188" y="430.4189">+getClient(citizenID)</text><text fill="#000000" font-family="sans-serif" font-size="11" lengthAdjust="spacing" textLength="86" x="188" y="444.2549">+getAllTestType()</text><text fill="#000000" font-family="sans-serif" font-size="11" lengthAdjust="spacing" textLength="212" x="188" y="458.0908">+getAllParametersByTestType(testTypeDto)</text><text fill="#000000" font-family="sans-serif" font-size="11" lengthAdjust="spacing" textLength="324" x="188" y="471.9268">+createTest(list &lt;parametersDto&gt;, testTypeDto, citizenID, nhsCode)</text><text fill="#000000" font-family="sans-serif" font-size="11" lengthAdjust="spacing" textLength="77" x="188" y="485.7627">+saveTest(test)</text><!--MD5=[378b18254a1b2429f435e93f5e5cc50c]
class C--><rect codeLine="16" fill="#FEFECE" filter="url(#f1a8f685887npx)" height="117.1797" id="C" style="stroke:#A80036;stroke-width:1.5;" width="122" x="629" y="7"/><ellipse cx="660.65" cy="23" fill="#ADD1B2" rx="11" ry="11" style="stroke:#A80036;stroke-width:1.0;"/><path d="M662.65,19.5 Q662.8531,19 663.0875,18.75 Q663.3219,18.5 663.5875,18.5 Q664.0563,18.5 664.3531,18.7813 Q664.65,19.0625 664.65,19.7188 L664.65,21.2813 Q664.65,21.9375 664.3688,22.2188 Q664.0875,22.5 663.65,22.5 Q663.2594,22.5 663.0094,22.3281 Q662.7594,22.1563 662.65,21.7031 Q662.6031,21.3906 662.4313,21.2188 Q662.1188,20.8906 661.5563,20.7031 Q660.9938,20.5 660.4313,20.5 Q659.7281,20.5 659.1344,20.7813 Q658.5563,21.0625 658.1031,21.6875 Q657.65,22.3125 657.65,23.1719 L657.65,24.0938 Q657.65,25.125 658.4938,25.8125 Q659.3375,26.5 660.8375,26.5 Q661.7281,26.5 662.3531,26.2969 Q662.7125,26.1875 663.1188,25.8281 Q663.3844,25.625 663.525,25.5625 Q663.6656,25.5 663.8375,25.5 Q664.1656,25.5 664.4,25.7656 Q664.65,26.0156 664.65,26.375 Q664.65,26.7188 664.3063,27.125 Q663.8063,27.7188 663.0094,28.0469 Q661.9625,28.5 660.6813,28.5 Q659.1813,28.5 657.9781,27.9063 Q657.0094,27.4375 656.3219,26.4219 Q655.65,25.4063 655.65,24.2031 L655.65,23.1094 Q655.65,21.8594 656.2438,20.7656 Q656.8531,19.6719 657.9,19.0938 Q658.9625,18.5 660.15,18.5 Q660.8688,18.5 661.4938,18.75 Q662.1188,19 662.65,19.5 Z " fill="#000000"/><text fill="#000000" font-family="sans-serif" font-size="12" lengthAdjust="spacing" textLength="53" x="678.35" y="27.9102">Company</text><line style="stroke:#A80036;stroke-width:1.5;" x1="630" x2="750" y1="39" y2="39"/><text fill="#000000" font-family="sans-serif" font-size="11" lengthAdjust="spacing" textLength="59" x="635" y="54.4189">-designation</text><line style="stroke:#A80036;stroke-width:1.5;" x1="630" x2="750" y1="60.8359" y2="60.8359"/><text fill="#000000" font-family="sans-serif" font-size="11" lengthAdjust="spacing" textLength="81" x="635" y="76.2549">+getClientStore()</text><text fill="#000000" font-family="sans-serif" font-size="11" lengthAdjust="spacing" textLength="100" x="635" y="90.0908">+getTestTypeStore()</text><text fill="#000000" font-family="sans-serif" font-size="11" lengthAdjust="spacing" textLength="110" x="635" y="103.9268">+getParametersStore()</text><text fill="#000000" font-family="sans-serif" font-size="11" lengthAdjust="spacing" textLength="76" x="635" y="117.7627">+getTestStore()</text><!--MD5=[d68c9369472fd2c8081ca2424f4233ba]
class CS--><rect codeLine="24" fill="#FEFECE" filter="url(#f1a8f685887npx)" height="61.8359" id="CS" style="stroke:#A80036;stroke-width:1.5;" width="107" x="636.5" y="159.5"/><ellipse cx="657.8" cy="175.5" fill="#ADD1B2" rx="11" ry="11" style="stroke:#A80036;stroke-width:1.0;"/><path d="M659.8,172 Q660.0031,171.5 660.2375,171.25 Q660.4719,171 660.7375,171 Q661.2063,171 661.5031,171.2813 Q661.8,171.5625 661.8,172.2188 L661.8,173.7813 Q661.8,174.4375 661.5188,174.7188 Q661.2375,175 660.8,175 Q660.4094,175 660.1594,174.8281 Q659.9094,174.6563 659.8,174.2031 Q659.7531,173.8906 659.5813,173.7188 Q659.2688,173.3906 658.7063,173.2031 Q658.1438,173 657.5813,173 Q656.8781,173 656.2844,173.2813 Q655.7063,173.5625 655.2531,174.1875 Q654.8,174.8125 654.8,175.6719 L654.8,176.5938 Q654.8,177.625 655.6438,178.3125 Q656.4875,179 657.9875,179 Q658.8781,179 659.5031,178.7969 Q659.8625,178.6875 660.2688,178.3281 Q660.5344,178.125 660.675,178.0625 Q660.8156,178 660.9875,178 Q661.3156,178 661.55,178.2656 Q661.8,178.5156 661.8,178.875 Q661.8,179.2188 661.4563,179.625 Q660.9563,180.2188 660.1594,180.5469 Q659.1125,181 657.8313,181 Q656.3313,181 655.1281,180.4063 Q654.1594,179.9375 653.4719,178.9219 Q652.8,177.9063 652.8,176.7031 L652.8,175.6094 Q652.8,174.3594 653.3938,173.2656 Q654.0031,172.1719 655.05,171.5938 Q656.1125,171 657.3,171 Q658.0188,171 658.6438,171.25 Q659.2688,171.5 659.8,172 Z " fill="#000000"/><text fill="#000000" font-family="sans-serif" font-size="12" lengthAdjust="spacing" textLength="61" x="673.2" y="180.4102">ClientStore</text><line style="stroke:#A80036;stroke-width:1.5;" x1="637.5" x2="742.5" y1="191.5" y2="191.5"/><line style="stroke:#A80036;stroke-width:1.5;" x1="637.5" x2="742.5" y1="199.5" y2="199.5"/><text fill="#000000" font-family="sans-serif" font-size="11" lengthAdjust="spacing" textLength="95" x="642.5" y="214.9189">+getClient(citizenID)</text><!--MD5=[922d291f43d024f1166d0eae9b0ee0bb]
class CM--><rect codeLine="28" fill="#FEFECE" filter="url(#f1a8f685887npx)" height="61.8359" id="CM" style="stroke:#A80036;stroke-width:1.5;" width="105" x="637.5" y="256.5"/><ellipse cx="652.5" cy="272.5" fill="#ADD1B2" rx="11" ry="11" style="stroke:#A80036;stroke-width:1.0;"/><path d="M654.5,269 Q654.7031,268.5 654.9375,268.25 Q655.1719,268 655.4375,268 Q655.9063,268 656.2031,268.2813 Q656.5,268.5625 656.5,269.2188 L656.5,270.7813 Q656.5,271.4375 656.2188,271.7188 Q655.9375,272 655.5,272 Q655.1094,272 654.8594,271.8281 Q654.6094,271.6563 654.5,271.2031 Q654.4531,270.8906 654.2813,270.7188 Q653.9688,270.3906 653.4063,270.2031 Q652.8438,270 652.2813,270 Q651.5781,270 650.9844,270.2813 Q650.4063,270.5625 649.9531,271.1875 Q649.5,271.8125 649.5,272.6719 L649.5,273.5938 Q649.5,274.625 650.3438,275.3125 Q651.1875,276 652.6875,276 Q653.5781,276 654.2031,275.7969 Q654.5625,275.6875 654.9688,275.3281 Q655.2344,275.125 655.375,275.0625 Q655.5156,275 655.6875,275 Q656.0156,275 656.25,275.2656 Q656.5,275.5156 656.5,275.875 Q656.5,276.2188 656.1563,276.625 Q655.6563,277.2188 654.8594,277.5469 Q653.8125,278 652.5313,278 Q651.0313,278 649.8281,277.4063 Q648.8594,276.9375 648.1719,275.9219 Q647.5,274.9063 647.5,273.7031 L647.5,272.6094 Q647.5,271.3594 648.0938,270.2656 Q648.7031,269.1719 649.75,268.5938 Q650.8125,268 652,268 Q652.7188,268 653.3438,268.25 Q653.9688,268.5 654.5,269 Z " fill="#000000"/><text fill="#000000" font-family="sans-serif" font-size="12" lengthAdjust="spacing" textLength="73" x="666.5" y="277.4102">ClientMapper</text><line style="stroke:#A80036;stroke-width:1.5;" x1="638.5" x2="741.5" y1="288.5" y2="288.5"/><line style="stroke:#A80036;stroke-width:1.5;" x1="638.5" x2="741.5" y1="296.5" y2="296.5"/><text fill="#000000" font-family="sans-serif" font-size="11" lengthAdjust="spacing" textLength="47" x="643.5" y="311.9189">+toDto(cl)</text><!--MD5=[0c21d7a5a5555e4278001068caacbd33]
class TTS--><rect codeLine="32" fill="#FEFECE" filter="url(#f1a8f685887npx)" height="61.8359" id="TTS" style="stroke:#A80036;stroke-width:1.5;" width="111" x="634.5" y="353.5"/><ellipse cx="649.5" cy="369.5" fill="#ADD1B2" rx="11" ry="11" style="stroke:#A80036;stroke-width:1.0;"/><path d="M651.5,366 Q651.7031,365.5 651.9375,365.25 Q652.1719,365 652.4375,365 Q652.9063,365 653.2031,365.2813 Q653.5,365.5625 653.5,366.2188 L653.5,367.7813 Q653.5,368.4375 653.2188,368.7188 Q652.9375,369 652.5,369 Q652.1094,369 651.8594,368.8281 Q651.6094,368.6563 651.5,368.2031 Q651.4531,367.8906 651.2813,367.7188 Q650.9688,367.3906 650.4063,367.2031 Q649.8438,367 649.2813,367 Q648.5781,367 647.9844,367.2813 Q647.4063,367.5625 646.9531,368.1875 Q646.5,368.8125 646.5,369.6719 L646.5,370.5938 Q646.5,371.625 647.3438,372.3125 Q648.1875,373 649.6875,373 Q650.5781,373 651.2031,372.7969 Q651.5625,372.6875 651.9688,372.3281 Q652.2344,372.125 652.375,372.0625 Q652.5156,372 652.6875,372 Q653.0156,372 653.25,372.2656 Q653.5,372.5156 653.5,372.875 Q653.5,373.2188 653.1563,373.625 Q652.6563,374.2188 651.8594,374.5469 Q650.8125,375 649.5313,375 Q648.0313,375 646.8281,374.4063 Q645.8594,373.9375 645.1719,372.9219 Q644.5,371.9063 644.5,370.7031 L644.5,369.6094 Q644.5,368.3594 645.0938,367.2656 Q645.7031,366.1719 646.75,365.5938 Q647.8125,365 649,365 Q649.7188,365 650.3438,365.25 Q650.9688,365.5 651.5,366 Z " fill="#000000"/><text fill="#000000" font-family="sans-serif" font-size="12" lengthAdjust="spacing" textLength="79" x="663.5" y="374.4102">TestTypeStore</text><line style="stroke:#A80036;stroke-width:1.5;" x1="635.5" x2="744.5" y1="385.5" y2="385.5"/><line style="stroke:#A80036;stroke-width:1.5;" x1="635.5" x2="744.5" y1="393.5" y2="393.5"/><text fill="#000000" font-family="sans-serif" font-size="11" lengthAdjust="spacing" textLength="86" x="640.5" y="408.9189">+getAllTestType()</text><!--MD5=[827c14b304fb6bf676224a1fb38ec02f]
class TTM--><rect codeLine="36" fill="#FEFECE" filter="url(#f1a8f685887npx)" height="61.8359" id="TTM" style="stroke:#A80036;stroke-width:1.5;" width="123" x="628.5" y="450.5"/><ellipse cx="643.5" cy="466.5" fill="#ADD1B2" rx="11" ry="11" style="stroke:#A80036;stroke-width:1.0;"/><path d="M645.5,463 Q645.7031,462.5 645.9375,462.25 Q646.1719,462 646.4375,462 Q646.9063,462 647.2031,462.2813 Q647.5,462.5625 647.5,463.2188 L647.5,464.7813 Q647.5,465.4375 647.2188,465.7188 Q646.9375,466 646.5,466 Q646.1094,466 645.8594,465.8281 Q645.6094,465.6563 645.5,465.2031 Q645.4531,464.8906 645.2813,464.7188 Q644.9688,464.3906 644.4063,464.2031 Q643.8438,464 643.2813,464 Q642.5781,464 641.9844,464.2813 Q641.4063,464.5625 640.9531,465.1875 Q640.5,465.8125 640.5,466.6719 L640.5,467.5938 Q640.5,468.625 641.3438,469.3125 Q642.1875,470 643.6875,470 Q644.5781,470 645.2031,469.7969 Q645.5625,469.6875 645.9688,469.3281 Q646.2344,469.125 646.375,469.0625 Q646.5156,469 646.6875,469 Q647.0156,469 647.25,469.2656 Q647.5,469.5156 647.5,469.875 Q647.5,470.2188 647.1563,470.625 Q646.6563,471.2188 645.8594,471.5469 Q644.8125,472 643.5313,472 Q642.0313,472 640.8281,471.4063 Q639.8594,470.9375 639.1719,469.9219 Q638.5,468.9063 638.5,467.7031 L638.5,466.6094 Q638.5,465.3594 639.0938,464.2656 Q639.7031,463.1719 640.75,462.5938 Q641.8125,462 643,462 Q643.7188,462 644.3438,462.25 Q644.9688,462.5 645.5,463 Z " fill="#000000"/><text fill="#000000" font-family="sans-serif" font-size="12" lengthAdjust="spacing" textLength="91" x="657.5" y="471.4102">TestTypeMapper</text><line style="stroke:#A80036;stroke-width:1.5;" x1="629.5" x2="750.5" y1="482.5" y2="482.5"/><line style="stroke:#A80036;stroke-width:1.5;" x1="629.5" x2="750.5" y1="490.5" y2="490.5"/><text fill="#000000" font-family="sans-serif" font-size="11" lengthAdjust="spacing" textLength="97" x="634.5" y="505.9189">+toDto(listTestType)</text><!--MD5=[7372bbf51d55cfb0901280a97d9d0909]
class PS--><rect codeLine="40" fill="#FEFECE" filter="url(#f1a8f685887npx)" height="61.8359" id="PS" style="stroke:#A80036;stroke-width:1.5;" width="224" x="578" y="547.5"/><ellipse cx="638.75" cy="563.5" fill="#ADD1B2" rx="11" ry="11" style="stroke:#A80036;stroke-width:1.0;"/><path d="M640.75,560 Q640.9531,559.5 641.1875,559.25 Q641.4219,559 641.6875,559 Q642.1563,559 642.4531,559.2813 Q642.75,559.5625 642.75,560.2188 L642.75,561.7813 Q642.75,562.4375 642.4688,562.7188 Q642.1875,563 641.75,563 Q641.3594,563 641.1094,562.8281 Q640.8594,562.6563 640.75,562.2031 Q640.7031,561.8906 640.5313,561.7188 Q640.2188,561.3906 639.6563,561.2031 Q639.0938,561 638.5313,561 Q637.8281,561 637.2344,561.2813 Q636.6563,561.5625 636.2031,562.1875 Q635.75,562.8125 635.75,563.6719 L635.75,564.5938 Q635.75,565.625 636.5938,566.3125 Q637.4375,567 638.9375,567 Q639.8281,567 640.4531,566.7969 Q640.8125,566.6875 641.2188,566.3281 Q641.4844,566.125 641.625,566.0625 Q641.7656,566 641.9375,566 Q642.2656,566 642.5,566.2656 Q642.75,566.5156 642.75,566.875 Q642.75,567.2188 642.4063,567.625 Q641.9063,568.2188 641.1094,568.5469 Q640.0625,569 638.7813,569 Q637.2813,569 636.0781,568.4063 Q635.1094,567.9375 634.4219,566.9219 Q633.75,565.9063 633.75,564.7031 L633.75,563.6094 Q633.75,562.3594 634.3438,561.2656 Q634.9531,560.1719 636,559.5938 Q637.0625,559 638.25,559 Q638.9688,559 639.5938,559.25 Q640.2188,559.5 640.75,560 Z " fill="#000000"/><text fill="#000000" font-family="sans-serif" font-size="12" lengthAdjust="spacing" textLength="94" x="659.25" y="568.4102">ParametersStore</text><line style="stroke:#A80036;stroke-width:1.5;" x1="579" x2="801" y1="579.5" y2="579.5"/><line style="stroke:#A80036;stroke-width:1.5;" x1="579" x2="801" y1="587.5" y2="587.5"/><text fill="#000000" font-family="sans-serif" font-size="11" lengthAdjust="spacing" textLength="212" x="584" y="602.9189">+getAllParametersByTestType(testTypeDto)</text><!--MD5=[ce26f7d1346c61756d71df2e3432b601]
class PM--><rect codeLine="44" fill="#FEFECE" filter="url(#f1a8f685887npx)" height="75.6719" id="PM" style="stroke:#A80036;stroke-width:1.5;" width="165" x="607.5" y="644.5"/><ellipse cx="634.65" cy="660.5" fill="#ADD1B2" rx="11" ry="11" style="stroke:#A80036;stroke-width:1.0;"/><path d="M636.65,657 Q636.8531,656.5 637.0875,656.25 Q637.3219,656 637.5875,656 Q638.0563,656 638.3531,656.2813 Q638.65,656.5625 638.65,657.2188 L638.65,658.7813 Q638.65,659.4375 638.3688,659.7188 Q638.0875,660 637.65,660 Q637.2594,660 637.0094,659.8281 Q636.7594,659.6563 636.65,659.2031 Q636.6031,658.8906 636.4313,658.7188 Q636.1188,658.3906 635.5563,658.2031 Q634.9938,658 634.4313,658 Q633.7281,658 633.1344,658.2813 Q632.5563,658.5625 632.1031,659.1875 Q631.65,659.8125 631.65,660.6719 L631.65,661.5938 Q631.65,662.625 632.4938,663.3125 Q633.3375,664 634.8375,664 Q635.7281,664 636.3531,663.7969 Q636.7125,663.6875 637.1188,663.3281 Q637.3844,663.125 637.525,663.0625 Q637.6656,663 637.8375,663 Q638.1656,663 638.4,663.2656 Q638.65,663.5156 638.65,663.875 Q638.65,664.2188 638.3063,664.625 Q637.8063,665.2188 637.0094,665.5469 Q635.9625,666 634.6813,666 Q633.1813,666 631.9781,665.4063 Q631.0094,664.9375 630.3219,663.9219 Q629.65,662.9063 629.65,661.7031 L629.65,660.6094 Q629.65,659.3594 630.2438,658.2656 Q630.8531,657.1719 631.9,656.5938 Q632.9625,656 634.15,656 Q634.8688,656 635.4938,656.25 Q636.1188,656.5 636.65,657 Z " fill="#000000"/><text fill="#000000" font-family="sans-serif" font-size="12" lengthAdjust="spacing" textLength="106" x="651.35" y="665.4102">ParametersMapper</text><line style="stroke:#A80036;stroke-width:1.5;" x1="608.5" x2="771.5" y1="676.5" y2="676.5"/><line style="stroke:#A80036;stroke-width:1.5;" x1="608.5" x2="771.5" y1="684.5" y2="684.5"/><text fill="#000000" font-family="sans-serif" font-size="11" lengthAdjust="spacing" textLength="107" x="613.5" y="699.9189">+toDto(listParameters)</text><text fill="#000000" font-family="sans-serif" font-size="11" lengthAdjust="spacing" textLength="153" x="613.5" y="713.7549">+toModel (list &lt;parametersDto&gt;)</text><!--MD5=[b0a1b9137b50b50b320b426f68562434]
class TS--><rect codeLine="49" fill="#FEFECE" filter="url(#f1a8f685887npx)" height="103.3438" id="TS" style="stroke:#A80036;stroke-width:1.5;" width="194" x="593" y="756"/><ellipse cx="659.25" cy="772" fill="#ADD1B2" rx="11" ry="11" style="stroke:#A80036;stroke-width:1.0;"/><path d="M661.25,768.5 Q661.4531,768 661.6875,767.75 Q661.9219,767.5 662.1875,767.5 Q662.6563,767.5 662.9531,767.7813 Q663.25,768.0625 663.25,768.7188 L663.25,770.2813 Q663.25,770.9375 662.9688,771.2188 Q662.6875,771.5 662.25,771.5 Q661.8594,771.5 661.6094,771.3281 Q661.3594,771.1563 661.25,770.7031 Q661.2031,770.3906 661.0313,770.2188 Q660.7188,769.8906 660.1563,769.7031 Q659.5938,769.5 659.0313,769.5 Q658.3281,769.5 657.7344,769.7813 Q657.1563,770.0625 656.7031,770.6875 Q656.25,771.3125 656.25,772.1719 L656.25,773.0938 Q656.25,774.125 657.0938,774.8125 Q657.9375,775.5 659.4375,775.5 Q660.3281,775.5 660.9531,775.2969 Q661.3125,775.1875 661.7188,774.8281 Q661.9844,774.625 662.125,774.5625 Q662.2656,774.5 662.4375,774.5 Q662.7656,774.5 663,774.7656 Q663.25,775.0156 663.25,775.375 Q663.25,775.7188 662.9063,776.125 Q662.4063,776.7188 661.6094,777.0469 Q660.5625,777.5 659.2813,777.5 Q657.7813,777.5 656.5781,776.9063 Q655.6094,776.4375 654.9219,775.4219 Q654.25,774.4063 654.25,773.2031 L654.25,772.1094 Q654.25,770.8594 654.8438,769.7656 Q655.4531,768.6719 656.5,768.0938 Q657.5625,767.5 658.75,767.5 Q659.4688,767.5 660.0938,767.75 Q660.7188,768 661.25,768.5 Z " fill="#000000"/><text fill="#000000" font-family="sans-serif" font-size="12" lengthAdjust="spacing" textLength="53" x="679.75" y="776.9102">TestStore</text><line style="stroke:#A80036;stroke-width:1.5;" x1="594" x2="786" y1="788" y2="788"/><line style="stroke:#A80036;stroke-width:1.5;" x1="594" x2="786" y1="796" y2="796"/><text fill="#000000" font-family="sans-serif" font-size="11" lengthAdjust="spacing" textLength="182" x="599" y="811.4189">+createTest(tt, parameters, nhsCode)</text><text fill="#000000" font-family="sans-serif" font-size="11" lengthAdjust="spacing" textLength="77" x="599" y="825.2549">+saveTest(test)</text><text fill="#000000" font-family="sans-serif" font-size="11" lengthAdjust="spacing" textLength="90" x="599" y="839.0908">+validateTest(test)</text><text fill="#000000" font-family="sans-serif" font-size="11" lengthAdjust="spacing" textLength="71" x="599" y="852.9268">+addTest(test)</text><!--MD5=[56e4c9075fa7c9f4c09ef0a20c49f72c]
class T--><rect codeLine="56" fill="#FEFECE" filter="url(#f1a8f685887npx)" height="172.5234" id="T" style="stroke:#A80036;stroke-width:1.5;" width="163" x="862" y="721"/><ellipse cx="927.25" cy="737" fill="#ADD1B2" rx="11" ry="11" style="stroke:#A80036;stroke-width:1.0;"/><path d="M929.25,733.5 Q929.4531,733 929.6875,732.75 Q929.9219,732.5 930.1875,732.5 Q930.6563,732.5 930.9531,732.7813 Q931.25,733.0625 931.25,733.7188 L931.25,735.2813 Q931.25,735.9375 930.9688,736.2188 Q930.6875,736.5 930.25,736.5 Q929.8594,736.5 929.6094,736.3281 Q929.3594,736.1563 929.25,735.7031 Q929.2031,735.3906 929.0313,735.2188 Q928.7188,734.8906 928.1563,734.7031 Q927.5938,734.5 927.0313,734.5 Q926.3281,734.5 925.7344,734.7813 Q925.1563,735.0625 924.7031,735.6875 Q924.25,736.3125 924.25,737.1719 L924.25,738.0938 Q924.25,739.125 925.0938,739.8125 Q925.9375,740.5 927.4375,740.5 Q928.3281,740.5 928.9531,740.2969 Q929.3125,740.1875 929.7188,739.8281 Q929.9844,739.625 930.125,739.5625 Q930.2656,739.5 930.4375,739.5 Q930.7656,739.5 931,739.7656 Q931.25,740.0156 931.25,740.375 Q931.25,740.7188 930.9063,741.125 Q930.4063,741.7188 929.6094,742.0469 Q928.5625,742.5 927.2813,742.5 Q925.7813,742.5 924.5781,741.9063 Q923.6094,741.4375 922.9219,740.4219 Q922.25,739.4063 922.25,738.2031 L922.25,737.1094 Q922.25,735.8594 922.8438,734.7656 Q923.4531,733.6719 924.5,733.0938 Q925.5625,732.5 926.75,732.5 Q927.4688,732.5 928.0938,732.75 Q928.7188,733 929.25,733.5 Z " fill="#000000"/><text fill="#000000" font-family="sans-serif" font-size="12" lengthAdjust="spacing" textLength="24" x="947.75" y="741.9102">Test</text><line style="stroke:#A80036;stroke-width:1.5;" x1="863" x2="1024" y1="753" y2="753"/><text fill="#000000" font-family="sans-serif" font-size="11" lengthAdjust="spacing" textLength="57" x="868" y="768.4189">-description</text><text fill="#000000" font-family="sans-serif" font-size="11" lengthAdjust="spacing" textLength="28" x="868" y="782.2549">-code</text><text fill="#000000" font-family="sans-serif" font-size="11" lengthAdjust="spacing" textLength="47" x="868" y="796.0908">-nhsCode</text><text fill="#000000" font-family="sans-serif" font-size="11" lengthAdjust="spacing" textLength="79" x="868" y="809.9268">-collectDateTime</text><text fill="#000000" font-family="sans-serif" font-size="11" lengthAdjust="spacing" textLength="132" x="868" y="823.7627">-chemicalAnalysisDateTime</text><text fill="#000000" font-family="sans-serif" font-size="11" lengthAdjust="spacing" textLength="94" x="868" y="837.5986">-diagnosisDateTime</text><text fill="#000000" font-family="sans-serif" font-size="11" lengthAdjust="spacing" textLength="93" x="868" y="851.4346">-validationDateTime</text><line style="stroke:#A80036;stroke-width:1.5;" x1="863" x2="1024" y1="857.8516" y2="857.8516"/><text fill="#000000" font-family="sans-serif" font-size="11" lengthAdjust="spacing" textLength="151" x="868" y="873.2705">+Test(tt, parameters, nhsCode)</text><text fill="#000000" font-family="sans-serif" font-size="11" lengthAdjust="spacing" textLength="82" x="868" y="887.1064">+generateCode()</text><!--MD5=[dd017b5786dc0eb98822586dade57035]
link RTUI to RTC--><path codeLine="68" d="M122.19,433.5 C138.58,433.5 157.37,433.5 176.97,433.5 " fill="none" id="RTUI-to-RTC" style="stroke:#A80036;stroke-width:1.0;stroke-dasharray:7.0,7.0;"/><polygon fill="#A80036" points="181.97,433.5,172.97,429.5,176.97,433.5,172.97,437.5,181.97,433.5" style="stroke:#A80036;stroke-width:1.0;"/><!--MD5=[73ffdb354b1fe2459a9ac1f820e25281]
link RTC to CS--><path codeLine="69" d="M409.21,374.76 C452.89,332.95 515.67,277.48 578,238.5 C594.51,228.17 613.64,219.02 631.31,211.56 " fill="none" id="RTC-to-CS" style="stroke:#A80036;stroke-width:1.0;stroke-dasharray:7.0,7.0;"/><polygon fill="#A80036" points="636.25,209.5,626.4036,209.28,631.6367,211.4281,629.4886,216.6613,636.25,209.5" style="stroke:#A80036;stroke-width:1.0;"/><!--MD5=[b1f25aab2c8cf6c0c810a50e101e7b90]
link RTC to CM--><path codeLine="70" d="M486.53,374.96 C537.53,352.93 592.78,329.06 632.65,311.84 " fill="none" id="RTC-to-CM" style="stroke:#A80036;stroke-width:1.0;stroke-dasharray:7.0,7.0;"/><polygon fill="#A80036" points="637.44,309.77,627.5916,309.6757,632.8517,311.7568,630.7705,317.0169,637.44,309.77" style="stroke:#A80036;stroke-width:1.0;"/><!--MD5=[92569abc02196c21c46e6d49c0fdf73f]
link RTC to C--><path codeLine="71" d="M388.55,374.87 C430.16,312.61 501.56,213.46 578,141.5 C591.99,128.33 608.45,115.78 624.35,104.8 " fill="none" id="RTC-to-C" style="stroke:#A80036;stroke-width:1.0;stroke-dasharray:7.0,7.0;"/><polygon fill="#A80036" points="628.82,101.75,619.1346,103.5369,624.6952,104.576,623.6562,110.1366,628.82,101.75" style="stroke:#A80036;stroke-width:1.0;"/><!--MD5=[b3a4147220c3f63b352828c1b1ed0293]
link RTC to TTS--><path codeLine="72" d="M518.02,409.29 C557.96,403.5 598.05,397.68 629.36,393.15 " fill="none" id="RTC-to-TTS" style="stroke:#A80036;stroke-width:1.0;stroke-dasharray:7.0,7.0;"/><polygon fill="#A80036" points="634.31,392.43,624.8315,389.7545,629.3611,393.1431,625.9725,397.6727,634.31,392.43" style="stroke:#A80036;stroke-width:1.0;"/><!--MD5=[4d8b153a7b605fd6ac41ea413c086e67]
link RTC to TTM--><path codeLine="73" d="M518.02,457.22 C555.28,462.51 592.67,467.82 622.94,472.12 " fill="none" id="RTC-to-TTM" style="stroke:#A80036;stroke-width:1.0;stroke-dasharray:7.0,7.0;"/><polygon fill="#A80036" points="628.12,472.85,619.7698,467.6275,623.1694,472.1489,618.648,475.5485,628.12,472.85" style="stroke:#A80036;stroke-width:1.0;"/><!--MD5=[fe07df3723ce1e7554b8338206e6a440]
link RTC to PS--><path codeLine="74" d="M487.5,492.06 C529.76,510.19 574.84,529.52 611.62,545.3 " fill="none" id="RTC-to-PS" style="stroke:#A80036;stroke-width:1.0;stroke-dasharray:7.0,7.0;"/><polygon fill="#A80036" points="616.52,547.41,609.8315,540.1806,611.9265,545.4352,606.6719,547.5302,616.52,547.41" style="stroke:#A80036;stroke-width:1.0;"/><!--MD5=[53ad67196b9718d138e4f8e9634b55e0]
link RTC to PM--><path codeLine="75" d="M411.89,492.24 C455.87,532.87 517.88,586.6 578,626.5 C585.97,631.79 594.5,636.92 603.16,641.8 " fill="none" id="RTC-to-PM" style="stroke:#A80036;stroke-width:1.0;stroke-dasharray:7.0,7.0;"/><polygon fill="#A80036" points="607.99,644.48,602.0652,636.6126,603.6192,642.0518,598.18,643.6058,607.99,644.48" style="stroke:#A80036;stroke-width:1.0;"/><!--MD5=[8fb19c63ab7f2a290721248e38e8af22]
link RTC to TS--><path codeLine="76" d="M385.67,492.28 C426.09,557.5 497.7,663.29 578,737.5 C583.75,742.81 589.96,747.96 596.39,752.9 " fill="none" id="RTC-to-TS" style="stroke:#A80036;stroke-width:1.0;stroke-dasharray:7.0,7.0;"/><polygon fill="#A80036" points="600.43,755.94,595.6496,747.3291,596.4369,752.9309,590.835,753.7181,600.43,755.94" style="stroke:#A80036;stroke-width:1.0;"/><!--MD5=[0b037e5f89e300193b3080f69ffc7684]
link TS to T--><path codeLine="77" d="M787.16,807.5 C810.11,807.5 834.45,807.5 856.88,807.5 " fill="none" id="TS-to-T" style="stroke:#A80036;stroke-width:1.0;stroke-dasharray:7.0,7.0;"/><polygon fill="#A80036" points="861.94,807.5,852.94,803.5,856.94,807.5,852.94,811.5,861.94,807.5" style="stroke:#A80036;stroke-width:1.0;"/><!--MD5=[0e717ab653c431267df15b34dc75255d]
@startuml
'https://plantuml.com/class-diagram

skinparam classAttributeIconSize 0
left to right direction

class "RegisterTestUI" as RTUI

class "RegisterTestController" as RTC {
+getClient(citizenID)
+getAllTestType()
+getAllParametersByTestType(testTypeDto)
+createTest(list <parametersDto>, testTypeDto, citizenID, nhsCode)
+saveTest(test)
}

class "Company" as C {
-designation
+getClientStore()
+getTestTypeStore()
+getParametersStore()
+getTestStore()
}

class "ClientStore" as CS {
+getClient(citizenID)
}

class "ClientMapper" as CM {
+toDto(cl)
}

class "TestTypeStore" as TTS {
+getAllTestType()
}

class "TestTypeMapper" as TTM {
+toDto(listTestType)
}

class "ParametersStore" as PS {
+getAllParametersByTestType(testTypeDto)
}

class "ParametersMapper" as PM {
+toDto(listParameters)
+toModel (list <parametersDto>)
}

class "TestStore" as TS {
+createTest(tt, parameters, nhsCode)
+saveTest(test)
+validateTest(test)
+addTest(test)
}

class "Test" as T {
-description
-code
-nhsCode
-collectDateTime
-chemicalAnalysisDateTime
-diagnosisDateTime
-validationDateTime
+Test(tt, parameters, nhsCode)
+generateCode()
}

RTUI ..> RTC
RTC ..> CS
RTC ..> CM
RTC ..> C
RTC ..> TTS
RTC ..> TTM
RTC ..> PS
RTC ..> PM
RTC ..> TS
TS ..> T


@enduml

@startuml

skinparam classAttributeIconSize 0
left to right direction

class "RegisterTestUI" as RTUI

class "RegisterTestController" as RTC {
+getClient(citizenID)
+getAllTestType()
+getAllParametersByTestType(testTypeDto)
+createTest(list <parametersDto>, testTypeDto, citizenID, nhsCode)
+saveTest(test)
}

class "Company" as C {
-designation
+getClientStore()
+getTestTypeStore()
+getParametersStore()
+getTestStore()
}

class "ClientStore" as CS {
+getClient(citizenID)
}

class "ClientMapper" as CM {
+toDto(cl)
}

class "TestTypeStore" as TTS {
+getAllTestType()
}

class "TestTypeMapper" as TTM {
+toDto(listTestType)
}

class "ParametersStore" as PS {
+getAllParametersByTestType(testTypeDto)
}

class "ParametersMapper" as PM {
+toDto(listParameters)
+toModel (list <parametersDto>)
}

class "TestStore" as TS {
+createTest(tt, parameters, nhsCode)
+saveTest(test)
+validateTest(test)
+addTest(test)
}

class "Test" as T {
-description
-code
-nhsCode
-collectDateTime
-chemicalAnalysisDateTime
-diagnosisDateTime
-validationDateTime
+Test(tt, parameters, nhsCode)
+generateCode()
}

RTUI ..> RTC
RTC ..> CS
RTC ..> CM
RTC ..> C
RTC ..> TTS
RTC ..> TTM
RTC ..> PS
RTC ..> PM
RTC ..> TS
TS ..> T


@enduml

PlantUML version 1.2021.4(Sun Apr 04 09:49:39 BST 2021)
(GPL source distribution)
Java Runtime: OpenJDK Runtime Environment
JVM: OpenJDK 64-Bit Server VM
Default Encoding: Cp1252
Language: pt
Country: PT
--></g></svg>