<?xml version="1.0" encoding="UTF-8" standalone="no"?><svg xmlns="http://www.w3.org/2000/svg" xmlns:xlink="http://www.w3.org/1999/xlink" contentScriptType="application/ecmascript" contentStyleType="text/css" height="796px" preserveAspectRatio="none" style="width:1950px;height:796px;" version="1.1" viewBox="0 0 1950 796" width="1950px" zoomAndPan="magnify"><defs><filter height="300%" id="f1jpe7vs3xyueu" width="300%" x="-1" y="-1"><feGaussianBlur result="blurOut" stdDeviation="2.0"/><feColorMatrix in="blurOut" result="blurOut2" type="matrix" values="0 0 0 0 0 0 0 0 0 0 0 0 0 0 0 0 0 0 .4 0"/><feOffset dx="4.0" dy="4.0" in="blurOut2" result="blurOut3"/><feBlend in="SourceGraphic" in2="blurOut3" mode="normal"/></filter></defs><g><!--MD5=[2c2e2644034c00788261e03c85b06837]
cluster Core--><polygon fill="#FFFFFF" filter="url(#f1jpe7vs3xyueu)" points="16,6,56,6,63,29.6094,1933,29.6094,1933,665,16,665,16,6" style="stroke:#000000;stroke-width:1.5;"/><line style="stroke:#000000;stroke-width:1.5;" x1="16" x2="63" y1="29.6094" y2="29.6094"/><text fill="#000000" font-family="sans-serif" font-size="14" font-weight="bold" lengthAdjust="spacing" textLength="34" x="20" y="22.5332">Core</text><!--MD5=[121a8bf1197281ab89ed693fab589f94]
cluster Domain--><polygon fill="#FFFFFF" filter="url(#f1jpe7vs3xyueu)" points="188.5,50,246.5,50,253.5,73.6094,1615,73.6094,1615,322,188.5,322,188.5,50" style="stroke:#000000;stroke-width:1.5;"/><line style="stroke:#000000;stroke-width:1.5;" x1="188.5" x2="253.5" y1="73.6094" y2="73.6094"/><text fill="#000000" font-family="sans-serif" font-size="14" font-weight="bold" lengthAdjust="spacing" textLength="52" x="192.5" y="66.5332">Domain</text><!--MD5=[8dd535d56cd4cf7faf64fdd082ba836e]
cluster Stores--><polygon fill="#FFFFFF" filter="url(#f1jpe7vs3xyueu)" points="40,346,92,346,99,369.6094,594,369.6094,594,530,40,530,40,346" style="stroke:#000000;stroke-width:1.5;"/><line style="stroke:#000000;stroke-width:1.5;" x1="40" x2="99" y1="369.6094" y2="369.6094"/><text fill="#000000" font-family="sans-serif" font-size="14" font-weight="bold" lengthAdjust="spacing" textLength="46" x="44" y="362.5332">Stores</text><!--MD5=[ed1d20ea533a2a0e7df5ba3c35e56ced]
cluster Controllers--><polygon fill="#FFFFFF" filter="url(#f1jpe7vs3xyueu)" points="680,346,765,346,772,369.6094,1227,369.6094,1227,641,680,641,680,346" style="stroke:#000000;stroke-width:1.5;"/><line style="stroke:#000000;stroke-width:1.5;" x1="680" x2="772" y1="369.6094" y2="369.6094"/><text fill="#000000" font-family="sans-serif" font-size="14" font-weight="bold" lengthAdjust="spacing" textLength="79" x="684" y="362.5332">Controllers</text><!--MD5=[701152d03fbf85133a1de050cfdbc7fd]
cluster Mappers--><polygon fill="#FFFFFF" filter="url(#f1jpe7vs3xyueu)" points="1337,430,1405,430,1412,453.6094,1686,453.6094,1686,641,1337,641,1337,430" style="stroke:#000000;stroke-width:1.5;"/><line style="stroke:#000000;stroke-width:1.5;" x1="1337" x2="1412" y1="453.6094" y2="453.6094"/><text fill="#000000" font-family="sans-serif" font-size="14" font-weight="bold" lengthAdjust="spacing" textLength="62" x="1341" y="446.5332">Mappers</text><!--MD5=[a7e26d82dece3a99be33d8557e72e039]
cluster Dto--><polygon fill="#FFFFFF" filter="url(#f1jpe7vs3xyueu)" points="1719,354,1749,354,1756,377.6094,1909,377.6094,1909,537,1719,537,1719,354" style="stroke:#000000;stroke-width:1.5;"/><line style="stroke:#000000;stroke-width:1.5;" x1="1719" x2="1756" y1="377.6094" y2="377.6094"/><text fill="#000000" font-family="sans-serif" font-size="14" font-weight="bold" lengthAdjust="spacing" textLength="24" x="1723" y="370.5332">Dto</text><!--MD5=[9681dc6e01e10c6b4fe06895ae94f592]
cluster UI--><polygon fill="#FFFFFF" filter="url(#f1jpe7vs3xyueu)" points="235.5,689,255.5,689,262.5,712.6094,398.5,712.6094,398.5,789,235.5,789,235.5,689" style="stroke:#000000;stroke-width:1.5;"/><line style="stroke:#000000;stroke-width:1.5;" x1="235.5" x2="262.5" y1="712.6094" y2="712.6094"/><text fill="#000000" font-family="sans-serif" font-size="14" font-weight="bold" lengthAdjust="spacing" textLength="14" x="239.5" y="705.5332">UI</text><!--MD5=[378b18254a1b2429f435e93f5e5cc50c]
class C--><rect codeLine="7" fill="#FEFECE" filter="url(#f1jpe7vs3xyueu)" height="103.3438" id="C" style="stroke:#A80036;stroke-width:1.5;" width="225" x="204.5" y="202.5"/><ellipse cx="286.25" cy="218.5" fill="#ADD1B2" rx="11" ry="11" style="stroke:#A80036;stroke-width:1.0;"/><path d="M288.25,215 Q288.4531,214.5 288.6875,214.25 Q288.9219,214 289.1875,214 Q289.6563,214 289.9531,214.2813 Q290.25,214.5625 290.25,215.2188 L290.25,216.7813 Q290.25,217.4375 289.9688,217.7188 Q289.6875,218 289.25,218 Q288.8594,218 288.6094,217.8281 Q288.3594,217.6563 288.25,217.2031 Q288.2031,216.8906 288.0313,216.7188 Q287.7188,216.3906 287.1563,216.2031 Q286.5938,216 286.0313,216 Q285.3281,216 284.7344,216.2813 Q284.1563,216.5625 283.7031,217.1875 Q283.25,217.8125 283.25,218.6719 L283.25,219.5938 Q283.25,220.625 284.0938,221.3125 Q284.9375,222 286.4375,222 Q287.3281,222 287.9531,221.7969 Q288.3125,221.6875 288.7188,221.3281 Q288.9844,221.125 289.125,221.0625 Q289.2656,221 289.4375,221 Q289.7656,221 290,221.2656 Q290.25,221.5156 290.25,221.875 Q290.25,222.2188 289.9063,222.625 Q289.4063,223.2188 288.6094,223.5469 Q287.5625,224 286.2813,224 Q284.7813,224 283.5781,223.4063 Q282.6094,222.9375 281.9219,221.9219 Q281.25,220.9063 281.25,219.7031 L281.25,218.6094 Q281.25,217.3594 281.8438,216.2656 Q282.4531,215.1719 283.5,214.5938 Q284.5625,214 285.75,214 Q286.4688,214 287.0938,214.25 Q287.7188,214.5 288.25,215 Z " fill="#000000"/><text fill="#000000" font-family="sans-serif" font-size="12" lengthAdjust="spacing" textLength="53" x="306.75" y="223.4102">Company</text><line style="stroke:#A80036;stroke-width:1.5;" x1="205.5" x2="428.5" y1="234.5" y2="234.5"/><text fill="#000000" font-family="sans-serif" font-size="11" lengthAdjust="spacing" textLength="90" x="210.5" y="249.9189">-String designation</text><line style="stroke:#A80036;stroke-width:1.5;" x1="205.5" x2="428.5" y1="256.3359" y2="256.3359"/><text fill="#000000" font-family="sans-serif" font-size="11" lengthAdjust="spacing" textLength="100" x="210.5" y="271.7549">+getTestTypeStore()</text><text fill="#000000" font-family="sans-serif" font-size="11" lengthAdjust="spacing" textLength="148" x="210.5" y="285.5908">+getParameterCategoryStore()</text><text fill="#000000" font-family="sans-serif" font-size="11" lengthAdjust="spacing" textLength="213" x="210.5" y="299.4268">+List&lt;ExternalModule&gt; getExternalModules()</text><!--MD5=[218f71f443b9e0720bb96dd9df1d4749]
class PC--><rect codeLine="14" fill="#FEFECE" filter="url(#f1jpe7vs3xyueu)" height="89.5078" id="PC" style="stroke:#A80036;stroke-width:1.5;" width="175" x="1424" y="114"/><ellipse cx="1455.2" cy="130" fill="#ADD1B2" rx="11" ry="11" style="stroke:#A80036;stroke-width:1.0;"/><path d="M1457.2,126.5 Q1457.4031,126 1457.6375,125.75 Q1457.8719,125.5 1458.1375,125.5 Q1458.6063,125.5 1458.9031,125.7813 Q1459.2,126.0625 1459.2,126.7188 L1459.2,128.2813 Q1459.2,128.9375 1458.9188,129.2188 Q1458.6375,129.5 1458.2,129.5 Q1457.8094,129.5 1457.5594,129.3281 Q1457.3094,129.1563 1457.2,128.7031 Q1457.1531,128.3906 1456.9813,128.2188 Q1456.6688,127.8906 1456.1063,127.7031 Q1455.5438,127.5 1454.9813,127.5 Q1454.2781,127.5 1453.6844,127.7813 Q1453.1063,128.0625 1452.6531,128.6875 Q1452.2,129.3125 1452.2,130.1719 L1452.2,131.0938 Q1452.2,132.125 1453.0438,132.8125 Q1453.8875,133.5 1455.3875,133.5 Q1456.2781,133.5 1456.9031,133.2969 Q1457.2625,133.1875 1457.6688,132.8281 Q1457.9344,132.625 1458.075,132.5625 Q1458.2156,132.5 1458.3875,132.5 Q1458.7156,132.5 1458.95,132.7656 Q1459.2,133.0156 1459.2,133.375 Q1459.2,133.7188 1458.8563,134.125 Q1458.3563,134.7188 1457.5594,135.0469 Q1456.5125,135.5 1455.2313,135.5 Q1453.7313,135.5 1452.5281,134.9063 Q1451.5594,134.4375 1450.8719,133.4219 Q1450.2,132.4063 1450.2,131.2031 L1450.2,130.1094 Q1450.2,128.8594 1450.7938,127.7656 Q1451.4031,126.6719 1452.45,126.0938 Q1453.5125,125.5 1454.7,125.5 Q1455.4188,125.5 1456.0438,125.75 Q1456.6688,126 1457.2,126.5 Z " fill="#000000"/><text fill="#000000" font-family="sans-serif" font-size="12" lengthAdjust="spacing" textLength="107" x="1472.8" y="134.9102">ParameterCategory</text><line style="stroke:#A80036;stroke-width:1.5;" x1="1425" x2="1598" y1="146" y2="146"/><text fill="#000000" font-family="sans-serif" font-size="11" lengthAdjust="spacing" textLength="61" x="1430" y="161.4189">-String name</text><text fill="#000000" font-family="sans-serif" font-size="11" lengthAdjust="spacing" textLength="59" x="1430" y="175.2549">-String code</text><line style="stroke:#A80036;stroke-width:1.5;" x1="1425" x2="1598" y1="181.6719" y2="181.6719"/><text fill="#000000" font-family="sans-serif" font-size="11" lengthAdjust="spacing" textLength="163" x="1430" y="197.0908">+ParameterCategory(name, code)</text><!--MD5=[f76673142371ead9f091198193c4bd63]
class TT--><rect codeLine="20" fill="#FEFECE" filter="url(#f1jpe7vs3xyueu)" height="131.0156" id="TT" style="stroke:#A80036;stroke-width:1.5;" width="443" x="732" y="174.5"/><ellipse cx="924.25" cy="190.5" fill="#ADD1B2" rx="11" ry="11" style="stroke:#A80036;stroke-width:1.0;"/><path d="M926.25,187 Q926.4531,186.5 926.6875,186.25 Q926.9219,186 927.1875,186 Q927.6563,186 927.9531,186.2813 Q928.25,186.5625 928.25,187.2188 L928.25,188.7813 Q928.25,189.4375 927.9688,189.7188 Q927.6875,190 927.25,190 Q926.8594,190 926.6094,189.8281 Q926.3594,189.6563 926.25,189.2031 Q926.2031,188.8906 926.0313,188.7188 Q925.7188,188.3906 925.1563,188.2031 Q924.5938,188 924.0313,188 Q923.3281,188 922.7344,188.2813 Q922.1563,188.5625 921.7031,189.1875 Q921.25,189.8125 921.25,190.6719 L921.25,191.5938 Q921.25,192.625 922.0938,193.3125 Q922.9375,194 924.4375,194 Q925.3281,194 925.9531,193.7969 Q926.3125,193.6875 926.7188,193.3281 Q926.9844,193.125 927.125,193.0625 Q927.2656,193 927.4375,193 Q927.7656,193 928,193.2656 Q928.25,193.5156 928.25,193.875 Q928.25,194.2188 927.9063,194.625 Q927.4063,195.2188 926.6094,195.5469 Q925.5625,196 924.2813,196 Q922.7813,196 921.5781,195.4063 Q920.6094,194.9375 919.9219,193.9219 Q919.25,192.9063 919.25,191.7031 L919.25,190.6094 Q919.25,189.3594 919.8438,188.2656 Q920.4531,187.1719 921.5,186.5938 Q922.5625,186 923.75,186 Q924.4688,186 925.0938,186.25 Q925.7188,186.5 926.25,187 Z " fill="#000000"/><text fill="#000000" font-family="sans-serif" font-size="12" lengthAdjust="spacing" textLength="50" x="944.75" y="195.4102">TestType</text><line style="stroke:#A80036;stroke-width:1.5;" x1="733" x2="1174" y1="206.5" y2="206.5"/><text fill="#000000" font-family="sans-serif" font-size="11" lengthAdjust="spacing" textLength="59" x="738" y="221.9189">-String code</text><text fill="#000000" font-family="sans-serif" font-size="11" lengthAdjust="spacing" textLength="88" x="738" y="235.7549">-String description</text><text fill="#000000" font-family="sans-serif" font-size="11" lengthAdjust="spacing" textLength="115" x="738" y="249.5908">-String collectingMethod</text><text fill="#000000" font-family="sans-serif" font-size="11" lengthAdjust="spacing" textLength="250" x="738" y="263.4268">-List &lt;ParameterCategory&gt; parameterCategoriesList</text><text fill="#000000" font-family="sans-serif" font-size="11" lengthAdjust="spacing" textLength="153" x="738" y="277.2627">-ExternalModule externalModule</text><line style="stroke:#A80036;stroke-width:1.5;" x1="733" x2="1174" y1="283.6797" y2="283.6797"/><text fill="#000000" font-family="sans-serif" font-size="11" lengthAdjust="spacing" textLength="431" x="738" y="299.0986">+TestType(code, description, collectingMethod, parameterCategoriesList, externalModule)</text><!--MD5=[0c21d7a5a5555e4278001068caacbd33]
class TTS--><rect codeLine="34" fill="#FEFECE" filter="url(#f1jpe7vs3xyueu)" height="131.0156" id="TTS" style="stroke:#A80036;stroke-width:1.5;" width="522" x="56" y="382.5"/><ellipse cx="273.25" cy="398.5" fill="#ADD1B2" rx="11" ry="11" style="stroke:#A80036;stroke-width:1.0;"/><path d="M275.25,395 Q275.4531,394.5 275.6875,394.25 Q275.9219,394 276.1875,394 Q276.6563,394 276.9531,394.2813 Q277.25,394.5625 277.25,395.2188 L277.25,396.7813 Q277.25,397.4375 276.9688,397.7188 Q276.6875,398 276.25,398 Q275.8594,398 275.6094,397.8281 Q275.3594,397.6563 275.25,397.2031 Q275.2031,396.8906 275.0313,396.7188 Q274.7188,396.3906 274.1563,396.2031 Q273.5938,396 273.0313,396 Q272.3281,396 271.7344,396.2813 Q271.1563,396.5625 270.7031,397.1875 Q270.25,397.8125 270.25,398.6719 L270.25,399.5938 Q270.25,400.625 271.0938,401.3125 Q271.9375,402 273.4375,402 Q274.3281,402 274.9531,401.7969 Q275.3125,401.6875 275.7188,401.3281 Q275.9844,401.125 276.125,401.0625 Q276.2656,401 276.4375,401 Q276.7656,401 277,401.2656 Q277.25,401.5156 277.25,401.875 Q277.25,402.2188 276.9063,402.625 Q276.4063,403.2188 275.6094,403.5469 Q274.5625,404 273.2813,404 Q271.7813,404 270.5781,403.4063 Q269.6094,402.9375 268.9219,401.9219 Q268.25,400.9063 268.25,399.7031 L268.25,398.6094 Q268.25,397.3594 268.8438,396.2656 Q269.4531,395.1719 270.5,394.5938 Q271.5625,394 272.75,394 Q273.4688,394 274.0938,394.25 Q274.7188,394.5 275.25,395 Z " fill="#000000"/><text fill="#000000" font-family="sans-serif" font-size="12" lengthAdjust="spacing" textLength="79" x="293.75" y="403.4102">TestTypeStore</text><line style="stroke:#A80036;stroke-width:1.5;" x1="57" x2="577" y1="414.5" y2="414.5"/><text fill="#000000" font-family="sans-serif" font-size="11" lengthAdjust="spacing" textLength="140" x="62" y="429.9189">-List&lt;TestType&gt; testTypeList</text><line style="stroke:#A80036;stroke-width:1.5;" x1="57" x2="577" y1="436.3359" y2="436.3359"/><text fill="#000000" font-family="sans-serif" font-size="11" lengthAdjust="spacing" textLength="510" x="62" y="451.7549">+TestType createTestType(code, description, collectingMethod, parameterCategoriesList, externalModule)</text><text fill="#000000" font-family="sans-serif" font-size="11" lengthAdjust="spacing" textLength="130" x="62" y="465.5908">+boolean saveTestType(tt)</text><text fill="#000000" font-family="sans-serif" font-size="11" lengthAdjust="spacing" textLength="143" x="62" y="479.4268">+boolean validateTestType(tt)</text><text fill="#000000" font-family="sans-serif" font-size="11" lengthAdjust="spacing" textLength="124" x="62" y="493.2627">+boolean addTestType(tt)</text><text fill="#000000" font-family="sans-serif" font-size="11" lengthAdjust="spacing" textLength="172" x="62" y="507.0986">+List &lt;TestType&gt; getAllTestTypes()</text><!--MD5=[0db42b3591f13a48474e506cf6fbc101]
class CTTC--><rect codeLine="47" fill="#FEFECE" filter="url(#f1jpe7vs3xyueu)" height="131.0156" id="CTTC" style="stroke:#A80036;stroke-width:1.5;" width="515" x="696" y="493.5"/><ellipse cx="878.75" cy="509.5" fill="#ADD1B2" rx="11" ry="11" style="stroke:#A80036;stroke-width:1.0;"/><path d="M880.75,506 Q880.9531,505.5 881.1875,505.25 Q881.4219,505 881.6875,505 Q882.1563,505 882.4531,505.2813 Q882.75,505.5625 882.75,506.2188 L882.75,507.7813 Q882.75,508.4375 882.4688,508.7188 Q882.1875,509 881.75,509 Q881.3594,509 881.1094,508.8281 Q880.8594,508.6563 880.75,508.2031 Q880.7031,507.8906 880.5313,507.7188 Q880.2188,507.3906 879.6563,507.2031 Q879.0938,507 878.5313,507 Q877.8281,507 877.2344,507.2813 Q876.6563,507.5625 876.2031,508.1875 Q875.75,508.8125 875.75,509.6719 L875.75,510.5938 Q875.75,511.625 876.5938,512.3125 Q877.4375,513 878.9375,513 Q879.8281,513 880.4531,512.7969 Q880.8125,512.6875 881.2188,512.3281 Q881.4844,512.125 881.625,512.0625 Q881.7656,512 881.9375,512 Q882.2656,512 882.5,512.2656 Q882.75,512.5156 882.75,512.875 Q882.75,513.2188 882.4063,513.625 Q881.9063,514.2188 881.1094,514.5469 Q880.0625,515 878.7813,515 Q877.2813,515 876.0781,514.4063 Q875.1094,513.9375 874.4219,512.9219 Q873.75,511.9063 873.75,510.7031 L873.75,509.6094 Q873.75,508.3594 874.3438,507.2656 Q874.9531,506.1719 876,505.5938 Q877.0625,505 878.25,505 Q878.9688,505 879.5938,505.25 Q880.2188,505.5 880.75,506 Z " fill="#000000"/><text fill="#000000" font-family="sans-serif" font-size="12" lengthAdjust="spacing" textLength="141" x="899.25" y="514.4102">CreateTestTypeController</text><line style="stroke:#A80036;stroke-width:1.5;" x1="697" x2="1210" y1="525.5" y2="525.5"/><line style="stroke:#A80036;stroke-width:1.5;" x1="697" x2="1210" y1="533.5" y2="533.5"/><text fill="#000000" font-family="sans-serif" font-size="11" lengthAdjust="spacing" textLength="137" x="702" y="548.9189">+CreateTestTypeController()</text><text fill="#000000" font-family="sans-serif" font-size="11" lengthAdjust="spacing" textLength="201" x="702" y="562.7549">+List&lt;TestTypeDto&gt; getAllTestTypesDto()</text><text fill="#000000" font-family="sans-serif" font-size="11" lengthAdjust="spacing" textLength="503" x="702" y="576.5908">+boolean createTestType(code, description, collectingMethod, parameterCategoriesList, externalModule)</text><text fill="#000000" font-family="sans-serif" font-size="11" lengthAdjust="spacing" textLength="124" x="702" y="590.4268">+boolean saveTestType()</text><text fill="#000000" font-family="sans-serif" font-size="11" lengthAdjust="spacing" textLength="169" x="702" y="604.2627">+List&lt;TestType&gt; getAllTestTypes()</text><text fill="#000000" font-family="sans-serif" font-size="11" lengthAdjust="spacing" textLength="213" x="702" y="618.0986">+List&lt;ExternalModule&gt; getExternalModules()</text><!--MD5=[0395d61ec6d33a7f38ab71a957cc7d70]
class CPCS--><rect codeLine="58" fill="#FEFECE" filter="url(#f1jpe7vs3xyueu)" height="75.6719" id="CPCS" style="stroke:#A80036;stroke-width:1.5;" width="314" x="796.5" y="382"/><ellipse cx="850.25" cy="398" fill="#ADD1B2" rx="11" ry="11" style="stroke:#A80036;stroke-width:1.0;"/><path d="M852.25,394.5 Q852.4531,394 852.6875,393.75 Q852.9219,393.5 853.1875,393.5 Q853.6563,393.5 853.9531,393.7813 Q854.25,394.0625 854.25,394.7188 L854.25,396.2813 Q854.25,396.9375 853.9688,397.2188 Q853.6875,397.5 853.25,397.5 Q852.8594,397.5 852.6094,397.3281 Q852.3594,397.1563 852.25,396.7031 Q852.2031,396.3906 852.0313,396.2188 Q851.7188,395.8906 851.1563,395.7031 Q850.5938,395.5 850.0313,395.5 Q849.3281,395.5 848.7344,395.7813 Q848.1563,396.0625 847.7031,396.6875 Q847.25,397.3125 847.25,398.1719 L847.25,399.0938 Q847.25,400.125 848.0938,400.8125 Q848.9375,401.5 850.4375,401.5 Q851.3281,401.5 851.9531,401.2969 Q852.3125,401.1875 852.7188,400.8281 Q852.9844,400.625 853.125,400.5625 Q853.2656,400.5 853.4375,400.5 Q853.7656,400.5 854,400.7656 Q854.25,401.0156 854.25,401.375 Q854.25,401.7188 853.9063,402.125 Q853.4063,402.7188 852.6094,403.0469 Q851.5625,403.5 850.2813,403.5 Q848.7813,403.5 847.5781,402.9063 Q846.6094,402.4375 845.9219,401.4219 Q845.25,400.4063 845.25,399.2031 L845.25,398.1094 Q845.25,396.8594 845.8438,395.7656 Q846.4531,394.6719 847.5,394.0938 Q848.5625,393.5 849.75,393.5 Q850.4688,393.5 851.0938,393.75 Q851.7188,394 852.25,394.5 Z " fill="#000000"/><text fill="#000000" font-family="sans-serif" font-size="12" lengthAdjust="spacing" textLength="198" x="870.75" y="402.9102">CreateParameterCategoryController</text><line style="stroke:#A80036;stroke-width:1.5;" x1="797.5" x2="1109.5" y1="414" y2="414"/><line style="stroke:#A80036;stroke-width:1.5;" x1="797.5" x2="1109.5" y1="422" y2="422"/><text fill="#000000" font-family="sans-serif" font-size="11" lengthAdjust="spacing" textLength="302" x="802.5" y="437.4189">+List &lt;ParameterCategoryDto&gt; getAllParameterCategoriesDto()</text><text fill="#000000" font-family="sans-serif" font-size="11" lengthAdjust="spacing" textLength="280" x="802.5" y="451.2549">+ParameterCategory getParameterCategoryByCode(code)</text><!--MD5=[1905ea1c532ab03438cb5177c6784fd5]
class ttM--><rect codeLine="66" fill="#FEFECE" filter="url(#f1jpe7vs3xyueu)" height="61.8359" id="ttM" style="stroke:#A80036;stroke-width:1.5;" width="221" x="1401" y="563"/><ellipse cx="1461.75" cy="579" fill="#ADD1B2" rx="11" ry="11" style="stroke:#A80036;stroke-width:1.0;"/><path d="M1463.75,575.5 Q1463.9531,575 1464.1875,574.75 Q1464.4219,574.5 1464.6875,574.5 Q1465.1563,574.5 1465.4531,574.7813 Q1465.75,575.0625 1465.75,575.7188 L1465.75,577.2813 Q1465.75,577.9375 1465.4688,578.2188 Q1465.1875,578.5 1464.75,578.5 Q1464.3594,578.5 1464.1094,578.3281 Q1463.8594,578.1563 1463.75,577.7031 Q1463.7031,577.3906 1463.5313,577.2188 Q1463.2188,576.8906 1462.6563,576.7031 Q1462.0938,576.5 1461.5313,576.5 Q1460.8281,576.5 1460.2344,576.7813 Q1459.6563,577.0625 1459.2031,577.6875 Q1458.75,578.3125 1458.75,579.1719 L1458.75,580.0938 Q1458.75,581.125 1459.5938,581.8125 Q1460.4375,582.5 1461.9375,582.5 Q1462.8281,582.5 1463.4531,582.2969 Q1463.8125,582.1875 1464.2188,581.8281 Q1464.4844,581.625 1464.625,581.5625 Q1464.7656,581.5 1464.9375,581.5 Q1465.2656,581.5 1465.5,581.7656 Q1465.75,582.0156 1465.75,582.375 Q1465.75,582.7188 1465.4063,583.125 Q1464.9063,583.7188 1464.1094,584.0469 Q1463.0625,584.5 1461.7813,584.5 Q1460.2813,584.5 1459.0781,583.9063 Q1458.1094,583.4375 1457.4219,582.4219 Q1456.75,581.4063 1456.75,580.2031 L1456.75,579.1094 Q1456.75,577.8594 1457.3438,576.7656 Q1457.9531,575.6719 1459,575.0938 Q1460.0625,574.5 1461.25,574.5 Q1461.9688,574.5 1462.5938,574.75 Q1463.2188,575 1463.75,575.5 Z " fill="#000000"/><text fill="#000000" font-family="sans-serif" font-size="12" lengthAdjust="spacing" textLength="91" x="1482.25" y="583.9102">TestTypeMapper</text><line style="stroke:#A80036;stroke-width:1.5;" x1="1402" x2="1621" y1="595" y2="595"/><line style="stroke:#A80036;stroke-width:1.5;" x1="1402" x2="1621" y1="603" y2="603"/><text fill="#000000" font-family="sans-serif" font-size="11" lengthAdjust="spacing" textLength="209" x="1407" y="618.4189">+List &lt;TestTypeDto&gt; toDto(List&lt;TestType&gt;)</text><!--MD5=[c87944dbd4a20957a43785b60d8aa940]
class pcM--><rect codeLine="70" fill="#FEFECE" filter="url(#f1jpe7vs3xyueu)" height="61.8359" id="pcM" style="stroke:#A80036;stroke-width:1.5;" width="317" x="1353" y="466"/><ellipse cx="1433.25" cy="482" fill="#ADD1B2" rx="11" ry="11" style="stroke:#A80036;stroke-width:1.0;"/><path d="M1435.25,478.5 Q1435.4531,478 1435.6875,477.75 Q1435.9219,477.5 1436.1875,477.5 Q1436.6563,477.5 1436.9531,477.7813 Q1437.25,478.0625 1437.25,478.7188 L1437.25,480.2813 Q1437.25,480.9375 1436.9688,481.2188 Q1436.6875,481.5 1436.25,481.5 Q1435.8594,481.5 1435.6094,481.3281 Q1435.3594,481.1563 1435.25,480.7031 Q1435.2031,480.3906 1435.0313,480.2188 Q1434.7188,479.8906 1434.1563,479.7031 Q1433.5938,479.5 1433.0313,479.5 Q1432.3281,479.5 1431.7344,479.7813 Q1431.1563,480.0625 1430.7031,480.6875 Q1430.25,481.3125 1430.25,482.1719 L1430.25,483.0938 Q1430.25,484.125 1431.0938,484.8125 Q1431.9375,485.5 1433.4375,485.5 Q1434.3281,485.5 1434.9531,485.2969 Q1435.3125,485.1875 1435.7188,484.8281 Q1435.9844,484.625 1436.125,484.5625 Q1436.2656,484.5 1436.4375,484.5 Q1436.7656,484.5 1437,484.7656 Q1437.25,485.0156 1437.25,485.375 Q1437.25,485.7188 1436.9063,486.125 Q1436.4063,486.7188 1435.6094,487.0469 Q1434.5625,487.5 1433.2813,487.5 Q1431.7813,487.5 1430.5781,486.9063 Q1429.6094,486.4375 1428.9219,485.4219 Q1428.25,484.4063 1428.25,483.2031 L1428.25,482.1094 Q1428.25,480.8594 1428.8438,479.7656 Q1429.4531,478.6719 1430.5,478.0938 Q1431.5625,477.5 1432.75,477.5 Q1433.4688,477.5 1434.0938,477.75 Q1434.7188,478 1435.25,478.5 Z " fill="#000000"/><text fill="#000000" font-family="sans-serif" font-size="12" lengthAdjust="spacing" textLength="148" x="1453.75" y="486.9102">ParameterCategoryMapper</text><line style="stroke:#A80036;stroke-width:1.5;" x1="1354" x2="1669" y1="498" y2="498"/><line style="stroke:#A80036;stroke-width:1.5;" x1="1354" x2="1669" y1="506" y2="506"/><text fill="#000000" font-family="sans-serif" font-size="11" lengthAdjust="spacing" textLength="305" x="1359" y="521.4189">+List &lt;ParameterCategoryDto&gt; toDto(List&lt;ParameterCategory&gt;)</text><!--MD5=[ec0a4f007167539f7ef0283e3ce97f9f]
class ttDto--><rect codeLine="78" fill="#FEFECE" filter="url(#f1jpe7vs3xyueu)" height="48" id="ttDto" style="stroke:#A80036;stroke-width:1.5;" width="101" x="1763.5" y="390"/><ellipse cx="1778.5" cy="406" fill="#ADD1B2" rx="11" ry="11" style="stroke:#A80036;stroke-width:1.0;"/><path d="M1780.5,402.5 Q1780.7031,402 1780.9375,401.75 Q1781.1719,401.5 1781.4375,401.5 Q1781.9063,401.5 1782.2031,401.7813 Q1782.5,402.0625 1782.5,402.7188 L1782.5,404.2813 Q1782.5,404.9375 1782.2188,405.2188 Q1781.9375,405.5 1781.5,405.5 Q1781.1094,405.5 1780.8594,405.3281 Q1780.6094,405.1563 1780.5,404.7031 Q1780.4531,404.3906 1780.2813,404.2188 Q1779.9688,403.8906 1779.4063,403.7031 Q1778.8438,403.5 1778.2813,403.5 Q1777.5781,403.5 1776.9844,403.7813 Q1776.4063,404.0625 1775.9531,404.6875 Q1775.5,405.3125 1775.5,406.1719 L1775.5,407.0938 Q1775.5,408.125 1776.3438,408.8125 Q1777.1875,409.5 1778.6875,409.5 Q1779.5781,409.5 1780.2031,409.2969 Q1780.5625,409.1875 1780.9688,408.8281 Q1781.2344,408.625 1781.375,408.5625 Q1781.5156,408.5 1781.6875,408.5 Q1782.0156,408.5 1782.25,408.7656 Q1782.5,409.0156 1782.5,409.375 Q1782.5,409.7188 1782.1563,410.125 Q1781.6563,410.7188 1780.8594,411.0469 Q1779.8125,411.5 1778.5313,411.5 Q1777.0313,411.5 1775.8281,410.9063 Q1774.8594,410.4375 1774.1719,409.4219 Q1773.5,408.4063 1773.5,407.2031 L1773.5,406.1094 Q1773.5,404.8594 1774.0938,403.7656 Q1774.7031,402.6719 1775.75,402.0938 Q1776.8125,401.5 1778,401.5 Q1778.7188,401.5 1779.3438,401.75 Q1779.9688,402 1780.5,402.5 Z " fill="#000000"/><text fill="#000000" font-family="sans-serif" font-size="12" lengthAdjust="spacing" textLength="69" x="1792.5" y="410.9102">TestTypeDto</text><line style="stroke:#A80036;stroke-width:1.5;" x1="1764.5" x2="1863.5" y1="422" y2="422"/><line style="stroke:#A80036;stroke-width:1.5;" x1="1764.5" x2="1863.5" y1="430" y2="430"/><!--MD5=[808bc6f30abcce3f75fbe2ba7c53e00a]
class pcDto--><rect codeLine="81" fill="#FEFECE" filter="url(#f1jpe7vs3xyueu)" height="48" id="pcDto" style="stroke:#A80036;stroke-width:1.5;" width="158" x="1735" y="473"/><ellipse cx="1750" cy="489" fill="#ADD1B2" rx="11" ry="11" style="stroke:#A80036;stroke-width:1.0;"/><path d="M1752,485.5 Q1752.2031,485 1752.4375,484.75 Q1752.6719,484.5 1752.9375,484.5 Q1753.4063,484.5 1753.7031,484.7813 Q1754,485.0625 1754,485.7188 L1754,487.2813 Q1754,487.9375 1753.7188,488.2188 Q1753.4375,488.5 1753,488.5 Q1752.6094,488.5 1752.3594,488.3281 Q1752.1094,488.1563 1752,487.7031 Q1751.9531,487.3906 1751.7813,487.2188 Q1751.4688,486.8906 1750.9063,486.7031 Q1750.3438,486.5 1749.7813,486.5 Q1749.0781,486.5 1748.4844,486.7813 Q1747.9063,487.0625 1747.4531,487.6875 Q1747,488.3125 1747,489.1719 L1747,490.0938 Q1747,491.125 1747.8438,491.8125 Q1748.6875,492.5 1750.1875,492.5 Q1751.0781,492.5 1751.7031,492.2969 Q1752.0625,492.1875 1752.4688,491.8281 Q1752.7344,491.625 1752.875,491.5625 Q1753.0156,491.5 1753.1875,491.5 Q1753.5156,491.5 1753.75,491.7656 Q1754,492.0156 1754,492.375 Q1754,492.7188 1753.6563,493.125 Q1753.1563,493.7188 1752.3594,494.0469 Q1751.3125,494.5 1750.0313,494.5 Q1748.5313,494.5 1747.3281,493.9063 Q1746.3594,493.4375 1745.6719,492.4219 Q1745,491.4063 1745,490.2031 L1745,489.1094 Q1745,487.8594 1745.5938,486.7656 Q1746.2031,485.6719 1747.25,485.0938 Q1748.3125,484.5 1749.5,484.5 Q1750.2188,484.5 1750.8438,484.75 Q1751.4688,485 1752,485.5 Z " fill="#000000"/><text fill="#000000" font-family="sans-serif" font-size="12" lengthAdjust="spacing" textLength="126" x="1764" y="493.9102">ParameterCategoryDto</text><line style="stroke:#A80036;stroke-width:1.5;" x1="1736" x2="1892" y1="505" y2="505"/><line style="stroke:#A80036;stroke-width:1.5;" x1="1736" x2="1892" y1="513" y2="513"/><!--MD5=[6461a74477876ab4a04549c978c1a07a]
class CTTUI--><rect codeLine="88" fill="#FEFECE" filter="url(#f1jpe7vs3xyueu)" height="48" id="CTTUI" style="stroke:#A80036;stroke-width:1.5;" width="131" x="251.5" y="725"/><ellipse cx="266.5" cy="741" fill="#ADD1B2" rx="11" ry="11" style="stroke:#A80036;stroke-width:1.0;"/><path d="M268.5,737.5 Q268.7031,737 268.9375,736.75 Q269.1719,736.5 269.4375,736.5 Q269.9063,736.5 270.2031,736.7813 Q270.5,737.0625 270.5,737.7188 L270.5,739.2813 Q270.5,739.9375 270.2188,740.2188 Q269.9375,740.5 269.5,740.5 Q269.1094,740.5 268.8594,740.3281 Q268.6094,740.1563 268.5,739.7031 Q268.4531,739.3906 268.2813,739.2188 Q267.9688,738.8906 267.4063,738.7031 Q266.8438,738.5 266.2813,738.5 Q265.5781,738.5 264.9844,738.7813 Q264.4063,739.0625 263.9531,739.6875 Q263.5,740.3125 263.5,741.1719 L263.5,742.0938 Q263.5,743.125 264.3438,743.8125 Q265.1875,744.5 266.6875,744.5 Q267.5781,744.5 268.2031,744.2969 Q268.5625,744.1875 268.9688,743.8281 Q269.2344,743.625 269.375,743.5625 Q269.5156,743.5 269.6875,743.5 Q270.0156,743.5 270.25,743.7656 Q270.5,744.0156 270.5,744.375 Q270.5,744.7188 270.1563,745.125 Q269.6563,745.7188 268.8594,746.0469 Q267.8125,746.5 266.5313,746.5 Q265.0313,746.5 263.8281,745.9063 Q262.8594,745.4375 262.1719,744.4219 Q261.5,743.4063 261.5,742.2031 L261.5,741.1094 Q261.5,739.8594 262.0938,738.7656 Q262.7031,737.6719 263.75,737.0938 Q264.8125,736.5 266,736.5 Q266.7188,736.5 267.3438,736.75 Q267.9688,737 268.5,737.5 Z " fill="#000000"/><text fill="#000000" font-family="sans-serif" font-size="12" lengthAdjust="spacing" textLength="99" x="280.5" y="745.9102">CreateTestTypeUI</text><line style="stroke:#A80036;stroke-width:1.5;" x1="252.5" x2="381.5" y1="757" y2="757"/><line style="stroke:#A80036;stroke-width:1.5;" x1="252.5" x2="381.5" y1="765" y2="765"/><!--MD5=[320690cba070b8468face0bfd1ce9533]
link CTTUI to CTTC--><path codeLine="91" d="M382.63,729.65 C463.44,705.45 606.07,662.74 728.41,626.1 " fill="none" id="CTTUI-to-CTTC" style="stroke:#A80036;stroke-width:1.0;stroke-dasharray:7.0,7.0;"/><polygon fill="#A80036" points="733.49,624.58,723.7219,623.3214,728.6989,626.0102,726.0102,630.9872,733.49,624.58" style="stroke:#A80036;stroke-width:1.0;"/><!--MD5=[99c32f4425d0774d9bc360edfb04ef87]
link C to CPCS--><path codeLine="92" d="M429.61,283.2 C533.06,310.27 687.77,350.74 802.09,380.65 " fill="none" id="C-to-CPCS" style="stroke:#A80036;stroke-width:1.0;stroke-dasharray:7.0,7.0;"/><polygon fill="#A80036" points="807.16,381.98,799.4582,375.8414,802.3213,380.7202,797.4425,383.5834,807.16,381.98" style="stroke:#A80036;stroke-width:1.0;"/><!--MD5=[299cf0460a0b3ffee05ec41c99ce24b7]
link C to TTS--><path codeLine="93" d="M317,305.68 C317,329.57 317,353.46 317,377.35 " fill="none" id="C-to-TTS" style="stroke:#A80036;stroke-width:1.0;stroke-dasharray:7.0,7.0;"/><polygon fill="#A80036" points="317,382.45,321,373.45,317,377.45,313,373.45,317,382.45" style="stroke:#A80036;stroke-width:1.0;"/><!--MD5=[cf05f59dfce81a96099c5f95714bd5af]
link CTTC to C--><path codeLine="94" d="M699.92,493.42 C690.19,487.78 680.83,481.65 672,475 C626.01,440.37 646.48,402.55 602,366 C553.7,326.32 489.63,299.43 434.56,281.96 " fill="none" id="CTTC-to-C" style="stroke:#A80036;stroke-width:1.0;stroke-dasharray:7.0,7.0;"/><polygon fill="#A80036" points="429.6,280.41,436.9861,286.925,434.3699,281.9095,439.3853,279.2932,429.6,280.41" style="stroke:#A80036;stroke-width:1.0;"/><!--MD5=[e78a6acdd318a27b442e8ff64f8c9353]
link CTTC to ttM--><path codeLine="95" d="M1211.34,575.17 C1275.98,579.24 1342.15,583.4 1395.77,586.78 " fill="none" id="CTTC-to-ttM" style="stroke:#A80036;stroke-width:1.0;stroke-dasharray:7.0,7.0;"/><polygon fill="#A80036" points="1400.92,587.1,1392.1895,582.5417,1395.9299,586.7854,1391.6862,590.5259,1400.92,587.1" style="stroke:#A80036;stroke-width:1.0;"/><!--MD5=[8dd6d3028e965dc60ea1bc8f75a077b5]
link CTTC to ttDto--><path codeLine="96" d="M1172.65,493.49 C1244.89,472.2 1311.45,453.17 1329,450 C1483.01,422.18 1668.32,415.78 1758.44,414.36 " fill="none" id="CTTC-to-ttDto" style="stroke:#A80036;stroke-width:1.0;stroke-dasharray:7.0,7.0;"/><polygon fill="#A80036" points="1763.45,414.28,1754.3828,410.4349,1758.4507,414.3657,1754.5199,418.4337,1763.45,414.28" style="stroke:#A80036;stroke-width:1.0;"/><!--MD5=[93286ab8d15dacf230424bab250ab910]
link TT to PC--><path codeLine="97" d="M1175.04,207.87 C1262.21,195.17 1357.26,181.32 1423.85,171.62 " fill="none" id="TT-PC" style="stroke:#A80036;stroke-width:1.0;"/><polygon fill="#000000" points="1252.9478,178.4549,1243.5735,176.8507,1244.4209,182.6672,1252.9478,178.4549" style="stroke:#000000;stroke-width:1.0;"/><text fill="#000000" font-family="sans-serif" font-size="13" lengthAdjust="spacing" textLength="63" x="1257" y="184.4951">analyzes a</text><text fill="#000000" font-family="sans-serif" font-size="13" lengthAdjust="spacing" textLength="5" x="1183.0914" y="220.504">*</text><text fill="#000000" font-family="sans-serif" font-size="13" lengthAdjust="spacing" textLength="7" x="1409.0168" y="186.9234">1</text><!--MD5=[47773c9c22b384181ea9d3871f1f6c2c]
link TTS to TT--><path codeLine="98" d="M517.89,382.47 C591.11,358.47 674.04,331.28 747.69,307.14 " fill="none" id="TTS-to-TT" style="stroke:#A80036;stroke-width:1.0;stroke-dasharray:7.0,7.0;"/><polygon fill="#A80036" points="752.53,305.55,742.7322,304.5482,747.7781,307.1054,745.2209,312.1513,752.53,305.55" style="stroke:#A80036;stroke-width:1.0;"/><!--MD5=[87cf4899889a61f69e835453d85d5116]
link ttM to ttDto--><path codeLine="99" d="M1622.03,584.87 C1648.81,577.6 1675.15,565.36 1694,545 C1721.66,515.13 1685.16,486.46 1711,455 C1722.96,440.44 1740.86,431.01 1758.35,424.93 " fill="none" id="ttM-to-ttDto" style="stroke:#A80036;stroke-width:1.0;stroke-dasharray:7.0,7.0;"/><polygon fill="#A80036" points="1763.26,423.29,1753.4587,422.3236,1758.5137,424.8626,1755.9748,429.9176,1763.26,423.29" style="stroke:#A80036;stroke-width:1.0;"/><!--MD5=[8189db5086aad6005fc8a167d8882fed]
link pcM to pcDto--><path codeLine="100" d="M1670.23,497 C1690.7,497 1710.97,497 1729.54,497 " fill="none" id="pcM-to-pcDto" style="stroke:#A80036;stroke-width:1.0;stroke-dasharray:7.0,7.0;"/><polygon fill="#A80036" points="1734.74,497,1725.74,493,1729.74,497,1725.74,501,1734.74,497" style="stroke:#A80036;stroke-width:1.0;"/><!--MD5=[1d76f811c406f01b7366c4d7b698f081]
link CPCS to pcM--><path codeLine="101" d="M1110.86,441.65 C1184.72,451.88 1272.87,464.09 1347.55,474.43 " fill="none" id="CPCS-to-pcM" style="stroke:#A80036;stroke-width:1.0;stroke-dasharray:7.0,7.0;"/><polygon fill="#A80036" points="1352.91,475.18,1344.545,469.9812,1347.9574,474.4929,1343.4457,477.9053,1352.91,475.18" style="stroke:#A80036;stroke-width:1.0;"/><!--MD5=[b83cceec495819d0b37daa935a10185d]
link C to TT--><path codeLine="103" d="M429.61,251.54 C513,249.7 629.69,247.12 731.68,244.87 " fill="none" id="C-TT" style="stroke:#A80036;stroke-width:1.0;"/><polygon fill="#000000" points="619.9988,238.0654,610.891,235.3269,611.0208,241.2033,619.9988,238.0654" style="stroke:#000000;stroke-width:1.0;"/><text fill="#000000" font-family="sans-serif" font-size="13" lengthAdjust="spacing" textLength="39" x="624" y="243.4951">adopts</text><text fill="#000000" font-family="sans-serif" font-size="13" lengthAdjust="spacing" textLength="7" x="437.4111" y="265.4076">1</text><text fill="#000000" font-family="sans-serif" font-size="13" lengthAdjust="spacing" textLength="5" x="719.3195" y="258.7929">*</text><!--MD5=[71b3fc4d6ca120e51ce9c04aa77747d8]
link C to PC--><path codeLine="104" d="M429.6,215.17 C498.51,193.27 589.27,168.13 672,157 C919.99,123.64 984.78,156.09 1235,157 C1298.26,157.23 1369.68,157.76 1423.95,158.21 " fill="none" id="C-PC" style="stroke:#A80036;stroke-width:1.0;"/><polygon fill="#000000" points="936.4918,132.8898,927.2935,130.473,927.6296,136.3412,936.4918,132.8898" style="stroke:#000000;stroke-width:1.0;"/><text fill="#000000" font-family="sans-serif" font-size="13" lengthAdjust="spacing" textLength="39" x="940.5" y="138.4951">adopts</text><text fill="#000000" font-family="sans-serif" font-size="13" lengthAdjust="spacing" textLength="7" x="437.4005" y="226.594">1</text><text fill="#000000" font-family="sans-serif" font-size="13" lengthAdjust="spacing" textLength="5" x="1410.9299" y="154.9598">*</text><!--MD5=[a86bc787aedff9aeab68dea76509acd4]
@startuml
skinparam classAttributeIconSize 0
left to right direction

package Core{

package Domain{
class "Company" as C {
-String designation
+getTestTypeStore()
+getParameterCategoryStore()
+List<ExternalModule> getExternalModules()
}

class "ParameterCategory" as PC{
-String name
-String code
+ParameterCategory(name, code)
}

class "TestType" as TT {
-String code
-String description
-String collectingMethod
-List <ParameterCategory> parameterCategoriesList
-ExternalModule externalModule
+TestType(code, description, collectingMethod, parameterCategoriesList, externalModule)
}

}



package Stores{
class "TestTypeStore" as TTS{
-List<TestType> testTypeList
+TestType createTestType(code, description, collectingMethod, parameterCategoriesList, externalModule)
+boolean saveTestType(tt)
+boolean validateTestType(tt)
+boolean addTestType(tt)
+List <TestType> getAllTestTypes()
}
}



package Controllers{
class "CreateTestTypeController" as CTTC {
+CreateTestTypeController()
+List<TestTypeDto> getAllTestTypesDto()
+boolean createTestType(code, description, collectingMethod, parameterCategoriesList, externalModule)
+boolean saveTestType()
+List<TestType> getAllTestTypes()
+List<ExternalModule> getExternalModules()
}



class "CreateParameterCategoryController" as CPCS{
+List <ParameterCategoryDto> getAllParameterCategoriesDto()
+ParameterCategory getParameterCategoryByCode(code)
}

}

package Mappers{
class "TestTypeMapper" as ttM{
+List <TestTypeDto> toDto(List<TestType>)
}

class "ParameterCategoryMapper" as pcM{
+List <ParameterCategoryDto> toDto(List<ParameterCategory>)
}

}


package Dto{
class "TestTypeDto" as ttDto{
}

class "ParameterCategoryDto" as pcDto{
}

}

}
package UI{
class "CreateTestTypeUI" as CTTUI
}

CTTUI ..> CTTC
C ..> CPCS
C ..> TTS
CTTC ..> C
CTTC ..> ttM
CTTC ..> ttDto
TT "*" - - "1" PC : > analyzes a
TTS ..> TT
ttM ..> ttDto
pcM ..> pcDto
CPCS ..> pcM

C "1" - - "*" TT : > adopts
C "1" - - "*" PC : > adopts

@enduml

PlantUML version 1.2021.5(Sun Apr 25 12:20:28 BST 2021)
(GPL source distribution)
Java Runtime: OpenJDK Runtime Environment
JVM: Dynamic Code Evolution 64-Bit Server VM
Default Encoding: Cp1252
Language: pt
Country: PT
--></g></svg>