<?xml version="1.0" encoding="UTF-8" standalone="no"?><svg xmlns="http://www.w3.org/2000/svg" xmlns:xlink="http://www.w3.org/1999/xlink" contentScriptType="application/ecmascript" contentStyleType="text/css" height="810px" preserveAspectRatio="none" style="width:1639px;height:810px;" version="1.1" viewBox="0 0 1639 810" width="1639px" zoomAndPan="magnify"><defs><filter height="300%" id="f17ru48dk2o971" width="300%" x="-1" y="-1"><feGaussianBlur result="blurOut" stdDeviation="2.0"/><feColorMatrix in="blurOut" result="blurOut2" type="matrix" values="0 0 0 0 0 0 0 0 0 0 0 0 0 0 0 0 0 0 .4 0"/><feOffset dx="4.0" dy="4.0" in="blurOut2" result="blurOut3"/><feBlend in="SourceGraphic" in2="blurOut3" mode="normal"/></filter></defs><g><!--MD5=[2c2e2644034c00788261e03c85b06837]
cluster Core--><polygon fill="#FFFFFF" filter="url(#f17ru48dk2o971)" points="16,6,56,6,63,29.6094,1622,29.6094,1622,679,16,679,16,6" style="stroke:#000000;stroke-width:1.5;"/><line style="stroke:#000000;stroke-width:1.5;" x1="16" x2="63" y1="29.6094" y2="29.6094"/><text fill="#000000" font-family="sans-serif" font-size="14" font-weight="bold" lengthAdjust="spacing" textLength="34" x="20" y="22.5332">Core</text><!--MD5=[121a8bf1197281ab89ed693fab589f94]
cluster Domain--><polygon fill="#FFFFFF" filter="url(#f17ru48dk2o971)" points="181.5,50,239.5,50,246.5,73.6094,1409,73.6094,1409,336,181.5,336,181.5,50" style="stroke:#000000;stroke-width:1.5;"/><line style="stroke:#000000;stroke-width:1.5;" x1="181.5" x2="246.5" y1="73.6094" y2="73.6094"/><text fill="#000000" font-family="sans-serif" font-size="14" font-weight="bold" lengthAdjust="spacing" textLength="52" x="185.5" y="66.5332">Domain</text><!--MD5=[8dd535d56cd4cf7faf64fdd082ba836e]
cluster Stores--><polygon fill="#FFFFFF" filter="url(#f17ru48dk2o971)" points="40,360,92,360,99,383.6094,515,383.6094,515,544,40,544,40,360" style="stroke:#000000;stroke-width:1.5;"/><line style="stroke:#000000;stroke-width:1.5;" x1="40" x2="99" y1="383.6094" y2="383.6094"/><text fill="#000000" font-family="sans-serif" font-size="14" font-weight="bold" lengthAdjust="spacing" textLength="46" x="44" y="376.5332">Stores</text><!--MD5=[ed1d20ea533a2a0e7df5ba3c35e56ced]
cluster Controllers--><polygon fill="#FFFFFF" filter="url(#f17ru48dk2o971)" points="601,360,686,360,693,383.6094,1069,383.6094,1069,655,601,655,601,360" style="stroke:#000000;stroke-width:1.5;"/><line style="stroke:#000000;stroke-width:1.5;" x1="601" x2="693" y1="383.6094" y2="383.6094"/><text fill="#000000" font-family="sans-serif" font-size="14" font-weight="bold" lengthAdjust="spacing" textLength="79" x="605" y="376.5332">Controllers</text><!--MD5=[701152d03fbf85133a1de050cfdbc7fd]
cluster Mappers--><polygon fill="#FFFFFF" filter="url(#f17ru48dk2o971)" points="1179,524,1247,524,1254,547.6094,1432,547.6094,1432,638,1179,638,1179,524" style="stroke:#000000;stroke-width:1.5;"/><line style="stroke:#000000;stroke-width:1.5;" x1="1179" x2="1254" y1="547.6094" y2="547.6094"/><text fill="#000000" font-family="sans-serif" font-size="14" font-weight="bold" lengthAdjust="spacing" textLength="62" x="1183" y="540.5332">Mappers</text><!--MD5=[a7e26d82dece3a99be33d8557e72e039]
cluster Dto--><polygon fill="#FFFFFF" filter="url(#f17ru48dk2o971)" points="1465,470,1495,470,1502,493.6094,1598,493.6094,1598,570,1465,570,1465,470" style="stroke:#000000;stroke-width:1.5;"/><line style="stroke:#000000;stroke-width:1.5;" x1="1465" x2="1502" y1="493.6094" y2="493.6094"/><text fill="#000000" font-family="sans-serif" font-size="14" font-weight="bold" lengthAdjust="spacing" textLength="24" x="1469" y="486.5332">Dto</text><!--MD5=[9681dc6e01e10c6b4fe06895ae94f592]
cluster UI--><polygon fill="#FFFFFF" filter="url(#f17ru48dk2o971)" points="196,703,216,703,223,726.6094,359,726.6094,359,803,196,803,196,703" style="stroke:#000000;stroke-width:1.5;"/><line style="stroke:#000000;stroke-width:1.5;" x1="196" x2="223" y1="726.6094" y2="726.6094"/><text fill="#000000" font-family="sans-serif" font-size="14" font-weight="bold" lengthAdjust="spacing" textLength="14" x="200" y="719.5332">UI</text><!--MD5=[378b18254a1b2429f435e93f5e5cc50c]
class C--><rect codeLine="7" fill="#FEFECE" filter="url(#f17ru48dk2o971)" height="89.5078" id="C" style="stroke:#A80036;stroke-width:1.5;" width="160" x="197.5" y="230"/><ellipse cx="246.75" cy="246" fill="#ADD1B2" rx="11" ry="11" style="stroke:#A80036;stroke-width:1.0;"/><path d="M248.75,242.5 Q248.9531,242 249.1875,241.75 Q249.4219,241.5 249.6875,241.5 Q250.1563,241.5 250.4531,241.7813 Q250.75,242.0625 250.75,242.7188 L250.75,244.2813 Q250.75,244.9375 250.4688,245.2188 Q250.1875,245.5 249.75,245.5 Q249.3594,245.5 249.1094,245.3281 Q248.8594,245.1563 248.75,244.7031 Q248.7031,244.3906 248.5313,244.2188 Q248.2188,243.8906 247.6563,243.7031 Q247.0938,243.5 246.5313,243.5 Q245.8281,243.5 245.2344,243.7813 Q244.6563,244.0625 244.2031,244.6875 Q243.75,245.3125 243.75,246.1719 L243.75,247.0938 Q243.75,248.125 244.5938,248.8125 Q245.4375,249.5 246.9375,249.5 Q247.8281,249.5 248.4531,249.2969 Q248.8125,249.1875 249.2188,248.8281 Q249.4844,248.625 249.625,248.5625 Q249.7656,248.5 249.9375,248.5 Q250.2656,248.5 250.5,248.7656 Q250.75,249.0156 250.75,249.375 Q250.75,249.7188 250.4063,250.125 Q249.9063,250.7188 249.1094,251.0469 Q248.0625,251.5 246.7813,251.5 Q245.2813,251.5 244.0781,250.9063 Q243.1094,250.4375 242.4219,249.4219 Q241.75,248.4063 241.75,247.2031 L241.75,246.1094 Q241.75,244.8594 242.3438,243.7656 Q242.9531,242.6719 244,242.0938 Q245.0625,241.5 246.25,241.5 Q246.9688,241.5 247.5938,241.75 Q248.2188,242 248.75,242.5 Z " fill="#000000"/><text fill="#000000" font-family="sans-serif" font-size="12" lengthAdjust="spacing" textLength="53" x="267.25" y="250.9102">Company</text><line style="stroke:#A80036;stroke-width:1.5;" x1="198.5" x2="356.5" y1="262" y2="262"/><text fill="#000000" font-family="sans-serif" font-size="11" lengthAdjust="spacing" textLength="90" x="203.5" y="277.4189">-String designation</text><line style="stroke:#A80036;stroke-width:1.5;" x1="198.5" x2="356.5" y1="283.8359" y2="283.8359"/><text fill="#000000" font-family="sans-serif" font-size="11" lengthAdjust="spacing" textLength="100" x="203.5" y="299.2549">+getTestTypeStore()</text><text fill="#000000" font-family="sans-serif" font-size="11" lengthAdjust="spacing" textLength="148" x="203.5" y="313.0908">+getParameterCategoryStore()</text><!--MD5=[218f71f443b9e0720bb96dd9df1d4749]
class PC--><rect codeLine="13" fill="#FEFECE" filter="url(#f17ru48dk2o971)" height="89.5078" id="PC" style="stroke:#A80036;stroke-width:1.5;" width="175" x="1218" y="115"/><ellipse cx="1249.2" cy="131" fill="#ADD1B2" rx="11" ry="11" style="stroke:#A80036;stroke-width:1.0;"/><path d="M1251.2,127.5 Q1251.4031,127 1251.6375,126.75 Q1251.8719,126.5 1252.1375,126.5 Q1252.6063,126.5 1252.9031,126.7813 Q1253.2,127.0625 1253.2,127.7188 L1253.2,129.2813 Q1253.2,129.9375 1252.9188,130.2188 Q1252.6375,130.5 1252.2,130.5 Q1251.8094,130.5 1251.5594,130.3281 Q1251.3094,130.1563 1251.2,129.7031 Q1251.1531,129.3906 1250.9813,129.2188 Q1250.6688,128.8906 1250.1063,128.7031 Q1249.5438,128.5 1248.9813,128.5 Q1248.2781,128.5 1247.6844,128.7813 Q1247.1063,129.0625 1246.6531,129.6875 Q1246.2,130.3125 1246.2,131.1719 L1246.2,132.0938 Q1246.2,133.125 1247.0438,133.8125 Q1247.8875,134.5 1249.3875,134.5 Q1250.2781,134.5 1250.9031,134.2969 Q1251.2625,134.1875 1251.6688,133.8281 Q1251.9344,133.625 1252.075,133.5625 Q1252.2156,133.5 1252.3875,133.5 Q1252.7156,133.5 1252.95,133.7656 Q1253.2,134.0156 1253.2,134.375 Q1253.2,134.7188 1252.8563,135.125 Q1252.3563,135.7188 1251.5594,136.0469 Q1250.5125,136.5 1249.2313,136.5 Q1247.7313,136.5 1246.5281,135.9063 Q1245.5594,135.4375 1244.8719,134.4219 Q1244.2,133.4063 1244.2,132.2031 L1244.2,131.1094 Q1244.2,129.8594 1244.7938,128.7656 Q1245.4031,127.6719 1246.45,127.0938 Q1247.5125,126.5 1248.7,126.5 Q1249.4188,126.5 1250.0438,126.75 Q1250.6688,127 1251.2,127.5 Z " fill="#000000"/><text fill="#000000" font-family="sans-serif" font-size="12" lengthAdjust="spacing" textLength="107" x="1266.8" y="135.9102">ParameterCategory</text><line style="stroke:#A80036;stroke-width:1.5;" x1="1219" x2="1392" y1="147" y2="147"/><text fill="#000000" font-family="sans-serif" font-size="11" lengthAdjust="spacing" textLength="61" x="1224" y="162.4189">-String name</text><text fill="#000000" font-family="sans-serif" font-size="11" lengthAdjust="spacing" textLength="59" x="1224" y="176.2549">-String code</text><line style="stroke:#A80036;stroke-width:1.5;" x1="1219" x2="1392" y1="182.6719" y2="182.6719"/><text fill="#000000" font-family="sans-serif" font-size="11" lengthAdjust="spacing" textLength="163" x="1224" y="198.0908">+ParameterCategory(name, code)</text><!--MD5=[f76673142371ead9f091198193c4bd63]
class TT--><rect codeLine="19" fill="#FEFECE" filter="url(#f17ru48dk2o971)" height="144.8516" id="TT" style="stroke:#A80036;stroke-width:1.5;" width="364" x="653" y="174.5"/><ellipse cx="805.75" cy="190.5" fill="#ADD1B2" rx="11" ry="11" style="stroke:#A80036;stroke-width:1.0;"/><path d="M807.75,187 Q807.9531,186.5 808.1875,186.25 Q808.4219,186 808.6875,186 Q809.1563,186 809.4531,186.2813 Q809.75,186.5625 809.75,187.2188 L809.75,188.7813 Q809.75,189.4375 809.4688,189.7188 Q809.1875,190 808.75,190 Q808.3594,190 808.1094,189.8281 Q807.8594,189.6563 807.75,189.2031 Q807.7031,188.8906 807.5313,188.7188 Q807.2188,188.3906 806.6563,188.2031 Q806.0938,188 805.5313,188 Q804.8281,188 804.2344,188.2813 Q803.6563,188.5625 803.2031,189.1875 Q802.75,189.8125 802.75,190.6719 L802.75,191.5938 Q802.75,192.625 803.5938,193.3125 Q804.4375,194 805.9375,194 Q806.8281,194 807.4531,193.7969 Q807.8125,193.6875 808.2188,193.3281 Q808.4844,193.125 808.625,193.0625 Q808.7656,193 808.9375,193 Q809.2656,193 809.5,193.2656 Q809.75,193.5156 809.75,193.875 Q809.75,194.2188 809.4063,194.625 Q808.9063,195.2188 808.1094,195.5469 Q807.0625,196 805.7813,196 Q804.2813,196 803.0781,195.4063 Q802.1094,194.9375 801.4219,193.9219 Q800.75,192.9063 800.75,191.7031 L800.75,190.6094 Q800.75,189.3594 801.3438,188.2656 Q801.9531,187.1719 803,186.5938 Q804.0625,186 805.25,186 Q805.9688,186 806.5938,186.25 Q807.2188,186.5 807.75,187 Z " fill="#000000"/><text fill="#000000" font-family="sans-serif" font-size="12" lengthAdjust="spacing" textLength="50" x="826.25" y="195.4102">TestType</text><line style="stroke:#A80036;stroke-width:1.5;" x1="654" x2="1016" y1="206.5" y2="206.5"/><text fill="#000000" font-family="sans-serif" font-size="11" lengthAdjust="spacing" textLength="59" x="659" y="221.9189">-String code</text><text fill="#000000" font-family="sans-serif" font-size="11" lengthAdjust="spacing" textLength="88" x="659" y="235.7549">-String description</text><text fill="#000000" font-family="sans-serif" font-size="11" lengthAdjust="spacing" textLength="115" x="659" y="249.5908">-String collectingMethod</text><text fill="#000000" font-family="sans-serif" font-size="11" lengthAdjust="spacing" textLength="193" x="659" y="263.4268">-ParameterCategory parameterCategory</text><text fill="#000000" font-family="sans-serif" font-size="11" lengthAdjust="spacing" textLength="250" x="659" y="277.2627">-List &lt;ParameterCategory&gt; parameterCategoriesList</text><line style="stroke:#A80036;stroke-width:1.5;" x1="654" x2="1016" y1="283.6797" y2="283.6797"/><text fill="#000000" font-family="sans-serif" font-size="11" lengthAdjust="spacing" textLength="327" x="659" y="299.0986">+TestType(code, description, collectingMethod, parameterCategory)</text><text fill="#000000" font-family="sans-serif" font-size="11" lengthAdjust="spacing" textLength="352" x="659" y="312.9346">+TestType(code, description, collectingMethod, parameterCategoriesList)</text><!--MD5=[0c21d7a5a5555e4278001068caacbd33]
class TTS--><rect codeLine="34" fill="#FEFECE" filter="url(#f17ru48dk2o971)" height="131.0156" id="TTS" style="stroke:#A80036;stroke-width:1.5;" width="443" x="56" y="396.5"/><ellipse cx="233.75" cy="412.5" fill="#ADD1B2" rx="11" ry="11" style="stroke:#A80036;stroke-width:1.0;"/><path d="M235.75,409 Q235.9531,408.5 236.1875,408.25 Q236.4219,408 236.6875,408 Q237.1563,408 237.4531,408.2813 Q237.75,408.5625 237.75,409.2188 L237.75,410.7813 Q237.75,411.4375 237.4688,411.7188 Q237.1875,412 236.75,412 Q236.3594,412 236.1094,411.8281 Q235.8594,411.6563 235.75,411.2031 Q235.7031,410.8906 235.5313,410.7188 Q235.2188,410.3906 234.6563,410.2031 Q234.0938,410 233.5313,410 Q232.8281,410 232.2344,410.2813 Q231.6563,410.5625 231.2031,411.1875 Q230.75,411.8125 230.75,412.6719 L230.75,413.5938 Q230.75,414.625 231.5938,415.3125 Q232.4375,416 233.9375,416 Q234.8281,416 235.4531,415.7969 Q235.8125,415.6875 236.2188,415.3281 Q236.4844,415.125 236.625,415.0625 Q236.7656,415 236.9375,415 Q237.2656,415 237.5,415.2656 Q237.75,415.5156 237.75,415.875 Q237.75,416.2188 237.4063,416.625 Q236.9063,417.2188 236.1094,417.5469 Q235.0625,418 233.7813,418 Q232.2813,418 231.0781,417.4063 Q230.1094,416.9375 229.4219,415.9219 Q228.75,414.9063 228.75,413.7031 L228.75,412.6094 Q228.75,411.3594 229.3438,410.2656 Q229.9531,409.1719 231,408.5938 Q232.0625,408 233.25,408 Q233.9688,408 234.5938,408.25 Q235.2188,408.5 235.75,409 Z " fill="#000000"/><text fill="#000000" font-family="sans-serif" font-size="12" lengthAdjust="spacing" textLength="79" x="254.25" y="417.4102">TestTypeStore</text><line style="stroke:#A80036;stroke-width:1.5;" x1="57" x2="498" y1="428.5" y2="428.5"/><line style="stroke:#A80036;stroke-width:1.5;" x1="57" x2="498" y1="436.5" y2="436.5"/><text fill="#000000" font-family="sans-serif" font-size="11" lengthAdjust="spacing" textLength="406" x="62" y="451.9189">+TestType createTestType(code, description, collectingMethod, parameterCategory)</text><text fill="#000000" font-family="sans-serif" font-size="11" lengthAdjust="spacing" textLength="431" x="62" y="465.7549">+TestType createTestType(code, description, collectingMethod, parameterCategoriesList)</text><text fill="#000000" font-family="sans-serif" font-size="11" lengthAdjust="spacing" textLength="130" x="62" y="479.5908">+boolean saveTestType(tt)</text><text fill="#000000" font-family="sans-serif" font-size="11" lengthAdjust="spacing" textLength="143" x="62" y="493.4268">+boolean validateTestType(tt)</text><text fill="#000000" font-family="sans-serif" font-size="11" lengthAdjust="spacing" textLength="124" x="62" y="507.2627">+boolean addTestType(tt)</text><text fill="#000000" font-family="sans-serif" font-size="11" lengthAdjust="spacing" textLength="172" x="62" y="521.0986">+List &lt;TestType&gt; getAllTestTypes()</text><!--MD5=[0db42b3591f13a48474e506cf6fbc101]
class CTTC--><rect codeLine="47" fill="#FEFECE" filter="url(#f17ru48dk2o971)" height="131.0156" id="CTTC" style="stroke:#A80036;stroke-width:1.5;" width="436" x="617" y="507.5"/><ellipse cx="760.25" cy="523.5" fill="#ADD1B2" rx="11" ry="11" style="stroke:#A80036;stroke-width:1.0;"/><path d="M762.25,520 Q762.4531,519.5 762.6875,519.25 Q762.9219,519 763.1875,519 Q763.6563,519 763.9531,519.2813 Q764.25,519.5625 764.25,520.2188 L764.25,521.7813 Q764.25,522.4375 763.9688,522.7188 Q763.6875,523 763.25,523 Q762.8594,523 762.6094,522.8281 Q762.3594,522.6563 762.25,522.2031 Q762.2031,521.8906 762.0313,521.7188 Q761.7188,521.3906 761.1563,521.2031 Q760.5938,521 760.0313,521 Q759.3281,521 758.7344,521.2813 Q758.1563,521.5625 757.7031,522.1875 Q757.25,522.8125 757.25,523.6719 L757.25,524.5938 Q757.25,525.625 758.0938,526.3125 Q758.9375,527 760.4375,527 Q761.3281,527 761.9531,526.7969 Q762.3125,526.6875 762.7188,526.3281 Q762.9844,526.125 763.125,526.0625 Q763.2656,526 763.4375,526 Q763.7656,526 764,526.2656 Q764.25,526.5156 764.25,526.875 Q764.25,527.2188 763.9063,527.625 Q763.4063,528.2188 762.6094,528.5469 Q761.5625,529 760.2813,529 Q758.7813,529 757.5781,528.4063 Q756.6094,527.9375 755.9219,526.9219 Q755.25,525.9063 755.25,524.7031 L755.25,523.6094 Q755.25,522.3594 755.8438,521.2656 Q756.4531,520.1719 757.5,519.5938 Q758.5625,519 759.75,519 Q760.4688,519 761.0938,519.25 Q761.7188,519.5 762.25,520 Z " fill="#000000"/><text fill="#000000" font-family="sans-serif" font-size="12" lengthAdjust="spacing" textLength="141" x="780.75" y="528.4102">CreateTestTypeController</text><line style="stroke:#A80036;stroke-width:1.5;" x1="618" x2="1052" y1="539.5" y2="539.5"/><line style="stroke:#A80036;stroke-width:1.5;" x1="618" x2="1052" y1="547.5" y2="547.5"/><text fill="#000000" font-family="sans-serif" font-size="11" lengthAdjust="spacing" textLength="137" x="623" y="562.9189">+CreateTestTypeController()</text><text fill="#000000" font-family="sans-serif" font-size="11" lengthAdjust="spacing" textLength="201" x="623" y="576.7549">+List&lt;TestTypeDto&gt; getAllTestTypesDto()</text><text fill="#000000" font-family="sans-serif" font-size="11" lengthAdjust="spacing" textLength="399" x="623" y="590.5908">+boolean createTestType(code, description, collectingMethod, parameterCategory)</text><text fill="#000000" font-family="sans-serif" font-size="11" lengthAdjust="spacing" textLength="424" x="623" y="604.4268">+boolean createTestType(code, description, collectingMethod, parameterCategoriesList)</text><text fill="#000000" font-family="sans-serif" font-size="11" lengthAdjust="spacing" textLength="124" x="623" y="618.2627">+boolean saveTestType()</text><text fill="#000000" font-family="sans-serif" font-size="11" lengthAdjust="spacing" textLength="169" x="623" y="632.0986">+List&lt;TestType&gt; getAllTestTypes()</text><!--MD5=[2628f93c2b91159b8b11117185f029f9]
class PCS--><rect codeLine="58" fill="#FEFECE" filter="url(#f17ru48dk2o971)" height="75.6719" id="PCS" style="stroke:#A80036;stroke-width:1.5;" width="314" x="678" y="396"/><ellipse cx="731.75" cy="412" fill="#ADD1B2" rx="11" ry="11" style="stroke:#A80036;stroke-width:1.0;"/><path d="M733.75,408.5 Q733.9531,408 734.1875,407.75 Q734.4219,407.5 734.6875,407.5 Q735.1563,407.5 735.4531,407.7813 Q735.75,408.0625 735.75,408.7188 L735.75,410.2813 Q735.75,410.9375 735.4688,411.2188 Q735.1875,411.5 734.75,411.5 Q734.3594,411.5 734.1094,411.3281 Q733.8594,411.1563 733.75,410.7031 Q733.7031,410.3906 733.5313,410.2188 Q733.2188,409.8906 732.6563,409.7031 Q732.0938,409.5 731.5313,409.5 Q730.8281,409.5 730.2344,409.7813 Q729.6563,410.0625 729.2031,410.6875 Q728.75,411.3125 728.75,412.1719 L728.75,413.0938 Q728.75,414.125 729.5938,414.8125 Q730.4375,415.5 731.9375,415.5 Q732.8281,415.5 733.4531,415.2969 Q733.8125,415.1875 734.2188,414.8281 Q734.4844,414.625 734.625,414.5625 Q734.7656,414.5 734.9375,414.5 Q735.2656,414.5 735.5,414.7656 Q735.75,415.0156 735.75,415.375 Q735.75,415.7188 735.4063,416.125 Q734.9063,416.7188 734.1094,417.0469 Q733.0625,417.5 731.7813,417.5 Q730.2813,417.5 729.0781,416.9063 Q728.1094,416.4375 727.4219,415.4219 Q726.75,414.4063 726.75,413.2031 L726.75,412.1094 Q726.75,410.8594 727.3438,409.7656 Q727.9531,408.6719 729,408.0938 Q730.0625,407.5 731.25,407.5 Q731.9688,407.5 732.5938,407.75 Q733.2188,408 733.75,408.5 Z " fill="#000000"/><text fill="#000000" font-family="sans-serif" font-size="12" lengthAdjust="spacing" textLength="198" x="752.25" y="416.9102">CreateParameterCategoryController</text><line style="stroke:#A80036;stroke-width:1.5;" x1="679" x2="991" y1="428" y2="428"/><line style="stroke:#A80036;stroke-width:1.5;" x1="679" x2="991" y1="436" y2="436"/><text fill="#000000" font-family="sans-serif" font-size="11" lengthAdjust="spacing" textLength="302" x="684" y="451.4189">+List &lt;ParameterCategoryDto&gt; getAllParameterCategoriesDto()</text><text fill="#000000" font-family="sans-serif" font-size="11" lengthAdjust="spacing" textLength="280" x="684" y="465.2549">+ParameterCategory getParameterCategoryByCode(code)</text><!--MD5=[1905ea1c532ab03438cb5177c6784fd5]
class ttM--><rect codeLine="66" fill="#FEFECE" filter="url(#f17ru48dk2o971)" height="61.8359" id="ttM" style="stroke:#A80036;stroke-width:1.5;" width="221" x="1195" y="560"/><ellipse cx="1255.75" cy="576" fill="#ADD1B2" rx="11" ry="11" style="stroke:#A80036;stroke-width:1.0;"/><path d="M1257.75,572.5 Q1257.9531,572 1258.1875,571.75 Q1258.4219,571.5 1258.6875,571.5 Q1259.1563,571.5 1259.4531,571.7813 Q1259.75,572.0625 1259.75,572.7188 L1259.75,574.2813 Q1259.75,574.9375 1259.4688,575.2188 Q1259.1875,575.5 1258.75,575.5 Q1258.3594,575.5 1258.1094,575.3281 Q1257.8594,575.1563 1257.75,574.7031 Q1257.7031,574.3906 1257.5313,574.2188 Q1257.2188,573.8906 1256.6563,573.7031 Q1256.0938,573.5 1255.5313,573.5 Q1254.8281,573.5 1254.2344,573.7813 Q1253.6563,574.0625 1253.2031,574.6875 Q1252.75,575.3125 1252.75,576.1719 L1252.75,577.0938 Q1252.75,578.125 1253.5938,578.8125 Q1254.4375,579.5 1255.9375,579.5 Q1256.8281,579.5 1257.4531,579.2969 Q1257.8125,579.1875 1258.2188,578.8281 Q1258.4844,578.625 1258.625,578.5625 Q1258.7656,578.5 1258.9375,578.5 Q1259.2656,578.5 1259.5,578.7656 Q1259.75,579.0156 1259.75,579.375 Q1259.75,579.7188 1259.4063,580.125 Q1258.9063,580.7188 1258.1094,581.0469 Q1257.0625,581.5 1255.7813,581.5 Q1254.2813,581.5 1253.0781,580.9063 Q1252.1094,580.4375 1251.4219,579.4219 Q1250.75,578.4063 1250.75,577.2031 L1250.75,576.1094 Q1250.75,574.8594 1251.3438,573.7656 Q1251.9531,572.6719 1253,572.0938 Q1254.0625,571.5 1255.25,571.5 Q1255.9688,571.5 1256.5938,571.75 Q1257.2188,572 1257.75,572.5 Z " fill="#000000"/><text fill="#000000" font-family="sans-serif" font-size="12" lengthAdjust="spacing" textLength="91" x="1276.25" y="580.9102">TestTypeMapper</text><line style="stroke:#A80036;stroke-width:1.5;" x1="1196" x2="1415" y1="592" y2="592"/><line style="stroke:#A80036;stroke-width:1.5;" x1="1196" x2="1415" y1="600" y2="600"/><text fill="#000000" font-family="sans-serif" font-size="11" lengthAdjust="spacing" textLength="209" x="1201" y="615.4189">+List &lt;TestTypeDto&gt; toDto(List&lt;TestType&gt;)</text><!--MD5=[ec0a4f007167539f7ef0283e3ce97f9f]
class ttDto--><rect codeLine="73" fill="#FEFECE" filter="url(#f17ru48dk2o971)" height="48" id="ttDto" style="stroke:#A80036;stroke-width:1.5;" width="101" x="1481" y="506"/><ellipse cx="1496" cy="522" fill="#ADD1B2" rx="11" ry="11" style="stroke:#A80036;stroke-width:1.0;"/><path d="M1498,518.5 Q1498.2031,518 1498.4375,517.75 Q1498.6719,517.5 1498.9375,517.5 Q1499.4063,517.5 1499.7031,517.7813 Q1500,518.0625 1500,518.7188 L1500,520.2813 Q1500,520.9375 1499.7188,521.2188 Q1499.4375,521.5 1499,521.5 Q1498.6094,521.5 1498.3594,521.3281 Q1498.1094,521.1563 1498,520.7031 Q1497.9531,520.3906 1497.7813,520.2188 Q1497.4688,519.8906 1496.9063,519.7031 Q1496.3438,519.5 1495.7813,519.5 Q1495.0781,519.5 1494.4844,519.7813 Q1493.9063,520.0625 1493.4531,520.6875 Q1493,521.3125 1493,522.1719 L1493,523.0938 Q1493,524.125 1493.8438,524.8125 Q1494.6875,525.5 1496.1875,525.5 Q1497.0781,525.5 1497.7031,525.2969 Q1498.0625,525.1875 1498.4688,524.8281 Q1498.7344,524.625 1498.875,524.5625 Q1499.0156,524.5 1499.1875,524.5 Q1499.5156,524.5 1499.75,524.7656 Q1500,525.0156 1500,525.375 Q1500,525.7188 1499.6563,526.125 Q1499.1563,526.7188 1498.3594,527.0469 Q1497.3125,527.5 1496.0313,527.5 Q1494.5313,527.5 1493.3281,526.9063 Q1492.3594,526.4375 1491.6719,525.4219 Q1491,524.4063 1491,523.2031 L1491,522.1094 Q1491,520.8594 1491.5938,519.7656 Q1492.2031,518.6719 1493.25,518.0938 Q1494.3125,517.5 1495.5,517.5 Q1496.2188,517.5 1496.8438,517.75 Q1497.4688,518 1498,518.5 Z " fill="#000000"/><text fill="#000000" font-family="sans-serif" font-size="12" lengthAdjust="spacing" textLength="69" x="1510" y="526.9102">TestTypeDto</text><line style="stroke:#A80036;stroke-width:1.5;" x1="1482" x2="1581" y1="538" y2="538"/><line style="stroke:#A80036;stroke-width:1.5;" x1="1482" x2="1581" y1="546" y2="546"/><!--MD5=[6461a74477876ab4a04549c978c1a07a]
class CTTUI--><rect codeLine="78" fill="#FEFECE" filter="url(#f17ru48dk2o971)" height="48" id="CTTUI" style="stroke:#A80036;stroke-width:1.5;" width="131" x="212" y="739"/><ellipse cx="227" cy="755" fill="#ADD1B2" rx="11" ry="11" style="stroke:#A80036;stroke-width:1.0;"/><path d="M229,751.5 Q229.2031,751 229.4375,750.75 Q229.6719,750.5 229.9375,750.5 Q230.4063,750.5 230.7031,750.7813 Q231,751.0625 231,751.7188 L231,753.2813 Q231,753.9375 230.7188,754.2188 Q230.4375,754.5 230,754.5 Q229.6094,754.5 229.3594,754.3281 Q229.1094,754.1563 229,753.7031 Q228.9531,753.3906 228.7813,753.2188 Q228.4688,752.8906 227.9063,752.7031 Q227.3438,752.5 226.7813,752.5 Q226.0781,752.5 225.4844,752.7813 Q224.9063,753.0625 224.4531,753.6875 Q224,754.3125 224,755.1719 L224,756.0938 Q224,757.125 224.8438,757.8125 Q225.6875,758.5 227.1875,758.5 Q228.0781,758.5 228.7031,758.2969 Q229.0625,758.1875 229.4688,757.8281 Q229.7344,757.625 229.875,757.5625 Q230.0156,757.5 230.1875,757.5 Q230.5156,757.5 230.75,757.7656 Q231,758.0156 231,758.375 Q231,758.7188 230.6563,759.125 Q230.1563,759.7188 229.3594,760.0469 Q228.3125,760.5 227.0313,760.5 Q225.5313,760.5 224.3281,759.9063 Q223.3594,759.4375 222.6719,758.4219 Q222,757.4063 222,756.2031 L222,755.1094 Q222,753.8594 222.5938,752.7656 Q223.2031,751.6719 224.25,751.0938 Q225.3125,750.5 226.5,750.5 Q227.2188,750.5 227.8438,750.75 Q228.4688,751 229,751.5 Z " fill="#000000"/><text fill="#000000" font-family="sans-serif" font-size="12" lengthAdjust="spacing" textLength="99" x="241" y="759.9102">CreateTestTypeUI</text><line style="stroke:#A80036;stroke-width:1.5;" x1="213" x2="342" y1="771" y2="771"/><line style="stroke:#A80036;stroke-width:1.5;" x1="213" x2="342" y1="779" y2="779"/><!--MD5=[320690cba070b8468face0bfd1ce9533]
link CTTUI to CTTC--><path codeLine="81" d="M343.04,740.93 C414.87,716.36 534.44,675.46 637.59,640.18 " fill="none" id="CTTUI-to-CTTC" style="stroke:#A80036;stroke-width:1.0;stroke-dasharray:7.0,7.0;"/><polygon fill="#A80036" points="642.49,638.5,632.6811,637.6132,637.7567,640.111,635.2588,645.1866,642.49,638.5" style="stroke:#A80036;stroke-width:1.0;"/><!--MD5=[e1c0f205e01471a87324e4cc03d03bbe]
link C to PCS--><path codeLine="82" d="M357.79,297.7 C445.8,322.89 589.46,364.01 696.01,394.5 " fill="none" id="C-to-PCS" style="stroke:#A80036;stroke-width:1.0;stroke-dasharray:7.0,7.0;"/><polygon fill="#A80036" points="701.05,395.95,693.4952,389.6314,696.2424,394.5764,691.2974,397.3236,701.05,395.95" style="stroke:#A80036;stroke-width:1.0;"/><!--MD5=[299cf0460a0b3ffee05ec41c99ce24b7]
link C to TTS--><path codeLine="83" d="M277.5,320.47 C277.5,344.06 277.5,367.64 277.5,391.23 " fill="none" id="C-to-TTS" style="stroke:#A80036;stroke-width:1.0;stroke-dasharray:7.0,7.0;"/><polygon fill="#A80036" points="277.5,396.26,281.5,387.26,277.5,391.26,273.5,387.26,277.5,396.26" style="stroke:#A80036;stroke-width:1.0;"/><!--MD5=[cf05f59dfce81a96099c5f95714bd5af]
link CTTC to C--><path codeLine="84" d="M619.82,507.47 C610.44,501.8 601.44,495.65 593,489 C547.79,453.35 566.93,417.21 523,380 C476.56,340.66 413.16,314 362.56,297.39 " fill="none" id="CTTC-to-C" style="stroke:#A80036;stroke-width:1.0;stroke-dasharray:7.0,7.0;"/><polygon fill="#A80036" points="357.7,295.82,365.0212,302.4079,362.4547,297.3667,367.4959,294.8003,357.7,295.82" style="stroke:#A80036;stroke-width:1.0;"/><!--MD5=[e78a6acdd318a27b442e8ff64f8c9353]
link CTTC to ttM--><path codeLine="85" d="M1053.11,581.34 C1100.37,583.16 1148.58,585.01 1189.96,586.6 " fill="none" id="CTTC-to-ttM" style="stroke:#A80036;stroke-width:1.0;stroke-dasharray:7.0,7.0;"/><polygon fill="#A80036" points="1194.97,586.79,1186.1247,582.4587,1189.9734,586.6044,1185.8277,590.4532,1194.97,586.79" style="stroke:#A80036;stroke-width:1.0;"/><!--MD5=[8dd6d3028e965dc60ea1bc8f75a077b5]
link CTTC to ttDto--><path codeLine="86" d="M1053.03,552.7 C1092.27,549.46 1132.84,546.39 1171,544 C1278.69,537.25 1404.74,533.23 1475.34,531.34 " fill="none" id="CTTC-to-ttDto" style="stroke:#A80036;stroke-width:1.0;stroke-dasharray:7.0,7.0;"/><polygon fill="#A80036" points="1480.74,531.19,1471.6399,527.4233,1475.7417,531.3189,1471.8461,535.4207,1480.74,531.19" style="stroke:#A80036;stroke-width:1.0;"/><!--MD5=[93286ab8d15dacf230424bab250ab910]
link TT to PC--><path codeLine="87" d="M1017.13,213.36 C1086.14,200.55 1161.64,186.53 1217.93,176.08 " fill="none" id="TT-PC" style="stroke:#A80036;stroke-width:1.0;"/><polygon fill="#000000" points="1094.916,179.2631,1085.4864,178.0246,1086.5593,183.8037,1094.916,179.2631" style="stroke:#000000;stroke-width:1.0;"/><text fill="#000000" font-family="sans-serif" font-size="13" lengthAdjust="spacing" textLength="63" x="1099" y="185.4951">analyzes a</text><text fill="#000000" font-family="sans-serif" font-size="13" lengthAdjust="spacing" textLength="5" x="1024.9191" y="225.784">*</text><text fill="#000000" font-family="sans-serif" font-size="13" lengthAdjust="spacing" textLength="7" x="1203.1037" y="191.6807">1</text><!--MD5=[47773c9c22b384181ea9d3871f1f6c2c]
link TTS to TT--><path codeLine="88" d="M447.81,396.47 C510.95,372.03 582.96,344.16 647.55,319.16 " fill="none" id="TTS-to-TT" style="stroke:#A80036;stroke-width:1.0;stroke-dasharray:7.0,7.0;"/><polygon fill="#A80036" points="652.59,317.21,642.7532,316.7236,647.9262,319.0126,645.6373,324.1856,652.59,317.21" style="stroke:#A80036;stroke-width:1.0;"/><!--MD5=[87cf4899889a61f69e835453d85d5116]
link ttM to ttDto--><path codeLine="89" d="M1416.2,561.13 C1436.87,555.5 1457.65,549.84 1475.71,544.92 " fill="none" id="ttM-to-ttDto" style="stroke:#A80036;stroke-width:1.0;stroke-dasharray:7.0,7.0;"/><polygon fill="#A80036" points="1480.73,543.55,1470.9954,542.0541,1475.9055,544.8632,1473.0965,549.7733,1480.73,543.55" style="stroke:#A80036;stroke-width:1.0;"/><!--MD5=[b83cceec495819d0b37daa935a10185d]
link C to TT--><path codeLine="91" d="M357.79,271 C434.39,267.14 553.12,261.16 652.87,256.13 " fill="none" id="C-TT" style="stroke:#A80036;stroke-width:1.0;"/><polygon fill="#000000" points="540.9937,250.9241,531.8121,248.4442,532.108,254.3146,540.9937,250.9241" style="stroke:#000000;stroke-width:1.0;"/><text fill="#000000" font-family="sans-serif" font-size="13" lengthAdjust="spacing" textLength="39" x="545" y="256.4951">adopts</text><text fill="#000000" font-family="sans-serif" font-size="13" lengthAdjust="spacing" textLength="7" x="365.5144" y="284.9028">1</text><text fill="#000000" font-family="sans-serif" font-size="13" lengthAdjust="spacing" textLength="5" x="640.0809" y="270.3583">*</text><!--MD5=[71b3fc4d6ca120e51ce9c04aa77747d8]
link C to PC--><path codeLine="92" d="M357.68,236.2 C419.95,207.95 509.8,172.09 593,157 C815.27,116.67 1083.06,135.49 1217.91,149.53 " fill="none" id="C-PC" style="stroke:#A80036;stroke-width:1.0;"/><polygon fill="#000000" points="817.9748,123.6746,808.6807,121.6572,809.2699,127.5054,817.9748,123.6746" style="stroke:#000000;stroke-width:1.0;"/><text fill="#000000" font-family="sans-serif" font-size="13" lengthAdjust="spacing" textLength="39" x="822" y="129.4951">adopts</text><text fill="#000000" font-family="sans-serif" font-size="13" lengthAdjust="spacing" textLength="7" x="365.3943" y="246.8946">1</text><text fill="#000000" font-family="sans-serif" font-size="13" lengthAdjust="spacing" textLength="5" x="1204.8864" y="162.8427">*</text><!--MD5=[cfbd0a7583ad7eadb61dba80e2ae5d20]
@startuml
skinparam classAttributeIconSize 0
left to right direction

package Core{

package Domain{
class "Company" as C {
-String designation
+getTestTypeStore()
+getParameterCategoryStore()
}

class "ParameterCategory" as PC{
-String name
-String code
+ParameterCategory(name, code)
}

class "TestType" as TT {
-String code
-String description
-String collectingMethod
-ParameterCategory parameterCategory
-List <ParameterCategory> parameterCategoriesList
+TestType(code, description, collectingMethod, parameterCategory)
+TestType(code, description, collectingMethod, parameterCategoriesList)
}

}



package Stores{
class "TestTypeStore" as TTS{
+TestType createTestType(code, description, collectingMethod, parameterCategory)
+TestType createTestType(code, description, collectingMethod, parameterCategoriesList)
+boolean saveTestType(tt)
+boolean validateTestType(tt)
+boolean addTestType(tt)
+List <TestType> getAllTestTypes()
}
}



package Controllers{
class "CreateTestTypeController" as CTTC {
+CreateTestTypeController()
+List<TestTypeDto> getAllTestTypesDto()
+boolean createTestType(code, description, collectingMethod, parameterCategory)
+boolean createTestType(code, description, collectingMethod, parameterCategoriesList)
+boolean saveTestType()
+List<TestType> getAllTestTypes()
}



class "CreateParameterCategoryController" as PCS{
+List <ParameterCategoryDto> getAllParameterCategoriesDto()
+ParameterCategory getParameterCategoryByCode(code)
}

}

package Mappers{
class "TestTypeMapper" as ttM{
+List <TestTypeDto> toDto(List<TestType>)
}
}


package Dto{
class "TestTypeDto" as ttDto
}
}

package UI{
class "CreateTestTypeUI" as CTTUI
}

CTTUI ..> CTTC
C ..> PCS
C ..> TTS
CTTC ..> C
CTTC ..> ttM
CTTC ..> ttDto
TT "*" - - "1" PC : > analyzes a
TTS ..> TT
ttM ..> ttDto

C "1" - - "*" TT : > adopts
C "1" - - "*" PC : > adopts

@enduml

PlantUML version 1.2021.5(Sun Apr 25 12:20:28 BST 2021)
(GPL source distribution)
Java Runtime: OpenJDK Runtime Environment
JVM: OpenJDK 64-Bit Server VM
Default Encoding: Cp1252
Language: pt
Country: PT
--></g></svg>