<?xml version="1.0" encoding="UTF-8" standalone="no"?><svg xmlns="http://www.w3.org/2000/svg" xmlns:xlink="http://www.w3.org/1999/xlink" contentScriptType="application/ecmascript" contentStyleType="text/css" height="275px" preserveAspectRatio="none" style="width:625px;height:275px;" version="1.1" viewBox="0 0 625 275" width="625px" zoomAndPan="magnify"><defs><filter height="300%" id="f19juafye4pmqt" width="300%" x="-1" y="-1"><feGaussianBlur result="blurOut" stdDeviation="2.0"/><feColorMatrix in="blurOut" result="blurOut2" type="matrix" values="0 0 0 0 0 0 0 0 0 0 0 0 0 0 0 0 0 0 .4 0"/><feOffset dx="4.0" dy="4.0" in="blurOut2" result="blurOut3"/><feBlend in="SourceGraphic" in2="blurOut3" mode="normal"/></filter></defs><g><!--MD5=[02e4b9b7573f1156f41e60aa5b4e25a4]
class Company--><rect codeLine="30" fill="#FEFECE" filter="url(#f19juafye4pmqt)" height="53.8359" id="Company" style="stroke:#A80036;stroke-width:1.5;" width="85" x="241" y="21"/><ellipse cx="256" cy="37" fill="#ADD1B2" rx="11" ry="11" style="stroke:#A80036;stroke-width:1.0;"/><path d="M258,33.5 Q258.2031,33 258.4375,32.75 Q258.6719,32.5 258.9375,32.5 Q259.4063,32.5 259.7031,32.7813 Q260,33.0625 260,33.7188 L260,35.2813 Q260,35.9375 259.7188,36.2188 Q259.4375,36.5 259,36.5 Q258.6094,36.5 258.3594,36.3281 Q258.1094,36.1563 258,35.7031 Q257.9531,35.3906 257.7813,35.2188 Q257.4688,34.8906 256.9063,34.7031 Q256.3438,34.5 255.7813,34.5 Q255.0781,34.5 254.4844,34.7813 Q253.9063,35.0625 253.4531,35.6875 Q253,36.3125 253,37.1719 L253,38.0938 Q253,39.125 253.8438,39.8125 Q254.6875,40.5 256.1875,40.5 Q257.0781,40.5 257.7031,40.2969 Q258.0625,40.1875 258.4688,39.8281 Q258.7344,39.625 258.875,39.5625 Q259.0156,39.5 259.1875,39.5 Q259.5156,39.5 259.75,39.7656 Q260,40.0156 260,40.375 Q260,40.7188 259.6563,41.125 Q259.1563,41.7188 258.3594,42.0469 Q257.3125,42.5 256.0313,42.5 Q254.5313,42.5 253.3281,41.9063 Q252.3594,41.4375 251.6719,40.4219 Q251,39.4063 251,38.2031 L251,37.1094 Q251,35.8594 251.5938,34.7656 Q252.2031,33.6719 253.25,33.0938 Q254.3125,32.5 255.5,32.5 Q256.2188,32.5 256.8438,32.75 Q257.4688,33 258,33.5 Z " fill="#000000"/><text fill="#000000" font-family="sans-serif" font-size="12" lengthAdjust="spacing" textLength="53" x="270" y="41.9102">Company</text><line style="stroke:#A80036;stroke-width:1.5;" x1="242" x2="325" y1="53" y2="53"/><text fill="#000000" font-family="sans-serif" font-size="11" lengthAdjust="spacing" textLength="59" x="247" y="68.4189">-designation</text><!--MD5=[da547346deef918ea16944ba046651ef]
class Administrator--><rect codeLine="34" fill="#FEFECE" filter="url(#f19juafye4pmqt)" height="40" id="Administrator" style="stroke:#A80036;stroke-width:1.5;" width="105" x="231" y="141"/><ellipse cx="246" cy="157" fill="#ADD1B2" rx="11" ry="11" style="stroke:#A80036;stroke-width:1.0;"/><path d="M248,153.5 Q248.2031,153 248.4375,152.75 Q248.6719,152.5 248.9375,152.5 Q249.4063,152.5 249.7031,152.7813 Q250,153.0625 250,153.7188 L250,155.2813 Q250,155.9375 249.7188,156.2188 Q249.4375,156.5 249,156.5 Q248.6094,156.5 248.3594,156.3281 Q248.1094,156.1563 248,155.7031 Q247.9531,155.3906 247.7813,155.2188 Q247.4688,154.8906 246.9063,154.7031 Q246.3438,154.5 245.7813,154.5 Q245.0781,154.5 244.4844,154.7813 Q243.9063,155.0625 243.4531,155.6875 Q243,156.3125 243,157.1719 L243,158.0938 Q243,159.125 243.8438,159.8125 Q244.6875,160.5 246.1875,160.5 Q247.0781,160.5 247.7031,160.2969 Q248.0625,160.1875 248.4688,159.8281 Q248.7344,159.625 248.875,159.5625 Q249.0156,159.5 249.1875,159.5 Q249.5156,159.5 249.75,159.7656 Q250,160.0156 250,160.375 Q250,160.7188 249.6563,161.125 Q249.1563,161.7188 248.3594,162.0469 Q247.3125,162.5 246.0313,162.5 Q244.5313,162.5 243.3281,161.9063 Q242.3594,161.4375 241.6719,160.4219 Q241,159.4063 241,158.2031 L241,157.1094 Q241,155.8594 241.5938,154.7656 Q242.2031,153.6719 243.25,153.0938 Q244.3125,152.5 245.5,152.5 Q246.2188,152.5 246.8438,152.75 Q247.4688,153 248,153.5 Z " fill="#000000"/><text fill="#000000" font-family="sans-serif" font-size="12" lengthAdjust="spacing" textLength="73" x="260" y="161.9102">Administrator</text><line style="stroke:#A80036;stroke-width:1.5;" x1="232" x2="335" y1="173" y2="173"/><!--MD5=[36afb6bbd95a8ac778c4537c55a683d5]
class ParameterCategory--><rect codeLine="37" fill="#FEFECE" filter="url(#f19juafye4pmqt)" height="81.5078" id="ParameterCategory" style="stroke:#A80036;stroke-width:1.5;" width="139" x="472" y="120"/><ellipse cx="487" cy="136" fill="#ADD1B2" rx="11" ry="11" style="stroke:#A80036;stroke-width:1.0;"/><path d="M489,132.5 Q489.2031,132 489.4375,131.75 Q489.6719,131.5 489.9375,131.5 Q490.4063,131.5 490.7031,131.7813 Q491,132.0625 491,132.7188 L491,134.2813 Q491,134.9375 490.7188,135.2188 Q490.4375,135.5 490,135.5 Q489.6094,135.5 489.3594,135.3281 Q489.1094,135.1563 489,134.7031 Q488.9531,134.3906 488.7813,134.2188 Q488.4688,133.8906 487.9063,133.7031 Q487.3438,133.5 486.7813,133.5 Q486.0781,133.5 485.4844,133.7813 Q484.9063,134.0625 484.4531,134.6875 Q484,135.3125 484,136.1719 L484,137.0938 Q484,138.125 484.8438,138.8125 Q485.6875,139.5 487.1875,139.5 Q488.0781,139.5 488.7031,139.2969 Q489.0625,139.1875 489.4688,138.8281 Q489.7344,138.625 489.875,138.5625 Q490.0156,138.5 490.1875,138.5 Q490.5156,138.5 490.75,138.7656 Q491,139.0156 491,139.375 Q491,139.7188 490.6563,140.125 Q490.1563,140.7188 489.3594,141.0469 Q488.3125,141.5 487.0313,141.5 Q485.5313,141.5 484.3281,140.9063 Q483.3594,140.4375 482.6719,139.4219 Q482,138.4063 482,137.2031 L482,136.1094 Q482,134.8594 482.5938,133.7656 Q483.2031,132.6719 484.25,132.0938 Q485.3125,131.5 486.5,131.5 Q487.2188,131.5 487.8438,131.75 Q488.4688,132 489,132.5 Z " fill="#000000"/><text fill="#000000" font-family="sans-serif" font-size="12" lengthAdjust="spacing" textLength="107" x="501" y="140.9102">ParameterCategory</text><line style="stroke:#A80036;stroke-width:1.5;" x1="473" x2="610" y1="152" y2="152"/><text fill="#000000" font-family="sans-serif" font-size="11" lengthAdjust="spacing" textLength="28" x="478" y="167.4189">-code</text><text fill="#000000" font-family="sans-serif" font-size="11" lengthAdjust="spacing" textLength="57" x="478" y="181.2549">-description</text><text fill="#000000" font-family="sans-serif" font-size="11" lengthAdjust="spacing" textLength="31" x="478" y="195.0908">-nhsID</text><!--MD5=[aeb3272166074d8737a70b61b1e71682]
class TestType--><rect codeLine="43" fill="#FEFECE" filter="url(#f19juafye4pmqt)" height="81.5078" id="TestType" style="stroke:#A80036;stroke-width:1.5;" width="96" x="7" y="7"/><ellipse cx="28.3" cy="23" fill="#ADD1B2" rx="11" ry="11" style="stroke:#A80036;stroke-width:1.0;"/><path d="M30.3,19.5 Q30.5031,19 30.7375,18.75 Q30.9719,18.5 31.2375,18.5 Q31.7063,18.5 32.0031,18.7813 Q32.3,19.0625 32.3,19.7188 L32.3,21.2813 Q32.3,21.9375 32.0188,22.2188 Q31.7375,22.5 31.3,22.5 Q30.9094,22.5 30.6594,22.3281 Q30.4094,22.1563 30.3,21.7031 Q30.2531,21.3906 30.0813,21.2188 Q29.7688,20.8906 29.2063,20.7031 Q28.6438,20.5 28.0813,20.5 Q27.3781,20.5 26.7844,20.7813 Q26.2063,21.0625 25.7531,21.6875 Q25.3,22.3125 25.3,23.1719 L25.3,24.0938 Q25.3,25.125 26.1438,25.8125 Q26.9875,26.5 28.4875,26.5 Q29.3781,26.5 30.0031,26.2969 Q30.3625,26.1875 30.7688,25.8281 Q31.0344,25.625 31.175,25.5625 Q31.3156,25.5 31.4875,25.5 Q31.8156,25.5 32.05,25.7656 Q32.3,26.0156 32.3,26.375 Q32.3,26.7188 31.9563,27.125 Q31.4563,27.7188 30.6594,28.0469 Q29.6125,28.5 28.3313,28.5 Q26.8313,28.5 25.6281,27.9063 Q24.6594,27.4375 23.9719,26.4219 Q23.3,25.4063 23.3,24.2031 L23.3,23.1094 Q23.3,21.8594 23.8938,20.7656 Q24.5031,19.6719 25.55,19.0938 Q26.6125,18.5 27.8,18.5 Q28.5188,18.5 29.1438,18.75 Q29.7688,19 30.3,19.5 Z " fill="#000000"/><text fill="#000000" font-family="sans-serif" font-size="12" lengthAdjust="spacing" textLength="50" x="43.7" y="27.9102">TestType</text><line style="stroke:#A80036;stroke-width:1.5;" x1="8" x2="102" y1="39" y2="39"/><text fill="#000000" font-family="sans-serif" font-size="11" lengthAdjust="spacing" textLength="28" x="13" y="54.4189">-code</text><text fill="#000000" font-family="sans-serif" font-size="11" lengthAdjust="spacing" textLength="57" x="13" y="68.2549">-description</text><text fill="#000000" font-family="sans-serif" font-size="11" lengthAdjust="spacing" textLength="84" x="13" y="82.0908">-collectingMethod</text><!--MD5=[7421f545a0d8420c5bec41e74b387d9c]
class Employee--><rect codeLine="20" fill="#FEFECE" filter="url(#f19juafye4pmqt)" height="136.8516" id="Employee" style="stroke:#A80036;stroke-width:1.5;" width="87" x="11.5" y="124.5"/><ellipse cx="26.5" cy="140.5" fill="#ADD1B2" rx="11" ry="11" style="stroke:#A80036;stroke-width:1.0;"/><path d="M28.5,137 Q28.7031,136.5 28.9375,136.25 Q29.1719,136 29.4375,136 Q29.9063,136 30.2031,136.2813 Q30.5,136.5625 30.5,137.2188 L30.5,138.7813 Q30.5,139.4375 30.2188,139.7188 Q29.9375,140 29.5,140 Q29.1094,140 28.8594,139.8281 Q28.6094,139.6563 28.5,139.2031 Q28.4531,138.8906 28.2813,138.7188 Q27.9688,138.3906 27.4063,138.2031 Q26.8438,138 26.2813,138 Q25.5781,138 24.9844,138.2813 Q24.4063,138.5625 23.9531,139.1875 Q23.5,139.8125 23.5,140.6719 L23.5,141.5938 Q23.5,142.625 24.3438,143.3125 Q25.1875,144 26.6875,144 Q27.5781,144 28.2031,143.7969 Q28.5625,143.6875 28.9688,143.3281 Q29.2344,143.125 29.375,143.0625 Q29.5156,143 29.6875,143 Q30.0156,143 30.25,143.2656 Q30.5,143.5156 30.5,143.875 Q30.5,144.2188 30.1563,144.625 Q29.6563,145.2188 28.8594,145.5469 Q27.8125,146 26.5313,146 Q25.0313,146 23.8281,145.4063 Q22.8594,144.9375 22.1719,143.9219 Q21.5,142.9063 21.5,141.7031 L21.5,140.6094 Q21.5,139.3594 22.0938,138.2656 Q22.7031,137.1719 23.75,136.5938 Q24.8125,136 26,136 Q26.7188,136 27.3438,136.25 Q27.9688,136.5 28.5,137 Z " fill="#000000"/><text fill="#000000" font-family="sans-serif" font-size="12" lengthAdjust="spacing" textLength="55" x="40.5" y="145.4102">Employee</text><line style="stroke:#A80036;stroke-width:1.5;" x1="12.5" x2="97.5" y1="156.5" y2="156.5"/><text fill="#000000" font-family="sans-serif" font-size="11" lengthAdjust="spacing" textLength="30" x="17.5" y="171.9189">-name</text><text fill="#000000" font-family="sans-serif" font-size="11" lengthAdjust="spacing" textLength="44" x="17.5" y="185.7549">-address</text><text fill="#000000" font-family="sans-serif" font-size="11" lengthAdjust="spacing" textLength="71" x="17.5" y="199.5908">-phoneNumber</text><text fill="#000000" font-family="sans-serif" font-size="11" lengthAdjust="spacing" textLength="59" x="17.5" y="213.4268">-employeeID</text><text fill="#000000" font-family="sans-serif" font-size="11" lengthAdjust="spacing" textLength="41" x="17.5" y="227.2627">-orgRole</text><text fill="#000000" font-family="sans-serif" font-size="11" lengthAdjust="spacing" textLength="28" x="17.5" y="241.0986">-email</text><text fill="#000000" font-family="sans-serif" font-size="11" lengthAdjust="spacing" textLength="50" x="17.5" y="254.9346">-SOCcode</text><!--MD5=[f7fb1bbd8b4f4021e9754ae6fe2871a0]
reverse link Employee to Administrator--><path codeLine="10" d="M118.83,184.12 C154.14,179.13 197.67,172.99 230.96,168.28 " fill="none" id="Employee-backto-Administrator" style="stroke:#A80036;stroke-width:1.0;"/><polygon fill="none" points="119.39,191.11,98.6,186.98,117.43,177.25,119.39,191.11" style="stroke:#A80036;stroke-width:1.0;"/><text fill="#000000" font-family="sans-serif" font-size="13" lengthAdjust="spacing" textLength="7" x="106.4009" y="200.8445">1</text><text fill="#000000" font-family="sans-serif" font-size="13" lengthAdjust="spacing" textLength="20" x="202.9471" y="183.7554">1..*</text><!--MD5=[6d9eb9a083ac0654c8b63743033752d3]
link TestType to Company--><path codeLine="12" d="M103.21,48 C143.79,48 201.76,48 240.69,48 " fill="none" id="TestType-Company" style="stroke:#A80036;stroke-width:1.0;"/><polygon fill="#000000" points="133,39.1758,142.0451,42.1147,142.0451,36.2369,133,39.1758" style="stroke:#000000;stroke-width:1.0;"/><text fill="#000000" font-family="sans-serif" font-size="13" lengthAdjust="spacing" textLength="53" x="147" y="44.4951">conducts</text><text fill="#000000" font-family="sans-serif" font-size="13" lengthAdjust="spacing" textLength="5" x="110.975" y="62.7847">*</text><text fill="#000000" font-family="sans-serif" font-size="13" lengthAdjust="spacing" textLength="7" x="226.0199" y="62.8628">1</text><!--MD5=[0985ee834cc881275852ed47ce1e01f6]
link TestType to Administrator--><path codeLine="14" d="M103.21,71.55 C144.31,92.06 203.24,121.46 242.17,140.88 " fill="none" id="TestType-Administrator" style="stroke:#A80036;stroke-width:1.0;"/><polygon fill="#000000" points="138.5259,76.9436,145.3075,83.6115,147.9317,78.3519,138.5259,76.9436" style="stroke:#000000;stroke-width:1.0;"/><text fill="#000000" font-family="sans-serif" font-size="13" lengthAdjust="spacing" textLength="43" x="152" y="84.4951">creates</text><text fill="#000000" font-family="sans-serif" font-size="13" lengthAdjust="spacing" textLength="5" x="110.975" y="89.9408">*</text><text fill="#000000" font-family="sans-serif" font-size="13" lengthAdjust="spacing" textLength="7" x="222.0012" y="130.1665">1</text><!--MD5=[7144ffdeebbe38808f7fb2ce8ac24f7d]
link Administrator to ParameterCategory--><path codeLine="16" d="M336.31,161 C375.31,161 429.17,161 471.78,161 " fill="none" id="Administrator-ParameterCategory" style="stroke:#A80036;stroke-width:1.0;"/><polygon fill="#000000" points="366,152.1758,375.0451,155.1147,375.0451,149.2369,366,152.1758" style="stroke:#000000;stroke-width:1.0;"/><text fill="#000000" font-family="sans-serif" font-size="13" lengthAdjust="spacing" textLength="61" x="380" y="157.4951">created by</text><text fill="#000000" font-family="sans-serif" font-size="13" lengthAdjust="spacing" textLength="7" x="343.8767" y="175.5937">1</text><text fill="#000000" font-family="sans-serif" font-size="13" lengthAdjust="spacing" textLength="5" x="458.8809" y="175.4163">*</text><!--MD5=[b6e716e07b48b3a4466137665adc3757]
@startuml
hide methods
left to right direction

class Company
class Administrator
class ParameterCategory
class TestType
class Employee

Employee "1" <|- - "1..*" Administrator

TestType "*" - - "1" Company : < conducts

TestType "*" - - "1" Administrator : < creates

Administrator "1" - - "*" ParameterCategory : < created by

skinparam classAttributeIconSize 0

class Employee{
-name
-address
-phoneNumber
-employeeID
-orgRole
-email
-SOCcode
}

class Company{
-designation
}

class Administrator{
}

class ParameterCategory{
-code
-description
-nhsID
}

class TestType{
-code
-description
-collectingMethod
}

@enduml

PlantUML version 1.2021.4(Sun Apr 04 09:49:39 BST 2021)
(GPL source distribution)
Java Runtime: OpenJDK Runtime Environment
JVM: OpenJDK 64-Bit Server VM
Default Encoding: Cp1252
Language: pt
Country: PT
--></g></svg>