<?xml version="1.0" encoding="UTF-8" standalone="no"?><svg xmlns="http://www.w3.org/2000/svg" xmlns:xlink="http://www.w3.org/1999/xlink" contentScriptType="application/ecmascript" contentStyleType="text/css" height="768px" preserveAspectRatio="none" style="width:1792px;height:768px;" version="1.1" viewBox="0 0 1792 768" width="1792px" zoomAndPan="magnify"><defs><filter height="300%" id="f1g31fz7et4hd" width="300%" x="-1" y="-1"><feGaussianBlur result="blurOut" stdDeviation="2.0"/><feColorMatrix in="blurOut" result="blurOut2" type="matrix" values="0 0 0 0 0 0 0 0 0 0 0 0 0 0 0 0 0 0 .4 0"/><feOffset dx="4.0" dy="4.0" in="blurOut2" result="blurOut3"/><feBlend in="SourceGraphic" in2="blurOut3" mode="normal"/></filter></defs><g><!--MD5=[2c2e2644034c00788261e03c85b06837]
cluster Core--><polygon fill="#FFFFFF" filter="url(#f1g31fz7et4hd)" points="16,6,56,6,63,29.6094,1775,29.6094,1775,637,16,637,16,6" style="stroke:#000000;stroke-width:1.5;"/><line style="stroke:#000000;stroke-width:1.5;" x1="16" x2="63" y1="29.6094" y2="29.6094"/><text fill="#000000" font-family="sans-serif" font-size="14" font-weight="bold" lengthAdjust="spacing" textLength="34" x="20" y="22.5332">Core</text><!--MD5=[121a8bf1197281ab89ed693fab589f94]
cluster Domain--><polygon fill="#FFFFFF" filter="url(#f1g31fz7et4hd)" points="181.5,50,239.5,50,246.5,73.6094,1457,73.6094,1457,308,181.5,308,181.5,50" style="stroke:#000000;stroke-width:1.5;"/><line style="stroke:#000000;stroke-width:1.5;" x1="181.5" x2="246.5" y1="73.6094" y2="73.6094"/><text fill="#000000" font-family="sans-serif" font-size="14" font-weight="bold" lengthAdjust="spacing" textLength="52" x="185.5" y="66.5332">Domain</text><!--MD5=[8dd535d56cd4cf7faf64fdd082ba836e]
cluster Stores--><polygon fill="#FFFFFF" filter="url(#f1g31fz7et4hd)" points="40,332,92,332,99,355.6094,515,355.6094,515,516,40,516,40,332" style="stroke:#000000;stroke-width:1.5;"/><line style="stroke:#000000;stroke-width:1.5;" x1="40" x2="99" y1="355.6094" y2="355.6094"/><text fill="#000000" font-family="sans-serif" font-size="14" font-weight="bold" lengthAdjust="spacing" textLength="46" x="44" y="348.5332">Stores</text><!--MD5=[ed1d20ea533a2a0e7df5ba3c35e56ced]
cluster Controllers--><polygon fill="#FFFFFF" filter="url(#f1g31fz7et4hd)" points="601,332,686,332,693,355.6094,1069,355.6094,1069,613,601,613,601,332" style="stroke:#000000;stroke-width:1.5;"/><line style="stroke:#000000;stroke-width:1.5;" x1="601" x2="693" y1="355.6094" y2="355.6094"/><text fill="#000000" font-family="sans-serif" font-size="14" font-weight="bold" lengthAdjust="spacing" textLength="79" x="605" y="348.5332">Controllers</text><!--MD5=[701152d03fbf85133a1de050cfdbc7fd]
cluster Mappers--><polygon fill="#FFFFFF" filter="url(#f1g31fz7et4hd)" points="1179,402,1247,402,1254,425.6094,1528,425.6094,1528,613,1179,613,1179,402" style="stroke:#000000;stroke-width:1.5;"/><line style="stroke:#000000;stroke-width:1.5;" x1="1179" x2="1254" y1="425.6094" y2="425.6094"/><text fill="#000000" font-family="sans-serif" font-size="14" font-weight="bold" lengthAdjust="spacing" textLength="62" x="1183" y="418.5332">Mappers</text><!--MD5=[a7e26d82dece3a99be33d8557e72e039]
cluster Dto--><polygon fill="#FFFFFF" filter="url(#f1g31fz7et4hd)" points="1561,326,1591,326,1598,349.6094,1751,349.6094,1751,509,1561,509,1561,326" style="stroke:#000000;stroke-width:1.5;"/><line style="stroke:#000000;stroke-width:1.5;" x1="1561" x2="1598" y1="349.6094" y2="349.6094"/><text fill="#000000" font-family="sans-serif" font-size="14" font-weight="bold" lengthAdjust="spacing" textLength="24" x="1565" y="342.5332">Dto</text><!--MD5=[9681dc6e01e10c6b4fe06895ae94f592]
cluster UI--><polygon fill="#FFFFFF" filter="url(#f1g31fz7et4hd)" points="196,661,216,661,223,684.6094,359,684.6094,359,761,196,761,196,661" style="stroke:#000000;stroke-width:1.5;"/><line style="stroke:#000000;stroke-width:1.5;" x1="196" x2="223" y1="684.6094" y2="684.6094"/><text fill="#000000" font-family="sans-serif" font-size="14" font-weight="bold" lengthAdjust="spacing" textLength="14" x="200" y="677.5332">UI</text><!--MD5=[378b18254a1b2429f435e93f5e5cc50c]
class C--><rect codeLine="7" fill="#FEFECE" filter="url(#f1g31fz7et4hd)" height="89.5078" id="C" style="stroke:#A80036;stroke-width:1.5;" width="160" x="197.5" y="202"/><ellipse cx="246.75" cy="218" fill="#ADD1B2" rx="11" ry="11" style="stroke:#A80036;stroke-width:1.0;"/><path d="M248.75,214.5 Q248.9531,214 249.1875,213.75 Q249.4219,213.5 249.6875,213.5 Q250.1563,213.5 250.4531,213.7813 Q250.75,214.0625 250.75,214.7188 L250.75,216.2813 Q250.75,216.9375 250.4688,217.2188 Q250.1875,217.5 249.75,217.5 Q249.3594,217.5 249.1094,217.3281 Q248.8594,217.1563 248.75,216.7031 Q248.7031,216.3906 248.5313,216.2188 Q248.2188,215.8906 247.6563,215.7031 Q247.0938,215.5 246.5313,215.5 Q245.8281,215.5 245.2344,215.7813 Q244.6563,216.0625 244.2031,216.6875 Q243.75,217.3125 243.75,218.1719 L243.75,219.0938 Q243.75,220.125 244.5938,220.8125 Q245.4375,221.5 246.9375,221.5 Q247.8281,221.5 248.4531,221.2969 Q248.8125,221.1875 249.2188,220.8281 Q249.4844,220.625 249.625,220.5625 Q249.7656,220.5 249.9375,220.5 Q250.2656,220.5 250.5,220.7656 Q250.75,221.0156 250.75,221.375 Q250.75,221.7188 250.4063,222.125 Q249.9063,222.7188 249.1094,223.0469 Q248.0625,223.5 246.7813,223.5 Q245.2813,223.5 244.0781,222.9063 Q243.1094,222.4375 242.4219,221.4219 Q241.75,220.4063 241.75,219.2031 L241.75,218.1094 Q241.75,216.8594 242.3438,215.7656 Q242.9531,214.6719 244,214.0938 Q245.0625,213.5 246.25,213.5 Q246.9688,213.5 247.5938,213.75 Q248.2188,214 248.75,214.5 Z " fill="#000000"/><text fill="#000000" font-family="sans-serif" font-size="12" lengthAdjust="spacing" textLength="53" x="267.25" y="222.9102">Company</text><line style="stroke:#A80036;stroke-width:1.5;" x1="198.5" x2="356.5" y1="234" y2="234"/><text fill="#000000" font-family="sans-serif" font-size="11" lengthAdjust="spacing" textLength="90" x="203.5" y="249.4189">-String designation</text><line style="stroke:#A80036;stroke-width:1.5;" x1="198.5" x2="356.5" y1="255.8359" y2="255.8359"/><text fill="#000000" font-family="sans-serif" font-size="11" lengthAdjust="spacing" textLength="100" x="203.5" y="271.2549">+getTestTypeStore()</text><text fill="#000000" font-family="sans-serif" font-size="11" lengthAdjust="spacing" textLength="148" x="203.5" y="285.0908">+getParameterCategoryStore()</text><!--MD5=[218f71f443b9e0720bb96dd9df1d4749]
class PC--><rect codeLine="13" fill="#FEFECE" filter="url(#f1g31fz7et4hd)" height="89.5078" id="PC" style="stroke:#A80036;stroke-width:1.5;" width="175" x="1266" y="112"/><ellipse cx="1297.2" cy="128" fill="#ADD1B2" rx="11" ry="11" style="stroke:#A80036;stroke-width:1.0;"/><path d="M1299.2,124.5 Q1299.4031,124 1299.6375,123.75 Q1299.8719,123.5 1300.1375,123.5 Q1300.6063,123.5 1300.9031,123.7813 Q1301.2,124.0625 1301.2,124.7188 L1301.2,126.2813 Q1301.2,126.9375 1300.9188,127.2188 Q1300.6375,127.5 1300.2,127.5 Q1299.8094,127.5 1299.5594,127.3281 Q1299.3094,127.1563 1299.2,126.7031 Q1299.1531,126.3906 1298.9813,126.2188 Q1298.6688,125.8906 1298.1063,125.7031 Q1297.5438,125.5 1296.9813,125.5 Q1296.2781,125.5 1295.6844,125.7813 Q1295.1063,126.0625 1294.6531,126.6875 Q1294.2,127.3125 1294.2,128.1719 L1294.2,129.0938 Q1294.2,130.125 1295.0438,130.8125 Q1295.8875,131.5 1297.3875,131.5 Q1298.2781,131.5 1298.9031,131.2969 Q1299.2625,131.1875 1299.6688,130.8281 Q1299.9344,130.625 1300.075,130.5625 Q1300.2156,130.5 1300.3875,130.5 Q1300.7156,130.5 1300.95,130.7656 Q1301.2,131.0156 1301.2,131.375 Q1301.2,131.7188 1300.8563,132.125 Q1300.3563,132.7188 1299.5594,133.0469 Q1298.5125,133.5 1297.2313,133.5 Q1295.7313,133.5 1294.5281,132.9063 Q1293.5594,132.4375 1292.8719,131.4219 Q1292.2,130.4063 1292.2,129.2031 L1292.2,128.1094 Q1292.2,126.8594 1292.7938,125.7656 Q1293.4031,124.6719 1294.45,124.0938 Q1295.5125,123.5 1296.7,123.5 Q1297.4188,123.5 1298.0438,123.75 Q1298.6688,124 1299.2,124.5 Z " fill="#000000"/><text fill="#000000" font-family="sans-serif" font-size="12" lengthAdjust="spacing" textLength="107" x="1314.8" y="132.9102">ParameterCategory</text><line style="stroke:#A80036;stroke-width:1.5;" x1="1267" x2="1440" y1="144" y2="144"/><text fill="#000000" font-family="sans-serif" font-size="11" lengthAdjust="spacing" textLength="61" x="1272" y="159.4189">-String name</text><text fill="#000000" font-family="sans-serif" font-size="11" lengthAdjust="spacing" textLength="59" x="1272" y="173.2549">-String code</text><line style="stroke:#A80036;stroke-width:1.5;" x1="1267" x2="1440" y1="179.6719" y2="179.6719"/><text fill="#000000" font-family="sans-serif" font-size="11" lengthAdjust="spacing" textLength="163" x="1272" y="195.0908">+ParameterCategory(name, code)</text><!--MD5=[f76673142371ead9f091198193c4bd63]
class TT--><rect codeLine="19" fill="#FEFECE" filter="url(#f1g31fz7et4hd)" height="117.1797" id="TT" style="stroke:#A80036;stroke-width:1.5;" width="364" x="653" y="174.5"/><ellipse cx="805.75" cy="190.5" fill="#ADD1B2" rx="11" ry="11" style="stroke:#A80036;stroke-width:1.0;"/><path d="M807.75,187 Q807.9531,186.5 808.1875,186.25 Q808.4219,186 808.6875,186 Q809.1563,186 809.4531,186.2813 Q809.75,186.5625 809.75,187.2188 L809.75,188.7813 Q809.75,189.4375 809.4688,189.7188 Q809.1875,190 808.75,190 Q808.3594,190 808.1094,189.8281 Q807.8594,189.6563 807.75,189.2031 Q807.7031,188.8906 807.5313,188.7188 Q807.2188,188.3906 806.6563,188.2031 Q806.0938,188 805.5313,188 Q804.8281,188 804.2344,188.2813 Q803.6563,188.5625 803.2031,189.1875 Q802.75,189.8125 802.75,190.6719 L802.75,191.5938 Q802.75,192.625 803.5938,193.3125 Q804.4375,194 805.9375,194 Q806.8281,194 807.4531,193.7969 Q807.8125,193.6875 808.2188,193.3281 Q808.4844,193.125 808.625,193.0625 Q808.7656,193 808.9375,193 Q809.2656,193 809.5,193.2656 Q809.75,193.5156 809.75,193.875 Q809.75,194.2188 809.4063,194.625 Q808.9063,195.2188 808.1094,195.5469 Q807.0625,196 805.7813,196 Q804.2813,196 803.0781,195.4063 Q802.1094,194.9375 801.4219,193.9219 Q800.75,192.9063 800.75,191.7031 L800.75,190.6094 Q800.75,189.3594 801.3438,188.2656 Q801.9531,187.1719 803,186.5938 Q804.0625,186 805.25,186 Q805.9688,186 806.5938,186.25 Q807.2188,186.5 807.75,187 Z " fill="#000000"/><text fill="#000000" font-family="sans-serif" font-size="12" lengthAdjust="spacing" textLength="50" x="826.25" y="195.4102">TestType</text><line style="stroke:#A80036;stroke-width:1.5;" x1="654" x2="1016" y1="206.5" y2="206.5"/><text fill="#000000" font-family="sans-serif" font-size="11" lengthAdjust="spacing" textLength="59" x="659" y="221.9189">-String code</text><text fill="#000000" font-family="sans-serif" font-size="11" lengthAdjust="spacing" textLength="88" x="659" y="235.7549">-String description</text><text fill="#000000" font-family="sans-serif" font-size="11" lengthAdjust="spacing" textLength="115" x="659" y="249.5908">-String collectingMethod</text><text fill="#000000" font-family="sans-serif" font-size="11" lengthAdjust="spacing" textLength="250" x="659" y="263.4268">-List &lt;ParameterCategory&gt; parameterCategoriesList</text><line style="stroke:#A80036;stroke-width:1.5;" x1="654" x2="1016" y1="269.8438" y2="269.8438"/><text fill="#000000" font-family="sans-serif" font-size="11" lengthAdjust="spacing" textLength="352" x="659" y="285.2627">+TestType(code, description, collectingMethod, parameterCategoriesList)</text><!--MD5=[0c21d7a5a5555e4278001068caacbd33]
class TTS--><rect codeLine="32" fill="#FEFECE" filter="url(#f1g31fz7et4hd)" height="131.0156" id="TTS" style="stroke:#A80036;stroke-width:1.5;" width="443" x="56" y="368.5"/><ellipse cx="233.75" cy="384.5" fill="#ADD1B2" rx="11" ry="11" style="stroke:#A80036;stroke-width:1.0;"/><path d="M235.75,381 Q235.9531,380.5 236.1875,380.25 Q236.4219,380 236.6875,380 Q237.1563,380 237.4531,380.2813 Q237.75,380.5625 237.75,381.2188 L237.75,382.7813 Q237.75,383.4375 237.4688,383.7188 Q237.1875,384 236.75,384 Q236.3594,384 236.1094,383.8281 Q235.8594,383.6563 235.75,383.2031 Q235.7031,382.8906 235.5313,382.7188 Q235.2188,382.3906 234.6563,382.2031 Q234.0938,382 233.5313,382 Q232.8281,382 232.2344,382.2813 Q231.6563,382.5625 231.2031,383.1875 Q230.75,383.8125 230.75,384.6719 L230.75,385.5938 Q230.75,386.625 231.5938,387.3125 Q232.4375,388 233.9375,388 Q234.8281,388 235.4531,387.7969 Q235.8125,387.6875 236.2188,387.3281 Q236.4844,387.125 236.625,387.0625 Q236.7656,387 236.9375,387 Q237.2656,387 237.5,387.2656 Q237.75,387.5156 237.75,387.875 Q237.75,388.2188 237.4063,388.625 Q236.9063,389.2188 236.1094,389.5469 Q235.0625,390 233.7813,390 Q232.2813,390 231.0781,389.4063 Q230.1094,388.9375 229.4219,387.9219 Q228.75,386.9063 228.75,385.7031 L228.75,384.6094 Q228.75,383.3594 229.3438,382.2656 Q229.9531,381.1719 231,380.5938 Q232.0625,380 233.25,380 Q233.9688,380 234.5938,380.25 Q235.2188,380.5 235.75,381 Z " fill="#000000"/><text fill="#000000" font-family="sans-serif" font-size="12" lengthAdjust="spacing" textLength="79" x="254.25" y="389.4102">TestTypeStore</text><line style="stroke:#A80036;stroke-width:1.5;" x1="57" x2="498" y1="400.5" y2="400.5"/><text fill="#000000" font-family="sans-serif" font-size="11" lengthAdjust="spacing" textLength="140" x="62" y="415.9189">-List&lt;TestType&gt; testTypeList</text><line style="stroke:#A80036;stroke-width:1.5;" x1="57" x2="498" y1="422.3359" y2="422.3359"/><text fill="#000000" font-family="sans-serif" font-size="11" lengthAdjust="spacing" textLength="431" x="62" y="437.7549">+TestType createTestType(code, description, collectingMethod, parameterCategoriesList)</text><text fill="#000000" font-family="sans-serif" font-size="11" lengthAdjust="spacing" textLength="130" x="62" y="451.5908">+boolean saveTestType(tt)</text><text fill="#000000" font-family="sans-serif" font-size="11" lengthAdjust="spacing" textLength="143" x="62" y="465.4268">+boolean validateTestType(tt)</text><text fill="#000000" font-family="sans-serif" font-size="11" lengthAdjust="spacing" textLength="124" x="62" y="479.2627">+boolean addTestType(tt)</text><text fill="#000000" font-family="sans-serif" font-size="11" lengthAdjust="spacing" textLength="172" x="62" y="493.0986">+List &lt;TestType&gt; getAllTestTypes()</text><!--MD5=[0db42b3591f13a48474e506cf6fbc101]
class CTTC--><rect codeLine="45" fill="#FEFECE" filter="url(#f1g31fz7et4hd)" height="117.1797" id="CTTC" style="stroke:#A80036;stroke-width:1.5;" width="436" x="617" y="479.5"/><ellipse cx="760.25" cy="495.5" fill="#ADD1B2" rx="11" ry="11" style="stroke:#A80036;stroke-width:1.0;"/><path d="M762.25,492 Q762.4531,491.5 762.6875,491.25 Q762.9219,491 763.1875,491 Q763.6563,491 763.9531,491.2813 Q764.25,491.5625 764.25,492.2188 L764.25,493.7813 Q764.25,494.4375 763.9688,494.7188 Q763.6875,495 763.25,495 Q762.8594,495 762.6094,494.8281 Q762.3594,494.6563 762.25,494.2031 Q762.2031,493.8906 762.0313,493.7188 Q761.7188,493.3906 761.1563,493.2031 Q760.5938,493 760.0313,493 Q759.3281,493 758.7344,493.2813 Q758.1563,493.5625 757.7031,494.1875 Q757.25,494.8125 757.25,495.6719 L757.25,496.5938 Q757.25,497.625 758.0938,498.3125 Q758.9375,499 760.4375,499 Q761.3281,499 761.9531,498.7969 Q762.3125,498.6875 762.7188,498.3281 Q762.9844,498.125 763.125,498.0625 Q763.2656,498 763.4375,498 Q763.7656,498 764,498.2656 Q764.25,498.5156 764.25,498.875 Q764.25,499.2188 763.9063,499.625 Q763.4063,500.2188 762.6094,500.5469 Q761.5625,501 760.2813,501 Q758.7813,501 757.5781,500.4063 Q756.6094,499.9375 755.9219,498.9219 Q755.25,497.9063 755.25,496.7031 L755.25,495.6094 Q755.25,494.3594 755.8438,493.2656 Q756.4531,492.1719 757.5,491.5938 Q758.5625,491 759.75,491 Q760.4688,491 761.0938,491.25 Q761.7188,491.5 762.25,492 Z " fill="#000000"/><text fill="#000000" font-family="sans-serif" font-size="12" lengthAdjust="spacing" textLength="141" x="780.75" y="500.4102">CreateTestTypeController</text><line style="stroke:#A80036;stroke-width:1.5;" x1="618" x2="1052" y1="511.5" y2="511.5"/><line style="stroke:#A80036;stroke-width:1.5;" x1="618" x2="1052" y1="519.5" y2="519.5"/><text fill="#000000" font-family="sans-serif" font-size="11" lengthAdjust="spacing" textLength="137" x="623" y="534.9189">+CreateTestTypeController()</text><text fill="#000000" font-family="sans-serif" font-size="11" lengthAdjust="spacing" textLength="201" x="623" y="548.7549">+List&lt;TestTypeDto&gt; getAllTestTypesDto()</text><text fill="#000000" font-family="sans-serif" font-size="11" lengthAdjust="spacing" textLength="424" x="623" y="562.5908">+boolean createTestType(code, description, collectingMethod, parameterCategoriesList)</text><text fill="#000000" font-family="sans-serif" font-size="11" lengthAdjust="spacing" textLength="124" x="623" y="576.4268">+boolean saveTestType()</text><text fill="#000000" font-family="sans-serif" font-size="11" lengthAdjust="spacing" textLength="169" x="623" y="590.2627">+List&lt;TestType&gt; getAllTestTypes()</text><!--MD5=[0395d61ec6d33a7f38ab71a957cc7d70]
class CPCS--><rect codeLine="55" fill="#FEFECE" filter="url(#f1g31fz7et4hd)" height="75.6719" id="CPCS" style="stroke:#A80036;stroke-width:1.5;" width="314" x="678" y="368"/><ellipse cx="731.75" cy="384" fill="#ADD1B2" rx="11" ry="11" style="stroke:#A80036;stroke-width:1.0;"/><path d="M733.75,380.5 Q733.9531,380 734.1875,379.75 Q734.4219,379.5 734.6875,379.5 Q735.1563,379.5 735.4531,379.7813 Q735.75,380.0625 735.75,380.7188 L735.75,382.2813 Q735.75,382.9375 735.4688,383.2188 Q735.1875,383.5 734.75,383.5 Q734.3594,383.5 734.1094,383.3281 Q733.8594,383.1563 733.75,382.7031 Q733.7031,382.3906 733.5313,382.2188 Q733.2188,381.8906 732.6563,381.7031 Q732.0938,381.5 731.5313,381.5 Q730.8281,381.5 730.2344,381.7813 Q729.6563,382.0625 729.2031,382.6875 Q728.75,383.3125 728.75,384.1719 L728.75,385.0938 Q728.75,386.125 729.5938,386.8125 Q730.4375,387.5 731.9375,387.5 Q732.8281,387.5 733.4531,387.2969 Q733.8125,387.1875 734.2188,386.8281 Q734.4844,386.625 734.625,386.5625 Q734.7656,386.5 734.9375,386.5 Q735.2656,386.5 735.5,386.7656 Q735.75,387.0156 735.75,387.375 Q735.75,387.7188 735.4063,388.125 Q734.9063,388.7188 734.1094,389.0469 Q733.0625,389.5 731.7813,389.5 Q730.2813,389.5 729.0781,388.9063 Q728.1094,388.4375 727.4219,387.4219 Q726.75,386.4063 726.75,385.2031 L726.75,384.1094 Q726.75,382.8594 727.3438,381.7656 Q727.9531,380.6719 729,380.0938 Q730.0625,379.5 731.25,379.5 Q731.9688,379.5 732.5938,379.75 Q733.2188,380 733.75,380.5 Z " fill="#000000"/><text fill="#000000" font-family="sans-serif" font-size="12" lengthAdjust="spacing" textLength="198" x="752.25" y="388.9102">CreateParameterCategoryController</text><line style="stroke:#A80036;stroke-width:1.5;" x1="679" x2="991" y1="400" y2="400"/><line style="stroke:#A80036;stroke-width:1.5;" x1="679" x2="991" y1="408" y2="408"/><text fill="#000000" font-family="sans-serif" font-size="11" lengthAdjust="spacing" textLength="302" x="684" y="423.4189">+List &lt;ParameterCategoryDto&gt; getAllParameterCategoriesDto()</text><text fill="#000000" font-family="sans-serif" font-size="11" lengthAdjust="spacing" textLength="280" x="684" y="437.2549">+ParameterCategory getParameterCategoryByCode(code)</text><!--MD5=[1905ea1c532ab03438cb5177c6784fd5]
class ttM--><rect codeLine="63" fill="#FEFECE" filter="url(#f1g31fz7et4hd)" height="61.8359" id="ttM" style="stroke:#A80036;stroke-width:1.5;" width="221" x="1243" y="535"/><ellipse cx="1303.75" cy="551" fill="#ADD1B2" rx="11" ry="11" style="stroke:#A80036;stroke-width:1.0;"/><path d="M1305.75,547.5 Q1305.9531,547 1306.1875,546.75 Q1306.4219,546.5 1306.6875,546.5 Q1307.1563,546.5 1307.4531,546.7813 Q1307.75,547.0625 1307.75,547.7188 L1307.75,549.2813 Q1307.75,549.9375 1307.4688,550.2188 Q1307.1875,550.5 1306.75,550.5 Q1306.3594,550.5 1306.1094,550.3281 Q1305.8594,550.1563 1305.75,549.7031 Q1305.7031,549.3906 1305.5313,549.2188 Q1305.2188,548.8906 1304.6563,548.7031 Q1304.0938,548.5 1303.5313,548.5 Q1302.8281,548.5 1302.2344,548.7813 Q1301.6563,549.0625 1301.2031,549.6875 Q1300.75,550.3125 1300.75,551.1719 L1300.75,552.0938 Q1300.75,553.125 1301.5938,553.8125 Q1302.4375,554.5 1303.9375,554.5 Q1304.8281,554.5 1305.4531,554.2969 Q1305.8125,554.1875 1306.2188,553.8281 Q1306.4844,553.625 1306.625,553.5625 Q1306.7656,553.5 1306.9375,553.5 Q1307.2656,553.5 1307.5,553.7656 Q1307.75,554.0156 1307.75,554.375 Q1307.75,554.7188 1307.4063,555.125 Q1306.9063,555.7188 1306.1094,556.0469 Q1305.0625,556.5 1303.7813,556.5 Q1302.2813,556.5 1301.0781,555.9063 Q1300.1094,555.4375 1299.4219,554.4219 Q1298.75,553.4063 1298.75,552.2031 L1298.75,551.1094 Q1298.75,549.8594 1299.3438,548.7656 Q1299.9531,547.6719 1301,547.0938 Q1302.0625,546.5 1303.25,546.5 Q1303.9688,546.5 1304.5938,546.75 Q1305.2188,547 1305.75,547.5 Z " fill="#000000"/><text fill="#000000" font-family="sans-serif" font-size="12" lengthAdjust="spacing" textLength="91" x="1324.25" y="555.9102">TestTypeMapper</text><line style="stroke:#A80036;stroke-width:1.5;" x1="1244" x2="1463" y1="567" y2="567"/><line style="stroke:#A80036;stroke-width:1.5;" x1="1244" x2="1463" y1="575" y2="575"/><text fill="#000000" font-family="sans-serif" font-size="11" lengthAdjust="spacing" textLength="209" x="1249" y="590.4189">+List &lt;TestTypeDto&gt; toDto(List&lt;TestType&gt;)</text><!--MD5=[c87944dbd4a20957a43785b60d8aa940]
class pcM--><rect codeLine="67" fill="#FEFECE" filter="url(#f1g31fz7et4hd)" height="61.8359" id="pcM" style="stroke:#A80036;stroke-width:1.5;" width="317" x="1195" y="438"/><ellipse cx="1275.25" cy="454" fill="#ADD1B2" rx="11" ry="11" style="stroke:#A80036;stroke-width:1.0;"/><path d="M1277.25,450.5 Q1277.4531,450 1277.6875,449.75 Q1277.9219,449.5 1278.1875,449.5 Q1278.6563,449.5 1278.9531,449.7813 Q1279.25,450.0625 1279.25,450.7188 L1279.25,452.2813 Q1279.25,452.9375 1278.9688,453.2188 Q1278.6875,453.5 1278.25,453.5 Q1277.8594,453.5 1277.6094,453.3281 Q1277.3594,453.1563 1277.25,452.7031 Q1277.2031,452.3906 1277.0313,452.2188 Q1276.7188,451.8906 1276.1563,451.7031 Q1275.5938,451.5 1275.0313,451.5 Q1274.3281,451.5 1273.7344,451.7813 Q1273.1563,452.0625 1272.7031,452.6875 Q1272.25,453.3125 1272.25,454.1719 L1272.25,455.0938 Q1272.25,456.125 1273.0938,456.8125 Q1273.9375,457.5 1275.4375,457.5 Q1276.3281,457.5 1276.9531,457.2969 Q1277.3125,457.1875 1277.7188,456.8281 Q1277.9844,456.625 1278.125,456.5625 Q1278.2656,456.5 1278.4375,456.5 Q1278.7656,456.5 1279,456.7656 Q1279.25,457.0156 1279.25,457.375 Q1279.25,457.7188 1278.9063,458.125 Q1278.4063,458.7188 1277.6094,459.0469 Q1276.5625,459.5 1275.2813,459.5 Q1273.7813,459.5 1272.5781,458.9063 Q1271.6094,458.4375 1270.9219,457.4219 Q1270.25,456.4063 1270.25,455.2031 L1270.25,454.1094 Q1270.25,452.8594 1270.8438,451.7656 Q1271.4531,450.6719 1272.5,450.0938 Q1273.5625,449.5 1274.75,449.5 Q1275.4688,449.5 1276.0938,449.75 Q1276.7188,450 1277.25,450.5 Z " fill="#000000"/><text fill="#000000" font-family="sans-serif" font-size="12" lengthAdjust="spacing" textLength="148" x="1295.75" y="458.9102">ParameterCategoryMapper</text><line style="stroke:#A80036;stroke-width:1.5;" x1="1196" x2="1511" y1="470" y2="470"/><line style="stroke:#A80036;stroke-width:1.5;" x1="1196" x2="1511" y1="478" y2="478"/><text fill="#000000" font-family="sans-serif" font-size="11" lengthAdjust="spacing" textLength="305" x="1201" y="493.4189">+List &lt;ParameterCategoryDto&gt; toDto(List&lt;ParameterCategory&gt;)</text><!--MD5=[ec0a4f007167539f7ef0283e3ce97f9f]
class ttDto--><rect codeLine="75" fill="#FEFECE" filter="url(#f1g31fz7et4hd)" height="48" id="ttDto" style="stroke:#A80036;stroke-width:1.5;" width="101" x="1605.5" y="362"/><ellipse cx="1620.5" cy="378" fill="#ADD1B2" rx="11" ry="11" style="stroke:#A80036;stroke-width:1.0;"/><path d="M1622.5,374.5 Q1622.7031,374 1622.9375,373.75 Q1623.1719,373.5 1623.4375,373.5 Q1623.9063,373.5 1624.2031,373.7813 Q1624.5,374.0625 1624.5,374.7188 L1624.5,376.2813 Q1624.5,376.9375 1624.2188,377.2188 Q1623.9375,377.5 1623.5,377.5 Q1623.1094,377.5 1622.8594,377.3281 Q1622.6094,377.1563 1622.5,376.7031 Q1622.4531,376.3906 1622.2813,376.2188 Q1621.9688,375.8906 1621.4063,375.7031 Q1620.8438,375.5 1620.2813,375.5 Q1619.5781,375.5 1618.9844,375.7813 Q1618.4063,376.0625 1617.9531,376.6875 Q1617.5,377.3125 1617.5,378.1719 L1617.5,379.0938 Q1617.5,380.125 1618.3438,380.8125 Q1619.1875,381.5 1620.6875,381.5 Q1621.5781,381.5 1622.2031,381.2969 Q1622.5625,381.1875 1622.9688,380.8281 Q1623.2344,380.625 1623.375,380.5625 Q1623.5156,380.5 1623.6875,380.5 Q1624.0156,380.5 1624.25,380.7656 Q1624.5,381.0156 1624.5,381.375 Q1624.5,381.7188 1624.1563,382.125 Q1623.6563,382.7188 1622.8594,383.0469 Q1621.8125,383.5 1620.5313,383.5 Q1619.0313,383.5 1617.8281,382.9063 Q1616.8594,382.4375 1616.1719,381.4219 Q1615.5,380.4063 1615.5,379.2031 L1615.5,378.1094 Q1615.5,376.8594 1616.0938,375.7656 Q1616.7031,374.6719 1617.75,374.0938 Q1618.8125,373.5 1620,373.5 Q1620.7188,373.5 1621.3438,373.75 Q1621.9688,374 1622.5,374.5 Z " fill="#000000"/><text fill="#000000" font-family="sans-serif" font-size="12" lengthAdjust="spacing" textLength="69" x="1634.5" y="382.9102">TestTypeDto</text><line style="stroke:#A80036;stroke-width:1.5;" x1="1606.5" x2="1705.5" y1="394" y2="394"/><line style="stroke:#A80036;stroke-width:1.5;" x1="1606.5" x2="1705.5" y1="402" y2="402"/><!--MD5=[808bc6f30abcce3f75fbe2ba7c53e00a]
class pcDto--><rect codeLine="78" fill="#FEFECE" filter="url(#f1g31fz7et4hd)" height="48" id="pcDto" style="stroke:#A80036;stroke-width:1.5;" width="158" x="1577" y="445"/><ellipse cx="1592" cy="461" fill="#ADD1B2" rx="11" ry="11" style="stroke:#A80036;stroke-width:1.0;"/><path d="M1594,457.5 Q1594.2031,457 1594.4375,456.75 Q1594.6719,456.5 1594.9375,456.5 Q1595.4063,456.5 1595.7031,456.7813 Q1596,457.0625 1596,457.7188 L1596,459.2813 Q1596,459.9375 1595.7188,460.2188 Q1595.4375,460.5 1595,460.5 Q1594.6094,460.5 1594.3594,460.3281 Q1594.1094,460.1563 1594,459.7031 Q1593.9531,459.3906 1593.7813,459.2188 Q1593.4688,458.8906 1592.9063,458.7031 Q1592.3438,458.5 1591.7813,458.5 Q1591.0781,458.5 1590.4844,458.7813 Q1589.9063,459.0625 1589.4531,459.6875 Q1589,460.3125 1589,461.1719 L1589,462.0938 Q1589,463.125 1589.8438,463.8125 Q1590.6875,464.5 1592.1875,464.5 Q1593.0781,464.5 1593.7031,464.2969 Q1594.0625,464.1875 1594.4688,463.8281 Q1594.7344,463.625 1594.875,463.5625 Q1595.0156,463.5 1595.1875,463.5 Q1595.5156,463.5 1595.75,463.7656 Q1596,464.0156 1596,464.375 Q1596,464.7188 1595.6563,465.125 Q1595.1563,465.7188 1594.3594,466.0469 Q1593.3125,466.5 1592.0313,466.5 Q1590.5313,466.5 1589.3281,465.9063 Q1588.3594,465.4375 1587.6719,464.4219 Q1587,463.4063 1587,462.2031 L1587,461.1094 Q1587,459.8594 1587.5938,458.7656 Q1588.2031,457.6719 1589.25,457.0938 Q1590.3125,456.5 1591.5,456.5 Q1592.2188,456.5 1592.8438,456.75 Q1593.4688,457 1594,457.5 Z " fill="#000000"/><text fill="#000000" font-family="sans-serif" font-size="12" lengthAdjust="spacing" textLength="126" x="1606" y="465.9102">ParameterCategoryDto</text><line style="stroke:#A80036;stroke-width:1.5;" x1="1578" x2="1734" y1="477" y2="477"/><line style="stroke:#A80036;stroke-width:1.5;" x1="1578" x2="1734" y1="485" y2="485"/><!--MD5=[6461a74477876ab4a04549c978c1a07a]
class CTTUI--><rect codeLine="85" fill="#FEFECE" filter="url(#f1g31fz7et4hd)" height="48" id="CTTUI" style="stroke:#A80036;stroke-width:1.5;" width="131" x="212" y="697"/><ellipse cx="227" cy="713" fill="#ADD1B2" rx="11" ry="11" style="stroke:#A80036;stroke-width:1.0;"/><path d="M229,709.5 Q229.2031,709 229.4375,708.75 Q229.6719,708.5 229.9375,708.5 Q230.4063,708.5 230.7031,708.7813 Q231,709.0625 231,709.7188 L231,711.2813 Q231,711.9375 230.7188,712.2188 Q230.4375,712.5 230,712.5 Q229.6094,712.5 229.3594,712.3281 Q229.1094,712.1563 229,711.7031 Q228.9531,711.3906 228.7813,711.2188 Q228.4688,710.8906 227.9063,710.7031 Q227.3438,710.5 226.7813,710.5 Q226.0781,710.5 225.4844,710.7813 Q224.9063,711.0625 224.4531,711.6875 Q224,712.3125 224,713.1719 L224,714.0938 Q224,715.125 224.8438,715.8125 Q225.6875,716.5 227.1875,716.5 Q228.0781,716.5 228.7031,716.2969 Q229.0625,716.1875 229.4688,715.8281 Q229.7344,715.625 229.875,715.5625 Q230.0156,715.5 230.1875,715.5 Q230.5156,715.5 230.75,715.7656 Q231,716.0156 231,716.375 Q231,716.7188 230.6563,717.125 Q230.1563,717.7188 229.3594,718.0469 Q228.3125,718.5 227.0313,718.5 Q225.5313,718.5 224.3281,717.9063 Q223.3594,717.4375 222.6719,716.4219 Q222,715.4063 222,714.2031 L222,713.1094 Q222,711.8594 222.5938,710.7656 Q223.2031,709.6719 224.25,709.0938 Q225.3125,708.5 226.5,708.5 Q227.2188,708.5 227.8438,708.75 Q228.4688,709 229,709.5 Z " fill="#000000"/><text fill="#000000" font-family="sans-serif" font-size="12" lengthAdjust="spacing" textLength="99" x="241" y="717.9102">CreateTestTypeUI</text><line style="stroke:#A80036;stroke-width:1.5;" x1="213" x2="342" y1="729" y2="729"/><line style="stroke:#A80036;stroke-width:1.5;" x1="213" x2="342" y1="737" y2="737"/><!--MD5=[320690cba070b8468face0bfd1ce9533]
link CTTUI to CTTC--><path codeLine="88" d="M343.04,699.74 C418.04,675.03 545.07,633.18 651.13,598.24 " fill="none" id="CTTUI-to-CTTC" style="stroke:#A80036;stroke-width:1.0;stroke-dasharray:7.0,7.0;"/><polygon fill="#A80036" points="656.17,596.58,646.3713,595.587,651.4195,598.1397,648.8668,603.1878,656.17,596.58" style="stroke:#A80036;stroke-width:1.0;"/><!--MD5=[99c32f4425d0774d9bc360edfb04ef87]
link C to CPCS--><path codeLine="89" d="M357.79,269.7 C445.8,294.89 589.46,336.01 696.01,366.5 " fill="none" id="C-to-CPCS" style="stroke:#A80036;stroke-width:1.0;stroke-dasharray:7.0,7.0;"/><polygon fill="#A80036" points="701.05,367.95,693.4952,361.6314,696.2424,366.5764,691.2974,369.3236,701.05,367.95" style="stroke:#A80036;stroke-width:1.0;"/><!--MD5=[299cf0460a0b3ffee05ec41c99ce24b7]
link C to TTS--><path codeLine="90" d="M277.5,292.47 C277.5,316.06 277.5,339.64 277.5,363.23 " fill="none" id="C-to-TTS" style="stroke:#A80036;stroke-width:1.0;stroke-dasharray:7.0,7.0;"/><polygon fill="#A80036" points="277.5,368.26,281.5,359.26,277.5,363.26,273.5,359.26,277.5,368.26" style="stroke:#A80036;stroke-width:1.0;"/><!--MD5=[cf05f59dfce81a96099c5f95714bd5af]
link CTTC to C--><path codeLine="91" d="M620.72,479.39 C611.02,473.8 601.71,467.69 593,461 C547.33,425.95 566.93,389.21 523,352 C476.56,312.66 413.16,286 362.56,269.39 " fill="none" id="CTTC-to-C" style="stroke:#A80036;stroke-width:1.0;stroke-dasharray:7.0,7.0;"/><polygon fill="#A80036" points="357.7,267.82,365.0212,274.4079,362.4547,269.3667,367.4959,266.8003,357.7,267.82" style="stroke:#A80036;stroke-width:1.0;"/><!--MD5=[e78a6acdd318a27b442e8ff64f8c9353]
link CTTC to ttM--><path codeLine="92" d="M1053.17,549.77 C1116.51,553.21 1183.24,556.82 1237.57,559.77 " fill="none" id="CTTC-to-ttM" style="stroke:#A80036;stroke-width:1.0;stroke-dasharray:7.0,7.0;"/><polygon fill="#A80036" points="1242.79,560.05,1234.0201,555.568,1237.7974,559.779,1233.5864,563.5563,1242.79,560.05" style="stroke:#A80036;stroke-width:1.0;"/><!--MD5=[8dd6d3028e965dc60ea1bc8f75a077b5]
link CTTC to ttDto--><path codeLine="93" d="M1024.66,479.4 C1042.42,473.38 1060.09,467.2 1077,461 C1119.47,445.44 1127,432.48 1171,422 C1323.45,385.7 1509.84,383.14 1600.4,384.46 " fill="none" id="CTTC-to-ttDto" style="stroke:#A80036;stroke-width:1.0;stroke-dasharray:7.0,7.0;"/><polygon fill="#A80036" points="1605.43,384.54,1596.4881,380.4118,1600.4305,384.4686,1596.3738,388.411,1605.43,384.54" style="stroke:#A80036;stroke-width:1.0;"/><!--MD5=[93286ab8d15dacf230424bab250ab910]
link TT to PC--><path codeLine="94" d="M1017.01,206.37 C1101.48,193.94 1198.1,179.72 1265.89,169.74 " fill="none" id="TT-PC" style="stroke:#A80036;stroke-width:1.0;"/><polygon fill="#000000" points="1094.9467,176.4477,1085.5701,174.8572,1086.426,180.6724,1094.9467,176.4477" style="stroke:#000000;stroke-width:1.0;"/><text fill="#000000" font-family="sans-serif" font-size="13" lengthAdjust="spacing" textLength="63" x="1099" y="182.4951">analyzes a</text><text fill="#000000" font-family="sans-serif" font-size="13" lengthAdjust="spacing" textLength="5" x="1024.794" y="219.0828">*</text><text fill="#000000" font-family="sans-serif" font-size="13" lengthAdjust="spacing" textLength="7" x="1251.0602" y="185.0537">1</text><!--MD5=[47773c9c22b384181ea9d3871f1f6c2c]
link TTS to TT--><path codeLine="95" d="M459.62,368.46 C526.27,344.35 601.41,317.16 666.78,293.51 " fill="none" id="TTS-to-TT" style="stroke:#A80036;stroke-width:1.0;stroke-dasharray:7.0,7.0;"/><polygon fill="#A80036" points="671.87,291.67,662.0461,290.9697,667.1681,293.3707,664.7672,298.4927,671.87,291.67" style="stroke:#A80036;stroke-width:1.0;"/><!--MD5=[87cf4899889a61f69e835453d85d5116]
link ttM to ttDto--><path codeLine="96" d="M1464.03,556.87 C1490.81,549.6 1517.15,537.36 1536,517 C1563.66,487.13 1527.16,458.46 1553,427 C1564.96,412.44 1582.86,403.01 1600.35,396.93 " fill="none" id="ttM-to-ttDto" style="stroke:#A80036;stroke-width:1.0;stroke-dasharray:7.0,7.0;"/><polygon fill="#A80036" points="1605.26,395.29,1595.4587,394.3236,1600.5137,396.8626,1597.9748,401.9176,1605.26,395.29" style="stroke:#A80036;stroke-width:1.0;"/><!--MD5=[8189db5086aad6005fc8a167d8882fed]
link pcM to pcDto--><path codeLine="97" d="M1512.23,469 C1532.7,469 1552.97,469 1571.54,469 " fill="none" id="pcM-to-pcDto" style="stroke:#A80036;stroke-width:1.0;stroke-dasharray:7.0,7.0;"/><polygon fill="#A80036" points="1576.74,469,1567.74,465,1571.74,469,1567.74,473,1576.74,469" style="stroke:#A80036;stroke-width:1.0;"/><!--MD5=[1d76f811c406f01b7366c4d7b698f081]
link CPCS to pcM--><path codeLine="98" d="M992.02,425.03 C1054.41,432.64 1126.3,441.41 1189.38,449.1 " fill="none" id="CPCS-to-pcM" style="stroke:#A80036;stroke-width:1.0;stroke-dasharray:7.0,7.0;"/><polygon fill="#A80036" points="1194.68,449.75,1186.2402,444.6736,1189.718,449.1351,1185.2564,452.6128,1194.68,449.75" style="stroke:#A80036;stroke-width:1.0;"/><!--MD5=[b83cceec495819d0b37daa935a10185d]
link C to TT--><path codeLine="100" d="M357.79,245 C434.39,243.07 553.12,240.08 652.87,237.56 " fill="none" id="C-TT" style="stroke:#A80036;stroke-width:1.0;"/><polygon fill="#000000" points="540.9984,231.0498,531.8821,228.3397,532.0303,234.2157,540.9984,231.0498" style="stroke:#000000;stroke-width:1.0;"/><text fill="#000000" font-family="sans-serif" font-size="13" lengthAdjust="spacing" textLength="39" x="545" y="236.4951">adopts</text><text fill="#000000" font-family="sans-serif" font-size="13" lengthAdjust="spacing" textLength="7" x="365.5144" y="259.0871">1</text><text fill="#000000" font-family="sans-serif" font-size="13" lengthAdjust="spacing" textLength="5" x="640.0809" y="251.5886">*</text><!--MD5=[71b3fc4d6ca120e51ce9c04aa77747d8]
link C to PC--><path codeLine="101" d="M357.64,217.7 C420.45,196.08 511.03,168.5 593,157 C834.9,123.07 1124.41,138.25 1265.96,149.23 " fill="none" id="C-PC" style="stroke:#A80036;stroke-width:1.0;"/><polygon fill="#000000" points="817.9859,127.7999,808.7454,125.5492,809.1873,131.4105,817.9859,127.7999" style="stroke:#000000;stroke-width:1.0;"/><text fill="#000000" font-family="sans-serif" font-size="13" lengthAdjust="spacing" textLength="39" x="822" y="133.4951">adopts</text><text fill="#000000" font-family="sans-serif" font-size="13" lengthAdjust="spacing" textLength="7" x="365.6119" y="229.2052">1</text><text fill="#000000" font-family="sans-serif" font-size="13" lengthAdjust="spacing" textLength="5" x="1252.9408" y="162.7832">*</text><!--MD5=[980af1faef8d05b3f3c52bc67e990c6a]
@startuml
skinparam classAttributeIconSize 0
left to right direction

package Core{

package Domain{
class "Company" as C {
-String designation
+getTestTypeStore()
+getParameterCategoryStore()
}

class "ParameterCategory" as PC{
-String name
-String code
+ParameterCategory(name, code)
}

class "TestType" as TT {
-String code
-String description
-String collectingMethod
-List <ParameterCategory> parameterCategoriesList
+TestType(code, description, collectingMethod, parameterCategoriesList)
}

}



package Stores{
class "TestTypeStore" as TTS{
-List<TestType> testTypeList
+TestType createTestType(code, description, collectingMethod, parameterCategoriesList)
+boolean saveTestType(tt)
+boolean validateTestType(tt)
+boolean addTestType(tt)
+List <TestType> getAllTestTypes()
}
}



package Controllers{
class "CreateTestTypeController" as CTTC {
+CreateTestTypeController()
+List<TestTypeDto> getAllTestTypesDto()
+boolean createTestType(code, description, collectingMethod, parameterCategoriesList)
+boolean saveTestType()
+List<TestType> getAllTestTypes()
}



class "CreateParameterCategoryController" as CPCS{
+List <ParameterCategoryDto> getAllParameterCategoriesDto()
+ParameterCategory getParameterCategoryByCode(code)
}

}

package Mappers{
class "TestTypeMapper" as ttM{
+List <TestTypeDto> toDto(List<TestType>)
}

class "ParameterCategoryMapper" as pcM{
+List <ParameterCategoryDto> toDto(List<ParameterCategory>)
}

}


package Dto{
class "TestTypeDto" as ttDto{
}

class "ParameterCategoryDto" as pcDto{
}

}

}
package UI{
class "CreateTestTypeUI" as CTTUI
}

CTTUI ..> CTTC
C ..> CPCS
C ..> TTS
CTTC ..> C
CTTC ..> ttM
CTTC ..> ttDto
TT "*" - - "1" PC : > analyzes a
TTS ..> TT
ttM ..> ttDto
pcM ..> pcDto
CPCS ..> pcM

C "1" - - "*" TT : > adopts
C "1" - - "*" PC : > adopts

@enduml

PlantUML version 1.2021.5(Sun Apr 25 12:20:28 BST 2021)
(GPL source distribution)
Java Runtime: OpenJDK Runtime Environment
JVM: OpenJDK 64-Bit Server VM
Default Encoding: Cp1252
Language: pt
Country: PT
--></g></svg>