<?xml version="1.0" encoding="UTF-8" standalone="no"?><svg xmlns="http://www.w3.org/2000/svg" xmlns:xlink="http://www.w3.org/1999/xlink" contentScriptType="application/ecmascript" contentStyleType="text/css" height="810px" preserveAspectRatio="none" style="width:1792px;height:810px;" version="1.1" viewBox="0 0 1792 810" width="1792px" zoomAndPan="magnify"><defs><filter height="300%" id="f1d56jttlpuudy" width="300%" x="-1" y="-1"><feGaussianBlur result="blurOut" stdDeviation="2.0"/><feColorMatrix in="blurOut" result="blurOut2" type="matrix" values="0 0 0 0 0 0 0 0 0 0 0 0 0 0 0 0 0 0 .4 0"/><feOffset dx="4.0" dy="4.0" in="blurOut2" result="blurOut3"/><feBlend in="SourceGraphic" in2="blurOut3" mode="normal"/></filter></defs><g><!--MD5=[2c2e2644034c00788261e03c85b06837]
cluster Core--><polygon fill="#FFFFFF" filter="url(#f1d56jttlpuudy)" points="16,6,56,6,63,29.6094,1775,29.6094,1775,679,16,679,16,6" style="stroke:#000000;stroke-width:1.5;"/><line style="stroke:#000000;stroke-width:1.5;" x1="16" x2="63" y1="29.6094" y2="29.6094"/><text fill="#000000" font-family="sans-serif" font-size="14" font-weight="bold" lengthAdjust="spacing" textLength="34" x="20" y="22.5332">Core</text><!--MD5=[121a8bf1197281ab89ed693fab589f94]
cluster Domain--><polygon fill="#FFFFFF" filter="url(#f1d56jttlpuudy)" points="181.5,50,239.5,50,246.5,73.6094,1457,73.6094,1457,336,181.5,336,181.5,50" style="stroke:#000000;stroke-width:1.5;"/><line style="stroke:#000000;stroke-width:1.5;" x1="181.5" x2="246.5" y1="73.6094" y2="73.6094"/><text fill="#000000" font-family="sans-serif" font-size="14" font-weight="bold" lengthAdjust="spacing" textLength="52" x="185.5" y="66.5332">Domain</text><!--MD5=[8dd535d56cd4cf7faf64fdd082ba836e]
cluster Stores--><polygon fill="#FFFFFF" filter="url(#f1d56jttlpuudy)" points="40,360,92,360,99,383.6094,515,383.6094,515,558,40,558,40,360" style="stroke:#000000;stroke-width:1.5;"/><line style="stroke:#000000;stroke-width:1.5;" x1="40" x2="99" y1="383.6094" y2="383.6094"/><text fill="#000000" font-family="sans-serif" font-size="14" font-weight="bold" lengthAdjust="spacing" textLength="46" x="44" y="376.5332">Stores</text><!--MD5=[ed1d20ea533a2a0e7df5ba3c35e56ced]
cluster Controllers--><polygon fill="#FFFFFF" filter="url(#f1d56jttlpuudy)" points="601,360,686,360,693,383.6094,1069,383.6094,1069,655,601,655,601,360" style="stroke:#000000;stroke-width:1.5;"/><line style="stroke:#000000;stroke-width:1.5;" x1="601" x2="693" y1="383.6094" y2="383.6094"/><text fill="#000000" font-family="sans-serif" font-size="14" font-weight="bold" lengthAdjust="spacing" textLength="79" x="605" y="376.5332">Controllers</text><!--MD5=[701152d03fbf85133a1de050cfdbc7fd]
cluster Mappers--><polygon fill="#FFFFFF" filter="url(#f1d56jttlpuudy)" points="1179,444,1247,444,1254,467.6094,1528,467.6094,1528,655,1179,655,1179,444" style="stroke:#000000;stroke-width:1.5;"/><line style="stroke:#000000;stroke-width:1.5;" x1="1179" x2="1254" y1="467.6094" y2="467.6094"/><text fill="#000000" font-family="sans-serif" font-size="14" font-weight="bold" lengthAdjust="spacing" textLength="62" x="1183" y="460.5332">Mappers</text><!--MD5=[a7e26d82dece3a99be33d8557e72e039]
cluster Dto--><polygon fill="#FFFFFF" filter="url(#f1d56jttlpuudy)" points="1561,368,1591,368,1598,391.6094,1751,391.6094,1751,551,1561,551,1561,368" style="stroke:#000000;stroke-width:1.5;"/><line style="stroke:#000000;stroke-width:1.5;" x1="1561" x2="1598" y1="391.6094" y2="391.6094"/><text fill="#000000" font-family="sans-serif" font-size="14" font-weight="bold" lengthAdjust="spacing" textLength="24" x="1565" y="384.5332">Dto</text><!--MD5=[9681dc6e01e10c6b4fe06895ae94f592]
cluster UI--><polygon fill="#FFFFFF" filter="url(#f1d56jttlpuudy)" points="196,703,216,703,223,726.6094,359,726.6094,359,803,196,803,196,703" style="stroke:#000000;stroke-width:1.5;"/><line style="stroke:#000000;stroke-width:1.5;" x1="196" x2="223" y1="726.6094" y2="726.6094"/><text fill="#000000" font-family="sans-serif" font-size="14" font-weight="bold" lengthAdjust="spacing" textLength="14" x="200" y="719.5332">UI</text><!--MD5=[378b18254a1b2429f435e93f5e5cc50c]
class C--><rect codeLine="7" fill="#FEFECE" filter="url(#f1d56jttlpuudy)" height="89.5078" id="C" style="stroke:#A80036;stroke-width:1.5;" width="160" x="197.5" y="230"/><ellipse cx="246.75" cy="246" fill="#ADD1B2" rx="11" ry="11" style="stroke:#A80036;stroke-width:1.0;"/><path d="M248.75,242.5 Q248.9531,242 249.1875,241.75 Q249.4219,241.5 249.6875,241.5 Q250.1563,241.5 250.4531,241.7813 Q250.75,242.0625 250.75,242.7188 L250.75,244.2813 Q250.75,244.9375 250.4688,245.2188 Q250.1875,245.5 249.75,245.5 Q249.3594,245.5 249.1094,245.3281 Q248.8594,245.1563 248.75,244.7031 Q248.7031,244.3906 248.5313,244.2188 Q248.2188,243.8906 247.6563,243.7031 Q247.0938,243.5 246.5313,243.5 Q245.8281,243.5 245.2344,243.7813 Q244.6563,244.0625 244.2031,244.6875 Q243.75,245.3125 243.75,246.1719 L243.75,247.0938 Q243.75,248.125 244.5938,248.8125 Q245.4375,249.5 246.9375,249.5 Q247.8281,249.5 248.4531,249.2969 Q248.8125,249.1875 249.2188,248.8281 Q249.4844,248.625 249.625,248.5625 Q249.7656,248.5 249.9375,248.5 Q250.2656,248.5 250.5,248.7656 Q250.75,249.0156 250.75,249.375 Q250.75,249.7188 250.4063,250.125 Q249.9063,250.7188 249.1094,251.0469 Q248.0625,251.5 246.7813,251.5 Q245.2813,251.5 244.0781,250.9063 Q243.1094,250.4375 242.4219,249.4219 Q241.75,248.4063 241.75,247.2031 L241.75,246.1094 Q241.75,244.8594 242.3438,243.7656 Q242.9531,242.6719 244,242.0938 Q245.0625,241.5 246.25,241.5 Q246.9688,241.5 247.5938,241.75 Q248.2188,242 248.75,242.5 Z " fill="#000000"/><text fill="#000000" font-family="sans-serif" font-size="12" lengthAdjust="spacing" textLength="53" x="267.25" y="250.9102">Company</text><line style="stroke:#A80036;stroke-width:1.5;" x1="198.5" x2="356.5" y1="262" y2="262"/><text fill="#000000" font-family="sans-serif" font-size="11" lengthAdjust="spacing" textLength="90" x="203.5" y="277.4189">-String designation</text><line style="stroke:#A80036;stroke-width:1.5;" x1="198.5" x2="356.5" y1="283.8359" y2="283.8359"/><text fill="#000000" font-family="sans-serif" font-size="11" lengthAdjust="spacing" textLength="100" x="203.5" y="299.2549">+getTestTypeStore()</text><text fill="#000000" font-family="sans-serif" font-size="11" lengthAdjust="spacing" textLength="148" x="203.5" y="313.0908">+getParameterCategoryStore()</text><!--MD5=[218f71f443b9e0720bb96dd9df1d4749]
class PC--><rect codeLine="13" fill="#FEFECE" filter="url(#f1d56jttlpuudy)" height="89.5078" id="PC" style="stroke:#A80036;stroke-width:1.5;" width="175" x="1266" y="115"/><ellipse cx="1297.2" cy="131" fill="#ADD1B2" rx="11" ry="11" style="stroke:#A80036;stroke-width:1.0;"/><path d="M1299.2,127.5 Q1299.4031,127 1299.6375,126.75 Q1299.8719,126.5 1300.1375,126.5 Q1300.6063,126.5 1300.9031,126.7813 Q1301.2,127.0625 1301.2,127.7188 L1301.2,129.2813 Q1301.2,129.9375 1300.9188,130.2188 Q1300.6375,130.5 1300.2,130.5 Q1299.8094,130.5 1299.5594,130.3281 Q1299.3094,130.1563 1299.2,129.7031 Q1299.1531,129.3906 1298.9813,129.2188 Q1298.6688,128.8906 1298.1063,128.7031 Q1297.5438,128.5 1296.9813,128.5 Q1296.2781,128.5 1295.6844,128.7813 Q1295.1063,129.0625 1294.6531,129.6875 Q1294.2,130.3125 1294.2,131.1719 L1294.2,132.0938 Q1294.2,133.125 1295.0438,133.8125 Q1295.8875,134.5 1297.3875,134.5 Q1298.2781,134.5 1298.9031,134.2969 Q1299.2625,134.1875 1299.6688,133.8281 Q1299.9344,133.625 1300.075,133.5625 Q1300.2156,133.5 1300.3875,133.5 Q1300.7156,133.5 1300.95,133.7656 Q1301.2,134.0156 1301.2,134.375 Q1301.2,134.7188 1300.8563,135.125 Q1300.3563,135.7188 1299.5594,136.0469 Q1298.5125,136.5 1297.2313,136.5 Q1295.7313,136.5 1294.5281,135.9063 Q1293.5594,135.4375 1292.8719,134.4219 Q1292.2,133.4063 1292.2,132.2031 L1292.2,131.1094 Q1292.2,129.8594 1292.7938,128.7656 Q1293.4031,127.6719 1294.45,127.0938 Q1295.5125,126.5 1296.7,126.5 Q1297.4188,126.5 1298.0438,126.75 Q1298.6688,127 1299.2,127.5 Z " fill="#000000"/><text fill="#000000" font-family="sans-serif" font-size="12" lengthAdjust="spacing" textLength="107" x="1314.8" y="135.9102">ParameterCategory</text><line style="stroke:#A80036;stroke-width:1.5;" x1="1267" x2="1440" y1="147" y2="147"/><text fill="#000000" font-family="sans-serif" font-size="11" lengthAdjust="spacing" textLength="61" x="1272" y="162.4189">-String name</text><text fill="#000000" font-family="sans-serif" font-size="11" lengthAdjust="spacing" textLength="59" x="1272" y="176.2549">-String code</text><line style="stroke:#A80036;stroke-width:1.5;" x1="1267" x2="1440" y1="182.6719" y2="182.6719"/><text fill="#000000" font-family="sans-serif" font-size="11" lengthAdjust="spacing" textLength="163" x="1272" y="198.0908">+ParameterCategory(name, code)</text><!--MD5=[f76673142371ead9f091198193c4bd63]
class TT--><rect codeLine="19" fill="#FEFECE" filter="url(#f1d56jttlpuudy)" height="144.8516" id="TT" style="stroke:#A80036;stroke-width:1.5;" width="364" x="653" y="174.5"/><ellipse cx="805.75" cy="190.5" fill="#ADD1B2" rx="11" ry="11" style="stroke:#A80036;stroke-width:1.0;"/><path d="M807.75,187 Q807.9531,186.5 808.1875,186.25 Q808.4219,186 808.6875,186 Q809.1563,186 809.4531,186.2813 Q809.75,186.5625 809.75,187.2188 L809.75,188.7813 Q809.75,189.4375 809.4688,189.7188 Q809.1875,190 808.75,190 Q808.3594,190 808.1094,189.8281 Q807.8594,189.6563 807.75,189.2031 Q807.7031,188.8906 807.5313,188.7188 Q807.2188,188.3906 806.6563,188.2031 Q806.0938,188 805.5313,188 Q804.8281,188 804.2344,188.2813 Q803.6563,188.5625 803.2031,189.1875 Q802.75,189.8125 802.75,190.6719 L802.75,191.5938 Q802.75,192.625 803.5938,193.3125 Q804.4375,194 805.9375,194 Q806.8281,194 807.4531,193.7969 Q807.8125,193.6875 808.2188,193.3281 Q808.4844,193.125 808.625,193.0625 Q808.7656,193 808.9375,193 Q809.2656,193 809.5,193.2656 Q809.75,193.5156 809.75,193.875 Q809.75,194.2188 809.4063,194.625 Q808.9063,195.2188 808.1094,195.5469 Q807.0625,196 805.7813,196 Q804.2813,196 803.0781,195.4063 Q802.1094,194.9375 801.4219,193.9219 Q800.75,192.9063 800.75,191.7031 L800.75,190.6094 Q800.75,189.3594 801.3438,188.2656 Q801.9531,187.1719 803,186.5938 Q804.0625,186 805.25,186 Q805.9688,186 806.5938,186.25 Q807.2188,186.5 807.75,187 Z " fill="#000000"/><text fill="#000000" font-family="sans-serif" font-size="12" lengthAdjust="spacing" textLength="50" x="826.25" y="195.4102">TestType</text><line style="stroke:#A80036;stroke-width:1.5;" x1="654" x2="1016" y1="206.5" y2="206.5"/><text fill="#000000" font-family="sans-serif" font-size="11" lengthAdjust="spacing" textLength="59" x="659" y="221.9189">-String code</text><text fill="#000000" font-family="sans-serif" font-size="11" lengthAdjust="spacing" textLength="88" x="659" y="235.7549">-String description</text><text fill="#000000" font-family="sans-serif" font-size="11" lengthAdjust="spacing" textLength="115" x="659" y="249.5908">-String collectingMethod</text><text fill="#000000" font-family="sans-serif" font-size="11" lengthAdjust="spacing" textLength="193" x="659" y="263.4268">-ParameterCategory parameterCategory</text><text fill="#000000" font-family="sans-serif" font-size="11" lengthAdjust="spacing" textLength="250" x="659" y="277.2627">-List &lt;ParameterCategory&gt; parameterCategoriesList</text><line style="stroke:#A80036;stroke-width:1.5;" x1="654" x2="1016" y1="283.6797" y2="283.6797"/><text fill="#000000" font-family="sans-serif" font-size="11" lengthAdjust="spacing" textLength="327" x="659" y="299.0986">+TestType(code, description, collectingMethod, parameterCategory)</text><text fill="#000000" font-family="sans-serif" font-size="11" lengthAdjust="spacing" textLength="352" x="659" y="312.9346">+TestType(code, description, collectingMethod, parameterCategoriesList)</text><!--MD5=[0c21d7a5a5555e4278001068caacbd33]
class TTS--><rect codeLine="34" fill="#FEFECE" filter="url(#f1d56jttlpuudy)" height="144.8516" id="TTS" style="stroke:#A80036;stroke-width:1.5;" width="443" x="56" y="396.5"/><ellipse cx="233.75" cy="412.5" fill="#ADD1B2" rx="11" ry="11" style="stroke:#A80036;stroke-width:1.0;"/><path d="M235.75,409 Q235.9531,408.5 236.1875,408.25 Q236.4219,408 236.6875,408 Q237.1563,408 237.4531,408.2813 Q237.75,408.5625 237.75,409.2188 L237.75,410.7813 Q237.75,411.4375 237.4688,411.7188 Q237.1875,412 236.75,412 Q236.3594,412 236.1094,411.8281 Q235.8594,411.6563 235.75,411.2031 Q235.7031,410.8906 235.5313,410.7188 Q235.2188,410.3906 234.6563,410.2031 Q234.0938,410 233.5313,410 Q232.8281,410 232.2344,410.2813 Q231.6563,410.5625 231.2031,411.1875 Q230.75,411.8125 230.75,412.6719 L230.75,413.5938 Q230.75,414.625 231.5938,415.3125 Q232.4375,416 233.9375,416 Q234.8281,416 235.4531,415.7969 Q235.8125,415.6875 236.2188,415.3281 Q236.4844,415.125 236.625,415.0625 Q236.7656,415 236.9375,415 Q237.2656,415 237.5,415.2656 Q237.75,415.5156 237.75,415.875 Q237.75,416.2188 237.4063,416.625 Q236.9063,417.2188 236.1094,417.5469 Q235.0625,418 233.7813,418 Q232.2813,418 231.0781,417.4063 Q230.1094,416.9375 229.4219,415.9219 Q228.75,414.9063 228.75,413.7031 L228.75,412.6094 Q228.75,411.3594 229.3438,410.2656 Q229.9531,409.1719 231,408.5938 Q232.0625,408 233.25,408 Q233.9688,408 234.5938,408.25 Q235.2188,408.5 235.75,409 Z " fill="#000000"/><text fill="#000000" font-family="sans-serif" font-size="12" lengthAdjust="spacing" textLength="79" x="254.25" y="417.4102">TestTypeStore</text><line style="stroke:#A80036;stroke-width:1.5;" x1="57" x2="498" y1="428.5" y2="428.5"/><text fill="#000000" font-family="sans-serif" font-size="11" lengthAdjust="spacing" textLength="146" x="62" y="443.9189">-List&lt;TestType&gt; testTypesList</text><line style="stroke:#A80036;stroke-width:1.5;" x1="57" x2="498" y1="450.3359" y2="450.3359"/><text fill="#000000" font-family="sans-serif" font-size="11" lengthAdjust="spacing" textLength="406" x="62" y="465.7549">+TestType createTestType(code, description, collectingMethod, parameterCategory)</text><text fill="#000000" font-family="sans-serif" font-size="11" lengthAdjust="spacing" textLength="431" x="62" y="479.5908">+TestType createTestType(code, description, collectingMethod, parameterCategoriesList)</text><text fill="#000000" font-family="sans-serif" font-size="11" lengthAdjust="spacing" textLength="130" x="62" y="493.4268">+boolean saveTestType(tt)</text><text fill="#000000" font-family="sans-serif" font-size="11" lengthAdjust="spacing" textLength="143" x="62" y="507.2627">+boolean validateTestType(tt)</text><text fill="#000000" font-family="sans-serif" font-size="11" lengthAdjust="spacing" textLength="124" x="62" y="521.0986">+boolean addTestType(tt)</text><text fill="#000000" font-family="sans-serif" font-size="11" lengthAdjust="spacing" textLength="172" x="62" y="534.9346">+List &lt;TestType&gt; getAllTestTypes()</text><!--MD5=[0db42b3591f13a48474e506cf6fbc101]
class CTTC--><rect codeLine="48" fill="#FEFECE" filter="url(#f1d56jttlpuudy)" height="131.0156" id="CTTC" style="stroke:#A80036;stroke-width:1.5;" width="436" x="617" y="507.5"/><ellipse cx="760.25" cy="523.5" fill="#ADD1B2" rx="11" ry="11" style="stroke:#A80036;stroke-width:1.0;"/><path d="M762.25,520 Q762.4531,519.5 762.6875,519.25 Q762.9219,519 763.1875,519 Q763.6563,519 763.9531,519.2813 Q764.25,519.5625 764.25,520.2188 L764.25,521.7813 Q764.25,522.4375 763.9688,522.7188 Q763.6875,523 763.25,523 Q762.8594,523 762.6094,522.8281 Q762.3594,522.6563 762.25,522.2031 Q762.2031,521.8906 762.0313,521.7188 Q761.7188,521.3906 761.1563,521.2031 Q760.5938,521 760.0313,521 Q759.3281,521 758.7344,521.2813 Q758.1563,521.5625 757.7031,522.1875 Q757.25,522.8125 757.25,523.6719 L757.25,524.5938 Q757.25,525.625 758.0938,526.3125 Q758.9375,527 760.4375,527 Q761.3281,527 761.9531,526.7969 Q762.3125,526.6875 762.7188,526.3281 Q762.9844,526.125 763.125,526.0625 Q763.2656,526 763.4375,526 Q763.7656,526 764,526.2656 Q764.25,526.5156 764.25,526.875 Q764.25,527.2188 763.9063,527.625 Q763.4063,528.2188 762.6094,528.5469 Q761.5625,529 760.2813,529 Q758.7813,529 757.5781,528.4063 Q756.6094,527.9375 755.9219,526.9219 Q755.25,525.9063 755.25,524.7031 L755.25,523.6094 Q755.25,522.3594 755.8438,521.2656 Q756.4531,520.1719 757.5,519.5938 Q758.5625,519 759.75,519 Q760.4688,519 761.0938,519.25 Q761.7188,519.5 762.25,520 Z " fill="#000000"/><text fill="#000000" font-family="sans-serif" font-size="12" lengthAdjust="spacing" textLength="141" x="780.75" y="528.4102">CreateTestTypeController</text><line style="stroke:#A80036;stroke-width:1.5;" x1="618" x2="1052" y1="539.5" y2="539.5"/><line style="stroke:#A80036;stroke-width:1.5;" x1="618" x2="1052" y1="547.5" y2="547.5"/><text fill="#000000" font-family="sans-serif" font-size="11" lengthAdjust="spacing" textLength="137" x="623" y="562.9189">+CreateTestTypeController()</text><text fill="#000000" font-family="sans-serif" font-size="11" lengthAdjust="spacing" textLength="201" x="623" y="576.7549">+List&lt;TestTypeDto&gt; getAllTestTypesDto()</text><text fill="#000000" font-family="sans-serif" font-size="11" lengthAdjust="spacing" textLength="399" x="623" y="590.5908">+boolean createTestType(code, description, collectingMethod, parameterCategory)</text><text fill="#000000" font-family="sans-serif" font-size="11" lengthAdjust="spacing" textLength="424" x="623" y="604.4268">+boolean createTestType(code, description, collectingMethod, parameterCategoriesList)</text><text fill="#000000" font-family="sans-serif" font-size="11" lengthAdjust="spacing" textLength="124" x="623" y="618.2627">+boolean saveTestType()</text><text fill="#000000" font-family="sans-serif" font-size="11" lengthAdjust="spacing" textLength="169" x="623" y="632.0986">+List&lt;TestType&gt; getAllTestTypes()</text><!--MD5=[0395d61ec6d33a7f38ab71a957cc7d70]
class CPCS--><rect codeLine="59" fill="#FEFECE" filter="url(#f1d56jttlpuudy)" height="75.6719" id="CPCS" style="stroke:#A80036;stroke-width:1.5;" width="314" x="678" y="396"/><ellipse cx="731.75" cy="412" fill="#ADD1B2" rx="11" ry="11" style="stroke:#A80036;stroke-width:1.0;"/><path d="M733.75,408.5 Q733.9531,408 734.1875,407.75 Q734.4219,407.5 734.6875,407.5 Q735.1563,407.5 735.4531,407.7813 Q735.75,408.0625 735.75,408.7188 L735.75,410.2813 Q735.75,410.9375 735.4688,411.2188 Q735.1875,411.5 734.75,411.5 Q734.3594,411.5 734.1094,411.3281 Q733.8594,411.1563 733.75,410.7031 Q733.7031,410.3906 733.5313,410.2188 Q733.2188,409.8906 732.6563,409.7031 Q732.0938,409.5 731.5313,409.5 Q730.8281,409.5 730.2344,409.7813 Q729.6563,410.0625 729.2031,410.6875 Q728.75,411.3125 728.75,412.1719 L728.75,413.0938 Q728.75,414.125 729.5938,414.8125 Q730.4375,415.5 731.9375,415.5 Q732.8281,415.5 733.4531,415.2969 Q733.8125,415.1875 734.2188,414.8281 Q734.4844,414.625 734.625,414.5625 Q734.7656,414.5 734.9375,414.5 Q735.2656,414.5 735.5,414.7656 Q735.75,415.0156 735.75,415.375 Q735.75,415.7188 735.4063,416.125 Q734.9063,416.7188 734.1094,417.0469 Q733.0625,417.5 731.7813,417.5 Q730.2813,417.5 729.0781,416.9063 Q728.1094,416.4375 727.4219,415.4219 Q726.75,414.4063 726.75,413.2031 L726.75,412.1094 Q726.75,410.8594 727.3438,409.7656 Q727.9531,408.6719 729,408.0938 Q730.0625,407.5 731.25,407.5 Q731.9688,407.5 732.5938,407.75 Q733.2188,408 733.75,408.5 Z " fill="#000000"/><text fill="#000000" font-family="sans-serif" font-size="12" lengthAdjust="spacing" textLength="198" x="752.25" y="416.9102">CreateParameterCategoryController</text><line style="stroke:#A80036;stroke-width:1.5;" x1="679" x2="991" y1="428" y2="428"/><line style="stroke:#A80036;stroke-width:1.5;" x1="679" x2="991" y1="436" y2="436"/><text fill="#000000" font-family="sans-serif" font-size="11" lengthAdjust="spacing" textLength="302" x="684" y="451.4189">+List &lt;ParameterCategoryDto&gt; getAllParameterCategoriesDto()</text><text fill="#000000" font-family="sans-serif" font-size="11" lengthAdjust="spacing" textLength="280" x="684" y="465.2549">+ParameterCategory getParameterCategoryByCode(code)</text><!--MD5=[1905ea1c532ab03438cb5177c6784fd5]
class ttM--><rect codeLine="67" fill="#FEFECE" filter="url(#f1d56jttlpuudy)" height="61.8359" id="ttM" style="stroke:#A80036;stroke-width:1.5;" width="221" x="1243" y="577"/><ellipse cx="1303.75" cy="593" fill="#ADD1B2" rx="11" ry="11" style="stroke:#A80036;stroke-width:1.0;"/><path d="M1305.75,589.5 Q1305.9531,589 1306.1875,588.75 Q1306.4219,588.5 1306.6875,588.5 Q1307.1563,588.5 1307.4531,588.7813 Q1307.75,589.0625 1307.75,589.7188 L1307.75,591.2813 Q1307.75,591.9375 1307.4688,592.2188 Q1307.1875,592.5 1306.75,592.5 Q1306.3594,592.5 1306.1094,592.3281 Q1305.8594,592.1563 1305.75,591.7031 Q1305.7031,591.3906 1305.5313,591.2188 Q1305.2188,590.8906 1304.6563,590.7031 Q1304.0938,590.5 1303.5313,590.5 Q1302.8281,590.5 1302.2344,590.7813 Q1301.6563,591.0625 1301.2031,591.6875 Q1300.75,592.3125 1300.75,593.1719 L1300.75,594.0938 Q1300.75,595.125 1301.5938,595.8125 Q1302.4375,596.5 1303.9375,596.5 Q1304.8281,596.5 1305.4531,596.2969 Q1305.8125,596.1875 1306.2188,595.8281 Q1306.4844,595.625 1306.625,595.5625 Q1306.7656,595.5 1306.9375,595.5 Q1307.2656,595.5 1307.5,595.7656 Q1307.75,596.0156 1307.75,596.375 Q1307.75,596.7188 1307.4063,597.125 Q1306.9063,597.7188 1306.1094,598.0469 Q1305.0625,598.5 1303.7813,598.5 Q1302.2813,598.5 1301.0781,597.9063 Q1300.1094,597.4375 1299.4219,596.4219 Q1298.75,595.4063 1298.75,594.2031 L1298.75,593.1094 Q1298.75,591.8594 1299.3438,590.7656 Q1299.9531,589.6719 1301,589.0938 Q1302.0625,588.5 1303.25,588.5 Q1303.9688,588.5 1304.5938,588.75 Q1305.2188,589 1305.75,589.5 Z " fill="#000000"/><text fill="#000000" font-family="sans-serif" font-size="12" lengthAdjust="spacing" textLength="91" x="1324.25" y="597.9102">TestTypeMapper</text><line style="stroke:#A80036;stroke-width:1.5;" x1="1244" x2="1463" y1="609" y2="609"/><line style="stroke:#A80036;stroke-width:1.5;" x1="1244" x2="1463" y1="617" y2="617"/><text fill="#000000" font-family="sans-serif" font-size="11" lengthAdjust="spacing" textLength="209" x="1249" y="632.4189">+List &lt;TestTypeDto&gt; toDto(List&lt;TestType&gt;)</text><!--MD5=[c87944dbd4a20957a43785b60d8aa940]
class pcM--><rect codeLine="71" fill="#FEFECE" filter="url(#f1d56jttlpuudy)" height="61.8359" id="pcM" style="stroke:#A80036;stroke-width:1.5;" width="317" x="1195" y="480"/><ellipse cx="1275.25" cy="496" fill="#ADD1B2" rx="11" ry="11" style="stroke:#A80036;stroke-width:1.0;"/><path d="M1277.25,492.5 Q1277.4531,492 1277.6875,491.75 Q1277.9219,491.5 1278.1875,491.5 Q1278.6563,491.5 1278.9531,491.7813 Q1279.25,492.0625 1279.25,492.7188 L1279.25,494.2813 Q1279.25,494.9375 1278.9688,495.2188 Q1278.6875,495.5 1278.25,495.5 Q1277.8594,495.5 1277.6094,495.3281 Q1277.3594,495.1563 1277.25,494.7031 Q1277.2031,494.3906 1277.0313,494.2188 Q1276.7188,493.8906 1276.1563,493.7031 Q1275.5938,493.5 1275.0313,493.5 Q1274.3281,493.5 1273.7344,493.7813 Q1273.1563,494.0625 1272.7031,494.6875 Q1272.25,495.3125 1272.25,496.1719 L1272.25,497.0938 Q1272.25,498.125 1273.0938,498.8125 Q1273.9375,499.5 1275.4375,499.5 Q1276.3281,499.5 1276.9531,499.2969 Q1277.3125,499.1875 1277.7188,498.8281 Q1277.9844,498.625 1278.125,498.5625 Q1278.2656,498.5 1278.4375,498.5 Q1278.7656,498.5 1279,498.7656 Q1279.25,499.0156 1279.25,499.375 Q1279.25,499.7188 1278.9063,500.125 Q1278.4063,500.7188 1277.6094,501.0469 Q1276.5625,501.5 1275.2813,501.5 Q1273.7813,501.5 1272.5781,500.9063 Q1271.6094,500.4375 1270.9219,499.4219 Q1270.25,498.4063 1270.25,497.2031 L1270.25,496.1094 Q1270.25,494.8594 1270.8438,493.7656 Q1271.4531,492.6719 1272.5,492.0938 Q1273.5625,491.5 1274.75,491.5 Q1275.4688,491.5 1276.0938,491.75 Q1276.7188,492 1277.25,492.5 Z " fill="#000000"/><text fill="#000000" font-family="sans-serif" font-size="12" lengthAdjust="spacing" textLength="148" x="1295.75" y="500.9102">ParameterCategoryMapper</text><line style="stroke:#A80036;stroke-width:1.5;" x1="1196" x2="1511" y1="512" y2="512"/><line style="stroke:#A80036;stroke-width:1.5;" x1="1196" x2="1511" y1="520" y2="520"/><text fill="#000000" font-family="sans-serif" font-size="11" lengthAdjust="spacing" textLength="305" x="1201" y="535.4189">+List &lt;ParameterCategoryDto&gt; toDto(List&lt;ParameterCategory&gt;)</text><!--MD5=[ec0a4f007167539f7ef0283e3ce97f9f]
class ttDto--><rect codeLine="79" fill="#FEFECE" filter="url(#f1d56jttlpuudy)" height="48" id="ttDto" style="stroke:#A80036;stroke-width:1.5;" width="101" x="1605.5" y="404"/><ellipse cx="1620.5" cy="420" fill="#ADD1B2" rx="11" ry="11" style="stroke:#A80036;stroke-width:1.0;"/><path d="M1622.5,416.5 Q1622.7031,416 1622.9375,415.75 Q1623.1719,415.5 1623.4375,415.5 Q1623.9063,415.5 1624.2031,415.7813 Q1624.5,416.0625 1624.5,416.7188 L1624.5,418.2813 Q1624.5,418.9375 1624.2188,419.2188 Q1623.9375,419.5 1623.5,419.5 Q1623.1094,419.5 1622.8594,419.3281 Q1622.6094,419.1563 1622.5,418.7031 Q1622.4531,418.3906 1622.2813,418.2188 Q1621.9688,417.8906 1621.4063,417.7031 Q1620.8438,417.5 1620.2813,417.5 Q1619.5781,417.5 1618.9844,417.7813 Q1618.4063,418.0625 1617.9531,418.6875 Q1617.5,419.3125 1617.5,420.1719 L1617.5,421.0938 Q1617.5,422.125 1618.3438,422.8125 Q1619.1875,423.5 1620.6875,423.5 Q1621.5781,423.5 1622.2031,423.2969 Q1622.5625,423.1875 1622.9688,422.8281 Q1623.2344,422.625 1623.375,422.5625 Q1623.5156,422.5 1623.6875,422.5 Q1624.0156,422.5 1624.25,422.7656 Q1624.5,423.0156 1624.5,423.375 Q1624.5,423.7188 1624.1563,424.125 Q1623.6563,424.7188 1622.8594,425.0469 Q1621.8125,425.5 1620.5313,425.5 Q1619.0313,425.5 1617.8281,424.9063 Q1616.8594,424.4375 1616.1719,423.4219 Q1615.5,422.4063 1615.5,421.2031 L1615.5,420.1094 Q1615.5,418.8594 1616.0938,417.7656 Q1616.7031,416.6719 1617.75,416.0938 Q1618.8125,415.5 1620,415.5 Q1620.7188,415.5 1621.3438,415.75 Q1621.9688,416 1622.5,416.5 Z " fill="#000000"/><text fill="#000000" font-family="sans-serif" font-size="12" lengthAdjust="spacing" textLength="69" x="1634.5" y="424.9102">TestTypeDto</text><line style="stroke:#A80036;stroke-width:1.5;" x1="1606.5" x2="1705.5" y1="436" y2="436"/><line style="stroke:#A80036;stroke-width:1.5;" x1="1606.5" x2="1705.5" y1="444" y2="444"/><!--MD5=[808bc6f30abcce3f75fbe2ba7c53e00a]
class pcDto--><rect codeLine="82" fill="#FEFECE" filter="url(#f1d56jttlpuudy)" height="48" id="pcDto" style="stroke:#A80036;stroke-width:1.5;" width="158" x="1577" y="487"/><ellipse cx="1592" cy="503" fill="#ADD1B2" rx="11" ry="11" style="stroke:#A80036;stroke-width:1.0;"/><path d="M1594,499.5 Q1594.2031,499 1594.4375,498.75 Q1594.6719,498.5 1594.9375,498.5 Q1595.4063,498.5 1595.7031,498.7813 Q1596,499.0625 1596,499.7188 L1596,501.2813 Q1596,501.9375 1595.7188,502.2188 Q1595.4375,502.5 1595,502.5 Q1594.6094,502.5 1594.3594,502.3281 Q1594.1094,502.1563 1594,501.7031 Q1593.9531,501.3906 1593.7813,501.2188 Q1593.4688,500.8906 1592.9063,500.7031 Q1592.3438,500.5 1591.7813,500.5 Q1591.0781,500.5 1590.4844,500.7813 Q1589.9063,501.0625 1589.4531,501.6875 Q1589,502.3125 1589,503.1719 L1589,504.0938 Q1589,505.125 1589.8438,505.8125 Q1590.6875,506.5 1592.1875,506.5 Q1593.0781,506.5 1593.7031,506.2969 Q1594.0625,506.1875 1594.4688,505.8281 Q1594.7344,505.625 1594.875,505.5625 Q1595.0156,505.5 1595.1875,505.5 Q1595.5156,505.5 1595.75,505.7656 Q1596,506.0156 1596,506.375 Q1596,506.7188 1595.6563,507.125 Q1595.1563,507.7188 1594.3594,508.0469 Q1593.3125,508.5 1592.0313,508.5 Q1590.5313,508.5 1589.3281,507.9063 Q1588.3594,507.4375 1587.6719,506.4219 Q1587,505.4063 1587,504.2031 L1587,503.1094 Q1587,501.8594 1587.5938,500.7656 Q1588.2031,499.6719 1589.25,499.0938 Q1590.3125,498.5 1591.5,498.5 Q1592.2188,498.5 1592.8438,498.75 Q1593.4688,499 1594,499.5 Z " fill="#000000"/><text fill="#000000" font-family="sans-serif" font-size="12" lengthAdjust="spacing" textLength="126" x="1606" y="507.9102">ParameterCategoryDto</text><line style="stroke:#A80036;stroke-width:1.5;" x1="1578" x2="1734" y1="519" y2="519"/><line style="stroke:#A80036;stroke-width:1.5;" x1="1578" x2="1734" y1="527" y2="527"/><!--MD5=[6461a74477876ab4a04549c978c1a07a]
class CTTUI--><rect codeLine="89" fill="#FEFECE" filter="url(#f1d56jttlpuudy)" height="48" id="CTTUI" style="stroke:#A80036;stroke-width:1.5;" width="131" x="212" y="739"/><ellipse cx="227" cy="755" fill="#ADD1B2" rx="11" ry="11" style="stroke:#A80036;stroke-width:1.0;"/><path d="M229,751.5 Q229.2031,751 229.4375,750.75 Q229.6719,750.5 229.9375,750.5 Q230.4063,750.5 230.7031,750.7813 Q231,751.0625 231,751.7188 L231,753.2813 Q231,753.9375 230.7188,754.2188 Q230.4375,754.5 230,754.5 Q229.6094,754.5 229.3594,754.3281 Q229.1094,754.1563 229,753.7031 Q228.9531,753.3906 228.7813,753.2188 Q228.4688,752.8906 227.9063,752.7031 Q227.3438,752.5 226.7813,752.5 Q226.0781,752.5 225.4844,752.7813 Q224.9063,753.0625 224.4531,753.6875 Q224,754.3125 224,755.1719 L224,756.0938 Q224,757.125 224.8438,757.8125 Q225.6875,758.5 227.1875,758.5 Q228.0781,758.5 228.7031,758.2969 Q229.0625,758.1875 229.4688,757.8281 Q229.7344,757.625 229.875,757.5625 Q230.0156,757.5 230.1875,757.5 Q230.5156,757.5 230.75,757.7656 Q231,758.0156 231,758.375 Q231,758.7188 230.6563,759.125 Q230.1563,759.7188 229.3594,760.0469 Q228.3125,760.5 227.0313,760.5 Q225.5313,760.5 224.3281,759.9063 Q223.3594,759.4375 222.6719,758.4219 Q222,757.4063 222,756.2031 L222,755.1094 Q222,753.8594 222.5938,752.7656 Q223.2031,751.6719 224.25,751.0938 Q225.3125,750.5 226.5,750.5 Q227.2188,750.5 227.8438,750.75 Q228.4688,751 229,751.5 Z " fill="#000000"/><text fill="#000000" font-family="sans-serif" font-size="12" lengthAdjust="spacing" textLength="99" x="241" y="759.9102">CreateTestTypeUI</text><line style="stroke:#A80036;stroke-width:1.5;" x1="213" x2="342" y1="771" y2="771"/><line style="stroke:#A80036;stroke-width:1.5;" x1="213" x2="342" y1="779" y2="779"/><!--MD5=[320690cba070b8468face0bfd1ce9533]
link CTTUI to CTTC--><path codeLine="92" d="M343.04,740.93 C414.87,716.36 534.44,675.46 637.59,640.18 " fill="none" id="CTTUI-to-CTTC" style="stroke:#A80036;stroke-width:1.0;stroke-dasharray:7.0,7.0;"/><polygon fill="#A80036" points="642.49,638.5,632.6811,637.6132,637.7567,640.111,635.2588,645.1866,642.49,638.5" style="stroke:#A80036;stroke-width:1.0;"/><!--MD5=[99c32f4425d0774d9bc360edfb04ef87]
link C to CPCS--><path codeLine="93" d="M357.79,297.7 C445.8,322.89 589.46,364.01 696.01,394.5 " fill="none" id="C-to-CPCS" style="stroke:#A80036;stroke-width:1.0;stroke-dasharray:7.0,7.0;"/><polygon fill="#A80036" points="701.05,395.95,693.4952,389.6314,696.2424,394.5764,691.2974,397.3236,701.05,395.95" style="stroke:#A80036;stroke-width:1.0;"/><!--MD5=[299cf0460a0b3ffee05ec41c99ce24b7]
link C to TTS--><path codeLine="94" d="M277.5,320.47 C277.5,344.05 277.5,367.63 277.5,391.22 " fill="none" id="C-to-TTS" style="stroke:#A80036;stroke-width:1.0;stroke-dasharray:7.0,7.0;"/><polygon fill="#A80036" points="277.5,396.25,281.5,387.25,277.5,391.25,273.5,387.25,277.5,396.25" style="stroke:#A80036;stroke-width:1.0;"/><!--MD5=[cf05f59dfce81a96099c5f95714bd5af]
link CTTC to C--><path codeLine="95" d="M619.82,507.47 C610.44,501.8 601.44,495.65 593,489 C547.79,453.35 566.93,417.21 523,380 C476.56,340.66 413.16,314 362.56,297.39 " fill="none" id="CTTC-to-C" style="stroke:#A80036;stroke-width:1.0;stroke-dasharray:7.0,7.0;"/><polygon fill="#A80036" points="357.7,295.82,365.0212,302.4079,362.4547,297.3667,367.4959,294.8003,357.7,295.82" style="stroke:#A80036;stroke-width:1.0;"/><!--MD5=[e78a6acdd318a27b442e8ff64f8c9353]
link CTTC to ttM--><path codeLine="96" d="M1053.17,587.72 C1116.51,592.01 1183.24,596.53 1237.57,600.21 " fill="none" id="CTTC-to-ttM" style="stroke:#A80036;stroke-width:1.0;stroke-dasharray:7.0,7.0;"/><polygon fill="#A80036" points="1242.79,600.57,1234.0856,595.962,1237.8018,600.227,1233.5368,603.9431,1242.79,600.57" style="stroke:#A80036;stroke-width:1.0;"/><!--MD5=[8dd6d3028e965dc60ea1bc8f75a077b5]
link CTTC to ttDto--><path codeLine="97" d="M1024.16,507.48 C1083.32,487.83 1141,469.91 1171,464 C1324.55,433.77 1510.07,428.45 1600.34,427.81 " fill="none" id="CTTC-to-ttDto" style="stroke:#A80036;stroke-width:1.0;stroke-dasharray:7.0,7.0;"/><polygon fill="#A80036" points="1605.35,427.78,1596.316,423.8573,1600.3502,427.8229,1596.3846,431.857,1605.35,427.78" style="stroke:#A80036;stroke-width:1.0;"/><!--MD5=[93286ab8d15dacf230424bab250ab910]
link TT to PC--><path codeLine="98" d="M1017.01,216.51 C1101.48,202.28 1198.1,186.01 1265.89,174.59 " fill="none" id="TT-PC" style="stroke:#A80036;stroke-width:1.0;"/><polygon fill="#000000" points="1094.9305,184.3453,1085.523,182.9495,1086.4992,188.7458,1094.9305,184.3453" style="stroke:#000000;stroke-width:1.0;"/><text fill="#000000" font-family="sans-serif" font-size="13" lengthAdjust="spacing" textLength="63" x="1099" y="190.4951">analyzes a</text><text fill="#000000" font-family="sans-serif" font-size="13" lengthAdjust="spacing" textLength="5" x="1024.794" y="229.0669">*</text><text fill="#000000" font-family="sans-serif" font-size="13" lengthAdjust="spacing" textLength="7" x="1251.0602" y="190.0627">1</text><!--MD5=[47773c9c22b384181ea9d3871f1f6c2c]
link TTS to TT--><path codeLine="99" d="M460.01,396.46 C520.31,372.36 587.53,345.5 648.16,321.27 " fill="none" id="TTS-to-TT" style="stroke:#A80036;stroke-width:1.0;stroke-dasharray:7.0,7.0;"/><polygon fill="#A80036" points="652.89,319.38,643.0481,319.0086,648.2476,321.237,646.0193,326.4364,652.89,319.38" style="stroke:#A80036;stroke-width:1.0;"/><!--MD5=[87cf4899889a61f69e835453d85d5116]
link ttM to ttDto--><path codeLine="100" d="M1464.03,598.87 C1490.81,591.6 1517.15,579.36 1536,559 C1563.66,529.13 1527.16,500.46 1553,469 C1564.96,454.44 1582.86,445.01 1600.35,438.93 " fill="none" id="ttM-to-ttDto" style="stroke:#A80036;stroke-width:1.0;stroke-dasharray:7.0,7.0;"/><polygon fill="#A80036" points="1605.26,437.29,1595.4587,436.3236,1600.5137,438.8626,1597.9748,443.9176,1605.26,437.29" style="stroke:#A80036;stroke-width:1.0;"/><!--MD5=[8189db5086aad6005fc8a167d8882fed]
link pcM to pcDto--><path codeLine="101" d="M1512.23,511 C1532.7,511 1552.97,511 1571.54,511 " fill="none" id="pcM-to-pcDto" style="stroke:#A80036;stroke-width:1.0;stroke-dasharray:7.0,7.0;"/><polygon fill="#A80036" points="1576.74,511,1567.74,507,1571.74,511,1567.74,515,1576.74,511" style="stroke:#A80036;stroke-width:1.0;"/><!--MD5=[1d76f811c406f01b7366c4d7b698f081]
link CPCS to pcM--><path codeLine="102" d="M992.02,457.26 C1054.41,466.56 1126.3,477.28 1189.38,486.68 " fill="none" id="CPCS-to-pcM" style="stroke:#A80036;stroke-width:1.0;stroke-dasharray:7.0,7.0;"/><polygon fill="#A80036" points="1194.68,487.47,1186.3722,482.1804,1189.7352,486.729,1185.1866,490.092,1194.68,487.47" style="stroke:#A80036;stroke-width:1.0;"/><!--MD5=[b83cceec495819d0b37daa935a10185d]
link C to TT--><path codeLine="104" d="M357.79,271 C434.39,267.14 553.12,261.16 652.87,256.13 " fill="none" id="C-TT" style="stroke:#A80036;stroke-width:1.0;"/><polygon fill="#000000" points="540.9937,250.9241,531.8121,248.4442,532.108,254.3146,540.9937,250.9241" style="stroke:#000000;stroke-width:1.0;"/><text fill="#000000" font-family="sans-serif" font-size="13" lengthAdjust="spacing" textLength="39" x="545" y="256.4951">adopts</text><text fill="#000000" font-family="sans-serif" font-size="13" lengthAdjust="spacing" textLength="7" x="365.5144" y="284.9028">1</text><text fill="#000000" font-family="sans-serif" font-size="13" lengthAdjust="spacing" textLength="5" x="640.0809" y="270.3583">*</text><!--MD5=[71b3fc4d6ca120e51ce9c04aa77747d8]
link C to PC--><path codeLine="105" d="M357.68,236.2 C419.95,207.95 509.8,172.09 593,157 C833.51,113.37 1123.95,134.5 1265.89,149.48 " fill="none" id="C-PC" style="stroke:#A80036;stroke-width:1.0;"/><polygon fill="#000000" points="817.9774,121.7005,808.6939,119.6347,809.2526,125.4859,817.9774,121.7005" style="stroke:#000000;stroke-width:1.0;"/><text fill="#000000" font-family="sans-serif" font-size="13" lengthAdjust="spacing" textLength="39" x="822" y="127.4951">adopts</text><text fill="#000000" font-family="sans-serif" font-size="13" lengthAdjust="spacing" textLength="7" x="365.3943" y="246.8946">1</text><text fill="#000000" font-family="sans-serif" font-size="13" lengthAdjust="spacing" textLength="5" x="1252.8646" y="162.7883">*</text><!--MD5=[2ce848e63999a080edeb085bc8dcf304]
@startuml
skinparam classAttributeIconSize 0
left to right direction

package Core{

package Domain{
class "Company" as C {
-String designation
+getTestTypeStore()
+getParameterCategoryStore()
}

class "ParameterCategory" as PC{
-String name
-String code
+ParameterCategory(name, code)
}

class "TestType" as TT {
-String code
-String description
-String collectingMethod
-ParameterCategory parameterCategory
-List <ParameterCategory> parameterCategoriesList
+TestType(code, description, collectingMethod, parameterCategory)
+TestType(code, description, collectingMethod, parameterCategoriesList)
}

}



package Stores{
class "TestTypeStore" as TTS{
-List<TestType> testTypesList
+TestType createTestType(code, description, collectingMethod, parameterCategory)
+TestType createTestType(code, description, collectingMethod, parameterCategoriesList)
+boolean saveTestType(tt)
+boolean validateTestType(tt)
+boolean addTestType(tt)
+List <TestType> getAllTestTypes()
}
}



package Controllers{
class "CreateTestTypeController" as CTTC {
+CreateTestTypeController()
+List<TestTypeDto> getAllTestTypesDto()
+boolean createTestType(code, description, collectingMethod, parameterCategory)
+boolean createTestType(code, description, collectingMethod, parameterCategoriesList)
+boolean saveTestType()
+List<TestType> getAllTestTypes()
}



class "CreateParameterCategoryController" as CPCS{
+List <ParameterCategoryDto> getAllParameterCategoriesDto()
+ParameterCategory getParameterCategoryByCode(code)
}

}

package Mappers{
class "TestTypeMapper" as ttM{
+List <TestTypeDto> toDto(List<TestType>)
}

class "ParameterCategoryMapper" as pcM{
+List <ParameterCategoryDto> toDto(List<ParameterCategory>)
}

}


package Dto{
class "TestTypeDto" as ttDto{
}

class "ParameterCategoryDto" as pcDto{
}

}

}
package UI{
class "CreateTestTypeUI" as CTTUI
}

CTTUI ..> CTTC
C ..> CPCS
C ..> TTS
CTTC ..> C
CTTC ..> ttM
CTTC ..> ttDto
TT "*" - - "1" PC : > analyzes a
TTS ..> TT
ttM ..> ttDto
pcM ..> pcDto
CPCS ..> pcM

C "1" - - "*" TT : > adopts
C "1" - - "*" PC : > adopts

@enduml

PlantUML version 1.2021.5(Sun Apr 25 12:20:28 BST 2021)
(GPL source distribution)
Java Runtime: OpenJDK Runtime Environment
JVM: OpenJDK 64-Bit Server VM
Default Encoding: Cp1252
Language: pt
Country: PT
--></g></svg>