<?xml version="1.0" encoding="UTF-8" standalone="no"?><svg xmlns="http://www.w3.org/2000/svg" xmlns:xlink="http://www.w3.org/1999/xlink" contentScriptType="application/ecmascript" contentStyleType="text/css" height="774px" preserveAspectRatio="none" style="width:1091px;height:774px;" version="1.1" viewBox="0 0 1091 774" width="1091px" zoomAndPan="magnify"><defs><filter height="300%" id="foqpbpnprg0k6" width="300%" x="-1" y="-1"><feGaussianBlur result="blurOut" stdDeviation="2.0"/><feColorMatrix in="blurOut" result="blurOut2" type="matrix" values="0 0 0 0 0 0 0 0 0 0 0 0 0 0 0 0 0 0 .4 0"/><feOffset dx="4.0" dy="4.0" in="blurOut2" result="blurOut3"/><feBlend in="SourceGraphic" in2="blurOut3" mode="normal"/></filter></defs><g><!--MD5=[e97daf9298e09b9cb975d7fc43fc205e]
class RegisterNewEmployeeUI--><rect codeLine="2" fill="#FEFECE" filter="url(#foqpbpnprg0k6)" height="48" id="RegisterNewEmployeeUI" style="stroke:#A80036;stroke-width:1.5;" width="182" x="528.5" y="116"/><ellipse cx="543.5" cy="132" fill="#ADD1B2" rx="11" ry="11" style="stroke:#A80036;stroke-width:1.0;"/><path d="M546.4688,137.6406 Q545.8906,137.9375 545.25,138.0781 Q544.6094,138.2344 543.9063,138.2344 Q541.4063,138.2344 540.0781,136.5938 Q538.7656,134.9375 538.7656,131.8125 Q538.7656,128.6875 540.0781,127.0313 Q541.4063,125.375 543.9063,125.375 Q544.6094,125.375 545.25,125.5313 Q545.9063,125.6875 546.4688,125.9844 L546.4688,128.7031 Q545.8438,128.125 545.25,127.8594 Q544.6563,127.5781 544.0313,127.5781 Q542.6875,127.5781 542,128.6563 Q541.3125,129.7188 541.3125,131.8125 Q541.3125,133.9063 542,134.9844 Q542.6875,136.0469 544.0313,136.0469 Q544.6563,136.0469 545.25,135.7813 Q545.8438,135.5 546.4688,134.9219 L546.4688,137.6406 Z " fill="#000000"/><text fill="#000000" font-family="sans-serif" font-size="12" lengthAdjust="spacingAndGlyphs" textLength="150" x="557.5" y="136.1543">RegisterNewEmployeeUI</text><line style="stroke:#A80036;stroke-width:1.5;" x1="529.5" x2="709.5" y1="148" y2="148"/><line style="stroke:#A80036;stroke-width:1.5;" x1="529.5" x2="709.5" y1="156" y2="156"/><!--MD5=[00f5a8d890e3e1ee187254d4d2c6b7cb]
class EmployeeDTO--><rect codeLine="3" fill="#FEFECE" filter="url(#foqpbpnprg0k6)" height="240.0703" id="EmployeeDTO" style="stroke:#A80036;stroke-width:1.5;" width="239" x="151" y="520"/><ellipse cx="223.75" cy="536" fill="#ADD1B2" rx="11" ry="11" style="stroke:#A80036;stroke-width:1.0;"/><path d="M226.7188,541.6406 Q226.1406,541.9375 225.5,542.0781 Q224.8594,542.2344 224.1563,542.2344 Q221.6563,542.2344 220.3281,540.5938 Q219.0156,538.9375 219.0156,535.8125 Q219.0156,532.6875 220.3281,531.0313 Q221.6563,529.375 224.1563,529.375 Q224.8594,529.375 225.5,529.5313 Q226.1563,529.6875 226.7188,529.9844 L226.7188,532.7031 Q226.0938,532.125 225.5,531.8594 Q224.9063,531.5781 224.2813,531.5781 Q222.9375,531.5781 222.25,532.6563 Q221.5625,533.7188 221.5625,535.8125 Q221.5625,537.9063 222.25,538.9844 Q222.9375,540.0469 224.2813,540.0469 Q224.9063,540.0469 225.5,539.7813 Q226.0938,539.5 226.7188,538.9219 L226.7188,541.6406 Z " fill="#000000"/><text fill="#000000" font-family="sans-serif" font-size="12" lengthAdjust="spacingAndGlyphs" textLength="85" x="244.25" y="540.1543">EmployeeDTO</text><line style="stroke:#A80036;stroke-width:1.5;" x1="152" x2="389" y1="552" y2="552"/><text fill="#000000" font-family="sans-serif" font-size="11" lengthAdjust="spacingAndGlyphs" textLength="227" x="157" y="566.2104">class RegisterNewEmployeeController {</text><text fill="#000000" font-family="sans-serif" font-size="11" lengthAdjust="spacingAndGlyphs" textLength="100" x="157" y="579.0151">class Employee {</text><text fill="#000000" font-family="sans-serif" font-size="11" lengthAdjust="spacingAndGlyphs" textLength="14" x="157" y="591.8198">-id</text><text fill="#000000" font-family="sans-serif" font-size="11" lengthAdjust="spacingAndGlyphs" textLength="36" x="157" y="604.6245">-name</text><text fill="#000000" font-family="sans-serif" font-size="11" lengthAdjust="spacingAndGlyphs" textLength="51" x="157" y="617.4292">-address</text><text fill="#000000" font-family="sans-serif" font-size="11" lengthAdjust="spacingAndGlyphs" textLength="84" x="157" y="630.2339">-phoneNumber</text><text fill="#000000" font-family="sans-serif" font-size="11" lengthAdjust="spacingAndGlyphs" textLength="82" x="157" y="643.0386">-emailAddress</text><text fill="#000000" font-family="sans-serif" font-size="11" lengthAdjust="spacingAndGlyphs" textLength="53" x="157" y="655.8433">-socCode</text><line style="stroke:#A80036;stroke-width:1.5;" x1="152" x2="389" y1="662.4375" y2="662.4375"/><text fill="#000000" font-family="sans-serif" font-size="11" lengthAdjust="spacingAndGlyphs" textLength="69" x="157" y="676.6479">+getRoleId()</text><text fill="#000000" font-family="sans-serif" font-size="11" lengthAdjust="spacingAndGlyphs" textLength="86" x="157" y="689.4526">-generatePwd()</text><text fill="#000000" font-family="sans-serif" font-size="11" lengthAdjust="spacingAndGlyphs" textLength="74" x="157" y="702.2573">-generateID()</text><text fill="#000000" font-family="sans-serif" font-size="11" lengthAdjust="spacingAndGlyphs" textLength="66" x="157" y="715.062">+getRoles()</text><text fill="#000000" font-family="sans-serif" font-size="11" lengthAdjust="spacingAndGlyphs" textLength="108" x="157" y="727.8667">+createEmployee()</text><text fill="#000000" font-family="sans-serif" font-size="11" lengthAdjust="spacingAndGlyphs" textLength="99" x="157" y="740.6714">+saveEmployee()</text><text fill="#000000" font-family="sans-serif" font-size="11" lengthAdjust="spacingAndGlyphs" textLength="149" x="157" y="753.4761">+create(role, id, name ...)</text><!--MD5=[b65e6cec79d32d494d76fa2df2ac0ae9]
class OrgRole--><rect codeLine="20" fill="#FEFECE" filter="url(#foqpbpnprg0k6)" height="73.6094" id="OrgRole" style="stroke:#A80036;stroke-width:1.5;" width="164" x="425.5" y="603"/><ellipse cx="478.75" cy="619" fill="#ADD1B2" rx="11" ry="11" style="stroke:#A80036;stroke-width:1.0;"/><path d="M481.7188,624.6406 Q481.1406,624.9375 480.5,625.0781 Q479.8594,625.2344 479.1563,625.2344 Q476.6563,625.2344 475.3281,623.5938 Q474.0156,621.9375 474.0156,618.8125 Q474.0156,615.6875 475.3281,614.0313 Q476.6563,612.375 479.1563,612.375 Q479.8594,612.375 480.5,612.5313 Q481.1563,612.6875 481.7188,612.9844 L481.7188,615.7031 Q481.0938,615.125 480.5,614.8594 Q479.9063,614.5781 479.2813,614.5781 Q477.9375,614.5781 477.25,615.6563 Q476.5625,616.7188 476.5625,618.8125 Q476.5625,620.9063 477.25,621.9844 Q477.9375,623.0469 479.2813,623.0469 Q479.9063,623.0469 480.5,622.7813 Q481.0938,622.5 481.7188,621.9219 L481.7188,624.6406 Z " fill="#000000"/><text fill="#000000" font-family="sans-serif" font-size="12" lengthAdjust="spacingAndGlyphs" textLength="49" x="499.25" y="623.1543">OrgRole</text><line style="stroke:#A80036;stroke-width:1.5;" x1="426.5" x2="588.5" y1="635" y2="635"/><text fill="#000000" font-family="sans-serif" font-size="11" lengthAdjust="spacingAndGlyphs" textLength="67" x="431.5" y="649.2104">-description</text><line style="stroke:#A80036;stroke-width:1.5;" x1="426.5" x2="588.5" y1="655.8047" y2="655.8047"/><text fill="#000000" font-family="sans-serif" font-size="11" lengthAdjust="spacingAndGlyphs" textLength="152" x="431.5" y="670.0151">+createEmployee(empDto)</text><!--MD5=[02e4b9b7573f1156f41e60aa5b4e25a4]
class Company--><rect codeLine="24" fill="#FEFECE" filter="url(#foqpbpnprg0k6)" height="124.8281" id="Company" style="stroke:#A80036;stroke-width:1.5;" width="140" x="426.5" y="334"/><ellipse cx="464.45" cy="350" fill="#ADD1B2" rx="11" ry="11" style="stroke:#A80036;stroke-width:1.0;"/><path d="M467.4188,355.6406 Q466.8406,355.9375 466.2,356.0781 Q465.5594,356.2344 464.8563,356.2344 Q462.3563,356.2344 461.0281,354.5938 Q459.7156,352.9375 459.7156,349.8125 Q459.7156,346.6875 461.0281,345.0313 Q462.3563,343.375 464.8563,343.375 Q465.5594,343.375 466.2,343.5313 Q466.8563,343.6875 467.4188,343.9844 L467.4188,346.7031 Q466.7938,346.125 466.2,345.8594 Q465.6063,345.5781 464.9813,345.5781 Q463.6375,345.5781 462.95,346.6563 Q462.2625,347.7188 462.2625,349.8125 Q462.2625,351.9063 462.95,352.9844 Q463.6375,354.0469 464.9813,354.0469 Q465.6063,354.0469 466.2,353.7813 Q466.7938,353.5 467.4188,352.9219 L467.4188,355.6406 Z " fill="#000000"/><text fill="#000000" font-family="sans-serif" font-size="12" lengthAdjust="spacingAndGlyphs" textLength="57" x="483.55" y="354.1543">Company</text><line style="stroke:#A80036;stroke-width:1.5;" x1="427.5" x2="565.5" y1="366" y2="366"/><text fill="#000000" font-family="sans-serif" font-size="11" lengthAdjust="spacingAndGlyphs" textLength="70" x="432.5" y="380.2104">-designation</text><line style="stroke:#A80036;stroke-width:1.5;" x1="427.5" x2="565.5" y1="386.8047" y2="386.8047"/><text fill="#000000" font-family="sans-serif" font-size="11" lengthAdjust="spacingAndGlyphs" textLength="78" x="432.5" y="401.0151">-getRoleById()</text><text fill="#000000" font-family="sans-serif" font-size="11" lengthAdjust="spacingAndGlyphs" textLength="66" x="432.5" y="413.8198">+getRoles()</text><text fill="#000000" font-family="sans-serif" font-size="11" lengthAdjust="spacingAndGlyphs" textLength="128" x="432.5" y="426.6245">+getEmployeesStore()</text><text fill="#000000" font-family="sans-serif" font-size="11" lengthAdjust="spacingAndGlyphs" textLength="93" x="432.5" y="439.4292">+getUserStore()</text><text fill="#000000" font-family="sans-serif" font-size="11" lengthAdjust="spacingAndGlyphs" textLength="108" x="432.5" y="452.2339">+createEmployee()</text><!--MD5=[93af8b4494db78ec46e98fad8955a5aa]
class UserStore--><rect codeLine="33" fill="#FEFECE" filter="url(#foqpbpnprg0k6)" height="60.8047" id="UserStore" style="stroke:#A80036;stroke-width:1.5;" width="109" x="7" y="609.5"/><ellipse cx="28.3" cy="625.5" fill="#ADD1B2" rx="11" ry="11" style="stroke:#A80036;stroke-width:1.0;"/><path d="M31.2688,631.1406 Q30.6906,631.4375 30.05,631.5781 Q29.4094,631.7344 28.7063,631.7344 Q26.2063,631.7344 24.8781,630.0938 Q23.5656,628.4375 23.5656,625.3125 Q23.5656,622.1875 24.8781,620.5313 Q26.2063,618.875 28.7063,618.875 Q29.4094,618.875 30.05,619.0313 Q30.7063,619.1875 31.2688,619.4844 L31.2688,622.2031 Q30.6438,621.625 30.05,621.3594 Q29.4563,621.0781 28.8313,621.0781 Q27.4875,621.0781 26.8,622.1563 Q26.1125,623.2188 26.1125,625.3125 Q26.1125,627.4063 26.8,628.4844 Q27.4875,629.5469 28.8313,629.5469 Q29.4563,629.5469 30.05,629.2813 Q30.6438,629 31.2688,628.4219 L31.2688,631.1406 Z " fill="#000000"/><text fill="#000000" font-family="sans-serif" font-size="12" lengthAdjust="spacingAndGlyphs" textLength="63" x="43.7" y="629.6543">UserStore</text><line style="stroke:#A80036;stroke-width:1.5;" x1="8" x2="115" y1="641.5" y2="641.5"/><line style="stroke:#A80036;stroke-width:1.5;" x1="8" x2="115" y1="649.5" y2="649.5"/><text fill="#000000" font-family="sans-serif" font-size="11" lengthAdjust="spacingAndGlyphs" textLength="97" x="13" y="663.7104">+saveUser(user)</text><!--MD5=[a0841b92fb5480233e21967dce85d4fc]
class EmpStore--><rect codeLine="36" fill="#FEFECE" filter="url(#foqpbpnprg0k6)" height="73.6094" id="EmpStore" style="stroke:#A80036;stroke-width:1.5;" width="148" x="624.5" y="603"/><ellipse cx="664.25" cy="619" fill="#ADD1B2" rx="11" ry="11" style="stroke:#A80036;stroke-width:1.0;"/><path d="M667.2188,624.6406 Q666.6406,624.9375 666,625.0781 Q665.3594,625.2344 664.6563,625.2344 Q662.1563,625.2344 660.8281,623.5938 Q659.5156,621.9375 659.5156,618.8125 Q659.5156,615.6875 660.8281,614.0313 Q662.1563,612.375 664.6563,612.375 Q665.3594,612.375 666,612.5313 Q666.6563,612.6875 667.2188,612.9844 L667.2188,615.7031 Q666.5938,615.125 666,614.8594 Q665.4063,614.5781 664.7813,614.5781 Q663.4375,614.5781 662.75,615.6563 Q662.0625,616.7188 662.0625,618.8125 Q662.0625,620.9063 662.75,621.9844 Q663.4375,623.0469 664.7813,623.0469 Q665.4063,623.0469 666,622.7813 Q666.5938,622.5 667.2188,621.9219 L667.2188,624.6406 Z " fill="#000000"/><text fill="#000000" font-family="sans-serif" font-size="12" lengthAdjust="spacingAndGlyphs" textLength="61" x="683.75" y="623.1543">EmpStore</text><line style="stroke:#A80036;stroke-width:1.5;" x1="625.5" x2="771.5" y1="635" y2="635"/><line style="stroke:#A80036;stroke-width:1.5;" x1="625.5" x2="771.5" y1="643" y2="643"/><text fill="#000000" font-family="sans-serif" font-size="11" lengthAdjust="spacingAndGlyphs" textLength="136" x="630.5" y="657.2104">-validateEmployee(emp)</text><text fill="#000000" font-family="sans-serif" font-size="11" lengthAdjust="spacingAndGlyphs" textLength="113" x="630.5" y="670.0151">-addEmployee(emp)</text><!--MD5=[8ae808d068a8995f06b9b3ec51357f0b]
class AuthFacade--><rect codeLine="40" fill="#FEFECE" filter="url(#foqpbpnprg0k6)" height="60.8047" id="AuthFacade" style="stroke:#A80036;stroke-width:1.5;" width="256" x="672.5" y="366"/><ellipse cx="758.75" cy="382" fill="#ADD1B2" rx="11" ry="11" style="stroke:#A80036;stroke-width:1.0;"/><path d="M761.7188,387.6406 Q761.1406,387.9375 760.5,388.0781 Q759.8594,388.2344 759.1563,388.2344 Q756.6563,388.2344 755.3281,386.5938 Q754.0156,384.9375 754.0156,381.8125 Q754.0156,378.6875 755.3281,377.0313 Q756.6563,375.375 759.1563,375.375 Q759.8594,375.375 760.5,375.5313 Q761.1563,375.6875 761.7188,375.9844 L761.7188,378.7031 Q761.0938,378.125 760.5,377.8594 Q759.9063,377.5781 759.2813,377.5781 Q757.9375,377.5781 757.25,378.6563 Q756.5625,379.7188 756.5625,381.8125 Q756.5625,383.9063 757.25,384.9844 Q757.9375,386.0469 759.2813,386.0469 Q759.9063,386.0469 760.5,385.7813 Q761.0938,385.5 761.7188,384.9219 L761.7188,387.6406 Z " fill="#000000"/><text fill="#000000" font-family="sans-serif" font-size="12" lengthAdjust="spacingAndGlyphs" textLength="75" x="779.25" y="386.1543">AuthFacade</text><line style="stroke:#A80036;stroke-width:1.5;" x1="673.5" x2="927.5" y1="398" y2="398"/><line style="stroke:#A80036;stroke-width:1.5;" x1="673.5" x2="927.5" y1="406" y2="406"/><text fill="#000000" font-family="sans-serif" font-size="11" lengthAdjust="spacingAndGlyphs" textLength="244" x="678.5" y="420.2104">+addUserWithRole(name, email, pwd, role)</text><!--MD5=[e98dbd2dbb15b74fee5fb51c2f897ceb]
class RegisterNewEmployeeController--><rect fill="#FEFECE" filter="url(#foqpbpnprg0k6)" height="48" id="RegisterNewEmployeeController" style="stroke:#A80036;stroke-width:1.5;" width="231" x="504" y="225"/><ellipse cx="519" cy="241" fill="#ADD1B2" rx="11" ry="11" style="stroke:#A80036;stroke-width:1.0;"/><path d="M521.9688,246.6406 Q521.3906,246.9375 520.75,247.0781 Q520.1094,247.2344 519.4063,247.2344 Q516.9063,247.2344 515.5781,245.5938 Q514.2656,243.9375 514.2656,240.8125 Q514.2656,237.6875 515.5781,236.0313 Q516.9063,234.375 519.4063,234.375 Q520.1094,234.375 520.75,234.5313 Q521.4063,234.6875 521.9688,234.9844 L521.9688,237.7031 Q521.3438,237.125 520.75,236.8594 Q520.1563,236.5781 519.5313,236.5781 Q518.1875,236.5781 517.5,237.6563 Q516.8125,238.7188 516.8125,240.8125 Q516.8125,242.9063 517.5,243.9844 Q518.1875,245.0469 519.5313,245.0469 Q520.1563,245.0469 520.75,244.7813 Q521.3438,244.5 521.9688,243.9219 L521.9688,246.6406 Z " fill="#000000"/><text fill="#000000" font-family="sans-serif" font-size="12" lengthAdjust="spacingAndGlyphs" textLength="199" x="533" y="245.1543">RegisterNewEmployeeController</text><line style="stroke:#A80036;stroke-width:1.5;" x1="505" x2="734" y1="257" y2="257"/><line style="stroke:#A80036;stroke-width:1.5;" x1="505" x2="734" y1="265" y2="265"/><!--MD5=[0af8f8019f740f778e383a70d6c8693f]
class RolesMapper--><rect fill="#FEFECE" filter="url(#foqpbpnprg0k6)" height="48" id="RolesMapper" style="stroke:#A80036;stroke-width:1.5;" width="113" x="964" y="372.5"/><ellipse cx="979" cy="388.5" fill="#ADD1B2" rx="11" ry="11" style="stroke:#A80036;stroke-width:1.0;"/><path d="M981.9688,394.1406 Q981.3906,394.4375 980.75,394.5781 Q980.1094,394.7344 979.4063,394.7344 Q976.9063,394.7344 975.5781,393.0938 Q974.2656,391.4375 974.2656,388.3125 Q974.2656,385.1875 975.5781,383.5313 Q976.9063,381.875 979.4063,381.875 Q980.1094,381.875 980.75,382.0313 Q981.4063,382.1875 981.9688,382.4844 L981.9688,385.2031 Q981.3438,384.625 980.75,384.3594 Q980.1563,384.0781 979.5313,384.0781 Q978.1875,384.0781 977.5,385.1563 Q976.8125,386.2188 976.8125,388.3125 Q976.8125,390.4063 977.5,391.4844 Q978.1875,392.5469 979.5313,392.5469 Q980.1563,392.5469 980.75,392.2813 Q981.3438,392 981.9688,391.4219 L981.9688,394.1406 Z " fill="#000000"/><text fill="#000000" font-family="sans-serif" font-size="12" lengthAdjust="spacingAndGlyphs" textLength="81" x="993" y="392.6543">RolesMapper</text><line style="stroke:#A80036;stroke-width:1.5;" x1="965" x2="1076" y1="404.5" y2="404.5"/><line style="stroke:#A80036;stroke-width:1.5;" x1="965" x2="1076" y1="412.5" y2="412.5"/><!--MD5=[da547346deef918ea16944ba046651ef]
class Administrator--><rect fill="#FEFECE" filter="url(#foqpbpnprg0k6)" height="48" id="Administrator" style="stroke:#A80036;stroke-width:1.5;" width="116" x="561.5" y="7"/><ellipse cx="576.5" cy="23" fill="#ADD1B2" rx="11" ry="11" style="stroke:#A80036;stroke-width:1.0;"/><path d="M579.4688,28.6406 Q578.8906,28.9375 578.25,29.0781 Q577.6094,29.2344 576.9063,29.2344 Q574.4063,29.2344 573.0781,27.5938 Q571.7656,25.9375 571.7656,22.8125 Q571.7656,19.6875 573.0781,18.0313 Q574.4063,16.375 576.9063,16.375 Q577.6094,16.375 578.25,16.5313 Q578.9063,16.6875 579.4688,16.9844 L579.4688,19.7031 Q578.8438,19.125 578.25,18.8594 Q577.6563,18.5781 577.0313,18.5781 Q575.6875,18.5781 575,19.6563 Q574.3125,20.7188 574.3125,22.8125 Q574.3125,24.9063 575,25.9844 Q575.6875,27.0469 577.0313,27.0469 Q577.6563,27.0469 578.25,26.7813 Q578.8438,26.5 579.4688,25.9219 L579.4688,28.6406 Z " fill="#000000"/><text fill="#000000" font-family="sans-serif" font-size="12" lengthAdjust="spacingAndGlyphs" textLength="84" x="590.5" y="27.1543">Administrator</text><line style="stroke:#A80036;stroke-width:1.5;" x1="562.5" x2="676.5" y1="39" y2="39"/><line style="stroke:#A80036;stroke-width:1.5;" x1="562.5" x2="676.5" y1="47" y2="47"/><!--MD5=[7421f545a0d8420c5bec41e74b387d9c]
class Employee--><rect fill="#FEFECE" filter="url(#foqpbpnprg0k6)" height="48" id="Employee" style="stroke:#A80036;stroke-width:1.5;" width="92" x="749.5" y="7"/><ellipse cx="764.5" cy="23" fill="#ADD1B2" rx="11" ry="11" style="stroke:#A80036;stroke-width:1.0;"/><path d="M767.4688,28.6406 Q766.8906,28.9375 766.25,29.0781 Q765.6094,29.2344 764.9063,29.2344 Q762.4063,29.2344 761.0781,27.5938 Q759.7656,25.9375 759.7656,22.8125 Q759.7656,19.6875 761.0781,18.0313 Q762.4063,16.375 764.9063,16.375 Q765.6094,16.375 766.25,16.5313 Q766.9063,16.6875 767.4688,16.9844 L767.4688,19.7031 Q766.8438,19.125 766.25,18.8594 Q765.6563,18.5781 765.0313,18.5781 Q763.6875,18.5781 763,19.6563 Q762.3125,20.7188 762.3125,22.8125 Q762.3125,24.9063 763,25.9844 Q763.6875,27.0469 765.0313,27.0469 Q765.6563,27.0469 766.25,26.7813 Q766.8438,26.5 767.4688,25.9219 L767.4688,28.6406 Z " fill="#000000"/><text fill="#000000" font-family="sans-serif" font-size="12" lengthAdjust="spacingAndGlyphs" textLength="60" x="778.5" y="27.1543">Employee</text><line style="stroke:#A80036;stroke-width:1.5;" x1="750.5" x2="840.5" y1="39" y2="39"/><line style="stroke:#A80036;stroke-width:1.5;" x1="750.5" x2="840.5" y1="47" y2="47"/><!--MD5=[102f1b3c68b20fc6574790ee0d106773]
link Company to UserStore--><path codeLine="43" d="M426.3956,405.6418 C347.7372,418.9848 219.8715,450.2751 133.5,520 C106.0039,542.1967 86.5103,577.9069 74.8017,604.6101 " fill="none" id="Company-to-UserStore" style="stroke:#A80036;stroke-width:1.0;stroke-dasharray:7.0,7.0;"/><polygon fill="#A80036" points="72.7058,609.4861,79.9347,602.7971,74.6803,604.8925,72.5849,599.638,72.7058,609.4861" style="stroke:#A80036;stroke-width:1.0;"/><!--MD5=[2896c632801f280a061ca000d2429264]
link Company to EmpStore--><path codeLine="44" d="M553.9342,459.1825 C571.1387,478.4367 589.8508,499.8628 606.5,520 C627.7681,545.7237 650.6039,575.496 668.2039,598.9501 " fill="none" id="Company-to-EmpStore" style="stroke:#A80036;stroke-width:1.0;stroke-dasharray:7.0,7.0;"/><polygon fill="#A80036" points="671.2046,602.9551,669.0095,593.354,668.2066,598.9536,662.607,598.1507,671.2046,602.9551" style="stroke:#A80036;stroke-width:1.0;"/><!--MD5=[443742261134c98f399c63d003ef960d]
link Company to EmployeeDTO--><path codeLine="45" d="M438.2994,459.2073 C422.1147,476.6453 403.951,496.2154 385.7106,515.8683 " fill="none" id="Company-to-EmployeeDTO" style="stroke:#A80036;stroke-width:1.0;stroke-dasharray:7.0,7.0;"/><polygon fill="#A80036" points="382.062,519.7993,391.1164,515.9239,385.4634,516.1346,385.2528,510.4816,382.062,519.7993" style="stroke:#A80036;stroke-width:1.0;"/><!--MD5=[e2bb0114ddaa017fadb3cfd71b75cde4]
link Company to OrgRole--><path codeLine="46" d="M499.3328,459.2073 C501.3005,502.7664 503.8693,559.6296 505.5961,597.8542 " fill="none" id="Company-to-OrgRole" style="stroke:#A80036;stroke-width:1.0;stroke-dasharray:7.0,7.0;"/><polygon fill="#A80036" points="505.8234,602.8872,509.413,593.7158,505.5977,597.8923,501.4212,594.0769,505.8234,602.8872" style="stroke:#A80036;stroke-width:1.0;"/><!--MD5=[6febec97a3011c6da29f2097abbb874f]
link RegisterNewEmployeeUI to RegisterNewEmployeeController--><path codeLine="47" d="M619.5,164.1906 C619.5,180.5604 619.5,202.2793 619.5,219.6399 " fill="none" id="RegisterNewEmployeeUI-to-RegisterNewEmployeeController" style="stroke:#A80036;stroke-width:1.0;stroke-dasharray:7.0,7.0;"/><polygon fill="#A80036" points="619.5,224.877,623.5,215.877,619.5,219.877,615.5,215.877,619.5,224.877" style="stroke:#A80036;stroke-width:1.0;"/><!--MD5=[5fc8e087277250d91dd0288c4602b9fc]
link RegisterNewEmployeeController to Company--><path codeLine="48" d="M599.4642,273.0267 C586.509,288.5624 568.9589,309.6083 552.0196,329.9216 " fill="none" id="RegisterNewEmployeeController-to-Company" style="stroke:#A80036;stroke-width:1.0;stroke-dasharray:7.0,7.0;"/><polygon fill="#A80036" points="548.6415,333.9726,557.4775,329.6223,551.8437,330.1325,551.3334,324.4988,548.6415,333.9726" style="stroke:#A80036;stroke-width:1.0;"/><!--MD5=[691c36fbe3208ef7ffb0a530c6c9bfce]
link RegisterNewEmployeeController to RolesMapper--><path codeLine="49" d="M735.233,266.351 C799.644,279.101 879.8286,300.2355 945.5,334 C962.9985,342.9967 980.0492,356.6858 993.4601,368.9616 " fill="none" id="RegisterNewEmployeeController-to-RolesMapper" style="stroke:#A80036;stroke-width:1.0;stroke-dasharray:7.0,7.0;"/><polygon fill="#A80036" points="997.1435,372.3815,993.2696,363.3265,993.4793,368.9795,987.8264,369.1892,997.1435,372.3815" style="stroke:#A80036;stroke-width:1.0;"/><!--MD5=[d614d24a2560379c0dc8fbbca134f8d5]
link RegisterNewEmployeeController to EmpStore--><path codeLine="50" d="M622.9205,273.0407 C628.6194,312.1724 640.7942,392.0094 654.5,459 C664.2615,506.7118 677.7645,560.9244 687.2291,597.479 " fill="none" id="RegisterNewEmployeeController-to-EmpStore" style="stroke:#A80036;stroke-width:1.0;stroke-dasharray:7.0,7.0;"/><polygon fill="#A80036" points="688.5953,602.7413,690.2051,593.0249,687.3387,597.9018,682.4619,595.0354,688.5953,602.7413" style="stroke:#A80036;stroke-width:1.0;"/><!--MD5=[6afa6bb22db0f23f3f9fc98e48404858]
link RegisterNewEmployeeController to UserStore--><path codeLine="51" d="M550.0477,273.0926 C508.1491,288.5727 454.2113,310.1959 408.5,334 C296.5388,392.3036 271.9517,413.8856 170.5,489 C153.2581,501.7658 147.4337,503.6875 133.5,520 C111.2915,545.9999 91.7405,579.6813 78.6373,604.7397 " fill="none" id="RegisterNewEmployeeController-to-UserStore" style="stroke:#A80036;stroke-width:1.0;stroke-dasharray:7.0,7.0;"/><polygon fill="#A80036" points="76.2665,609.3146,83.9591,603.1645,78.5672,604.8754,76.8564,599.4834,76.2665,609.3146" style="stroke:#A80036;stroke-width:1.0;"/><!--MD5=[20784ff41273eb1fc90d3feab3c59e11]
link RegisterNewEmployeeController to AuthFacade--><path codeLine="52" d="M648.9836,273.0267 C678.8242,297.3443 725.2313,335.1622 758.8261,362.5393 " fill="none" id="RegisterNewEmployeeController-to-AuthFacade" style="stroke:#A80036;stroke-width:1.0;stroke-dasharray:7.0,7.0;"/><polygon fill="#A80036" points="762.8576,365.8245,758.4077,357.0383,758.9816,362.6659,753.3539,363.2399,762.8576,365.8245" style="stroke:#A80036;stroke-width:1.0;"/><!--MD5=[ebbe55b039af9a4eba1032dd672877f9]
link Administrator to RegisterNewEmployeeUI--><path codeLine="53" d="M619.5,55.1906 C619.5,71.5604 619.5,93.2793 619.5,110.6399 " fill="none" id="Administrator-to-RegisterNewEmployeeUI" style="stroke:#A80036;stroke-width:1.0;stroke-dasharray:7.0,7.0;"/><polygon fill="#A80036" points="619.5,115.877,623.5,106.877,619.5,110.877,615.5,106.877,619.5,115.877" style="stroke:#A80036;stroke-width:1.0;"/><!--MD5=[8f7dd94d56b58fc07b233ccd3dd98f8c]
link Administrator to Employee--><path codeLine="55" d="M677.6168,31 C699.1237,31 723.3328,31 744.1916,31 " fill="none" id="Administrator-to-Employee" style="stroke:#A80036;stroke-width:1.0;"/><polygon fill="#A80036" points="749.4188,31,740.4188,27,744.4188,31,740.4188,35,749.4188,31" style="stroke:#A80036;stroke-width:1.0;"/><polygon fill="#000000" points="705,19.5664,695.9549,16.6275,695.9549,22.5053,705,19.5664" style="stroke:#000000;stroke-width:1.0;"/><text fill="#000000" font-family="sans-serif" font-size="13" lengthAdjust="spacingAndGlyphs" textLength="22" x="709" y="24.0669">is a</text><!--MD5=[99f788552311898514022c6cc0c91f32]
@startuml
skinparam classAttributeIconSize 0
class RegisterNewEmployeeUI
class EmployeeDTO {
  +getRoleId()
class RegisterNewEmployeeController {
  -generatePwd()
  -generateID()
  +getRoles()
  +createEmployee()
  +saveEmployee()
class Employee {
  -id
  -name
  -address
  -phoneNumber
  -emailAddress
  -socCode
  +create(role, id, name ...)
}
class OrgRole {
  -description
  +createEmployee(empDto)
}
class Company {
  -designation
  -getRoleById()
  +getRoles()
  +getEmployeesStore()
  +getUserStore()
  +createEmployee()
}

class UserStore {
  +saveUser(user)
}
class EmpStore {
  -validateEmployee(emp)
  -addEmployee(emp)
}
class AuthFacade {
  +addUserWithRole(name, email, pwd, role) 
}
Company .-> UserStore 
Company .-> EmpStore  
Company .-> EmployeeDTO  
Company .-> OrgRole  
RegisterNewEmployeeUI .-> RegisterNewEmployeeController
RegisterNewEmployeeController .-> Company
RegisterNewEmployeeController .-> RolesMapper
RegisterNewEmployeeController .-> EmpStore
RegisterNewEmployeeController .-> UserStore 
RegisterNewEmployeeController .-> AuthFacade
Administrator .-> RegisterNewEmployeeUI

Administrator -> Employee : > is a
@enduml

PlantUML version 1.2020.22(Sun Dec 06 09:36:27 UTC 2020)
(GPL source distribution)
Java Runtime: OpenJDK Runtime Environment
JVM: OpenJDK 64-Bit Server VM
Default Encoding: UTF-8
Language: en
Country: US
--></g></svg>