<?xml version="1.0" encoding="UTF-8" standalone="no"?><svg xmlns="http://www.w3.org/2000/svg" xmlns:xlink="http://www.w3.org/1999/xlink" contentScriptType="application/ecmascript" contentStyleType="text/css" height="498px" preserveAspectRatio="none" style="width:1159px;height:498px;" version="1.1" viewBox="0 0 1159 498" width="1159px" zoomAndPan="magnify"><defs><filter height="300%" id="f1ajkkbdsnsy1m" width="300%" x="-1" y="-1"><feGaussianBlur result="blurOut" stdDeviation="2.0"/><feColorMatrix in="blurOut" result="blurOut2" type="matrix" values="0 0 0 0 0 0 0 0 0 0 0 0 0 0 0 0 0 0 .4 0"/><feOffset dx="4.0" dy="4.0" in="blurOut2" result="blurOut3"/><feBlend in="SourceGraphic" in2="blurOut3" mode="normal"/></filter></defs><g><!--MD5=[faa9b2874725d030a61715b000656859]
class cl--><rect codeLine="6" fill="#FEFECE" filter="url(#f1ajkkbdsnsy1m)" height="172.5234" id="cl" style="stroke:#A80036;stroke-width:1.5;" width="354" x="791" y="7"/><ellipse cx="947.75" cy="23" fill="#ADD1B2" rx="11" ry="11" style="stroke:#A80036;stroke-width:1.0;"/><path d="M949.75,19.5 Q949.9531,19 950.1875,18.75 Q950.4219,18.5 950.6875,18.5 Q951.1563,18.5 951.4531,18.7813 Q951.75,19.0625 951.75,19.7188 L951.75,21.2813 Q951.75,21.9375 951.4688,22.2188 Q951.1875,22.5 950.75,22.5 Q950.3594,22.5 950.1094,22.3281 Q949.8594,22.1563 949.75,21.7031 Q949.7031,21.3906 949.5313,21.2188 Q949.2188,20.8906 948.6563,20.7031 Q948.0938,20.5 947.5313,20.5 Q946.8281,20.5 946.2344,20.7813 Q945.6563,21.0625 945.2031,21.6875 Q944.75,22.3125 944.75,23.1719 L944.75,24.0938 Q944.75,25.125 945.5938,25.8125 Q946.4375,26.5 947.9375,26.5 Q948.8281,26.5 949.4531,26.2969 Q949.8125,26.1875 950.2188,25.8281 Q950.4844,25.625 950.625,25.5625 Q950.7656,25.5 950.9375,25.5 Q951.2656,25.5 951.5,25.7656 Q951.75,26.0156 951.75,26.375 Q951.75,26.7188 951.4063,27.125 Q950.9063,27.7188 950.1094,28.0469 Q949.0625,28.5 947.7813,28.5 Q946.2813,28.5 945.0781,27.9063 Q944.1094,27.4375 943.4219,26.4219 Q942.75,25.4063 942.75,24.2031 L942.75,23.1094 Q942.75,21.8594 943.3438,20.7656 Q943.9531,19.6719 945,19.0938 Q946.0625,18.5 947.25,18.5 Q947.9688,18.5 948.5938,18.75 Q949.2188,19 949.75,19.5 Z " fill="#000000"/><text fill="#000000" font-family="sans-serif" font-size="12" lengthAdjust="spacing" textLength="32" x="968.25" y="27.9102">Client</text><line style="stroke:#A80036;stroke-width:1.5;" x1="792" x2="1144" y1="39" y2="39"/><text fill="#000000" font-family="sans-serif" font-size="11" lengthAdjust="spacing" textLength="44" x="797" y="54.4189">-citizenID</text><text fill="#000000" font-family="sans-serif" font-size="11" lengthAdjust="spacing" textLength="31" x="797" y="68.2549">-nhsID</text><text fill="#000000" font-family="sans-serif" font-size="11" lengthAdjust="spacing" textLength="47" x="797" y="82.0908">-birthDate</text><text fill="#000000" font-family="sans-serif" font-size="11" lengthAdjust="spacing" textLength="22" x="797" y="95.9268">-sex</text><text fill="#000000" font-family="sans-serif" font-size="11" lengthAdjust="spacing" textLength="19" x="797" y="109.7627">-TIN</text><text fill="#000000" font-family="sans-serif" font-size="11" lengthAdjust="spacing" textLength="71" x="797" y="123.5986">-phoneNumber</text><text fill="#000000" font-family="sans-serif" font-size="11" lengthAdjust="spacing" textLength="28" x="797" y="137.4346">-email</text><text fill="#000000" font-family="sans-serif" font-size="11" lengthAdjust="spacing" textLength="30" x="797" y="151.2705">-name</text><line style="stroke:#A80036;stroke-width:1.5;" x1="792" x2="1144" y1="157.6875" y2="157.6875"/><text fill="#000000" font-family="sans-serif" font-size="11" lengthAdjust="spacing" textLength="342" x="797" y="173.1064">+Client(citizenID, nhsID, birthDate, sex, TIN, phoneNumber, email, name)</text><!--MD5=[91b3cf26d1b89b60e05bb0e00ffb60b3]
class RCC--><rect codeLine="17" fill="#FEFECE" filter="url(#f1ajkkbdsnsy1m)" height="89.5078" id="RCC" style="stroke:#A80036;stroke-width:1.5;" width="165" x="190" y="176.5"/><ellipse cx="205" cy="192.5" fill="#ADD1B2" rx="11" ry="11" style="stroke:#A80036;stroke-width:1.0;"/><path d="M207,189 Q207.2031,188.5 207.4375,188.25 Q207.6719,188 207.9375,188 Q208.4063,188 208.7031,188.2813 Q209,188.5625 209,189.2188 L209,190.7813 Q209,191.4375 208.7188,191.7188 Q208.4375,192 208,192 Q207.6094,192 207.3594,191.8281 Q207.1094,191.6563 207,191.2031 Q206.9531,190.8906 206.7813,190.7188 Q206.4688,190.3906 205.9063,190.2031 Q205.3438,190 204.7813,190 Q204.0781,190 203.4844,190.2813 Q202.9063,190.5625 202.4531,191.1875 Q202,191.8125 202,192.6719 L202,193.5938 Q202,194.625 202.8438,195.3125 Q203.6875,196 205.1875,196 Q206.0781,196 206.7031,195.7969 Q207.0625,195.6875 207.4688,195.3281 Q207.7344,195.125 207.875,195.0625 Q208.0156,195 208.1875,195 Q208.5156,195 208.75,195.2656 Q209,195.5156 209,195.875 Q209,196.2188 208.6563,196.625 Q208.1563,197.2188 207.3594,197.5469 Q206.3125,198 205.0313,198 Q203.5313,198 202.3281,197.4063 Q201.3594,196.9375 200.6719,195.9219 Q200,194.9063 200,193.7031 L200,192.6094 Q200,191.3594 200.5938,190.2656 Q201.2031,189.1719 202.25,188.5938 Q203.3125,188 204.5,188 Q205.2188,188 205.8438,188.25 Q206.4688,188.5 207,189 Z " fill="#000000"/><text fill="#000000" font-family="sans-serif" font-size="12" lengthAdjust="spacing" textLength="133" x="219" y="197.4102">RegisterClientController</text><line style="stroke:#A80036;stroke-width:1.5;" x1="191" x2="354" y1="208.5" y2="208.5"/><line style="stroke:#A80036;stroke-width:1.5;" x1="191" x2="354" y1="216.5" y2="216.5"/><text fill="#000000" font-family="sans-serif" font-size="11" lengthAdjust="spacing" textLength="92" x="196" y="231.9189">+registerClient(dto)</text><text fill="#000000" font-family="sans-serif" font-size="11" lengthAdjust="spacing" textLength="72" x="196" y="245.7549">+saveClient(cl)</text><text fill="#000000" font-family="sans-serif" font-size="11" lengthAdjust="spacing" textLength="77" x="196" y="259.5908">-generatePwd()</text><!--MD5=[378b18254a1b2429f435e93f5e5cc50c]
class C--><rect codeLine="23" fill="#FEFECE" filter="url(#f1ajkkbdsnsy1m)" height="89.5078" id="C" style="stroke:#A80036;stroke-width:1.5;" width="104" x="438.5" y="51.5"/><ellipse cx="462.05" cy="67.5" fill="#ADD1B2" rx="11" ry="11" style="stroke:#A80036;stroke-width:1.0;"/><path d="M464.05,64 Q464.2531,63.5 464.4875,63.25 Q464.7219,63 464.9875,63 Q465.4563,63 465.7531,63.2813 Q466.05,63.5625 466.05,64.2188 L466.05,65.7813 Q466.05,66.4375 465.7688,66.7188 Q465.4875,67 465.05,67 Q464.6594,67 464.4094,66.8281 Q464.1594,66.6563 464.05,66.2031 Q464.0031,65.8906 463.8313,65.7188 Q463.5188,65.3906 462.9563,65.2031 Q462.3938,65 461.8313,65 Q461.1281,65 460.5344,65.2813 Q459.9563,65.5625 459.5031,66.1875 Q459.05,66.8125 459.05,67.6719 L459.05,68.5938 Q459.05,69.625 459.8938,70.3125 Q460.7375,71 462.2375,71 Q463.1281,71 463.7531,70.7969 Q464.1125,70.6875 464.5188,70.3281 Q464.7844,70.125 464.925,70.0625 Q465.0656,70 465.2375,70 Q465.5656,70 465.8,70.2656 Q466.05,70.5156 466.05,70.875 Q466.05,71.2188 465.7063,71.625 Q465.2063,72.2188 464.4094,72.5469 Q463.3625,73 462.0813,73 Q460.5813,73 459.3781,72.4063 Q458.4094,71.9375 457.7219,70.9219 Q457.05,69.9063 457.05,68.7031 L457.05,67.6094 Q457.05,66.3594 457.6438,65.2656 Q458.2531,64.1719 459.3,63.5938 Q460.3625,63 461.55,63 Q462.2688,63 462.8938,63.25 Q463.5188,63.5 464.05,64 Z " fill="#000000"/><text fill="#000000" font-family="sans-serif" font-size="12" lengthAdjust="spacing" textLength="53" x="477.95" y="72.4102">Company</text><line style="stroke:#A80036;stroke-width:1.5;" x1="439.5" x2="541.5" y1="83.5" y2="83.5"/><text fill="#000000" font-family="sans-serif" font-size="11" lengthAdjust="spacing" textLength="59" x="444.5" y="98.9189">-designation</text><line style="stroke:#A80036;stroke-width:1.5;" x1="439.5" x2="541.5" y1="105.3359" y2="105.3359"/><text fill="#000000" font-family="sans-serif" font-size="11" lengthAdjust="spacing" textLength="92" x="444.5" y="120.7549">+registerClient(dto)</text><text fill="#000000" font-family="sans-serif" font-size="11" lengthAdjust="spacing" textLength="81" x="444.5" y="134.5908">+getClientStore()</text><!--MD5=[6607342f88ea4d5512af33272a4f67dd]
class RCUI--><rect codeLine="29" fill="#FEFECE" filter="url(#f1ajkkbdsnsy1m)" height="48" id="RCUI" style="stroke:#A80036;stroke-width:1.5;" width="123" x="7" y="197.5"/><ellipse cx="22" cy="213.5" fill="#ADD1B2" rx="11" ry="11" style="stroke:#A80036;stroke-width:1.0;"/><path d="M24,210 Q24.2031,209.5 24.4375,209.25 Q24.6719,209 24.9375,209 Q25.4063,209 25.7031,209.2813 Q26,209.5625 26,210.2188 L26,211.7813 Q26,212.4375 25.7188,212.7188 Q25.4375,213 25,213 Q24.6094,213 24.3594,212.8281 Q24.1094,212.6563 24,212.2031 Q23.9531,211.8906 23.7813,211.7188 Q23.4688,211.3906 22.9063,211.2031 Q22.3438,211 21.7813,211 Q21.0781,211 20.4844,211.2813 Q19.9063,211.5625 19.4531,212.1875 Q19,212.8125 19,213.6719 L19,214.5938 Q19,215.625 19.8438,216.3125 Q20.6875,217 22.1875,217 Q23.0781,217 23.7031,216.7969 Q24.0625,216.6875 24.4688,216.3281 Q24.7344,216.125 24.875,216.0625 Q25.0156,216 25.1875,216 Q25.5156,216 25.75,216.2656 Q26,216.5156 26,216.875 Q26,217.2188 25.6563,217.625 Q25.1563,218.2188 24.3594,218.5469 Q23.3125,219 22.0313,219 Q20.5313,219 19.3281,218.4063 Q18.3594,217.9375 17.6719,216.9219 Q17,215.9063 17,214.7031 L17,213.6094 Q17,212.3594 17.5938,211.2656 Q18.2031,210.1719 19.25,209.5938 Q20.3125,209 21.5,209 Q22.2188,209 22.8438,209.25 Q23.4688,209.5 24,210 Z " fill="#000000"/><text fill="#000000" font-family="sans-serif" font-size="12" lengthAdjust="spacing" textLength="91" x="36" y="218.4102">RegisterClientUI</text><line style="stroke:#A80036;stroke-width:1.5;" x1="8" x2="129" y1="229.5" y2="229.5"/><line style="stroke:#A80036;stroke-width:1.5;" x1="8" x2="129" y1="237.5" y2="237.5"/><!--MD5=[d68c9369472fd2c8081ca2424f4233ba]
class CS--><rect codeLine="31" fill="#FEFECE" filter="url(#f1ajkkbdsnsy1m)" height="89.5078" id="CS" style="stroke:#A80036;stroke-width:1.5;" width="95" x="443" y="176.5"/><ellipse cx="458.9" cy="192.5" fill="#ADD1B2" rx="11" ry="11" style="stroke:#A80036;stroke-width:1.0;"/><path d="M460.9,189 Q461.1031,188.5 461.3375,188.25 Q461.5719,188 461.8375,188 Q462.3063,188 462.6031,188.2813 Q462.9,188.5625 462.9,189.2188 L462.9,190.7813 Q462.9,191.4375 462.6188,191.7188 Q462.3375,192 461.9,192 Q461.5094,192 461.2594,191.8281 Q461.0094,191.6563 460.9,191.2031 Q460.8531,190.8906 460.6813,190.7188 Q460.3688,190.3906 459.8063,190.2031 Q459.2438,190 458.6813,190 Q457.9781,190 457.3844,190.2813 Q456.8063,190.5625 456.3531,191.1875 Q455.9,191.8125 455.9,192.6719 L455.9,193.5938 Q455.9,194.625 456.7438,195.3125 Q457.5875,196 459.0875,196 Q459.9781,196 460.6031,195.7969 Q460.9625,195.6875 461.3688,195.3281 Q461.6344,195.125 461.775,195.0625 Q461.9156,195 462.0875,195 Q462.4156,195 462.65,195.2656 Q462.9,195.5156 462.9,195.875 Q462.9,196.2188 462.5563,196.625 Q462.0563,197.2188 461.2594,197.5469 Q460.2125,198 458.9313,198 Q457.4313,198 456.2281,197.4063 Q455.2594,196.9375 454.5719,195.9219 Q453.9,194.9063 453.9,193.7031 L453.9,192.6094 Q453.9,191.3594 454.4938,190.2656 Q455.1031,189.1719 456.15,188.5938 Q457.2125,188 458.4,188 Q459.1188,188 459.7438,188.25 Q460.3688,188.5 460.9,189 Z " fill="#000000"/><text fill="#000000" font-family="sans-serif" font-size="12" lengthAdjust="spacing" textLength="61" x="473.1" y="197.4102">ClientStore</text><line style="stroke:#A80036;stroke-width:1.5;" x1="444" x2="537" y1="208.5" y2="208.5"/><line style="stroke:#A80036;stroke-width:1.5;" x1="444" x2="537" y1="216.5" y2="216.5"/><text fill="#000000" font-family="sans-serif" font-size="11" lengthAdjust="spacing" textLength="72" x="449" y="231.9189">+saveClient(cl)</text><text fill="#000000" font-family="sans-serif" font-size="11" lengthAdjust="spacing" textLength="83" x="449" y="245.7549">-validateClient(cl)</text><text fill="#000000" font-family="sans-serif" font-size="11" lengthAdjust="spacing" textLength="64" x="449" y="259.5908">-addClient(cl)</text><!--MD5=[915254f0803c3d2aae1c408da3c94866]
class AF--><rect codeLine="37" fill="#FEFECE" filter="url(#f1ajkkbdsnsy1m)" height="61.8359" id="AF" style="stroke:#A80036;stroke-width:1.5;" width="151" x="415" y="301.5"/><ellipse cx="454.3" cy="317.5" fill="#ADD1B2" rx="11" ry="11" style="stroke:#A80036;stroke-width:1.0;"/><path d="M456.3,314 Q456.5031,313.5 456.7375,313.25 Q456.9719,313 457.2375,313 Q457.7063,313 458.0031,313.2813 Q458.3,313.5625 458.3,314.2188 L458.3,315.7813 Q458.3,316.4375 458.0188,316.7188 Q457.7375,317 457.3,317 Q456.9094,317 456.6594,316.8281 Q456.4094,316.6563 456.3,316.2031 Q456.2531,315.8906 456.0813,315.7188 Q455.7688,315.3906 455.2063,315.2031 Q454.6438,315 454.0813,315 Q453.3781,315 452.7844,315.2813 Q452.2063,315.5625 451.7531,316.1875 Q451.3,316.8125 451.3,317.6719 L451.3,318.5938 Q451.3,319.625 452.1438,320.3125 Q452.9875,321 454.4875,321 Q455.3781,321 456.0031,320.7969 Q456.3625,320.6875 456.7688,320.3281 Q457.0344,320.125 457.175,320.0625 Q457.3156,320 457.4875,320 Q457.8156,320 458.05,320.2656 Q458.3,320.5156 458.3,320.875 Q458.3,321.2188 457.9563,321.625 Q457.4563,322.2188 456.6594,322.5469 Q455.6125,323 454.3313,323 Q452.8313,323 451.6281,322.4063 Q450.6594,321.9375 449.9719,320.9219 Q449.3,319.9063 449.3,318.7031 L449.3,317.6094 Q449.3,316.3594 449.8938,315.2656 Q450.5031,314.1719 451.55,313.5938 Q452.6125,313 453.8,313 Q454.5188,313 455.1438,313.25 Q455.7688,313.5 456.3,314 Z " fill="#000000"/><text fill="#000000" font-family="sans-serif" font-size="12" lengthAdjust="spacing" textLength="65" x="473.7" y="322.4102">AuthFacade</text><line style="stroke:#A80036;stroke-width:1.5;" x1="416" x2="565" y1="333.5" y2="333.5"/><line style="stroke:#A80036;stroke-width:1.5;" x1="416" x2="565" y1="341.5" y2="341.5"/><text fill="#000000" font-family="sans-serif" font-size="11" lengthAdjust="spacing" textLength="139" x="421" y="356.9189">+addUser(email, name, pwd)</text><!--MD5=[b51a48545b57ed746174dec4d85d68c2]
class CDTO--><rect codeLine="41" fill="#FEFECE" filter="url(#f1ajkkbdsnsy1m)" height="269.375" id="CDTO" style="stroke:#A80036;stroke-width:1.5;" width="108" x="914" y="215"/><ellipse cx="940.25" cy="231" fill="#ADD1B2" rx="11" ry="11" style="stroke:#A80036;stroke-width:1.0;"/><path d="M942.25,227.5 Q942.4531,227 942.6875,226.75 Q942.9219,226.5 943.1875,226.5 Q943.6563,226.5 943.9531,226.7813 Q944.25,227.0625 944.25,227.7188 L944.25,229.2813 Q944.25,229.9375 943.9688,230.2188 Q943.6875,230.5 943.25,230.5 Q942.8594,230.5 942.6094,230.3281 Q942.3594,230.1563 942.25,229.7031 Q942.2031,229.3906 942.0313,229.2188 Q941.7188,228.8906 941.1563,228.7031 Q940.5938,228.5 940.0313,228.5 Q939.3281,228.5 938.7344,228.7813 Q938.1563,229.0625 937.7031,229.6875 Q937.25,230.3125 937.25,231.1719 L937.25,232.0938 Q937.25,233.125 938.0938,233.8125 Q938.9375,234.5 940.4375,234.5 Q941.3281,234.5 941.9531,234.2969 Q942.3125,234.1875 942.7188,233.8281 Q942.9844,233.625 943.125,233.5625 Q943.2656,233.5 943.4375,233.5 Q943.7656,233.5 944,233.7656 Q944.25,234.0156 944.25,234.375 Q944.25,234.7188 943.9063,235.125 Q943.4063,235.7188 942.6094,236.0469 Q941.5625,236.5 940.2813,236.5 Q938.7813,236.5 937.5781,235.9063 Q936.6094,235.4375 935.9219,234.4219 Q935.25,233.4063 935.25,232.2031 L935.25,231.1094 Q935.25,229.8594 935.8438,228.7656 Q936.4531,227.6719 937.5,227.0938 Q938.5625,226.5 939.75,226.5 Q940.4688,226.5 941.0938,226.75 Q941.7188,227 942.25,227.5 Z " fill="#000000"/><text fill="#000000" font-family="sans-serif" font-size="12" lengthAdjust="spacing" textLength="51" x="956.75" y="235.9102">ClientDto</text><line style="stroke:#A80036;stroke-width:1.5;" x1="915" x2="1021" y1="247" y2="247"/><text fill="#000000" font-family="sans-serif" font-size="11" lengthAdjust="spacing" textLength="44" x="920" y="262.4189">-citizenID</text><text fill="#000000" font-family="sans-serif" font-size="11" lengthAdjust="spacing" textLength="31" x="920" y="276.2549">-nhsID</text><text fill="#000000" font-family="sans-serif" font-size="11" lengthAdjust="spacing" textLength="47" x="920" y="290.0908">-birthDate</text><text fill="#000000" font-family="sans-serif" font-size="11" lengthAdjust="spacing" textLength="22" x="920" y="303.9268">-sex</text><text fill="#000000" font-family="sans-serif" font-size="11" lengthAdjust="spacing" textLength="19" x="920" y="317.7627">-TIN</text><text fill="#000000" font-family="sans-serif" font-size="11" lengthAdjust="spacing" textLength="71" x="920" y="331.5986">-phoneNumber</text><text fill="#000000" font-family="sans-serif" font-size="11" lengthAdjust="spacing" textLength="28" x="920" y="345.4346">-email</text><text fill="#000000" font-family="sans-serif" font-size="11" lengthAdjust="spacing" textLength="30" x="920" y="359.2705">-name</text><line style="stroke:#A80036;stroke-width:1.5;" x1="915" x2="1021" y1="365.6875" y2="365.6875"/><text fill="#000000" font-family="sans-serif" font-size="11" lengthAdjust="spacing" textLength="70" x="920" y="381.1064">+getCitizenID()</text><text fill="#000000" font-family="sans-serif" font-size="11" lengthAdjust="spacing" textLength="57" x="920" y="394.9424">+getNhsID()</text><text fill="#000000" font-family="sans-serif" font-size="11" lengthAdjust="spacing" textLength="73" x="920" y="408.7783">+getBirthDate()</text><text fill="#000000" font-family="sans-serif" font-size="11" lengthAdjust="spacing" textLength="48" x="920" y="422.6143">+getSex()</text><text fill="#000000" font-family="sans-serif" font-size="11" lengthAdjust="spacing" textLength="44" x="920" y="436.4502">+getTIN()</text><text fill="#000000" font-family="sans-serif" font-size="11" lengthAdjust="spacing" textLength="96" x="920" y="450.2861">+getPhoneNumber()</text><text fill="#000000" font-family="sans-serif" font-size="11" lengthAdjust="spacing" textLength="53" x="920" y="464.1221">+getEmail()</text><text fill="#000000" font-family="sans-serif" font-size="11" lengthAdjust="spacing" textLength="56" x="920" y="477.958">+getName()</text><!--MD5=[922d291f43d024f1166d0eae9b0ee0bb]
class CM--><rect codeLine="60" fill="#FEFECE" filter="url(#f1ajkkbdsnsy1m)" height="61.8359" id="CM" style="stroke:#A80036;stroke-width:1.5;" width="105" x="626" y="190.5"/><ellipse cx="641" cy="206.5" fill="#ADD1B2" rx="11" ry="11" style="stroke:#A80036;stroke-width:1.0;"/><path d="M643,203 Q643.2031,202.5 643.4375,202.25 Q643.6719,202 643.9375,202 Q644.4063,202 644.7031,202.2813 Q645,202.5625 645,203.2188 L645,204.7813 Q645,205.4375 644.7188,205.7188 Q644.4375,206 644,206 Q643.6094,206 643.3594,205.8281 Q643.1094,205.6563 643,205.2031 Q642.9531,204.8906 642.7813,204.7188 Q642.4688,204.3906 641.9063,204.2031 Q641.3438,204 640.7813,204 Q640.0781,204 639.4844,204.2813 Q638.9063,204.5625 638.4531,205.1875 Q638,205.8125 638,206.6719 L638,207.5938 Q638,208.625 638.8438,209.3125 Q639.6875,210 641.1875,210 Q642.0781,210 642.7031,209.7969 Q643.0625,209.6875 643.4688,209.3281 Q643.7344,209.125 643.875,209.0625 Q644.0156,209 644.1875,209 Q644.5156,209 644.75,209.2656 Q645,209.5156 645,209.875 Q645,210.2188 644.6563,210.625 Q644.1563,211.2188 643.3594,211.5469 Q642.3125,212 641.0313,212 Q639.5313,212 638.3281,211.4063 Q637.3594,210.9375 636.6719,209.9219 Q636,208.9063 636,207.7031 L636,206.6094 Q636,205.3594 636.5938,204.2656 Q637.2031,203.1719 638.25,202.5938 Q639.3125,202 640.5,202 Q641.2188,202 641.8438,202.25 Q642.4688,202.5 643,203 Z " fill="#000000"/><text fill="#000000" font-family="sans-serif" font-size="12" lengthAdjust="spacing" textLength="73" x="655" y="211.4102">ClientMapper</text><line style="stroke:#A80036;stroke-width:1.5;" x1="627" x2="730" y1="222.5" y2="222.5"/><line style="stroke:#A80036;stroke-width:1.5;" x1="627" x2="730" y1="230.5" y2="230.5"/><text fill="#000000" font-family="sans-serif" font-size="11" lengthAdjust="spacing" textLength="66" x="632" y="245.9189">+toModel(dto)</text><!--MD5=[28baf592f02d17f122e91447d2aa70c9]
class US--><rect codeLine="64" fill="#FEFECE" filter="url(#f1ajkkbdsnsy1m)" height="61.8359" id="US" style="stroke:#A80036;stroke-width:1.5;" width="88" x="634.5" y="301.5"/><ellipse cx="649.5" cy="317.5" fill="#ADD1B2" rx="11" ry="11" style="stroke:#A80036;stroke-width:1.0;"/><path d="M651.5,314 Q651.7031,313.5 651.9375,313.25 Q652.1719,313 652.4375,313 Q652.9063,313 653.2031,313.2813 Q653.5,313.5625 653.5,314.2188 L653.5,315.7813 Q653.5,316.4375 653.2188,316.7188 Q652.9375,317 652.5,317 Q652.1094,317 651.8594,316.8281 Q651.6094,316.6563 651.5,316.2031 Q651.4531,315.8906 651.2813,315.7188 Q650.9688,315.3906 650.4063,315.2031 Q649.8438,315 649.2813,315 Q648.5781,315 647.9844,315.2813 Q647.4063,315.5625 646.9531,316.1875 Q646.5,316.8125 646.5,317.6719 L646.5,318.5938 Q646.5,319.625 647.3438,320.3125 Q648.1875,321 649.6875,321 Q650.5781,321 651.2031,320.7969 Q651.5625,320.6875 651.9688,320.3281 Q652.2344,320.125 652.375,320.0625 Q652.5156,320 652.6875,320 Q653.0156,320 653.25,320.2656 Q653.5,320.5156 653.5,320.875 Q653.5,321.2188 653.1563,321.625 Q652.6563,322.2188 651.8594,322.5469 Q650.8125,323 649.5313,323 Q648.0313,323 646.8281,322.4063 Q645.8594,321.9375 645.1719,320.9219 Q644.5,319.9063 644.5,318.7031 L644.5,317.6094 Q644.5,316.3594 645.0938,315.2656 Q645.7031,314.1719 646.75,313.5938 Q647.8125,313 649,313 Q649.7188,313 650.3438,313.25 Q650.9688,313.5 651.5,314 Z " fill="#000000"/><text fill="#000000" font-family="sans-serif" font-size="12" lengthAdjust="spacing" textLength="56" x="663.5" y="322.4102">UserStore</text><line style="stroke:#A80036;stroke-width:1.5;" x1="635.5" x2="721.5" y1="333.5" y2="333.5"/><line style="stroke:#A80036;stroke-width:1.5;" x1="635.5" x2="721.5" y1="341.5" y2="341.5"/><text fill="#000000" font-family="sans-serif" font-size="11" lengthAdjust="spacing" textLength="54" x="640.5" y="356.9189">+add(user)</text><!--MD5=[22d24ce031bb8fb0665d610f51f0098c]
link RCUI to RCC--><path codeLine="68" d="M130.11,221.5 C147.21,221.5 166.16,221.5 184.49,221.5 " fill="none" id="RCUI-to-RCC" style="stroke:#A80036;stroke-width:1.0;stroke-dasharray:7.0,7.0;"/><polygon fill="#A80036" points="189.64,221.5,180.64,217.5,184.64,221.5,180.64,225.5,189.64,221.5" style="stroke:#A80036;stroke-width:1.0;"/><!--MD5=[8a3fdab9360909f548be38dcef9784b7]
link RCC to C--><path codeLine="69" d="M351.48,176.37 C378.67,160.64 408.62,143.31 433.65,128.82 " fill="none" id="RCC-to-C" style="stroke:#A80036;stroke-width:1.0;stroke-dasharray:7.0,7.0;"/><polygon fill="#A80036" points="438.26,126.15,428.4659,127.1874,433.9303,128.6507,432.467,134.115,438.26,126.15" style="stroke:#A80036;stroke-width:1.0;"/><!--MD5=[8d6ab7d2203ad9593f218ad834e7871f]
link RCC to CS--><path codeLine="70" d="M355.16,221.5 C382.82,221.5 412.94,221.5 437.63,221.5 " fill="none" id="RCC-to-CS" style="stroke:#A80036;stroke-width:1.0;stroke-dasharray:7.0,7.0;"/><polygon fill="#A80036" points="442.81,221.5,433.81,217.5,437.81,221.5,433.81,225.5,442.81,221.5" style="stroke:#A80036;stroke-width:1.0;"/><!--MD5=[e554279004f3a6997af11d9b793862a2]
link CS to CM--><path codeLine="71" d="M538.44,221.5 C563.46,221.5 594.43,221.5 620.79,221.5 " fill="none" id="CS-to-CM" style="stroke:#A80036;stroke-width:1.0;stroke-dasharray:7.0,7.0;"/><polygon fill="#A80036" points="626,221.5,617,217.5,621,221.5,617,225.5,626,221.5" style="stroke:#A80036;stroke-width:1.0;"/><!--MD5=[86f5a3264f4d48fbe5500b7a77bd55a7]
link CM to CDTO--><path codeLine="72" d="M731.23,244.53 C781.29,266.82 857.04,300.54 909.09,323.72 " fill="none" id="CM-to-CDTO" style="stroke:#A80036;stroke-width:1.0;stroke-dasharray:7.0,7.0;"/><polygon fill="#A80036" points="913.74,325.79,907.136,318.4833,909.1698,323.762,903.8911,325.7957,913.74,325.79" style="stroke:#A80036;stroke-width:1.0;"/><!--MD5=[8b531695d0551b3459f81ca4f7d7257d]
link CM to cl--><path codeLine="73" d="M731.23,198.47 C747.4,191.27 766.24,182.88 786.1,174.04 " fill="none" id="CM-to-cl" style="stroke:#A80036;stroke-width:1.0;stroke-dasharray:7.0,7.0;"/><polygon fill="#A80036" points="790.89,171.91,781.0411,171.9043,786.3198,173.938,784.286,179.2167,790.89,171.91" style="stroke:#A80036;stroke-width:1.0;"/><!--MD5=[d183c000ad698df6291413730155c6a7]
link RCC to AF--><path codeLine="74" d="M355.16,263.46 C378.02,275.21 402.57,287.83 424.34,299.01 " fill="none" id="RCC-to-AF" style="stroke:#A80036;stroke-width:1.0;stroke-dasharray:7.0,7.0;"/><polygon fill="#A80036" points="428.94,301.38,422.7669,293.7058,424.4939,299.0926,419.1071,300.8196,428.94,301.38" style="stroke:#A80036;stroke-width:1.0;"/><!--MD5=[a140f55edfd961a977428009007a8ceb]
link AF to US--><path codeLine="75" d="M566.08,332.5 C587.33,332.5 609.91,332.5 629.15,332.5 " fill="none" id="AF-to-US" style="stroke:#A80036;stroke-width:1.0;stroke-dasharray:7.0,7.0;"/><polygon fill="#A80036" points="634.49,332.5,625.49,328.5,629.49,332.5,625.49,336.5,634.49,332.5" style="stroke:#A80036;stroke-width:1.0;"/><!--MD5=[b43828307bddd45b25ee45fc614c6865]
@startuml
'https://plantuml.com/class-diagram

skinparam classAttributeIconSize 0
left to right direction

class "Client" as cl {
-citizenID
-nhsID
-birthDate
-sex
-TIN
-phoneNumber
-email
-name
+Client(citizenID, nhsID, birthDate, sex, TIN, phoneNumber, email, name)
}
class "RegisterClientController" as RCC {
+registerClient(dto)
+saveClient(cl)
-generatePwd()
}

class "Company" as C {
-designation
+registerClient(dto)
+getClientStore()
}

class "RegisterClientUI" as RCUI

class "ClientStore" as CS {
+saveClient(cl)
-validateClient(cl)
-addClient(cl)
}

class "AuthFacade" as AF {
+addUser(email, name, pwd)
}

class "ClientDto" as CDTO {
-citizenID
-nhsID
-birthDate
-sex
-TIN
-phoneNumber
-email
-name
+getCitizenID()
+getNhsID()
+getBirthDate()
+getSex()
+getTIN()
+getPhoneNumber()
+getEmail()
+getName()
}

class "ClientMapper" as CM {
+toModel(dto)
}

class "UserStore" as US {
+add(user)
}

RCUI ..> RCC
RCC ..> C
RCC ..> CS
CS ..> CM
CM ..> CDTO
CM ..> cl
RCC ..> AF
AF ..> US

@enduml

@startuml

skinparam classAttributeIconSize 0
left to right direction

class "Client" as cl {
-citizenID
-nhsID
-birthDate
-sex
-TIN
-phoneNumber
-email
-name
+Client(citizenID, nhsID, birthDate, sex, TIN, phoneNumber, email, name)
}
class "RegisterClientController" as RCC {
+registerClient(dto)
+saveClient(cl)
-generatePwd()
}

class "Company" as C {
-designation
+registerClient(dto)
+getClientStore()
}

class "RegisterClientUI" as RCUI

class "ClientStore" as CS {
+saveClient(cl)
-validateClient(cl)
-addClient(cl)
}

class "AuthFacade" as AF {
+addUser(email, name, pwd)
}

class "ClientDto" as CDTO {
-citizenID
-nhsID
-birthDate
-sex
-TIN
-phoneNumber
-email
-name
+getCitizenID()
+getNhsID()
+getBirthDate()
+getSex()
+getTIN()
+getPhoneNumber()
+getEmail()
+getName()
}

class "ClientMapper" as CM {
+toModel(dto)
}

class "UserStore" as US {
+add(user)
}

RCUI ..> RCC
RCC ..> C
RCC ..> CS
CS ..> CM
CM ..> CDTO
CM ..> cl
RCC ..> AF
AF ..> US

@enduml

PlantUML version 1.2021.4(Sun Apr 04 09:49:39 BST 2021)
(GPL source distribution)
Java Runtime: OpenJDK Runtime Environment
JVM: OpenJDK 64-Bit Server VM
Default Encoding: Cp1252
Language: pt
Country: PT
--></g></svg>