<?xml version="1.0" encoding="UTF-8" standalone="no"?><svg xmlns="http://www.w3.org/2000/svg" xmlns:xlink="http://www.w3.org/1999/xlink" contentScriptType="application/ecmascript" contentStyleType="text/css" height="607px" preserveAspectRatio="none" style="width:846px;height:607px;" version="1.1" viewBox="0 0 846 607" width="846px" zoomAndPan="magnify"><defs><filter height="300%" id="f1c1r4ojbqdmva" width="300%" x="-1" y="-1"><feGaussianBlur result="blurOut" stdDeviation="2.0"/><feColorMatrix in="blurOut" result="blurOut2" type="matrix" values="0 0 0 0 0 0 0 0 0 0 0 0 0 0 0 0 0 0 .4 0"/><feOffset dx="4.0" dy="4.0" in="blurOut2" result="blurOut3"/><feBlend in="SourceGraphic" in2="blurOut3" mode="normal"/></filter></defs><g><!--MD5=[c75e629d71444dd998043aef5ce1a035]
class R--><rect codeLine="4" fill="#FEFECE" filter="url(#f1c1r4ojbqdmva)" height="89.5078" id="R" style="stroke:#A80036;stroke-width:1.5;" width="391" x="214.5" y="253"/><ellipse cx="371.25" cy="269" fill="#ADD1B2" rx="11" ry="11" style="stroke:#A80036;stroke-width:1.0;"/><path d="M373.25,265.5 Q373.4531,265 373.6875,264.75 Q373.9219,264.5 374.1875,264.5 Q374.6563,264.5 374.9531,264.7813 Q375.25,265.0625 375.25,265.7188 L375.25,267.2813 Q375.25,267.9375 374.9688,268.2188 Q374.6875,268.5 374.25,268.5 Q373.8594,268.5 373.6094,268.3281 Q373.3594,268.1563 373.25,267.7031 Q373.2031,267.3906 373.0313,267.2188 Q372.7188,266.8906 372.1563,266.7031 Q371.5938,266.5 371.0313,266.5 Q370.3281,266.5 369.7344,266.7813 Q369.1563,267.0625 368.7031,267.6875 Q368.25,268.3125 368.25,269.1719 L368.25,270.0938 Q368.25,271.125 369.0938,271.8125 Q369.9375,272.5 371.4375,272.5 Q372.3281,272.5 372.9531,272.2969 Q373.3125,272.1875 373.7188,271.8281 Q373.9844,271.625 374.125,271.5625 Q374.2656,271.5 374.4375,271.5 Q374.7656,271.5 375,271.7656 Q375.25,272.0156 375.25,272.375 Q375.25,272.7188 374.9063,273.125 Q374.4063,273.7188 373.6094,274.0469 Q372.5625,274.5 371.2813,274.5 Q369.7813,274.5 368.5781,273.9063 Q367.6094,273.4375 366.9219,272.4219 Q366.25,271.4063 366.25,270.2031 L366.25,269.1094 Q366.25,267.8594 366.8438,266.7656 Q367.4531,265.6719 368.5,265.0938 Q369.5625,264.5 370.75,264.5 Q371.4688,264.5 372.0938,264.75 Q372.7188,265 373.25,265.5 Z " fill="#000000"/><text fill="#000000" font-family="sans-serif" font-size="12" lengthAdjust="spacing" textLength="69" x="391.75" y="273.9102">Receptionist</text><line style="stroke:#A80036;stroke-width:1.5;" x1="215.5" x2="604.5" y1="285" y2="285"/><line style="stroke:#A80036;stroke-width:1.5;" x1="215.5" x2="604.5" y1="293" y2="293"/><text fill="#000000" font-family="sans-serif" font-size="11" lengthAdjust="spacing" textLength="379" x="220.5" y="308.4189">+registerClient(citizenID, nhsID, birthDate, sex, TIN, phoneNumber, email, name)</text><text fill="#000000" font-family="sans-serif" font-size="11" lengthAdjust="spacing" textLength="85" x="220.5" y="322.2549">+validateClient(cl)</text><text fill="#000000" font-family="sans-serif" font-size="11" lengthAdjust="spacing" textLength="72" x="220.5" y="336.0908">+saveClient(cl)</text><!--MD5=[faa9b2874725d030a61715b000656859]
class cl--><rect codeLine="9" fill="#FEFECE" filter="url(#f1c1r4ojbqdmva)" height="172.5234" id="cl" style="stroke:#A80036;stroke-width:1.5;" width="354" x="7" y="421"/><ellipse cx="163.75" cy="437" fill="#ADD1B2" rx="11" ry="11" style="stroke:#A80036;stroke-width:1.0;"/><path d="M165.75,433.5 Q165.9531,433 166.1875,432.75 Q166.4219,432.5 166.6875,432.5 Q167.1563,432.5 167.4531,432.7813 Q167.75,433.0625 167.75,433.7188 L167.75,435.2813 Q167.75,435.9375 167.4688,436.2188 Q167.1875,436.5 166.75,436.5 Q166.3594,436.5 166.1094,436.3281 Q165.8594,436.1563 165.75,435.7031 Q165.7031,435.3906 165.5313,435.2188 Q165.2188,434.8906 164.6563,434.7031 Q164.0938,434.5 163.5313,434.5 Q162.8281,434.5 162.2344,434.7813 Q161.6563,435.0625 161.2031,435.6875 Q160.75,436.3125 160.75,437.1719 L160.75,438.0938 Q160.75,439.125 161.5938,439.8125 Q162.4375,440.5 163.9375,440.5 Q164.8281,440.5 165.4531,440.2969 Q165.8125,440.1875 166.2188,439.8281 Q166.4844,439.625 166.625,439.5625 Q166.7656,439.5 166.9375,439.5 Q167.2656,439.5 167.5,439.7656 Q167.75,440.0156 167.75,440.375 Q167.75,440.7188 167.4063,441.125 Q166.9063,441.7188 166.1094,442.0469 Q165.0625,442.5 163.7813,442.5 Q162.2813,442.5 161.0781,441.9063 Q160.1094,441.4375 159.4219,440.4219 Q158.75,439.4063 158.75,438.2031 L158.75,437.1094 Q158.75,435.8594 159.3438,434.7656 Q159.9531,433.6719 161,433.0938 Q162.0625,432.5 163.25,432.5 Q163.9688,432.5 164.5938,432.75 Q165.2188,433 165.75,433.5 Z " fill="#000000"/><text fill="#000000" font-family="sans-serif" font-size="12" lengthAdjust="spacing" textLength="32" x="184.25" y="441.9102">Client</text><line style="stroke:#A80036;stroke-width:1.5;" x1="8" x2="360" y1="453" y2="453"/><text fill="#000000" font-family="sans-serif" font-size="11" lengthAdjust="spacing" textLength="44" x="13" y="468.4189">-citizenID</text><text fill="#000000" font-family="sans-serif" font-size="11" lengthAdjust="spacing" textLength="31" x="13" y="482.2549">-nhsID</text><text fill="#000000" font-family="sans-serif" font-size="11" lengthAdjust="spacing" textLength="47" x="13" y="496.0908">-birthDate</text><text fill="#000000" font-family="sans-serif" font-size="11" lengthAdjust="spacing" textLength="22" x="13" y="509.9268">-sex</text><text fill="#000000" font-family="sans-serif" font-size="11" lengthAdjust="spacing" textLength="19" x="13" y="523.7627">-TIN</text><text fill="#000000" font-family="sans-serif" font-size="11" lengthAdjust="spacing" textLength="71" x="13" y="537.5986">-phoneNumber</text><text fill="#000000" font-family="sans-serif" font-size="11" lengthAdjust="spacing" textLength="28" x="13" y="551.4346">-email</text><text fill="#000000" font-family="sans-serif" font-size="11" lengthAdjust="spacing" textLength="30" x="13" y="565.2705">-name</text><line style="stroke:#A80036;stroke-width:1.5;" x1="8" x2="360" y1="571.6875" y2="571.6875"/><text fill="#000000" font-family="sans-serif" font-size="11" lengthAdjust="spacing" textLength="342" x="13" y="587.1064">+Client(citizenID, nhsID, birthDate, sex, TIN, phoneNumber, email, name)</text><!--MD5=[91b3cf26d1b89b60e05bb0e00ffb60b3]
class RCC--><rect codeLine="20" fill="#FEFECE" filter="url(#f1c1r4ojbqdmva)" height="75.6719" id="RCC" style="stroke:#A80036;stroke-width:1.5;" width="391" x="214.5" y="116"/><ellipse cx="339.25" cy="132" fill="#ADD1B2" rx="11" ry="11" style="stroke:#A80036;stroke-width:1.0;"/><path d="M341.25,128.5 Q341.4531,128 341.6875,127.75 Q341.9219,127.5 342.1875,127.5 Q342.6563,127.5 342.9531,127.7813 Q343.25,128.0625 343.25,128.7188 L343.25,130.2813 Q343.25,130.9375 342.9688,131.2188 Q342.6875,131.5 342.25,131.5 Q341.8594,131.5 341.6094,131.3281 Q341.3594,131.1563 341.25,130.7031 Q341.2031,130.3906 341.0313,130.2188 Q340.7188,129.8906 340.1563,129.7031 Q339.5938,129.5 339.0313,129.5 Q338.3281,129.5 337.7344,129.7813 Q337.1563,130.0625 336.7031,130.6875 Q336.25,131.3125 336.25,132.1719 L336.25,133.0938 Q336.25,134.125 337.0938,134.8125 Q337.9375,135.5 339.4375,135.5 Q340.3281,135.5 340.9531,135.2969 Q341.3125,135.1875 341.7188,134.8281 Q341.9844,134.625 342.125,134.5625 Q342.2656,134.5 342.4375,134.5 Q342.7656,134.5 343,134.7656 Q343.25,135.0156 343.25,135.375 Q343.25,135.7188 342.9063,136.125 Q342.4063,136.7188 341.6094,137.0469 Q340.5625,137.5 339.2813,137.5 Q337.7813,137.5 336.5781,136.9063 Q335.6094,136.4375 334.9219,135.4219 Q334.25,134.4063 334.25,133.2031 L334.25,132.1094 Q334.25,130.8594 334.8438,129.7656 Q335.4531,128.6719 336.5,128.0938 Q337.5625,127.5 338.75,127.5 Q339.4688,127.5 340.0938,127.75 Q340.7188,128 341.25,128.5 Z " fill="#000000"/><text fill="#000000" font-family="sans-serif" font-size="12" lengthAdjust="spacing" textLength="133" x="359.75" y="136.9102">RegisterClientController</text><line style="stroke:#A80036;stroke-width:1.5;" x1="215.5" x2="604.5" y1="148" y2="148"/><line style="stroke:#A80036;stroke-width:1.5;" x1="215.5" x2="604.5" y1="156" y2="156"/><text fill="#000000" font-family="sans-serif" font-size="11" lengthAdjust="spacing" textLength="379" x="220.5" y="171.4189">+registerClient(citizenID, nhsID, birthDate, sex, TIN, phoneNumber, email, name)</text><text fill="#000000" font-family="sans-serif" font-size="11" lengthAdjust="spacing" textLength="64" x="220.5" y="185.2549">+saveClient()</text><!--MD5=[378b18254a1b2429f435e93f5e5cc50c]
class C--><rect codeLine="25" fill="#FEFECE" filter="url(#f1c1r4ojbqdmva)" height="103.3438" id="C" style="stroke:#A80036;stroke-width:1.5;" width="391" x="441.5" y="456"/><ellipse cx="606.25" cy="472" fill="#ADD1B2" rx="11" ry="11" style="stroke:#A80036;stroke-width:1.0;"/><path d="M608.25,468.5 Q608.4531,468 608.6875,467.75 Q608.9219,467.5 609.1875,467.5 Q609.6563,467.5 609.9531,467.7813 Q610.25,468.0625 610.25,468.7188 L610.25,470.2813 Q610.25,470.9375 609.9688,471.2188 Q609.6875,471.5 609.25,471.5 Q608.8594,471.5 608.6094,471.3281 Q608.3594,471.1563 608.25,470.7031 Q608.2031,470.3906 608.0313,470.2188 Q607.7188,469.8906 607.1563,469.7031 Q606.5938,469.5 606.0313,469.5 Q605.3281,469.5 604.7344,469.7813 Q604.1563,470.0625 603.7031,470.6875 Q603.25,471.3125 603.25,472.1719 L603.25,473.0938 Q603.25,474.125 604.0938,474.8125 Q604.9375,475.5 606.4375,475.5 Q607.3281,475.5 607.9531,475.2969 Q608.3125,475.1875 608.7188,474.8281 Q608.9844,474.625 609.125,474.5625 Q609.2656,474.5 609.4375,474.5 Q609.7656,474.5 610,474.7656 Q610.25,475.0156 610.25,475.375 Q610.25,475.7188 609.9063,476.125 Q609.4063,476.7188 608.6094,477.0469 Q607.5625,477.5 606.2813,477.5 Q604.7813,477.5 603.5781,476.9063 Q602.6094,476.4375 601.9219,475.4219 Q601.25,474.4063 601.25,473.2031 L601.25,472.1094 Q601.25,470.8594 601.8438,469.7656 Q602.4531,468.6719 603.5,468.0938 Q604.5625,467.5 605.75,467.5 Q606.4688,467.5 607.0938,467.75 Q607.7188,468 608.25,468.5 Z " fill="#000000"/><text fill="#000000" font-family="sans-serif" font-size="12" lengthAdjust="spacing" textLength="53" x="626.75" y="476.9102">Company</text><line style="stroke:#A80036;stroke-width:1.5;" x1="442.5" x2="831.5" y1="488" y2="488"/><text fill="#000000" font-family="sans-serif" font-size="11" lengthAdjust="spacing" textLength="59" x="447.5" y="503.4189">-designation</text><line style="stroke:#A80036;stroke-width:1.5;" x1="442.5" x2="831.5" y1="509.8359" y2="509.8359"/><text fill="#000000" font-family="sans-serif" font-size="11" lengthAdjust="spacing" textLength="379" x="447.5" y="525.2549">+registerClient(citizenID, nhsID, birthDate, sex, TIN, phoneNumber, email, name)</text><text fill="#000000" font-family="sans-serif" font-size="11" lengthAdjust="spacing" textLength="85" x="447.5" y="539.0908">+validateClient(cl)</text><text fill="#000000" font-family="sans-serif" font-size="11" lengthAdjust="spacing" textLength="64" x="447.5" y="552.9268">-addClient(cl)</text><!--MD5=[6607342f88ea4d5512af33272a4f67dd]
class RCUI--><rect codeLine="32" fill="#FEFECE" filter="url(#f1c1r4ojbqdmva)" height="48" id="RCUI" style="stroke:#A80036;stroke-width:1.5;" width="123" x="348.5" y="7"/><ellipse cx="363.5" cy="23" fill="#ADD1B2" rx="11" ry="11" style="stroke:#A80036;stroke-width:1.0;"/><path d="M365.5,19.5 Q365.7031,19 365.9375,18.75 Q366.1719,18.5 366.4375,18.5 Q366.9063,18.5 367.2031,18.7813 Q367.5,19.0625 367.5,19.7188 L367.5,21.2813 Q367.5,21.9375 367.2188,22.2188 Q366.9375,22.5 366.5,22.5 Q366.1094,22.5 365.8594,22.3281 Q365.6094,22.1563 365.5,21.7031 Q365.4531,21.3906 365.2813,21.2188 Q364.9688,20.8906 364.4063,20.7031 Q363.8438,20.5 363.2813,20.5 Q362.5781,20.5 361.9844,20.7813 Q361.4063,21.0625 360.9531,21.6875 Q360.5,22.3125 360.5,23.1719 L360.5,24.0938 Q360.5,25.125 361.3438,25.8125 Q362.1875,26.5 363.6875,26.5 Q364.5781,26.5 365.2031,26.2969 Q365.5625,26.1875 365.9688,25.8281 Q366.2344,25.625 366.375,25.5625 Q366.5156,25.5 366.6875,25.5 Q367.0156,25.5 367.25,25.7656 Q367.5,26.0156 367.5,26.375 Q367.5,26.7188 367.1563,27.125 Q366.6563,27.7188 365.8594,28.0469 Q364.8125,28.5 363.5313,28.5 Q362.0313,28.5 360.8281,27.9063 Q359.8594,27.4375 359.1719,26.4219 Q358.5,25.4063 358.5,24.2031 L358.5,23.1094 Q358.5,21.8594 359.0938,20.7656 Q359.7031,19.6719 360.75,19.0938 Q361.8125,18.5 363,18.5 Q363.7188,18.5 364.3438,18.75 Q364.9688,19 365.5,19.5 Z " fill="#000000"/><text fill="#000000" font-family="sans-serif" font-size="12" lengthAdjust="spacing" textLength="91" x="377.5" y="27.9102">RegisterClientUI</text><line style="stroke:#A80036;stroke-width:1.5;" x1="349.5" x2="470.5" y1="39" y2="39"/><line style="stroke:#A80036;stroke-width:1.5;" x1="349.5" x2="470.5" y1="47" y2="47"/><!--MD5=[6937c1ddc34fb976cd2b12300db9b3a0]
link R to C--><path codeLine="34" d="M458.14,343.01 C493.05,374.91 540.47,418.26 577.71,452.31 " fill="none" id="R-to-C" style="stroke:#A80036;stroke-width:1.0;"/><polygon fill="#A80036" points="581.74,455.99,577.7816,446.9716,578.0442,452.6224,572.3934,452.8849,581.74,455.99" style="stroke:#A80036;stroke-width:1.0;"/><text fill="#000000" font-family="sans-serif" font-size="13" lengthAdjust="spacing" textLength="52" x="511" y="387.4951">works for</text><text fill="#000000" font-family="sans-serif" font-size="13" lengthAdjust="spacing" textLength="7" x="457.4175" y="364.019">1</text><text fill="#000000" font-family="sans-serif" font-size="13" lengthAdjust="spacing" textLength="20" x="552.5628" y="445.1171">1..*</text><!--MD5=[22d24ce031bb8fb0665d610f51f0098c]
link RCUI to RCC--><path codeLine="35" d="M410,55.04 C410,70.71 410,91.91 410,110.58 " fill="none" id="RCUI-to-RCC" style="stroke:#A80036;stroke-width:1.0;stroke-dasharray:7.0,7.0;"/><polygon fill="#A80036" points="410,115.77,414,106.77,410,110.77,406,106.77,410,115.77" style="stroke:#A80036;stroke-width:1.0;"/><!--MD5=[8a3fdab9360909f548be38dcef9784b7]
link RCC to C--><path codeLine="36" d="M547.63,192.09 C577.01,206.41 604.68,226.08 623,253 C662.63,311.25 658.23,395.59 649.33,450.73 " fill="none" id="RCC-to-C" style="stroke:#A80036;stroke-width:1.0;stroke-dasharray:7.0,7.0;"/><polygon fill="#A80036" points="648.46,455.97,653.8929,447.7551,649.2866,451.0388,646.003,446.4326,648.46,455.97" style="stroke:#A80036;stroke-width:1.0;"/><!--MD5=[936e873e8d744c4b78dd1919bbb0b538]
link RCC to cl--><path codeLine="37" d="M272.3,192.04 C242.91,206.36 215.26,226.04 197,253 C165.16,300.01 162.07,363.91 166.87,415.8 " fill="none" id="RCC-to-cl" style="stroke:#A80036;stroke-width:1.0;stroke-dasharray:7.0,7.0;"/><polygon fill="#A80036" points="167.35,420.78,170.4559,411.4337,166.8638,415.8037,162.4938,412.2116,167.35,420.78" style="stroke:#A80036;stroke-width:1.0;"/><!--MD5=[63be0a4b795f263f6e8509661bf70b55]
link RCC to R--><path codeLine="38" d="M410,192.31 C410,209.28 410,229.6 410,247.81 " fill="none" id="RCC-to-R" style="stroke:#A80036;stroke-width:1.0;stroke-dasharray:7.0,7.0;"/><polygon fill="#A80036" points="410,252.88,414,243.88,410,247.88,406,243.88,410,252.88" style="stroke:#A80036;stroke-width:1.0;"/><!--MD5=[148248b958623f6fe7d406c3a4100c54]
link R to cl--><path codeLine="39" d="M362.07,343.01 C338.51,364.64 309.22,391.53 281.25,417.21 " fill="none" id="R-to-cl" style="stroke:#A80036;stroke-width:1.0;"/><polygon fill="#A80036" points="277.49,420.66,286.824,417.5173,281.1722,417.2775,281.412,411.6257,277.49,420.66" style="stroke:#A80036;stroke-width:1.0;"/><text fill="#000000" font-family="sans-serif" font-size="13" lengthAdjust="spacing" textLength="50" x="325" y="387.4951">registers</text><text fill="#000000" font-family="sans-serif" font-size="13" lengthAdjust="spacing" textLength="20" x="333.9236" y="364.019">1..*</text><text fill="#000000" font-family="sans-serif" font-size="13" lengthAdjust="spacing" textLength="5" x="280.3095" y="410.0404">*</text><!--MD5=[efc5e5170015d6dc8630f66f8c6c4bf1]
@startuml
'https://plantuml.com/class-diagram

skinparam classAttributeIconSize 0
class "Receptionist" as R {
+registerClient(citizenID, nhsID, birthDate, sex, TIN, phoneNumber, email, name)
+validateClient(cl)
+saveClient(cl)
}
class "Client" as cl {
-citizenID
-nhsID
-birthDate
-sex
-TIN
-phoneNumber
-email
-name
+Client(citizenID, nhsID, birthDate, sex, TIN, phoneNumber, email, name)
}
class "RegisterClientController" as RCC {
+registerClient(citizenID, nhsID, birthDate, sex, TIN, phoneNumber, email, name)
+saveClient()
}

class "Company" as C {
-designation
+registerClient(citizenID, nhsID, birthDate, sex, TIN, phoneNumber, email, name)
+validateClient(cl)
-addClient(cl)
}

class "RegisterClientUI" as RCUI

R "1" - -> "1..*" C : works for
RCUI ..> RCC
RCC ..> C
RCC ..> cl
RCC ..> R
R "1..*" - -> "*" cl : registers

@enduml

@startuml

skinparam classAttributeIconSize 0
class "Receptionist" as R {
+registerClient(citizenID, nhsID, birthDate, sex, TIN, phoneNumber, email, name)
+validateClient(cl)
+saveClient(cl)
}
class "Client" as cl {
-citizenID
-nhsID
-birthDate
-sex
-TIN
-phoneNumber
-email
-name
+Client(citizenID, nhsID, birthDate, sex, TIN, phoneNumber, email, name)
}
class "RegisterClientController" as RCC {
+registerClient(citizenID, nhsID, birthDate, sex, TIN, phoneNumber, email, name)
+saveClient()
}

class "Company" as C {
-designation
+registerClient(citizenID, nhsID, birthDate, sex, TIN, phoneNumber, email, name)
+validateClient(cl)
-addClient(cl)
}

class "RegisterClientUI" as RCUI

R "1" - -> "1..*" C : works for
RCUI ..> RCC
RCC ..> C
RCC ..> cl
RCC ..> R
R "1..*" - -> "*" cl : registers

@enduml

PlantUML version 1.2021.4(Sun Apr 04 09:49:39 BST 2021)
(GPL source distribution)
Java Runtime: OpenJDK Runtime Environment
JVM: OpenJDK 64-Bit Server VM
Default Encoding: Cp1252
Language: pt
Country: PT
--></g></svg>