<?xml version="1.0" encoding="UTF-8" standalone="no"?><svg xmlns="http://www.w3.org/2000/svg" xmlns:xlink="http://www.w3.org/1999/xlink" contentScriptType="application/ecmascript" contentStyleType="text/css" height="498px" preserveAspectRatio="none" style="width:1159px;height:498px;" version="1.1" viewBox="0 0 1159 498" width="1159px" zoomAndPan="magnify"><defs><filter height="300%" id="f14n5hfx1lmeq6" width="300%" x="-1" y="-1"><feGaussianBlur result="blurOut" stdDeviation="2.0"/><feColorMatrix in="blurOut" result="blurOut2" type="matrix" values="0 0 0 0 0 0 0 0 0 0 0 0 0 0 0 0 0 0 .4 0"/><feOffset dx="4.0" dy="4.0" in="blurOut2" result="blurOut3"/><feBlend in="SourceGraphic" in2="blurOut3" mode="normal"/></filter></defs><g><!--MD5=[faa9b2874725d030a61715b000656859]
class cl--><rect codeLine="6" fill="#FEFECE" filter="url(#f14n5hfx1lmeq6)" height="172.5234" id="cl" style="stroke:#A80036;stroke-width:1.5;" width="354" x="791" y="7"/><ellipse cx="947.75" cy="23" fill="#ADD1B2" rx="11" ry="11" style="stroke:#A80036;stroke-width:1.0;"/><path d="M949.75,19.5 Q949.9531,19 950.1875,18.75 Q950.4219,18.5 950.6875,18.5 Q951.1563,18.5 951.4531,18.7813 Q951.75,19.0625 951.75,19.7188 L951.75,21.2813 Q951.75,21.9375 951.4688,22.2188 Q951.1875,22.5 950.75,22.5 Q950.3594,22.5 950.1094,22.3281 Q949.8594,22.1563 949.75,21.7031 Q949.7031,21.3906 949.5313,21.2188 Q949.2188,20.8906 948.6563,20.7031 Q948.0938,20.5 947.5313,20.5 Q946.8281,20.5 946.2344,20.7813 Q945.6563,21.0625 945.2031,21.6875 Q944.75,22.3125 944.75,23.1719 L944.75,24.0938 Q944.75,25.125 945.5938,25.8125 Q946.4375,26.5 947.9375,26.5 Q948.8281,26.5 949.4531,26.2969 Q949.8125,26.1875 950.2188,25.8281 Q950.4844,25.625 950.625,25.5625 Q950.7656,25.5 950.9375,25.5 Q951.2656,25.5 951.5,25.7656 Q951.75,26.0156 951.75,26.375 Q951.75,26.7188 951.4063,27.125 Q950.9063,27.7188 950.1094,28.0469 Q949.0625,28.5 947.7813,28.5 Q946.2813,28.5 945.0781,27.9063 Q944.1094,27.4375 943.4219,26.4219 Q942.75,25.4063 942.75,24.2031 L942.75,23.1094 Q942.75,21.8594 943.3438,20.7656 Q943.9531,19.6719 945,19.0938 Q946.0625,18.5 947.25,18.5 Q947.9688,18.5 948.5938,18.75 Q949.2188,19 949.75,19.5 Z " fill="#000000"/><text fill="#000000" font-family="sans-serif" font-size="12" lengthAdjust="spacing" textLength="32" x="968.25" y="27.9102">Client</text><line style="stroke:#A80036;stroke-width:1.5;" x1="792" x2="1144" y1="39" y2="39"/><text fill="#000000" font-family="sans-serif" font-size="11" lengthAdjust="spacing" textLength="44" x="797" y="54.4189">-citizenID</text><text fill="#000000" font-family="sans-serif" font-size="11" lengthAdjust="spacing" textLength="31" x="797" y="68.2549">-nhsID</text><text fill="#000000" font-family="sans-serif" font-size="11" lengthAdjust="spacing" textLength="47" x="797" y="82.0908">-birthDate</text><text fill="#000000" font-family="sans-serif" font-size="11" lengthAdjust="spacing" textLength="22" x="797" y="95.9268">-sex</text><text fill="#000000" font-family="sans-serif" font-size="11" lengthAdjust="spacing" textLength="19" x="797" y="109.7627">-TIN</text><text fill="#000000" font-family="sans-serif" font-size="11" lengthAdjust="spacing" textLength="71" x="797" y="123.5986">-phoneNumber</text><text fill="#000000" font-family="sans-serif" font-size="11" lengthAdjust="spacing" textLength="28" x="797" y="137.4346">-email</text><text fill="#000000" font-family="sans-serif" font-size="11" lengthAdjust="spacing" textLength="30" x="797" y="151.2705">-name</text><line style="stroke:#A80036;stroke-width:1.5;" x1="792" x2="1144" y1="157.6875" y2="157.6875"/><text fill="#000000" font-family="sans-serif" font-size="11" lengthAdjust="spacing" textLength="342" x="797" y="173.1064">+Client(citizenID, nhsID, birthDate, sex, TIN, phoneNumber, email, name)</text><!--MD5=[91b3cf26d1b89b60e05bb0e00ffb60b3]
class RCC--><rect codeLine="17" fill="#FEFECE" filter="url(#f14n5hfx1lmeq6)" height="89.5078" id="RCC" style="stroke:#A80036;stroke-width:1.5;" width="165" x="190" y="235.5"/><ellipse cx="205" cy="251.5" fill="#ADD1B2" rx="11" ry="11" style="stroke:#A80036;stroke-width:1.0;"/><path d="M207,248 Q207.2031,247.5 207.4375,247.25 Q207.6719,247 207.9375,247 Q208.4063,247 208.7031,247.2813 Q209,247.5625 209,248.2188 L209,249.7813 Q209,250.4375 208.7188,250.7188 Q208.4375,251 208,251 Q207.6094,251 207.3594,250.8281 Q207.1094,250.6563 207,250.2031 Q206.9531,249.8906 206.7813,249.7188 Q206.4688,249.3906 205.9063,249.2031 Q205.3438,249 204.7813,249 Q204.0781,249 203.4844,249.2813 Q202.9063,249.5625 202.4531,250.1875 Q202,250.8125 202,251.6719 L202,252.5938 Q202,253.625 202.8438,254.3125 Q203.6875,255 205.1875,255 Q206.0781,255 206.7031,254.7969 Q207.0625,254.6875 207.4688,254.3281 Q207.7344,254.125 207.875,254.0625 Q208.0156,254 208.1875,254 Q208.5156,254 208.75,254.2656 Q209,254.5156 209,254.875 Q209,255.2188 208.6563,255.625 Q208.1563,256.2188 207.3594,256.5469 Q206.3125,257 205.0313,257 Q203.5313,257 202.3281,256.4063 Q201.3594,255.9375 200.6719,254.9219 Q200,253.9063 200,252.7031 L200,251.6094 Q200,250.3594 200.5938,249.2656 Q201.2031,248.1719 202.25,247.5938 Q203.3125,247 204.5,247 Q205.2188,247 205.8438,247.25 Q206.4688,247.5 207,248 Z " fill="#000000"/><text fill="#000000" font-family="sans-serif" font-size="12" lengthAdjust="spacing" textLength="133" x="219" y="256.4102">RegisterClientController</text><line style="stroke:#A80036;stroke-width:1.5;" x1="191" x2="354" y1="267.5" y2="267.5"/><line style="stroke:#A80036;stroke-width:1.5;" x1="191" x2="354" y1="275.5" y2="275.5"/><text fill="#000000" font-family="sans-serif" font-size="11" lengthAdjust="spacing" textLength="118" x="196" y="290.9189">+registerClient(dtoClient)</text><text fill="#000000" font-family="sans-serif" font-size="11" lengthAdjust="spacing" textLength="64" x="196" y="304.7549">+saveClient()</text><text fill="#000000" font-family="sans-serif" font-size="11" lengthAdjust="spacing" textLength="77" x="196" y="318.5908">-generatePwd()</text><!--MD5=[378b18254a1b2429f435e93f5e5cc50c]
class C--><rect codeLine="23" fill="#FEFECE" filter="url(#f14n5hfx1lmeq6)" height="89.5078" id="C" style="stroke:#A80036;stroke-width:1.5;" width="93" x="444" y="44.5"/><ellipse cx="462.6" cy="60.5" fill="#ADD1B2" rx="11" ry="11" style="stroke:#A80036;stroke-width:1.0;"/><path d="M464.6,57 Q464.8031,56.5 465.0375,56.25 Q465.2719,56 465.5375,56 Q466.0063,56 466.3031,56.2813 Q466.6,56.5625 466.6,57.2188 L466.6,58.7813 Q466.6,59.4375 466.3188,59.7188 Q466.0375,60 465.6,60 Q465.2094,60 464.9594,59.8281 Q464.7094,59.6563 464.6,59.2031 Q464.5531,58.8906 464.3813,58.7188 Q464.0688,58.3906 463.5063,58.2031 Q462.9438,58 462.3813,58 Q461.6781,58 461.0844,58.2813 Q460.5063,58.5625 460.0531,59.1875 Q459.6,59.8125 459.6,60.6719 L459.6,61.5938 Q459.6,62.625 460.4438,63.3125 Q461.2875,64 462.7875,64 Q463.6781,64 464.3031,63.7969 Q464.6625,63.6875 465.0688,63.3281 Q465.3344,63.125 465.475,63.0625 Q465.6156,63 465.7875,63 Q466.1156,63 466.35,63.2656 Q466.6,63.5156 466.6,63.875 Q466.6,64.2188 466.2563,64.625 Q465.7563,65.2188 464.9594,65.5469 Q463.9125,66 462.6313,66 Q461.1313,66 459.9281,65.4063 Q458.9594,64.9375 458.2719,63.9219 Q457.6,62.9063 457.6,61.7031 L457.6,60.6094 Q457.6,59.3594 458.1938,58.2656 Q458.8031,57.1719 459.85,56.5938 Q460.9125,56 462.1,56 Q462.8188,56 463.4438,56.25 Q464.0688,56.5 464.6,57 Z " fill="#000000"/><text fill="#000000" font-family="sans-serif" font-size="12" lengthAdjust="spacing" textLength="53" x="477.4" y="65.4102">Company</text><line style="stroke:#A80036;stroke-width:1.5;" x1="445" x2="536" y1="76.5" y2="76.5"/><text fill="#000000" font-family="sans-serif" font-size="11" lengthAdjust="spacing" textLength="59" x="450" y="91.9189">-designation</text><line style="stroke:#A80036;stroke-width:1.5;" x1="445" x2="536" y1="98.3359" y2="98.3359"/><text fill="#000000" font-family="sans-serif" font-size="11" lengthAdjust="spacing" textLength="81" x="450" y="113.7549">+getClientStore()</text><text fill="#000000" font-family="sans-serif" font-size="11" lengthAdjust="spacing" textLength="78" x="450" y="127.5908">+getUserStore()</text><!--MD5=[6607342f88ea4d5512af33272a4f67dd]
class RCUI--><rect codeLine="29" fill="#FEFECE" filter="url(#f14n5hfx1lmeq6)" height="48" id="RCUI" style="stroke:#A80036;stroke-width:1.5;" width="123" x="7" y="256.5"/><ellipse cx="22" cy="272.5" fill="#ADD1B2" rx="11" ry="11" style="stroke:#A80036;stroke-width:1.0;"/><path d="M24,269 Q24.2031,268.5 24.4375,268.25 Q24.6719,268 24.9375,268 Q25.4063,268 25.7031,268.2813 Q26,268.5625 26,269.2188 L26,270.7813 Q26,271.4375 25.7188,271.7188 Q25.4375,272 25,272 Q24.6094,272 24.3594,271.8281 Q24.1094,271.6563 24,271.2031 Q23.9531,270.8906 23.7813,270.7188 Q23.4688,270.3906 22.9063,270.2031 Q22.3438,270 21.7813,270 Q21.0781,270 20.4844,270.2813 Q19.9063,270.5625 19.4531,271.1875 Q19,271.8125 19,272.6719 L19,273.5938 Q19,274.625 19.8438,275.3125 Q20.6875,276 22.1875,276 Q23.0781,276 23.7031,275.7969 Q24.0625,275.6875 24.4688,275.3281 Q24.7344,275.125 24.875,275.0625 Q25.0156,275 25.1875,275 Q25.5156,275 25.75,275.2656 Q26,275.5156 26,275.875 Q26,276.2188 25.6563,276.625 Q25.1563,277.2188 24.3594,277.5469 Q23.3125,278 22.0313,278 Q20.5313,278 19.3281,277.4063 Q18.3594,276.9375 17.6719,275.9219 Q17,274.9063 17,273.7031 L17,272.6094 Q17,271.3594 17.5938,270.2656 Q18.2031,269.1719 19.25,268.5938 Q20.3125,268 21.5,268 Q22.2188,268 22.8438,268.25 Q23.4688,268.5 24,269 Z " fill="#000000"/><text fill="#000000" font-family="sans-serif" font-size="12" lengthAdjust="spacing" textLength="91" x="36" y="277.4102">RegisterClientUI</text><line style="stroke:#A80036;stroke-width:1.5;" x1="8" x2="129" y1="288.5" y2="288.5"/><line style="stroke:#A80036;stroke-width:1.5;" x1="8" x2="129" y1="296.5" y2="296.5"/><!--MD5=[d68c9369472fd2c8081ca2424f4233ba]
class CS--><rect codeLine="31" fill="#FEFECE" filter="url(#f14n5hfx1lmeq6)" height="103.3438" id="CS" style="stroke:#A80036;stroke-width:1.5;" width="130" x="425.5" y="170"/><ellipse cx="457.15" cy="186" fill="#ADD1B2" rx="11" ry="11" style="stroke:#A80036;stroke-width:1.0;"/><path d="M459.15,182.5 Q459.3531,182 459.5875,181.75 Q459.8219,181.5 460.0875,181.5 Q460.5563,181.5 460.8531,181.7813 Q461.15,182.0625 461.15,182.7188 L461.15,184.2813 Q461.15,184.9375 460.8688,185.2188 Q460.5875,185.5 460.15,185.5 Q459.7594,185.5 459.5094,185.3281 Q459.2594,185.1563 459.15,184.7031 Q459.1031,184.3906 458.9313,184.2188 Q458.6188,183.8906 458.0563,183.7031 Q457.4938,183.5 456.9313,183.5 Q456.2281,183.5 455.6344,183.7813 Q455.0563,184.0625 454.6031,184.6875 Q454.15,185.3125 454.15,186.1719 L454.15,187.0938 Q454.15,188.125 454.9938,188.8125 Q455.8375,189.5 457.3375,189.5 Q458.2281,189.5 458.8531,189.2969 Q459.2125,189.1875 459.6188,188.8281 Q459.8844,188.625 460.025,188.5625 Q460.1656,188.5 460.3375,188.5 Q460.6656,188.5 460.9,188.7656 Q461.15,189.0156 461.15,189.375 Q461.15,189.7188 460.8063,190.125 Q460.3063,190.7188 459.5094,191.0469 Q458.4625,191.5 457.1813,191.5 Q455.6813,191.5 454.4781,190.9063 Q453.5094,190.4375 452.8219,189.4219 Q452.15,188.4063 452.15,187.2031 L452.15,186.1094 Q452.15,184.8594 452.7438,183.7656 Q453.3531,182.6719 454.4,182.0938 Q455.4625,181.5 456.65,181.5 Q457.3688,181.5 457.9938,181.75 Q458.6188,182 459.15,182.5 Z " fill="#000000"/><text fill="#000000" font-family="sans-serif" font-size="12" lengthAdjust="spacing" textLength="61" x="474.85" y="190.9102">ClientStore</text><line style="stroke:#A80036;stroke-width:1.5;" x1="426.5" x2="554.5" y1="202" y2="202"/><line style="stroke:#A80036;stroke-width:1.5;" x1="426.5" x2="554.5" y1="210" y2="210"/><text fill="#000000" font-family="sans-serif" font-size="11" lengthAdjust="spacing" textLength="118" x="431.5" y="225.4189">+registerClient(dtoClient)</text><text fill="#000000" font-family="sans-serif" font-size="11" lengthAdjust="spacing" textLength="72" x="431.5" y="239.2549">+saveClient(cl)</text><text fill="#000000" font-family="sans-serif" font-size="11" lengthAdjust="spacing" textLength="83" x="431.5" y="253.0908">-validateClient(cl)</text><text fill="#000000" font-family="sans-serif" font-size="11" lengthAdjust="spacing" textLength="64" x="431.5" y="266.9268">-addClient(cl)</text><!--MD5=[915254f0803c3d2aae1c408da3c94866]
class AF--><rect codeLine="38" fill="#FEFECE" filter="url(#f14n5hfx1lmeq6)" height="61.8359" id="AF" style="stroke:#A80036;stroke-width:1.5;" width="151" x="415" y="308.5"/><ellipse cx="454.3" cy="324.5" fill="#ADD1B2" rx="11" ry="11" style="stroke:#A80036;stroke-width:1.0;"/><path d="M456.3,321 Q456.5031,320.5 456.7375,320.25 Q456.9719,320 457.2375,320 Q457.7063,320 458.0031,320.2813 Q458.3,320.5625 458.3,321.2188 L458.3,322.7813 Q458.3,323.4375 458.0188,323.7188 Q457.7375,324 457.3,324 Q456.9094,324 456.6594,323.8281 Q456.4094,323.6563 456.3,323.2031 Q456.2531,322.8906 456.0813,322.7188 Q455.7688,322.3906 455.2063,322.2031 Q454.6438,322 454.0813,322 Q453.3781,322 452.7844,322.2813 Q452.2063,322.5625 451.7531,323.1875 Q451.3,323.8125 451.3,324.6719 L451.3,325.5938 Q451.3,326.625 452.1438,327.3125 Q452.9875,328 454.4875,328 Q455.3781,328 456.0031,327.7969 Q456.3625,327.6875 456.7688,327.3281 Q457.0344,327.125 457.175,327.0625 Q457.3156,327 457.4875,327 Q457.8156,327 458.05,327.2656 Q458.3,327.5156 458.3,327.875 Q458.3,328.2188 457.9563,328.625 Q457.4563,329.2188 456.6594,329.5469 Q455.6125,330 454.3313,330 Q452.8313,330 451.6281,329.4063 Q450.6594,328.9375 449.9719,327.9219 Q449.3,326.9063 449.3,325.7031 L449.3,324.6094 Q449.3,323.3594 449.8938,322.2656 Q450.5031,321.1719 451.55,320.5938 Q452.6125,320 453.8,320 Q454.5188,320 455.1438,320.25 Q455.7688,320.5 456.3,321 Z " fill="#000000"/><text fill="#000000" font-family="sans-serif" font-size="12" lengthAdjust="spacing" textLength="65" x="473.7" y="329.4102">AuthFacade</text><line style="stroke:#A80036;stroke-width:1.5;" x1="416" x2="565" y1="340.5" y2="340.5"/><line style="stroke:#A80036;stroke-width:1.5;" x1="416" x2="565" y1="348.5" y2="348.5"/><text fill="#000000" font-family="sans-serif" font-size="11" lengthAdjust="spacing" textLength="139" x="421" y="363.9189">+addUser(email, name, pwd)</text><!--MD5=[b51a48545b57ed746174dec4d85d68c2]
class CDTO--><rect codeLine="42" fill="#FEFECE" filter="url(#f14n5hfx1lmeq6)" height="269.375" id="CDTO" style="stroke:#A80036;stroke-width:1.5;" width="108" x="914" y="215"/><ellipse cx="940.25" cy="231" fill="#ADD1B2" rx="11" ry="11" style="stroke:#A80036;stroke-width:1.0;"/><path d="M942.25,227.5 Q942.4531,227 942.6875,226.75 Q942.9219,226.5 943.1875,226.5 Q943.6563,226.5 943.9531,226.7813 Q944.25,227.0625 944.25,227.7188 L944.25,229.2813 Q944.25,229.9375 943.9688,230.2188 Q943.6875,230.5 943.25,230.5 Q942.8594,230.5 942.6094,230.3281 Q942.3594,230.1563 942.25,229.7031 Q942.2031,229.3906 942.0313,229.2188 Q941.7188,228.8906 941.1563,228.7031 Q940.5938,228.5 940.0313,228.5 Q939.3281,228.5 938.7344,228.7813 Q938.1563,229.0625 937.7031,229.6875 Q937.25,230.3125 937.25,231.1719 L937.25,232.0938 Q937.25,233.125 938.0938,233.8125 Q938.9375,234.5 940.4375,234.5 Q941.3281,234.5 941.9531,234.2969 Q942.3125,234.1875 942.7188,233.8281 Q942.9844,233.625 943.125,233.5625 Q943.2656,233.5 943.4375,233.5 Q943.7656,233.5 944,233.7656 Q944.25,234.0156 944.25,234.375 Q944.25,234.7188 943.9063,235.125 Q943.4063,235.7188 942.6094,236.0469 Q941.5625,236.5 940.2813,236.5 Q938.7813,236.5 937.5781,235.9063 Q936.6094,235.4375 935.9219,234.4219 Q935.25,233.4063 935.25,232.2031 L935.25,231.1094 Q935.25,229.8594 935.8438,228.7656 Q936.4531,227.6719 937.5,227.0938 Q938.5625,226.5 939.75,226.5 Q940.4688,226.5 941.0938,226.75 Q941.7188,227 942.25,227.5 Z " fill="#000000"/><text fill="#000000" font-family="sans-serif" font-size="12" lengthAdjust="spacing" textLength="51" x="956.75" y="235.9102">ClientDto</text><line style="stroke:#A80036;stroke-width:1.5;" x1="915" x2="1021" y1="247" y2="247"/><text fill="#000000" font-family="sans-serif" font-size="11" lengthAdjust="spacing" textLength="44" x="920" y="262.4189">-citizenID</text><text fill="#000000" font-family="sans-serif" font-size="11" lengthAdjust="spacing" textLength="31" x="920" y="276.2549">-nhsID</text><text fill="#000000" font-family="sans-serif" font-size="11" lengthAdjust="spacing" textLength="47" x="920" y="290.0908">-birthDate</text><text fill="#000000" font-family="sans-serif" font-size="11" lengthAdjust="spacing" textLength="22" x="920" y="303.9268">-sex</text><text fill="#000000" font-family="sans-serif" font-size="11" lengthAdjust="spacing" textLength="19" x="920" y="317.7627">-TIN</text><text fill="#000000" font-family="sans-serif" font-size="11" lengthAdjust="spacing" textLength="71" x="920" y="331.5986">-phoneNumber</text><text fill="#000000" font-family="sans-serif" font-size="11" lengthAdjust="spacing" textLength="28" x="920" y="345.4346">-email</text><text fill="#000000" font-family="sans-serif" font-size="11" lengthAdjust="spacing" textLength="30" x="920" y="359.2705">-name</text><line style="stroke:#A80036;stroke-width:1.5;" x1="915" x2="1021" y1="365.6875" y2="365.6875"/><text fill="#000000" font-family="sans-serif" font-size="11" lengthAdjust="spacing" textLength="70" x="920" y="381.1064">+getCitizenID()</text><text fill="#000000" font-family="sans-serif" font-size="11" lengthAdjust="spacing" textLength="57" x="920" y="394.9424">+getNhsID()</text><text fill="#000000" font-family="sans-serif" font-size="11" lengthAdjust="spacing" textLength="73" x="920" y="408.7783">+getBirthDate()</text><text fill="#000000" font-family="sans-serif" font-size="11" lengthAdjust="spacing" textLength="48" x="920" y="422.6143">+getSex()</text><text fill="#000000" font-family="sans-serif" font-size="11" lengthAdjust="spacing" textLength="44" x="920" y="436.4502">+getTIN()</text><text fill="#000000" font-family="sans-serif" font-size="11" lengthAdjust="spacing" textLength="96" x="920" y="450.2861">+getPhoneNumber()</text><text fill="#000000" font-family="sans-serif" font-size="11" lengthAdjust="spacing" textLength="53" x="920" y="464.1221">+getEmail()</text><text fill="#000000" font-family="sans-serif" font-size="11" lengthAdjust="spacing" textLength="56" x="920" y="477.958">+getName()</text><!--MD5=[28baf592f02d17f122e91447d2aa70c9]
class US--><rect codeLine="61" fill="#FEFECE" filter="url(#f14n5hfx1lmeq6)" height="61.8359" id="US" style="stroke:#A80036;stroke-width:1.5;" width="95" x="443" y="405.5"/><ellipse cx="461.15" cy="421.5" fill="#ADD1B2" rx="11" ry="11" style="stroke:#A80036;stroke-width:1.0;"/><path d="M463.15,418 Q463.3531,417.5 463.5875,417.25 Q463.8219,417 464.0875,417 Q464.5563,417 464.8531,417.2813 Q465.15,417.5625 465.15,418.2188 L465.15,419.7813 Q465.15,420.4375 464.8688,420.7188 Q464.5875,421 464.15,421 Q463.7594,421 463.5094,420.8281 Q463.2594,420.6563 463.15,420.2031 Q463.1031,419.8906 462.9313,419.7188 Q462.6188,419.3906 462.0563,419.2031 Q461.4938,419 460.9313,419 Q460.2281,419 459.6344,419.2813 Q459.0563,419.5625 458.6031,420.1875 Q458.15,420.8125 458.15,421.6719 L458.15,422.5938 Q458.15,423.625 458.9938,424.3125 Q459.8375,425 461.3375,425 Q462.2281,425 462.8531,424.7969 Q463.2125,424.6875 463.6188,424.3281 Q463.8844,424.125 464.025,424.0625 Q464.1656,424 464.3375,424 Q464.6656,424 464.9,424.2656 Q465.15,424.5156 465.15,424.875 Q465.15,425.2188 464.8063,425.625 Q464.3063,426.2188 463.5094,426.5469 Q462.4625,427 461.1813,427 Q459.6813,427 458.4781,426.4063 Q457.5094,425.9375 456.8219,424.9219 Q456.15,423.9063 456.15,422.7031 L456.15,421.6094 Q456.15,420.3594 456.7438,419.2656 Q457.3531,418.1719 458.4,417.5938 Q459.4625,417 460.65,417 Q461.3688,417 461.9938,417.25 Q462.6188,417.5 463.15,418 Z " fill="#000000"/><text fill="#000000" font-family="sans-serif" font-size="12" lengthAdjust="spacing" textLength="56" x="475.85" y="426.4102">UserStore</text><line style="stroke:#A80036;stroke-width:1.5;" x1="444" x2="537" y1="437.5" y2="437.5"/><line style="stroke:#A80036;stroke-width:1.5;" x1="444" x2="537" y1="445.5" y2="445.5"/><text fill="#000000" font-family="sans-serif" font-size="11" lengthAdjust="spacing" textLength="83" x="449" y="460.9189">+saveUser(user)</text><!--MD5=[922d291f43d024f1166d0eae9b0ee0bb]
class CM--><rect codeLine="65" fill="#FEFECE" filter="url(#f14n5hfx1lmeq6)" height="61.8359" id="CM" style="stroke:#A80036;stroke-width:1.5;" width="105" x="626" y="190.5"/><ellipse cx="641" cy="206.5" fill="#ADD1B2" rx="11" ry="11" style="stroke:#A80036;stroke-width:1.0;"/><path d="M643,203 Q643.2031,202.5 643.4375,202.25 Q643.6719,202 643.9375,202 Q644.4063,202 644.7031,202.2813 Q645,202.5625 645,203.2188 L645,204.7813 Q645,205.4375 644.7188,205.7188 Q644.4375,206 644,206 Q643.6094,206 643.3594,205.8281 Q643.1094,205.6563 643,205.2031 Q642.9531,204.8906 642.7813,204.7188 Q642.4688,204.3906 641.9063,204.2031 Q641.3438,204 640.7813,204 Q640.0781,204 639.4844,204.2813 Q638.9063,204.5625 638.4531,205.1875 Q638,205.8125 638,206.6719 L638,207.5938 Q638,208.625 638.8438,209.3125 Q639.6875,210 641.1875,210 Q642.0781,210 642.7031,209.7969 Q643.0625,209.6875 643.4688,209.3281 Q643.7344,209.125 643.875,209.0625 Q644.0156,209 644.1875,209 Q644.5156,209 644.75,209.2656 Q645,209.5156 645,209.875 Q645,210.2188 644.6563,210.625 Q644.1563,211.2188 643.3594,211.5469 Q642.3125,212 641.0313,212 Q639.5313,212 638.3281,211.4063 Q637.3594,210.9375 636.6719,209.9219 Q636,208.9063 636,207.7031 L636,206.6094 Q636,205.3594 636.5938,204.2656 Q637.2031,203.1719 638.25,202.5938 Q639.3125,202 640.5,202 Q641.2188,202 641.8438,202.25 Q642.4688,202.5 643,203 Z " fill="#000000"/><text fill="#000000" font-family="sans-serif" font-size="12" lengthAdjust="spacing" textLength="73" x="655" y="211.4102">ClientMapper</text><line style="stroke:#A80036;stroke-width:1.5;" x1="627" x2="730" y1="222.5" y2="222.5"/><line style="stroke:#A80036;stroke-width:1.5;" x1="627" x2="730" y1="230.5" y2="230.5"/><text fill="#000000" font-family="sans-serif" font-size="11" lengthAdjust="spacing" textLength="92" x="632" y="245.9189">+toModel(dtoClient)</text><!--MD5=[22d24ce031bb8fb0665d610f51f0098c]
link RCUI to RCC--><path codeLine="69" d="M130.11,280.5 C147.21,280.5 166.16,280.5 184.49,280.5 " fill="none" id="RCUI-to-RCC" style="stroke:#A80036;stroke-width:1.0;stroke-dasharray:7.0,7.0;"/><polygon fill="#A80036" points="189.64,280.5,180.64,276.5,184.64,280.5,180.64,284.5,189.64,280.5" style="stroke:#A80036;stroke-width:1.0;"/><!--MD5=[8a3fdab9360909f548be38dcef9784b7]
link RCC to C--><path codeLine="70" d="M322.58,235.37 C349.64,210.67 383.96,179.65 415,152.5 C423,145.5 431.55,138.15 439.9,131.04 " fill="none" id="RCC-to-C" style="stroke:#A80036;stroke-width:1.0;stroke-dasharray:7.0,7.0;"/><polygon fill="#A80036" points="443.99,127.57,434.5474,130.3696,440.1867,130.8157,439.7406,136.4549,443.99,127.57" style="stroke:#A80036;stroke-width:1.0;"/><!--MD5=[8d6ab7d2203ad9593f218ad834e7871f]
link RCC to CS--><path codeLine="71" d="M355.16,258.19 C376.62,252.33 399.55,246.07 420.29,240.41 " fill="none" id="RCC-to-CS" style="stroke:#A80036;stroke-width:1.0;stroke-dasharray:7.0,7.0;"/><polygon fill="#A80036" points="425.23,239.06,415.4902,237.5983,420.4102,240.3901,417.6184,245.3101,425.23,239.06" style="stroke:#A80036;stroke-width:1.0;"/><!--MD5=[e554279004f3a6997af11d9b793862a2]
link CS to CM--><path codeLine="72" d="M555.51,221.5 C576.73,221.5 600.18,221.5 620.8,221.5 " fill="none" id="CS-to-CM" style="stroke:#A80036;stroke-width:1.0;stroke-dasharray:7.0,7.0;"/><polygon fill="#A80036" points="625.98,221.5,616.98,217.5,620.98,221.5,616.98,225.5,625.98,221.5" style="stroke:#A80036;stroke-width:1.0;"/><!--MD5=[86f5a3264f4d48fbe5500b7a77bd55a7]
link CM to CDTO--><path codeLine="73" d="M731.23,244.53 C781.29,266.82 857.04,300.54 909.09,323.72 " fill="none" id="CM-to-CDTO" style="stroke:#A80036;stroke-width:1.0;stroke-dasharray:7.0,7.0;"/><polygon fill="#A80036" points="913.74,325.79,907.136,318.4833,909.1698,323.762,903.8911,325.7957,913.74,325.79" style="stroke:#A80036;stroke-width:1.0;"/><!--MD5=[8b531695d0551b3459f81ca4f7d7257d]
link CM to cl--><path codeLine="74" d="M731.23,198.47 C747.4,191.27 766.24,182.88 786.1,174.04 " fill="none" id="CM-to-cl" style="stroke:#A80036;stroke-width:1.0;stroke-dasharray:7.0,7.0;"/><polygon fill="#A80036" points="790.89,171.91,781.0411,171.9043,786.3198,173.938,784.286,179.2167,790.89,171.91" style="stroke:#A80036;stroke-width:1.0;"/><!--MD5=[d183c000ad698df6291413730155c6a7]
link RCC to AF--><path codeLine="75" d="M355.16,302.81 C373.07,307.7 392.01,312.87 409.84,317.74 " fill="none" id="RCC-to-AF" style="stroke:#A80036;stroke-width:1.0;stroke-dasharray:7.0,7.0;"/><polygon fill="#A80036" points="414.83,319.11,407.1965,312.8867,410.0055,317.7968,405.0954,320.6059,414.83,319.11" style="stroke:#A80036;stroke-width:1.0;"/><!--MD5=[7f5f7797334c27348a5e64de6599e8b8]
link RCC to US--><path codeLine="76" d="M330.56,325.69 C356.05,345.45 386.67,368.61 415,388.5 C422.44,393.72 430.41,399.09 438.27,404.26 " fill="none" id="RCC-to-US" style="stroke:#A80036;stroke-width:1.0;stroke-dasharray:7.0,7.0;"/><polygon fill="#A80036" points="442.62,407.11,437.2846,398.8315,438.4379,404.3695,432.8999,405.5228,442.62,407.11" style="stroke:#A80036;stroke-width:1.0;"/><!--MD5=[d363fa87f52832ccdd556a7ea2b59208]
@startuml
'https://plantuml.com/class-diagram

skinparam classAttributeIconSize 0
left to right direction

class "Client" as cl {
-citizenID
-nhsID
-birthDate
-sex
-TIN
-phoneNumber
-email
-name
+Client(citizenID, nhsID, birthDate, sex, TIN, phoneNumber, email, name)
}
class "RegisterClientController" as RCC {
+registerClient(dtoClient)
+saveClient()
-generatePwd()
}

class "Company" as C {
-designation
+getClientStore()
+getUserStore()
}

class "RegisterClientUI" as RCUI

class "ClientStore" as CS {
+registerClient(dtoClient)
+saveClient(cl)
-validateClient(cl)
-addClient(cl)
}

class "AuthFacade" as AF {
+addUser(email, name, pwd)
}

class "ClientDto" as CDTO {
-citizenID
-nhsID
-birthDate
-sex
-TIN
-phoneNumber
-email
-name
+getCitizenID()
+getNhsID()
+getBirthDate()
+getSex()
+getTIN()
+getPhoneNumber()
+getEmail()
+getName()
}

class "UserStore" as US {
+saveUser(user)
}

class "ClientMapper" as CM {
+toModel(dtoClient)
}

RCUI ..> RCC
RCC ..> C
RCC ..> CS
CS ..> CM
CM ..> CDTO
CM ..> cl
RCC ..> AF
RCC ..> US
@enduml

@startuml

skinparam classAttributeIconSize 0
left to right direction

class "Client" as cl {
-citizenID
-nhsID
-birthDate
-sex
-TIN
-phoneNumber
-email
-name
+Client(citizenID, nhsID, birthDate, sex, TIN, phoneNumber, email, name)
}
class "RegisterClientController" as RCC {
+registerClient(dtoClient)
+saveClient()
-generatePwd()
}

class "Company" as C {
-designation
+getClientStore()
+getUserStore()
}

class "RegisterClientUI" as RCUI

class "ClientStore" as CS {
+registerClient(dtoClient)
+saveClient(cl)
-validateClient(cl)
-addClient(cl)
}

class "AuthFacade" as AF {
+addUser(email, name, pwd)
}

class "ClientDto" as CDTO {
-citizenID
-nhsID
-birthDate
-sex
-TIN
-phoneNumber
-email
-name
+getCitizenID()
+getNhsID()
+getBirthDate()
+getSex()
+getTIN()
+getPhoneNumber()
+getEmail()
+getName()
}

class "UserStore" as US {
+saveUser(user)
}

class "ClientMapper" as CM {
+toModel(dtoClient)
}

RCUI ..> RCC
RCC ..> C
RCC ..> CS
CS ..> CM
CM ..> CDTO
CM ..> cl
RCC ..> AF
RCC ..> US
@enduml

PlantUML version 1.2021.4(Sun Apr 04 09:49:39 BST 2021)
(GPL source distribution)
Java Runtime: OpenJDK Runtime Environment
JVM: OpenJDK 64-Bit Server VM
Default Encoding: Cp1252
Language: pt
Country: PT
--></g></svg>