<?xml version="1.0" encoding="UTF-8" standalone="no"?><svg xmlns="http://www.w3.org/2000/svg" xmlns:xlink="http://www.w3.org/1999/xlink" contentScriptType="application/ecmascript" contentStyleType="text/css" height="620px" preserveAspectRatio="none" style="width:536px;height:620px;" version="1.1" viewBox="0 0 536 620" width="536px" zoomAndPan="magnify"><defs><filter height="300%" id="f2sqd77w93ywe" width="300%" x="-1" y="-1"><feGaussianBlur result="blurOut" stdDeviation="2.0"/><feColorMatrix in="blurOut" result="blurOut2" type="matrix" values="0 0 0 0 0 0 0 0 0 0 0 0 0 0 0 0 0 0 .4 0"/><feOffset dx="4.0" dy="4.0" in="blurOut2" result="blurOut3"/><feBlend in="SourceGraphic" in2="blurOut3" mode="normal"/></filter></defs><g><!--MD5=[c75e629d71444dd998043aef5ce1a035]
class R--><rect codeLine="4" fill="#FEFECE" filter="url(#f2sqd77w93ywe)" height="103.3438" id="R" style="stroke:#A80036;stroke-width:1.5;" width="391" x="7" y="253"/><ellipse cx="163.75" cy="269" fill="#ADD1B2" rx="11" ry="11" style="stroke:#A80036;stroke-width:1.0;"/><path d="M165.75,265.5 Q165.9531,265 166.1875,264.75 Q166.4219,264.5 166.6875,264.5 Q167.1563,264.5 167.4531,264.7813 Q167.75,265.0625 167.75,265.7188 L167.75,267.2813 Q167.75,267.9375 167.4688,268.2188 Q167.1875,268.5 166.75,268.5 Q166.3594,268.5 166.1094,268.3281 Q165.8594,268.1563 165.75,267.7031 Q165.7031,267.3906 165.5313,267.2188 Q165.2188,266.8906 164.6563,266.7031 Q164.0938,266.5 163.5313,266.5 Q162.8281,266.5 162.2344,266.7813 Q161.6563,267.0625 161.2031,267.6875 Q160.75,268.3125 160.75,269.1719 L160.75,270.0938 Q160.75,271.125 161.5938,271.8125 Q162.4375,272.5 163.9375,272.5 Q164.8281,272.5 165.4531,272.2969 Q165.8125,272.1875 166.2188,271.8281 Q166.4844,271.625 166.625,271.5625 Q166.7656,271.5 166.9375,271.5 Q167.2656,271.5 167.5,271.7656 Q167.75,272.0156 167.75,272.375 Q167.75,272.7188 167.4063,273.125 Q166.9063,273.7188 166.1094,274.0469 Q165.0625,274.5 163.7813,274.5 Q162.2813,274.5 161.0781,273.9063 Q160.1094,273.4375 159.4219,272.4219 Q158.75,271.4063 158.75,270.2031 L158.75,269.1094 Q158.75,267.8594 159.3438,266.7656 Q159.9531,265.6719 161,265.0938 Q162.0625,264.5 163.25,264.5 Q163.9688,264.5 164.5938,264.75 Q165.2188,265 165.75,265.5 Z " fill="#000000"/><text fill="#000000" font-family="sans-serif" font-size="12" lengthAdjust="spacing" textLength="69" x="184.25" y="273.9102">Receptionist</text><line style="stroke:#A80036;stroke-width:1.5;" x1="8" x2="397" y1="285" y2="285"/><line style="stroke:#A80036;stroke-width:1.5;" x1="8" x2="397" y1="293" y2="293"/><text fill="#000000" font-family="sans-serif" font-size="11" lengthAdjust="spacing" textLength="379" x="13" y="308.4189">+registerClient(citizenID, nhsID, birthDate, sex, TIN, phoneNumber, email, name)</text><text fill="#000000" font-family="sans-serif" font-size="11" lengthAdjust="spacing" textLength="85" x="13" y="322.2549">+validateClient(cl)</text><text fill="#000000" font-family="sans-serif" font-size="11" lengthAdjust="spacing" textLength="72" x="13" y="336.0908">+saveClient(cl)</text><text fill="#000000" font-family="sans-serif" font-size="11" lengthAdjust="spacing" textLength="64" x="13" y="349.9268">-addClient(cl)</text><!--MD5=[faa9b2874725d030a61715b000656859]
class cl--><rect codeLine="28" fill="#FEFECE" filter="url(#f2sqd77w93ywe)" height="172.5234" id="cl" style="stroke:#A80036;stroke-width:1.5;" width="354" x="149.5" y="434"/><ellipse cx="306.25" cy="450" fill="#ADD1B2" rx="11" ry="11" style="stroke:#A80036;stroke-width:1.0;"/><path d="M308.25,446.5 Q308.4531,446 308.6875,445.75 Q308.9219,445.5 309.1875,445.5 Q309.6563,445.5 309.9531,445.7813 Q310.25,446.0625 310.25,446.7188 L310.25,448.2813 Q310.25,448.9375 309.9688,449.2188 Q309.6875,449.5 309.25,449.5 Q308.8594,449.5 308.6094,449.3281 Q308.3594,449.1563 308.25,448.7031 Q308.2031,448.3906 308.0313,448.2188 Q307.7188,447.8906 307.1563,447.7031 Q306.5938,447.5 306.0313,447.5 Q305.3281,447.5 304.7344,447.7813 Q304.1563,448.0625 303.7031,448.6875 Q303.25,449.3125 303.25,450.1719 L303.25,451.0938 Q303.25,452.125 304.0938,452.8125 Q304.9375,453.5 306.4375,453.5 Q307.3281,453.5 307.9531,453.2969 Q308.3125,453.1875 308.7188,452.8281 Q308.9844,452.625 309.125,452.5625 Q309.2656,452.5 309.4375,452.5 Q309.7656,452.5 310,452.7656 Q310.25,453.0156 310.25,453.375 Q310.25,453.7188 309.9063,454.125 Q309.4063,454.7188 308.6094,455.0469 Q307.5625,455.5 306.2813,455.5 Q304.7813,455.5 303.5781,454.9063 Q302.6094,454.4375 301.9219,453.4219 Q301.25,452.4063 301.25,451.2031 L301.25,450.1094 Q301.25,448.8594 301.8438,447.7656 Q302.4531,446.6719 303.5,446.0938 Q304.5625,445.5 305.75,445.5 Q306.4688,445.5 307.0938,445.75 Q307.7188,446 308.25,446.5 Z " fill="#000000"/><text fill="#000000" font-family="sans-serif" font-size="12" lengthAdjust="spacing" textLength="32" x="326.75" y="454.9102">Client</text><line style="stroke:#A80036;stroke-width:1.5;" x1="150.5" x2="502.5" y1="466" y2="466"/><text fill="#000000" font-family="sans-serif" font-size="11" lengthAdjust="spacing" textLength="44" x="155.5" y="481.4189">-citizenID</text><text fill="#000000" font-family="sans-serif" font-size="11" lengthAdjust="spacing" textLength="31" x="155.5" y="495.2549">-nhsID</text><text fill="#000000" font-family="sans-serif" font-size="11" lengthAdjust="spacing" textLength="47" x="155.5" y="509.0908">-birthDate</text><text fill="#000000" font-family="sans-serif" font-size="11" lengthAdjust="spacing" textLength="22" x="155.5" y="522.9268">-sex</text><text fill="#000000" font-family="sans-serif" font-size="11" lengthAdjust="spacing" textLength="19" x="155.5" y="536.7627">-TIN</text><text fill="#000000" font-family="sans-serif" font-size="11" lengthAdjust="spacing" textLength="71" x="155.5" y="550.5986">-phoneNumber</text><text fill="#000000" font-family="sans-serif" font-size="11" lengthAdjust="spacing" textLength="28" x="155.5" y="564.4346">-email</text><text fill="#000000" font-family="sans-serif" font-size="11" lengthAdjust="spacing" textLength="30" x="155.5" y="578.2705">-name</text><line style="stroke:#A80036;stroke-width:1.5;" x1="150.5" x2="502.5" y1="584.6875" y2="584.6875"/><text fill="#000000" font-family="sans-serif" font-size="11" lengthAdjust="spacing" textLength="342" x="155.5" y="600.1064">+Client(citizenID, nhsID, birthDate, sex, TIN, phoneNumber, email, name)</text><!--MD5=[91b3cf26d1b89b60e05bb0e00ffb60b3]
class RCC--><rect codeLine="29" fill="#FEFECE" filter="url(#f2sqd77w93ywe)" height="75.6719" id="RCC" style="stroke:#A80036;stroke-width:1.5;" width="391" x="131" y="116"/><ellipse cx="255.75" cy="132" fill="#ADD1B2" rx="11" ry="11" style="stroke:#A80036;stroke-width:1.0;"/><path d="M257.75,128.5 Q257.9531,128 258.1875,127.75 Q258.4219,127.5 258.6875,127.5 Q259.1563,127.5 259.4531,127.7813 Q259.75,128.0625 259.75,128.7188 L259.75,130.2813 Q259.75,130.9375 259.4688,131.2188 Q259.1875,131.5 258.75,131.5 Q258.3594,131.5 258.1094,131.3281 Q257.8594,131.1563 257.75,130.7031 Q257.7031,130.3906 257.5313,130.2188 Q257.2188,129.8906 256.6563,129.7031 Q256.0938,129.5 255.5313,129.5 Q254.8281,129.5 254.2344,129.7813 Q253.6563,130.0625 253.2031,130.6875 Q252.75,131.3125 252.75,132.1719 L252.75,133.0938 Q252.75,134.125 253.5938,134.8125 Q254.4375,135.5 255.9375,135.5 Q256.8281,135.5 257.4531,135.2969 Q257.8125,135.1875 258.2188,134.8281 Q258.4844,134.625 258.625,134.5625 Q258.7656,134.5 258.9375,134.5 Q259.2656,134.5 259.5,134.7656 Q259.75,135.0156 259.75,135.375 Q259.75,135.7188 259.4063,136.125 Q258.9063,136.7188 258.1094,137.0469 Q257.0625,137.5 255.7813,137.5 Q254.2813,137.5 253.0781,136.9063 Q252.1094,136.4375 251.4219,135.4219 Q250.75,134.4063 250.75,133.2031 L250.75,132.1094 Q250.75,130.8594 251.3438,129.7656 Q251.9531,128.6719 253,128.0938 Q254.0625,127.5 255.25,127.5 Q255.9688,127.5 256.5938,127.75 Q257.2188,128 257.75,128.5 Z " fill="#000000"/><text fill="#000000" font-family="sans-serif" font-size="12" lengthAdjust="spacing" textLength="133" x="276.25" y="136.9102">RegisterClientController</text><line style="stroke:#A80036;stroke-width:1.5;" x1="132" x2="521" y1="148" y2="148"/><line style="stroke:#A80036;stroke-width:1.5;" x1="132" x2="521" y1="156" y2="156"/><text fill="#000000" font-family="sans-serif" font-size="11" lengthAdjust="spacing" textLength="379" x="137" y="171.4189">+registerClient(citizenID, nhsID, birthDate, sex, TIN, phoneNumber, email, name)</text><text fill="#000000" font-family="sans-serif" font-size="11" lengthAdjust="spacing" textLength="64" x="137" y="185.2549">+saveClient()</text><!--MD5=[6607342f88ea4d5512af33272a4f67dd]
class RCUI--><rect codeLine="27" fill="#FEFECE" filter="url(#f2sqd77w93ywe)" height="48" id="RCUI" style="stroke:#A80036;stroke-width:1.5;" width="123" x="265" y="7"/><ellipse cx="280" cy="23" fill="#ADD1B2" rx="11" ry="11" style="stroke:#A80036;stroke-width:1.0;"/><path d="M282,19.5 Q282.2031,19 282.4375,18.75 Q282.6719,18.5 282.9375,18.5 Q283.4063,18.5 283.7031,18.7813 Q284,19.0625 284,19.7188 L284,21.2813 Q284,21.9375 283.7188,22.2188 Q283.4375,22.5 283,22.5 Q282.6094,22.5 282.3594,22.3281 Q282.1094,22.1563 282,21.7031 Q281.9531,21.3906 281.7813,21.2188 Q281.4688,20.8906 280.9063,20.7031 Q280.3438,20.5 279.7813,20.5 Q279.0781,20.5 278.4844,20.7813 Q277.9063,21.0625 277.4531,21.6875 Q277,22.3125 277,23.1719 L277,24.0938 Q277,25.125 277.8438,25.8125 Q278.6875,26.5 280.1875,26.5 Q281.0781,26.5 281.7031,26.2969 Q282.0625,26.1875 282.4688,25.8281 Q282.7344,25.625 282.875,25.5625 Q283.0156,25.5 283.1875,25.5 Q283.5156,25.5 283.75,25.7656 Q284,26.0156 284,26.375 Q284,26.7188 283.6563,27.125 Q283.1563,27.7188 282.3594,28.0469 Q281.3125,28.5 280.0313,28.5 Q278.5313,28.5 277.3281,27.9063 Q276.3594,27.4375 275.6719,26.4219 Q275,25.4063 275,24.2031 L275,23.1094 Q275,21.8594 275.5938,20.7656 Q276.2031,19.6719 277.25,19.0938 Q278.3125,18.5 279.5,18.5 Q280.2188,18.5 280.8438,18.75 Q281.4688,19 282,19.5 Z " fill="#000000"/><text fill="#000000" font-family="sans-serif" font-size="12" lengthAdjust="spacing" textLength="91" x="294" y="27.9102">RegisterClientUI</text><line style="stroke:#A80036;stroke-width:1.5;" x1="266" x2="387" y1="39" y2="39"/><line style="stroke:#A80036;stroke-width:1.5;" x1="266" x2="387" y1="47" y2="47"/><!--MD5=[22d24ce031bb8fb0665d610f51f0098c]
link RCUI to RCC--><path codeLine="30" d="M326.5,55.04 C326.5,70.71 326.5,91.91 326.5,110.58 " fill="none" id="RCUI-to-RCC" style="stroke:#A80036;stroke-width:1.0;stroke-dasharray:7.0,7.0;"/><polygon fill="#A80036" points="326.5,115.77,330.5,106.77,326.5,110.77,322.5,106.77,326.5,115.77" style="stroke:#A80036;stroke-width:1.0;"/><!--MD5=[936e873e8d744c4b78dd1919bbb0b538]
link RCC to cl--><path codeLine="31" d="M372.38,192.17 C389.32,208.79 406.56,229.85 415.5,253 C432,295.7 426.79,311.64 415.5,356 C409.15,380.96 398.13,406.22 385.96,429.18 " fill="none" id="RCC-to-cl" style="stroke:#A80036;stroke-width:1.0;stroke-dasharray:7.0,7.0;"/><polygon fill="#A80036" points="383.51,433.74,391.2778,427.6851,385.8652,429.3294,384.2208,423.9168,383.51,433.74" style="stroke:#A80036;stroke-width:1.0;"/><!--MD5=[63be0a4b795f263f6e8509661bf70b55]
link RCC to R--><path codeLine="32" d="M295.53,192.09 C281.26,209.18 264.03,229.81 248.3,248.65 " fill="none" id="RCC-to-R" style="stroke:#A80036;stroke-width:1.0;stroke-dasharray:7.0,7.0;"/><polygon fill="#A80036" points="244.76,252.89,253.6025,248.5529,247.9679,249.0547,247.4661,243.4202,244.76,252.89" style="stroke:#A80036;stroke-width:1.0;"/><!--MD5=[148248b958623f6fe7d406c3a4100c54]
link R to cl--><path codeLine="33" d="M231.89,356.22 C244.49,377.97 259.62,404.07 274.04,428.96 " fill="none" id="R-to-cl" style="stroke:#A80036;stroke-width:1.0;"/><polygon fill="#A80036" points="276.72,433.59,275.6584,423.7985,274.2086,429.2665,268.7407,427.8167,276.72,433.59" style="stroke:#A80036;stroke-width:1.0;"/><text fill="#000000" font-family="sans-serif" font-size="13" lengthAdjust="spacing" textLength="50" x="258.5" y="400.4951">registers</text><text fill="#000000" font-family="sans-serif" font-size="13" lengthAdjust="spacing" textLength="20" x="214.4955" y="377.7405">1..*</text><text fill="#000000" font-family="sans-serif" font-size="13" lengthAdjust="spacing" textLength="5" x="267.3906" y="423.2597">*</text><!--MD5=[04d92089b7358091c9e434584acf0aab]
@startuml
'https://plantuml.com/class-diagram

skinparam classAttributeIconSize 0
class "Receptionist" as R {
+registerClient(citizenID, nhsID, birthDate, sex, TIN, phoneNumber, email, name)
+validateClient(cl)
+saveClient(cl)
-addClient(cl)
}
class "Client" as cl {
-citizenID
-nhsID
-birthDate
-sex
-TIN
-phoneNumber
-email
-name
+Client(citizenID, nhsID, birthDate, sex, TIN, phoneNumber, email, name)
}
class "RegisterClientController" as RCC {
+registerClient(citizenID, nhsID, birthDate, sex, TIN, phoneNumber, email, name)
+saveClient()
}


class "RegisterClientUI" as RCUI
class "Client" as cl
class "RegisterClientController" as RCC
RCUI ..> RCC
RCC ..> cl
RCC ..> R
R "1..*" - -> "*" cl : registers

@enduml

@startuml

skinparam classAttributeIconSize 0
class "Receptionist" as R {
+registerClient(citizenID, nhsID, birthDate, sex, TIN, phoneNumber, email, name)
+validateClient(cl)
+saveClient(cl)
-addClient(cl)
}
class "Client" as cl {
-citizenID
-nhsID
-birthDate
-sex
-TIN
-phoneNumber
-email
-name
+Client(citizenID, nhsID, birthDate, sex, TIN, phoneNumber, email, name)
}
class "RegisterClientController" as RCC {
+registerClient(citizenID, nhsID, birthDate, sex, TIN, phoneNumber, email, name)
+saveClient()
}


class "RegisterClientUI" as RCUI
class "Client" as cl
class "RegisterClientController" as RCC
RCUI ..> RCC
RCC ..> cl
RCC ..> R
R "1..*" - -> "*" cl : registers

@enduml

PlantUML version 1.2021.4(Sun Apr 04 09:49:39 BST 2021)
(GPL source distribution)
Java Runtime: OpenJDK Runtime Environment
JVM: OpenJDK 64-Bit Server VM
Default Encoding: Cp1252
Language: pt
Country: PT
--></g></svg>