<?xml version="1.0" encoding="UTF-8" standalone="no"?><svg xmlns="http://www.w3.org/2000/svg" xmlns:xlink="http://www.w3.org/1999/xlink" contentScriptType="application/ecmascript" contentStyleType="text/css" height="343px" preserveAspectRatio="none" style="width:334px;height:343px;" version="1.1" viewBox="0 0 334 343" width="334px" zoomAndPan="magnify"><defs><filter height="300%" id="fwv7d0r8l6ml4" width="300%" x="-1" y="-1"><feGaussianBlur result="blurOut" stdDeviation="2.0"/><feColorMatrix in="blurOut" result="blurOut2" type="matrix" values="0 0 0 0 0 0 0 0 0 0 0 0 0 0 0 0 0 0 .4 0"/><feOffset dx="4.0" dy="4.0" in="blurOut2" result="blurOut3"/><feBlend in="SourceGraphic" in2="blurOut3" mode="normal"/></filter></defs><g><!--MD5=[03960189e81aa2c066c762ffabbee709]
class Receptionist--><rect codeLine="14" fill="#FEFECE" filter="url(#fwv7d0r8l6ml4)" height="40" id="Receptionist" style="stroke:#A80036;stroke-width:1.5;" width="101" x="219" y="152.5"/><ellipse cx="234" cy="168.5" fill="#ADD1B2" rx="11" ry="11" style="stroke:#A80036;stroke-width:1.0;"/><path d="M236,165 Q236.2031,164.5 236.4375,164.25 Q236.6719,164 236.9375,164 Q237.4063,164 237.7031,164.2813 Q238,164.5625 238,165.2188 L238,166.7813 Q238,167.4375 237.7188,167.7188 Q237.4375,168 237,168 Q236.6094,168 236.3594,167.8281 Q236.1094,167.6563 236,167.2031 Q235.9531,166.8906 235.7813,166.7188 Q235.4688,166.3906 234.9063,166.2031 Q234.3438,166 233.7813,166 Q233.0781,166 232.4844,166.2813 Q231.9063,166.5625 231.4531,167.1875 Q231,167.8125 231,168.6719 L231,169.5938 Q231,170.625 231.8438,171.3125 Q232.6875,172 234.1875,172 Q235.0781,172 235.7031,171.7969 Q236.0625,171.6875 236.4688,171.3281 Q236.7344,171.125 236.875,171.0625 Q237.0156,171 237.1875,171 Q237.5156,171 237.75,171.2656 Q238,171.5156 238,171.875 Q238,172.2188 237.6563,172.625 Q237.1563,173.2188 236.3594,173.5469 Q235.3125,174 234.0313,174 Q232.5313,174 231.3281,173.4063 Q230.3594,172.9375 229.6719,171.9219 Q229,170.9063 229,169.7031 L229,168.6094 Q229,167.3594 229.5938,166.2656 Q230.2031,165.1719 231.25,164.5938 Q232.3125,164 233.5,164 Q234.2188,164 234.8438,164.25 Q235.4688,164.5 236,165 Z " fill="#000000"/><text fill="#000000" font-family="sans-serif" font-size="12" lengthAdjust="spacing" textLength="69" x="248" y="173.4102">Receptionist</text><line style="stroke:#A80036;stroke-width:1.5;" x1="220" x2="319" y1="184.5" y2="184.5"/><!--MD5=[ed6624c6556d5e7b1bd23032162d20b7]
class Client--><rect codeLine="17" fill="#FEFECE" filter="url(#fwv7d0r8l6ml4)" height="150.6875" id="Client" style="stroke:#A80036;stroke-width:1.5;" width="83" x="9" y="7"/><ellipse cx="32.55" cy="23" fill="#ADD1B2" rx="11" ry="11" style="stroke:#A80036;stroke-width:1.0;"/><path d="M34.55,19.5 Q34.7531,19 34.9875,18.75 Q35.2219,18.5 35.4875,18.5 Q35.9563,18.5 36.2531,18.7813 Q36.55,19.0625 36.55,19.7188 L36.55,21.2813 Q36.55,21.9375 36.2688,22.2188 Q35.9875,22.5 35.55,22.5 Q35.1594,22.5 34.9094,22.3281 Q34.6594,22.1563 34.55,21.7031 Q34.5031,21.3906 34.3313,21.2188 Q34.0188,20.8906 33.4563,20.7031 Q32.8938,20.5 32.3313,20.5 Q31.6281,20.5 31.0344,20.7813 Q30.4562,21.0625 30.0031,21.6875 Q29.55,22.3125 29.55,23.1719 L29.55,24.0938 Q29.55,25.125 30.3937,25.8125 Q31.2375,26.5 32.7375,26.5 Q33.6281,26.5 34.2531,26.2969 Q34.6125,26.1875 35.0188,25.8281 Q35.2844,25.625 35.425,25.5625 Q35.5656,25.5 35.7375,25.5 Q36.0656,25.5 36.3,25.7656 Q36.55,26.0156 36.55,26.375 Q36.55,26.7188 36.2063,27.125 Q35.7063,27.7188 34.9094,28.0469 Q33.8625,28.5 32.5813,28.5 Q31.0812,28.5 29.8781,27.9063 Q28.9094,27.4375 28.2219,26.4219 Q27.55,25.4063 27.55,24.2031 L27.55,23.1094 Q27.55,21.8594 28.1437,20.7656 Q28.7531,19.6719 29.8,19.0938 Q30.8625,18.5 32.05,18.5 Q32.7688,18.5 33.3938,18.75 Q34.0188,19 34.55,19.5 Z " fill="#000000"/><text fill="#000000" font-family="sans-serif" font-size="12" lengthAdjust="spacing" textLength="32" x="48.45" y="27.9102">Client</text><line style="stroke:#A80036;stroke-width:1.5;" x1="10" x2="91" y1="39" y2="39"/><text fill="#000000" font-family="sans-serif" font-size="11" lengthAdjust="spacing" textLength="44" x="15" y="54.4189">-citizenID</text><text fill="#000000" font-family="sans-serif" font-size="11" lengthAdjust="spacing" textLength="31" x="15" y="68.2549">-nhsID</text><text fill="#000000" font-family="sans-serif" font-size="11" lengthAdjust="spacing" textLength="47" x="15" y="82.0908">-birthDate</text><text fill="#000000" font-family="sans-serif" font-size="11" lengthAdjust="spacing" textLength="22" x="15" y="95.9268">-sex</text><text fill="#000000" font-family="sans-serif" font-size="11" lengthAdjust="spacing" textLength="19" x="15" y="109.7627">-TIN</text><text fill="#000000" font-family="sans-serif" font-size="11" lengthAdjust="spacing" textLength="71" x="15" y="123.5986">-phoneNumber</text><text fill="#000000" font-family="sans-serif" font-size="11" lengthAdjust="spacing" textLength="28" x="15" y="137.4346">-email</text><text fill="#000000" font-family="sans-serif" font-size="11" lengthAdjust="spacing" textLength="30" x="15" y="151.2705">-name</text><!--MD5=[7421f545a0d8420c5bec41e74b387d9c]
class Employee--><rect codeLine="28" fill="#FEFECE" filter="url(#fwv7d0r8l6ml4)" height="136.8516" id="Employee" style="stroke:#A80036;stroke-width:1.5;" width="87" x="7" y="193"/><ellipse cx="22" cy="209" fill="#ADD1B2" rx="11" ry="11" style="stroke:#A80036;stroke-width:1.0;"/><path d="M24,205.5 Q24.2031,205 24.4375,204.75 Q24.6719,204.5 24.9375,204.5 Q25.4063,204.5 25.7031,204.7813 Q26,205.0625 26,205.7188 L26,207.2813 Q26,207.9375 25.7188,208.2188 Q25.4375,208.5 25,208.5 Q24.6094,208.5 24.3594,208.3281 Q24.1094,208.1563 24,207.7031 Q23.9531,207.3906 23.7813,207.2188 Q23.4688,206.8906 22.9063,206.7031 Q22.3438,206.5 21.7813,206.5 Q21.0781,206.5 20.4844,206.7813 Q19.9063,207.0625 19.4531,207.6875 Q19,208.3125 19,209.1719 L19,210.0938 Q19,211.125 19.8438,211.8125 Q20.6875,212.5 22.1875,212.5 Q23.0781,212.5 23.7031,212.2969 Q24.0625,212.1875 24.4688,211.8281 Q24.7344,211.625 24.875,211.5625 Q25.0156,211.5 25.1875,211.5 Q25.5156,211.5 25.75,211.7656 Q26,212.0156 26,212.375 Q26,212.7188 25.6563,213.125 Q25.1563,213.7188 24.3594,214.0469 Q23.3125,214.5 22.0313,214.5 Q20.5313,214.5 19.3281,213.9063 Q18.3594,213.4375 17.6719,212.4219 Q17,211.4063 17,210.2031 L17,209.1094 Q17,207.8594 17.5938,206.7656 Q18.2031,205.6719 19.25,205.0938 Q20.3125,204.5 21.5,204.5 Q22.2188,204.5 22.8438,204.75 Q23.4688,205 24,205.5 Z " fill="#000000"/><text fill="#000000" font-family="sans-serif" font-size="12" lengthAdjust="spacing" textLength="55" x="36" y="213.9102">Employee</text><line style="stroke:#A80036;stroke-width:1.5;" x1="8" x2="93" y1="225" y2="225"/><text fill="#000000" font-family="sans-serif" font-size="11" lengthAdjust="spacing" textLength="30" x="13" y="240.4189">-name</text><text fill="#000000" font-family="sans-serif" font-size="11" lengthAdjust="spacing" textLength="44" x="13" y="254.2549">-address</text><text fill="#000000" font-family="sans-serif" font-size="11" lengthAdjust="spacing" textLength="71" x="13" y="268.0908">-phoneNumber</text><text fill="#000000" font-family="sans-serif" font-size="11" lengthAdjust="spacing" textLength="59" x="13" y="281.9268">-employeeID</text><text fill="#000000" font-family="sans-serif" font-size="11" lengthAdjust="spacing" textLength="41" x="13" y="295.7627">-orgRole</text><text fill="#000000" font-family="sans-serif" font-size="11" lengthAdjust="spacing" textLength="28" x="13" y="309.5986">-email</text><text fill="#000000" font-family="sans-serif" font-size="11" lengthAdjust="spacing" textLength="50" x="13" y="323.4346">-SOCcode</text><!--MD5=[7048eb257bae2750d747ca61a113ed73]
link Client to Receptionist--><path codeLine="9" d="M92.06,99.32 C128.37,114.38 181.67,136.49 220.18,152.46 " fill="none" id="Client-Receptionist" style="stroke:#A80036;stroke-width:1.0;"/><polygon fill="#000000" points="124.3815,103.7602,131.6105,109.9402,133.8624,104.5109,124.3815,103.7602" style="stroke:#000000;stroke-width:1.0;"/><text fill="#000000" font-family="sans-serif" font-size="13" lengthAdjust="spacing" textLength="50" x="138" y="110.9951">registers</text><text fill="#000000" font-family="sans-serif" font-size="13" lengthAdjust="spacing" textLength="5" x="99.9082" y="117.2953">*</text><text fill="#000000" font-family="sans-serif" font-size="13" lengthAdjust="spacing" textLength="20" x="191.0966" y="145.6884">1..*</text><!--MD5=[1da12df22706e73e1def33b218b7f412]
link Employee to Receptionist--><path codeLine="10" d="M94.11,244.02 C130.15,229.24 181.81,208.06 219.54,192.58 " fill="none" id="Employee-Receptionist" style="stroke:#A80036;stroke-width:1.0;"/><polygon fill="#000000" points="138.8739,199.573,148.3577,198.8601,146.1274,193.4218,138.8739,199.573" style="stroke:#000000;stroke-width:1.0;"/><text fill="#000000" font-family="sans-serif" font-size="13" lengthAdjust="spacing" textLength="21" x="152.5" y="202.9951">is a</text><text fill="#000000" font-family="sans-serif" font-size="13" lengthAdjust="spacing" textLength="5" x="102.0352" y="255.9287">*</text><text fill="#000000" font-family="sans-serif" font-size="13" lengthAdjust="spacing" textLength="20" x="191.1081" y="210.0486">1..*</text><!--MD5=[0991d2d993b76d093ea18fd3dd997b39]
@startuml
'https://plantuml.com/class-diagram
hide methods

class Receptionist
class Client
class Employee
left to right direction

Client "*" - - "1..*" Receptionist : < registers
Employee "*" - - "1..*" Receptionist : < is a

skinparam classAttributeIconSize 0

class Receptionist{
}

class Client{
-citizenID
-nhsID
-birthDate
-sex
-TIN
-phoneNumber
-email
-name
}

class Employee{
-name
-address
-phoneNumber
-employeeID
-orgRole
-email
-SOCcode
}



@enduml

@startuml
hide methods

class Receptionist
class Client
class Employee
left to right direction

Client "*" - - "1..*" Receptionist : < registers
Employee "*" - - "1..*" Receptionist : < is a

skinparam classAttributeIconSize 0

class Receptionist{
}

class Client{
-citizenID
-nhsID
-birthDate
-sex
-TIN
-phoneNumber
-email
-name
}

class Employee{
-name
-address
-phoneNumber
-employeeID
-orgRole
-email
-SOCcode
}



@enduml

PlantUML version 1.2021.4(Sun Apr 04 09:49:39 BST 2021)
(GPL source distribution)
Java Runtime: OpenJDK Runtime Environment
JVM: OpenJDK 64-Bit Server VM
Default Encoding: Cp1252
Language: pt
Country: PT
--></g></svg>