<?xml version="1.0" encoding="UTF-8" standalone="no"?><svg xmlns="http://www.w3.org/2000/svg" xmlns:xlink="http://www.w3.org/1999/xlink" contentScriptType="application/ecmascript" contentStyleType="text/css" height="402px" preserveAspectRatio="none" style="width:129px;height:402px;" version="1.1" viewBox="0 0 129 402" width="129px" zoomAndPan="magnify"><defs><filter height="300%" id="fmxh4v1nk2xf3" width="300%" x="-1" y="-1"><feGaussianBlur result="blurOut" stdDeviation="2.0"/><feColorMatrix in="blurOut" result="blurOut2" type="matrix" values="0 0 0 0 0 0 0 0 0 0 0 0 0 0 0 0 0 0 .4 0"/><feOffset dx="4.0" dy="4.0" in="blurOut2" result="blurOut3"/><feBlend in="SourceGraphic" in2="blurOut3" mode="normal"/></filter></defs><g><!--MD5=[03960189e81aa2c066c762ffabbee709]
class Receptionist--><rect codeLine="10" fill="#FEFECE" filter="url(#fmxh4v1nk2xf3)" height="144.8516" id="Receptionist" style="stroke:#A80036;stroke-width:1.5;" width="101" x="7" y="244"/><ellipse cx="22" cy="260" fill="#ADD1B2" rx="11" ry="11" style="stroke:#A80036;stroke-width:1.0;"/><path d="M24,256.5 Q24.2031,256 24.4375,255.75 Q24.6719,255.5 24.9375,255.5 Q25.4063,255.5 25.7031,255.7813 Q26,256.0625 26,256.7188 L26,258.2813 Q26,258.9375 25.7188,259.2188 Q25.4375,259.5 25,259.5 Q24.6094,259.5 24.3594,259.3281 Q24.1094,259.1563 24,258.7031 Q23.9531,258.3906 23.7813,258.2188 Q23.4688,257.8906 22.9063,257.7031 Q22.3438,257.5 21.7813,257.5 Q21.0781,257.5 20.4844,257.7813 Q19.9063,258.0625 19.4531,258.6875 Q19,259.3125 19,260.1719 L19,261.0938 Q19,262.125 19.8438,262.8125 Q20.6875,263.5 22.1875,263.5 Q23.0781,263.5 23.7031,263.2969 Q24.0625,263.1875 24.4688,262.8281 Q24.7344,262.625 24.875,262.5625 Q25.0156,262.5 25.1875,262.5 Q25.5156,262.5 25.75,262.7656 Q26,263.0156 26,263.375 Q26,263.7188 25.6563,264.125 Q25.1563,264.7188 24.3594,265.0469 Q23.3125,265.5 22.0313,265.5 Q20.5313,265.5 19.3281,264.9063 Q18.3594,264.4375 17.6719,263.4219 Q17,262.4063 17,261.2031 L17,260.1094 Q17,258.8594 17.5938,257.7656 Q18.2031,256.6719 19.25,256.0938 Q20.3125,255.5 21.5,255.5 Q22.2188,255.5 22.8438,255.75 Q23.4688,256 24,256.5 Z " fill="#000000"/><text fill="#000000" font-family="sans-serif" font-size="12" lengthAdjust="spacing" textLength="69" x="36" y="264.9102">Receptionist</text><line style="stroke:#A80036;stroke-width:1.5;" x1="8" x2="107" y1="276" y2="276"/><text fill="#000000" font-family="sans-serif" font-size="11" lengthAdjust="spacing" textLength="30" x="13" y="291.4189">-name</text><text fill="#000000" font-family="sans-serif" font-size="11" lengthAdjust="spacing" textLength="44" x="13" y="305.2549">-address</text><text fill="#000000" font-family="sans-serif" font-size="11" lengthAdjust="spacing" textLength="71" x="13" y="319.0908">-phoneNumber</text><text fill="#000000" font-family="sans-serif" font-size="11" lengthAdjust="spacing" textLength="59" x="13" y="332.9268">-employeeID</text><text fill="#000000" font-family="sans-serif" font-size="11" lengthAdjust="spacing" textLength="41" x="13" y="346.7627">-orgRole</text><text fill="#000000" font-family="sans-serif" font-size="11" lengthAdjust="spacing" textLength="28" x="13" y="360.5986">-email</text><text fill="#000000" font-family="sans-serif" font-size="11" lengthAdjust="spacing" textLength="50" x="13" y="374.4346">-SOCcode</text><line style="stroke:#A80036;stroke-width:1.5;" x1="8" x2="107" y1="380.8516" y2="380.8516"/><!--MD5=[ed6624c6556d5e7b1bd23032162d20b7]
class Client--><rect codeLine="20" fill="#FEFECE" filter="url(#fmxh4v1nk2xf3)" height="158.6875" id="Client" style="stroke:#A80036;stroke-width:1.5;" width="83" x="16" y="7"/><ellipse cx="39.55" cy="23" fill="#ADD1B2" rx="11" ry="11" style="stroke:#A80036;stroke-width:1.0;"/><path d="M41.55,19.5 Q41.7531,19 41.9875,18.75 Q42.2219,18.5 42.4875,18.5 Q42.9563,18.5 43.2531,18.7813 Q43.55,19.0625 43.55,19.7188 L43.55,21.2813 Q43.55,21.9375 43.2688,22.2188 Q42.9875,22.5 42.55,22.5 Q42.1594,22.5 41.9094,22.3281 Q41.6594,22.1563 41.55,21.7031 Q41.5031,21.3906 41.3313,21.2188 Q41.0188,20.8906 40.4563,20.7031 Q39.8938,20.5 39.3313,20.5 Q38.6281,20.5 38.0344,20.7813 Q37.4563,21.0625 37.0031,21.6875 Q36.55,22.3125 36.55,23.1719 L36.55,24.0938 Q36.55,25.125 37.3938,25.8125 Q38.2375,26.5 39.7375,26.5 Q40.6281,26.5 41.2531,26.2969 Q41.6125,26.1875 42.0188,25.8281 Q42.2844,25.625 42.425,25.5625 Q42.5656,25.5 42.7375,25.5 Q43.0656,25.5 43.3,25.7656 Q43.55,26.0156 43.55,26.375 Q43.55,26.7188 43.2063,27.125 Q42.7063,27.7188 41.9094,28.0469 Q40.8625,28.5 39.5813,28.5 Q38.0813,28.5 36.8781,27.9063 Q35.9094,27.4375 35.2219,26.4219 Q34.55,25.4063 34.55,24.2031 L34.55,23.1094 Q34.55,21.8594 35.1438,20.7656 Q35.7531,19.6719 36.8,19.0938 Q37.8625,18.5 39.05,18.5 Q39.7688,18.5 40.3938,18.75 Q41.0188,19 41.55,19.5 Z " fill="#000000"/><text fill="#000000" font-family="sans-serif" font-size="12" lengthAdjust="spacing" textLength="32" x="55.45" y="27.9102">Client</text><line style="stroke:#A80036;stroke-width:1.5;" x1="17" x2="98" y1="39" y2="39"/><text fill="#000000" font-family="sans-serif" font-size="11" lengthAdjust="spacing" textLength="44" x="22" y="54.4189">-citizenID</text><text fill="#000000" font-family="sans-serif" font-size="11" lengthAdjust="spacing" textLength="31" x="22" y="68.2549">-nhsID</text><text fill="#000000" font-family="sans-serif" font-size="11" lengthAdjust="spacing" textLength="47" x="22" y="82.0908">-birthDate</text><text fill="#000000" font-family="sans-serif" font-size="11" lengthAdjust="spacing" textLength="22" x="22" y="95.9268">-sex</text><text fill="#000000" font-family="sans-serif" font-size="11" lengthAdjust="spacing" textLength="19" x="22" y="109.7627">-TIN</text><text fill="#000000" font-family="sans-serif" font-size="11" lengthAdjust="spacing" textLength="71" x="22" y="123.5986">-phoneNumber</text><text fill="#000000" font-family="sans-serif" font-size="11" lengthAdjust="spacing" textLength="28" x="22" y="137.4346">-email</text><text fill="#000000" font-family="sans-serif" font-size="11" lengthAdjust="spacing" textLength="30" x="22" y="151.2705">-name</text><line style="stroke:#A80036;stroke-width:1.5;" x1="17" x2="98" y1="157.6875" y2="157.6875"/><!--MD5=[7048eb257bae2750d747ca61a113ed73]
link Client to Receptionist--><path codeLine="6" d="M57.5,166.28 C57.5,191.51 57.5,219.29 57.5,243.97 " fill="none" id="Client-Receptionist" style="stroke:#A80036;stroke-width:1.0;"/><polygon fill="#000000" points="62.5,200.1758,59.5611,209.2209,65.4389,209.2209,62.5,200.1758" style="stroke:#000000;stroke-width:1.0;"/><text fill="#000000" font-family="sans-serif" font-size="13" lengthAdjust="spacing" textLength="50" x="71.5" y="210.4951">registers</text><text fill="#000000" font-family="sans-serif" font-size="13" lengthAdjust="spacing" textLength="5" x="52.293" y="187.0719">*</text><text fill="#000000" font-family="sans-serif" font-size="13" lengthAdjust="spacing" textLength="20" x="36.4688" y="233.1862">1..*</text><!--MD5=[34126715d48af97b1c94c7f0205ff29b]
@startuml
'https://plantuml.com/class-diagram

class Receptionist
class Client

Client "*" - - "1..*" Receptionist : < registers

skinparam classAttributeIconSize 0

class Receptionist{
-name
-address
-phoneNumber
-employeeID
-orgRole
-email
-SOCcode
}

class Client{
-citizenID
-nhsID
-birthDate
-sex
-TIN
-phoneNumber
-email
-name
}

@enduml

@startuml

class Receptionist
class Client

Client "*" - - "1..*" Receptionist : < registers

skinparam classAttributeIconSize 0

class Receptionist{
-name
-address
-phoneNumber
-employeeID
-orgRole
-email
-SOCcode
}

class Client{
-citizenID
-nhsID
-birthDate
-sex
-TIN
-phoneNumber
-email
-name
}

@enduml

PlantUML version 1.2021.4(Sun Apr 04 09:49:39 BST 2021)
(GPL source distribution)
Java Runtime: OpenJDK Runtime Environment
JVM: OpenJDK 64-Bit Server VM
Default Encoding: Cp1252
Language: pt
Country: PT
--></g></svg>